<svg width="61" height="80" viewBox="0 0 61 80" fill="none" xmlns="http://www.w3.org/2000/svg">
<g clip-path="url(#clip0_664_11578)">
<path d="M60.8357 70.7878L58.0661 55.6748H7.63172L4.86216 70.7878C4.75382 71.0842 4.69739 71.3828 4.69739 71.6883C4.69739 76.2776 17.3015 80.0006 32.8489 80.0006C48.3964 80.0006 61.0005 76.2799 61.0005 71.6883C61.0005 71.3851 60.944 71.0842 60.8357 70.7878Z" fill="#082422" stroke="#082422" stroke-width="0.14137" stroke-miterlimit="10"/>
<path d="M32.8488 60.2052C46.7759 60.2052 58.066 57.0563 58.066 53.1719C58.066 49.2876 46.7759 46.1387 32.8488 46.1387C18.9217 46.1387 7.63159 49.2876 7.63159 53.1719C7.63159 57.0563 18.9217 60.2052 32.8488 60.2052Z" fill="#FF8F5F" stroke="#002522" stroke-width="0.14137" stroke-miterlimit="10"/>
<path d="M32.8488 60.2052C46.7759 60.2052 58.066 57.0563 58.066 53.1719C58.066 49.2876 46.7759 46.1387 32.8488 46.1387C18.9217 46.1387 7.63159 49.2876 7.63159 53.1719C7.63159 57.0563 18.9217 60.2052 32.8488 60.2052Z" stroke="#002522" stroke-width="0.14137" stroke-miterlimit="10"/>
<path d="M51.6393 15.3721C51.3504 12.7799 49.6327 10.5639 47.1972 9.6976C47.1633 9.6862 47.1295 9.6748 47.0956 9.66112C45.2628 9.02733 42.9582 8.52577 40.3106 8.17012C36.0197 7.5956 31.6723 7.56824 27.3634 7.99001C24.7947 8.24079 21.9033 8.63064 20.014 9.212C15.915 10.4727 14.4907 12.6317 14.134 14.2504C13.7774 15.8691 9.35785 50.6479 9.80252 51.9975C9.80252 53.5638 11.5721 55.0092 14.5471 56.1628C16.3258 56.9105 18.7703 57.5945 22.1538 58.0755C22.2463 58.0892 22.3389 58.1006 22.4314 58.112C25.5599 58.5839 29.1014 58.8507 32.8506 58.8507C44.7843 58.8507 54.6008 56.1514 55.779 52.6951C55.8287 52.6039 55.8715 52.5059 55.9009 52.401C56.3456 50.8713 51.6439 15.3698 51.6439 15.3698L51.6393 15.3721Z" fill="#EB4700" stroke="#002522" stroke-width="0.14137" stroke-miterlimit="10"/>
<path d="M32.8488 60.2032C18.922 60.2032 7.63159 57.0547 7.63159 53.1699V55.6732C7.63159 59.558 18.922 62.7064 32.8488 62.7064C46.7756 62.7064 58.066 59.558 58.066 55.6732V53.1699C58.066 57.0547 46.7756 60.2032 32.8488 60.2032Z" fill="#F26629" stroke="#002522" stroke-width="0.14137" stroke-miterlimit="10"/>
<path d="M28.0342 15.8215C29.1831 15.5001 28.6955 14.9233 26.6889 14.652C22.951 14.0683 20.0641 12.9626 18.8339 11.6084C18.7481 11.5947 17.3803 11.4078 16.7189 12.2992C16.114 13.1154 16.8228 13.5075 17.466 13.9612C19.6217 14.8754 22.96 15.5821 26.9236 15.9355C27.2554 15.9651 27.594 15.9355 27.9168 15.8512C27.9552 15.842 27.9935 15.8306 28.0319 15.8192L28.0342 15.8215Z" fill="white"/>
<path opacity="0.2" d="M32.8494 48.988C40.7267 48.988 47.1125 42.5381 47.1125 34.5818C47.1125 26.6254 40.7267 20.1755 32.8494 20.1755C24.9721 20.1755 18.5863 26.6254 18.5863 34.5818C18.5863 42.5381 24.9721 48.988 32.8494 48.988Z" fill="white"/>
<path opacity="0.5" d="M43.6027 39.2519C46.1557 33.2529 43.4105 26.2993 37.471 23.7207C31.5316 21.1421 24.6471 23.9149 22.0941 29.9139C19.5411 35.9129 22.2863 42.8665 28.2258 45.4451C34.1652 48.0238 41.0497 45.251 43.6027 39.2519Z" fill="white"/>
<path d="M15.3271 17.8243L11.4174 51.1865C11.3982 51.358 11.4581 51.5317 11.5821 51.6482C11.8965 51.9472 12.4077 51.7537 12.4611 51.3184L16.5313 17.998C16.5655 17.7254 16.3944 17.4725 16.1356 17.4066L15.9773 17.3648C15.6693 17.2857 15.3656 17.5011 15.3271 17.8243Z" fill="white"/>
<path d="M13.5852 25.4375C13.6279 25.4548 13.6564 25.4634 13.6734 25.4691L8.60339 23.5738C8.58915 23.5681 8.55784 23.5566 8.51514 23.5422L13.5852 25.4375Z" fill="#E9E9E9" stroke="black" stroke-width="0.14137" stroke-miterlimit="10"/>
<path d="M25.1124 2.32352L20.0424 0.428223C23.4556 1.70324 25.5764 5.69486 25.0071 10.4188C24.3125 16.1707 19.8886 20.8343 15.1232 20.8343H8.6497L8.60699 23.5739L13.677 25.4692L13.7197 22.7296H20.1932C24.9587 22.7296 29.3825 18.066 30.0771 12.3141C30.6493 7.59017 28.5256 3.59855 25.1124 2.32352Z" fill="#E9E9E9" stroke="black" stroke-width="0.14137" stroke-miterlimit="10"/>
<path d="M17.6414 0C22.404 0 25.7006 4.66646 25.006 10.4184C24.3114 16.1704 19.8875 20.834 15.1221 20.834H8.64859L8.60589 23.5735C8.30983 23.4673 2.68752 21.4542 0.709036 15.8631C0.0912933 14.2779 -0.147833 12.4142 0.0912933 10.4184C0.788745 4.66646 5.21258 0 9.97518 0H17.6414Z" fill="white" stroke="black" stroke-width="0.14137" stroke-miterlimit="10"/>
<path d="M9.52058 9.97974C10.0017 9.97974 10.3376 10.4507 10.2664 11.0365C10.1953 11.6223 9.74832 12.0933 9.26437 12.0933C8.78042 12.0933 8.44451 11.6223 8.51568 11.0365C8.58685 10.4507 9.03378 9.97974 9.52058 9.97974Z" fill="black"/>
<path d="M12.8457 9.97974C13.3268 9.97974 13.6627 10.4507 13.5916 11.0365C13.5204 11.6223 13.0734 12.0933 12.5895 12.0933C12.1056 12.0933 11.7696 11.6223 11.8408 11.0365C11.912 10.4507 12.3589 9.97974 12.8457 9.97974Z" fill="#6E6E6E"/>
<path d="M16.1667 9.97974C16.6507 9.97974 16.9866 10.4507 16.9154 11.0365C16.8442 11.6223 16.3973 12.0933 15.9105 12.0933C15.4237 12.0933 15.0935 11.6223 15.1647 11.0365C15.2358 10.4507 15.6828 9.97974 16.1667 9.97974Z" fill="#BCBCBC"/>
</g>
<defs>
<clipPath id="clip0_664_11578">
<rect width="61" height="80" fill="white"/>
</clipPath>
</defs>
</svg>
