<svg width="70" height="80" viewBox="0 0 70 80" fill="none" xmlns="http://www.w3.org/2000/svg">
<g clip-path="url(#clip0_664_11594)">
<path d="M70.0369 65.4807L70.0477 65.7864C70.1139 68.9501 68.6565 72.4525 66.534 75.1926C64.3442 78.0195 61.4352 80.05 58.742 80.05H13.3455C12.5033 80.05 11.7761 79.8534 11.1776 79.4905L1.95197 73.9309L1.97736 73.8889L2.00275 73.8459C2.58943 74.1985 3.29258 74.3918 4.11896 74.3918H49.5164C52.1614 74.3916 55.0451 72.3903 57.2283 69.5725C59.4105 66.7562 60.8819 63.1384 60.7127 59.927L57.8162 5.06274C57.7051 2.9491 56.9074 1.54133 55.7244 0.826416L55.7752 0.742432L65.0018 6.29614C66.2209 7.02766 67.0283 8.47152 67.1404 10.6125L70.0369 65.4758V65.4807Z" fill="#C6B600" stroke="#082422" stroke-width="0.0987641"/>
<path d="M53.7412 -0.0498047C54.9219 -0.0497632 55.957 0.360527 56.7178 1.18164C57.478 2.00219 57.9605 3.22901 58.0459 4.85547L60.9404 59.9336C61.1112 63.1883 59.6282 66.843 57.4375 69.6826C55.248 72.5207 52.3401 74.5596 49.6504 74.5596H4.27246C2.92394 74.5596 1.8816 74.0477 1.15918 73.1758C0.43792 72.3051 0.0386107 71.0791 -0.0361328 69.6553C-0.18556 66.8079 0.962574 63.1531 3.46777 59.9062L45.9512 4.82812C48.453 1.58482 51.3825 -0.0498047 53.7412 -0.0498047Z" fill="#FFEA00" stroke="#082422" stroke-width="0.0987641"/>
<g opacity="0.15">
<path d="M44.3275 25.0574L49.848 28.3904C50.0631 28.5212 50.1924 28.7573 50.2289 29.0486C50.2653 29.3398 50.2105 29.6891 50.0541 30.0554L40.4554 52.6609C40.2801 53.0754 40.0064 53.4392 39.6976 53.7C39.3894 53.9601 39.0414 54.1218 38.7181 54.1218H37.1859C37.0683 54.1218 36.9622 54.0998 36.8685 54.0603L36.7787 54.0144L31.2582 50.6804L31.2836 50.6384L31.309 50.5955C31.407 50.6538 31.5254 50.6892 31.6654 50.6892H33.1976C33.4894 50.6892 33.8159 50.5408 34.1136 50.2888C34.4105 50.0375 34.6748 49.6864 34.8441 49.2888L44.4427 26.6833V26.6824C44.5937 26.3286 44.6444 25.9973 44.6107 25.7273C44.5769 25.4572 44.4594 25.2515 44.2767 25.1404L44.3275 25.0564V25.0574Z" fill="#082422" stroke="#082422" stroke-width="0.0987641"/>
<path d="M33.5533 52.3994L39.0738 55.7334H39.0748C39.2874 55.8647 39.4173 56.1106 39.4576 56.4199C39.4979 56.7299 39.4492 57.1088 39.3013 57.5166L38.066 60.9502C37.8832 61.4567 37.581 61.9171 37.2388 62.251C36.8982 62.5834 36.5113 62.7967 36.1588 62.7969H33.5494C33.4091 62.7969 33.2833 62.7641 33.1793 62.7012L27.6588 59.3672L27.6841 59.3242L27.7095 59.2822C27.7964 59.3348 27.9042 59.3643 28.0289 59.3643H30.6382C30.9535 59.3641 31.3165 59.171 31.649 58.8467C31.9803 58.5233 32.2749 58.0756 32.4527 57.583L33.688 54.1494L33.7379 54.002C33.8421 53.6629 33.8724 53.3525 33.8394 53.0977C33.8015 52.8057 33.6815 52.5913 33.5025 52.4834L33.5533 52.3994Z" fill="#082422" stroke="#082422" stroke-width="0.0987641"/>
</g>
<path d="M41.3135 23.3684L46.834 26.7014C47.0491 26.8322 47.1784 27.0683 47.2149 27.3596C47.2513 27.6508 47.1965 28.0002 47.0401 28.3665L37.4415 50.9719C37.2662 51.3864 36.9925 51.7503 36.6837 52.011C36.3755 52.2711 36.0274 52.4329 35.7042 52.4329H34.1719C34.0543 52.4329 33.9482 52.4109 33.8546 52.3713L33.7647 52.3254L28.2442 48.9915L28.2696 48.9495L28.295 48.9065C28.3931 48.9648 28.5114 49.0002 28.6514 49.0002H30.1837C30.4754 49.0002 30.8019 48.8518 31.0997 48.5999C31.3965 48.3486 31.6608 47.9975 31.8301 47.5999L41.4288 24.9944V24.9934C41.5797 24.6396 41.6305 24.3083 41.5967 24.0383C41.5629 23.7683 41.4454 23.5625 41.2628 23.4514L41.3135 23.3674V23.3684Z" fill="#D6D6D6" stroke="#082422" stroke-width="0.0987641"/>
<path d="M30.5391 50.7104L36.0596 54.0444H36.0606C36.2733 54.1757 36.4031 54.4217 36.4434 54.731C36.4838 55.0409 36.435 55.4199 36.2872 55.8276L35.0518 59.2612C34.869 59.7677 34.5668 60.2281 34.2247 60.562C33.884 60.8944 33.4972 61.1077 33.1446 61.1079H30.5352C30.3949 61.1079 30.2691 61.0751 30.1651 61.0122L24.6446 57.6782L24.67 57.6353L24.6954 57.5933C24.7822 57.6459 24.89 57.6753 25.0147 57.6753H27.6241C27.9393 57.6752 28.3024 57.482 28.6348 57.1577C28.9662 56.8343 29.2607 56.3867 29.4385 55.894L30.6739 52.4604L30.7237 52.313C30.8279 51.9739 30.8583 51.6636 30.8253 51.4087C30.7873 51.1167 30.6673 50.9024 30.4883 50.7944L30.5391 50.7104Z" fill="#D6D6D6" stroke="#082422" stroke-width="0.0987641"/>
<path d="M40.9088 23.2651C41.0922 23.2651 41.2498 23.3182 41.3756 23.4136C41.5011 23.5087 41.5924 23.6445 41.6471 23.8081C41.7561 24.1345 41.7215 24.5737 41.5221 25.0386L31.9235 47.644C31.7481 48.0559 31.4744 48.4199 31.1656 48.6812C30.8576 48.9418 30.5095 49.104 30.1862 49.104H28.6539C28.3268 49.104 28.083 48.937 27.9557 48.6636C27.8298 48.3929 27.8198 48.0222 27.944 47.6099L34.6832 25.0044C34.8211 24.538 35.1009 24.1063 35.4342 23.7905C35.7665 23.4757 36.1584 23.2711 36.5231 23.271H40.86V23.2651H40.9088Z" fill="white" stroke="#082422" stroke-width="0.0987641"/>
<path d="M30.1682 50.614C30.3458 50.614 30.4977 50.6689 30.6184 50.7683C30.7385 50.8673 30.8253 51.0085 30.8772 51.1794C30.9807 51.5209 30.9493 51.9866 30.7668 52.4949L29.5305 55.9285C29.3477 56.4348 29.0454 56.8944 28.7034 57.2283C28.3626 57.5609 27.976 57.7751 27.6233 57.7751H25.0139C24.8363 57.7751 24.6844 57.7207 24.5637 57.6208C24.4436 57.5214 24.3568 57.3792 24.3049 57.2078C24.2015 56.8657 24.2338 56.4009 24.4163 55.8953L25.6516 52.4617C25.8344 51.9526 26.1366 51.4922 26.4788 51.1589C26.8196 50.8269 27.2072 50.614 27.5598 50.614H30.1682Z" fill="white" stroke="#082422" stroke-width="0.0987641"/>
</g>
<defs>
<clipPath id="clip0_664_11594">
<rect width="70" height="80" fill="white"/>
</clipPath>
</defs>
</svg>
