<svg width="82" height="80" viewBox="0 0 82 80" fill="none" xmlns="http://www.w3.org/2000/svg">
<g clip-path="url(#clip0_664_11561)">
<path d="M5.74805 30.8289H76.252C79.3931 30.8289 81.9404 33.3934 81.9404 36.5574V47.3689C81.9402 50.5327 79.393 53.0964 76.252 53.0964H5.74805C2.60702 53.0964 0.0598139 50.5327 0.0595703 47.3689V36.5574C0.0595979 33.3934 2.60688 30.8289 5.74805 30.8289Z" fill="#DCFF00" stroke="#082422" stroke-width="0.119763"/>
<path d="M40.9998 1.86304C41.823 1.86304 42.4861 2.50203 42.4861 3.28394V25.6814C42.4861 26.4633 41.823 27.1013 40.9998 27.1013C40.1766 27.1012 39.5134 26.4632 39.5134 25.6814V3.28394C39.5134 2.50211 40.1766 1.86317 40.9998 1.86304Z" fill="#DCFF00" stroke="#082422" stroke-width="0.119763"/>
<path d="M20.501 18.5212H61.4991C69.0788 18.5213 75.2226 24.6076 75.2227 32.114V48.5222C75.2227 56.0288 69.0786 62.115 61.4991 62.115H20.501C12.9212 62.1149 6.7774 56.0288 6.7774 48.5222V32.114C6.77753 24.6075 12.9213 18.5213 20.501 18.5212Z" fill="#E0EBFC" stroke="#082422" stroke-width="0.119763"/>
<path d="M20.3352 26.3726H61.345C64.4694 26.3726 67.012 28.9136 67.012 32.0366V48.6001C67.012 51.7231 64.4694 54.2642 61.345 54.2642H20.3352C17.2108 54.2642 14.6682 51.7231 14.6682 48.6001V32.0366C14.6682 28.9136 17.2108 26.3726 20.3352 26.3726Z" fill="#2BF2F1" stroke="#082422" stroke-width="0.119763"/>
<path d="M40.9999 0.0595703C43.2926 0.0595703 45.1523 1.93287 45.1523 4.24414C45.1522 6.55537 43.2926 8.42773 40.9999 8.42773C38.7073 8.42771 36.8477 6.55535 36.8476 4.24414C36.8476 1.93288 38.7073 0.0595984 40.9999 0.0595703Z" fill="#2BF2F1" stroke="#082422" stroke-width="0.119763"/>
<path d="M25.5383 44.987C28.0412 44.987 30.0702 42.8969 30.0702 40.3186C30.0702 37.7403 28.0412 35.6501 25.5383 35.6501C23.0355 35.6501 21.0065 37.7403 21.0065 40.3186C21.0065 42.8969 23.0355 44.987 25.5383 44.987Z" fill="#082422"/>
<path d="M56.3017 44.987C58.8929 44.987 60.9935 42.8969 60.9935 40.3186C60.9935 37.7403 58.8929 35.6501 56.3017 35.6501C53.7105 35.6501 51.6099 37.7403 51.6099 40.3186C51.6099 42.8969 53.7105 44.987 56.3017 44.987Z" fill="#082422"/>
<path d="M46.4294 44.1978C46.397 47.125 43.9802 49.4897 40.9997 49.4897C38.0193 49.4896 35.6024 47.1249 35.57 44.1978H46.4294Z" fill="#082422" stroke="#082422" stroke-width="0.119763"/>
<path d="M54.6407 62.2349C61.2766 65.3415 65.3713 72.4109 64.5636 79.9399H17.5431C16.7354 72.4108 20.83 65.3415 27.4659 62.2349H54.6407Z" fill="#E0EBFC" stroke="#082422" stroke-width="0.119763"/>
<path d="M25.6001 35.0732C28.4522 35.0732 30.7737 37.4254 30.7739 40.3184C30.7739 43.2115 28.452 45.5635 25.6001 45.5635C22.7483 45.5633 20.4263 43.2114 20.4263 40.3184C20.4265 37.4255 22.7481 35.0734 25.6001 35.0732ZM56.3999 35.0732C59.2519 35.0734 61.5735 37.4255 61.5737 40.3184C61.5737 43.2114 59.2517 45.5633 56.3999 45.5635C53.548 45.5635 51.2261 43.2115 51.2261 40.3184C51.2263 37.4254 53.5478 35.0732 56.3999 35.0732ZM25.6001 36.2861C23.4052 36.2863 21.6208 38.0955 21.6206 40.3184C21.6206 42.5414 23.4051 44.3514 25.6001 44.3516C27.7953 44.3516 29.5796 42.5415 29.5796 40.3184C29.5794 38.0954 27.7952 36.2861 25.6001 36.2861ZM56.3999 36.2861C54.2048 36.2861 52.4206 38.0954 52.4204 40.3184C52.4204 42.5415 54.2047 44.3516 56.3999 44.3516C58.5949 44.3514 60.3794 42.5414 60.3794 40.3184C60.3792 38.0955 58.5948 36.2863 56.3999 36.2861Z" fill="#082422" stroke="#082422" stroke-width="0.119763"/>
<path d="M40.948 50.1998C37.5701 50.1998 34.8221 47.4655 34.8221 44.1044C34.8221 43.7438 35.1162 43.4512 35.4786 43.4512H46.4171C46.7795 43.4512 47.0736 43.7438 47.0736 44.1044C47.0739 47.4655 44.3259 50.1998 40.948 50.1998ZM36.1797 44.7579C36.501 47.0905 38.5171 48.8937 40.948 48.8937C43.3789 48.8937 45.395 47.0905 45.7163 44.7579H36.1797Z" fill="#082422"/>
</g>
<defs>
<clipPath id="clip0_664_11561">
<rect width="82" height="80" fill="white"/>
</clipPath>
</defs>
</svg>
