<svg width="119" height="80" viewBox="0 0 119 80" fill="none" xmlns="http://www.w3.org/2000/svg">
<g clip-path="url(#clip0_664_11608)">
<path opacity="0.2" d="M31.8722 10.3589C42.4329 11.556 47.4518 18.2374 43.0825 25.2844C38.714 32.3299 26.6111 37.0703 16.0504 35.8732C5.4894 34.6751 0.470414 27.9937 4.83895 20.9482C9.20748 13.9027 21.31 9.16126 31.8722 10.3589Z" fill="black"/>
<path d="M30.9658 26.3609L30.5184 28.658C30.2219 30.1784 29.3945 31.6173 28.0025 32.8424C23.3337 36.9507 14.0779 37.0966 7.32912 33.169C2.59202 30.4129 0.349534 26.3815 1.04732 22.803L1.49475 20.5059C0.796967 24.0844 3.03945 28.1149 7.77656 30.8719C14.5253 34.7995 23.7811 34.6527 28.4499 30.5453C29.8419 29.3202 30.6693 27.8813 30.9658 26.3609Z" fill="#9CAD00" stroke="#082422" stroke-width="0.0721007" stroke-miterlimit="10"/>
<path d="M24.6805 16.0002C31.4292 19.9277 33.1151 26.4414 28.4455 30.5506C23.7767 34.6589 14.5209 34.8048 7.77213 30.8772C1.02336 26.9488 -0.662505 20.4351 4.00624 16.3268C8.67498 12.2185 17.9308 12.0717 24.6805 16.0002Z" fill="#9CAD00" stroke="#082422" stroke-width="0.0721007" stroke-miterlimit="10"/>
<path d="M23.1194 19.9242L21.8002 21.0848C23.3006 22.3931 23.5749 23.704 22.4785 24.9157L18.9274 22.8486C19.3314 22.2911 19.1929 21.8052 18.4702 21.3846C17.7938 20.9908 17.2274 20.972 16.961 21.2065C16.5678 21.5528 17.0303 21.977 18.0361 22.8897L18.5342 23.3506C20.6834 25.3479 21.114 26.4531 19.8694 27.5484C18.6673 28.6061 16.6903 28.6374 14.312 27.6728L12.8445 28.964L9.38487 26.9506L10.8639 25.6495C9.0706 24.1703 8.88151 22.7859 10.0312 21.5725L13.7979 23.7649C13.3052 24.3331 13.4837 24.8727 14.3297 25.3649C15.0825 25.8034 15.7555 25.9305 16.1283 25.6029C16.4577 25.313 16.0972 24.9783 15.4572 24.3725L14.3945 23.3962C12.2133 21.4266 11.9922 20.2723 13.2058 19.2056C14.3013 18.2418 16.0928 18.1488 18.3628 19.0508L19.6607 17.9089L23.1203 19.9224L23.1194 19.9242Z" fill="white" stroke="#082422" stroke-width="0.0721007" stroke-miterlimit="10"/>
<path d="M31.2749 22.0354L30.8275 24.3325C30.5309 25.8528 29.7035 27.2918 28.3115 28.5168C23.6428 32.6251 14.387 32.771 7.63821 28.8435C2.9011 26.0873 0.658616 22.0559 1.3564 18.4774L1.80383 16.1803C1.10605 19.7588 3.34854 23.7893 8.08564 26.5464C14.8344 30.4739 24.0902 30.3271 28.759 26.2197C30.151 24.9947 30.9784 23.5557 31.2749 22.0354Z" fill="#9CAD00" stroke="#082422" stroke-width="0.0721007" stroke-miterlimit="10"/>
<path d="M24.9895 11.6746C31.7382 15.6022 33.4241 22.1158 28.7545 26.225C24.0857 30.3333 14.8299 30.4792 8.08115 26.5517C1.33238 22.6232 -0.353484 16.1095 4.31526 12.0012C8.984 7.89293 18.2398 7.74618 24.9895 11.6746Z" fill="#9CAD00" stroke="#082422" stroke-width="0.0721007" stroke-miterlimit="10"/>
<path d="M23.4286 15.5988L22.1094 16.7595C23.6097 18.0678 23.884 19.3787 22.7876 20.5904L19.2366 18.5232C19.6405 17.9657 19.502 17.4798 18.7794 17.0593C18.1029 16.6655 17.5365 16.6467 17.2702 16.8812C16.8769 17.2275 17.3394 17.6517 18.3453 18.5644L18.8433 19.0253C20.9926 21.0226 21.4231 22.1277 20.1785 23.2231C18.9765 24.2808 16.9994 24.3121 14.6211 23.3474L13.1536 24.6387L9.69401 22.6253L11.173 21.3242C9.37975 19.845 9.19065 18.4606 10.3403 17.2472L14.1071 19.4396C13.6144 20.0078 13.7928 20.5474 14.6389 21.0396C15.3917 21.4781 16.0646 21.6051 16.4375 21.2776C16.7668 20.9877 16.4064 20.653 15.7663 20.0472L14.7037 19.0709C12.5224 17.1013 12.3014 15.9469 13.5149 14.8803C14.6104 13.9165 16.402 13.8234 18.672 14.7255L19.9699 13.5836L23.4295 15.5971L23.4286 15.5988Z" fill="white" stroke="#082422" stroke-width="0.0721007" stroke-miterlimit="10"/>
<path d="M30.0434 18.9465L29.5959 21.2436C29.2994 22.764 28.472 24.2029 27.08 25.428C22.4113 29.5363 13.1555 29.6821 6.4067 25.7546C1.6696 22.9984 -0.57289 18.9671 0.124891 15.3885L0.572324 13.0914C-0.125458 16.67 2.11703 20.7004 6.85413 23.4575C13.6029 27.385 22.8587 27.2383 27.5275 23.1309C28.9195 21.9058 29.7469 20.4669 30.0434 18.9465Z" fill="#9CAD00" stroke="#082422" stroke-width="0.0721007" stroke-miterlimit="10"/>
<path d="M23.758 8.58574C30.5068 12.5133 32.1927 19.027 27.523 23.1362C22.8543 27.2445 13.5985 27.3903 6.8497 23.4628C0.100932 19.5344 -1.58493 13.0207 3.08381 8.91237C7.75256 4.80407 17.0084 4.65731 23.758 8.58574Z" fill="#DCFF00" stroke="#082422" stroke-width="0.0721007" stroke-miterlimit="10"/>
<path d="M22.197 12.51L20.8778 13.6706C22.3781 14.9789 22.6524 16.2899 21.5561 17.5015L18.005 15.4344C18.4089 14.8769 18.2704 14.391 17.5478 13.9704C16.8713 13.5766 16.3049 13.5579 16.0386 13.7923C15.6453 14.1386 16.1079 14.5628 17.1137 15.4755L17.6117 15.9364C19.761 17.9337 20.1916 19.0389 18.9469 20.1342C17.7449 21.1919 15.7678 21.2232 13.3895 20.2586L11.9221 21.5499L8.46245 19.5364L9.94146 18.2353C8.14818 16.7561 7.95908 15.3717 9.10874 14.1583L12.8755 16.3507C12.3828 16.919 12.5612 17.4586 13.4073 17.9507C14.1601 18.3892 14.833 18.5163 15.2059 18.1888C15.5353 17.8988 15.1748 17.5641 14.5347 16.9583L13.4721 15.982C11.2909 14.0124 11.0698 12.8581 12.2834 11.7914C13.3789 10.8276 15.1704 10.7346 17.4404 11.6366L18.7383 10.4948L22.1979 12.5082L22.197 12.51Z" fill="white" stroke="#082422" stroke-width="0.0721007" stroke-miterlimit="10"/>
<path d="M32.8126 16.4753L32.3652 18.7724C32.0687 20.2928 31.2413 21.7317 29.8493 22.9568C25.1805 27.0651 15.9247 27.2109 9.17593 23.2834C4.43882 20.5272 2.19634 16.4959 2.89412 12.9173L3.34155 10.6202C2.64377 14.1988 4.88626 18.2292 9.62336 20.9863C16.3721 24.9138 25.6279 24.7671 30.2967 20.6597C31.6887 19.4346 32.5161 17.9957 32.8126 16.4753Z" fill="#9CAD00" stroke="#082422" stroke-width="0.0721007" stroke-miterlimit="10"/>
<path d="M26.5284 6.11468C33.2772 10.0422 34.963 16.5559 30.2934 20.6651C25.6247 24.7734 16.3689 24.9193 9.62009 20.9917C2.87132 17.0633 1.18546 10.5496 5.8542 6.4413C10.5229 2.333 19.7788 2.18624 26.5284 6.11468Z" fill="#DCFF00" stroke="#082422" stroke-width="0.0721007" stroke-miterlimit="10"/>
<path d="M24.9664 10.0385L23.6472 11.1992C25.1475 12.5075 25.4218 13.8184 24.3254 15.0301L20.7744 12.9629C21.1783 12.4054 21.0398 11.9195 20.3172 11.499C19.6407 11.1052 19.0743 11.0864 18.808 11.3209C18.4147 11.6672 18.8772 12.0914 19.883 13.0041L20.3811 13.465C22.5304 15.4623 22.9609 16.5674 21.7163 17.6627C20.5142 18.7205 18.5372 18.7518 16.1589 17.7871L14.6914 19.0784L11.2318 17.065L12.7108 15.7639C10.9175 14.2847 10.7284 12.9003 11.8781 11.6869L15.6449 13.8793C15.1522 14.4475 15.3306 14.9871 16.1766 15.4793C16.9295 15.9178 17.6024 16.0448 17.9752 15.7173C18.3046 15.4274 17.9442 15.0927 17.3041 14.4869L16.2414 13.5106C14.0602 11.541 13.8392 10.3866 15.0527 9.31997C16.1482 8.3562 17.9397 8.26314 20.2097 9.16516L21.5076 8.02332L24.9673 10.0368L24.9664 10.0385Z" fill="white" stroke="#082422" stroke-width="0.0721007" stroke-miterlimit="10"/>
<path d="M14.7588 44.213L59.8769 23.9132L73.2832 5.89697L118.998 28.842V34.7383L105.592 52.7545L60.3382 79.0293C58.0274 80.3711 55.1656 80.3183 52.9047 78.8921L14.6734 54.7709C12.9435 53.6805 12.9905 45.2376 14.7588 44.2116V44.213Z" fill="#00B1B0" stroke="#00201D" stroke-width="0.144201" stroke-miterlimit="10"/>
<path d="M14.7588 44.2138L59.8769 18.0162L73.2832 0L118.998 28.8428L105.592 46.859L60.3382 73.1337C58.0274 74.4756 55.1656 74.4227 52.9047 72.9965L14.6734 48.8754C12.9435 47.785 12.9905 45.2384 14.7588 44.2123V44.2138Z" fill="#2BF2F1" stroke="#00201D" stroke-width="0.144201" stroke-miterlimit="10"/>
<path d="M59.8782 18.0162L105.594 46.859L119.001 28.8428L73.2859 0L59.8782 18.0162Z" fill="#9CFFFF" stroke="#00201D" stroke-width="0.144201" stroke-miterlimit="10"/>
<path d="M69.0503 15.3423L74.0107 8.67715C74.4093 8.14125 75.1526 8.00263 75.7178 8.35846L109.483 29.6601C110.115 30.0588 110.274 30.9148 109.827 31.5164L104.867 38.1816C104.468 38.7175 103.725 38.8561 103.16 38.5003L69.3948 17.1986C68.7626 16.7999 68.6032 15.9439 69.0503 15.3423Z" fill="#FEFCF9" stroke="#00201D" stroke-width="0.144201" stroke-miterlimit="10"/>
<path d="M26.943 43.3489C27.1081 43.2488 27.3103 43.246 27.4712 43.3417L32.5982 45.5025C32.7619 45.5997 32.6224 46.65 32.4558 46.7501L27.7203 49.6225C27.531 49.7382 27.2975 49.7411 27.111 49.6311L22.189 46.7C22.0124 46.5957 21.9042 45.4568 22.0836 45.3496L26.9444 43.3475L26.943 43.3489Z" fill="#BFBBB8" stroke="#00201D" stroke-width="0.144201" stroke-miterlimit="10"/>
<path d="M22.207 45.7122L27.129 48.6432C27.3156 48.7532 27.5491 48.7504 27.7398 48.6346L32.4753 45.7608C32.6419 45.6607 32.6448 45.4192 32.481 45.3235L27.4907 42.351C27.3284 42.2553 27.1262 42.2581 26.9625 42.3582L22.2142 45.2392C22.0348 45.3478 22.0319 45.6064 22.2085 45.7107L22.207 45.7122Z" fill="#FEFCF9" stroke="#00201D" stroke-width="0.144201" stroke-miterlimit="10"/>
<path d="M34.841 38.7188C35.0047 38.6188 35.2069 38.6174 35.3678 38.7117L40.4834 40.8681C40.6458 40.9653 40.5062 42.0128 40.3411 42.1129L35.617 44.9781C35.4276 45.0924 35.1941 45.0953 35.009 44.9867L30.0984 42.0628C29.9233 41.9599 29.8137 40.8238 29.993 40.7152L34.841 38.7188Z" fill="#BFBBB8" stroke="#00201D" stroke-width="0.144201" stroke-miterlimit="10"/>
<path d="M30.1213 41.0757L35.0319 43.9996C35.2184 44.1096 35.4519 44.1067 35.6413 43.991L40.3653 41.1243C40.5305 41.0243 40.5348 40.7842 40.371 40.6884L35.3921 37.7246C35.2312 37.6288 35.029 37.6317 34.8639 37.7317L30.127 40.6055C29.949 40.7142 29.9447 40.9728 30.1213 41.0757Z" fill="#FEFCF9" stroke="#00201D" stroke-width="0.144201" stroke-miterlimit="10"/>
<path d="M42.6517 34.1363C42.8155 34.0363 43.0177 34.0348 43.1785 34.1292L48.2942 36.2856C48.4565 36.3828 48.3169 37.4303 48.1518 37.5303L43.4277 40.3956C43.2383 40.5099 43.0048 40.5128 42.8197 40.4042L37.9091 37.4803C37.734 37.3774 37.6244 36.2413 37.8038 36.1327L42.6517 34.1363Z" fill="#BFBBB8" stroke="#00201D" stroke-width="0.144201" stroke-miterlimit="10"/>
<path d="M37.9307 36.4939L42.8413 39.4178C43.0278 39.5278 43.2613 39.525 43.4507 39.4092L48.1748 36.5425C48.34 36.4425 48.3442 36.2024 48.1805 36.1067L43.2015 33.1428C43.0407 33.047 42.8385 33.0499 42.6733 33.1499L37.9364 36.0238C37.7584 36.1324 37.7542 36.391 37.9307 36.4939Z" fill="#FEFCF9" stroke="#00201D" stroke-width="0.144201" stroke-miterlimit="10"/>
<path d="M50.4633 29.5538C50.627 29.4538 50.8292 29.4523 50.9915 29.5466L56.1072 31.7031C56.2695 31.8003 56.1299 32.8478 55.9648 32.9478L51.2407 35.8131C51.0513 35.9274 50.8178 35.9303 50.6327 35.8217L45.7221 32.8978C45.547 32.7949 45.4374 31.6588 45.6168 31.5502L50.4647 29.5538H50.4633Z" fill="#BFBBB8" stroke="#00201D" stroke-width="0.144201" stroke-miterlimit="10"/>
<path d="M45.7402 31.9123L50.6508 34.8361C50.8374 34.9462 51.0709 34.9433 51.2602 34.8275L55.9843 31.9608C56.1495 31.8608 56.1537 31.6207 55.99 31.525L51.0111 28.5611C50.8502 28.4654 50.648 28.4682 50.4828 28.5683L45.7459 31.4421C45.568 31.5507 45.5637 31.8094 45.7402 31.9123Z" fill="#FEFCF9" stroke="#00201D" stroke-width="0.144201" stroke-miterlimit="10"/>
<path d="M58.2719 24.9726C58.4356 24.8726 58.6378 24.8711 58.7987 24.9655L63.9143 27.1219C64.0766 27.2191 63.9371 28.2666 63.7719 28.3666L59.0478 31.2319C58.8585 31.3462 58.625 31.3491 58.4399 31.2405L53.5293 28.3166C53.3541 28.2137 53.2445 27.0776 53.4239 26.969L58.2719 24.9726Z" fill="#AF2E2E" stroke="#00201D" stroke-width="0.144201" stroke-miterlimit="10"/>
<path d="M53.5497 27.3294L58.4603 30.2532C58.6468 30.3633 58.8803 30.3604 59.0697 30.2447L63.7938 27.378C63.9589 27.2779 63.9632 27.0378 63.7995 26.9421L58.8205 23.9782C58.6596 23.8825 58.4574 23.8853 58.2923 23.9854L53.5554 26.8592C53.3774 26.9678 53.3731 27.2265 53.5497 27.3294Z" fill="#F26629" stroke="#00201D" stroke-width="0.144201" stroke-miterlimit="10"/>
<path d="M34.6043 48.1746C34.7694 48.0745 34.9716 48.0717 35.1325 48.1674L40.2595 50.3282C40.4233 50.4254 40.2837 51.4757 40.1171 51.5757L35.3817 54.4482C35.1923 54.5639 34.9588 54.5668 34.7723 54.4567L29.8503 51.5257C29.6737 51.4214 29.5655 50.2824 29.7449 50.1753L34.6057 48.1731L34.6043 48.1746Z" fill="#BFBBB8" stroke="#00201D" stroke-width="0.144201" stroke-miterlimit="10"/>
<path d="M29.8695 50.5385L34.7915 53.4695C34.978 53.5795 35.2115 53.5767 35.4023 53.4609L40.1378 50.5871C40.3044 50.487 40.3072 50.2455 40.1435 50.1498L35.1532 47.1773C34.9908 47.0816 34.7887 47.0844 34.6249 47.1845L29.8766 50.0654C29.6972 50.1741 29.6944 50.4327 29.8709 50.537L29.8695 50.5385Z" fill="#FEFCF9" stroke="#00201D" stroke-width="0.144201" stroke-miterlimit="10"/>
<path d="M42.5045 43.5451C42.6682 43.4451 42.8704 43.4437 43.0327 43.538L48.1484 45.6944C48.3107 45.7916 48.1711 46.8391 48.006 46.9391L43.2819 49.8044C43.0925 49.9187 42.859 49.9216 42.6739 49.813L37.7633 46.8891C37.5882 46.7862 37.4786 45.6501 37.658 45.5415L42.5059 43.5451H42.5045Z" fill="#BFBBB8" stroke="#00201D" stroke-width="0.144201" stroke-miterlimit="10"/>
<path d="M37.7838 45.9031L42.6944 48.827C42.8809 48.937 43.1144 48.9341 43.3037 48.8184L48.0278 45.9517C48.193 45.8517 48.1973 45.6116 48.0335 45.5158L43.0546 42.5519C42.8937 42.4562 42.6915 42.4591 42.5264 42.5591L37.7894 45.4329C37.6115 45.5416 37.6072 45.8002 37.7838 45.9031Z" fill="#FEFCF9" stroke="#00201D" stroke-width="0.144201" stroke-miterlimit="10"/>
<path d="M50.3139 38.963C50.4777 38.8629 50.6799 38.8615 50.8422 38.9558L55.9578 41.1123C56.1201 41.2095 55.9806 42.257 55.8154 42.357L51.0913 45.2223C50.902 45.3366 50.6685 45.3394 50.4834 45.2308L45.5728 42.307C45.3976 42.2041 45.288 41.068 45.4674 40.9594L50.3154 38.963H50.3139Z" fill="#BFBBB8" stroke="#00201D" stroke-width="0.144201" stroke-miterlimit="10"/>
<path d="M45.5933 41.3196L50.5039 44.2435C50.6904 44.3535 50.9239 44.3507 51.1132 44.2349L55.8373 41.3682C56.0025 41.2682 56.0068 41.0281 55.843 40.9323L50.8641 37.9685C50.7032 37.8727 50.501 37.8756 50.3359 37.9756L45.599 40.8494C45.421 40.958 45.4167 41.2167 45.5933 41.3196Z" fill="#FEFCF9" stroke="#00201D" stroke-width="0.144201" stroke-miterlimit="10"/>
<path d="M58.1258 34.3807C58.2895 34.2806 58.4917 34.2792 58.654 34.3735L63.7696 36.53C63.9319 36.6272 63.7924 37.6747 63.6273 37.7747L58.9032 40.64C58.7138 40.7543 58.4803 40.7572 58.2952 40.6486L53.3846 37.7247C53.2095 37.6218 53.0998 36.4857 53.2792 36.3771L58.1272 34.3807H58.1258Z" fill="#BFBBB8" stroke="#00201D" stroke-width="0.144201" stroke-miterlimit="10"/>
<path d="M53.4039 36.7387L58.3145 39.6625C58.501 39.7726 58.7346 39.7697 58.9239 39.654L63.648 36.7873C63.8132 36.6872 63.8174 36.4471 63.6537 36.3514L58.6748 33.3875C58.5139 33.2918 58.3117 33.2946 58.1465 33.3947L53.4096 36.2685C53.2317 36.3771 53.2274 36.6358 53.4039 36.7387Z" fill="#FEFCF9" stroke="#00201D" stroke-width="0.144201" stroke-miterlimit="10"/>
<path d="M65.9353 29.7987C66.099 29.6986 66.3012 29.6972 66.4635 29.7915L71.5791 31.948C71.7415 32.0452 71.6019 33.0927 71.4368 33.1927L66.7127 36.058C66.5233 36.1723 66.2898 36.1751 66.1047 36.0665L61.1941 33.1427C61.019 33.0398 60.9094 31.9037 61.0887 31.7951L65.9367 29.7987H65.9353Z" fill="#AF2E2E" stroke="#00201D" stroke-width="0.144201" stroke-miterlimit="10"/>
<path d="M61.2122 32.1564L66.1228 35.0803C66.3093 35.1903 66.5428 35.1874 66.7322 35.0717L71.4563 32.205C71.6215 32.1049 71.6257 31.8649 71.462 31.7691L66.483 28.8052C66.3222 28.7095 66.12 28.7124 65.9548 28.8124L61.2179 31.6862C61.0399 31.7948 61.0357 32.0535 61.2122 32.1564Z" fill="#F26629" stroke="#00201D" stroke-width="0.144201" stroke-miterlimit="10"/>
<path d="M42.2668 53.0027C42.4319 52.9027 42.6341 52.8998 42.795 52.9955L47.922 55.1563C48.0857 55.2535 47.9462 56.3038 47.7796 56.4039L43.0441 59.2763C42.8548 59.392 42.6213 59.3949 42.4348 59.2849L37.5128 56.3538C37.3362 56.2495 37.228 55.1106 37.4074 55.0034L42.2682 53.0013L42.2668 53.0027Z" fill="#BFBBB8" stroke="#00201D" stroke-width="0.144201" stroke-miterlimit="10"/>
<path d="M37.5323 55.3645L42.4543 58.2955C42.6408 58.4056 42.8743 58.4027 43.0651 58.287L47.8005 55.4131C47.9671 55.3131 47.97 55.0716 47.8062 54.9758L42.8145 52.0034C42.6522 51.9076 42.45 51.9105 42.2863 52.0105L37.538 54.8915C37.3586 55.0001 37.3557 55.2588 37.5323 55.3631V55.3645Z" fill="#FEFCF9" stroke="#00201D" stroke-width="0.144201" stroke-miterlimit="10"/>
<path d="M50.1681 48.3724C50.3319 48.2723 50.534 48.2709 50.6964 48.3652L55.812 50.5217C55.9743 50.6189 55.8348 51.6664 55.6696 51.7664L50.9455 54.6317C50.7562 54.746 50.5227 54.7489 50.3376 54.6402L45.427 51.7164C45.2518 51.6135 45.1422 50.4774 45.3216 50.3688L50.1696 48.3724H50.1681Z" fill="#BFBBB8" stroke="#00201D" stroke-width="0.144201" stroke-miterlimit="10"/>
<path d="M45.4462 50.7293L50.3568 53.6531C50.5434 53.7632 50.7768 53.7603 50.9662 53.6446L55.6903 50.7779C55.8555 50.6778 55.8597 50.4377 55.696 50.342L50.7171 47.3781C50.5562 47.2824 50.354 47.2852 50.1888 47.3853L45.4519 50.2591C45.2739 50.3677 45.2697 50.6264 45.4462 50.7293Z" fill="#FEFCF9" stroke="#00201D" stroke-width="0.144201" stroke-miterlimit="10"/>
<path d="M57.9778 43.7894C58.1416 43.6894 58.3438 43.6879 58.5046 43.7822L63.6203 45.9387C63.7826 46.0359 63.6431 47.0834 63.4779 47.1834L58.7538 50.0487C58.5644 50.163 58.3309 50.1659 58.1459 50.0573L53.2352 47.1334C53.0601 47.0305 52.9505 45.8944 53.1299 45.7858L57.9778 43.7894Z" fill="#BFBBB8" stroke="#00201D" stroke-width="0.144201" stroke-miterlimit="10"/>
<path d="M53.2569 46.147L58.1675 49.0709C58.354 49.1809 58.5875 49.1781 58.7769 49.0623L63.501 46.1956C63.6661 46.0956 63.6704 45.8555 63.5067 45.7597L58.5277 42.7958C58.3668 42.7001 58.1647 42.703 57.9995 42.803L53.2626 45.6768C53.0846 45.7854 53.0803 46.0441 53.2569 46.147Z" fill="#FEFCF9" stroke="#00201D" stroke-width="0.144201" stroke-miterlimit="10"/>
<path d="M65.7883 39.2071C65.952 39.1071 66.1542 39.1056 66.3165 39.2L71.4322 41.3564C71.5945 41.4536 71.4549 42.5011 71.2898 42.6011L66.5657 45.4664C66.3763 45.5807 66.1428 45.5836 65.9577 45.475L61.0471 42.5511C60.872 42.4482 60.7624 41.3121 60.9418 41.2035L65.7897 39.2071H65.7883Z" fill="#BFBBB8" stroke="#00201D" stroke-width="0.144201" stroke-miterlimit="10"/>
<path d="M61.0664 41.5661L65.977 44.4899C66.1635 44.6 66.397 44.5971 66.5864 44.4814L71.3105 41.6146C71.4756 41.5146 71.4799 41.2745 71.3162 41.1788L66.3372 38.2149C66.1763 38.1192 65.9742 38.122 65.809 38.2221L61.0721 41.0959C60.8941 41.2045 60.8899 41.4632 61.0664 41.5661Z" fill="#FEFCF9" stroke="#00201D" stroke-width="0.144201" stroke-miterlimit="10"/>
<path d="M73.5957 34.6265C73.7594 34.5265 73.9616 34.5251 74.1225 34.6194L79.2381 36.7758C79.4005 36.873 79.2609 37.9205 79.0958 38.0206L74.3717 40.8858C74.1823 41.0002 73.9488 41.003 73.7637 40.8944L68.8531 37.9705C68.678 37.8676 68.5684 36.7315 68.7477 36.6229L73.5957 34.6265Z" fill="#BFBBB8" stroke="#00201D" stroke-width="0.144201" stroke-miterlimit="10"/>
<path d="M68.8759 36.9828L73.7865 39.9067C73.973 40.0167 74.2065 40.0139 74.3959 39.8981L79.12 37.0314C79.2851 36.9314 79.2894 36.6913 79.1257 36.5955L74.1467 33.6317C73.9858 33.5359 73.7837 33.5388 73.6185 33.6388L68.8816 36.5127C68.7036 36.6213 68.6994 36.8799 68.8759 36.9828Z" fill="#FEFCF9" stroke="#00201D" stroke-width="0.144201" stroke-miterlimit="10"/>
<path d="M49.9305 57.8291C50.0957 57.7291 50.2978 57.7262 50.4587 57.822L55.5858 59.9827C55.7495 60.0799 55.61 61.1302 55.4434 61.2303L50.7079 64.1027C50.5185 64.2185 50.285 64.2213 50.0985 64.1113L45.1765 61.1803C45 61.0759 44.8918 59.937 45.0712 59.8298L49.9319 57.8277L49.9305 57.8291Z" fill="#BFBBB8" stroke="#00201D" stroke-width="0.144201" stroke-miterlimit="10"/>
<path d="M45.196 60.1919L50.118 63.1229C50.3045 63.233 50.538 63.2301 50.7288 63.1143L55.4642 60.2405C55.6308 60.1405 55.6337 59.8989 55.4699 59.8032L50.4782 56.8308C50.3159 56.735 50.1137 56.7379 49.95 56.8379L45.2017 59.7189C45.0223 59.8275 45.0194 60.0862 45.196 60.1905V60.1919Z" fill="#FEFCF9" stroke="#00201D" stroke-width="0.144201" stroke-miterlimit="10"/>
<path d="M57.8297 53.1982C57.9935 53.0982 58.1956 53.0967 58.3565 53.191L63.4721 55.3475C63.6345 55.4447 63.4949 56.4922 63.3298 56.5922L58.6057 59.4575C58.4163 59.5718 58.1828 59.5747 57.9977 59.4661L53.0871 56.5422C52.912 56.4393 52.8024 55.3032 52.9818 55.1946L57.8297 53.1982Z" fill="#BFBBB8" stroke="#00201D" stroke-width="0.144201" stroke-miterlimit="10"/>
<path d="M53.1099 55.5563L58.0205 58.4802C58.207 58.5902 58.4405 58.5873 58.6299 58.4716L63.354 55.6049C63.5192 55.5048 63.5234 55.2648 63.3597 55.169L58.3807 52.2052C58.2199 52.1094 58.0177 52.1123 57.8525 52.2123L53.1156 55.0861C52.9376 55.1947 52.9334 55.4534 53.1099 55.5563Z" fill="#FEFCF9" stroke="#00201D" stroke-width="0.144201" stroke-miterlimit="10"/>
<path d="M65.6404 48.6174C65.8041 48.5173 66.0063 48.5159 66.1672 48.6102L71.2828 50.7667C71.4451 50.8639 71.3056 51.9114 71.1404 52.0114L66.4163 54.8767C66.227 54.991 65.9935 54.9939 65.8084 54.8853L60.8978 51.9614C60.7227 51.8585 60.613 50.7224 60.7924 50.6138L65.6404 48.6174Z" fill="#BFBBB8" stroke="#00201D" stroke-width="0.144201" stroke-miterlimit="10"/>
<path d="M60.9171 50.9751L65.8277 53.899C66.0142 54.009 66.2477 54.0062 66.4371 53.8904L71.1612 51.0237C71.3263 50.9237 71.3306 50.6836 71.1669 50.5878L66.1879 47.624C66.027 47.5282 65.8249 47.5311 65.6597 47.6311L60.9228 50.505C60.7448 50.6136 60.7406 50.8722 60.9171 50.9751Z" fill="#FEFCF9" stroke="#00201D" stroke-width="0.144201" stroke-miterlimit="10"/>
<path d="M73.4499 44.0347C73.6136 43.9347 73.8158 43.9333 73.9767 44.0276L79.0923 46.1841C79.2546 46.2812 79.1151 47.3287 78.9499 47.4288L74.2259 50.294C74.0365 50.4084 73.803 50.4112 73.6179 50.3026L68.7073 47.3788C68.5322 47.2759 68.4225 46.1398 68.6019 46.0311L73.4499 44.0347Z" fill="#BFBBB8" stroke="#00201D" stroke-width="0.144201" stroke-miterlimit="10"/>
<path d="M68.7301 46.3919L73.6407 49.3157C73.8272 49.4258 74.0607 49.4229 74.2501 49.3072L78.9742 46.4405C79.1393 46.3404 79.1436 46.1003 78.9799 46.0046L74.0009 43.0407C73.84 42.945 73.6379 42.9478 73.4727 43.0479L68.7358 45.9217C68.5578 46.0303 68.5536 46.289 68.7301 46.3919Z" fill="#FEFCF9" stroke="#00201D" stroke-width="0.144201" stroke-miterlimit="10"/>
<path d="M81.2603 39.4519C81.424 39.3518 81.6262 39.3504 81.7885 39.4447L86.9042 41.6012C87.0665 41.6983 86.9269 42.7458 86.7618 42.8459L82.0377 45.7111C81.8483 45.8255 81.6148 45.8283 81.4297 45.7197L76.5191 42.7959C76.344 42.693 76.2344 41.5569 76.4138 41.4483L81.2617 39.4519H81.2603Z" fill="#BFBBB8" stroke="#00201D" stroke-width="0.144201" stroke-miterlimit="10"/>
<path d="M76.5373 41.8102L81.4479 44.7341C81.6344 44.8441 81.8679 44.8412 82.0573 44.7255L86.7814 41.8588C86.9465 41.7588 86.9508 41.5187 86.7871 41.4229L81.8081 38.4591C81.6472 38.3633 81.4451 38.3662 81.2799 38.4662L76.543 41.34C76.365 41.4487 76.3607 41.7073 76.5373 41.8102Z" fill="#FEFCF9" stroke="#00201D" stroke-width="0.144201" stroke-miterlimit="10"/>
<path fill-rule="evenodd" clip-rule="evenodd" d="M66.0187 58.0181C65.8578 57.9238 65.6557 57.9252 65.4919 58.0252L60.644 60.0216C60.5483 60.0795 60.5348 60.4294 60.5696 60.7591L52.7333 64.6564C52.5539 64.7635 52.6621 65.9025 52.8387 66.0068L57.7607 68.9378C57.9472 69.0479 58.1807 69.045 58.3701 68.9293L66.1262 64.3472C66.1751 64.3327 66.2228 64.3118 66.2679 64.2845L67.5955 63.4793L68.3607 63.0272C68.3718 63.0206 68.3827 63.0098 68.3934 62.9953L70.992 61.4192C71.1571 61.3192 71.2967 60.2717 71.1344 60.1745L66.0187 58.0181Z" fill="#BFBBB8"/>
<path d="M65.4919 58.0252L65.5197 58.0927L65.5295 58.0868L65.4919 58.0252ZM66.0187 58.0181L65.9819 58.0808L65.9907 58.0845L66.0187 58.0181ZM60.644 60.0216L60.6162 59.9542L60.6066 59.9599L60.644 60.0216ZM60.5696 60.7591L60.6017 60.8237L60.6466 60.8014L60.6413 60.7515L60.5696 60.7591ZM52.7333 64.6564L52.7011 64.5916L52.6964 64.5945L52.7333 64.6564ZM52.8387 66.0068L52.8756 65.9449L52.8754 65.9448L52.8387 66.0068ZM57.7607 68.9378L57.7238 68.9998L57.724 68.9999L57.7607 68.9378ZM58.3701 68.9293L58.3334 68.8672L58.3325 68.8677L58.3701 68.9293ZM66.1262 64.3472L66.1056 64.2782L66.0972 64.2807L66.0896 64.2852L66.1262 64.3472ZM66.2679 64.2845L66.3052 64.3462L66.3053 64.3462L66.2679 64.2845ZM67.5955 63.4793L67.5589 63.4172L67.5582 63.4176L67.5955 63.4793ZM68.3607 63.0272L68.3974 63.0893L68.3978 63.089L68.3607 63.0272ZM68.3934 62.9953L68.356 62.9337L68.344 62.941L68.3356 62.9523L68.3934 62.9953ZM70.992 61.4192L70.9546 61.3576L70.9546 61.3576L70.992 61.4192ZM71.1344 60.1745L71.1718 60.112L71.1624 60.1081L71.1344 60.1745ZM65.4919 58.0252L65.5295 58.0868C65.6708 58.0004 65.8446 57.9995 65.9823 58.0803L66.0187 58.0181L66.0552 57.9559C65.8711 57.848 65.6405 57.85 65.4543 57.9637L65.4919 58.0252ZM60.644 60.0216L60.6714 60.0883L65.5194 58.0919L65.4919 58.0252L65.4645 57.9586L60.6165 59.955L60.644 60.0216ZM60.5696 60.7591L60.6413 60.7515C60.6242 60.5896 60.6192 60.4244 60.6298 60.2942C60.635 60.2289 60.644 60.1752 60.656 60.1361C60.6693 60.0931 60.6815 60.0832 60.6813 60.0833L60.644 60.0216L60.6066 59.9599C60.5586 59.989 60.5333 60.0446 60.5182 60.0937C60.5019 60.1468 60.4917 60.2121 60.486 60.2826C60.4746 60.4243 60.4802 60.5989 60.4979 60.7667L60.5696 60.7591ZM52.7333 64.6564L52.7654 64.7209L60.6017 60.8237L60.5696 60.7591L60.5375 60.6945L52.7012 64.5918L52.7333 64.6564ZM52.8387 66.0068L52.8754 65.9448C52.8755 65.9448 52.8714 65.9423 52.8644 65.9327C52.8576 65.9235 52.8497 65.9103 52.8413 65.8925C52.8244 65.8567 52.8078 65.8079 52.7923 65.7487C52.7614 65.6305 52.7375 65.4792 52.7244 65.3265C52.7113 65.1737 52.7093 65.0227 52.721 64.9051C52.7269 64.846 52.736 64.7982 52.7475 64.7637C52.7601 64.7258 52.7711 64.7178 52.7703 64.7183L52.7333 64.6564L52.6964 64.5945C52.6507 64.6217 52.6258 64.6727 52.6107 64.7181C52.5945 64.7668 52.584 64.8263 52.5775 64.8908C52.5646 65.0201 52.5671 65.1805 52.5807 65.3388C52.5943 65.4973 52.6193 65.657 52.6528 65.7851C52.6695 65.849 52.6888 65.9071 52.7109 65.954C52.7315 65.9977 52.7602 66.0442 52.802 66.0689L52.8387 66.0068ZM57.7607 68.9378L57.7976 68.8759L52.8756 65.9449L52.8387 66.0068L52.8018 66.0688L57.7238 68.9998L57.7607 68.9378ZM58.3701 68.9293L58.3325 68.8677C58.1653 68.9699 57.9603 68.9719 57.7973 68.8757L57.7607 68.9378L57.724 68.9999C57.9341 69.1238 58.1961 69.1201 58.4077 68.9908L58.3701 68.9293ZM66.1262 64.3472L66.0896 64.2852L58.3334 68.8672L58.3701 68.9293L58.4067 68.9913L66.1629 64.4093L66.1262 64.3472ZM66.2679 64.2845L66.2306 64.2228C66.1907 64.2469 66.1487 64.2653 66.1056 64.2782L66.1262 64.3472L66.1469 64.4163C66.2015 64.4 66.2548 64.3766 66.3052 64.3462L66.2679 64.2845ZM67.5955 63.4793L67.5582 63.4176L66.2305 64.2229L66.2679 64.2845L66.3053 64.3462L67.6329 63.5409L67.5955 63.4793ZM68.3607 63.0272L68.324 62.9652L67.5589 63.4172L67.5955 63.4793L67.6322 63.5413L68.3974 63.0893L68.3607 63.0272ZM68.3934 62.9953L68.3356 62.9523C68.332 62.9571 68.329 62.9605 68.3268 62.9627C68.3245 62.9649 68.3234 62.9655 68.3236 62.9654L68.3607 63.0272L68.3978 63.089C68.4199 63.0758 68.4374 63.057 68.4513 63.0383L68.3934 62.9953ZM70.992 61.4192L70.9546 61.3576L68.356 62.9337L68.3934 62.9953L68.4308 63.057L71.0294 61.4809L70.992 61.4192ZM71.1344 60.1745L71.0973 60.2364C71.0933 60.234 71.1023 60.2381 71.1125 60.2724C71.1217 60.3032 71.1284 60.3465 71.1319 60.4005C71.1386 60.508 71.1317 60.6464 71.1144 60.787C71.0971 60.9274 71.07 61.0667 71.0376 61.1757C71.0214 61.2304 71.0044 61.2755 70.9878 61.3086C70.9794 61.3252 70.9718 61.3375 70.9652 61.3461C70.9584 61.3551 70.9546 61.3576 70.9546 61.3576L70.992 61.4192L71.0293 61.4809C71.0683 61.4573 71.0961 61.4141 71.1166 61.3734C71.1385 61.3298 71.1583 61.2759 71.1758 61.2167C71.211 61.0982 71.2396 60.9507 71.2575 60.8046C71.2755 60.6587 71.2833 60.5107 71.2758 60.3914C71.272 60.332 71.2643 60.2767 71.2507 60.2312C71.2382 60.1892 71.216 60.1394 71.1714 60.1127L71.1344 60.1745ZM66.0187 58.0181L65.9907 58.0845L71.1063 60.241L71.1344 60.1745L71.1624 60.1081L66.0467 57.9516L66.0187 58.0181Z" fill="#00201D"/>
<path d="M71.0214 59.9961L66.0424 57.0322C65.8815 56.9379 65.6793 56.9394 65.5156 57.0394L62.8916 58.6314C62.8916 58.6314 62.8759 58.6342 62.8688 58.6371L52.8654 64.5463C52.686 64.6549 52.6831 64.9135 52.8597 65.0178L57.7817 67.9488C57.9682 68.0589 58.2017 68.056 58.3925 67.9403L66.2133 63.3201C66.2389 63.3087 66.2674 63.3115 66.2916 63.2973L67.7837 62.3912L68.3831 62.0368C68.3831 62.0368 68.386 62.0254 68.3916 62.0225L71.0157 60.4305C71.1808 60.3305 71.1837 60.0904 71.0214 59.9947V59.9961Z" fill="#FEFCF9" stroke="#00201D" stroke-width="0.144201" stroke-miterlimit="10"/>
<path d="M73.304 53.4438C73.4678 53.3438 73.6699 53.3423 73.8308 53.4367L78.9465 55.5931C79.1088 55.6903 78.9692 56.7378 78.8041 56.8378L74.08 59.7031C73.8906 59.8174 73.6571 59.8203 73.472 59.7117L68.5614 56.7878C68.3863 56.6849 68.2767 55.5488 68.4561 55.4402L73.304 53.4438Z" fill="#BFBBB8" stroke="#00201D" stroke-width="0.144201" stroke-miterlimit="10"/>
<path d="M68.5807 55.801L73.4914 58.7249C73.6779 58.835 73.9114 58.8321 74.1007 58.7163L78.8248 55.8496C78.99 55.7496 78.9943 55.5095 78.8305 55.4138L73.8516 52.4499C73.6907 52.3541 73.4885 52.357 73.3233 52.457L68.5864 55.3309C68.4085 55.4395 68.4042 55.6981 68.5807 55.801Z" fill="#FEFCF9" stroke="#00201D" stroke-width="0.144201" stroke-miterlimit="10"/>
<path d="M81.1122 48.8603C81.2759 48.7603 81.4781 48.7588 81.6404 48.8532L86.756 51.0096C86.9183 51.1068 86.7788 52.1543 86.6136 52.2543L81.8896 55.1196C81.7002 55.2339 81.4667 55.2368 81.2816 55.1282L76.371 52.2043C76.1959 52.1014 76.0862 50.9653 76.2656 50.8567L81.1136 48.8603H81.1122Z" fill="#BFBBB8" stroke="#00201D" stroke-width="0.144201" stroke-miterlimit="10"/>
<path d="M76.3915 51.2193L81.3021 54.1431C81.4886 54.2532 81.7221 54.2503 81.9115 54.1346L86.6355 51.2679C86.8007 51.1678 86.805 50.9277 86.6412 50.832L81.6623 47.8681C81.5014 47.7724 81.2992 47.7752 81.1341 47.8753L76.3972 50.7491C76.2192 50.8577 76.2149 51.1164 76.3915 51.2193Z" fill="#FEFCF9" stroke="#00201D" stroke-width="0.144201" stroke-miterlimit="10"/>
<path d="M88.9219 44.2796C89.0856 44.1796 89.2878 44.1782 89.4487 44.2725L94.5643 46.4289C94.7266 46.5261 94.5871 47.5736 94.4219 47.6736L89.6978 50.5389C89.5085 50.6532 89.275 50.6561 89.0899 50.5475L84.1793 47.6236C84.0042 47.5207 83.8945 46.3846 84.0739 46.276L88.9219 44.2796Z" fill="#BFBBB8" stroke="#00201D" stroke-width="0.144201" stroke-miterlimit="10"/>
<path d="M84.2009 46.6364L89.1115 49.5602C89.298 49.6703 89.5316 49.6674 89.7209 49.5517L94.445 46.685C94.6102 46.5849 94.6144 46.3448 94.4507 46.2491L89.4718 43.2852C89.3109 43.1895 89.1087 43.1923 88.9435 43.2924L84.2066 46.1662C84.0286 46.2748 84.0244 46.5335 84.2009 46.6364Z" fill="#FEFCF9" stroke="#00201D" stroke-width="0.144201" stroke-miterlimit="10"/>
</g>
<defs>
<clipPath id="clip0_664_11608">
<rect width="119" height="80" fill="white"/>
</clipPath>
</defs>
</svg>
