<svg width="72" height="80" viewBox="0 0 72 80" fill="none" xmlns="http://www.w3.org/2000/svg">
<g clip-path="url(#clip0_664_11592)">
<path d="M50.1421 5.63995L51.3147 11.4981C51.369 11.7649 51.4907 11.9729 51.6641 12.1203L56.299 16.0206C56.1255 15.8732 56.0011 15.6617 55.9496 15.3984L54.777 9.54027C54.7235 9.26718 54.5986 9.0588 54.4252 8.91143L49.7903 5.01111C49.9642 5.15535 50.0886 5.36686 50.1421 5.63995Z" fill="#17AB2B" stroke="#082422" stroke-width="0.0987641" stroke-miterlimit="10"/>
<path d="M13.1526 59.007L8.51581 55.1043C8.43183 55.034 8.33656 54.9784 8.22687 54.9369L3.1328 53.0371C3.01997 52.9952 2.92157 52.9392 2.83795 52.8658L7.4747 56.7686C7.55869 56.8388 7.65673 56.898 7.76955 56.9398L12.8636 58.8396C12.9733 58.8811 13.0686 58.9367 13.1526 59.007Z" fill="#17AB2B" stroke="#082422" stroke-width="0.0987641" stroke-miterlimit="10"/>
<path d="M19.7776 67.6497C19.9942 67.6751 20.1853 67.7547 20.3359 67.8804L15.6992 63.9776C15.5485 63.8519 15.3606 63.7727 15.1408 63.747C14.9555 63.7253 14.7498 63.7425 14.5325 63.8028L7.9856 65.5882C7.76205 65.6478 7.55628 65.665 7.37103 65.6433C7.15124 65.6176 6.96012 65.538 6.81301 65.4095L11.4498 69.3123C11.6004 69.438 11.788 69.5203 12.0078 69.5461C12.193 69.5678 12.3988 69.5506 12.6224 69.4909L19.1692 67.7056C19.3865 67.6452 19.5923 67.628 19.7776 67.6497Z" fill="#17AB2B" stroke="#082422" stroke-width="0.0987641" stroke-miterlimit="10"/>
<path d="M58.8476 21.0006L63.481 24.9004C63.1051 24.5832 62.9946 23.9859 63.2128 23.3L65.4636 16.2081C65.6918 15.4916 65.561 14.9046 65.1907 14.5944L60.5573 10.6947C60.9277 11.0048 61.0584 11.5918 60.8302 12.3083L58.5794 19.4002C58.3613 20.0861 58.4717 20.6834 58.8476 21.0006Z" fill="#17AB2B" stroke="#082422" stroke-width="0.0987641" stroke-miterlimit="10"/>
<path d="M68.8788 29.7566C69.6616 28.765 69.7568 27.6136 69.1668 27.1156L64.5317 23.2152C65.1218 23.7132 65.0265 24.8646 64.2437 25.8561L59.1691 32.282C58.5667 33.0405 58.3511 33.946 58.6176 34.5426L60.8986 39.6159C61.3015 40.5112 60.6147 41.9809 59.4647 42.688L52.9257 46.7315C52.1561 47.21 51.5516 48.0667 51.4169 48.88L50.2719 55.7661C50.0703 56.9813 48.8777 58.1822 47.7775 58.282L41.5298 58.8527C40.7928 58.9221 39.9663 59.505 39.463 60.3133L35.1995 67.1709C34.5938 68.145 33.5822 68.7317 32.8164 68.642C32.6312 68.6204 32.4634 68.5594 32.3165 68.4564L28.0327 65.404C27.889 65.3014 27.7212 65.2404 27.536 65.2188C27.0652 65.1636 26.4914 65.3601 25.9637 65.7843L19.7264 70.7716C19.1777 71.2124 18.6022 71.3959 18.1408 71.3419C17.9242 71.3165 17.73 71.2366 17.5767 71.1075L22.2118 75.0079C22.3651 75.1371 22.5593 75.217 22.7758 75.2423C23.2372 75.2964 23.8096 75.1125 24.3615 74.672L30.5987 69.6847C31.1264 69.2605 31.7034 69.0644 32.1711 69.1192C32.3562 69.1409 32.524 69.2018 32.6678 69.3044L36.9516 72.3569C37.0985 72.4598 37.2694 72.5212 37.4515 72.5425C38.2173 72.6322 39.2289 72.0454 39.8346 71.0713L44.098 64.2137C44.6013 63.4055 45.4247 62.8221 46.1648 62.7532L52.4125 62.1825C53.5127 62.0826 54.7022 60.8814 54.9069 59.6665L56.052 52.7805C56.1867 51.9672 56.7912 51.1104 57.5608 50.6319L64.0997 46.5885C65.2501 45.8782 65.9369 44.4085 65.5336 43.5163L63.2526 38.4431C62.9833 37.8429 63.2018 36.941 63.8041 36.1824L68.8788 29.7566Z" fill="#17AB2B" stroke="#082422" stroke-width="0.0987641" stroke-miterlimit="10"/>
<path d="M49.2248 4.7656C49.6863 4.81974 50.0368 5.11177 50.1414 5.62584L51.3158 11.4835C51.4164 11.9781 51.756 12.2815 52.227 12.3368C52.4122 12.3585 52.6179 12.3413 52.8352 12.2811L59.3777 10.4983C59.6012 10.4387 59.8069 10.4216 59.9922 10.4433C60.7582 10.5332 61.1436 11.2834 60.8268 12.2912L58.5764 19.3827C58.3087 20.2184 58.5334 20.9276 59.1341 21.1505L64.228 23.0502C65.1239 23.3871 65.1274 24.7278 64.2358 25.8586L59.1615 32.2823C58.5592 33.0405 58.3437 33.9458 58.6104 34.5424L60.8932 39.6155C61.2964 40.5107 60.6098 41.9801 59.4598 42.6868L52.9202 46.7281C52.1505 47.2063 51.5461 48.0628 51.4116 48.8759L50.2679 55.7606C50.0666 56.9756 48.874 58.176 47.7736 58.2756L41.5245 58.8446C40.7874 58.9138 39.9607 59.4965 39.4575 60.3045L35.1947 67.16C34.5891 68.1338 33.5774 68.7202 32.8114 68.6303C32.6262 68.6086 32.4583 68.5476 32.3114 68.4446L28.0258 65.3916C27.8819 65.289 27.7141 65.228 27.5289 65.2063C27.0579 65.151 26.484 65.3473 25.9563 65.7713L19.7187 70.7563C19.17 71.197 18.5944 71.3803 18.1329 71.3262C17.6714 71.2721 17.3208 70.98 17.2166 70.4628L16.0418 64.6083C15.9416 64.1106 15.6019 63.8071 15.1341 63.7523C14.9489 63.7305 14.7432 63.7477 14.5259 63.808L7.9803 65.5904C7.75679 65.6499 7.55105 65.6671 7.36582 65.6454C6.59978 65.5555 6.21439 64.8052 6.53429 63.7979L8.7847 56.7063C9.05243 55.8707 8.82733 55.1646 8.22704 54.9386L3.13313 53.0389C2.2337 52.7047 2.23336 51.3644 3.12845 50.2308L8.1996 43.8068C8.80193 43.0485 9.02019 42.1467 8.7507 41.5466L6.47141 36.4708C6.06783 35.5787 6.75128 34.109 7.90488 33.3995L14.4409 29.361C15.2137 28.8831 15.8181 28.0267 15.9495 27.2131L17.0932 20.3284C17.2941 19.1165 18.484 17.9127 19.5844 17.8131L25.8335 17.244C26.5734 17.1784 27.3972 16.5922 27.9004 15.7842L32.1633 8.9287C32.7689 7.95485 33.7806 7.36846 34.5435 7.45796C34.7287 7.47969 34.8965 7.54066 35.0435 7.64365L39.3322 10.6971C39.476 10.7997 39.6439 10.8607 39.8291 10.8824C40.2969 10.9373 40.8708 10.741 41.4013 10.3205L47.6392 5.33232C48.1877 4.89484 48.7601 4.7111 49.2248 4.7656Z" fill="#60D06F" stroke="#082422" stroke-width="0.0987641" stroke-miterlimit="10"/>
<path d="M49.2964 29.7661C49.6481 29.8073 49.9197 30.0139 50.0295 30.3762L50.7308 32.6786C50.9513 33.3969 50.4505 34.453 49.6144 35.0346L25.7716 51.6856C25.3586 51.9738 24.9402 52.0931 24.598 52.0529C24.2557 52.0128 23.9806 51.809 23.8672 51.4495L21.1437 42.8401C20.9194 42.1277 21.4107 41.0705 22.2444 40.4822L24.9196 38.5918C25.3365 38.2976 25.7584 38.1756 26.1069 38.2165C26.4554 38.2574 26.7243 38.4604 26.838 38.8168L28.2708 43.3553C28.3172 43.5005 28.4252 43.5831 28.5665 43.5997C28.7078 43.6162 28.8761 43.5661 29.0459 43.4494L48.1169 30.1295C48.5299 29.8413 48.9483 29.7221 49.2937 29.7626L49.2964 29.7661Z" fill="#17AB2B"/>
<path d="M50.0142 30.7471L49.345 28.5501C49.2948 28.3823 49.2057 28.2479 49.0898 28.1518L44.4524 24.2506C44.5683 24.3468 44.6543 24.4807 44.7076 24.6489L45.3768 26.8459C45.5884 27.5314 45.1093 28.5392 44.3111 29.0967L28.3533 40.2437L27.2051 36.6089C27.1546 36.4441 27.0679 36.3164 26.9519 36.2203L22.3145 32.3191C22.4273 32.4149 22.5141 32.5426 22.5677 32.7077L23.9355 37.0416C23.9563 37.1076 23.9916 37.1593 24.0377 37.1997L27.972 40.507L21.5515 44.9913C21.1561 45.2657 20.7572 45.3809 20.4307 45.3426C20.258 45.3223 20.1062 45.2601 19.9848 45.1569L24.6222 49.0581C24.7437 49.1612 24.8954 49.2235 25.0681 49.2438C25.3947 49.2821 25.7935 49.1669 26.1889 48.8925L48.952 32.9951C49.7502 32.4376 50.2293 31.4298 50.0177 30.7443L50.0142 30.7471Z" fill="#BFBFBF" stroke="#082422" stroke-width="0.0987641" stroke-miterlimit="10"/>
<path d="M44.0014 24.0622C44.3373 24.1017 44.5971 24.3005 44.7025 24.6463L45.3717 26.8434C45.5834 27.5289 45.1042 28.5367 44.306 29.0942L21.5424 44.9919C21.147 45.2663 20.7482 45.3815 20.4216 45.3432C20.0951 45.3049 19.8318 45.1089 19.7225 44.7689L17.1216 36.5487C16.9061 35.8691 17.3793 34.8574 18.1748 34.2964L20.7282 32.4933C21.1275 32.213 21.5299 32.095 21.8627 32.1341C22.1955 32.1731 22.4525 32.3684 22.5618 32.7084L23.9296 37.0424C23.9737 37.181 24.0789 37.26 24.214 37.2759C24.349 37.2917 24.5106 37.244 24.6703 37.1325L42.8771 24.4163C43.2725 24.1419 43.6713 24.0267 44.001 24.0654L44.0014 24.0622Z" fill="white" stroke="#082422" stroke-width="0.0987641" stroke-miterlimit="10"/>
</g>
<defs>
<clipPath id="clip0_664_11592">
<rect width="72" height="80" fill="white"/>
</clipPath>
</defs>
</svg>
