<svg width="61" height="80" viewBox="0 0 61 80" fill="none" xmlns="http://www.w3.org/2000/svg">
<g clip-path="url(#clip0_664_11567)">
<path d="M60.6922 64.492L60.7231 66.644C60.7453 68.1217 60.3711 69.6265 59.5783 71.0961C56.0516 77.6157 45.4424 80.9992 35.8811 78.6617C28.4859 76.8497 23.8807 72.1379 23.8149 67.0761L23.784 64.9242C23.8497 69.9859 28.4452 74.6966 35.8502 76.5098C45.4059 78.8515 56.0206 75.4637 59.5473 68.9442C60.3456 67.4702 60.71 65.9643 60.6922 64.492Z" fill="#0CBAB5" stroke="#082422" stroke-width="0.164607" stroke-linejoin="round"/>
<path d="M48.6344 52.9032C58.1899 55.245 63.0766 62.4256 59.55 68.9449C56.0233 75.4643 45.4144 78.8478 35.8534 76.5104C26.2979 74.1687 21.4112 66.9881 24.9378 60.4687C28.4644 53.9493 39.0734 50.5658 48.6344 52.9032Z" fill="#2BF2F1" stroke="#082422" stroke-width="0.164607" stroke-linejoin="round"/>
<path d="M43.0389 59.1571C43.2708 59.2144 43.5113 59.2827 43.7507 59.3607L41.0382 62.4475C40.8718 62.3831 40.7184 62.3351 40.5736 62.298C39.7668 62.098 39.2479 62.3182 38.8615 62.7622C38.4464 63.2373 38.5735 63.589 38.9867 63.7521C39.0389 63.7732 39.0966 63.7899 39.1445 63.8055C39.7488 63.9518 40.3334 63.5563 41.3556 62.8713L41.9402 62.4758C44.3225 60.8592 46.0055 60.3471 47.7357 60.7711C48.0013 60.8374 48.2745 60.9244 48.5453 61.0309C50.5245 61.8261 51.1339 63.2598 50.1634 65.1337L52.6461 66.1275L50.0195 69.1206L47.5367 68.1268C45.7567 69.4489 43.8339 69.8038 41.7411 69.292C41.4613 69.2191 41.1772 69.1407 40.8911 69.0373L43.76 65.7662C43.9362 65.8318 44.0995 65.8809 44.2596 65.9148C45.1099 66.1251 45.7199 65.9751 46.2153 65.4105C46.6468 64.9225 46.6829 64.4962 46.0946 64.2578C46.0424 64.2367 45.9945 64.2211 45.9411 64.2098C45.4533 64.0873 45.0322 64.3638 44.4116 64.7699L43.1185 65.6403C40.7777 67.242 39.0605 67.6659 37.3347 67.2474C37.0396 67.1776 36.748 67.0785 36.4532 66.9642C34.6165 66.2256 34.0185 64.8625 34.9393 63.0717L32.7556 62.1977L35.3823 59.2046L37.6182 60.0997C39.2347 59.0204 41.0387 58.6613 43.0443 59.1528L43.0389 59.1571Z" fill="white" stroke="#082422" stroke-width="0.164607" stroke-linejoin="round"/>
<mask id="mask0_664_11567" style="mask-type:alpha" maskUnits="userSpaceOnUse" x="23" y="52" width="38" height="28">
<path d="M34.5068 53.3018C38.8083 51.9268 43.8652 51.6623 48.6582 52.8311C53.4479 54.002 57.0738 56.3884 59.0596 59.3076C60.1491 60.9093 60.7424 62.6707 60.7646 64.4766C60.7648 64.4779 60.7656 64.4791 60.7656 64.4805L60.7949 66.6328C60.8163 68.1234 60.4377 69.6403 59.6387 71.1201C57.8617 74.4018 54.3073 76.8889 50.0068 78.2637C45.7053 79.6387 40.6486 79.9032 35.8555 78.7344C28.4452 76.9232 23.8044 72.1971 23.7412 67.0898L23.7119 64.9375C23.7119 64.9267 23.7144 64.9164 23.7188 64.9072C23.7059 63.4286 24.0767 61.9206 24.875 60.4463C26.652 57.1646 30.2063 54.6765 34.5068 53.3018Z" fill="white"/>
</mask>
<g mask="url(#mask0_664_11567)">
<path opacity="0.25" d="M18.1713 9.95239C23.9642 7.6619 31.1762 8.27096 38.1489 11.0979C45.1164 13.9228 51.8545 18.9646 56.7133 25.5569C56.7204 25.5614 56.7276 25.5665 56.7328 25.5735C61.5912 32.1697 63.652 39.0754 63.0453 44.9084C62.7026 48.2024 61.5086 51.1528 59.4907 53.51L56.4184 57.2385C54.8433 59.1489 52.738 60.6912 50.1166 61.7268L49.5698 61.9329C43.8737 63.9768 36.8947 63.3198 30.1401 60.5813C23.1664 57.7539 16.4227 52.7046 11.5629 46.1038C4.04577 35.8871 3.22888 24.9279 8.63617 18.3723L11.6508 14.7131C13.2491 12.6717 15.4273 11.0354 18.1713 9.95239Z" fill="#002522"/>
</g>
<path d="M54.8036 45.0619L51.5629 48.9953C49.9958 50.8959 47.9007 52.4305 45.29 53.4619C33.749 58.0253 16.5243 51.0433 6.82089 37.8635C-0.686691 27.6602 -1.48693 16.74 3.89104 10.2202L7.13176 6.28679C1.75554 12.8146 2.55577 23.7348 10.0616 33.9302C19.7633 47.1019 36.9798 54.0856 48.5307 49.5286C51.1414 48.4971 53.2285 46.9642 54.8036 45.0619Z" fill="#B9CC00" stroke="#082422" stroke-width="0.164607" stroke-linejoin="round"/>
<path d="M51.8735 17.4178C61.5751 30.5896 60.0813 44.9708 48.5304 49.5279C36.9894 54.0912 19.7647 47.1093 10.0613 33.9295C0.357957 20.7496 1.85353 6.37645 13.3963 1.82117C24.9373 -2.74214 42.162 4.23978 51.8654 17.4196L51.8735 17.4178Z" fill="#DCFF00" stroke="#082422" stroke-width="0.164607" stroke-linejoin="round"/>
<path d="M40.8982 18.4954L39.4002 20.8689L39.5536 21.0294C40.086 21.571 40.5421 22.1122 40.9266 22.6351C42.5243 24.8065 42.8911 26.8049 42.0589 28.6991L35.721 24.148C36.0843 23.4056 36.0247 22.7036 35.5308 22.0276C35.2905 21.7008 34.9496 21.3787 34.5002 21.0631C33.186 20.1175 32.4081 20.2761 32.1119 20.7434C31.8302 21.1991 32.0003 21.7092 32.4827 22.3709C32.9037 22.9448 33.5681 23.6263 34.3859 24.4683L35.2991 25.3991C36.5272 26.6491 37.4834 27.7388 38.2008 28.7033C39.9293 31.0484 40.1898 32.6744 39.2478 34.1801C37.9272 36.28 35.1744 36.3076 31.2782 34.2681L31.0688 34.1616L29.4031 36.815L23.2654 32.406L24.9311 29.7526L24.7517 29.5893C24.0041 28.8752 23.3882 28.1833 22.8844 27.501C21.2405 25.2722 20.8885 23.1866 21.8263 21.1941L28.5777 26.0516C28.1661 26.922 28.2316 27.6901 28.7834 28.4378C29.0469 28.7933 29.4207 29.1503 29.913 29.5071C30.5151 29.9413 31.0546 30.2039 31.5054 30.2921C32.0197 30.4003 32.4118 30.2573 32.6382 29.8975C32.909 29.4694 32.7476 28.9995 32.3533 28.4702C32.0765 28.0924 31.6725 27.6745 31.2355 27.2217L29.2406 25.1693C28.1133 24.0321 27.2248 23.0204 26.5536 22.1133C24.7904 19.7251 24.5298 17.9815 25.5415 16.3683C26.7526 14.4264 29.4407 14.4127 33.0865 16.3126L33.2959 16.419L34.7461 14.0978L40.8919 18.5052L40.8982 18.4954Z" fill="white" stroke="#082422" stroke-width="0.164607" stroke-linejoin="round"/>
</g>
<defs>
<clipPath id="clip0_664_11567">
<rect width="61" height="80" fill="white"/>
</clipPath>
</defs>
</svg>
