<svg width="83" height="80" viewBox="0 0 83 80" fill="none" xmlns="http://www.w3.org/2000/svg">
<g clip-path="url(#clip0_664_11600)">
<path opacity="0.15" fill-rule="evenodd" clip-rule="evenodd" d="M2.71816 28.6536L0.000549316 30.2844L19.6316 42.0017L22.2277 40.4438L2.71816 28.6536Z" fill="black"/>
<path fill-rule="evenodd" clip-rule="evenodd" d="M54.3675 76.5075C54.0435 76.6681 53.6604 76.655 53.3481 76.4726L21.9658 58.1372C21.2274 57.7057 21.2643 56.6265 22.0306 56.2466L49.2778 42.7388C49.6019 42.5781 49.9849 42.5913 50.2972 42.7737L74.1881 56.7322L74.9049 56.2931C75.2107 56.1235 75.5662 56.0356 75.9583 56.0362L76.5543 55.6709C77.2396 55.2908 78.1896 55.3447 79.2384 55.9225C81.3224 57.0705 83.0073 59.8541 83.0001 62.1401C82.9974 63.2753 82.5767 64.0734 81.8999 64.4494L81.3765 64.7696C81.1778 65.1364 80.9041 65.4166 80.5723 65.6009L78.3 66.9905L78.3209 66.9763C77.2273 67.643 76.3247 68.1912 76.3247 68.1912C75.8858 68.4602 75.4343 68.708 74.9837 68.9552L74.9835 68.9553L74.9822 68.956C74.8783 69.013 74.7745 69.0699 74.6709 69.1271C71.9454 70.6395 69.5558 74.3001 68.3765 76.3415C68.0311 77.3889 67.415 78.1579 66.6052 78.6079L64.9207 79.5407C65.1965 79.3877 65.4496 79.1978 65.6772 78.9727C64.3755 80.2591 62.2412 80.3907 59.8333 79.0643C58.4134 78.2823 57.0922 77.1007 55.9827 75.7068L54.3675 76.5075ZM78.1802 67.0637C78.2212 67.041 78.2611 67.0165 78.3 66.9905L78.1802 67.0637Z" fill="black" fill-opacity="0.15"/>
<path d="M46.377 30.7334C46.0106 30.7334 45.7234 30.4451 45.7234 30.0768V9.02692C45.7679 8.70532 45.9637 8.41972 46.2474 8.2603L60.8511 0.0518197C60.9126 0.0174051 60.9776 0 61.0442 0C61.1521 0 61.2542 0.0466773 61.3247 0.127769C61.3948 0.208861 61.4251 0.314478 61.4098 0.425238L61.4373 21.5297C61.4381 22.0471 61.1541 22.5281 60.6959 22.7856L46.7193 30.6413C46.611 30.7022 46.496 30.733 46.3774 30.733L46.377 30.7334Z" fill="#FEFCF9" stroke="#082422" stroke-width="0.0358189" stroke-linejoin="round"/>
<path d="M47.5373 18.1127L51.5673 15.8765C51.5941 15.8619 51.6157 15.8279 51.6157 15.8014V10.0023C51.6157 9.97541 51.5941 9.96552 51.5673 9.98015L47.5373 12.2163C47.5106 12.2309 47.4889 12.265 47.4889 12.2915V18.0905C47.4889 18.1174 47.5106 18.1273 47.5373 18.1127Z" fill="#2BF2F1" stroke="#082422" stroke-width="0.0358189" stroke-linecap="round" stroke-linejoin="round"/>
<path d="M54.3157 7.86414L58.7452 5.42466C58.7719 5.41002 58.7936 5.376 58.7936 5.3495V5.04491C58.7936 5.01801 58.7719 5.00812 58.7452 5.02276L54.3157 7.46224C54.2889 7.47688 54.2673 7.5109 54.2673 7.5374V7.84199C54.2673 7.86889 54.2889 7.87878 54.3157 7.86414Z" fill="#00B1B0" stroke="#082422" stroke-width="0.0358189" stroke-linecap="round" stroke-linejoin="round"/>
<path d="M52.6251 10.1025L58.745 6.77414C58.7718 6.75951 58.7935 6.72549 58.7935 6.69899V6.3944C58.7935 6.3675 58.7718 6.35761 58.745 6.37224L52.6251 9.70057C52.5983 9.71521 52.5766 9.74923 52.5766 9.77573V10.0803C52.5766 10.1072 52.5983 10.1171 52.6251 10.1025Z" fill="#00B1B0" stroke="#082422" stroke-width="0.0358189" stroke-linecap="round" stroke-linejoin="round"/>
<path d="M52.6251 11.4479L58.745 8.1196C58.7718 8.10497 58.7935 8.07095 58.7935 8.04444V7.73986C58.7935 7.71296 58.7718 7.70307 58.745 7.7177L52.6251 11.046C52.5983 11.0607 52.5766 11.0947 52.5766 11.1212V11.4258C52.5766 11.4527 52.5983 11.4626 52.6251 11.4479Z" fill="#00B1B0" stroke="#082422" stroke-width="0.0358189" stroke-linecap="round" stroke-linejoin="round"/>
<path d="M52.6251 12.7975L58.745 9.46921C58.7718 9.45458 58.7935 9.42056 58.7935 9.39405V9.08946C58.7935 9.06257 58.7718 9.05268 58.745 9.06731L52.6251 12.3956C52.5983 12.4103 52.5766 12.4443 52.5766 12.4708V12.7754C52.5766 12.8023 52.5983 12.8122 52.6251 12.7975Z" fill="#00B1B0" stroke="#082422" stroke-width="0.0358189" stroke-linecap="round" stroke-linejoin="round"/>
<path d="M52.6251 14.1469L58.745 10.8186C58.7718 10.8039 58.7935 10.7699 58.7935 10.7434V10.4388C58.7935 10.4119 58.7718 10.402 58.745 10.4167L52.6251 13.745C52.5983 13.7596 52.5766 13.7937 52.5766 13.8202V14.1248C52.5766 14.1517 52.5983 14.1615 52.6251 14.1469Z" fill="#00B1B0" stroke="#082422" stroke-width="0.0358189" stroke-linecap="round" stroke-linejoin="round"/>
<path d="M52.6251 15.4938L58.745 12.1655C58.7718 12.1509 58.7935 12.1168 58.7935 12.0903V11.7858C58.7935 11.7589 58.7718 11.749 58.745 11.7636L52.6251 15.0919C52.5983 15.1066 52.5766 15.1406 52.5766 15.1671V15.4717C52.5766 15.4986 52.5983 15.5085 52.6251 15.4938Z" fill="#00B1B0" stroke="#082422" stroke-width="0.0358189" stroke-linecap="round" stroke-linejoin="round"/>
<path d="M54.3157 18.2214L58.7452 15.782C58.7719 15.7673 58.7936 15.7333 58.7936 15.7068V15.4022C58.7936 15.3753 58.7719 15.3654 58.7452 15.3801L54.3157 17.8195C54.2889 17.8342 54.2673 17.8682 54.2673 17.8947V18.1993C54.2673 18.2262 54.2889 18.2361 54.3157 18.2214Z" fill="#00B1B0" stroke="#082422" stroke-width="0.0358189" stroke-linecap="round" stroke-linejoin="round"/>
<path d="M52.6251 20.4597L58.745 17.1313C58.7718 17.1167 58.7935 17.0827 58.7935 17.0562V16.7516C58.7935 16.7247 58.7718 16.7148 58.745 16.7294L52.6251 20.0578C52.5983 20.0724 52.5766 20.1064 52.5766 20.1329V20.4375C52.5766 20.4644 52.5983 20.4743 52.6251 20.4597Z" fill="#00B1B0" stroke="#082422" stroke-width="0.0358189" stroke-linecap="round" stroke-linejoin="round"/>
<path d="M52.6251 21.8078L58.745 18.4795C58.7718 18.4648 58.7935 18.4308 58.7935 18.4043V18.0997C58.7935 18.0728 58.7718 18.0629 58.745 18.0776L52.6251 21.4059C52.5983 21.4205 52.5766 21.4546 52.5766 21.4811V21.7856C52.5766 21.8125 52.5983 21.8224 52.6251 21.8078Z" fill="#00B1B0" stroke="#082422" stroke-width="0.0358189" stroke-linecap="round" stroke-linejoin="round"/>
<path d="M52.6251 23.1574L58.745 19.8291C58.7718 19.8144 58.7935 19.7804 58.7935 19.7539V19.4493C58.7935 19.4224 58.7718 19.4125 58.745 19.4272L52.6251 22.7555C52.5983 22.7701 52.5766 22.8042 52.5766 22.8307V23.1353C52.5766 23.1622 52.5983 23.172 52.6251 23.1574Z" fill="#00B1B0" stroke="#082422" stroke-width="0.0358189" stroke-linecap="round" stroke-linejoin="round"/>
<path d="M63.4714 52.1387L63.4678 53.8104C63.4643 53.9915 63.3488 54.1727 63.1105 54.3127L40.1471 67.8037C39.6703 68.0806 38.8942 68.0806 38.414 67.8037L6.56174 49.3396C6.31985 49.1996 6.20087 49.0149 6.20087 48.8301L6.20441 47.1584C6.20441 47.3432 6.32694 47.5275 6.56884 47.6679L38.4175 66.132C38.9009 66.4089 39.6739 66.4089 40.1506 66.132L63.114 52.6411C63.3524 52.501 63.4714 52.3198 63.4714 52.1387Z" fill="#082422" stroke="#082422" stroke-width="0.0358189" stroke-linecap="round" stroke-linejoin="round"/>
<path d="M63.1079 51.6321C63.5882 51.9106 63.5909 52.3619 63.1134 52.6404L40.1484 66.1333C39.6733 66.4106 38.8976 66.4106 38.4169 66.1321L6.56547 47.6681C6.08521 47.3896 6.08246 46.9383 6.55759 46.6614L29.5226 33.1685C30.0001 32.89 30.7758 32.89 31.2561 33.1685L63.1079 51.6321Z" fill="#35605F" stroke="#082422" stroke-width="0.0358189" stroke-linecap="round" stroke-linejoin="round"/>
<path d="M31.2996 6.22662C30.817 5.94695 30.4234 6.17243 30.4218 6.73137L30.3513 31.6527C30.3497 32.2093 30.741 32.89 31.2236 33.1697L63.3602 51.7991C63.8448 52.0799 64.2388 51.8549 64.2404 51.2979L64.3109 26.3766C64.3125 25.8172 63.9213 25.1369 63.4367 24.856L31.2996 6.22662Z" fill="#35605F" stroke="#082422" stroke-width="0.0358189" stroke-linecap="round" stroke-linejoin="round"/>
<path d="M62.5929 26.7594C62.5937 26.5395 62.4389 26.2701 62.2494 26.1601L33.1617 9.29814C32.7042 9.0331 32.1326 9.3634 32.131 9.89347L32.0707 31.2701C32.07 31.49 32.2248 31.7594 32.4143 31.8694L61.5024 48.7313C61.9598 48.9964 62.5315 48.6661 62.533 48.136L62.5929 26.7594Z" fill="#2BF2F1" stroke="#082422" stroke-width="0.0358189" stroke-linecap="round" stroke-linejoin="round"/>
<path d="M61.0052 33.39C61.0052 33.39 60.325 34.1876 59.7554 36.0577C59.6528 36.3944 58.8956 39.8432 57.1979 38.62C56.6454 38.222 56.5376 37.4809 56.3823 36.8168C56.1089 35.6465 55.7097 33.0654 54.5433 32.0265C54.0835 31.6169 53.4053 31.578 52.9223 31.9592C52.4764 32.3111 52.3179 33.3359 51.1978 34.404C48.5509 36.9282 48.3445 31.2161 48.2212 30.6401C47.919 29.2334 47.2356 27.3809 45.8461 28.8542C45.5112 29.2089 45.2745 29.6434 45.1104 30.1031C44.8897 30.7219 44.3304 31.7271 43.0798 31.4021C42.232 31.1816 41.5921 30.4802 41.3737 29.6289C41.0348 28.3075 40.2704 25.9516 38.9471 24.9432V33.8237L61.0056 46.6106V33.3896L61.0052 33.39Z" fill="#DCFF00" stroke="#082422" stroke-width="0.0358189" stroke-linejoin="round"/>
<path d="M30.6823 6.16628C30.8402 6.07332 31.0601 6.08677 31.3039 6.22482L63.439 24.8562C63.9232 25.1355 64.3148 25.8151 64.3148 26.3772L64.2427 51.2961C64.2427 51.5722 64.1466 51.7684 63.9886 51.8582L65.4416 51.0133C65.596 50.9203 65.6957 50.7269 65.6957 50.4476L65.7643 25.5287C65.7678 24.9697 65.3762 24.287 64.8916 24.0077L32.753 5.37949C32.5126 5.23827 32.2928 5.22443 32.1313 5.31739L30.6823 6.16628Z" fill="#082422" stroke="#082422" stroke-width="0.0358189" stroke-linecap="round" stroke-linejoin="round"/>
<path d="M30.7228 6.14406C30.7264 6.1405 30.7331 6.1405 30.7366 6.1405C30.7161 6.14723 30.6992 6.15751 30.6823 6.1678C30.6956 6.15791 30.709 6.15079 30.7228 6.14406Z" fill="white" stroke="#082422" stroke-width="0.0358189" stroke-linecap="round" stroke-linejoin="round"/>
<path d="M30.7228 6.14406C30.7264 6.1405 30.7331 6.1405 30.7366 6.1405C30.7161 6.14723 30.6992 6.15751 30.6823 6.1678C30.6956 6.15791 30.709 6.15079 30.7228 6.14406Z" fill="#FEFCF9" stroke="#082422" stroke-width="0.0358189" stroke-linecap="round" stroke-linejoin="round"/>
<path d="M60.9362 51.9446C61.199 52.0968 61.2001 52.3437 60.9393 52.496L48.8381 59.5569C48.5773 59.7092 48.1526 59.7092 47.8898 59.5569L17.6261 42.0134C17.3633 41.8611 17.3629 41.6146 17.6237 41.4623L29.7249 34.4014C29.9857 34.2491 30.4097 34.2487 30.6724 34.401L60.9362 51.9446Z" fill="#082422" stroke="#082422" stroke-width="0.0358189" stroke-linecap="round" stroke-linejoin="round"/>
<path d="M33.7877 37.3141C33.9918 37.4324 33.9929 37.6238 33.79 37.7421C33.5879 37.86 33.2582 37.8604 33.0541 37.7421L32.0629 37.1673C31.8588 37.0491 31.8584 36.8572 32.0605 36.7393C32.2634 36.6211 32.5924 36.6211 32.7964 36.7393L33.7877 37.3141Z" fill="#35605F" stroke="#082422" stroke-width="0.0358189" stroke-linecap="round" stroke-linejoin="round"/>
<path d="M31.687 36.0971C31.8903 36.2149 31.8922 36.4068 31.6893 36.5251C31.4872 36.643 31.1567 36.643 30.9534 36.5251L29.9614 35.9499C29.7581 35.832 29.7569 35.6398 29.959 35.5219C30.1619 35.4036 30.4917 35.404 30.695 35.5219L31.687 36.0971Z" fill="#35605F" stroke="#082422" stroke-width="0.0358189" stroke-linecap="round" stroke-linejoin="round"/>
<path d="M30.8979 37.0594C31.0863 37.1686 31.0878 37.3454 30.9011 37.4546L29.4564 38.2975C29.2693 38.4067 28.9643 38.4067 28.7764 38.2975L27.3238 37.4553C27.1355 37.3462 27.1347 37.169 27.3215 37.0598L28.7662 36.2168C28.9533 36.1076 29.2575 36.108 29.4454 36.2172L30.8979 37.0594Z" fill="#35605F" stroke="#082422" stroke-width="0.0358189" stroke-linecap="round" stroke-linejoin="round"/>
<path d="M28.304 38.5747C28.4923 38.6839 28.4931 38.8611 28.3063 38.9703L26.8624 39.8128C26.6753 39.922 26.3703 39.922 26.1824 39.8128L24.7298 38.9707C24.5415 38.8615 24.5407 38.6843 24.7275 38.5751L26.1714 37.7325C26.3585 37.6233 26.6635 37.6233 26.8514 37.7325L28.304 38.5747Z" fill="#35605F" stroke="#082422" stroke-width="0.0358189" stroke-linecap="round" stroke-linejoin="round"/>
<path d="M49.8412 51.0602C50.0295 51.1694 50.0295 51.3462 49.8427 51.4554L48.3988 52.298C48.2117 52.4072 47.9079 52.4076 47.7196 52.2984L46.2663 51.4558C46.0779 51.3466 46.0779 51.1698 46.2647 51.0606L47.7086 50.2181C47.8957 50.1089 48.1999 50.1085 48.3878 50.2177L49.8412 51.0602Z" fill="#35605F" stroke="#082422" stroke-width="0.0358189" stroke-linecap="round" stroke-linejoin="round"/>
<path d="M47.2438 52.5736C47.4322 52.6828 47.4329 52.8592 47.2462 52.9684L45.8015 53.8114C45.6144 53.9205 45.3114 53.9205 45.1231 53.8114L43.6697 52.9688C43.4814 52.8596 43.4806 52.6832 43.6674 52.574L45.1121 51.7311C45.2992 51.6219 45.6022 51.6219 45.7905 51.7311L47.2438 52.5736Z" fill="#35605F" stroke="#082422" stroke-width="0.0358189" stroke-linecap="round" stroke-linejoin="round"/>
<path d="M55.2247 54.1793C55.413 54.2885 55.4138 54.4657 55.227 54.5749L53.7831 55.4174C53.596 55.5266 53.2911 55.5266 53.1031 55.4174L51.6506 54.5753C51.4622 54.4661 51.4615 54.2889 51.6482 54.1797L53.0921 53.3371C53.2792 53.228 53.5842 53.228 53.7721 53.3371L55.2247 54.1793Z" fill="#35605F" stroke="#082422" stroke-width="0.0358189" stroke-linecap="round" stroke-linejoin="round"/>
<path d="M47.3426 55.6501C47.5309 55.7593 47.5309 55.9361 47.3442 56.0453L45.9002 56.8878C45.7131 56.997 45.4094 56.9974 45.221 56.8882L41.0753 54.4847C40.887 54.3756 40.887 54.1987 41.0737 54.0896L42.5176 53.247C42.7047 53.1378 43.0089 53.1374 43.1968 53.2466L47.3426 55.6501Z" fill="#35605F" stroke="#082422" stroke-width="0.0358189" stroke-linecap="round" stroke-linejoin="round"/>
<path d="M52.6286 55.695C52.8169 55.8042 52.8185 55.981 52.6318 56.0902L51.1871 56.9332C51 57.0423 50.6958 57.0419 50.5079 56.9328L46.3629 54.5301C46.1746 54.4209 46.1738 54.2445 46.3605 54.1353L47.8052 53.2923C47.9924 53.1832 48.2953 53.1832 48.4837 53.2923L52.6286 55.695Z" fill="#35605F" stroke="#082422" stroke-width="0.0358189" stroke-linecap="round" stroke-linejoin="round"/>
<path d="M50.0338 57.2092C50.2221 57.3184 50.2229 57.4956 50.0361 57.6048L48.5922 58.4473C48.4051 58.5565 48.1001 58.5565 47.9122 58.4473L46.4596 57.6052C46.2713 57.496 46.2705 57.3188 46.4573 57.2096L47.9012 56.367C48.0883 56.2579 48.3933 56.2579 48.5812 56.367L50.0338 57.2092Z" fill="#35605F" stroke="#082422" stroke-width="0.0358189" stroke-linecap="round" stroke-linejoin="round"/>
<path d="M41.9581 52.5274C42.1464 52.6366 42.1472 52.8138 41.9604 52.923L40.5165 53.7656C40.3294 53.8748 40.0245 53.8748 39.8365 53.7656L38.384 52.9234C38.1956 52.8142 38.1949 52.637 38.3816 52.5278L39.8255 51.6853C40.0126 51.5761 40.3176 51.5761 40.5055 51.6853L41.9581 52.5274Z" fill="#35605F" stroke="#082422" stroke-width="0.0358189" stroke-linecap="round" stroke-linejoin="round"/>
<path d="M44.5517 51.0131C44.7401 51.1223 44.7416 51.2991 44.5549 51.4083L43.1102 52.2513C42.9231 52.3604 42.6189 52.36 42.431 52.2509L40.9784 51.4087C40.7901 51.2995 40.7885 51.1227 40.9753 51.0135L42.42 50.1706C42.6071 50.0614 42.9108 50.0618 43.0992 50.1709L44.5517 51.0131Z" fill="#35605F" stroke="#082422" stroke-width="0.0358189" stroke-linecap="round" stroke-linejoin="round"/>
<path d="M41.8599 49.4533C42.0482 49.5624 42.049 49.7389 41.8622 49.848L40.4175 50.691C40.2304 50.8002 39.9274 50.8002 39.7391 50.691L38.2858 49.8484C38.0974 49.7393 38.0966 49.5628 38.2834 49.4537L39.7281 48.6107C39.9152 48.5015 40.2182 48.5015 40.4065 48.6107L41.8599 49.4533Z" fill="#35605F" stroke="#082422" stroke-width="0.0358189" stroke-linecap="round" stroke-linejoin="round"/>
<path d="M30.9972 40.1337C31.1856 40.2429 31.1863 40.4201 30.9996 40.5293L29.5557 41.3718C29.3686 41.481 29.0636 41.481 28.8757 41.3718L27.4223 40.5293C27.2348 40.4205 27.234 40.2433 27.4208 40.1341L28.8647 39.2915C29.0518 39.1823 29.3567 39.1824 29.5439 39.2911L30.9972 40.1337Z" fill="#35605F" stroke="#082422" stroke-width="0.0358189" stroke-linecap="round" stroke-linejoin="round"/>
<path d="M26.2672 40.8083C26.4544 40.6991 26.7585 40.6995 26.9456 40.8083L28.399 41.6509C28.5873 41.76 28.5889 41.9369 28.4022 42.046L26.9575 42.889C26.7703 42.9982 26.4662 42.9978 26.2782 42.8886L24.8249 42.046C24.6374 41.9373 24.6358 41.7604 24.8225 41.6513L26.2672 40.8083Z" fill="#35605F" stroke="#082422" stroke-width="0.0358189" stroke-linecap="round" stroke-linejoin="round"/>
<path d="M33.6883 41.6952C33.8766 41.8044 33.8766 41.9812 33.6899 42.0904L32.246 42.933C32.0589 43.0422 31.7551 43.0426 31.5668 42.9334L30.1134 42.0908C29.9251 41.9816 29.9251 41.8048 30.1118 41.6956L31.5558 40.8531C31.7429 40.7439 32.047 40.7435 32.235 40.8527L33.6883 41.6952Z" fill="#35605F" stroke="#082422" stroke-width="0.0358189" stroke-linecap="round" stroke-linejoin="round"/>
<path d="M25.8053 43.1637C25.9937 43.2729 25.9944 43.4501 25.8077 43.5593L24.3638 44.4019C24.1767 44.511 23.8717 44.511 23.6838 44.4019L22.2304 43.5593C22.0429 43.4505 22.0421 43.2733 22.2289 43.1641L23.6728 42.3216C23.8599 42.2124 24.1648 42.2124 24.352 42.3212L25.8053 43.1637Z" fill="#35605F" stroke="#082422" stroke-width="0.0358189" stroke-linecap="round" stroke-linejoin="round"/>
<path d="M31.091 43.2111C31.2793 43.3202 31.2801 43.4967 31.0934 43.6058L29.6487 44.4488C29.4615 44.558 29.1586 44.558 28.9703 44.4488L27.5169 43.6062C27.3286 43.4971 27.3278 43.3206 27.5145 43.2115L28.9592 42.3685C29.1464 42.2593 29.4493 42.2593 29.6376 42.3685L31.091 43.2111Z" fill="#35605F" stroke="#082422" stroke-width="0.0358189" stroke-linecap="round" stroke-linejoin="round"/>
<path d="M36.3811 43.2566C36.5694 43.3658 36.5702 43.543 36.3835 43.6521L34.9396 44.4947C34.7524 44.6039 34.4475 44.6039 34.2596 44.4947L32.807 43.6525C32.6187 43.5434 32.6179 43.3661 32.8046 43.257L34.2485 42.4144C34.4357 42.3052 34.7406 42.3052 34.9285 42.4144L36.3811 43.2566Z" fill="#35605F" stroke="#082422" stroke-width="0.0358189" stroke-linecap="round" stroke-linejoin="round"/>
<path d="M28.4973 44.7241C28.6857 44.8332 28.6857 45.0101 28.4989 45.1192L27.055 45.9618C26.8679 46.071 26.5641 46.0714 26.3758 45.9622L24.9224 45.1196C24.7341 45.0104 24.7341 44.8336 24.9209 44.7245L26.3648 43.8819C26.5519 43.7727 26.8561 43.7723 27.044 43.8815L28.4973 44.7241Z" fill="#35605F" stroke="#082422" stroke-width="0.0358189" stroke-linecap="round" stroke-linejoin="round"/>
<path d="M33.7828 44.7712C33.9711 44.8804 33.9727 45.0572 33.786 45.1664L32.3413 46.0093C32.1541 46.1185 31.85 46.1181 31.6621 46.0089L30.2095 45.1667C30.0212 45.0576 30.0196 44.8807 30.2063 44.7716L31.651 43.9286C31.8382 43.8194 32.1423 43.8198 32.3302 43.929L33.7828 44.7712Z" fill="#35605F" stroke="#082422" stroke-width="0.0358189" stroke-linecap="round" stroke-linejoin="round"/>
<path d="M31.1892 46.2867C31.3775 46.3959 31.3783 46.5731 31.1916 46.6823L29.7477 47.5249C29.5605 47.634 29.2556 47.634 29.0677 47.5249L27.6151 46.6827C27.4268 46.5735 27.426 46.3963 27.6127 46.2871L29.0566 45.4446C29.2438 45.3354 29.5487 45.3354 29.7366 45.4446L31.1892 46.2867Z" fill="#35605F" stroke="#082422" stroke-width="0.0358189" stroke-linecap="round" stroke-linejoin="round"/>
<path d="M36.4755 46.3312C36.6638 46.4404 36.6654 46.6172 36.4787 46.7264L35.034 47.5694C34.8468 47.6785 34.5427 47.6782 34.3548 47.569L32.9022 46.7268C32.7139 46.6176 32.7123 46.4408 32.899 46.3316L34.3437 45.4887C34.5309 45.3795 34.835 45.3799 35.0229 45.4891L36.4755 46.3312Z" fill="#35605F" stroke="#082422" stroke-width="0.0358189" stroke-linecap="round" stroke-linejoin="round"/>
<path d="M39.2648 50.9686C39.4531 51.0778 39.4531 51.2546 39.2663 51.3638L37.8224 52.2063C37.6353 52.3155 37.3311 52.3159 37.1432 52.2067L30.3058 48.2431C30.1175 48.1339 30.1167 47.9567 30.3035 47.8475L31.7474 47.005C31.9345 46.8958 32.2394 46.8958 32.4274 47.005L39.2648 50.9686Z" fill="#35605F" stroke="#082422" stroke-width="0.0358189" stroke-linecap="round" stroke-linejoin="round"/>
<path d="M57.8192 52.6651C58.0075 52.7743 58.0091 52.9511 57.8224 53.0603L56.3777 53.9032C56.1905 54.0124 55.8856 54.0124 55.6977 53.9032L54.2451 53.0611C54.0568 52.9519 54.056 52.7747 54.2427 52.6655L55.6874 51.8225C55.8746 51.7134 56.1787 51.7137 56.3666 51.8229L57.8192 52.6651Z" fill="#35605F" stroke="#082422" stroke-width="0.0358189" stroke-linecap="round" stroke-linejoin="round"/>
<path d="M52.5343 52.6192C52.7226 52.7284 52.7226 52.9052 52.5359 53.0144L51.092 53.8569C50.9049 53.9661 50.6011 53.9665 50.4128 53.8573L48.9594 53.0148C48.7711 52.9056 48.7711 52.7288 48.9579 52.6196L50.4018 51.777C50.5889 51.6679 50.8927 51.6675 51.081 51.7766L52.5343 52.6192Z" fill="#35605F" stroke="#082422" stroke-width="0.0358189" stroke-linecap="round" stroke-linejoin="round"/>
<path d="M50.6043 47.0642C50.8076 47.1821 50.8096 47.374 50.6067 47.4922C50.4046 47.6101 50.074 47.6101 49.8708 47.4922L48.8787 46.9171C48.6754 46.7992 48.6743 46.607 48.8764 46.4891C49.0793 46.3708 49.409 46.3712 49.6123 46.4891L50.6043 47.0642Z" fill="#35605F" stroke="#082422" stroke-width="0.0358189" stroke-linecap="round" stroke-linejoin="round"/>
<path d="M52.7055 48.2829C52.9088 48.4007 52.9108 48.5926 52.7079 48.7109C52.5058 48.8287 52.1752 48.8287 51.9719 48.7109L50.9799 48.1357C50.7766 48.0178 50.7755 47.8256 50.9776 47.7077C51.1805 47.5894 51.5102 47.5898 51.7135 47.7077L52.7055 48.2829Z" fill="#35605F" stroke="#082422" stroke-width="0.0358189" stroke-linecap="round" stroke-linejoin="round"/>
<path d="M56.9093 50.7169C57.1134 50.8352 57.1146 51.0267 56.9117 51.1449C56.7096 51.2628 56.3798 51.2632 56.1757 51.1449L55.1845 50.5702C54.9804 50.4519 54.98 50.2601 55.1821 50.1422C55.385 50.0239 55.714 50.0239 55.9181 50.1422L56.9093 50.7169Z" fill="#35605F" stroke="#082422" stroke-width="0.0358189" stroke-linecap="round" stroke-linejoin="round"/>
<path d="M59.0133 51.9371C59.2174 52.0554 59.2186 52.2469 59.0157 52.3652C58.8136 52.483 58.4838 52.4834 58.2797 52.3652L57.2885 51.7904C57.0844 51.6721 57.084 51.4803 57.2861 51.3624C57.489 51.2441 57.818 51.2441 58.0221 51.3624L59.0133 51.9371Z" fill="#35605F" stroke="#082422" stroke-width="0.0358189" stroke-linecap="round" stroke-linejoin="round"/>
<path d="M54.8081 49.4998C55.0122 49.618 55.0134 49.8095 54.8105 49.9278C54.6084 50.0457 54.2786 50.0461 54.0745 49.9278L53.0833 49.353C52.8792 49.2347 52.8788 49.0429 53.0809 48.925C53.2838 48.8067 53.6128 48.8067 53.8169 48.925L54.8081 49.4998Z" fill="#35605F" stroke="#082422" stroke-width="0.0358189" stroke-linecap="round" stroke-linejoin="round"/>
<path d="M55.1283 51.1051C55.3166 51.2143 55.3174 51.3907 55.1307 51.4999L53.686 52.3429C53.4989 52.452 53.1951 52.4524 53.0068 52.3432L51.5534 51.5007C51.3651 51.3915 51.3651 51.2147 51.5518 51.1055L52.9965 50.2625C53.1837 50.1534 53.4866 50.1534 53.675 50.2625L55.1283 51.1051Z" fill="#35605F" stroke="#082422" stroke-width="0.0358189" stroke-linecap="round" stroke-linejoin="round"/>
<path d="M52.4356 49.5421C52.6239 49.6513 52.6247 49.8277 52.4379 49.9369L50.9932 50.7799C50.8061 50.889 50.5024 50.8894 50.314 50.7803L48.8607 49.9377C48.6724 49.8285 48.6724 49.6517 48.8591 49.5425L50.3038 48.6996C50.4909 48.5904 50.7939 48.5904 50.9822 48.6996L52.4356 49.5421Z" fill="#35605F" stroke="#082422" stroke-width="0.0358189" stroke-linecap="round" stroke-linejoin="round"/>
<path d="M49.743 47.9832C49.9314 48.0924 49.9329 48.2692 49.7462 48.3784L48.3015 49.2213C48.1144 49.3305 47.8094 49.3305 47.6215 49.2213L46.1689 48.3792C45.9806 48.27 45.9798 48.0928 46.1666 47.9836L47.6113 47.1406C47.7984 47.0315 48.1022 47.0319 48.2905 47.141L49.743 47.9832Z" fill="#35605F" stroke="#082422" stroke-width="0.0358189" stroke-linecap="round" stroke-linejoin="round"/>
<path d="M44.4562 47.9361C44.6445 48.0453 44.6445 48.2221 44.4578 48.3313L43.0139 49.1738C42.8267 49.283 42.5226 49.2834 42.3347 49.1742L40.8813 48.3317C40.693 48.2225 40.693 48.0457 40.8797 47.9365L42.3236 47.0939C42.5108 46.9847 42.8149 46.9843 43.0028 47.0935L44.4562 47.9361Z" fill="#35605F" stroke="#082422" stroke-width="0.0358189" stroke-linecap="round" stroke-linejoin="round"/>
<path d="M47.0517 46.4244C47.24 46.5336 47.2408 46.7101 47.0541 46.8192L45.6094 47.6622C45.4223 47.7714 45.1181 47.7718 44.9302 47.6626L43.4768 46.82C43.2885 46.7108 43.2885 46.534 43.4753 46.4248L44.9199 45.5819C45.1071 45.4727 45.41 45.4727 45.5984 45.5819L47.0517 46.4244Z" fill="#35605F" stroke="#082422" stroke-width="0.0358189" stroke-linecap="round" stroke-linejoin="round"/>
<path d="M39.0733 44.8169C39.2616 44.926 39.2624 45.1033 39.0757 45.2124L37.6318 46.055C37.4446 46.1642 37.1397 46.1642 36.9518 46.055L35.4992 45.2128C35.3109 45.1037 35.3101 44.9264 35.4968 44.8173L36.9407 43.9747C37.1279 43.8655 37.4328 43.8655 37.6207 43.9747L39.0733 44.8169Z" fill="#35605F" stroke="#082422" stroke-width="0.0358189" stroke-linecap="round" stroke-linejoin="round"/>
<path d="M39.1696 47.8917C39.3579 48.0009 39.3587 48.1773 39.1719 48.2865L37.7272 49.1295C37.5401 49.2386 37.2371 49.2386 37.0488 49.1295L35.5954 48.2869C35.4071 48.1777 35.4063 48.0013 35.5931 47.8921L37.0378 47.0492C37.2249 46.94 37.5279 46.94 37.7162 47.0492L39.1696 47.8917Z" fill="#35605F" stroke="#082422" stroke-width="0.0358189" stroke-linecap="round" stroke-linejoin="round"/>
<path d="M41.764 46.377C41.9523 46.4862 41.9523 46.663 41.7656 46.7722L40.3217 47.6148C40.1345 47.7239 39.8304 47.7243 39.6425 47.6151L38.1891 46.7726C38.0008 46.6634 38.0008 46.4866 38.1875 46.3774L39.6314 45.5348C39.8186 45.4257 40.1227 45.4253 40.3106 45.5344L41.764 46.377Z" fill="#35605F" stroke="#082422" stroke-width="0.0358189" stroke-linecap="round" stroke-linejoin="round"/>
<path d="M44.2969 43.4082C44.501 43.5265 44.5022 43.718 44.2993 43.8362C44.0971 43.9541 43.7674 43.9545 43.5633 43.8362L42.5721 43.2615C42.368 43.1432 42.3676 42.9513 42.5697 42.8335C42.7726 42.7152 43.1016 42.7152 43.3057 42.8335L44.2969 43.4082Z" fill="#35605F" stroke="#082422" stroke-width="0.0358189" stroke-linecap="round" stroke-linejoin="round"/>
<path d="M44.3595 44.8629C44.5478 44.9721 44.5486 45.1485 44.3618 45.2577L42.9171 46.1007C42.73 46.2098 42.4262 46.2102 42.2379 46.1011L40.7846 45.2585C40.5962 45.1493 40.5962 44.9725 40.783 44.8633L42.2277 44.0204C42.4148 43.9112 42.7178 43.9112 42.9061 44.0204L44.3595 44.8629Z" fill="#35605F" stroke="#082422" stroke-width="0.0358189" stroke-linecap="round" stroke-linejoin="round"/>
<path d="M35.8917 38.534C36.0958 38.6522 36.097 38.8437 35.8941 38.962C35.692 39.0798 35.3622 39.0802 35.1582 38.962L34.1669 38.3872C33.9629 38.2689 33.9625 38.0771 34.1646 37.9592C34.3675 37.8409 34.6964 37.8409 34.9005 37.9592L35.8917 38.534Z" fill="#35605F" stroke="#082422" stroke-width="0.0358189" stroke-linecap="round" stroke-linejoin="round"/>
<path d="M33.5917 38.6207C33.78 38.7299 33.7816 38.9067 33.5949 39.0159L32.1502 39.8588C31.963 39.968 31.6581 39.968 31.4702 39.8588L30.0168 39.0163C29.8293 38.9075 29.8285 38.7303 30.0152 38.6211L31.4599 37.7781C31.6471 37.669 31.9512 37.6694 32.1384 37.7781L33.5917 38.6207Z" fill="#35605F" stroke="#082422" stroke-width="0.0358189" stroke-linecap="round" stroke-linejoin="round"/>
<path d="M37.9929 39.7539C38.197 39.8722 38.1982 40.0637 37.9953 40.1819C37.7932 40.2998 37.4634 40.3002 37.2594 40.1819L36.2681 39.6072C36.064 39.4889 36.0637 39.297 36.2658 39.1792C36.4687 39.0609 36.7976 39.0609 37.0017 39.1792L37.9929 39.7539Z" fill="#35605F" stroke="#082422" stroke-width="0.0358189" stroke-linecap="round" stroke-linejoin="round"/>
<path d="M40.0946 40.9713C40.2979 41.0892 40.2998 41.2811 40.0969 41.3993C39.8948 41.5172 39.5643 41.5172 39.361 41.3993L38.369 40.8242C38.1657 40.7063 38.1645 40.5141 38.3666 40.3962C38.5695 40.2779 38.8993 40.2783 39.1025 40.3962L40.0946 40.9713Z" fill="#35605F" stroke="#082422" stroke-width="0.0358189" stroke-linecap="round" stroke-linejoin="round"/>
<path d="M36.2848 40.1823C36.4731 40.2914 36.4739 40.4679 36.2871 40.577L34.8424 41.42C34.6553 41.5292 34.3515 41.5296 34.1632 41.4204L32.7099 40.5778C32.5215 40.4687 32.5215 40.2918 32.7083 40.1827L34.153 39.3397C34.3401 39.2305 34.6431 39.2305 34.8314 39.3397L36.2848 40.1823Z" fill="#35605F" stroke="#082422" stroke-width="0.0358189" stroke-linecap="round" stroke-linejoin="round"/>
<path d="M42.1977 42.19C42.4009 42.3078 42.4029 42.4997 42.2 42.618C41.9979 42.7358 41.6674 42.7358 41.4641 42.618L40.4721 42.0428C40.2688 41.9249 40.2676 41.7327 40.4697 41.6148C40.6726 41.4965 41.0023 41.4969 41.2056 41.6148L42.1977 42.19Z" fill="#35605F" stroke="#082422" stroke-width="0.0358189" stroke-linecap="round" stroke-linejoin="round"/>
<path d="M38.9766 41.741C39.1649 41.8502 39.1665 42.027 38.9797 42.1362L37.535 42.9792C37.3479 43.0883 37.0429 43.0883 36.855 42.9792L35.4025 42.137C35.2141 42.0278 35.2133 41.8506 35.4001 41.7414L36.8448 40.8985C37.0319 40.7893 37.3361 40.7897 37.524 40.8989L38.9766 41.741Z" fill="#35605F" stroke="#082422" stroke-width="0.0358189" stroke-linecap="round" stroke-linejoin="round"/>
<path d="M41.6673 43.3014C41.8556 43.4106 41.8572 43.5874 41.6704 43.6966L40.2258 44.5396C40.0386 44.6488 39.7337 44.6488 39.5458 44.5396L38.0932 43.6974C37.9049 43.5882 37.9041 43.411 38.0908 43.3018L39.5355 42.4589C39.7227 42.3497 40.0268 42.3501 40.2147 42.4593L41.6673 43.3014Z" fill="#35605F" stroke="#082422" stroke-width="0.0358189" stroke-linecap="round" stroke-linejoin="round"/>
<path d="M47.1476 49.4988C47.3359 49.6079 47.3367 49.7852 47.1499 49.8943L45.706 50.7369C45.5189 50.8461 45.214 50.8461 45.026 50.7369L43.5735 49.8947C43.3852 49.7855 43.3844 49.6083 43.5711 49.4992L45.015 48.6566C45.2022 48.5474 45.5071 48.5474 45.695 48.6566L47.1476 49.4988Z" fill="#35605F" stroke="#082422" stroke-width="0.0358189" stroke-linecap="round" stroke-linejoin="round"/>
<path d="M28.3994 41.6489C28.5878 41.758 28.5893 41.9349 28.4026 42.044L26.9579 42.887C26.7708 42.9962 26.4666 42.9958 26.2787 42.8866L22.1333 40.4835C21.945 40.3743 21.9434 40.1975 22.1302 40.0883L23.5749 39.2454C23.762 39.1362 24.0661 39.1366 24.2541 39.2458L28.3994 41.6489Z" fill="#35605F" stroke="#082422" stroke-width="0.0358189" stroke-linecap="round" stroke-linejoin="round"/>
<path d="M23.1121 41.6035C23.3004 41.7127 23.3012 41.8899 23.1144 41.9991L21.6705 42.8416C21.4834 42.9508 21.1784 42.9508 20.9905 42.8416L19.538 41.9995C19.3496 41.8903 19.3488 41.7131 19.5356 41.6039L20.9795 40.7613C21.1666 40.6521 21.4716 40.6521 21.6595 40.7613L23.1121 41.6035Z" fill="#35605F" stroke="#082422" stroke-width="0.0358189" stroke-linecap="round" stroke-linejoin="round"/>
<path d="M48.5026 45.8452C48.7067 45.9635 48.7079 46.155 48.505 46.2732C48.3029 46.3911 47.9731 46.3915 47.7691 46.2732L46.7778 45.6985C46.5738 45.5802 46.5734 45.3883 46.7755 45.2705C46.9784 45.1522 47.3073 45.1522 47.5114 45.2705L48.5026 45.8452Z" fill="#35605F" stroke="#082422" stroke-width="0.0358189" stroke-linecap="round" stroke-linejoin="round"/>
<path d="M46.401 44.6255C46.605 44.7438 46.6062 44.9352 46.4033 45.0535C46.2012 45.1714 45.8715 45.1718 45.6674 45.0535L44.6761 44.4788C44.4721 44.3605 44.4717 44.1686 44.6738 44.0507C44.8767 43.9325 45.2056 43.9325 45.4097 44.0507L46.401 44.6255Z" fill="#35605F" stroke="#082422" stroke-width="0.0358189" stroke-linecap="round" stroke-linejoin="round"/>
<path d="M36.3944 54.2284C36.5493 54.3182 36.5501 54.4638 36.3964 54.5536L28.9921 58.9041C28.8388 58.9935 28.5887 58.9935 28.4338 58.9037L18.1646 52.9507C18.0097 52.8609 18.0089 52.7154 18.1622 52.626L25.5665 48.2755C25.7206 48.1857 25.9703 48.1857 26.1256 48.2755L36.3944 54.2284Z" fill="#082422" stroke="#082422" stroke-width="0.0358189" stroke-linecap="round" stroke-linejoin="round"/>
<path d="M46.6109 17.4677L59.7566 35.2107L59.7265 55.3413L33.3246 40.0361L33.3548 19.9055L46.6109 17.4677Z" fill="black" fill-opacity="0.15"/>
<path d="M42.0693 13.7802L55.215 31.5232L55.1849 51.6538L28.783 36.3486L28.8131 16.218L42.0693 13.7802Z" fill="#FFB05A" stroke="#082422" stroke-width="0.0358189" stroke-linecap="round" stroke-linejoin="round"/>
<path d="M27.0743 37.3677C27.0705 37.3677 27.0671 37.3669 27.0638 37.3648C27.0571 37.361 27.0533 37.3539 27.0533 37.3467L27.1098 17.2006C27.1098 17.1931 27.114 17.1863 27.1203 17.1826L28.8013 16.1998C28.8046 16.1977 28.808 16.1969 28.8117 16.1969C28.8155 16.1969 28.8189 16.1977 28.8222 16.1998C28.8289 16.2036 28.8327 16.2103 28.8327 16.2179L28.8021 36.3481C28.8021 36.3556 28.7984 36.3623 28.7917 36.3661L27.0847 37.3644C27.0814 37.3665 27.078 37.3673 27.0743 37.3673V37.3677Z" fill="#FFB05A"/>
<path d="M28.8112 16.218L28.7806 36.3482L27.0737 37.3464L27.1302 17.2003L28.8112 16.2176M28.8116 16.176C28.8037 16.176 28.7961 16.1781 28.7898 16.1819L27.1097 17.1642C27.0967 17.1718 27.0888 17.1856 27.0888 17.2003L27.0323 37.3464C27.0323 37.3616 27.0402 37.3754 27.0532 37.383C27.0595 37.3868 27.067 37.3884 27.0741 37.3884C27.0812 37.3884 27.0888 37.3863 27.095 37.3826L28.802 36.3843C28.8149 36.3767 28.8229 36.3629 28.8229 36.3482L28.8534 16.221C28.8534 16.221 28.8534 16.2189 28.8534 16.218C28.8534 16.1949 28.8346 16.176 28.8116 16.176Z" fill="#082422"/>
<path d="M51.6809 47.9679C51.2472 47.9679 50.7804 47.8247 50.2931 47.5421L31.7835 36.7973C30.0841 35.8125 28.7059 33.4136 28.7117 31.4503L28.8113 13.1671C28.8151 11.8035 29.4768 10.9564 30.5383 10.9564C30.9716 10.9564 31.438 11.0992 31.924 11.381L50.4336 22.1258C52.1331 23.1106 53.5113 25.5095 53.5054 27.4728L53.4059 45.756C53.4021 47.12 52.7412 47.9675 51.6813 47.9675L51.6809 47.9679Z" fill="white" stroke="#082422" stroke-width="0.0358189" stroke-linejoin="round"/>
<path d="M45.6665 24.1861L45.2636 27.5054L40.7573 24.8984L40.5257 27.3988L40.4565 27.3552C38.4337 26.1057 37.1743 23.6227 37.4199 21.0369C37.4786 20.4168 37.6592 19.6038 37.6687 19.5609L45.6665 24.1861Z" fill="#00201D"/>
<path d="M43.1625 29.065L42.7384 32.5323L40.2529 31.0782L39.8748 35.1252L36.6853 33.2802L36.8208 31.2294C37.017 27.6758 39.3213 26.8427 41.9116 28.3413L43.1625 29.065Z" fill="#00201D"/>
<path d="M53.5334 32.5073L53.4761 52.6534L27.0742 37.3478L27.1306 17.2017L40.3052 34.9284L53.5334 32.5073Z" fill="#FFCD9C" stroke="#082422" stroke-width="0.0358189" stroke-linecap="round" stroke-linejoin="round"/>
<path d="M40.3035 34.924L53.4761 52.6519L27.0742 37.3463L40.3035 34.924Z" fill="#FFCD9C" stroke="#082422" stroke-width="0.0358189" stroke-linecap="round" stroke-linejoin="round"/>
<path fill-rule="evenodd" clip-rule="evenodd" d="M27.1113 24.3778L27.1166 22.4957L27.3672 22.641C29.8335 24.0706 31.7568 27.8621 31.6627 31.1094C31.6079 33.0128 30.872 34.3068 29.7759 34.7636L28.2087 35.417C27.8654 35.568 27.4858 35.6358 27.0798 35.6133L27.1113 24.3788C28.8903 26.1804 30.1301 29.1579 30.0541 31.7804C30.0197 32.9697 29.7197 33.9211 29.2319 34.579C29.7199 33.9211 30.0202 32.9695 30.0545 31.7798C30.1305 29.1572 28.8905 26.1795 27.1113 24.3778Z" fill="black" fill-opacity="0.15"/>
<path d="M55.2108 31.5234L53.5306 32.5066L53.4733 52.6527L55.1806 51.654L55.2108 31.5234Z" fill="#FFB05A" stroke="#082422" stroke-width="0.0358189" stroke-linecap="round" stroke-linejoin="round"/>
<path d="M61.4658 25.2819L59.4456 26.4527L59.4676 33.8104L67.4156 25.2819H61.4658Z" fill="#EFEBE7" stroke="#082422" stroke-width="0.0358189" stroke-linecap="round" stroke-linejoin="round"/>
<path d="M74.0813 19.7739L65.9993 32.0655L52.9691 24.5121L74.0813 19.7739Z" fill="white" stroke="#082422" stroke-width="0.0358189" stroke-linecap="round" stroke-linejoin="round"/>
<path d="M74.0788 19.7751L61.1234 29.2411L59.4664 33.8092L57.8464 27.344L74.0788 19.7751Z" fill="#EFEBE7" stroke="#082422" stroke-width="0.0358189" stroke-linecap="round" stroke-linejoin="round"/>
<path d="M16.3684 8.2052L21.1335 13.3183L21.1469 8.90734L19.9358 8.2052H16.3684Z" fill="#EFEBE7" stroke="#082422" stroke-width="0.0358189" stroke-linecap="round" stroke-linejoin="round"/>
<path d="M25.0288 7.74611L17.2167 12.2746L12.3716 4.90552L25.0288 7.74611Z" fill="#FEFCF9" stroke="#082422" stroke-width="0.0358189" stroke-linecap="round" stroke-linejoin="round"/>
<path d="M22.1044 9.44472L21.1333 13.3205L20.1401 10.582L12.3729 4.90674L22.1044 9.44472Z" fill="#EFEBE7" stroke="#082422" stroke-width="0.0358189" stroke-linecap="round" stroke-linejoin="round"/>
<path d="M2.36273 27.4575L5.0141 25.8806V30.1298L2.36273 31.7067V27.4575Z" fill="#00B1B0" stroke="#082422" stroke-width="0.0358189" stroke-linejoin="round"/>
<path d="M2.36205 27.4757L0.000488281 26.0377V30.2869L2.36205 31.7252V27.4757Z" fill="#2BF2F1" stroke="#082422" stroke-width="0.0358189" stroke-linejoin="round"/>
<path d="M2.36205 27.475L5.01343 25.8789L2.65186 24.4454L0.000488281 26.0415L2.36205 27.475Z" fill="#2BF2F1" stroke="#082422" stroke-width="0.0358189" stroke-linejoin="round"/>
<path d="M6.53162 26.6156L9.18299 25.0391V32.6133L6.53162 34.1901V26.6156Z" fill="#00B1B0" stroke="#082422" stroke-width="0.0358189" stroke-linejoin="round"/>
<path d="M6.52947 26.6357L4.16791 25.1974V32.772L6.52947 34.2103V26.6357Z" fill="#2BF2F1" stroke="#082422" stroke-width="0.0358189" stroke-linejoin="round"/>
<path d="M6.52947 26.6372L9.18085 25.0411L6.81928 23.6073L4.16791 25.2034L6.52947 26.6372Z" fill="#2BF2F1" stroke="#082422" stroke-width="0.0358189" stroke-linejoin="round"/>
<path d="M10.7004 26.1029L13.3518 24.526V35.0989L10.7004 36.6757V26.1029Z" fill="#00B1B0" stroke="#082422" stroke-width="0.0358189" stroke-linejoin="round"/>
<path d="M10.7003 26.1224L8.33868 24.6844V35.2573L10.7003 36.6957V26.1224Z" fill="#2BF2F1" stroke="#082422" stroke-width="0.0358189" stroke-linejoin="round"/>
<path d="M10.7003 26.1223L13.3516 24.5262L10.9901 23.0928L8.33868 24.6888L10.7003 26.1223Z" fill="#2BF2F1" stroke="#082422" stroke-width="0.0358189" stroke-linejoin="round"/>
<path d="M14.8693 29.4825L17.5206 27.9056V37.5848L14.8693 39.1617V29.4825Z" fill="#00B1B0" stroke="#082422" stroke-width="0.0358189" stroke-linejoin="round"/>
<path d="M14.8686 29.5008L12.507 28.0625V37.7417L14.8686 39.1801V29.5008Z" fill="#2BF2F1" stroke="#082422" stroke-width="0.0358189" stroke-linejoin="round"/>
<path d="M14.8686 29.501L17.52 27.9045L15.1584 26.4711L12.507 28.0671L14.8686 29.501Z" fill="#2BF2F1" stroke="#082422" stroke-width="0.0358189" stroke-linejoin="round"/>
<path d="M65.7477 54.8518L63.8831 55.8352C65.676 57.5385 64.7553 66.7842 64.7553 66.7842L67.2109 68.0496C67.2109 68.0496 68.1439 58.7747 65.7473 54.8518H65.7477Z" fill="#2BF2F1" stroke="#082422" stroke-width="0.0358189" stroke-linejoin="round"/>
<path d="M68.6831 53.3059L65.7496 54.853C68.1457 58.7759 67.2124 68.0508 67.2124 68.0508L70.2085 65.7343C70.2247 65.7217 70.2361 65.7039 70.2397 65.6841C71.5331 59.3206 68.6827 53.3063 68.6827 53.3063L68.6831 53.3059Z" fill="#00B1B0" stroke="#082422" stroke-width="0.0358189" stroke-linejoin="round"/>
<path d="M64.7237 45.4088C65.5124 44.9713 66.5257 44.9717 67.7329 45.6362C70.1314 46.9574 72.0705 50.162 72.0634 52.7921C72.0587 54.0987 71.6407 55.086 70.8602 55.5188L72.7654 54.3534C73.5443 53.9207 74.0285 53.0021 74.0317 51.6956C74.0399 49.0646 72.1008 45.8609 69.7023 44.5397C68.4952 43.8748 67.4019 43.8127 66.6132 44.2502L64.7237 45.4084V45.4088Z" fill="#DCFF00" stroke="#082422" stroke-width="0.0358189" stroke-linejoin="round"/>
<path d="M63.2817 45.8414C61.0817 47.2164 58.9027 48.4514 56.7476 49.5001C55.0413 50.3264 53.22 50.8766 51.3388 51.112C48.7425 51.4376 45.7814 51.6132 45.7814 51.6132L56.3044 69.6927C56.3044 69.6927 59.9845 62.2129 64.447 59.7366C65.0841 59.385 65.7282 59.0408 66.3503 58.6595C66.3503 58.6595 68.1523 57.5649 69.885 56.506C71.0831 51.0305 69.1373 47.3311 63.2817 45.8418V45.8414Z" fill="#DCFF00" stroke="#082422" stroke-width="0.0358189" stroke-linejoin="round"/>
<path d="M41.569 52.5843C43.0629 51.756 45.1344 51.8719 47.4214 53.131C51.9655 55.6342 55.6389 61.705 55.6251 66.6876C55.6156 69.1623 54.7016 70.9024 53.2238 71.7224L55.1626 70.6488C56.638 69.8288 57.5548 68.0887 57.5615 65.614C57.5776 60.6298 53.9038 54.5606 49.3602 52.0574C47.0732 50.7983 45.002 50.6801 43.5077 51.5088L41.569 52.5839V52.5843Z" fill="#2BF2F1" stroke="#082422" stroke-width="0.0358189" stroke-linejoin="round"/>
<path d="M61.9783 46.6418C62.8143 46.1782 63.889 46.1782 65.1687 46.8831C67.7117 48.2842 69.7679 51.6822 69.7604 54.4706C69.7553 55.8558 69.3121 56.9025 68.4847 57.3618L71.2378 55.6782C72.0636 55.2194 72.5765 54.2451 72.5808 52.8606C72.5895 50.0706 70.5338 46.6739 67.9907 45.2732C66.7103 44.5686 65.5512 44.5022 64.7152 44.9658L61.9787 46.6418H61.9783Z" fill="#2BF2F1" stroke="#082422" stroke-width="0.0358189" stroke-linejoin="round"/>
<path d="M40.2016 58.1932C40.1898 62.5497 43.3959 67.8527 47.3723 70.0426C51.3455 72.2308 54.578 70.4741 54.5914 66.1197C54.6044 61.7621 51.3923 56.4547 47.4191 54.266C43.4428 52.0761 40.2146 53.836 40.2016 58.1932Z" fill="#B3D000" stroke="#082422" stroke-width="0.0358189" stroke-linejoin="round"/>
<path d="M50.5999 71.1512C49.5843 71.1512 48.4599 70.8276 47.2937 70.1852C43.2815 67.9752 40.0273 62.595 40.0387 58.1919C40.0454 56.0879 40.7888 54.4906 42.1323 53.6947C43.5581 52.8501 45.4633 53.0016 47.497 54.1219C51.5116 56.3335 54.767 61.7153 54.7532 66.1191C54.7465 68.2204 54.0035 69.8158 52.66 70.6112C52.0517 70.9716 51.356 71.1508 50.5999 71.1508V71.1512ZM40.3641 58.1923C40.3523 62.4882 43.5313 67.7394 47.4497 69.898C49.3786 70.9605 51.1704 71.114 52.4949 70.3296C53.7352 69.5946 54.4215 68.099 54.4278 66.118C54.4408 61.8209 51.2618 56.5681 47.3402 54.4083C45.4117 53.3462 43.6207 53.1923 42.2974 53.9759C41.0571 54.7109 40.3705 56.2085 40.3641 58.1927V58.1923Z" fill="#082422" stroke="#082422" stroke-width="0.0358189" stroke-linejoin="round"/>
<path d="M41.3257 58.7864C41.3151 62.4625 44.0225 66.938 47.3767 68.7849C49.0649 69.7145 50.5939 69.8023 51.697 69.1895L53.5093 68.186C52.4038 68.7971 50.8768 68.7113 49.189 67.7813C45.8347 65.934 43.1273 61.4589 43.138 57.7809C43.1423 55.9542 43.8192 54.6689 44.9093 54.0637L43.097 55.0673C42.0069 55.6721 41.3324 56.9573 41.3257 58.7864Z" fill="#00B1B0" stroke="#082422" stroke-width="0.0358189" stroke-linejoin="round"/>
<path d="M55.6257 66.6868C55.6107 71.6682 51.9133 73.6769 47.3692 71.1738C42.822 68.6694 39.1545 62.6041 39.1695 57.6223C39.1845 52.6389 42.8756 50.6255 47.4232 53.1302C51.9669 55.6334 55.6403 61.7034 55.6257 66.6868ZM49.6062 57.1294C48.9286 56.4637 48.1899 55.8972 47.4173 55.4736C44.0626 53.6231 41.3383 55.1069 41.3288 58.7845C41.3143 62.4621 44.0248 66.9384 47.3795 68.7845C50.729 70.635 53.4584 69.1512 53.4679 65.4736C53.4726 64.5127 53.2879 63.4942 52.9565 62.4811C52.3116 60.521 51.1033 58.5847 49.6066 57.1294H49.6062Z" fill="#2BF2F1" stroke="#082422" stroke-width="0.0358189" stroke-linejoin="round"/>
<path d="M52.9558 62.4817L48.7104 64.2274L45.9337 59.7507L49.6055 57.1293C51.103 58.585 52.3109 60.5213 52.9554 62.4813L52.9558 62.4817Z" fill="#00B1B0" stroke="#082422" stroke-width="0.0358189" stroke-linejoin="round"/>
<path d="M45.4682 60.8723C45.4647 62.0456 46.3279 63.474 47.3991 64.0642C48.4691 64.654 49.3402 64.1805 49.3433 63.0076C49.3469 61.834 48.4817 60.4044 47.4117 59.815C46.3413 59.2248 45.4722 59.6991 45.4682 60.8727V60.8723Z" fill="#00B1B0" stroke="#082422" stroke-width="0.0358189" stroke-linejoin="round"/>
<path d="M7.39992 20.4378C6.62931 20.4378 6.0025 19.8084 6.0025 19.0347C6.0025 18.261 6.62931 17.6328 7.39992 17.6328C8.16974 17.6328 8.79616 18.2618 8.79616 19.0347C8.79616 19.8077 8.16974 20.4378 7.39992 20.4378Z" fill="#006F6E"/>
<path d="M7.40806 19.8571C6.91795 19.8571 6.45583 19.746 6.10716 19.5438C5.75298 19.3385 5.55836 19.0644 5.55915 18.7717L5.56151 17.8824C5.56151 17.8714 5.57018 17.8627 5.58121 17.8627C5.59224 17.8627 5.60091 17.8718 5.60091 17.8824C5.60012 18.1605 5.78765 18.4224 6.12922 18.6202C6.47198 18.8188 6.92702 18.9283 7.41042 18.9283C7.89382 18.9283 8.34768 18.8192 8.68807 18.6206C9.02295 18.4252 9.20811 18.1669 9.2089 17.8931H9.2483L9.24593 18.7828C9.24515 19.0711 9.05328 19.3413 8.7058 19.5442C8.3595 19.7464 7.89894 19.8575 7.40845 19.8575L7.40806 19.8571Z" fill="#00B1B0"/>
<path d="M5.58013 17.8822C5.57934 18.1556 5.75899 18.4289 6.1183 18.6374C6.47563 18.8447 6.94249 18.9479 7.40934 18.9479C7.8762 18.9479 8.34187 18.8443 8.69684 18.6374C9.04984 18.4313 9.22674 18.1623 9.22713 17.8929L9.22477 18.7822C9.22398 19.0515 9.04748 19.3205 8.69448 19.5266C8.33951 19.7339 7.87344 19.8371 7.40698 19.8371C6.94052 19.8371 6.47327 19.7335 6.11593 19.5266C5.75663 19.3185 5.57737 19.0448 5.57777 18.7715L5.58013 17.8822ZM5.58013 17.8427C5.5624 17.8427 5.54743 17.8545 5.5427 17.8704C5.5427 17.8704 5.54192 17.8743 5.54192 17.8763C5.54192 17.8771 5.54192 17.8775 5.54192 17.8783L5.53955 18.7675C5.53877 19.0678 5.73693 19.3478 6.09742 19.5567C6.44884 19.7604 6.91451 19.8727 7.40816 19.8727C7.90181 19.8727 8.3663 19.7604 8.71536 19.5567C9.06954 19.3502 9.26456 19.0737 9.26534 18.7782L9.26771 17.889H9.22831H9.18891C9.18813 18.1552 9.0069 18.4075 8.67793 18.5994C8.3403 18.7964 7.88999 18.9048 7.41013 18.9048C6.93027 18.9048 6.47878 18.7964 6.13878 18.5994C5.80509 18.406 5.6211 18.1512 5.62032 17.8814C5.62032 17.8806 5.62032 17.8795 5.62032 17.8787C5.62032 17.8569 5.60259 17.8391 5.58092 17.8391L5.58013 17.8427Z" fill="#082422"/>
<path d="M8.6626 17.1617C9.36466 17.5687 9.36939 18.2274 8.67088 18.6348C7.97355 19.0418 6.84009 19.0418 6.13803 18.6348C5.43716 18.2286 5.43243 17.5687 6.12976 17.1617C6.82827 16.7543 7.96173 16.7554 8.6626 17.1617Z" fill="#FEFCF9" stroke="#082422" stroke-width="0.0358189" stroke-linecap="round" stroke-linejoin="round"/>
<path d="M7.40806 19.098C6.91795 19.098 6.45583 18.9868 6.10716 18.7847C5.75298 18.5794 5.55836 18.3053 5.55915 18.0125L5.56151 17.1233C5.56151 17.1122 5.57018 17.1035 5.58121 17.1035C5.59224 17.1035 5.60091 17.1126 5.60091 17.1233C5.60012 17.4014 5.78765 17.6632 6.12922 17.861C6.47198 18.0596 6.92702 18.1692 7.41042 18.1692C7.89382 18.1692 8.34768 18.06 8.68807 17.8614C9.02295 17.666 9.20811 17.4077 9.2089 17.134H9.2483L9.24593 18.0236C9.24515 18.312 9.05328 18.5822 8.7058 18.7851C8.3595 18.9872 7.89894 19.0984 7.40845 19.0984L7.40806 19.098Z" fill="#00B1B0"/>
<path d="M5.58013 17.1233C5.57934 17.3967 5.75899 17.67 6.1183 17.8785C6.47563 18.0857 6.94249 18.189 7.40934 18.189C7.8762 18.189 8.34187 18.0853 8.69684 17.8785C9.04984 17.6724 9.22674 17.4034 9.22713 17.134L9.22477 18.0232C9.22398 18.2926 9.04748 18.5616 8.69448 18.7677C8.33951 18.975 7.87344 19.0782 7.40698 19.0782C6.94052 19.0782 6.47327 18.9746 6.11593 18.7677C5.75663 18.5596 5.57737 18.2859 5.57777 18.0126L5.58013 17.1233ZM5.58013 17.0838C5.5624 17.0838 5.54743 17.0956 5.5427 17.1114C5.5427 17.1114 5.54192 17.1154 5.54192 17.1174C5.54192 17.1182 5.54192 17.1186 5.54192 17.1194L5.53955 18.0086C5.53877 18.3088 5.73693 18.5889 6.09742 18.7978C6.44884 19.0015 6.91451 19.1138 7.40816 19.1138C7.90181 19.1138 8.3663 19.0015 8.71536 18.7978C9.06954 18.5913 9.26456 18.3148 9.26534 18.0193L9.26771 17.13H9.22831H9.18891C9.18813 17.3963 9.0069 17.6486 8.67793 17.8405C8.3403 18.0375 7.88999 18.1459 7.41013 18.1459C6.93027 18.1459 6.47878 18.0375 6.13878 17.8405C5.80509 17.6471 5.6211 17.3923 5.62032 17.1225C5.62032 17.1217 5.62032 17.1205 5.62032 17.1198C5.62032 17.098 5.60259 17.0802 5.58092 17.0802L5.58013 17.0838Z" fill="#082422"/>
<path d="M8.66401 16.4272C9.36607 16.8342 9.37079 17.4929 8.67228 17.9003C7.97495 18.3073 6.8415 18.3073 6.13944 17.9003C5.43856 17.4941 5.43383 16.8342 6.13116 16.4272C6.82968 16.0198 7.96313 16.021 8.66401 16.4272Z" fill="#FEFCF9" stroke="#FEFCF9" stroke-width="0.0358189" stroke-linecap="round" stroke-linejoin="round"/>
<path d="M7.40575 18.2821C6.93298 18.2821 6.46021 18.1777 6.09934 17.9684C5.73412 17.7568 5.5332 17.4704 5.53241 17.1622C5.53202 16.8565 5.73018 16.5717 6.09067 16.3616C6.80809 15.9431 7.97898 15.9431 8.70034 16.3616C9.06594 16.5736 9.26766 16.8596 9.26805 17.1674C9.26805 17.4732 9.06988 17.7576 8.70861 17.968C8.3501 18.1777 7.87812 18.2825 7.40535 18.2825L7.40575 18.2821ZM7.39432 16.1998C6.94953 16.1998 6.50591 16.2983 6.16828 16.4953C5.85704 16.6769 5.68606 16.9138 5.68645 17.1626C5.68645 17.413 5.86059 17.652 6.17655 17.8351C6.85576 18.2291 7.95731 18.2291 8.63258 17.8351C8.94421 17.6532 9.11559 17.4162 9.11559 17.1678C9.11519 16.9174 8.94066 16.6789 8.6247 16.4953C8.28509 16.2983 7.83912 16.1998 7.39472 16.1998H7.39432Z" fill="#082422" stroke="#FEFCF9" stroke-width="0.0358189" stroke-linecap="round" stroke-linejoin="round"/>
<path d="M7.40568 18.3549C6.85176 18.3549 6.32974 18.2287 5.93498 17.9997C5.53944 17.7707 5.31999 17.4637 5.31684 17.1362V16.1473C5.31684 15.8526 5.19392 15.5669 4.98 15.3636C4.27006 14.6896 3.87885 13.7778 3.87885 12.7956C3.87885 10.8454 5.45828 9.25879 7.39977 9.25879C9.34127 9.25879 10.9207 10.8454 10.9207 12.7956C10.9207 13.7628 10.5188 14.6987 9.81837 15.3636C9.60404 15.5669 9.48113 15.8526 9.48113 16.1476V17.1366C9.48428 17.4633 9.26799 17.7699 8.87204 18.0005C8.48044 18.2295 7.95961 18.3557 7.40608 18.3557L7.40568 18.3549Z" fill="#DCFF00"/>
<path d="M7.39982 9.27869C9.33343 9.27869 10.901 10.8558 10.901 12.7957C10.901 13.8012 10.4795 14.7091 9.80501 15.3491C9.58636 15.5568 9.46186 15.8452 9.46186 16.1474V17.1363C9.46502 17.4425 9.26527 17.7486 8.86263 17.9832C8.46078 18.2182 7.93404 18.3357 7.40651 18.3357C6.87899 18.3357 6.35067 18.2182 5.94567 17.9832C5.54145 17.749 5.34013 17.4429 5.33737 17.1363V16.1474C5.33737 15.8452 5.21288 15.5568 4.99422 15.3495C4.31974 14.7091 3.89938 13.8012 3.89938 12.7957C3.89938 10.8558 5.46541 9.27869 7.4006 9.27869M7.39982 9.23914C5.44769 9.23914 3.85919 10.8345 3.85919 12.7957C3.85919 13.2929 3.95926 13.774 4.15703 14.2257C4.34811 14.662 4.62035 15.0501 4.96625 15.3784C5.17663 15.5782 5.29719 15.8582 5.29719 16.1478V17.1367C5.30073 17.4721 5.52372 17.7846 5.92518 18.0176C6.3227 18.2483 6.84826 18.3756 7.40573 18.3756C7.9632 18.3756 8.48718 18.2486 8.88194 18.0176C9.28418 17.7835 9.50402 17.4706 9.50087 17.1363V16.1478C9.50087 15.8582 9.62142 15.5778 9.83181 15.3784C10.1781 15.0497 10.4507 14.662 10.6418 14.2257C10.84 13.774 10.94 13.2929 10.94 12.7961C10.94 10.8353 9.35195 9.23953 7.39942 9.23953L7.39982 9.23914Z" fill="#082422"/>
<path d="M10.9016 12.7939C10.9016 13.7999 10.4817 14.7073 9.80639 15.3466C9.58655 15.555 9.46363 15.8426 9.46363 16.1452V17.1345C9.46678 17.4399 9.26625 17.7469 8.864 17.9811C8.05991 18.4506 6.75665 18.4506 5.94625 17.9811C5.63777 17.8023 5.44748 17.5815 5.37341 17.3509C6.14363 17.5685 7.09074 17.4909 7.727 17.1183C8.12925 16.8841 8.32938 16.5776 8.32663 16.2718V15.2825C8.32663 14.9814 8.44994 14.6923 8.66938 14.4854C9.34465 13.8446 9.76462 12.9371 9.76462 11.9316C9.76462 11.0435 9.43684 10.2314 8.89355 9.61316C10.081 10.1765 10.9016 11.3909 10.9016 12.7943V12.7939Z" fill="#B3D000"/>
<path d="M19.5002 31.0261L19.6046 32.659L21.2128 31.9889L21.1084 30.356L19.5002 31.0261Z" fill="#DCFF00" stroke="#082422" stroke-width="0.0358189" stroke-linejoin="round"/>
<path d="M24.8005 20.5395L20.8316 18.2389C19.8108 17.6471 18.857 17.5526 18.0829 17.8754L16.4747 18.5459C17.2488 18.2231 18.2026 18.3176 19.2234 18.9094L23.1923 21.21C25.6585 22.6396 27.5819 26.4312 27.4878 29.6784C27.433 31.5819 26.6971 32.8758 25.601 33.3327L27.2092 32.6622C28.3053 32.2053 29.0412 30.9114 29.096 29.0079C29.1901 25.7607 27.2667 21.9691 24.8005 20.5395Z" fill="#B3D000" stroke="#082422" stroke-width="0.0358189" stroke-linejoin="round"/>
<path d="M23.1919 21.2108C25.6581 22.6404 27.5815 26.432 27.4874 29.6792C27.3936 32.9264 25.3189 34.3999 22.8523 32.97L19.5 31.0269L19.6044 32.6598C19.4464 32.5075 16.4412 29.6108 15.1576 25.6574C14.766 24.5206 14.5548 23.3279 14.5875 22.2013C14.6813 18.9541 16.7567 17.4806 19.2234 18.9102L23.1923 21.2108H23.1919Z" fill="#DCFF00" stroke="#082422" stroke-width="0.0358189" stroke-linejoin="round"/>
<path d="M19.4476 24.7648C19.6977 24.91 19.8928 25.2945 19.8833 25.624C19.8738 25.9535 19.6631 26.1031 19.4133 25.9579C19.1635 25.8127 18.9681 25.4282 18.9776 25.0987C18.987 24.7692 19.1978 24.6197 19.4476 24.7648Z" fill="#082422"/>
<path d="M21.1679 25.7627C21.4184 25.9078 21.6139 26.2927 21.604 26.6218C21.5942 26.951 21.3838 27.1009 21.1332 26.9553C20.8826 26.8097 20.688 26.4256 20.6975 26.0961C20.7069 25.7666 20.9177 25.6171 21.1675 25.7623L21.1679 25.7627Z" fill="#517C3C"/>
<path d="M22.8921 26.7619C23.1423 26.9071 23.3373 27.2916 23.3279 27.6211C23.3184 27.9506 23.1076 28.1001 22.8579 27.955C22.6073 27.8098 22.4119 27.4249 22.4217 27.0958C22.4316 26.7667 22.642 26.6168 22.8925 26.7623L22.8921 26.7619Z" fill="#8DBD50"/>
</g>
<defs>
<clipPath id="clip0_664_11600">
<rect width="83" height="80" fill="white"/>
</clipPath>
</defs>
</svg>
