<svg width="88" height="80" viewBox="0 0 88 80" fill="none" xmlns="http://www.w3.org/2000/svg">
<g clip-path="url(#clip0_664_11612)">
<path d="M25.4955 74.6177L25.7509 75.322L7.51275 44.9382L7.25739 44.2339L25.4955 74.6177Z" fill="#35963E" stroke="#082422" stroke-width="0.0960541"/>
<path d="M80.4833 35.0622L80.7379 35.7643C78.0548 35.8736 75.5555 36.374 73.1348 37.2899C72.7833 37.4229 72.4347 37.564 72.0891 37.7132C70.3637 38.4582 68.6959 39.4117 67.0427 40.5961C66.3438 41.097 65.6464 41.6434 64.9468 42.2337C60.5878 45.9098 56.8534 50.8113 53.243 55.5493C49.0621 61.0343 44.8 66.6269 39.4606 70.459C37.5696 71.8163 35.5449 72.954 33.3408 73.788C31.0258 74.6639 28.5171 75.2047 25.7565 75.3157L25.5019 74.6136C28.2626 74.5026 30.7712 73.9618 33.0862 73.0859C35.4013 72.2099 37.315 71.1142 39.2061 69.7569C44.5454 65.9248 48.8102 60.3312 52.9884 54.8472C56.5988 50.1092 60.3332 45.2077 64.6922 41.5316C65.3901 40.945 66.0866 40.3959 66.7882 39.894C68.4404 38.7069 70.1091 37.7561 71.8345 37.0111C72.1828 36.8609 72.5313 36.7198 72.8802 36.5878C75.3009 35.6719 77.8002 35.1715 80.4833 35.0622Z" fill="#35963E" stroke="#082422" stroke-width="0.0960541"/>
<path d="M54.649 6.21028C56.9636 5.33461 59.4745 4.79299 62.2321 4.68302L80.4847 35.0776C77.802 35.1869 75.3032 35.6872 72.8828 36.6028C72.5314 36.7358 72.1829 36.8768 71.8374 37.026C70.1123 37.7707 68.4448 38.7239 66.7918 39.9079C66.093 40.4087 65.3957 40.955 64.6962 41.545C60.3379 45.22 56.6042 50.12 52.9944 54.8564C48.8142 60.3398 44.5528 65.9307 39.2144 69.7615C37.3237 71.1185 35.2992 72.2558 33.0956 73.0895C30.781 73.9651 28.2727 74.5058 25.5125 74.6167L7.2625 44.2211C9.94522 44.1118 12.4414 43.6126 14.8618 42.6969C15.2132 42.564 15.5617 42.4229 15.9072 42.2738C17.6323 41.5291 19.2998 40.5759 20.9527 39.3918C21.6515 38.891 22.3489 38.3448 23.0483 37.7548C27.4066 34.0798 31.1404 29.1798 34.7501 24.4433C38.9304 18.9599 43.1945 13.3681 48.5329 9.53721C50.4236 8.1803 52.448 7.04296 54.6516 6.20928L54.649 6.21028Z" fill="#60D06F" stroke="#082422" stroke-width="0.0960541"/>
<path d="M70.3338 27.1998C70.3051 27.2782 70.2494 27.3483 70.1754 27.4009C70.1162 27.4448 70.0441 27.4782 69.9646 27.4991C69.4476 27.6394 69.0094 27.8481 68.6288 28.1242C68.046 28.5472 67.6029 29.1232 67.3403 29.8242C66.8741 31.0658 67.0383 32.5541 67.7798 33.8116C67.8581 33.9446 67.8794 34.0778 67.8476 34.1973C67.8221 34.2929 67.7651 34.3759 67.6893 34.4321C66.6066 35.0259 65.5966 35.6628 64.5922 36.3897C62.5904 37.8378 60.601 39.6434 58.5702 41.8484C55.8426 44.8082 53.2964 48.1937 50.834 51.4706C46.6751 57.0042 42.3965 62.6967 37.0775 66.5478C36.0827 67.268 35.0502 67.9257 33.9741 68.5047C33.755 68.6214 33.4559 68.5258 33.3183 68.2954C32.6059 67.1098 31.4931 66.2537 30.0902 65.799C28.7694 65.3716 27.2679 65.341 25.8596 65.708C25.5413 65.7915 25.156 65.6487 25.0079 65.3978L17.6411 53.047C17.5779 52.9389 17.5628 52.831 17.6004 52.7278C17.6268 52.6595 17.6738 52.5987 17.7383 52.5528C17.7906 52.5146 17.8547 52.4842 17.9263 52.4663C18.4486 52.324 18.8903 52.117 19.2736 51.84C19.8547 51.4206 20.2926 50.8466 20.5571 50.151C21.0243 48.9121 20.8611 47.4265 20.1196 46.169C20.0498 46.0512 20.0347 45.9433 20.0599 45.8386C20.0813 45.7568 20.129 45.6896 20.1952 45.6401C21.3159 45.035 22.3652 44.374 23.4106 43.6193C25.3949 42.1809 27.3697 40.3931 29.3836 38.216C32.1304 35.2428 34.6902 31.8368 37.1671 28.5421C41.3261 23.0085 45.6047 17.316 50.9263 13.4639C51.9185 12.7447 52.9493 12.0907 54.0227 11.5127C54.2085 11.4117 54.4661 11.4923 54.5821 11.6879C55.2945 12.8735 56.4073 13.7296 57.8091 14.1816C59.1264 14.6074 60.6269 14.6353 62.0349 14.2591C62.3938 14.1633 62.8242 14.3228 62.993 14.6058L70.2956 26.8458C70.3654 26.9637 70.3837 27.0888 70.3374 27.2015L70.3338 27.1998Z" fill="#80E58A" stroke="#082422" stroke-width="0.115265"/>
<path d="M50.4529 23.5839C52.0892 22.9587 53.6652 22.7554 55.0138 22.9943C56.3275 23.228 57.3225 23.8585 57.8966 24.8202C58.4632 25.7694 58.5941 26.9755 58.3023 28.5073C58.0411 29.8833 57.4491 31.5072 56.439 33.627C55.1525 36.2688 52.3747 41.5349 48.2359 47.1162C45.9208 50.2362 43.4954 52.7288 41.1512 54.4261C39.9159 55.3202 38.7056 55.993 37.5443 56.42C35.9081 57.0452 34.3321 57.2484 32.9835 57.0096C31.6697 56.7759 30.6748 56.1454 30.1007 55.1837C29.5341 54.2345 29.4032 53.0284 29.695 51.4966C29.9572 50.1233 30.5472 48.494 31.5583 46.3769C32.8448 43.7351 35.6226 38.469 39.7614 32.8877C42.0738 29.7686 44.5019 27.2751 46.8461 25.5778C48.0813 24.6837 49.2917 24.0109 50.4529 23.5839Z" fill="#60D06F" stroke="#082422" stroke-width="0.115265"/>
<path fill-rule="evenodd" clip-rule="evenodd" d="M18.3049 40.8766C19.1111 40.4115 19.9092 39.8956 20.7039 39.3264C21.403 38.8254 22.1007 38.279 22.8005 37.6888C26.0656 34.9364 28.9808 31.4976 31.756 27.955C32.7612 28.3328 33.7431 28.7992 34.679 29.3546L34.6777 29.3513C40.7195 32.9366 42.5598 38.8717 38.7837 42.6062C35.0077 46.3407 27.0495 46.4623 21.0091 42.8803C19.9846 42.2728 19.0809 41.5975 18.3049 40.8766Z" fill="black" fill-opacity="0.2"/>
<path d="M38.4522 31.622L38.02 33.1031C37.7239 34.119 37.1596 35.075 36.3065 35.918C32.5304 39.6525 24.5722 39.774 18.5318 36.192C13.8541 33.4168 11.6955 29.2354 12.7123 25.752L13.1445 24.271C12.131 27.753 14.2862 31.9357 18.964 34.7109C25.0057 38.2962 32.9639 38.1747 36.7386 34.4369C37.5918 33.5939 38.1561 32.6379 38.4522 31.622Z" fill="#0CBAB5" stroke="#082422" stroke-width="0.115265"/>
<path d="M32.6325 21.1819C38.6742 24.7672 40.5146 30.7023 36.7385 34.4368C32.9625 38.1713 25.0043 38.2929 18.9639 34.7109C12.9235 31.1289 11.0818 25.1905 14.8579 21.456C18.634 17.7215 26.5921 17.5999 32.6338 21.1852L32.6325 21.1819Z" fill="#2BF2F1" stroke="#082422" stroke-width="0.115265"/>
<path d="M27.5 24.3089C27.6488 24.3961 27.7968 24.4913 27.9421 24.599L25.4427 26.154C25.3428 26.0745 25.2448 26.0095 25.154 25.9532C24.6458 25.6505 24.245 25.6917 23.8881 25.9143C23.5039 26.1552 23.5193 26.4202 23.765 26.6187C23.7979 26.6441 23.8294 26.6662 23.8643 26.687C24.2435 26.9139 24.7281 26.7638 25.5685 26.506L26.0498 26.3572C28.0168 25.742 29.2751 25.7418 30.3705 26.3928C30.539 26.4914 30.7028 26.6073 30.8651 26.7389C32.0522 27.694 32.167 28.8023 31.1137 29.8872L32.6018 31.0842L30.1823 32.5891L28.6942 31.3921C27.2018 31.9298 25.8106 31.7755 24.4861 30.9883C24.3071 30.8822 24.1321 30.767 23.9598 30.6392L26.607 28.9924C26.7148 29.0727 26.8175 29.1397 26.9175 29.2001C27.456 29.5215 27.9019 29.5468 28.3606 29.2617C28.7547 29.017 28.8726 28.7307 28.5198 28.444C28.487 28.4186 28.46 28.3985 28.4251 28.3777C28.117 28.1958 27.7732 28.295 27.2615 28.4442L26.1954 28.7706C24.2621 29.3842 22.9971 29.3182 21.9064 28.6693C21.7214 28.5579 21.5425 28.4327 21.3651 28.2916C20.2614 27.4034 20.1402 26.3472 21.1474 25.3108L19.8426 24.2601L22.2621 22.7552L23.5997 23.8313C24.9307 23.4288 26.2381 23.5546 27.5033 24.3076L27.5 24.3089Z" fill="white" stroke="#082422" stroke-width="0.115265"/>
</g>
<defs>
<clipPath id="clip0_664_11612">
<rect width="88" height="80" fill="white"/>
</clipPath>
</defs>
</svg>
