<svg width="126" height="80" viewBox="0 0 126 80" fill="none" xmlns="http://www.w3.org/2000/svg">
<g clip-path="url(#clip0_664_11572)">
<path d="M111.14 49.7246L115.803 52.1081C115.803 52.1081 109.079 54.2314 106.667 54.6559C104.256 55.0803 102.943 52.7895 102.943 52.7895C102.943 52.7895 109.3 52.4492 111.14 49.7246H111.14Z" fill="#38A543" stroke="#022522" stroke-width="0.164607" stroke-miterlimit="10"/>
<path d="M102.859 63.0961C102.859 63.0961 106.118 67.1893 108.38 67.0958C108.38 67.0958 108.396 68.8064 101.78 71.2404L97.5062 67.7906C97.5062 67.7906 102.943 64.8614 102.859 63.0952V63.0961Z" fill="#38A543" stroke="#022522" stroke-width="0.164607" stroke-miterlimit="10"/>
<path d="M115.824 62.2196C115.622 63.0104 116.834 64.299 118.53 65.0975C120.227 65.8959 121.766 65.9018 121.969 65.1109C122.061 64.7496 122.26 63.9731 122.26 63.9731C121.773 63.4088 120.184 62.6668 119.263 62.233C118.224 61.7437 116.765 60.9756 116.115 61.0817C116.115 61.0817 115.903 61.913 115.824 62.2196Z" fill="#DAFC35" stroke="#022522" stroke-width="0.164607" stroke-miterlimit="10" stroke-linecap="round"/>
<path d="M122.257 63.9663C122.459 63.1752 121.247 61.8867 119.55 61.0884C117.853 60.29 116.314 60.2841 116.112 61.0752C115.91 61.8663 117.121 63.1548 118.818 63.9531C120.515 64.7515 122.055 64.7574 122.257 63.9663Z" fill="#DAFC35" stroke="#022522" stroke-width="0.164607" stroke-miterlimit="10" stroke-linecap="round"/>
<path d="M46.0102 32.6273C46.0102 32.6273 44.6815 37.4457 41.5274 37.4727C41.5274 37.4727 42.063 36.777 41.309 35.2113C41.309 35.2113 42.2256 31.9763 39.6227 31.9569C37.0198 31.9375 36.6679 32.0891 35.0214 31.9005C33.3748 31.7118 33.0925 35.3056 33.6281 35.9785C34.1637 36.6515 34.3269 36.2615 34.1686 36.4771C34.0104 36.6928 33.3364 36.0838 33.0453 38.7048C32.7542 41.3259 33.9632 41.069 33.9632 41.4193C33.9632 41.7697 33.4233 41.3579 33.3798 42.574C33.2948 44.9719 33.7919 45.1176 34.5652 45.6836C35.3385 46.2487 35.9883 46.4222 37.6199 46.8138C38.6192 47.0539 39.8896 46.1788 39.7425 43.8795C39.7425 43.8795 40.9329 42.8301 41.0911 41.2416C41.0911 41.2416 43.9671 44.4716 47.2403 38.4421C47.2403 38.4421 48.8868 35.293 46.0102 32.6273Z" fill="#FDCB9A" stroke="#022522" stroke-width="0.164607" stroke-miterlimit="10"/>
<path d="M37.1235 36.0461C37.1235 36.0461 40.5748 37.1763 41.309 35.2114L37.1235 36.0461Z" fill="#FDCB9A"/>
<path d="M37.1235 36.0461C37.1235 36.0461 40.5748 37.1763 41.309 35.2114" stroke="#022522" stroke-width="0.164607" stroke-miterlimit="10"/>
<path d="M37.1233 36.0457C38.9603 36.423 39.6629 37.1212 39.6629 37.1212C40.8048 38.2346 40.0303 40.9213 39.6629 41.6347C39.0447 42.834 36.0521 41.7383 36.0521 41.7383" fill="#FDCB9A"/>
<path d="M37.1233 36.0457C38.9603 36.423 39.6629 37.1212 39.6629 37.1212C40.8048 38.2346 40.0303 40.9213 39.6629 41.6347C39.0447 42.834 36.0521 41.7383 36.0521 41.7383" stroke="#022522" stroke-width="0.164607" stroke-miterlimit="10"/>
<path d="M37.3109 42.0576C37.3109 42.0576 39.9206 42.2951 39.7382 44.506L37.3109 42.0576Z" fill="#FDCB9A"/>
<path d="M37.3109 42.0576C37.3109 42.0576 39.9206 42.2951 39.7382 44.506" stroke="#022522" stroke-width="0.164607" stroke-miterlimit="10"/>
<path d="M76.184 22.7476C79.6887 36.2973 76.5247 50.1428 69.1169 53.6717C67.3698 54.5038 64.6415 55.7646 64.6415 55.7646C58.7499 54.5266 52.0359 45.8819 49.3573 35.5275C46.6005 24.8691 47.6171 12.6459 51.9329 6.78648C51.9329 6.78648 54.8437 5.35638 56.4244 4.60342C63.8322 1.07448 72.6793 9.19778 76.184 22.7476Z" fill="#DAFC35" stroke="#022522" stroke-width="0.164607" stroke-miterlimit="10" stroke-linecap="round"/>
<path d="M65.3704 55.4585C72.7784 51.9301 75.9427 38.0852 72.4382 24.5349C68.9337 10.9847 60.0874 2.86043 52.6794 6.38884C45.2714 9.91725 42.107 23.7622 45.6116 37.3124C49.1161 50.8627 57.9624 58.9869 65.3704 55.4585Z" fill="#DAFC35" stroke="#022522" stroke-width="0.164607" stroke-miterlimit="10" stroke-linecap="round"/>
<path d="M57.9914 16.2343L58.8535 19.7594C60.0877 19.6508 61.1714 19.9656 62.0763 20.7132C62.9938 21.4714 63.7245 22.6707 64.2461 24.312L64.2723 24.395L59.6083 26.5027L59.5825 26.4374C59.3207 25.7631 59.0187 25.3135 58.6768 25.0822C58.3389 24.8536 57.9569 24.8345 57.5192 25.0322C57.1048 25.2195 56.8302 25.4937 56.6786 25.7977C56.527 26.102 56.4934 26.4462 56.5752 26.7809C56.6366 27.0321 56.7286 27.2133 56.855 27.3434C56.9815 27.4735 57.1462 27.5578 57.3596 27.6084C57.7917 27.7109 58.4055 27.6727 59.2648 27.6155L59.2657 27.6151L60.124 27.5727C61.986 27.486 63.3492 27.6841 64.3489 28.3287C65.3512 28.9751 65.9789 30.0635 66.3858 31.7274C66.7793 33.3365 66.7351 34.8583 66.2761 36.2288C65.8231 37.5809 64.9679 38.7776 63.7456 39.7626L64.7037 43.6803L60.1536 45.7365L59.1883 41.7894C57.7702 41.9802 56.5796 41.6518 55.6163 40.8585C54.6409 40.055 53.9027 38.7796 53.3939 37.1012L53.3688 37.0188L58.3087 34.7864L58.3319 34.8571C58.578 35.5995 58.8959 36.087 59.2746 36.3315C59.6497 36.5736 60.0936 36.5828 60.612 36.3487C61.0806 36.1369 61.4293 35.8488 61.6319 35.5043C61.8325 35.1629 61.8977 34.7526 61.7816 34.2778C61.7304 34.0684 61.6558 33.9177 61.5591 33.8085C61.4626 33.6996 61.3407 33.628 61.1885 33.582C60.8785 33.4884 60.4559 33.5034 59.8909 33.5215L59.8907 33.5206L58.0707 33.6235L58.0705 33.6226C56.2159 33.7519 54.8685 33.4826 53.8845 32.7669C52.8995 32.0505 52.2881 30.8945 51.8918 29.2745C51.533 27.8073 51.5504 26.3996 51.9569 25.1156C52.3578 23.8492 53.1352 22.7107 54.289 21.7568L53.4413 18.2906L57.9914 16.2343Z" fill="white" stroke="black" stroke-width="0.164607"/>
<path d="M74.4561 58.1245C74.4561 58.1245 74.3313 55.0394 76.9293 55.3789C79.5273 55.7174 79.8767 55.7646 79.8767 55.7646C79.8767 55.7646 80.9255 56.8031 81.5002 57.9553C82.0749 59.1074 83.5545 61.5726 85.1725 63.3792C86.721 65.1083 90.3436 71.5488 87.2957 76.2611C84.2484 80.9734 78.996 81.4223 77.3675 76.5146C77.1577 75.8829 76.8505 74.329 77.6145 70.8717C78.3785 67.4143 77.0044 64.8034 76.7797 64.1936C76.5551 63.5839 74.2656 59.4283 74.4567 58.1254L74.4561 58.1245Z" fill="white" stroke="#002522" stroke-width="0.164607" stroke-miterlimit="10"/>
<path d="M65.5478 54.0505C65.5478 54.0505 67.6064 62.2707 72.1525 62.536C72.9295 62.5814 74.028 62.536 74.7709 60.2552C74.7709 60.2552 75.6305 58.3459 77.1157 59.5124C78.6008 60.6788 77.6146 63.1718 77.6146 63.1718C77.6146 63.1718 75.7087 71.0736 69.9251 68.0509C64.1414 65.0281 63.3203 57.603 63.3203 57.603C63.3203 57.603 61.6006 52.3526 65.5478 54.0497V54.0505Z" fill="#FDCB9A" stroke="#022522" stroke-width="0.164607" stroke-miterlimit="10"/>
<path d="M74.4588 60.7226C74.4588 60.7226 76.9395 58.5892 77.6954 62.9343L77.4621 63.694C77.4621 63.694 80.0973 62.6715 78.6363 58.5732C78.6363 58.5732 77.6116 56.028 75.18 57.5078C75.18 57.5078 73.6607 58.9059 74.4588 60.7218V60.7226Z" fill="white" stroke="#002522" stroke-width="0.164607" stroke-miterlimit="10"/>
<path d="M79.2273 55.7646C80.7261 57.0465 81.7253 60.9722 84.0731 63.9553C85.2269 65.4208 87.046 69.7861 86.2962 73.379C85.5471 76.972 84.0769 77.8437 83.2986 78.1924C80.2761 79.5484 79.0001 78.3718 78.287 78.2008" stroke="#002522" stroke-width="0.164607" stroke-miterlimit="10"/>
<path d="M78.2884 72.4638C78.2884 72.4638 80.3024 68.2266 83.3497 70.9049L78.2884 72.4638Z" fill="white"/>
<path d="M78.2884 72.4638C78.2884 72.4638 80.3024 68.2266 83.3497 70.9049" stroke="#002522" stroke-width="0.164607" stroke-miterlimit="10"/>
<path d="M78.5291 66.7357C78.5291 66.7357 79.9776 63.3794 83.0255 65.6509L78.5291 66.7357Z" fill="white"/>
<path d="M78.5291 66.7357C78.5291 66.7357 79.9776 63.3794 83.0255 65.6509" stroke="#002522" stroke-width="0.164607" stroke-miterlimit="10"/>
<path d="M72.7793 50.6892C72.6669 51.9593 71.5634 54.0304 70.6474 54.4557C69.7314 54.881 67.8757 55.4369 65.5856 53.867C65.5856 53.867 65.0791 53.7364 65.1759 54.6848C65.2728 55.6331 65.5614 59.6893 66.9112 61.9793C66.9112 61.9793 67.08 64.1708 66.2602 63.4844C65.4409 62.7971 63.0304 62.2429 62.4036 61.228C62.4036 61.228 61.2467 57.0076 61.0537 54.4565C60.8607 51.9054 60.5963 47.9469 62.946 46.868C65.2957 45.7883 67.5374 48.0783 69.6587 49.1901C71.78 50.3018 72.7985 50.4694 72.7786 50.6901L72.7793 50.6892Z" fill="#FDCB9A" stroke="#022522" stroke-width="0.164607" stroke-miterlimit="10"/>
<path d="M66.998 66.7353C66.998 66.7353 66.478 64.4242 66.8572 63.1979C67.2364 61.9717 66.9298 61.7299 66.2831 61.2271C65.6358 60.7243 63.705 59.5022 62.0988 60.0438C60.4926 60.5853 63.3878 65.3456 63.3878 65.3456C63.3878 65.3456 66.7814 67.4554 66.998 66.7345V66.7353Z" fill="white" stroke="#002522" stroke-width="0.164607" stroke-miterlimit="10"/>
<path d="M63.4721 65.0981C63.4721 65.0981 66.7478 65.9488 67.6309 67.442C68.5141 68.9353 67.7079 74.5614 67.7079 74.5614C67.7079 74.5614 66.5306 80.5699 60.2864 77.1664C54.0423 73.763 48.4628 70.3418 48.1817 64.3856C47.8999 58.4293 50.6232 55.8218 53.1337 56.1722C54.3998 56.349 55.9234 56.7802 57.6121 59.4543C57.6121 59.4543 59.3393 58.933 60.3119 59.1941C61.2844 59.4543 62.8198 59.8022 63.4727 65.0981H63.4721Z" fill="white" stroke="#002522" stroke-width="0.164607" stroke-miterlimit="10"/>
<path d="M63.7395 66.885C63.7395 66.885 63.9691 63.5262 60.8095 62.8406C60.4985 62.7733 59.8754 62.6671 59.5552 62.6671C59.5552 62.6671 58.8539 61.3987 57.5152 59.3066" fill="white"/>
<path d="M63.7395 66.885C63.7395 66.885 63.9691 63.5262 60.8095 62.8406C60.4985 62.7733 59.8754 62.6671 59.5552 62.6671C59.5552 62.6671 58.8539 61.3987 57.5152 59.3066" stroke="#002522" stroke-width="0.164607" stroke-miterlimit="10"/>
<path d="M51.6739 68.0503C51.6739 68.0503 54.7448 67.0776 55.6404 66.4358L51.6739 68.0503Z" fill="#FDCB9A"/>
<path d="M51.6739 68.0503C51.6739 68.0503 54.7448 67.0776 55.6404 66.4358" stroke="#022522" stroke-width="0.164607" stroke-miterlimit="10"/>
<path d="M55.7176 71.5232C55.7176 71.5232 58.5328 70.6204 59.0702 69.9087L55.7176 71.5232Z" fill="#FDCB9A"/>
<path d="M55.7176 71.5232C55.7176 71.5232 58.5328 70.6204 59.0702 69.9087" stroke="#022522" stroke-width="0.164607" stroke-miterlimit="10"/>
<path d="M59.3127 74.7355C59.3127 74.7355 61.7698 73.3635 62.0385 73.1555L59.3127 74.7355Z" fill="#FDCB9A"/>
<path d="M59.3127 74.7355C59.3127 74.7355 61.7698 73.3635 62.0385 73.1555" stroke="#022522" stroke-width="0.164607" stroke-miterlimit="10"/>
<path d="M48.1969 62.4744C48.1969 62.4744 49.9719 60.7057 52.0063 61.0359C54.0408 61.366 55.7425 62.6858 56.3185 63.293C56.8944 63.9011 60.1068 68.1552 60.81 68.9537C61.4287 69.6561 62.4348 70.8116 63.241 71.2807C64.0472 71.7499 66.2094 72.9829 66.4273 73.3299C66.6451 73.6769 67.6387 74.7465 67.1671 76.0006C67.1671 76.0006 67.8826 74.9377 67.82 73.6474C67.82 73.6474 67.9497 73.0351 65.8637 71.5241C63.7778 70.0132 63.4327 70.7257 60.1571 66.4362C56.8814 62.1468 54.8724 59.7506 52.1981 59.5948C49.5238 59.4381 48.385 60.9971 48.385 60.9971C48.385 60.9971 48.2174 62.1105 48.1969 62.4744Z" fill="white" stroke="#002522" stroke-width="0.164607" stroke-miterlimit="10"/>
<path d="M97.3978 26.0417C96.3024 23.8333 94.6707 21.9796 90.5473 20.8518C90.5473 20.8518 90.4474 20.8973 88.4191 18.5054C86.3903 16.1135 83.0594 16.9641 78.0801 21.8583C77.1405 22.7822 75.9135 24.15 74.4457 25.7713C74.4457 25.7713 74.2192 29.5167 76.4801 32.0897C76.4801 32.0897 77.3577 30.5964 78.4419 29.0055C79.9469 26.7963 82.8986 20.4012 86.6901 22.0714C89.5177 23.317 88.7375 26.0686 88.1175 27.9114C88.1175 27.9114 87.2368 27.1862 86.4238 29.7121C85.6108 32.2379 87.2337 33.834 87.2337 33.834C87.2337 33.834 87.3759 34.0007 87.5217 34.122C88.5526 34.9794 88.709 34.9348 88.709 34.9348C88.709 34.9348 88.524 38.6229 89.7355 38.6229C90.6106 38.6229 92.6065 37.8202 92.9386 36.8197L92.9739 36.7851C93.3494 37.5457 96.5978 35.2194 96.7337 33.1745C96.7337 33.1745 98.284 32.5622 98.7371 31.2694C99.0623 30.3412 98.3473 27.9569 97.3984 26.0442L97.3978 26.0417Z" fill="#FDCB9A" stroke="#022522" stroke-width="0.164607" stroke-miterlimit="10"/>
<path d="M90.536 30.2324C90.536 30.2324 91.2715 33.0792 89.8006 34.2389C89.8006 34.2389 89.3208 35.3549 88.0684 34.5547" stroke="#002522" stroke-width="0.164607" stroke-miterlimit="10" stroke-linecap="round"/>
<path d="M89.1901 36.2393C89.1858 35.307 89.3831 35.1234 89.8331 34.2483" stroke="#002522" stroke-width="0.164607" stroke-miterlimit="10" stroke-linecap="round"/>
<path d="M93.0115 31.8176C93.0115 31.8176 93.516 35.6809 92.9401 36.7826" stroke="#002522" stroke-width="0.164607" stroke-miterlimit="10" stroke-linecap="round"/>
<path d="M95.7693 28.8083C95.7693 28.8083 96.8069 32.0164 96.7312 33.1719" stroke="#002522" stroke-width="0.164607" stroke-miterlimit="10" stroke-linecap="round"/>
<path d="M88.1158 27.9097C88.1158 27.9097 87.3009 30.8263 87.7093 32.8594" stroke="#002522" stroke-width="0.164607" stroke-miterlimit="10" stroke-linecap="round"/>
<path d="M89.7088 47.2295C90.1178 48.8095 93.1961 48.7817 96.5853 47.1671C99.9746 45.5526 102.391 42.9627 101.982 41.3827C101.795 40.6609 101.394 39.1095 101.394 39.1095C100.114 39.0472 96.9459 40.5683 95.1051 41.445C93.0298 42.4338 90.0408 43.6921 89.1204 44.9563C89.1204 44.9563 89.5499 46.6172 89.7082 47.2295H89.7088Z" fill="#DAFC35" stroke="#022522" stroke-width="0.164607" stroke-miterlimit="10" stroke-linecap="round"/>
<path d="M95.9945 44.8989C99.3836 43.2846 101.8 40.6951 101.391 39.1151C100.982 37.5351 97.9037 37.5628 94.5146 39.177C91.1255 40.7913 88.7093 43.3807 89.118 44.9608C89.5266 46.5408 92.6053 46.5131 95.9945 44.8989Z" fill="#DAFC35" stroke="#022522" stroke-width="0.164607" stroke-miterlimit="10" stroke-linecap="round"/>
<path d="M82.1779 44.4883C82.595 45.1048 84.0057 44.2693 85.3289 42.6211C86.6521 40.9729 87.3863 39.1368 86.9692 38.5203C86.7787 38.2381 86.369 37.6326 86.369 37.6326C85.772 37.9459 84.5369 39.4922 83.8183 40.3867C83.0083 41.3956 81.8174 42.7727 81.5778 43.5998C81.5778 43.5998 82.016 44.2483 82.1779 44.4875V44.4883Z" fill="#DAFC35" stroke="#022522" stroke-width="0.164607" stroke-miterlimit="10" stroke-linecap="round"/>
<path d="M84.7289 41.73C86.052 40.0817 86.7864 38.2455 86.3692 37.6287C85.952 37.0119 84.5411 37.8481 83.218 39.4963C81.8948 41.1445 81.1604 42.9807 81.5776 43.5975C81.9948 44.2143 83.4057 43.3782 84.7289 41.73Z" fill="#DAFC35" stroke="#022522" stroke-width="0.164607" stroke-miterlimit="10" stroke-linecap="round"/>
<path d="M111.476 68.2356C112.056 69.0939 113.909 68.0672 115.614 65.9422C117.32 63.8181 118.232 61.4009 117.652 60.5427C117.387 60.1511 116.817 59.3088 116.817 59.3088C116.031 59.6887 114.439 61.6822 113.513 62.8361C112.469 64.1365 110.93 65.906 110.641 67.0018C110.641 67.0018 111.251 67.9029 111.476 68.2356Z" fill="#DAFC35" stroke="#022522" stroke-width="0.164607" stroke-miterlimit="10" stroke-linecap="round"/>
<path d="M114.778 64.7017C116.483 62.5772 117.396 60.1597 116.815 59.302C116.235 58.4443 114.382 59.4712 112.677 61.5957C110.971 63.7202 110.059 66.1377 110.639 66.9954C111.22 67.8531 113.072 66.8262 114.778 64.7017Z" fill="#DAFC35" stroke="#022522" stroke-width="0.164607" stroke-miterlimit="10" stroke-linecap="round"/>
<path d="M117.892 26.0111C118.133 26.3682 118.95 25.8839 119.716 24.9305C120.482 23.9762 120.907 22.9133 120.666 22.5562C120.555 22.3928 120.318 22.0425 120.318 22.0425C119.972 22.2236 119.257 23.1188 118.842 23.6368C118.372 24.2213 117.683 25.0181 117.544 25.4973C117.544 25.4973 117.798 25.8729 117.892 26.0111Z" fill="#DAFC35" stroke="#022522" stroke-width="0.164607" stroke-miterlimit="10" stroke-linecap="round"/>
<path d="M119.365 24.4103C120.13 23.4563 120.556 22.3935 120.314 22.0364C120.072 21.6793 119.256 22.1633 118.49 23.1173C117.724 24.0713 117.299 25.1342 117.541 25.4912C117.782 25.8483 118.599 25.3644 119.365 24.4103Z" fill="#DAFC35" stroke="#022522" stroke-width="0.164607" stroke-miterlimit="10" stroke-linecap="round"/>
<path d="M101.922 34.0217C102.29 34.5675 103.538 33.828 104.708 32.371C105.877 30.9139 106.527 29.2901 106.158 28.7452C105.989 28.4959 105.627 27.9602 105.627 27.9602C105.099 28.2373 104.007 29.6042 103.372 30.3959C102.656 31.2879 101.603 32.5057 101.391 33.2376C101.391 33.2376 101.779 33.8112 101.922 34.0226V34.0217Z" fill="#DAFC35" stroke="#022522" stroke-width="0.164607" stroke-miterlimit="10" stroke-linecap="round"/>
<path d="M104.175 31.581C105.345 30.1237 105.994 28.5001 105.625 27.9545C105.256 27.409 104.009 28.1481 102.839 29.6054C101.669 31.0628 101.02 32.6864 101.389 33.2319C101.758 33.7774 103.005 33.0383 104.175 31.581Z" fill="#DAFC35" stroke="#022522" stroke-width="0.164607" stroke-miterlimit="10" stroke-linecap="round"/>
<path d="M123.639 39.5055C123.737 39.7734 124.28 39.679 124.854 39.295C125.428 38.9109 125.815 38.3837 125.718 38.1159C125.673 37.9937 125.578 37.731 125.578 37.731C125.351 37.7571 124.815 38.1175 124.502 38.3264C124.151 38.5614 123.642 38.8705 123.499 39.1206C123.499 39.1206 123.601 39.4019 123.639 39.5055Z" fill="#DAFC35" stroke="#022522" stroke-width="0.164607" stroke-miterlimit="10" stroke-linecap="round"/>
<path d="M124.713 38.901C125.287 38.5172 125.674 37.9892 125.577 37.7218C125.48 37.4543 124.936 37.5486 124.362 37.9325C123.788 38.3163 123.401 38.8443 123.498 39.1117C123.595 39.3792 124.139 39.2848 124.713 38.901Z" fill="#DAFC35" stroke="#022522" stroke-width="0.164607" stroke-miterlimit="10" stroke-linecap="round"/>
<path d="M118.208 48.6669C118.372 49.3019 119.935 49.136 121.698 48.2963C123.462 47.4566 124.758 46.2598 124.594 45.6248C124.519 45.3342 124.357 44.7109 124.357 44.7109C123.71 44.7488 122.061 45.5397 121.103 45.9953C120.023 46.5099 118.472 47.182 117.971 47.7531C117.971 47.7531 118.144 48.421 118.208 48.6669Z" fill="#DAFC35" stroke="#022522" stroke-width="0.164607" stroke-miterlimit="10" stroke-linecap="round"/>
<path d="M121.463 47.3883C123.226 46.5483 124.523 45.3525 124.358 44.7174C124.194 44.0823 122.631 44.2484 120.868 45.0884C119.104 45.9284 117.808 47.1242 117.972 47.7593C118.136 48.3944 119.699 48.2283 121.463 47.3883Z" fill="#DAFC35" stroke="#022522" stroke-width="0.164607" stroke-miterlimit="10" stroke-linecap="round"/>
<path d="M90.7189 62.5271H98.0082C98.0082 62.5271 96.721 70.3935 105.504 69.6195C105.504 69.6195 97.8406 73.861 93.5751 69.9084C93.5751 69.9084 91.0417 66.59 90.7189 62.5271Z" fill="#38A543" stroke="#022522" stroke-width="0.164607" stroke-miterlimit="10"/>
<path d="M92.9767 65.1205C93.1455 64.8291 92.6409 64.0365 92.8078 64.0306C93.2168 64.0163 95.8011 64.1208 96.253 64.157C96.4385 64.1721 96.0705 65.0152 96.1853 65.1626C96.477 65.5374 96.8767 64.5099 96.9326 65.0211C97.1392 66.9186 97.5606 71.422 102.944 70.7946C102.944 70.7946 98.3892 73.2589 94.8652 69.9936C94.8652 69.9936 92.8941 67.8535 92.3132 64.9714C92.2499 64.6589 92.8271 65.3816 92.9773 65.1213L92.9767 65.1205Z" fill="#38A543" stroke="#022522" stroke-width="0.164607" stroke-miterlimit="10"/>
<path d="M94.4986 52.108C94.4986 52.108 96.7608 55.8736 102.026 55.3531C107.292 54.8326 110.136 53.7133 110.136 53.7133C110.136 53.7133 103.779 53.4699 102.943 50.9727C102.943 50.9727 100.441 51.8806 94.4986 52.108Z" fill="#38A543" stroke="#022522" stroke-width="0.164607" stroke-miterlimit="10"/>
<path d="M98.1362 53.5937C98.0729 53.7849 97.1196 53.3486 97.4455 53.651C98.22 54.3711 99.9553 55.5443 102.839 55.2597C106.937 54.8546 107.457 54.4402 107.457 54.4402C107.457 54.4402 103.875 54.1218 102.59 52.7877C102.406 52.5974 102.127 53.1263 101.954 53.0008C101.78 52.8753 102.404 52.2664 101.942 52.3607C100.935 52.5671 98.809 53.0379 97.5839 53.1137C97.3536 53.128 98.2095 53.3697 98.1356 53.5937H98.1362Z" fill="#38A543" stroke="#022522" stroke-width="0.164607" stroke-miterlimit="10"/>
<path d="M108.648 27.0432C108.648 27.0432 110.498 26.0847 111.399 26.1184C111.399 26.1184 111.497 23.9716 108.477 24.2849C105.458 24.5982 108.648 27.0432 108.648 27.0432Z" fill="#38A543" stroke="#022522" stroke-width="0.164607" stroke-miterlimit="10"/>
<path d="M109.848 24.333C109.848 24.333 107.855 24.7204 109.371 28.1988C109.371 28.1988 110.051 29.7746 111.891 30.3853L108.378 33.4257C108.378 33.4257 104.302 28.6326 105.451 26.4563C107.004 23.5127 109.848 24.3338 109.848 24.3338V24.333Z" fill="#38A543" stroke="#022522" stroke-width="0.164607" stroke-miterlimit="10"/>
<path d="M109.194 24.2282C109.194 24.2282 107.072 24.7588 108.335 27.6569C108.335 27.6569 108.722 29.076 109.726 29.8526C109.934 30.0134 109.418 29.8922 109.462 30.2552C109.485 30.4413 109.964 30.6401 109.964 30.6401L108.711 31.724C108.711 31.724 108.461 31.1437 108.338 31.126C108.198 31.1058 108.138 31.879 107.904 31.537C107.026 30.2535 105.032 27.069 105.938 25.8074C107.179 24.0774 109.195 24.2282 109.195 24.2282H109.194Z" fill="#38A543" stroke="#022522" stroke-width="0.164607" stroke-miterlimit="10"/>
<path d="M92.1624 42.4393L92.8116 42.254C92.9816 41.9028 93.2435 41.5423 93.4726 41.32L93.83 41.3157C93.6072 41.549 93.3664 41.8767 93.2231 42.2211C93.0201 42.7096 93.1778 42.9977 93.6196 42.8814C94.0566 42.7669 94.4066 42.3955 94.7554 41.8228C95.1619 41.1439 95.5244 40.7321 96.1164 40.551C96.6992 40.3733 97.2001 40.5165 97.4086 40.9856L98.2812 40.7371L98.4128 41.1237L97.5172 41.3688C97.5799 41.8059 97.4806 42.1765 97.3465 42.473L96.6676 42.4174C96.7718 42.2127 96.9512 41.8388 96.9084 41.3924C96.8637 40.9258 96.4956 40.8702 96.194 40.9586C95.8092 41.0715 95.5976 41.3376 95.2488 41.9702C94.7653 42.857 94.2049 43.4432 93.426 43.631C92.7626 43.7911 92.3889 43.4373 92.6347 42.6684L91.9322 42.8612L92.1618 42.4384L92.1624 42.4393Z" fill="white" stroke="#002522" stroke-width="0.164607" stroke-linecap="round" stroke-linejoin="round"/>
<path d="M112.186 64.4294L112.499 64.0706C112.516 63.812 112.581 63.5113 112.657 63.2991L112.851 63.1542C112.78 63.3698 112.719 63.6436 112.716 63.8887C112.711 64.2357 112.858 64.3291 113.074 64.0908C113.288 63.855 113.398 63.5139 113.465 63.0633C113.539 62.5318 113.648 62.1638 113.932 61.8294C114.211 61.5009 114.514 61.3805 114.729 61.5523L115.15 61.0706L115.306 61.2289L114.871 61.7182C115 61.9313 115.026 62.1722 115.016 62.387L114.635 62.6262C114.647 62.4729 114.664 62.1983 114.545 61.9717C114.425 61.7452 114.207 61.8513 114.062 62.0198C113.877 62.2345 113.819 62.4628 113.766 62.9462C113.694 63.6217 113.515 64.1632 113.132 64.5751C112.804 64.9263 112.525 64.8816 112.493 64.3654L112.152 64.7494L112.186 64.4277L112.186 64.4294Z" fill="white" stroke="#002522" stroke-width="0.164607" stroke-linecap="round" stroke-linejoin="round"/>
<path d="M119.816 46.7303L120.102 46.5728C120.158 46.3934 120.256 46.1989 120.348 46.0717L120.511 46.0296C120.423 46.161 120.333 46.3378 120.288 46.5113C120.225 46.7573 120.314 46.871 120.51 46.7691C120.703 46.668 120.84 46.4591 120.965 46.1584C121.11 45.8022 121.251 45.5739 121.511 45.4249C121.766 45.2783 122.004 45.2884 122.128 45.4796L122.512 45.269L122.596 45.4308L122.201 45.643C122.256 45.8359 122.233 46.0161 122.19 46.1669L121.876 46.2174C121.911 46.1121 121.971 45.9209 121.923 45.7213C121.876 45.5217 121.703 45.5284 121.57 45.6026C121.401 45.6969 121.32 45.8426 121.199 46.1702C121.032 46.6301 120.811 46.9602 120.466 47.1329C120.173 47.2803 119.98 47.1598 120.046 46.7808L119.736 46.9476L119.816 46.7286L119.816 46.7303Z" fill="white" stroke="#002522" stroke-width="0.164607" stroke-linecap="round" stroke-linejoin="round"/>
<path d="M82.9525 41.7886L83.1542 41.4728C83.1442 41.2783 83.1666 41.045 83.2057 40.8748L83.3373 40.7367C83.3031 40.9077 83.2814 41.1208 83.3 41.3027C83.3261 41.5612 83.444 41.6076 83.5836 41.3962C83.7214 41.1873 83.7742 40.9161 83.7847 40.5716C83.7947 40.1657 83.8437 39.8751 84.0255 39.582C84.2043 39.294 84.4196 39.1567 84.5934 39.2502L84.8652 38.8257L84.9937 38.9183L84.7132 39.3504C84.8268 39.4885 84.8665 39.6629 84.8783 39.8237L84.6151 40.0621C84.6114 39.9467 84.6002 39.7395 84.4922 39.5904C84.3843 39.4414 84.2316 39.5542 84.1379 39.7024C84.0187 39.8911 83.9951 40.0697 83.9976 40.4369C84.0019 40.9498 83.9157 41.3802 83.6668 41.7465C83.4546 42.059 83.2429 42.07 83.1747 41.6918L82.9543 42.0312L82.9518 41.787L82.9525 41.7886Z" fill="white" stroke="#002522" stroke-width="0.164607" stroke-linecap="round" stroke-linejoin="round"/>
<path d="M102.375 31.5462L102.605 31.2691C102.615 31.0746 102.659 30.8472 102.714 30.6855L102.858 30.5726C102.807 30.736 102.766 30.944 102.766 31.1276C102.767 31.3879 102.879 31.4553 103.038 31.2708C103.195 31.0889 103.274 30.8295 103.318 30.4892C103.367 30.0883 103.444 29.8087 103.652 29.551C103.861 29.2932 104.084 29.1998 104.248 29.3244L104.558 28.9521L104.677 29.0675L104.356 29.4457C104.456 29.6023 104.478 29.7834 104.474 29.9451L104.191 30.1346C104.198 30.0193 104.207 29.8121 104.114 29.6453C104.021 29.4785 103.859 29.5628 103.752 29.6925C103.616 29.8584 103.576 30.031 103.542 30.3957C103.497 30.9044 103.369 31.3163 103.086 31.6346C102.846 31.9058 102.635 31.8789 102.604 31.4923L102.353 31.7888L102.374 31.5462H102.375Z" fill="white" stroke="#002522" stroke-width="0.164607" stroke-linecap="round" stroke-linejoin="round"/>
</g>
<defs>
<clipPath id="clip0_664_11572">
<rect width="126" height="80" fill="white"/>
</clipPath>
</defs>
</svg>
