<svg width="115" height="80" viewBox="0 0 115 80" fill="none" xmlns="http://www.w3.org/2000/svg">
<g clip-path="url(#clip0_664_11629)">
<path d="M16.355 75.3189L20.7684 58.1964C20.8618 57.8336 22.1497 57.648 23.6453 57.7826L62.1038 61.2375C63.6193 61.3739 65.0932 62.0414 65.0306 62.4097C65.29 62.548 63.2003 75.0206 61.6739 78.9502C61.5288 79.323 60.3579 80.1288 58.7888 79.9824L18.9762 76.2829C17.428 76.1392 16.2552 75.7072 16.355 75.3198V75.3189Z" fill="#C6C6C6"/>
<path d="M14.4838 55.6906L0.379429 42.7133C0.0320574 42.3941 -0.101268 42.0712 0.082848 41.9939L4.79277 40.0114C4.9778 39.9332 5.39954 40.136 5.73331 40.4625L19.2962 53.7099C19.5611 53.9691 19.6418 54.2328 19.4767 54.3001L15.2792 56.0271C15.1151 56.0944 14.7595 55.9444 14.4847 55.6906H14.4838Z" fill="#C6C6C6"/>
<path d="M26.0294 50.396L25.0343 35.9297C25.0144 35.6514 25.0878 35.4277 25.1994 35.4277H28.0455C28.157 35.4277 28.274 35.6524 28.3067 35.9325L29.8048 50.8939C29.852 51.3023 28.6511 51.4952 28.5132 51.4915C28.3772 51.4879 26.0294 51.7903 26.0294 50.396Z" fill="#C6C6C6"/>
<path d="M35.0856 49.867L41.9299 36.8648C42.0442 36.622 42.2619 36.4273 42.4179 36.4292L46.189 36.4045C46.3559 36.4063 46.4103 36.6119 46.3097 36.8647L40.4694 50.5754C40.3225 50.9419 40.0459 51.2193 39.8518 51.1929L35.1119 50.5418C34.9341 50.5172 34.9233 50.2144 35.0856 49.867Z" fill="#C6C6C6"/>
<path d="M94.2065 74.5567L63.3276 57.2769C62.5476 56.8403 62.5857 56.0828 63.4119 55.5908L82.6761 44.1213C83.3645 43.7111 84.442 43.7348 85.0832 44.1686L110.795 61.5575C111.29 61.8921 111.271 62.4951 110.751 62.9061L96.3723 74.2756C95.7629 74.7576 94.7924 74.885 94.2047 74.5567H94.2065Z" fill="#C6C6C6"/>
<path d="M59.2721 78.9405L17.71 75.3184C16.793 75.2383 15.9849 73.9742 16.1744 73.3522L21.1202 58.4651C21.3016 57.8676 22.175 57.4483 23.072 57.5293L64.2795 60.7832C65.1647 60.8632 65.1793 61.8126 65.0314 62.4092L61.1895 77.9584C61.0362 78.5795 60.1782 79.0197 59.273 78.9405H59.2721Z" fill="#33605F" stroke="#002522" stroke-width="0.164607" stroke-miterlimit="10"/>
<path d="M59.0906 78.015L17.5284 74.3928C16.6114 74.3128 16.021 73.7426 16.2097 73.1205L20.9386 57.5395C21.12 56.9421 21.9934 56.5228 22.8904 56.6038L63.5148 60.2596C64.4 60.3396 64.9977 60.8871 64.8499 61.4837L61.0079 77.0328C60.8546 77.654 59.9966 78.0941 59.0915 78.015H59.0906Z" fill="#33605F" stroke="#002522" stroke-width="0.164607" stroke-miterlimit="10"/>
<path d="M23.3333 61.031L59.4563 64.2576" stroke="#002522" stroke-width="0.164607" stroke-miterlimit="10"/>
<path d="M56.1061 74.6578L47.7048 73.9212C47.5026 73.9039 47.3683 73.7775 47.4046 73.6393L48.3243 70.1653C48.3606 70.0289 48.5528 69.9325 48.7542 69.9498L57.1129 70.6873C57.3133 70.7046 57.4476 70.8301 57.4131 70.9665L56.5333 74.4386C56.498 74.5769 56.3066 74.6742 56.1052 74.656L56.1061 74.6578Z" fill="#407775" stroke="#002522" stroke-width="0.164607" stroke-miterlimit="10"/>
<path d="M21.7913 70.6182L21.599 70.3526C21.5192 70.2508 21.4693 70.1844 21.4239 70.1153H21.4176C21.3405 70.1726 21.2643 70.2262 21.1283 70.3126L20.8072 70.5309L20.4997 70.5036L21.2988 70.0052L20.8516 69.4114L21.1618 69.4387L21.3586 69.7188C21.414 69.797 21.4557 69.857 21.4938 69.9206H21.5028C21.5808 69.8615 21.648 69.8161 21.7459 69.7533L22.1051 69.5223L22.4125 69.5496L21.6244 70.0261L22.1033 70.6445L21.7922 70.6173L21.7913 70.6182Z" fill="#002522"/>
<path d="M23.5003 70.7683L23.3071 70.5028C23.2273 70.4009 23.1774 70.3345 23.1312 70.2654H23.1248C23.0477 70.3227 22.9715 70.3764 22.8364 70.4628L22.5162 70.681L22.2088 70.6537L23.006 70.1554L22.5579 69.5615L22.8681 69.5888L23.0659 69.8689C23.1212 69.9471 23.1638 70.0071 23.2019 70.0708H23.211C23.289 70.0117 23.3561 69.9662 23.4531 69.9035L23.8114 69.6725L24.1189 69.6998L23.3325 70.1763L23.8123 70.7947L23.5021 70.7674L23.5003 70.7683Z" fill="#002522"/>
<path d="M25.2095 70.9185L25.0163 70.6529C24.9356 70.5511 24.8857 70.4847 24.8403 70.4156H24.834C24.7569 70.4728 24.6816 70.5265 24.5456 70.6129L24.2254 70.8312L23.9179 70.8039L24.7134 70.3055L24.2644 69.7117L24.5746 69.739L24.7723 70.0191C24.8285 70.0973 24.8703 70.1573 24.9084 70.2209H24.9174C24.9945 70.1618 25.0616 70.1164 25.1587 70.0536L25.516 69.8226L25.8226 69.8499L25.0372 70.3264L25.5169 70.9448L25.2068 70.9176L25.2095 70.9185Z" fill="#002522"/>
<path d="M27.6133 71.1294L27.4192 70.8639C27.3385 70.762 27.2886 70.6956 27.2424 70.6265H27.236C27.1589 70.6838 27.0837 70.7374 26.9485 70.8238L26.6293 71.0421L26.3227 71.0148L27.1163 70.5165L26.6665 69.9226L26.9757 69.9499L27.1744 70.23C27.2306 70.3082 27.2723 70.3682 27.3104 70.4319H27.3195C27.3966 70.3728 27.4637 70.3273 27.5607 70.2645L27.9172 70.0336L28.2237 70.0608L27.441 70.5374L27.9226 71.1558L27.6124 71.1285L27.6133 71.1294Z" fill="#002522"/>
<path d="M29.3206 71.2788L29.1265 71.0133C29.0458 70.9114 28.9959 70.845 28.9496 70.7759H28.9433C28.8662 70.8332 28.7918 70.8869 28.6567 70.9732L28.3383 71.1915L28.0318 71.1642L28.8236 70.6659L28.3728 70.072L28.6821 70.0993L28.8807 70.3794C28.9369 70.4576 28.9786 70.5176 29.0176 70.5813H29.0267C29.1038 70.5222 29.17 70.4767 29.2671 70.414L29.6226 70.183L29.9292 70.2102L29.1473 70.6868L29.6299 71.3052L29.3197 71.2779L29.3206 71.2788Z" fill="#002522"/>
<path d="M31.0273 71.4289L30.8333 71.1633C30.7525 71.0614 30.7026 70.9951 30.6564 70.9269H30.65C30.5739 70.9841 30.4986 71.0378 30.3634 71.1242L30.046 71.3425L29.7394 71.3152L30.5303 70.8168L30.0786 70.2239L30.3879 70.2512L30.5875 70.5313C30.6437 70.6095 30.6863 70.6695 30.7244 70.7331H30.7335C30.8106 70.674 30.8768 70.6286 30.9738 70.5658L31.3285 70.3348L31.635 70.3621L30.855 70.8386L31.3384 71.457L31.0283 71.4298L31.0273 71.4289Z" fill="#002522"/>
<path d="M32.7319 71.5785L32.5369 71.313C32.4562 71.2111 32.4054 71.1447 32.3591 71.0765H32.3528C32.2766 71.1338 32.2013 71.1875 32.0671 71.2739L31.7505 71.4921L31.444 71.4648L32.2331 70.9665L31.7805 70.3735L32.0898 70.4008L32.2893 70.6809C32.3455 70.7591 32.3882 70.8191 32.4262 70.8828H32.4353C32.5124 70.8237 32.5786 70.7782 32.6748 70.7155L33.0294 70.4845L33.3359 70.5118L32.5578 70.9883L33.0421 71.6067L32.7319 71.5794V71.5785Z" fill="#002522"/>
<path d="M35.1288 71.7892L34.9338 71.5237C34.8531 71.4218 34.8023 71.3554 34.756 71.2872H34.7497C34.6735 71.3445 34.5991 71.3982 34.4649 71.4845L34.1493 71.7028L33.8427 71.6755L34.63 71.1772L34.1765 70.5842L34.4858 70.6115L34.6862 70.8916C34.7424 70.9698 34.7851 71.0298 34.8241 71.0935H34.8331C34.9093 71.0344 34.9755 70.9889 35.0717 70.9262L35.4254 70.6952L35.731 70.7225L34.9547 71.199L35.4399 71.8174L35.1306 71.7901L35.1288 71.7892Z" fill="#002522"/>
<path d="M36.832 71.9389L36.6361 71.6743C36.5545 71.5724 36.5046 71.5061 36.4574 71.4378H36.4511C36.3749 71.4951 36.3005 71.5488 36.1672 71.6352L35.8515 71.8534L35.5459 71.8262L36.3313 71.3278L35.8769 70.7349L36.1853 70.7621L36.3858 71.0422C36.442 71.1205 36.4846 71.1805 36.5236 71.2441H36.5327C36.6089 71.185 36.6751 71.1396 36.7712 71.0768L37.124 70.8458L37.4297 70.8731L36.6551 71.3496L37.1413 71.968L36.832 71.9407V71.9389Z" fill="#002522"/>
<path d="M38.5342 72.0891L38.3383 71.8244C38.2567 71.7226 38.2059 71.6562 38.1596 71.588H38.1533C38.0771 71.6453 38.0036 71.6989 37.8694 71.7853L37.5547 72.0036L37.249 71.9763L38.0326 71.478L37.5773 70.885L37.8857 70.9123L38.0871 71.1924C38.1442 71.2706 38.1868 71.3306 38.2258 71.3943H38.2349C38.3111 71.3352 38.3773 71.2897 38.4725 71.227L38.8244 70.996L39.1301 71.0232L38.3564 71.4998L38.8435 72.1182L38.5342 72.0909V72.0891Z" fill="#002522"/>
<path d="M40.2349 72.2382L40.038 71.9736C39.9564 71.8717 39.9056 71.8054 39.8594 71.7372H39.853C39.7777 71.7944 39.7034 71.8481 39.57 71.9345L39.2562 72.1528L38.9506 72.1255L39.7324 71.6271L39.2762 71.0342L39.5846 71.0615L39.7859 71.3416C39.843 71.4198 39.8857 71.4798 39.9247 71.5434H39.9337C40.0099 71.4843 40.0752 71.4389 40.1714 71.3761L40.5224 71.1451L40.828 71.1724L40.0562 71.6489L40.5441 72.2664L40.2349 72.2392V72.2382Z" fill="#002522"/>
<path d="M42.6298 72.4475L42.433 72.1828C42.3514 72.081 42.3006 72.0146 42.2534 71.9464H42.2471C42.1718 72.0037 42.0974 72.0573 41.965 72.1437L41.6521 72.362L41.3464 72.3347L42.1264 71.8363L41.6693 71.2434L41.9777 71.2707L42.1799 71.5508C42.2371 71.629 42.2797 71.689 42.3187 71.7518H42.3278C42.404 71.6927 42.4693 71.6472 42.5645 71.5844L42.9146 71.3534L43.2202 71.3807L42.4502 71.8573L42.9391 72.4748L42.6307 72.4475H42.6298Z" fill="#002522"/>
<path d="M44.3269 72.5972L44.1292 72.3326C44.0476 72.2307 43.9959 72.1643 43.9496 72.0961H43.9433C43.868 72.1534 43.7945 72.2071 43.6621 72.2935L43.3492 72.5117L43.0436 72.4853L43.8217 71.987L43.3637 71.394L43.6721 71.4213L43.8744 71.7014C43.9315 71.7796 43.9741 71.8397 44.014 71.9024H44.0231C44.0984 71.8433 44.1637 71.7978 44.2589 71.7351L44.6081 71.5041L44.9128 71.5314L44.1446 72.0079L44.6344 72.6254L44.326 72.5981L44.3269 72.5972Z" fill="#002522"/>
<path d="M3.75141 39.003L2.62948 6.61059C2.62948 6.61059 4.2829 5.84577 4.89057 6.08676L17.854 18.4639C18.3691 18.9559 18.7863 19.9353 18.7863 20.652L18.7836 53.3318C18.7836 54.0484 17.8748 54.5877 17.2019 54.9105L4.68559 41.1911C4.16952 40.6991 3.75141 39.7197 3.75141 39.003Z" fill="#87FCFA" stroke="#002522" stroke-width="0.164607" stroke-miterlimit="10"/>
<path d="M2.39682 39.9509V7.24648C2.39682 6.52895 2.81494 6.34707 3.33101 6.83997L16.4994 19.4126C17.0146 19.9046 17.4318 20.8841 17.4318 21.6007L17.429 54.2805C17.429 54.9971 17.0118 55.1799 16.4967 54.6888L3.33101 42.1389C2.81494 41.6469 2.39682 40.6675 2.39682 39.9509Z" fill="#87FCFA" stroke="#002522" stroke-width="0.164607" stroke-miterlimit="10"/>
<path d="M13.7613 19.4734L13.7595 48.3719" stroke="#002522" stroke-width="0.164607" stroke-miterlimit="10"/>
<path d="M4.91858 39.3828V32.7213C4.91858 32.5613 5.01199 32.5204 5.12718 32.6304L8.03948 35.4078C8.15467 35.5178 8.24808 35.736 8.24808 35.8961V42.5558C8.24808 42.7158 8.15467 42.7567 8.03948 42.6467L5.12809 39.8703C5.0129 39.7602 4.91948 39.542 4.91948 39.3819L4.91858 39.3828Z" fill="#C6FEFD" stroke="#002522" stroke-width="0.164607" stroke-miterlimit="10"/>
<path d="M5.75797 12.8476L5.96023 12.8331C6.03732 12.8221 6.08811 12.8167 6.14072 12.8167V12.8121C6.08811 12.7157 6.03913 12.623 5.95841 12.462L5.75706 12.0737V11.8318L6.22053 12.7721L6.67311 12.7248V12.9695L6.45816 12.9804C6.3983 12.984 6.35204 12.9858 6.30306 12.9822V12.9895C6.35748 13.0877 6.3992 13.1686 6.45816 13.285L6.67311 13.7125V13.9544L6.22779 13.0331L5.75797 13.0922V12.8476Z" fill="#002522"/>
<path d="M5.75793 14.1923L5.96019 14.1778C6.03728 14.1669 6.08807 14.1614 6.14067 14.1614V14.1569C6.08807 14.0605 6.03909 13.9677 5.95837 13.8067L5.75702 13.4184V13.1765L6.22049 14.1168L6.67307 14.0696V14.3142L6.45811 14.3251C6.39825 14.3287 6.352 14.3306 6.30302 14.3269V14.3342C6.35744 14.4324 6.39916 14.5134 6.45811 14.6298L6.67307 15.0572V15.2991L6.22774 14.3779L5.75793 14.437V14.1923Z" fill="#002522"/>
<path d="M5.75793 15.5375L5.96019 15.523C6.03728 15.5121 6.08807 15.5066 6.14067 15.5066V15.5021C6.08807 15.4057 6.03909 15.3129 5.95837 15.152L5.75702 14.7636V14.5217L6.22049 15.4621L6.67307 15.4148V15.6594L6.45811 15.6703C6.39825 15.674 6.352 15.6758 6.30302 15.6721V15.6794C6.35744 15.7776 6.39916 15.8586 6.45811 15.975L6.67307 16.4024V16.6443L6.22774 15.7231L5.75793 15.7831V15.5385V15.5375Z" fill="#002522"/>
<path d="M5.75793 17.4316L5.96019 17.417C6.03728 17.4061 6.08807 17.4007 6.14067 17.4007V17.3961C6.08807 17.2997 6.03909 17.207 5.95837 17.046L5.75702 16.6577V16.4158L6.22049 17.3561L6.67307 17.3088V17.5534L6.45811 17.5644C6.39825 17.568 6.352 17.5698 6.30302 17.5671V17.5744C6.35744 17.6726 6.39916 17.7535 6.45811 17.8699L6.67307 18.2973V18.5393L6.22774 17.618L5.75793 17.678V17.4334V17.4316Z" fill="#002522"/>
<path d="M5.75793 18.777L5.96019 18.7625C6.03728 18.7516 6.08807 18.7461 6.14067 18.7461V18.7416C6.08807 18.6452 6.03909 18.5524 5.95837 18.3915L5.75702 18.0031V17.7612L6.22049 18.7016L6.67307 18.6543V18.8989L6.45811 18.9098C6.39825 18.9135 6.352 18.9153 6.30302 18.9125V18.9198C6.35744 19.018 6.39916 19.099 6.45811 19.2154L6.67307 19.6428V19.8847L6.22774 18.9635L5.75793 19.0235V18.7789V18.777Z" fill="#002522"/>
<path d="M5.75793 20.1221L5.96019 20.1075C6.03728 20.0966 6.08807 20.0912 6.14067 20.0912V20.0866C6.08807 19.9902 6.03909 19.8975 5.95837 19.7365L5.75702 19.3491V19.1072L6.22049 20.0475L6.67307 20.0002V20.2449L6.45811 20.2558C6.39825 20.2594 6.352 20.2612 6.30302 20.2585V20.2658C6.35744 20.364 6.39916 20.4449 6.45811 20.5613L6.67307 20.9888V21.2307L6.22774 20.3094L5.75793 20.3694V20.1248V20.1221Z" fill="#002522"/>
<path d="M5.75793 21.4663L5.96019 21.4518C6.03728 21.4409 6.08807 21.4354 6.14067 21.4354V21.4309C6.08807 21.3345 6.03909 21.2417 5.95837 21.0807L5.75702 20.6933V20.4514L6.22049 21.3918L6.67307 21.3445V21.5891L6.45811 21.6C6.39825 21.6036 6.352 21.6055 6.30302 21.6027V21.61C6.35744 21.7082 6.39916 21.7892 6.45811 21.9056L6.67307 22.333V22.5749L6.22774 21.6537L5.75793 21.7137V21.4691V21.4663Z" fill="#002522"/>
<path d="M5.75793 23.3604L5.96019 23.3458C6.03728 23.3349 6.08807 23.3294 6.14067 23.3294V23.3249C6.08807 23.2285 6.03909 23.1357 5.95837 22.9748L5.75702 22.5874V22.3455L6.22049 23.2858L6.67307 23.2385V23.4831L6.45811 23.494C6.39825 23.4977 6.352 23.4995 6.30302 23.4968V23.5041C6.35744 23.6023 6.39916 23.6832 6.45811 23.7996L6.67307 24.227V24.4689L6.22774 23.5477L5.75793 23.6077V23.3631V23.3604Z" fill="#002522"/>
<path d="M5.75793 24.7056L5.96019 24.691C6.03728 24.6801 6.08807 24.6747 6.14067 24.6747V24.6701C6.08807 24.5737 6.03909 24.481 5.95837 24.32L5.75702 23.9326V23.6907L6.22049 24.631L6.67307 24.5837V24.8284L6.45811 24.8393C6.39825 24.8429 6.352 24.8447 6.30302 24.842V24.8493C6.35744 24.9475 6.39916 25.0284 6.45811 25.1448L6.67307 25.5723V25.8142L6.22774 24.8938L5.75793 24.9539V24.7092V24.7056Z" fill="#002522"/>
<path d="M5.75793 26.051L5.96019 26.0365C6.03728 26.0256 6.08807 26.0201 6.14067 26.0201V26.0156C6.08807 25.9192 6.03909 25.8264 5.95837 25.6654L5.75702 25.278V25.0361L6.22049 25.9765L6.67307 25.9292V26.1738L6.45811 26.1847C6.39825 26.1884 6.352 26.1902 6.30302 26.1875V26.1947C6.35744 26.2929 6.39916 26.3739 6.45811 26.4903L6.67307 26.9177V27.1596L6.22774 26.2393L5.75793 26.2993V26.0547V26.051Z" fill="#002522"/>
<path d="M5.75793 27.3958L5.96019 27.3812C6.03728 27.3703 6.08807 27.3648 6.14067 27.3648V27.3603C6.08807 27.2639 6.03909 27.1711 5.95837 27.0102L5.75702 26.6228V26.3809L6.22049 27.3212L6.67307 27.2739V27.5185L6.45811 27.5294C6.39825 27.5331 6.352 27.5349 6.30302 27.5322V27.5395C6.35744 27.6377 6.39916 27.7186 6.45811 27.835L6.67307 28.2624V28.5043L6.22774 27.584L5.75793 27.644V27.3994V27.3958Z" fill="#002522"/>
<path d="M5.75793 29.289L5.96019 29.2735C6.03728 29.2626 6.08807 29.2572 6.14067 29.2572V29.2526C6.08807 29.1562 6.03909 29.0635 5.95837 28.9025L5.75702 28.5151V28.2732L6.22049 29.2126L6.67307 29.1653V29.41L6.45811 29.4209C6.39825 29.4245 6.352 29.4263 6.30302 29.4236V29.4309C6.35744 29.5291 6.39916 29.61 6.45811 29.7264L6.67307 30.1539V30.3958L6.22774 29.4754L5.75793 29.5355V29.2908V29.289Z" fill="#002522"/>
<path d="M5.75793 30.6337L5.96019 30.6183C6.03728 30.6074 6.08807 30.6019 6.14067 30.6019V30.5974C6.08807 30.501 6.03909 30.4082 5.95837 30.2472L5.75702 29.8598V29.6179L6.22049 30.5573L6.67307 30.5101V30.7547L6.45811 30.7656C6.39825 30.7692 6.352 30.7711 6.30302 30.7683V30.7756C6.35744 30.8738 6.39916 30.9548 6.45811 31.0712L6.67307 31.4986V31.7405L6.22774 30.8202L5.75793 30.8802V30.6356V30.6337Z" fill="#002522"/>
<path d="M38.3774 49.0178L38.3638 15.3803C38.3638 14.6846 38.5334 13.7243 38.7447 13.2332L44.1448 0.639627C44.3571 0.143996 45.3992 0.323151 45.9434 0.317694L44.9221 33.9424C44.9312 34.709 44.7543 35.754 44.5285 36.2741L40.1433 50.4728C38.4617 49.8863 38.3765 49.7999 38.3765 49.0187L38.3774 49.0178Z" fill="#5BD16B" stroke="#002522" stroke-width="0.164607" stroke-miterlimit="10"/>
<path d="M40.0229 49.7294L40.0093 15.5799C40.0093 14.8733 40.1789 13.8984 40.3893 13.4L45.7895 0.613674C46.0017 0.110768 46.1804 0.26264 46.1885 0.954705L46.5676 34.4239C46.5767 35.2024 46.4008 36.2627 46.174 36.7911L40.4283 50.2204C40.2043 50.7434 40.0229 50.5224 40.0229 49.7284V49.7294Z" fill="#5BD16B" stroke="#002522" stroke-width="0.164607" stroke-miterlimit="10"/>
<path d="M45.2067 39.0565L43.887 42.134L43.6539 5.66915L44.8947 2.73901L45.2067 39.0565Z" fill="#002522"/>
<path d="M42.4999 42.5267L41.193 45.5796L41.1322 14.1602L42.372 11.2319L42.4999 42.5267Z" fill="#EDEDED"/>
<path d="M72.5612 25.1831L66.1439 21.67C65.3986 21.262 64.2731 21.2436 63.6246 21.629L48.4304 30.6499C48.1112 30.8392 47.7778 31.0939 47.6258 31.6377C47.4561 32.2426 47.4971 32.8676 47.4971 32.9246L47.538 50.7645C47.5397 51.5244 48.1547 52.4293 48.9117 52.7878L55.2688 55.799C56.0325 56.1609 58.0521 55.8602 58.0655 55.1028L56.9926 37.1674C56.9951 37.0216 56.9768 36.8716 56.9408 36.7216C57.001 36.6923 57.0603 36.6613 57.1155 36.6261L73.4327 26.4767C74.0845 26.0645 73.3508 25.6145 72.5604 25.1822L72.5612 25.1831Z" fill="#F19D38" stroke="#002522" stroke-width="0.164607" stroke-miterlimit="10"/>
<path d="M72.8181 46.761L57.7375 55.6093C57.1133 55.9754 56.6203 55.6009 56.6354 54.7765L56.9671 36.599C56.9813 35.8248 57.481 34.9049 58.0834 34.5429L72.6409 25.7943C73.2559 25.4248 73.7614 25.7474 73.769 26.5174L73.957 44.596C73.9653 45.4171 73.4556 46.3873 72.8181 46.761Z" fill="#F19D38" stroke="#002522" stroke-width="0.164607" stroke-miterlimit="10"/>
<path d="M47.6247 31.6379L57.137 35.7802" stroke="#002522" stroke-width="0.164607" stroke-miterlimit="10"/>
<path d="M64.8009 25.4728C63.9536 25.0606 63.55 23.8365 63.55 22.9216V5.26684C63.55 4.35193 64.3062 3.60962 65.2387 3.60962C66.1712 3.60962 66.9274 4.3511 66.9274 5.26684L67.2316 25.5415C67.2316 26.4564 65.5362 25.8314 64.8 25.4728H64.8009Z" fill="#EFEBE7" stroke="#002522" stroke-width="0.164607" stroke-miterlimit="10"/>
<path d="M55.7228 32.2373C57.2207 32.2373 58.4351 31.5505 58.4351 30.7033C58.4351 29.856 57.2207 29.1692 55.7228 29.1692C54.2248 29.1692 53.0105 29.856 53.0105 30.7033C53.0105 31.5505 54.2248 32.2373 55.7228 32.2373Z" fill="#F29D28" stroke="#002522" stroke-width="0.164607" stroke-miterlimit="10"/>
<path d="M55.7173 32.2372C56.6551 32.2372 57.4152 32.068 57.4152 31.8593C57.4152 31.6506 56.6551 31.4814 55.7173 31.4814C54.7796 31.4814 54.0194 31.6506 54.0194 31.8593C54.0194 32.068 54.7796 32.2372 55.7173 32.2372Z" fill="#002522"/>
<path d="M68.7608 4.68858C67.4682 -2.55696 60.6657 0.755813 60.6657 0.755813C60.6657 0.755813 57.292 2.87154 56.0879 3.95904C52.7907 6.93417 53.074 9.91935 53.0932 11.7332C53.1116 13.5103 53.1542 31.0442 53.1542 31.0744C53.1542 31.6257 54.3181 32.0723 55.7528 32.0723C57.1875 32.0723 58.3515 31.6257 58.3515 31.0744V12.1379C58.3515 9.02287 60.0227 7.92113 60.0227 7.92113L62.6327 5.94616C63.0864 5.67638 63.4917 5.5482 63.8526 5.52222C64.7007 5.4619 65.4168 6.14808 65.4168 7.00099V24.3516C65.4168 25.2866 66.173 26.0448 67.1055 26.0448C68.0381 26.0448 68.7943 25.2866 68.7943 24.3516V5.02874C68.7943 4.91144 68.7826 4.7975 68.76 4.68774L68.7608 4.68858Z" fill="#EFEBE7" stroke="#002522" stroke-width="0.164607" stroke-miterlimit="10"/>
<path d="M75.1116 62.2765L63.5232 25.2342C63.2692 24.4221 63.5993 23.449 64.2614 23.0598L80.9924 13.2308C81.6999 12.8152 82.9497 12.6588 84.0553 13.149L95.5258 51.971C95.7888 52.8131 95.4142 53.7907 94.6905 54.1545L77.2684 63.5706C76.0322 63.3551 75.3664 63.0886 75.1125 62.2765H75.1116Z" fill="#FFCD98" stroke="#002522" stroke-width="0.164607" stroke-miterlimit="10"/>
<path d="M76.1409 62.5935L64.5525 25.5512C64.2985 24.7391 64.6287 23.766 65.2907 23.3768L82.7809 13.1022C83.4883 12.6866 84.2774 13.0313 84.5404 13.8734L96.5551 52.288C96.8181 53.1301 96.4436 54.1077 95.7198 54.4715L77.8279 63.4483C77.1504 63.7884 76.3958 63.4056 76.1418 62.5935H76.1409Z" fill="#FFCD98" stroke="#002522" stroke-width="0.164607" stroke-miterlimit="10"/>
<path d="M92.6408 56.0207L88.4815 58.0996L75.753 17.2314L79.8189 14.8506L92.6408 56.0207Z" fill="#002522"/>
<path d="M83.287 57.296L79.2564 59.3358L68.5342 24.9144L72.4877 22.6245L83.287 57.296Z" fill="white"/>
<path d="M27.9452 50.4311L26.7852 38.0567C26.6401 36.9409 26.5222 35.4922 26.5222 34.8274V0.8662C26.5222 0.201418 27.6151 0.781624 27.3403 2.34309L28.26 15.5205C28.3933 16.6655 28.5003 18.1005 28.5003 18.7317L28.8159 50.6712C28.8159 51.3023 28.0776 51.4579 27.9443 50.432L27.9452 50.4311Z" fill="#C1A98A" stroke="#002522" stroke-width="0.164607" stroke-miterlimit="10"/>
<path d="M28.4584 1.04172C28.433 0.721601 28.1536 0.481516 27.8344 0.506979L26.795 0.588827L28.0457 16.5745C28.072 16.9119 28.0856 17.2502 28.0856 17.5885V50.8385C28.0856 51.0723 28.2743 51.2614 28.5074 51.2614H29.2592C29.5078 51.2614 29.7091 51.0595 29.7091 50.8104V17.1356C29.7091 17.0092 29.7046 16.8828 29.6946 16.7573L28.4593 1.04172H28.4584Z" fill="#C1A98A" stroke="#002522" stroke-width="0.164607" stroke-miterlimit="10"/>
<path d="M93.9587 74.1996L69.4169 41.4998C68.8845 40.7905 69.2173 40.2248 69.5511 38.9107L87.3451 29.4782C88.0353 29.0863 89.0284 29.3409 89.5653 30.0466L114.993 62.5027C114.885 63.3949 114.069 64.7026 113.373 65.1L96.7558 74.5079C96.0584 74.9062 94.5038 74.9235 93.9596 74.1996H93.9587Z" fill="#E2FA52" stroke="#002522" stroke-width="0.164607" stroke-miterlimit="10" stroke-linecap="round"/>
<path d="M94.338 72.9958L69.7962 40.2959C69.2638 39.5866 69.3926 38.6926 70.0837 38.2998L87.7235 28.2744C88.4137 27.8824 89.4068 28.1371 89.9437 28.8428L114.659 61.388C115.207 62.1092 115.086 63.0159 114.389 63.4133L96.5855 73.5851C95.8881 73.9834 94.8813 73.7197 94.338 72.9949V72.9958Z" fill="#E2FA52" stroke="#002522" stroke-width="0.164607" stroke-miterlimit="10" stroke-linecap="round"/>
<path d="M86.057 32.9978L107.863 61.7953" stroke="#002522" stroke-width="0.164607" stroke-miterlimit="10" stroke-linecap="round"/>
<path d="M95.4935 68.054L90.4571 61.3562C90.3364 61.1952 90.3645 60.9933 90.5196 60.9051L94.4468 58.6652C94.6019 58.577 94.826 58.6352 94.9466 58.7952L99.9912 65.4858C100.113 65.6468 100.085 65.8496 99.9295 65.9378L95.9951 68.184C95.8391 68.2732 95.615 68.2141 95.4935 68.0531V68.054Z" fill="#EAF990" stroke="#002522" stroke-width="0.164607" stroke-miterlimit="10"/>
<path d="M76.0826 40.1044L76.1987 39.7443C76.2395 39.6015 76.2667 39.5106 76.3003 39.4196L76.2967 39.4151C76.1915 39.4096 76.0917 39.4014 75.9212 39.3787L75.5058 39.3378L75.3253 39.0986L76.3175 39.2386L76.567 38.4202L76.7493 38.6621L76.6223 39.0386C76.5869 39.1441 76.5597 39.225 76.5261 39.305L76.5316 39.3123C76.6386 39.3168 76.7257 39.325 76.849 39.3405L77.3025 39.3969L77.483 39.6361L76.5162 39.4851L76.2649 40.3463L76.0826 40.1044Z" fill="#002522"/>
<path d="M77.0858 41.4375L77.2019 41.0765C77.2427 40.9337 77.2699 40.8428 77.3034 40.7518L77.2998 40.7473C77.1946 40.7418 77.0948 40.7336 76.9243 40.7109L76.5089 40.67L76.3284 40.4308L77.3207 40.5708L77.5701 39.7515L77.7524 39.9934L77.6254 40.3708C77.59 40.4763 77.5628 40.5572 77.5293 40.6372L77.5347 40.6445C77.6417 40.6491 77.7288 40.6572 77.8522 40.6727L78.3057 40.7291L78.4861 40.9692L77.5184 40.8173L77.2672 41.6794L77.0849 41.4375H77.0858Z" fill="#002522"/>
<path d="M78.0891 42.7707L78.2052 42.4097C78.246 42.2669 78.2732 42.175 78.3067 42.085L78.3031 42.0805C78.1979 42.075 78.0981 42.0668 77.9267 42.0441L77.5104 42.0032L77.3299 41.7631L78.3231 41.904L78.5725 41.0837L78.7548 41.3256L78.6278 41.7031C78.5924 41.8085 78.5652 41.8895 78.5317 41.9695L78.5371 41.9768C78.6441 41.9813 78.7312 41.9895 78.8555 42.005L79.3099 42.0623L79.4903 42.3024L78.5226 42.1505L78.2714 43.0135L78.0891 42.7707Z" fill="#002522"/>
<path d="M79.5043 44.6515L79.6204 44.2905C79.6612 44.1477 79.6884 44.0558 79.722 43.9649L79.7184 43.9603C79.6132 43.9549 79.5125 43.9467 79.342 43.924L78.9257 43.883L78.7452 43.643L79.7392 43.7839L79.9887 42.9636L80.171 43.2064L80.044 43.5838C80.0086 43.6893 79.9814 43.7703 79.9478 43.8512L79.9533 43.8585C80.0603 43.863 80.1474 43.8712 80.2716 43.8867L80.726 43.944L80.9065 44.1841L79.9379 44.0322L79.6866 44.8961L79.5043 44.6533V44.6515Z" fill="#002522"/>
<path d="M80.5088 45.9874L80.6249 45.6263C80.6657 45.4826 80.6929 45.3917 80.7265 45.3008L80.7228 45.2962C80.6176 45.2908 80.517 45.2826 80.3465 45.2598L79.9302 45.2189L79.7497 44.9788L80.7437 45.1198L80.9931 44.2986L81.1754 44.5414L81.0485 44.9197C81.0131 45.0252 80.9859 45.1061 80.9532 45.1871L80.9587 45.1944C81.0657 45.1989 81.1537 45.2071 81.277 45.2225L81.7314 45.2798L81.9128 45.5199L80.9432 45.3681L80.692 46.232L80.5088 45.9892V45.9874Z" fill="#002522"/>
<path d="M81.5142 47.3246L81.6303 46.9627C81.6711 46.819 81.6983 46.7281 81.7319 46.6371L81.7282 46.6326C81.623 46.6271 81.5224 46.6189 81.3518 46.5962L80.9346 46.5553L80.7542 46.3152L81.7491 46.4561L81.9985 45.634L82.1817 45.8768L82.0548 46.2552C82.0194 46.3607 81.9922 46.4416 81.9595 46.5225L81.965 46.5298C82.072 46.5344 82.16 46.5425 82.2833 46.558L82.7386 46.6153L82.92 46.8563L81.9505 46.7035L81.6992 47.5684L81.516 47.3255L81.5142 47.3246Z" fill="#002522"/>
<path d="M82.5226 48.664L82.6387 48.302C82.6795 48.1584 82.7067 48.0674 82.7402 47.9765L82.7366 47.9719C82.6314 47.9665 82.5307 47.9583 82.3602 47.9355L81.943 47.8946L81.7616 47.6536L82.7575 47.7955L83.006 46.9734L83.1892 47.2162L83.0622 47.5945C83.0268 47.7009 82.9996 47.7819 82.967 47.8619L82.9724 47.8692C83.0795 47.8737 83.1674 47.8819 83.2908 47.8974L83.7461 47.9546L83.9275 48.1956L82.957 48.0429L82.7058 48.9086L82.5226 48.6649V48.664Z" fill="#002522"/>
<path d="M83.9432 50.5498L84.0593 50.1878C84.1001 50.0441 84.1274 49.9523 84.1609 49.8613L84.1573 49.8568C84.0512 49.8513 83.9514 49.8432 83.78 49.8204L83.3628 49.7786L83.1814 49.5376L84.1772 49.6795L84.4257 48.8564L84.609 49.1002L84.482 49.4794C84.4466 49.5858 84.4194 49.6667 84.3868 49.7477L84.3922 49.7549C84.5001 49.7595 84.5872 49.7677 84.7114 49.7831L85.1668 49.8404L85.3481 50.0814L84.3768 49.9286L84.1255 50.7953L83.9423 50.5516L83.9432 50.5498Z" fill="#002522"/>
<path d="M84.9522 51.8914L85.0683 51.5286C85.1091 51.3849 85.1363 51.293 85.1699 51.2021L85.1662 51.1976C85.0601 51.1921 84.9604 51.1839 84.7889 51.1612L84.3717 51.1193L84.1903 50.8784L85.1871 51.0202L85.4356 50.1963L85.6188 50.44L85.4918 50.8192C85.4565 50.9256 85.4293 51.0066 85.3966 51.0875L85.4021 51.0948C85.51 51.0993 85.5971 51.1075 85.7213 51.1239L86.1766 51.1812L86.358 51.4222L85.3866 51.2694L85.1363 52.1361L84.9531 51.8924L84.9522 51.8914Z" fill="#002522"/>
<path d="M85.9621 53.2339L86.0782 52.871C86.119 52.7274 86.1462 52.6355 86.1798 52.5446L86.1761 52.54C86.07 52.5346 85.9702 52.5264 85.7988 52.5036L85.3807 52.4618L85.1993 52.2208L86.197 52.3627L86.4455 51.5378L86.6287 51.7816L86.5017 52.1608C86.4673 52.2672 86.4391 52.3481 86.4065 52.4291L86.4119 52.4363C86.5199 52.4409 86.6069 52.4491 86.7312 52.4654L87.1874 52.5227L87.3697 52.7646L86.3974 52.611L86.1471 53.4785L85.963 53.2348L85.9621 53.2339Z" fill="#002522"/>
<path d="M86.9742 54.5769L87.0903 54.214C87.1311 54.0703 87.1583 53.9785 87.1919 53.8875L87.1882 53.883C87.0821 53.8775 86.9823 53.8693 86.8109 53.8457L86.3928 53.8039L86.2114 53.5619L87.2091 53.7047L87.4576 52.8799L87.6417 53.1236L87.5147 53.5028C87.4803 53.6092 87.4522 53.6902 87.4195 53.7711L87.4249 53.7784C87.5329 53.7829 87.6199 53.7911 87.7442 53.8075L88.2004 53.8648L88.3827 54.1067L87.4104 53.953L87.1601 54.8215L86.976 54.5769H86.9742Z" fill="#002522"/>
<path d="M88.3986 56.4714L88.5147 56.1077C88.5555 55.964 88.5827 55.8721 88.6163 55.7803L88.6127 55.7757C88.5065 55.7703 88.4059 55.7621 88.2345 55.7384L87.8163 55.6966L87.634 55.4547L88.6326 55.5975L88.8811 54.7717L89.0652 55.0164L88.9383 55.3965C88.9038 55.5029 88.8757 55.5838 88.843 55.6657L88.8485 55.673C88.9564 55.6775 89.0435 55.6857 89.1677 55.7021L89.6239 55.7603L89.8062 56.0022L88.8331 55.8485L88.5827 56.7179L88.3986 56.4732V56.4714Z" fill="#002522"/>
<path d="M89.4106 57.8171L89.5267 57.4533C89.5675 57.3087 89.5947 57.2168 89.6282 57.1259L89.6246 57.1214C89.5185 57.1159 89.4178 57.1077 89.2464 57.0841L88.8283 57.0422L88.646 56.8003L89.6455 56.9431L89.894 56.1165L90.0781 56.3611L89.9511 56.7412C89.9167 56.8476 89.8886 56.9295 89.8559 57.0104L89.8613 57.0177C89.9693 57.0222 90.0573 57.0304 90.1815 57.0468L90.6386 57.105L90.8209 57.3469L89.8468 57.1923L89.5965 58.0617L89.4124 57.8171H89.4106Z" fill="#002522"/>
</g>
<defs>
<clipPath id="clip0_664_11629">
<rect width="115" height="80" fill="white"/>
</clipPath>
</defs>
</svg>
