<svg width="61" height="80" viewBox="0 0 61 80" fill="none" xmlns="http://www.w3.org/2000/svg">
<g clip-path="url(#clip0_664_11611)">
<path d="M54.7938 44.0039L45.6429 46.8716V46.8756L41.9579 48.027L37.3062 49.4857L35.2438 50.1337L32.8069 50.8967L28.1552 52.3554L26.0908 53.0034L24.4683 53.5128L17.0627 52.0858L14.3762 51.5686L6.96472 50.1417L24.4564 44.6579L37.2903 40.6348L44.6979 42.0597L47.3843 42.577L54.7938 44.0039Z" fill="#274B4B" stroke="#082422" stroke-width="0.0765392" stroke-linejoin="round"/>
<path d="M23.3826 38.7135L24.9483 39.2482C25.7049 39.5069 26.4097 39.9674 27.0193 40.6413C29.7152 43.6203 29.5332 49.6357 26.6111 54.0765C24.3485 57.5131 21.1091 58.9982 18.5132 58.11L16.9475 57.5752C19.5457 58.462 22.7851 56.9769 25.0455 53.5418C27.9653 49.1024 28.1487 43.0892 25.4536 40.1066C24.844 39.4326 24.1407 38.9745 23.3826 38.7135Z" fill="#B9CC00" stroke="#082422" stroke-width="0.0765392" stroke-linejoin="round"/>
<path d="M15.2843 42.7473C18.2041 38.3079 22.7581 37.1243 25.4532 40.1069C28.1492 43.0859 27.9672 49.1013 25.0451 53.5421C22.1231 57.983 17.5713 59.1651 14.8776 56.1847C12.1817 53.2058 12.3637 47.1904 15.2857 42.7495L15.2843 42.7473Z" fill="#DCFF00" stroke="#082422" stroke-width="0.0765392" stroke-linejoin="round"/>
<path d="M17.1945 45.8771L18.0875 46.0611L18.1191 45.9964C18.2241 45.7734 18.3376 45.5735 18.4536 45.3975C18.9351 44.6662 19.503 44.3276 20.1746 44.3643L19.5033 46.8032C19.2358 46.7776 19.0285 46.8755 18.8782 47.1021C18.8057 47.2122 18.746 47.3521 18.7006 47.5243C18.5608 48.0302 18.6971 48.248 18.8731 48.2846C19.0439 48.3181 19.1802 48.2085 19.3274 47.987C19.4548 47.7941 19.5875 47.5152 19.7518 47.1715L19.9324 46.7888C20.1748 46.2743 20.399 45.8604 20.612 45.5332C21.1317 44.7425 21.598 44.4785 22.1636 44.5927C22.9532 44.7541 23.2728 45.5853 23.0913 46.9984L23.0825 47.0739L24.0798 47.2769L23.4292 49.639L22.4318 49.436L22.4023 49.509C22.2691 49.8168 22.1277 50.0822 21.9766 50.3126C21.4828 51.0645 20.8866 51.4085 20.1731 51.351L20.8911 48.7518C21.2031 48.7775 21.4299 48.6703 21.5955 48.418C21.6741 48.2976 21.7407 48.1437 21.7939 47.9539C21.8582 47.722 21.8773 47.5286 21.8532 47.3819C21.8281 47.2137 21.7402 47.1111 21.6049 47.0834C21.4437 47.0501 21.3187 47.1525 21.2019 47.3322C21.1179 47.4591 21.0362 47.6291 20.9475 47.8131L20.5472 48.6513C20.3278 49.1224 20.1198 49.5068 19.919 49.8134C19.3901 50.6196 18.8879 50.897 18.2817 50.7739C17.5526 50.6278 17.2446 49.8146 17.4118 48.4933L17.4206 48.4177L16.5489 48.2423L17.1982 45.8779L17.1945 45.8771Z" fill="white" stroke="#082422" stroke-width="0.0765392" stroke-linejoin="round"/>
<path d="M50.7773 29.2089L51.4605 29.4422C51.7907 29.5551 52.0982 29.756 52.3642 30.0501C53.5407 31.3501 53.4612 33.975 52.1861 35.9129C51.1988 37.4125 49.7852 38.0606 48.6524 37.6729L47.9692 37.4396C49.103 37.8266 50.5165 37.1785 51.5029 35.6795C52.777 33.7423 52.8571 31.1183 51.681 29.8168C51.415 29.5227 51.1081 29.3227 50.7773 29.2089Z" fill="#B9CC00" stroke="#082422" stroke-width="0.0765392" stroke-linejoin="round"/>
<path d="M47.2438 30.9693C48.5179 29.032 50.5052 28.5156 51.6812 29.8171C52.8577 31.117 52.7782 33.742 51.5031 35.6798C50.228 37.6177 48.2418 38.1335 47.0663 36.833C45.8899 35.5331 45.9693 32.9081 47.2444 30.9703L47.2438 30.9693Z" fill="#DCFF00" stroke="#082422" stroke-width="0.0765392" stroke-linejoin="round"/>
<path d="M48.077 32.3351L48.4667 32.4154L48.4805 32.3872C48.5263 32.2898 48.5758 32.2026 48.6264 32.1258C48.8366 31.8067 49.0844 31.6589 49.3775 31.675L49.0845 32.7392C48.9678 32.728 48.8773 32.7708 48.8117 32.8697C48.7801 32.9177 48.7541 32.9788 48.7342 33.0539C48.6732 33.2747 48.7327 33.3697 48.8095 33.3856C48.884 33.4003 48.9435 33.3525 49.0078 33.2558C49.0634 33.1716 49.1213 33.0499 49.193 32.8999L49.2718 32.7329C49.3775 32.5084 49.4754 32.3278 49.5683 32.1851C49.7951 31.84 49.9986 31.7248 50.2454 31.7746C50.59 31.845 50.7294 32.2078 50.6502 32.8244L50.6464 32.8574L51.0816 32.9459L50.7977 33.9767L50.3624 33.8881L50.3496 33.92C50.2914 34.0543 50.2297 34.1701 50.1638 34.2706C49.9483 34.5987 49.6882 34.7488 49.3768 34.7237L49.6901 33.5895C49.8262 33.6008 49.9252 33.554 49.9975 33.4439C50.0318 33.3914 50.0609 33.3242 50.0841 33.2414C50.1121 33.1402 50.1205 33.0558 50.11 32.9918C50.099 32.9183 50.0606 32.8736 50.0016 32.8615C49.9313 32.847 49.8767 32.8916 49.8257 32.9701C49.7891 33.0254 49.7534 33.0996 49.7147 33.1799L49.54 33.5457C49.4443 33.7512 49.3535 33.919 49.2659 34.0528C49.0351 34.4046 48.816 34.5257 48.5514 34.4719C48.2333 34.4082 48.0989 34.0533 48.1719 33.4767L48.1757 33.4438L47.7953 33.3672L48.0786 32.3355L48.077 32.3351Z" fill="white" stroke="#082422" stroke-width="0.0765392" stroke-linejoin="round"/>
<path d="M54.7931 44.0046L59.7738 69.4138L46.9398 73.437L42.2861 74.8956L29.4482 78.9207L28.5071 74.1068L24.4676 53.5135L26.0901 53.0042L28.1545 52.3561L32.8063 50.8975L35.2431 50.1345L37.3055 49.4864L41.9572 48.0278L45.6422 46.8763V46.8724L54.7931 44.0046Z" fill="#2BF2F1" stroke="#082422" stroke-width="0.0765392" stroke-linejoin="round"/>
<path d="M24.4679 53.5132L28.5075 74.1065L29.4486 78.9204L22.039 77.4935L19.3565 76.9762L11.947 75.5493L6.96439 50.1421L14.3759 51.569L17.0624 52.0863L24.4679 53.5132Z" fill="#2BF2F1" stroke="#082422" stroke-width="0.0765392" stroke-linejoin="round"/>
<path d="M17.0601 52.0849L22.0407 77.494L19.3562 76.9768L14.3756 51.5696L17.0601 52.0849Z" fill="white" stroke="#082422" stroke-width="0.0765392" stroke-linejoin="round"/>
<path d="M37.6052 49.399L42.5264 74.826L46.6392 73.5259L41.7161 48.0989L37.6052 49.399Z" fill="white" stroke="#082422" stroke-width="0.0765392" stroke-linejoin="round"/>
<path d="M20.2757 31.5391L19.6086 32.3542C19.286 32.7481 18.8547 33.0661 18.3173 33.2799C15.9414 34.2255 12.3955 32.7787 10.398 30.0473C8.85249 27.9328 8.68775 25.6698 9.79486 24.3186L10.462 23.5035C9.35525 24.8563 9.51998 27.1194 11.0651 29.2322C13.0623 31.9619 16.6065 33.4091 18.9844 32.4647C19.5218 32.251 19.9515 31.9333 20.2757 31.5391Z" fill="#B9CC00" stroke="#082422" stroke-width="0.0765392" stroke-linejoin="round"/>
<path d="M19.6731 25.8102C21.6703 28.5398 21.3627 31.5201 18.9849 32.4645C16.609 33.4102 13.0632 31.9633 11.0656 29.2319C9.06807 26.5006 9.37595 23.522 11.7521 22.578C14.128 21.6323 17.6739 23.0792 19.6714 25.8105L19.6731 25.8102Z" fill="#DCFF00" stroke="#082422" stroke-width="0.0765392" stroke-linejoin="round"/>
<path d="M17.3819 26.2533L17.0735 26.7452L17.1051 26.7784C17.2147 26.8907 17.3086 27.0028 17.3878 27.1112C17.7167 27.5612 17.7922 27.9753 17.6209 28.3679L16.3161 27.4247C16.3909 27.2709 16.3787 27.1254 16.277 26.9853C16.2275 26.9176 16.1573 26.8508 16.0648 26.7854C15.7943 26.5895 15.6341 26.6223 15.5732 26.7192C15.5152 26.8136 15.5502 26.9193 15.6495 27.0564C15.7362 27.1754 15.8729 27.3166 16.0413 27.4911L16.2293 27.684C16.4821 27.943 16.6789 28.1689 16.8266 28.3687C17.1825 28.8547 17.2361 29.1917 17.0422 29.5037C16.7703 29.9389 16.2036 29.9446 15.4015 29.522L15.3584 29.4999L15.0155 30.0498L13.752 29.1361L14.0949 28.5862L14.058 28.5524C13.9041 28.4044 13.7773 28.261 13.6736 28.1196C13.3352 27.6577 13.2627 27.2255 13.4558 26.8126L14.8456 27.8192C14.7609 27.9996 14.7744 28.1588 14.888 28.3137C14.9422 28.3874 15.0192 28.4614 15.1205 28.5353C15.2444 28.6253 15.3555 28.6797 15.4483 28.698C15.5542 28.7204 15.6349 28.6908 15.6815 28.6162C15.7373 28.5275 15.704 28.4301 15.6228 28.3204C15.5659 28.2421 15.4827 28.1556 15.3928 28.0617L14.9821 27.6364C14.75 27.4007 14.5671 27.191 14.4289 27.0031C14.066 26.5082 14.0123 26.1468 14.2206 25.8125C14.4699 25.4101 15.0233 25.4072 15.7738 25.801L15.8169 25.823L16.1154 25.342L17.3806 26.2553L17.3819 26.2533Z" fill="white" stroke="#082422" stroke-width="0.0765392" stroke-linejoin="round"/>
<path d="M29.0403 37.6627L28.6392 37.4501C28.3638 37.3043 28.1232 37.0828 27.9314 36.7877C27.0814 35.4771 27.5251 33.1806 28.921 31.6574C30.0014 30.4797 31.3368 30.1097 32.2794 30.6111L32.6804 30.8237C31.7379 30.3223 30.4037 30.6906 29.322 31.87C27.9259 33.3918 27.4824 35.6897 28.3324 37.0003C28.5245 37.2968 28.7662 37.5166 29.0403 37.6627Z" fill="#69B8B3" stroke="#082422" stroke-width="0.0765392" stroke-linejoin="round"/>
<path d="M32.3994 36.6179C31.0032 38.1397 29.1829 38.311 28.3329 37.0004C27.4829 35.6898 27.9266 33.3933 29.3225 31.8701C30.7186 30.3483 32.5389 30.177 33.3889 31.4876C34.239 32.7982 33.7953 35.0947 32.3994 36.6179Z" fill="#8CF1F0" stroke="#082422" stroke-width="0.0765392" stroke-linejoin="round"/>
<path d="M31.8067 34.9537C31.7727 34.9906 31.7359 35.028 31.6973 35.0641L31.3999 34.2515C31.4286 34.2274 31.4529 34.204 31.4744 34.1811C31.5927 34.0529 31.6043 33.935 31.5611 33.8188C31.5151 33.6942 31.4373 33.6819 31.3654 33.7414C31.3563 33.7489 31.3474 33.7578 31.3397 33.7651C31.2517 33.8615 31.2659 34.0093 31.2895 34.267L31.3037 34.4148C31.3625 35.0174 31.2876 35.3793 31.0348 35.6548C30.9957 35.697 30.9521 35.7385 30.9051 35.7775C30.5586 36.0613 30.232 36.0281 29.9833 35.6593L29.5492 36.0156L29.2605 35.2283L29.6946 34.872C29.6295 34.4101 29.7577 34.02 30.0633 33.6866C30.105 33.6425 30.1481 33.5981 30.1961 33.5559L30.5118 34.416C30.4819 34.4418 30.4564 34.4669 30.434 34.4929C30.3094 34.6282 30.2756 34.7557 30.3301 34.9042C30.3768 35.0332 30.452 35.0831 30.5554 34.9989C30.5646 34.9915 30.5723 34.9842 30.5798 34.9755C30.6516 34.8982 30.6429 34.7926 30.6304 34.6371L30.5998 34.3107C30.5395 33.7172 30.6342 33.358 30.8856 33.0827C30.9283 33.0354 30.976 32.9918 31.0268 32.9491C31.3486 32.6858 31.6609 32.714 31.8993 33.0652L32.281 32.7518L32.5697 33.5391L32.1788 33.86C32.2155 34.2671 32.1 34.6357 31.807 34.9552L31.8067 34.9537Z" fill="white" stroke="#082422" stroke-width="0.0765392" stroke-linejoin="round"/>
<path d="M12.7246 39.3523L12.6429 40.0138C12.5871 40.4681 12.4092 40.9141 12.1051 41.3318C10.7528 43.1843 7.37166 43.7781 4.55257 42.6606C2.37228 41.795 1.16622 40.1566 1.3604 38.6009L1.44203 37.9394C1.24785 39.4951 2.45097 41.1327 4.6342 41.9991C7.45144 43.1177 10.8344 42.5227 12.1867 40.6702C12.4927 40.2515 12.6677 39.8047 12.7246 39.3523Z" fill="#69B8B3" stroke="#082422" stroke-width="0.0765392" stroke-linejoin="round"/>
<path d="M9.53496 35.2913C12.3522 36.4099 13.5397 38.8176 12.1874 40.6701C10.8351 42.5226 7.45401 43.1164 4.63491 41.9989C1.81766 40.8804 0.630157 38.4727 1.98245 36.6202C3.33475 34.7677 6.71585 34.1738 9.53496 35.2913Z" fill="#8CF1F0" stroke="#082422" stroke-width="0.0765392" stroke-linejoin="round"/>
<path d="M7.56232 36.9757C7.63068 37.003 7.70122 37.034 7.77099 37.068L6.81235 37.9015C6.76428 37.8748 6.71947 37.8536 6.67684 37.8362C6.43905 37.741 6.27135 37.7869 6.1346 37.9069C5.9878 38.0353 6.01169 38.1486 6.13093 38.2159C6.14597 38.2246 6.16287 38.2321 6.17682 38.2389C6.35509 38.3091 6.55028 38.2122 6.89128 38.0449L7.08647 37.948C7.88208 37.5517 8.41749 37.465 8.92765 37.6676C9.00593 37.6991 9.08562 37.7372 9.16377 37.7812C9.73424 38.1081 9.85956 38.5735 9.48399 39.1079L10.1998 39.5168L9.27128 40.3252L8.55552 39.9163C7.95623 40.2475 7.35428 40.2758 6.73715 40.0312C6.65484 39.9971 6.57144 39.9611 6.48848 39.9174L7.50266 39.0338C7.55367 39.0613 7.60142 39.0832 7.64885 39.1004C7.89951 39.2005 8.09204 39.18 8.26715 39.0275C8.41953 38.8958 8.4486 38.7665 8.27911 38.6687C8.26407 38.6601 8.25012 38.6533 8.23431 38.6476C8.0906 38.5896 7.95036 38.6568 7.74371 38.7554L7.31216 38.9683C6.52986 39.3618 5.98775 39.4199 5.47868 39.2192C5.39156 39.1855 5.30675 39.1428 5.22163 39.0954C4.69224 38.7919 4.56743 38.3486 4.92429 37.8376L4.29474 37.478L5.22321 36.6696L5.8678 37.0379C6.40694 36.7744 6.97279 36.7398 7.56418 36.9746L7.56232 36.9757Z" fill="white" stroke="#082422" stroke-width="0.0765392" stroke-linejoin="round"/>
<path d="M48.1039 43.5056L47.8078 44.1776C47.6048 44.6392 47.2756 45.0532 46.8221 45.3973C44.8075 46.9221 41.052 46.4742 38.4326 44.3994C36.4072 42.7933 35.6549 40.6815 36.3535 39.1018L36.6496 38.4298C35.951 40.0095 36.7004 42.1196 38.7287 43.7274C41.3458 45.8028 45.1036 46.2501 47.1182 44.7253C47.574 44.3807 47.9003 43.9649 48.1039 43.5056Z" fill="#69B8B3" stroke="#082422" stroke-width="0.0765392" stroke-linejoin="round"/>
<path d="M46.0279 38.2072C48.645 40.2825 49.1336 43.2001 47.119 44.7249C45.1043 46.2497 41.3489 45.8019 38.7295 43.727C36.1124 41.6517 35.6238 38.7341 37.6384 37.2093C39.6531 35.6845 43.4085 36.1323 46.0279 38.2072Z" fill="#8CF1F0" stroke="#082422" stroke-width="0.0765392" stroke-linejoin="round"/>
<path d="M43.4121 39.3578C43.4755 39.4083 43.5401 39.4634 43.6029 39.5214L42.327 40.0963C42.2848 40.0528 42.2442 40.0163 42.2048 39.9843C41.9841 39.8083 41.7927 39.8034 41.6103 39.8866C41.4147 39.9754 41.4039 40.1025 41.5083 40.2115C41.5215 40.2254 41.5369 40.2387 41.5495 40.2503C41.7152 40.381 41.9519 40.3408 42.3648 40.2726L42.6014 40.2324C43.5666 40.0671 44.1589 40.1458 44.6328 40.5216C44.7054 40.5797 44.7774 40.6453 44.8458 40.7165C45.3439 41.2427 45.3284 41.7736 44.7626 42.218L45.3879 42.8769L44.1518 43.4347L43.5265 42.7759C42.7892 42.9348 42.1451 42.7735 41.5717 42.3192C41.4957 42.2571 41.4191 42.1927 41.3455 42.1202L42.6959 41.5103C42.7409 41.5555 42.7844 41.5938 42.829 41.6269C43.0616 41.8122 43.2712 41.8518 43.5044 41.7465C43.7069 41.656 43.7786 41.5288 43.6309 41.3718C43.6177 41.3579 43.6052 41.3463 43.5903 41.3353C43.4571 41.2284 43.2878 41.2547 43.0385 41.2931L42.5157 41.3806C41.5655 41.5472 40.9751 41.4362 40.5018 41.0627C40.4206 40.9994 40.3447 40.9275 40.2699 40.8504C39.8078 40.3619 39.8168 39.8546 40.3554 39.4289L39.8054 38.8495L41.0415 38.2916L41.6047 38.885C42.257 38.7783 42.865 38.9216 43.4144 39.3572L43.4121 39.3578Z" fill="white" stroke="#082422" stroke-width="0.0765392" stroke-linejoin="round"/>
<path d="M49.2225 12.8019C48.8698 13.0556 48.432 13.1666 48.012 13.2796C45.0165 14.0683 42.0863 15.1108 39.2652 16.3911C39.174 16.4287 39.0829 16.4703 38.9957 16.5159C39.0433 16.4664 39.0869 16.4148 39.1344 16.3673C41.1453 14.1694 43.6752 12.4472 46.4607 11.3849C46.7738 11.264 47.0868 11.153 47.4057 11.052C47.8436 10.9093 48.3052 10.7824 48.7589 10.8518C48.8223 10.8637 48.8877 10.8756 48.9491 10.8934C49.0105 10.9152 49.0739 10.937 49.1313 10.9628C49.4364 11.1035 49.688 11.3552 49.7534 11.6822C49.8386 12.1123 49.5771 12.5483 49.2225 12.8059V12.8019Z" fill="#ECECEC" stroke="#082422" stroke-width="0.0765392" stroke-linecap="round" stroke-linejoin="round"/>
<path d="M57.9156 28.706L48.5091 26.8391L46.0207 26.3476L44.7231 26.09L42.6844 24.4094C44.5071 25.0317 46.5873 25.0911 48.2555 24.1438C48.6398 23.9218 48.9944 23.6543 49.3154 23.3511L52.0949 23.902H52.0969L57.9176 28.706H57.9156Z" fill="#2BF2F1" stroke="#082422" stroke-width="0.0765392" stroke-linecap="round" stroke-linejoin="round"/>
<path d="M23.314 16.8785L18.8108 15.9846L12.9882 11.1807L21.6121 12.889H21.6141C21.6201 13.5272 21.7191 14.1594 21.9351 14.7599C22.2243 15.5685 22.7077 16.276 23.314 16.8765V16.8785Z" fill="#2BF2F1" stroke="#082422" stroke-width="0.0765392" stroke-linecap="round" stroke-linejoin="round"/>
<path d="M16.2671 24.3759L10.4465 19.5759L13.0259 11.1868L18.8486 15.9888L16.2671 24.3759Z" fill="#2BF2F1" stroke="#082422" stroke-width="0.0765392" stroke-linecap="round" stroke-linejoin="round"/>
<path d="M24.1606 30.9155L18.34 26.1135L20.9214 17.7263L26.7421 22.5263L24.1606 30.9155Z" fill="#2BF2F1" stroke="#082422" stroke-width="0.0765392" stroke-linecap="round" stroke-linejoin="round"/>
<path d="M37.3569 33.532L24.1604 30.916L26.7419 22.5269L28.41 22.8578L30.5299 23.276L35.3144 24.2253L37.8185 24.7227L39.9384 25.1449L37.3569 33.532Z" fill="#2BF2F1" stroke="#082422" stroke-width="0.0765392" stroke-linecap="round" stroke-linejoin="round"/>
<path d="M55.3318 37.097L42.1373 34.481L37.3568 33.5317L42.1393 34.479L44.7207 26.0898L46.0204 26.3475L48.5087 26.839L57.9152 28.7059L55.3318 37.097Z" fill="#2BF2F1" stroke="#082422" stroke-width="0.0765392" stroke-linecap="round" stroke-linejoin="round"/>
<path d="M18.3399 26.1136L16.2299 24.3715L18.8114 15.9844L20.9213 17.7264L18.3399 26.1136Z" fill="white" stroke="#082422" stroke-width="0.0765392" stroke-linecap="round" stroke-linejoin="round"/>
<path d="M44.7204 26.0899L39.9398 25.1406L35.8745 21.7873C36.5956 21.93 37.3306 21.9676 37.9507 21.6129C37.9547 21.6129 37.9567 21.6089 37.9606 21.6069C39.3237 22.6593 40.7362 23.6601 42.339 24.2824C42.4519 24.326 42.5668 24.3676 42.6837 24.4073L44.7223 26.0879L44.7204 26.0899Z" fill="white" stroke="#082422" stroke-width="0.0765392" stroke-linecap="round" stroke-linejoin="round"/>
<path d="M26.8684 18.9016L20.9229 17.7225L18.811 15.9844L23.3142 16.8782C24.1463 17.7086 25.2141 18.3348 26.3256 18.7292C26.5039 18.7926 26.6861 18.8521 26.8684 18.9036V18.9016Z" fill="white" stroke="#082422" stroke-width="0.0765392" stroke-linecap="round" stroke-linejoin="round"/>
<path d="M39.9398 25.1407L37.82 24.7205L35.3158 24.2231L30.5293 23.2738L28.4114 22.8556L26.7433 22.5247L20.9227 17.7227L26.8681 18.8999C26.88 18.9038 26.8939 18.9078 26.9058 18.9118C27.6863 19.1417 28.4887 19.2843 29.297 19.3834C29.3069 19.3854 29.3208 19.3854 29.3307 19.3894C30.3173 19.5043 31.3158 19.5578 32.3123 19.6014C32.3599 19.7461 32.4193 19.8829 32.4907 20.0156C32.6115 20.2396 32.768 20.4437 32.9602 20.6221C33.5426 21.1631 34.343 21.391 35.1097 21.5991C35.3594 21.6685 35.6169 21.7339 35.8745 21.7854L39.9398 25.1387V25.1407Z" fill="#2BF2F1" stroke="#082422" stroke-width="0.0765392" stroke-linecap="round" stroke-linejoin="round"/>
<path d="M52.0907 23.9019L49.3111 23.3509C49.636 23.0457 49.9272 22.7009 50.1868 22.3342H50.1887L52.0887 23.9038L52.0907 23.9019Z" fill="white" stroke="#082422" stroke-width="0.0765392" stroke-linecap="round" stroke-linejoin="round"/>
<path d="M42.1393 34.479L37.3568 33.5317L39.9382 25.1445L44.7207 26.0899L42.1393 34.479Z" fill="white" stroke="#082422" stroke-width="0.0765392" stroke-linecap="round" stroke-linejoin="round"/>
<path d="M37.9586 21.6108C37.9586 21.6108 37.9527 21.6148 37.9487 21.6168C37.3286 21.9715 36.5936 21.9339 35.8724 21.7912C35.6149 21.7397 35.3573 21.6723 35.1077 21.6049C34.341 21.3948 33.5406 21.1689 32.9582 20.6279C32.766 20.4495 32.6114 20.2454 32.4886 20.0214C32.4173 19.8886 32.3579 19.7519 32.3103 19.6072C32.2073 19.3139 32.1597 18.9948 32.1578 18.6797C32.1518 18.0396 32.3361 17.3895 32.6947 16.8643C32.7937 16.7216 32.9066 16.5829 33.0374 16.4581C33.083 16.4105 33.1345 16.3689 33.184 16.3253C33.2335 16.2837 33.2831 16.244 33.3366 16.2064C33.3881 16.1667 33.4455 16.135 33.499 16.1033C33.5525 16.0736 33.606 16.0458 33.6595 16.0221C33.6694 16.0161 33.6793 16.0141 33.6892 16.0102C33.7407 15.9904 33.7962 15.9705 33.8497 15.9547C33.9091 15.9349 33.9705 15.923 34.0319 15.9111C34.0914 15.9031 34.1548 15.8952 34.2162 15.8952C34.2796 15.8932 34.343 15.8952 34.4084 15.9051C34.5134 15.919 34.6203 15.9448 34.7194 15.9804C35.0166 16.0795 35.2939 16.2539 35.5852 16.3828C35.6981 16.4343 35.8229 16.4779 35.9477 16.4997C36.0309 16.4561 36.1161 16.4224 36.2073 16.3986C36.7342 16.242 37.3425 16.3372 37.8278 16.6285C37.921 16.688 38.016 16.7534 38.0993 16.8227C38.1468 16.8663 38.1924 16.906 38.236 16.9515C38.2855 17.0031 38.335 17.0566 38.3806 17.1101C38.3865 17.118 38.3964 17.1259 38.4024 17.1378C38.4321 17.1735 38.4578 17.2112 38.4876 17.2488C38.5272 17.3003 38.5609 17.3539 38.5965 17.4074C38.6282 17.4589 38.6599 17.5104 38.6896 17.5679C38.7213 17.6274 38.753 17.6888 38.7788 17.7522C38.8065 17.8117 38.8303 17.8711 38.8541 17.9306C38.8739 17.9821 38.8917 18.0336 38.9056 18.0852C38.9155 18.105 38.9214 18.1307 38.9294 18.1565C38.9452 18.206 38.9591 18.2556 38.971 18.3051C38.9769 18.315 38.9769 18.319 38.9769 18.3269C38.9967 18.4003 39.0126 18.4716 39.0245 18.5449C39.0661 18.7669 39.0859 18.9909 39.0879 19.2108C39.0918 19.4685 39.0661 19.736 39.0106 19.9937C38.8719 20.6576 38.5311 21.2799 37.9546 21.6148L37.9586 21.6108Z" fill="white" stroke="#082422" stroke-width="0.0765392" stroke-linecap="round" stroke-linejoin="round"/>
<path d="M51.0818 20.7092C51.6683 19.318 51.9417 17.8197 52.2111 16.3313C52.4548 14.9995 52.6787 13.5449 52.0368 12.3518C51.5474 11.4362 50.6004 10.8317 49.5861 10.586C49.5286 10.5701 49.4712 10.5582 49.4117 10.5463C49.3463 10.5344 49.281 10.5206 49.2136 10.5107C49.2116 10.5107 49.2057 10.5067 49.2017 10.5067C49.1344 10.4968 49.069 10.4889 49.0056 10.4789C48.9362 10.471 48.8669 10.4651 48.7976 10.4591H48.7956C48.6133 10.4433 48.433 10.4393 48.2468 10.4453C47.6683 10.4552 47.0858 10.5503 46.5113 10.693C46.2518 10.7544 45.9982 10.8277 45.7466 10.907C42.7729 11.8484 40.1003 13.7193 38.1786 16.1728C38.0597 16.3194 37.9468 16.47 37.8358 16.6207C37.9289 16.6801 38.024 16.7455 38.1072 16.8149C38.1548 16.8585 38.2004 16.8981 38.2439 16.9437C38.2935 16.9952 38.343 17.0487 38.3886 17.1023C38.3945 17.1102 38.4044 17.1181 38.4104 17.13C38.4401 17.1657 38.4658 17.2033 38.4955 17.241C38.5371 17.2905 38.5708 17.344 38.6045 17.3995C38.6362 17.4511 38.6679 17.5026 38.6976 17.5601C38.7293 17.6195 38.761 17.681 38.7868 17.7444C38.8165 17.8018 38.8383 17.8633 38.8621 17.9227C38.8819 17.9743 38.8997 18.0258 38.9136 18.0773C38.9235 18.0971 38.9294 18.1229 38.9373 18.1487C38.9552 18.1942 38.9671 18.2478 38.9789 18.2973C38.9849 18.3072 38.9849 18.3112 38.9849 18.3191C39.0067 18.3905 39.0205 18.4638 39.0324 18.5371C39.074 18.7591 39.0939 18.983 39.0958 19.203C39.0998 19.4606 39.074 19.7282 39.0186 19.9858C38.8799 20.6497 38.5391 21.272 37.9626 21.607C39.3256 22.6593 40.7382 23.6602 42.341 24.2825C42.4539 24.3261 42.5688 24.3677 42.6857 24.4073C44.5084 25.0296 46.5886 25.0891 48.2567 24.1418C48.6411 23.9198 48.9957 23.6522 49.3166 23.349C49.6415 23.0438 49.9328 22.699 50.1923 22.3323H50.1943C50.5489 21.827 50.8441 21.276 51.0858 20.7072L51.0818 20.7092ZM49.2215 12.8017C48.8689 13.0553 48.4311 13.1663 48.011 13.2793C45.0155 14.0681 42.0854 15.1105 39.2642 16.3908C39.1731 16.4284 39.082 16.47 38.9948 16.5156C39.0423 16.4661 39.0859 16.4146 39.1335 16.367C41.1444 14.1691 43.6743 12.4469 46.4598 11.3846C46.7728 11.2638 47.0858 11.1528 47.4048 11.0517C47.8426 10.909 48.3043 10.7822 48.7579 10.8515C48.8213 10.8634 48.8867 10.8753 48.9481 10.8931C49.0096 10.9149 49.0729 10.9367 49.1304 10.9625C49.1462 10.9724 49.168 10.9803 49.1839 10.9903C49.2235 11.0101 49.2592 11.0299 49.2948 11.0557C49.5227 11.2043 49.699 11.4164 49.7525 11.6819C49.8377 12.112 49.5762 12.548 49.2215 12.8056V12.8017Z" fill="white" stroke="#082422" stroke-width="0.0765392" stroke-linecap="round" stroke-linejoin="round"/>
<path d="M47.6353 8.9031C47.2589 9.5036 46.8864 10.0982 46.51 10.6927C46.2505 10.7541 45.9969 10.8275 45.7453 10.9067C42.7715 11.8481 40.099 13.719 38.1772 16.1725C38.0584 16.3192 37.9454 16.4698 37.8345 16.6204C37.3491 16.3291 36.7409 16.2339 36.2139 16.3905L36.2 16.335C36.2317 16.1566 36.2634 15.9763 36.2971 15.7999C37.149 11.4101 39.3976 7.30178 42.6507 4.23389C42.7319 5.45272 42.8171 6.66759 42.9003 7.88444C42.9182 8.14406 42.9538 8.43143 43.1539 8.58997C43.3045 8.7069 43.5066 8.71879 43.6948 8.73068C45.0103 8.79014 46.3257 8.84761 47.6373 8.90509L47.6353 8.9031Z" fill="white" stroke="#082422" stroke-width="0.0765392" stroke-linecap="round" stroke-linejoin="round"/>
<path d="M32.6947 16.8582C32.7938 16.7155 32.9067 16.5768 33.0374 16.4519C33.083 16.4043 33.1345 16.3627 33.184 16.3191C33.2316 16.2775 33.2831 16.2379 33.3366 16.2002C33.3881 16.1606 33.4456 16.1289 33.4991 16.0972C33.5525 16.0674 33.606 16.0397 33.6595 16.0159C33.6694 16.01 33.6793 16.008 33.6892 16.004C33.7408 15.9842 33.7942 15.9624 33.8497 15.9485C33.9092 15.9287 33.9706 15.9168 34.032 15.9049C34.0914 15.897 34.1548 15.8891 34.2162 15.8891C34.2796 15.8871 34.343 15.8891 34.4084 15.899C34.5134 15.9128 34.6204 15.9386 34.7194 15.9743C34.7353 15.8157 34.7472 15.6572 34.7551 15.4986H34.7531C34.9433 12.3158 34.133 9.07946 32.455 6.36632C31.9537 5.55773 31.3693 4.78085 30.6343 4.18629C30.6264 4.18233 30.6224 4.17638 30.6145 4.17044C30.6046 4.16053 30.5947 4.15458 30.5828 4.14864L30.5689 4.14071C30.557 4.1308 30.5451 4.11891 30.5313 4.11098C30.3946 4.00198 30.25 3.89893 30.0994 3.8038C29.9706 3.72452 29.8399 3.65318 29.7051 3.58381C28.7859 3.12997 27.6962 2.9853 26.7433 3.35194C25.4813 3.84145 24.7047 5.08803 24.0192 6.25732C23.2545 7.55939 22.4858 8.87731 22.0222 10.3161C21.7547 11.1445 21.5963 12.0245 21.6081 12.8905H21.6101C21.6161 13.5287 21.7151 14.1609 21.9311 14.7614C22.2203 15.57 22.7037 16.2775 23.31 16.878C24.142 17.7084 25.2099 18.3347 26.3213 18.729C26.4996 18.7925 26.6819 18.8519 26.8642 18.9034C26.876 18.9074 26.8899 18.9114 26.9018 18.9153L29.2931 19.387C29.2931 19.387 29.3168 19.389 29.3267 19.393C30.3133 19.5079 31.3119 19.5614 32.3084 19.605C32.2054 19.3117 32.1578 18.9926 32.1558 18.6775C32.1499 18.0374 32.3341 17.3873 32.6927 16.8621L32.6947 16.8582ZM29.1999 6.68341C28.9503 6.32074 28.6947 5.95211 28.5897 5.52998C28.4867 5.10389 28.5759 4.60248 28.9186 4.33295C29.2812 4.05153 29.826 4.10504 30.2143 4.35079C30.244 4.36862 30.2757 4.39042 30.3074 4.41222C30.3173 4.42213 30.3272 4.42808 30.3371 4.436C30.355 4.44988 30.3728 4.46375 30.3926 4.47961C30.6898 4.72337 30.9117 5.05632 31.1137 5.38729C32.8789 8.27087 33.8596 11.6261 33.927 15.0071C32.5937 12.1037 31.0087 9.31331 29.1999 6.68539V6.68341Z" fill="white" stroke="#082422" stroke-width="0.0765392" stroke-linecap="round" stroke-linejoin="round"/>
<path d="M33.9268 15.0076C32.5935 12.1042 31.0086 9.31381 29.1998 6.68588C28.9502 6.32321 28.6946 5.95459 28.5896 5.53245C28.4866 5.10636 28.5757 4.60495 28.9185 4.33542C29.281 4.054 29.8258 4.10751 30.2141 4.35326C30.2439 4.3711 30.2756 4.3929 30.3073 4.4147C30.335 4.43848 30.3627 4.4583 30.3924 4.48208C30.6896 4.72584 30.9115 5.05879 31.1136 5.38976C32.8788 8.27334 33.8595 11.6286 33.9268 15.0096V15.0076Z" fill="#ECECEC" stroke="#082422" stroke-width="0.0765392" stroke-linecap="round" stroke-linejoin="round"/>
<path d="M36.1983 16.3374C36.23 16.159 36.2617 15.9787 36.2954 15.8023L35.6158 15.6695C36.2557 12.9583 36.8957 10.2492 37.5415 7.54197C37.7495 6.666 37.9576 5.77615 37.9516 4.87639C37.9437 3.97466 37.702 3.04715 37.1057 2.37333C36.1567 1.30313 34.5044 1.10891 33.1354 1.5251C31.8556 1.91552 30.764 2.74393 29.71 3.58423C29.8447 3.65162 29.9755 3.72494 30.1042 3.80422C30.2528 3.89935 30.3994 4.0024 30.5361 4.1114C30.55 4.11933 30.5619 4.12924 30.5738 4.14113L30.5876 4.14906C30.5995 4.155 30.6094 4.16095 30.6193 4.17086C30.6273 4.17482 30.6312 4.18077 30.6392 4.18671C31.3742 4.78126 31.9606 5.55815 32.4598 6.36674C34.1379 9.08186 34.9482 12.3162 34.758 15.4971H34.76C34.7501 15.6576 34.7402 15.8162 34.7243 15.9747C35.0215 16.0738 35.2988 16.2482 35.5901 16.377C35.703 16.4285 35.8278 16.4721 35.9526 16.4939C36.0358 16.4503 36.121 16.4167 36.2122 16.3929L36.1983 16.3374ZM35.1186 4.11537C35.1027 3.56838 35.18 2.87077 35.703 2.70033C36.0873 2.57349 36.5133 2.85293 36.6936 3.21561C36.8719 3.58027 36.8679 4.00636 36.856 4.41066C36.7332 8.01563 36.2597 11.6087 35.4454 15.1265C35.3365 11.4561 35.2295 7.78574 35.1186 4.11537Z" fill="white" stroke="#082422" stroke-width="0.0765392" stroke-linecap="round" stroke-linejoin="round"/>
<path d="M35.4428 15.1283C35.3339 11.458 35.2269 7.7876 35.116 4.11724C35.1001 3.57025 35.1774 2.87264 35.7004 2.7022C36.0847 2.57536 36.5107 2.8548 36.691 3.21748C36.8693 3.58214 36.8653 4.00823 36.8534 4.41253C36.7306 8.0175 36.2571 11.6106 35.4428 15.1283Z" fill="#ECECEC" stroke="#082422" stroke-width="0.0765392" stroke-linecap="round" stroke-linejoin="round"/>
</g>
<defs>
<clipPath id="clip0_664_11611">
<rect width="61" height="80" fill="white"/>
</clipPath>
</defs>
</svg>
