<svg width="51" height="80" viewBox="0 0 51 80" fill="none" xmlns="http://www.w3.org/2000/svg">
<g clip-path="url(#clip0_664_11595)">
<path d="M31.3742 26.2552C31.6453 26.292 32.0152 26.345 32.4092 26.4119C32.8034 26.4789 33.2211 26.559 33.5886 26.6492C33.9587 26.7399 34.2685 26.8386 34.4537 26.9397C34.476 26.9518 34.5166 26.9935 34.5702 27.0869C34.6212 27.1757 34.6767 27.2974 34.7348 27.4496C34.8508 27.7536 34.9749 28.1674 35.1027 28.6556C35.3581 29.6315 35.6251 30.8944 35.8677 32.1454C36.1101 33.3957 36.3278 34.6327 36.485 35.5573C36.5636 36.0196 36.6275 36.4043 36.6713 36.6728C36.6863 36.7653 36.6982 36.8442 36.7084 36.9077C36.6781 36.8943 36.6441 36.8792 36.6073 36.8623C36.4385 36.7846 36.2067 36.6701 35.9549 36.5222C35.4475 36.2243 34.872 35.7992 34.5564 35.2808C34.3967 35.0188 34.161 34.4962 33.8957 33.8515C33.6314 33.2092 33.3407 32.453 33.0701 31.7303C32.7996 31.0079 32.5491 30.3193 32.3668 29.811C32.2756 29.5569 32.202 29.3475 32.1506 29.2021C32.1248 29.1294 32.105 29.0722 32.0914 29.0336C32.0847 29.0144 32.0791 28.9995 32.0756 28.9896C32.0739 28.9848 32.0728 28.9809 32.0719 28.9784C32.0715 28.9773 32.0704 28.9768 32.0702 28.9762L32.0703 28.9753L31.0991 26.2194C31.1714 26.2286 31.265 26.2404 31.3742 26.2552Z" fill="#FFCE9B" stroke="#082422" stroke-width="0.209073" stroke-miterlimit="10" stroke-linecap="round" stroke-linejoin="round"/>
<path opacity="0.25" d="M32.0605 29.2598C32.4331 30.313 33.8955 34.397 34.4688 35.3372C35.1277 36.4182 36.8239 36.9401 36.8239 36.9401C36.8239 36.9401 36.5367 35.0251 36.2259 33.3873C34.9251 32.1369 33.3139 30.5187 32.0616 29.26L32.0605 29.2598Z" fill="#082422"/>
<path d="M21.6034 25.251C21.6061 25.2504 21.6094 25.2497 21.6124 25.249C21.6431 25.2426 21.6881 25.2333 21.7461 25.2213C21.863 25.1973 22.0325 25.1622 22.2415 25.121C22.6597 25.0384 23.2379 24.9287 23.8759 24.8183C25.1546 24.5969 26.6666 24.3763 27.6237 24.371C28.5879 24.3657 29.4347 24.4128 30.1105 24.5382C30.7905 24.6644 31.2785 24.8663 31.5462 25.154C31.5979 25.2095 31.6799 25.3489 31.7874 25.5702C31.8926 25.7868 32.0169 26.0698 32.1533 26.3997C32.4259 27.0593 32.7471 27.9035 33.0679 28.7762C33.7094 30.5213 34.3483 32.3783 34.5943 33.0992C34.6334 33.2132 34.5665 33.3365 34.4461 33.367C34.1643 33.437 33.74 33.5202 33.3291 33.5197C32.9126 33.519 32.539 33.4318 32.3256 33.1915C32.1686 33.0147 31.9429 32.6614 31.6902 32.2217C31.4391 31.7847 31.1655 31.2702 30.9121 30.7786C30.6588 30.287 30.426 29.8181 30.2565 29.4725C30.172 29.3 30.1028 29.1584 30.0552 29.0597C30.0313 29.0103 30.0136 28.971 30.001 28.9447C29.9949 28.932 29.9897 28.9224 29.9865 28.9157C29.9849 28.9123 29.9833 28.9091 29.9825 28.9074L29.9817 28.9053C29.9652 28.8706 29.9305 28.8473 29.892 28.8455L24.1482 28.5738L20.4355 26.8362L21.6034 25.251Z" fill="#FFCE9B" stroke="#082422" stroke-width="0.209073" stroke-miterlimit="10" stroke-linecap="round" stroke-linejoin="round"/>
<mask id="mask0_664_11595" style="mask-type:luminance" maskUnits="userSpaceOnUse" x="20" y="24" width="15" height="10">
<path d="M21.5457 25.157C21.5457 25.157 25.6904 24.2758 27.6242 24.2645C29.558 24.2532 31.0407 24.4536 31.6232 25.0801C32.1358 25.6311 34.1989 31.622 34.6906 33.0649C34.7499 33.238 34.6479 33.423 34.4693 33.4682C33.8988 33.6104 32.7338 33.8128 32.245 33.2621C31.5846 32.5184 29.9252 28.8541 29.9252 28.8541L24.1241 28.6783L20.2763 26.8782L21.5446 25.1568L21.5457 25.157Z" fill="white"/>
</mask>
<g mask="url(#mask0_664_11595)">
<path opacity="0.25" d="M23.083 12.5328C22.0058 14.4609 19.7654 18.5116 19.1494 19.6072C18.3505 21.0261 16.159 26.9651 15.2329 29.7683C14.8472 30.9364 13.5544 33.4846 14.72 34.7371C15.8845 35.9895 26.4705 46.2666 26.8319 47.9633C27.1944 49.6612 29.1351 68.8954 29.4312 71.4857C29.4816 71.925 29.5659 72.3556 29.9646 72.5462C31.3578 73.2139 34.1859 74.4994 37.8611 75.094C40.8933 75.5849 43.0566 75.0956 43.9211 74.845C44.4905 74.6801 44.6584 74.3177 44.5828 73.8813L39.9355 47.6398C39.8742 47.3001 39.8899 46.9506 39.9798 46.6171C40.2469 45.6208 40.7701 43.3052 40.2459 40.7877C39.8289 38.7814 38.2692 36.6047 35.9774 34.412C34.5918 33.0869 32.5945 31.1256 31.2221 29.7419C30.9857 29.458 29.1243 27.1466 28.8636 24.4809C28.5856 21.6332 27.3528 16.5113 26.4208 15.6104C26.068 15.2697 25.5851 15.1436 25.1209 15.1159C25.2711 14.5125 25.3669 14.012 25.3659 13.7117C25.3634 12.8051 23.6996 11.4316 23.084 12.534L23.083 12.5328ZM23.6179 27.9927L22.4255 27.3049C22.0563 27.0926 21.8697 26.6645 21.9642 26.2488C22.286 24.837 23.0031 21.7268 23.201 21.1432C23.2797 20.9116 23.513 20.2538 23.7982 19.4135C23.7974 19.4202 23.7991 19.426 23.7983 19.4328C23.8271 20.451 23.8468 21.4693 23.8395 22.2378C23.8281 23.4363 23.7206 25.891 23.6179 27.9927Z" fill="#082422"/>
</g>
<mask id="path-6-inside-1_664_11595" fill="white">
<path d="M32.4943 31.4609C32.5279 31.1542 32.7139 30.4404 33.7133 30.3508L34.5155 32.6208C34.518 32.629 34.5194 32.6371 34.5185 32.645C34.5159 32.6685 34.4991 32.687 34.4757 32.6936L33.8281 32.8871L32.4881 31.569C32.4882 31.5475 32.4901 31.5092 32.4955 31.4599M32.4382 31.4548C32.4289 31.5399 32.4309 31.5934 32.4309 31.5934L33.8107 32.952L34.4913 32.7485C34.5381 32.7354 34.5697 32.6958 34.5744 32.6522C34.5762 32.6365 34.5746 32.6193 34.5685 32.6028L33.7516 30.2915C32.6697 30.3676 32.4731 31.1358 32.4382 31.4548Z"/>
</mask>
<path d="M32.4943 31.4609C32.5279 31.1542 32.7139 30.4404 33.7133 30.3508L34.5155 32.6208C34.518 32.629 34.5194 32.6371 34.5185 32.645C34.5159 32.6685 34.4991 32.687 34.4757 32.6936L33.8281 32.8871L32.4881 31.569C32.4882 31.5475 32.4901 31.5092 32.4955 31.4599M32.4382 31.4548C32.4289 31.5399 32.4309 31.5934 32.4309 31.5934L33.8107 32.952L34.4913 32.7485C34.5381 32.7354 34.5697 32.6958 34.5744 32.6522C34.5762 32.6365 34.5746 32.6193 34.5685 32.6028L33.7516 30.2915C32.6697 30.3676 32.4731 31.1358 32.4382 31.4548Z" fill="#082422"/>
<path d="M32.2864 31.4383C32.2738 31.5531 32.3567 31.6563 32.4715 31.6688C32.5863 31.6812 32.6895 31.5983 32.7021 31.4835L32.4943 31.4609L32.2864 31.4383ZM33.7133 30.3508L33.9105 30.281C33.8787 30.191 33.79 30.134 33.6948 30.1426L33.7133 30.3508ZM34.5155 32.6208L34.7156 32.5596L34.7126 32.5511L34.5155 32.6208ZM34.4757 32.6936L34.4198 32.4921L34.416 32.4933L34.4757 32.6936ZM33.8281 32.8871L33.6814 33.0362C33.7357 33.0896 33.8147 33.1092 33.8878 33.0874L33.8281 32.8871ZM32.4881 31.569L32.279 31.5683C32.2788 31.6246 32.3013 31.6786 32.3414 31.7181L32.4881 31.569ZM32.7033 31.4825C32.7159 31.3678 32.6331 31.2646 32.5183 31.2521C32.4035 31.2396 32.3002 31.3226 32.2876 31.4374L32.4955 31.4599L32.7033 31.4825ZM32.4309 31.5934L32.222 31.6017C32.2241 31.6548 32.2463 31.7051 32.2841 31.7424L32.4309 31.5934ZM33.8107 32.952L33.6639 33.1011C33.7183 33.1545 33.7974 33.1742 33.8705 33.1523L33.8107 32.952ZM34.4913 32.7485L34.4353 32.5471L34.4315 32.5482L34.4913 32.7485ZM34.5685 32.6028L34.3713 32.6726L34.3725 32.6757L34.5685 32.6028ZM33.7516 30.2915L33.9488 30.2217C33.9175 30.1331 33.8309 30.0764 33.7371 30.083L33.7516 30.2915ZM32.4943 31.4609L32.7021 31.4835C32.7167 31.3506 32.7639 31.1379 32.9072 30.9519C33.0448 30.7733 33.2862 30.599 33.7318 30.559L33.7133 30.3508L33.6948 30.1426C33.141 30.1922 32.7897 30.4196 32.576 30.697C32.368 30.967 32.3055 31.2645 32.2864 31.4383L32.4943 31.4609ZM33.7133 30.3508L33.5162 30.4206L34.3183 32.6906L34.5155 32.6208L34.7126 32.5511L33.9105 30.281L33.7133 30.3508ZM34.5155 32.6208L34.3155 32.6821C34.3136 32.6758 34.3072 32.6534 34.3106 32.6224L34.5185 32.645L34.7263 32.6676C34.7315 32.6208 34.7224 32.5823 34.7154 32.5596L34.5155 32.6208ZM34.5185 32.645L34.3106 32.6224C34.3181 32.5539 34.3677 32.5067 34.4198 32.4922L34.4757 32.6936L34.5316 32.8949C34.6305 32.8674 34.7137 32.783 34.7263 32.6676L34.5185 32.645ZM34.4757 32.6936L34.416 32.4933L33.7683 32.6868L33.8281 32.8871L33.8878 33.0874L34.5354 32.8938L34.4757 32.6936ZM33.8281 32.8871L33.9748 32.738L32.6348 31.4199L32.4881 31.569L32.3414 31.7181L33.6814 33.0362L33.8281 32.8871ZM32.4881 31.569L32.6972 31.5697C32.6972 31.5572 32.6985 31.5265 32.7033 31.4825L32.4955 31.4599L32.2876 31.4374C32.2817 31.4919 32.2791 31.5378 32.279 31.5683L32.4881 31.569ZM32.4382 31.4548L32.2303 31.4322C32.225 31.4811 32.2228 31.5215 32.222 31.5506C32.2216 31.5651 32.2216 31.5769 32.2217 31.5855C32.2217 31.5898 32.2218 31.5934 32.2218 31.5961C32.2219 31.5974 32.2219 31.5986 32.2219 31.5995C32.2219 31.6 32.2219 31.6004 32.222 31.6008C32.222 31.6009 32.222 31.6011 32.222 31.6013C32.222 31.6013 32.222 31.6014 32.222 31.6015C32.222 31.6015 32.222 31.6016 32.222 31.6016C32.222 31.6016 32.222 31.6016 32.222 31.6016C32.222 31.6017 32.222 31.6017 32.4309 31.5934C32.6399 31.5851 32.6399 31.5851 32.6399 31.5851C32.6399 31.5851 32.6399 31.5852 32.6399 31.5852C32.6399 31.5852 32.6399 31.5852 32.6399 31.5853C32.6399 31.5853 32.6399 31.5854 32.6399 31.5854C32.6399 31.5855 32.6399 31.5856 32.6399 31.5857C32.6399 31.5859 32.6399 31.586 32.6399 31.586C32.6399 31.5861 32.6399 31.5861 32.6399 31.5858C32.6399 31.5852 32.6399 31.5839 32.6398 31.5819C32.6398 31.5778 32.6398 31.5709 32.6401 31.5615C32.6406 31.5425 32.6421 31.5136 32.646 31.4774L32.4382 31.4548ZM32.4309 31.5934L32.2841 31.7424L33.6639 33.1011L33.8107 32.952L33.9575 32.803L32.5777 31.4444L32.4309 31.5934ZM33.8107 32.952L33.8705 33.1523L34.551 32.9488L34.4913 32.7485L34.4315 32.5482L33.751 32.7518L33.8107 32.952ZM34.4913 32.7485L34.5472 32.9499C34.6774 32.9136 34.7683 32.8024 34.7823 32.6748L34.5744 32.6522L34.3666 32.6296C34.371 32.5893 34.3987 32.5573 34.4353 32.5471L34.4913 32.7485ZM34.5744 32.6522L34.7823 32.6748C34.7872 32.6301 34.7831 32.5799 34.7645 32.5299L34.5685 32.6028L34.3725 32.6757C34.3662 32.6588 34.3651 32.6429 34.3666 32.6296L34.5744 32.6522ZM34.5685 32.6028L34.7657 32.533L33.9488 30.2217L33.7516 30.2915L33.5545 30.3613L34.3714 32.6726L34.5685 32.6028ZM33.7516 30.2915L33.7371 30.083C33.1417 30.1249 32.7656 30.3617 32.5376 30.6534C32.3156 30.9374 32.25 31.2524 32.2303 31.4322L32.4382 31.4548L32.646 31.4774C32.6613 31.3382 32.7115 31.1096 32.867 30.9107C33.0164 30.7196 33.2795 30.5343 33.7661 30.5L33.7516 30.2915Z" fill="#082422" mask="url(#path-6-inside-1_664_11595)"/>
<path d="M12.621 30.6019C12.7672 29.8133 13.1031 29.0439 13.3002 28.4469C13.7627 27.0483 14.573 24.8619 15.3678 22.8475C16.1637 20.8302 16.9404 18.9949 17.3355 18.2932C17.9507 17.1993 20.1852 13.1584 21.2631 11.229C21.2644 11.2271 21.2665 11.2257 21.2677 11.2236C21.4046 10.9784 21.5925 10.8789 21.7978 10.8687C22.0106 10.8581 22.2546 10.9435 22.491 11.0963C22.726 11.2482 22.9445 11.4603 23.103 11.6883C23.2627 11.9181 23.3549 12.1541 23.3555 12.3513C23.3565 12.672 23.2416 13.2441 23.0589 13.9458C22.8773 14.6435 22.6319 15.4573 22.3777 16.2539C21.8691 17.8475 21.3287 19.3669 21.199 19.7485C21.0981 20.0464 20.8675 20.9757 20.6242 21.9994C20.3801 23.0266 20.1204 24.1575 19.9597 24.8633C19.8554 25.3235 20.0629 25.7978 20.472 26.0329L22.0615 26.9484C22.2377 27.0503 22.4389 27.1 22.6421 27.092L27.3462 26.9089C27.3413 26.9091 27.3481 26.9079 27.3718 26.9175C27.3932 26.9263 27.4211 26.9405 27.4555 26.961C27.5245 27.0021 27.6117 27.0636 27.7119 27.1402C27.9117 27.2928 28.1556 27.5007 28.3983 27.7167C28.8846 28.1496 29.3586 28.6081 29.4519 28.7075C30.4399 29.7632 32.0977 31.2946 34.0134 33.1257C36.2874 35.3001 36.9537 37.2449 37.3687 39.237C37.8578 41.5813 37.6454 43.8702 37.4003 44.9555L37.3508 45.1555C37.257 45.5036 37.2402 45.869 37.3045 46.2241L37.3054 46.2242L42.9517 76.7927C42.9866 76.9936 42.9632 77.1655 42.8771 77.3032C42.8123 77.4065 42.707 77.4999 42.5449 77.5726L42.364 77.6374C37.2797 78.8245 32.0792 79.027 28.4478 78.2416C28.1135 78.0768 28.0318 77.7103 27.9808 77.2675C27.8324 75.9744 27.2226 68.7422 26.6041 61.6169C26.295 58.0551 25.9837 54.521 25.7271 51.7711C25.5988 50.3964 25.4841 49.2174 25.3901 48.3288C25.2964 47.4434 25.2224 46.8388 25.1755 46.6198C25.1494 46.4978 25.0799 46.3448 24.9812 46.1694C24.8814 45.992 24.7471 45.7842 24.5833 45.5515C24.2557 45.0859 23.8074 44.5141 23.2778 43.8742C22.2183 42.5943 20.8287 41.0349 19.4149 39.4907C16.5882 36.4035 13.6556 33.3667 13.076 32.7437C12.5261 32.1529 12.4758 31.3858 12.621 30.6019Z" fill="#FFCE9B" stroke="#082422" stroke-width="0.209073" stroke-miterlimit="10" stroke-linecap="round" stroke-linejoin="round"/>
<path d="M37.1263 45.7762C37.0855 45.8636 37.0392 45.9586 36.9842 46.0594C36.7507 46.4872 36.3785 47.028 35.7929 47.6165L37.1263 45.7762Z" stroke="#082422" stroke-width="0.209073" stroke-miterlimit="10" stroke-linecap="round" stroke-linejoin="round"/>
<path d="M6.08011 24.2913L17.5835 2.08015C17.8349 1.59529 18.4326 1.40457 18.9186 1.65485L32.8426 8.82867C33.3285 9.07915 33.5185 9.67568 33.2675 10.1608L21.7641 32.3719C21.5128 32.857 20.9151 33.0476 20.429 32.7972L6.50503 25.6234C6.019 25.3728 5.82889 24.7764 6.08011 24.2913Z" fill="#2BF2F1" stroke="#082422" stroke-width="0.209073" stroke-miterlimit="10" stroke-linecap="round" stroke-linejoin="round"/>
<path d="M17.8974 28.557L22.7106 19.2612C22.7918 19.1043 22.9853 19.0424 23.1426 19.1234L23.1486 19.1265C23.306 19.2076 23.3672 19.4008 23.286 19.5577L18.4728 28.8535C18.3915 29.0104 18.1981 29.0724 18.0408 28.9913L18.0347 28.9882C17.8775 28.9071 17.8162 28.7139 17.8974 28.557Z" fill="white" stroke="#082422" stroke-width="0.209073" stroke-miterlimit="10" stroke-linecap="round" stroke-linejoin="round"/>
<path d="M19.6052 29.4353L27.6189 13.9578C27.7002 13.8013 27.8932 13.7399 28.0504 13.8209L28.0565 13.824C28.2136 13.905 28.2752 14.0975 28.1942 14.2544L20.1806 29.7318C20.0993 29.8887 19.9059 29.9507 19.7486 29.8696L19.7425 29.8665C19.5853 29.7854 19.524 29.5922 19.6052 29.4353Z" fill="white" stroke="#082422" stroke-width="0.209073" stroke-miterlimit="10" stroke-linecap="round" stroke-linejoin="round"/>
<path d="M13.1268 26.3565C12.8715 26.2244 12.7715 25.9163 12.8997 25.6688L14.4379 22.6993C14.5661 22.4517 14.8754 22.354 15.1304 22.4857L15.1313 22.4858L16.8999 23.3968C17.1551 23.5289 17.2541 23.837 17.1261 24.0844L15.5877 27.0549C15.4594 27.3021 15.1501 27.4001 14.8953 27.2685L14.8954 27.2675L13.1268 26.3565Z" fill="#FFCE9B" stroke="#082422" stroke-width="0.209073" stroke-miterlimit="10" stroke-linecap="round" stroke-linejoin="round"/>
<path d="M14.2697 22.6123L12.7319 25.5825C12.5561 25.9236 12.6937 26.3442 13.0395 26.5222L14.8083 27.4336C15.1552 27.6118 15.5781 27.4809 15.7551 27.1399L17.2928 24.1697C17.4687 23.8285 17.331 23.4079 16.9852 23.2299L15.2165 22.3185C14.8695 22.1403 14.4467 22.2712 14.2697 22.6123ZM14.6415 24.2489C14.6415 24.2489 14.6449 24.2493 14.646 24.2494C14.6547 24.2526 14.6637 24.2536 14.6728 24.2535C14.675 24.2537 14.6762 24.2538 14.6773 24.254C14.6864 24.2538 14.6946 24.2513 14.7029 24.2477C14.7029 24.2477 14.7052 24.2479 14.7063 24.248C15.0566 24.0855 15.477 24.2354 15.6453 24.5834C15.673 24.6407 15.6926 24.7006 15.7039 24.7631C15.7038 24.7642 15.7048 24.7654 15.7057 24.7667C15.7095 24.7841 15.7191 24.7998 15.7337 24.8116C15.7368 24.8142 15.7388 24.8167 15.7421 24.8182C15.7443 24.8184 15.7462 24.822 15.7483 24.8234L16.5515 25.238L16.1959 25.9245L15.3916 25.5098C15.3916 25.5098 15.3871 25.5093 15.385 25.5079C15.3816 25.5075 15.3784 25.5061 15.3751 25.5046C15.3674 25.5026 15.3597 25.5006 15.3527 25.5021C15.3505 25.5019 15.3482 25.5016 15.347 25.5026C15.3379 25.5028 15.3286 25.5052 15.3202 25.5088C15.3202 25.5088 15.3191 25.5087 15.318 25.5086C14.9687 25.6723 14.5472 25.5223 14.3788 25.1744C14.3511 25.117 14.3316 25.0571 14.3203 24.9947C14.3203 24.9947 14.3203 24.9947 14.3205 24.9924C14.3182 24.9831 14.3156 24.9749 14.3108 24.9676C14.3098 24.9663 14.3089 24.964 14.3079 24.9627C14.3029 24.9565 14.2978 24.9514 14.2916 24.9462C14.2884 24.9436 14.2864 24.9411 14.2832 24.9397C14.281 24.9394 14.2802 24.9359 14.278 24.9357L13.4736 24.521L13.8292 23.8345L14.6336 24.2492C14.6336 24.2492 14.6402 24.2511 14.6424 24.2513L14.6415 24.2489ZM16.3409 23.0841L15.6887 24.3433C15.5379 24.1559 15.3149 24.0377 15.0741 24.0195L15.7233 22.7666L16.3407 23.0852L16.3409 23.0841ZM13.6989 26.6765L14.3482 25.4226C14.5027 25.607 14.7285 25.721 14.9698 25.7347L14.3176 26.994L13.699 26.6754L13.6989 26.6765ZM12.8812 25.6598L13.3966 24.6644L14.1655 25.0606C14.1816 25.1314 14.2071 25.1988 14.2408 25.2636L13.5496 26.5991L13.1158 26.3753C12.8517 26.239 12.7473 25.9184 12.8813 25.6587L12.8812 25.6598ZM14.8844 27.2878L14.4657 27.0713L15.1626 25.7251C15.2285 25.7141 15.2917 25.6961 15.3524 25.6709L16.1213 26.0671L15.6058 27.0625C15.4707 27.322 15.1488 27.4219 14.8845 27.2867L14.8844 27.2878ZM17.1446 24.0935L16.6291 25.0889L15.8602 24.6928C15.8457 24.6289 15.823 24.5664 15.7944 24.5066L16.4912 23.1616L16.9099 23.3781C17.1741 23.5144 17.2785 23.835 17.1445 24.0946L17.1446 24.0935ZM15.574 22.6893L14.8828 24.0248C14.8114 24.0351 14.7401 24.0534 14.6735 24.0813L13.9046 23.6852L14.4201 22.6898C14.5552 22.4302 14.877 22.3304 15.1413 22.4656L15.574 22.6893Z" fill="#082422"/>
<mask id="mask1_664_11595" style="mask-type:luminance" maskUnits="userSpaceOnUse" x="5" y="1" width="29" height="33">
<path d="M17.4949 2.03221L5.98731 24.2463C5.70931 24.783 5.91947 25.4424 6.45672 25.7191L20.3761 32.8896C20.9134 33.1663 21.5743 32.9556 21.8523 32.419L33.3599 10.2049C33.6379 9.66822 33.4277 9.00882 32.8905 8.73206L18.9711 1.56163C18.4338 1.28487 17.7729 1.49555 17.4949 2.03221Z" fill="white"/>
</mask>
<g mask="url(#mask1_664_11595)">
<path opacity="0.25" d="M31.257 29.6674C31.257 29.6674 29.1534 27.2244 28.8757 24.3767C28.598 21.5289 27.3661 16.407 26.4344 15.5061C26.051 15.136 25.5118 15.0175 25.0118 15.0064C24.2743 14.9899 23.6755 15.5991 23.7057 16.3354C23.7688 17.8548 23.8678 20.5336 23.8527 22.1351C23.8314 24.4644 23.4425 31.5395 23.4425 31.5395" fill="#082422"/>
</g>
<mask id="path-17-inside-2_664_11595" fill="white">
<path d="M30.8525 29.9783C30.8525 29.9783 28.5321 27.9252 28.3238 24.5619C28.1471 21.7062 26.8114 16.5926 25.8791 15.6917C25.4955 15.3215 24.956 15.2029 24.4559 15.1916C23.718 15.175 23.1192 15.784 23.1496 16.5202C23.2131 18.0394 23.3129 20.718 23.2982 22.3194C23.2775 24.6485 22.8903 31.7228 22.8903 31.7228"/>
</mask>
<path d="M30.8525 29.9783C30.8525 29.9783 28.5321 27.9252 28.3238 24.5619C28.1471 21.7062 26.8114 16.5926 25.8791 15.6917C25.4955 15.3215 24.956 15.2029 24.4559 15.1916C23.718 15.175 23.1192 15.784 23.1496 16.5202C23.2131 18.0394 23.3129 20.718 23.2982 22.3194C23.2775 24.6485 22.8903 31.7228 22.8903 31.7228" fill="#FFCE9B"/>
<path d="M30.7138 30.1349C30.8002 30.2114 30.9324 30.2033 31.009 30.1168C31.0856 30.0303 31.0776 29.8982 30.9912 29.8217L30.8525 29.9783L30.7138 30.1349ZM28.3238 24.5619L28.1151 24.5751L28.1151 24.5751L28.3238 24.5619ZM25.8791 15.6917L26.0245 15.5413L26.0244 15.5412L25.8791 15.6917ZM24.4559 15.1916L24.4509 15.4006L24.4509 15.4006L24.4559 15.1916ZM23.1496 16.5202L22.9406 16.5291L22.9406 16.5292L23.1496 16.5202ZM23.2982 22.3194L23.0891 22.3177L23.0891 22.3178L23.2982 22.3194ZM22.6815 31.7116C22.6752 31.8269 22.7636 31.9254 22.8789 31.9316C22.9942 31.9377 23.0928 31.8493 23.0991 31.734L22.8903 31.7228L22.6815 31.7116ZM30.8525 29.9783C30.9912 29.8217 30.9912 29.8218 30.9912 29.8218C30.9912 29.8218 30.9913 29.8218 30.9913 29.8218C30.9913 29.8218 30.9913 29.8218 30.9912 29.8218C30.9911 29.8217 30.9908 29.8214 30.9904 29.8211C30.9896 29.8204 30.9883 29.8191 30.9864 29.8174C30.9826 29.814 30.9768 29.8087 30.9689 29.8013C30.9532 29.7867 30.9295 29.7643 30.899 29.7343C30.8379 29.6744 30.7494 29.5841 30.6421 29.465C30.4273 29.2267 30.1378 28.8736 29.8417 28.4174C29.249 27.5045 28.6338 26.1848 28.5325 24.5488L28.3238 24.5619L28.1151 24.5751C28.2221 26.3024 28.8712 27.6909 29.4908 28.6453C29.8008 29.1229 30.1044 29.4933 30.3312 29.745C30.4447 29.8709 30.5391 29.9673 30.6057 30.0328C30.6391 30.0655 30.6655 30.0905 30.6838 30.1076C30.693 30.1161 30.7002 30.1227 30.7052 30.1273C30.7077 30.1295 30.7097 30.1313 30.7112 30.1326C30.7119 30.1332 30.7125 30.1338 30.7129 30.1342C30.7131 30.1344 30.7133 30.1345 30.7134 30.1346C30.7135 30.1347 30.7136 30.1348 30.7136 30.1348C30.7137 30.1349 30.7138 30.1349 30.8525 29.9783ZM28.3238 24.5619L28.5325 24.5488C28.443 23.102 28.0614 21.095 27.5867 19.339C27.3491 18.4602 27.0868 17.6391 26.8239 16.9787C26.6924 16.6485 26.5596 16.3555 26.4283 16.1143C26.2985 15.8759 26.1637 15.6757 26.0245 15.5413L25.8791 15.6917L25.7337 15.842C25.8277 15.9328 25.9385 16.0896 26.0609 16.3144C26.1818 16.5364 26.3077 16.8131 26.4353 17.1337C26.6905 17.7746 26.948 18.5794 27.1829 19.4485C27.6533 21.1885 28.0279 23.1661 28.1151 24.5751L28.3238 24.5619ZM25.8791 15.6917L26.0244 15.5412C25.586 15.1181 24.9836 14.9944 24.4608 14.9826L24.4559 15.1916L24.4509 15.4006C24.9284 15.4114 25.405 15.5249 25.7338 15.8422L25.8791 15.6917ZM24.4559 15.1916L24.4608 14.9826C23.6025 14.9633 22.9053 15.6718 22.9406 16.5291L23.1496 16.5202L23.3585 16.5114C23.3331 15.8961 23.8336 15.3867 24.4509 15.4006L24.4559 15.1916ZM23.1496 16.5202L22.9406 16.5292C23.0043 18.0494 23.1037 20.7226 23.0891 22.3177L23.2982 22.3194L23.5073 22.3211C23.522 20.7135 23.422 18.0295 23.3585 16.5112L23.1496 16.5202ZM23.2982 22.3194L23.0891 22.3178C23.0788 23.4774 22.9771 25.8238 22.8776 27.8847C22.828 28.9142 22.7789 29.8709 22.7423 30.5704C22.724 30.9201 22.7088 31.2054 22.6982 31.4033C22.6929 31.5023 22.6887 31.5794 22.6859 31.6317C22.6845 31.6579 22.6834 31.6779 22.6826 31.6913C22.6823 31.698 22.682 31.7031 22.6818 31.7065C22.6817 31.7082 22.6816 31.7095 22.6816 31.7103C22.6816 31.7108 22.6816 31.7111 22.6816 31.7113C22.6815 31.7114 22.6815 31.7115 22.6815 31.7115C22.6815 31.7116 22.6815 31.7116 22.8903 31.7228C23.0991 31.734 23.0991 31.734 23.0991 31.7339C23.0991 31.7339 23.0991 31.7338 23.0991 31.7337C23.0991 31.7334 23.0992 31.7331 23.0992 31.7327C23.0992 31.7318 23.0993 31.7305 23.0994 31.7288C23.0996 31.7254 23.0999 31.7203 23.1002 31.7136C23.101 31.7001 23.102 31.6801 23.1035 31.6539C23.1063 31.6015 23.1105 31.5243 23.1158 31.4253C23.1264 31.2272 23.1416 30.9417 23.16 30.5917C23.1966 29.8919 23.2456 28.9346 23.2954 27.9043C23.3947 25.8458 23.4969 23.4905 23.5073 22.321L23.2982 22.3194Z" fill="#082422" mask="url(#path-17-inside-2_664_11595)"/>
<path d="M23.2785 16.2068C23.5184 15.9895 23.8374 15.9331 24.1136 15.9379C24.2541 15.9404 24.3791 15.9581 24.4691 15.9755C24.502 15.9819 24.5303 15.9891 24.5525 15.9944C24.5547 16.0048 24.5577 16.0169 24.5604 16.0296C24.5737 16.0924 24.5921 16.1827 24.614 16.2928C24.658 16.5142 24.7149 16.816 24.7651 17.1363C24.8154 17.4568 24.8588 17.7946 24.8776 18.0896C24.8967 18.3897 24.8883 18.629 24.845 18.7629C24.8094 18.8723 24.7168 18.9711 24.5749 19.0577C24.4341 19.1436 24.2561 19.2109 24.073 19.2625C23.7932 19.3414 23.5115 19.3787 23.352 19.3964C23.3211 18.3331 23.281 17.2788 23.2485 16.5159C23.2485 16.5146 23.2471 16.5131 23.247 16.5118C23.2441 16.4066 23.2564 16.3047 23.2785 16.2068Z" fill="#FFCE9B" stroke="#082422" stroke-width="0.209073" stroke-miterlimit="10" stroke-linecap="round" stroke-linejoin="round"/>
</g>
<defs>
<clipPath id="clip0_664_11595">
<rect width="51" height="80" fill="white"/>
</clipPath>
</defs>
</svg>
