<svg width="210" height="80" viewBox="0 0 210 80" fill="none" xmlns="http://www.w3.org/2000/svg">
<g clip-path="url(#clip0_664_11563)">
<path d="M115.04 64.3091C115.04 64.3091 113.812 65.7094 113.132 66.7898C113.077 66.8802 113.027 66.9667 112.988 67.0503C114.287 67.1231 115.431 67.4593 116.139 67.7003C116.562 67.8456 117.007 68.0284 117.266 68.3875C117.749 68.1082 118.202 67.7325 118.583 67.2573C120.322 65.09 120.793 64.2867 120.793 64.2867L115.04 64.3091Z" fill="#E1776E"/>
<path d="M115.039 64.3098C115.039 64.3098 113.811 65.7099 113.131 66.7902C111.519 69.3495 116.184 71.7657 119.039 67.3471C120.778 65.18 120.79 64.292 120.79 64.292" fill="#FFCE9B"/>
<path d="M113.131 66.7902L113.166 66.8121L113.166 66.8121L113.131 66.7902ZM119.039 67.3471L119.006 67.3212L119.004 67.3248L119.039 67.3471ZM115.039 64.3098C115.008 64.2827 115.008 64.2827 115.008 64.2827C115.008 64.2827 115.008 64.2827 115.008 64.2827C115.008 64.2828 115.008 64.2828 115.008 64.2829C115.008 64.2831 115.007 64.2834 115.007 64.2837C115.007 64.2844 115.006 64.2854 115.004 64.2868C115.002 64.2895 114.999 64.2935 114.994 64.2987C114.985 64.3093 114.971 64.3249 114.954 64.3452C114.919 64.3856 114.868 64.4446 114.805 64.5188C114.679 64.6671 114.504 64.8762 114.308 65.119C113.916 65.6044 113.437 66.2261 113.096 66.7683L113.131 66.7902L113.166 66.8121C113.504 66.2741 113.98 65.6555 114.372 65.1707C114.568 64.9285 114.742 64.72 114.868 64.572C114.931 64.498 114.981 64.4392 115.016 64.3989C115.033 64.3788 115.047 64.3632 115.056 64.3527C115.061 64.3475 115.064 64.3435 115.066 64.3409C115.068 64.3395 115.068 64.3385 115.069 64.3379C115.069 64.3375 115.07 64.3373 115.07 64.3371C115.07 64.337 115.07 64.337 115.07 64.3369C115.07 64.3369 115.07 64.3369 115.07 64.3369C115.07 64.3369 115.07 64.3369 115.039 64.3098ZM113.131 66.7902L113.096 66.7683C112.686 67.4193 112.674 68.0654 112.936 68.5965C113.197 69.1262 113.729 69.5366 114.399 69.725C115.741 70.1024 117.638 69.5909 119.073 67.3693L119.039 67.3471L119.004 67.3248C117.585 69.5218 115.722 70.0116 114.421 69.6457C113.77 69.4625 113.259 69.0651 113.01 68.5601C112.761 68.0565 112.77 67.4408 113.166 66.8121L113.131 66.7902ZM119.039 67.3471L119.071 67.3728C119.942 66.2873 120.382 65.5205 120.604 65.0236C120.715 64.7752 120.772 64.5941 120.801 64.4742C120.816 64.4143 120.823 64.3697 120.827 64.3397C120.829 64.3246 120.83 64.3133 120.831 64.3054C120.831 64.3015 120.831 64.2985 120.831 64.2963C120.831 64.2953 120.831 64.2944 120.831 64.2938C120.831 64.2935 120.831 64.2932 120.831 64.293C120.831 64.2929 120.831 64.2928 120.831 64.2927C120.831 64.2927 120.831 64.2926 120.831 64.2926C120.831 64.2925 120.831 64.2925 120.79 64.292C120.749 64.2915 120.749 64.2914 120.749 64.2914C120.749 64.2914 120.749 64.2914 120.749 64.2914C120.749 64.2913 120.749 64.2913 120.749 64.2913C120.749 64.2913 120.749 64.2914 120.749 64.2915C120.749 64.2917 120.749 64.2922 120.749 64.2929C120.749 64.2942 120.749 64.2964 120.749 64.2995C120.748 64.3058 120.747 64.3156 120.745 64.3291C120.742 64.3561 120.735 64.3978 120.721 64.455C120.693 64.5694 120.638 64.7457 120.529 64.9901C120.31 65.479 119.875 66.2398 119.006 67.3213L119.039 67.3471Z" fill="#082422"/>
<path d="M126.714 67.1161C125.603 70.5368 124.299 73.5025 121.66 72.9642C120.588 72.7453 119.498 71.2514 120.037 68.3843L120.6 65.3584" fill="#FFCE9B"/>
<path d="M121.66 72.9642L121.652 73.0046L121.652 73.0046L121.66 72.9642ZM120.037 68.3843L120.077 68.3918L120.077 68.3918L120.037 68.3843ZM126.714 67.1161L126.675 67.1034C126.119 68.814 125.517 70.4048 124.726 71.5007C124.332 72.0482 123.891 72.4699 123.388 72.7218C122.886 72.9733 122.32 73.0567 121.669 72.9239L121.66 72.9642L121.652 73.0046C122.32 73.1409 122.906 73.0555 123.425 72.7954C123.944 72.5357 124.393 72.1031 124.793 71.5488C125.592 70.4412 126.198 68.8389 126.754 67.1288L126.714 67.1161ZM121.66 72.9642L121.669 72.9239C120.63 72.7119 119.54 71.2509 120.077 68.3918L120.037 68.3843L119.996 68.3767C119.456 71.2519 120.546 72.7787 121.652 73.0046L121.66 72.9642ZM120.037 68.3843L120.077 68.3918L120.64 65.3659L120.6 65.3584L120.559 65.351L119.996 68.3768L120.037 68.3843Z" fill="#082422"/>
<path d="M209.303 52.306C206.692 52.8233 199.192 53.9869 196.579 54.5404C186.097 56.7612 170.316 58.4144 162.902 63.3146C159.429 65.9412 157.485 66.6585 153.545 68.4519C151.744 69.2723 150.053 70.3044 148.257 71.1303C147.492 71.4818 147.005 71.8847 146.455 72.4482C145.969 72.9471 145.46 73.2885 144.757 73.4121C143.999 73.5447 143.954 73.6368 143.214 73.4138C142.044 73.0633 140.972 71.9508 140.597 70.7758C140.408 70.1906 140.415 69.5647 140.442 68.9524C140.486 67.9984 140.581 67.0492 140.733 66.1057C140.858 65.3009 141.1 64.752 141.406 64.0333C141.768 63.191 141.797 62.1099 141.95 61.2097C142.129 60.1707 142.307 59.1363 142.528 58.105C143.218 54.8584 144.283 51.4274 146.872 49.1735C148.828 47.4676 151.415 46.7162 153.913 46.0104C159.099 44.548 164.281 43.0848 169.468 41.6224C170.686 41.2782 171.92 40.9274 173.012 40.2869C174.243 39.5623 208.257 26.9973 209.309 26.0288" fill="#FFCE9B"/>
<path d="M196.579 54.5404L196.571 54.5001L196.579 54.5404ZM162.902 63.3146L162.879 63.2802L162.877 63.2818L162.902 63.3146ZM153.545 68.4519L153.528 68.4145L153.528 68.4145L153.545 68.4519ZM148.257 71.1303L148.274 71.1677L148.274 71.1677L148.257 71.1303ZM146.455 72.4482L146.425 72.4195L146.425 72.4195L146.455 72.4482ZM144.757 73.4121L144.764 73.4526L144.764 73.4526L144.757 73.4121ZM143.214 73.4138L143.226 73.3745L143.226 73.3744L143.214 73.4138ZM140.597 70.7758L140.636 70.7632L140.636 70.7632L140.597 70.7758ZM140.442 68.9524L140.401 68.9506L140.401 68.9506L140.442 68.9524ZM140.733 66.1057L140.773 66.1122L140.773 66.112L140.733 66.1057ZM141.406 64.0333L141.368 64.0171L141.368 64.0172L141.406 64.0333ZM141.95 61.2097L141.91 61.2027L141.91 61.2028L141.95 61.2097ZM142.528 58.105L142.568 58.1136L142.568 58.1135L142.528 58.105ZM146.872 49.1735L146.899 49.2045L146.899 49.2045L146.872 49.1735ZM153.913 46.0104L153.902 45.9708L153.902 45.9708L153.913 46.0104ZM169.468 41.6224L169.479 41.662L169.479 41.662L169.468 41.6224ZM173.012 40.2869L173.033 40.3224L173.033 40.3224L173.012 40.2869ZM209.303 52.306L209.295 52.2656C207.99 52.5241 205.463 52.9442 202.935 53.369C200.407 53.7937 197.878 54.2232 196.571 54.5001L196.579 54.5404L196.588 54.5806C197.893 54.3041 200.42 53.875 202.949 53.4502C205.476 53.0255 208.005 52.6051 209.311 52.3463L209.303 52.306ZM196.579 54.5404L196.571 54.5001C193.951 55.0552 191 55.5748 187.93 56.1186C184.861 56.6625 181.673 57.2306 178.582 57.8824C172.399 59.1858 166.593 60.8254 162.879 63.2803L162.902 63.3146L162.924 63.3489C166.624 60.9036 172.416 59.2664 178.598 57.963C181.689 57.3114 184.875 56.7435 187.945 56.1997C191.014 55.6559 193.966 55.136 196.588 54.5806L196.579 54.5404ZM162.902 63.3146L162.877 63.2818C159.408 65.9051 157.469 66.6206 153.528 68.4145L153.545 68.4519L153.562 68.4894C157.501 66.6964 159.449 65.9773 162.927 63.3474L162.902 63.3146ZM153.545 68.4519L153.528 68.4145C152.626 68.8253 151.752 69.289 150.88 69.7527C150.007 70.2166 149.136 70.6806 148.239 71.0929L148.257 71.1303L148.274 71.1677C149.173 70.7541 150.046 70.2891 150.919 69.8254C151.791 69.3615 152.663 68.899 153.562 68.4893L153.545 68.4519ZM148.257 71.1303L148.239 71.0929C147.469 71.4472 146.978 71.8537 146.425 72.4195L146.455 72.4482L146.484 72.4769C147.032 71.9157 147.515 71.5164 148.274 71.1677L148.257 71.1303ZM146.455 72.4482L146.425 72.4195C145.944 72.9143 145.442 73.2499 144.75 73.3715L144.757 73.4121L144.764 73.4526C145.478 73.327 145.995 72.9798 146.484 72.4769L146.455 72.4482ZM144.757 73.4121L144.75 73.3715C144.56 73.4048 144.414 73.4356 144.292 73.4593C144.17 73.483 144.073 73.4995 143.976 73.5052C143.785 73.5165 143.594 73.4855 143.226 73.3745L143.214 73.4138L143.202 73.4532C143.573 73.5651 143.775 73.5995 143.981 73.5874C144.083 73.5813 144.185 73.5639 144.308 73.54C144.431 73.5161 144.575 73.4857 144.764 73.4526L144.757 73.4121ZM143.214 73.4138L143.226 73.3744C142.07 73.0281 141.007 71.9264 140.636 70.7632L140.597 70.7758L140.557 70.7883C140.936 71.9753 142.018 73.0985 143.202 73.4533L143.214 73.4138ZM140.597 70.7758L140.636 70.7632C140.45 70.1857 140.456 69.5665 140.484 68.9543L140.442 68.9524L140.401 68.9506C140.374 69.563 140.367 70.1955 140.557 70.7884L140.597 70.7758ZM140.442 68.9524L140.484 68.9543C140.527 68.0018 140.622 67.0541 140.773 66.1122L140.733 66.1057L140.692 66.0992C140.54 67.0444 140.445 67.9951 140.401 68.9506L140.442 68.9524ZM140.733 66.1057L140.773 66.112C140.898 65.313 141.137 64.7685 141.444 64.0494L141.406 64.0333L141.368 64.0172C141.062 64.7355 140.819 65.2889 140.692 66.0994L140.733 66.1057ZM141.406 64.0333L141.444 64.0495C141.627 63.6234 141.726 63.1382 141.797 62.6491C141.87 62.1568 141.914 61.6672 141.991 61.2165L141.95 61.2097L141.91 61.2028C141.833 61.6523 141.787 62.1534 141.716 62.6373C141.644 63.1244 141.547 63.601 141.368 64.0171L141.406 64.0333ZM141.95 61.2097L141.991 61.2166C142.17 60.1775 142.348 59.1439 142.568 58.1136L142.528 58.105L142.488 58.0964C142.267 59.1287 142.089 60.1639 141.91 61.2027L141.95 61.2097ZM142.528 58.105L142.568 58.1135C143.258 54.8677 144.321 51.4488 146.899 49.2045L146.872 49.1735L146.845 49.1424C144.245 51.406 143.178 54.8491 142.488 58.0965L142.528 58.105ZM146.872 49.1735L146.899 49.2045C148.847 47.5056 151.425 46.7562 153.924 46.05L153.913 46.0104L153.902 45.9708C151.406 46.6761 148.809 47.4295 146.845 49.1425L146.872 49.1735ZM153.913 46.0104L153.924 46.05C156.517 45.3188 159.109 44.5874 161.702 43.856C164.294 43.1246 166.886 42.3932 169.479 41.662L169.468 41.6224L169.457 41.5828C166.863 42.314 164.271 43.0454 161.679 43.7768C159.087 44.5082 156.495 45.2396 153.902 45.9708L153.913 46.0104ZM169.468 41.6224L169.479 41.662C170.697 41.3181 171.936 40.966 173.033 40.3224L173.012 40.2869L172.991 40.2515C171.905 40.8888 170.676 41.2384 169.457 41.5828L169.468 41.6224ZM173.012 40.2869L173.033 40.3224C173.107 40.2789 173.309 40.1885 173.627 40.056C173.943 39.9241 174.372 39.7516 174.897 39.5442C175.947 39.1295 177.38 38.5755 179.07 37.928C182.448 36.633 186.848 34.9643 191.243 33.2878C195.637 31.6113 200.026 29.9272 203.382 28.6016C205.061 27.9388 206.481 27.3656 207.514 26.9277C208.031 26.7088 208.452 26.5235 208.76 26.3778C208.914 26.3049 209.04 26.2417 209.136 26.1889C209.231 26.1368 209.3 26.0931 209.337 26.0591L209.309 26.0288L209.282 25.9986C209.253 26.025 209.192 26.0645 209.096 26.1168C209.002 26.1684 208.878 26.2308 208.724 26.3034C208.418 26.4484 207.999 26.6332 207.482 26.8519C206.45 27.2894 205.03 27.8623 203.352 28.525C199.996 29.8504 195.608 31.5344 191.213 33.2109C186.819 34.8873 182.419 36.5562 179.04 37.8512C177.351 38.4987 175.917 39.0528 174.867 39.4677C174.342 39.6751 173.912 39.8479 173.595 39.9801C173.279 40.1117 173.071 40.2044 172.991 40.2515L173.012 40.2869Z" fill="#082422"/>
<path d="M131.609 71.0478C131.818 71.6271 132.423 72.4906 133.444 72.8995C134.167 73.1863 134.139 72.8988 134.857 72.5914C136.401 71.939 137.489 70.3361 137.528 68.6633C137.565 67.0958 136.546 65.4428 135.009 65.1344C133.642 64.8624 132.072 65.6536 131.379 66.8558C130.63 68.153 131.127 69.7 131.609 71.0478Z" fill="#FFCE9B" stroke="#082422" stroke-width="0.0823034" stroke-miterlimit="10"/>
<path d="M145.355 69.8657C147.36 70.0595 149.153 68.5818 149.344 66.5778L151.151 47.8788C151.347 45.8757 149.869 44.0849 147.864 43.8957L102.926 39.5935C100.921 39.3998 99.1275 40.8775 98.9367 42.8815L97.1292 61.5804C96.9337 63.5836 98.4113 65.3744 100.417 65.5635L145.355 69.8657Z" fill="#2BF2F1" stroke="#082422" stroke-width="0.0823034" stroke-miterlimit="10"/>
<path d="M117.703 40.9987L117.714 40.8847C117.724 40.8023 117.659 40.7265 117.576 40.7164L111.485 40.1326C111.402 40.1226 111.326 40.1876 111.316 40.2705L111.306 40.3845L117.703 40.9986L117.703 40.9987Z" fill="#2BF2F1" stroke="#082422" stroke-width="0.0823034" stroke-miterlimit="10"/>
<path d="M99.8706 42.8483C100.096 41.3187 101.49 40.2134 103.048 40.3614L147.603 44.6268C148.38 44.7008 149.083 45.0748 149.58 45.6779C150.078 46.2817 150.312 47.0435 150.237 47.8225L148.445 66.3614L148.408 66.6208C148.283 67.2939 147.928 67.8965 147.391 68.3385C146.787 68.8364 146.024 69.0703 145.245 68.996L100.691 64.7309C99.9134 64.6569 99.21 64.2838 98.7121 63.6805C98.2144 63.0768 97.9813 62.315 98.0562 61.5361L98.2445 59.6006L99.5848 45.7619L99.8527 42.998L99.8706 42.8483ZM101.096 43.1158L101.097 43.1198L101.096 43.1196L100.829 45.8809L99.4898 59.7197L99.3006 61.6551C99.2577 62.1014 99.3913 62.5389 99.6775 62.8858C99.9633 63.2321 100.366 63.4455 100.811 63.4878L145.365 67.7541L145.533 67.7613C145.921 67.7602 146.294 67.6267 146.598 67.3763C146.945 67.0904 147.159 66.6879 147.201 66.2426L148.994 47.7027C149.032 47.3112 148.933 46.9278 148.716 46.6056L148.616 46.4718C148.33 46.1256 147.928 45.9121 147.483 45.8698L102.928 41.6035C102.057 41.521 101.275 42.1238 101.118 42.9678L101.096 43.1158Z" fill="#2BF2F1" stroke="#082422" stroke-width="0.0823034" stroke-miterlimit="10"/>
<path d="M100.228 42.9509C100.352 41.6536 101.51 40.6982 102.808 40.8214L147.747 45.1241C149.045 45.2475 149.999 46.4029 149.874 47.7045L148.068 66.4047C147.943 67.7019 146.785 68.6564 145.482 68.5324L100.543 64.2306C99.2453 64.1071 98.291 62.951 98.4162 61.6492L98.6064 59.6981L99.958 45.7394L100.228 42.9509Z" fill="#274B4B" stroke="#082422" stroke-width="0.0823034" stroke-miterlimit="10"/>
<path d="M100.269 42.9547L99.9991 45.7435L98.6475 59.7017L98.4568 61.6531C98.3338 62.9324 99.2721 64.0683 100.548 64.1894L145.486 68.4917C146.767 68.6136 147.904 67.6752 148.026 66.4004L149.834 47.7011C149.957 46.4218 149.018 45.286 147.743 45.1649L102.804 40.8626C101.529 40.7415 100.391 41.6799 100.269 42.9547Z" stroke="#082422" stroke-width="0.0823034" stroke-miterlimit="10"/>
<g style="mix-blend-mode:multiply" opacity="0.1">
<path d="M148.89 44.7156L126.862 42.6042C127.251 42.8136 127.676 42.9712 128.083 43.1098C131.09 44.1201 134.157 44.5873 137.105 45.7768C142.09 47.7921 146.622 49.4963 150.675 52.8916L151.195 47.5126C151.331 46.1015 150.302 44.8498 148.89 44.7156Z" fill="#082422"/>
</g>
<path d="M209.417 52.3073L209.424 25.7729C204.06 27.9259 177.981 36.6806 172.197 38.4522C167.368 39.9312 162.718 41.5812 157.751 40.6239C156.082 40.3007 148.833 37.417 139.917 37.4683C137.573 37.4674 133.092 37.7085 130.829 38.032C130.288 38.1372 127.617 38.7192 127.111 38.9248C126.124 39.3257 125.465 40.2495 125.912 41.7061C126.513 43.313 130.397 43.6738 131.827 43.9192C136.589 44.7382 142.246 45.2773 146.751 47.9204C149.887 49.7616 150.68 53.6674 155.183 54.9721C156.741 55.4235 158.402 55.3449 159.929 54.7983C160.303 54.6645 160.673 54.5174 161.038 54.3663" fill="#FFCE9B"/>
<path d="M209.424 25.7729L209.465 25.7728L209.465 25.712L209.408 25.7347L209.424 25.7729ZM172.197 38.4522L172.185 38.4128V38.4128L172.197 38.4522ZM157.751 40.6239L157.743 40.6643L157.743 40.6643L157.751 40.6239ZM139.917 37.4683L139.917 37.5095L139.917 37.5095L139.917 37.4683ZM130.829 38.032L130.824 37.9912L130.822 37.9916L130.829 38.032ZM127.111 38.9248L127.095 38.8867L127.095 38.8867L127.111 38.9248ZM125.912 41.7061L125.873 41.7183L125.873 41.7206L125.912 41.7061ZM131.827 43.9192L131.834 43.8787L131.834 43.8787L131.827 43.9192ZM146.751 47.9204L146.772 47.8849L146.772 47.8849L146.751 47.9204ZM155.183 54.9721L155.195 54.9326L155.195 54.9326L155.183 54.9721ZM159.929 54.7983L159.915 54.7596L159.915 54.7596L159.929 54.7983ZM209.417 52.3073L209.458 52.3073L209.465 25.7728L209.424 25.7729L209.382 25.7729L209.376 52.3074L209.417 52.3073ZM209.424 25.7729L209.408 25.7347C204.046 27.887 177.969 36.6414 172.185 38.4128L172.197 38.4522L172.209 38.4915C177.994 36.7198 204.074 27.9647 209.439 25.811L209.424 25.7729ZM172.197 38.4522L172.185 38.4128C167.353 39.8929 162.714 41.5384 157.759 40.5835L157.751 40.6239L157.743 40.6643C162.723 41.6239 167.384 39.9694 172.209 38.4915L172.197 38.4522ZM157.751 40.6239L157.759 40.5835C156.101 40.2624 148.838 37.3758 139.917 37.4272L139.917 37.4683L139.917 37.5095C148.829 37.4581 156.063 40.339 157.743 40.6643L157.751 40.6239ZM139.917 37.4683L139.917 37.4272C137.572 37.4263 133.089 37.6674 130.824 37.9913L130.829 38.032L130.835 38.0727C133.095 37.7496 137.574 37.5085 139.917 37.5095L139.917 37.4683ZM130.829 38.032L130.822 37.9916C130.55 38.0444 129.747 38.2163 128.948 38.4007C128.548 38.4929 128.15 38.5883 127.819 38.6735C127.49 38.7585 127.225 38.8341 127.095 38.8867L127.111 38.9248L127.126 38.9629C127.25 38.9127 127.509 38.8385 127.84 38.7532C128.169 38.6682 128.567 38.573 128.966 38.4809C129.765 38.2966 130.567 38.1249 130.837 38.0724L130.829 38.032ZM127.111 38.9248L127.095 38.8867C126.595 39.09 126.174 39.4272 125.937 39.9012C125.699 40.3756 125.647 40.9819 125.873 41.7182L125.912 41.7061L125.951 41.694C125.73 40.9737 125.784 40.3898 126.01 39.938C126.237 39.4857 126.64 39.1605 127.126 38.9629L127.111 38.9248ZM125.912 41.7061L125.873 41.7206C126.029 42.1354 126.394 42.4655 126.869 42.7312C127.344 42.9973 127.934 43.2017 128.548 43.363C129.775 43.6854 131.108 43.8377 131.82 43.9598L131.827 43.9192L131.834 43.8787C131.115 43.7554 129.792 43.6046 128.569 43.2834C127.958 43.123 127.375 42.9206 126.909 42.6594C126.442 42.3979 126.096 42.0803 125.951 41.6917L125.912 41.7061ZM131.827 43.9192L131.82 43.9598C136.587 44.7796 142.234 45.3177 146.73 47.9559L146.751 47.9204L146.772 47.8849C142.259 45.2369 136.591 44.6967 131.834 43.8787L131.827 43.9192ZM146.751 47.9204L146.73 47.9558C148.29 48.8718 149.266 50.3 150.423 51.6739C151.578 53.0461 152.909 54.3559 155.172 55.0116L155.183 54.9721L155.195 54.9326C152.955 54.2835 151.637 52.9881 150.486 51.6209C149.337 50.2555 148.348 48.8102 146.772 47.8849L146.751 47.9204ZM155.183 54.9721L155.172 55.0116C156.738 55.4656 158.408 55.3864 159.943 54.837L159.929 54.7983L159.915 54.7596C158.396 55.3034 156.744 55.3815 155.195 54.9326L155.183 54.9721ZM159.929 54.7983L159.943 54.837C160.318 54.703 160.688 54.5556 161.054 54.4043L161.038 54.3663L161.022 54.3282C160.657 54.4793 160.288 54.6261 159.915 54.7596L159.929 54.7983Z" fill="#082422"/>
<path d="M130.831 38.0149C130.289 38.1201 127.618 38.702 127.112 38.9075C127.054 38.9312 126.997 38.9566 126.941 38.984L127.126 40.2737C127.132 40.3199 127.175 40.3526 127.221 40.3468L127.278 40.3401C127.357 40.3269 129.284 40.0709 130.609 39.1476C130.864 38.9721 131.052 38.7083 131.127 38.4378C131.143 38.3818 131.155 38.3199 131.164 38.2675C131.172 38.1685 131.164 38.0747 131.137 37.9725C131.035 37.9866 130.932 38.001 130.83 38.0153L130.831 38.0149Z" stroke="#082422" stroke-width="0.0823034" stroke-miterlimit="10"/>
<path d="M149.824 69.3137C150.283 67.5942 149.498 66.1233 147.506 66.5063C146.746 66.6528 146.073 67.0787 145.452 67.5333C144.56 68.182 143.726 68.9036 142.958 69.6898C142.715 69.9369 142.476 70.1942 142.327 70.5064C142.132 70.9106 142.104 71.3697 142.126 71.8142C142.197 73.1176 143.186 73.5356 144.298 73.5387C145.14 73.5409 146.047 73.2967 146.712 73.0645C148.439 72.4602 149.372 71.0247 149.824 69.3137Z" fill="#FFCE9B"/>
<path d="M143.54 73.4421C143.518 73.4367 143.496 73.4501 143.49 73.4722C143.485 73.4942 143.498 73.5166 143.52 73.522L143.53 73.4821L143.54 73.4421ZM146.709 73.0645L146.722 73.1034L146.722 73.1034L146.709 73.0645ZM149.821 69.3138L149.781 69.3032L149.781 69.3033L149.821 69.3138ZM147.503 66.5064L147.495 66.466L147.495 66.466L147.503 66.5064ZM145.449 67.5334L145.473 67.5667L145.473 67.5666L145.449 67.5334ZM142.951 69.6324C142.935 69.6486 142.935 69.6746 142.951 69.6906C142.968 69.7065 142.994 69.7062 143.01 69.69L142.98 69.6612L142.951 69.6324ZM143.53 73.4821L143.52 73.522C144.032 73.6484 144.609 73.6211 145.169 73.5241C145.729 73.4271 146.274 73.2596 146.722 73.1034L146.709 73.0645L146.695 73.0257C146.249 73.1813 145.709 73.3471 145.155 73.4431C144.601 73.5391 144.036 73.5647 143.54 73.4421L143.53 73.4821ZM146.709 73.0645L146.722 73.1034C148.466 72.493 149.406 71.043 149.86 69.3242L149.821 69.3138L149.781 69.3033C149.33 71.0065 148.404 72.4275 146.695 73.0257L146.709 73.0645ZM149.821 69.3138L149.86 69.3243C150.092 68.4575 150.012 67.6458 149.614 67.0976C149.214 66.5465 148.502 66.2724 147.495 66.466L147.503 66.5064L147.511 66.5468C148.495 66.3575 149.171 66.6274 149.547 67.1459C149.925 67.6672 150.008 68.4506 149.781 69.3032L149.821 69.3138ZM147.503 66.5064L147.495 66.466C146.725 66.6144 146.046 67.0451 145.424 67.5003L145.449 67.5334L145.473 67.5666C146.093 67.1125 146.76 66.6915 147.511 66.5468L147.503 66.5064ZM145.449 67.5334L145.424 67.5002C144.544 68.1406 143.712 68.8581 142.951 69.6324L142.98 69.6612L143.01 69.69C143.767 68.9189 144.596 68.2045 145.473 67.5667L145.449 67.5334Z" fill="#082422"/>
<path d="M140.631 67.2645C140.475 66.9594 140.258 66.6914 139.962 66.5108C138.911 65.8559 137.241 66.3902 136.237 66.9115C135.098 67.5049 134.185 68.1161 133.367 69.0981C132.986 69.5556 132.565 70.3353 132.419 70.9091C132.274 71.4828 132.385 72.1624 132.832 72.5453C133.213 72.8722 134.028 73.1542 134.52 73.2452C136.966 73.7025 141.364 71.3529 140.927 68.2342C140.885 67.9115 140.788 67.5692 140.632 67.2641L140.631 67.2645Z" fill="#FFCE9B"/>
<path d="M133.257 72.8157L133.275 72.779L133.275 72.779L133.257 72.8157ZM134.522 73.2455L134.53 73.2051L134.529 73.2051L134.522 73.2455ZM140.928 68.2346L140.887 68.2399L140.887 68.2404L140.928 68.2346ZM139.964 66.5109L139.942 66.5458L139.943 66.546L139.964 66.5109ZM136.239 66.9115L136.22 66.875L136.22 66.8751L136.239 66.9115ZM132.805 72.5523L132.782 72.5858C132.978 72.7255 133.073 72.7688 133.238 72.8524L133.257 72.8157L133.275 72.779C133.11 72.6953 133.02 72.6545 132.829 72.5188L132.805 72.5523ZM133.257 72.8157L133.238 72.8524C133.646 73.0592 134.161 73.2207 134.514 73.286L134.522 73.2455L134.529 73.2051C134.183 73.1411 133.675 72.982 133.275 72.779L133.257 72.8157ZM134.522 73.2455L134.514 73.286C135.751 73.5172 137.473 73.039 138.829 72.115C140.186 71.191 141.191 69.8107 140.969 68.2289L140.928 68.2346L140.887 68.2404C141.103 69.7772 140.128 71.131 138.783 72.047C137.438 72.9631 135.739 73.4311 134.53 73.2051L134.522 73.2455ZM140.928 68.2346L140.969 68.2293C140.926 67.9026 140.829 67.5556 140.67 67.2457L140.633 67.2645L140.597 67.2833C140.751 67.5836 140.846 67.9213 140.887 68.2399L140.928 68.2346ZM140.633 67.2645L140.67 67.2457C140.511 66.9357 140.29 66.6613 139.986 66.4758L139.964 66.5109L139.943 66.546C140.231 66.7217 140.443 66.9832 140.597 67.2833L140.633 67.2645ZM139.964 66.5109L139.986 66.476C139.448 66.1408 138.756 66.112 138.077 66.2296C137.397 66.3474 136.725 66.613 136.22 66.875L136.239 66.9115L136.258 66.948C136.757 66.6888 137.422 66.4267 138.091 66.3107C138.761 66.1946 139.429 66.2261 139.942 66.5458L139.964 66.5109ZM136.239 66.9115L136.22 66.8751C135.079 67.4699 134.16 68.084 133.338 69.0719L133.369 69.0982L133.401 69.1245C134.214 68.1482 135.122 67.5402 136.258 66.948L136.239 66.9115Z" fill="#082422"/>
<path d="M149.333 69.8326C149.32 69.9002 149.251 70.0104 148.993 70.3595C148.864 70.5337 148.66 70.7965 148.613 70.8467C148.237 71.2223 147.847 71.4718 147.455 71.592C146.915 71.7549 146.337 71.6317 145.995 71.2789C145.706 70.9843 145.621 70.577 145.762 70.1369C146.249 68.5863 147.118 68.2111 147.154 68.191L147.259 68.1463L147.335 68.2301C147.991 68.9681 148.781 69.484 149.233 69.6481L149.313 69.6791L149.333 69.7686C149.33 69.7895 149.337 69.8066 149.332 69.8325L149.333 69.8326Z" stroke="#082422" stroke-width="0.0823034" stroke-miterlimit="10"/>
<path d="M139.771 70.0071L139.598 70.1407C138.526 70.9637 137.664 71.3632 136.887 71.3961C136.282 71.4268 135.627 71.0774 135.333 70.5726C135.069 70.1189 135.101 69.5773 135.432 69.0566C136.08 68.0297 137.448 67.336 137.505 67.3063L137.656 67.2313L137.731 67.3821C137.739 67.4008 138.59 69.1156 139.597 69.8724L139.771 70.0076L139.771 70.0071Z" stroke="#082422" stroke-width="0.0823034" stroke-miterlimit="10"/>
<path d="M100.29 50.1139L99.8531 54.6179C99.7985 55.1805 100.21 55.6804 100.773 55.7345C101.335 55.7886 101.836 55.3765 101.89 54.814L102.328 50.31C102.382 49.7474 101.971 49.2475 101.408 49.1934C100.845 49.1393 100.345 49.5514 100.29 50.1139Z" fill="#2BF2F1" stroke="#082422" stroke-width="0.0823034" stroke-miterlimit="10"/>
<path d="M102.921 37.1673C102.921 37.1673 104.53 38.1076 105.517 38.9176C105.598 38.9859 105.672 39.0523 105.736 39.1192C104.527 39.5988 103.548 40.2795 102.954 40.7316C102.598 41.0032 102.234 41.3173 102.102 41.7397C101.555 41.6275 101.007 41.4143 100.495 41.0837C98.1587 39.5776 97.4581 38.9642 97.4581 38.9642L102.921 37.1673Z" fill="#E1776E"/>
<path d="M102.922 37.1674C102.922 37.1674 104.53 38.1076 105.517 38.9176C107.856 40.8363 104.196 44.6029 100.09 41.313C97.7533 39.8069 97.4607 38.9682 97.4607 38.9682" fill="#E5B481"/>
<path d="M105.517 38.9176L105.491 38.9493L105.491 38.9493L105.517 38.9176ZM100.09 41.313L100.112 41.2782L100.115 41.2809L100.09 41.313ZM102.922 37.1674C102.942 37.1319 102.942 37.1319 102.942 37.1319C102.942 37.1319 102.942 37.1319 102.942 37.1319C102.942 37.132 102.943 37.132 102.943 37.1321C102.943 37.1322 102.943 37.1324 102.944 37.1326C102.944 37.1331 102.946 37.1337 102.947 37.1346C102.95 37.1365 102.955 37.1392 102.961 37.1427C102.973 37.1498 102.991 37.1603 103.014 37.174C103.06 37.2014 103.126 37.2413 103.21 37.2918C103.376 37.3927 103.608 37.5357 103.871 37.7041C104.397 38.0406 105.048 38.4792 105.543 38.8858L105.517 38.9176L105.491 38.9493C104.999 38.5459 104.352 38.1094 103.827 37.7733C103.565 37.6054 103.333 37.4628 103.167 37.3621C103.084 37.3118 103.017 37.2719 102.972 37.2447C102.949 37.2311 102.931 37.2206 102.919 37.2136C102.913 37.21 102.908 37.2073 102.905 37.2056C102.904 37.2047 102.903 37.204 102.902 37.2035C102.902 37.2033 102.901 37.2031 102.901 37.203C102.901 37.203 102.901 37.2029 102.901 37.2029C102.901 37.2029 102.901 37.2029 102.901 37.2029C102.901 37.2029 102.901 37.2029 102.922 37.1674ZM105.517 38.9176L105.543 38.8858C106.138 39.3738 106.354 39.9828 106.274 40.5696C106.194 41.1547 105.819 41.7121 105.244 42.1025C104.09 42.8848 102.129 42.9991 100.064 41.345L100.09 41.313L100.115 41.2809C102.157 42.9168 104.079 42.7928 105.197 42.0345C105.757 41.6546 106.116 41.1163 106.192 40.5583C106.269 40.002 106.065 39.4207 105.491 38.9493L105.517 38.9176ZM100.09 41.313L100.067 41.3475C98.897 40.5931 98.2369 40.0047 97.8687 39.6036C97.6846 39.403 97.5735 39.2491 97.5081 39.1446C97.4753 39.0923 97.4541 39.0524 97.4408 39.0251C97.4342 39.0115 97.4296 39.001 97.4266 38.9938C97.4251 38.9901 97.424 38.9873 97.4232 38.9853C97.4228 38.9843 97.4225 38.9835 97.4223 38.9829C97.4222 38.9826 97.4221 38.9823 97.422 38.9821C97.422 38.982 97.4219 38.982 97.4219 38.9819C97.4219 38.9819 97.4219 38.9818 97.4219 38.9818C97.4219 38.9817 97.4219 38.9817 97.4607 38.9682C97.4996 38.9547 97.4996 38.9547 97.4996 38.9546C97.4996 38.9546 97.4996 38.9546 97.4996 38.9546C97.4996 38.9546 97.4996 38.9546 97.4996 38.9546C97.4996 38.9546 97.4996 38.9546 97.4996 38.9547C97.4997 38.9549 97.4999 38.9554 97.5001 38.956C97.5006 38.9572 97.5014 38.9593 97.5026 38.9622C97.505 38.968 97.509 38.977 97.5149 38.9893C97.5268 39.0137 97.5467 39.0511 97.5779 39.101C97.6403 39.2008 97.7483 39.3507 97.9294 39.548C98.2917 39.9428 98.946 40.5268 100.112 41.2784L100.09 41.313Z" fill="#082422"/>
<path d="M92.7325 43.5168C94.8702 46.4107 97.0467 48.8122 99.3786 47.4677C100.326 46.9211 100.888 45.1591 99.4685 42.6093L97.9761 39.9166" fill="#E5B481"/>
<path d="M99.3786 47.4677L99.3992 47.5033L99.3992 47.5033L99.3786 47.4677ZM99.4685 42.6093L99.4325 42.6292L99.4325 42.6292L99.4685 42.6093ZM92.7325 43.5168L92.7656 43.4924C93.8346 44.9395 94.9098 46.2584 96.0068 47.0483C96.5548 47.4429 97.1061 47.7038 97.6628 47.7838C98.2186 47.8637 98.7826 47.7638 99.3579 47.4321L99.3786 47.4677L99.3992 47.5033C98.8086 47.8438 98.2261 47.9479 97.6511 47.8652C97.0771 47.7827 96.5135 47.5144 95.9587 47.115C94.85 46.3167 93.7681 44.988 92.6994 43.5412L92.7325 43.5168ZM99.3786 47.4677L99.3579 47.4321C100.276 46.9027 100.848 45.1719 99.4325 42.6292L99.4685 42.6093L99.5045 42.5893C100.928 45.1463 100.377 46.9395 99.3992 47.5033L99.3786 47.4677ZM99.4685 42.6093L99.4325 42.6292L97.9401 39.9364L97.9761 39.9166L98.0122 39.8967L99.5045 42.5894L99.4685 42.6093Z" fill="#082422"/>
<path d="M1.43258 57.0222C4.07304 56.6878 21.9467 53.7222 22.4734 53.6626C33.1195 52.4566 48.6127 49.0371 57.1971 51.3429C61.3231 52.7371 63.3939 52.8034 67.6996 53.2594C69.6672 53.4687 71.5983 53.9133 73.5641 54.1291C74.4008 54.2209 74.9902 54.4492 75.6907 54.8099C76.3093 55.1297 76.9002 55.2927 77.6064 55.1877C78.3669 55.0742 78.4396 55.147 79.0702 54.7019C80.0695 53.9993 80.734 52.6051 80.7178 51.3717C80.7109 50.757 80.5067 50.1653 80.2865 49.5931C79.9432 48.7018 79.5523 47.8313 79.1096 46.9841C78.7355 46.2603 78.333 45.8158 77.8149 45.2306C77.2041 44.5462 76.8345 43.5295 76.4041 42.7239C75.9053 41.7947 75.4088 40.8697 74.8729 39.961C73.1899 37.099 71.0933 34.1805 67.9235 32.8604C65.5283 31.8601 62.8359 31.965 60.2434 32.0847C54.8605 32.3366 49.4818 32.5862 44.099 32.8381C42.8343 32.8966 41.5526 32.9538 40.3144 32.6912C38.9166 32.393 4.53972 34.6771 3.23517 34.0908" fill="#E5B481"/>
<path d="M22.4734 53.6626L22.4687 53.6217L22.4734 53.6626ZM57.1971 51.3429L57.2078 51.3031L57.2103 51.3039L57.1971 51.3429ZM67.6996 53.2594L67.7039 53.2185L67.704 53.2185L67.6996 53.2594ZM73.5641 54.1291L73.5596 54.17L73.5596 54.17L73.5641 54.1291ZM75.6907 54.8099L75.7095 54.7733L75.7096 54.7734L75.6907 54.8099ZM77.6064 55.1877L77.6125 55.2284L77.6124 55.2284L77.6064 55.1877ZM79.0702 54.7019L79.0464 54.6683L79.0465 54.6682L79.0702 54.7019ZM80.7178 51.3717L80.6766 51.3722L80.6766 51.3721L80.7178 51.3717ZM80.2865 49.5931L80.3249 49.5784L80.3249 49.5784L80.2865 49.5931ZM79.1096 46.9841L79.0731 47.0031L79.0731 47.0029L79.1096 46.9841ZM77.8149 45.2306L77.8457 45.2033L77.8458 45.2034L77.8149 45.2306ZM76.4041 42.7239L76.4404 42.7045L76.4405 42.7046L76.4041 42.7239ZM74.8729 39.961L74.8374 39.9818L74.8374 39.9818L74.8729 39.961ZM67.9235 32.8604L67.9076 32.8984L67.9076 32.8984L67.9235 32.8604ZM60.2434 32.0847L60.2414 32.0437L60.2414 32.0437L60.2434 32.0847ZM44.099 32.8381L44.101 32.8791L44.1009 32.8791L44.099 32.8381ZM40.3144 32.6912L40.3059 32.7314L40.3059 32.7314L40.3144 32.6912ZM1.43258 57.0222L1.42737 56.9814C2.74667 56.8143 7.87414 55.9895 12.739 55.1988C17.602 54.4083 22.2041 53.6517 22.4687 53.6217L22.4734 53.6626L22.4781 53.7034C22.216 53.7331 17.618 54.4891 12.7523 55.2799C7.88855 56.0705 2.75896 56.8957 1.43779 57.063L1.43258 57.0222ZM22.4734 53.6626L22.4687 53.6217C25.1294 53.3203 28.0931 52.8806 31.1771 52.4264C34.2607 51.9723 37.4643 51.5037 40.6037 51.1449C46.8806 50.4276 52.9072 50.148 57.2078 51.3031L57.1971 51.3429L57.1865 51.3826C52.9026 50.232 46.8904 50.5092 40.6131 51.2267C37.4753 51.5853 34.2729 52.0536 31.1891 52.5078C28.1056 52.9619 25.1404 53.4018 22.4781 53.7034L22.4734 53.6626ZM57.1971 51.3429L57.2103 51.3039C61.3312 52.6964 63.3971 52.7624 67.7039 53.2185L67.6996 53.2594L67.6953 53.3003C63.3907 52.8444 61.3151 52.7778 57.184 51.3818L57.1971 51.3429ZM67.6996 53.2594L67.704 53.2185C68.6892 53.3233 69.6651 53.487 70.6394 53.6513C71.614 53.8156 72.5871 53.9805 73.5685 54.0882L73.5641 54.1291L73.5596 54.17C72.5753 54.0619 71.5999 53.8966 70.6257 53.7324C69.6511 53.5681 68.6776 53.4048 67.6953 53.3003L67.6996 53.2594ZM73.5641 54.1291L73.5685 54.0882C74.4118 54.1807 75.0062 54.4112 75.7095 54.7733L75.6907 54.8099L75.6719 54.8464C74.9742 54.4872 74.3897 54.261 73.5596 54.17L73.5641 54.1291ZM75.6907 54.8099L75.7096 54.7734C76.3232 55.0906 76.9052 55.2504 77.6003 55.1471L77.6064 55.1877L77.6124 55.2284C76.8952 55.335 76.2955 55.1688 75.6718 54.8464L75.6907 54.8099ZM77.6064 55.1877L77.6002 55.1471C77.7909 55.1186 77.939 55.1017 78.0619 55.0857C78.1853 55.0697 78.2831 55.0545 78.3763 55.0294C78.5612 54.9797 78.7323 54.89 79.0464 54.6683L79.0702 54.7019L79.094 54.7354C78.7775 54.9588 78.5969 55.0553 78.3977 55.1089C78.2989 55.1354 78.1965 55.1512 78.0726 55.1673C77.9483 55.1835 77.8021 55.2001 77.6125 55.2284L77.6064 55.1877ZM79.0702 54.7019L79.0465 54.6682C80.0338 53.9741 80.6926 52.5931 80.6766 51.3722L80.7178 51.3717L80.759 51.3712C80.7753 52.6171 80.1052 54.0245 79.0939 54.7355L79.0702 54.7019ZM80.7178 51.3717L80.6766 51.3721C80.6698 50.7656 80.4683 50.18 80.2481 49.6079L80.2865 49.5931L80.3249 49.5784C80.5452 50.1506 80.752 50.7485 80.759 51.3713L80.7178 51.3717ZM80.2865 49.5931L80.2481 49.6079C79.9053 48.7179 79.515 47.8489 79.0731 47.0031L79.1096 46.9841L79.1462 46.9651C79.5896 47.8137 79.9811 48.6856 80.3249 49.5784L80.2865 49.5931ZM79.1096 46.9841L79.0731 47.0029C78.7015 46.2843 78.3024 45.8433 77.7841 45.2579L77.8149 45.2306L77.8458 45.2034C78.3635 45.7882 78.7694 46.2363 79.1462 46.9652L79.1096 46.9841ZM77.8149 45.2306L77.7842 45.258C77.4752 44.9117 77.2281 44.4825 77.0051 44.0412C76.7806 43.597 76.5833 43.1466 76.3678 42.7432L76.4041 42.7239L76.4405 42.7046C76.6554 43.1069 76.858 43.5676 77.0786 44.0042C77.3007 44.4438 77.5439 44.8652 77.8457 45.2033L77.8149 45.2306ZM76.4041 42.7239L76.3678 42.7433C75.869 41.814 75.3728 40.8897 74.8374 39.9818L74.8729 39.961L74.9084 39.9401C75.4447 40.8496 75.9417 41.7754 76.4404 42.7045L76.4041 42.7239ZM74.8729 39.961L74.8374 39.9818C73.1548 37.1205 71.064 34.2128 67.9076 32.8984L67.9235 32.8604L67.9393 32.8225C71.1226 34.1481 73.225 37.0776 74.9084 39.9402L74.8729 39.961ZM67.9235 32.8604L67.9076 32.8984C65.5223 31.9022 62.8395 32.006 60.2453 32.1258L60.2434 32.0847L60.2414 32.0437C62.8324 31.924 65.5342 31.818 67.9393 32.8225L67.9235 32.8604ZM60.2434 32.0847L60.2453 32.1258C57.5539 32.2518 54.8635 32.3771 52.1731 32.5025C49.4828 32.6278 46.7924 32.7532 44.101 32.8791L44.099 32.8381L44.097 32.797C46.7885 32.671 49.4789 32.5457 52.1692 32.4203C54.8596 32.295 57.55 32.1696 60.2414 32.0437L60.2434 32.0847ZM44.099 32.8381L44.1009 32.8791C42.8371 32.9377 41.5502 32.9953 40.3059 32.7314L40.3144 32.6912L40.323 32.6509C41.5551 32.9123 42.8315 32.8556 44.0971 32.797L44.099 32.8381ZM40.3144 32.6912L40.3059 32.7314C40.266 32.7229 40.1932 32.7161 40.0871 32.7117C39.9818 32.7073 39.8462 32.7052 39.6821 32.7053C39.3538 32.7055 38.9127 32.7145 38.3747 32.7308C37.2987 32.7636 35.8364 32.8261 34.1165 32.9076C30.6769 33.0706 26.2081 33.3099 21.742 33.5401C17.276 33.7703 12.8126 33.9916 9.38415 34.1186C7.66997 34.1821 6.21413 34.2221 5.14589 34.2279C4.61183 34.2308 4.17414 34.2251 3.84927 34.2095C3.68688 34.2017 3.55209 34.1914 3.44728 34.1783C3.34397 34.1655 3.2653 34.1494 3.2183 34.1283L3.23517 34.0908L3.25204 34.0533C3.28657 34.0688 3.35403 34.0838 3.45741 34.0967C3.5593 34.1094 3.69176 34.1196 3.85316 34.1273C4.17586 34.1428 4.61186 34.1485 5.14538 34.1456C6.21229 34.1399 7.66709 34.0999 9.38104 34.0364C12.8088 33.9094 17.2716 33.6882 21.7377 33.458C26.2036 33.2277 30.6727 32.9885 34.1126 32.8254C35.8325 32.7439 37.2954 32.6814 38.3721 32.6486C38.9104 32.6322 39.3525 32.6233 39.682 32.623C39.8467 32.6229 39.9836 32.625 40.0905 32.6295C40.1965 32.6339 40.2756 32.6408 40.323 32.6509L40.3144 32.6912Z" fill="#082422"/>
<path d="M89.3326 48.7918C89.3184 49.4073 89.0174 50.4179 88.1787 51.1285C87.5842 51.629 87.5196 51.3474 86.741 51.2827C85.0699 51.1516 83.5298 49.975 82.9637 48.4001C82.4314 46.9248 82.8745 45.0345 84.2353 44.256C85.4459 43.5658 87.1854 43.8204 88.2236 44.7419C89.345 45.7358 89.3629 47.3608 89.3326 48.7918Z" fill="#E5B481" stroke="#082422" stroke-width="0.0823034" stroke-miterlimit="10"/>
<path d="M75.9189 52.0183C74.0788 52.8357 71.9097 52.0007 71.0941 50.1599L63.4584 32.9925C62.6387 31.154 63.4731 28.9881 65.3155 28.1749L106.578 9.89078C108.418 9.07341 110.587 9.90839 111.403 11.7491L119.038 28.9166C119.858 30.7551 119.024 32.921 117.181 33.7342L75.9189 52.0183Z" fill="#EFEBE7" stroke="#082422" stroke-width="0.0823034" stroke-miterlimit="10"/>
<path d="M93.0047 15.8907L92.9585 15.786C92.9229 15.711 92.9605 15.6186 93.036 15.5829L98.6288 13.1039C98.7038 13.0684 98.7963 13.1061 98.8322 13.1815L98.8783 13.2862L93.0051 15.8904L93.0047 15.8907Z" fill="#EFEBE7" stroke="#082422" stroke-width="0.0823034" stroke-miterlimit="10"/>
<path d="M72.0335 49.885C72.3607 50.4755 72.8811 50.9288 73.5209 51.1751C74.2419 51.4524 75.028 51.4334 75.7339 51.1209L116.643 32.9935C117.348 32.682 117.889 32.1137 118.166 31.3942C118.443 30.6742 118.423 29.889 118.11 29.1838L117.318 27.4075L111.665 14.7035L110.536 12.1657C109.89 10.7111 108.18 10.0514 106.724 10.6954L65.8144 28.8234C65.1102 29.135 64.5693 29.7032 64.2919 30.4228C64.0148 31.1427 64.0345 31.9279 64.3478 32.6332L71.9183 49.6539C71.9537 49.7333 71.9922 49.8105 72.0337 49.8854L72.0335 49.885ZM109.4 12.5006C109.424 12.545 109.447 12.5907 109.468 12.6376L109.468 12.638L110.597 15.1764L116.251 27.8809L117.043 29.6571C117.229 30.0769 117.241 30.5453 117.076 30.975C116.91 31.4041 116.588 31.7422 116.169 31.9276L75.2592 50.0557C74.8382 50.242 74.3697 50.2533 73.9393 50.0877C73.5096 49.9222 73.1709 49.6005 72.9849 49.1814L65.4142 32.1603C65.2274 31.7396 65.2157 31.2717 65.3812 30.842C65.5466 30.4128 65.8684 30.0748 66.2878 29.8894L107.198 11.7613C108.017 11.3989 108.973 11.7305 109.399 12.5002L109.4 12.5006Z" fill="#EFEBE7" stroke="#082422" stroke-width="0.0823034" stroke-miterlimit="10"/>
<path d="M110.164 12.2396L111.303 14.8L117.005 27.614L117.804 29.405C118.326 30.5797 117.795 31.9537 116.623 32.4718L75.361 50.7561C74.1852 51.2764 72.8091 50.7457 72.2895 49.5751L64.6538 32.4074C64.1319 31.2327 64.6623 29.8586 65.8339 29.3406L107.096 11.0563C108.268 10.5382 109.644 11.069 110.164 12.2396Z" fill="#2BF2F1" stroke="#082422" stroke-width="0.0823034" stroke-miterlimit="10"/>
<path d="M110.164 12.2396L111.303 14.8L117.005 27.614L117.804 29.405C118.326 30.5797 117.795 31.9537 116.623 32.4718L75.361 50.7561C74.1852 51.2764 72.8091 50.7457 72.2895 49.5751L64.6538 32.4074C64.1319 31.2327 64.6623 29.8586 65.8339 29.3406L107.096 11.0563C108.268 10.5382 109.644 11.069 110.164 12.2396Z" stroke="#082422" stroke-width="0.0823034" stroke-miterlimit="10"/>
<g style="mix-blend-mode:multiply" opacity="0.1">
<path d="M64.5998 29.275L84.8253 20.3089C84.5227 20.6304 84.1696 20.9142 83.8272 21.1744C81.2944 23.0833 78.5339 24.4958 76.1144 26.5557C72.0232 30.0432 68.2644 33.092 65.4947 37.5934L63.2986 32.6564C62.7234 31.361 63.3036 29.8484 64.5998 29.275Z" fill="#082422"/>
</g>
<path d="M1.43766 56.9395L1.17695 30.4286C6.94615 30.7758 34.4545 30.8384 40.5018 30.6908C45.5504 30.5677 50.4836 30.6632 54.8917 28.1853C56.3727 27.3511 62.335 22.3245 70.8083 19.5552C73.0317 18.8134 77.3584 17.6259 79.6068 17.2177C80.1535 17.1464 82.8715 16.8543 83.4168 16.8892C84.4801 16.9576 85.3973 17.6257 85.4345 19.1488C85.3731 20.8631 81.8037 22.4329 80.5252 23.1176C76.267 25.3997 71.072 27.6991 67.6361 31.6301C65.2443 34.368 65.729 38.3237 61.8707 40.9847C60.5362 41.9052 58.9361 42.3555 57.3143 42.3197C56.9171 42.3111 56.5201 42.2883 56.1257 42.2604" fill="#E5B481"/>
<path d="M1.17695 30.4286L1.13578 30.429L1.13534 30.3849L1.17939 30.3876L1.17695 30.4286ZM40.5018 30.6908L40.5028 30.732L40.5018 30.6908ZM54.8917 28.1853L54.9119 28.2211L54.9119 28.2211L54.8917 28.1853ZM70.8083 19.5552L70.8214 19.5943L70.8212 19.5943L70.8083 19.5552ZM79.6068 17.2177L79.5994 17.1772L79.6014 17.1769L79.6068 17.2177ZM83.4168 16.8892L83.4194 16.8482L83.4194 16.8482L83.4168 16.8892ZM85.4345 19.1488L85.4758 19.1479L85.4757 19.1503L85.4345 19.1488ZM80.5252 23.1176L80.5057 23.0813L80.5057 23.0813L80.5252 23.1176ZM67.6361 31.6301L67.605 31.6031L67.605 31.6031L67.6361 31.6301ZM61.8707 40.9847L61.8473 40.9508L61.8473 40.9508L61.8707 40.9847ZM57.3143 42.3197L57.3152 42.2786L57.3152 42.2786L57.3143 42.3197ZM1.43766 56.9395L1.39648 56.9398L1.13578 30.429L1.17695 30.4286L1.21812 30.4283L1.47883 56.9391L1.43766 56.9395ZM1.17695 30.4286L1.17939 30.3876C6.94683 30.7347 34.4538 30.7973 40.5007 30.6497L40.5018 30.6908L40.5028 30.732C34.4552 30.8795 6.94547 30.817 1.1745 30.4697L1.17695 30.4286ZM40.5018 30.6908L40.5007 30.6497C45.5531 30.5264 50.4743 30.6212 54.8715 28.1494L54.8917 28.1853L54.9119 28.2211C50.4929 30.7051 45.5477 30.6089 40.5028 30.732L40.5018 30.6908ZM54.8917 28.1853L54.8714 28.1494C56.3429 27.3206 62.3175 22.2869 70.7955 19.5162L70.8083 19.5552L70.8212 19.5943C62.3524 22.3621 56.4024 27.3816 54.9119 28.2211L54.8917 28.1853ZM70.8083 19.5552L70.7953 19.5162C73.0198 18.774 77.3485 17.5859 79.5994 17.1772L79.6068 17.2177L79.6142 17.2581C77.3683 17.6659 73.0435 18.8528 70.8214 19.5943L70.8083 19.5552ZM79.6068 17.2177L79.6014 17.1769C79.8755 17.1412 80.6922 17.0503 81.5084 16.9727C81.9165 16.9339 82.3249 16.8984 82.6654 16.8748C83.0049 16.8512 83.2798 16.8393 83.4194 16.8482L83.4168 16.8892L83.4142 16.9303C83.2811 16.9218 83.0118 16.9332 82.6712 16.9568C82.3316 16.9804 81.9241 17.0158 81.5162 17.0546C80.7005 17.1321 79.8848 17.2229 79.6121 17.2585L79.6068 17.2177ZM83.4168 16.8892L83.4194 16.8482C83.9587 16.8829 84.4641 17.0699 84.8395 17.4444C85.2153 17.8193 85.4569 18.3779 85.4757 19.1479L85.4345 19.1488L85.3934 19.1498C85.3749 18.3966 85.1393 17.8596 84.7814 17.5026C84.4231 17.1452 83.9382 16.964 83.4142 16.9303L83.4168 16.8892ZM85.4345 19.1488L85.4757 19.1503C85.4598 19.5929 85.2179 20.0214 84.8518 20.4236C84.4852 20.8262 83.9901 21.2067 83.4588 21.5537C82.397 22.2473 81.1809 22.8131 80.5447 23.1538L80.5252 23.1176L80.5057 23.0813C81.148 22.7374 82.3558 22.1759 83.4137 21.4849C83.9423 21.1396 84.4309 20.7635 84.7908 20.3682C85.1512 19.9725 85.3785 19.5619 85.3934 19.1473L85.4345 19.1488ZM80.5252 23.1176L80.5447 23.1538C76.2819 25.4384 71.0966 27.7334 67.6671 31.6572L67.6361 31.6301L67.605 31.6031C71.0473 27.6648 76.252 25.361 80.5057 23.0813L80.5252 23.1176ZM67.6361 31.6301L67.6671 31.6572C66.4772 33.0192 66.0037 34.6825 65.3416 36.3514C64.6803 38.0182 63.8331 39.6812 61.8942 41.0185L61.8707 40.9847L61.8473 40.9508C63.7666 39.6271 64.6062 37.9819 65.265 36.3211C65.9231 34.6625 66.4031 32.9789 67.605 31.6031L67.6361 31.6301ZM61.8707 40.9847L61.8942 41.0185C60.5521 41.9443 58.9434 42.3968 57.3134 42.3609L57.3143 42.3197L57.3152 42.2786C58.9288 42.3142 60.5203 41.8662 61.8473 40.9508L61.8707 40.9847ZM57.3143 42.3197L57.3134 42.3609C56.9153 42.3522 56.5176 42.3294 56.1228 42.3014L56.1257 42.2604L56.1286 42.2193C56.5227 42.2473 56.9189 42.27 57.3152 42.2786L57.3143 42.3197Z" fill="#082422"/>
<path d="M79.6096 17.2116C80.1563 17.1404 82.8741 16.8483 83.4193 16.8832C83.4819 16.8874 83.5439 16.8935 83.6056 16.9019L83.8391 18.1836C83.8474 18.2296 83.8176 18.274 83.772 18.2831L83.716 18.2946C83.6368 18.3072 81.7272 18.6735 80.1782 18.2163C79.8813 18.1302 79.619 17.9395 79.4624 17.7065C79.4298 17.6584 79.3988 17.6034 79.3734 17.5567C79.3346 17.4652 79.312 17.3739 79.3052 17.2684C79.4071 17.2493 79.5092 17.2305 79.6098 17.2121L79.6096 17.2116Z" stroke="#082422" stroke-width="0.0823034" stroke-miterlimit="10"/>
<path d="M71.5094 52.9036C70.5296 51.4174 70.8082 49.7739 72.8189 49.5076C73.5863 49.4064 74.3597 49.5977 75.0928 49.8327C76.1442 50.1662 77.1634 50.5874 78.1418 51.0903C78.4499 51.2481 78.7585 51.4165 78.9988 51.6656C79.3118 51.9875 79.4837 52.4142 79.603 52.843C79.9487 54.1019 79.1426 54.8112 78.0896 55.1653C77.2911 55.4337 76.3533 55.4887 75.6492 55.4786C73.82 55.451 72.4805 54.3839 71.5094 52.9036Z" fill="#E5B481"/>
<path d="M78.7743 54.8345C78.7935 54.8224 78.819 54.8281 78.8311 54.8472C78.8433 54.8664 78.8376 54.8918 78.8184 54.904L78.7964 54.8692L78.7743 54.8345ZM75.6492 55.4777L75.6487 55.5188L75.6486 55.5188L75.6492 55.4777ZM71.5096 52.9028L71.5439 52.8802L71.544 52.8802L71.5096 52.9028ZM72.819 49.5068L72.8136 49.466L72.8136 49.466L72.819 49.5068ZM75.0928 49.8319L75.0804 49.8711L75.0803 49.871L75.0928 49.8319ZM78.1268 51.0338C78.1471 51.0441 78.1551 51.0689 78.1448 51.0891C78.1344 51.1094 78.1096 51.1174 78.0894 51.107L78.1081 51.0704L78.1268 51.0338ZM78.7964 54.8692L78.8184 54.904C78.3735 55.1855 77.817 55.3422 77.2553 55.4271C76.6932 55.512 76.123 55.5255 75.6487 55.5188L75.6492 55.4777L75.6498 55.4366C76.122 55.4432 76.6872 55.4297 77.243 55.3457C77.7991 55.2617 78.343 55.1074 78.7743 54.8345L78.7964 54.8692ZM75.6492 55.4777L75.6486 55.5188C73.8011 55.4909 72.4506 54.4123 71.4751 52.9253L71.5096 52.9028L71.544 52.8802C72.5107 54.3538 73.8392 55.4092 75.6498 55.4366L75.6492 55.4777ZM71.5096 52.9028L71.4752 52.9254C70.9812 52.1761 70.8001 51.3807 71.0036 50.7349C71.2081 50.0858 71.7969 49.6006 72.8136 49.466L72.819 49.5068L72.8245 49.5475C71.8305 49.6792 71.2746 50.1489 71.0822 50.7597C70.8886 51.3738 71.0581 52.1432 71.5439 52.8802L71.5096 52.9028ZM72.819 49.5068L72.8136 49.466C73.5906 49.3635 74.3715 49.5574 75.1054 49.7927L75.0928 49.8319L75.0803 49.871C74.3481 49.6363 73.5822 49.4476 72.8244 49.5475L72.819 49.5068ZM75.0928 49.8319L75.1053 49.7927C76.1432 50.122 77.1599 50.5396 78.1268 51.0338L78.1081 51.0704L78.0894 51.107C77.1265 50.6149 76.114 50.1991 75.0804 49.8711L75.0928 49.8319Z" fill="#082422"/>
<path d="M79.5803 48.0536C79.632 47.7148 79.7529 47.392 79.9764 47.1271C80.7661 46.1736 82.5198 46.1525 83.6369 46.3298C84.9046 46.5331 85.9648 46.8241 87.0516 47.4973C87.5575 47.8111 88.2042 48.4176 88.524 48.9159C88.8438 49.4142 88.9536 50.0941 88.6504 50.5987C88.3932 51.0291 87.709 51.5543 87.271 51.7963C85.0958 53.0031 80.1801 52.164 79.6074 49.0669C79.545 48.7475 79.5279 48.3923 79.5797 48.0535L79.5803 48.0536Z" fill="#E5B481"/>
<path d="M88.3352 50.9915L88.3059 50.9626L88.3059 50.9626L88.3352 50.9915ZM87.271 51.7993L87.251 51.7633L87.2511 51.7633L87.271 51.7993ZM79.6076 49.07L79.648 49.0622L79.6481 49.0626L79.6076 49.07ZM79.9759 47.13L80.0077 47.1563L80.0074 47.1566L79.9759 47.13ZM83.6364 46.3327L83.6428 46.2921L83.6429 46.2921L83.6364 46.3327ZM88.6796 50.5991L88.7129 50.6233C88.5712 50.8178 88.4945 50.889 88.3645 51.0204L88.3352 50.9915L88.3059 50.9626C88.436 50.831 88.5086 50.7638 88.6463 50.5749L88.6796 50.5991ZM88.3352 50.9915L88.3645 51.0204C88.0433 51.3455 87.6052 51.6617 87.291 51.8353L87.271 51.7993L87.2511 51.7633C87.559 51.5932 87.9906 51.2817 88.3059 50.9626L88.3352 50.9915ZM87.271 51.7993L87.291 51.8352C86.191 52.4455 84.4063 52.5361 82.8271 52.0881C81.2479 51.6401 79.8575 50.6482 79.5671 49.0774L79.6076 49.07L79.6481 49.0626C79.9303 50.5887 81.284 51.5649 82.8496 52.009C84.4152 52.4531 86.1758 52.3599 87.251 51.7633L87.271 51.7993ZM79.6076 49.07L79.5672 49.0778C79.504 48.7545 79.4866 48.3945 79.5391 48.0503L79.5798 48.0565L79.6205 48.0628C79.5696 48.3963 79.5864 48.7467 79.648 49.0622L79.6076 49.07ZM79.5798 48.0565L79.5391 48.0503C79.5917 47.706 79.7149 47.3756 79.9444 47.1035L79.9759 47.13L80.0074 47.1566C79.79 47.4143 79.6714 47.7294 79.6205 48.0628L79.5798 48.0565ZM79.9759 47.13L79.9442 47.1038C80.3484 46.6158 80.9961 46.3696 81.6772 46.2667C82.3592 46.1636 83.0813 46.203 83.6428 46.2921L83.6364 46.3327L83.63 46.3734C83.0744 46.2852 82.3611 46.2465 81.6896 46.348C81.0171 46.4496 80.3932 46.6908 80.0077 47.1563L79.9759 47.13ZM83.6364 46.3327L83.6429 46.2921C84.9134 46.4959 85.9795 46.7881 87.0727 47.4653L87.051 47.5002L87.0293 47.5352C85.9489 46.866 84.8947 46.5762 83.6299 46.3733L83.6364 46.3327Z" fill="#082422"/>
<path d="M72.1356 53.2411C72.1689 53.3012 72.2692 53.384 72.6244 53.6336C72.8021 53.7581 73.079 53.9429 73.1396 53.9756C73.6147 54.2133 74.0635 54.3268 74.474 54.3168C75.0377 54.3007 75.5472 54.001 75.7598 53.5582C75.9402 53.1875 75.892 52.7742 75.6191 52.4012C74.6662 51.0839 73.7225 51.0029 73.6821 50.9951L73.5683 50.9859L73.5233 51.0893C73.134 51.997 72.5488 52.7359 72.1718 53.0345L72.1058 53.0892L72.1145 53.1807C72.1248 53.1992 72.1232 53.2178 72.136 53.2408L72.1356 53.2411Z" stroke="#082422" stroke-width="0.0823034" stroke-miterlimit="10"/>
<path d="M81.261 50.3817L81.4677 50.4536C82.7455 50.8955 83.6899 51.002 84.4372 50.7877C85.0207 50.6256 85.5308 50.0873 85.6503 49.5153C85.7568 49.0015 85.5547 48.4979 85.0757 48.1085C84.1358 47.3391 82.6188 47.1132 82.5555 47.103L82.3886 47.0796L82.3652 47.2463C82.3636 47.2666 82.0994 49.1625 81.384 50.1986L81.2613 50.3821L81.261 50.3817Z" stroke="#082422" stroke-width="0.0823034" stroke-miterlimit="10"/>
<path d="M112.412 19.0354L114.253 23.1704C114.483 23.6868 114.251 24.2913 113.734 24.5206C113.218 24.7499 112.612 24.5171 112.382 24.0006L110.541 19.8657C110.311 19.3493 110.544 18.7448 111.06 18.5155C111.577 18.2862 112.182 18.519 112.412 19.0354Z" fill="#EFEBE7" stroke="#082422" stroke-width="0.0823034" stroke-miterlimit="10"/>
<g clip-path="url(#clip1_664_11563)">
<path d="M75.0955 6.99805L68.135 6.99805C63.8102 6.99805 60.304 10.4929 60.304 14.8027C60.304 16.2987 60.7273 17.6961 61.4597 18.884C63.8703 23.073 69.4769 24.6599 69.4769 24.6599L69.2157 22.6073L75.0945 22.6073C79.4192 22.6073 82.9245 19.1134 82.9245 14.8027C82.9255 10.4929 79.4192 6.99805 75.0955 6.99805Z" fill="#DCFF00" stroke="#082422" stroke-width="0.0823034" stroke-miterlimit="10"/>
<path d="M68.8145 16.0568C69.2533 16.0568 69.609 15.7022 69.609 15.2648C69.609 14.8275 69.2533 14.4729 68.8145 14.4729C68.3757 14.4729 68.02 14.8275 68.02 15.2648C68.02 15.7022 68.3757 16.0568 68.8145 16.0568Z" fill="#082422"/>
<path opacity="0.3" d="M74.8535 16.0568C75.2923 16.0568 75.648 15.7022 75.648 15.2648C75.648 14.8275 75.2923 14.4729 74.8535 14.4729C74.4147 14.4729 74.059 14.8275 74.059 15.2648C74.059 15.7022 74.4147 16.0568 74.8535 16.0568Z" fill="#082422"/>
<path opacity="0.6" d="M71.834 16.0568C72.2728 16.0568 72.6285 15.7022 72.6285 15.2648C72.6285 14.8275 72.2728 14.4729 71.834 14.4729C71.3952 14.4729 71.0395 14.8275 71.0395 15.2648C71.0395 15.7022 71.3952 16.0568 71.834 16.0568Z" fill="#082422"/>
</g>
<g clip-path="url(#clip2_664_11563)">
<path d="M133.748 22.6807L140.709 22.6807C145.033 22.6807 148.54 26.1755 148.54 30.4853C148.54 31.9814 148.116 33.3787 147.384 34.5666C144.973 38.7557 139.367 40.3425 139.367 40.3425L139.628 38.2899L133.749 38.2899C129.425 38.2899 125.919 34.796 125.919 30.4853C125.918 26.1755 129.425 22.6807 133.748 22.6807Z" fill="white" stroke="#082422" stroke-width="0.0823034" stroke-miterlimit="10"/>
<path d="M133.99 31.7394C134.429 31.7394 134.784 31.3848 134.784 30.9474C134.784 30.5101 134.429 30.1555 133.99 30.1555C133.551 30.1555 133.195 30.5101 133.195 30.9474C133.195 31.3848 133.551 31.7394 133.99 31.7394Z" fill="#082422"/>
<path opacity="0.3" d="M140.029 31.7394C140.468 31.7394 140.823 31.3848 140.823 30.9474C140.823 30.5101 140.468 30.1555 140.029 30.1555C139.59 30.1555 139.234 30.5101 139.234 30.9474C139.234 31.3848 139.59 31.7394 140.029 31.7394Z" fill="#082422"/>
<path opacity="0.6" d="M137.009 31.7394C137.448 31.7394 137.804 31.3848 137.804 30.9474C137.804 30.5101 137.448 30.1555 137.009 30.1555C136.57 30.1555 136.215 30.5101 136.215 30.9474C136.215 31.3848 136.57 31.7394 137.009 31.7394Z" fill="#082422"/>
</g>
<path d="M73.5026 39.4764C72.4544 39.9449 71.6657 39.7052 71.2606 38.799L72.4982 38.2458C72.6061 38.4329 72.7493 38.5717 72.9995 38.4599C73.3106 38.3208 73.2626 38.0502 73.0238 37.5159L71.6273 34.3917L73.0407 33.7599L74.4432 36.8977C74.9873 38.115 74.6725 38.9535 73.5026 39.4764ZM77.2038 37.7976C76.7169 38.0153 76.2175 37.987 75.8544 37.7193C75.5523 37.4973 75.3832 37.1916 75.1081 36.5762L74.289 34.7435L75.5874 34.1632L76.3521 35.8741C76.6212 36.4759 76.8714 36.7454 77.2366 36.5822C77.6288 36.4069 77.6476 36.0496 77.3695 35.4274L76.6018 33.7098L77.9069 33.1264L79.2339 36.0951C79.3216 36.2912 79.4092 36.4873 79.5006 36.6736L78.2428 37.2359L78.143 37.0127C78.1098 36.9383 78.0796 36.8707 78.047 36.7798L78.0403 36.7828C77.996 37.192 77.7178 37.5679 77.2038 37.7976ZM80.2221 36.3511L78.8952 33.3824C78.8075 33.1863 78.7198 32.9902 78.6284 32.8039L79.8795 32.2446L79.9793 32.4678C80.0125 32.5422 80.0427 32.6098 80.0753 32.7008L80.082 32.6977C80.1263 32.2885 80.4316 31.9005 80.9455 31.6708C81.4324 31.4531 81.9386 31.4784 82.3017 31.7461C82.6038 31.9681 82.7729 32.2739 83.048 32.8892L83.8671 34.7219L82.5687 35.3022L81.804 33.5913C81.5349 32.9895 81.2847 32.72 80.9127 32.8862C80.507 33.0676 80.4747 33.4309 80.7528 34.0531L81.5205 35.7708L80.2221 36.3511ZM86.1205 33.7958C85.1872 34.2129 84.6944 34.1087 84.2531 33.1214L83.6183 31.7012L83.1111 31.9279L82.691 30.988L83.1981 30.7613L82.775 29.8145L84.0734 29.2341L84.4965 30.1809L85.0916 29.9149L85.5118 30.8549L84.9167 31.1209L85.3127 32.0068C85.5998 32.6492 85.7101 32.8595 86.0888 32.6903C86.1429 32.6661 86.1872 32.6382 86.242 32.5974L86.6501 33.5104C86.5577 33.576 86.3031 33.7142 86.1205 33.7958ZM89.0168 32.5336C87.7658 33.0928 86.7036 32.6589 86.2049 31.543C85.7061 30.4272 86.1084 29.3306 87.3324 28.7835C88.5632 28.2333 89.6554 28.662 90.1572 29.7845C90.6529 30.8936 90.2543 31.9805 89.0168 32.5336ZM88.5899 31.5967C89.0497 31.3911 89.0894 30.9352 88.8355 30.3672C88.5876 29.8127 88.2132 29.5013 87.7398 29.7129C87.2867 29.9155 87.2524 30.4014 87.5002 30.9559C87.7572 31.5307 88.1233 31.8052 88.5899 31.5967ZM93.0992 30.7251C92.024 31.2057 91.255 31.0464 90.7163 30.2405L91.9606 29.6843C92.1688 30.005 92.4562 30.0307 92.7673 29.8917C93.0783 29.7526 93.1629 29.5607 93.0874 29.3916C93.0178 29.2361 92.8554 29.2357 92.4509 29.311L91.9028 29.4099C91.0405 29.5682 90.4943 29.4716 90.2041 28.8224C89.9048 28.1529 90.314 27.4345 91.3554 26.969C92.3292 26.5337 93.1575 26.626 93.5885 27.3907L92.4254 27.9106C92.2496 27.6809 92.0217 27.661 91.7242 27.794C91.4469 27.918 91.3472 28.0761 91.4107 28.2181C91.4802 28.3737 91.5825 28.3847 92.1103 28.2949L92.4644 28.2339C93.4801 28.0558 94.052 28.1734 94.327 28.7888C94.6595 29.5327 94.2083 30.2293 93.0992 30.7251ZM97.2099 28.7578C96.3519 27.7458 95.4697 26.6797 94.6154 25.6579L95.9205 25.0745L96.7042 26.1197C97.0021 26.514 97.1629 26.7829 97.4752 27.2275L97.4955 27.2184C97.4006 26.8064 97.4485 27.0771 97.1849 25.8156L96.9349 24.6211L98.2198 24.0468L98.9627 25.0372C99.2229 25.3834 99.5262 25.8077 99.7947 26.1907L99.8082 26.1846C99.7111 25.7494 99.5964 25.257 99.5 24.8052L99.2409 23.5903L100.533 23.013C100.733 24.3513 100.908 25.6851 101.105 27.0167L99.6309 27.6757L98.968 26.8279C98.701 26.4848 98.4325 26.1018 98.2363 25.8081L98.216 25.8172C98.32 26.2494 98.4072 26.608 98.4849 27.0358L98.6774 28.1019L97.2099 28.7578ZM104.185 25.7537C102.988 26.2887 101.944 25.8953 101.424 24.7321C100.931 23.6299 101.358 22.5143 102.555 21.9793C103.806 21.4201 104.833 21.9023 105.343 23.0451C105.377 23.1195 105.416 23.2074 105.445 23.2916L102.822 24.4644C103.047 24.9152 103.411 25.0205 103.796 24.8482C104.141 24.694 104.231 24.4592 104.244 24.2343L105.563 23.6449C105.658 24.4216 105.314 25.2489 104.185 25.7537ZM102.525 23.7453L103.836 23.1589C103.617 22.7946 103.316 22.6854 102.938 22.8547C102.566 23.021 102.403 23.3455 102.525 23.7453Z" fill="#082422"/>
<path d="M107.255 53.8913C105.868 53.7591 105.157 53.0217 105.195 51.924L106.721 52.0695C106.737 52.5323 106.96 52.762 107.418 52.8055C107.808 52.8428 108.114 52.6785 108.144 52.3614C108.174 52.0517 107.921 51.9755 107.404 51.7774L107.074 51.6492C105.904 51.1954 105.452 50.6315 105.531 49.7982C105.622 48.847 106.47 48.3028 107.783 48.4279C109.029 48.5467 109.776 49.2132 109.741 50.2887L108.266 50.1482C108.238 49.7437 108.049 49.5323 107.651 49.4943C107.29 49.4599 107.075 49.6031 107.051 49.8612C107.017 50.2152 107.304 50.3244 107.863 50.5488L108.128 50.6559C109.297 51.1244 109.729 51.5823 109.648 52.4377C109.55 53.4627 108.633 54.0227 107.255 53.8913ZM111.453 54.284C110.922 54.2334 110.502 53.9627 110.318 53.5508C110.164 53.2087 110.168 52.8594 110.232 52.1883L110.422 50.19L111.838 50.3249L111.66 52.1905C111.598 52.8468 111.683 53.2046 112.081 53.2426C112.509 53.2834 112.701 52.9817 112.766 52.3033L112.944 50.4304L114.367 50.566L114.059 53.8032C114.038 54.017 114.018 54.2308 114.006 54.438L112.634 54.3073L112.657 54.064C112.665 53.9828 112.672 53.9091 112.689 53.8139L112.681 53.8132C112.441 54.1475 112.014 54.3374 111.453 54.284ZM116.678 54.7969C115.343 54.6697 114.649 53.7552 114.763 52.5607C114.879 51.344 115.77 50.5807 117.105 50.7079C118.211 50.8133 118.916 51.4535 118.986 52.4349L117.6 52.3028C117.553 51.9411 117.332 51.7564 117 51.7248C116.536 51.6805 116.243 52.0172 116.18 52.6809C116.115 53.3593 116.333 53.7297 116.827 53.7768C117.107 53.8035 117.392 53.7042 117.516 53.3439L118.902 53.4761C118.639 54.3588 117.835 54.9072 116.678 54.7969ZM121.171 55.2252C119.837 55.098 119.142 54.1835 119.256 52.989C119.372 51.7723 120.264 51.009 121.598 51.1362C122.704 51.2416 123.41 51.8818 123.48 52.8632L122.094 52.7311C122.046 52.3694 121.826 52.1847 121.494 52.1531C121.029 52.1088 120.737 52.4455 120.673 53.1092C120.609 53.7876 120.826 54.158 121.321 54.2051C121.601 54.2318 121.886 54.1325 122.009 53.7722L123.395 53.9044C123.133 54.7871 122.329 55.3355 121.171 55.2252ZM125.65 55.6521C124.345 55.5277 123.63 54.6708 123.751 53.4025C123.866 52.2006 124.786 51.4401 126.092 51.5645C127.456 51.6945 128.112 52.6202 127.993 53.8663C127.985 53.9475 127.976 54.0433 127.96 54.1311L125.099 53.8584C125.073 54.3619 125.338 54.6327 125.758 54.6727C126.134 54.7086 126.328 54.5485 126.45 54.3592L127.888 54.4963C127.589 55.2193 126.881 55.7694 125.65 55.6521ZM125.195 53.0862L126.626 53.2226C126.614 52.7974 126.407 52.5544 125.994 52.515C125.588 52.4763 125.286 52.6782 125.195 53.0862ZM130.273 56.0927C128.968 55.9683 128.253 55.1115 128.374 53.8432C128.489 52.6412 129.41 51.8807 130.715 52.0051C132.079 52.1351 132.735 53.0608 132.616 54.307C132.608 54.3881 132.599 54.484 132.583 54.5717L129.722 54.299C129.697 54.8026 129.961 55.0733 130.381 55.1134C130.757 55.1492 130.951 54.9891 131.073 54.7999L132.511 54.9369C132.212 55.6599 131.504 56.2101 130.273 56.0927ZM129.818 53.5269L131.249 53.6632C131.237 53.238 131.03 52.995 130.617 52.9557C130.211 52.917 129.909 53.1189 129.818 53.5269ZM134.432 56.4817C133.488 56.3917 132.89 55.5609 133.01 54.3073C133.128 53.0685 133.87 52.3133 134.85 52.4068C135.426 52.4616 135.741 52.7446 135.915 53.0217C135.942 52.7415 135.957 52.5122 135.986 52.2025L136.08 51.2218L137.503 51.3574L137 56.6297L135.621 56.4983C135.635 56.3582 135.66 56.1672 135.679 56.0499L135.671 56.0492C135.455 56.289 135.052 56.5407 134.432 56.4817ZM135.083 55.5095C135.518 55.5509 135.8 55.1685 135.858 54.5639C135.917 53.9371 135.719 53.5238 135.269 53.4809C134.812 53.4374 134.538 53.8131 134.479 54.4251C134.423 55.0224 134.618 55.4652 135.083 55.5095Z" fill="white"/>
</g>
<defs>
<clipPath id="clip0_664_11563">
<rect width="210" height="80" fill="white"/>
</clipPath>
<clipPath id="clip1_664_11563">
<rect width="22.6455" height="17.6918" fill="white" transform="translate(60.2924 6.98633)"/>
</clipPath>
<clipPath id="clip2_664_11563">
<rect width="22.6455" height="17.6918" fill="white" transform="matrix(-1 1.74846e-07 1.74846e-07 1 148.551 22.6692)"/>
</clipPath>
</defs>
</svg>
