<svg width="86" height="80" viewBox="0 0 86 80" fill="none" xmlns="http://www.w3.org/2000/svg">
<g clip-path="url(#clip0_664_11597)">
<path d="M45.9899 20.3952C45.9899 20.3952 44.8612 19.7708 44.0296 19.4702C43.9604 19.4463 43.8944 19.4255 43.832 19.4111C43.974 20.302 43.915 21.1272 43.8561 21.6421C43.82 21.9504 43.7618 22.279 43.5569 22.5076C43.817 22.7935 44.1381 23.0448 44.5158 23.2322C46.2392 24.0894 46.8522 24.289 46.8522 24.289L45.9899 20.3952Z" fill="#E1776E"/>
<path d="M45.9909 20.3952C45.9909 20.3952 44.8622 19.7708 44.0307 19.4703C42.0608 18.7581 41.1121 22.277 44.5237 23.5554C46.247 24.4127 46.8499 24.2891 46.8499 24.2891" fill="#FFCE9B"/>
<path d="M44.0307 19.4703L44.0179 19.5057L44.0179 19.5057L44.0307 19.4703ZM44.5237 23.5554L44.5406 23.5215L44.537 23.5202L44.5237 23.5554ZM45.9909 20.3952C46.0092 20.3623 46.0092 20.3623 46.0092 20.3623C46.0092 20.3623 46.0091 20.3622 46.0091 20.3622C46.0091 20.3622 46.009 20.3622 46.009 20.3621C46.0088 20.3621 46.0086 20.362 46.0083 20.3618C46.0078 20.3615 46.007 20.361 46.0059 20.3604C46.0037 20.3592 46.0004 20.3575 45.9962 20.3551C45.9877 20.3504 45.9751 20.3436 45.9588 20.3347C45.9262 20.317 45.8788 20.2914 45.8193 20.2597C45.7003 20.1964 45.5329 20.1088 45.3395 20.0118C44.9531 19.818 44.4614 19.5859 44.0435 19.4349L44.0307 19.4703L44.0179 19.5057C44.4315 19.6552 44.92 19.8856 45.3057 20.0791C45.4985 20.1758 45.6653 20.2631 45.7839 20.3262C45.8432 20.3578 45.8904 20.3833 45.9228 20.4009C45.939 20.4097 45.9515 20.4165 45.9599 20.4212C45.9642 20.4235 45.9674 20.4252 45.9695 20.4264C45.9706 20.427 45.9714 20.4274 45.9719 20.4277C45.9722 20.4279 45.9724 20.428 45.9725 20.4281C45.9726 20.4281 45.9726 20.4281 45.9727 20.4282C45.9727 20.4282 45.9727 20.4282 45.9727 20.4282C45.9727 20.4282 45.9727 20.4282 45.9909 20.3952ZM44.0307 19.4703L44.0435 19.4349C43.5397 19.2527 43.0971 19.3404 42.7734 19.5989C42.4509 19.8565 42.2505 20.2803 42.2215 20.7641C42.1634 21.7341 42.7922 22.9468 44.5105 23.5907L44.5237 23.5554L44.537 23.5202C42.8436 22.8856 42.2409 21.6997 42.2967 20.7686C42.3247 20.302 42.5176 19.8997 42.8204 19.6578C43.122 19.4169 43.5368 19.3318 44.0179 19.5057L44.0307 19.4703ZM44.5237 23.5554L44.507 23.5891C45.3707 24.0188 45.9553 24.2035 46.3254 24.2806C46.5104 24.3191 46.642 24.3308 46.728 24.3326C46.771 24.3336 46.8026 24.3321 46.8239 24.3302C46.8345 24.3293 46.8425 24.3283 46.8481 24.3275C46.8509 24.3271 46.853 24.3268 46.8546 24.3265C46.8554 24.3264 46.856 24.3263 46.8565 24.3262C46.8567 24.3261 46.8569 24.3261 46.8571 24.326C46.8572 24.326 46.8573 24.326 46.8573 24.326C46.8574 24.326 46.8574 24.326 46.8574 24.326C46.8574 24.326 46.8575 24.326 46.8499 24.2891C46.8424 24.2522 46.8424 24.2522 46.8424 24.2522C46.8425 24.2522 46.8425 24.2522 46.8425 24.2522C46.8425 24.2522 46.8425 24.2522 46.8425 24.2521C46.8426 24.2521 46.8425 24.2521 46.8425 24.2522C46.8424 24.2522 46.8421 24.2522 46.8417 24.2523C46.8409 24.2524 46.8394 24.2527 46.8374 24.253C46.8333 24.2536 46.8267 24.2544 46.8174 24.2552C46.799 24.2568 46.7701 24.2582 46.7296 24.2573C46.6487 24.2556 46.5218 24.2446 46.3407 24.2068C45.9785 24.1314 45.4 23.9493 44.5405 23.5217L44.5237 23.5554Z" fill="#082422"/>
<path d="M45.81 28.7204C43.3305 28.4745 41.1305 28.0306 41.1064 26.1634C41.0967 25.4044 41.9476 24.444 43.968 24.3839L46.0995 24.3166" fill="#FFCE9B"/>
<path d="M41.1064 26.1634L41.0688 26.1639L41.0688 26.1639L41.1064 26.1634ZM43.968 24.3839L43.9691 24.4215L43.9692 24.4215L43.968 24.3839ZM45.81 28.7204L45.8138 28.6829C44.5738 28.5599 43.4094 28.3878 42.5525 28.0153C42.1245 27.8293 41.7755 27.5942 41.5322 27.2924C41.2893 26.9913 41.15 26.6217 41.1441 26.1629L41.1064 26.1634L41.0688 26.1639C41.0749 26.6387 41.2196 27.0248 41.4735 27.3397C41.7269 27.654 42.0875 27.8953 42.5224 28.0844C43.3914 28.4621 44.5667 28.6349 45.8063 28.7578L45.81 28.7204ZM41.1064 26.1634L41.1441 26.1629C41.1348 25.4354 41.9562 24.4814 43.9691 24.4215L43.968 24.3839L43.9669 24.3462C41.9389 24.4066 41.0587 25.3734 41.0688 26.1639L41.1064 26.1634ZM43.968 24.3839L43.9692 24.4215L46.1006 24.3542L46.0995 24.3166L46.0983 24.2789L43.9668 24.3462L43.968 24.3839Z" fill="#082422"/>
<path d="M66.7518 79.2166C66.017 77.5244 64.7814 74.5214 64.6306 74.1863C61.5835 67.414 58.1402 56.967 53.731 52.6706C51.4414 50.7073 50.6695 49.4969 48.8751 47.0931C48.0546 45.995 47.1068 45.0022 46.2831 43.9074C45.9325 43.4414 45.588 43.1713 45.1255 42.882C44.7163 42.627 44.4102 42.3328 44.223 41.8747C44.0216 41.3812 43.9525 41.3637 43.9946 40.8298C44.0595 39.9848 44.6548 39.0936 45.395 38.665C45.7635 38.4508 46.1881 38.3623 46.6067 38.2902C47.2589 38.1782 47.9156 38.1019 48.5767 38.0647C49.14 38.0306 49.5471 38.1125 50.0788 38.2133C50.7024 38.3342 51.4386 38.1933 52.0705 38.1635C52.8003 38.1307 53.5268 38.098 54.2574 38.0945C56.557 38.0808 59.0365 38.2933 60.9437 39.7133C62.3866 40.7852 63.2763 42.4268 64.122 44.0143C65.8758 47.3113 67.6295 50.6051 69.3833 53.9022C69.7957 54.6766 70.215 55.4607 70.8093 56.1052C71.4812 56.8322 82.2794 78.1286 83.09 78.6977" fill="#FFCE9B"/>
<path d="M64.6306 74.1863L64.6649 74.1709L64.6306 74.1863ZM53.731 52.6706L53.7573 52.6436L53.7555 52.642L53.731 52.6706ZM48.8751 47.0931L48.9053 47.0705L48.9053 47.0705L48.8751 47.0931ZM46.2831 43.9074L46.253 43.9301L46.253 43.9301L46.2831 43.9074ZM45.1255 42.882L45.1455 42.8501L45.1454 42.8501L45.1255 42.882ZM44.223 41.8747L44.1881 41.889L44.1881 41.889L44.223 41.8747ZM43.9946 40.8298L44.0321 40.8328L44.0321 40.8327L43.9946 40.8298ZM45.395 38.665L45.4139 38.6976L45.4139 38.6976L45.395 38.665ZM46.6067 38.2902L46.6003 38.2531L46.6003 38.2531L46.6067 38.2902ZM48.5767 38.0647L48.5788 38.1023L48.5789 38.1023L48.5767 38.0647ZM50.0788 38.2133L50.0859 38.1764L50.0858 38.1763L50.0788 38.2133ZM52.0705 38.1635L52.0688 38.1259L52.0688 38.1259L52.0705 38.1635ZM54.2574 38.0945L54.2576 38.1322L54.2577 38.1322L54.2574 38.0945ZM60.9437 39.7133L60.9213 39.7435L60.9213 39.7435L60.9437 39.7133ZM64.122 44.0143L64.1552 43.9966L64.1552 43.9965L64.122 44.0143ZM69.3833 53.9022L69.35 53.9199L69.3501 53.9199L69.3833 53.9022ZM70.8093 56.1052L70.7816 56.1307L70.7816 56.1308L70.8093 56.1052ZM66.7518 79.2166L66.7863 79.2016C66.0526 77.5117 64.8155 74.5056 64.6649 74.1709L64.6306 74.1863L64.5963 74.2018C64.7472 74.5372 65.9815 77.5372 66.7172 79.2317L66.7518 79.2166ZM64.6306 74.1863L64.6649 74.1709C63.9035 72.4785 63.1172 70.5564 62.2969 68.5573C61.4768 66.5585 60.6227 64.4829 59.726 62.4846C57.9332 58.4894 55.9676 54.7974 53.7572 52.6437L53.731 52.6706L53.7047 52.6976C55.9036 54.8402 57.8643 58.5199 59.6572 62.5154C60.5534 64.5125 61.407 66.587 62.2273 68.5859C63.0474 70.5846 63.8342 72.508 64.5963 74.2018L64.6306 74.1863ZM53.731 52.6706L53.7555 52.642C51.4697 50.6819 50.7003 49.4751 48.9053 47.0705L48.8751 47.0931L48.8449 47.1156C50.6387 49.5186 51.4131 50.7326 53.7064 52.6992L53.731 52.6706ZM48.8751 47.0931L48.9053 47.0705C48.4942 46.5204 48.0514 45.9968 47.609 45.4746C47.1664 44.9522 46.7243 44.4311 46.3132 43.8848L46.2831 43.9074L46.253 43.9301C46.6656 44.4785 47.1092 45.0012 47.5516 45.5233C47.9941 46.0458 48.4355 46.5676 48.8449 47.1156L48.8751 47.0931ZM46.2831 43.9074L46.3132 43.8848C45.959 43.414 45.6105 43.1409 45.1455 42.8501L45.1255 42.882L45.1055 42.914C45.5656 43.2017 45.906 43.4689 46.253 43.9301L46.2831 43.9074ZM45.1255 42.882L45.1454 42.8501C44.7406 42.5978 44.4412 42.3091 44.2578 41.8605L44.223 41.8747L44.1881 41.889C44.3792 42.3565 44.6919 42.6562 45.1056 42.914L45.1255 42.882ZM44.223 41.8747L44.2579 41.8605C44.2073 41.7367 44.1649 41.6422 44.131 41.5634C44.097 41.4843 44.0716 41.4211 44.0538 41.3572C44.0184 41.2309 44.0112 41.0984 44.0321 40.8328L43.9946 40.8298L43.957 40.8269C43.9359 41.0951 43.9422 41.2383 43.9812 41.3776C44.0005 41.4465 44.0276 41.5136 44.0618 41.5932C44.0962 41.6732 44.1379 41.766 44.1881 41.889L44.223 41.8747ZM43.9946 40.8298L44.0321 40.8327C44.096 40.001 44.6835 39.1204 45.4139 38.6976L45.395 38.665L45.3762 38.6324C44.626 39.0667 44.023 39.9685 43.957 40.8269L43.9946 40.8298ZM45.395 38.665L45.4139 38.6976C45.776 38.4871 46.1945 38.3994 46.6131 38.3274L46.6067 38.2902L46.6003 38.2531C46.1817 38.3252 45.751 38.4145 45.3761 38.6325L45.395 38.665ZM46.6067 38.2902L46.6131 38.3274C47.264 38.2155 47.9192 38.1394 48.5788 38.1023L48.5767 38.0647L48.5746 38.0271C47.912 38.0644 47.2539 38.1408 46.6003 38.2531L46.6067 38.2902ZM48.5767 38.0647L48.5789 38.1023C49.1369 38.0685 49.5397 38.1494 50.0717 38.2503L50.0788 38.2133L50.0858 38.1763C49.5545 38.0756 49.1431 37.9927 48.5744 38.0271L48.5767 38.0647ZM50.0788 38.2133L50.0716 38.2503C50.3883 38.3117 50.7322 38.3064 51.0741 38.2825C51.419 38.2584 51.7558 38.2161 52.0723 38.2012L52.0705 38.1635L52.0688 38.1259C51.7533 38.1408 51.406 38.1838 51.0689 38.2073C50.7288 38.2311 50.3928 38.2358 50.0859 38.1764L50.0788 38.2133ZM52.0705 38.1635L52.0722 38.2012C52.8021 38.1683 53.5278 38.1356 54.2576 38.1322L54.2574 38.0945L54.2573 38.0569C53.5257 38.0603 52.7985 38.0931 52.0688 38.1259L52.0705 38.1635ZM54.2574 38.0945L54.2577 38.1322C56.5565 38.1184 59.0248 38.3315 60.9213 39.7435L60.9437 39.7133L60.9662 39.6831C59.0483 38.2551 56.5575 38.0431 54.2572 38.0569L54.2574 38.0945ZM60.9437 39.7133L60.9213 39.7435C62.3562 40.8096 63.2424 42.4432 64.0887 44.032L64.122 44.0143L64.1552 43.9965C63.3103 42.4104 62.417 40.7609 60.9662 39.6831L60.9437 39.7133ZM64.122 44.0143L64.0887 44.032C64.9656 45.6805 65.8425 47.3282 66.7194 48.9759C67.5963 50.6236 68.4731 52.2714 69.35 53.9199L69.3833 53.9022L69.4165 53.8845C68.5396 52.236 67.6628 50.5882 66.7859 48.9405C65.909 47.2928 65.0321 45.6451 64.1552 43.9966L64.122 44.0143ZM69.3833 53.9022L69.3501 53.9199C69.7621 54.6936 70.1835 55.4821 70.7816 56.1307L70.8093 56.1052L70.837 56.0797C70.2465 55.4393 69.8293 54.6596 69.4165 53.8845L69.3833 53.9022ZM70.8093 56.1052L70.7816 56.1308C70.8002 56.1509 70.8296 56.1913 70.8698 56.2529C70.9095 56.3139 70.9587 56.3939 71.0166 56.4917C71.1326 56.6873 71.2832 56.9532 71.4637 57.2796C71.8247 57.9323 72.3047 58.8259 72.8644 59.8797C73.9838 61.9872 75.4218 64.7351 76.8643 67.4782C78.3067 70.2213 79.7536 72.9596 80.8906 75.0478C81.459 76.0919 81.9502 76.9737 82.3246 77.6124C82.5118 77.9318 82.6701 78.1907 82.7944 78.379C82.8566 78.4731 82.9105 78.5499 82.9556 78.608C82.9998 78.665 83.0379 78.7072 83.0683 78.7286L83.09 78.6977L83.1116 78.6669C83.0914 78.6527 83.0593 78.6189 83.0151 78.5618C82.9717 78.5059 82.9189 78.4308 82.8573 78.3375C82.7341 78.1509 82.5766 77.8932 82.3896 77.5743C82.0158 76.9367 81.5251 76.0557 80.9567 75.0118C79.8201 72.9241 78.3734 70.1862 76.931 67.4432C75.4886 64.7002 74.0504 61.9521 72.9309 59.8443C72.3711 58.7904 71.8909 57.8964 71.5296 57.2431C71.349 56.9165 71.1979 56.6498 71.0814 56.4533C71.0232 56.355 70.9735 56.2741 70.9329 56.2118C70.8928 56.1502 70.8604 56.105 70.837 56.0796L70.8093 56.1052Z" fill="#082422"/>
<path d="M43.8743 32.6183C43.5128 32.8453 43.0174 33.3837 42.8908 34.136C42.8031 34.6681 42.9936 34.6065 43.3075 35.0475C43.9766 35.9968 45.2221 36.4966 46.3603 36.2744C47.4271 36.0676 48.3961 35.1319 48.3785 34.0445C48.3613 33.0779 47.5944 32.1317 46.6784 31.8404C45.6899 31.5252 44.7158 32.0918 43.8743 32.6183Z" fill="#FFCE9B" stroke="#082422" stroke-width="0.0753214" stroke-miterlimit="10"/>
<path d="M46.6992 41.7602C46.8632 43.147 48.1276 44.143 49.5123 43.9751L62.4361 42.4268C63.8208 42.2622 64.8155 40.9957 64.6481 39.609L60.9427 8.52706C60.7787 7.14025 59.5143 6.14433 58.1296 6.3122L45.2058 7.86045C43.8211 8.02505 42.8264 9.29158 42.9938 10.6783L46.6992 41.7602Z" fill="#2BF2F1" stroke="#082422" stroke-width="0.0753214" stroke-miterlimit="10"/>
<path d="M62.1696 18.7498L62.2483 18.7401C62.3056 18.7347 62.3473 18.6795 62.3419 18.6218L61.8397 14.4092C61.8343 14.3519 61.7791 14.3102 61.7215 14.3156L61.6428 14.3253L62.1696 18.7495L62.1696 18.7498Z" fill="#2BF2F1" stroke="#082422" stroke-width="0.0753214" stroke-miterlimit="10"/>
<path d="M58.1838 6.94035C59.2989 6.80561 60.3156 7.60534 60.4496 8.72231L64.1229 39.5378C64.1876 40.0779 64.0383 40.6124 63.7019 41.0411C63.365 41.4697 62.8811 41.742 62.3404 41.8071L49.5266 43.3419L49.3453 43.3564C48.8691 43.3714 48.4062 43.2194 48.0264 42.9203C47.5984 42.583 47.3265 42.0984 47.2617 41.557L43.5884 10.7405C43.5237 10.2006 43.6732 9.66674 44.0094 9.23821L44.1424 9.08453C44.468 8.74419 44.8977 8.52913 45.3709 8.47223L45.3709 8.47125L46.7094 8.31274L56.273 7.16871L58.1838 6.94035ZM58.2894 7.81832L58.2865 7.81939L58.2865 7.81841L56.3787 8.04765L46.8131 9.19174L45.4756 9.35022C45.1697 9.38708 44.8958 9.54161 44.7046 9.78491C44.5137 10.028 44.4288 10.3299 44.4654 10.6357L48.1388 41.4521C48.1755 41.7591 48.3294 42.0335 48.5723 42.225C48.815 42.4161 49.1167 42.5007 49.422 42.4639L62.2358 40.9291C62.5424 40.8922 62.8165 40.7378 63.0077 40.4943C63.1985 40.2513 63.2826 39.9493 63.2459 39.6436L59.5725 8.82717C59.5007 8.22972 58.9824 7.79272 58.3928 7.81115C58.3588 7.81222 58.324 7.81436 58.2894 7.81832Z" fill="#2BF2F1" stroke="#082422" stroke-width="0.0753214" stroke-miterlimit="10"/>
<path d="M58.271 7.1878C59.1723 7.07935 59.9935 7.72538 60.102 8.62783L63.8071 39.71C63.9155 40.6128 63.2704 41.4356 62.3657 41.5445L49.4419 43.0926C48.5404 43.2013 47.7183 42.5555 47.6098 41.6496L43.9047 10.5674C43.7964 9.66477 44.4416 8.842 45.3461 8.73298L45.3471 8.73295L46.6953 8.57315L56.3427 7.41866L58.271 7.1878Z" fill="white" stroke="#082422" stroke-width="0.0753214" stroke-miterlimit="10"/>
<path d="M58.2751 7.22529L56.3475 7.45604L46.7001 8.61007L45.3511 8.77028C44.467 8.8766 43.8363 9.68073 43.9422 10.5629L47.6476 41.6449C47.7536 42.5303 48.5564 43.1618 49.4372 43.0556L62.3611 41.5073C63.2452 41.401 63.8759 40.5969 63.77 39.7147L60.0646 8.6327C59.9587 7.75052 59.1559 7.11907 58.2751 7.22529Z" stroke="#082422" stroke-width="0.0753214" stroke-miterlimit="10"/>
<path d="M45.2512 21.2932C46.6977 16.6849 51.429 8.856 56.9738 13.5659C59.3268 15.5648 59.7404 18.6603 59.4438 21.5758C58.694 28.9568 52.7816 35.6108 47.4958 40.353L45.2197 21.2571C45.2302 21.2688 45.2398 21.2813 45.2502 21.293L45.2512 21.2932Z" fill="#FF5A00"/>
<g style="mix-blend-mode:multiply" opacity="0.1">
<path d="M64.2488 40.4244L62.4349 25.1889C62.3504 25.4834 62.3063 25.7945 62.2724 26.091C62.0313 28.2781 62.1665 30.4246 61.7954 32.5979C61.1655 36.2742 60.6791 39.5968 58.9778 42.8459L62.6951 42.4007C63.6701 42.2833 64.3657 41.4003 64.2488 40.4244Z" fill="#082422"/>
</g>
<path d="M74.1379 79.0128L85.9988 78.6254C83.7516 75.3111 73.9853 58.9422 71.9344 55.2864C70.2222 52.2344 68.4205 49.3288 68.3371 45.8221C68.31 44.6433 69.1945 39.3051 67.8468 33.2725C67.5022 31.6843 66.6791 28.6843 66.127 27.1996C65.976 26.8485 65.1887 25.1252 64.975 24.8127C64.5583 24.2034 63.836 23.8942 62.9158 24.413C61.9168 25.0585 62.2444 27.743 62.2888 28.748C62.4359 32.0959 62.904 36.0082 61.7783 39.4518C60.9938 41.8495 58.4668 42.9657 58.2469 46.2099C58.1707 47.3321 58.4684 48.4455 59.0633 49.3991C59.209 49.6327 59.3629 49.8612 59.5191 50.0863" fill="#FFCE9B"/>
<path d="M85.9988 78.6254L86 78.6631L86.0683 78.6608L86.03 78.6043L85.9988 78.6254ZM71.9344 55.2864L71.9672 55.268L71.9344 55.2864ZM68.3371 45.8221L68.2994 45.8229L68.2994 45.823L68.3371 45.8221ZM67.8468 33.2725L67.81 33.2805L67.81 33.2808L67.8468 33.2725ZM66.127 27.1996L66.1623 27.1864L66.1616 27.1847L66.127 27.1996ZM64.975 24.8127L65.0061 24.7914L65.0061 24.7914L64.975 24.8127ZM62.9158 24.413L62.8973 24.3802L62.8954 24.3814L62.9158 24.413ZM62.2888 28.748L62.3265 28.7464L62.3265 28.7463L62.2888 28.748ZM61.7783 39.4518L61.8141 39.4635L61.8141 39.4635L61.7783 39.4518ZM58.2469 46.2099L58.2844 46.2124L58.2844 46.2124L58.2469 46.2099ZM59.0633 49.3991L59.0953 49.3792L59.0953 49.3792L59.0633 49.3991ZM74.1379 79.0128L74.1391 79.0504L86 78.6631L85.9988 78.6254L85.9976 78.5878L74.1367 78.9752L74.1379 79.0128ZM85.9988 78.6254L86.03 78.6043C83.7837 75.2913 74.018 58.9234 71.9672 55.268L71.9344 55.2864L71.9016 55.3049C73.9526 58.9609 83.7195 75.3309 85.9676 78.6466L85.9988 78.6254ZM71.9344 55.2864L71.9672 55.268C70.2533 52.213 68.4579 49.3165 68.3747 45.8212L68.3371 45.8221L68.2994 45.823C68.3832 49.3412 70.191 52.2558 71.9016 55.3049L71.9344 55.2864ZM68.3371 45.8221L68.3747 45.8212C68.3479 44.6524 69.2323 39.3013 67.8835 33.2643L67.8468 33.2725L67.81 33.2808C69.1568 39.309 68.2721 44.6342 68.2994 45.8229L68.3371 45.8221ZM67.8468 33.2725L67.8836 33.2645C67.5387 31.6751 66.7152 28.6733 66.1623 27.1865L66.127 27.1996L66.0917 27.2127C66.643 28.6953 67.4656 31.6934 67.81 33.2805L67.8468 33.2725ZM66.127 27.1996L66.1616 27.1847C66.0858 27.0086 65.8511 26.4896 65.6086 25.9756C65.4873 25.7186 65.364 25.4626 65.2576 25.2512C65.1516 25.0407 65.0612 24.872 65.0061 24.7914L64.975 24.8127L64.9439 24.834C64.9957 24.9096 65.0838 25.0736 65.1903 25.2851C65.2963 25.4956 65.4193 25.751 65.5405 26.0078C65.7828 26.5214 66.0171 27.0395 66.0924 27.2145L66.127 27.1996ZM64.975 24.8127L65.0061 24.7914C64.7938 24.481 64.502 24.2446 64.1435 24.1533C63.7847 24.0618 63.3641 24.117 62.8974 24.3802L62.9158 24.413L62.9343 24.4458C63.3877 24.1902 63.7884 24.1405 64.1249 24.2263C64.4618 24.3122 64.7395 24.5351 64.9439 24.834L64.975 24.8127ZM62.9158 24.413L62.8954 24.3814C62.6348 24.5497 62.4643 24.8485 62.3541 25.2104C62.2437 25.5729 62.1922 26.0039 62.1734 26.4441C62.1359 27.3237 62.2291 28.2503 62.2512 28.7497L62.2888 28.748L62.3265 28.7463C62.3041 28.2407 62.2113 27.3226 62.2486 26.4473C62.2673 26.01 62.3184 25.5861 62.4262 25.2323C62.5341 24.878 62.6973 24.5991 62.9363 24.4447L62.9158 24.413ZM62.2888 28.748L62.2512 28.7497C62.3985 32.1023 62.8654 36.0049 61.7425 39.4401L61.7783 39.4518L61.8141 39.4635C62.9425 36.0115 62.4733 32.0896 62.3265 28.7464L62.2888 28.748ZM61.7783 39.4518L61.7425 39.4401C61.3529 40.631 60.5315 41.5021 59.7711 42.4905C59.0119 43.4771 58.32 44.5744 58.2093 46.2074L58.2469 46.2099L58.2844 46.2124C58.3937 44.6013 59.0752 43.5183 59.8307 42.5364C60.5849 41.5561 61.4192 40.6703 61.8141 39.4635L61.7783 39.4518ZM58.2469 46.2099L58.2093 46.2074C58.1325 47.3379 58.4325 48.4591 59.0314 49.4191L59.0633 49.3991L59.0953 49.3792C58.5043 48.4319 58.2088 47.3263 58.2844 46.2124L58.2469 46.2099ZM59.0633 49.3991L59.0314 49.4191C59.1775 49.6534 59.3318 49.8824 59.4881 50.1078L59.5191 50.0863L59.55 50.0648C59.3941 49.84 59.2405 49.6121 59.0953 49.3792L59.0633 49.3991Z" fill="#082422"/>
<path d="M66.1253 27.1983C65.9744 26.8473 65.1871 25.124 64.9734 24.8115C64.9488 24.7757 64.9233 24.7409 64.8964 24.7071L64.0506 25.0233C64.0203 25.0347 64.0043 25.0682 64.0151 25.0986L64.028 25.1361C64.0485 25.1877 64.5058 26.4558 65.3259 27.2164C65.4822 27.3627 65.6885 27.4513 65.8826 27.4618C65.9228 27.4642 65.9665 27.4631 66.0033 27.4616C66.0716 27.4523 66.1339 27.4333 66.1991 27.3999C66.1745 27.3324 66.1496 27.2649 66.125 27.1984L66.1253 27.1983Z" stroke="#082422" stroke-width="0.0753214" stroke-miterlimit="10"/>
<path d="M47.7327 44.6976C48.9643 44.7535 49.8445 44.0036 49.292 42.7108C49.0808 42.2176 48.6934 41.8247 48.2941 41.4713C47.7236 40.9633 47.1123 40.5055 46.4668 40.1011C46.2638 39.9736 46.0544 39.8495 45.821 39.7948C45.5187 39.7226 45.2037 39.7718 44.9061 39.853C44.0342 40.0942 43.8969 40.8266 44.0584 41.5798C44.181 42.151 44.4799 42.7294 44.735 43.1454C45.3984 44.2256 46.5076 44.6448 47.7327 44.6976Z" fill="#FFCE9B"/>
<path d="M44.0219 41.0555C44.0225 41.0347 44.0061 41.0174 43.9853 41.0168C43.9645 41.0162 43.9472 41.0326 43.9466 41.0534L43.9843 41.0544L44.0219 41.0555ZM44.735 43.146L44.7029 43.1657L44.7029 43.1657L44.735 43.146ZM47.7327 44.6982L47.7344 44.6606L47.7343 44.6606L47.7327 44.6982ZM49.292 42.7114L49.3266 42.6966L49.3266 42.6966L49.292 42.7114ZM48.2941 41.4719L48.2691 41.5L48.2691 41.5001L48.2941 41.4719ZM46.5101 40.0832C46.4925 40.0721 46.4693 40.0774 46.4582 40.095C46.4471 40.1126 46.4524 40.1358 46.47 40.1469L46.4901 40.115L46.5101 40.0832ZM43.9843 41.0544L43.9466 41.0534C43.9363 41.4203 44.0403 41.8089 44.1886 42.1743C44.3371 42.5401 44.5311 42.8852 44.7029 43.1657L44.735 43.146L44.7671 43.1263C44.5963 42.8475 44.4047 42.5063 44.2584 42.146C44.112 41.7852 44.012 41.4077 44.0219 41.0555L43.9843 41.0544ZM44.735 43.146L44.7029 43.1657C45.3752 44.2603 46.4987 44.6827 47.731 44.7358L47.7327 44.6982L47.7343 44.6606C46.5166 44.608 45.4217 44.1921 44.7671 43.1263L44.735 43.146ZM47.7327 44.6982L47.731 44.7358C48.3536 44.7641 48.8944 44.589 49.2095 44.2356C49.5267 43.8798 49.607 43.3526 49.3266 42.6966L49.292 42.7114L49.2573 42.7262C49.5295 43.363 49.446 43.8571 49.1533 44.1855C48.8585 44.5162 48.3434 44.6882 47.7344 44.6606L47.7327 44.6982ZM49.292 42.7114L49.3266 42.6966C49.1119 42.1952 48.719 41.7976 48.3191 41.4437L48.2941 41.4719L48.2691 41.5001C48.6678 41.8529 49.0497 42.2412 49.2573 42.7262L49.292 42.7114ZM48.2941 41.4719L48.3192 41.4438C47.7555 40.9419 47.1468 40.4841 46.5101 40.0832L46.4901 40.115L46.47 40.1469C47.1032 40.5456 47.7085 41.0009 48.2691 41.5L48.2941 41.4719Z" fill="#082422"/>
<path d="M47.7634 38.1691C47.9469 38.0179 48.0963 37.8312 48.175 37.6039C48.4636 36.7946 47.8558 35.742 47.3552 35.1393C46.7857 34.4561 46.2374 33.9277 45.4522 33.5192C45.0864 33.3292 44.4964 33.1593 44.0866 33.1457C43.6767 33.1322 43.233 33.3083 43.0397 33.6682C42.8744 33.9744 42.8036 34.5687 42.8144 34.9157C42.8651 36.6406 45.1034 39.2718 47.1503 38.5129C47.3626 38.4366 47.5802 38.3206 47.7637 38.1694L47.7634 38.1691Z" fill="#FFCE9B"/>
<path d="M42.9192 33.9949L42.9557 34.0044L42.9557 34.0044L42.9192 33.9949ZM42.8146 34.916L42.8522 34.9149L42.8522 34.9149L42.8146 34.916ZM47.1504 38.5132L47.1377 38.4778L47.1373 38.4779L47.1504 38.5132ZM48.1754 37.6045L48.14 37.5919L48.1399 37.5922L48.1754 37.6045ZM47.3556 35.14L47.3846 35.1159L47.3845 35.1159L47.3556 35.14ZM43.0311 33.6503L42.9965 33.6355C42.9305 33.7897 42.9151 33.8613 42.8828 33.9854L42.9192 33.9949L42.9557 34.0044C42.988 33.8801 43.0022 33.8135 43.0657 33.6651L43.0311 33.6503ZM42.9192 33.9949L42.8828 33.9854C42.8026 34.2933 42.7691 34.6675 42.7769 34.9172L42.8146 34.916L42.8522 34.9149C42.8446 34.6717 42.8774 34.3047 42.9557 34.0044L42.9192 33.9949ZM42.8146 34.916L42.7769 34.9172C42.8026 35.7926 43.3815 36.8904 44.208 37.6734C45.0345 38.4564 46.1205 38.9352 47.1635 38.5485L47.1504 38.5132L47.1373 38.4779C46.1334 38.8501 45.0769 38.3928 44.2598 37.6187C43.4427 36.8446 42.8771 35.7644 42.8522 34.9149L42.8146 34.916ZM47.1504 38.5132L47.1631 38.5487C47.3789 38.4711 47.6004 38.3531 47.7877 38.1988L47.7638 38.1697L47.7398 38.1407C47.5601 38.2887 47.3465 38.4027 47.1377 38.4778L47.1504 38.5132ZM47.7638 38.1697L47.7877 38.1988C47.9751 38.0444 48.1295 37.8522 48.211 37.6169L48.1754 37.6045L48.1399 37.5922C48.064 37.8114 47.9194 37.9927 47.7398 38.1407L47.7638 38.1697ZM48.1754 37.6045L48.2109 37.6172C48.3597 37.1999 48.2763 36.724 48.0964 36.2806C47.9161 35.8365 47.6367 35.4194 47.3846 35.1159L47.3556 35.14L47.3266 35.1641C47.5752 35.4633 47.8499 35.8738 48.0266 36.309C48.2035 36.7449 48.2797 37.1999 48.14 37.5919L48.1754 37.6045ZM47.3556 35.14L47.3845 35.1159C46.8134 34.4306 46.2614 33.8982 45.47 33.4865L45.4526 33.5199L45.4352 33.5534C46.2144 33.9586 46.7589 34.4829 47.3267 35.1641L47.3556 35.14Z" fill="#082422"/>
<path d="M47.3101 44.4432C47.2625 44.4447 47.1777 44.4143 46.9034 44.2913C46.7664 44.2296 46.5584 44.1303 46.5175 44.1058C46.2079 43.9071 45.9816 43.68 45.8424 43.4318C45.6526 43.0901 45.6509 42.6801 45.8394 42.3961C45.9963 42.1569 46.2595 42.0388 46.5782 42.0689C47.6996 42.1688 48.0817 42.7024 48.1006 42.7237L48.1464 42.7883L48.1007 42.8518C47.6979 43.4063 47.4648 44.0174 47.4203 44.3482L47.4111 44.407L47.3535 44.4343C47.3388 44.4347 47.3283 44.4423 47.3101 44.4428L47.3101 44.4432Z" stroke="#082422" stroke-width="0.0753214" stroke-miterlimit="10"/>
<path d="M45.7805 37.9929L45.6646 37.8952C44.9495 37.2908 44.5521 36.7658 44.4154 36.2444C44.3055 35.8391 44.4456 35.3439 44.7441 35.0695C45.0124 34.8235 45.3838 34.7651 45.7851 34.9122C46.5757 35.1989 47.2467 36.0227 47.2752 36.0568L47.3482 36.1479L47.2572 36.221C47.2457 36.2293 46.2101 37.0602 45.846 37.8545L45.7802 37.9929L45.7805 37.9929Z" stroke="#082422" stroke-width="0.0753214" stroke-miterlimit="10"/>
<path d="M53.4291 8.30293L50.3151 8.67452C49.9262 8.72092 49.6484 9.07422 49.6947 9.46362C49.7409 9.85302 50.0937 10.1311 50.4826 10.0847L53.5966 9.71307C53.9855 9.66666 54.2633 9.31337 54.217 8.92397C54.1708 8.53457 53.818 8.25652 53.4291 8.30293Z" fill="#2BF2F1" stroke="#082422" stroke-width="0.0753214" stroke-miterlimit="10"/>
<g opacity="0.2">
<mask id="mask0_664_11597" style="mask-type:alpha" maskUnits="userSpaceOnUse" x="41" y="6" width="45" height="74">
<path d="M45.9766 20.3931C45.9766 20.3931 44.848 19.7685 44.0165 19.4679C43.9473 19.4439 43.8814 19.4231 43.8189 19.4087C43.961 20.2996 43.9021 21.125 43.8432 21.6398C43.8072 21.9482 43.749 22.2768 43.5441 22.5054C43.8043 22.7913 44.1253 23.0427 44.5031 23.2301C46.2262 24.0876 46.8392 24.2873 46.8392 24.2873L45.9766 20.3931Z" fill="#2BF2F1"/>
<path d="M45.9766 20.393C45.9766 20.393 44.8479 19.7684 44.0165 19.4678C42.0467 18.7553 41.0985 22.2745 44.5099 23.5533C46.233 24.4108 46.8359 24.2873 46.8359 24.2873" fill="#2BF2F1"/>
<path d="M45.7969 28.7184C43.3175 28.4722 41.1177 28.0281 41.0934 26.1607C41.0836 25.4015 41.9343 24.4412 43.9545 24.3812L46.0858 24.3142" fill="#2BF2F1"/>
<path d="M66.7399 79.2168C66.0051 77.5243 64.7693 74.5209 64.6185 74.1858C61.571 67.4125 58.127 56.9642 53.7178 52.667C51.4282 50.7032 50.6563 49.4926 48.8619 47.0884C48.0413 45.9901 47.0935 44.9971 46.2698 43.9022C45.9192 43.4361 45.5747 43.1659 45.1122 42.8766C44.703 42.6215 44.3969 42.3272 44.2097 41.8691C44.0083 41.3755 43.9392 41.358 43.9812 40.8241C44.046 39.9789 44.6411 39.0877 45.3812 38.6592C45.7497 38.445 46.1742 38.3565 46.5928 38.2845C47.2449 38.1725 47.9015 38.0963 48.5625 38.0592C49.1257 38.0251 49.5328 38.1071 50.0644 38.208C50.688 38.3289 51.4241 38.1881 52.056 38.1584C52.7856 38.1257 53.512 38.093 54.2426 38.0896C56.5419 38.0761 59.0212 38.2889 60.9284 39.7092C62.3712 40.7814 63.261 42.4233 64.1067 44.0109C65.8607 47.3085 67.6145 50.6028 69.3685 53.9003C69.781 54.6749 70.2003 55.459 70.7946 56.1037C71.4665 56.8309 82.2658 78.1304 83.0763 78.6996" fill="#2BF2F1"/>
<path d="M43.8606 32.6156C43.4991 32.8426 43.0038 33.381 42.8774 34.1333C42.7897 34.6655 42.9802 34.6039 43.2941 35.045C43.9633 35.9945 45.2087 36.4945 46.3467 36.2724C47.4135 36.0656 48.3823 35.13 48.3645 34.0424C48.3473 33.0757 47.5804 32.1293 46.6644 31.8378C45.6759 31.5226 44.702 32.0891 43.8606 32.6156Z" fill="#2BF2F1"/>
<path d="M46.6884 41.7584C46.8526 43.1453 48.1168 44.1415 49.5012 43.9737L62.4226 42.4268C63.807 42.2623 64.8014 40.9958 64.634 39.609L60.9259 8.52498C60.7617 7.13807 59.4975 6.14196 58.1131 6.30969L45.1917 7.85665C43.8073 8.02111 42.8129 9.28761 42.9803 10.6744L46.6884 41.7584Z" fill="#2BF2F1"/>
<path d="M62.1563 18.7479L62.235 18.7382C62.2922 18.7328 62.3339 18.6776 62.3285 18.6199L61.8262 14.4072C61.8208 14.3499 61.7656 14.3082 61.7081 14.3136L61.6294 14.3232L62.1563 18.7476L62.1563 18.7479Z" fill="#2BF2F1"/>
<path d="M49.3336 43.3166C48.8663 43.3313 48.4124 43.1822 48.0395 42.8884C47.6194 42.5572 47.3527 42.082 47.289 41.5503L43.6125 10.7323C43.5489 10.202 43.6959 9.67778 44.0262 9.25696C44.3568 8.83613 44.8312 8.56893 45.3619 8.50518L58.1725 6.97478C59.2667 6.84265 60.2644 7.62755 60.396 8.724L64.0722 39.5424C64.1358 40.0727 63.9888 40.5969 63.6585 41.0177C63.3279 41.4385 62.8535 41.7057 62.3228 41.7695L49.5119 43.3032C49.4521 43.3103 49.3926 43.3148 49.3333 43.3166L49.3336 43.3166ZM58.3749 7.77065C58.3397 7.77175 58.3046 7.77449 58.2692 7.77855L58.2689 7.77856L45.4576 9.30931C45.1417 9.34735 44.8587 9.50657 44.6614 9.75786C44.4644 10.0088 44.3769 10.3207 44.4149 10.6365L48.0911 41.4549C48.1291 41.7719 48.288 42.0552 48.5389 42.2528C48.7894 42.4501 49.1007 42.5377 49.416 42.4997L62.2271 40.966C62.5437 40.928 62.8264 40.7687 63.0237 40.5175C63.2207 40.2665 63.3081 39.9546 63.2702 39.6388L59.5939 8.82047C59.5198 8.20323 58.9843 7.75148 58.3753 7.77064L58.3749 7.77065Z" fill="#2BF2F1"/>
<path d="M58.2592 7.22253L45.3377 8.76622C44.4538 8.87246 43.8233 9.67656 43.9293 10.5588L47.6373 41.6428C47.7434 42.5283 48.5461 43.1599 49.4267 43.0538L62.3481 41.5068C63.232 41.4006 63.8625 40.5965 63.7565 39.7142L60.0485 8.6302C59.9425 7.74797 59.1399 7.1164 58.2592 7.22253Z" fill="#2BF2F1"/>
<path d="M47.4838 40.3516C52.7689 35.6095 58.6796 28.9551 59.4286 21.5738C59.7249 18.6581 59.3116 15.5631 56.9586 13.5639C51.4135 8.8526 46.6825 16.6823 45.2365 21.2908L45.2364 21.29C45.2262 21.2785 45.216 21.267 45.2058 21.2555L47.4838 40.3516Z" fill="#2BF2F1"/>
<path d="M64.2351 40.4226L62.4197 25.1863C62.3353 25.4807 62.2913 25.7919 62.2575 26.0884C62.0168 28.2755 62.1523 30.4221 61.7817 32.5954C61.1525 36.2718 60.6669 39.5944 58.9668 42.8435L62.6824 42.3988C63.657 42.2816 64.3522 41.3986 64.2351 40.4226Z" fill="#2BF2F1"/>
<path d="M74.1272 79.0122L85.9856 78.6261C83.7385 75.3113 73.9725 58.9406 71.9216 55.2845C70.2094 52.2321 68.4078 49.3262 68.324 45.8193C68.2968 44.6404 69.1806 39.3021 67.8324 33.2691C67.4878 31.6807 66.6645 28.6805 66.1123 27.1957C65.9614 26.8446 65.1741 25.1211 64.9604 24.8085C64.5436 24.1991 63.8215 23.8898 62.9016 24.4086C61.9028 25.0541 62.2306 27.7387 62.2751 28.7438C62.4225 32.0919 62.8909 36.0043 61.7659 39.448C60.9818 41.8457 58.4554 42.9617 58.2358 46.206C58.1598 47.3283 58.4576 48.4417 59.0525 49.3955C59.1981 49.6291 59.3521 49.8576 59.5082 50.0828" fill="#2BF2F1"/>
<path d="M47.7193 44.6958C48.9508 44.7519 49.8309 44.002 49.2782 42.709C49.067 42.2157 48.6796 41.8227 48.2803 41.4692C47.7098 40.9611 47.0985 40.5032 46.453 40.0987C46.25 39.9711 46.0406 39.847 45.8073 39.7923C45.505 39.7201 45.1901 39.7692 44.8925 39.8504C44.0206 40.0916 43.8834 40.824 44.045 41.5773C44.1676 42.1486 44.4666 42.7271 44.7217 43.1432C45.3852 44.2236 46.4944 44.6429 47.7193 44.6958Z" fill="#2BF2F1"/>
<path d="M47.75 38.1674C47.9334 38.0162 48.0829 37.8295 48.1615 37.6022C48.45 36.7928 47.8422 35.7401 47.3415 35.1373C46.772 34.4539 46.2238 33.9255 45.4385 33.5169C45.0727 33.3268 44.4829 33.1568 44.0731 33.1432C43.6632 33.1296 43.2196 33.3056 43.0263 33.6656C42.8611 33.9718 42.7903 34.5661 42.8012 34.9132C42.852 36.6382 45.0904 39.2699 47.137 38.5112C47.3493 38.4349 47.5668 38.3189 47.7503 38.1677L47.75 38.1674Z" fill="#2BF2F1"/>
<path d="M53.4151 8.30076L50.3012 8.67211C49.9123 8.71848 49.6346 9.07183 49.6808 9.46133C49.7271 9.85083 50.0799 10.129 50.4688 10.0826L53.5827 9.71126C53.9716 9.66488 54.2494 9.31153 54.2031 8.92204C54.1568 8.53254 53.804 8.25439 53.4151 8.30076Z" fill="#2BF2F1"/>
</mask>
<g mask="url(#mask0_664_11597)">
<path d="M44.416 19.3321C44.416 19.3321 45.5783 18.7728 46.4256 18.5199C46.4961 18.4999 46.5631 18.4829 46.6263 18.4721C46.4344 19.3534 46.4469 20.1806 46.4768 20.6979C46.4955 21.0077 46.5352 21.3391 46.727 21.579C46.4511 21.8496 46.1164 22.0822 45.7286 22.2479C43.9594 23.006 43.336 23.1704 43.336 23.1704L44.416 19.3321Z" fill="black"/>
<path d="M44.4156 19.3321C44.4156 19.3321 45.5778 18.7728 46.425 18.52C48.4321 17.9207 49.1817 21.4873 45.703 22.57C43.9341 23.3281 43.3389 23.1705 43.3389 23.1705" fill="black"/>
<path d="M46.425 18.52L46.4358 18.5561L46.4358 18.5561L46.425 18.52ZM45.703 22.57L45.6881 22.5352L45.6918 22.5341L45.703 22.57ZM44.4156 19.3321C44.3992 19.2982 44.3992 19.2982 44.3992 19.2982C44.3992 19.2982 44.3993 19.2981 44.3993 19.2981C44.3993 19.2981 44.3994 19.2981 44.3994 19.2981C44.3996 19.298 44.3998 19.2979 44.4001 19.2977C44.4007 19.2975 44.4015 19.2971 44.4026 19.2965C44.4049 19.2955 44.4082 19.2939 44.4126 19.2918C44.4214 19.2876 44.4343 19.2814 44.4511 19.2735C44.4846 19.2577 44.5334 19.2348 44.5946 19.2066C44.717 19.1501 44.889 19.0721 45.0876 18.9863C45.4844 18.8147 45.9884 18.6109 46.4142 18.4839L46.425 18.52L46.4358 18.5561C46.0144 18.6818 45.5137 18.8841 45.1175 19.0554C44.9197 19.141 44.7482 19.2187 44.6262 19.275C44.5652 19.3031 44.5166 19.3259 44.4833 19.3416C44.4666 19.3495 44.4537 19.3556 44.4451 19.3598C44.4407 19.3618 44.4374 19.3634 44.4352 19.3645C44.4341 19.365 44.4333 19.3654 44.4327 19.3657C44.4325 19.3658 44.4323 19.3659 44.4321 19.366C44.432 19.366 44.432 19.366 44.432 19.366C44.4319 19.366 44.4319 19.366 44.4319 19.366C44.4319 19.366 44.4319 19.366 44.4156 19.3321ZM46.425 18.52L46.4142 18.4839C46.9276 18.3306 47.3646 18.4432 47.6732 18.7197C47.9808 18.9951 48.1571 19.4295 48.1588 19.9142C48.1623 20.8858 47.4663 22.0607 45.7142 22.606L45.703 22.57L45.6918 22.5341C47.4184 21.9967 48.0869 20.847 48.0835 19.9144C48.0818 19.4469 47.9118 19.0344 47.623 18.7758C47.3354 18.5182 46.926 18.4097 46.4358 18.5561L46.425 18.52ZM45.703 22.57L45.7179 22.6047C44.8312 22.9846 44.2371 23.1358 43.8632 23.1918C43.6762 23.2198 43.5442 23.2239 43.4583 23.2209C43.4153 23.2194 43.3838 23.2161 43.3626 23.2131C43.3521 23.2116 43.3441 23.2101 43.3386 23.209C43.3358 23.2084 43.3337 23.208 43.3322 23.2076C43.3314 23.2074 43.3308 23.2073 43.3303 23.2072C43.3301 23.2071 43.3299 23.2071 43.3297 23.207C43.3296 23.207 43.3295 23.207 43.3295 23.207C43.3294 23.2069 43.3294 23.2069 43.3294 23.2069C43.3293 23.2069 43.3293 23.2069 43.3389 23.1705C43.3485 23.1341 43.3485 23.1341 43.3485 23.1341C43.3485 23.1341 43.3484 23.1341 43.3484 23.1341C43.3484 23.1341 43.3484 23.1341 43.3484 23.1341C43.3483 23.134 43.3484 23.1341 43.3484 23.1341C43.3485 23.1341 43.3488 23.1342 43.3492 23.1343C43.35 23.1344 43.3514 23.1348 43.3535 23.1352C43.3575 23.136 43.3641 23.1372 43.3733 23.1385C43.3916 23.1411 43.4204 23.1442 43.4608 23.1456C43.5417 23.1485 43.6691 23.1447 43.852 23.1173C44.218 23.0625 44.8058 22.9135 45.6882 22.5354L45.703 22.57Z" fill="black"/>
<path d="M44.1269 27.6533C46.6166 27.5485 48.8383 27.2302 48.9673 25.3676C49.0197 24.6105 48.2241 23.6036 46.21 23.4289L44.0854 23.2409" fill="black"/>
<path d="M48.9673 25.3676L49.0049 25.3702L49.0049 25.3702L48.9673 25.3676ZM46.21 23.4289L46.2067 23.4665L46.2067 23.4664L46.21 23.4289ZM44.1269 27.6533L44.1252 27.6157C45.3703 27.5633 46.5427 27.4575 47.4193 27.1343C47.8571 26.9728 48.2188 26.758 48.4787 26.4705C48.7382 26.1836 48.898 25.8226 48.9297 25.365L48.9673 25.3676L49.0049 25.3702C48.9721 25.8439 48.8059 26.2211 48.5346 26.521C48.2639 26.8204 47.8904 27.0409 47.4454 27.2049C46.5565 27.5327 45.3731 27.6385 44.1285 27.6909L44.1269 27.6533ZM48.9673 25.3676L48.9297 25.365C48.9799 24.6393 48.2134 23.6404 46.2067 23.4665L46.21 23.4289L46.2132 23.3914C48.2348 23.5667 49.0594 24.5817 49.0049 25.3702L48.9673 25.3676ZM46.21 23.4289L46.2067 23.4664L44.0821 23.2784L44.0854 23.2409L44.0887 23.2034L46.2133 23.3914L46.21 23.4289Z" fill="black"/>
<path d="M20.3752 76.8824C21.204 75.2348 22.6067 72.307 22.7761 71.9811C26.1995 65.3933 30.2251 55.1597 34.8696 51.1208C37.2663 49.2907 38.1051 48.1261 40.032 45.8283C40.9131 44.7786 41.9154 43.8413 42.7994 42.7952C43.1757 42.3499 43.5349 42.0997 44.013 41.8372C44.436 41.6058 44.7582 41.3295 44.9709 40.8828C45.1997 40.4015 45.2696 40.3881 45.2577 39.8527C45.2403 39.0054 44.696 38.082 43.9809 37.6122C43.625 37.3775 43.206 37.265 42.792 37.1694C42.147 37.0205 41.4956 36.9071 40.8376 36.8325C40.277 36.7665 39.8659 36.8252 39.3293 36.8957C38.6998 36.9809 37.9726 36.7986 37.3432 36.733C36.6163 36.6589 35.8927 36.585 35.1633 36.5401C32.8678 36.396 30.3798 36.4675 28.3955 37.7769C26.8945 38.7651 25.9137 40.3534 24.9801 41.8902C23.0434 45.0821 21.1071 48.2707 19.1704 51.4626C18.7151 52.2123 18.2523 52.9712 17.6226 53.5809C16.9108 54.2686 4.9309 74.9157 4.08952 75.4378" fill="black"/>
<path d="M22.7761 71.9811L22.7426 71.9637L22.7761 71.9811ZM34.8696 51.1208L34.8448 51.0923L34.8467 51.0909L34.8696 51.1208ZM40.032 45.8283L40.0032 45.8041L40.0032 45.8041L40.032 45.8283ZM42.7994 42.7952L42.8282 42.8195L42.8282 42.8195L42.7994 42.7952ZM44.013 41.8372L43.9948 41.8042L43.9949 41.8041L44.013 41.8372ZM44.9709 40.8828L45.0049 40.899L45.0049 40.899L44.9709 40.8828ZM45.2577 39.8527L45.22 39.8535L45.22 39.8534L45.2577 39.8527ZM43.9809 37.6122L43.9603 37.6437L43.9602 37.6437L43.9809 37.6122ZM42.792 37.1694L42.8005 37.1327L42.8005 37.1327L42.792 37.1694ZM40.8376 36.8325L40.8334 36.8699L40.8332 36.8699L40.8376 36.8325ZM39.3293 36.8957L39.3242 36.8584L39.3244 36.8584L39.3293 36.8957ZM37.3432 36.733L37.347 36.6956L37.347 36.6956L37.3432 36.733ZM35.1633 36.5401L35.161 36.5777L35.1609 36.5777L35.1633 36.5401ZM28.3955 37.7769L28.4163 37.8083L28.4163 37.8084L28.3955 37.7769ZM24.9801 41.8902L24.9479 41.8706L24.9479 41.8706L24.9801 41.8902ZM19.1704 51.4626L19.2026 51.4821L19.2026 51.4822L19.1704 51.4626ZM17.6226 53.5809L17.6488 53.608L17.6488 53.608L17.6226 53.5809ZM20.3752 76.8824L20.3415 76.8654C21.1692 75.22 22.5735 72.2893 22.7426 71.9637L22.7761 71.9811L22.8095 71.9985C22.6399 72.3248 21.2387 75.2495 20.4088 76.8993L20.3752 76.8824ZM22.7761 71.9811L22.7426 71.9637C23.5982 70.3174 24.4914 68.4433 25.4228 66.4941C26.3542 64.5453 27.3237 62.5217 28.3315 60.5777C30.3463 56.6912 32.5166 53.117 34.8449 51.0924L34.8696 51.1208L34.8943 51.1492C32.5781 53.1634 30.4134 56.7255 28.3984 60.6125C27.3913 62.5552 26.4222 64.5777 25.4908 66.5267C24.5595 68.4754 23.6657 70.3509 22.8095 71.9985L22.7761 71.9811ZM34.8696 51.1208L34.8467 51.0909C37.2395 49.2638 38.0755 48.1027 40.0032 45.8041L40.032 45.8283L40.0609 45.8525C38.1346 48.1496 37.2931 49.3176 34.8925 51.1508L34.8696 51.1208ZM40.032 45.8283L40.0032 45.8041C40.4446 45.2782 40.9162 44.7807 41.3873 44.2845C41.8586 43.788 42.3294 43.2929 42.7707 42.7708L42.7994 42.7952L42.8282 42.8195C42.3853 43.3435 41.913 43.8402 41.4419 44.3364C40.9706 44.8328 40.5006 45.3287 40.0609 45.8525L40.032 45.8283ZM42.7994 42.7952L42.7707 42.7708C43.1508 42.3209 43.5142 42.0681 43.9948 41.8042L44.013 41.8372L44.0311 41.8702C43.5556 42.1314 43.2006 42.3788 42.8282 42.8195L42.7994 42.7952ZM44.013 41.8372L43.9949 41.8041C44.4133 41.5753 44.7286 41.304 44.9369 40.8666L44.9709 40.8828L45.0049 40.899C44.7878 41.3549 44.4586 41.6364 44.0311 41.8702L44.013 41.8372ZM44.9709 40.8828L44.9368 40.8666C44.9943 40.7459 45.0419 40.654 45.0802 40.5773C45.1186 40.5002 45.1475 40.4385 45.1689 40.3758C45.2113 40.2517 45.226 40.1199 45.22 39.8535L45.2577 39.8527L45.2953 39.8519C45.3013 40.1208 45.287 40.2634 45.2402 40.4002C45.217 40.468 45.1862 40.5334 45.1476 40.6109C45.1087 40.6888 45.0619 40.7791 45.0049 40.899L44.9709 40.8828ZM45.2577 39.8527L45.22 39.8534C45.2029 39.0195 44.6658 38.1072 43.9603 37.6437L43.9809 37.6122L44.0016 37.5807C44.7262 38.0568 45.2777 38.9913 45.2953 39.8519L45.2577 39.8527ZM43.9809 37.6122L43.9602 37.6437C43.6105 37.413 43.1975 37.3017 42.7836 37.2061L42.792 37.1694L42.8005 37.1327C43.2145 37.2283 43.6395 37.342 44.0016 37.5808L43.9809 37.6122ZM42.792 37.1694L42.7836 37.2061C42.1399 37.0575 41.49 36.9444 40.8334 36.8699L40.8376 36.8325L40.8418 36.7951C41.5013 36.8699 42.1541 36.9835 42.8005 37.1327L42.792 37.1694ZM40.8376 36.8325L40.8332 36.8699C40.2779 36.8045 39.8712 36.8625 39.3342 36.933L39.3293 36.8957L39.3244 36.8584C39.8605 36.7879 40.2761 36.7285 40.842 36.7951L40.8376 36.8325ZM39.3293 36.8957L39.3344 36.933C39.0146 36.9763 38.6715 36.9515 38.3315 36.9083C37.9884 36.8646 37.6545 36.8033 37.3393 36.7705L37.3432 36.733L37.347 36.6956C37.6612 36.7283 38.0056 36.7909 38.3409 36.8335C38.6792 36.8766 39.0144 36.9003 39.3242 36.8584L39.3293 36.8957ZM37.3432 36.733L37.3394 36.7705C36.6124 36.6963 35.8895 36.6225 35.161 36.5777L35.1633 36.5401L35.1655 36.5025C35.8959 36.5475 36.6202 36.6214 37.347 36.6956L37.3432 36.733ZM35.1633 36.5401L35.1609 36.5777C32.8662 36.4336 30.3894 36.5063 28.4163 37.8083L28.3955 37.7769L28.3748 37.7454C30.3702 36.4287 32.8694 36.3583 35.1656 36.5025L35.1633 36.5401ZM28.3955 37.7769L28.4163 37.8084C26.9234 38.7912 25.9467 40.3717 25.0123 41.9097L24.9801 41.8902L24.9479 41.8706C25.8808 40.3351 26.8655 38.7391 28.3748 37.7454L28.3955 37.7769ZM24.9801 41.8902L25.0123 41.9097C24.044 43.5057 23.0757 45.1008 22.1075 46.6959C21.1392 48.2911 20.171 49.8862 19.2026 51.4821L19.1704 51.4626L19.1382 51.443C20.1066 49.8471 21.0748 48.2519 22.0431 46.6568C23.0113 45.0617 23.9796 43.4666 24.9479 41.8706L24.9801 41.8902ZM19.1704 51.4626L19.2026 51.4822C18.7477 52.2312 18.2826 52.9943 17.6488 53.608L17.6226 53.5809L17.5964 53.5538C18.2221 52.948 18.6825 52.1934 19.1383 51.443L19.1704 51.4626ZM17.6226 53.5809L17.6488 53.608C17.6291 53.627 17.5975 53.6657 17.5539 53.725C17.5108 53.7836 17.4572 53.8606 17.3939 53.955C17.2671 54.1436 17.1017 54.4006 16.9031 54.7162C16.506 55.3473 15.9765 56.212 15.3583 57.2323C14.122 59.2727 12.5316 61.9342 10.9369 64.5908C9.34239 67.2473 7.74365 69.8989 6.49093 71.919C5.86459 72.929 5.32458 73.7814 4.91475 74.3978C4.70987 74.706 4.53727 74.9555 4.40254 75.1364C4.3352 75.2268 4.277 75.3005 4.22876 75.3559C4.18142 75.4103 4.141 75.4502 4.10939 75.4698L4.08952 75.4378L4.06965 75.4058C4.09062 75.3928 4.12455 75.3608 4.17194 75.3064C4.21842 75.253 4.27534 75.181 4.34213 75.0914C4.47567 74.9121 4.64742 74.6638 4.85203 74.3561C5.26118 73.7407 5.80069 72.8891 6.42691 71.8792C7.67931 69.8597 9.27779 67.2086 10.8724 64.552C12.4669 61.8956 14.0575 59.2338 15.2939 57.1932C15.9121 56.1729 16.4419 55.3077 16.8394 54.676C17.0381 54.3602 17.204 54.1025 17.3313 53.9129C17.395 53.8182 17.4492 53.7402 17.4932 53.6803C17.5368 53.6211 17.5717 53.5778 17.5965 53.5538L17.6226 53.5809Z" fill="black"/>
<path d="M45.8403 31.6558C46.1885 31.903 46.6529 32.4685 46.737 33.2266C46.7947 33.7627 46.6079 33.6904 46.2696 34.1129C45.5482 35.0225 44.2764 35.4508 43.1524 35.1645C42.0988 34.8975 41.1838 33.9086 41.2625 32.8241C41.334 31.8601 42.1529 30.9591 43.084 30.7203C44.0888 30.4617 45.0295 31.0826 45.8403 31.6558Z" fill="black" stroke="black" stroke-width="0.0753214" stroke-miterlimit="10"/>
<path d="M42.509 40.6226C42.2672 41.9978 40.9485 42.9203 39.5752 42.6742L26.7558 40.3957C25.3822 40.1528 24.4601 38.832 24.7052 37.4571L30.153 6.63766C30.3948 5.26249 31.7135 4.33995 33.0868 4.58606L45.9062 6.86463C47.2798 7.10748 48.2019 8.42829 47.9569 9.80318L42.509 40.6226Z" fill="black" stroke="black" stroke-width="0.0753214" stroke-miterlimit="10"/>
<path d="M39.7789 42.0281C40.2449 42.0694 40.7066 41.9463 41.0956 41.6742C41.5337 41.3674 41.8268 40.9082 41.9202 40.3811L47.3218 9.82529C47.4151 9.2995 47.2976 8.76786 46.9913 8.32899C46.6847 7.8901 46.2259 7.5964 45.6994 7.5026L44.3722 7.26812L34.8848 5.5834L32.9896 5.24685C31.9041 5.05277 30.8635 5.77962 30.6706 6.86669L25.2693 37.4229C25.1761 37.9486 25.2935 38.4803 25.5998 38.9192C25.9064 39.358 26.3653 39.6517 26.8917 39.7455L39.6016 42.0046C39.6609 42.0151 39.7201 42.0229 39.7793 42.0282L39.7789 42.0281ZM32.7428 6.02984C32.7778 6.03295 32.8128 6.03768 32.848 6.04374L32.8483 6.04377L34.7438 6.38067L44.2315 8.06542L45.5587 8.29991C45.8721 8.35583 46.1458 8.53086 46.3288 8.79293C46.5115 9.05464 46.5813 9.37096 46.5257 9.68403L41.1244 40.2402C41.0687 40.5546 40.8941 40.8283 40.6324 41.0113C40.3711 41.1941 40.0552 41.2638 39.7425 41.208L27.0324 38.9489C26.7183 38.8929 26.4449 38.7179 26.2619 38.4558C26.0792 38.1941 26.0094 37.8778 26.065 37.5647L31.4663 7.00857C31.575 6.39662 32.1351 5.97607 32.7424 6.02981L32.7428 6.02984Z" fill="black" stroke="black" stroke-width="0.0753214" stroke-miterlimit="10"/>
<path d="M32.8891 5.48927L34.8011 5.82894L44.3708 7.52816L45.7089 7.7646C46.5859 7.92088 47.1705 8.75942 47.0152 9.63411L41.5672 40.4537C41.4116 41.3317 40.5744 41.9165 39.7007 41.7606L26.8812 39.482C26.0042 39.3257 25.4196 38.4871 25.5749 37.6125L31.0229 6.79283C31.1782 5.91814 32.0154 5.33328 32.8891 5.48927Z" fill="black" stroke="black" stroke-width="0.0753214" stroke-miterlimit="10"/>
<path fill-rule="evenodd" clip-rule="evenodd" d="M45.2583 19.5665L41.8501 38.8468C36.3337 33.5556 29.4366 24.002 31.2802 15.8923C32.2267 11.7331 36.6224 8.55078 40.4944 11.4567C42.5683 13.0132 43.6791 15.7291 44.691 18.203C44.8817 18.6692 45.0688 19.1268 45.2583 19.5665Z" fill="black"/>
<path d="M32.8891 5.48927L34.8011 5.82894L44.3708 7.52816L45.7089 7.7646C46.5859 7.92088 47.1705 8.75942 47.0152 9.63411L41.5672 40.4537C41.4116 41.3317 40.5744 41.9165 39.7007 41.7606L26.8812 39.482C26.0042 39.3257 25.4196 38.4871 25.5749 37.6125L31.0229 6.79283C31.1782 5.91814 32.0154 5.33328 32.8891 5.48927Z" stroke="black" stroke-width="0.0753214" stroke-miterlimit="10"/>
<path d="M41.3069 43.4968C40.0739 43.4827 39.2371 42.6842 39.8615 41.4251C40.1001 40.9446 40.5091 40.5744 40.9276 40.2443C41.5258 39.7695 42.162 39.3472 42.8293 38.9801C43.0392 38.8643 43.2552 38.7523 43.4913 38.7109C43.7973 38.6561 44.109 38.723 44.4016 38.821C45.2588 39.1112 45.3547 39.85 45.1511 40.5928C44.9966 41.1561 44.6655 41.7165 44.3874 42.1173C43.6643 43.158 42.5331 43.5135 41.3069 43.4968Z" fill="black"/>
<path d="M45.2174 40.0711C45.218 40.0503 45.2353 40.034 45.2561 40.0345C45.2769 40.0351 45.2933 40.0525 45.2927 40.0733L45.255 40.0722L45.2174 40.0711ZM44.3878 42.1175L44.4187 42.139L44.4187 42.139L44.3878 42.1175ZM41.3073 43.497L41.3077 43.4593L41.3078 43.4593L41.3073 43.497ZM39.862 41.4253L39.8282 41.4085L39.8282 41.4085L39.862 41.4253ZM40.928 40.2445L40.9515 40.274L40.9514 40.2741L40.928 40.2445ZM42.7875 38.9594C42.8057 38.9494 42.8286 38.956 42.8387 38.9742C42.8487 38.9924 42.8422 39.0153 42.824 39.0253L42.8057 38.9924L42.7875 38.9594ZM45.255 40.0722L45.2927 40.0733C45.2824 40.4401 45.1567 40.8221 44.988 41.1785C44.8192 41.5353 44.6061 41.8688 44.4187 42.139L44.3878 42.1175L44.3568 42.0961C44.5431 41.8274 44.7536 41.4977 44.9199 41.1463C45.0864 40.7945 45.2075 40.4233 45.2174 40.0711L45.255 40.0722ZM44.3878 42.1175L44.4187 42.139C43.6859 43.1936 42.5404 43.5514 41.3068 43.5346L41.3073 43.497L41.3078 43.4593C42.5266 43.4759 43.6434 43.1228 44.3569 42.096L44.3878 42.1175ZM41.3073 43.497L41.3069 43.5346C40.6836 43.5275 40.1534 43.3221 39.8586 42.9515C39.5619 42.5783 39.5114 42.0474 39.8282 41.4085L39.862 41.4253L39.8957 41.442C39.5881 42.0623 39.6437 42.5602 39.9176 42.9046C40.1933 43.2514 40.698 43.4523 41.3077 43.4593L41.3073 43.497ZM39.862 41.4253L39.8282 41.4085C40.0708 40.9201 40.4855 40.5456 40.9047 40.215L40.928 40.2445L40.9514 40.2741C40.5335 40.6037 40.1303 40.9696 39.8957 41.442L39.862 41.4253ZM40.928 40.2445L40.9046 40.215C41.4956 39.746 42.1292 39.3235 42.7875 38.9594L42.8057 38.9924L42.824 39.0253C42.1693 39.3874 41.5392 39.8076 40.9515 40.274L40.928 40.2445Z" fill="black"/>
<path d="M41.6434 36.977C41.4687 36.8157 41.3299 36.6208 41.2641 36.3895C41.0215 35.5652 41.6875 34.549 42.2214 33.9757C42.8284 33.3259 43.4056 32.8296 44.2127 32.4664C44.5886 32.2974 45.1873 32.1612 45.5973 32.1709C46.0073 32.1807 46.4405 32.3816 46.6133 32.7519C46.7611 33.0669 46.7985 33.6642 46.7681 34.0099C46.6206 35.729 44.2376 38.2287 42.2363 37.355C42.0286 37.2668 41.8178 37.1386 41.6431 36.9773L41.6434 36.977Z" fill="black"/>
<path d="M46.7155 33.0844L46.6786 33.0918L46.6786 33.0918L46.7155 33.0844ZM46.7682 34.0098L46.7307 34.0066L46.7307 34.0065L46.7682 34.0098ZM42.2364 37.3548L42.2511 37.3201L42.2515 37.3203L42.2364 37.3548ZM41.264 36.3896L41.3001 36.379L41.3002 36.3793L41.264 36.3896ZM42.2212 33.9758L42.1936 33.9502L42.1937 33.9501L42.2212 33.9758ZM46.6231 32.734L46.6585 32.7212C46.7158 32.8789 46.7271 32.9512 46.7524 33.077L46.7155 33.0844L46.6786 33.0918C46.6532 32.9659 46.6428 32.8986 46.5877 32.7468L46.6231 32.734ZM46.7155 33.0844L46.7524 33.077C46.8152 33.3888 46.8275 33.7643 46.8057 34.0131L46.7682 34.0098L46.7307 34.0065C46.7519 33.7642 46.7398 33.396 46.6786 33.0918L46.7155 33.0844ZM46.7682 34.0098L46.8057 34.0131C46.7308 34.8855 46.0911 35.9486 45.2218 36.6833C44.3525 37.4181 43.2411 37.8345 42.2214 37.3893L42.2364 37.3548L42.2515 37.3203C43.233 37.7488 44.3137 37.3522 45.1731 36.6258C46.0325 35.8994 46.658 34.8531 46.7307 34.0066L46.7682 34.0098ZM42.2364 37.3548L42.2217 37.3895C42.0106 37.2998 41.7961 37.1695 41.6177 37.0048L41.6433 36.9771L41.6688 36.9495C41.8399 37.1075 42.0468 37.2334 42.2511 37.3201L42.2364 37.3548ZM41.6433 36.9771L41.6177 37.0048C41.4393 36.84 41.2959 36.6395 41.2277 36.3999L41.264 36.3896L41.3002 36.3793C41.3636 36.6024 41.4978 36.7916 41.6688 36.9495L41.6433 36.9771ZM41.264 36.3896L41.2278 36.4002C41.1027 35.9752 41.2127 35.5049 41.4174 35.0725C41.6223 34.6394 41.9248 34.2388 42.1936 33.9502L42.2212 33.9758L42.2487 34.0015C41.9837 34.2861 41.6863 34.6804 41.4854 35.1047C41.2843 35.5298 41.1826 35.9797 41.3001 36.379L41.264 36.3896ZM42.2212 33.9758L42.1937 33.9501C42.8025 33.2985 43.3836 32.7983 44.197 32.4322L44.2125 32.4666L44.228 32.5009C43.4271 32.8613 42.8539 33.3538 42.2487 34.0016L42.2212 33.9758Z" fill="black"/>
<path d="M41.7429 43.2671C41.7903 43.2713 41.8767 43.2459 42.1575 43.1386C42.2978 43.0848 42.511 42.9975 42.5532 42.9753C42.8736 42.7945 43.1123 42.5806 43.2653 42.3408C43.474 42.0105 43.4988 41.6013 43.3265 41.3071C43.1833 41.0594 42.9271 40.9266 42.6072 40.9386C41.4817 40.9747 41.0702 41.4857 41.0501 41.5059L41.0008 41.5677L41.0428 41.6337C41.414 42.21 41.6123 42.8334 41.6382 43.1661L41.6441 43.2253L41.7 43.2558C41.7146 43.2571 41.7247 43.2652 41.7429 43.2668L41.7429 43.2671Z" stroke="black" stroke-width="0.0753214" stroke-miterlimit="10"/>
<path d="M43.633 36.9135L43.7542 36.8226C44.5023 36.2598 44.9287 35.7583 45.0944 35.2455C45.227 34.8471 45.1149 34.3449 44.8323 34.054C44.5782 33.7932 44.2106 33.7138 43.8016 33.8379C42.996 34.0793 42.2796 34.8636 42.2493 34.896L42.1713 34.9829L42.258 35.061C42.2691 35.0699 43.2565 35.9581 43.5754 36.7717L43.6333 36.9135L43.633 36.9135Z" stroke="black" stroke-width="0.0753214" stroke-miterlimit="10"/>
<path d="M37.6712 6.83854L40.7595 7.38597C41.1452 7.45434 41.4027 7.82271 41.3346 8.20874C41.2666 8.59478 40.8987 8.8523 40.513 8.78393L37.4248 8.2365C37.0391 8.16813 36.7816 7.79976 36.8496 7.41372C36.9177 7.02769 37.2855 6.77017 37.6712 6.83854Z" fill="black" stroke="black" stroke-width="0.0753214" stroke-miterlimit="10"/>
</g>
</g>
<path d="M43.2286 17.0076C43.2286 17.0076 44.3909 16.4483 45.2382 16.1955C45.3087 16.1755 45.3757 16.1584 45.4388 16.1476C45.2469 17.0289 45.2595 17.8561 45.2894 18.3735C45.3081 18.6833 45.3478 19.0146 45.5395 19.2545C45.2637 19.5251 44.9289 19.7578 44.5411 19.9234C42.772 20.6815 42.1486 20.846 42.1486 20.846L43.2286 17.0076Z" fill="#E1776E"/>
<path d="M43.2292 17.0074C43.2292 17.0074 44.3914 16.4481 45.2386 16.1953C47.2457 15.596 47.9953 19.1626 44.5166 20.2453C42.7477 21.0034 42.1525 20.8458 42.1525 20.8458" fill="#E5B481"/>
<path d="M45.2386 16.1953L45.2494 16.2313L45.2494 16.2314L45.2386 16.1953ZM44.5166 20.2453L44.5017 20.2105L44.5054 20.2094L44.5166 20.2453ZM43.2292 17.0074C43.2128 16.9735 43.2128 16.9735 43.2128 16.9735C43.2128 16.9734 43.2129 16.9734 43.2129 16.9734C43.2129 16.9734 43.213 16.9734 43.213 16.9734C43.2132 16.9733 43.2134 16.9732 43.2137 16.973C43.2143 16.9728 43.2151 16.9724 43.2162 16.9718C43.2185 16.9707 43.2218 16.9691 43.2262 16.9671C43.235 16.9629 43.2479 16.9567 43.2647 16.9488C43.2982 16.933 43.347 16.9101 43.4082 16.8819C43.5306 16.8254 43.7026 16.7474 43.9012 16.6616C44.298 16.49 44.802 16.2862 45.2278 16.1592L45.2386 16.1953L45.2494 16.2314C44.828 16.3571 44.3273 16.5594 43.9311 16.7307C43.7333 16.8163 43.5618 16.894 43.4398 16.9503C43.3788 16.9784 43.3302 17.0012 43.2969 17.0169C43.2802 17.0248 43.2673 17.0309 43.2587 17.0351C43.2543 17.0371 43.251 17.0387 43.2488 17.0398C43.2477 17.0403 43.2469 17.0407 43.2463 17.0409C43.2461 17.0411 43.2458 17.0412 43.2457 17.0412C43.2456 17.0413 43.2456 17.0413 43.2456 17.0413C43.2455 17.0413 43.2455 17.0413 43.2455 17.0413C43.2455 17.0413 43.2455 17.0413 43.2292 17.0074ZM45.2386 16.1953L45.2278 16.1592C45.7412 16.0059 46.1782 16.1185 46.4868 16.395C46.7944 16.6704 46.9707 17.1048 46.9724 17.5895C46.9759 18.5611 46.2799 19.736 44.5278 20.2813L44.5166 20.2453L44.5054 20.2094C46.232 19.672 46.9005 18.5222 46.8971 17.5897C46.8954 17.1222 46.7254 16.7097 46.4366 16.4511C46.149 16.1935 45.7396 16.085 45.2494 16.2313L45.2386 16.1953ZM44.5166 20.2453L44.5315 20.28C43.6448 20.6599 43.0507 20.8111 42.6768 20.8671C42.4898 20.8951 42.3578 20.8992 42.2719 20.8962C42.2289 20.8947 42.1974 20.8914 42.1762 20.8884C42.1657 20.8869 42.1577 20.8854 42.1522 20.8843C42.1494 20.8837 42.1473 20.8833 42.1458 20.8829C42.145 20.8827 42.1444 20.8826 42.1439 20.8825C42.1437 20.8824 42.1435 20.8823 42.1433 20.8823C42.1432 20.8823 42.1431 20.8823 42.1431 20.8822C42.143 20.8822 42.143 20.8822 42.143 20.8822C42.1429 20.8822 42.1429 20.8822 42.1525 20.8458C42.1621 20.8094 42.1621 20.8094 42.1621 20.8094C42.1621 20.8094 42.162 20.8094 42.162 20.8094C42.162 20.8094 42.162 20.8093 42.162 20.8093C42.1619 20.8093 42.162 20.8093 42.162 20.8094C42.1621 20.8094 42.1624 20.8094 42.1628 20.8095C42.1636 20.8097 42.165 20.8101 42.1671 20.8105C42.1711 20.8113 42.1777 20.8125 42.1869 20.8138C42.2052 20.8164 42.234 20.8195 42.2744 20.8209C42.3553 20.8238 42.4827 20.82 42.6656 20.7926C43.0316 20.7378 43.6194 20.5888 44.5018 20.2107L44.5166 20.2453Z" fill="#082422"/>
<path d="M42.9394 25.3289C45.4292 25.224 47.6509 24.9057 47.7799 23.0431C47.8322 22.286 47.0366 21.2791 45.0225 21.1045L42.898 20.9164" fill="#E5B481"/>
<path d="M47.7799 23.0431L47.8175 23.0458L47.8175 23.0458L47.7799 23.0431ZM45.0225 21.1045L45.0193 21.142L45.0193 21.142L45.0225 21.1045ZM42.9394 25.3289L42.9378 25.2912C44.1829 25.2388 45.3553 25.133 46.2319 24.8098C46.6697 24.6484 47.0314 24.4335 47.2913 24.146C47.5507 23.8592 47.7106 23.4981 47.7423 23.0405L47.7799 23.0431L47.8175 23.0458C47.7846 23.5194 47.6184 23.8966 47.3472 24.1966C47.0765 24.4959 46.7029 24.7164 46.258 24.8805C45.369 25.2083 44.1857 25.3141 42.941 25.3665L42.9394 25.3289ZM47.7799 23.0431L47.7423 23.0405C47.7925 22.3148 47.0259 21.316 45.0193 21.142L45.0225 21.1045L45.0258 21.0669C47.0474 21.2422 47.872 22.2572 47.8175 23.0458L47.7799 23.0431ZM45.0225 21.1045L45.0193 21.142L42.8947 20.954L42.898 20.9164L42.9013 20.8789L45.0258 21.067L45.0225 21.1045Z" fill="#082422"/>
<path d="M19.1878 74.5577C20.0166 72.91 21.4193 69.9823 21.5887 69.6564C25.0121 63.0686 29.0377 52.8349 33.6822 48.7961C36.0789 46.966 36.9177 45.8014 38.8446 43.5036C39.7257 42.4539 40.7279 41.5166 41.612 40.4705C41.9883 40.0252 42.3475 39.775 42.8256 39.5125C43.2486 39.2811 43.5707 39.0048 43.7834 38.5581C44.0123 38.0768 44.0822 38.0633 44.0703 37.528C44.0529 36.6807 43.5086 35.7573 42.7935 35.2875C42.4376 35.0528 42.0186 34.9403 41.6046 34.8447C40.9596 34.6958 40.3082 34.5824 39.6502 34.5078C39.0896 34.4418 38.6784 34.5005 38.1419 34.571C37.5124 34.6562 36.7852 34.4739 36.1558 34.4083C35.4289 34.3342 34.7053 34.2603 33.9759 34.2154C31.6804 34.0713 29.1924 34.1428 27.2081 35.4522C25.7071 36.4404 24.7263 38.0287 23.7927 39.5655C21.856 42.7573 19.9197 45.946 17.983 49.1379C17.5277 49.8876 17.0649 50.6465 16.4352 51.2562C15.7234 51.9439 3.7435 72.591 2.90212 73.1131" fill="#E5B481"/>
<path d="M21.5887 69.6564L21.5552 69.639L21.5887 69.6564ZM33.6822 48.7961L33.6574 48.7676L33.6593 48.7662L33.6822 48.7961ZM38.8446 43.5036L38.8158 43.4794L38.8158 43.4794L38.8446 43.5036ZM41.612 40.4705L41.6408 40.4948L41.6408 40.4948L41.612 40.4705ZM42.8256 39.5125L42.8074 39.4795L42.8075 39.4794L42.8256 39.5125ZM43.7834 38.5581L43.8175 38.5743L43.8174 38.5743L43.7834 38.5581ZM44.0703 37.528L44.0326 37.5288L44.0326 37.5287L44.0703 37.528ZM42.7935 35.2875L42.7729 35.319L42.7728 35.319L42.7935 35.2875ZM41.6046 34.8447L41.6131 34.808L41.6131 34.808L41.6046 34.8447ZM39.6502 34.5078L39.646 34.5452L39.6458 34.5452L39.6502 34.5078ZM38.1419 34.571L38.1368 34.5337L38.1369 34.5336L38.1419 34.571ZM36.1558 34.4083L36.1596 34.3709L36.1596 34.3709L36.1558 34.4083ZM33.9759 34.2154L33.9736 34.253L33.9735 34.253L33.9759 34.2154ZM27.2081 35.4522L27.2289 35.4836L27.2288 35.4836L27.2081 35.4522ZM23.7927 39.5655L23.7605 39.5459L23.7605 39.5459L23.7927 39.5655ZM17.983 49.1379L18.0152 49.1574L18.0152 49.1575L17.983 49.1379ZM16.4352 51.2562L16.4614 51.2833L16.4614 51.2833L16.4352 51.2562ZM19.1878 74.5577L19.1541 74.5407C19.9818 72.8953 21.386 69.9646 21.5552 69.639L21.5887 69.6564L21.6221 69.6738C21.4525 70 20.0513 72.9248 19.2214 74.5746L19.1878 74.5577ZM21.5887 69.6564L21.5552 69.639C22.4107 67.9927 23.3039 66.1185 24.2354 64.1694C25.1668 62.2206 26.1363 60.197 27.1441 58.253C29.1589 54.3665 31.3292 50.7923 33.6575 48.7677L33.6822 48.7961L33.7069 48.8245C31.3907 50.8387 29.226 54.4008 27.211 58.2877C26.2039 60.2305 25.2348 62.253 24.3034 64.202C23.3721 66.1507 22.4783 68.0261 21.6221 69.6738L21.5887 69.6564ZM33.6822 48.7961L33.6593 48.7662C36.052 46.939 36.8881 45.778 38.8158 43.4794L38.8446 43.5036L38.8735 43.5278C36.9472 45.8249 36.1057 46.9929 33.7051 48.826L33.6822 48.7961ZM38.8446 43.5036L38.8158 43.4794C39.2572 42.9535 39.7288 42.4559 40.1999 41.9598C40.6712 41.4633 41.142 40.9682 41.5833 40.4461L41.612 40.4705L41.6408 40.4948C41.1979 41.0188 40.7256 41.5155 40.2545 42.0116C39.7832 42.5081 39.3132 43.004 38.8735 43.5278L38.8446 43.5036ZM41.612 40.4705L41.5832 40.4461C41.9634 39.9962 42.3268 39.7434 42.8074 39.4795L42.8256 39.5125L42.8437 39.5455C42.3682 39.8066 42.0132 40.0541 41.6408 40.4948L41.612 40.4705ZM42.8256 39.5125L42.8075 39.4794C43.2259 39.2506 43.5411 38.9793 43.7494 38.5419L43.7834 38.5581L43.8174 38.5743C43.6003 39.0302 43.2712 39.3117 42.8437 39.5455L42.8256 39.5125ZM43.7834 38.5581L43.7494 38.5419C43.8068 38.4212 43.8545 38.3293 43.8928 38.2526C43.9312 38.1755 43.9601 38.1138 43.9815 38.0511C44.0239 37.927 44.0386 37.7952 44.0326 37.5288L44.0703 37.528L44.1079 37.5271C44.1139 37.7961 44.0996 37.9387 44.0528 38.0755C44.0296 38.1433 43.9988 38.2087 43.9602 38.2862C43.9213 38.3641 43.8745 38.4544 43.8175 38.5743L43.7834 38.5581ZM44.0703 37.528L44.0326 37.5287C44.0155 36.6948 43.4784 35.7825 42.7729 35.319L42.7935 35.2875L42.8142 35.256C43.5388 35.7321 44.0903 36.6666 44.1079 37.5272L44.0703 37.528ZM42.7935 35.2875L42.7728 35.319C42.4231 35.0883 42.0101 34.977 41.5962 34.8814L41.6046 34.8447L41.6131 34.808C42.0271 34.9036 42.4521 35.0172 42.8142 35.2561L42.7935 35.2875ZM41.6046 34.8447L41.5962 34.8814C40.9525 34.7328 40.3025 34.6197 39.646 34.5452L39.6502 34.5078L39.6544 34.4704C40.3139 34.5452 40.9667 34.6588 41.6131 34.808L41.6046 34.8447ZM39.6502 34.5078L39.6458 34.5452C39.0905 34.4798 38.6838 34.5378 38.1468 34.6083L38.1419 34.571L38.1369 34.5336C38.6731 34.4632 39.0887 34.4038 39.6545 34.4704L39.6502 34.5078ZM38.1419 34.571L38.147 34.6083C37.8272 34.6516 37.4841 34.6268 37.144 34.5836C36.801 34.5399 36.4671 34.4786 36.1519 34.4458L36.1558 34.4083L36.1596 34.3709C36.4738 34.4036 36.8182 34.4662 37.1535 34.5088C37.4918 34.5519 37.827 34.5756 38.1368 34.5337L38.1419 34.571ZM36.1558 34.4083L36.152 34.4458C35.425 34.3716 34.7021 34.2978 33.9736 34.253L33.9759 34.2154L33.9781 34.1778C34.7085 34.2228 35.4328 34.2967 36.1596 34.3709L36.1558 34.4083ZM33.9759 34.2154L33.9735 34.253C31.6787 34.1089 29.202 34.1816 27.2289 35.4836L27.2081 35.4522L27.1874 35.4207C29.1828 34.104 31.682 34.0336 33.9782 34.1778L33.9759 34.2154ZM27.2081 35.4522L27.2288 35.4836C25.736 36.4665 24.7593 38.047 23.8249 39.585L23.7927 39.5655L23.7605 39.5459C24.6934 38.0104 25.6781 36.4144 27.1874 35.4207L27.2081 35.4522ZM23.7927 39.5655L23.8249 39.585C22.8565 41.181 21.8883 42.7761 20.92 44.3712C19.9518 45.9664 18.9836 47.5615 18.0152 49.1574L17.983 49.1379L17.9508 49.1183C18.9192 47.5224 19.8874 45.9272 20.8557 44.3321C21.8239 42.737 22.7922 41.1418 23.7605 39.5459L23.7927 39.5655ZM17.983 49.1379L18.0152 49.1575C17.5603 49.9065 17.0952 50.6696 16.4614 51.2833L16.4352 51.2562L16.409 51.2291C17.0347 50.6233 17.4951 49.8687 17.9508 49.1183L17.983 49.1379ZM16.4352 51.2562L16.4614 51.2833C16.4417 51.3023 16.4101 51.341 16.3665 51.4003C16.3234 51.4589 16.2698 51.5359 16.2064 51.6303C16.0797 51.8189 15.9143 52.0759 15.7157 52.3915C15.3186 53.0226 14.7891 53.8873 14.1709 54.9076C12.9346 56.948 11.3442 59.6095 9.74954 62.2661C8.15499 64.9226 6.55624 67.5742 5.30353 69.5943C4.67719 70.6043 4.13717 71.4567 3.72735 72.0731C3.52247 72.3813 3.34987 72.6308 3.21514 72.8117C3.1478 72.9021 3.0896 72.9758 3.04135 73.0312C2.99402 73.0855 2.9536 73.1255 2.92199 73.1451L2.90212 73.1131L2.88224 73.0811C2.90322 73.0681 2.93714 73.0361 2.98454 72.9817C3.03102 72.9283 3.08793 72.8563 3.15473 72.7666C3.28827 72.5874 3.46002 72.3391 3.66463 72.0314C4.07378 71.416 4.61329 70.5644 5.23951 69.5545C6.4919 67.535 8.09039 64.8838 9.68496 62.2273C11.2795 59.5709 12.8701 56.9091 14.1065 54.8685C14.7247 53.8482 15.2545 52.983 15.652 52.3513C15.8507 52.0355 16.0166 51.7778 16.1439 51.5882C16.2076 51.4935 16.2618 51.4154 16.3058 51.3556C16.3494 51.2964 16.3843 51.253 16.4091 51.2291L16.4352 51.2562Z" fill="#082422"/>
<path d="M44.6528 29.3314C45.0011 29.5785 45.4654 30.1441 45.5495 30.9021C45.6073 31.4382 45.4205 31.366 45.0822 31.7884C44.3607 32.6981 43.089 33.1264 41.965 32.84C40.9114 32.5731 39.9963 31.5841 40.0751 30.4996C40.1466 29.5357 40.9655 28.6346 41.8966 28.3958C42.9014 28.1373 43.8421 28.7581 44.6528 29.3314Z" fill="#E5B481" stroke="#082422" stroke-width="0.0753214" stroke-miterlimit="10"/>
<path d="M41.3216 38.2982C41.0798 39.6733 39.7611 40.5959 38.3878 40.3498L25.5684 38.0712C24.1948 37.8284 23.2727 36.5075 23.5177 35.1327L28.9656 4.3132C29.2074 2.93803 30.5261 2.01549 31.8994 2.2616L44.7188 4.54016C46.0924 4.78302 47.0145 6.10383 46.7695 7.47872L41.3216 38.2982Z" fill="#DCFF00" stroke="#082422" stroke-width="0.0753214" stroke-miterlimit="10"/>
<path d="M27.1683 14.4496L27.0902 14.4355C27.0333 14.4268 26.9947 14.3693 27.0034 14.3121L27.7421 10.1347C27.7507 10.0778 27.8082 10.0393 27.8654 10.0479L27.9435 10.0621L27.1683 14.4493L27.1683 14.4496Z" fill="#DCFF00" stroke="#082422" stroke-width="0.0753214" stroke-miterlimit="10"/>
<path d="M38.5925 39.7034C39.0585 39.7447 39.5202 39.6216 39.9092 39.3495C40.3473 39.0427 40.6404 38.5835 40.7338 38.0564L46.1354 7.50058C46.2287 6.9748 46.1112 6.44315 45.8049 6.00428C45.4983 5.56539 45.0395 5.2717 44.513 5.1779L43.1858 4.94341L33.6984 3.25869L31.8032 2.92214C30.7177 2.72806 29.6771 3.45491 29.4842 4.54198L24.0829 35.0981C23.9897 35.6239 24.1071 36.1556 24.4134 36.5944C24.72 37.0333 25.1788 37.327 25.7053 37.4208L38.4152 39.6799C38.4745 39.6904 38.5337 39.6982 38.5929 39.7035L38.5925 39.7034ZM31.5564 3.70513C31.5914 3.70824 31.6264 3.71297 31.6616 3.71903L31.6619 3.71906L33.5574 4.05596L43.0451 5.74071L44.3723 5.9752C44.6857 6.03112 44.9594 6.20616 45.1424 6.46822C45.3251 6.72994 45.3949 7.04625 45.3393 7.35933L39.938 37.9155C39.8823 38.2299 39.7077 38.5036 39.446 38.6866C39.1847 38.8694 38.8688 38.9391 38.5561 38.8832L25.846 36.6242C25.5319 36.5682 25.2585 36.3932 25.0755 36.1311C24.8928 35.8694 24.823 35.5531 24.8786 35.24L30.2799 4.68386C30.3886 4.07191 30.9487 3.65136 31.556 3.7051L31.5564 3.70513Z" fill="#DCFF00" stroke="#082422" stroke-width="0.0753214" stroke-miterlimit="10"/>
<path d="M31.7027 3.16457L33.6147 3.50424L43.1843 5.20345L44.5225 5.43989C45.3995 5.59618 45.9841 6.43472 45.8288 7.3094L40.3808 38.129C40.2252 39.007 39.388 39.5918 38.5143 39.4358L25.6947 37.1573C24.8178 37.001 24.2332 36.1624 24.3885 35.2878L29.8365 4.46812C29.9918 3.59343 30.829 3.00857 31.7027 3.16457Z" fill="white" stroke="#082422" stroke-width="0.0753214" stroke-miterlimit="10"/>
<path fill-rule="evenodd" clip-rule="evenodd" d="M44.0717 17.2418L40.6635 36.5221C35.1471 31.2309 28.25 21.6773 30.0936 13.5676C31.0401 9.40843 35.4359 6.22607 39.3079 9.13196C41.3818 10.6885 42.4926 13.4044 43.5044 15.8783C43.6951 16.3445 43.8823 16.8021 44.0717 17.2418Z" fill="#FF5A00"/>
<path d="M31.7027 3.16457L33.6147 3.50424L43.1843 5.20345L44.5225 5.43989C45.3995 5.59618 45.9841 6.43472 45.8288 7.3094L40.3808 38.129C40.2252 39.007 39.388 39.5918 38.5143 39.4358L25.6947 37.1573C24.8178 37.001 24.2332 36.1624 24.3885 35.2878L29.8365 4.46812C29.9918 3.59343 30.829 3.00857 31.7027 3.16457Z" stroke="#082422" stroke-width="0.0753214" stroke-miterlimit="10"/>
<g style="mix-blend-mode:multiply" opacity="0.1">
<path d="M23.8702 35.9709L26.5385 20.8636C26.6063 21.1623 26.6329 21.4755 26.65 21.7734C26.7679 23.9705 26.5122 26.1058 26.7607 28.2965C27.1833 32.0025 27.4823 35.3471 28.9991 38.6874L25.3111 38.0321C24.3437 37.8596 23.6985 36.9386 23.8702 35.9709Z" fill="#082422"/>
</g>
<path d="M11.8251 73.9372L0.00170478 72.8778C2.43226 69.6965 13.106 53.9088 15.3597 50.3755C17.2413 47.4257 19.2039 44.6272 19.4844 41.131C19.5777 39.9558 18.9945 34.5764 20.6797 28.6303C21.1131 27.0642 22.1038 24.1159 22.7386 22.665C22.9091 22.3231 23.7923 20.6473 24.0233 20.3475C24.4737 19.7628 25.2124 19.4951 26.1022 20.0652C27.0637 20.7663 26.5856 23.4277 26.4847 24.4285C26.1496 27.7625 25.4621 31.6417 26.3927 35.1434C27.0413 37.5815 29.5022 38.8392 29.5395 42.0904C29.5525 43.2151 29.1926 44.3097 28.5448 45.228C28.3862 45.453 28.2196 45.6723 28.051 45.8882" fill="#E5B481"/>
<path d="M0.00170478 72.8778L-0.00162684 72.9154L-0.069704 72.9093L-0.0282227 72.855L0.00170478 72.8778ZM15.3597 50.3755L15.328 50.3553L15.3597 50.3755ZM19.4844 41.131L19.522 41.134L19.522 41.134L19.4844 41.131ZM20.6797 28.6303L20.716 28.6404L20.7159 28.6406L20.6797 28.6303ZM22.7386 22.665L22.7041 22.6499L22.7049 22.6482L22.7386 22.665ZM24.0233 20.3475L23.9934 20.3245L23.9934 20.3245L24.0233 20.3475ZM26.1022 20.0652L26.1225 20.0335L26.1244 20.0348L26.1022 20.0652ZM26.4847 24.4285L26.4472 24.4247L26.4472 24.4247L26.4847 24.4285ZM26.3927 35.1434L26.3563 35.153L26.3563 35.153L26.3927 35.1434ZM29.5395 42.0904L29.5019 42.0908L29.5019 42.0908L29.5395 42.0904ZM28.5448 45.228L28.514 45.2063L28.514 45.2063L28.5448 45.228ZM11.8251 73.9372L11.8218 73.9747L-0.00162684 72.9154L0.00170478 72.8778L0.00503796 72.8403L11.8285 73.8997L11.8251 73.9372ZM0.00170478 72.8778L-0.0282227 72.855C2.40135 69.6749 13.0744 53.8883 15.328 50.3553L15.3597 50.3755L15.3915 50.3958C13.1376 53.9294 2.46316 69.7181 0.0316338 72.9007L0.00170478 72.8778ZM15.3597 50.3755L15.328 50.3553C17.2114 47.4026 19.1673 44.6127 19.4469 41.128L19.4844 41.131L19.522 41.134C19.2405 44.6416 17.2712 47.4489 15.3915 50.3958L15.3597 50.3755ZM19.4844 41.131L19.4469 41.128C19.5394 39.9627 18.9571 34.5703 20.6434 28.62L20.6797 28.6303L20.7159 28.6406C19.0319 34.5824 19.6161 39.9488 19.522 41.134L19.4844 41.131ZM20.6797 28.6303L20.6434 28.6202C21.0771 27.053 22.0683 24.103 22.7041 22.6499L22.7386 22.665L22.7731 22.6802C22.1392 24.1289 21.1491 27.0754 20.716 28.6404L20.6797 28.6303ZM22.7386 22.665L22.7049 22.6482C22.7905 22.4767 23.0541 21.9718 23.3252 21.4725C23.4607 21.2228 23.5983 20.9742 23.7164 20.7692C23.8341 20.565 23.9339 20.4018 23.9934 20.3245L24.0233 20.3475L24.0531 20.3705C23.9972 20.4431 23.8999 20.6018 23.7817 20.8068C23.664 21.0111 23.5268 21.259 23.3914 21.5085C23.1205 22.0075 22.8573 22.5115 22.7723 22.6819L22.7386 22.665ZM24.0233 20.3475L23.9934 20.3245C24.2229 20.0266 24.5277 19.8072 24.8907 19.7363C25.2543 19.6654 25.6711 19.7443 26.1225 20.0335L26.1022 20.0652L26.0819 20.097C25.6435 19.816 25.2461 19.7437 24.9052 19.8103C24.5639 19.8769 24.2741 20.0837 24.0531 20.3705L24.0233 20.3475ZM26.1022 20.0652L26.1244 20.0348C26.3751 20.2177 26.5286 20.5256 26.6184 20.8931C26.7082 21.2613 26.7355 21.6945 26.7295 22.135C26.7175 23.0153 26.5723 23.935 26.5221 24.4323L26.4847 24.4285L26.4472 24.4247C26.498 23.9212 26.6422 23.0099 26.6542 22.134C26.6601 21.6964 26.6329 21.2703 26.5452 20.9109C26.4573 20.551 26.31 20.2634 26.08 20.0957L26.1022 20.0652ZM26.4847 24.4285L26.5221 24.4323C26.1866 27.771 25.5008 31.6405 26.4291 35.1337L26.3927 35.1434L26.3563 35.153C25.4235 31.6428 26.1126 27.754 26.4472 24.4247L26.4847 24.4285ZM26.3927 35.1434L26.4291 35.1337C26.7513 36.3447 27.5226 37.261 28.2264 38.2908C28.9291 39.3188 29.5584 40.4535 29.5772 42.09L29.5395 42.0904L29.5019 42.0908C29.4833 40.4761 28.8636 39.3564 28.1643 38.3332C27.4662 37.3119 26.6828 36.3802 26.3563 35.153L26.3927 35.1434ZM29.5395 42.0904L29.5772 42.09C29.5903 43.223 29.2276 44.3253 28.5756 45.2497L28.5448 45.228L28.514 45.2063C29.1575 44.294 29.5148 43.2071 29.5019 42.0908L29.5395 42.0904ZM28.5448 45.228L28.5756 45.2497C28.4165 45.4754 28.2495 45.6953 28.0807 45.9114L28.051 45.8882L28.0214 45.865C28.1898 45.6493 28.3559 45.4305 28.514 45.2063L28.5448 45.228Z" fill="#082422"/>
<path d="M22.7427 22.6606C22.9132 22.3187 23.7962 20.643 24.0271 20.3431C24.0537 20.3088 24.0812 20.2755 24.1099 20.2433L24.9368 20.6069C24.9664 20.62 24.9804 20.6544 24.968 20.6841L24.953 20.7208C24.9296 20.7711 24.4017 22.0111 23.54 22.7239C23.3757 22.8612 23.1646 22.9379 22.9702 22.9374C22.9299 22.9374 22.8864 22.9339 22.8497 22.9303C22.7821 22.9171 22.7209 22.8947 22.6576 22.8576C22.686 22.7916 22.7147 22.7256 22.743 22.6606L22.7427 22.6606Z" stroke="#082422" stroke-width="0.0753214" stroke-miterlimit="10"/>
<path d="M40.1195 41.1723C38.8865 41.1583 38.0497 40.3598 38.6741 39.1006C38.9127 38.6202 39.3217 38.2499 39.7402 37.9198C40.3384 37.445 40.9746 37.0227 41.6419 36.6557C41.8518 36.5399 42.0678 36.4279 42.3039 36.3865C42.6099 36.3316 42.9216 36.3985 43.2142 36.4965C44.0714 36.7868 44.1673 37.5256 43.9636 38.2684C43.8091 38.8316 43.4781 39.392 43.2 39.7929C42.4769 40.8335 41.3457 41.1891 40.1195 41.1723Z" fill="#E5B481"/>
<path d="M44.03 37.7466C44.0306 37.7259 44.0479 37.7095 44.0687 37.7101C44.0895 37.7107 44.1058 37.728 44.1053 37.7488L44.0676 37.7477L44.03 37.7466ZM43.2004 39.7931L43.2313 39.8145L43.2313 39.8146L43.2004 39.7931ZM40.1199 41.1725L40.1203 41.1348L40.1203 41.1348L40.1199 41.1725ZM38.6745 39.1008L38.6408 39.0841L38.6408 39.084L38.6745 39.1008ZM39.7406 37.9201L39.764 37.9496L39.7639 37.9497L39.7406 37.9201ZM41.6001 36.635C41.6183 36.6249 41.6412 36.6315 41.6512 36.6497C41.6613 36.6679 41.6547 36.6908 41.6365 36.7009L41.6183 36.6679L41.6001 36.635ZM44.0676 37.7477L44.1053 37.7488C44.095 38.1157 43.9693 38.4977 43.8006 38.8541C43.6318 39.2108 43.4187 39.5443 43.2313 39.8145L43.2004 39.7931L43.1694 39.7716C43.3557 39.5029 43.5662 39.1732 43.7325 38.8218C43.899 38.47 44.0201 38.0988 44.03 37.7466L44.0676 37.7477ZM43.2004 39.7931L43.2313 39.8146C42.4985 40.8691 41.3529 41.227 40.1194 41.2101L40.1199 41.1725L40.1203 41.1348C41.3392 41.1515 42.456 40.7983 43.1694 39.7716L43.2004 39.7931ZM40.1199 41.1725L40.1195 41.2101C39.4962 41.203 38.9659 40.9977 38.6712 40.627C38.3745 40.2538 38.3239 39.723 38.6408 39.0841L38.6745 39.1008L38.7083 39.1176C38.4007 39.7378 38.4563 40.2357 38.7301 40.5801C39.0059 40.927 39.5105 41.1279 40.1203 41.1348L40.1199 41.1725ZM38.6745 39.1008L38.6408 39.084C38.8833 38.5957 39.2981 38.2211 39.7173 37.8905L39.7406 37.9201L39.7639 37.9497C39.3461 38.2792 38.9429 38.6451 38.7083 39.1176L38.6745 39.1008ZM39.7406 37.9201L39.7172 37.8906C40.3082 37.4216 40.9417 36.9991 41.6001 36.635L41.6183 36.6679L41.6365 36.7009C40.9819 37.063 40.3518 37.4832 39.764 37.9496L39.7406 37.9201Z" fill="#082422"/>
<path d="M40.457 34.6521C40.2823 34.4907 40.1435 34.2959 40.0777 34.0645C39.8351 33.2403 40.5011 32.224 41.035 31.6507C41.642 31.001 42.2192 30.5046 43.0263 30.1414C43.4022 29.9724 44.0009 29.8363 44.4109 29.846C44.8209 29.8557 45.2541 30.0567 45.4269 30.427C45.5747 30.7419 45.6121 31.3392 45.5817 31.685C45.4342 33.404 43.0512 35.9037 41.0499 35.03C40.8422 34.9418 40.6314 34.8137 40.4567 34.6524L40.457 34.6521Z" fill="#E5B481"/>
<path d="M45.5291 30.7599L45.4922 30.7673L45.4922 30.7673L45.5291 30.7599ZM45.5818 31.6854L45.5443 31.6821L45.5443 31.682L45.5818 31.6854ZM41.05 35.0303L41.0647 34.9957L41.0651 34.9958L41.05 35.0303ZM40.0776 34.0651L40.1137 34.0545L40.1138 34.0548L40.0776 34.0651ZM41.0348 31.6514L41.0072 31.6257L41.0073 31.6257L41.0348 31.6514ZM45.4367 30.4095L45.4721 30.3967C45.5294 30.5544 45.5407 30.6268 45.566 30.7525L45.5291 30.7599L45.4922 30.7673C45.4668 30.6414 45.4564 30.5741 45.4013 30.4223L45.4367 30.4095ZM45.5291 30.7599L45.566 30.7525C45.6288 31.0643 45.6411 31.4398 45.6193 31.6887L45.5818 31.6854L45.5443 31.682C45.5655 31.4398 45.5534 31.0716 45.4922 30.7673L45.5291 30.7599ZM45.5818 31.6854L45.6193 31.6886C45.5444 32.561 44.9047 33.6241 44.0354 34.3589C43.1661 35.0936 42.0547 35.51 41.035 35.0649L41.05 35.0303L41.0651 34.9958C42.0466 35.4243 43.1273 35.0277 43.9867 34.3013C44.8461 33.5749 45.4716 32.5287 45.5443 31.6821L45.5818 31.6854ZM41.05 35.0303L41.0353 35.065C40.8242 34.9754 40.6097 34.845 40.4313 34.6803L40.4569 34.6527L40.4824 34.625C40.6535 34.783 40.8604 34.9089 41.0647 34.9957L41.05 35.0303ZM40.4569 34.6527L40.4313 34.6803C40.2529 34.5156 40.1095 34.315 40.0413 34.0754L40.0776 34.0651L40.1138 34.0548C40.1772 34.2779 40.3114 34.4671 40.4824 34.625L40.4569 34.6527ZM40.0776 34.0651L40.0414 34.0757C39.9163 33.6508 40.0263 33.1804 40.231 32.748C40.4359 32.3149 40.7384 31.9144 41.0072 31.6257L41.0348 31.6514L41.0623 31.6771C40.7973 31.9617 40.4999 32.3559 40.299 32.7803C40.0979 33.2054 39.9962 33.6552 40.1137 34.0545L40.0776 34.0651ZM41.0348 31.6514L41.0073 31.6257C41.616 30.974 42.1972 30.4738 43.0106 30.1077L43.0261 30.1421L43.0416 30.1764C42.2407 30.5368 41.6675 31.0293 41.0623 31.6771L41.0348 31.6514Z" fill="#082422"/>
<path d="M40.5565 40.9424C40.6039 40.9466 40.6903 40.9212 40.9711 40.8139C41.1114 40.7601 41.3246 40.6728 41.3668 40.6506C41.6872 40.4698 41.9259 40.2559 42.0789 40.0161C42.2876 39.6858 42.3124 39.2766 42.1401 38.9824C41.9969 38.7347 41.7407 38.6019 41.4208 38.6139C40.2953 38.65 39.8838 39.161 39.8637 39.1812L39.8144 39.243L39.8564 39.309C40.2275 39.8853 40.4259 40.5087 40.4517 40.8414L40.4577 40.9006L40.5136 40.9311C40.5282 40.9324 40.5383 40.9405 40.5565 40.9421L40.5565 40.9424Z" stroke="#082422" stroke-width="0.0753214" stroke-miterlimit="10"/>
<path d="M42.4466 34.589L42.5678 34.4982C43.3159 33.9353 43.7423 33.4338 43.908 32.921C44.0406 32.5227 43.9285 32.0204 43.6459 31.7295C43.3918 31.4687 43.0242 31.3893 42.6152 31.5134C41.8096 31.7549 41.0932 32.5392 41.0629 32.5716L40.9849 32.6584L41.0716 32.7366C41.0827 32.7454 42.0701 33.6336 42.389 34.4472L42.4469 34.5891L42.4466 34.589Z" stroke="#082422" stroke-width="0.0753214" stroke-miterlimit="10"/>
<path d="M36.4838 4.51408L39.5721 5.06151C39.9578 5.12988 40.2153 5.49825 40.1472 5.88428C40.0792 6.27031 39.7113 6.52783 39.3256 6.45946L36.2374 5.91203C35.8517 5.84366 35.5942 5.47529 35.6622 5.08926C35.7303 4.70323 36.0981 4.44571 36.4838 4.51408Z" fill="#DCFF00" stroke="#082422" stroke-width="0.0753214" stroke-miterlimit="10"/>
</g>
<defs>
<clipPath id="clip0_664_11597">
<rect width="86" height="80" fill="white"/>
</clipPath>
</defs>
</svg>
