<svg width="72" height="80" viewBox="0 0 72 80" fill="none" xmlns="http://www.w3.org/2000/svg">
<g clip-path="url(#clip0_664_11603)">
<path d="M65.9067 32.8506C69.2708 32.8506 71.9998 43.4056 71.9998 56.4251C71.9998 69.4446 69.2726 79.9997 65.9067 79.9997C62.5407 79.9997 59.8136 69.4446 59.8136 56.4251C59.8136 43.4056 62.5407 32.8506 65.9067 32.8506Z" fill="#082422"/>
<mask id="mask0_664_11603" style="mask-type:luminance" maskUnits="userSpaceOnUse" x="0" y="-1" width="72" height="81">
<path d="M35.4033 0.0563965C39.9589 0.170668 44.0501 2.27387 47.6475 5.36987C51.2449 8.46594 54.3468 12.5526 56.9248 16.6267C59.5026 20.7005 61.5556 24.7602 63.0557 27.8025C63.8055 29.3232 64.4175 30.5913 64.8877 31.4783C65.1227 31.9215 65.3233 32.2712 65.4883 32.5105C65.5707 32.63 65.6452 32.7237 65.7119 32.7878C65.7767 32.8501 65.842 32.8923 65.9053 32.8923H65.9072C66.7247 32.8925 67.515 33.5352 68.2422 34.7253C68.9679 35.9131 69.623 37.6345 70.1738 39.7654C71.2754 44.0272 71.958 49.9174 71.958 56.4246C71.958 62.9317 71.2762 68.8219 70.1748 73.0837C69.624 75.2149 68.9691 76.9369 68.2432 78.1248C67.5159 79.3149 66.7252 79.9576 65.9072 79.9578C65.8179 79.9578 65.7016 79.924 65.5557 79.8542C65.4103 79.7847 65.2387 79.6806 65.0391 79.5447C64.6396 79.2726 64.1316 78.8741 63.5029 78.3689C62.2463 77.3591 60.5098 75.9254 58.1982 74.2341C53.5746 70.8512 46.6509 66.4372 36.6602 62.3103C25.3763 57.6498 16.3168 53.5334 10.0342 49.4548C3.74966 45.375 0.25608 41.3408 0.0800781 36.8474V36.8464C-0.370177 25.3541 3.16382 16.0244 9.45605 9.63452C15.7484 3.24471 24.8033 -0.209029 35.4033 0.0563965Z" fill="white" stroke="white" stroke-width="0.0842728"/>
</mask>
<g mask="url(#mask0_664_11603)">
<path d="M31.6459 7.88843L33.3688 9.79342C34.2425 10.7572 35.0065 15.6217 35.6279 16.3084L33.9049 14.4034C33.2836 13.7167 32.5195 8.854 31.6459 7.88843Z" fill="#A8BA00" stroke="#082422" stroke-width="0.135547" stroke-miterlimit="10"/>
<path d="M41.09 16.0347L42.813 17.9397C42.8582 17.9902 42.8861 18.0425 42.8913 18.0965C43.0062 19.0586 37.0732 22.9209 36.565 23.8777C36.0568 24.8346 36.6503 31.0254 35.7122 31.6128C35.6443 31.6563 35.5556 31.6755 35.4511 31.6755C34.1285 31.6755 30.1551 28.479 29.2188 28.472C28.7454 28.472 27.2034 29.2459 25.6127 30.018C24.022 30.7901 22.3808 31.564 21.7108 31.564C21.5994 31.564 21.5159 31.543 21.4636 31.4977L19.7407 29.5927C19.7929 29.638 19.8782 29.659 19.9878 29.659C20.6561 29.659 22.299 28.8851 23.8897 28.113C25.4805 27.3392 27.0224 26.5653 27.4958 26.567C28.4322 26.574 32.4055 29.7705 33.7282 29.7705C33.8326 29.7705 33.9196 29.7513 33.9892 29.7078C34.9273 29.1204 34.3338 22.9296 34.842 21.9727C35.3502 21.0159 41.2832 17.1519 41.1683 16.1915C41.1614 16.1358 41.1353 16.0835 41.09 16.0347Z" fill="#A8BA00" stroke="#082422" stroke-width="0.135547" stroke-miterlimit="10"/>
<path d="M31.3538 7.72269C32.365 7.73141 33.2439 13.8368 33.9383 14.4364C34.6327 15.0377 41.0513 15.2294 41.1661 16.1915C41.281 17.1535 35.348 21.0158 34.8398 21.9727C34.3316 22.9295 34.9251 29.1203 33.987 29.7077C33.9192 29.7513 33.8304 29.7704 33.726 29.7704C32.4033 29.7704 28.43 26.5739 27.4937 26.567C27.0203 26.567 25.4783 27.3408 23.8876 28.1129C22.2969 28.885 20.6557 29.6589 19.9856 29.6589C19.8742 29.6589 19.7907 29.638 19.7385 29.5927C19.0441 28.9931 22.1663 22.8319 22.0515 21.8698C21.9366 20.906 17.603 16.9618 18.1112 16.005C18.6194 15.0481 25.0954 14.9575 26.0335 14.3719C26.9715 13.7845 30.3409 7.72269 31.3521 7.72095L31.3538 7.72269Z" fill="#DCFF00" stroke="#082422" stroke-width="0.135547" stroke-miterlimit="10"/>
<path d="M24.1517 10.9435L23.4851 10.2063C23.6748 10.4172 23.6905 10.7291 23.5078 10.9679L23.4869 10.9941C23.3511 11.1718 23.1336 11.2694 22.916 11.2694C22.8012 11.2694 22.6881 11.2433 22.5836 11.1858L18.7043 9.07164C18.6399 9.03678 18.5842 8.99146 18.5372 8.94092L19.2038 9.67817C19.249 9.72871 19.3047 9.77228 19.3709 9.80888L23.2502 11.923C23.3529 11.9788 23.4677 12.0067 23.5826 12.0067C23.8002 12.0067 24.0177 11.9091 24.1535 11.7313L24.1743 11.7052C24.3571 11.4664 24.3414 11.1527 24.1517 10.9435Z" fill="#06BCB7" stroke="#082422" stroke-width="0.135547" stroke-miterlimit="10"/>
<path d="M19.4954 7.37231C19.6416 7.37231 19.7861 7.41589 19.9062 7.50652L23.3991 10.1261C23.6689 10.3283 23.7176 10.696 23.5105 10.9697L23.4896 10.9958C23.3539 11.1736 23.1363 11.2712 22.9188 11.2712C22.8039 11.2712 22.6908 11.245 22.5864 11.1875L18.707 9.07339C18.3746 8.89213 18.2876 8.48254 18.5191 8.18102L18.9263 7.64769C19.0638 7.46817 19.2814 7.37231 19.4972 7.37231H19.4954Z" fill="#2BF2F1" stroke="#082422" stroke-width="0.135547" stroke-miterlimit="10"/>
<path d="M19.1748 23.597L19.1679 23.5691C19.1522 23.4994 19.1191 23.4384 19.0739 23.3879L18.4073 22.6506C18.4526 22.7012 18.4856 22.7622 18.5013 22.8319L18.5083 22.8598C18.5744 23.1474 18.3412 23.4994 17.9774 23.665L13.2714 25.8001C13.1409 25.8593 13.0121 25.8872 12.892 25.8872C12.7232 25.8872 12.577 25.8314 12.4848 25.7286L13.1513 26.4659C13.2436 26.5687 13.3898 26.6245 13.5586 26.6245C13.6769 26.6245 13.8075 26.5966 13.938 26.5373L18.644 24.4023C19.0077 24.2367 19.2392 23.8864 19.1748 23.597Z" fill="#06BCB7" stroke="#082422" stroke-width="0.135547" stroke-miterlimit="10"/>
<path d="M18 22.4939C18.2523 22.4939 18.4507 22.6194 18.4995 22.8338L18.5064 22.8616C18.5725 23.1492 18.3393 23.5013 17.9756 23.6669L13.2696 25.8019C13.1391 25.8612 13.0103 25.8891 12.8902 25.8891C12.6396 25.8891 12.4377 25.7653 12.3889 25.5492L12.2619 24.9845C12.1888 24.6656 12.4794 24.2769 12.8937 24.1392L17.7198 22.541C17.8155 22.5096 17.9112 22.4939 17.9982 22.4939H18Z" fill="#2BF2F1" stroke="#082422" stroke-width="0.135547" stroke-miterlimit="10"/>
<path d="M44.1595 9.45187L43.9193 8.94294C43.9019 8.90808 43.881 8.87671 43.8567 8.84882L43.1901 8.11157C43.2145 8.13946 43.2353 8.17083 43.2527 8.20569L43.4929 8.71462C43.6287 9.0022 43.4094 9.42398 43.0143 9.63138L38.4092 12.0558C38.2683 12.1307 38.1238 12.1656 37.9933 12.1656C37.8401 12.1656 37.7061 12.115 37.6208 12.0192L38.2874 12.7564C38.3744 12.8523 38.5067 12.9028 38.6599 12.9028C38.7904 12.9028 38.9331 12.8662 39.0758 12.793L43.6809 10.3686C44.076 10.1612 44.2952 9.73945 44.1595 9.45187Z" fill="#06BCB7" stroke="#082422" stroke-width="0.135547" stroke-miterlimit="10"/>
<path d="M42.816 7.96516C43.011 7.96516 43.1763 8.04707 43.2511 8.20393L43.4913 8.71286C43.6271 9.00044 43.4078 9.42222 43.0127 9.62963L38.4076 12.054C38.2667 12.129 38.1222 12.1638 37.9917 12.1638C37.795 12.1638 37.6297 12.0819 37.5566 11.925L37.5444 11.8989C37.4208 11.6392 37.5879 11.2627 37.9273 11.0379L42.3044 8.12899C42.4732 8.0157 42.6542 7.96167 42.816 7.96167V7.96516Z" fill="#2BF2F1" stroke="#082422" stroke-width="0.135547" stroke-miterlimit="10"/>
<path d="M45.2057 26.2551L44.5391 25.5178C44.6888 25.6834 44.7271 25.9239 44.6087 26.1435L44.2989 26.7239C44.1719 26.9627 43.8986 27.1074 43.6254 27.1074C43.5245 27.1074 43.4218 27.0882 43.3278 27.0464L39.2501 25.2407C39.1665 25.2041 39.0952 25.1518 39.0412 25.0908L39.7078 25.8281C39.7635 25.8891 39.8331 25.9396 39.9166 25.978L43.9944 27.7836C44.0883 27.8254 44.191 27.8446 44.292 27.8446C44.5652 27.8446 44.8384 27.6999 44.9655 27.4612L45.2753 26.8808C45.3936 26.6594 45.3553 26.4207 45.2057 26.2551Z" fill="#06BCB7" stroke="#082422" stroke-width="0.135547" stroke-miterlimit="10"/>
<path d="M39.6613 24.0542C39.7309 24.0542 39.8005 24.0629 39.8684 24.0821L44.242 25.3352C44.6161 25.4433 44.785 25.8145 44.6109 26.1422L44.3011 26.7226C44.1741 26.9614 43.9008 27.106 43.6276 27.106C43.5267 27.106 43.424 27.0869 43.33 27.045L39.2523 25.2394C38.9355 25.0999 38.8137 24.7618 38.9738 24.4655L38.9895 24.4376C39.1165 24.2006 39.388 24.0542 39.663 24.0542H39.6613Z" fill="#2BF2F1" stroke="#082422" stroke-width="0.135547" stroke-miterlimit="10"/>
<path d="M7.90382 34.6244C7.90382 34.6244 7.08932 33.5944 7.99954 32.5382C8.90976 31.482 12.0181 32.5173 13.9134 33.3416C15.8104 34.1678 21.9035 36.2697 21.9035 36.2697L23.388 39.4906L16.4787 38.837L7.90208 34.6244H7.90382Z" fill="#FFCE9B" stroke="#082422" stroke-width="0.135547" stroke-miterlimit="10" stroke-linecap="round"/>
<path d="M18.9764 38.2864C18.9764 38.2864 18.6666 36.5104 21.8829 36.0154C25.0991 35.5204 31.6552 36.0154 34.5007 35.8917C37.3462 35.7679 40.686 34.5287 43.6551 34.405C46.6242 34.2812 50.3347 34.7762 53.6745 38.1208C56.7063 41.157 78.214 54.5651 80.8089 55.942C81.0491 56.0693 81.1692 56.3481 81.0944 56.6113C80.7759 57.7302 80.1285 59.9054 78.4194 62.7655C77.0393 65.0749 74.1276 68.0308 73.1582 68.8796C72.9302 69.08 72.5856 69.0678 72.3698 68.8535C70.1404 66.6295 51.5739 49.6449 49.3445 48.5277C46.8696 47.2885 34.7478 49.2702 33.7575 49.3957C32.7673 49.5194 30.7658 48.7386 30.094 48.3186C28.8044 47.5133 26.8726 46.7203 24.6275 45.7652C22.5007 44.8606 18.4195 43.4489 16.07 41.8384C14.3191 40.6376 9.4304 37.7635 7.07739 36.3535C6.33251 35.9073 6.51003 35.0254 6.97993 34.2934C7.50379 33.476 8.76905 33.5928 9.86898 33.9692C11.0403 34.3701 18.9782 38.2881 18.9782 38.2881L18.9764 38.2864Z" fill="#FFCE9B" stroke="#082422" stroke-width="0.135547" stroke-miterlimit="10" stroke-linecap="round"/>
<path d="M20.5203 37.0667C20.5203 37.0667 23.8061 37.2863 24.0411 37.9154C24.276 38.5446 24.1299 39.9703 23.3763 40.0383C22.6227 40.1063 20.0347 39.4074 20.0347 39.4074C20.0347 39.4074 19.4935 37.8597 20.5203 37.0667Z" stroke="#082422" stroke-width="0.135547" stroke-miterlimit="10" stroke-linecap="round"/>
<path d="M6.97205 36.2579C6.97205 36.2579 7.39148 35.3672 7.74478 35.0413C7.79699 34.9943 7.87357 34.9855 7.93796 35.0187C8.36784 35.2348 10.0491 36.1062 10.1134 36.5576C10.1883 37.0753 9.741 37.9328 9.741 37.9328L6.97205 36.2579Z" stroke="#082422" stroke-width="0.135547" stroke-miterlimit="10" stroke-linecap="round"/>
<path d="M27.6641 43.7942C27.33 42.8112 27.7181 41.5754 27.7216 41.5632" stroke="#082422" stroke-width="0.135547" stroke-miterlimit="10" stroke-linecap="round"/>
<path d="M30.3235 41.2161C30.1999 40.268 30.4349 39.353 30.7673 38.8545" stroke="#082422" stroke-width="0.135547" stroke-miterlimit="10" stroke-linecap="round"/>
<path d="M52.2459 40.0118C51.5967 39.8236 51.0711 39.4122 50.8431 39.0549" stroke="#082422" stroke-width="0.135547" stroke-miterlimit="10" stroke-linecap="round"/>
<path d="M30.9734 41.1953C30.9508 40.4859 31.0883 39.7887 31.2554 39.4036" stroke="#082422" stroke-width="0.135547" stroke-miterlimit="10" stroke-linecap="round"/>
<path d="M38.8772 44.5817C38.858 44.5748 30.3336 42.0162 27.7631 41.5787C26.101 41.2964 22.307 40.2994 20.932 40.0328C18.9532 39.6476 18.9358 38.3909 18.9323 38.3369" stroke="#082422" stroke-width="0.135547" stroke-miterlimit="10" stroke-linecap="round"/>
<path opacity="0.2" d="M20.9456 40.1182C21.139 40.1623 21.4151 40.2252 21.7464 40.3008C22.4095 40.452 23.2942 40.6533 24.179 40.8545C25.0638 41.0557 25.9492 41.2562 26.6146 41.4062C26.9472 41.4813 27.225 41.5436 27.4202 41.5869C27.5177 41.6085 27.5947 41.6263 27.6478 41.6377C27.6743 41.6434 27.6959 41.6475 27.7103 41.6504C27.7172 41.6518 27.7234 41.6525 27.7279 41.6533L27.7415 41.6553H27.7435C27.7485 41.6561 27.757 41.658 27.7679 41.6602C27.7894 41.6645 27.8208 41.671 27.8607 41.6797C27.9409 41.697 28.0547 41.7223 28.1908 41.7529C28.4629 41.8142 28.8242 41.8966 29.1849 41.9795C29.5456 42.0624 29.9061 42.1456 30.1761 42.208C30.3111 42.2392 30.4236 42.2659 30.5023 42.2842C30.5413 42.2932 30.5721 42.2998 30.5931 42.3047C30.6036 42.3071 30.6121 42.3093 30.6175 42.3105C30.6199 42.3111 30.622 42.3112 30.6234 42.3115L30.6263 42.3125V42.3115L35.5833 43.6855V43.6846L37.763 44.3428C37.4188 44.2819 37.0065 44.2091 36.5423 44.127C35.1241 43.8759 33.219 43.5383 31.2708 43.1924C27.3736 42.5004 23.3052 41.7757 22.6185 41.6416C21.6445 41.452 21.1756 41.0429 20.9476 40.6846C20.7844 40.4281 20.7418 40.1927 20.7298 40.0684C20.7813 40.0801 20.8543 40.0973 20.9456 40.1182ZM27.7728 41.6494C27.7622 41.6541 27.7531 41.6551 27.7513 41.6553H27.7484C27.7523 41.655 27.7645 41.6525 27.7728 41.6494Z" fill="#082422" stroke="#082422" stroke-width="0.135547"/>
</g>
<path opacity="0.25" d="M65.9061 32.8504C65.4501 32.8504 65.0063 33.0456 64.5799 33.4116C67.3071 35.7541 69.3468 45.1675 69.3468 56.4232C69.3468 67.6788 67.3071 77.094 64.5799 79.4365C65.0063 79.8025 65.4501 79.9977 65.9061 79.9977C69.2703 79.9977 71.9992 69.4427 71.9992 56.4232C71.9992 43.4037 69.272 32.8486 65.9061 32.8486V32.8504Z" fill="#002522"/>
</g>
<defs>
<clipPath id="clip0_664_11603">
<rect width="72" height="80" fill="white"/>
</clipPath>
</defs>
</svg>
