<svg width="66" height="80" viewBox="0 0 66 80" fill="none" xmlns="http://www.w3.org/2000/svg">
<g clip-path="url(#clip0_664_11630)">
<path d="M33.8338 51.5147L23.5972 76.341C23.4566 76.6804 23.1286 76.902 22.7605 76.9038C21.255 76.9117 17.6223 76.6301 13.7276 74.5184C7.82375 71.3196 7.08177 68.7508 6.62923 67.3908C6.54335 67.1353 6.57504 66.8555 6.7172 66.6259L22.7194 42.4974C22.8373 42.3057 22.9102 42.0911 22.9342 41.8683C23.1549 39.8269 23.441 30.5591 27.2901 26.7963C30.7367 23.4265 33.9049 21.5016 38.6052 16.4093C39.2731 15.6855 40.5944 15.7885 41.3186 17.0393C42.1261 18.4351 40.9196 20.6368 40.4294 21.4239C38.959 23.7851 36.3497 26.4837 35.8172 27.4657C35.1057 28.7749 35.8099 33.0155 34.761 35.349C33.712 37.6825 32.172 39.6843 32.172 39.6843" fill="#FFCD9C"/>
<path d="M33.8719 51.5303C33.8806 51.5093 33.8705 51.4853 33.8495 51.4766C33.8285 51.468 33.8044 51.478 33.7958 51.499L33.8338 51.5147L33.8719 51.5303ZM23.5972 76.341L23.6352 76.3567L23.6352 76.3566L23.5972 76.341ZM22.7605 76.9038L22.7603 76.8626L22.7603 76.8626L22.7605 76.9038ZM13.7276 74.5184L13.7473 74.4822L13.7473 74.4822L13.7276 74.5184ZM6.62923 67.3908L6.6683 67.3778L6.66826 67.3777L6.62923 67.3908ZM6.7172 66.6259L6.68287 66.6032L6.68219 66.6043L6.7172 66.6259ZM22.7194 42.4974L22.7537 42.5201L22.7544 42.5189L22.7194 42.4974ZM22.9342 41.8683L22.8933 41.8639L22.8933 41.8639L22.9342 41.8683ZM27.2901 26.7963L27.3189 26.8257L27.3189 26.8257L27.2901 26.7963ZM38.6052 16.4093L38.6355 16.4372L38.6355 16.4372L38.6052 16.4093ZM41.3186 17.0393L41.3542 17.0187L41.3542 17.0187L41.3186 17.0393ZM40.4294 21.4239L40.3945 21.4022L40.4294 21.4239ZM35.8172 27.4657L35.8534 27.4853L35.8534 27.4853L35.8172 27.4657ZM32.1394 39.6592C32.1255 39.6772 32.1289 39.7031 32.1469 39.7169C32.1649 39.7307 32.1908 39.7274 32.2046 39.7093L32.172 39.6843L32.1394 39.6592ZM33.8338 51.5147L33.7958 51.499L23.5591 76.3253L23.5972 76.341L23.6352 76.3566L33.8719 51.5303L33.8338 51.5147ZM23.5972 76.341L23.5591 76.3253C23.4248 76.6494 23.1118 76.8609 22.7603 76.8626L22.7605 76.9038L22.7607 76.9449C23.1455 76.943 23.4883 76.7113 23.6352 76.3567L23.5972 76.341ZM22.7605 76.9038L22.7603 76.8626C21.2594 76.8706 17.6341 76.5896 13.7473 74.4822L13.7276 74.5184L13.708 74.5545C17.6105 76.6705 21.2506 76.9529 22.7607 76.9449L22.7605 76.9038ZM13.7276 74.5184L13.7473 74.4822C10.7986 72.8846 9.14193 71.4459 8.16621 70.2392C7.19108 69.0332 6.89431 68.057 6.6683 67.3778L6.62923 67.3908L6.59016 67.4038C6.81668 68.0845 7.11718 69.0728 8.10215 70.2909C9.08653 71.5083 10.7528 72.9534 13.708 74.5545L13.7276 74.5184ZM6.62923 67.3908L6.66826 67.3777C6.58626 67.1337 6.61653 66.8667 6.75222 66.6475L6.7172 66.6259L6.68219 66.6043C6.53355 66.8444 6.50045 67.1369 6.5902 67.4039L6.62923 67.3908ZM6.7172 66.6259L6.75152 66.6486L22.7537 42.5201L22.7194 42.4974L22.6851 42.4747L6.68289 66.6032L6.7172 66.6259ZM22.7194 42.4974L22.7544 42.5189C22.8756 42.3219 22.9504 42.1015 22.9751 41.8727L22.9342 41.8683L22.8933 41.8639C22.8699 42.0807 22.799 42.2894 22.6843 42.4759L22.7194 42.4974ZM22.9342 41.8683L22.9751 41.8727C23.0859 40.8485 23.2121 38.0259 23.792 34.9855C24.3721 31.9438 25.4042 28.6975 27.3189 26.8257L27.2901 26.7963L27.2613 26.7669C25.327 28.6579 24.2915 31.9269 23.7111 34.9701C23.1304 38.0147 23.0033 40.8466 22.8933 41.8639L22.9342 41.8683ZM27.2901 26.7963L27.3189 26.8257C29.0408 25.1421 30.6927 23.8199 32.5042 22.28C34.3154 20.7404 36.2838 18.985 38.6355 16.4372L38.6052 16.4093L38.5749 16.3815C36.2263 18.9259 34.2605 20.679 32.4509 22.2174C30.6415 23.7555 28.986 25.0807 27.2613 26.7669L27.2901 26.7963ZM38.6052 16.4093L38.6355 16.4372C39.2803 15.7384 40.5693 15.8274 41.283 17.0599L41.3186 17.0393L41.3542 17.0187C40.6195 15.7496 39.2659 15.6326 38.5749 16.3815L38.6052 16.4093ZM41.3186 17.0393L41.2829 17.0599C41.6777 17.7422 41.5824 18.627 41.3214 19.4474C41.0609 20.266 40.6388 21.0099 40.3945 21.4022L40.4294 21.4239L40.4644 21.4456C40.7102 21.0508 41.1364 20.3003 41.3998 19.4723C41.6627 18.6462 41.767 17.7322 41.3542 17.0187L41.3186 17.0393ZM40.4294 21.4239L40.3945 21.4022C39.6609 22.5801 38.6427 23.8431 37.7399 24.9358C37.2888 25.4817 36.8663 25.9855 36.5236 26.4138C36.1814 26.8414 35.9161 27.1969 35.781 27.4461L35.8172 27.4657L35.8534 27.4853C35.9845 27.2435 36.2451 26.8934 36.5879 26.4651C36.9301 26.0375 37.3517 25.5348 37.8033 24.9882C38.7059 23.8958 39.7275 22.6288 40.4644 21.4456L40.4294 21.4239ZM35.8172 27.4657L35.781 27.4461C35.5986 27.7818 35.5089 28.3002 35.4585 28.9183C35.4079 29.5379 35.3964 30.2653 35.3745 31.0221C35.3304 32.5393 35.2439 34.1742 34.7234 35.3322L34.761 35.349L34.7985 35.3658C35.327 34.1903 35.4128 32.5382 35.4568 31.0244C35.4788 30.2657 35.4902 29.5417 35.5405 28.925C35.591 28.3068 35.6801 27.8042 35.8534 27.4853L35.8172 27.4657ZM34.761 35.349L34.7234 35.3322C34.2001 36.4963 33.5541 37.5782 33.0386 38.3693C32.781 38.7647 32.556 39.0874 32.3956 39.3111C32.3153 39.4229 32.2512 39.5101 32.2072 39.5692C32.1852 39.5987 32.1682 39.6213 32.1567 39.6364C32.151 39.644 32.1466 39.6497 32.1437 39.6535C32.1423 39.6554 32.1412 39.6569 32.1404 39.6578C32.1401 39.6583 32.1398 39.6587 32.1396 39.6589C32.1395 39.659 32.1395 39.6591 32.1394 39.6591C32.1394 39.6592 32.1394 39.6592 32.1394 39.6592C32.1394 39.6592 32.1394 39.6592 32.172 39.6843C32.2046 39.7093 32.2047 39.7093 32.2047 39.7093C32.2047 39.7093 32.2047 39.7093 32.2047 39.7092C32.2048 39.7092 32.2049 39.7091 32.2049 39.7089C32.2051 39.7087 32.2054 39.7083 32.2058 39.7078C32.2066 39.7068 32.2077 39.7054 32.2092 39.7034C32.2122 39.6995 32.2166 39.6937 32.2224 39.686C32.234 39.6707 32.2511 39.648 32.2733 39.6183C32.3175 39.5588 32.3819 39.4713 32.4625 39.359C32.6236 39.1344 32.8492 38.8108 33.1076 38.4141C33.6244 37.621 34.2729 36.5352 34.7985 35.3658L34.761 35.349Z" fill="#082422"/>
<path d="M27.8801 47.8839C27.8636 47.8683 27.8375 47.8692 27.8219 47.8857C27.8064 47.9023 27.8072 47.9283 27.8238 47.9439L27.8519 47.9139L27.8801 47.8839ZM31.5237 50.0236C31.5457 50.0293 31.5681 50.0161 31.5738 49.9941C31.5796 49.9722 31.5663 49.9497 31.5443 49.944L31.534 49.9838L31.5237 50.0236ZM27.8519 47.9139L27.8238 47.9439C29.0724 49.1156 30.3966 49.7319 31.5237 50.0236L31.534 49.9838L31.5443 49.944C30.4294 49.6554 29.1178 49.0454 27.8801 47.8839L27.8519 47.9139Z" fill="#082422"/>
<path d="M26.1102 48.0275C26.0955 48.0102 26.0695 48.0082 26.0522 48.023C26.0349 48.0377 26.0329 48.0637 26.0477 48.0809L26.0789 48.0542L26.1102 48.0275ZM28.1775 49.8227C28.1976 49.8333 28.2225 49.8256 28.2331 49.8055C28.2438 49.7854 28.2361 49.7606 28.216 49.75L28.1967 49.7863L28.1775 49.8227ZM26.0789 48.0542L26.0477 48.0809C26.7781 48.9339 27.5368 49.4849 28.1775 49.8227L28.1967 49.7863L28.216 49.75C27.5842 49.4169 26.8337 48.8723 26.1102 48.0275L26.0789 48.0542Z" fill="#082422"/>
<path d="M28.0248 34.878C28.3876 31.7202 30.1018 30.068 31.2622 29.6395C33.291 28.8918 40.1057 25.3104 43.5317 25.2376C46.1327 25.2648 46.4336 34.3346 46.5875 34.7278C47.4687 36.989 50.0723 36.8752 49.5981 38.2057C48.2158 42.0833 38.0273 48.2281 33.8338 51.5165" fill="#FFCD9C"/>
<path d="M27.9839 34.8733C27.9813 34.8959 27.9975 34.9163 28.0201 34.9189C28.0427 34.9215 28.0631 34.9053 28.0657 34.8827L28.0248 34.878L27.9839 34.8733ZM31.2622 29.6395L31.248 29.6009L31.248 29.6009L31.2622 29.6395ZM43.5317 25.2376L43.5322 25.1964L43.5309 25.1965L43.5317 25.2376ZM46.5875 34.7278L46.6258 34.7129L46.6258 34.7129L46.5875 34.7278ZM49.5981 38.2057L49.6369 38.2195L49.6369 38.2195L49.5981 38.2057ZM33.8084 51.4842C33.7905 51.4982 33.7874 51.5241 33.8015 51.5419C33.8155 51.5598 33.8414 51.5629 33.8593 51.5489L33.8338 51.5165L33.8084 51.4842ZM28.0248 34.878L28.0657 34.8827C28.427 31.7374 30.1332 30.1003 31.2765 29.6781L31.2622 29.6395L31.248 29.6009C30.0705 30.0357 28.3481 31.7029 27.9839 34.8733L28.0248 34.878ZM31.2622 29.6395L31.2765 29.6781C31.7854 29.4905 32.5934 29.1257 33.5704 28.684C34.5482 28.2419 35.6968 27.7221 36.8889 27.2234C38.0811 26.7247 39.3162 26.2474 40.4668 25.8903C41.618 25.5329 42.6819 25.2968 43.5326 25.2787L43.5317 25.2376L43.5309 25.1965C42.6686 25.2148 41.5959 25.4536 40.4424 25.8117C39.2882 26.1699 38.0505 26.6483 36.8571 27.1475C35.6637 27.6467 34.5141 28.167 33.5365 28.609C32.5581 29.0514 31.7535 29.4146 31.248 29.6009L31.2622 29.6395ZM43.5317 25.2376L43.5313 25.2787C44.1548 25.2852 44.6515 25.8345 45.0474 26.6938C45.4416 27.5493 45.7271 28.6938 45.9367 29.8528C46.1462 31.0112 46.2794 32.1814 46.3699 33.087C46.4152 33.5405 46.4496 33.9256 46.4777 34.2123C46.4917 34.3552 46.5041 34.4733 46.5155 34.562C46.5212 34.6063 46.5267 34.6437 46.532 34.6734C46.5372 34.7022 46.5427 34.7265 46.5491 34.7428L46.5875 34.7278L46.6258 34.7129C46.6226 34.7047 46.6182 34.6874 46.6131 34.6588C46.6081 34.6311 46.6028 34.5952 46.5972 34.5515C46.586 34.4641 46.5736 34.347 46.5596 34.2042C46.5317 33.9195 46.497 33.5314 46.4518 33.0788C46.3613 32.1724 46.2278 30.9997 46.0178 29.8381C45.8078 28.6771 45.5208 27.5245 45.1222 26.6594C44.7254 25.7982 44.2091 25.2035 43.5322 25.1964L43.5317 25.2376ZM46.5875 34.7278L46.5491 34.7428C46.9953 35.8876 47.878 36.4305 48.5799 36.851C48.9331 37.0627 49.235 37.2404 49.4211 37.4465C49.5132 37.5485 49.5751 37.6558 49.6008 37.7756C49.6264 37.8954 49.6166 38.0313 49.5593 38.1919L49.5981 38.2057L49.6369 38.2195C49.6982 38.0475 49.7107 37.8959 49.6813 37.7584C49.6519 37.621 49.5813 37.5012 49.4823 37.3914C49.286 37.174 48.9708 36.9894 48.6223 36.7805C47.9206 36.36 47.0609 35.8293 46.6258 34.7129L46.5875 34.7278ZM49.5981 38.2057L49.5593 38.1919C49.2172 39.1518 48.3273 40.2573 47.1129 41.4294C45.8996 42.6004 44.367 43.8336 42.7455 45.0492C41.124 46.2647 39.4147 47.4618 37.8481 48.561C36.2819 49.6599 34.8578 50.6612 33.8084 51.4842L33.8338 51.5165L33.8593 51.5489C34.9066 50.7276 36.3286 49.7277 37.8954 48.6283C39.4617 47.5293 41.1722 46.3314 42.7949 45.1149C44.4174 43.8986 45.9532 42.663 47.1701 41.4885C48.3858 40.3152 49.2879 39.1985 49.6369 38.2195L49.5981 38.2057Z" fill="#082422"/>
<path opacity="0.2" d="M45.3512 27.3403C44.9231 26.1227 44.338 25.2458 43.532 25.2378C42.2874 25.2644 40.5971 25.7542 38.8502 26.4028L35.4886 27.7617L34.1407 36.5791L33.0693 42.5965C31.3207 43.1492 30.3431 45.1584 29.7694 46.9851C29.2987 48.4888 29.5388 49.9919 30.3033 51.1629C30.3009 51.1597 30.2984 51.1564 30.2966 51.1522L30.9963 52.231C31.3085 52.7115 31.7092 53.1372 32.1845 53.483C32.3266 53.5872 32.7273 53.8187 32.8502 53.8757C33.3868 52.5906 34.2595 50.9963 34.032 50.9445C33.7562 50.8815 33.5027 50.781 33.2731 50.65C33.0974 50.5494 32.9376 50.4301 32.7936 50.2967C32.6177 49.7735 32.6025 49.1855 32.787 48.5964C33.2687 47.0628 34.9201 46.1088 36.4735 46.4672C36.7494 46.5301 37.0039 46.6314 37.2324 46.7616C37.4071 46.8615 37.5655 46.9783 37.7084 47.111C37.7341 47.1875 38.1086 48.4246 38.1264 48.5035C38.8354 48.0233 39.841 47.1869 40.5955 46.6786L39.7598 45.1643L40.1886 43.7952C40.3152 43.3919 40.8461 43.1621 41.2304 42.9834L45.7894 40.6433L45.3498 27.3378L45.3512 27.3403ZM39.6731 45.4564C39.6731 45.4564 39.6709 45.4549 39.6717 45.4539C39.6717 45.4539 39.6738 45.4553 39.6731 45.4564Z" fill="#082422"/>
<path d="M44.3791 8.07358L45.6091 4.15099L44.9097 3.07227L43.6797 6.99486C43.3996 7.88889 43.5408 8.78295 43.9932 9.47977L44.6926 10.5585C44.2402 9.86167 44.0983 8.96868 44.3791 8.07358Z" fill="#CFCABF" stroke="#082422" stroke-width="0.0823034" stroke-miterlimit="10"/>
<path d="M40.6385 14.907L39.939 13.8281C40.3419 14.4494 40.8546 15.0008 41.4615 15.4546L42.161 16.5335C41.5541 16.0797 41.0414 15.5283 40.6385 14.907Z" fill="#1AC6C5" stroke="#082422" stroke-width="0.0823034" stroke-miterlimit="10"/>
<path d="M52.2661 5.84326L52.9655 6.92195C53.9794 8.48429 54.2982 10.4882 53.6695 12.4937C52.7905 15.2969 50.3109 17.3044 47.5293 17.7699L46.8299 16.6912C49.6122 16.2246 52.0911 14.2182 52.9701 11.415C53.5988 9.40951 53.281 7.40632 52.2661 5.84326Z" fill="#CFCABF" stroke="#082422" stroke-width="0.0823034" stroke-miterlimit="10"/>
<path d="M46.8316 16.6919L47.531 17.7706L39.0468 44.8153L38.3474 43.7366L46.8316 16.6919Z" fill="#CFCABF" stroke="#082422" stroke-width="0.0823034" stroke-miterlimit="10"/>
<path d="M36.8378 45.7956L37.5372 46.8744C37.3152 46.5312 37.0107 46.2407 36.6406 46.0284C36.4121 45.8982 36.1576 45.797 35.8818 45.7341C34.3275 45.3753 32.677 46.3303 32.1951 47.864C31.9367 48.6873 32.0678 49.5094 32.4836 50.1503L31.7842 49.0716C31.3683 48.4306 31.238 47.6075 31.4957 46.7853C31.9776 45.2516 33.6291 44.2972 35.1823 44.6553C35.4582 44.7182 35.7127 44.8195 35.9412 44.9497C36.312 45.1609 36.6158 45.4524 36.8378 45.7956Z" fill="#CFCABF" stroke="#082422" stroke-width="0.0823034" stroke-miterlimit="10"/>
<path d="M40.1434 49.6941C40.6132 48.1942 40.3762 46.6961 39.6169 45.5271L38.9175 44.4484C39.6757 45.6167 39.9138 47.1155 39.444 48.6154C38.5667 51.4137 35.5569 53.1518 32.7216 52.4985C32.2191 52.3827 31.7556 52.2002 31.3387 51.9608C30.6634 51.5756 30.1093 51.0443 29.704 50.4198L30.4034 51.4986C30.8087 52.1231 31.3629 52.6544 32.0381 53.0396C32.4558 53.2779 32.9185 53.4614 33.4211 53.5772C36.2552 54.2298 39.2651 52.4918 40.1434 49.6941Z" fill="#CFCABF" stroke="#082422" stroke-width="0.0823034" stroke-miterlimit="10"/>
<path d="M39.4402 48.6157C38.563 51.4139 35.5533 53.1519 32.7182 52.4986C32.2157 52.3828 31.7522 52.2004 31.3353 51.961C29.3987 50.855 28.453 48.5547 29.1742 46.2532C29.7475 44.4275 31.229 43.0535 32.9782 42.4994L41.4627 15.4541C39.3278 13.858 38.3574 11.0548 39.2368 8.25335C40.0663 5.60755 42.3234 3.67114 44.9129 3.07216L43.683 6.99466C43.2518 8.36694 43.8173 9.73843 44.9708 10.3984C45.2192 10.5406 45.4946 10.6498 45.7936 10.7175C47.5443 11.1211 49.3373 10.0843 49.8603 8.41708L51.092 4.49424C52.9819 6.12604 53.8022 8.7684 52.971 11.4145C52.0919 14.2177 49.6123 16.2253 46.8307 16.6908L38.3463 43.7361C39.5354 44.9654 40.0124 46.7893 39.4402 48.6157ZM33.4368 50.2124C34.9917 50.5702 36.6425 49.6169 37.124 48.0815C37.5197 46.8187 37.0002 45.5577 35.9382 44.9504C35.7097 44.8202 35.4553 44.719 35.1794 44.6561C33.6252 44.2973 31.9748 45.2524 31.4929 46.786C31.0973 48.0488 31.616 49.3109 32.678 49.9181C32.9065 50.0483 33.161 50.1495 33.4368 50.2124Z" fill="#2BF2F1" stroke="#082422" stroke-width="0.0823034" stroke-miterlimit="10"/>
<path d="M39.4402 48.6157C38.563 51.4139 35.5533 53.1519 32.7182 52.4986C32.2157 52.3828 31.7522 52.2004 31.3353 51.961C29.3987 50.855 28.453 48.5547 29.1742 46.2532C29.7475 44.4275 31.229 43.0535 32.9782 42.4994L41.4627 15.4541C39.3278 13.858 38.3574 11.0548 39.2368 8.25335C40.0663 5.60755 42.3234 3.67114 44.9129 3.07216L43.683 6.99466C43.2518 8.36694 43.8173 9.73843 44.9708 10.3984C45.2192 10.5406 45.4946 10.6498 45.7936 10.7175C47.5443 11.1211 49.3373 10.0843 49.8603 8.41708L51.092 4.49424C52.9819 6.12604 53.8022 8.7684 52.971 11.4145C52.0919 14.2177 49.6123 16.2253 46.8307 16.6908L38.3463 43.7361C39.5354 44.9654 40.0124 46.7893 39.4402 48.6157ZM33.4368 50.2124C34.9917 50.5702 36.6425 49.6169 37.124 48.0815C37.5197 46.8187 37.0002 45.5577 35.9382 44.9504C35.7097 44.8202 35.4553 44.719 35.1794 44.6561C33.6252 44.2973 31.9748 45.2524 31.4929 46.786C31.0973 48.0488 31.616 49.3109 32.678 49.9181C32.9065 50.0483 33.161 50.1495 33.4368 50.2124Z" fill="#EFEBE7" stroke="#082422" stroke-width="0.0823034" stroke-miterlimit="10"/>
<path d="M37.926 40.394L43.9998 21.0302C44.0963 20.7214 44.0671 20.4034 43.914 20.1349C43.8164 19.963 43.6767 19.8232 43.5075 19.727C43.411 19.6724 43.3058 19.6306 43.1915 19.6043L42.9602 19.5514C42.3135 19.403 41.626 19.8015 41.4263 20.4379L35.3508 39.8021C35.255 40.1098 35.2853 40.4286 35.4377 40.6981C35.536 40.8689 35.6746 41.008 35.8438 41.1042C35.9403 41.1588 36.0466 41.2014 36.1608 41.2277L36.3922 41.2806C37.037 41.4293 37.7264 41.0304 37.926 40.394Z" fill="#CFCABF" stroke="#082422" stroke-width="0.0823034" stroke-miterlimit="10"/>
<path d="M47.0543 40.1909C45.8508 40.6119 43.4609 41.3832 41.996 41.6766C40.6329 41.9505 39.21 39.9646 40.6995 38.9333C41.9162 38.0927 42.4947 37.8547 43.4032 37.3919C41.9816 37.8 41.2402 37.9895 40.1273 37.7561C39.139 37.5498 38.2978 35.9246 39.3557 34.897C40.436 33.8457 41.8758 33.2714 43.8863 32.21C42.939 32.5035 42.293 32.7516 41.5476 33.0316C39.781 33.6932 38.321 32.8935 38.0159 32.1351C37.4852 30.8169 38.2237 29.8567 38.7672 29.4895C40.4506 28.3536 44.0918 27.1254 45.9935 26.352C46.1292 26.2966 44.9575 26.7531 45.092 26.6969C44.1338 26.4349 42.767 25.7885 42.7537 24.7313C42.7423 23.8679 43.1951 22.953 44.1645 22.6635C46.2232 22.0479 48.0512 21.9156 50.0511 21.903C50.568 21.8997 51.0818 22.0403 51.4982 22.3446C52.1404 22.813 52.424 23.5024 52.345 24.0621C52.1978 25.113 51.5033 25.8576 50.6985 26.6548C51.5567 27.0228 52.1114 27.8325 51.9655 28.8562C51.7281 30.5198 50.3304 31.0482 49.4452 31.328C50.3764 31.5794 50.9908 32.1299 51.1398 33.0789C51.3182 34.2156 50.7947 35.1043 48.9523 35.9893C50.2356 36.4889 50.3193 38.0506 49.3973 38.9561C49.388 38.9653 49.3793 38.9734 49.3689 38.9818L48.8732 39.5073" fill="#FFCD9C"/>
<path d="M47.0679 40.2298C47.0894 40.2223 47.1007 40.1988 47.0932 40.1773C47.0857 40.1559 47.0622 40.1446 47.0407 40.1521L47.0543 40.1909L47.0679 40.2298ZM41.996 41.6766L41.9879 41.6362L41.9879 41.6362L41.996 41.6766ZM40.6995 38.9333L40.6761 38.8994L40.676 38.8995L40.6995 38.9333ZM43.4032 37.3919L43.4219 37.4286L43.3919 37.3524L43.4032 37.3919ZM40.1273 37.7561L40.1358 37.7159L40.1357 37.7158L40.1273 37.7561ZM39.3557 34.897L39.3844 34.9265L39.3845 34.9264L39.3557 34.897ZM43.8863 32.21L43.9055 32.2464L43.8741 32.1707L43.8863 32.21ZM41.5476 33.0316L41.5621 33.0701L41.5621 33.0701L41.5476 33.0316ZM38.0159 32.1351L38.0541 32.1198L38.0541 32.1198L38.0159 32.1351ZM38.7672 29.4895L38.7442 29.4554L38.7442 29.4554L38.7672 29.4895ZM45.9935 26.352L46.009 26.3901L46.0091 26.3901L45.9935 26.352ZM45.092 26.6969L45.1079 26.7349L45.2183 26.6888L45.1029 26.6573L45.092 26.6969ZM42.7537 24.7313L42.7949 24.7308L42.7949 24.7307L42.7537 24.7313ZM44.1645 22.6635L44.1763 22.703L44.1763 22.7029L44.1645 22.6635ZM50.0511 21.903L50.0514 21.9442L50.0514 21.9442L50.0511 21.903ZM51.4982 22.3446L51.4739 22.3778L51.4739 22.3778L51.4982 22.3446ZM52.345 24.0621L52.3042 24.0564L52.3042 24.0564L52.345 24.0621ZM50.6985 26.6548L50.6695 26.6256L50.6262 26.6685L50.6823 26.6926L50.6985 26.6548ZM51.9655 28.8562L52.0063 28.862L52.0063 28.862L51.9655 28.8562ZM49.4452 31.328L49.4328 31.2888L49.2989 31.3311L49.4344 31.3677L49.4452 31.328ZM51.1398 33.0789L51.1805 33.0725L51.1805 33.0725L51.1398 33.0789ZM48.9523 35.9893L48.9345 35.9523L48.8491 35.9933L48.9374 36.0277L48.9523 35.9893ZM49.3973 38.9561L49.4262 38.9854L49.4262 38.9854L49.3973 38.9561ZM49.3689 38.9818L49.3427 38.9497L49.339 38.9536L49.3689 38.9818ZM48.8433 39.4791C48.8277 39.4957 48.8284 39.5217 48.845 39.5373C48.8615 39.5529 48.8876 39.5521 48.9032 39.5355L48.8732 39.5073L48.8433 39.4791ZM47.0543 40.1909L47.0407 40.1521C45.8374 40.5731 43.4497 41.3435 41.9879 41.6362L41.996 41.6766L42.0041 41.7169C43.472 41.4229 45.8643 40.6508 47.0679 40.2298L47.0543 40.1909ZM41.996 41.6766L41.9879 41.6362C41.3282 41.7688 40.6474 41.3541 40.3137 40.7739C40.1475 40.4848 40.0697 40.1581 40.1226 39.8423C40.1753 39.5274 40.3587 39.2193 40.7229 38.9671L40.6995 38.9333L40.676 38.8995C40.2955 39.163 40.0982 39.4898 40.0414 39.8288C39.9847 40.1669 40.0686 40.5128 40.2423 40.8149C40.5885 41.4169 41.3007 41.8582 42.0041 41.7169L41.996 41.6766ZM40.6995 38.9333L40.7229 38.9671C41.9369 38.1284 42.5124 37.8919 43.4219 37.4286L43.4032 37.3919L43.3845 37.3553C42.477 37.8176 41.8956 38.0569 40.6761 38.8994L40.6995 38.9333ZM43.4032 37.3919L43.3919 37.3524C41.9701 37.7605 41.2377 37.947 40.1358 37.7159L40.1273 37.7561L40.1188 37.7964C41.2427 38.0321 41.993 37.8395 43.4146 37.4315L43.4032 37.3919ZM40.1273 37.7561L40.1357 37.7158C39.6591 37.6163 39.211 37.1715 39.0129 36.6206C38.8157 36.0722 38.8692 35.4269 39.3844 34.9265L39.3557 34.897L39.327 34.8675C38.7843 35.3946 38.7295 36.0758 38.9354 36.6484C39.1405 37.2187 39.6072 37.6896 40.1188 37.7964L40.1273 37.7561ZM39.3557 34.897L39.3845 34.9264C39.9207 34.4046 40.547 34.0003 41.2919 33.5934C42.039 33.1853 42.8971 32.7787 43.9055 32.2464L43.8863 32.21L43.8671 32.1736C42.865 32.7026 41.998 33.1139 41.2524 33.5212C40.5048 33.9296 39.871 34.3381 39.327 34.8675L39.3557 34.897ZM43.8863 32.21L43.8741 32.1707C42.9254 32.4647 42.2784 32.7132 41.5332 32.9931L41.5476 33.0316L41.5621 33.0701C42.3076 32.7901 42.9525 32.5424 43.8985 32.2493L43.8863 32.21ZM41.5476 33.0316L41.5332 32.9931C40.6588 33.3206 39.8619 33.2859 39.247 33.0769C38.6302 32.8673 38.2008 32.4843 38.0541 32.1198L38.0159 32.1351L37.9777 32.1505C38.1361 32.5443 38.5892 32.9403 39.2204 33.1548C39.8534 33.3699 40.6699 33.4042 41.5621 33.0701L41.5476 33.0316ZM38.0159 32.1351L38.0541 32.1198C37.533 30.8253 38.257 29.8839 38.7903 29.5235L38.7672 29.4895L38.7442 29.4554C38.1904 29.8296 37.4374 30.8085 37.9777 32.1505L38.0159 32.1351ZM38.7672 29.4895L38.7902 29.5235C39.6279 28.9584 40.9552 28.3688 42.3138 27.823C42.9926 27.5503 43.6783 27.2889 44.3135 27.0472C44.9484 26.8057 45.533 26.5837 46.009 26.3901L45.9935 26.352L45.978 26.3139C45.5031 26.5071 44.9195 26.7287 44.2842 26.9704C43.6491 27.212 42.9627 27.4737 42.2831 27.7467C40.9249 28.2923 39.5899 28.8847 38.7442 29.4554L38.7672 29.4895ZM45.9935 26.352L46.0091 26.3901C46.0133 26.3884 46.0166 26.387 46.0188 26.3861C46.0195 26.3857 46.0214 26.3849 46.0231 26.3841C46.0235 26.3838 46.0249 26.3831 46.0265 26.3821C46.0274 26.3815 46.0298 26.3798 46.0312 26.3786C46.034 26.376 46.0418 26.3646 46.0449 26.3551C46.0435 26.3344 46.0229 26.3106 46.012 26.3069C46.0078 26.3064 46.0016 26.3063 45.9996 26.3065C45.9966 26.3069 45.9943 26.3075 45.994 26.3076C45.991 26.3083 45.9869 26.3099 45.9852 26.3105C45.9823 26.3115 45.9784 26.313 45.9737 26.3147C45.9547 26.3219 45.9205 26.335 45.8762 26.3521C45.7875 26.3862 45.6579 26.4363 45.5283 26.4864C45.3987 26.5365 45.2692 26.5865 45.1805 26.6206C45.136 26.6376 45.102 26.6505 45.0834 26.6574C45.0787 26.6591 45.0752 26.6604 45.0727 26.6613C45.0686 26.6628 45.0702 26.6621 45.073 26.6615C45.0734 26.6614 45.0761 26.6608 45.0797 26.6606C45.0819 26.6606 45.0883 26.6612 45.0924 26.6621C45.1004 26.6653 45.1172 26.6817 45.122 26.6958C45.122 26.7073 45.1163 26.7233 45.113 26.7278C45.1112 26.73 45.1079 26.733 45.1066 26.7341C45.1044 26.7358 45.1025 26.7369 45.1021 26.7371C45.1003 26.7382 45.099 26.7387 45.1002 26.7382C45.1013 26.7377 45.1037 26.7366 45.1079 26.7349L45.092 26.6969L45.0762 26.659C45.072 26.6608 45.0685 26.6622 45.0662 26.6633C45.0656 26.6636 45.0631 26.6646 45.0608 26.666C45.0602 26.6663 45.0583 26.6675 45.056 26.6693C45.0547 26.6703 45.0514 26.6734 45.0495 26.6756C45.0462 26.6801 45.0405 26.6961 45.0405 26.7077C45.0453 26.7218 45.0621 26.7381 45.0702 26.7414C45.0743 26.7423 45.0807 26.7429 45.0829 26.7428C45.0866 26.7427 45.0894 26.7421 45.09 26.742C45.0939 26.7411 45.0989 26.7393 45.1002 26.7388C45.1032 26.7378 45.1072 26.7363 45.112 26.7345C45.1311 26.7275 45.1656 26.7144 45.2099 26.6974C45.2988 26.6633 45.4285 26.6132 45.558 26.5631C45.6876 26.513 45.8171 26.4629 45.9057 26.4288C45.9501 26.4117 45.9841 26.3987 46.0027 26.3917C46.0073 26.39 46.0109 26.3887 46.0134 26.3877C46.0172 26.3864 46.0164 26.3867 46.0145 26.3872C46.0143 26.3873 46.0121 26.3879 46.0092 26.3882C46.0073 26.3884 46.0011 26.3884 45.9969 26.3878C45.986 26.3842 45.9654 26.3603 45.964 26.3397C45.9671 26.3301 45.9749 26.3188 45.9776 26.3162C45.9791 26.315 45.9814 26.3133 45.9823 26.3127C45.9838 26.3117 45.9851 26.3111 45.9853 26.311C45.9865 26.3104 45.9871 26.3101 45.9861 26.3106C45.9848 26.3112 45.9821 26.3123 45.9779 26.314L45.9935 26.352ZM45.092 26.6969L45.1029 26.6573C44.6266 26.527 44.0502 26.3015 43.5923 25.9787C43.1337 25.6554 42.8013 25.2401 42.7949 24.7308L42.7537 24.7313L42.7126 24.7318C42.7194 25.2797 43.0771 25.7162 43.5448 26.0459C44.0131 26.3761 44.5993 26.6049 45.0812 26.7366L45.092 26.6969ZM42.7537 24.7313L42.7949 24.7307C42.7837 23.8803 43.2292 22.9857 44.1763 22.703L44.1645 22.6635L44.1527 22.6241C43.1609 22.9202 42.701 23.8555 42.7126 24.7319L42.7537 24.7313ZM44.1645 22.6635L44.1763 22.7029C46.2297 22.0889 48.0533 21.9567 50.0514 21.9442L50.0511 21.903L50.0509 21.8619C48.0491 21.8745 46.2167 22.0069 44.1527 22.6241L44.1645 22.6635ZM50.0511 21.903L50.0514 21.9442C50.5608 21.9409 51.0657 22.0794 51.4739 22.3778L51.4982 22.3446L51.5225 22.3114C51.0979 22.0011 50.5751 21.8585 50.0509 21.8619L50.0511 21.903ZM51.4982 22.3446L51.4739 22.3778C52.1059 22.8388 52.3808 23.514 52.3042 24.0564L52.345 24.0621L52.3858 24.0679C52.4673 23.4907 52.1749 22.7872 51.5225 22.3114L51.4982 22.3446ZM52.345 24.0621L52.3042 24.0564C52.1592 25.0918 51.4753 25.8275 50.6695 26.6256L50.6985 26.6548L50.7275 26.684C51.5314 25.8878 52.2364 25.1341 52.3858 24.0678L52.345 24.0621ZM50.6985 26.6548L50.6823 26.6926C51.5254 27.0542 52.0677 27.8472 51.9247 28.8505L51.9655 28.8562L52.0063 28.862C52.155 27.8177 51.5879 26.9914 50.7148 26.617L50.6985 26.6548ZM51.9655 28.8562L51.9247 28.8505C51.6912 30.4871 50.3182 31.0089 49.4328 31.2888L49.4452 31.328L49.4576 31.3672C50.3425 31.0875 51.765 30.5526 52.0063 28.862L51.9655 28.8562ZM49.4452 31.328L49.4344 31.3677C49.8951 31.4921 50.2744 31.6897 50.5567 31.971C50.8386 32.252 51.0258 32.6186 51.0991 33.0853L51.1398 33.0789L51.1805 33.0725C51.1047 32.5902 50.9102 32.2071 50.6149 31.9127C50.3199 31.6187 49.9265 31.4154 49.4559 31.2883L49.4452 31.328ZM51.1398 33.0789L51.0991 33.0853C51.1869 33.6448 51.102 34.1399 50.7704 34.6046C50.4374 35.0713 49.8531 35.511 48.9345 35.9523L48.9523 35.9893L48.9702 36.0264C49.894 35.5826 50.4927 35.1354 50.8374 34.6524C51.1835 34.1673 51.2711 33.6497 51.1805 33.0725L51.1398 33.0789ZM48.9523 35.9893L48.9374 36.0277C49.5641 36.2716 49.8965 36.7735 49.9609 37.3253C50.0255 37.8783 49.8207 38.4826 49.3685 38.9268L49.3973 38.9561L49.4262 38.9854C49.8959 38.5241 50.1103 37.8948 50.0427 37.3157C49.9749 36.7353 49.6238 36.2066 48.9673 35.951L48.9523 35.9893ZM49.3973 38.9561L49.3685 38.9267C49.3595 38.9355 49.3519 38.9426 49.343 38.9499L49.3689 38.9818L49.3949 39.0138C49.4068 39.0041 49.4164 38.995 49.4262 38.9854L49.3973 38.9561ZM49.3689 38.9818L49.339 38.9536L48.8433 39.4791L48.8732 39.5073L48.9032 39.5355L49.3989 39.0101L49.3689 38.9818Z" fill="#082422"/>
<path d="M43.8682 22.7654C43.87 23.0943 43.9184 23.7638 44.2419 24.2163C44.2419 24.2163 46.8326 24.103 47.1186 23.6619C47.3594 23.2896 47.0923 22.3381 47.0017 22.0484C46.6797 22.083 46.3569 22.1279 46.0304 22.1828C45.7946 22.2278 45.5581 22.2738 45.3277 22.3178C44.9829 22.3928 44.634 22.4806 44.2764 22.5858C44.1266 22.6301 43.9919 22.691 43.869 22.7644L43.8682 22.7654Z" fill="#FFCD9C" stroke="#082422" stroke-width="0.0823034" stroke-miterlimit="10" stroke-linecap="round"/>
<path d="M39.2927 32.4658C39.2927 32.4658 41.9989 31.8672 42.1505 31.3334C42.3625 30.5828 41.4959 29.4636 41.472 29.421C41.2946 29.1127 40.9785 29.038 40.6821 29.163C39.6962 29.5795 38.3998 30.2263 38.329 30.2916C38.2338 31.1013 38.701 32.1357 39.2934 32.4648L39.2927 32.4658Z" fill="#FFCD9C" stroke="#082422" stroke-width="0.0823034" stroke-miterlimit="10" stroke-linecap="round"/>
<path d="M40.5116 37.3599C40.5116 37.3599 43.3504 36.6991 43.4968 36.1819C43.5859 35.8681 43.1568 34.8828 42.8409 34.3346C42.6691 34.0363 42.3637 33.9642 42.0777 34.0853C41.1251 34.4871 39.6481 35.1962 39.5797 35.26C39.4877 36.0424 39.9398 37.0418 40.5116 37.3599Z" fill="#FFCD9C" stroke="#082422" stroke-width="0.0823034" stroke-miterlimit="10" stroke-linecap="round"/>
<path d="M41.4645 41.2369C41.4645 41.2369 43.7679 40.7004 43.8868 40.281C43.9593 40.0258 43.6103 39.2268 43.3548 38.7817C43.2161 38.54 42.9669 38.4812 42.7357 38.579C41.9621 38.905 40.764 39.4804 40.7083 39.5326C40.6335 40.1683 41.0006 40.9795 41.4645 41.2369Z" fill="#FFCD9C" stroke="#082422" stroke-width="0.0823034" stroke-miterlimit="10" stroke-linecap="round"/>
<path d="M45.9924 26.3513C47.9827 25.5573 49.8868 26.3509 49.8868 26.3509L45.9924 26.3513Z" fill="#FFCD9C"/>
<path d="M45.9771 26.3131C45.956 26.3215 45.9457 26.3454 45.9541 26.3665C45.9626 26.3876 45.9865 26.3979 46.0076 26.3895L45.9924 26.3513L45.9771 26.3131ZM49.871 26.3888C49.892 26.3976 49.9161 26.3877 49.9248 26.3667C49.9336 26.3457 49.9237 26.3217 49.9027 26.3129L49.8868 26.3509L49.871 26.3888ZM45.9924 26.3513L46.0076 26.3895C46.9942 25.9959 47.9601 25.9955 48.6804 26.0941C49.0404 26.1433 49.3385 26.2172 49.5465 26.2787C49.6505 26.3095 49.7319 26.3371 49.7872 26.357C49.8148 26.367 49.8359 26.375 49.85 26.3805C49.8571 26.3832 49.8624 26.3853 49.8659 26.3868C49.8676 26.3875 49.8689 26.388 49.8698 26.3884C49.8702 26.3885 49.8705 26.3887 49.8707 26.3887C49.8708 26.3888 49.8709 26.3888 49.8709 26.3888C49.871 26.3888 49.871 26.3888 49.871 26.3888C49.871 26.3888 49.871 26.3888 49.8868 26.3509C49.9027 26.3129 49.9027 26.3129 49.9026 26.3129C49.9026 26.3129 49.9026 26.3129 49.9026 26.3128C49.9025 26.3128 49.9024 26.3128 49.9022 26.3127C49.902 26.3126 49.9016 26.3124 49.9011 26.3122C49.9001 26.3118 49.8986 26.3112 49.8967 26.3105C49.8929 26.3089 49.8873 26.3067 49.8799 26.3038C49.8652 26.2981 49.8434 26.2898 49.8151 26.2796C49.7585 26.2592 49.6755 26.2311 49.5699 26.1998C49.3587 26.1374 49.0564 26.0625 48.6916 26.0126C47.9622 25.9128 46.9809 25.9126 45.9771 26.3131L45.9924 26.3513Z" fill="#082422"/>
<path d="M43.3481 37.4181C45.7572 36.4998 47.6161 35.7254 48.9755 36.0033L43.3481 37.4181Z" fill="#FFCD9C"/>
<path d="M43.3335 37.3797C43.3122 37.3877 43.3016 37.4115 43.3097 37.4327C43.3178 37.454 43.3415 37.4646 43.3628 37.4565L43.3481 37.4181L43.3335 37.3797ZM48.9672 36.0436C48.9895 36.0482 49.0112 36.0338 49.0158 36.0116C49.0204 35.9893 49.006 35.9676 48.9837 35.963L48.9755 36.0033L48.9672 36.0436ZM43.3481 37.4181L43.3628 37.4565C44.5684 36.997 45.6332 36.5747 46.567 36.3016C47.5011 36.0284 48.2977 35.9067 48.9672 36.0436L48.9755 36.0033L48.9837 35.963C48.2939 35.822 47.4813 35.9485 46.5439 36.2226C45.6061 36.4969 44.5369 36.9209 43.3335 37.3797L43.3481 37.4181Z" fill="#082422"/>
<path d="M43.8674 32.2173C47.1686 30.8329 49.5232 31.339 49.5232 31.339L43.8674 32.2173Z" fill="#FFCD9C"/>
<path d="M43.8515 32.1794C43.8305 32.1882 43.8206 32.2123 43.8294 32.2332C43.8382 32.2542 43.8623 32.264 43.8833 32.2552L43.8674 32.2173L43.8515 32.1794ZM49.5145 31.3792C49.5368 31.384 49.5587 31.3699 49.5635 31.3477C49.5682 31.3255 49.5541 31.3036 49.5319 31.2988L49.5232 31.339L49.5145 31.3792ZM43.8674 32.2173L43.8833 32.2552C45.529 31.5651 46.9381 31.3464 47.9352 31.3001C48.4337 31.277 48.8292 31.2969 49.0998 31.3225C49.2351 31.3353 49.3391 31.3496 49.4092 31.3606C49.4442 31.3661 49.4707 31.3708 49.4884 31.3741C49.4972 31.3758 49.5038 31.3771 49.5082 31.3779C49.5104 31.3784 49.512 31.3787 49.5131 31.3789C49.5136 31.379 49.514 31.3791 49.5142 31.3792C49.5144 31.3792 49.5144 31.3792 49.5145 31.3792C49.5145 31.3792 49.5145 31.3792 49.5145 31.3792C49.5145 31.3792 49.5145 31.3792 49.5232 31.339C49.5319 31.2988 49.5319 31.2988 49.5318 31.2988C49.5318 31.2988 49.5317 31.2988 49.5317 31.2988C49.5316 31.2987 49.5315 31.2987 49.5313 31.2987C49.531 31.2986 49.5305 31.2985 49.5299 31.2984C49.5287 31.2981 49.5268 31.2978 49.5245 31.2973C49.5197 31.2963 49.5127 31.295 49.5035 31.2932C49.4851 31.2898 49.4578 31.285 49.422 31.2793C49.3504 31.2681 49.2447 31.2536 49.1076 31.2406C48.8335 31.2146 48.4341 31.1946 47.9314 31.2179C46.9258 31.2647 45.507 31.4851 43.8515 32.1794L43.8674 32.2173Z" fill="#082422"/>
<path d="M22.7184 42.4986C22.8363 42.3069 22.9092 42.0923 22.9332 41.8695C23.1539 39.8281 23.44 30.5603 27.2891 26.7975C30.7357 23.4277 33.904 21.5028 38.6042 16.4106C39.2721 15.6867 40.5934 15.7897 41.3176 17.0405C42.1251 18.4364 40.9186 20.6381 40.4284 21.4251C38.958 23.7863 36.3487 26.485 35.8162 27.4669C35.1047 28.7761 35.8089 33.0167 34.76 35.3502C33.711 37.6837 32.171 39.6855 32.171 39.6855" fill="#FFCD9C"/>
<path d="M22.6833 42.4771C22.6714 42.4964 22.6774 42.5218 22.6968 42.5337C22.7162 42.5455 22.7415 42.5395 22.7535 42.5201L22.7184 42.4986L22.6833 42.4771ZM22.9332 41.8695L22.8923 41.8651L22.8923 41.8651L22.9332 41.8695ZM27.2891 26.7975L27.3179 26.8269L27.3179 26.8269L27.2891 26.7975ZM38.6042 16.4106L38.6345 16.4384L38.6345 16.4384L38.6042 16.4106ZM41.3176 17.0405L41.3533 17.0199L41.3532 17.0199L41.3176 17.0405ZM40.4284 21.4251L40.3935 21.4034L40.4284 21.4251ZM35.8162 27.4669L35.8524 27.4865L35.8524 27.4865L35.8162 27.4669ZM32.1384 39.6604C32.1245 39.6785 32.1279 39.7043 32.1459 39.7181C32.1639 39.732 32.1898 39.7286 32.2036 39.7106L32.171 39.6855L32.1384 39.6604ZM22.7184 42.4986L22.7535 42.5201C22.8746 42.3232 22.9495 42.1027 22.9742 41.8739L22.9332 41.8695L22.8923 41.8651C22.8689 42.0819 22.798 42.2906 22.6833 42.4771L22.7184 42.4986ZM22.9332 41.8695L22.9742 41.8739C23.0849 40.8497 23.2111 38.0271 23.791 34.9867C24.3711 31.945 25.4032 28.6987 27.3179 26.8269L27.2891 26.7975L27.2603 26.7681C25.326 28.6591 24.2905 31.9281 23.7101 34.9713C23.1294 38.0159 23.0023 40.8478 22.8923 41.8651L22.9332 41.8695ZM27.2891 26.7975L27.3179 26.8269C29.0398 25.1433 30.6917 23.8212 32.5032 22.2813C34.3144 20.7417 36.2828 18.9862 38.6345 16.4384L38.6042 16.4106L38.5739 16.3827C36.2253 18.9272 34.2595 20.6803 32.4499 22.2186C30.6405 23.7567 28.985 25.0819 27.2603 26.7681L27.2891 26.7975ZM38.6042 16.4106L38.6345 16.4384C39.2793 15.7396 40.5683 15.8286 41.282 17.0611L41.3176 17.0405L41.3532 17.0199C40.6185 15.7509 39.265 15.6338 38.5739 16.3827L38.6042 16.4106ZM41.3176 17.0405L41.282 17.0611C41.6767 17.7434 41.5814 18.6282 41.3204 19.4487C41.0599 20.2673 40.6378 21.0111 40.3935 21.4034L40.4284 21.4251L40.4634 21.4468C40.7092 21.0521 41.1354 20.3015 41.3989 19.4736C41.6617 18.6474 41.766 17.7334 41.3533 17.0199L41.3176 17.0405ZM40.4284 21.4251L40.3935 21.4034C39.6599 22.5814 38.6417 23.8444 37.7389 24.9371C37.2878 25.483 36.8653 25.9867 36.5226 26.415C36.1804 26.8426 35.9151 27.1981 35.78 27.4473L35.8162 27.4669L35.8524 27.4865C35.9835 27.2447 36.2441 26.8947 36.5869 26.4663C36.9291 26.0387 37.3507 25.5361 37.8024 24.9894C38.7049 23.897 39.7265 22.6301 40.4634 21.4468L40.4284 21.4251ZM35.8162 27.4669L35.78 27.4473C35.5976 27.783 35.5079 28.3014 35.4575 28.9195C35.4069 29.5391 35.3954 30.2665 35.3735 31.0233C35.3294 32.5405 35.2429 34.1754 34.7224 35.3334L34.76 35.3502L34.7975 35.3671C35.326 34.1915 35.4118 32.5394 35.4558 31.0257C35.4778 30.267 35.4892 29.5429 35.5395 28.9262C35.59 28.308 35.6791 27.8054 35.8524 27.4865L35.8162 27.4669ZM34.76 35.3502L34.7224 35.3334C34.1991 36.4975 33.5531 37.5794 33.0376 38.3705C32.78 38.766 32.555 39.0886 32.3946 39.3123C32.3143 39.4242 32.2502 39.5113 32.2062 39.5704C32.1842 39.5999 32.1672 39.6225 32.1557 39.6376C32.15 39.6452 32.1456 39.6509 32.1427 39.6548C32.1413 39.6567 32.1402 39.6581 32.1394 39.659C32.1391 39.6595 32.1388 39.6599 32.1386 39.6601C32.1385 39.6602 32.1385 39.6603 32.1384 39.6604C32.1384 39.6604 32.1384 39.6604 32.1384 39.6604C32.1384 39.6604 32.1384 39.6604 32.171 39.6855C32.2036 39.7106 32.2037 39.7106 32.2037 39.7105C32.2037 39.7105 32.2037 39.7105 32.2037 39.7105C32.2038 39.7104 32.2039 39.7103 32.204 39.7102C32.2041 39.7099 32.2044 39.7095 32.2048 39.709C32.2056 39.708 32.2067 39.7066 32.2082 39.7046C32.2112 39.7007 32.2156 39.6949 32.2214 39.6873C32.233 39.6719 32.2501 39.6492 32.2723 39.6195C32.3166 39.56 32.381 39.4725 32.4615 39.3602C32.6226 39.1357 32.8482 38.812 33.1066 38.4154C33.6234 37.6222 34.2719 36.5364 34.7975 35.3671L34.76 35.3502Z" fill="#082422"/>
<path d="M35.4117 19.6515C36.3281 18.7794 37.301 17.8013 38.3503 16.6653C38.3956 16.6169 38.4435 16.5717 38.4941 16.5315L39.5996 18.0286C39.5996 18.0286 37.6197 20.6109 36.8624 20.5427C36.3499 20.4962 35.747 19.9815 35.411 19.6526L35.4117 19.6515Z" stroke="#082422" stroke-width="0.0823034" stroke-miterlimit="10" stroke-linecap="round"/>
<path d="M35.5226 27.6152C35.5451 27.6184 35.566 27.6028 35.5691 27.5803C35.5723 27.5578 35.5567 27.537 35.5342 27.5338L35.5284 27.5745L35.5226 27.6152ZM33.3521 26.4176C33.3333 26.4048 33.3077 26.4097 33.2949 26.4285C33.2821 26.4473 33.287 26.4729 33.3058 26.4857L33.329 26.4516L33.3521 26.4176ZM35.5284 27.5745L35.5342 27.5338C35.2762 27.4973 34.9004 27.3342 34.5037 27.1217C34.1086 26.91 33.698 26.6523 33.3723 26.4313L33.3492 26.4653L33.326 26.4994C33.6534 26.7215 34.0665 26.9808 34.4648 27.1942C34.8615 27.4067 35.2487 27.5765 35.5226 27.6152L35.5284 27.5745ZM33.3492 26.4653L33.3723 26.4313C33.3723 26.4313 33.3723 26.4313 33.3723 26.4313C33.3722 26.4313 33.3722 26.4313 33.3722 26.4313C33.3722 26.4312 33.3722 26.4312 33.3722 26.4312C33.3722 26.4312 33.3721 26.4312 33.3721 26.4312C33.3721 26.4312 33.3721 26.4312 33.3721 26.4312C33.3721 26.4312 33.3721 26.4311 33.372 26.4311C33.372 26.4311 33.372 26.4311 33.372 26.4311C33.372 26.4311 33.372 26.4311 33.372 26.4311C33.3719 26.4311 33.3719 26.4311 33.3719 26.431C33.3719 26.431 33.3719 26.431 33.3719 26.431C33.3719 26.431 33.3718 26.431 33.3718 26.431C33.3718 26.431 33.3718 26.431 33.3718 26.431C33.3718 26.4309 33.3718 26.4309 33.3717 26.4309C33.3717 26.4309 33.3717 26.4309 33.3717 26.4309C33.3717 26.4309 33.3717 26.4309 33.3717 26.4309C33.3716 26.4309 33.3716 26.4308 33.3716 26.4308C33.3716 26.4308 33.3716 26.4308 33.3716 26.4308C33.3716 26.4308 33.3715 26.4308 33.3715 26.4308C33.3715 26.4308 33.3715 26.4308 33.3715 26.4307C33.3715 26.4307 33.3714 26.4307 33.3714 26.4307C33.3714 26.4307 33.3714 26.4307 33.3714 26.4307C33.3714 26.4307 33.3714 26.4307 33.3713 26.4307C33.3713 26.4307 33.3713 26.4306 33.3713 26.4306C33.3713 26.4306 33.3713 26.4306 33.3713 26.4306C33.3712 26.4306 33.3712 26.4306 33.3712 26.4306C33.3712 26.4306 33.3712 26.4306 33.3712 26.4305C33.3712 26.4305 33.3711 26.4305 33.3711 26.4305C33.3711 26.4305 33.3711 26.4305 33.3711 26.4305C33.3711 26.4305 33.3711 26.4305 33.371 26.4305C33.371 26.4304 33.371 26.4304 33.371 26.4304C33.371 26.4304 33.371 26.4304 33.371 26.4304C33.3709 26.4304 33.3709 26.4304 33.3709 26.4304C33.3709 26.4304 33.3709 26.4303 33.3709 26.4303C33.3709 26.4303 33.3708 26.4303 33.3708 26.4303C33.3708 26.4303 33.3708 26.4303 33.3708 26.4303C33.3708 26.4303 33.3708 26.4303 33.3707 26.4302C33.3707 26.4302 33.3707 26.4302 33.3707 26.4302C33.3707 26.4302 33.3707 26.4302 33.3706 26.4302C33.3706 26.4302 33.3706 26.4302 33.3706 26.4302C33.3706 26.4301 33.3706 26.4301 33.3706 26.4301C33.3705 26.4301 33.3705 26.4301 33.3705 26.4301C33.3705 26.4301 33.3705 26.4301 33.3705 26.4301C33.3705 26.4301 33.3704 26.4301 33.3704 26.43C33.3704 26.43 33.3704 26.43 33.3704 26.43C33.3704 26.43 33.3704 26.43 33.3703 26.43C33.3703 26.43 33.3703 26.43 33.3703 26.43C33.3703 26.4299 33.3703 26.4299 33.3703 26.4299C33.3702 26.4299 33.3702 26.4299 33.3702 26.4299C33.3702 26.4299 33.3702 26.4299 33.3702 26.4299C33.3702 26.4299 33.3701 26.4298 33.3701 26.4298C33.3701 26.4298 33.3701 26.4298 33.3701 26.4298C33.3701 26.4298 33.3701 26.4298 33.37 26.4298C33.37 26.4298 33.37 26.4298 33.37 26.4297C33.37 26.4297 33.37 26.4297 33.37 26.4297C33.3699 26.4297 33.3699 26.4297 33.3699 26.4297C33.3699 26.4297 33.3699 26.4297 33.3699 26.4297C33.3699 26.4296 33.3698 26.4296 33.3698 26.4296C33.3698 26.4296 33.3698 26.4296 33.3698 26.4296C33.3698 26.4296 33.3698 26.4296 33.3697 26.4296C33.3697 26.4296 33.3697 26.4295 33.3697 26.4295C33.3697 26.4295 33.3697 26.4295 33.3696 26.4295C33.3696 26.4295 33.3696 26.4295 33.3696 26.4295C33.3696 26.4295 33.3696 26.4295 33.3696 26.4294C33.3695 26.4294 33.3695 26.4294 33.3695 26.4294C33.3695 26.4294 33.3695 26.4294 33.3695 26.4294C33.3695 26.4294 33.3694 26.4294 33.3694 26.4294C33.3694 26.4294 33.3694 26.4293 33.3694 26.4293C33.3694 26.4293 33.3694 26.4293 33.3693 26.4293C33.3693 26.4293 33.3693 26.4293 33.3693 26.4293C33.3693 26.4293 33.3693 26.4293 33.3693 26.4292C33.3692 26.4292 33.3692 26.4292 33.3692 26.4292C33.3692 26.4292 33.3692 26.4292 33.3692 26.4292C33.3692 26.4292 33.3691 26.4292 33.3691 26.4292C33.3691 26.4291 33.3691 26.4291 33.3691 26.4291C33.3691 26.4291 33.3691 26.4291 33.369 26.4291C33.369 26.4291 33.369 26.4291 33.369 26.4291C33.369 26.4291 33.369 26.429 33.369 26.429C33.3689 26.429 33.3689 26.429 33.3689 26.429C33.3689 26.429 33.3689 26.429 33.3689 26.429C33.3689 26.429 33.3688 26.429 33.3688 26.4289C33.3688 26.4289 33.3688 26.4289 33.3688 26.4289C33.3688 26.4289 33.3688 26.4289 33.3687 26.4289C33.3687 26.4289 33.3687 26.4289 33.3687 26.4289C33.3687 26.4289 33.3687 26.4288 33.3687 26.4288C33.3686 26.4288 33.3686 26.4288 33.3686 26.4288C33.3686 26.4288 33.3686 26.4288 33.3686 26.4288C33.3686 26.4288 33.3685 26.4288 33.3685 26.4287C33.3685 26.4287 33.3685 26.4287 33.3685 26.4287C33.3685 26.4287 33.3684 26.4287 33.3684 26.4287C33.3684 26.4287 33.3684 26.4287 33.3684 26.4287C33.3684 26.4286 33.3684 26.4286 33.3683 26.4286C33.3683 26.4286 33.3683 26.4286 33.3683 26.4286C33.3683 26.4286 33.3683 26.4286 33.3683 26.4286C33.3682 26.4286 33.3682 26.4285 33.3682 26.4285C33.3682 26.4285 33.3682 26.4285 33.3682 26.4285C33.3682 26.4285 33.3681 26.4285 33.3681 26.4285C33.3681 26.4285 33.3681 26.4285 33.3681 26.4285C33.3681 26.4284 33.3681 26.4284 33.368 26.4284C33.368 26.4284 33.368 26.4284 33.368 26.4284C33.368 26.4284 33.368 26.4284 33.368 26.4284C33.3679 26.4284 33.3679 26.4283 33.3679 26.4283C33.3679 26.4283 33.3679 26.4283 33.3679 26.4283C33.3679 26.4283 33.3678 26.4283 33.3678 26.4283C33.3678 26.4283 33.3678 26.4283 33.3678 26.4282C33.3678 26.4282 33.3678 26.4282 33.3677 26.4282C33.3677 26.4282 33.3677 26.4282 33.3677 26.4282C33.3677 26.4282 33.3677 26.4282 33.3677 26.4282C33.3676 26.4281 33.3676 26.4281 33.3676 26.4281C33.3676 26.4281 33.3676 26.4281 33.3676 26.4281C33.3676 26.4281 33.3675 26.4281 33.3675 26.4281C33.3675 26.4281 33.3675 26.4281 33.3675 26.428C33.3675 26.428 33.3675 26.428 33.3674 26.428C33.3674 26.428 33.3674 26.428 33.3674 26.428C33.3674 26.428 33.3674 26.428 33.3674 26.428C33.3673 26.4279 33.3673 26.4279 33.3673 26.4279C33.3673 26.4279 33.3673 26.4279 33.3673 26.4279C33.3673 26.4279 33.3672 26.4279 33.3672 26.4279C33.3672 26.4279 33.3672 26.4278 33.3672 26.4278C33.3672 26.4278 33.3672 26.4278 33.3671 26.4278C33.3671 26.4278 33.3671 26.4278 33.3671 26.4278C33.3671 26.4278 33.3671 26.4278 33.3671 26.4277C33.367 26.4277 33.367 26.4277 33.367 26.4277C33.367 26.4277 33.367 26.4277 33.367 26.4277C33.367 26.4277 33.3669 26.4277 33.3669 26.4277C33.3669 26.4277 33.3669 26.4276 33.3669 26.4276C33.3669 26.4276 33.3669 26.4276 33.3668 26.4276C33.3668 26.4276 33.3668 26.4276 33.3668 26.4276C33.3668 26.4276 33.3668 26.4276 33.3668 26.4275C33.3667 26.4275 33.3667 26.4275 33.3667 26.4275C33.3667 26.4275 33.3667 26.4275 33.3667 26.4275C33.3667 26.4275 33.3666 26.4275 33.3666 26.4275C33.3666 26.4274 33.3666 26.4274 33.3666 26.4274C33.3666 26.4274 33.3666 26.4274 33.3665 26.4274C33.3665 26.4274 33.3665 26.4274 33.3665 26.4274C33.3665 26.4274 33.3665 26.4274 33.3665 26.4273C33.3664 26.4273 33.3664 26.4273 33.3664 26.4273C33.3664 26.4273 33.3664 26.4273 33.3664 26.4273C33.3664 26.4273 33.3663 26.4273 33.3663 26.4273C33.3663 26.4272 33.3663 26.4272 33.3663 26.4272C33.3663 26.4272 33.3663 26.4272 33.3662 26.4272C33.3662 26.4272 33.3662 26.4272 33.3662 26.4272C33.3662 26.4272 33.3662 26.4271 33.3662 26.4271C33.3661 26.4271 33.3661 26.4271 33.3661 26.4271C33.3661 26.4271 33.3661 26.4271 33.3661 26.4271C33.3661 26.4271 33.366 26.4271 33.366 26.4271C33.366 26.427 33.366 26.427 33.366 26.427C33.366 26.427 33.366 26.427 33.3659 26.427C33.3659 26.427 33.3659 26.427 33.3659 26.427C33.3659 26.427 33.3659 26.4269 33.3659 26.4269C33.3658 26.4269 33.3658 26.4269 33.3658 26.4269C33.3658 26.4269 33.3658 26.4269 33.3658 26.4269C33.3658 26.4269 33.3657 26.4269 33.3657 26.4269C33.3657 26.4268 33.3657 26.4268 33.3657 26.4268C33.3657 26.4268 33.3657 26.4268 33.3656 26.4268C33.3656 26.4268 33.3656 26.4268 33.3656 26.4268C33.3656 26.4268 33.3656 26.4267 33.3656 26.4267C33.3655 26.4267 33.3655 26.4267 33.3655 26.4267C33.3655 26.4267 33.3655 26.4267 33.3655 26.4267C33.3655 26.4267 33.3654 26.4267 33.3654 26.4266C33.3654 26.4266 33.3654 26.4266 33.3654 26.4266C33.3654 26.4266 33.3654 26.4266 33.3653 26.4266C33.3653 26.4266 33.3653 26.4266 33.3653 26.4266C33.3653 26.4266 33.3653 26.4265 33.3653 26.4265C33.3652 26.4265 33.3652 26.4265 33.3652 26.4265C33.3652 26.4265 33.3652 26.4265 33.3652 26.4265C33.3652 26.4265 33.3652 26.4265 33.3651 26.4264C33.3651 26.4264 33.3651 26.4264 33.3651 26.4264C33.3651 26.4264 33.3651 26.4264 33.3651 26.4264C33.365 26.4264 33.365 26.4264 33.365 26.4264C33.365 26.4264 33.365 26.4263 33.365 26.4263C33.365 26.4263 33.3649 26.4263 33.3649 26.4263C33.3649 26.4263 33.3649 26.4263 33.3649 26.4263C33.3649 26.4263 33.3649 26.4263 33.3648 26.4262C33.3648 26.4262 33.3648 26.4262 33.3648 26.4262C33.3648 26.4262 33.3648 26.4262 33.3648 26.4262C33.3647 26.4262 33.3647 26.4262 33.3647 26.4262C33.3647 26.4262 33.3647 26.4261 33.3647 26.4261C33.3647 26.4261 33.3646 26.4261 33.3646 26.4261C33.3646 26.4261 33.3646 26.4261 33.3646 26.4261C33.3646 26.4261 33.3646 26.4261 33.3645 26.426C33.3645 26.426 33.3645 26.426 33.3645 26.426C33.3645 26.426 33.3645 26.426 33.3645 26.426C33.3644 26.426 33.3644 26.426 33.3644 26.426C33.3644 26.426 33.3644 26.4259 33.3644 26.4259C33.3644 26.4259 33.3643 26.4259 33.3643 26.4259C33.3643 26.4259 33.3643 26.4259 33.3643 26.4259C33.3643 26.4259 33.3643 26.4259 33.3643 26.4258C33.3642 26.4258 33.3642 26.4258 33.3642 26.4258C33.3642 26.4258 33.3642 26.4258 33.3642 26.4258C33.3642 26.4258 33.3641 26.4258 33.3641 26.4258C33.3641 26.4258 33.3641 26.4257 33.3641 26.4257C33.3641 26.4257 33.3641 26.4257 33.364 26.4257C33.364 26.4257 33.364 26.4257 33.364 26.4257C33.364 26.4257 33.364 26.4257 33.364 26.4256C33.3639 26.4256 33.3639 26.4256 33.3639 26.4256C33.3639 26.4256 33.3639 26.4256 33.3639 26.4256C33.3639 26.4256 33.3638 26.4256 33.3638 26.4256C33.3638 26.4256 33.3638 26.4255 33.3638 26.4255C33.3638 26.4255 33.3638 26.4255 33.3637 26.4255C33.3637 26.4255 33.3637 26.4255 33.3637 26.4255C33.3637 26.4255 33.3637 26.4255 33.3637 26.4254C33.3637 26.4254 33.3636 26.4254 33.3636 26.4254C33.3636 26.4254 33.3636 26.4254 33.3636 26.4254C33.3636 26.4254 33.3636 26.4254 33.3635 26.4254C33.3635 26.4254 33.3635 26.4253 33.3635 26.4253C33.3635 26.4253 33.3635 26.4253 33.3635 26.4253C33.3634 26.4253 33.3634 26.4253 33.3634 26.4253C33.3634 26.4253 33.3634 26.4253 33.3634 26.4253C33.3634 26.4252 33.3633 26.4252 33.3633 26.4252C33.3633 26.4252 33.3633 26.4252 33.3633 26.4252C33.3633 26.4252 33.3633 26.4252 33.3632 26.4252C33.3632 26.4252 33.3632 26.4251 33.3632 26.4251C33.3632 26.4251 33.3632 26.4251 33.3632 26.4251C33.3632 26.4251 33.3631 26.4251 33.3631 26.4251C33.3631 26.4251 33.3631 26.4251 33.3631 26.4251C33.3631 26.425 33.3631 26.425 33.363 26.425C33.363 26.425 33.363 26.425 33.363 26.425C33.363 26.425 33.363 26.425 33.363 26.425C33.3629 26.425 33.3629 26.425 33.3629 26.4249C33.3629 26.4249 33.3629 26.4249 33.3629 26.4249C33.3629 26.4249 33.3628 26.4249 33.3628 26.4249C33.3628 26.4249 33.3628 26.4249 33.3628 26.4249C33.3628 26.4248 33.3628 26.4248 33.3628 26.4248C33.3627 26.4248 33.3627 26.4248 33.3627 26.4248C33.3627 26.4248 33.3627 26.4248 33.3627 26.4248C33.3627 26.4248 33.3626 26.4248 33.3626 26.4247C33.3626 26.4247 33.3626 26.4247 33.3626 26.4247C33.3626 26.4247 33.3626 26.4247 33.3625 26.4247C33.3625 26.4247 33.3625 26.4247 33.3625 26.4247C33.3625 26.4247 33.3625 26.4246 33.3625 26.4246C33.3625 26.4246 33.3624 26.4246 33.3624 26.4246C33.3624 26.4246 33.3624 26.4246 33.3624 26.4246C33.3624 26.4246 33.3624 26.4246 33.3623 26.4246C33.3623 26.4245 33.3623 26.4245 33.3623 26.4245C33.3623 26.4245 33.3623 26.4245 33.3623 26.4245C33.3622 26.4245 33.3622 26.4245 33.3622 26.4245C33.3622 26.4245 33.3622 26.4244 33.3622 26.4244C33.3622 26.4244 33.3622 26.4244 33.3621 26.4244C33.3621 26.4244 33.3621 26.4244 33.3621 26.4244C33.3621 26.4244 33.3621 26.4244 33.3621 26.4244C33.362 26.4243 33.362 26.4243 33.362 26.4243C33.362 26.4243 33.362 26.4243 33.362 26.4243C33.362 26.4243 33.3619 26.4243 33.3619 26.4243C33.3619 26.4243 33.3619 26.4243 33.3619 26.4242C33.3619 26.4242 33.3619 26.4242 33.3619 26.4242C33.3618 26.4242 33.3618 26.4242 33.3618 26.4242C33.3618 26.4242 33.3618 26.4242 33.3618 26.4242C33.3618 26.4242 33.3617 26.4241 33.3617 26.4241C33.3617 26.4241 33.3617 26.4241 33.3617 26.4241C33.3617 26.4241 33.3617 26.4241 33.3616 26.4241C33.3616 26.4241 33.3616 26.4241 33.3616 26.4241C33.3616 26.424 33.3616 26.424 33.3616 26.424C33.3616 26.424 33.3615 26.424 33.3615 26.424C33.3615 26.424 33.3615 26.424 33.3615 26.424C33.3615 26.424 33.3615 26.424 33.3614 26.4239C33.3614 26.4239 33.3614 26.4239 33.3614 26.4239C33.3614 26.4239 33.3614 26.4239 33.3614 26.4239C33.3613 26.4239 33.3613 26.4239 33.3613 26.4239C33.3613 26.4238 33.3613 26.4238 33.3613 26.4238C33.3613 26.4238 33.3613 26.4238 33.3612 26.4238C33.3612 26.4238 33.3612 26.4238 33.3612 26.4238C33.3612 26.4238 33.3612 26.4238 33.3612 26.4237C33.3611 26.4237 33.3611 26.4237 33.3611 26.4237C33.3611 26.4237 33.3611 26.4237 33.3611 26.4237C33.3611 26.4237 33.3611 26.4237 33.361 26.4237C33.361 26.4237 33.361 26.4236 33.361 26.4236C33.361 26.4236 33.361 26.4236 33.361 26.4236C33.3609 26.4236 33.3609 26.4236 33.3609 26.4236C33.3609 26.4236 33.3609 26.4236 33.3609 26.4236C33.3609 26.4235 33.3609 26.4235 33.3608 26.4235C33.3608 26.4235 33.3608 26.4235 33.3608 26.4235C33.3608 26.4235 33.3608 26.4235 33.3608 26.4235C33.3607 26.4235 33.3607 26.4235 33.3607 26.4234C33.3607 26.4234 33.3607 26.4234 33.3607 26.4234C33.3607 26.4234 33.3607 26.4234 33.3606 26.4234C33.3606 26.4234 33.3606 26.4234 33.3606 26.4234C33.3606 26.4234 33.3606 26.4233 33.3606 26.4233C33.3605 26.4233 33.3605 26.4233 33.3605 26.4233C33.3605 26.4233 33.3605 26.4233 33.3605 26.4233C33.3605 26.4233 33.3605 26.4233 33.3604 26.4233C33.3604 26.4232 33.3604 26.4232 33.3604 26.4232C33.3604 26.4232 33.3604 26.4232 33.3604 26.4232C33.3603 26.4232 33.3603 26.4232 33.3603 26.4232C33.3603 26.4232 33.3603 26.4232 33.3603 26.4232C33.3603 26.4231 33.3603 26.4231 33.3602 26.4231C33.3602 26.4231 33.3602 26.4231 33.3602 26.4231C33.3602 26.4231 33.3602 26.4231 33.3602 26.4231C33.3601 26.4231 33.3601 26.4231 33.3601 26.423C33.3601 26.423 33.3601 26.423 33.3601 26.423C33.3601 26.423 33.3601 26.423 33.36 26.423C33.36 26.423 33.36 26.423 33.36 26.423C33.36 26.423 33.36 26.4229 33.36 26.4229C33.3599 26.4229 33.3599 26.4229 33.3599 26.4229C33.3599 26.4229 33.3599 26.4229 33.3599 26.4229C33.3599 26.4229 33.3599 26.4229 33.3598 26.4229C33.3598 26.4228 33.3598 26.4228 33.3598 26.4228C33.3598 26.4228 33.3598 26.4228 33.3598 26.4228C33.3598 26.4228 33.3597 26.4228 33.3597 26.4228C33.3597 26.4228 33.3597 26.4228 33.3597 26.4227C33.3597 26.4227 33.3597 26.4227 33.3596 26.4227C33.3596 26.4227 33.3596 26.4227 33.3596 26.4227C33.3596 26.4227 33.3596 26.4227 33.3596 26.4227C33.3596 26.4227 33.3595 26.4227 33.3595 26.4226C33.3595 26.4226 33.3595 26.4226 33.3595 26.4226C33.3595 26.4226 33.3595 26.4226 33.3594 26.4226C33.3594 26.4226 33.3594 26.4226 33.3594 26.4226C33.3594 26.4226 33.3594 26.4225 33.3594 26.4225C33.3594 26.4225 33.3593 26.4225 33.3593 26.4225C33.3593 26.4225 33.3593 26.4225 33.3593 26.4225C33.3593 26.4225 33.3593 26.4225 33.3593 26.4225C33.3592 26.4224 33.3592 26.4224 33.3592 26.4224C33.3592 26.4224 33.3592 26.4224 33.3592 26.4224C33.3592 26.4224 33.3591 26.4224 33.3591 26.4224C33.3591 26.4224 33.3591 26.4224 33.3591 26.4223C33.3591 26.4223 33.3591 26.4223 33.3591 26.4223C33.359 26.4223 33.359 26.4223 33.359 26.4223C33.359 26.4223 33.359 26.4223 33.359 26.4223C33.359 26.4223 33.359 26.4223 33.3589 26.4222C33.3589 26.4222 33.3589 26.4222 33.3589 26.4222C33.3589 26.4222 33.3589 26.4222 33.3589 26.4222C33.3589 26.4222 33.3588 26.4222 33.3588 26.4222C33.3588 26.4222 33.3588 26.4221 33.3588 26.4221C33.3588 26.4221 33.3588 26.4221 33.3587 26.4221C33.3587 26.4221 33.3587 26.4221 33.3587 26.4221C33.3587 26.4221 33.3587 26.4221 33.3587 26.4221C33.3587 26.4221 33.3586 26.422 33.3586 26.422C33.3586 26.422 33.3586 26.422 33.3586 26.422C33.3586 26.422 33.3586 26.422 33.3586 26.422C33.3585 26.422 33.3585 26.422 33.3585 26.422C33.3585 26.4219 33.3585 26.4219 33.3585 26.4219C33.3585 26.4219 33.3585 26.4219 33.3584 26.4219C33.3584 26.4219 33.3584 26.4219 33.3584 26.4219C33.3584 26.4219 33.3584 26.4219 33.3584 26.4219C33.3584 26.4218 33.3583 26.4218 33.3583 26.4218C33.3583 26.4218 33.3583 26.4218 33.3583 26.4218C33.3583 26.4218 33.3583 26.4218 33.3582 26.4218C33.3582 26.4218 33.3582 26.4218 33.3582 26.4217C33.3582 26.4217 33.3582 26.4217 33.3582 26.4217C33.3582 26.4217 33.3581 26.4217 33.3581 26.4217C33.3581 26.4217 33.3581 26.4217 33.3581 26.4217C33.3581 26.4217 33.3581 26.4217 33.3581 26.4216C33.358 26.4216 33.358 26.4216 33.358 26.4216C33.358 26.4216 33.358 26.4216 33.358 26.4216C33.358 26.4216 33.358 26.4216 33.3579 26.4216C33.3579 26.4216 33.3579 26.4215 33.3579 26.4215C33.3579 26.4215 33.3579 26.4215 33.3579 26.4215C33.3579 26.4215 33.3578 26.4215 33.3578 26.4215C33.3578 26.4215 33.3578 26.4215 33.3578 26.4215C33.3578 26.4215 33.3578 26.4214 33.3578 26.4214C33.3577 26.4214 33.3577 26.4214 33.3577 26.4214C33.3577 26.4214 33.3577 26.4214 33.3577 26.4214C33.3577 26.4214 33.3577 26.4214 33.3576 26.4214C33.3576 26.4214 33.3576 26.4213 33.3576 26.4213C33.3576 26.4213 33.3576 26.4213 33.3576 26.4213C33.3576 26.4213 33.3575 26.4213 33.3575 26.4213C33.3575 26.4213 33.3575 26.4213 33.3575 26.4213C33.3575 26.4212 33.3575 26.4212 33.3575 26.4212C33.3574 26.4212 33.3574 26.4212 33.3574 26.4212C33.3574 26.4212 33.3574 26.4212 33.3574 26.4212C33.3574 26.4212 33.3574 26.4212 33.3573 26.4212C33.3573 26.4211 33.3573 26.4211 33.3573 26.4211C33.3573 26.4211 33.3573 26.4211 33.3573 26.4211C33.3573 26.4211 33.3572 26.4211 33.3572 26.4211C33.3572 26.4211 33.3572 26.4211 33.3572 26.4211C33.3572 26.421 33.3572 26.421 33.3572 26.421C33.3571 26.421 33.3571 26.421 33.3571 26.421C33.3571 26.421 33.3571 26.421 33.3571 26.421C33.3571 26.421 33.3571 26.421 33.357 26.421C33.357 26.4209 33.357 26.4209 33.357 26.4209C33.357 26.4209 33.357 26.4209 33.357 26.4209C33.357 26.4209 33.3569 26.4209 33.3569 26.4209C33.3569 26.4209 33.3569 26.4209 33.3569 26.4209C33.3569 26.4208 33.3569 26.4208 33.3569 26.4208C33.3568 26.4208 33.3568 26.4208 33.3568 26.4208C33.3568 26.4208 33.3568 26.4208 33.3568 26.4208C33.3568 26.4208 33.3568 26.4208 33.3567 26.4208C33.3567 26.4207 33.3567 26.4207 33.3567 26.4207C33.3567 26.4207 33.3567 26.4207 33.3567 26.4207C33.3567 26.4207 33.3566 26.4207 33.3566 26.4207C33.3566 26.4207 33.3566 26.4207 33.3566 26.4207C33.3566 26.4206 33.3566 26.4206 33.3566 26.4206C33.3565 26.4206 33.3565 26.4206 33.3565 26.4206C33.3565 26.4206 33.3565 26.4206 33.3565 26.4206C33.3565 26.4206 33.3565 26.4206 33.3565 26.4206C33.3564 26.4205 33.3564 26.4205 33.3564 26.4205C33.3564 26.4205 33.3564 26.4205 33.3564 26.4205C33.3564 26.4205 33.3564 26.4205 33.3563 26.4205C33.3563 26.4205 33.3563 26.4205 33.3563 26.4205C33.3563 26.4204 33.3563 26.4204 33.3563 26.4204C33.3563 26.4204 33.3562 26.4204 33.3562 26.4204C33.3562 26.4204 33.3562 26.4204 33.3562 26.4204C33.3562 26.4204 33.3562 26.4204 33.3562 26.4204C33.3561 26.4203 33.3561 26.4203 33.3561 26.4203C33.3561 26.4203 33.3561 26.4203 33.3561 26.4203C33.3561 26.4203 33.3561 26.4203 33.3561 26.4203C33.356 26.4203 33.356 26.4203 33.356 26.4203C33.356 26.4202 33.356 26.4202 33.356 26.4202C33.356 26.4202 33.356 26.4202 33.3559 26.4202C33.3559 26.4202 33.3559 26.4202 33.3559 26.4202C33.3559 26.4202 33.3559 26.4202 33.3559 26.4202C33.3559 26.4202 33.3558 26.4201 33.3558 26.4201C33.3558 26.4201 33.3558 26.4201 33.3558 26.4201C33.3558 26.4201 33.3558 26.4201 33.3558 26.4201C33.3557 26.4201 33.3557 26.4201 33.3557 26.4201C33.3557 26.4201 33.3557 26.42 33.3557 26.42C33.3557 26.42 33.3557 26.42 33.3557 26.42C33.3556 26.42 33.3556 26.42 33.3556 26.42C33.3556 26.42 33.3556 26.42 33.3556 26.42C33.3556 26.42 33.3556 26.4199 33.3555 26.4199C33.3555 26.4199 33.3555 26.4199 33.3555 26.4199C33.3555 26.4199 33.3555 26.4199 33.3555 26.4199C33.3555 26.4199 33.3555 26.4199 33.3554 26.4199C33.3554 26.4199 33.3554 26.4199 33.3554 26.4198C33.3554 26.4198 33.3554 26.4198 33.3554 26.4198C33.3554 26.4198 33.3553 26.4198 33.3553 26.4198C33.3553 26.4198 33.3553 26.4198 33.3553 26.4198C33.3553 26.4198 33.3553 26.4198 33.3553 26.4197C33.3553 26.4197 33.3552 26.4197 33.3552 26.4197C33.3552 26.4197 33.3552 26.4197 33.3552 26.4197C33.3552 26.4197 33.3552 26.4197 33.3552 26.4197C33.3551 26.4197 33.3551 26.4197 33.3551 26.4197C33.3551 26.4196 33.3551 26.4196 33.3551 26.4196C33.3551 26.4196 33.3551 26.4196 33.3551 26.4196C33.355 26.4196 33.355 26.4196 33.355 26.4196C33.355 26.4196 33.355 26.4196 33.355 26.4196C33.355 26.4195 33.355 26.4195 33.3549 26.4195C33.3549 26.4195 33.3549 26.4195 33.3549 26.4195C33.3549 26.4195 33.3549 26.4195 33.3549 26.4195C33.3549 26.4195 33.3549 26.4195 33.3548 26.4195C33.3548 26.4195 33.3548 26.4194 33.3548 26.4194C33.3548 26.4194 33.3548 26.4194 33.3548 26.4194C33.3548 26.4194 33.3547 26.4194 33.3547 26.4194C33.3547 26.4194 33.3547 26.4194 33.3547 26.4194C33.3547 26.4194 33.3547 26.4194 33.3547 26.4193C33.3547 26.4193 33.3546 26.4193 33.3546 26.4193C33.3546 26.4193 33.3546 26.4193 33.3546 26.4193C33.3546 26.4193 33.3546 26.4193 33.3546 26.4193C33.3546 26.4193 33.3545 26.4193 33.3545 26.4192C33.3545 26.4192 33.3545 26.4192 33.3545 26.4192C33.3545 26.4192 33.3545 26.4192 33.3545 26.4192C33.3544 26.4192 33.3544 26.4192 33.3544 26.4192C33.3544 26.4192 33.3544 26.4192 33.3544 26.4192C33.3544 26.4191 33.3544 26.4191 33.3544 26.4191C33.3543 26.4191 33.3543 26.4191 33.3543 26.4191C33.3543 26.4191 33.3543 26.4191 33.3543 26.4191C33.3543 26.4191 33.3543 26.4191 33.3543 26.4191C33.3542 26.4191 33.3542 26.419 33.3542 26.419C33.3542 26.419 33.3542 26.419 33.3542 26.419C33.3542 26.419 33.3542 26.419 33.3542 26.419C33.3541 26.419 33.3541 26.419 33.3541 26.419C33.3541 26.419 33.3541 26.419 33.3541 26.4189C33.3541 26.4189 33.3541 26.4189 33.3541 26.4189C33.354 26.4189 33.354 26.4189 33.354 26.4189C33.354 26.4189 33.354 26.4189 33.354 26.4189C33.354 26.4189 33.354 26.4189 33.3539 26.4189C33.3539 26.4188 33.3539 26.4188 33.3539 26.4188C33.3539 26.4188 33.3539 26.4188 33.3539 26.4188C33.3539 26.4188 33.3539 26.4188 33.3538 26.4188C33.3538 26.4188 33.3538 26.4188 33.3538 26.4188C33.3538 26.4188 33.3538 26.4187 33.3538 26.4187C33.3538 26.4187 33.3538 26.4187 33.3537 26.4187C33.3537 26.4187 33.3537 26.4187 33.3537 26.4187C33.3537 26.4187 33.3537 26.4187 33.3537 26.4187C33.3537 26.4187 33.3537 26.4187 33.3536 26.4186C33.3536 26.4186 33.3536 26.4186 33.3536 26.4186C33.3536 26.4186 33.3536 26.4186 33.3536 26.4186C33.3536 26.4186 33.3536 26.4186 33.3535 26.4186C33.3535 26.4186 33.3535 26.4186 33.3535 26.4186C33.3535 26.4186 33.3535 26.4185 33.3535 26.4185C33.3535 26.4185 33.3535 26.4185 33.3534 26.4185C33.3534 26.4185 33.3534 26.4185 33.3534 26.4185C33.3534 26.4185 33.3534 26.4185 33.3534 26.4185C33.3534 26.4185 33.3534 26.4185 33.3533 26.4184C33.3533 26.4184 33.3533 26.4184 33.3533 26.4184C33.3533 26.4184 33.3533 26.4184 33.3533 26.4184C33.3533 26.4184 33.3533 26.4184 33.3532 26.4184C33.3532 26.4184 33.3532 26.4184 33.3532 26.4184C33.3532 26.4184 33.3532 26.4183 33.3532 26.4183C33.3532 26.4183 33.3532 26.4183 33.3532 26.4183C33.3531 26.4183 33.3531 26.4183 33.3531 26.4183C33.3531 26.4183 33.3531 26.4183 33.3531 26.4183C33.3531 26.4183 33.3531 26.4183 33.3531 26.4182C33.353 26.4182 33.353 26.4182 33.353 26.4182C33.353 26.4182 33.353 26.4182 33.353 26.4182C33.353 26.4182 33.353 26.4182 33.353 26.4182C33.3529 26.4182 33.3529 26.4182 33.3529 26.4182C33.3529 26.4182 33.3529 26.4181 33.3529 26.4181C33.3529 26.4181 33.3529 26.4181 33.3529 26.4181C33.3528 26.4181 33.3528 26.4181 33.3528 26.4181C33.3528 26.4181 33.3528 26.4181 33.3528 26.4181C33.3528 26.4181 33.3528 26.4181 33.3528 26.418C33.3528 26.418 33.3527 26.418 33.3527 26.418C33.3527 26.418 33.3527 26.418 33.3527 26.418C33.3527 26.418 33.3527 26.418 33.3527 26.418C33.3527 26.418 33.3526 26.418 33.3526 26.418C33.3526 26.418 33.3526 26.4179 33.3526 26.4179C33.3526 26.4179 33.3526 26.4179 33.3526 26.4179C33.3526 26.4179 33.3525 26.4179 33.3525 26.4179C33.3525 26.4179 33.3525 26.4179 33.3525 26.4179C33.3525 26.4179 33.3525 26.4179 33.3525 26.4179C33.3525 26.4178 33.3525 26.4178 33.3524 26.4178C33.3524 26.4178 33.3524 26.4178 33.3524 26.4178C33.3524 26.4178 33.3524 26.4178 33.3524 26.4178C33.3524 26.4178 33.3524 26.4178 33.3523 26.4178C33.3523 26.4178 33.3523 26.4178 33.3523 26.4177C33.3523 26.4177 33.3523 26.4177 33.3523 26.4177C33.3523 26.4177 33.3523 26.4177 33.3523 26.4177C33.3522 26.4177 33.3522 26.4177 33.3522 26.4177C33.3522 26.4177 33.3522 26.4177 33.3522 26.4177C33.3522 26.4177 33.3522 26.4176 33.3522 26.4176C33.3521 26.4176 33.3521 26.4176 33.3521 26.4176C33.3521 26.4176 33.3521 26.4176 33.3521 26.4176L33.329 26.4516L33.3058 26.4857C33.3058 26.4857 33.3058 26.4857 33.3058 26.4857C33.3059 26.4857 33.3059 26.4857 33.3059 26.4857C33.3059 26.4857 33.3059 26.4857 33.3059 26.4857C33.3059 26.4857 33.3059 26.4857 33.3059 26.4857C33.306 26.4857 33.306 26.4858 33.306 26.4858C33.306 26.4858 33.306 26.4858 33.306 26.4858C33.306 26.4858 33.306 26.4858 33.306 26.4858C33.306 26.4858 33.3061 26.4858 33.3061 26.4858C33.3061 26.4858 33.3061 26.4858 33.3061 26.4858C33.3061 26.4859 33.3061 26.4859 33.3061 26.4859C33.3061 26.4859 33.3062 26.4859 33.3062 26.4859C33.3062 26.4859 33.3062 26.4859 33.3062 26.4859C33.3062 26.4859 33.3062 26.4859 33.3062 26.4859C33.3062 26.4859 33.3062 26.4859 33.3063 26.486C33.3063 26.486 33.3063 26.486 33.3063 26.486C33.3063 26.486 33.3063 26.486 33.3063 26.486C33.3063 26.486 33.3063 26.486 33.3064 26.486C33.3064 26.486 33.3064 26.486 33.3064 26.486C33.3064 26.486 33.3064 26.4861 33.3064 26.4861C33.3064 26.4861 33.3064 26.4861 33.3064 26.4861C33.3065 26.4861 33.3065 26.4861 33.3065 26.4861C33.3065 26.4861 33.3065 26.4861 33.3065 26.4861C33.3065 26.4861 33.3065 26.4861 33.3065 26.4862C33.3066 26.4862 33.3066 26.4862 33.3066 26.4862C33.3066 26.4862 33.3066 26.4862 33.3066 26.4862C33.3066 26.4862 33.3066 26.4862 33.3066 26.4862C33.3067 26.4862 33.3067 26.4862 33.3067 26.4862C33.3067 26.4862 33.3067 26.4863 33.3067 26.4863C33.3067 26.4863 33.3067 26.4863 33.3067 26.4863C33.3067 26.4863 33.3068 26.4863 33.3068 26.4863C33.3068 26.4863 33.3068 26.4863 33.3068 26.4863C33.3068 26.4863 33.3068 26.4863 33.3068 26.4863C33.3068 26.4864 33.3069 26.4864 33.3069 26.4864C33.3069 26.4864 33.3069 26.4864 33.3069 26.4864C33.3069 26.4864 33.3069 26.4864 33.3069 26.4864C33.3069 26.4864 33.307 26.4864 33.307 26.4864C33.307 26.4864 33.307 26.4865 33.307 26.4865C33.307 26.4865 33.307 26.4865 33.307 26.4865C33.307 26.4865 33.3071 26.4865 33.3071 26.4865C33.3071 26.4865 33.3071 26.4865 33.3071 26.4865C33.3071 26.4865 33.3071 26.4865 33.3071 26.4866C33.3071 26.4866 33.3072 26.4866 33.3072 26.4866C33.3072 26.4866 33.3072 26.4866 33.3072 26.4866C33.3072 26.4866 33.3072 26.4866 33.3072 26.4866C33.3072 26.4866 33.3073 26.4866 33.3073 26.4866C33.3073 26.4866 33.3073 26.4867 33.3073 26.4867C33.3073 26.4867 33.3073 26.4867 33.3073 26.4867C33.3073 26.4867 33.3074 26.4867 33.3074 26.4867C33.3074 26.4867 33.3074 26.4867 33.3074 26.4867C33.3074 26.4867 33.3074 26.4867 33.3074 26.4868C33.3074 26.4868 33.3075 26.4868 33.3075 26.4868C33.3075 26.4868 33.3075 26.4868 33.3075 26.4868C33.3075 26.4868 33.3075 26.4868 33.3075 26.4868C33.3075 26.4868 33.3076 26.4868 33.3076 26.4868C33.3076 26.4869 33.3076 26.4869 33.3076 26.4869C33.3076 26.4869 33.3076 26.4869 33.3076 26.4869C33.3076 26.4869 33.3077 26.4869 33.3077 26.4869C33.3077 26.4869 33.3077 26.4869 33.3077 26.4869C33.3077 26.4869 33.3077 26.487 33.3077 26.487C33.3077 26.487 33.3078 26.487 33.3078 26.487C33.3078 26.487 33.3078 26.487 33.3078 26.487C33.3078 26.487 33.3078 26.487 33.3078 26.487C33.3078 26.487 33.3079 26.487 33.3079 26.4871C33.3079 26.4871 33.3079 26.4871 33.3079 26.4871C33.3079 26.4871 33.3079 26.4871 33.3079 26.4871C33.308 26.4871 33.308 26.4871 33.308 26.4871C33.308 26.4871 33.308 26.4871 33.308 26.4871C33.308 26.4872 33.308 26.4872 33.308 26.4872C33.3081 26.4872 33.3081 26.4872 33.3081 26.4872C33.3081 26.4872 33.3081 26.4872 33.3081 26.4872C33.3081 26.4872 33.3081 26.4872 33.3081 26.4872C33.3082 26.4872 33.3082 26.4873 33.3082 26.4873C33.3082 26.4873 33.3082 26.4873 33.3082 26.4873C33.3082 26.4873 33.3082 26.4873 33.3082 26.4873C33.3083 26.4873 33.3083 26.4873 33.3083 26.4873C33.3083 26.4873 33.3083 26.4873 33.3083 26.4874C33.3083 26.4874 33.3083 26.4874 33.3084 26.4874C33.3084 26.4874 33.3084 26.4874 33.3084 26.4874C33.3084 26.4874 33.3084 26.4874 33.3084 26.4874C33.3084 26.4874 33.3084 26.4874 33.3085 26.4874C33.3085 26.4875 33.3085 26.4875 33.3085 26.4875C33.3085 26.4875 33.3085 26.4875 33.3085 26.4875C33.3085 26.4875 33.3085 26.4875 33.3086 26.4875C33.3086 26.4875 33.3086 26.4875 33.3086 26.4875C33.3086 26.4876 33.3086 26.4876 33.3086 26.4876C33.3086 26.4876 33.3087 26.4876 33.3087 26.4876C33.3087 26.4876 33.3087 26.4876 33.3087 26.4876C33.3087 26.4876 33.3087 26.4876 33.3087 26.4876C33.3087 26.4876 33.3088 26.4877 33.3088 26.4877C33.3088 26.4877 33.3088 26.4877 33.3088 26.4877C33.3088 26.4877 33.3088 26.4877 33.3088 26.4877C33.3089 26.4877 33.3089 26.4877 33.3089 26.4877C33.3089 26.4877 33.3089 26.4877 33.3089 26.4878C33.3089 26.4878 33.3089 26.4878 33.3089 26.4878C33.309 26.4878 33.309 26.4878 33.309 26.4878C33.309 26.4878 33.309 26.4878 33.309 26.4878C33.309 26.4878 33.309 26.4878 33.3091 26.4879C33.3091 26.4879 33.3091 26.4879 33.3091 26.4879C33.3091 26.4879 33.3091 26.4879 33.3091 26.4879C33.3091 26.4879 33.3091 26.4879 33.3092 26.4879C33.3092 26.4879 33.3092 26.4879 33.3092 26.4879C33.3092 26.488 33.3092 26.488 33.3092 26.488C33.3092 26.488 33.3093 26.488 33.3093 26.488C33.3093 26.488 33.3093 26.488 33.3093 26.488C33.3093 26.488 33.3093 26.488 33.3093 26.488C33.3093 26.4881 33.3094 26.4881 33.3094 26.4881C33.3094 26.4881 33.3094 26.4881 33.3094 26.4881C33.3094 26.4881 33.3094 26.4881 33.3094 26.4881C33.3095 26.4881 33.3095 26.4881 33.3095 26.4881C33.3095 26.4882 33.3095 26.4882 33.3095 26.4882C33.3095 26.4882 33.3095 26.4882 33.3096 26.4882C33.3096 26.4882 33.3096 26.4882 33.3096 26.4882C33.3096 26.4882 33.3096 26.4882 33.3096 26.4882C33.3096 26.4882 33.3096 26.4883 33.3097 26.4883C33.3097 26.4883 33.3097 26.4883 33.3097 26.4883C33.3097 26.4883 33.3097 26.4883 33.3097 26.4883C33.3097 26.4883 33.3098 26.4883 33.3098 26.4883C33.3098 26.4883 33.3098 26.4884 33.3098 26.4884C33.3098 26.4884 33.3098 26.4884 33.3098 26.4884C33.3099 26.4884 33.3099 26.4884 33.3099 26.4884C33.3099 26.4884 33.3099 26.4884 33.3099 26.4884C33.3099 26.4884 33.3099 26.4885 33.31 26.4885C33.31 26.4885 33.31 26.4885 33.31 26.4885C33.31 26.4885 33.31 26.4885 33.31 26.4885C33.31 26.4885 33.31 26.4885 33.3101 26.4885C33.3101 26.4885 33.3101 26.4886 33.3101 26.4886C33.3101 26.4886 33.3101 26.4886 33.3101 26.4886C33.3101 26.4886 33.3102 26.4886 33.3102 26.4886C33.3102 26.4886 33.3102 26.4886 33.3102 26.4886C33.3102 26.4886 33.3102 26.4887 33.3102 26.4887C33.3103 26.4887 33.3103 26.4887 33.3103 26.4887C33.3103 26.4887 33.3103 26.4887 33.3103 26.4887C33.3103 26.4887 33.3103 26.4887 33.3104 26.4887C33.3104 26.4887 33.3104 26.4888 33.3104 26.4888C33.3104 26.4888 33.3104 26.4888 33.3104 26.4888C33.3104 26.4888 33.3105 26.4888 33.3105 26.4888C33.3105 26.4888 33.3105 26.4888 33.3105 26.4888C33.3105 26.4888 33.3105 26.4889 33.3105 26.4889C33.3105 26.4889 33.3106 26.4889 33.3106 26.4889C33.3106 26.4889 33.3106 26.4889 33.3106 26.4889C33.3106 26.4889 33.3106 26.4889 33.3106 26.4889C33.3107 26.4889 33.3107 26.489 33.3107 26.489C33.3107 26.489 33.3107 26.489 33.3107 26.489C33.3107 26.489 33.3107 26.489 33.3108 26.489C33.3108 26.489 33.3108 26.489 33.3108 26.489C33.3108 26.489 33.3108 26.4891 33.3108 26.4891C33.3108 26.4891 33.3109 26.4891 33.3109 26.4891C33.3109 26.4891 33.3109 26.4891 33.3109 26.4891C33.3109 26.4891 33.3109 26.4891 33.3109 26.4891C33.311 26.4891 33.311 26.4892 33.311 26.4892C33.311 26.4892 33.311 26.4892 33.311 26.4892C33.311 26.4892 33.311 26.4892 33.3111 26.4892C33.3111 26.4892 33.3111 26.4892 33.3111 26.4892C33.3111 26.4892 33.3111 26.4893 33.3111 26.4893C33.3111 26.4893 33.3112 26.4893 33.3112 26.4893C33.3112 26.4893 33.3112 26.4893 33.3112 26.4893C33.3112 26.4893 33.3112 26.4893 33.3112 26.4893C33.3113 26.4894 33.3113 26.4894 33.3113 26.4894C33.3113 26.4894 33.3113 26.4894 33.3113 26.4894C33.3113 26.4894 33.3113 26.4894 33.3114 26.4894C33.3114 26.4894 33.3114 26.4894 33.3114 26.4894C33.3114 26.4895 33.3114 26.4895 33.3114 26.4895C33.3114 26.4895 33.3115 26.4895 33.3115 26.4895C33.3115 26.4895 33.3115 26.4895 33.3115 26.4895C33.3115 26.4895 33.3115 26.4895 33.3115 26.4895C33.3116 26.4896 33.3116 26.4896 33.3116 26.4896C33.3116 26.4896 33.3116 26.4896 33.3116 26.4896C33.3116 26.4896 33.3116 26.4896 33.3117 26.4896C33.3117 26.4896 33.3117 26.4896 33.3117 26.4896C33.3117 26.4897 33.3117 26.4897 33.3117 26.4897C33.3118 26.4897 33.3118 26.4897 33.3118 26.4897C33.3118 26.4897 33.3118 26.4897 33.3118 26.4897C33.3118 26.4897 33.3118 26.4897 33.3119 26.4898C33.3119 26.4898 33.3119 26.4898 33.3119 26.4898C33.3119 26.4898 33.3119 26.4898 33.3119 26.4898C33.3119 26.4898 33.312 26.4898 33.312 26.4898C33.312 26.4898 33.312 26.4898 33.312 26.4899C33.312 26.4899 33.312 26.4899 33.312 26.4899C33.3121 26.4899 33.3121 26.4899 33.3121 26.4899C33.3121 26.4899 33.3121 26.4899 33.3121 26.4899C33.3121 26.4899 33.3121 26.49 33.3122 26.49C33.3122 26.49 33.3122 26.49 33.3122 26.49C33.3122 26.49 33.3122 26.49 33.3122 26.49C33.3122 26.49 33.3123 26.49 33.3123 26.49C33.3123 26.49 33.3123 26.4901 33.3123 26.4901C33.3123 26.4901 33.3123 26.4901 33.3124 26.4901C33.3124 26.4901 33.3124 26.4901 33.3124 26.4901C33.3124 26.4901 33.3124 26.4901 33.3124 26.4901C33.3124 26.4902 33.3125 26.4902 33.3125 26.4902C33.3125 26.4902 33.3125 26.4902 33.3125 26.4902C33.3125 26.4902 33.3125 26.4902 33.3125 26.4902C33.3126 26.4902 33.3126 26.4902 33.3126 26.4902C33.3126 26.4903 33.3126 26.4903 33.3126 26.4903C33.3126 26.4903 33.3126 26.4903 33.3127 26.4903C33.3127 26.4903 33.3127 26.4903 33.3127 26.4903C33.3127 26.4903 33.3127 26.4903 33.3127 26.4904C33.3128 26.4904 33.3128 26.4904 33.3128 26.4904C33.3128 26.4904 33.3128 26.4904 33.3128 26.4904C33.3128 26.4904 33.3128 26.4904 33.3129 26.4904C33.3129 26.4904 33.3129 26.4905 33.3129 26.4905C33.3129 26.4905 33.3129 26.4905 33.3129 26.4905C33.3129 26.4905 33.313 26.4905 33.313 26.4905C33.313 26.4905 33.313 26.4905 33.313 26.4905C33.313 26.4905 33.313 26.4906 33.3131 26.4906C33.3131 26.4906 33.3131 26.4906 33.3131 26.4906C33.3131 26.4906 33.3131 26.4906 33.3131 26.4906C33.3131 26.4906 33.3132 26.4906 33.3132 26.4906C33.3132 26.4907 33.3132 26.4907 33.3132 26.4907C33.3132 26.4907 33.3132 26.4907 33.3132 26.4907C33.3133 26.4907 33.3133 26.4907 33.3133 26.4907C33.3133 26.4907 33.3133 26.4907 33.3133 26.4908C33.3133 26.4908 33.3134 26.4908 33.3134 26.4908C33.3134 26.4908 33.3134 26.4908 33.3134 26.4908C33.3134 26.4908 33.3134 26.4908 33.3134 26.4908C33.3135 26.4908 33.3135 26.4909 33.3135 26.4909C33.3135 26.4909 33.3135 26.4909 33.3135 26.4909C33.3135 26.4909 33.3135 26.4909 33.3136 26.4909C33.3136 26.4909 33.3136 26.4909 33.3136 26.4909C33.3136 26.4909 33.3136 26.491 33.3136 26.491C33.3137 26.491 33.3137 26.491 33.3137 26.491C33.3137 26.491 33.3137 26.491 33.3137 26.491C33.3137 26.491 33.3137 26.491 33.3138 26.491C33.3138 26.4911 33.3138 26.4911 33.3138 26.4911C33.3138 26.4911 33.3138 26.4911 33.3138 26.4911C33.3139 26.4911 33.3139 26.4911 33.3139 26.4911C33.3139 26.4911 33.3139 26.4911 33.3139 26.4912C33.3139 26.4912 33.3139 26.4912 33.314 26.4912C33.314 26.4912 33.314 26.4912 33.314 26.4912C33.314 26.4912 33.314 26.4912 33.314 26.4912C33.3141 26.4912 33.3141 26.4913 33.3141 26.4913C33.3141 26.4913 33.3141 26.4913 33.3141 26.4913C33.3141 26.4913 33.3141 26.4913 33.3142 26.4913C33.3142 26.4913 33.3142 26.4913 33.3142 26.4913C33.3142 26.4914 33.3142 26.4914 33.3142 26.4914C33.3143 26.4914 33.3143 26.4914 33.3143 26.4914C33.3143 26.4914 33.3143 26.4914 33.3143 26.4914C33.3143 26.4914 33.3143 26.4914 33.3144 26.4915C33.3144 26.4915 33.3144 26.4915 33.3144 26.4915C33.3144 26.4915 33.3144 26.4915 33.3144 26.4915C33.3145 26.4915 33.3145 26.4915 33.3145 26.4915C33.3145 26.4915 33.3145 26.4916 33.3145 26.4916C33.3145 26.4916 33.3145 26.4916 33.3146 26.4916C33.3146 26.4916 33.3146 26.4916 33.3146 26.4916C33.3146 26.4916 33.3146 26.4916 33.3146 26.4916C33.3147 26.4917 33.3147 26.4917 33.3147 26.4917C33.3147 26.4917 33.3147 26.4917 33.3147 26.4917C33.3147 26.4917 33.3147 26.4917 33.3148 26.4917C33.3148 26.4917 33.3148 26.4917 33.3148 26.4918C33.3148 26.4918 33.3148 26.4918 33.3148 26.4918C33.3149 26.4918 33.3149 26.4918 33.3149 26.4918C33.3149 26.4918 33.3149 26.4918 33.3149 26.4918C33.3149 26.4918 33.3149 26.4919 33.315 26.4919C33.315 26.4919 33.315 26.4919 33.315 26.4919C33.315 26.4919 33.315 26.4919 33.315 26.4919C33.3151 26.4919 33.3151 26.4919 33.3151 26.4919C33.3151 26.492 33.3151 26.492 33.3151 26.492C33.3151 26.492 33.3151 26.492 33.3152 26.492C33.3152 26.492 33.3152 26.492 33.3152 26.492C33.3152 26.492 33.3152 26.492 33.3152 26.4921C33.3153 26.4921 33.3153 26.4921 33.3153 26.4921C33.3153 26.4921 33.3153 26.4921 33.3153 26.4921C33.3153 26.4921 33.3154 26.4921 33.3154 26.4921C33.3154 26.4921 33.3154 26.4922 33.3154 26.4922C33.3154 26.4922 33.3154 26.4922 33.3154 26.4922C33.3155 26.4922 33.3155 26.4922 33.3155 26.4922C33.3155 26.4922 33.3155 26.4922 33.3155 26.4922C33.3155 26.4923 33.3156 26.4923 33.3156 26.4923C33.3156 26.4923 33.3156 26.4923 33.3156 26.4923C33.3156 26.4923 33.3156 26.4923 33.3157 26.4923C33.3157 26.4923 33.3157 26.4923 33.3157 26.4924C33.3157 26.4924 33.3157 26.4924 33.3157 26.4924C33.3157 26.4924 33.3158 26.4924 33.3158 26.4924C33.3158 26.4924 33.3158 26.4924 33.3158 26.4924C33.3158 26.4925 33.3158 26.4925 33.3159 26.4925C33.3159 26.4925 33.3159 26.4925 33.3159 26.4925C33.3159 26.4925 33.3159 26.4925 33.3159 26.4925C33.316 26.4925 33.316 26.4925 33.316 26.4926C33.316 26.4926 33.316 26.4926 33.316 26.4926C33.316 26.4926 33.316 26.4926 33.3161 26.4926C33.3161 26.4926 33.3161 26.4926 33.3161 26.4926C33.3161 26.4926 33.3161 26.4927 33.3161 26.4927C33.3162 26.4927 33.3162 26.4927 33.3162 26.4927C33.3162 26.4927 33.3162 26.4927 33.3162 26.4927C33.3162 26.4927 33.3163 26.4927 33.3163 26.4927C33.3163 26.4928 33.3163 26.4928 33.3163 26.4928C33.3163 26.4928 33.3163 26.4928 33.3163 26.4928C33.3164 26.4928 33.3164 26.4928 33.3164 26.4928C33.3164 26.4928 33.3164 26.4929 33.3164 26.4929C33.3164 26.4929 33.3165 26.4929 33.3165 26.4929C33.3165 26.4929 33.3165 26.4929 33.3165 26.4929C33.3165 26.4929 33.3165 26.4929 33.3166 26.4929C33.3166 26.493 33.3166 26.493 33.3166 26.493C33.3166 26.493 33.3166 26.493 33.3166 26.493C33.3167 26.493 33.3167 26.493 33.3167 26.493C33.3167 26.493 33.3167 26.493 33.3167 26.4931C33.3167 26.4931 33.3167 26.4931 33.3168 26.4931C33.3168 26.4931 33.3168 26.4931 33.3168 26.4931C33.3168 26.4931 33.3168 26.4931 33.3168 26.4931C33.3169 26.4931 33.3169 26.4932 33.3169 26.4932C33.3169 26.4932 33.3169 26.4932 33.3169 26.4932C33.3169 26.4932 33.317 26.4932 33.317 26.4932C33.317 26.4932 33.317 26.4932 33.317 26.4933C33.317 26.4933 33.317 26.4933 33.3171 26.4933C33.3171 26.4933 33.3171 26.4933 33.3171 26.4933C33.3171 26.4933 33.3171 26.4933 33.3171 26.4933C33.3171 26.4933 33.3172 26.4934 33.3172 26.4934C33.3172 26.4934 33.3172 26.4934 33.3172 26.4934C33.3172 26.4934 33.3172 26.4934 33.3173 26.4934C33.3173 26.4934 33.3173 26.4934 33.3173 26.4935C33.3173 26.4935 33.3173 26.4935 33.3173 26.4935C33.3174 26.4935 33.3174 26.4935 33.3174 26.4935C33.3174 26.4935 33.3174 26.4935 33.3174 26.4935C33.3174 26.4935 33.3175 26.4936 33.3175 26.4936C33.3175 26.4936 33.3175 26.4936 33.3175 26.4936C33.3175 26.4936 33.3175 26.4936 33.3176 26.4936C33.3176 26.4936 33.3176 26.4936 33.3176 26.4936C33.3176 26.4937 33.3176 26.4937 33.3176 26.4937C33.3176 26.4937 33.3177 26.4937 33.3177 26.4937C33.3177 26.4937 33.3177 26.4937 33.3177 26.4937C33.3177 26.4937 33.3177 26.4938 33.3178 26.4938C33.3178 26.4938 33.3178 26.4938 33.3178 26.4938C33.3178 26.4938 33.3178 26.4938 33.3178 26.4938C33.3179 26.4938 33.3179 26.4938 33.3179 26.4938C33.3179 26.4939 33.3179 26.4939 33.3179 26.4939C33.3179 26.4939 33.318 26.4939 33.318 26.4939C33.318 26.4939 33.318 26.4939 33.318 26.4939C33.318 26.4939 33.318 26.494 33.3181 26.494C33.3181 26.494 33.3181 26.494 33.3181 26.494C33.3181 26.494 33.3181 26.494 33.3181 26.494C33.3182 26.494 33.3182 26.494 33.3182 26.494C33.3182 26.4941 33.3182 26.4941 33.3182 26.4941C33.3182 26.4941 33.3183 26.4941 33.3183 26.4941C33.3183 26.4941 33.3183 26.4941 33.3183 26.4941C33.3183 26.4941 33.3183 26.4942 33.3183 26.4942C33.3184 26.4942 33.3184 26.4942 33.3184 26.4942C33.3184 26.4942 33.3184 26.4942 33.3184 26.4942C33.3184 26.4942 33.3185 26.4942 33.3185 26.4942C33.3185 26.4943 33.3185 26.4943 33.3185 26.4943C33.3185 26.4943 33.3185 26.4943 33.3186 26.4943C33.3186 26.4943 33.3186 26.4943 33.3186 26.4943C33.3186 26.4943 33.3186 26.4944 33.3186 26.4944C33.3187 26.4944 33.3187 26.4944 33.3187 26.4944C33.3187 26.4944 33.3187 26.4944 33.3187 26.4944C33.3187 26.4944 33.3188 26.4944 33.3188 26.4944C33.3188 26.4945 33.3188 26.4945 33.3188 26.4945C33.3188 26.4945 33.3188 26.4945 33.3189 26.4945C33.3189 26.4945 33.3189 26.4945 33.3189 26.4945C33.3189 26.4945 33.3189 26.4946 33.3189 26.4946C33.319 26.4946 33.319 26.4946 33.319 26.4946C33.319 26.4946 33.319 26.4946 33.319 26.4946C33.319 26.4946 33.3191 26.4946 33.3191 26.4946C33.3191 26.4947 33.3191 26.4947 33.3191 26.4947C33.3191 26.4947 33.3191 26.4947 33.3192 26.4947C33.3192 26.4947 33.3192 26.4947 33.3192 26.4947C33.3192 26.4947 33.3192 26.4948 33.3192 26.4948C33.3193 26.4948 33.3193 26.4948 33.3193 26.4948C33.3193 26.4948 33.3193 26.4948 33.3193 26.4948C33.3193 26.4948 33.3194 26.4948 33.3194 26.4949C33.3194 26.4949 33.3194 26.4949 33.3194 26.4949C33.3194 26.4949 33.3194 26.4949 33.3194 26.4949C33.3195 26.4949 33.3195 26.4949 33.3195 26.4949C33.3195 26.4949 33.3195 26.495 33.3195 26.495C33.3195 26.495 33.3196 26.495 33.3196 26.495C33.3196 26.495 33.3196 26.495 33.3196 26.495C33.3196 26.495 33.3196 26.495 33.3197 26.4951C33.3197 26.4951 33.3197 26.4951 33.3197 26.4951C33.3197 26.4951 33.3197 26.4951 33.3197 26.4951C33.3198 26.4951 33.3198 26.4951 33.3198 26.4951C33.3198 26.4951 33.3198 26.4952 33.3198 26.4952C33.3198 26.4952 33.3199 26.4952 33.3199 26.4952C33.3199 26.4952 33.3199 26.4952 33.3199 26.4952C33.3199 26.4952 33.3199 26.4952 33.32 26.4953C33.32 26.4953 33.32 26.4953 33.32 26.4953C33.32 26.4953 33.32 26.4953 33.32 26.4953C33.3201 26.4953 33.3201 26.4953 33.3201 26.4953C33.3201 26.4954 33.3201 26.4954 33.3201 26.4954C33.3201 26.4954 33.3202 26.4954 33.3202 26.4954C33.3202 26.4954 33.3202 26.4954 33.3202 26.4954C33.3202 26.4954 33.3202 26.4954 33.3203 26.4955C33.3203 26.4955 33.3203 26.4955 33.3203 26.4955C33.3203 26.4955 33.3203 26.4955 33.3203 26.4955C33.3204 26.4955 33.3204 26.4955 33.3204 26.4955C33.3204 26.4956 33.3204 26.4956 33.3204 26.4956C33.3204 26.4956 33.3205 26.4956 33.3205 26.4956C33.3205 26.4956 33.3205 26.4956 33.3205 26.4956C33.3205 26.4956 33.3205 26.4957 33.3206 26.4957C33.3206 26.4957 33.3206 26.4957 33.3206 26.4957C33.3206 26.4957 33.3206 26.4957 33.3206 26.4957C33.3207 26.4957 33.3207 26.4957 33.3207 26.4957C33.3207 26.4958 33.3207 26.4958 33.3207 26.4958C33.3207 26.4958 33.3208 26.4958 33.3208 26.4958C33.3208 26.4958 33.3208 26.4958 33.3208 26.4958C33.3208 26.4958 33.3208 26.4959 33.3209 26.4959C33.3209 26.4959 33.3209 26.4959 33.3209 26.4959C33.3209 26.4959 33.3209 26.4959 33.3209 26.4959C33.321 26.4959 33.321 26.4959 33.321 26.496C33.321 26.496 33.321 26.496 33.321 26.496C33.321 26.496 33.3211 26.496 33.3211 26.496C33.3211 26.496 33.3211 26.496 33.3211 26.496C33.3211 26.4961 33.3211 26.4961 33.3212 26.4961C33.3212 26.4961 33.3212 26.4961 33.3212 26.4961C33.3212 26.4961 33.3212 26.4961 33.3212 26.4961C33.3213 26.4961 33.3213 26.4961 33.3213 26.4962C33.3213 26.4962 33.3213 26.4962 33.3213 26.4962C33.3213 26.4962 33.3214 26.4962 33.3214 26.4962C33.3214 26.4962 33.3214 26.4962 33.3214 26.4962C33.3214 26.4963 33.3214 26.4963 33.3215 26.4963C33.3215 26.4963 33.3215 26.4963 33.3215 26.4963C33.3215 26.4963 33.3215 26.4963 33.3215 26.4963C33.3216 26.4963 33.3216 26.4964 33.3216 26.4964C33.3216 26.4964 33.3216 26.4964 33.3216 26.4964C33.3216 26.4964 33.3217 26.4964 33.3217 26.4964C33.3217 26.4964 33.3217 26.4964 33.3217 26.4965C33.3217 26.4965 33.3218 26.4965 33.3218 26.4965C33.3218 26.4965 33.3218 26.4965 33.3218 26.4965C33.3218 26.4965 33.3218 26.4965 33.3219 26.4965C33.3219 26.4965 33.3219 26.4966 33.3219 26.4966C33.3219 26.4966 33.3219 26.4966 33.3219 26.4966C33.322 26.4966 33.322 26.4966 33.322 26.4966C33.322 26.4966 33.322 26.4966 33.322 26.4967C33.322 26.4967 33.3221 26.4967 33.3221 26.4967C33.3221 26.4967 33.3221 26.4967 33.3221 26.4967C33.3221 26.4967 33.3221 26.4967 33.3222 26.4967C33.3222 26.4968 33.3222 26.4968 33.3222 26.4968C33.3222 26.4968 33.3222 26.4968 33.3222 26.4968C33.3223 26.4968 33.3223 26.4968 33.3223 26.4968C33.3223 26.4968 33.3223 26.4969 33.3223 26.4969C33.3223 26.4969 33.3224 26.4969 33.3224 26.4969C33.3224 26.4969 33.3224 26.4969 33.3224 26.4969C33.3224 26.4969 33.3224 26.4969 33.3225 26.4969C33.3225 26.497 33.3225 26.497 33.3225 26.497C33.3225 26.497 33.3225 26.497 33.3225 26.497C33.3226 26.497 33.3226 26.497 33.3226 26.497C33.3226 26.497 33.3226 26.4971 33.3226 26.4971C33.3226 26.4971 33.3227 26.4971 33.3227 26.4971C33.3227 26.4971 33.3227 26.4971 33.3227 26.4971C33.3227 26.4971 33.3227 26.4971 33.3228 26.4972C33.3228 26.4972 33.3228 26.4972 33.3228 26.4972C33.3228 26.4972 33.3228 26.4972 33.3228 26.4972C33.3229 26.4972 33.3229 26.4972 33.3229 26.4972C33.3229 26.4973 33.3229 26.4973 33.3229 26.4973C33.3229 26.4973 33.323 26.4973 33.323 26.4973C33.323 26.4973 33.323 26.4973 33.323 26.4973C33.323 26.4973 33.323 26.4974 33.3231 26.4974C33.3231 26.4974 33.3231 26.4974 33.3231 26.4974C33.3231 26.4974 33.3231 26.4974 33.3232 26.4974C33.3232 26.4974 33.3232 26.4974 33.3232 26.4974C33.3232 26.4975 33.3232 26.4975 33.3232 26.4975C33.3233 26.4975 33.3233 26.4975 33.3233 26.4975C33.3233 26.4975 33.3233 26.4975 33.3233 26.4975C33.3233 26.4975 33.3234 26.4976 33.3234 26.4976C33.3234 26.4976 33.3234 26.4976 33.3234 26.4976C33.3234 26.4976 33.3234 26.4976 33.3235 26.4976C33.3235 26.4976 33.3235 26.4976 33.3235 26.4977C33.3235 26.4977 33.3235 26.4977 33.3235 26.4977C33.3236 26.4977 33.3236 26.4977 33.3236 26.4977C33.3236 26.4977 33.3236 26.4977 33.3236 26.4977C33.3236 26.4978 33.3237 26.4978 33.3237 26.4978C33.3237 26.4978 33.3237 26.4978 33.3237 26.4978C33.3237 26.4978 33.3237 26.4978 33.3238 26.4978C33.3238 26.4978 33.3238 26.4979 33.3238 26.4979C33.3238 26.4979 33.3238 26.4979 33.3238 26.4979C33.3239 26.4979 33.3239 26.4979 33.3239 26.4979C33.3239 26.4979 33.3239 26.4979 33.3239 26.498C33.3239 26.498 33.324 26.498 33.324 26.498C33.324 26.498 33.324 26.498 33.324 26.498C33.324 26.498 33.324 26.498 33.3241 26.498C33.3241 26.498 33.3241 26.4981 33.3241 26.4981C33.3241 26.4981 33.3241 26.4981 33.3242 26.4981C33.3242 26.4981 33.3242 26.4981 33.3242 26.4981C33.3242 26.4981 33.3242 26.4981 33.3242 26.4982C33.3243 26.4982 33.3243 26.4982 33.3243 26.4982C33.3243 26.4982 33.3243 26.4982 33.3243 26.4982C33.3243 26.4982 33.3244 26.4982 33.3244 26.4982C33.3244 26.4983 33.3244 26.4983 33.3244 26.4983C33.3244 26.4983 33.3244 26.4983 33.3245 26.4983C33.3245 26.4983 33.3245 26.4983 33.3245 26.4983C33.3245 26.4983 33.3245 26.4984 33.3245 26.4984C33.3246 26.4984 33.3246 26.4984 33.3246 26.4984C33.3246 26.4984 33.3246 26.4984 33.3246 26.4984C33.3246 26.4984 33.3247 26.4984 33.3247 26.4985C33.3247 26.4985 33.3247 26.4985 33.3247 26.4985C33.3247 26.4985 33.3247 26.4985 33.3248 26.4985C33.3248 26.4985 33.3248 26.4985 33.3248 26.4985C33.3248 26.4986 33.3248 26.4986 33.3248 26.4986C33.3249 26.4986 33.3249 26.4986 33.3249 26.4986C33.3249 26.4986 33.3249 26.4986 33.3249 26.4986C33.3249 26.4986 33.325 26.4987 33.325 26.4987C33.325 26.4987 33.325 26.4987 33.325 26.4987C33.325 26.4987 33.3251 26.4987 33.3251 26.4987C33.3251 26.4987 33.3251 26.4987 33.3251 26.4987C33.3251 26.4988 33.3251 26.4988 33.3252 26.4988C33.3252 26.4988 33.3252 26.4988 33.3252 26.4988C33.3252 26.4988 33.3252 26.4988 33.3252 26.4988C33.3253 26.4988 33.3253 26.4989 33.3253 26.4989C33.3253 26.4989 33.3253 26.4989 33.3253 26.4989C33.3253 26.4989 33.3254 26.4989 33.3254 26.4989C33.3254 26.4989 33.3254 26.4989 33.3254 26.499C33.3254 26.499 33.3254 26.499 33.3255 26.499C33.3255 26.499 33.3255 26.499 33.3255 26.499C33.3255 26.499 33.3255 26.499 33.3255 26.499C33.3256 26.4991 33.3256 26.4991 33.3256 26.4991C33.3256 26.4991 33.3256 26.4991 33.3256 26.4991C33.3256 26.4991 33.3257 26.4991 33.3257 26.4991C33.3257 26.4991 33.3257 26.4992 33.3257 26.4992C33.3257 26.4992 33.3257 26.4992 33.3258 26.4992C33.3258 26.4992 33.3258 26.4992 33.3258 26.4992C33.3258 26.4992 33.3258 26.4992 33.3259 26.4993C33.3259 26.4993 33.3259 26.4993 33.3259 26.4993C33.3259 26.4993 33.3259 26.4993 33.3259 26.4993C33.326 26.4993 33.326 26.4993 33.326 26.4993C33.326 26.4994 33.326 26.4994 33.326 26.4994L33.3492 26.4653Z" fill="#082422"/>
<mask id="mask0_664_11630" style="mask-type:alpha" maskUnits="userSpaceOnUse" x="22" y="15" width="20" height="28">
<path d="M22.7185 42.4986C22.8364 42.3069 22.9092 42.0923 22.9333 41.8695C23.154 39.8281 23.4401 30.5603 27.2892 26.7975C30.7358 23.4277 33.904 21.5028 38.6043 16.4106C39.2722 15.6867 40.5935 15.7897 41.3177 17.0405C42.1252 18.4364 40.9186 20.6381 40.4285 21.4251C38.9581 23.7863 36.3488 26.485 35.8163 27.4669C35.1048 28.7761 35.809 33.0167 34.7601 35.3502C33.7111 37.6837 32.1711 39.6855 32.1711 39.6855" fill="#FFCD9C"/>
</mask>
<g mask="url(#mask0_664_11630)">
<path fill-rule="evenodd" clip-rule="evenodd" d="M23.9978 20.7483C25.2053 20.7483 26.3301 21.0397 27.3155 21.5591L28.1363 21.9817C30.6496 23.2767 32.2732 26.0442 32.0787 29.2503C31.8111 33.6951 28.152 37.298 23.9054 37.298H18.1345L18.263 39.4149L17.3828 38.9617L17.3828 38.9615C17.1063 38.8783 11.9759 37.3226 9.87061 33.0047C9.22557 31.7797 8.89729 30.3385 8.99034 28.797C9.25902 24.3513 12.9181 20.7483 17.1648 20.7483H23.9978ZM23.0251 36.8448H17.2547L17.2547 36.8447H23.0256C23.1048 36.8447 23.1839 36.8435 23.2627 36.841C23.1837 36.8435 23.1045 36.8448 23.0251 36.8448ZM18.252 39.4118C18.1032 39.3658 17.1847 39.0816 16.0071 38.4751V38.4761L15.1297 38.0244C16.3369 38.6458 17.2711 38.9283 17.3819 38.9617L18.2621 39.415L18.252 39.4118Z" fill="black" fill-opacity="0.2"/>
</g>
<path d="M23.9977 19.041C28.2433 19.041 31.4675 22.644 31.1988 27.0898C30.9301 31.5345 27.2721 35.1375 23.0255 35.1375H17.2545L17.3831 37.2544C17.1124 37.1729 11.9771 35.6179 9.8705 31.2974C9.22545 30.0724 8.89718 28.6312 8.99023 27.0898C9.25891 22.644 12.918 19.041 17.1646 19.041H23.9977Z" fill="#8DFDFA" stroke="#002522" stroke-width="0.0823034" stroke-miterlimit="10"/>
<path d="M16.0069 36.7681C17.2155 37.3905 18.1511 37.6736 18.262 37.708L17.3817 37.2548C17.2709 37.2214 16.3352 36.9383 15.1266 36.3159L16.0069 36.7692V36.7681Z" fill="#A8BA00" stroke="#002522" stroke-width="0.0823034" stroke-miterlimit="10"/>
<path d="M28.1361 20.2745L27.2559 19.8213C29.7691 21.1152 31.3917 23.8838 31.1983 27.0899C30.9296 31.5346 27.2716 35.1376 23.0249 35.1376H17.254L17.3826 37.2545L18.2629 37.7078L18.1343 35.5909H23.9052C28.1518 35.5909 31.8109 31.9879 32.0786 27.5432C32.273 24.337 30.6494 21.5695 28.1361 20.2745Z" fill="#45F4F0" stroke="#002522" stroke-width="0.0823034" stroke-miterlimit="10"/>
<path opacity="0.5" d="M20.3303 26.7483C20.7621 26.7483 21.0893 27.1138 21.0621 27.565C21.0349 28.0161 20.6638 28.3816 20.232 28.3816C19.8003 28.3816 19.4741 28.0161 19.5013 27.565C19.5284 27.1138 19.8996 26.7483 20.3303 26.7483Z" fill="#002522"/>
<path opacity="0.4" d="M23.2951 26.7483C23.7258 26.7483 24.053 27.1138 24.0259 27.565C23.9987 28.0161 23.6275 28.3816 23.1968 28.3816C22.7661 28.3816 22.4378 28.0161 22.465 27.565C22.4922 27.1138 22.8633 26.7483 23.2951 26.7483Z" fill="#002522"/>
<path d="M17.3663 26.7483C17.797 26.7483 18.1243 27.1138 18.0971 27.565C18.0699 28.0161 17.6988 28.3816 17.268 28.3816C16.8373 28.3816 16.5101 28.0161 16.5373 27.565C16.5645 27.1138 16.9356 26.7483 17.3663 26.7483Z" fill="#002522"/>
</g>
<defs>
<clipPath id="clip0_664_11630">
<rect width="66" height="80" fill="white"/>
</clipPath>
</defs>
</svg>
