<svg width="47" height="80" viewBox="0 0 47 80" fill="none" xmlns="http://www.w3.org/2000/svg">
<g clip-path="url(#clip0_664_11576)">
<path d="M23.3513 35.4658C23.3569 35.4915 23.3648 35.5302 23.375 35.5805C23.3955 35.6813 23.4243 35.8301 23.4565 36.0195C23.5209 36.3985 23.5996 36.9416 23.6572 37.5972C23.7725 38.9092 23.8027 40.6687 23.4631 42.4639C23.1718 44.0047 22.4805 45.6279 21.8601 46.8692C21.5503 47.4891 21.2588 48.0129 21.0448 48.381C20.9379 48.5648 20.85 48.71 20.7893 48.809C20.7645 48.8494 20.7448 48.8826 20.7295 48.9071L18.5475 48.5574L9.79249 32.141L18.1031 28.7465L23.3476 35.4486C23.3487 35.4535 23.3499 35.4592 23.3513 35.4658Z" fill="#FFCE9B" stroke="#082422" stroke-width="0.191521" stroke-miterlimit="10" stroke-linecap="round" stroke-linejoin="round"/>
<path opacity="0.15" d="M23.3611 35.5472C23.3769 35.6238 23.3992 35.7369 23.4251 35.8821C23.4772 36.1731 23.5438 36.5939 23.6014 37.1092C23.7134 38.1128 23.7892 39.4757 23.6606 40.9485C22.6978 40.6422 21.7347 40.3418 20.7848 40.0162L19.9497 36.1363L23.3005 35.4006L23.3409 35.4537L23.3611 35.5472Z" fill="black" stroke="#082422" stroke-width="0.191521" stroke-linecap="round" stroke-linejoin="round"/>
<path d="M16.0285 26.3363C17.3613 24.2862 18.6946 22.2364 20.0269 20.1864C20.0385 20.1686 20.0587 20.1579 20.0799 20.1583C20.1011 20.1587 20.1203 20.1699 20.1314 20.188C22.4729 24.0161 26.1828 25.7407 30.0806 27.2069L33.4373 28.4426C37.3391 29.9099 41.0849 31.6479 43.4486 35.513C43.4612 35.5335 43.4611 35.5594 43.448 35.5796C42.1156 37.6296 40.783 39.6805 39.4502 41.7307C38.1175 43.7809 36.7842 45.8307 35.4518 47.8806C35.4403 47.8985 35.4201 47.9091 35.3988 47.9088C35.3778 47.9083 35.3584 47.8972 35.3474 47.8791C33.0059 44.0509 29.296 42.3264 25.3982 40.8601L22.0414 39.6245C18.1397 38.1571 14.3939 36.4191 12.0301 32.5541C12.0176 32.5336 12.0178 32.5076 12.0308 32.4875C13.3632 30.4375 14.6957 28.3866 16.0285 26.3363Z" fill="#60D06F" stroke="#082422" stroke-width="0.124234" stroke-miterlimit="10" stroke-linecap="round" stroke-linejoin="round"/>
<path d="M15.5067 30.6335C15.5177 30.7292 15.5563 30.8251 15.6193 30.8968L15.6212 30.898C16.3892 31.7732 16.6067 33.0908 15.9995 34.0235L15.9756 34.0693C15.9293 34.1819 15.9529 34.3243 16.054 34.406C18.5669 36.4338 21.6651 37.5596 24.7498 38.6825C27.8383 39.8069 30.914 40.9292 33.4046 42.9473C33.5087 43.0312 33.6449 43.0134 33.7297 42.9262L33.7619 42.8851C34.0631 42.422 34.5126 42.1436 34.9777 42.0874C35.4417 42.0312 35.926 42.1958 36.3032 42.6276L36.3041 42.6277C36.3614 42.6927 36.4364 42.7327 36.5145 42.7343C36.595 42.7358 36.6701 42.6962 36.7201 42.6193C37.2518 41.8013 37.7846 40.9843 38.3168 40.1668C38.8491 39.3493 39.3809 38.5313 39.9127 37.7133C39.9615 37.6383 39.9763 37.5453 39.9668 37.4581C39.9572 37.3708 39.9231 37.2828 39.8659 37.2165L39.8649 37.2164C39.0974 36.3392 38.8795 35.0184 39.4871 34.0851C39.5707 33.9569 39.5561 33.7634 39.4267 33.6607C36.9215 31.638 33.8346 30.5125 30.7585 29.3927C27.6784 28.2715 24.6094 27.1555 22.119 25.153C21.9869 25.0462 21.8089 25.0901 21.7237 25.2234L21.6047 25.3879C21.3105 25.7523 20.9153 25.9715 20.5079 26.0211C20.0436 26.0776 19.5587 25.9139 19.1802 25.4836C19.1176 25.4123 19.0348 25.369 18.9502 25.3673C18.8638 25.3657 18.7834 25.408 18.7292 25.4906L15.5649 30.3551L15.5315 30.4197C15.5053 30.4869 15.4985 30.5621 15.5067 30.6335Z" fill="#80E58A" stroke="black" stroke-width="0.124234" stroke-miterlimit="10" stroke-linecap="round" stroke-linejoin="round"/>
<path d="M20.0004 32.0801C19.8678 31.5133 19.9219 30.9945 20.1868 30.5876C20.4524 30.1794 20.8984 29.9292 21.4793 29.8044C22.0594 29.6799 22.7821 29.6742 23.613 29.7515L23.614 29.7518C25.271 29.9169 27.4194 30.3611 29.6019 31.1424C31.6498 31.8757 33.3076 32.8751 34.326 33.9886L34.5213 34.212C35.0215 34.8077 35.3439 35.4221 35.4772 35.988C35.6103 36.5539 35.5566 37.0739 35.2916 37.4808C35.026 37.889 34.58 38.1393 33.9992 38.264C33.564 38.3575 33.049 38.3841 32.4677 38.3588L31.8645 38.3166C30.2075 38.1516 28.059 37.7074 25.8766 36.926C23.6923 36.144 21.9514 35.0597 20.9572 33.8565L20.7779 33.6318C20.3792 33.1076 20.1169 32.5753 20.0004 32.0801Z" fill="#60D06F" stroke="#082422" stroke-width="0.124234" stroke-miterlimit="10" stroke-linecap="round" stroke-linejoin="round"/>
<path opacity="0.25" d="M20.2976 21.2944C19.4622 22.6942 18.6283 24.0949 17.7929 25.4947C17.641 27.7082 17.489 29.9216 17.3371 32.1351C25.032 36.4346 33.4319 30.4636 41.2577 32.8629C35.3799 27.1486 25.2022 28.6432 20.2976 21.2944Z" fill="black"/>
<path d="M17.6534 23.7184C17.8386 21.2778 18.0235 18.8364 18.2084 16.3961C18.2101 16.3751 18.2229 16.3566 18.2415 16.3465C18.2602 16.3364 18.2831 16.3358 18.3016 16.3462C22.1883 18.5424 26.2654 18.2349 30.3837 17.6095L33.918 17.0471C38.0407 16.4206 42.1568 16.1068 46.0811 18.3247C46.1018 18.3365 46.1143 18.3593 46.1125 18.3831C45.9276 20.8234 45.7416 23.264 45.5564 25.7046C45.3713 28.1451 45.1863 30.5857 45.0014 33.0259C44.9998 33.0471 44.9872 33.0663 44.9684 33.0764C44.9498 33.0863 44.9275 33.086 44.9091 33.0756C40.467 30.5656 35.7756 31.3263 31.0589 32.0937C26.3494 32.8599 21.6145 33.6327 17.1297 31.0981C17.1089 31.0864 17.0967 31.0636 17.0984 31.0397C17.2833 28.5996 17.4683 26.1588 17.6534 23.7184Z" fill="#60D06F" stroke="#082422" stroke-width="0.124234" stroke-miterlimit="10" stroke-linecap="round" stroke-linejoin="round"/>
<path d="M19.2663 27.7226C19.3217 27.8008 19.4016 27.8658 19.4911 27.8977L19.4933 27.8978C20.5853 28.2869 21.4072 29.3324 21.3225 30.4444C21.3125 30.5834 21.4079 30.7271 21.5537 30.7522C24.3291 31.2273 27.1654 30.8795 30.0009 30.4319L32.431 30.0402C35.2651 29.5936 38.0831 29.2519 40.8376 29.7292C40.9876 29.7551 41.1104 29.6453 41.121 29.501C41.1628 28.9489 41.4228 28.4855 41.803 28.2088C42.1824 27.9329 42.6854 27.8399 43.2226 28.0328C43.304 28.0616 43.3895 28.0596 43.4588 28.0226C43.5299 27.9847 43.577 27.914 43.584 27.8224C43.6576 26.8475 43.7312 25.8724 43.8054 24.8976C43.8796 23.9228 43.9541 22.9475 44.0277 21.9724C44.0344 21.883 44.0028 21.7943 43.9527 21.7228C43.915 21.6691 43.8648 21.6221 43.8076 21.5894L43.7476 21.5614C42.7234 21.1945 41.9349 20.2513 41.9104 19.2177L41.9155 19.0107C41.9259 18.8768 41.847 18.7357 41.7181 18.6848L41.6601 18.6688C38.8927 18.1942 36.0647 18.538 33.2372 18.9838L30.8131 19.3749C27.9868 19.8211 25.1762 20.1651 22.4285 19.6997C22.262 19.6712 22.1278 19.7962 22.1171 19.9541C22.0752 20.506 21.8154 20.9692 21.435 21.2463C21.0555 21.5228 20.5516 21.6173 20.014 21.4262C19.925 21.3946 19.8325 21.3968 19.7577 21.4367C19.6812 21.4775 19.6312 21.5537 19.6233 21.6526L19.6224 21.653L19.1846 27.4503C19.1769 27.5473 19.211 27.6445 19.2663 27.7226Z" fill="#80E58A" stroke="black" stroke-width="0.124234" stroke-miterlimit="10" stroke-linecap="round" stroke-linejoin="round"/>
<path d="M23.8894 26.7878C23.5014 26.3582 23.3003 25.8793 23.3374 25.395C23.3744 24.9092 23.6448 24.4728 24.094 24.0804C24.5426 23.6885 25.1734 23.3307 25.9386 22.9924L26.5389 22.7441C27.9964 22.1669 29.85 21.6188 31.8502 21.2826C33.9956 20.9221 35.9271 20.9827 37.353 21.4561L37.6313 21.5569C38.355 21.832 38.9326 22.2094 39.3205 22.6377C39.7084 23.066 39.9106 23.5461 39.8735 24.0303C39.8365 24.516 39.5649 24.9518 39.1158 25.3442C38.6672 25.7361 38.0376 26.0936 37.2712 26.4321C35.7405 27.0971 33.646 27.7586 31.3597 28.1429C29.0713 28.5275 27.0263 28.4322 25.5787 27.8686L25.3141 27.7609C24.7135 27.4985 24.2288 27.1626 23.8894 26.7878Z" fill="#60D06F" stroke="#082422" stroke-width="0.124234" stroke-miterlimit="10" stroke-linecap="round" stroke-linejoin="round"/>
<path opacity="0.15" d="M19.3838 16.4143C19.2053 19.0086 19.0267 21.603 18.8494 24.1971C19.5971 25.6209 20.3448 27.0447 21.0925 28.4684C29.6129 28.0677 33.6614 19.1503 41.0929 16.6746C33.9127 15.772 26.3592 20.3118 19.3853 16.4152L19.3838 16.4143Z" fill="black"/>
<path d="M16.7538 21.9899C15.5516 19.8568 14.3495 17.7238 13.1473 15.5912C13.1368 15.5727 13.1366 15.5497 13.1466 15.5308C13.1566 15.5122 13.1753 15.5001 13.1963 15.4985C17.6485 15.1587 20.8674 12.6293 23.9441 9.81359L26.5706 7.37559C29.6502 4.55663 32.8983 2.00155 37.3936 1.65882C37.4173 1.65715 37.4403 1.66908 37.4521 1.68994C38.6544 3.82265 39.857 5.95614 41.0593 8.0893C42.2615 10.2223 43.4636 12.3554 44.6658 14.4879C44.6763 14.5065 44.6764 14.5295 44.6665 14.5483C44.6565 14.5671 44.6372 14.5797 44.6161 14.5814C39.5279 14.9698 36.0503 18.218 32.555 21.4852C29.065 24.7476 25.557 28.0286 20.4195 28.4203L20.3854 28.4132C20.3754 28.4078 20.3668 28.3996 20.361 28.3892C19.1587 26.2565 17.9561 24.123 16.7538 21.9899Z" fill="#60D06F" stroke="#082422" stroke-width="0.124234" stroke-miterlimit="10" stroke-linecap="round" stroke-linejoin="round"/>
<path d="M20.3126 24.4244C20.4022 24.4585 20.5047 24.4681 20.5968 24.4446L20.5987 24.4435C21.723 24.1579 22.9865 24.5674 23.5335 25.5383L23.5338 25.5397C23.6027 25.6602 23.7611 25.726 23.8961 25.666L23.8969 25.6665C26.8374 24.3485 29.2473 22.0924 31.6492 19.8476C34.0542 17.5999 36.4515 15.363 39.3732 14.0604L39.3737 14.0595C39.5126 13.9972 39.5533 13.8373 39.4818 13.7116C39.2102 13.2296 39.17 12.7 39.3328 12.258C39.4952 11.817 39.8615 11.4581 40.4157 11.3188L40.4165 11.3193C40.5001 11.2979 40.5702 11.2486 40.6072 11.1793C40.6452 11.1082 40.6438 11.0234 40.5989 10.9436L37.721 5.83486C37.6769 5.75679 37.6015 5.70083 37.52 5.66934C37.4384 5.63782 37.3446 5.62853 37.2599 5.6495C36.1339 5.93366 34.8674 5.5232 34.3201 4.55151C34.245 4.41778 34.0664 4.34147 33.9165 4.41019C31.3509 5.55945 29.1889 7.42245 27.0841 9.36993L25.2846 11.0469C23.1809 12.9941 21.0339 14.8475 18.4895 15.9934C18.3349 16.0626 18.2924 16.2418 18.3712 16.3791L18.4624 16.5611C18.6501 16.9915 18.6634 17.4459 18.5211 17.8332C18.3588 18.2746 17.9922 18.634 17.4388 18.7751C17.3472 18.7985 17.2717 18.8517 17.2315 18.9266C17.1905 19.0032 17.1908 19.095 17.2392 19.1816L20.093 24.2446C20.1405 24.3294 20.2233 24.3904 20.3126 24.4244Z" fill="#80E58A" stroke="black" stroke-width="0.124234" stroke-miterlimit="10" stroke-linecap="round" stroke-linejoin="round"/>
<path d="M23.6436 21.0712C23.0818 20.9299 22.6477 20.6438 22.4091 20.2198C22.1697 19.7947 22.1522 19.2806 22.3074 18.7034C22.4238 18.2709 22.636 17.7973 22.924 17.2887L23.2365 16.7684L23.5968 16.2267C24.4881 14.9331 25.7256 13.4431 27.2026 12.0475C28.8924 10.4509 30.647 9.38983 32.1649 9.05193L32.1649 9.05332C32.9199 8.87891 33.6103 8.87001 34.1713 9.0104C34.7322 9.15084 35.1673 9.43801 35.4058 9.86189C35.6452 10.287 35.662 10.8018 35.5068 11.3789C35.3516 11.9554 35.0276 12.604 34.5785 13.3133C33.6752 14.7207 32.2997 16.4398 30.6116 18.0348C28.9219 19.6312 27.1678 20.6918 25.65 21.0297L25.3703 21.0876C24.7245 21.204 24.1346 21.1941 23.6436 21.0712Z" fill="#60D06F" stroke="#082422" stroke-width="0.124234" stroke-miterlimit="10" stroke-linecap="round" stroke-linejoin="round"/>
<mask id="path-14-inside-1_664_11576" fill="white">
<path d="M21.0438 48.5883L25.5219 76.0848C25.5941 76.5023 25.4325 76.9279 25.0975 77.1882C24.1559 77.9236 21.5317 78.9226 17.4892 78.9279C14.1974 78.9319 11.8341 78.5003 9.90136 78.3477C9.3166 78.3007 8.86311 77.8169 8.85041 77.2288L8.25412 49.143C8.25412 49.143 5.70735 45.6088 4.29756 40.9241C3.42152 38.0131 2.4598 32.9111 2.23612 31.3958C2.03813 30.0529 2.06752 27.5849 2.33945 26.5022C2.8564 24.4469 3.60519 23.1922 4.97029 21.3726C5.98317 20.0218 8.39169 17.4165 10.4853 15.0889C11.4136 14.0565 13.2646 13.5002 14.6016 13.8548L26.756 17.0753C27.5653 17.2891 27.987 18.1839 27.6421 18.9509C26.9243 20.5496 25.226 20.2629 24.0636 20.255C21.4915 20.2364 18.9443 19.493 18.9443 19.493L24.3536 28.3041C24.7588 28.9637 24.534 29.8479 23.8445 30.1963C23.3798 30.4305 22.8097 30.44 22.1508 30.3483L24.1067 34.983C24.3248 35.4904 23.8729 36.3191 23.1886 36.5977C22.4812 36.8864 21.9632 36.732 21.4106 36.3933L21.7765 39.6742C21.851 40.3441 21.3853 40.9559 20.7217 41.0597C19.9602 41.1798 19.4686 40.9128 18.9516 40.1927C18.3228 39.3179 17.0147 34.8294 16.5218 34.7623C16.0301 34.6948 12.3385 33.8329 12.3385 33.8329"/>
</mask>
<path d="M21.0438 48.5883L25.5219 76.0848C25.5941 76.5023 25.4325 76.9279 25.0975 77.1882C24.1559 77.9236 21.5317 78.9226 17.4892 78.9279C14.1974 78.9319 11.8341 78.5003 9.90136 78.3477C9.3166 78.3007 8.86311 77.8169 8.85041 77.2288L8.25412 49.143C8.25412 49.143 5.70735 45.6088 4.29756 40.9241C3.42152 38.0131 2.4598 32.9111 2.23612 31.3958C2.03813 30.0529 2.06752 27.5849 2.33945 26.5022C2.8564 24.4469 3.60519 23.1922 4.97029 21.3726C5.98317 20.0218 8.39169 17.4165 10.4853 15.0889C11.4136 14.0565 13.2646 13.5002 14.6016 13.8548L26.756 17.0753C27.5653 17.2891 27.987 18.1839 27.6421 18.9509C26.9243 20.5496 25.226 20.2629 24.0636 20.255C21.4915 20.2364 18.9443 19.493 18.9443 19.493L24.3536 28.3041C24.7588 28.9637 24.534 29.8479 23.8445 30.1963C23.3798 30.4305 22.8097 30.44 22.1508 30.3483L24.1067 34.983C24.3248 35.4904 23.8729 36.3191 23.1886 36.5977C22.4812 36.8864 21.9632 36.732 21.4106 36.3933L21.7765 39.6742C21.851 40.3441 21.3853 40.9559 20.7217 41.0597C19.9602 41.1798 19.4686 40.9128 18.9516 40.1927C18.3228 39.3179 17.0147 34.8294 16.5218 34.7623C16.0301 34.6948 12.3385 33.8329 12.3385 33.8329" fill="#FFCE9B"/>
<path d="M21.2327 48.5567C21.2157 48.4523 21.1173 48.3818 21.013 48.3992C20.9087 48.4166 20.838 48.5154 20.855 48.6198L21.0438 48.5883L21.2327 48.5567ZM25.5219 76.0848L25.333 76.1163L25.3333 76.1181L25.5219 76.0848ZM25.0975 77.1882L24.9805 77.0369L24.9802 77.0372L25.0975 77.1882ZM17.4892 78.9279L17.4887 79.1196L17.4887 79.1196L17.4892 78.9279ZM9.90136 78.3477L9.88535 78.5388L9.88562 78.5388L9.90136 78.3477ZM8.85041 77.2288L8.65909 77.2336L8.6591 77.2337L8.85041 77.2288ZM8.25412 49.143L8.44544 49.1382C8.44461 49.0994 8.43206 49.0618 8.40942 49.0304L8.25412 49.143ZM4.29756 40.9241L4.48079 40.8682L4.48079 40.8682L4.29756 40.9241ZM2.23612 31.3958L2.04681 31.4245L2.04681 31.4246L2.23612 31.3958ZM2.33945 26.5022L2.1539 26.456L2.15389 26.456L2.33945 26.5022ZM4.97029 21.3726L5.12311 21.4874L5.12314 21.4874L4.97029 21.3726ZM10.4853 15.0889L10.6273 15.2169L10.6273 15.2169L10.4853 15.0889ZM14.6016 13.8548L14.5519 14.0401L14.552 14.0401L14.6016 13.8548ZM26.756 17.0753L26.7065 17.2606L26.7066 17.2607L26.756 17.0753ZM27.6421 18.9509L27.4676 18.8727L27.4676 18.8728L27.6421 18.9509ZM24.0636 20.255L24.0615 20.4467L24.0616 20.4467L24.0636 20.255ZM18.9443 19.493L18.9984 19.309C18.9224 19.2868 18.8405 19.3139 18.7924 19.377C18.7442 19.4402 18.7397 19.5264 18.7812 19.5939L18.9443 19.493ZM24.3536 28.3041L24.1904 28.405L24.1905 28.405L24.3536 28.3041ZM23.8445 30.1963L23.93 30.3674L23.9302 30.3673L23.8445 30.1963ZM22.1508 30.3483L22.1778 30.1584C22.1095 30.1489 22.0413 30.1769 21.9992 30.2318C21.9571 30.2867 21.9477 30.3599 21.9745 30.4234L22.1508 30.3483ZM24.1067 34.983L23.9304 35.0582L23.9309 35.0593L24.1067 34.983ZM23.1886 36.5977L23.1172 36.4201L23.117 36.4202L23.1886 36.5977ZM21.4106 36.3933L21.5109 36.2297C21.4486 36.1915 21.3699 36.1923 21.3081 36.2318C21.2463 36.2712 21.2123 36.3424 21.2204 36.4152L21.4106 36.3933ZM21.7765 39.6742L21.9666 39.6523L21.9666 39.6522L21.7765 39.6742ZM20.7217 41.0597L20.6928 40.8703L20.6926 40.8703L20.7217 41.0597ZM18.9516 40.1927L19.1071 40.0804L19.107 40.0803L18.9516 40.1927ZM16.5218 34.7623L16.4952 34.9522L16.4954 34.9522L16.5218 34.7623ZM12.3826 33.6462C12.2798 33.6222 12.1767 33.6863 12.1523 33.7894C12.128 33.8925 12.1916 33.9956 12.2944 34.0196L12.3385 33.8329L12.3826 33.6462ZM21.0438 48.5883L20.855 48.6198L25.333 76.1163L25.5219 76.0848L25.7108 76.0532L21.2327 48.5567L21.0438 48.5883ZM25.5219 76.0848L25.3333 76.1181C25.3936 76.4669 25.2585 76.8209 24.9805 77.0369L25.0975 77.1882L25.2144 77.3395C25.6066 77.0348 25.7945 76.5377 25.7105 76.0514L25.5219 76.0848ZM25.0975 77.1882L24.9802 77.0372C24.5376 77.3829 23.6734 77.8078 22.4074 78.1466C21.1455 78.4844 19.4954 78.7336 17.4896 78.7362L17.4892 78.9279L17.4887 79.1196C19.5254 79.1169 21.2087 78.8639 22.5049 78.517C23.797 78.1712 24.7158 77.7289 25.2148 77.3392L25.0975 77.1882ZM17.4892 78.9279L17.4896 78.7362C14.2065 78.7402 11.873 78.3111 9.9171 78.1566L9.90136 78.3477L9.88562 78.5388C11.7951 78.6896 14.1884 79.1236 17.4887 79.1196L17.4892 78.9279ZM9.90136 78.3477L9.91736 78.1566C9.43064 78.1175 9.05232 77.7146 9.04173 77.224L8.85041 77.2288L8.6591 77.2337C8.6739 77.9193 9.20256 78.4839 9.88535 78.5388L9.90136 78.3477ZM8.85041 77.2288L9.04173 77.224L8.44544 49.1382L8.25412 49.143L8.0628 49.1477L8.65909 77.2336L8.85041 77.2288ZM8.25412 49.143C8.40942 49.0304 8.40943 49.0304 8.40943 49.0304C8.40942 49.0304 8.40941 49.0304 8.40939 49.0303C8.40933 49.0303 8.40925 49.0301 8.40912 49.03C8.40886 49.0296 8.40845 49.029 8.40789 49.0283C8.40677 49.0267 8.40504 49.0243 8.40272 49.021C8.39807 49.0145 8.39106 49.0046 8.38178 48.9914C8.36323 48.965 8.33564 48.9254 8.2999 48.8732C8.22843 48.7687 8.12441 48.6138 7.99503 48.4131C7.73623 48.0117 7.37608 47.4272 6.97196 46.6969C6.16337 45.2356 5.18063 43.1937 4.48079 40.8682L4.29756 40.9241L4.11432 40.9801C4.82428 43.3392 5.81982 45.4068 6.63706 46.8837C7.04586 47.6225 7.41052 48.2143 7.67329 48.622C7.80469 48.8258 7.91065 48.9836 7.98397 49.0907C8.02063 49.1443 8.04913 49.1852 8.06857 49.2129C8.07829 49.2267 8.08575 49.2372 8.09082 49.2443C8.09336 49.2479 8.09531 49.2506 8.09665 49.2525C8.09732 49.2534 8.09783 49.2541 8.09819 49.2547C8.09838 49.2549 8.09852 49.2551 8.09862 49.2552C8.09867 49.2553 8.09873 49.2554 8.09875 49.2554C8.09879 49.2555 8.09882 49.2555 8.25412 49.143ZM4.29756 40.9241L4.48079 40.8682C3.60847 37.9695 2.6484 32.8775 2.42542 31.3671L2.23612 31.3958L2.04681 31.4246C2.27121 32.9446 3.23458 38.0568 4.11433 40.9801L4.29756 40.9241ZM2.23612 31.3958L2.42543 31.3671C2.32852 30.7098 2.28641 29.7685 2.30289 28.8541C2.31943 27.9369 2.39464 27.0674 2.52502 26.5483L2.33945 26.5022L2.15389 26.456C2.01233 27.0196 1.93688 27.9255 1.92023 28.8486C1.90354 29.7747 1.94572 30.7389 2.04681 31.4245L2.23612 31.3958ZM2.33945 26.5022L2.52501 26.5484C3.03332 24.5274 3.76612 23.2962 5.12311 21.4874L4.97029 21.3726L4.81746 21.2578C3.44426 23.0882 2.67949 24.3664 2.1539 26.456L2.33945 26.5022ZM4.97029 21.3726L5.12314 21.4874C6.12919 20.1457 8.52748 17.5514 10.6273 15.2169L10.4853 15.0889L10.3433 14.9608C8.25589 17.2817 5.83715 19.8979 4.81743 21.2579L4.97029 21.3726ZM10.4853 15.0889L10.6273 15.2169C11.0624 14.7329 11.7237 14.3516 12.4445 14.1353C13.1652 13.9191 13.9254 13.8739 14.5519 14.0401L14.6016 13.8548L14.6512 13.6695C13.9407 13.4811 13.1069 13.5368 12.3359 13.7681C11.5648 13.9994 10.8364 14.4125 10.3433 14.9609L10.4853 15.0889ZM14.6016 13.8548L14.552 14.0401L26.7065 17.2606L26.756 17.0753L26.8056 16.89L14.6511 13.6695L14.6016 13.8548ZM26.756 17.0753L26.7066 17.2607C27.4011 17.4441 27.7643 18.213 27.4676 18.8727L27.6421 18.9509L27.8165 19.0291C28.2097 18.1548 27.7295 17.134 26.8055 16.89L26.756 17.0753ZM27.6421 18.9509L27.4676 18.8728C27.1403 19.6019 26.5978 19.8989 25.9841 20.0172C25.3492 20.1396 24.6732 20.0675 24.0656 20.0633L24.0636 20.255L24.0616 20.4467C24.6164 20.4505 25.3707 20.5256 26.0551 20.3936C26.7605 20.2576 27.4261 19.8986 27.8165 19.029L27.6421 18.9509ZM24.0636 20.255L24.0657 20.0633C22.7959 20.0542 21.5289 19.8659 20.5769 19.6789C20.1014 19.5856 19.7059 19.4928 19.4296 19.4235C19.2914 19.3889 19.1831 19.3601 19.1096 19.34C19.0729 19.33 19.0448 19.3222 19.0261 19.3169C19.0167 19.3142 19.0097 19.3122 19.005 19.3109C19.0027 19.3102 19.001 19.3097 18.9999 19.3094C18.9993 19.3093 18.9989 19.3091 18.9987 19.3091C18.9986 19.309 18.9985 19.309 18.9984 19.309C18.9984 19.309 18.9984 19.309 18.9984 19.309C18.9984 19.309 18.9984 19.309 18.9443 19.493C18.8901 19.6771 18.8901 19.6771 18.8902 19.6771C18.8902 19.6771 18.8903 19.6771 18.8903 19.6771C18.8904 19.6772 18.8906 19.6772 18.8908 19.6773C18.8911 19.6774 18.8917 19.6775 18.8923 19.6777C18.8937 19.6781 18.8957 19.6787 18.8983 19.6794C18.9034 19.6809 18.911 19.6831 18.9209 19.6859C18.9407 19.6915 18.9699 19.6996 19.0078 19.71C19.0837 19.7307 19.1945 19.7601 19.3353 19.7954C19.617 19.8661 20.019 19.9603 20.5019 20.0552C21.4665 20.2446 22.7591 20.4373 24.0615 20.4467L24.0636 20.255ZM18.9443 19.493L18.7812 19.5939L24.1904 28.405L24.3536 28.3041L24.5167 28.2033L19.1074 19.3922L18.9443 19.493ZM24.3536 28.3041L24.1905 28.405C24.5408 28.9751 24.3417 29.7307 23.7589 30.0252L23.8445 30.1963L23.9302 30.3673C24.7264 29.9651 24.9768 28.9522 24.5166 28.2032L24.3536 28.3041ZM23.8445 30.1963L23.759 30.0251C23.348 30.2322 22.8266 30.2487 22.1778 30.1584L22.1508 30.3483L22.1238 30.5381C22.7928 30.6312 23.4116 30.6287 23.93 30.3674L23.8445 30.1963ZM22.1508 30.3483L21.9745 30.4234L23.9304 35.0582L24.1067 34.983L24.283 34.9078L22.3271 30.2731L22.1508 30.3483ZM24.1067 34.983L23.9309 35.0593C24.0071 35.2365 23.9753 35.5045 23.8193 35.7827C23.6664 36.0555 23.4136 36.2994 23.1172 36.4201L23.1886 36.5977L23.2601 36.7752C23.648 36.6173 23.9633 36.3076 24.1528 35.9695C24.3393 35.6369 24.4245 35.2369 24.2826 34.9066L24.1067 34.983ZM23.1886 36.5977L23.117 36.4202C22.7916 36.553 22.5204 36.5802 22.2718 36.5414C22.0198 36.502 21.7767 36.3926 21.5109 36.2297L21.4106 36.3933L21.3103 36.5569C21.597 36.7326 21.8894 36.8698 22.2114 36.9201C22.5367 36.971 22.8783 36.9311 23.2603 36.7751L23.1886 36.5977ZM21.4106 36.3933L21.2204 36.4152L21.5863 39.6962L21.7765 39.6742L21.9666 39.6522L21.6008 36.3713L21.4106 36.3933ZM21.7765 39.6742L21.5863 39.6962C21.6495 40.2643 21.2545 40.7824 20.6928 40.8703L20.7217 41.0597L20.7505 41.249C21.5162 41.1293 22.0526 40.4238 21.9666 39.6523L21.7765 39.6742ZM20.7217 41.0597L20.6926 40.8703C20.3417 40.9257 20.0705 40.8898 19.8311 40.7698C19.5873 40.6475 19.3568 40.4282 19.1071 40.0804L18.9516 40.1927L18.7961 40.305C19.0634 40.6773 19.3373 40.9515 19.6588 41.1128C19.9848 41.2762 20.3402 41.3138 20.7507 41.249L20.7217 41.0597ZM18.9516 40.1927L19.107 40.0803C18.9658 39.8839 18.7743 39.4623 18.5536 38.9125C18.3358 38.3702 18.0992 37.7284 17.8648 37.1063C17.6315 36.4871 17.4 35.8867 17.1952 35.4361C17.0932 35.2116 16.9947 35.0174 16.9029 34.8748C16.8573 34.8038 16.8092 34.7391 16.7588 34.6887C16.7129 34.6428 16.6418 34.5851 16.5483 34.5723L16.5218 34.7623L16.4954 34.9522C16.4635 34.9479 16.4604 34.933 16.4881 34.9607C16.5113 34.9838 16.5424 35.0233 16.581 35.0832C16.6576 35.2024 16.7471 35.3767 16.8468 35.596C17.0455 36.0333 17.2728 36.6223 17.5067 37.2429C17.7395 37.8608 17.9786 38.5093 18.1984 39.0567C18.4152 39.5966 18.6229 40.0641 18.7962 40.3051L18.9516 40.1927ZM16.5218 34.7623L16.5485 34.5723C16.3134 34.5401 15.2796 34.3107 14.2888 34.0854C13.797 33.9735 13.3204 33.8637 12.9667 33.7819C12.7899 33.741 12.6439 33.707 12.542 33.6834C12.4911 33.6715 12.4513 33.6622 12.4241 33.6559C12.4106 33.6527 12.4002 33.6503 12.3932 33.6487C12.3897 33.6479 12.3871 33.6473 12.3853 33.6469C12.3844 33.6466 12.3837 33.6465 12.3833 33.6464C12.3831 33.6463 12.3829 33.6463 12.3828 33.6463C12.3827 33.6463 12.3827 33.6462 12.3827 33.6462C12.3826 33.6462 12.3826 33.6462 12.3385 33.8329C12.2944 34.0196 12.2945 34.0196 12.2945 34.0196C12.2945 34.0196 12.2946 34.0196 12.2946 34.0196C12.2947 34.0197 12.2949 34.0197 12.2951 34.0198C12.2956 34.0199 12.2962 34.02 12.2971 34.0202C12.2989 34.0206 12.3016 34.0213 12.3051 34.0221C12.3121 34.0237 12.3225 34.0262 12.3361 34.0293C12.3633 34.0357 12.4032 34.045 12.4542 34.0568C12.5561 34.0805 12.7023 34.1145 12.8793 34.1554C13.2332 34.2373 13.7103 34.3472 14.2028 34.4592C15.1808 34.6817 16.2386 34.917 16.4952 34.9522L16.5218 34.7623Z" fill="#082422" mask="url(#path-14-inside-1_664_11576)"/>
<g opacity="0.15">
<path d="M21.0342 41.1587L21.0344 41.1597C21.1025 41.7775 20.6726 42.3417 20.0604 42.4379C19.6954 42.4957 19.403 42.4596 19.142 42.329C18.8789 42.1974 18.6374 41.9652 18.3837 41.612C18.2349 41.4051 18.0397 40.9725 17.8204 40.4261C17.6026 39.8834 17.3656 39.2408 17.132 38.6207C16.8991 38.0021 16.6692 37.405 16.4664 36.9583C16.3651 36.7354 16.2684 36.5458 16.1806 36.4093C16.137 36.3413 16.0936 36.2824 16.0502 36.239C16.009 36.1978 15.9562 36.1588 15.8943 36.1503C15.4263 36.0865 11.3557 35.6151 8.40233 34.5793L9.57331 34.5996L9.57542 34.6001L9.70835 34.5958C10.3657 34.5512 10.5844 34.5379 11.8039 34.2237C11.9446 34.1872 12.0791 34.127 12.201 34.0453L12.3608 33.9381L12.361 33.9391C12.3882 33.9454 12.4287 33.9542 12.4796 33.966C12.5815 33.9896 12.7277 34.0238 12.9043 34.0645C13.2579 34.146 13.7348 34.255 14.2267 34.3665C14.9623 34.5332 15.7374 34.7061 16.1848 34.7965L16.5093 34.8561C16.5091 34.8561 16.525 34.8598 16.5569 34.8916C16.5868 34.9215 16.6223 34.967 16.6624 35.0294C16.7426 35.1541 16.8337 35.3333 16.9338 35.5536C17.1336 35.9935 17.3617 36.5846 17.5949 37.204C17.8275 37.822 18.0655 38.4687 18.2843 39.0141C18.5015 39.5556 18.7052 40.0106 18.8702 40.24C19.1327 40.6056 19.3954 40.866 19.6973 41.017C20.0011 41.1688 20.3351 41.2055 20.7303 41.1436C20.8332 41.1275 20.9315 41.0986 21.0241 41.0609L21.0342 41.1587Z" fill="black" stroke="#082422" stroke-width="0.191521" stroke-linecap="round" stroke-linejoin="round"/>
<path d="M23.3908 36.5995C23.4396 36.8039 23.3863 37.0636 23.2441 37.3167C23.0819 37.6056 22.8134 37.8661 22.4942 37.9967C22.1908 38.1211 21.9282 38.1544 21.685 38.1308L21.5117 36.5751C21.7379 36.6988 21.9654 36.7924 22.2098 36.8304C22.5145 36.8778 22.837 36.8405 23.2028 36.6919C23.2043 36.6914 23.2063 36.6924 23.2078 36.6918C23.2711 36.6659 23.3318 36.6338 23.3908 36.5995Z" fill="black" stroke="#082422" stroke-width="0.191521" stroke-linecap="round" stroke-linejoin="round"/>
</g>
<mask id="path-18-inside-2_664_11576" fill="white">
<path d="M22.1198 30.3292C22.1198 30.3292 20.7863 27.2708 19.3949 24.7013C19.0759 24.1123 18.4541 23.3561 17.4507 23.353C15.6876 23.3452 8.69504 23.8978 8.69504 23.8978"/>
</mask>
<path d="M21.9444 30.4065C21.9866 30.5034 22.0994 30.5473 22.1963 30.5046C22.2931 30.4619 22.3374 30.3488 22.2952 30.2519L22.1198 30.3292L21.9444 30.4065ZM19.3949 24.7013L19.5632 24.6094L19.5632 24.6094L19.3949 24.7013ZM17.4507 23.353L17.4492 23.5447L17.4494 23.5447L17.4507 23.353ZM8.68071 23.7067C8.57533 23.7151 8.49631 23.8074 8.50423 23.9129C8.51214 24.0184 8.60399 24.0972 8.70938 24.0889L8.69504 23.8978L8.68071 23.7067ZM22.1198 30.3292C22.2952 30.2519 22.2952 30.2519 22.2952 30.2519C22.2952 30.2518 22.2951 30.2518 22.2951 30.2517C22.2951 30.2516 22.295 30.2515 22.2949 30.2513C22.2947 30.2509 22.2945 30.2503 22.2942 30.2496C22.2935 30.2481 22.2925 30.2458 22.2912 30.2428C22.2886 30.2369 22.2848 30.2281 22.2797 30.2165C22.2695 30.1933 22.2544 30.1591 22.2348 30.1146C22.1955 30.0256 22.1378 29.8958 22.0642 29.732C21.9172 29.4044 21.7066 28.9409 21.4525 28.397C20.9444 27.3097 20.2614 25.8989 19.5632 24.6094L19.3949 24.7013L19.2266 24.7932C19.9197 26.0732 20.5992 27.4764 21.1057 28.5606C21.3589 29.1025 21.5687 29.5642 21.7151 29.8903C21.7883 30.0534 21.8457 30.1826 21.8847 30.2709C21.9043 30.3151 21.9192 30.349 21.9292 30.3719C21.9343 30.3834 21.9381 30.392 21.9406 30.3978C21.9419 30.4007 21.9428 30.4029 21.9434 30.4043C21.9438 30.4051 21.944 30.4056 21.9442 30.406C21.9442 30.4061 21.9443 30.4063 21.9443 30.4064C21.9443 30.4064 21.9444 30.4064 21.9444 30.4064C21.9444 30.4065 21.9444 30.4065 22.1198 30.3292ZM19.3949 24.7013L19.5632 24.6094C19.2343 24.0022 18.5634 23.1648 17.4521 23.1613L17.4507 23.353L17.4494 23.5447C18.3449 23.5475 18.9175 24.2224 19.2266 24.7932L19.3949 24.7013ZM17.4507 23.353L17.4523 23.1613C16.5619 23.1574 14.3645 23.2943 12.3992 23.4313C11.4144 23.4999 10.4848 23.5688 9.80149 23.6205C9.4598 23.6463 9.17965 23.6679 8.9849 23.683C8.88752 23.6905 8.8115 23.6965 8.7598 23.7005C8.73396 23.7025 8.7142 23.7041 8.70089 23.7051C8.69424 23.7057 8.6892 23.7061 8.68582 23.7063C8.68413 23.7065 8.68286 23.7066 8.682 23.7066C8.68158 23.7067 8.68125 23.7067 8.68104 23.7067C8.68093 23.7067 8.68085 23.7067 8.6808 23.7067C8.68074 23.7067 8.68071 23.7067 8.69504 23.8978C8.70938 24.0889 8.7094 24.0889 8.70945 24.0889C8.7095 24.0889 8.70958 24.0889 8.70969 24.0889C8.7099 24.0889 8.71021 24.0889 8.71064 24.0888C8.71148 24.0888 8.71274 24.0887 8.71442 24.0885C8.71778 24.0883 8.72279 24.0879 8.72943 24.0873C8.74269 24.0863 8.7624 24.0847 8.78821 24.0827C8.8398 24.0787 8.91573 24.0728 9.013 24.0652C9.20755 24.0501 9.48746 24.0286 9.82888 24.0027C10.5117 23.9511 11.4405 23.8823 12.4243 23.8137C14.396 23.6763 16.5764 23.5408 17.4492 23.5447L17.4507 23.353Z" fill="#082422" mask="url(#path-18-inside-2_664_11576)"/>
<mask id="path-20-inside-3_664_11576" fill="white">
<path d="M21.3935 36.385C21.3935 36.385 20.9615 32.6441 20.5551 30.6326C20.4465 30.0988 20.3501 29.5624 19.5681 29.3315C16.7117 28.488 7.7353 27.7081 7.7353 27.7081"/>
</mask>
<path d="M21.2034 36.4077C21.2156 36.5129 21.3105 36.5879 21.4155 36.5753C21.5205 36.5628 21.5957 36.4674 21.5836 36.3623L21.3935 36.385L21.2034 36.4077ZM20.5551 30.6326L20.7427 30.5939L20.7426 30.5936L20.5551 30.6326ZM19.5681 29.3315L19.5134 29.5154L19.5134 29.5154L19.5681 29.3315ZM7.75255 27.5171C7.6473 27.508 7.55425 27.5861 7.54473 27.6915C7.5352 27.797 7.6128 27.8899 7.71805 27.8991L7.7353 27.7081L7.75255 27.5171ZM21.3935 36.385C21.5836 36.3623 21.5836 36.3622 21.5836 36.3622C21.5836 36.3622 21.5836 36.3621 21.5836 36.3621C21.5836 36.362 21.5835 36.3618 21.5835 36.3615C21.5835 36.3611 21.5834 36.3604 21.5833 36.3595C21.5831 36.3576 21.5828 36.3549 21.5823 36.3513C21.5815 36.3441 21.5803 36.3335 21.5786 36.3195C21.5753 36.2915 21.5705 36.2502 21.5642 36.197C21.5515 36.0906 21.533 35.9363 21.5096 35.745C21.4627 35.3623 21.3959 34.8311 21.3164 34.2369C21.1575 33.0501 20.9472 31.6064 20.7427 30.5939L20.5551 30.6326L20.3675 30.6713C20.5693 31.6702 20.7782 33.1028 20.937 34.2893C21.0163 34.8818 21.0829 35.4115 21.1297 35.7931C21.1531 35.9839 21.1716 36.1377 21.1841 36.2437C21.1904 36.2967 21.1953 36.3377 21.1985 36.3655C21.2001 36.3794 21.2014 36.39 21.2022 36.3971C21.2026 36.4006 21.2029 36.4033 21.2031 36.4051C21.2032 36.406 21.2033 36.4067 21.2033 36.4071C21.2034 36.4073 21.2034 36.4075 21.2034 36.4076C21.2034 36.4076 21.2034 36.4077 21.2034 36.4077C21.2034 36.4077 21.2034 36.4077 21.3935 36.385ZM20.5551 30.6326L20.7426 30.5936C20.69 30.3351 20.6338 30.0332 20.479 29.7705C20.3168 29.4956 20.0558 29.2755 19.6229 29.1476L19.5681 29.3315L19.5134 29.5154C19.8624 29.6185 20.0406 29.782 20.1493 29.9664C20.2653 30.1632 20.3116 30.3963 20.3676 30.6715L20.5551 30.6326ZM19.5681 29.3315L19.6229 29.1476C18.1757 28.7203 15.1997 28.3129 12.6032 28.0131C11.3012 27.8627 10.0887 27.7387 9.20173 27.6523C8.75823 27.6092 8.39606 27.5754 8.14471 27.5524C8.01904 27.5409 7.92106 27.5321 7.85447 27.5261C7.82118 27.5232 7.79573 27.5209 7.77859 27.5194C7.77002 27.5187 7.76353 27.5181 7.75917 27.5177C7.75699 27.5175 7.75535 27.5174 7.75424 27.5173C7.75369 27.5172 7.75327 27.5172 7.75299 27.5172C7.75285 27.5172 7.75274 27.5171 7.75267 27.5171C7.75259 27.5171 7.75255 27.5171 7.7353 27.7081C7.71805 27.8991 7.71808 27.8991 7.71814 27.8991C7.71821 27.8991 7.7183 27.8991 7.71843 27.8991C7.7187 27.8991 7.7191 27.8992 7.71964 27.8992C7.72071 27.8993 7.72232 27.8994 7.72447 27.8996C7.72876 27.9 7.73518 27.9006 7.74369 27.9013C7.76069 27.9028 7.78599 27.905 7.81914 27.908C7.88544 27.9139 7.98311 27.9227 8.10846 27.9342C8.35917 27.9571 8.7206 27.9908 9.16327 28.0339C10.0487 28.1201 11.2588 28.2439 12.5579 28.3939C15.1638 28.6949 18.1041 29.0992 19.5134 29.5154L19.5681 29.3315Z" fill="#082422" mask="url(#path-20-inside-3_664_11576)"/>
<path d="M21.6693 39.6884L21.6683 39.6886C21.6825 39.8206 21.6736 39.9495 21.646 40.0724C21.4394 40.1164 21.1371 40.1103 20.8665 40.0846C20.722 40.0709 20.5908 40.0532 20.4961 40.039C20.4619 40.0338 20.4326 40.028 20.409 40.0241C20.4086 40.0219 20.4079 40.0197 20.4075 40.0174C20.3993 39.9702 20.3869 39.9013 20.3734 39.817C20.3463 39.6483 20.312 39.4163 20.2814 39.1623C20.2195 38.6494 20.1767 38.0632 20.2381 37.7221L20.2379 37.7211C20.2806 37.4864 20.483 37.3415 20.7487 37.254C20.9699 37.1813 21.214 37.1562 21.3842 37.1485L21.6693 39.6884Z" fill="#FFCE9B" stroke="#082422" stroke-width="0.191521" stroke-miterlimit="10" stroke-linecap="round" stroke-linejoin="round"/>
<path d="M24.0352 35.1798C23.859 35.2874 23.5747 35.3768 23.3132 35.4403C23.173 35.4744 23.0442 35.5007 22.9503 35.518C22.9165 35.5243 22.8871 35.529 22.8636 35.5331C22.8627 35.5314 22.8614 35.5295 22.8605 35.5277C22.8379 35.4865 22.806 35.4262 22.7668 35.3524C22.6882 35.2042 22.5814 34.9995 22.4723 34.7731C22.2519 34.3157 22.026 33.7843 21.9754 33.4485C21.9365 33.1912 22.1191 32.9733 22.379 32.799C22.5812 32.6633 22.8086 32.5729 22.9422 32.5243L23.9958 35.0245C23.9965 35.026 23.999 35.0272 23.9997 35.0287C24.0183 35.0747 24.0285 35.1258 24.0352 35.1798Z" fill="#FFCE9B" stroke="#082422" stroke-width="0.191521" stroke-miterlimit="10" stroke-linecap="round" stroke-linejoin="round"/>
<path d="M24.3831 28.685C24.3131 28.7448 24.2169 28.8065 24.1043 28.8652C23.9714 28.9344 23.8224 28.9979 23.682 29.0519C23.5416 29.1059 23.4106 29.1499 23.3151 29.1804C23.279 29.192 23.2478 29.2012 23.2232 29.2086C23.222 29.2069 23.2204 29.2053 23.2191 29.2035C23.1911 29.1648 23.1508 29.108 23.1017 29.0383C23.0035 28.8991 22.8711 28.7058 22.7322 28.4916C22.4516 28.0585 22.1548 27.552 22.0608 27.2193C21.9919 26.9726 22.1356 26.7364 22.3622 26.5312C22.5447 26.366 22.7633 26.2417 22.8999 26.1702L24.2416 28.3571C24.3054 28.4609 24.3524 28.5721 24.3831 28.685Z" fill="#FFCE9B" stroke="#082422" stroke-width="0.191521" stroke-miterlimit="10" stroke-linecap="round" stroke-linejoin="round"/>
<path d="M26.7884 17.2793C26.7843 17.3693 26.7585 17.4834 26.7152 17.6123C26.6636 17.766 26.5923 17.9312 26.5179 18.0835C26.4438 18.2354 26.3678 18.3728 26.311 18.4729C26.2874 18.5146 26.2673 18.5503 26.2515 18.577C26.2477 18.5762 26.2434 18.5765 26.2393 18.5757C26.1899 18.5658 26.1187 18.551 26.0312 18.5324C25.8556 18.495 25.6146 18.4406 25.3538 18.3742C24.8274 18.2401 24.2357 18.06 23.9255 17.869C23.7009 17.7305 23.6412 17.4556 23.6656 17.1442C23.6859 16.8862 23.7635 16.6293 23.8206 16.4673L26.5676 17.1958C26.6457 17.217 26.7191 17.2461 26.7884 17.2793Z" fill="#FFCE9B" stroke="#082422" stroke-width="0.191521" stroke-miterlimit="10" stroke-linecap="round" stroke-linejoin="round"/>
<mask id="path-26-inside-4_664_11576" fill="white">
<path d="M7.83647 34.4565C7.86994 34.4593 10.9267 34.6818 12.3336 33.8182C11.1097 33.371 9.73048 32.1379 9.66611 32.0796"/>
</mask>
<path d="M7.85313 34.2655C7.74785 34.2567 7.65504 34.335 7.64583 34.4405C7.63663 34.546 7.71452 34.6387 7.81981 34.6475L7.83647 34.4565L7.85313 34.2655ZM12.3336 33.8182L12.4332 33.9816C12.4959 33.9431 12.5312 33.8721 12.5241 33.7989C12.517 33.7258 12.4687 33.6633 12.3998 33.6381L12.3336 33.8182ZM9.79465 31.9372C9.71636 31.8664 9.59535 31.8727 9.52435 31.9514C9.45336 32.0301 9.45928 32.1513 9.53757 32.2221L9.66611 32.0796L9.79465 31.9372ZM7.83647 34.4565L7.81981 34.6475C7.84247 34.6494 8.62425 34.7063 9.57978 34.6537C10.5248 34.6016 11.6847 34.441 12.4332 33.9816L12.3336 33.8182L12.2341 33.6549C11.5756 34.0591 10.5036 34.2189 9.5602 34.2709C9.09442 34.2965 8.67049 34.2954 8.36086 34.2878C8.20615 34.2839 8.08025 34.2785 7.99226 34.2739C7.94827 34.2716 7.91378 34.2695 7.88994 34.268C7.87802 34.2672 7.86879 34.2666 7.86238 34.2662C7.85545 34.2657 7.85269 34.2655 7.85313 34.2655L7.83647 34.4565ZM12.3336 33.8182L12.3998 33.6381C11.8136 33.4239 11.1803 33.0168 10.6785 32.6483C10.1795 32.2819 9.82381 31.9635 9.79465 31.9372L9.66611 32.0796L9.53757 32.2221C9.57278 32.254 9.93884 32.5813 10.4515 32.9578C10.9615 33.3323 11.6297 33.7653 12.2675 33.9983L12.3336 33.8182Z" fill="#082422" mask="url(#path-26-inside-4_664_11576)"/>
<mask id="path-28-inside-5_664_11576" fill="white">
<path d="M18.9136 19.481C18.9136 19.481 18.6069 18.9372 18.4889 18.7767C18.0902 18.2404 17.8598 18.045 16.4649 18.105C14.7046 18.1818 9.62246 19.8215 9.62246 19.8215"/>
</mask>
<path d="M18.7469 19.5757C18.7988 19.6677 18.9155 19.6999 19.0076 19.6476C19.0997 19.5953 19.1322 19.4783 19.0803 19.3863L18.9136 19.481L18.7469 19.5757ZM18.4889 18.7767L18.6431 18.6627L18.6425 18.6619L18.4889 18.7767ZM16.4649 18.105L16.4574 17.9135L16.4573 17.9135L16.4649 18.105ZM9.56434 19.6391C9.46364 19.6715 9.40803 19.7795 9.44012 19.8803C9.47222 19.981 9.57988 20.0364 9.68058 20.0039L9.62246 19.8215L9.56434 19.6391ZM18.9136 19.481C19.0803 19.3863 19.0803 19.3863 19.0803 19.3863C19.0803 19.3863 19.0803 19.3862 19.0803 19.3862C19.0803 19.3862 19.0803 19.3862 19.0802 19.3862C19.0802 19.3861 19.0801 19.386 19.08 19.3858C19.0799 19.3856 19.0797 19.3851 19.0794 19.3846C19.0788 19.3835 19.0779 19.382 19.0767 19.3799C19.0744 19.3758 19.071 19.3698 19.0666 19.3622C19.0579 19.3468 19.0454 19.3247 19.03 19.2978C18.9991 19.2439 18.9568 19.1703 18.9106 19.0916C18.8207 18.9382 18.7092 18.7526 18.6431 18.6627L18.4889 18.7767L18.3346 18.8907C18.3865 18.9613 18.4874 19.1278 18.5804 19.2865C18.6256 19.3637 18.6673 19.4361 18.6977 19.4892C18.7129 19.5158 18.7252 19.5374 18.7337 19.5525C18.738 19.56 18.7413 19.5658 18.7435 19.5698C18.7447 19.5717 18.7455 19.5732 18.7461 19.5742C18.7464 19.5747 18.7466 19.5751 18.7467 19.5753C18.7468 19.5755 18.7468 19.5756 18.7469 19.5756C18.7469 19.5756 18.7469 19.5757 18.7469 19.5757C18.7469 19.5757 18.7469 19.5757 18.7469 19.5757C18.7469 19.5757 18.7469 19.5757 18.9136 19.481ZM18.4889 18.7767L18.6425 18.6619C18.4404 18.39 18.2557 18.1676 17.9196 18.0383C17.5977 17.9144 17.156 17.8835 16.4574 17.9135L16.4649 18.105L16.4725 18.2965C17.1688 18.2666 17.5397 18.3033 17.7814 18.3962C18.0089 18.4837 18.1387 18.6271 18.3352 18.8915L18.4889 18.7767ZM16.4649 18.105L16.4573 17.9135C15.5505 17.9531 13.8168 18.3898 12.3324 18.8075C11.5852 19.0178 10.8934 19.2256 10.3885 19.3809C10.136 19.4585 9.93008 19.523 9.78727 19.5681C9.71586 19.5906 9.66021 19.6084 9.62237 19.6204C9.60345 19.6265 9.58899 19.6311 9.57923 19.6343C9.57435 19.6358 9.57065 19.637 9.56816 19.6378C9.56691 19.6382 9.56597 19.6385 9.56533 19.6387C9.56501 19.6388 9.56477 19.6389 9.5646 19.639C9.56452 19.639 9.56445 19.639 9.56441 19.639C9.56437 19.639 9.56434 19.6391 9.62246 19.8215C9.68058 20.0039 9.68059 20.0039 9.68062 20.0039C9.68066 20.0039 9.68071 20.0038 9.68078 20.0038C9.68092 20.0038 9.68115 20.0037 9.68144 20.0036C9.68204 20.0034 9.68294 20.0031 9.68414 20.0027C9.68655 20.002 9.69016 20.0008 9.69496 19.9993C9.70454 19.9962 9.71882 19.9916 9.73756 19.9856C9.77502 19.9737 9.83028 19.9561 9.90128 19.9336C10.0433 19.8888 10.2482 19.8246 10.4996 19.7473C11.0026 19.5927 11.6914 19.3858 12.4348 19.1766C13.9315 18.7553 15.6191 18.3337 16.4726 18.2965L16.4649 18.105Z" fill="#082422" mask="url(#path-28-inside-5_664_11576)"/>
<mask id="path-30-inside-6_664_11576" fill="white">
<path d="M16.5811 34.7556C16.5811 34.7556 16.9361 33.8902 17.649 33.2065L16.5811 34.7556Z"/>
</mask>
<path d="M16.4041 34.6833C16.3639 34.7814 16.4105 34.8932 16.5083 34.9331C16.606 34.9731 16.7178 34.9259 16.7581 34.8279L16.5811 34.7556L16.4041 34.6833ZM17.781 33.3448C17.8575 33.2714 17.8604 33.1501 17.7874 33.0737C17.7145 32.9974 17.5934 32.995 17.5169 33.0683L17.649 33.2065L17.781 33.3448ZM16.5811 34.7556C16.7581 34.8279 16.758 34.8279 16.758 34.828C16.758 34.828 16.758 34.828 16.758 34.828C16.758 34.828 16.758 34.828 16.758 34.828C16.758 34.828 16.758 34.828 16.7581 34.8279C16.7582 34.8276 16.7583 34.8272 16.7586 34.8266C16.7591 34.8253 16.76 34.8233 16.7612 34.8205C16.7636 34.8148 16.7674 34.806 16.7725 34.7944C16.7829 34.7712 16.7986 34.7367 16.8199 34.6928C16.8623 34.6049 16.9265 34.4801 17.0124 34.3344C17.1847 34.042 17.4414 33.6705 17.781 33.3448L17.649 33.2065L17.5169 33.0683C17.1437 33.4262 16.8664 33.8293 16.683 34.1405C16.591 34.2966 16.5219 34.4308 16.4756 34.5266C16.4524 34.5746 16.4348 34.613 16.423 34.6397C16.417 34.6531 16.4125 34.6636 16.4093 34.671C16.4078 34.6747 16.4066 34.6775 16.4057 34.6796C16.4053 34.6806 16.4049 34.6815 16.4047 34.6821C16.4045 34.6824 16.4044 34.6827 16.4043 34.6829C16.4043 34.683 16.4043 34.6831 16.4042 34.6831C16.4042 34.6832 16.4042 34.6832 16.4042 34.6832C16.4042 34.6833 16.4041 34.6833 16.5811 34.7556Z" fill="#082422" mask="url(#path-30-inside-6_664_11576)"/>
<mask id="path-32-inside-7_664_11576" fill="white">
<path d="M13.4314 34.0856C14.2726 34.96 16.73 37.594 16.8917 43.3731L13.4314 34.0856Z"/>
</mask>
<path d="M13.5694 33.9524C13.4962 33.8763 13.375 33.8742 13.2988 33.9478C13.2226 34.0214 13.2201 34.1427 13.2933 34.2188L13.4314 34.0856L13.5694 33.9524ZM16.7004 43.3791C16.7034 43.4849 16.7915 43.568 16.8971 43.5647C17.0028 43.5613 17.086 43.4729 17.083 43.3671L16.8917 43.3731L16.7004 43.3791ZM13.4314 34.0856L13.2933 34.2188C14.1147 35.0727 16.5405 37.6637 16.7004 43.3791L16.8917 43.3731L17.083 43.3671C16.9195 37.5243 14.4304 34.8474 13.5694 33.9524L13.4314 34.0856Z" fill="#082422" mask="url(#path-32-inside-7_664_11576)"/>
</g>
<defs>
<clipPath id="clip0_664_11576">
<rect width="47" height="80" fill="white"/>
</clipPath>
</defs>
</svg>
