<svg width="57" height="80" viewBox="0 0 57 80" fill="none" xmlns="http://www.w3.org/2000/svg">
<g clip-path="url(#clip0_664_11599)">
<path d="M25.3542 3.11499C23.0719 3.52871 20.7893 3.94214 18.5073 4.35558C18.4889 4.35891 18.4737 4.37166 18.4667 4.38897C18.4597 4.4062 18.4615 4.42586 18.4723 4.44103C21.2961 8.39867 21.06 12.9119 20.8206 17.4478C20.5816 21.9775 20.34 26.5302 23.1894 30.523C23.2017 30.54 23.2226 30.5486 23.2432 30.5449C27.8054 29.7184 32.3739 28.8893 36.936 28.0627C36.9544 28.0594 36.9706 28.0467 36.9776 28.0294C36.9843 28.0122 36.9818 27.9923 36.9711 27.9773C34.1474 24.0197 34.3834 19.5064 34.6227 14.9705C34.8617 10.4411 35.1038 5.88893 32.2548 1.89634C32.2426 1.87914 32.2209 1.87059 32.2001 1.87435C29.9183 2.28775 27.6362 2.70131 25.3542 3.11499Z" fill="#60D06F" stroke="#082422" stroke-width="0.109103" stroke-miterlimit="10" stroke-linecap="round" stroke-linejoin="round"/>
<path d="M29.2896 4.23932C29.3683 4.28378 29.4365 4.35257 29.4752 4.43324L29.4756 4.4354C29.9549 5.43221 31.0253 6.1086 32.0662 5.91958L32.0671 5.91987C32.179 5.9002 32.3018 5.95528 32.3562 6.05843L32.3752 6.10541C33.1076 8.68541 33.0715 11.4035 32.9411 14.1312L32.8222 16.4698C32.6927 19.1959 32.6602 21.8969 33.3928 24.4581C33.4318 24.5949 33.3421 24.7207 33.2094 24.7443C32.6929 24.8381 32.2825 25.1296 32.0604 25.5177C31.8387 25.905 31.8022 26.3917 32.0396 26.8826C32.0747 26.9559 32.0819 27.0358 32.0549 27.1036C32.0271 27.1731 31.9656 27.2229 31.8814 27.2382L26.418 28.2304C26.3357 28.2454 26.2496 28.2243 26.1777 28.1841C26.1237 28.1539 26.0745 28.1116 26.0383 28.0611L26.0068 28.0082C25.5556 27.0733 24.5846 26.4174 23.6066 26.4951L23.4112 26.5204C23.2703 26.5462 23.1085 26.4632 23.0676 26.3144C22.3368 23.7421 22.3707 21.0324 22.5002 18.3127L22.6192 15.9803C22.7399 13.4558 22.779 10.9525 22.207 8.56136L22.0641 8.01119C22.0208 7.8591 22.1224 7.72194 22.2677 7.69663L22.4566 7.65292C22.8844 7.52899 23.2231 7.26235 23.418 6.92254C23.6401 6.535 23.677 6.04782 23.4412 5.55637C23.4028 5.47626 23.3955 5.38982 23.4247 5.31658C23.4546 5.24166 23.5203 5.18664 23.6112 5.16972L23.6122 5.17002L29.0282 4.18838C29.1174 4.17197 29.2111 4.19499 29.2896 4.23932Z" fill="#80E58A" stroke="black" stroke-width="0.109103" stroke-miterlimit="10" stroke-linecap="round" stroke-linejoin="round"/>
<path d="M28.8863 8.70764C28.4416 8.38305 27.9703 8.23912 27.5184 8.32132C27.065 8.40356 26.6815 8.70234 26.3574 9.16531C26.0339 9.62769 25.7607 10.259 25.5199 11.016L25.3473 11.6077C24.952 13.0434 24.6248 14.8517 24.5128 16.7777C24.3928 18.8428 24.6491 20.6634 25.2423 21.9655L25.365 22.2192C25.699 22.8767 26.1148 23.3857 26.5585 23.7104C27.0021 24.0349 27.4746 24.178 27.9265 24.0958C28.3798 24.0135 28.7634 23.7157 29.0874 23.2528C29.411 22.7904 29.6831 22.1603 29.924 21.402L29.925 21.402C30.3957 19.8886 30.804 17.8413 30.932 15.6403C31.0601 13.4375 30.7602 11.5127 30.0798 10.1988L29.9505 9.95941C29.6412 9.41704 29.2746 8.99178 28.8863 8.70764Z" fill="#60D06F" stroke="#082422" stroke-width="0.109103" stroke-miterlimit="10" stroke-linecap="round" stroke-linejoin="round"/>
<path d="M2.95642 26.5691C2.37602 28.8165 1.79551 31.0642 1.21498 33.3112C1.21033 33.3293 1.21564 33.3485 1.22829 33.3621C1.24106 33.3758 1.25994 33.3815 1.27829 33.3781C6.04992 32.4724 10.0441 34.5811 14.0576 36.7014C18.0657 38.8188 22.0937 40.948 26.908 40.034C26.9287 40.03 26.9451 40.0148 26.9504 39.9943C27.5309 37.7473 28.1123 35.5 28.6927 33.2526C29.2731 31.0053 29.8532 28.7581 30.4337 26.5113C30.4384 26.4932 30.4336 26.4732 30.4208 26.4595C30.4081 26.4459 30.3891 26.4402 30.3708 26.4436C25.5992 27.3492 21.6047 25.2414 17.5911 23.1211C13.583 21.0037 9.55533 18.8737 4.74114 19.7877C4.72041 19.7916 4.70356 19.8077 4.69828 19.8282C4.11782 22.0749 3.53675 24.3219 2.95642 26.5691Z" fill="#60D06F" stroke="#082422" stroke-width="0.109103" stroke-miterlimit="10" stroke-linecap="round" stroke-linejoin="round"/>
<path d="M5.62538 23.4662C5.69869 23.4133 5.79018 23.3795 5.87964 23.3782L5.88174 23.3788C6.98632 23.3612 8.04798 22.6725 8.31248 21.6473L8.31313 21.6466C8.34623 21.521 8.47388 21.4231 8.61039 21.4445C11.2569 21.8611 13.7065 23.0343 16.1255 24.297L18.197 25.3865C20.6148 26.6477 23.0513 27.8098 25.6807 28.2184C25.8035 28.2377 25.8767 28.3424 25.8701 28.4557L25.8627 28.5045C25.7314 29.0133 25.8243 29.5086 26.0832 29.8733C26.3417 30.2372 26.7678 30.4749 27.3126 30.465L27.3722 30.4691C27.4298 30.4787 27.4818 30.504 27.5194 30.5438C27.5706 30.5983 27.5902 30.6751 27.5688 30.758C27.337 31.6547 27.1057 32.5513 26.8745 33.4481C26.6433 34.3449 26.4115 35.242 26.1796 36.1389C26.1586 36.22 26.1035 36.2894 26.0369 36.3379C25.9871 36.3741 25.9284 36.4004 25.8677 36.4122L25.8058 36.4193C24.7691 36.4373 23.7684 37.0449 23.4293 37.9663L23.3704 38.1545C23.3348 38.2934 23.1918 38.4055 23.0397 38.3803C20.0239 37.9063 17.263 36.4492 14.5123 34.9964C11.7585 33.5419 9.01478 32.0904 6.02091 31.6137C5.8647 31.5892 5.78212 31.4401 5.82018 31.2973C5.95154 30.7884 5.85924 30.293 5.60033 29.9277C5.34191 29.5633 4.91537 29.3252 4.37089 29.3333C4.28214 29.3346 4.20066 29.305 4.14646 29.2477C4.09113 29.1891 4.06953 29.1067 4.0921 29.0172L4.09203 29.0158L5.46973 23.6824C5.4921 23.5944 5.55237 23.519 5.62538 23.4662Z" fill="#80E58A" stroke="black" stroke-width="0.109103" stroke-miterlimit="10" stroke-linecap="round" stroke-linejoin="round"/>
<path d="M9.50939 25.7059C9.02879 25.9738 8.7008 26.3418 8.58615 26.7869C8.47094 27.2332 8.58067 27.7069 8.86481 28.1955C9.14867 28.6834 9.60762 29.1958 10.1934 29.7322L10.6575 30.1381C11.794 31.0995 13.2966 32.1552 14.9964 33.0649C16.9406 34.1054 18.8122 34.6403 20.2886 34.5733L20.2882 34.572C21.0244 34.5444 21.6599 34.381 22.1402 34.1141C22.6203 33.8472 22.9489 33.4782 23.0634 33.0331C23.1785 32.5869 23.0683 32.1138 22.7843 31.6254C22.5714 31.2594 22.2609 30.8795 21.8714 30.486L21.4562 30.0878C20.2807 29.0253 18.5953 27.7955 16.6528 26.756C14.7085 25.7155 12.837 25.1805 11.3605 25.2476C10.6247 25.2752 9.98951 25.4391 9.50939 25.7059Z" fill="#60D06F" stroke="#082422" stroke-width="0.109103" stroke-miterlimit="10" stroke-linecap="round" stroke-linejoin="round"/>
<path opacity="0.15" d="M8.90119 24.4333C8.85718 24.4549 8.82257 24.4915 8.7984 24.5478C8.34235 25.6099 7.88632 26.6723 7.43035 27.7347C6.98563 28.7708 6.5406 29.807 6.0958 30.8428C9.67862 30.7429 12.5963 32.1891 15.3333 34.033C16.712 34.9618 18.0481 35.9936 19.3985 36.9798C20.75 37.9668 22.1178 38.9095 23.5652 39.6638C23.5954 39.6796 23.6204 39.6904 23.6396 39.6964C23.652 39.7003 23.661 39.6997 23.6669 39.7002C23.6669 39.6993 23.6672 39.6982 23.6671 39.6971C23.6655 39.6702 23.6517 39.6238 23.62 39.5551C23.5889 39.488 23.5434 39.4047 23.4837 39.3065C23.2443 38.9129 22.7885 38.2923 22.1791 37.522C20.9611 35.9823 19.1348 33.8506 17.2159 31.7525C15.297 29.6544 13.2861 27.591 11.6986 26.1863C10.9045 25.4837 10.2188 24.9486 9.70473 24.6555C9.44694 24.5086 9.23778 24.4255 9.08294 24.4098C9.00627 24.402 8.94627 24.4111 8.90119 24.4333Z" fill="black" stroke="#082422" stroke-width="0.109103" stroke-linecap="round" stroke-linejoin="round"/>
<path d="M3.54289 16.2004C3.52897 16.2129 3.52272 16.2317 3.52578 16.2502C3.52891 16.2685 3.54058 16.2844 3.5577 16.2916C8.03095 18.1836 10.1872 22.153 12.3527 26.1437C14.5153 30.1291 16.6877 34.1356 21.2013 36.0442C21.2207 36.0523 21.2429 36.0487 21.2586 36.0347L31.6292 26.7408C31.6431 26.7283 31.6502 26.709 31.6472 26.6906C31.6441 26.6722 31.6315 26.6568 31.6144 26.6496C27.1409 24.7576 24.9845 20.7875 22.8189 16.7966C20.6563 12.8114 18.4842 8.80554 13.9707 6.89698L13.9404 6.89262C13.9305 6.89431 13.9213 6.89947 13.9135 6.90647L3.54289 16.2004Z" fill="#60D06F" stroke="#082422" stroke-width="0.109103" stroke-miterlimit="10" stroke-linecap="round" stroke-linejoin="round"/>
<path d="M12.6676 10.4505C12.7579 10.4472 12.852 10.47 12.9271 10.5184L12.9285 10.5201C13.8578 11.118 15.1236 11.1333 15.912 10.4264C16.0091 10.34 16.1705 10.3292 16.2724 10.4227C18.2444 12.2368 19.6338 14.5713 20.9476 16.9635L22.068 19.0189C23.3817 21.4094 24.7652 23.7274 26.7276 25.5254C26.8324 25.6215 26.8216 25.7758 26.7208 25.8654C26.3295 26.2162 26.1315 26.6801 26.1449 27.1273C26.1584 27.5734 26.3823 28.0074 26.8412 28.3011L26.8885 28.3376C26.9312 28.3776 26.9605 28.4274 26.9697 28.4814C26.9822 28.5551 26.9559 28.63 26.8922 28.6871C26.2021 29.305 25.5123 29.9231 24.8227 30.5415C24.1331 31.1599 23.4437 31.7787 22.7535 32.3968C22.6912 32.4526 22.6065 32.4789 22.5243 32.4824C22.4422 32.4858 22.3562 32.4668 22.2871 32.423L22.2869 32.422C21.3557 31.8249 20.0864 31.8087 19.2974 32.5162C19.1908 32.6121 19.0097 32.6261 18.8971 32.5208C16.9304 30.7126 15.5436 28.3863 14.2332 26.0013L13.1161 23.9512C11.9001 21.7369 10.6255 19.5833 8.88862 17.8459L8.47967 17.453C8.36326 17.3461 8.37825 17.1759 8.48884 17.0781L8.6267 16.9409C8.92641 16.611 9.07596 16.2069 9.06451 15.8153C9.05135 15.3687 8.82831 14.934 8.37061 14.6389C8.29608 14.5907 8.24458 14.5209 8.23125 14.4432C8.21762 14.3636 8.24592 14.283 8.31469 14.2209L12.4173 10.5444C12.4849 10.4834 12.5774 10.4539 12.6676 10.4505Z" fill="#80E58A" stroke="black" stroke-width="0.109103" stroke-miterlimit="10" stroke-linecap="round" stroke-linejoin="round"/>
<path d="M14.659 14.4674C14.1105 14.4239 13.6338 14.5483 13.2917 14.8553C12.9484 15.1631 12.7778 15.6188 12.7435 16.1832C12.7095 16.7467 12.807 17.4272 12.9972 18.1982L12.9977 18.1991C13.3873 19.7355 14.1078 21.6943 15.1486 23.637C16.1252 25.4599 17.2949 26.877 18.4804 27.6758L18.7176 27.8277C19.3457 28.213 19.9659 28.4287 20.5135 28.4729C21.061 28.5169 21.5384 28.391 21.8804 28.0841C22.2237 27.7763 22.3948 27.3214 22.429 26.757C22.4632 26.1933 22.3658 25.5136 22.1749 24.7411L22.1757 24.7407C21.7861 23.2043 21.0647 21.2459 20.0239 19.3032C18.9822 17.3588 17.721 15.8755 16.4549 15.1125L16.2197 14.9763C15.6728 14.6762 15.1383 14.506 14.659 14.4674Z" fill="#60D06F" stroke="#082422" stroke-width="0.109103" stroke-miterlimit="10" stroke-linecap="round" stroke-linejoin="round"/>
<path d="M38.8132 10.3269C38.5631 10.418 38.2904 10.5516 38.0503 10.7965C37.8104 11.0412 37.5999 11.4014 37.4806 11.9503C37.3638 12.489 37.2131 13.8144 37.0528 15.5037C36.8925 17.1916 36.7235 19.2392 36.5686 21.2189C36.4138 23.1985 36.2732 25.1104 36.1718 26.5274C36.1211 27.2356 36.0801 27.8202 36.0517 28.2279C36.0375 28.4315 36.0258 28.5913 36.0183 28.6999C36.0146 28.7542 36.0121 28.7964 36.0102 28.8244C36.0093 28.8379 36.0088 28.8482 36.0083 28.8552C36.0081 28.8587 36.0076 28.8618 36.0075 28.8636L36.0071 28.8657L36.0073 28.8666C36.0052 28.8965 35.9791 28.9195 35.9492 28.9176L35.948 28.9169C35.9469 28.9169 35.945 28.9164 35.9428 28.9163C35.9383 28.916 35.9317 28.916 35.9233 28.9155C35.9062 28.9144 35.8806 28.9126 35.8503 28.9108C35.7898 28.9071 35.7072 28.9024 35.6182 28.8972C35.4393 28.8868 35.2357 28.8759 35.1346 28.8732C35.023 28.8703 34.7983 28.8725 34.6003 28.875C34.5015 28.8763 34.4096 28.8774 34.3425 28.8785C34.3091 28.879 34.2818 28.8793 34.2629 28.8796C34.2535 28.8798 34.2459 28.8804 34.2409 28.8804C34.2384 28.8805 34.236 28.8801 34.2347 28.8801L34.2328 28.8806C34.2099 28.8809 34.1889 28.8665 34.1808 28.845L34.1796 28.8403C34.1784 28.8372 34.1761 28.8326 34.1739 28.8266C34.1694 28.8144 34.1631 28.7959 34.1543 28.7722C34.1367 28.7248 34.1108 28.6548 34.0777 28.5653C34.0114 28.3864 33.9159 28.1289 33.8 27.8147C33.5679 27.1861 33.2531 26.33 32.9209 25.4217C32.2566 23.6056 31.5227 21.5773 31.2487 20.734C30.8624 19.5431 29.7026 16.2215 29.1728 14.6399C28.9389 13.9399 28.5514 13.6528 28.1554 13.558C27.7539 13.4618 27.3328 13.561 27.0293 13.6568C26.772 13.7382 26.5347 13.9534 26.3708 14.2217C26.207 14.4898 26.1215 14.8024 26.1575 15.0716C26.2716 15.9146 26.6057 17.3629 26.9397 18.7383C27.2731 20.1112 27.6062 21.412 27.7154 21.9537C27.9419 23.0756 28.9281 27.1339 29.3739 28.9585C29.5191 29.5534 29.4663 30.1798 29.2225 30.7423L28.664 32.0286L31.0357 41.9663L38.5676 52.5359L46.8608 53.3274C46.862 53.3255 46.863 53.3234 46.8643 53.3214C46.8785 53.2987 46.8999 53.2646 46.927 53.2196C46.9811 53.1296 47.0587 52.9953 47.1546 52.8198C47.3467 52.4683 47.6101 51.9498 47.8942 51.2848C48.4625 49.9548 49.1143 48.0376 49.4464 45.6886C49.7786 43.3362 49.9957 40.8214 50.1991 38.6578C50.4022 36.4976 50.5923 34.6813 50.8716 33.7334C51.3393 32.1428 53.7249 24.2552 54.3454 21.6058C54.4494 21.1617 54.3209 20.2588 53.4798 19.8148C53.2305 19.6818 52.765 19.6417 52.3098 19.7454C51.8557 19.849 51.4301 20.0909 51.2459 20.503C50.7995 21.5023 50.3037 22.9447 49.8633 24.2742C49.4238 25.6011 49.0387 26.8183 48.8138 27.3594C48.5218 28.0632 48.0399 29.3609 47.6302 30.4837C47.4254 31.0449 47.238 31.5618 47.1027 31.9386C47.035 32.1271 46.9806 32.2808 46.9427 32.387C46.9237 32.4401 46.9087 32.482 46.8987 32.51C46.8939 32.5236 46.8904 32.5341 46.8879 32.5412C46.8867 32.5445 46.8856 32.5473 46.8849 32.5491L46.8836 32.5515L46.8838 32.5524C46.8785 32.5674 46.8669 32.5795 46.8521 32.5852C46.8373 32.5909 46.8199 32.59 46.8059 32.5824L45.8167 32.044C45.7981 32.0339 45.7867 32.0142 45.7879 31.9931L45.7876 31.9921C45.7877 31.9914 45.7877 31.9904 45.7878 31.989C45.788 31.9859 45.7886 31.9808 45.789 31.9746C45.7897 31.9621 45.7909 31.9433 45.7923 31.9191C45.7951 31.8702 45.7986 31.7977 45.8039 31.7057C45.8146 31.5215 45.8301 31.2566 45.8489 30.9332C45.8865 30.2863 45.9387 29.4056 45.9945 28.4706C46.1062 26.6008 46.2343 24.5127 46.3027 23.6429C46.3563 22.9658 46.5584 21.1942 46.7413 19.3252C46.9245 17.4535 47.0894 15.4839 47.0709 14.4038C47.0625 13.9158 46.8368 13.5756 46.5583 13.3421C46.2791 13.1081 45.9469 12.9817 45.7302 12.9263C44.6422 12.7329 43.7476 13.446 43.5824 14.3214C43.3822 15.3813 42.9201 19.3402 42.5082 23.037C42.3024 24.8844 42.1091 26.6655 41.9673 27.9847C41.8964 28.6443 41.8389 29.1886 41.7986 29.5679C41.7785 29.7574 41.7621 29.9062 41.7514 30.0072C41.7461 30.0573 41.7423 30.0957 41.7396 30.1216C41.7382 30.1346 41.7372 30.1451 41.7365 30.1517C41.7362 30.1548 41.7356 30.1575 41.7355 30.1591L41.736 30.161L41.735 30.1612C41.7333 30.1777 41.7243 30.1923 41.7104 30.2012C41.6964 30.2101 41.6792 30.213 41.6636 30.2077L40.7382 29.8928C40.7157 29.8851 40.7012 29.8636 40.7018 29.8398L40.7015 29.8389C40.7015 29.8381 40.7014 29.8365 40.7015 29.8349C40.7015 29.8315 40.7013 29.8263 40.7014 29.8197C40.7018 29.806 40.7026 29.7851 40.7033 29.7585C40.7045 29.7054 40.7065 29.6267 40.7089 29.5265C40.7136 29.326 40.72 29.0372 40.7283 28.6851C40.7449 27.9805 40.7678 27.021 40.7923 26.0007C40.8415 23.9596 40.898 21.6744 40.9272 20.7028C40.972 19.2137 41.1888 14.47 41.3058 12.097C41.3278 11.6548 41.2422 11.3512 41.1101 11.1202C40.977 10.8878 40.7948 10.7245 40.6149 10.5655C40.4241 10.3978 40.1004 10.2913 39.7553 10.2511C39.411 10.211 39.0571 10.238 38.8132 10.3269Z" fill="#FFCE9B" stroke="#082422" stroke-width="0.109103" stroke-miterlimit="10" stroke-linecap="round" stroke-linejoin="round"/>
<path opacity="0.15" d="M38.6149 10.4084C38.3885 10.5105 38.1601 10.6553 37.9623 10.8898C37.7602 11.1295 37.5871 11.4655 37.4818 11.9499C37.3649 12.4882 37.2144 13.8138 37.054 15.5034C36.8937 17.1912 36.7247 19.2388 36.5698 21.2185C36.415 23.1981 36.2744 25.11 36.173 26.527C36.1223 27.2356 36.0815 27.8208 36.0531 28.2285C36.039 28.4322 36.0282 28.5917 36.0207 28.7003C36.017 28.7545 36.0133 28.7961 36.0114 28.8241C36.0104 28.8381 36.0103 28.8488 36.0098 28.8559C36.0095 28.8594 36.0091 28.8624 36.009 28.8642L36.0095 28.8661L36.0085 28.8663C36.0065 28.8962 35.9812 28.9188 35.9513 28.917L35.9495 28.9175C35.9483 28.9175 35.9464 28.9171 35.9442 28.9169C35.9397 28.9166 35.933 28.9157 35.9245 28.9151C35.9075 28.9141 35.8828 28.913 35.8527 28.9111C35.7922 28.9074 35.7087 28.902 35.6194 28.8969C35.4406 28.8865 35.2371 28.8765 35.1361 28.8739L35.1368 28.8727C35.0252 28.8697 34.7997 28.8722 34.6015 28.8747C34.5028 28.8759 34.4107 28.877 34.3437 28.8781C34.3104 28.8787 34.2832 28.8799 34.2643 28.8802C34.2549 28.8804 34.2471 28.88 34.2421 28.8801C34.2397 28.8802 34.2374 28.8807 34.2362 28.8807L34.235 28.88C34.2118 28.8804 34.1901 28.8664 34.182 28.8447L34.1808 28.8399C34.1796 28.8368 34.1773 28.8323 34.1751 28.8263C34.1706 28.8141 34.1643 28.7955 34.1555 28.7719C34.1379 28.7244 34.1119 28.6543 34.0789 28.565C34.0126 28.386 33.9171 28.1285 33.8012 27.8144C33.5691 27.1857 33.2543 26.3298 32.9221 25.4214C32.2578 23.605 31.5238 21.5768 31.2499 20.7336C30.8622 19.5426 29.7027 16.2216 29.174 14.6395C28.9401 13.9399 28.5526 13.6524 28.1566 13.5576C27.8553 13.4855 27.5429 13.5234 27.2779 13.5871L27.0305 13.6564C26.7725 13.7375 26.5347 13.9526 26.3708 14.2207C26.207 14.4886 26.1219 14.8013 26.1584 15.0703C26.2718 15.9129 26.6064 17.3614 26.9407 18.737C27.2742 20.1098 27.6071 21.4106 27.7164 21.9525C27.9429 23.0743 28.929 27.1325 29.3749 28.9573C29.5203 29.5532 29.4672 30.1786 29.2235 30.741L28.6664 32.0249L30.3559 39.1043C31.8298 38.3259 33.3055 37.5475 34.7805 36.7688L34.7793 36.7681L34.7896 36.7653C34.8529 36.7464 34.9166 36.7278 34.9798 36.7092C35.0431 36.6907 35.1062 36.6722 35.1691 36.6534L35.1961 36.6522L36.838 36.9853C36.7798 36.7396 36.7281 36.4966 36.6859 36.2546C36.6858 36.2536 36.6872 36.2523 36.6871 36.2513L36.6863 36.2484C36.1937 33.428 36.7469 30.8222 37.6763 28.2986C38.1409 27.0369 38.6999 25.794 39.2696 24.5558C39.8379 23.3207 40.4171 22.0902 40.925 20.845C40.9259 20.7951 40.9274 20.7473 40.9286 20.7035C40.9734 19.2148 41.1903 14.4709 41.3073 12.0976C41.3368 11.4893 41.1642 11.1404 40.9413 10.8814C40.5537 10.8028 40.1659 10.7242 39.7782 10.6454C39.3905 10.5665 39.0026 10.487 38.6149 10.4084Z" fill="black" stroke="#082422" stroke-width="0.109103" stroke-linecap="round" stroke-linejoin="round"/>
<path d="M42.6039 40.3435C42.0863 40.4452 41.0866 40.6687 40.0151 41.0582C39.27 41.329 38.4914 41.6796 37.8163 42.1232C37.1981 42.5295 36.6713 43.0136 36.3327 43.5828L42.6039 40.3435Z" stroke="#082422" stroke-width="0.109103" stroke-miterlimit="10" stroke-linecap="round" stroke-linejoin="round"/>
<path d="M45.5608 38.3576C43.6626 36.1601 40.9072 34.8873 38.5882 34.1604C36.7767 33.5927 35.2354 33.3593 34.5845 33.279L45.5608 38.3576Z" stroke="#082422" stroke-width="0.109103" stroke-miterlimit="10" stroke-linecap="round" stroke-linejoin="round"/>
<path d="M47.8649 33.2183C47.1734 32.7841 45.5232 31.7982 43.3637 30.8748C40.6997 29.7357 37.2656 28.6942 33.9006 28.8967L47.8649 33.2183Z" stroke="#082422" stroke-width="0.109103" stroke-miterlimit="10" stroke-linecap="round" stroke-linejoin="round"/>
<path opacity="0.15" d="M28.8193 7.00912C29.5292 10.4461 28.6737 13.5151 27.3876 16.4737C26.7396 17.9642 25.9811 19.4297 25.2582 20.8992C24.537 22.3652 23.8511 23.837 23.3405 25.3488C23.3996 25.7019 23.548 25.9612 23.767 26.1454C23.9895 26.3325 24.288 26.4456 24.6459 26.4981C25.3632 26.6032 26.3051 26.4609 27.31 26.197C29.3019 25.6738 31.5105 24.6822 32.6568 24.244C32.7274 23.7382 32.9881 22.821 33.2943 21.6555C33.6082 20.461 33.971 18.9986 34.2307 17.4297C34.7491 14.2969 34.8542 10.7519 33.3496 8.07183C32.5849 7.89248 31.8196 7.7141 31.0546 7.53482C30.3093 7.36015 29.5643 7.18386 28.8193 7.00912Z" fill="black" stroke="#082422" stroke-width="0.109103" stroke-linecap="round" stroke-linejoin="round"/>
<path d="M27.1437 6.19977C27.1251 6.19827 27.1065 6.20557 27.0953 6.22041C27.0841 6.23522 27.0818 6.25506 27.0882 6.27245C28.5876 10.2538 27.7132 14.0448 26.5366 17.8259L25.5041 21.0666C24.3261 24.8514 23.4416 28.6745 24.9548 32.6914C24.9623 32.7111 24.9802 32.7247 25.0011 32.7264C29.6221 33.0992 34.25 33.4717 38.871 33.8445C38.8896 33.846 38.9084 33.8379 38.9196 33.8229C38.9307 33.808 38.9333 33.7883 38.9267 33.7709C37.2131 29.2208 38.5995 24.9195 39.9945 20.5971C41.3876 16.2808 42.789 11.9434 41.0598 7.35287L41.0421 7.32785C41.034 7.3218 41.024 7.3187 41.0135 7.31786L27.1437 6.19977Z" fill="#60D06F" stroke="#082422" stroke-width="0.109103" stroke-miterlimit="10" stroke-linecap="round" stroke-linejoin="round"/>
<path d="M37.5928 8.85655C37.6574 8.91973 37.7057 9.00374 37.7224 9.09164L37.7222 9.09382C37.9298 10.1803 38.7911 11.1095 39.8457 11.194C39.9751 11.205 40.0933 11.3141 40.0958 11.4525C40.1484 14.5171 39.1855 17.4984 38.2272 20.4691C37.2678 23.4431 36.313 26.407 36.3714 29.4509C36.374 29.5931 36.256 29.69 36.1217 29.6787L36.122 29.6801C35.5986 29.6379 35.1266 29.8142 34.8122 30.1321C34.4986 30.4495 34.3384 30.9107 34.4419 31.4461L34.4427 31.4466C34.4578 31.5264 34.4435 31.605 34.4 31.6636C34.3553 31.7235 34.2837 31.7564 34.1986 31.7497C33.276 31.675 32.353 31.6013 31.4305 31.5273C30.508 31.4533 29.5855 31.3788 28.6629 31.3041C28.5796 31.2974 28.5025 31.2554 28.4433 31.1982C28.384 31.1408 28.3385 31.0644 28.3225 30.9837C28.1131 29.8965 27.2508 28.9647 26.1954 28.8801C26.0526 28.8688 25.9176 28.747 25.9162 28.5927C25.863 25.5371 26.8208 22.5643 27.7765 19.6021C28.6736 16.8214 29.5693 14.0497 29.639 11.2134L29.6416 10.6458C29.6387 10.4876 29.7721 10.3812 29.9191 10.394L30.1128 10.4003C30.5581 10.3904 30.9539 10.2195 31.2294 9.94114C31.5434 9.62368 31.7043 9.16207 31.6025 8.62661C31.586 8.53929 31.6009 8.45385 31.648 8.39059C31.6961 8.32594 31.7734 8.29048 31.8655 8.29738L31.8663 8.2979L37.3518 8.74048C37.4425 8.74744 37.5282 8.79344 37.5928 8.85655Z" fill="#80E58A" stroke="black" stroke-width="0.109103" stroke-miterlimit="10" stroke-linecap="round" stroke-linejoin="round"/>
<path d="M36.0578 13.0715C35.7113 12.6436 35.2928 12.3834 34.835 12.3468C34.3758 12.31 33.9293 12.5006 33.4975 12.8648C33.0661 13.2286 32.6403 13.768 32.2134 14.4378L32.2131 14.4387C31.3701 15.7804 30.4494 17.6532 29.761 19.7473C29.0722 21.8431 28.8695 23.78 29.1897 25.2244L29.1885 25.2251C29.3425 25.9464 29.6136 26.5452 29.9591 26.973C30.3045 27.4006 30.7242 27.661 31.1819 27.6977C31.6412 27.7346 32.0885 27.5442 32.5204 27.1799C32.9517 26.8162 33.3772 26.2779 33.8044 25.607L33.8047 25.6061C34.6478 24.2644 35.5676 22.3912 36.2559 20.2972C36.9449 18.2009 37.1492 16.2631 36.8287 14.8185C36.6747 14.0975 36.4032 13.4992 36.0578 13.0715Z" fill="#60D06F" stroke="#082422" stroke-width="0.109103" stroke-miterlimit="10" stroke-linecap="round" stroke-linejoin="round"/>
<path d="M5.38433 29.4413C5.37688 29.4582 5.37792 29.4777 5.38797 29.4931C5.39818 29.5087 5.4159 29.5176 5.4345 29.5174C10.2908 29.4415 13.866 32.2022 17.4579 34.9782C21.0446 37.7503 24.6482 40.5381 29.5477 40.4612C29.5688 40.4609 29.5881 40.4479 29.5968 40.4286C30.553 38.3141 31.509 36.1991 32.4651 34.0842C33.4213 31.9692 34.3777 29.8537 35.3339 27.7391C35.3416 27.7221 35.341 27.7021 35.3309 27.6865C35.3207 27.671 35.3029 27.6621 35.2844 27.6622C30.428 27.7382 26.8528 24.9775 23.261 22.2015C19.6743 19.4294 16.0706 16.6417 11.1712 16.7185C11.1501 16.7188 11.1307 16.7318 11.122 16.751L5.38433 29.4413Z" fill="#60D06F" stroke="#082422" stroke-width="0.109103" stroke-miterlimit="10" stroke-linecap="round" stroke-linejoin="round"/>
<path d="M11.4128 20.4945C11.4941 20.455 11.5893 20.4379 11.6776 20.4518L11.6796 20.4528C12.7711 20.6245 13.9355 20.1272 14.3714 19.1621L14.3955 19.1199C14.4608 19.0269 14.5843 18.975 14.6989 19.0138L14.6996 19.0132C17.2358 19.8766 19.4487 21.4516 21.6161 23.1095L23.4707 24.5374C25.6373 26.1938 27.8388 27.7556 30.3598 28.608C30.4942 28.6536 30.5459 28.7984 30.4902 28.921C30.2736 29.3999 30.2798 29.9043 30.4725 30.308C30.6649 30.7109 31.0448 31.0173 31.5833 31.1007C31.6635 31.1134 31.7325 31.1535 31.7728 31.2143C31.8141 31.2767 31.8209 31.3552 31.7857 31.4332C31.4038 32.2772 31.0226 33.122 30.6414 33.9662C30.2601 34.8103 29.8783 35.6545 29.4964 36.4985C29.4619 36.5746 29.3963 36.6331 29.3226 36.6695C29.2487 36.706 29.1621 36.7224 29.081 36.7102L29.0802 36.7108C28.0557 36.5511 26.9652 36.9778 26.4735 37.8276L26.384 38.0037C26.325 38.1344 26.165 38.2205 26.0195 38.1696L26.0189 38.1688C23.1288 37.1858 20.658 35.2785 18.1966 33.3766C15.8859 31.5912 13.5833 29.8105 10.9409 28.7858L10.4081 28.5915C10.2585 28.5407 10.2035 28.379 10.2652 28.2448L10.336 28.0636C10.477 27.6408 10.4508 27.2106 10.2822 26.8571C10.09 26.4538 9.71042 26.1462 9.17259 26.061C9.08494 26.0471 9.0097 26.004 8.96612 25.9383C8.92161 25.8711 8.91442 25.7862 8.95198 25.7019L8.95215 25.7005L11.2223 20.6822C11.2595 20.5992 11.3317 20.534 11.4128 20.4945Z" fill="#80E58A" stroke="black" stroke-width="0.109103" stroke-miterlimit="10" stroke-linecap="round" stroke-linejoin="round"/>
<path d="M14.8564 23.3656C14.3372 23.5473 13.9511 23.8539 13.762 24.2727C13.5721 24.6928 13.5999 25.1788 13.7964 25.7089C13.9926 26.2382 14.3558 26.8219 14.8411 27.4506C15.8175 28.6986 17.2683 30.1991 19.0044 31.5558C20.742 32.9137 22.4943 33.761 23.9604 33.9475L23.9602 33.9462C24.6901 34.0449 25.3438 33.9934 25.8626 33.8127C26.3812 33.6319 26.7679 33.3244 26.957 32.9056C27.1469 32.4855 27.1198 32 26.9234 31.47C26.7762 31.0729 26.5353 30.6455 26.2188 30.1912L25.8779 29.7277C24.9015 28.4797 23.4513 26.9797 21.7154 25.623C19.9776 24.265 18.2248 23.4172 16.7586 23.2307C16.0289 23.132 15.3751 23.1849 14.8564 23.3656Z" fill="#60D06F" stroke="#082422" stroke-width="0.109103" stroke-miterlimit="10" stroke-linecap="round" stroke-linejoin="round"/>
<path opacity="0.15" d="M18.7338 12.9345C18.0082 13.1783 17.2819 13.421 16.5566 13.6651C18.966 16.2138 19.8515 19.2738 20.3127 22.4671C20.545 24.0759 20.67 25.7214 20.8275 27.3521C20.9847 28.9792 21.1745 30.5927 21.5349 32.148C21.7706 32.4166 22.0332 32.5585 22.316 32.5997C22.6035 32.6416 22.9169 32.5803 23.2488 32.4364C23.9141 32.1481 24.6407 31.5316 25.3566 30.7781C26.7758 29.2839 28.134 27.277 28.8782 26.3006C28.6727 25.8334 28.4117 24.916 28.0595 23.763C27.6988 22.5818 27.2389 21.147 26.6351 19.6761C25.4295 16.7389 23.6559 13.6688 20.9678 12.1825C20.2233 12.4331 19.4786 12.6841 18.7338 12.9345Z" fill="black" stroke="#082422" stroke-width="0.109103" stroke-linecap="round" stroke-linejoin="round"/>
<path d="M25.1257 10.3606C22.8479 10.7984 20.5697 11.2359 18.2922 11.6735C18.274 11.677 18.2588 11.69 18.252 11.7073C18.2452 11.7246 18.2481 11.7442 18.2591 11.7593C21.1244 15.6868 20.9351 20.2023 20.7436 24.7404C20.5523 29.2724 20.3588 33.8273 23.2502 37.7898C23.2626 37.8068 23.2835 37.815 23.3042 37.8111C25.5817 37.3736 27.8598 36.9361 30.1376 36.4982C32.4152 36.0605 34.6928 35.6228 36.9701 35.1853C36.9884 35.1818 37.0044 35.1689 37.0113 35.1515C37.0181 35.1342 37.0151 35.1146 37.0042 35.0995C34.1389 31.172 34.3273 26.6564 34.5188 22.1183C34.71 17.5865 34.9042 13.0314 32.0132 9.06904C32.0007 9.05197 31.9789 9.04365 31.9582 9.04763C29.6809 9.48513 27.4033 9.92277 25.1257 10.3606Z" fill="#60D06F" stroke="#082422" stroke-width="0.109103" stroke-miterlimit="10" stroke-linecap="round" stroke-linejoin="round"/>
<path d="M29.0716 11.4436C29.1507 11.4873 29.2197 11.5553 29.2593 11.6356L29.2596 11.6377C29.7494 12.6294 30.8269 13.2945 31.8658 13.0945L31.8667 13.0947C31.9783 13.0739 32.1018 13.1277 32.1572 13.2302L32.1767 13.277L32.328 13.8305C32.9348 16.2376 32.9217 18.7624 32.8273 21.2963L32.7331 23.6361C32.6323 26.3636 32.628 29.0653 33.3876 31.6188C33.4279 31.7551 33.3399 31.881 33.2075 31.9059C32.692 32.0051 32.2848 32.3011 32.0667 32.6915C31.8491 33.0811 31.8178 33.5681 32.0604 34.0565L32.0601 34.0574C32.096 34.1304 32.1042 34.2102 32.0777 34.2782C32.0505 34.3478 31.9898 34.3976 31.9059 34.4137L26.4533 35.4637C26.3711 35.4795 26.2848 35.4593 26.2125 35.4199C26.1401 35.3804 26.0766 35.3191 26.0398 35.2458C25.548 34.2539 24.4682 33.5854 23.4286 33.7855C23.2879 33.8128 23.125 33.7324 23.0826 33.5841L23.0828 33.5831C22.3249 31.0188 22.3302 28.3089 22.4311 25.588L22.5254 23.2544C22.6195 20.7288 22.6321 18.2252 22.035 15.8403L21.8862 15.2917C21.8414 15.14 21.9415 15.0018 22.0865 14.975L22.2749 14.9293C22.7014 14.8008 23.0373 14.5306 23.2286 14.1888C23.4466 13.7989 23.4783 13.3113 23.2374 12.8224C23.1981 12.7427 23.19 12.6564 23.2183 12.5828C23.2475 12.5076 23.3126 12.4519 23.4033 12.434L23.4043 12.4343L28.8084 11.3961C28.8976 11.3786 28.9925 11.4001 29.0716 11.4436Z" fill="#80E58A" stroke="black" stroke-width="0.109103" stroke-miterlimit="10" stroke-linecap="round" stroke-linejoin="round"/>
<path d="M28.7166 15.9157C28.2684 15.5958 27.7956 15.4569 27.3446 15.5439C26.8921 15.6309 26.5118 15.9337 26.1926 16.4001C25.8739 16.8659 25.6074 17.5 25.3746 18.2595L25.2083 18.853C24.8281 20.2929 24.5201 22.1044 24.4284 24.0316C24.3301 26.0982 24.6055 27.9164 25.2125 29.2122L25.338 29.4637C25.6789 30.1177 26.1 30.6222 26.5471 30.9422C26.9941 31.262 27.4681 31.401 27.9191 31.314C28.3716 31.227 28.7519 30.9242 29.0711 30.4578C29.3897 29.992 29.6553 29.359 29.8881 28.5983L29.8891 28.5984C30.3438 27.0801 30.7305 25.0286 30.8353 22.8263C30.9401 20.6223 30.6199 18.7008 29.9257 17.3942L29.7939 17.1562C29.4789 16.6171 29.1078 16.1957 28.7166 15.9157Z" fill="#60D06F" stroke="#082422" stroke-width="0.109103" stroke-miterlimit="10" stroke-linecap="round" stroke-linejoin="round"/>
<path opacity="0.15" d="M13.4105 18.0226C12.7338 18.3799 12.0569 18.7367 11.3802 19.094C14.1673 21.2228 15.5315 24.1009 16.499 27.1786C16.9865 28.7292 17.3745 30.3334 17.7917 31.9176C18.2078 33.4981 18.6542 35.0599 19.2595 36.5368C21.554 38.4543 23.978 40.1105 26.966 40.711C27.3975 40.4834 27.829 40.256 28.2602 40.0281C28.6927 39.7997 29.1248 39.5707 29.5577 39.3424C30.1276 38.2792 30.6984 37.2158 31.2686 36.1525C31.8367 35.0933 32.404 34.0339 32.9718 32.9748C31.8798 31.3269 31.1649 29.4827 30.5859 27.5695C27.8037 26.2716 25.4788 24.123 23.1287 22.0454C20.775 19.9646 18.3947 17.9551 15.4936 16.9218C14.7991 17.2885 14.105 17.6559 13.4105 18.0226Z" fill="black" stroke="#082422" stroke-width="0.109103" stroke-linecap="round" stroke-linejoin="round"/>
<path d="M17.7448 14.4142C15.6931 15.4977 13.6408 16.5809 11.5894 17.6639C11.573 17.6727 11.5622 17.6895 11.5607 17.708C11.5592 17.7266 11.5677 17.7445 11.5826 17.7557C15.4638 20.6776 16.5942 25.0531 17.7287 29.451C18.8616 33.8429 19.9988 38.2584 23.915 41.2062C23.9318 41.2186 23.9544 41.2204 23.9729 41.2108C26.0244 40.1278 28.0764 39.0437 30.1281 37.9602C32.1796 36.8769 34.2313 35.7938 36.2826 34.7108C36.2991 34.702 36.3107 34.6851 36.3122 34.6664C36.3136 34.6479 36.3051 34.6299 36.2903 34.6187C32.4091 31.6969 31.2787 27.3214 30.1442 22.9235C29.0113 18.5317 27.874 14.117 23.9581 11.1692C23.9412 11.1565 23.918 11.1549 23.8993 11.1648C21.848 12.2478 19.7963 13.3309 17.7448 14.4142Z" fill="#60D06F" stroke="#082422" stroke-width="0.109103" stroke-miterlimit="10" stroke-linecap="round" stroke-linejoin="round"/>
<path d="M21.8352 14.3012C21.9236 14.3198 22.0093 14.3648 22.0705 14.4301L22.0715 14.432C22.8275 15.2378 24.0507 15.5597 24.9859 15.0652L24.9869 15.0652C25.102 15.0052 25.2604 15.0337 25.3365 15.1491L25.642 15.6344C27.1172 18.0871 27.8482 20.9307 28.5791 23.7637C29.3595 26.7893 30.14 29.804 31.8168 32.3423C31.8945 32.4608 31.847 32.607 31.7279 32.6695C31.2635 32.9148 30.9597 33.3166 30.8644 33.7538C30.7694 34.1901 30.881 34.6651 31.2547 35.0615C31.3101 35.1208 31.3411 35.1949 31.3357 35.2676C31.33 35.3423 31.2864 35.4083 31.2107 35.4483C30.3923 35.8804 29.5746 36.3134 28.7566 36.746C27.9385 37.1786 27.1201 37.6115 26.3016 38.0436C26.2277 38.0827 26.1399 38.0885 26.0594 38.072C25.9786 38.0554 25.8992 38.0154 25.8427 37.9559C25.0846 37.1504 23.8583 36.8258 22.9223 37.3207C22.7958 37.3877 22.6174 37.3582 22.5337 37.229C20.8547 34.6779 20.0743 31.6536 19.297 28.6398C18.5674 25.8113 17.8406 22.9917 16.3833 20.5602L16.0817 20.0788C15.9947 19.9469 16.0504 19.7854 16.1814 19.7174L16.3474 19.6187C16.7182 19.3714 16.9611 19.0151 17.0448 18.6321C17.1401 18.1955 17.0296 17.7198 16.6575 17.3224C16.5967 17.2576 16.5639 17.1774 16.5696 17.0988C16.5757 17.0182 16.6217 16.946 16.7035 16.9024L21.5706 14.3315L21.6331 14.3061C21.6981 14.2873 21.769 14.2872 21.8352 14.3012Z" fill="#80E58A" stroke="black" stroke-width="0.109103" stroke-miterlimit="10" stroke-linecap="round" stroke-linejoin="round"/>
<path d="M22.5989 18.6248C22.1497 18.5113 21.728 18.5384 21.3726 18.7264L21.2258 18.8164C20.8979 19.0445 20.6686 19.4097 20.52 19.8814C20.3504 20.4201 20.2795 21.1043 20.2774 21.899L20.2896 22.5156C20.3441 24.004 20.5762 25.8267 21.0481 27.6972C21.5877 29.8365 22.4523 31.5811 23.4956 32.6288C24.0115 33.1552 24.5603 33.516 25.0809 33.6917C25.6014 33.8674 26.0953 33.862 26.5015 33.6472C26.9089 33.4319 27.1842 33.0314 27.354 32.4922C27.4812 32.0882 27.5532 31.603 27.5818 31.0499L27.5967 30.4746C27.5907 28.8893 27.3652 26.814 26.826 24.6764C26.2862 22.5367 25.4218 20.7915 24.3782 19.7438L24.184 19.5543C23.7261 19.1303 23.2487 18.8357 22.7931 18.6819L22.5989 18.6248Z" fill="#60D06F" stroke="#082422" stroke-width="0.109103" stroke-miterlimit="10" stroke-linecap="round" stroke-linejoin="round"/>
<mask id="path-31-inside-1_664_11599" fill="white">
<path d="M46.9133 53.3446L55.9403 71.769C56.0957 72.0781 56.052 72.4482 55.8271 72.7115C54.9077 73.7889 52.4748 76.2033 48.5775 77.6773C42.6712 79.9133 40.3854 78.8599 39.1386 78.3448C38.9038 78.2486 38.724 78.0538 38.6477 77.8111L32.5217 55.7002C32.4576 55.4981 32.3495 55.3141 32.2055 55.1597C30.887 53.7454 25.6 47.8434 25.2836 42.7845C25.001 38.2542 25.5766 34.8118 24.8374 28.3276C24.7322 27.406 25.6175 26.5283 26.9535 26.7826C28.4439 27.067 29.2709 29.2823 29.5304 30.1161C30.3088 32.6176 30.6278 36.1383 31.0001 37.1223C31.4955 38.4354 34.9489 40.5452 35.9666 42.7294C36.9842 44.9136 37.4639 47.2434 37.4639 47.2434"/>
</mask>
<path d="M46.9133 53.3446L55.9403 71.769C56.0957 72.0781 56.052 72.4482 55.8271 72.7115C54.9077 73.7889 52.4748 76.2033 48.5775 77.6773C42.6712 79.9133 40.3854 78.8599 39.1386 78.3448C38.9038 78.2486 38.724 78.0538 38.6477 77.8111L32.5217 55.7002C32.4576 55.4981 32.3495 55.3141 32.2055 55.1597C30.887 53.7454 25.6 47.8434 25.2836 42.7845C25.001 38.2542 25.5766 34.8118 24.8374 28.3276C24.7322 27.406 25.6175 26.5283 26.9535 26.7826C28.4439 27.067 29.2709 29.2823 29.5304 30.1161C30.3088 32.6176 30.6278 36.1383 31.0001 37.1223C31.4955 38.4354 34.9489 40.5452 35.9666 42.7294C36.9842 44.9136 37.4639 47.2434 37.4639 47.2434" fill="#FFCE9B"/>
<path d="M46.8153 53.3926C46.7888 53.3385 46.8112 53.2731 46.8653 53.2466C46.9194 53.2201 46.9848 53.2424 47.0113 53.2965L46.9133 53.3446L46.8153 53.3926ZM55.9403 71.769L55.8428 71.818L55.8423 71.817L55.9403 71.769ZM55.8271 72.7115L55.7442 72.6407L55.7442 72.6407L55.8271 72.7115ZM48.5775 77.6773L48.5389 77.5753L48.539 77.5753L48.5775 77.6773ZM39.1386 78.3448L39.1799 78.2438L39.1802 78.2439L39.1386 78.3448ZM38.6477 77.8111L38.5436 77.8438L38.5426 77.8403L38.6477 77.8111ZM32.5217 55.7002L32.6257 55.6671L32.6268 55.671L32.5217 55.7002ZM32.2055 55.1597L32.1258 55.2342L32.1257 55.2342L32.2055 55.1597ZM25.2836 42.7845L25.1747 42.7914L25.1747 42.7914L25.2836 42.7845ZM24.8374 28.3276L24.9458 28.3152L24.9458 28.3152L24.8374 28.3276ZM26.9535 26.7826L26.9739 26.6754L26.974 26.6754L26.9535 26.7826ZM29.5304 30.1161L29.4262 30.1486L29.5304 30.1161ZM31.0001 37.1223L31.1021 37.0837L31.1021 37.0838L31.0001 37.1223ZM37.5707 47.2214C37.5829 47.2804 37.5449 47.3381 37.4859 47.3503C37.4269 47.3625 37.3692 47.3245 37.357 47.2655L37.4639 47.2434L37.5707 47.2214ZM46.9133 53.3446L47.0113 53.2965L56.0383 71.7209L55.9403 71.769L55.8423 71.817L46.8153 53.3926L46.9133 53.3446ZM55.9403 71.769L56.0378 71.7199C56.2127 72.068 56.1637 72.4854 55.91 72.7824L55.8271 72.7115L55.7442 72.6407C55.9404 72.411 55.9786 72.0882 55.8428 71.818L55.9403 71.769ZM55.8271 72.7115L55.9101 72.7824C54.9827 73.8691 52.5356 76.297 48.616 77.7794L48.5775 77.6773L48.539 77.5753C52.4141 76.1097 54.8326 73.7088 55.7442 72.6407L55.8271 72.7115ZM48.5775 77.6773L48.6161 77.7794C45.6536 78.9009 43.5909 79.2006 42.1071 79.1518C40.6207 79.1028 39.7222 78.704 39.0969 78.4456L39.1386 78.3448L39.1802 78.2439C39.8017 78.5007 40.6695 78.8861 42.1144 78.9336C43.5617 78.9813 45.5951 78.6897 48.5389 77.5753L48.5775 77.6773ZM39.1386 78.3448L39.0972 78.4458C38.8325 78.3374 38.6297 78.1176 38.5437 77.8438L38.6477 77.8111L38.7518 77.7783C38.8183 77.9899 38.975 78.1599 39.1799 78.2438L39.1386 78.3448ZM38.6477 77.8111L38.5426 77.8403L32.4165 55.7294L32.5217 55.7002L32.6268 55.671L38.7529 77.7819L38.6477 77.8111ZM32.5217 55.7002L32.4177 55.7333C32.3585 55.5467 32.2588 55.3768 32.1258 55.2342L32.2055 55.1597L32.2853 55.0853C32.4402 55.2514 32.5566 55.4495 32.6256 55.6672L32.5217 55.7002ZM32.2055 55.1597L32.1257 55.2342C31.4648 54.5252 29.8089 52.6912 28.2781 50.3995C26.7495 48.1112 25.3348 45.3508 25.1747 42.7914L25.2836 42.7845L25.3925 42.7777C25.5488 45.2771 26.9358 47.9972 28.4595 50.2782C29.9809 52.5558 31.6278 54.38 32.2853 55.0853L32.2055 55.1597ZM25.2836 42.7845L25.1747 42.7914C25.0331 40.5212 25.1065 38.5217 25.1227 36.288C25.1388 34.0532 25.098 31.5762 24.7291 28.34L24.8374 28.3276L24.9458 28.3152C25.3161 31.5631 25.357 34.0495 25.3408 36.2895C25.3246 38.5306 25.2515 40.5175 25.3925 42.7777L25.2836 42.7845ZM24.8374 28.3276L24.7291 28.34C24.6136 27.3289 25.5828 26.4106 26.9739 26.6754L26.9535 26.7826L26.933 26.8898C25.6522 26.6459 24.8508 27.4832 24.9458 28.3152L24.8374 28.3276ZM26.9535 26.7826L26.974 26.6754C27.7661 26.8265 28.3669 27.4858 28.7965 28.1862C29.2288 28.8909 29.5036 29.663 29.6345 30.0836L29.5304 30.1161L29.4262 30.1486C29.2977 29.7354 29.0292 28.9829 28.6106 28.3004C28.1892 27.6136 27.6313 27.023 26.933 26.8898L26.9535 26.7826ZM29.5304 30.1161L29.6345 30.0836C30.0262 31.3422 30.3016 32.8545 30.5251 34.1699C30.6371 34.8291 30.7359 35.4378 30.8301 35.9442C30.9247 36.4529 31.013 36.8481 31.1021 37.0837L31.0001 37.1223L30.898 37.161C30.801 36.9045 30.7098 36.4907 30.6156 35.9843C30.521 35.4756 30.4216 34.8633 30.31 34.2066C30.0863 32.8903 29.813 31.3915 29.4262 30.1486L29.5304 30.1161ZM31.0001 37.1223L31.1021 37.0838C31.2171 37.3884 31.5104 37.7521 31.9198 38.1687C32.3265 38.5826 32.8331 39.0347 33.3612 39.5187C34.4102 40.4802 35.5458 41.568 36.0654 42.6833L35.9666 42.7294L35.8677 42.7755C35.3696 41.7066 34.2697 40.6474 33.2137 39.6797C32.6893 39.1991 32.1761 38.741 31.7641 38.3218C31.3549 37.9052 31.0308 37.5128 30.898 37.1609L31.0001 37.1223ZM35.9666 42.7294L36.0654 42.6833C36.5775 43.7823 36.9536 44.9166 37.2017 45.7752C37.3257 46.2047 37.4179 46.5658 37.4791 46.8196C37.5097 46.9466 37.5325 47.0468 37.5478 47.1153C37.5554 47.1496 37.5611 47.176 37.5649 47.1939C37.5668 47.2028 37.5683 47.2096 37.5692 47.2142C37.5697 47.2165 37.5701 47.2183 37.5703 47.2195C37.5705 47.2201 37.5705 47.2205 37.5706 47.2208C37.5706 47.221 37.5707 47.2211 37.5707 47.2212C37.5707 47.2212 37.5707 47.2213 37.5707 47.2213C37.5707 47.2213 37.5707 47.2214 37.4639 47.2434C37.357 47.2655 37.357 47.2655 37.357 47.2655C37.357 47.2655 37.357 47.2654 37.357 47.2654C37.357 47.2654 37.357 47.2653 37.357 47.2651C37.3569 47.2649 37.3568 47.2645 37.3567 47.264C37.3565 47.2629 37.3562 47.2613 37.3557 47.2591C37.3548 47.2548 37.3534 47.2482 37.3516 47.2396C37.3479 47.2223 37.3423 47.1965 37.3348 47.1628C37.3198 47.0954 37.2973 46.9965 37.267 46.8709C37.2064 46.6197 37.1151 46.2618 36.992 45.8358C36.7458 44.9835 36.3733 43.8608 35.8677 42.7755L35.9666 42.7294Z" fill="#082422" mask="url(#path-31-inside-1_664_11599)"/>
<path d="M24.8762 28.3206C25.0382 29.7454 25.1368 31.0234 25.1954 32.1985C25.4062 32.1788 25.6719 32.1444 25.9271 32.077C26.2073 32.0029 26.4684 31.8935 26.6322 31.7352C26.6855 31.6835 26.7288 31.594 26.76 31.4684C26.7909 31.3437 26.8079 31.1895 26.8148 31.0159C26.8285 30.6687 26.7998 30.2502 26.7542 29.8451C26.7086 29.4404 26.647 29.0504 26.5967 28.762C26.5716 28.618 26.5484 28.499 26.5325 28.4163C26.5253 28.3792 26.5202 28.3493 26.5158 28.3277L24.8723 28.2003L24.8762 28.3206Z" stroke="#082422" stroke-width="0.109103" stroke-miterlimit="10" stroke-linecap="round" stroke-linejoin="round"/>
<mask id="path-34-inside-2_664_11599" fill="white">
<path d="M30.9647 37.0907C30.5844 37.4233 29.5526 37.7677 28.8355 37.9601C28.8274 37.9623 28.8192 37.9645 28.8134 37.966"/>
</mask>
<path d="M30.8929 37.0086C30.9383 36.9689 31.0072 36.9735 31.0469 37.0189C31.0865 37.0642 31.0819 37.1332 31.0365 37.1728L30.9647 37.0907L30.8929 37.0086ZM28.8416 38.0714C28.7834 38.087 28.7236 38.0525 28.708 37.9943C28.6924 37.9361 28.727 37.8762 28.7852 37.8606L28.8134 37.966L28.8416 38.0714ZM30.9647 37.0907L31.0365 37.1728C30.8302 37.3532 30.4605 37.5281 30.0654 37.6798C29.6658 37.8333 29.2248 37.9686 28.8637 38.0655L28.8355 37.9601L28.8073 37.8547C29.1633 37.7592 29.5967 37.6261 29.9873 37.4761C30.3824 37.3244 30.7188 37.1608 30.8929 37.0086L30.9647 37.0907ZM28.8355 37.9601L28.8637 38.0655C28.8637 38.0655 28.8637 38.0655 28.8637 38.0655C28.8637 38.0655 28.8637 38.0655 28.8637 38.0655C28.8636 38.0655 28.8636 38.0655 28.8636 38.0655C28.8636 38.0655 28.8636 38.0655 28.8636 38.0655C28.8635 38.0655 28.8635 38.0655 28.8635 38.0655C28.8635 38.0655 28.8635 38.0655 28.8635 38.0655C28.8634 38.0655 28.8634 38.0655 28.8634 38.0656C28.8634 38.0656 28.8634 38.0656 28.8634 38.0656C28.8634 38.0656 28.8633 38.0656 28.8633 38.0656C28.8633 38.0656 28.8633 38.0656 28.8633 38.0656C28.8633 38.0656 28.8632 38.0656 28.8632 38.0656C28.8632 38.0656 28.8632 38.0656 28.8632 38.0656C28.8632 38.0656 28.8631 38.0656 28.8631 38.0656C28.8631 38.0656 28.8631 38.0656 28.8631 38.0656C28.8631 38.0656 28.863 38.0657 28.863 38.0657C28.863 38.0657 28.863 38.0657 28.863 38.0657C28.863 38.0657 28.863 38.0657 28.8629 38.0657C28.8629 38.0657 28.8629 38.0657 28.8629 38.0657C28.8629 38.0657 28.8629 38.0657 28.8628 38.0657C28.8628 38.0657 28.8628 38.0657 28.8628 38.0657C28.8628 38.0657 28.8628 38.0657 28.8627 38.0657C28.8627 38.0657 28.8627 38.0657 28.8627 38.0657C28.8627 38.0658 28.8627 38.0658 28.8626 38.0658C28.8626 38.0658 28.8626 38.0658 28.8626 38.0658C28.8626 38.0658 28.8626 38.0658 28.8626 38.0658C28.8625 38.0658 28.8625 38.0658 28.8625 38.0658C28.8625 38.0658 28.8625 38.0658 28.8625 38.0658C28.8624 38.0658 28.8624 38.0658 28.8624 38.0658C28.8624 38.0658 28.8624 38.0658 28.8624 38.0658C28.8623 38.0658 28.8623 38.0658 28.8623 38.0658C28.8623 38.0659 28.8623 38.0659 28.8623 38.0659C28.8622 38.0659 28.8622 38.0659 28.8622 38.0659C28.8622 38.0659 28.8622 38.0659 28.8622 38.0659C28.8622 38.0659 28.8621 38.0659 28.8621 38.0659C28.8621 38.0659 28.8621 38.0659 28.8621 38.0659C28.8621 38.0659 28.862 38.0659 28.862 38.0659C28.862 38.0659 28.862 38.0659 28.862 38.0659C28.862 38.0659 28.8619 38.0659 28.8619 38.066C28.8619 38.066 28.8619 38.066 28.8619 38.066C28.8619 38.066 28.8619 38.066 28.8618 38.066C28.8618 38.066 28.8618 38.066 28.8618 38.066C28.8618 38.066 28.8618 38.066 28.8617 38.066C28.8617 38.066 28.8617 38.066 28.8617 38.066C28.8617 38.066 28.8617 38.066 28.8616 38.066C28.8616 38.066 28.8616 38.066 28.8616 38.066C28.8616 38.066 28.8616 38.066 28.8615 38.0661C28.8615 38.0661 28.8615 38.0661 28.8615 38.0661C28.8615 38.0661 28.8615 38.0661 28.8615 38.0661C28.8614 38.0661 28.8614 38.0661 28.8614 38.0661C28.8614 38.0661 28.8614 38.0661 28.8614 38.0661C28.8613 38.0661 28.8613 38.0661 28.8613 38.0661C28.8613 38.0661 28.8613 38.0661 28.8613 38.0661C28.8612 38.0661 28.8612 38.0661 28.8612 38.0661C28.8612 38.0661 28.8612 38.0662 28.8612 38.0662C28.8612 38.0662 28.8611 38.0662 28.8611 38.0662C28.8611 38.0662 28.8611 38.0662 28.8611 38.0662C28.8611 38.0662 28.861 38.0662 28.861 38.0662C28.861 38.0662 28.861 38.0662 28.861 38.0662C28.861 38.0662 28.8609 38.0662 28.8609 38.0662C28.8609 38.0662 28.8609 38.0662 28.8609 38.0662C28.8609 38.0662 28.8608 38.0662 28.8608 38.0662C28.8608 38.0663 28.8608 38.0663 28.8608 38.0663C28.8608 38.0663 28.8608 38.0663 28.8607 38.0663C28.8607 38.0663 28.8607 38.0663 28.8607 38.0663C28.8607 38.0663 28.8607 38.0663 28.8606 38.0663C28.8606 38.0663 28.8606 38.0663 28.8606 38.0663C28.8606 38.0663 28.8606 38.0663 28.8605 38.0663C28.8605 38.0663 28.8605 38.0663 28.8605 38.0663C28.8605 38.0663 28.8605 38.0663 28.8605 38.0663C28.8604 38.0664 28.8604 38.0664 28.8604 38.0664C28.8604 38.0664 28.8604 38.0664 28.8604 38.0664C28.8603 38.0664 28.8603 38.0664 28.8603 38.0664C28.8603 38.0664 28.8603 38.0664 28.8603 38.0664C28.8602 38.0664 28.8602 38.0664 28.8602 38.0664C28.8602 38.0664 28.8602 38.0664 28.8602 38.0664C28.8601 38.0664 28.8601 38.0664 28.8601 38.0664C28.8601 38.0664 28.8601 38.0664 28.8601 38.0665C28.8601 38.0665 28.86 38.0665 28.86 38.0665C28.86 38.0665 28.86 38.0665 28.86 38.0665C28.86 38.0665 28.8599 38.0665 28.8599 38.0665C28.8599 38.0665 28.8599 38.0665 28.8599 38.0665C28.8599 38.0665 28.8598 38.0665 28.8598 38.0665C28.8598 38.0665 28.8598 38.0665 28.8598 38.0665C28.8598 38.0665 28.8598 38.0665 28.8597 38.0665C28.8597 38.0665 28.8597 38.0665 28.8597 38.0666C28.8597 38.0666 28.8597 38.0666 28.8596 38.0666C28.8596 38.0666 28.8596 38.0666 28.8596 38.0666C28.8596 38.0666 28.8596 38.0666 28.8595 38.0666C28.8595 38.0666 28.8595 38.0666 28.8595 38.0666C28.8595 38.0666 28.8595 38.0666 28.8595 38.0666C28.8594 38.0666 28.8594 38.0666 28.8594 38.0666C28.8594 38.0666 28.8594 38.0666 28.8594 38.0666C28.8593 38.0666 28.8593 38.0667 28.8593 38.0667C28.8593 38.0667 28.8593 38.0667 28.8593 38.0667C28.8592 38.0667 28.8592 38.0667 28.8592 38.0667C28.8592 38.0667 28.8592 38.0667 28.8592 38.0667C28.8592 38.0667 28.8591 38.0667 28.8591 38.0667C28.8591 38.0667 28.8591 38.0667 28.8591 38.0667C28.8591 38.0667 28.859 38.0667 28.859 38.0667C28.859 38.0667 28.859 38.0667 28.859 38.0667C28.859 38.0667 28.8589 38.0668 28.8589 38.0668C28.8589 38.0668 28.8589 38.0668 28.8589 38.0668C28.8589 38.0668 28.8589 38.0668 28.8588 38.0668C28.8588 38.0668 28.8588 38.0668 28.8588 38.0668C28.8588 38.0668 28.8588 38.0668 28.8587 38.0668C28.8587 38.0668 28.8587 38.0668 28.8587 38.0668C28.8587 38.0668 28.8587 38.0668 28.8586 38.0668C28.8586 38.0668 28.8586 38.0668 28.8586 38.0668C28.8586 38.0668 28.8586 38.0669 28.8586 38.0669C28.8585 38.0669 28.8585 38.0669 28.8585 38.0669C28.8585 38.0669 28.8585 38.0669 28.8585 38.0669C28.8584 38.0669 28.8584 38.0669 28.8584 38.0669C28.8584 38.0669 28.8584 38.0669 28.8584 38.0669C28.8583 38.0669 28.8583 38.0669 28.8583 38.0669C28.8583 38.0669 28.8583 38.0669 28.8583 38.0669C28.8583 38.0669 28.8582 38.0669 28.8582 38.0669C28.8582 38.067 28.8582 38.067 28.8582 38.067C28.8582 38.067 28.8581 38.067 28.8581 38.067C28.8581 38.067 28.8581 38.067 28.8581 38.067C28.8581 38.067 28.858 38.067 28.858 38.067C28.858 38.067 28.858 38.067 28.858 38.067C28.858 38.067 28.858 38.067 28.8579 38.067C28.8579 38.067 28.8579 38.067 28.8579 38.067C28.8579 38.067 28.8579 38.067 28.8578 38.067C28.8578 38.0671 28.8578 38.0671 28.8578 38.0671C28.8578 38.0671 28.8578 38.0671 28.8578 38.0671C28.8577 38.0671 28.8577 38.0671 28.8577 38.0671C28.8577 38.0671 28.8577 38.0671 28.8577 38.0671C28.8576 38.0671 28.8576 38.0671 28.8576 38.0671C28.8576 38.0671 28.8576 38.0671 28.8576 38.0671C28.8575 38.0671 28.8575 38.0671 28.8575 38.0671C28.8575 38.0671 28.8575 38.0671 28.8575 38.0671C28.8575 38.0672 28.8574 38.0672 28.8574 38.0672C28.8574 38.0672 28.8574 38.0672 28.8574 38.0672C28.8574 38.0672 28.8573 38.0672 28.8573 38.0672C28.8573 38.0672 28.8573 38.0672 28.8573 38.0672C28.8573 38.0672 28.8572 38.0672 28.8572 38.0672C28.8572 38.0672 28.8572 38.0672 28.8572 38.0672C28.8572 38.0672 28.8572 38.0672 28.8571 38.0672C28.8571 38.0672 28.8571 38.0672 28.8571 38.0672C28.8571 38.0673 28.8571 38.0673 28.857 38.0673C28.857 38.0673 28.857 38.0673 28.857 38.0673C28.857 38.0673 28.857 38.0673 28.857 38.0673C28.8569 38.0673 28.8569 38.0673 28.8569 38.0673C28.8569 38.0673 28.8569 38.0673 28.8569 38.0673C28.8568 38.0673 28.8568 38.0673 28.8568 38.0673C28.8568 38.0673 28.8568 38.0673 28.8568 38.0673C28.8567 38.0673 28.8567 38.0673 28.8567 38.0673C28.8567 38.0674 28.8567 38.0674 28.8567 38.0674C28.8567 38.0674 28.8566 38.0674 28.8566 38.0674C28.8566 38.0674 28.8566 38.0674 28.8566 38.0674C28.8566 38.0674 28.8565 38.0674 28.8565 38.0674C28.8565 38.0674 28.8565 38.0674 28.8565 38.0674C28.8565 38.0674 28.8565 38.0674 28.8564 38.0674C28.8564 38.0674 28.8564 38.0674 28.8564 38.0674C28.8564 38.0674 28.8564 38.0674 28.8563 38.0674C28.8563 38.0675 28.8563 38.0675 28.8563 38.0675C28.8563 38.0675 28.8563 38.0675 28.8563 38.0675C28.8562 38.0675 28.8562 38.0675 28.8562 38.0675C28.8562 38.0675 28.8562 38.0675 28.8562 38.0675C28.8561 38.0675 28.8561 38.0675 28.8561 38.0675C28.8561 38.0675 28.8561 38.0675 28.8561 38.0675C28.8561 38.0675 28.856 38.0675 28.856 38.0675C28.856 38.0675 28.856 38.0675 28.856 38.0675C28.856 38.0676 28.8559 38.0676 28.8559 38.0676C28.8559 38.0676 28.8559 38.0676 28.8559 38.0676C28.8559 38.0676 28.8558 38.0676 28.8558 38.0676C28.8558 38.0676 28.8558 38.0676 28.8558 38.0676C28.8558 38.0676 28.8558 38.0676 28.8557 38.0676C28.8557 38.0676 28.8557 38.0676 28.8557 38.0676C28.8557 38.0676 28.8557 38.0676 28.8556 38.0676C28.8556 38.0676 28.8556 38.0676 28.8556 38.0676C28.8556 38.0677 28.8556 38.0677 28.8556 38.0677C28.8555 38.0677 28.8555 38.0677 28.8555 38.0677C28.8555 38.0677 28.8555 38.0677 28.8555 38.0677C28.8554 38.0677 28.8554 38.0677 28.8554 38.0677C28.8554 38.0677 28.8554 38.0677 28.8554 38.0677C28.8554 38.0677 28.8553 38.0677 28.8553 38.0677C28.8553 38.0677 28.8553 38.0677 28.8553 38.0677C28.8553 38.0677 28.8552 38.0677 28.8552 38.0677C28.8552 38.0678 28.8552 38.0678 28.8552 38.0678C28.8552 38.0678 28.8552 38.0678 28.8551 38.0678C28.8551 38.0678 28.8551 38.0678 28.8551 38.0678C28.8551 38.0678 28.8551 38.0678 28.855 38.0678C28.855 38.0678 28.855 38.0678 28.855 38.0678C28.855 38.0678 28.855 38.0678 28.855 38.0678C28.8549 38.0678 28.8549 38.0678 28.8549 38.0678C28.8549 38.0678 28.8549 38.0678 28.8549 38.0678C28.8548 38.0679 28.8548 38.0679 28.8548 38.0679C28.8548 38.0679 28.8548 38.0679 28.8548 38.0679C28.8548 38.0679 28.8547 38.0679 28.8547 38.0679C28.8547 38.0679 28.8547 38.0679 28.8547 38.0679C28.8547 38.0679 28.8546 38.0679 28.8546 38.0679C28.8546 38.0679 28.8546 38.0679 28.8546 38.0679C28.8546 38.0679 28.8546 38.0679 28.8545 38.0679C28.8545 38.0679 28.8545 38.0679 28.8545 38.0679C28.8545 38.068 28.8545 38.068 28.8544 38.068C28.8544 38.068 28.8544 38.068 28.8544 38.068C28.8544 38.068 28.8544 38.068 28.8544 38.068C28.8543 38.068 28.8543 38.068 28.8543 38.068C28.8543 38.068 28.8543 38.068 28.8543 38.068C28.8543 38.068 28.8542 38.068 28.8542 38.068C28.8542 38.068 28.8542 38.068 28.8542 38.068C28.8542 38.068 28.8541 38.068 28.8541 38.068C28.8541 38.068 28.8541 38.0681 28.8541 38.0681C28.8541 38.0681 28.8541 38.0681 28.854 38.0681C28.854 38.0681 28.854 38.0681 28.854 38.0681C28.854 38.0681 28.854 38.0681 28.8539 38.0681C28.8539 38.0681 28.8539 38.0681 28.8539 38.0681C28.8539 38.0681 28.8539 38.0681 28.8539 38.0681C28.8538 38.0681 28.8538 38.0681 28.8538 38.0681C28.8538 38.0681 28.8538 38.0681 28.8538 38.0681C28.8537 38.0681 28.8537 38.0682 28.8537 38.0682C28.8537 38.0682 28.8537 38.0682 28.8537 38.0682C28.8537 38.0682 28.8536 38.0682 28.8536 38.0682C28.8536 38.0682 28.8536 38.0682 28.8536 38.0682C28.8536 38.0682 28.8536 38.0682 28.8535 38.0682C28.8535 38.0682 28.8535 38.0682 28.8535 38.0682C28.8535 38.0682 28.8535 38.0682 28.8534 38.0682C28.8534 38.0682 28.8534 38.0682 28.8534 38.0682C28.8534 38.0682 28.8534 38.0682 28.8534 38.0683C28.8533 38.0683 28.8533 38.0683 28.8533 38.0683C28.8533 38.0683 28.8533 38.0683 28.8533 38.0683C28.8532 38.0683 28.8532 38.0683 28.8532 38.0683C28.8532 38.0683 28.8532 38.0683 28.8532 38.0683C28.8532 38.0683 28.8531 38.0683 28.8531 38.0683C28.8531 38.0683 28.8531 38.0683 28.8531 38.0683C28.8531 38.0683 28.8531 38.0683 28.853 38.0683C28.853 38.0683 28.853 38.0683 28.853 38.0683C28.853 38.0684 28.853 38.0684 28.8529 38.0684C28.8529 38.0684 28.8529 38.0684 28.8529 38.0684C28.8529 38.0684 28.8529 38.0684 28.8529 38.0684C28.8528 38.0684 28.8528 38.0684 28.8528 38.0684C28.8528 38.0684 28.8528 38.0684 28.8528 38.0684C28.8528 38.0684 28.8527 38.0684 28.8527 38.0684C28.8527 38.0684 28.8527 38.0684 28.8527 38.0684C28.8527 38.0684 28.8526 38.0684 28.8526 38.0684C28.8526 38.0684 28.8526 38.0685 28.8526 38.0685C28.8526 38.0685 28.8526 38.0685 28.8525 38.0685C28.8525 38.0685 28.8525 38.0685 28.8525 38.0685C28.8525 38.0685 28.8525 38.0685 28.8525 38.0685C28.8524 38.0685 28.8524 38.0685 28.8524 38.0685C28.8524 38.0685 28.8524 38.0685 28.8524 38.0685C28.8523 38.0685 28.8523 38.0685 28.8523 38.0685C28.8523 38.0685 28.8523 38.0685 28.8523 38.0685C28.8523 38.0685 28.8522 38.0686 28.8522 38.0686C28.8522 38.0686 28.8522 38.0686 28.8522 38.0686C28.8522 38.0686 28.8522 38.0686 28.8521 38.0686C28.8521 38.0686 28.8521 38.0686 28.8521 38.0686C28.8521 38.0686 28.8521 38.0686 28.8521 38.0686C28.852 38.0686 28.852 38.0686 28.852 38.0686C28.852 38.0686 28.852 38.0686 28.852 38.0686C28.8519 38.0686 28.8519 38.0686 28.8519 38.0686C28.8519 38.0686 28.8519 38.0686 28.8519 38.0686C28.8519 38.0687 28.8518 38.0687 28.8518 38.0687C28.8518 38.0687 28.8518 38.0687 28.8518 38.0687C28.8518 38.0687 28.8518 38.0687 28.8517 38.0687C28.8517 38.0687 28.8517 38.0687 28.8517 38.0687C28.8517 38.0687 28.8517 38.0687 28.8516 38.0687C28.8516 38.0687 28.8516 38.0687 28.8516 38.0687C28.8516 38.0687 28.8516 38.0687 28.8516 38.0687C28.8515 38.0687 28.8515 38.0687 28.8515 38.0687C28.8515 38.0687 28.8515 38.0688 28.8515 38.0688C28.8515 38.0688 28.8514 38.0688 28.8514 38.0688C28.8514 38.0688 28.8514 38.0688 28.8514 38.0688C28.8514 38.0688 28.8514 38.0688 28.8513 38.0688C28.8513 38.0688 28.8513 38.0688 28.8513 38.0688C28.8513 38.0688 28.8513 38.0688 28.8513 38.0688C28.8512 38.0688 28.8512 38.0688 28.8512 38.0688C28.8512 38.0688 28.8512 38.0688 28.8512 38.0688C28.8511 38.0688 28.8511 38.0688 28.8511 38.0689C28.8511 38.0689 28.8511 38.0689 28.8511 38.0689C28.8511 38.0689 28.851 38.0689 28.851 38.0689C28.851 38.0689 28.851 38.0689 28.851 38.0689C28.851 38.0689 28.851 38.0689 28.8509 38.0689C28.8509 38.0689 28.8509 38.0689 28.8509 38.0689C28.8509 38.0689 28.8509 38.0689 28.8509 38.0689C28.8508 38.0689 28.8508 38.0689 28.8508 38.0689C28.8508 38.0689 28.8508 38.0689 28.8508 38.0689C28.8508 38.0689 28.8507 38.069 28.8507 38.069C28.8507 38.069 28.8507 38.069 28.8507 38.069C28.8507 38.069 28.8507 38.069 28.8506 38.069C28.8506 38.069 28.8506 38.069 28.8506 38.069C28.8506 38.069 28.8506 38.069 28.8505 38.069C28.8505 38.069 28.8505 38.069 28.8505 38.069C28.8505 38.069 28.8505 38.069 28.8505 38.069C28.8504 38.069 28.8504 38.069 28.8504 38.069C28.8504 38.069 28.8504 38.069 28.8504 38.0691C28.8504 38.0691 28.8503 38.0691 28.8503 38.0691C28.8503 38.0691 28.8503 38.0691 28.8503 38.0691C28.8503 38.0691 28.8503 38.0691 28.8502 38.0691C28.8502 38.0691 28.8502 38.0691 28.8502 38.0691C28.8502 38.0691 28.8502 38.0691 28.8502 38.0691C28.8501 38.0691 28.8501 38.0691 28.8501 38.0691C28.8501 38.0691 28.8501 38.0691 28.8501 38.0691C28.8501 38.0691 28.85 38.0691 28.85 38.0691C28.85 38.0691 28.85 38.0692 28.85 38.0692C28.85 38.0692 28.85 38.0692 28.8499 38.0692C28.8499 38.0692 28.8499 38.0692 28.8499 38.0692C28.8499 38.0692 28.8499 38.0692 28.8499 38.0692C28.8498 38.0692 28.8498 38.0692 28.8498 38.0692C28.8498 38.0692 28.8498 38.0692 28.8498 38.0692C28.8498 38.0692 28.8497 38.0692 28.8497 38.0692C28.8497 38.0692 28.8497 38.0692 28.8497 38.0692C28.8497 38.0692 28.8497 38.0692 28.8496 38.0692C28.8496 38.0693 28.8496 38.0693 28.8496 38.0693C28.8496 38.0693 28.8496 38.0693 28.8496 38.0693C28.8495 38.0693 28.8495 38.0693 28.8495 38.0693C28.8495 38.0693 28.8495 38.0693 28.8495 38.0693C28.8495 38.0693 28.8494 38.0693 28.8494 38.0693C28.8494 38.0693 28.8494 38.0693 28.8494 38.0693C28.8494 38.0693 28.8494 38.0693 28.8493 38.0693C28.8493 38.0693 28.8493 38.0693 28.8493 38.0693C28.8493 38.0693 28.8493 38.0693 28.8493 38.0694C28.8492 38.0694 28.8492 38.0694 28.8492 38.0694C28.8492 38.0694 28.8492 38.0694 28.8492 38.0694C28.8492 38.0694 28.8491 38.0694 28.8491 38.0694C28.8491 38.0694 28.8491 38.0694 28.8491 38.0694C28.8491 38.0694 28.8491 38.0694 28.849 38.0694C28.849 38.0694 28.849 38.0694 28.849 38.0694C28.849 38.0694 28.849 38.0694 28.849 38.0694C28.8489 38.0694 28.8489 38.0694 28.8489 38.0694C28.8489 38.0694 28.8489 38.0695 28.8489 38.0695C28.8489 38.0695 28.8488 38.0695 28.8488 38.0695C28.8488 38.0695 28.8488 38.0695 28.8488 38.0695C28.8488 38.0695 28.8488 38.0695 28.8487 38.0695C28.8487 38.0695 28.8487 38.0695 28.8487 38.0695C28.8487 38.0695 28.8487 38.0695 28.8487 38.0695C28.8486 38.0695 28.8486 38.0695 28.8486 38.0695C28.8486 38.0695 28.8486 38.0695 28.8486 38.0695C28.8486 38.0695 28.8485 38.0695 28.8485 38.0695C28.8485 38.0695 28.8485 38.0696 28.8485 38.0696C28.8485 38.0696 28.8485 38.0696 28.8484 38.0696C28.8484 38.0696 28.8484 38.0696 28.8484 38.0696C28.8484 38.0696 28.8484 38.0696 28.8484 38.0696C28.8483 38.0696 28.8483 38.0696 28.8483 38.0696C28.8483 38.0696 28.8483 38.0696 28.8483 38.0696C28.8483 38.0696 28.8483 38.0696 28.8482 38.0696C28.8482 38.0696 28.8482 38.0696 28.8482 38.0696C28.8482 38.0696 28.8482 38.0696 28.8482 38.0696C28.8481 38.0697 28.8481 38.0697 28.8481 38.0697C28.8481 38.0697 28.8481 38.0697 28.8481 38.0697C28.8481 38.0697 28.848 38.0697 28.848 38.0697C28.848 38.0697 28.848 38.0697 28.848 38.0697C28.848 38.0697 28.848 38.0697 28.8479 38.0697C28.8479 38.0697 28.8479 38.0697 28.8479 38.0697C28.8479 38.0697 28.8479 38.0697 28.8479 38.0697C28.8478 38.0697 28.8478 38.0697 28.8478 38.0697C28.8478 38.0697 28.8478 38.0697 28.8478 38.0697C28.8478 38.0698 28.8478 38.0698 28.8477 38.0698C28.8477 38.0698 28.8477 38.0698 28.8477 38.0698C28.8477 38.0698 28.8477 38.0698 28.8477 38.0698C28.8476 38.0698 28.8476 38.0698 28.8476 38.0698C28.8476 38.0698 28.8476 38.0698 28.8476 38.0698C28.8476 38.0698 28.8475 38.0698 28.8475 38.0698C28.8475 38.0698 28.8475 38.0698 28.8475 38.0698C28.8475 38.0698 28.8475 38.0698 28.8474 38.0698C28.8474 38.0698 28.8474 38.0698 28.8474 38.0698C28.8474 38.0699 28.8474 38.0699 28.8474 38.0699C28.8474 38.0699 28.8473 38.0699 28.8473 38.0699C28.8473 38.0699 28.8473 38.0699 28.8473 38.0699C28.8473 38.0699 28.8473 38.0699 28.8472 38.0699C28.8472 38.0699 28.8472 38.0699 28.8472 38.0699C28.8472 38.0699 28.8472 38.0699 28.8472 38.0699C28.8471 38.0699 28.8471 38.0699 28.8471 38.0699C28.8471 38.0699 28.8471 38.0699 28.8471 38.0699C28.8471 38.0699 28.8471 38.0699 28.847 38.0699C28.847 38.07 28.847 38.07 28.847 38.07C28.847 38.07 28.847 38.07 28.847 38.07C28.8469 38.07 28.8469 38.07 28.8469 38.07C28.8469 38.07 28.8469 38.07 28.8469 38.07C28.8469 38.07 28.8468 38.07 28.8468 38.07C28.8468 38.07 28.8468 38.07 28.8468 38.07C28.8468 38.07 28.8468 38.07 28.8468 38.07C28.8467 38.07 28.8467 38.07 28.8467 38.07C28.8467 38.07 28.8467 38.07 28.8467 38.07C28.8467 38.07 28.8466 38.0701 28.8466 38.0701C28.8466 38.0701 28.8466 38.0701 28.8466 38.0701C28.8466 38.0701 28.8466 38.0701 28.8465 38.0701C28.8465 38.0701 28.8465 38.0701 28.8465 38.0701C28.8465 38.0701 28.8465 38.0701 28.8465 38.0701C28.8465 38.0701 28.8464 38.0701 28.8464 38.0701C28.8464 38.0701 28.8464 38.0701 28.8464 38.0701C28.8464 38.0701 28.8464 38.0701 28.8463 38.0701C28.8463 38.0701 28.8463 38.0701 28.8463 38.0701C28.8463 38.0701 28.8463 38.0701 28.8463 38.0702C28.8463 38.0702 28.8462 38.0702 28.8462 38.0702C28.8462 38.0702 28.8462 38.0702 28.8462 38.0702C28.8462 38.0702 28.8462 38.0702 28.8461 38.0702C28.8461 38.0702 28.8461 38.0702 28.8461 38.0702C28.8461 38.0702 28.8461 38.0702 28.8461 38.0702C28.8461 38.0702 28.846 38.0702 28.846 38.0702C28.846 38.0702 28.846 38.0702 28.846 38.0702C28.846 38.0702 28.846 38.0702 28.8459 38.0702C28.8459 38.0702 28.8459 38.0702 28.8459 38.0702C28.8459 38.0703 28.8459 38.0703 28.8459 38.0703C28.8459 38.0703 28.8458 38.0703 28.8458 38.0703C28.8458 38.0703 28.8458 38.0703 28.8458 38.0703C28.8458 38.0703 28.8458 38.0703 28.8457 38.0703C28.8457 38.0703 28.8457 38.0703 28.8457 38.0703C28.8457 38.0703 28.8457 38.0703 28.8457 38.0703C28.8457 38.0703 28.8456 38.0703 28.8456 38.0703C28.8456 38.0703 28.8456 38.0703 28.8456 38.0703C28.8456 38.0703 28.8456 38.0703 28.8456 38.0703C28.8455 38.0703 28.8455 38.0704 28.8455 38.0704C28.8455 38.0704 28.8455 38.0704 28.8455 38.0704C28.8455 38.0704 28.8454 38.0704 28.8454 38.0704C28.8454 38.0704 28.8454 38.0704 28.8454 38.0704C28.8454 38.0704 28.8454 38.0704 28.8454 38.0704C28.8453 38.0704 28.8453 38.0704 28.8453 38.0704C28.8453 38.0704 28.8453 38.0704 28.8453 38.0704C28.8453 38.0704 28.8453 38.0704 28.8452 38.0704C28.8452 38.0704 28.8452 38.0704 28.8452 38.0704C28.8452 38.0704 28.8452 38.0704 28.8452 38.0705C28.8451 38.0705 28.8451 38.0705 28.8451 38.0705C28.8451 38.0705 28.8451 38.0705 28.8451 38.0705C28.8451 38.0705 28.8451 38.0705 28.845 38.0705C28.845 38.0705 28.845 38.0705 28.845 38.0705C28.845 38.0705 28.845 38.0705 28.845 38.0705C28.845 38.0705 28.8449 38.0705 28.8449 38.0705C28.8449 38.0705 28.8449 38.0705 28.8449 38.0705C28.8449 38.0705 28.8449 38.0705 28.8449 38.0705C28.8448 38.0705 28.8448 38.0705 28.8448 38.0705C28.8448 38.0705 28.8448 38.0706 28.8448 38.0706C28.8448 38.0706 28.8447 38.0706 28.8447 38.0706C28.8447 38.0706 28.8447 38.0706 28.8447 38.0706C28.8447 38.0706 28.8447 38.0706 28.8447 38.0706C28.8446 38.0706 28.8446 38.0706 28.8446 38.0706C28.8446 38.0706 28.8446 38.0706 28.8446 38.0706C28.8446 38.0706 28.8446 38.0706 28.8445 38.0706C28.8445 38.0706 28.8445 38.0706 28.8445 38.0706C28.8445 38.0706 28.8445 38.0706 28.8445 38.0706C28.8445 38.0706 28.8444 38.0706 28.8444 38.0706C28.8444 38.0706 28.8444 38.0707 28.8444 38.0707C28.8444 38.0707 28.8444 38.0707 28.8444 38.0707C28.8443 38.0707 28.8443 38.0707 28.8443 38.0707C28.8443 38.0707 28.8443 38.0707 28.8443 38.0707C28.8443 38.0707 28.8443 38.0707 28.8442 38.0707C28.8442 38.0707 28.8442 38.0707 28.8442 38.0707C28.8442 38.0707 28.8442 38.0707 28.8442 38.0707C28.8442 38.0707 28.8441 38.0707 28.8441 38.0707C28.8441 38.0707 28.8441 38.0707 28.8441 38.0707C28.8441 38.0707 28.8441 38.0707 28.8441 38.0707C28.844 38.0708 28.844 38.0708 28.844 38.0708C28.844 38.0708 28.844 38.0708 28.844 38.0708C28.844 38.0708 28.844 38.0708 28.8439 38.0708C28.8439 38.0708 28.8439 38.0708 28.8439 38.0708C28.8439 38.0708 28.8439 38.0708 28.8439 38.0708C28.8439 38.0708 28.8438 38.0708 28.8438 38.0708C28.8438 38.0708 28.8438 38.0708 28.8438 38.0708C28.8438 38.0708 28.8438 38.0708 28.8438 38.0708C28.8437 38.0708 28.8437 38.0708 28.8437 38.0708C28.8437 38.0708 28.8437 38.0708 28.8437 38.0708C28.8437 38.0709 28.8437 38.0709 28.8436 38.0709C28.8436 38.0709 28.8436 38.0709 28.8436 38.0709C28.8436 38.0709 28.8436 38.0709 28.8436 38.0709C28.8436 38.0709 28.8435 38.0709 28.8435 38.0709C28.8435 38.0709 28.8435 38.0709 28.8435 38.0709C28.8435 38.0709 28.8435 38.0709 28.8435 38.0709C28.8434 38.0709 28.8434 38.0709 28.8434 38.0709C28.8434 38.0709 28.8434 38.0709 28.8434 38.0709C28.8434 38.0709 28.8434 38.0709 28.8433 38.0709C28.8433 38.0709 28.8433 38.0709 28.8433 38.0709C28.8433 38.071 28.8433 38.071 28.8433 38.071C28.8433 38.071 28.8432 38.071 28.8432 38.071C28.8432 38.071 28.8432 38.071 28.8432 38.071C28.8432 38.071 28.8432 38.071 28.8432 38.071C28.8431 38.071 28.8431 38.071 28.8431 38.071C28.8431 38.071 28.8431 38.071 28.8431 38.071C28.8431 38.071 28.8431 38.071 28.8431 38.071C28.843 38.071 28.843 38.071 28.843 38.071C28.843 38.071 28.843 38.071 28.843 38.071C28.843 38.071 28.843 38.071 28.8429 38.071C28.8429 38.071 28.8429 38.0711 28.8429 38.0711C28.8429 38.0711 28.8429 38.0711 28.8429 38.0711C28.8429 38.0711 28.8428 38.0711 28.8428 38.0711C28.8428 38.0711 28.8428 38.0711 28.8428 38.0711C28.8428 38.0711 28.8428 38.0711 28.8428 38.0711C28.8427 38.0711 28.8427 38.0711 28.8427 38.0711C28.8427 38.0711 28.8427 38.0711 28.8427 38.0711C28.8427 38.0711 28.8427 38.0711 28.8427 38.0711C28.8426 38.0711 28.8426 38.0711 28.8426 38.0711C28.8426 38.0711 28.8426 38.0711 28.8426 38.0711C28.8426 38.0711 28.8426 38.0711 28.8425 38.0712C28.8425 38.0712 28.8425 38.0712 28.8425 38.0712C28.8425 38.0712 28.8425 38.0712 28.8425 38.0712C28.8425 38.0712 28.8425 38.0712 28.8424 38.0712C28.8424 38.0712 28.8424 38.0712 28.8424 38.0712C28.8424 38.0712 28.8424 38.0712 28.8424 38.0712C28.8424 38.0712 28.8423 38.0712 28.8423 38.0712C28.8423 38.0712 28.8423 38.0712 28.8423 38.0712C28.8423 38.0712 28.8423 38.0712 28.8423 38.0712C28.8423 38.0712 28.8422 38.0712 28.8422 38.0712C28.8422 38.0712 28.8422 38.0712 28.8422 38.0712C28.8422 38.0712 28.8422 38.0713 28.8422 38.0713C28.8421 38.0713 28.8421 38.0713 28.8421 38.0713C28.8421 38.0713 28.8421 38.0713 28.8421 38.0713C28.8421 38.0713 28.8421 38.0713 28.8421 38.0713C28.842 38.0713 28.842 38.0713 28.842 38.0713C28.842 38.0713 28.842 38.0713 28.842 38.0713C28.842 38.0713 28.842 38.0713 28.8419 38.0713C28.8419 38.0713 28.8419 38.0713 28.8419 38.0713C28.8419 38.0713 28.8419 38.0713 28.8419 38.0713C28.8419 38.0713 28.8419 38.0713 28.8418 38.0713C28.8418 38.0713 28.8418 38.0713 28.8418 38.0713C28.8418 38.0714 28.8418 38.0714 28.8418 38.0714C28.8418 38.0714 28.8418 38.0714 28.8417 38.0714C28.8417 38.0714 28.8417 38.0714 28.8417 38.0714C28.8417 38.0714 28.8417 38.0714 28.8417 38.0714C28.8417 38.0714 28.8416 38.0714 28.8416 38.0714C28.8416 38.0714 28.8416 38.0714 28.8416 38.0714C28.8416 38.0714 28.8416 38.0714 28.8416 38.0714L28.8134 37.966L28.7852 37.8606C28.7852 37.8606 28.7852 37.8606 28.7852 37.8606C28.7852 37.8606 28.7852 37.8606 28.7852 37.8606C28.7852 37.8606 28.7852 37.8606 28.7853 37.8606C28.7853 37.8606 28.7853 37.8606 28.7853 37.8606C28.7853 37.8606 28.7853 37.8606 28.7853 37.8606C28.7853 37.8606 28.7853 37.8606 28.7854 37.8606C28.7854 37.8606 28.7854 37.8606 28.7854 37.8606C28.7854 37.8606 28.7854 37.8606 28.7854 37.8606C28.7854 37.8605 28.7854 37.8605 28.7855 37.8605C28.7855 37.8605 28.7855 37.8605 28.7855 37.8605C28.7855 37.8605 28.7855 37.8605 28.7855 37.8605C28.7855 37.8605 28.7856 37.8605 28.7856 37.8605C28.7856 37.8605 28.7856 37.8605 28.7856 37.8605C28.7856 37.8605 28.7856 37.8605 28.7856 37.8605C28.7856 37.8605 28.7857 37.8605 28.7857 37.8605C28.7857 37.8605 28.7857 37.8605 28.7857 37.8605C28.7857 37.8605 28.7857 37.8605 28.7857 37.8605C28.7858 37.8605 28.7858 37.8605 28.7858 37.8605C28.7858 37.8605 28.7858 37.8605 28.7858 37.8604C28.7858 37.8604 28.7858 37.8604 28.7858 37.8604C28.7859 37.8604 28.7859 37.8604 28.7859 37.8604C28.7859 37.8604 28.7859 37.8604 28.7859 37.8604C28.7859 37.8604 28.7859 37.8604 28.786 37.8604C28.786 37.8604 28.786 37.8604 28.786 37.8604C28.786 37.8604 28.786 37.8604 28.786 37.8604C28.786 37.8604 28.786 37.8604 28.7861 37.8604C28.7861 37.8604 28.7861 37.8604 28.7861 37.8604C28.7861 37.8604 28.7861 37.8604 28.7861 37.8604C28.7861 37.8604 28.7862 37.8604 28.7862 37.8604C28.7862 37.8604 28.7862 37.8603 28.7862 37.8603C28.7862 37.8603 28.7862 37.8603 28.7862 37.8603C28.7862 37.8603 28.7863 37.8603 28.7863 37.8603C28.7863 37.8603 28.7863 37.8603 28.7863 37.8603C28.7863 37.8603 28.7863 37.8603 28.7863 37.8603C28.7864 37.8603 28.7864 37.8603 28.7864 37.8603C28.7864 37.8603 28.7864 37.8603 28.7864 37.8603C28.7864 37.8603 28.7864 37.8603 28.7865 37.8603C28.7865 37.8603 28.7865 37.8603 28.7865 37.8603C28.7865 37.8603 28.7865 37.8603 28.7865 37.8603C28.7865 37.8603 28.7865 37.8603 28.7866 37.8602C28.7866 37.8602 28.7866 37.8602 28.7866 37.8602C28.7866 37.8602 28.7866 37.8602 28.7866 37.8602C28.7866 37.8602 28.7867 37.8602 28.7867 37.8602C28.7867 37.8602 28.7867 37.8602 28.7867 37.8602C28.7867 37.8602 28.7867 37.8602 28.7867 37.8602C28.7868 37.8602 28.7868 37.8602 28.7868 37.8602C28.7868 37.8602 28.7868 37.8602 28.7868 37.8602C28.7868 37.8602 28.7868 37.8602 28.7869 37.8602C28.7869 37.8602 28.7869 37.8602 28.7869 37.8602C28.7869 37.8602 28.7869 37.8602 28.7869 37.8602C28.7869 37.8601 28.787 37.8601 28.787 37.8601C28.787 37.8601 28.787 37.8601 28.787 37.8601C28.787 37.8601 28.787 37.8601 28.787 37.8601C28.787 37.8601 28.7871 37.8601 28.7871 37.8601C28.7871 37.8601 28.7871 37.8601 28.7871 37.8601C28.7871 37.8601 28.7871 37.8601 28.7871 37.8601C28.7872 37.8601 28.7872 37.8601 28.7872 37.8601C28.7872 37.8601 28.7872 37.8601 28.7872 37.8601C28.7872 37.8601 28.7872 37.8601 28.7873 37.8601C28.7873 37.8601 28.7873 37.8601 28.7873 37.8601C28.7873 37.86 28.7873 37.86 28.7873 37.86C28.7873 37.86 28.7874 37.86 28.7874 37.86C28.7874 37.86 28.7874 37.86 28.7874 37.86C28.7874 37.86 28.7874 37.86 28.7874 37.86C28.7875 37.86 28.7875 37.86 28.7875 37.86C28.7875 37.86 28.7875 37.86 28.7875 37.86C28.7875 37.86 28.7875 37.86 28.7876 37.86C28.7876 37.86 28.7876 37.86 28.7876 37.86C28.7876 37.86 28.7876 37.86 28.7876 37.86C28.7876 37.86 28.7877 37.86 28.7877 37.86C28.7877 37.8599 28.7877 37.8599 28.7877 37.8599C28.7877 37.8599 28.7877 37.8599 28.7877 37.8599C28.7878 37.8599 28.7878 37.8599 28.7878 37.8599C28.7878 37.8599 28.7878 37.8599 28.7878 37.8599C28.7878 37.8599 28.7878 37.8599 28.7879 37.8599C28.7879 37.8599 28.7879 37.8599 28.7879 37.8599C28.7879 37.8599 28.7879 37.8599 28.7879 37.8599C28.7879 37.8599 28.788 37.8599 28.788 37.8599C28.788 37.8599 28.788 37.8599 28.788 37.8599C28.788 37.8599 28.788 37.8599 28.7881 37.8598C28.7881 37.8598 28.7881 37.8598 28.7881 37.8598C28.7881 37.8598 28.7881 37.8598 28.7881 37.8598C28.7881 37.8598 28.7882 37.8598 28.7882 37.8598C28.7882 37.8598 28.7882 37.8598 28.7882 37.8598C28.7882 37.8598 28.7882 37.8598 28.7882 37.8598C28.7883 37.8598 28.7883 37.8598 28.7883 37.8598C28.7883 37.8598 28.7883 37.8598 28.7883 37.8598C28.7883 37.8598 28.7883 37.8598 28.7884 37.8598C28.7884 37.8598 28.7884 37.8598 28.7884 37.8598C28.7884 37.8598 28.7884 37.8597 28.7884 37.8597C28.7884 37.8597 28.7885 37.8597 28.7885 37.8597C28.7885 37.8597 28.7885 37.8597 28.7885 37.8597C28.7885 37.8597 28.7885 37.8597 28.7885 37.8597C28.7886 37.8597 28.7886 37.8597 28.7886 37.8597C28.7886 37.8597 28.7886 37.8597 28.7886 37.8597C28.7886 37.8597 28.7887 37.8597 28.7887 37.8597C28.7887 37.8597 28.7887 37.8597 28.7887 37.8597C28.7887 37.8597 28.7887 37.8597 28.7887 37.8597C28.7888 37.8597 28.7888 37.8597 28.7888 37.8597C28.7888 37.8596 28.7888 37.8596 28.7888 37.8596C28.7888 37.8596 28.7888 37.8596 28.7889 37.8596C28.7889 37.8596 28.7889 37.8596 28.7889 37.8596C28.7889 37.8596 28.7889 37.8596 28.7889 37.8596C28.789 37.8596 28.789 37.8596 28.789 37.8596C28.789 37.8596 28.789 37.8596 28.789 37.8596C28.789 37.8596 28.789 37.8596 28.7891 37.8596C28.7891 37.8596 28.7891 37.8596 28.7891 37.8596C28.7891 37.8596 28.7891 37.8596 28.7891 37.8596C28.7891 37.8596 28.7892 37.8596 28.7892 37.8595C28.7892 37.8595 28.7892 37.8595 28.7892 37.8595C28.7892 37.8595 28.7892 37.8595 28.7893 37.8595C28.7893 37.8595 28.7893 37.8595 28.7893 37.8595C28.7893 37.8595 28.7893 37.8595 28.7893 37.8595C28.7893 37.8595 28.7894 37.8595 28.7894 37.8595C28.7894 37.8595 28.7894 37.8595 28.7894 37.8595C28.7894 37.8595 28.7894 37.8595 28.7895 37.8595C28.7895 37.8595 28.7895 37.8595 28.7895 37.8595C28.7895 37.8595 28.7895 37.8595 28.7895 37.8595C28.7895 37.8594 28.7896 37.8594 28.7896 37.8594C28.7896 37.8594 28.7896 37.8594 28.7896 37.8594C28.7896 37.8594 28.7896 37.8594 28.7897 37.8594C28.7897 37.8594 28.7897 37.8594 28.7897 37.8594C28.7897 37.8594 28.7897 37.8594 28.7897 37.8594C28.7897 37.8594 28.7898 37.8594 28.7898 37.8594C28.7898 37.8594 28.7898 37.8594 28.7898 37.8594C28.7898 37.8594 28.7898 37.8594 28.7899 37.8594C28.7899 37.8594 28.7899 37.8594 28.7899 37.8594C28.7899 37.8594 28.7899 37.8593 28.7899 37.8593C28.7899 37.8593 28.79 37.8593 28.79 37.8593C28.79 37.8593 28.79 37.8593 28.79 37.8593C28.79 37.8593 28.79 37.8593 28.7901 37.8593C28.7901 37.8593 28.7901 37.8593 28.7901 37.8593C28.7901 37.8593 28.7901 37.8593 28.7901 37.8593C28.7901 37.8593 28.7902 37.8593 28.7902 37.8593C28.7902 37.8593 28.7902 37.8593 28.7902 37.8593C28.7902 37.8593 28.7902 37.8593 28.7903 37.8593C28.7903 37.8593 28.7903 37.8593 28.7903 37.8592C28.7903 37.8592 28.7903 37.8592 28.7903 37.8592C28.7903 37.8592 28.7904 37.8592 28.7904 37.8592C28.7904 37.8592 28.7904 37.8592 28.7904 37.8592C28.7904 37.8592 28.7904 37.8592 28.7905 37.8592C28.7905 37.8592 28.7905 37.8592 28.7905 37.8592C28.7905 37.8592 28.7905 37.8592 28.7905 37.8592C28.7906 37.8592 28.7906 37.8592 28.7906 37.8592C28.7906 37.8592 28.7906 37.8592 28.7906 37.8592C28.7906 37.8592 28.7906 37.8592 28.7907 37.8591C28.7907 37.8591 28.7907 37.8591 28.7907 37.8591C28.7907 37.8591 28.7907 37.8591 28.7907 37.8591C28.7908 37.8591 28.7908 37.8591 28.7908 37.8591C28.7908 37.8591 28.7908 37.8591 28.7908 37.8591C28.7908 37.8591 28.7909 37.8591 28.7909 37.8591C28.7909 37.8591 28.7909 37.8591 28.7909 37.8591C28.7909 37.8591 28.7909 37.8591 28.7909 37.8591C28.791 37.8591 28.791 37.8591 28.791 37.8591C28.791 37.8591 28.791 37.8591 28.791 37.859C28.791 37.859 28.7911 37.859 28.7911 37.859C28.7911 37.859 28.7911 37.859 28.7911 37.859C28.7911 37.859 28.7911 37.859 28.7912 37.859C28.7912 37.859 28.7912 37.859 28.7912 37.859C28.7912 37.859 28.7912 37.859 28.7912 37.859C28.7913 37.859 28.7913 37.859 28.7913 37.859C28.7913 37.859 28.7913 37.859 28.7913 37.859C28.7913 37.859 28.7913 37.859 28.7914 37.859C28.7914 37.859 28.7914 37.859 28.7914 37.8589C28.7914 37.8589 28.7914 37.8589 28.7914 37.8589C28.7915 37.8589 28.7915 37.8589 28.7915 37.8589C28.7915 37.8589 28.7915 37.8589 28.7915 37.8589C28.7915 37.8589 28.7916 37.8589 28.7916 37.8589C28.7916 37.8589 28.7916 37.8589 28.7916 37.8589C28.7916 37.8589 28.7916 37.8589 28.7917 37.8589C28.7917 37.8589 28.7917 37.8589 28.7917 37.8589C28.7917 37.8589 28.7917 37.8589 28.7917 37.8589C28.7918 37.8589 28.7918 37.8589 28.7918 37.8588C28.7918 37.8588 28.7918 37.8588 28.7918 37.8588C28.7918 37.8588 28.7918 37.8588 28.7919 37.8588C28.7919 37.8588 28.7919 37.8588 28.7919 37.8588C28.7919 37.8588 28.7919 37.8588 28.7919 37.8588C28.792 37.8588 28.792 37.8588 28.792 37.8588C28.792 37.8588 28.792 37.8588 28.792 37.8588C28.792 37.8588 28.7921 37.8588 28.7921 37.8588C28.7921 37.8588 28.7921 37.8588 28.7921 37.8588C28.7921 37.8588 28.7921 37.8588 28.7922 37.8587C28.7922 37.8587 28.7922 37.8587 28.7922 37.8587C28.7922 37.8587 28.7922 37.8587 28.7922 37.8587C28.7923 37.8587 28.7923 37.8587 28.7923 37.8587C28.7923 37.8587 28.7923 37.8587 28.7923 37.8587C28.7923 37.8587 28.7924 37.8587 28.7924 37.8587C28.7924 37.8587 28.7924 37.8587 28.7924 37.8587C28.7924 37.8587 28.7924 37.8587 28.7925 37.8587C28.7925 37.8587 28.7925 37.8587 28.7925 37.8587C28.7925 37.8587 28.7925 37.8586 28.7925 37.8586C28.7926 37.8586 28.7926 37.8586 28.7926 37.8586C28.7926 37.8586 28.7926 37.8586 28.7926 37.8586C28.7926 37.8586 28.7927 37.8586 28.7927 37.8586C28.7927 37.8586 28.7927 37.8586 28.7927 37.8586C28.7927 37.8586 28.7927 37.8586 28.7928 37.8586C28.7928 37.8586 28.7928 37.8586 28.7928 37.8586C28.7928 37.8586 28.7928 37.8586 28.7928 37.8586C28.7929 37.8586 28.7929 37.8586 28.7929 37.8586C28.7929 37.8585 28.7929 37.8585 28.7929 37.8585C28.7929 37.8585 28.793 37.8585 28.793 37.8585C28.793 37.8585 28.793 37.8585 28.793 37.8585C28.793 37.8585 28.793 37.8585 28.7931 37.8585C28.7931 37.8585 28.7931 37.8585 28.7931 37.8585C28.7931 37.8585 28.7931 37.8585 28.7931 37.8585C28.7932 37.8585 28.7932 37.8585 28.7932 37.8585C28.7932 37.8585 28.7932 37.8585 28.7932 37.8585C28.7932 37.8585 28.7933 37.8585 28.7933 37.8585C28.7933 37.8584 28.7933 37.8584 28.7933 37.8584C28.7933 37.8584 28.7933 37.8584 28.7934 37.8584C28.7934 37.8584 28.7934 37.8584 28.7934 37.8584C28.7934 37.8584 28.7934 37.8584 28.7934 37.8584C28.7935 37.8584 28.7935 37.8584 28.7935 37.8584C28.7935 37.8584 28.7935 37.8584 28.7935 37.8584C28.7935 37.8584 28.7936 37.8584 28.7936 37.8584C28.7936 37.8584 28.7936 37.8584 28.7936 37.8584C28.7936 37.8584 28.7936 37.8583 28.7937 37.8583C28.7937 37.8583 28.7937 37.8583 28.7937 37.8583C28.7937 37.8583 28.7937 37.8583 28.7937 37.8583C28.7938 37.8583 28.7938 37.8583 28.7938 37.8583C28.7938 37.8583 28.7938 37.8583 28.7938 37.8583C28.7938 37.8583 28.7939 37.8583 28.7939 37.8583C28.7939 37.8583 28.7939 37.8583 28.7939 37.8583C28.7939 37.8583 28.7939 37.8583 28.794 37.8583C28.794 37.8583 28.794 37.8583 28.794 37.8583C28.794 37.8582 28.794 37.8582 28.794 37.8582C28.7941 37.8582 28.7941 37.8582 28.7941 37.8582C28.7941 37.8582 28.7941 37.8582 28.7941 37.8582C28.7941 37.8582 28.7942 37.8582 28.7942 37.8582C28.7942 37.8582 28.7942 37.8582 28.7942 37.8582C28.7942 37.8582 28.7942 37.8582 28.7943 37.8582C28.7943 37.8582 28.7943 37.8582 28.7943 37.8582C28.7943 37.8582 28.7943 37.8582 28.7944 37.8582C28.7944 37.8582 28.7944 37.8582 28.7944 37.8581C28.7944 37.8581 28.7944 37.8581 28.7944 37.8581C28.7945 37.8581 28.7945 37.8581 28.7945 37.8581C28.7945 37.8581 28.7945 37.8581 28.7945 37.8581C28.7945 37.8581 28.7946 37.8581 28.7946 37.8581C28.7946 37.8581 28.7946 37.8581 28.7946 37.8581C28.7946 37.8581 28.7946 37.8581 28.7947 37.8581C28.7947 37.8581 28.7947 37.8581 28.7947 37.8581C28.7947 37.8581 28.7947 37.8581 28.7947 37.8581C28.7948 37.858 28.7948 37.858 28.7948 37.858C28.7948 37.858 28.7948 37.858 28.7948 37.858C28.7948 37.858 28.7949 37.858 28.7949 37.858C28.7949 37.858 28.7949 37.858 28.7949 37.858C28.7949 37.858 28.795 37.858 28.795 37.858C28.795 37.858 28.795 37.858 28.795 37.858C28.795 37.858 28.795 37.858 28.7951 37.858C28.7951 37.858 28.7951 37.858 28.7951 37.858C28.7951 37.858 28.7951 37.858 28.7951 37.8579C28.7952 37.8579 28.7952 37.8579 28.7952 37.8579C28.7952 37.8579 28.7952 37.8579 28.7952 37.8579C28.7952 37.8579 28.7953 37.8579 28.7953 37.8579C28.7953 37.8579 28.7953 37.8579 28.7953 37.8579C28.7953 37.8579 28.7954 37.8579 28.7954 37.8579C28.7954 37.8579 28.7954 37.8579 28.7954 37.8579C28.7954 37.8579 28.7954 37.8579 28.7955 37.8579C28.7955 37.8579 28.7955 37.8579 28.7955 37.8579C28.7955 37.8578 28.7955 37.8578 28.7955 37.8578C28.7956 37.8578 28.7956 37.8578 28.7956 37.8578C28.7956 37.8578 28.7956 37.8578 28.7956 37.8578C28.7956 37.8578 28.7957 37.8578 28.7957 37.8578C28.7957 37.8578 28.7957 37.8578 28.7957 37.8578C28.7957 37.8578 28.7958 37.8578 28.7958 37.8578C28.7958 37.8578 28.7958 37.8578 28.7958 37.8578C28.7958 37.8578 28.7958 37.8578 28.7959 37.8578C28.7959 37.8578 28.7959 37.8577 28.7959 37.8577C28.7959 37.8577 28.7959 37.8577 28.7959 37.8577C28.796 37.8577 28.796 37.8577 28.796 37.8577C28.796 37.8577 28.796 37.8577 28.796 37.8577C28.7961 37.8577 28.7961 37.8577 28.7961 37.8577C28.7961 37.8577 28.7961 37.8577 28.7961 37.8577C28.7961 37.8577 28.7962 37.8577 28.7962 37.8577C28.7962 37.8577 28.7962 37.8577 28.7962 37.8577C28.7962 37.8577 28.7962 37.8577 28.7963 37.8576C28.7963 37.8576 28.7963 37.8576 28.7963 37.8576C28.7963 37.8576 28.7963 37.8576 28.7964 37.8576C28.7964 37.8576 28.7964 37.8576 28.7964 37.8576C28.7964 37.8576 28.7964 37.8576 28.7964 37.8576C28.7965 37.8576 28.7965 37.8576 28.7965 37.8576C28.7965 37.8576 28.7965 37.8576 28.7965 37.8576C28.7965 37.8576 28.7966 37.8576 28.7966 37.8576C28.7966 37.8576 28.7966 37.8576 28.7966 37.8575C28.7966 37.8575 28.7967 37.8575 28.7967 37.8575C28.7967 37.8575 28.7967 37.8575 28.7967 37.8575C28.7967 37.8575 28.7967 37.8575 28.7968 37.8575C28.7968 37.8575 28.7968 37.8575 28.7968 37.8575C28.7968 37.8575 28.7968 37.8575 28.7968 37.8575C28.7969 37.8575 28.7969 37.8575 28.7969 37.8575C28.7969 37.8575 28.7969 37.8575 28.7969 37.8575C28.797 37.8575 28.797 37.8575 28.797 37.8575C28.797 37.8574 28.797 37.8574 28.797 37.8574C28.797 37.8574 28.7971 37.8574 28.7971 37.8574C28.7971 37.8574 28.7971 37.8574 28.7971 37.8574C28.7971 37.8574 28.7971 37.8574 28.7972 37.8574C28.7972 37.8574 28.7972 37.8574 28.7972 37.8574C28.7972 37.8574 28.7972 37.8574 28.7973 37.8574C28.7973 37.8574 28.7973 37.8574 28.7973 37.8574C28.7973 37.8574 28.7973 37.8574 28.7973 37.8574C28.7974 37.8574 28.7974 37.8573 28.7974 37.8573C28.7974 37.8573 28.7974 37.8573 28.7974 37.8573C28.7975 37.8573 28.7975 37.8573 28.7975 37.8573C28.7975 37.8573 28.7975 37.8573 28.7975 37.8573C28.7975 37.8573 28.7976 37.8573 28.7976 37.8573C28.7976 37.8573 28.7976 37.8573 28.7976 37.8573C28.7976 37.8573 28.7977 37.8573 28.7977 37.8573C28.7977 37.8573 28.7977 37.8573 28.7977 37.8573C28.7977 37.8573 28.7977 37.8572 28.7978 37.8572C28.7978 37.8572 28.7978 37.8572 28.7978 37.8572C28.7978 37.8572 28.7978 37.8572 28.7978 37.8572C28.7979 37.8572 28.7979 37.8572 28.7979 37.8572C28.7979 37.8572 28.7979 37.8572 28.7979 37.8572C28.798 37.8572 28.798 37.8572 28.798 37.8572C28.798 37.8572 28.798 37.8572 28.798 37.8572C28.798 37.8572 28.7981 37.8572 28.7981 37.8572C28.7981 37.8572 28.7981 37.8572 28.7981 37.8571C28.7981 37.8571 28.7982 37.8571 28.7982 37.8571C28.7982 37.8571 28.7982 37.8571 28.7982 37.8571C28.7982 37.8571 28.7982 37.8571 28.7983 37.8571C28.7983 37.8571 28.7983 37.8571 28.7983 37.8571C28.7983 37.8571 28.7983 37.8571 28.7984 37.8571C28.7984 37.8571 28.7984 37.8571 28.7984 37.8571C28.7984 37.8571 28.7984 37.8571 28.7984 37.8571C28.7985 37.8571 28.7985 37.8571 28.7985 37.857C28.7985 37.857 28.7985 37.857 28.7985 37.857C28.7986 37.857 28.7986 37.857 28.7986 37.857C28.7986 37.857 28.7986 37.857 28.7986 37.857C28.7986 37.857 28.7987 37.857 28.7987 37.857C28.7987 37.857 28.7987 37.857 28.7987 37.857C28.7987 37.857 28.7988 37.857 28.7988 37.857C28.7988 37.857 28.7988 37.857 28.7988 37.857C28.7988 37.857 28.7988 37.857 28.7989 37.8569C28.7989 37.8569 28.7989 37.8569 28.7989 37.8569C28.7989 37.8569 28.7989 37.8569 28.799 37.8569C28.799 37.8569 28.799 37.8569 28.799 37.8569C28.799 37.8569 28.799 37.8569 28.799 37.8569C28.7991 37.8569 28.7991 37.8569 28.7991 37.8569C28.7991 37.8569 28.7991 37.8569 28.7991 37.8569C28.7992 37.8569 28.7992 37.8569 28.7992 37.8569C28.7992 37.8569 28.7992 37.8569 28.7992 37.8568C28.7992 37.8568 28.7993 37.8568 28.7993 37.8568C28.7993 37.8568 28.7993 37.8568 28.7993 37.8568C28.7993 37.8568 28.7994 37.8568 28.7994 37.8568C28.7994 37.8568 28.7994 37.8568 28.7994 37.8568C28.7994 37.8568 28.7994 37.8568 28.7995 37.8568C28.7995 37.8568 28.7995 37.8568 28.7995 37.8568C28.7995 37.8568 28.7995 37.8568 28.7996 37.8568C28.7996 37.8568 28.7996 37.8568 28.7996 37.8568C28.7996 37.8567 28.7996 37.8567 28.7996 37.8567C28.7997 37.8567 28.7997 37.8567 28.7997 37.8567C28.7997 37.8567 28.7997 37.8567 28.7997 37.8567C28.7998 37.8567 28.7998 37.8567 28.7998 37.8567C28.7998 37.8567 28.7998 37.8567 28.7998 37.8567C28.7999 37.8567 28.7999 37.8567 28.7999 37.8567C28.7999 37.8567 28.7999 37.8567 28.7999 37.8567C28.7999 37.8567 28.8 37.8567 28.8 37.8567C28.8 37.8566 28.8 37.8566 28.8 37.8566C28.8 37.8566 28.8001 37.8566 28.8001 37.8566C28.8001 37.8566 28.8001 37.8566 28.8001 37.8566C28.8001 37.8566 28.8001 37.8566 28.8002 37.8566C28.8002 37.8566 28.8002 37.8566 28.8002 37.8566C28.8002 37.8566 28.8002 37.8566 28.8003 37.8566C28.8003 37.8566 28.8003 37.8566 28.8003 37.8566C28.8003 37.8566 28.8003 37.8566 28.8003 37.8566C28.8004 37.8565 28.8004 37.8565 28.8004 37.8565C28.8004 37.8565 28.8004 37.8565 28.8004 37.8565C28.8005 37.8565 28.8005 37.8565 28.8005 37.8565C28.8005 37.8565 28.8005 37.8565 28.8005 37.8565C28.8006 37.8565 28.8006 37.8565 28.8006 37.8565C28.8006 37.8565 28.8006 37.8565 28.8006 37.8565C28.8006 37.8565 28.8007 37.8565 28.8007 37.8565C28.8007 37.8565 28.8007 37.8565 28.8007 37.8564C28.8007 37.8564 28.8008 37.8564 28.8008 37.8564C28.8008 37.8564 28.8008 37.8564 28.8008 37.8564C28.8008 37.8564 28.8008 37.8564 28.8009 37.8564C28.8009 37.8564 28.8009 37.8564 28.8009 37.8564C28.8009 37.8564 28.8009 37.8564 28.801 37.8564C28.801 37.8564 28.801 37.8564 28.801 37.8564C28.801 37.8564 28.801 37.8564 28.8011 37.8564C28.8011 37.8564 28.8011 37.8564 28.8011 37.8563C28.8011 37.8563 28.8011 37.8563 28.8011 37.8563C28.8012 37.8563 28.8012 37.8563 28.8012 37.8563C28.8012 37.8563 28.8012 37.8563 28.8012 37.8563C28.8013 37.8563 28.8013 37.8563 28.8013 37.8563C28.8013 37.8563 28.8013 37.8563 28.8013 37.8563C28.8013 37.8563 28.8014 37.8563 28.8014 37.8563C28.8014 37.8563 28.8014 37.8563 28.8014 37.8563C28.8014 37.8563 28.8015 37.8563 28.8015 37.8562C28.8015 37.8562 28.8015 37.8562 28.8015 37.8562C28.8015 37.8562 28.8016 37.8562 28.8016 37.8562C28.8016 37.8562 28.8016 37.8562 28.8016 37.8562C28.8016 37.8562 28.8016 37.8562 28.8017 37.8562C28.8017 37.8562 28.8017 37.8562 28.8017 37.8562C28.8017 37.8562 28.8017 37.8562 28.8018 37.8562C28.8018 37.8562 28.8018 37.8562 28.8018 37.8562C28.8018 37.8562 28.8018 37.8562 28.8019 37.8561C28.8019 37.8561 28.8019 37.8561 28.8019 37.8561C28.8019 37.8561 28.8019 37.8561 28.8019 37.8561C28.802 37.8561 28.802 37.8561 28.802 37.8561C28.802 37.8561 28.802 37.8561 28.802 37.8561C28.8021 37.8561 28.8021 37.8561 28.8021 37.8561C28.8021 37.8561 28.8021 37.8561 28.8021 37.8561C28.8022 37.8561 28.8022 37.8561 28.8022 37.8561C28.8022 37.8561 28.8022 37.856 28.8022 37.856C28.8022 37.856 28.8023 37.856 28.8023 37.856C28.8023 37.856 28.8023 37.856 28.8023 37.856C28.8023 37.856 28.8024 37.856 28.8024 37.856C28.8024 37.856 28.8024 37.856 28.8024 37.856C28.8024 37.856 28.8025 37.856 28.8025 37.856C28.8025 37.856 28.8025 37.856 28.8025 37.856C28.8025 37.856 28.8025 37.856 28.8026 37.856C28.8026 37.856 28.8026 37.8559 28.8026 37.8559C28.8026 37.8559 28.8026 37.8559 28.8027 37.8559C28.8027 37.8559 28.8027 37.8559 28.8027 37.8559C28.8027 37.8559 28.8027 37.8559 28.8028 37.8559C28.8028 37.8559 28.8028 37.8559 28.8028 37.8559C28.8028 37.8559 28.8028 37.8559 28.8028 37.8559C28.8029 37.8559 28.8029 37.8559 28.8029 37.8559C28.8029 37.8559 28.8029 37.8559 28.8029 37.8559C28.803 37.8559 28.803 37.8558 28.803 37.8558C28.803 37.8558 28.803 37.8558 28.803 37.8558C28.8031 37.8558 28.8031 37.8558 28.8031 37.8558C28.8031 37.8558 28.8031 37.8558 28.8031 37.8558C28.8031 37.8558 28.8032 37.8558 28.8032 37.8558C28.8032 37.8558 28.8032 37.8558 28.8032 37.8558C28.8032 37.8558 28.8033 37.8558 28.8033 37.8558C28.8033 37.8558 28.8033 37.8558 28.8033 37.8558C28.8033 37.8557 28.8034 37.8557 28.8034 37.8557C28.8034 37.8557 28.8034 37.8557 28.8034 37.8557C28.8034 37.8557 28.8034 37.8557 28.8035 37.8557C28.8035 37.8557 28.8035 37.8557 28.8035 37.8557C28.8035 37.8557 28.8035 37.8557 28.8036 37.8557C28.8036 37.8557 28.8036 37.8557 28.8036 37.8557C28.8036 37.8557 28.8036 37.8557 28.8037 37.8557C28.8037 37.8557 28.8037 37.8557 28.8037 37.8557C28.8037 37.8556 28.8037 37.8556 28.8037 37.8556C28.8038 37.8556 28.8038 37.8556 28.8038 37.8556C28.8038 37.8556 28.8038 37.8556 28.8038 37.8556C28.8039 37.8556 28.8039 37.8556 28.8039 37.8556C28.8039 37.8556 28.8039 37.8556 28.8039 37.8556C28.804 37.8556 28.804 37.8556 28.804 37.8556C28.804 37.8556 28.804 37.8556 28.804 37.8556C28.804 37.8556 28.8041 37.8556 28.8041 37.8555C28.8041 37.8555 28.8041 37.8555 28.8041 37.8555C28.8041 37.8555 28.8042 37.8555 28.8042 37.8555C28.8042 37.8555 28.8042 37.8555 28.8042 37.8555C28.8042 37.8555 28.8043 37.8555 28.8043 37.8555C28.8043 37.8555 28.8043 37.8555 28.8043 37.8555C28.8043 37.8555 28.8044 37.8555 28.8044 37.8555C28.8044 37.8555 28.8044 37.8555 28.8044 37.8555C28.8044 37.8555 28.8044 37.8555 28.8045 37.8554C28.8045 37.8554 28.8045 37.8554 28.8045 37.8554C28.8045 37.8554 28.8045 37.8554 28.8046 37.8554C28.8046 37.8554 28.8046 37.8554 28.8046 37.8554C28.8046 37.8554 28.8046 37.8554 28.8047 37.8554C28.8047 37.8554 28.8047 37.8554 28.8047 37.8554C28.8047 37.8554 28.8047 37.8554 28.8047 37.8554C28.8048 37.8554 28.8048 37.8554 28.8048 37.8554C28.8048 37.8554 28.8048 37.8553 28.8048 37.8553C28.8049 37.8553 28.8049 37.8553 28.8049 37.8553C28.8049 37.8553 28.8049 37.8553 28.8049 37.8553C28.805 37.8553 28.805 37.8553 28.805 37.8553C28.805 37.8553 28.805 37.8553 28.805 37.8553C28.8051 37.8553 28.8051 37.8553 28.8051 37.8553C28.8051 37.8553 28.8051 37.8553 28.8051 37.8553C28.8051 37.8553 28.8052 37.8553 28.8052 37.8553C28.8052 37.8553 28.8052 37.8552 28.8052 37.8552C28.8052 37.8552 28.8053 37.8552 28.8053 37.8552C28.8053 37.8552 28.8053 37.8552 28.8053 37.8552C28.8053 37.8552 28.8054 37.8552 28.8054 37.8552C28.8054 37.8552 28.8054 37.8552 28.8054 37.8552C28.8054 37.8552 28.8054 37.8552 28.8055 37.8552C28.8055 37.8552 28.8055 37.8552 28.8055 37.8552C28.8055 37.8552 28.8055 37.8552 28.8056 37.8552C28.8056 37.8551 28.8056 37.8551 28.8056 37.8551C28.8056 37.8551 28.8056 37.8551 28.8057 37.8551C28.8057 37.8551 28.8057 37.8551 28.8057 37.8551C28.8057 37.8551 28.8057 37.8551 28.8058 37.8551C28.8058 37.8551 28.8058 37.8551 28.8058 37.8551C28.8058 37.8551 28.8058 37.8551 28.8058 37.8551C28.8059 37.8551 28.8059 37.8551 28.8059 37.8551C28.8059 37.8551 28.8059 37.8551 28.8059 37.855C28.806 37.855 28.806 37.855 28.806 37.855C28.806 37.855 28.806 37.855 28.806 37.855C28.8061 37.855 28.8061 37.855 28.8061 37.855C28.8061 37.855 28.8061 37.855 28.8061 37.855C28.8062 37.855 28.8062 37.855 28.8062 37.855C28.8062 37.855 28.8062 37.855 28.8062 37.855C28.8062 37.855 28.8063 37.855 28.8063 37.855C28.8063 37.855 28.8063 37.855 28.8063 37.8549C28.8063 37.8549 28.8064 37.8549 28.8064 37.8549C28.8064 37.8549 28.8064 37.8549 28.8064 37.8549C28.8064 37.8549 28.8065 37.8549 28.8065 37.8549C28.8065 37.8549 28.8065 37.8549 28.8065 37.8549C28.8065 37.8549 28.8066 37.8549 28.8066 37.8549C28.8066 37.8549 28.8066 37.8549 28.8066 37.8549C28.8066 37.8549 28.8066 37.8549 28.8067 37.8549C28.8067 37.8549 28.8067 37.8548 28.8067 37.8548C28.8067 37.8548 28.8067 37.8548 28.8068 37.8548C28.8068 37.8548 28.8068 37.8548 28.8068 37.8548C28.8068 37.8548 28.8068 37.8548 28.8069 37.8548C28.8069 37.8548 28.8069 37.8548 28.8069 37.8548C28.8069 37.8548 28.8069 37.8548 28.8069 37.8548C28.807 37.8548 28.807 37.8548 28.807 37.8548C28.807 37.8548 28.807 37.8548 28.807 37.8548C28.8071 37.8547 28.8071 37.8547 28.8071 37.8547C28.8071 37.8547 28.8071 37.8547 28.8071 37.8547C28.8072 37.8547 28.8072 37.8547 28.8072 37.8547C28.8072 37.8547 28.8072 37.8547 28.8072 37.8547C28.8073 37.8547 28.8073 37.8547 28.8073 37.8547C28.8073 37.8547 28.8073 37.8547 28.8073 37.8547L28.8355 37.9601Z" fill="#082422" mask="url(#path-34-inside-2_664_11599)"/>
<path d="M43.9058 55.1765C45.042 54.8011 45.9211 54.2216 46.5749 53.6061L43.9058 55.1765Z" stroke="#082422" stroke-width="0.109103" stroke-miterlimit="10" stroke-linecap="round" stroke-linejoin="round"/>
<path d="M43.5418 56.771C43.929 56.672 44.2733 56.5465 44.576 56.4086L43.5418 56.771Z" stroke="#082422" stroke-width="0.109103" stroke-miterlimit="10" stroke-linecap="round" stroke-linejoin="round"/>
</g>
<defs>
<clipPath id="clip0_664_11599">
<rect width="57" height="80" fill="white"/>
</clipPath>
</defs>
</svg>
