<svg width="77" height="80" viewBox="0 0 77 80" fill="none" xmlns="http://www.w3.org/2000/svg">
<g clip-path="url(#clip0_664_11622)">
<path d="M8.72183 29.1122C8.72183 29.1122 7.20352 28.8686 6.14901 28.8684C6.06161 28.8695 5.97925 28.8729 5.90336 28.8821C6.42032 29.8253 6.68516 30.7764 6.82555 31.3787C6.90877 31.7396 6.97521 32.1324 6.83681 32.4724C7.24369 32.688 7.7051 32.8401 8.20459 32.8973C10.4841 33.1613 11.2527 33.1368 11.2527 33.1368L8.72183 29.1122Z" fill="#E1776E"/>
<path d="M8.72353 29.1117C8.72353 29.1117 7.20563 28.8682 6.1514 28.868C3.65374 28.867 4.00013 33.2043 8.34379 33.2564C10.6226 33.5203 11.2501 33.1369 11.2501 33.1369" fill="#FFCE9B"/>
<path d="M6.1514 28.868L6.15116 28.9436L6.15117 28.9436L6.1514 28.868ZM8.34379 33.2564L8.3527 33.1809L8.34491 33.1808L8.34379 33.2564ZM8.72353 29.1117C8.73565 29.0371 8.73564 29.0371 8.73562 29.0371C8.73561 29.0371 8.73559 29.0371 8.73556 29.0371C8.73551 29.0371 8.73543 29.0371 8.73534 29.037C8.73514 29.037 8.73486 29.037 8.73448 29.0369C8.73372 29.0368 8.7326 29.0366 8.73113 29.0364C8.72818 29.0359 8.72381 29.0352 8.71808 29.0343C8.70661 29.0325 8.6897 29.0299 8.66782 29.0265C8.62405 29.0199 8.56042 29.0103 8.4808 28.9989C8.32156 28.976 8.09826 28.9454 7.8419 28.9149C7.32992 28.8539 6.68332 28.7925 6.15163 28.7924L6.1514 28.868L6.15117 28.9436C6.67371 28.9437 7.31317 29.0042 7.8237 29.065C8.0786 29.0954 8.30066 29.1258 8.45897 29.1485C8.53812 29.1599 8.60131 29.1694 8.64468 29.176C8.66636 29.1793 8.68309 29.1819 8.69437 29.1837C8.70001 29.1846 8.70429 29.1853 8.70715 29.1857C8.70859 29.1859 8.70966 29.1861 8.71037 29.1862C8.71073 29.1863 8.71099 29.1863 8.71117 29.1864C8.71125 29.1864 8.71132 29.1864 8.71136 29.1864C8.71138 29.1864 8.71139 29.1864 8.7114 29.1864C8.71141 29.1864 8.71141 29.1864 8.72353 29.1117ZM6.1514 28.868L6.15164 28.7924C5.50308 28.7921 5.03104 29.0749 4.76531 29.5063C4.50118 29.9351 4.44621 30.5017 4.60971 31.0636C4.938 32.192 6.14417 33.3056 8.34268 33.332L8.34379 33.2564L8.34491 33.1808C6.19976 33.1551 5.06089 32.074 4.75449 31.0209C4.60064 30.4921 4.6559 29.9713 4.89355 29.5855C5.1296 29.2023 5.55088 28.9433 6.15116 28.9436L6.1514 28.868ZM8.34379 33.2564L8.33493 33.3315C9.47904 33.464 10.2123 33.4345 10.6619 33.3705C10.8868 33.3385 11.041 33.2978 11.1403 33.2644C11.1899 33.2476 11.2259 33.2327 11.25 33.2216C11.2621 33.216 11.2713 33.2113 11.2777 33.2079C11.2809 33.2062 11.2835 33.2048 11.2854 33.2037C11.2863 33.2032 11.2871 33.2027 11.2878 33.2023C11.2881 33.2021 11.2884 33.202 11.2886 33.2018C11.2887 33.2017 11.2888 33.2017 11.2889 33.2016C11.289 33.2016 11.289 33.2015 11.2891 33.2015C11.2891 33.2015 11.2892 33.2015 11.2501 33.1369C11.211 33.0724 11.2111 33.0724 11.2111 33.0723C11.2111 33.0723 11.2112 33.0723 11.2112 33.0723C11.2113 33.0722 11.2113 33.0722 11.2114 33.0722C11.2114 33.0721 11.2115 33.0721 11.2115 33.0721C11.2115 33.0721 11.2114 33.0722 11.2111 33.0724C11.2105 33.0727 11.2092 33.0734 11.2073 33.0744C11.2034 33.0765 11.1969 33.0798 11.1873 33.0842C11.1683 33.093 11.1374 33.106 11.0926 33.1211C11.003 33.1512 10.858 33.1899 10.6411 33.2208C10.2073 33.2825 9.4874 33.3127 8.35265 33.1813L8.34379 33.2564Z" fill="#082422"/>
<path d="M11.8659 38.5392C8.98351 39.2686 6.33563 39.6623 5.55966 37.5752C5.24434 36.7267 5.81435 35.3032 8.05852 34.4162L10.4245 33.4763" fill="#FFCE9B"/>
<path d="M5.55966 37.5752L5.489 37.6017L5.489 37.6017L5.55966 37.5752ZM8.05852 34.4162L8.086 34.4866L8.08612 34.4865L8.05852 34.4162ZM11.8659 38.5392L11.8476 38.4659C10.406 38.8307 9.03397 39.1084 7.92786 39.0379C7.37582 39.0028 6.89504 38.8811 6.50633 38.6442C6.11902 38.4082 5.81869 38.0552 5.63032 37.5486L5.55966 37.5752L5.489 37.6017C5.68861 38.1386 6.01026 38.5191 6.42774 38.7735C6.84382 39.027 7.35065 39.1527 7.91788 39.1888C9.05028 39.261 10.4434 38.9771 11.8841 38.6125L11.8659 38.5392ZM5.55966 37.5752L5.63032 37.5486C5.33702 36.7593 5.85579 35.368 8.086 34.4866L8.05852 34.4162L8.03104 34.3459C5.77292 35.2384 5.15166 36.694 5.489 37.6017L5.55966 37.5752ZM8.05852 34.4162L8.08612 34.4865L10.4521 33.5466L10.4245 33.4763L10.3969 33.406L8.03092 34.346L8.05852 34.4162Z" fill="#082422"/>
<path d="M55.6469 86.8172C54.1431 85.2145 51.551 82.3427 51.2473 82.0275C45.1091 75.6568 37.052 65.3193 30.3775 62.2821C27.0191 61.0055 25.6668 59.9591 22.6877 57.987C21.3258 57.0864 19.8634 56.3557 18.4993 55.4602C17.9187 55.079 17.4236 54.9153 16.7882 54.778C16.2264 54.6575 15.7647 54.4512 15.3707 54.0127C14.9466 53.54 14.862 53.5484 14.6951 52.9317C14.429 51.9562 14.7399 50.7137 15.3991 49.9322C15.7269 49.5421 16.1682 49.2704 16.6093 49.0198C17.2967 48.6293 18.0034 48.2773 18.7308 47.9674C19.3497 47.7006 19.8397 47.6275 20.4771 47.5251C21.2258 47.4079 21.9959 46.9511 22.6936 46.6613C23.4998 46.3285 24.3024 45.997 25.1215 45.6968C27.698 44.7486 30.5675 43.9817 33.2786 44.803C35.3287 45.4218 36.9863 46.9047 38.5726 48.3447C41.8645 51.3366 45.155 54.3249 48.4469 57.3168C49.2206 58.0194 50.0059 58.7299 50.9318 59.2128C51.9779 59.7569 72.6458 79.2971 73.7842 79.6076" fill="#FFCE9B"/>
<path d="M51.2473 82.0275L51.3016 81.9749L51.2473 82.0275ZM30.3775 62.2821L30.4089 62.2131L30.4044 62.2114L30.3775 62.2821ZM22.6877 57.987L22.7294 57.9238L22.7293 57.9238L22.6877 57.987ZM18.4993 55.4602L18.4579 55.5235L18.4579 55.5235L18.4993 55.4602ZM16.7882 54.778L16.8043 54.7041L16.8041 54.7041L16.7882 54.778ZM15.3707 54.0127L15.3146 54.0633L15.3146 54.0633L15.3707 54.0127ZM14.6951 52.9317L14.7678 52.9117L14.7678 52.9115L14.6951 52.9317ZM15.3991 49.9322L15.4566 49.9809L15.4567 49.9808L15.3991 49.9322ZM16.6093 49.0198L16.5723 48.954L16.5723 48.954L16.6093 49.0198ZM18.7308 47.9674L18.7602 48.037L18.7605 48.0368L18.7308 47.9674ZM20.4771 47.5251L20.4657 47.4504L20.4654 47.4505L20.4771 47.5251ZM22.6936 46.6613L22.665 46.5914L22.6649 46.5915L22.6936 46.6613ZM25.1215 45.6968L25.1472 45.7678L25.1473 45.7678L25.1215 45.6968ZM33.2786 44.803L33.2566 44.8754L33.2567 44.8754L33.2786 44.803ZM38.5726 48.3447L38.6233 48.2887L38.6233 48.2886L38.5726 48.3447ZM48.4469 57.3168L48.3961 57.3729L48.3962 57.3729L48.4469 57.3168ZM50.9318 59.2128L50.8969 59.2799L50.8969 59.28L50.9318 59.2128ZM55.6469 86.8172L55.7019 86.7653C54.2015 85.1662 51.6047 82.2895 51.3016 81.9749L51.2473 82.0275L51.193 82.0801C51.4972 82.3959 54.0848 85.2628 55.592 86.869L55.6469 86.8172ZM51.2473 82.0275L51.3016 81.9749C49.7681 80.3833 48.1146 78.5438 46.3915 76.631C44.6687 74.7186 42.8768 72.7334 41.0679 70.8522C37.4523 67.0921 33.7606 63.7385 30.4089 62.2133L30.3775 62.2821L30.3462 62.351C33.6689 63.863 37.343 67.1967 40.9592 70.9573C42.7661 72.8365 44.5565 74.8199 46.2794 76.7325C48.002 78.6447 49.6574 80.4863 51.193 82.0801L51.2473 82.0275ZM30.3775 62.2821L30.4044 62.2114C27.0553 60.9383 25.7102 59.8971 22.7294 57.9238L22.6877 57.987L22.646 58.0501C25.6234 60.021 26.9829 61.0727 30.3506 62.3528L30.3775 62.2821ZM22.6877 57.987L22.7293 57.9238C22.0462 57.4721 21.3381 57.0631 20.632 56.6561C19.9253 56.2487 19.2206 55.8433 18.5407 55.3969L18.4993 55.4602L18.4579 55.5235C19.142 55.9726 19.8506 56.3803 20.5566 56.7872C21.2632 57.1946 21.9673 57.6013 22.6461 58.0501L22.6877 57.987ZM18.4993 55.4602L18.5407 55.3969C17.95 55.0091 17.4454 54.8426 16.8043 54.7041L16.7882 54.778L16.7721 54.8519C17.4018 54.988 17.8874 55.1489 18.4579 55.5235L18.4993 55.4602ZM16.7882 54.778L16.8041 54.7041C16.2525 54.5858 15.807 54.3853 15.4268 53.962L15.3707 54.0127L15.3146 54.0633C15.7223 54.5172 16.2002 54.7293 16.7722 54.8519L16.7882 54.778ZM15.3707 54.0127L15.4268 53.962C15.3201 53.8431 15.2341 53.7537 15.1648 53.6794C15.095 53.6044 15.0424 53.5449 14.9979 53.4823C14.9107 53.3592 14.8506 53.2175 14.7678 52.9117L14.6951 52.9317L14.6223 52.9516C14.7065 53.2625 14.7721 53.425 14.8749 53.5701C14.9255 53.6415 14.984 53.7071 15.0545 53.7828C15.1256 53.8591 15.2091 53.9458 15.3146 54.0633L15.3707 54.0127ZM14.6951 52.9317L14.7678 52.9115C14.5088 51.9619 14.8122 50.7449 15.4566 49.9809L15.3991 49.9322L15.3416 49.8834C14.6676 50.6825 14.3492 51.9504 14.6223 52.9518L14.6951 52.9317ZM15.3991 49.9322L15.4567 49.9808C15.7749 49.6022 16.2053 49.3361 16.6464 49.0855L16.6093 49.0198L16.5723 48.954C16.1311 49.2047 15.6789 49.4821 15.3415 49.8836L15.3991 49.9322ZM16.6093 49.0198L16.6464 49.0855C17.3314 48.6964 18.0355 48.3457 18.7602 48.037L18.7308 47.9674L18.7015 47.8978C17.9714 48.2089 17.2621 48.5622 16.5723 48.954L16.6093 49.0198ZM18.7308 47.9674L18.7605 48.0368C19.3695 47.7743 19.8506 47.7023 20.4888 47.5998L20.4771 47.5251L20.4654 47.4505C19.8287 47.5527 19.3299 47.6269 18.7012 47.898L18.7308 47.9674ZM20.4771 47.5251L20.4885 47.5998C20.8728 47.5396 21.2598 47.3929 21.6347 47.2271C22.0153 47.0588 22.3724 46.8764 22.7223 46.7312L22.6936 46.6613L22.6649 46.5915C22.3171 46.7359 21.9403 46.9269 21.5742 47.0887C21.2025 47.2531 20.8301 47.3934 20.4657 47.4504L20.4771 47.5251ZM22.6936 46.6613L22.7221 46.7312C23.5286 46.3983 24.3298 46.0674 25.1472 45.7678L25.1215 45.6968L25.0958 45.6258C24.2751 45.9266 23.471 46.2587 22.665 46.5914L22.6936 46.6613ZM25.1215 45.6968L25.1473 45.7678C27.7225 44.8201 30.5711 44.0618 33.2566 44.8754L33.2786 44.803L33.3006 44.7306C30.5639 43.9015 27.6736 44.6772 25.0957 45.6258L25.1215 45.6968ZM33.2786 44.803L33.2567 44.8754C35.2879 45.4885 36.9334 46.9588 38.5219 48.4008L38.5726 48.3447L38.6233 48.2886C37.0392 46.8506 35.3695 45.3551 33.3005 44.7306L33.2786 44.803ZM38.5726 48.3447L38.5219 48.4008C40.1678 49.8968 41.8134 51.3918 43.459 52.8869C45.1046 54.3819 46.7502 55.8769 48.3961 57.3729L48.4469 57.3168L48.4976 57.2607C46.8516 55.7648 45.206 54.2697 43.5605 52.7747C41.9149 51.2796 40.2693 49.7846 38.6233 48.2887L38.5726 48.3447ZM48.4469 57.3168L48.3962 57.3729C49.1687 58.0744 49.961 58.7918 50.8969 59.2799L50.9318 59.2128L50.9667 59.1457C50.0508 58.6681 49.2725 57.9644 48.4976 57.2607L48.4469 57.3168ZM50.9318 59.2128L50.8969 59.28C50.9234 59.2937 50.9707 59.3257 51.0406 59.3787C51.1092 59.4307 51.1961 59.5003 51.3002 59.5865C51.5085 59.7588 51.7841 59.9962 52.1176 60.2895C52.7846 60.8761 53.6818 61.6849 54.733 62.6414C56.8353 64.5545 59.5522 67.0575 62.2724 69.5536C64.9924 72.0496 67.7157 74.5385 69.8302 76.423C70.8874 77.3652 71.7929 78.1567 72.4699 78.7225C72.8084 79.0054 73.0905 79.2325 73.3062 79.394C73.414 79.4747 73.5062 79.5396 73.581 79.5872C73.6534 79.6332 73.7166 79.6675 73.7642 79.6805L73.7842 79.6076L73.8042 79.5346C73.7807 79.5282 73.7345 79.5055 73.6619 79.4594C73.5917 79.4148 73.503 79.3523 73.3967 79.2727C73.1841 79.1136 72.9044 78.8885 72.5667 78.6063C71.8915 78.042 70.9874 77.2517 69.9305 76.3099C67.817 74.4262 65.0944 71.9379 62.3744 69.442C59.6546 66.9462 56.9372 64.4427 54.8345 62.5293C53.7832 61.5727 52.8852 60.7632 52.2172 60.1757C51.8833 59.8821 51.6064 59.6436 51.3964 59.4698C51.2915 59.3829 51.2028 59.3118 51.1317 59.258C51.062 59.2051 51.0056 59.166 50.9667 59.1457L50.9318 59.2128Z" fill="#082422"/>
<path d="M11.2606 43.7125C10.9458 44.1141 10.6056 44.9196 10.7653 45.8156C10.8801 46.4487 11.0694 46.3023 11.5987 46.6703C12.7305 47.465 14.3293 47.5212 15.5179 46.8102C16.6326 46.1453 17.3452 44.7016 16.8892 43.4875C16.4823 42.409 15.2419 41.6574 14.0967 41.7018C12.8605 41.7488 11.9942 42.78 11.2606 43.7125Z" fill="#FFCE9B" stroke="#082422" stroke-width="0.150995" stroke-miterlimit="10"/>
<path d="M18.0817 52.8414C18.8225 54.333 20.6424 54.9389 22.1303 54.1886L36.0257 47.2059C37.5151 46.4592 38.1241 44.6327 37.3797 43.1426L20.7441 9.72496C20.0033 8.23342 18.1834 7.62746 16.6955 8.37781L2.80005 15.3605C1.31069 16.1072 0.701692 17.9337 1.44613 19.4238L18.0817 52.8414Z" fill="#5AFFFE" stroke="#082422" stroke-width="0.150995" stroke-miterlimit="10"/>
<path d="M26.205 20.7173L26.2896 20.6745C26.3518 20.6452 26.3765 20.5662 26.3472 20.5035L24.09 15.9722C24.0609 15.9099 23.9822 15.8854 23.9196 15.9149L23.835 15.9577L26.2048 20.7169L26.205 20.7173Z" fill="#5AFFFE" stroke="#082422" stroke-width="0.150995" stroke-miterlimit="10"/>
<path d="M16.9956 9.03317C18.2091 8.42196 19.6897 8.91386 20.2959 10.1295L36.7897 43.2616C37.0828 43.8495 37.1296 44.5191 36.921 45.1449C36.7121 45.7709 36.2723 46.2798 35.6838 46.5758L21.9067 53.4985C21.8406 53.5316 21.7738 53.5618 21.706 53.5887C21.1703 53.8015 20.5819 53.8184 20.0283 53.6341C19.405 53.4262 18.8994 52.9872 18.6058 52.3982L2.11206 19.2661C1.8189 18.6781 1.77211 18.0086 1.98069 17.3827C2.18961 16.7569 2.62865 16.2483 3.21705 15.9522L4.65659 15.2312L14.9405 10.0649L16.9956 9.03317ZM17.4931 10.0324L15.4384 11.065L5.15408 16.2304L3.71453 16.9515C3.39292 17.1134 3.15275 17.3917 3.0382 17.735C2.93819 18.035 2.945 18.3523 3.05572 18.6422L3.10918 18.7649L19.6029 51.897C19.7639 52.2199 20.0408 52.4599 20.3829 52.5738C20.7245 52.6875 21.0887 52.6617 21.4095 52.5002L35.1872 45.5762C35.5094 45.414 35.7491 45.1359 35.8635 44.7927C35.9777 44.4499 35.9523 44.0853 35.792 43.764L19.2988 10.6307C18.9854 10.0029 18.2439 9.72787 17.6035 9.98224C17.5666 9.99691 17.5297 10.0143 17.4931 10.0324Z" fill="#0096A1" stroke="#082422" stroke-width="0.150995" stroke-miterlimit="10"/>
<path d="M17.1921 9.2764C18.176 8.7812 19.3757 9.17984 19.8673 10.165L36.5042 43.5838C36.9955 44.5693 36.5946 45.7739 35.6072 46.2708L21.711 53.2534C20.7268 53.7488 19.5264 53.3503 19.0334 52.3614L2.39738 18.9423C1.906 17.9568 2.3068 16.7522 3.29435 16.2554L4.74498 15.5278L15.1186 10.3175L17.1921 9.2764Z" fill="#DAFC35" stroke="#082422" stroke-width="0.150995" stroke-miterlimit="10"/>
<path d="M17.2253 9.34384L15.1527 10.3851L4.77894 15.5958L3.32793 16.3231C2.37747 16.8012 1.99177 17.9605 2.46473 18.9087L19.1009 52.3271C19.5753 53.279 20.7305 53.6627 21.6773 53.186L35.5733 46.2032C36.5237 45.725 36.9094 44.5657 36.4365 43.6175L19.8003 10.1991C19.3273 9.2509 18.1721 8.86713 17.2253 9.34384Z" stroke="#082422" stroke-width="0.150995" stroke-miterlimit="10"/>
<g style="mix-blend-mode:multiply" opacity="0.1">
<path d="M37.2569 44.2368L29.1005 27.8513C29.1238 28.2165 29.1992 28.5841 29.2803 28.931C29.8876 31.4867 30.9015 33.844 31.3573 36.4368C32.1257 40.8238 32.9135 44.7548 32.3066 49.0964L36.3047 47.0881C37.3531 46.5606 37.7802 45.2861 37.2569 44.2368Z" fill="#082422"/>
</g>
<path d="M63.8496 83.6042L77.0183 78.3568C73.1636 75.5446 55.6227 61.1151 51.8515 57.8397C48.7031 55.1051 45.5131 52.5714 44.0118 48.6652C43.5083 47.3517 42.3595 40.995 38.4242 34.7636C37.3997 33.1189 35.271 30.0821 34.0548 28.6379C33.7444 28.3047 32.1683 26.6878 31.8028 26.4234C31.0901 25.9079 30.1546 25.8535 29.3292 26.8098C28.4659 27.9404 29.9113 30.8237 30.3647 31.9349C31.8735 35.6369 33.9696 39.8427 34.0872 44.1687C34.1682 47.181 31.7775 49.4604 32.8324 53.1947C33.1973 54.4865 33.9786 55.6167 35.0297 56.4468C35.287 56.6502 35.5517 56.8444 35.8174 57.034" fill="#FFCE9B"/>
<path d="M77.0183 78.3568L77.0459 78.427L77.1733 78.3763L77.0627 78.2956L77.0183 78.3568ZM51.8515 57.8397L51.901 57.7825L51.8515 57.8397ZM44.0118 48.6652L43.9414 48.6924L43.9414 48.6925L44.0118 48.6652ZM38.4242 34.7636L38.3602 34.8038L38.3605 34.8042L38.4242 34.7636ZM34.0548 28.6379L34.1126 28.589L34.11 28.5862L34.0548 28.6379ZM31.8028 26.4234L31.847 26.3621L31.847 26.3621L31.8028 26.4234ZM29.3292 26.8098L29.2721 26.7603L29.2693 26.764L29.3292 26.8098ZM30.3647 31.9349L30.4345 31.9062L30.4345 31.9061L30.3647 31.9349ZM34.0872 44.1687L34.1625 44.1664L34.1625 44.1664L34.0872 44.1687ZM32.8324 53.1947L32.905 53.174L32.905 53.174L32.8324 53.1947ZM35.0297 56.4468L35.0764 56.3874L35.0764 56.3874L35.0297 56.4468ZM63.8496 83.6042L63.8773 83.6745L77.0459 78.427L77.0183 78.3568L76.9906 78.2865L63.8219 83.534L63.8496 83.6042ZM77.0183 78.3568L77.0627 78.2956C73.2107 75.4853 55.6717 61.0575 51.901 57.7825L51.8515 57.8397L51.8021 57.8969C55.5737 61.1727 73.1165 75.6038 76.9738 78.4179L77.0183 78.3568ZM51.8515 57.8397L51.901 57.7825C48.7474 55.0434 45.5752 52.5227 44.0822 48.6378L44.0118 48.6652L43.9414 48.6925C45.4509 52.6202 48.6589 55.1668 51.8021 57.8969L51.8515 57.8397ZM44.0118 48.6652L44.0822 48.6379C43.5859 47.3431 42.428 40.9619 38.488 34.7231L38.4242 34.7636L38.3605 34.8042C42.291 41.028 43.4308 47.3603 43.9414 48.6924L44.0118 48.6652ZM38.4242 34.7636L38.4882 34.7235C37.4624 33.0767 35.3316 30.0368 34.1125 28.5891L34.0548 28.6379L33.9972 28.6868C35.2103 30.1274 37.3369 33.161 38.3602 34.8038L38.4242 34.7636ZM34.0548 28.6379L34.11 28.5862C33.9539 28.4187 33.4816 27.9305 33.0028 27.4513C32.7633 27.2116 32.5218 26.9738 32.3172 26.7792C32.1139 26.586 31.9432 26.4317 31.847 26.3621L31.8028 26.4234L31.7586 26.4847C31.8451 26.5474 32.0085 26.6943 32.2132 26.889C32.4166 27.0824 32.6571 27.3192 32.8961 27.5584C33.3743 28.0371 33.8453 28.5239 33.9997 28.6896L34.0548 28.6379ZM31.8028 26.4234L31.847 26.3621C31.4793 26.0961 31.0494 25.9458 30.6012 25.9894C30.1521 26.0332 29.695 26.2706 29.2722 26.7604L29.3292 26.8098L29.3861 26.8592C29.7888 26.3927 30.2122 26.1792 30.6153 26.1399C31.0194 26.1005 31.4136 26.2352 31.7586 26.4848L31.8028 26.4234ZM29.3292 26.8098L29.2693 26.764C29.0379 27.0671 28.9661 27.4805 28.9877 27.9351C29.0093 28.3909 29.1253 28.899 29.2812 29.4023C29.5926 30.4074 30.0706 31.4139 30.2949 31.9637L30.3647 31.9349L30.4345 31.9061C30.2055 31.3448 29.7341 30.354 29.4252 29.3571C29.271 28.8593 29.1591 28.3651 29.1383 27.9275C29.1175 27.4888 29.1888 27.1178 29.389 26.8556L29.3292 26.8098ZM30.3647 31.9349L30.2948 31.9637C31.8073 35.6745 33.8947 39.8627 34.0118 44.1709L34.0872 44.1687L34.1625 44.1664C34.0445 39.8228 31.9398 35.5994 30.4345 31.9062L30.3647 31.9349ZM34.0872 44.1687L34.0118 44.1709C34.0519 45.6602 33.4817 46.9649 33.0229 48.3879C32.5654 49.8067 32.2265 51.3272 32.7599 53.2155L32.8324 53.1947L32.905 53.174C32.3835 51.3279 32.7125 49.8416 33.1663 48.434C33.6189 47.0305 34.2035 45.6894 34.1625 44.1664L34.0872 44.1687ZM32.8324 53.1947L32.7599 53.2155C33.1293 54.5235 33.9201 55.6668 34.9829 56.5063L35.0297 56.4468L35.0764 56.3874C34.0371 55.5665 33.2652 54.4496 32.905 53.174L32.8324 53.1947ZM35.0297 56.4468L34.9829 56.5063C35.2416 56.7107 35.5073 56.9057 35.7736 57.0957L35.8174 57.034L35.8613 56.9724C35.596 56.7832 35.3325 56.5898 35.0764 56.3874L35.0297 56.4468Z" fill="#082422"/>
<path d="M34.04 28.6136C33.7297 28.2805 32.1542 26.664 31.7889 26.3997C31.7468 26.3694 31.7042 26.3407 31.6605 26.3136L30.8375 27.0119C30.808 27.0371 30.8036 27.0811 30.8278 27.1109L30.8574 27.1478C30.9011 27.1975 31.9233 28.4364 33.1495 28.9582C33.3837 29.0592 33.651 29.075 33.8732 29.0081C33.9193 28.9944 33.9679 28.9755 34.0087 28.9588C34.0815 28.9207 34.144 28.8741 34.2038 28.8101C34.149 28.7442 34.0939 28.6785 34.0396 28.6138L34.04 28.6136Z" stroke="#082422" stroke-width="0.150995" stroke-miterlimit="10"/>
<path d="M20.4465 55.7244C21.8517 55.2877 22.5392 54.0885 21.4003 52.8608C20.9654 52.3924 20.3728 52.1083 19.7828 51.8734C18.9385 51.5342 18.0686 51.268 17.1816 51.0756C16.9025 51.0147 16.6176 50.9603 16.3337 50.9935C15.9653 51.0351 15.6314 51.218 15.3299 51.4299C14.4477 52.0545 14.5872 52.9326 15.0708 53.7131C15.4375 54.3048 16.0051 54.8331 16.4584 55.197C17.6364 56.141 19.05 56.1619 20.4465 55.7244Z" fill="#FFCE9B"/>
<path d="M14.8484 53.1296C14.8355 53.0899 14.7929 53.0683 14.7533 53.0814C14.7138 53.0945 14.6921 53.1372 14.7051 53.1769L14.7767 53.1532L14.8484 53.1296ZM16.4585 55.1976L16.4113 55.2567L16.4113 55.2567L16.4585 55.1976ZM20.4464 55.7251L20.4243 55.6529L20.4241 55.6529L20.4464 55.7251ZM21.4001 52.8616L21.4554 52.81L21.4554 52.81L21.4001 52.8616ZM19.7827 51.8743L19.7545 51.9445L19.7547 51.9445L19.7827 51.8743ZM17.2294 51.0083C17.1888 50.9993 17.1485 51.0252 17.1395 51.066C17.1305 51.1068 17.1562 51.147 17.1968 51.156L17.2131 51.0821L17.2294 51.0083ZM14.7767 53.1532L14.7051 53.1769C14.8425 53.5988 15.1181 53.9967 15.4326 54.3485C15.7476 54.7008 16.1052 55.0109 16.4113 55.2567L16.4585 55.1976L16.5058 55.1386C16.2027 54.8952 15.8522 54.591 15.545 54.2474C15.2374 53.9032 14.9767 53.5235 14.8484 53.1296L14.7767 53.1532ZM16.4585 55.1976L16.4113 55.2567C17.6157 56.2219 19.0582 56.2391 20.4687 55.7972L20.4464 55.7251L20.4241 55.6529C19.0417 56.086 17.6573 56.0614 16.5057 55.1385L16.4585 55.1976ZM20.4464 55.7251L20.4686 55.7973C21.1841 55.5749 21.7306 55.1543 21.9472 54.6182C22.1661 54.0761 22.0391 53.4392 21.4554 52.81L21.4001 52.8616L21.3448 52.9132C21.9001 53.5117 21.9987 54.0881 21.8074 54.5617C21.6137 55.0412 21.1139 55.4385 20.4243 55.6529L20.4464 55.7251ZM21.4001 52.8616L21.4554 52.81C21.0084 52.3286 20.4022 52.0395 19.8107 51.804L19.7827 51.8743L19.7547 51.9445C20.3431 52.1788 20.9221 52.4579 21.3449 52.9132L21.4001 52.8616ZM19.7827 51.8743L19.8109 51.8041C18.9753 51.4684 18.1067 51.2007 17.2294 51.0083L17.2131 51.0821L17.1968 51.156C18.0659 51.3466 18.9266 51.6119 19.7545 51.9445L19.7827 51.8743Z" fill="#082422"/>
<path d="M17.8567 48.3712C18.0021 48.1269 18.095 47.8566 18.0922 47.5694C18.0915 46.5434 16.987 45.6077 16.183 45.1339C15.2696 44.5974 14.442 44.2264 13.3964 44.0861C12.9095 44.021 12.1789 44.0694 11.7133 44.2205C11.2477 44.3715 10.8201 44.7492 10.7475 45.2319C10.6847 45.6428 10.8436 46.339 10.9949 46.7243C11.7437 48.6411 15.3124 50.6885 17.3063 49.006C17.514 48.8342 17.7118 48.6156 17.8572 48.3714L17.8567 48.3712Z" fill="#FFCE9B"/>
<path d="M10.7448 45.6481L10.8199 45.6412L10.8199 45.6412L10.7448 45.6481ZM10.9968 46.7251L11.067 46.6973L11.0669 46.6972L10.9968 46.7251ZM17.3077 49.0065L17.2599 48.9483L17.2593 48.9488L17.3077 49.0065ZM18.0941 47.5703L18.0187 47.5706L18.0187 47.5713L18.0941 47.5703ZM16.185 45.1349L16.2234 45.0697L16.2233 45.0696L16.185 45.1349ZM10.7322 45.2157L10.6569 45.2112C10.6445 45.4138 10.6562 45.5026 10.6697 45.655L10.7448 45.6481L10.8199 45.6412C10.8063 45.4884 10.7958 45.41 10.8074 45.2201L10.7322 45.2157ZM10.7448 45.6481L10.6697 45.655C10.7034 46.0364 10.8167 46.4731 10.9266 46.7529L10.9968 46.7251L11.0669 46.6972C10.9619 46.4297 10.8522 46.0071 10.8199 45.6412L10.7448 45.6481ZM10.9968 46.7251L10.9265 46.7528C11.3104 47.7354 12.4082 48.7385 13.655 49.2848C14.9018 49.8311 16.3274 49.9325 17.3562 49.0643L17.3077 49.0065L17.2593 48.9488C16.2943 49.7631 14.9388 49.6821 13.7157 49.1462C12.4927 48.6103 11.4319 47.6314 11.067 46.6973L10.9968 46.7251ZM17.3077 49.0065L17.3556 49.0648C17.5691 48.8883 17.7729 48.6633 17.9233 48.4106L17.8586 48.372L17.7939 48.3334C17.6535 48.5691 17.4619 48.7812 17.2599 48.9483L17.3077 49.0065ZM17.8586 48.372L17.9233 48.4106C18.0739 48.1577 18.1725 47.8738 18.1695 47.5694L18.0941 47.5703L18.0187 47.5713C18.0213 47.8412 17.9341 48.0979 17.7939 48.3334L17.8586 48.372ZM18.0941 47.5703L18.1695 47.57C18.1691 47.0302 17.8791 46.5224 17.497 46.095C17.1138 45.6664 16.6301 45.3094 16.2234 45.0697L16.185 45.1349L16.1467 45.2001C16.5439 45.4342 17.0143 45.782 17.3846 46.1961C17.7559 46.6115 18.0184 47.0845 18.0187 47.5706L18.0941 47.5703ZM16.185 45.1349L16.2233 45.0696C15.3054 44.5306 14.4681 44.1544 13.4088 44.0123L13.3986 44.0872L13.3884 44.1621C14.4202 44.3006 15.238 44.6664 16.1468 45.2001L16.185 45.1349Z" fill="#082422"/>
<path d="M19.8691 55.6116C19.8163 55.6325 19.709 55.6329 19.3516 55.6059C19.1731 55.5922 18.8998 55.5651 18.844 55.5541C18.4167 55.4565 18.0715 55.2932 17.8156 55.071C17.4655 54.7642 17.2991 54.3044 17.3968 53.909C17.477 53.5767 17.7252 53.3373 18.0951 53.2419C19.3943 52.8992 20.0373 53.3436 20.0671 53.3598L20.1443 53.4138L20.1185 53.5036C19.8886 54.2897 19.8721 55.0707 19.9548 55.4602L19.968 55.53L19.9144 55.584C19.8981 55.5904 19.8893 55.6031 19.869 55.6112L19.8691 55.6116Z" stroke="#082422" stroke-width="0.150995" stroke-miterlimit="10"/>
<path d="M15.5602 48.9786L15.3908 48.916C14.3454 48.5271 13.6886 48.0987 13.3259 47.5685C13.04 47.1578 12.9987 46.5448 13.2237 46.1156C13.4263 45.7304 13.8198 45.5141 14.3294 45.5166C15.3322 45.518 16.4162 46.1711 16.4618 46.1978L16.5803 46.2706L16.5074 46.3896C16.4978 46.4035 15.6683 47.7568 15.5782 48.7967L15.5598 48.9788L15.5602 48.9786Z" stroke="#082422" stroke-width="0.150995" stroke-miterlimit="10"/>
<path d="M12.2021 12.5095L8.8571 14.1886C8.43934 14.3984 8.26928 14.9075 8.47727 15.3258C8.68526 15.7441 9.19253 15.9132 9.61029 15.7035L12.9553 14.0244C13.373 13.8147 13.5431 13.3055 13.3351 12.8872C13.1271 12.4689 12.6198 12.2998 12.2021 12.5095Z" fill="#0096A1" stroke="#082422" stroke-width="0.150995" stroke-miterlimit="10"/>
<path d="M30.5077 11.0161L30.9807 13.3743C31.0026 13.4818 31.0514 13.5655 31.121 13.6249L32.9798 15.1972C32.9103 15.1378 32.8603 15.0526 32.8395 14.9466L32.3666 12.5883C32.345 12.4784 32.2949 12.3945 32.2253 12.3351L30.3665 10.7628C30.4362 10.821 30.4861 10.9062 30.5077 11.0161Z" fill="#0096A1" stroke="#082422" stroke-width="0.150995" stroke-miterlimit="10"/>
<path d="M15.7159 32.511L13.8582 30.9401C13.8245 30.9118 13.7864 30.8894 13.7424 30.8727L11.7027 30.1064C11.6575 30.0896 11.6181 30.067 11.5846 30.0375L13.4424 31.6083C13.4761 31.6366 13.5153 31.6604 13.5605 31.6773L15.6002 32.4436C15.6441 32.4603 15.6823 32.4827 15.7159 32.511Z" fill="#0096A1" stroke="#082422" stroke-width="0.150995" stroke-miterlimit="10"/>
<path d="M18.3676 35.9949C18.4543 36.0052 18.5308 36.0373 18.5912 36.0879L16.7334 34.517C16.673 34.4664 16.5978 34.4345 16.5098 34.424C16.4356 34.4152 16.3533 34.422 16.2664 34.4461L13.6472 35.16C13.5578 35.1838 13.4755 35.1906 13.4013 35.1818C13.3134 35.1713 13.2368 35.1392 13.1779 35.0875L15.0357 36.6584C15.096 36.709 15.1711 36.7422 15.2591 36.7527C15.3333 36.7615 15.4156 36.7547 15.505 36.7308L18.1242 36.017C18.2111 35.9928 18.2934 35.986 18.3676 35.9949Z" fill="#0096A1" stroke="#082422" stroke-width="0.150995" stroke-miterlimit="10"/>
<path d="M33.9928 17.2009L35.8525 18.7735C35.7016 18.6456 35.657 18.405 35.7441 18.129L36.6426 15.2751C36.7337 14.9868 36.681 14.7504 36.5323 14.6253L34.6726 13.0528C34.8213 13.1779 34.874 13.4143 34.7829 13.7026L33.8845 16.5565C33.7974 16.8325 33.842 17.073 33.9928 17.2009Z" fill="#0096A1" stroke="#082422" stroke-width="0.150995" stroke-miterlimit="10"/>
<path d="M38.0098 20.7501C38.3228 20.3515 38.3604 19.8882 38.1238 19.6875L36.265 18.1153C36.5016 18.316 36.4641 18.7793 36.1511 19.1779L34.1219 21.761C33.8811 22.0659 33.7952 22.4302 33.9022 22.6705L34.8187 24.7133C34.9806 25.0738 34.7063 25.6649 34.246 25.9488L31.629 27.5724C31.321 27.7645 31.0793 28.109 31.0258 28.4362L30.5709 31.2067C30.4908 31.6956 30.0138 32.1782 29.5731 32.2178L27.0709 32.444C26.7757 32.4715 26.4449 32.7057 26.2438 33.0307L24.5398 35.788C24.2977 36.1797 23.8928 36.4152 23.586 36.3787C23.5118 36.3699 23.4446 36.3453 23.3857 36.3037L21.6681 35.073C21.6105 35.0316 21.5432 35.007 21.469 34.9982C21.2804 34.9757 21.0507 35.0545 20.8395 35.2249L18.3439 37.2285C18.1243 37.4056 17.8939 37.4791 17.709 37.4571C17.6223 37.4468 17.5445 37.4145 17.483 37.3625L19.3417 38.9347C19.4032 38.9867 19.481 39.019 19.5678 39.0293C19.7526 39.0513 19.9818 38.9776 20.2026 38.8007L22.6983 36.7971C22.9094 36.6267 23.1404 36.5481 23.3278 36.5704C23.402 36.5792 23.4692 36.6038 23.5268 36.6452L25.2444 37.8759C25.3033 37.9174 25.3718 37.9422 25.4447 37.9509C25.7516 37.9874 26.1564 37.7518 26.3985 37.3601L28.1025 34.6028C28.3037 34.2778 28.6332 34.0435 28.9296 34.0162L31.4319 33.79C31.8725 33.7504 32.3483 33.2676 32.4296 32.7789L32.8845 30.0084C32.9381 29.6812 33.1797 29.3367 33.4877 29.1446L36.1048 27.521C36.5651 27.2358 36.8394 26.6447 36.6774 26.2855L35.761 24.2426C35.6528 24.001 35.7398 23.6381 35.9807 23.3332L38.0098 20.7501Z" fill="#0096A1" stroke="#082422" stroke-width="0.150995" stroke-miterlimit="10"/>
<path d="M30.1386 10.6756C30.3234 10.6975 30.4638 10.8152 30.5058 11.0222L30.9778 13.3807C31.0182 13.5798 31.1543 13.7021 31.3428 13.7245C31.417 13.7333 31.4993 13.7264 31.5863 13.7022L34.2048 12.9866C34.2943 12.9627 34.3767 12.9558 34.4508 12.9646C34.7575 13.001 34.912 13.3032 34.7855 13.7088L33.8868 16.5629C33.7799 16.8993 33.8701 17.1848 34.1106 17.2747L36.1504 18.0411C36.5092 18.177 36.511 18.7167 36.1544 19.1717L34.1251 21.7561C33.8842 22.0612 33.7982 22.4255 33.9051 22.6658L34.8206 24.7088C34.9823 25.0693 34.7079 25.6606 34.2477 25.9448L31.631 27.5696C31.323 27.7619 31.0813 28.1065 31.0277 28.4338L30.572 31.2051C30.4918 31.6941 30.0147 32.177 29.5742 32.2167L27.0727 32.4439C26.7777 32.4715 26.4469 32.7058 26.2458 33.0309L24.5414 35.7894C24.2992 36.1813 23.8944 36.417 23.5877 36.3806C23.5136 36.3718 23.4463 36.3472 23.3875 36.3057L21.6709 35.0753C21.6133 35.0339 21.5461 35.0093 21.4719 35.0005C21.2834 34.9782 21.0537 35.057 20.8426 35.2275L18.3471 37.2324C18.1275 37.4096 17.8971 37.4833 17.7124 37.4613C17.5276 37.4394 17.3872 37.3217 17.3453 37.1135L16.8732 34.7562C16.8329 34.5559 16.6968 34.4336 16.5096 34.4113C16.4354 34.4025 16.353 34.4094 16.2661 34.4336L13.6463 35.1491C13.5568 35.173 13.4745 35.1798 13.4003 35.171C13.0936 35.1346 12.9391 34.8325 13.0668 34.427L13.9655 31.5729C14.0725 31.2366 13.9821 30.9522 13.7418 30.8611L11.7019 30.0947C11.3418 29.9599 11.3412 29.4203 11.6992 28.9642L13.7273 26.3797C13.9682 26.0746 14.0553 25.7117 13.9472 25.47L13.0332 23.4259C12.8714 23.0666 13.1445 22.4752 13.6061 22.1899L16.2214 20.5662C16.5306 20.3741 16.7723 20.0295 16.8247 19.702L17.2804 16.9308C17.3604 16.4429 17.8364 15.9587 18.2769 15.9189L20.7784 15.6918C21.0746 15.6656 21.4042 15.4299 21.6054 15.1047L23.3098 12.3462C23.5519 11.9544 23.9567 11.7186 24.2622 11.7549C24.3363 11.7637 24.4035 11.7883 24.4624 11.8298L26.1802 13.0604C26.2378 13.1017 26.305 13.1263 26.3792 13.1351C26.5665 13.1574 26.7962 13.0785 27.0084 12.9094L29.5041 10.9032C29.7235 10.7273 29.9526 10.6535 30.1386 10.6756Z" fill="#5AFFFE" stroke="#082422" stroke-width="0.150995" stroke-miterlimit="10"/>
<path d="M30.1731 20.7407C30.3138 20.7575 30.4226 20.8407 30.4667 20.9865L30.7481 21.9135C30.8366 22.2026 30.6365 22.6276 30.302 22.8614L20.7641 29.556C20.5989 29.6719 20.4315 29.7197 20.2945 29.7035C20.1575 29.6872 20.0473 29.6051 20.0018 29.4604L18.9091 25.9943C18.819 25.7075 19.0154 25.2821 19.3489 25.0456L20.4191 24.2855C20.5858 24.1672 20.7546 24.1183 20.8942 24.1348C21.0337 24.1514 21.1413 24.2332 21.187 24.3767L21.7618 26.2039C21.7805 26.2623 21.8237 26.2956 21.8803 26.3023C21.9368 26.309 22.0042 26.2889 22.0721 26.242L29.7011 20.8867C29.8663 20.7708 30.0337 20.7229 30.172 20.7393L30.1731 20.7407Z" fill="#0096A1"/>
<path d="M30.4623 21.1348L30.1938 20.2502C30.1736 20.1826 30.1379 20.1285 30.0915 20.0898L28.2341 18.518C28.2805 18.5568 28.315 18.6107 28.3363 18.6785L28.6049 19.563C28.6898 19.839 28.4983 20.2445 28.179 20.4686L21.7951 24.9506L21.3344 23.4872C21.3141 23.4208 21.2793 23.3694 21.2329 23.3307L19.3755 21.7589C19.4207 21.7975 19.4554 21.8489 19.4769 21.9154L20.0258 23.6603C20.0341 23.6869 20.0483 23.7077 20.0667 23.724L21.6425 25.0565L19.074 26.8595C18.9158 26.9698 18.7562 27.0161 18.6255 27.0005C18.5564 26.9923 18.4956 26.9672 18.4469 26.9257L20.3043 28.4974C20.353 28.539 20.4138 28.5641 20.4829 28.5723C20.6136 28.5878 20.7732 28.5416 20.9314 28.4312L30.0378 22.0393C30.3572 21.8151 30.5486 21.4096 30.4637 21.1336L30.4623 21.1348Z" fill="#BFBFBF" stroke="#082422" stroke-width="0.150995" stroke-miterlimit="10"/>
<path d="M28.0544 18.4431C28.1889 18.4591 28.2929 18.5392 28.3352 18.6784L28.6037 19.5629C28.6887 19.8389 28.4972 20.2444 28.1779 20.4685L19.0717 26.8603C18.9135 26.9706 18.7539 27.0168 18.6232 27.0013C18.4925 26.9858 18.3871 26.9068 18.3432 26.7699L17.2997 23.4605C17.2132 23.1869 17.4023 22.7799 17.7205 22.5543L18.742 21.8294C18.9017 21.7167 19.0627 21.6693 19.1959 21.6851C19.3291 21.7009 19.4321 21.7796 19.4759 21.9165L20.0247 23.6614C20.0424 23.7171 20.0846 23.749 20.1386 23.7554C20.1926 23.7618 20.2573 23.7427 20.3212 23.6978L27.6045 18.5853C27.7627 18.4749 27.9223 18.4287 28.0542 18.4444L28.0544 18.4431Z" fill="white" stroke="#082422" stroke-width="0.150995" stroke-miterlimit="10"/>
</g>
<defs>
<clipPath id="clip0_664_11622">
<rect width="77" height="80" fill="white"/>
</clipPath>
</defs>
</svg>
