<svg width="70" height="80" viewBox="0 0 70 80" fill="none" xmlns="http://www.w3.org/2000/svg">
<g clip-path="url(#clip0_664_11617)">
<path d="M27.8124 0.00844243C27.8166 -3.43873e-07 27.8245 0 27.8287 0C27.8044 0.0159475 27.7843 0.0403365 27.7642 0.0647267C27.7801 0.0412746 27.796 0.0243899 27.8124 0.00844243Z" fill="white" stroke="#082422" stroke-width="0.0358189" stroke-linecap="round" stroke-linejoin="round"/>
<path d="M27.8124 0.00844243C27.8166 -3.43873e-07 27.8245 0 27.8287 0C27.8044 0.0159475 27.7843 0.0403365 27.7642 0.0647267C27.7801 0.0412746 27.796 0.0243899 27.8124 0.00844243Z" fill="#FEFCF9" stroke="#082422" stroke-width="0.0358189" stroke-linecap="round" stroke-linejoin="round"/>
<path d="M47.3512 13.1438L70.001 43.6595L69.9491 78.2815L24.4592 51.9586L24.5111 17.3367L47.3512 13.1438Z" fill="#FFB05A" stroke="#082422" stroke-width="0.0358189" stroke-linecap="round" stroke-linejoin="round"/>
<path d="M21.5177 53.7084C21.5112 53.7084 21.5054 53.7069 21.4996 53.7033C21.4881 53.6968 21.4816 53.6846 21.4816 53.6723L21.5789 19.0236C21.5789 19.0106 21.5861 18.9991 21.5969 18.9926L24.4933 17.3024C24.4991 17.2988 24.5048 17.2974 24.5113 17.2974C24.5178 17.2974 24.5236 17.2988 24.5293 17.3024C24.5409 17.3089 24.5473 17.3205 24.5473 17.3335L24.4947 51.9547C24.4947 51.9677 24.4882 51.9792 24.4767 51.9857L21.5357 53.7026C21.5299 53.7062 21.5241 53.7077 21.5177 53.7077V53.7084Z" fill="#FFB05A"/>
<path d="M24.5105 17.3331L24.4579 51.9543L21.5168 53.6712L21.6141 19.0225L24.5105 17.3324M24.5112 17.2609C24.4975 17.2609 24.4845 17.2645 24.4737 17.271L21.5788 18.9604C21.5565 18.9734 21.5428 18.9972 21.5428 19.0225L21.4455 53.6712C21.4455 53.6972 21.4592 53.721 21.4815 53.734C21.4923 53.7405 21.5053 53.7434 21.5176 53.7434C21.5298 53.7434 21.5428 53.7398 21.5536 53.7333L24.4946 52.0164C24.517 52.0034 24.5307 51.9796 24.5307 51.9543L24.5833 17.3381C24.5833 17.3381 24.5833 17.3345 24.5833 17.3331C24.5833 17.2934 24.5508 17.2609 24.5112 17.2609Z" fill="#082422"/>
<path d="M63.9127 71.9403C63.1653 71.9403 62.3611 71.694 61.5215 71.208L29.6299 52.7283C26.7018 51.0346 24.3272 46.9089 24.3373 43.5322L24.5088 12.0876C24.5153 9.74237 25.6554 8.28552 27.4845 8.28552C28.2311 8.28552 29.0346 8.5311 29.872 9.01575L61.7636 27.4954C64.6917 29.1891 67.0663 33.3148 67.0562 36.6915L66.8847 68.1361C66.8782 70.4821 65.7395 71.9396 63.9134 71.9396L63.9127 71.9403Z" fill="white" stroke="#082422" stroke-width="0.0358189" stroke-linejoin="round"/>
<path d="M53.5485 31.0374L52.8543 36.7463L45.09 32.2625L44.6911 36.5628L44.5718 36.488C41.0866 34.3389 38.9166 30.0684 39.3397 25.6212C39.441 24.5548 39.7521 23.1565 39.7684 23.0828L53.5485 31.0374Z" fill="#00201D"/>
<path d="M49.2351 39.4289L48.5043 45.3921L44.2218 42.8913L43.5703 49.8516L38.075 46.6784L38.3084 43.1513C38.6465 37.0395 42.6167 35.6068 47.0798 38.1841L49.2351 39.4289Z" fill="#00201D"/>
<path d="M67.1059 45.3513L67.0072 80L21.5173 53.6764L21.6146 19.0277L44.3141 49.5153L67.1059 45.3513Z" fill="#FFCD9C" stroke="#082422" stroke-width="0.0358189" stroke-linecap="round" stroke-linejoin="round"/>
<path d="M44.3113 49.5073L67.0072 79.9971L21.5173 53.6735L44.3113 49.5073Z" fill="#FFCD9C" stroke="#082422" stroke-width="0.0358189" stroke-linecap="round" stroke-linejoin="round"/>
<path fill-rule="evenodd" clip-rule="evenodd" d="M21.583 31.3684L21.5921 28.1311L22.023 28.3804C26.2723 30.8391 29.5862 37.3601 29.424 42.9449C29.3296 46.2186 28.0616 48.444 26.1732 49.2298L23.4635 50.3575C22.8748 50.6142 22.2241 50.7295 21.5287 50.6912L21.583 31.3705C24.6474 34.4693 26.7829 39.5893 26.6519 44.0989C26.578 46.6535 25.79 48.5699 24.5499 49.6619C25.7907 48.5701 26.5795 46.6535 26.6531 44.0981C26.7841 39.5878 24.648 34.4671 21.583 31.3684Z" fill="black" fill-opacity="0.15"/>
<path d="M69.9962 43.6602L67.1013 45.351L67.0026 79.9997L69.9443 78.2821L69.9962 43.6602Z" fill="#FFB05A" stroke="#082422" stroke-width="0.0358189" stroke-linecap="round" stroke-linejoin="round"/>
<path d="M8.46863 42.8059L8.64851 45.6143L11.4194 44.4618L11.2395 41.6534L8.46863 42.8059Z" fill="#DCFF00" stroke="#082422" stroke-width="0.0358189" stroke-linejoin="round"/>
<path d="M17.6024 24.7691L10.7642 20.8123C9.00538 19.7945 7.36199 19.6319 6.02814 20.1871L3.25726 21.3402C4.59111 20.7851 6.2345 20.9477 7.99328 21.9654L14.8316 25.9222C19.0809 28.3809 22.3948 34.9019 22.2326 40.4867C22.1382 43.7604 20.8702 45.9858 18.9818 46.7716L21.7526 45.6184C23.6411 44.8326 24.9091 42.6073 25.0034 39.3335C25.1657 33.7487 21.8518 27.2278 17.6024 24.7691Z" fill="#B3D000" stroke="#082422" stroke-width="0.0358189" stroke-linejoin="round"/>
<path d="M14.8304 25.9231C19.0797 28.3818 22.3936 34.9028 22.2314 40.4876C22.0698 46.0724 18.4952 48.6066 14.2452 46.1473L8.46928 42.8055L8.64917 45.6139C8.37697 45.352 3.19905 40.3699 0.987502 33.5707C0.312771 31.6154 -0.0510687 29.5643 0.00527206 27.6267C0.166827 22.0419 3.74277 19.5076 7.99276 21.9663L14.831 25.9231H14.8304Z" fill="#DCFF00" stroke="#082422" stroke-width="0.0358189" stroke-linejoin="round"/>
<path d="M8.38063 32.0363C8.81167 32.286 9.14768 32.9473 9.13139 33.514C9.1151 34.0807 8.75194 34.3379 8.32158 34.0882C7.89121 33.8385 7.55453 33.1773 7.57082 32.6105C7.58711 32.0438 7.95027 31.7867 8.38063 32.0363Z" fill="#082422"/>
<path d="M11.3444 33.7514C11.7762 34.0011 12.1129 34.663 12.0959 35.2291C12.0789 35.7951 11.7164 36.0529 11.2847 35.8026C10.853 35.5522 10.5177 34.8916 10.534 34.3249C10.5502 33.7582 10.9134 33.501 11.3438 33.7507L11.3444 33.7514Z" fill="#517C3C"/>
<path d="M14.3128 35.4699C14.7439 35.7196 15.0799 36.3809 15.0636 36.9476C15.0473 37.5143 14.6841 37.7715 14.2538 37.5218C13.822 37.2721 13.4854 36.6102 13.5023 36.0441C13.5193 35.4781 13.8818 35.2203 14.3135 35.4706L14.3128 35.4699Z" fill="#8DBD50"/>
</g>
<defs>
<clipPath id="clip0_664_11617">
<rect width="70" height="80" fill="white"/>
</clipPath>
</defs>
</svg>
