<svg width="61" height="80" viewBox="0 0 61 80" fill="none" xmlns="http://www.w3.org/2000/svg">
<g clip-path="url(#clip0_664_11586)">
<mask id="path-1-outside-1_664_11586" maskUnits="userSpaceOnUse" x="12.129" y="-1.14922" width="44.1228" height="48.9473" fill="black">
<rect fill="white" x="12.129" y="-1.14922" width="44.1228" height="48.9473"/>
<path d="M38.8094 3.34182C39.5268 3.50239 40.2234 3.70615 40.8972 3.9504C44.3701 5.19394 47.3705 7.48797 49.5144 10.5908C52.221 14.5268 53.2423 19.2739 52.3908 23.9608C52.3845 23.995 52.3738 24.028 52.3664 24.0616C52.3416 24.2214 52.3158 24.3816 52.2867 24.5414L48.841 43.5024C48.5637 45.0291 47.2756 46.2444 45.7427 46.2155C43.7886 46.1723 42.3995 44.4024 42.7351 42.5551L46.2439 23.2433C47.1309 18.3611 45.0072 13.3874 41.0006 10.8587C39.7995 10.113 38.4611 9.59062 37.0382 9.32307C35.5788 9.05224 34.107 9.06251 32.6883 9.34374C28.0648 10.2965 24.3437 14.1887 23.4586 19.0605L19.9497 38.3733C19.6139 40.2205 17.6916 41.3824 15.8485 40.7286C14.4044 40.211 13.6268 38.6162 13.9042 37.0896L17.3499 18.1287C17.3785 17.9711 17.4083 17.8139 17.4408 17.6578C17.4459 17.6216 17.4492 17.5847 17.4558 17.5484C18.3074 12.8616 20.9323 8.78396 24.8482 6.0636C27.9238 3.93716 31.5093 2.85684 35.1693 2.91137C35.91 2.91932 36.6582 2.97621 37.411 3.08447C37.5653 3.10687 37.7191 3.13153 37.8722 3.15776L38.3525 3.24547C38.505 3.27532 38.6572 3.30796 38.8094 3.34182Z"/>
</mask>
<path d="M38.8094 3.34182C39.5268 3.50239 40.2234 3.70615 40.8972 3.9504C44.3701 5.19394 47.3705 7.48797 49.5144 10.5908C52.221 14.5268 53.2423 19.2739 52.3908 23.9608C52.3845 23.995 52.3738 24.028 52.3664 24.0616C52.3416 24.2214 52.3158 24.3816 52.2867 24.5414L48.841 43.5024C48.5637 45.0291 47.2756 46.2444 45.7427 46.2155C43.7886 46.1723 42.3995 44.4024 42.7351 42.5551L46.2439 23.2433C47.1309 18.3611 45.0072 13.3874 41.0006 10.8587C39.7995 10.113 38.4611 9.59062 37.0382 9.32307C35.5788 9.05224 34.107 9.06251 32.6883 9.34374C28.0648 10.2965 24.3437 14.1887 23.4586 19.0605L19.9497 38.3733C19.6139 40.2205 17.6916 41.3824 15.8485 40.7286C14.4044 40.211 13.6268 38.6162 13.9042 37.0896L17.3499 18.1287C17.3785 17.9711 17.4083 17.8139 17.4408 17.6578C17.4459 17.6216 17.4492 17.5847 17.4558 17.5484C18.3074 12.8616 20.9323 8.78396 24.8482 6.0636C27.9238 3.93716 31.5093 2.85684 35.1693 2.91137C35.91 2.91932 36.6582 2.97621 37.411 3.08447C37.5653 3.10687 37.7191 3.13153 37.8722 3.15776L38.3525 3.24547C38.505 3.27532 38.6572 3.30796 38.8094 3.34182Z" fill="white"/>
<path d="M38.8094 3.34182L38.8411 3.20031L38.8409 3.20027L38.8094 3.34182ZM40.8972 3.9504L40.8477 4.08673L40.8483 4.08692L40.8972 3.9504ZM49.5144 10.5908L49.6338 10.5087L49.6337 10.5084L49.5144 10.5908ZM52.3908 23.9608L52.5334 23.9867L52.5334 23.9867L52.3908 23.9608ZM52.3664 24.0616L52.2245 24.0303L52.2231 24.0393L52.3664 24.0616ZM52.2867 24.5414L52.4294 24.5673L52.4294 24.5673L52.2867 24.5414ZM48.841 43.5024L48.6984 43.4764L48.6984 43.4764L48.841 43.5024ZM45.7427 46.2155L45.7395 46.3605L45.74 46.3605L45.7427 46.2155ZM42.7351 42.5551L42.5924 42.5292V42.5292L42.7351 42.5551ZM46.2439 23.2433L46.3865 23.2692V23.2692L46.2439 23.2433ZM41.0006 10.8587L41.078 10.7361L41.0771 10.7355L41.0006 10.8587ZM37.0382 9.32307L37.065 9.18056L37.0646 9.1805L37.0382 9.32307ZM32.6883 9.34374L32.6601 9.20149L32.659 9.20171L32.6883 9.34374ZM23.4586 19.0605L23.6013 19.0865V19.0865L23.4586 19.0605ZM19.9497 38.3733L20.0923 38.3992L20.0923 38.3992L19.9497 38.3733ZM15.8485 40.7286L15.7996 40.8651L15.8 40.8652L15.8485 40.7286ZM13.9042 37.0896L13.7615 37.0637L13.7615 37.0637L13.9042 37.0896ZM17.3499 18.1287L17.4925 18.1546L17.4925 18.1546L17.3499 18.1287ZM17.4408 17.6578L17.5831 17.6874L17.5844 17.6781L17.4408 17.6578ZM17.4558 17.5484L17.3131 17.5225L17.3131 17.5225L17.4558 17.5484ZM24.8482 6.0636L24.7658 5.94432L24.7655 5.9445L24.8482 6.0636ZM35.1693 2.91137L35.1672 3.05636L35.1678 3.05637L35.1693 2.91137ZM37.411 3.08447L37.4319 2.94096L37.4317 2.94093L37.411 3.08447ZM37.8722 3.15776L37.8982 3.0151L37.8967 3.01483L37.8722 3.15776ZM38.3525 3.24547L38.3804 3.10315L38.3786 3.10282L38.3525 3.24547ZM38.8094 3.34182L38.7778 3.48333C39.4891 3.64256 40.1798 3.84459 40.8477 4.08673L40.8972 3.9504L40.9466 3.81407C40.267 3.56771 39.5644 3.36222 38.8411 3.20031L38.8094 3.34182ZM40.8972 3.9504L40.8483 4.08692C44.2925 5.3202 47.2684 7.59525 49.3951 10.6733L49.5144 10.5908L49.6337 10.5084C47.4727 7.38068 44.4476 5.06768 40.946 3.81388L40.8972 3.9504ZM49.5144 10.5908L49.3949 10.673C52.0799 14.5775 53.0928 19.2857 52.2481 23.9349L52.3908 23.9608L52.5334 23.9867C53.3919 19.262 52.3621 14.4761 49.6338 10.5087L49.5144 10.5908ZM52.3908 23.9608L52.2481 23.9349C52.2461 23.9461 52.2431 23.9582 52.2388 23.9746C52.2349 23.9894 52.2293 24.01 52.2248 24.0304L52.3664 24.0616L52.508 24.0928C52.5109 24.0796 52.5144 24.0668 52.5193 24.0482C52.5238 24.0311 52.5293 24.0097 52.5334 23.9867L52.3908 23.9608ZM52.3664 24.0616L52.2231 24.0393C52.1984 24.1987 52.1728 24.3574 52.144 24.5155L52.2867 24.5414L52.4294 24.5673C52.4588 24.4057 52.4848 24.2441 52.5097 24.0838L52.3664 24.0616ZM52.2867 24.5414L52.144 24.5155L48.6984 43.4764L48.841 43.5024L48.9837 43.5283L52.4294 24.5673L52.2867 24.5414ZM48.841 43.5024L48.6984 43.4764C48.4316 44.9445 47.1963 46.0979 45.7454 46.0705L45.7427 46.2155L45.74 46.3605C47.355 46.391 48.6957 45.1136 48.9837 43.5283L48.841 43.5024ZM45.7427 46.2155L45.7459 46.0705C43.8821 46.0293 42.5579 44.3417 42.8778 42.581L42.7351 42.5551L42.5924 42.5292C42.2411 44.463 43.6951 46.3152 45.7395 46.3605L45.7427 46.2155ZM42.7351 42.5551L42.8778 42.581L46.3865 23.2692L46.2439 23.2433L46.1012 23.2174L42.5924 42.5292L42.7351 42.5551ZM46.2439 23.2433L46.3865 23.2692C47.2836 18.3317 45.1371 13.2979 41.078 10.7361L41.0006 10.8587L40.9232 10.9813C44.8773 13.4769 46.9782 18.3904 46.1012 23.2174L46.2439 23.2433ZM41.0006 10.8587L41.0771 10.7355C39.8607 9.98033 38.5054 9.4514 37.065 9.18056L37.0382 9.32307L37.0114 9.46559C38.4167 9.72983 39.7383 10.2457 40.9241 10.9819L41.0006 10.8587ZM37.0382 9.32307L37.0646 9.1805C35.5873 8.90633 34.097 8.91666 32.6601 9.2015L32.6883 9.34374L32.7165 9.48598C34.117 9.20836 35.5702 9.19814 37.0117 9.46565L37.0382 9.32307ZM32.6883 9.34374L32.659 9.20171C27.9747 10.1671 24.2111 14.1076 23.3159 19.0346L23.4586 19.0605L23.6013 19.0865C24.4764 14.2699 28.155 10.426 32.7176 9.48577L32.6883 9.34374ZM23.4586 19.0605L23.3159 19.0346L19.807 38.3474L19.9497 38.3733L20.0923 38.3992L23.6013 19.0865L23.4586 19.0605ZM19.9497 38.3733L19.807 38.3474C19.487 40.1076 17.6549 41.2155 15.897 40.5919L15.8485 40.7286L15.8 40.8652C17.7284 41.5493 19.7408 40.3333 20.0923 38.3992L19.9497 38.3733ZM15.8485 40.7286L15.8974 40.5921C14.5303 40.1021 13.7801 38.5836 14.0469 37.1155L13.9042 37.0896L13.7615 37.0637C13.4735 38.6489 14.2785 40.3199 15.7996 40.8651L15.8485 40.7286ZM13.9042 37.0896L14.0469 37.1155L17.4925 18.1546L17.3499 18.1287L17.2072 18.1027L13.7615 37.0637L13.9042 37.0896ZM17.3499 18.1287L17.4925 18.1546C17.521 17.9977 17.5506 17.8419 17.5828 17.6874L17.4408 17.6578L17.2988 17.6283C17.266 17.786 17.2359 17.9445 17.2072 18.1027L17.3499 18.1287ZM17.4408 17.6578L17.5844 17.6781C17.5911 17.6309 17.5924 17.6081 17.5985 17.5743L17.4558 17.5484L17.3131 17.5225C17.3061 17.5613 17.3008 17.6124 17.2972 17.6375L17.4408 17.6578ZM17.4558 17.5484L17.5985 17.5743C18.4432 12.9253 21.0465 8.88118 24.931 6.18269L24.8482 6.0636L24.7655 5.9445C20.8181 8.68674 18.1716 12.7978 17.3131 17.5225L17.4558 17.5484ZM24.8482 6.0636L24.9307 6.18288C27.9815 4.07357 31.5374 3.00228 35.1672 3.05636L35.1693 2.91137L35.1715 2.76637C31.4812 2.71139 27.8661 3.80076 24.7658 5.94432L24.8482 6.0636ZM35.1693 2.91137L35.1678 3.05637C35.902 3.06425 36.6439 3.12065 37.3904 3.228L37.411 3.08447L37.4317 2.94093C36.6725 2.83176 35.9179 2.77439 35.1709 2.76636L35.1693 2.91137ZM37.411 3.08447L37.3902 3.22797C37.5431 3.25018 37.6956 3.27463 37.8477 3.30069L37.8722 3.15776L37.8967 3.01483C37.7426 2.98842 37.5876 2.96357 37.4319 2.94096L37.411 3.08447ZM37.8722 3.15776L37.8461 3.30041L38.3265 3.38813L38.3525 3.24547L38.3786 3.10282L37.8982 3.01511L37.8722 3.15776ZM38.3525 3.24547L38.3247 3.38779C38.4755 3.41731 38.6264 3.44966 38.778 3.48337L38.8094 3.34182L38.8409 3.20027C38.688 3.16626 38.5345 3.13333 38.3804 3.10316L38.3525 3.24547Z" fill="#082422" mask="url(#path-1-outside-1_664_11586)"/>
<mask id="path-3-outside-2_664_11586" maskUnits="userSpaceOnUse" x="-0.759754" y="24.4199" width="62.5485" height="56.1158" fill="black">
<rect fill="white" x="-0.759754" y="24.4199" width="62.5485" height="56.1158"/>
<path d="M50.7223 33.3257C56.388 34.3656 60.1501 39.8365 59.1154 45.5311L54.7295 69.6681C53.6919 75.3777 48.2496 79.1587 42.5841 78.1188L10.595 72.2473C4.94451 71.2102 1.18261 65.7394 2.21725 60.0448L6.60503 35.8923C7.63985 30.1979 13.0829 26.4172 18.7332 27.4543L50.7223 33.3257Z"/>
</mask>
<path d="M50.7223 33.3257C56.388 34.3656 60.1501 39.8365 59.1154 45.5311L54.7295 69.6681C53.6919 75.3777 48.2496 79.1587 42.5841 78.1188L10.595 72.2473C4.94451 71.2102 1.18261 65.7394 2.21725 60.0448L6.60503 35.8923C7.63985 30.1979 13.0829 26.4172 18.7332 27.4543L50.7223 33.3257Z" fill="#0DADAD"/>
<path d="M50.7223 33.3257L50.6961 33.4683V33.4683L50.7223 33.3257ZM59.1154 45.5311L59.2581 45.557L59.2581 45.557L59.1154 45.5311ZM54.7295 69.6681L54.8722 69.694V69.694L54.7295 69.6681ZM42.5841 78.1188L42.5579 78.2614V78.2614L42.5841 78.1188ZM10.595 72.2473L10.6212 72.1047V72.1047L10.595 72.2473ZM2.21725 60.0448L2.35992 60.0707L2.35992 60.0707L2.21725 60.0448ZM6.60503 35.8923L6.46236 35.8663L6.46235 35.8663L6.60503 35.8923ZM18.7332 27.4543L18.7594 27.3116L18.7594 27.3116L18.7332 27.4543ZM50.7223 33.3257L50.6961 33.4683C56.2825 34.4937 59.9932 39.8886 58.9727 45.5052L59.1154 45.5311L59.2581 45.557C60.3069 39.7844 56.4935 34.2376 50.7485 33.1831L50.7223 33.3257ZM59.1154 45.5311L58.9727 45.5052L54.5868 69.6421L54.7295 69.6681L54.8722 69.694L59.2581 45.557L59.1154 45.5311ZM54.7295 69.6681L54.5868 69.6421C53.5634 75.2736 48.1962 79.0014 42.6103 77.9762L42.5841 78.1188L42.5579 78.2614C48.3031 79.3159 53.8204 75.4817 54.8722 69.694L54.7295 69.6681ZM42.5841 78.1188L42.6103 77.9762L10.6212 72.1047L10.595 72.2473L10.5688 72.39L42.5579 78.2614L42.5841 78.1188ZM10.595 72.2473L10.6212 72.1047C5.05014 71.0822 1.33944 65.6874 2.35992 60.0707L2.21725 60.0448L2.07457 60.0189C1.02577 65.7914 4.83888 71.3383 10.5688 72.39L10.595 72.2473ZM2.21725 60.0448L2.35992 60.0707L6.74771 35.9182L6.60503 35.8923L6.46235 35.8663L2.07457 60.0189L2.21725 60.0448ZM6.60503 35.8923L6.7477 35.9182C7.76833 30.302 13.1363 26.5744 18.707 27.5969L18.7332 27.4543L18.7594 27.3116C13.0294 26.2599 7.51137 30.0939 6.46236 35.8663L6.60503 35.8923ZM18.7332 27.4543L18.707 27.5969L50.6961 33.4683L50.7223 33.3257L50.7485 33.1831L18.7594 27.3116L18.7332 27.4543Z" fill="#082422" mask="url(#path-3-outside-2_664_11586)"/>
<path d="M49.3572 32.2118C54.6523 33.1839 58.1548 38.2774 57.188 43.5987L52.7997 67.7512C51.8327 73.0723 46.7652 76.5931 41.4702 75.6213L9.48111 69.7498C4.20108 68.7807 0.699089 63.687 1.66567 58.3657L6.0539 34.2133C7.02073 28.8919 12.088 25.3712 17.3681 26.3404L49.3572 32.2118Z" fill="#2BF2F1" stroke="#082422" stroke-width="0.145012"/>
<path d="M40.2138 42.61C41.6475 41.6161 43.6225 41.9797 44.6126 43.436C45.5743 44.8319 45.2674 46.7359 43.9297 47.7548L43.7972 47.8505L25.3302 60.5898C24.7785 60.9723 24.1334 61.1602 23.4613 61.1493L23.4605 61.1481C23.2847 61.1478 23.1231 61.1353 22.9506 61.087L22.9507 61.086C22.1291 60.9329 21.3969 60.4605 20.9296 59.7626L20.9298 59.7616L15.464 51.7904C14.4715 50.3494 14.8303 48.3671 16.2794 47.3758L16.4156 47.2867C17.8359 46.4057 19.7201 46.7909 20.6791 48.2019L24.3525 53.5542L40.2138 42.61Z" fill="white" stroke="#082422" stroke-width="0.145012"/>
</g>
<defs>
<clipPath id="clip0_664_11586">
<rect width="61" height="80" fill="white"/>
</clipPath>
</defs>
</svg>
