<svg width="62" height="80" viewBox="0 0 62 80" fill="none" xmlns="http://www.w3.org/2000/svg">
<g clip-path="url(#clip0_664_11579)">
<mask id="path-1-outside-1_664_11579" maskUnits="userSpaceOnUse" x="0.777405" y="-0.27417" width="62" height="81" fill="black">
<rect fill="white" x="0.777405" y="-0.27417" width="62" height="81"/>
<path d="M31.8829 0.72583C39.8675 0.72588 47.5252 3.92692 53.171 9.62427C58.8166 15.3216 61.9882 23.0489 61.9883 31.1057C61.9883 43.4083 54.3951 55.6146 46.8204 64.7336C43.0311 69.2954 39.2421 73.0905 36.4005 75.7444C34.9798 77.0711 33.795 78.1131 32.9659 78.8235C32.5515 79.1785 32.2253 79.4514 32.003 79.635C31.8921 79.7266 31.8066 79.7963 31.7491 79.843C31.7205 79.8662 31.6983 79.8839 31.6837 79.8958C31.6766 79.9015 31.6708 79.9064 31.6671 79.9094C31.6656 79.9106 31.664 79.9117 31.6631 79.9124L31.6622 79.9133L31.5958 79.8313L31.6612 79.9133C31.6318 79.9368 31.5934 79.9431 31.5596 79.9309L31.5284 79.9124L31.5274 79.9114C31.5264 79.9106 31.5243 79.9099 31.5225 79.9084C31.5189 79.9055 31.5138 79.9006 31.5069 79.8948C31.4925 79.8828 31.4706 79.8647 31.4424 79.8411C31.386 79.7937 31.3023 79.7231 31.1934 79.6301C30.9754 79.4439 30.6556 79.1676 30.2491 78.8079C29.4357 78.0881 28.2737 77.0329 26.8799 75.6917C24.0922 73.0088 20.3747 69.1789 16.6573 64.594C9.22635 55.4289 1.7774 43.2229 1.7774 31.1057C1.77759 23.0489 4.94917 15.3216 10.5948 9.62427C16.2406 3.92699 23.8982 0.72583 31.8829 0.72583ZM32.8887 13.7131C22.3953 13.7131 13.8887 22.2197 13.8887 32.7131C13.889 43.2063 22.3955 51.7131 32.8887 51.7131C43.3819 51.713 51.8885 43.2063 51.8887 32.7131C51.8887 22.2198 43.3821 13.7132 32.8887 13.7131ZM53.0958 9.69946C53.1819 9.78635 53.2657 9.87531 53.3506 9.96313C53.2656 9.87519 53.182 9.78549 53.0958 9.69849C52.9204 9.5215 52.7428 9.34718 52.5635 9.17505C52.7429 9.34729 52.9203 9.52236 53.0958 9.69946Z"/>
</mask>
<path d="M31.8829 0.72583C39.8675 0.72588 47.5252 3.92692 53.171 9.62427C58.8166 15.3216 61.9882 23.0489 61.9883 31.1057C61.9883 43.4083 54.3951 55.6146 46.8204 64.7336C43.0311 69.2954 39.2421 73.0905 36.4005 75.7444C34.9798 77.0711 33.795 78.1131 32.9659 78.8235C32.5515 79.1785 32.2253 79.4514 32.003 79.635C31.8921 79.7266 31.8066 79.7963 31.7491 79.843C31.7205 79.8662 31.6983 79.8839 31.6837 79.8958C31.6766 79.9015 31.6708 79.9064 31.6671 79.9094C31.6656 79.9106 31.664 79.9117 31.6631 79.9124L31.6622 79.9133L31.5958 79.8313L31.6612 79.9133C31.6318 79.9368 31.5934 79.9431 31.5596 79.9309L31.5284 79.9124L31.5274 79.9114C31.5264 79.9106 31.5243 79.9099 31.5225 79.9084C31.5189 79.9055 31.5138 79.9006 31.5069 79.8948C31.4925 79.8828 31.4706 79.8647 31.4424 79.8411C31.386 79.7937 31.3023 79.7231 31.1934 79.6301C30.9754 79.4439 30.6556 79.1676 30.2491 78.8079C29.4357 78.0881 28.2737 77.0329 26.8799 75.6917C24.0922 73.0088 20.3747 69.1789 16.6573 64.594C9.22635 55.4289 1.7774 43.2229 1.7774 31.1057C1.77759 23.0489 4.94917 15.3216 10.5948 9.62427C16.2406 3.92699 23.8982 0.72583 31.8829 0.72583ZM32.8887 13.7131C22.3953 13.7131 13.8887 22.2197 13.8887 32.7131C13.889 43.2063 22.3955 51.7131 32.8887 51.7131C43.3819 51.713 51.8885 43.2063 51.8887 32.7131C51.8887 22.2198 43.3821 13.7132 32.8887 13.7131ZM53.0958 9.69946C53.1819 9.78635 53.2657 9.87531 53.3506 9.96313C53.2656 9.87519 53.182 9.78549 53.0958 9.69849C52.9204 9.5215 52.7428 9.34718 52.5635 9.17505C52.7429 9.34729 52.9203 9.52236 53.0958 9.69946Z" fill="#0A9D9C"/>
<path d="M31.8829 0.72583V0.620265V0.620265V0.72583ZM53.171 9.62427L53.2459 9.54996V9.54996L53.171 9.62427ZM61.9883 31.1057H62.0939V31.1057L61.9883 31.1057ZM46.8204 64.7336L46.9016 64.8011V64.8011L46.8204 64.7336ZM36.4005 75.7444L36.4725 75.8215V75.8215L36.4005 75.7444ZM32.9659 78.8235L33.0346 78.9036V78.9036L32.9659 78.8235ZM32.003 79.635L32.0702 79.7164H32.0702L32.003 79.635ZM31.7491 79.843L31.8156 79.925H31.8156L31.7491 79.843ZM31.6837 79.8958L31.6174 79.8135L31.6174 79.8135L31.6837 79.8958ZM31.6671 79.9094L31.7331 79.9918L31.7334 79.9916L31.6671 79.9094ZM31.6631 79.9124L31.5993 79.8283C31.5955 79.8312 31.5919 79.8343 31.5885 79.8377L31.6631 79.9124ZM31.6622 79.9133L31.5801 79.9798C31.5989 80.003 31.6268 80.0172 31.6566 80.0188C31.6865 80.0203 31.7157 80.0091 31.7368 79.988L31.6622 79.9133ZM31.5958 79.8313L31.6778 79.7649C31.6412 79.7197 31.575 79.7126 31.5296 79.749C31.4843 79.7854 31.477 79.8517 31.5132 79.8971L31.5958 79.8313ZM31.6612 79.9133L31.7271 79.9958C31.7726 79.9594 31.7801 79.8931 31.7437 79.8475L31.6612 79.9133ZM31.5596 79.9309L31.5057 80.0217C31.5115 80.0251 31.5175 80.0279 31.5238 80.0302L31.5596 79.9309ZM31.5284 79.9124L31.4537 79.987C31.46 79.9932 31.4669 79.9986 31.4745 80.0031L31.5284 79.9124ZM31.5274 79.9114L31.6021 79.8367C31.5986 79.8333 31.5949 79.8301 31.591 79.8271L31.5274 79.9114ZM31.5225 79.9084L31.4549 79.9895L31.4551 79.9897L31.5225 79.9084ZM31.5069 79.8948L31.5745 79.8137H31.5745L31.5069 79.8948ZM31.4424 79.8411L31.3745 79.9219V79.9219L31.4424 79.8411ZM31.1934 79.6301L31.1249 79.7104V79.7104L31.1934 79.6301ZM30.2491 78.8079L30.1791 78.8869V78.8869L30.2491 78.8079ZM26.8799 75.6917L26.8067 75.7677V75.7677L26.8799 75.6917ZM16.6573 64.594L16.5753 64.6605L16.5753 64.6605L16.6573 64.594ZM1.7774 31.1057L1.67184 31.1057V31.1057H1.7774ZM10.5948 9.62427L10.5198 9.54996L10.5198 9.54996L10.5948 9.62427ZM32.8887 13.7131L32.8887 13.6076H32.8887V13.7131ZM13.8887 32.7131H13.7832V32.7131L13.8887 32.7131ZM32.8887 51.7131V51.8187H32.8887L32.8887 51.7131ZM51.8887 32.7131L51.9943 32.7131V32.7131H51.8887ZM53.0958 9.69946L53.1707 9.62516V9.62516L53.0958 9.69946ZM53.0958 9.69849L53.1707 9.62418V9.62418L53.0958 9.69849ZM52.6367 9.09891C52.5946 9.05853 52.5278 9.05988 52.4874 9.10193C52.447 9.14398 52.4484 9.2108 52.4904 9.25119L52.5635 9.17505L52.6367 9.09891ZM31.8829 0.72583V0.831395C39.8392 0.831445 47.4699 4.02112 53.096 9.69857L53.171 9.62427L53.2459 9.54996C47.5805 3.83271 39.8958 0.620315 31.8829 0.620265V0.72583ZM53.171 9.62427L53.096 9.69857C58.7219 15.376 61.8826 23.0766 61.8828 31.1057L61.9883 31.1057L62.0939 31.1057C62.0937 23.0212 58.9113 15.2671 53.2459 9.54996L53.171 9.62427ZM61.9883 31.1057H61.8828C61.8828 43.3693 54.3108 55.5509 46.7392 64.6662L46.8204 64.7336L46.9016 64.8011C54.4795 55.6783 62.0939 43.4473 62.0939 31.1057H61.9883ZM46.8204 64.7336L46.7392 64.6662C42.9535 69.2236 39.1678 73.0155 36.3284 75.6672L36.4005 75.7444L36.4725 75.8215C39.3165 73.1655 43.1088 69.3671 46.9016 64.8011L46.8204 64.7336ZM36.4005 75.7444L36.3284 75.6672C34.909 76.9928 33.7254 78.0338 32.8972 78.7433L32.9659 78.8235L33.0346 78.9036C33.8647 78.1924 35.0507 77.1494 36.4725 75.8215L36.4005 75.7444ZM32.9659 78.8235L32.8972 78.7433C32.4833 79.0979 32.1576 79.3704 31.9358 79.5536L32.003 79.635L32.0702 79.7164C32.293 79.5324 32.6197 79.2591 33.0346 78.9036L32.9659 78.8235ZM32.003 79.635L31.9358 79.5536C31.8251 79.645 31.7399 79.7145 31.6825 79.7611L31.7491 79.843L31.8156 79.925C31.8733 79.8781 31.9591 79.8082 32.0702 79.7164L32.003 79.635ZM31.7491 79.843L31.6825 79.7611C31.6542 79.7841 31.6325 79.8014 31.6174 79.8135L31.6837 79.8958L31.7499 79.978C31.7641 79.9665 31.7869 79.9483 31.8156 79.925L31.7491 79.843ZM31.6837 79.8958L31.6174 79.8135C31.6132 79.8169 31.6095 79.82 31.6066 79.8225C31.6032 79.8252 31.6018 79.8264 31.6008 79.8273L31.6671 79.9094L31.7334 79.9916C31.736 79.9894 31.7393 79.9867 31.7416 79.9848C31.7443 79.9825 31.747 79.9803 31.7499 79.978L31.6837 79.8958ZM31.6671 79.9094L31.601 79.8271C31.602 79.8262 31.6027 79.8258 31.6024 79.826C31.6021 79.8262 31.6022 79.8261 31.6016 79.8266C31.6013 79.8268 31.6003 79.8275 31.5993 79.8283L31.6631 79.9124L31.727 79.9964C31.7264 79.9969 31.726 79.9972 31.7263 79.997C31.7264 79.9969 31.7264 79.9969 31.7267 79.9967C31.7268 79.9966 31.7271 79.9964 31.7274 79.9961C31.7284 79.9954 31.7306 79.9938 31.7331 79.9918L31.6671 79.9094ZM31.6631 79.9124L31.5885 79.8377L31.5875 79.8387L31.6622 79.9133L31.7368 79.988L31.7378 79.987L31.6631 79.9124ZM31.6622 79.9133L31.7442 79.8469L31.6778 79.7649L31.5958 79.8313L31.5137 79.8977L31.5801 79.9798L31.6622 79.9133ZM31.5958 79.8313L31.5132 79.8971L31.5787 79.9792L31.6612 79.9133L31.7437 79.8475L31.6783 79.7655L31.5958 79.8313ZM31.6612 79.9133L31.5953 79.8309L31.5955 79.8316L31.5596 79.9309L31.5238 80.0302C31.5929 80.0552 31.6697 80.0416 31.7271 79.9958L31.6612 79.9133ZM31.5596 79.9309L31.6135 79.8401L31.5823 79.8216L31.5284 79.9124L31.4745 80.0031L31.5057 80.0217L31.5596 79.9309ZM31.5284 79.9124L31.603 79.8377L31.6021 79.8367L31.5274 79.9114L31.4528 79.986L31.4537 79.987L31.5284 79.9124ZM31.5274 79.9114L31.591 79.8271C31.587 79.8241 31.5835 79.8219 31.5813 79.8206C31.5791 79.8193 31.5772 79.8182 31.5762 79.8177C31.5751 79.8171 31.5742 79.8167 31.574 79.8166C31.5736 79.8163 31.5738 79.8165 31.5741 79.8166C31.5746 79.8169 31.5766 79.8179 31.5792 79.8195C31.5818 79.8211 31.5856 79.8236 31.5899 79.8272L31.5225 79.9084L31.4551 79.9897C31.4603 79.994 31.465 79.9971 31.4686 79.9993C31.4721 80.0015 31.475 80.0031 31.4765 80.0038C31.4768 80.004 31.4772 80.0042 31.4774 80.0043C31.4775 80.0043 31.4776 80.0044 31.4776 80.0044C31.4777 80.0044 31.4777 80.0044 31.4778 80.0045C31.478 80.0046 31.4775 80.0043 31.4768 80.004C31.4761 80.0036 31.4746 80.0028 31.4726 80.0016C31.4708 80.0005 31.4675 79.9985 31.4638 79.9956L31.5274 79.9114ZM31.5225 79.9084L31.5901 79.8274C31.5905 79.8277 31.5905 79.8277 31.5897 79.827C31.5888 79.8262 31.5881 79.8255 31.5864 79.824C31.5835 79.8215 31.5794 79.8178 31.5745 79.8137L31.5069 79.8948L31.4393 79.9759C31.4413 79.9775 31.4432 79.9792 31.4455 79.9813C31.4465 79.9821 31.4481 79.9836 31.4494 79.9847C31.4507 79.986 31.4527 79.9877 31.4549 79.9895L31.5225 79.9084ZM31.5069 79.8948L31.5745 79.8137C31.5596 79.8013 31.5383 79.7837 31.5103 79.7602L31.4424 79.8411L31.3745 79.9219C31.4029 79.9457 31.4254 79.9643 31.4393 79.9759L31.5069 79.8948ZM31.4424 79.8411L31.5103 79.7602C31.4541 79.713 31.3706 79.6426 31.262 79.5499L31.1934 79.6301L31.1249 79.7104C31.234 79.8036 31.318 79.8744 31.3745 79.9219L31.4424 79.8411ZM31.1934 79.6301L31.262 79.5499C31.0444 79.3641 30.7251 79.0881 30.319 78.7288L30.2491 78.8079L30.1791 78.8869C30.5861 79.2471 30.9064 79.5238 31.1249 79.7104L31.1934 79.6301ZM30.2491 78.8079L30.319 78.7288C29.5066 78.0099 28.3457 76.9557 26.9531 75.6156L26.8799 75.6917L26.8067 75.7677C28.2017 77.1101 29.3648 78.1663 30.1791 78.8869L30.2491 78.8079ZM26.8799 75.6917L26.9531 75.6156C24.1676 72.9349 20.4533 69.1082 16.7393 64.5275L16.6573 64.594L16.5753 64.6605C20.2962 69.2496 24.0167 73.0828 26.8067 75.7677L26.8799 75.6917ZM16.6573 64.594L16.7393 64.5275C9.31118 55.3659 1.88297 43.1844 1.88297 31.1057H1.7774H1.67184C1.67184 43.2613 9.14151 55.4919 16.5753 64.6605L16.6573 64.594ZM1.7774 31.1057L1.88297 31.1057C1.88316 23.0766 5.04385 15.376 10.6698 9.69857L10.5948 9.62427L10.5198 9.54996C4.8545 15.2671 1.67203 23.0212 1.67184 31.1057L1.7774 31.1057ZM10.5948 9.62427L10.6698 9.69857C16.2958 4.02119 23.9265 0.831395 31.8829 0.831395V0.72583V0.620265C23.8699 0.620265 16.1853 3.83278 10.5198 9.54996L10.5948 9.62427ZM32.8887 13.7131V13.6076C22.337 13.6076 13.7832 22.1614 13.7832 32.7131H13.8887H13.9943C13.9943 22.278 22.4536 13.8187 32.8887 13.8187V13.7131ZM13.8887 32.7131L13.7832 32.7131C13.7834 43.2646 22.3372 51.8187 32.8887 51.8187V51.7131V51.6076C22.4538 51.6076 13.9946 43.148 13.9943 32.7131L13.8887 32.7131ZM32.8887 51.7131L32.8887 51.8187C43.4402 51.8186 51.994 43.2646 51.9943 32.7131L51.8887 32.7131L51.7832 32.7131C51.7829 43.148 43.3236 51.6075 32.8887 51.6076L32.8887 51.7131ZM51.8887 32.7131H51.9943C51.9943 22.1615 43.4404 13.6077 32.8887 13.6076L32.8887 13.7131L32.8887 13.8187C43.3238 13.8188 51.7832 22.2781 51.7832 32.7131H51.8887ZM53.0958 9.69946L53.0208 9.77377C53.1064 9.86014 53.1885 9.9473 53.2748 10.0365L53.3506 9.96313L53.4265 9.88975C53.3429 9.80332 53.2574 9.71256 53.1707 9.62516L53.0958 9.69946ZM53.3506 9.96313L53.4265 9.88975C53.3436 9.80398 53.2573 9.71148 53.1707 9.62418L53.0958 9.69849L53.0208 9.77279C53.1067 9.8595 53.1876 9.9464 53.2748 10.0365L53.3506 9.96313ZM53.0958 9.69849L53.1707 9.62418C52.9947 9.4465 52.8164 9.27157 52.6367 9.09891L52.5635 9.17505L52.4904 9.25119C52.6691 9.42279 52.8461 9.59649 53.0208 9.77279L53.0958 9.69849ZM52.5635 9.17505L52.4904 9.25119C52.6691 9.42276 52.8458 9.59722 53.0208 9.77377L53.0958 9.69946L53.1707 9.62516C52.9947 9.4475 52.8167 9.27181 52.6367 9.09891L52.5635 9.17505Z" fill="#082422" mask="url(#path-1-outside-1_664_11579)"/>
<mask id="path-3-outside-2_664_11579" maskUnits="userSpaceOnUse" x="-0.813232" y="-0.935059" width="61" height="79" fill="black">
<rect fill="white" x="-0.813232" y="-0.935059" width="61" height="79"/>
<path d="M29.9231 0.0649414C37.8098 0.0649414 45.3737 3.20823 50.9504 8.80225C56.5271 14.3963 59.6603 21.983 59.6604 29.894C59.6604 41.9739 52.1598 53.9584 44.678 62.9116C40.9351 67.3906 37.1928 71.1165 34.386 73.7222C32.9826 75.025 31.8124 76.0481 30.9934 76.7456C30.5843 77.094 30.2627 77.3613 30.0432 77.5415C29.9335 77.6316 29.849 77.7007 29.7922 77.7466C29.7639 77.7694 29.7422 77.7868 29.7278 77.7983C29.7206 77.804 29.7148 77.8081 29.7112 77.811C29.7097 77.8122 29.7082 77.8133 29.7073 77.814L29.7063 77.8149L29.6399 77.7329L29.7053 77.8159C29.6763 77.8387 29.6381 77.8442 29.6047 77.8325L29.5725 77.814L29.5715 77.813C29.5707 77.8123 29.5691 77.8113 29.5676 77.8101C29.564 77.8071 29.558 77.8022 29.551 77.7964C29.5368 77.7846 29.5152 77.7667 29.4875 77.7437C29.4318 77.6971 29.3488 77.6277 29.2415 77.5366C29.0261 77.3538 28.7103 77.0821 28.3088 76.729C27.5054 76.0223 26.3582 74.9862 24.9817 73.6694C22.2282 71.0354 18.5558 67.2764 14.884 62.7749C7.54438 53.7766 0.186768 41.7917 0.186768 29.894C0.186824 21.983 3.32014 14.3963 8.89673 8.80225C14.4733 3.20829 22.0365 0.0651235 29.9231 0.0649414ZM29.9758 77.4604L30.9143 76.6753L30.925 76.6655C30.5161 77.0138 30.1949 77.2806 29.9758 77.4604ZM29.5725 10.9077C19.3553 10.9077 11.0726 19.4144 11.0725 29.9077C11.0725 40.4011 19.3553 48.9077 29.5725 48.9077C39.7898 48.9077 48.0725 40.4011 48.0725 29.9077C48.0724 19.4144 39.7897 10.9077 29.5725 10.9077Z"/>
</mask>
<path d="M29.9231 0.0649414C37.8098 0.0649414 45.3737 3.20823 50.9504 8.80225C56.5271 14.3963 59.6603 21.983 59.6604 29.894C59.6604 41.9739 52.1598 53.9584 44.678 62.9116C40.9351 67.3906 37.1928 71.1165 34.386 73.7222C32.9826 75.025 31.8124 76.0481 30.9934 76.7456C30.5843 77.094 30.2627 77.3613 30.0432 77.5415C29.9335 77.6316 29.849 77.7007 29.7922 77.7466C29.7639 77.7694 29.7422 77.7868 29.7278 77.7983C29.7206 77.804 29.7148 77.8081 29.7112 77.811C29.7097 77.8122 29.7082 77.8133 29.7073 77.814L29.7063 77.8149L29.6399 77.7329L29.7053 77.8159C29.6763 77.8387 29.6381 77.8442 29.6047 77.8325L29.5725 77.814L29.5715 77.813C29.5707 77.8123 29.5691 77.8113 29.5676 77.8101C29.564 77.8071 29.558 77.8022 29.551 77.7964C29.5368 77.7846 29.5152 77.7667 29.4875 77.7437C29.4318 77.6971 29.3488 77.6277 29.2415 77.5366C29.0261 77.3538 28.7103 77.0821 28.3088 76.729C27.5054 76.0223 26.3582 74.9862 24.9817 73.6694C22.2282 71.0354 18.5558 67.2764 14.884 62.7749C7.54438 53.7766 0.186768 41.7917 0.186768 29.894C0.186824 21.983 3.32014 14.3963 8.89673 8.80225C14.4733 3.20829 22.0365 0.0651235 29.9231 0.0649414ZM29.9758 77.4604L30.9143 76.6753L30.925 76.6655C30.5161 77.0138 30.1949 77.2806 29.9758 77.4604ZM29.5725 10.9077C19.3553 10.9077 11.0726 19.4144 11.0725 29.9077C11.0725 40.4011 19.3553 48.9077 29.5725 48.9077C39.7898 48.9077 48.0725 40.4011 48.0725 29.9077C48.0724 19.4144 39.7897 10.9077 29.5725 10.9077Z" fill="#2BF2F1"/>
<path d="M29.9231 0.0649414V-0.0406239H29.9231L29.9231 0.0649414ZM50.9504 8.80225L51.0252 8.72772L51.0252 8.72772L50.9504 8.80225ZM59.6604 29.894H59.766V29.894H59.6604ZM44.678 62.9116L44.759 62.9793V62.9793L44.678 62.9116ZM34.386 73.7222L34.4578 73.7995V73.7995L34.386 73.7222ZM30.9934 76.7456L31.0619 76.826V76.826L30.9934 76.7456ZM30.0432 77.5415L30.1102 77.6231V77.6231L30.0432 77.5415ZM29.7922 77.7466L29.8585 77.8287V77.8287L29.7922 77.7466ZM29.7278 77.7983L29.7937 77.8808L29.7938 77.8808L29.7278 77.7983ZM29.7112 77.811L29.7767 77.8938L29.777 77.8936L29.7112 77.811ZM29.7073 77.814L29.6411 77.7308L29.6326 77.7393L29.7073 77.814ZM29.7063 77.8149L29.6242 77.8814C29.6431 77.9046 29.6709 77.9188 29.7008 77.9204C29.7306 77.9219 29.7598 77.9107 29.7809 77.8896L29.7063 77.8149ZM29.6399 77.7329L29.7219 77.6665C29.6854 77.6214 29.6193 77.6142 29.574 77.6504C29.5287 77.6867 29.5211 77.7527 29.557 77.7983L29.6399 77.7329ZM29.7053 77.8159L29.7706 77.8989C29.7926 77.8816 29.8068 77.8562 29.8101 77.8284C29.8135 77.8006 29.8056 77.7726 29.7882 77.7506L29.7053 77.8159ZM29.6047 77.8325L29.5521 77.924C29.5577 77.9272 29.5636 77.9299 29.5697 77.9321L29.6047 77.8325ZM29.5725 77.814L29.4979 77.8886C29.5044 77.8952 29.5118 77.9008 29.5198 77.9054L29.5725 77.814ZM29.5715 77.813L29.6467 77.7378L29.6366 77.7298L29.5715 77.813ZM29.5676 77.8101L29.6348 77.7286L29.6348 77.7286L29.5676 77.8101ZM29.551 77.7964L29.4837 77.8777H29.4837L29.551 77.7964ZM29.4875 77.7437L29.4199 77.8247H29.4199L29.4875 77.7437ZM29.2415 77.5366L29.1731 77.6171H29.1731L29.2415 77.5366ZM28.3088 76.729L28.2391 76.8083V76.8083L28.3088 76.729ZM24.9817 73.6694L24.9087 73.7457V73.7457L24.9817 73.6694ZM14.884 62.7749L14.8022 62.8416V62.8416L14.884 62.7749ZM0.186768 29.894H0.0812023V29.894H0.186768ZM8.89673 8.80225L8.82197 8.72772V8.72772L8.89673 8.80225ZM29.9758 77.4604L29.9081 77.3795C29.8635 77.4168 29.8575 77.4831 29.8946 77.5278C29.9316 77.5726 29.9979 77.5789 30.0428 77.542L29.9758 77.4604ZM30.9143 76.6753L30.9821 76.7563L30.9853 76.7534L30.9143 76.6753ZM30.925 76.6655L30.9961 76.7436C31.0387 76.7049 31.0424 76.6391 31.0043 76.5958C30.9662 76.5525 30.9005 76.5478 30.8566 76.5852L30.925 76.6655ZM29.5725 10.9077V10.8021V10.8021V10.9077ZM11.0725 29.9077L10.9669 29.9077V29.9077H11.0725ZM29.5725 48.9077V49.0133V49.0133V48.9077ZM48.0725 29.9077H48.1781V29.9077L48.0725 29.9077ZM29.9231 0.0649414V0.170507C37.7817 0.170507 45.3187 3.30259 50.8757 8.87678L50.9504 8.80225L51.0252 8.72772C45.4287 3.11387 37.8379 -0.0406239 29.9231 -0.0406239V0.0649414ZM50.9504 8.80225L50.8757 8.87678C56.4325 14.451 59.5548 22.0109 59.5548 29.894H59.6604H59.766C59.7659 21.9551 56.6216 14.3416 51.0252 8.72772L50.9504 8.80225ZM59.6604 29.894H59.5548C59.5548 41.9347 52.0757 53.8944 44.597 62.8439L44.678 62.9116L44.759 62.9793C52.2439 54.0225 59.766 42.0131 59.766 29.894H59.6604ZM44.678 62.9116L44.597 62.8439C40.8577 67.3186 37.1186 71.0413 34.3142 73.6448L34.386 73.7222L34.4578 73.7995C37.2669 71.1917 41.0125 67.4625 44.759 62.9793L44.678 62.9116ZM34.386 73.7222L34.3142 73.6448C32.912 74.9465 31.7429 75.9686 30.925 76.6652L30.9934 76.7456L31.0619 76.826C31.8818 76.1276 33.0532 75.1035 34.4578 73.7995L34.386 73.7222ZM30.9934 76.7456L30.925 76.6652C30.5164 77.0132 30.1952 77.2801 29.9762 77.4599L30.0432 77.5415L30.1102 77.6231C30.3302 77.4425 30.6523 77.1748 31.0619 76.826L30.9934 76.7456ZM30.0432 77.5415L29.9762 77.4599C29.8664 77.55 29.7823 77.6189 29.7259 77.6644L29.7922 77.7466L29.8585 77.8287C29.9157 77.7826 30.0005 77.7131 30.1102 77.6231L30.0432 77.5415ZM29.7922 77.7466L29.7259 77.6644C29.6978 77.6871 29.6763 77.7043 29.6618 77.7159L29.7278 77.7983L29.7938 77.8808C29.8082 77.8692 29.83 77.8518 29.8585 77.8287L29.7922 77.7466ZM29.7278 77.7983L29.6619 77.7159C29.6596 77.7177 29.6574 77.7193 29.6549 77.7212C29.6539 77.722 29.6521 77.7233 29.6508 77.7243C29.6494 77.7253 29.6474 77.7268 29.6454 77.7285L29.7112 77.811L29.777 77.8936C29.7768 77.8938 29.7769 77.8937 29.7778 77.893C29.7788 77.8922 29.7797 77.8916 29.7814 77.8903C29.7845 77.8879 29.7888 77.8847 29.7937 77.8808L29.7278 77.7983ZM29.7112 77.811L29.6457 77.7283C29.6466 77.7275 29.6473 77.7271 29.6467 77.7275C29.6467 77.7275 29.6459 77.7281 29.6453 77.7285C29.6446 77.729 29.6432 77.73 29.6415 77.7314L29.7073 77.814L29.773 77.8966C29.7718 77.8975 29.7709 77.8982 29.7708 77.8983C29.7708 77.8983 29.7706 77.8984 29.7713 77.8979C29.7721 77.8973 29.7742 77.8958 29.7767 77.8938L29.7112 77.811ZM29.7073 77.814L29.6326 77.7393L29.6317 77.7403L29.7063 77.8149L29.7809 77.8896L29.7819 77.8886L29.7073 77.814ZM29.7063 77.8149L29.7883 77.7485L29.7219 77.6665L29.6399 77.7329L29.5578 77.7993L29.6242 77.8814L29.7063 77.8149ZM29.6399 77.7329L29.557 77.7983L29.6224 77.8813L29.7053 77.8159L29.7882 77.7506L29.7228 77.6676L29.6399 77.7329ZM29.7053 77.8159L29.6401 77.7329L29.6398 77.7329L29.6047 77.8325L29.5697 77.9321C29.6362 77.9555 29.7124 77.9446 29.7706 77.8989L29.7053 77.8159ZM29.6047 77.8325L29.6574 77.741L29.6252 77.7225L29.5725 77.814L29.5198 77.9054L29.5521 77.924L29.6047 77.8325ZM29.5725 77.814L29.6472 77.7393L29.6462 77.7383L29.5715 77.813L29.4969 77.8876L29.4979 77.8886L29.5725 77.814ZM29.5715 77.813L29.6366 77.7298C29.6347 77.7284 29.6331 77.7272 29.6327 77.7269C29.6323 77.7267 29.632 77.7264 29.6319 77.7264C29.6318 77.7263 29.6318 77.7263 29.6318 77.7262C29.6317 77.7262 29.6317 77.7262 29.6317 77.7262C29.6317 77.7262 29.6318 77.7263 29.6319 77.7264C29.6321 77.7265 29.6323 77.7266 29.6326 77.7268C29.6331 77.7272 29.6338 77.7278 29.6348 77.7286L29.5676 77.8101L29.5004 77.8915C29.5038 77.8942 29.5067 77.8963 29.5079 77.8973C29.5083 77.8975 29.5086 77.8977 29.5087 77.8978C29.5089 77.898 29.5089 77.898 29.5089 77.8979C29.5088 77.8979 29.5086 77.8977 29.5082 77.8975C29.5079 77.8972 29.5073 77.8968 29.5065 77.8961L29.5715 77.813ZM29.5676 77.8101L29.6348 77.7286C29.6306 77.7251 29.6254 77.7209 29.6184 77.7151L29.551 77.7964L29.4837 77.8777C29.4907 77.8835 29.4974 77.889 29.5005 77.8915L29.5676 77.8101ZM29.551 77.7964L29.6184 77.7151C29.6041 77.7033 29.5826 77.6855 29.5552 77.6626L29.4875 77.7437L29.4199 77.8247C29.4477 77.8479 29.4695 77.8659 29.4837 77.8777L29.551 77.7964ZM29.4875 77.7437L29.5552 77.6626C29.4995 77.6161 29.4167 77.5469 29.3098 77.4561L29.2415 77.5366L29.1731 77.6171C29.2808 77.7085 29.3641 77.7781 29.4199 77.8247L29.4875 77.7437ZM29.2415 77.5366L29.3098 77.4561C29.0949 77.2737 28.7795 77.0024 28.3786 76.6497L28.3088 76.729L28.2391 76.8083C28.641 77.1618 28.9573 77.4338 29.1731 77.6171L29.2415 77.5366ZM28.3088 76.729L28.3786 76.6497C27.5761 75.9439 26.43 74.9088 25.0547 73.5931L24.9817 73.6694L24.9087 73.7457C26.2864 75.0636 27.4347 76.1007 28.2391 76.8083L28.3088 76.729ZM24.9817 73.6694L25.0547 73.5931C22.3034 70.9613 18.6342 67.2055 14.9658 62.7082L14.884 62.7749L14.8022 62.8416C18.4775 67.3474 22.153 71.1096 24.9087 73.7457L24.9817 73.6694ZM14.884 62.7749L14.9658 62.7082C7.62899 53.7133 0.292333 41.7531 0.292333 29.894H0.186768H0.0812023C0.0812023 41.8304 7.45976 53.8399 14.8022 62.8416L14.884 62.7749ZM0.186768 29.894H0.292333C0.292389 22.0109 3.41466 14.451 8.97149 8.87678L8.89673 8.80225L8.82197 8.72772C3.22562 14.3416 0.0812592 21.9551 0.0812023 29.894H0.186768ZM8.89673 8.80225L8.97149 8.87678C14.5283 3.30265 22.0646 0.170688 29.9231 0.170507L29.9231 0.0649414L29.9231 -0.0406239C22.0084 -0.0404412 14.4183 3.11393 8.82197 8.72772L8.89673 8.80225ZM29.9758 77.4604L30.0436 77.5414L30.982 76.7563L30.9143 76.6753L30.8466 76.5943L29.9081 77.3795L29.9758 77.4604ZM30.9143 76.6753L30.9853 76.7534L30.9961 76.7436L30.925 76.6655L30.854 76.5874L30.8433 76.5972L30.9143 76.6753ZM30.925 76.6655L30.8566 76.5852C30.4482 76.933 30.1274 77.1994 29.9088 77.3789L29.9758 77.4604L30.0428 77.542C30.2623 77.3618 30.5841 77.0946 30.9935 76.7459L30.925 76.6655ZM29.5725 10.9077V10.8021C19.2944 10.8022 10.9671 19.3588 10.9669 29.9077L11.0725 29.9077L11.1781 29.9077C11.1782 19.4701 19.4163 11.0133 29.5725 11.0133V10.9077ZM11.0725 29.9077H10.9669C10.9669 40.4567 19.2943 49.0132 29.5725 49.0133V48.9077V48.8022C19.4162 48.8021 11.1781 40.3455 11.1781 29.9077H11.0725ZM29.5725 48.9077V49.0133C39.8507 49.0133 48.1781 40.4568 48.1781 29.9077H48.0725H47.9669C47.9669 40.3455 39.7288 48.8022 29.5725 48.8022V48.9077ZM48.0725 29.9077L48.1781 29.9077C48.1779 19.3588 39.8506 10.8021 29.5725 10.8021V10.9077V11.0133C39.7288 11.0133 47.9668 19.47 47.9669 29.9077L48.0725 29.9077Z" fill="#082422" mask="url(#path-3-outside-2_664_11579)"/>
</g>
<defs>
<clipPath id="clip0_664_11579">
<rect width="62" height="80" fill="white"/>
</clipPath>
</defs>
</svg>
