<svg width="142" height="80" viewBox="0 0 142 80" fill="none" xmlns="http://www.w3.org/2000/svg">
<g clip-path="url(#clip0_664_11588)">
<path d="M39.1598 74.6598L0 80.1107L39.1598 53L110.881 55.7254L140 79.8238L102.131 74.6598L70.7172 78.5328L39.1598 74.6598Z" fill="#082422" fill-opacity="0.5"/>
<path d="M99.1114 1.88257L132.742 14.5017L132.775 14.5144L132.78 14.5496L142.06 79.7019L142.073 79.7966L141.982 79.7673L103.416 67.1531L71.3106 78.1697L71.2911 78.1765L71.2715 78.1697L39.1651 67.1531L0.600647 79.7673L0.50885 79.7966L0.522522 79.7019L9.80182 14.5496L9.8067 14.5144L9.8399 14.5017L43.4708 1.88257L43.4922 1.87378L43.5137 1.88257L71.2911 12.8953L99.0684 1.88257L99.0899 1.87378L99.1114 1.88257Z" fill="white" stroke="#082422" stroke-width="0.119908" stroke-miterlimit="10"/>
<path d="M43.3723 6.25171L53.4788 10.3103L53.5071 10.322L53.5149 10.3513L57.093 24.8826L57.1194 24.9929L57.0139 24.9539L42.5012 19.5652L42.4934 19.5681V19.5691L12.2415 29.6667L12.1506 29.697L12.1633 29.6023L13.7717 17.3884L13.7766 17.3523L13.8098 17.3396L43.3293 6.25171L43.3508 6.24292L43.3723 6.25171Z" fill="#60D06F" stroke="#082422" stroke-width="0.119908" stroke-miterlimit="10"/>
<path d="M41.85 24.0212L41.8656 24.03L53.8549 28.4597L53.9994 28.5125L53.8568 28.571L41.2377 33.7644V33.7654L40.2582 34.1609H40.2572L35.5511 35.9597L25.4896 50.1648L25.4789 50.1804L25.4603 50.1873L8.46033 56.1726L8.36853 56.2048L8.38123 56.1082L11.2513 34.1941L11.2562 34.157L11.2914 34.1453L41.8041 24.0183L41.8275 24.0105L41.85 24.0212Z" fill="#DCFF00" stroke="#082422" stroke-width="0.119908" stroke-miterlimit="10"/>
<path d="M58.6318 31.6367L61.3466 44.0596L71.2753 47.4785L71.2773 47.4795L71.329 47.5L85.7275 41.6162L85.8076 41.584L85.8105 41.6699L86.1894 53.5889L86.1913 53.6309L86.1523 53.6465L71.2822 59.6895L71.2831 59.6904L71.2451 59.71L71.2216 59.7217L71.1962 59.7129L60.4218 55.6396L53.8925 67.9053L53.8681 67.9512L53.8193 67.9336L39.5624 62.9004L6.41888 73.9414L6.32806 73.9727L6.34076 73.877L8.05756 60.8848L8.06244 60.8477L8.0976 60.8359L28.8242 53.6367L38.8505 39.5098L38.8613 39.4951L38.8779 39.4883L41.1259 38.6455L42.0839 38.2812L58.5507 31.5938L58.6161 31.5674L58.6318 31.6367Z" fill="#008BD6" stroke="#082422" stroke-width="0.119908" stroke-miterlimit="10"/>
<path d="M99.402 6.25171L118.162 13.3494L118.25 13.3826L118.182 13.448L108.452 23.0466L108.425 23.073L108.389 23.0603L100.282 20.0945L85.4811 25.9363L85.8219 36.7673L85.8229 36.8083L85.7848 36.824L71.4449 42.7341L71.3737 42.7712L71.3502 42.782L71.3268 42.7742L65.6832 40.8201L65.652 40.8093L65.6451 40.7771L62.4489 26.822L58.7223 12.4343L58.692 12.3201L58.8014 12.363L71.4215 17.2878L99.359 6.25171L99.3805 6.24292L99.402 6.25171Z" fill="#CFCABF" stroke="#082422" stroke-width="0.119908" stroke-miterlimit="10"/>
<path d="M123.225 15.28L128.86 17.3748L128.894 17.3875L128.899 17.4236L132.747 46.7869L132.76 46.8875L132.665 46.8503L115.834 40.2625L115.806 40.2507L115.798 40.2224L111.97 26.4734L111.96 26.4402L111.985 26.4148L123.162 15.2937L123.189 15.2673L123.225 15.28Z" fill="#008BD6" stroke="#082422" stroke-width="0.119908" stroke-miterlimit="10"/>
<path d="M100.565 24.8923L107.115 27.2644L107.144 27.2751L107.153 27.3054L111.015 41.5828L111.02 41.6023L111.012 41.6208L105.761 54.615L114.697 66.7527L114.81 66.906L114.63 66.8445L103.023 62.9207L71.4176 73.9402L71.3981 73.947L71.3785 73.9412L58.7604 69.5994L58.694 69.5759L58.7272 69.5144L62.9957 61.4333L63.0211 61.3865L63.0699 61.405L71.4166 64.5212L71.4313 64.5251L91.3102 56.4968L90.6022 39.7458L90.5358 38.283L90.1471 29.0066L90.1451 28.9636L90.1852 28.948L100.499 24.905L100.517 24.8953L100.541 24.8835L100.565 24.8923Z" fill="#DCFF00" stroke="#082422" stroke-width="0.119908" stroke-miterlimit="10"/>
<path d="M115.256 44.6997L133.565 51.7319L133.598 51.7446L133.603 51.7798L136.531 73.8755L136.544 73.9702L136.453 73.9399L122.877 69.4985L122.859 69.4927L122.848 69.4771L111.399 54.3188L111.379 54.2915L111.392 54.2603L115.179 44.7329L115.201 44.6782L115.256 44.6997Z" fill="#60D06F" stroke="#082422" stroke-width="0.119908" stroke-miterlimit="10"/>
<path opacity="0.2" d="M71.0019 12.9772L43.5551 1.93823L39.2847 67.2146L71.0019 78.2536V12.9772Z" fill="#082422"/>
<path opacity="0.2" d="M132.677 14.5194L98.9344 1.93823L103.275 67.1288L142 79.71L132.677 14.5194Z" fill="#082422"/>
<path d="M71.0101 0.628662C73.6147 0.62871 76.1128 1.66711 77.9545 3.51538C79.7959 5.36365 80.8304 7.87048 80.8304 10.4841C80.8304 14.4744 78.3542 18.4302 75.889 21.3816C74.6555 22.8584 73.4224 24.0869 72.4974 24.946C72.035 25.3755 71.6493 25.713 71.3793 25.9431C71.2443 26.0582 71.1373 26.1463 71.0648 26.2058C71.0289 26.2353 71.0015 26.2581 70.9828 26.2732C70.9734 26.2808 70.9661 26.2869 70.9613 26.2908C70.9589 26.2927 70.9567 26.2937 70.9554 26.2947L70.9535 26.2966C70.9426 26.3052 70.9295 26.3094 70.9164 26.3093L70.8783 26.2957L70.8763 26.2947C70.8752 26.2937 70.8738 26.2917 70.8715 26.2898C70.8668 26.2859 70.8592 26.2799 70.85 26.2722C70.8316 26.2568 70.8042 26.2339 70.7689 26.2039C70.6979 26.1435 70.5936 26.0537 70.4613 25.9373C70.1964 25.7042 69.8183 25.3626 69.3646 24.9285C68.4571 24.0599 67.2468 22.8202 66.0365 21.3357C63.6182 18.3695 61.1899 14.4142 61.1898 10.4841C61.1898 7.8704 62.2242 5.36367 64.0658 3.51538C65.9075 1.66707 68.4055 0.628662 71.0101 0.628662Z" fill="#A8A8A8" stroke="#231F20" stroke-width="0.119908" stroke-linejoin="round"/>
<path d="M70.2202 -0.0595703C72.8248 -0.0595222 75.3229 0.978879 77.1646 2.82715C79.006 4.67542 80.0405 7.18225 80.0405 9.7959C80.0404 13.7862 77.5643 17.742 75.0991 20.6934C73.8656 22.1701 72.6325 23.3987 71.7075 24.2578C71.2451 24.6873 70.8594 25.0248 70.5894 25.2549C70.4543 25.3699 70.3473 25.4581 70.2749 25.5176C70.239 25.5471 70.2116 25.5698 70.1929 25.585C70.1835 25.5925 70.1762 25.5987 70.1714 25.6025C70.169 25.6045 70.1668 25.6055 70.1655 25.6064L70.1636 25.6084C70.1527 25.617 70.1396 25.6211 70.1265 25.6211L70.0884 25.6074L70.0864 25.6064C70.0852 25.6055 70.0838 25.6035 70.0815 25.6016C70.0768 25.5977 70.0693 25.5917 70.0601 25.584C70.0417 25.5686 70.0143 25.5456 69.979 25.5156C69.908 25.4553 69.8037 25.3655 69.6714 25.249C69.4065 25.0159 69.0283 24.6744 68.5747 24.2402C67.6672 23.3717 66.4569 22.132 65.2466 20.6475C62.8283 17.6812 60.4 13.726 60.3999 9.7959C60.3999 7.18217 61.4343 4.67544 63.2759 2.82715C65.1176 0.978837 67.6156 -0.0595703 70.2202 -0.0595703Z" fill="#EFEBE7" stroke="#231F20" stroke-width="0.119908" stroke-linejoin="round"/>
<g opacity="0.35">
<path d="M69.8662 10.4042L69.9308 10.4064L70.0767 8.58027H74.2777L74.5592 6.11792L67.1034 6.11905C67.1034 6.11905 66.9518 6.78862 66.9142 7.24198C66.7578 9.13296 67.9782 10.349 69.8662 10.4042Z" fill="#082422"/>
<path d="M66.6398 14.5444L66.5697 16.0205H69.5427L69.7823 13.0635L72.0999 13.0745L72.3967 10.501H71.2308C68.8161 10.501 66.7252 12.0026 66.6395 14.5447L66.6398 14.5444Z" fill="#082422"/>
</g>
<path d="M15.4961 13.9241C18.1007 13.9241 20.5988 14.9625 22.4404 16.8108C24.2819 18.6591 25.3164 21.1659 25.3164 23.7795C25.3163 27.7698 22.8402 31.7256 20.375 34.677C19.1415 36.1538 17.9084 37.3823 16.9834 38.2415C16.521 38.6709 16.1352 39.0085 15.8652 39.2385C15.7302 39.3536 15.6232 39.4417 15.5508 39.5012C15.5149 39.5307 15.4875 39.5535 15.4688 39.5686C15.4594 39.5762 15.4521 39.5823 15.4473 39.5862C15.4449 39.5881 15.4426 39.5891 15.4414 39.5901L15.4395 39.592C15.4286 39.6006 15.4154 39.6048 15.4023 39.6047L15.3643 39.5911L15.3623 39.5901C15.3611 39.5891 15.3597 39.5871 15.3574 39.5852C15.3527 39.5813 15.3451 39.5753 15.3359 39.5676C15.3175 39.5522 15.2902 39.5293 15.2549 39.4993C15.1838 39.4389 15.0796 39.3491 14.9473 39.2327C14.6824 38.9996 14.3042 38.658 13.8506 38.2239C12.943 37.3553 11.7328 36.1156 10.5225 34.6311C8.10414 31.6649 5.67587 27.7096 5.67578 23.7795C5.67578 21.1658 6.71017 18.6591 8.55176 16.8108C10.3934 14.9625 12.8915 13.9241 15.4961 13.9241Z" fill="#00AEAD" stroke="#231F20" stroke-width="0.119908" stroke-linejoin="round"/>
<path d="M14.7065 13.2373C17.311 13.2374 19.8092 14.2758 21.6508 16.124C23.4923 17.9723 24.5268 20.4791 24.5268 23.0928C24.5267 27.083 22.0506 31.0388 19.5854 33.9902C18.3518 35.467 17.1188 36.6956 16.1938 37.5547C15.7314 37.9842 15.3456 38.3217 15.0756 38.5518C14.9406 38.6668 14.8336 38.755 14.7612 38.8145C14.7252 38.844 14.6979 38.8667 14.6791 38.8818C14.6698 38.8894 14.6625 38.8956 14.6577 38.8994C14.6553 38.9013 14.653 38.9023 14.6518 38.9033L14.6498 38.9053C14.6389 38.9138 14.6258 38.918 14.6127 38.918L14.5746 38.9043L14.5727 38.9033C14.5715 38.9023 14.5701 38.9003 14.5678 38.8984C14.5631 38.8945 14.5555 38.8885 14.5463 38.8809C14.5279 38.8655 14.5006 38.8425 14.4653 38.8125C14.3942 38.7522 14.29 38.6624 14.1577 38.5459C13.8928 38.3128 13.5146 37.9713 13.061 37.5371C12.1534 36.6685 10.9432 35.4289 9.73285 33.9443C7.31453 30.9781 4.88626 27.0229 4.88617 23.0928C4.88617 20.479 5.92056 17.9723 7.76215 16.124C9.60383 14.2757 12.1018 13.2373 14.7065 13.2373Z" fill="#2BF2F1" stroke="#231F20" stroke-width="0.119908" stroke-linejoin="round"/>
<path d="M14.3551 23.7011L14.4197 23.7033L14.5656 21.8771H18.7666L19.0481 19.4148L11.5922 19.4159C11.5922 19.4159 11.4407 20.0855 11.4031 20.5389C11.2467 22.4298 12.467 23.6459 14.3551 23.7011Z" fill="#082422"/>
<path d="M11.1287 27.8403L11.0586 29.3164H14.0316L14.2712 26.3594L16.5888 26.3704L16.8856 23.7969H15.7197C13.305 23.7969 11.2141 25.2985 11.1284 27.8406L11.1287 27.8403Z" fill="#082422"/>
<path d="M101.92 20.9163C104.525 20.9163 107.023 21.9547 108.864 23.803C110.706 25.6513 111.74 28.1581 111.74 30.7717C111.74 34.762 109.264 38.7178 106.799 41.6692C105.565 43.146 104.332 44.3745 103.407 45.2336C102.945 45.6631 102.559 46.0006 102.289 46.2307C102.154 46.3458 102.047 46.4339 101.975 46.4934C101.939 46.5229 101.911 46.5457 101.893 46.5608C101.883 46.5684 101.876 46.5745 101.871 46.5784C101.869 46.5803 101.867 46.5813 101.865 46.5823L101.863 46.5842C101.853 46.5928 101.839 46.597 101.826 46.5969L101.788 46.5833L101.786 46.5823C101.785 46.5813 101.784 46.5793 101.781 46.5774C101.777 46.5735 101.769 46.5675 101.76 46.5598C101.742 46.5444 101.714 46.5215 101.679 46.4915C101.608 46.4311 101.504 46.3413 101.371 46.2249C101.106 45.9917 100.728 45.6502 100.275 45.2161C99.367 44.3475 98.1568 43.1078 96.9465 41.6233C94.5282 38.6571 92.0999 34.7018 92.0998 30.7717C92.0998 28.158 93.1342 25.6513 94.9758 23.803C96.8175 21.9547 99.3155 20.9163 101.92 20.9163Z" fill="#00AEAD" stroke="#231F20" stroke-width="0.119908" stroke-linejoin="round"/>
<path d="M101.13 20.2278C103.735 20.2278 106.233 21.2662 108.075 23.1145C109.916 24.9628 110.951 27.4696 110.951 30.0833C110.95 34.0735 108.474 38.0293 106.009 40.9807C104.776 42.4575 103.542 43.686 102.617 44.5452C102.155 44.9747 101.769 45.3122 101.499 45.5422C101.364 45.6573 101.257 45.7454 101.185 45.8049C101.149 45.8344 101.122 45.8572 101.103 45.8723C101.093 45.8799 101.086 45.886 101.081 45.8899C101.079 45.8918 101.077 45.8928 101.076 45.8938L101.074 45.8958C101.063 45.9043 101.05 45.9085 101.036 45.9084L100.998 45.8948L100.996 45.8938C100.995 45.8928 100.994 45.8908 100.992 45.8889C100.987 45.885 100.979 45.879 100.97 45.8713C100.952 45.856 100.924 45.833 100.889 45.803C100.818 45.7426 100.714 45.6528 100.581 45.5364C100.316 45.3033 99.9383 44.9617 99.4847 44.5276C98.5771 43.659 97.3669 42.4194 96.1566 40.9348C93.7382 37.9686 91.31 34.0134 91.3099 30.0833C91.3099 27.4695 92.3443 24.9628 94.1859 23.1145C96.0275 21.2662 98.5256 20.2278 101.13 20.2278Z" fill="#2BF2F1" stroke="#231F20" stroke-width="0.119908" stroke-linejoin="round"/>
<path d="M100.776 30.6915L100.841 30.6938L100.987 28.8676H105.188L105.469 26.4053L98.0135 26.4064C98.0135 26.4064 97.862 27.076 97.8244 27.5293C97.668 29.4203 98.8883 30.6363 100.776 30.6915Z" fill="#082422"/>
<path d="M97.5478 34.8313L97.4777 36.3074H100.451L100.69 33.3504L103.008 33.3614L103.305 30.7878H102.139C99.7241 30.7878 97.6333 32.2894 97.5475 34.8316L97.5478 34.8313Z" fill="#082422"/>
<path d="M39.94 33.1497C42.5446 33.1497 45.0427 34.1881 46.8843 36.0364C48.7258 37.8846 49.7603 40.3915 49.7603 43.0051C49.7602 46.9954 47.2841 50.9512 44.8189 53.9026C43.5854 55.3794 42.3523 56.6079 41.4273 57.467C40.9649 57.8965 40.5791 58.234 40.3091 58.4641C40.1741 58.5792 40.0671 58.6673 39.9947 58.7268C39.9588 58.7563 39.9314 58.7791 39.9127 58.7942C39.9033 58.8018 39.896 58.8079 39.8912 58.8118C39.8888 58.8137 39.8865 58.8147 39.8853 58.8157L39.8834 58.8176C39.8725 58.8262 39.8594 58.8303 39.8463 58.8303L39.8082 58.8167L39.8062 58.8157C39.805 58.8147 39.8036 58.8127 39.8013 58.8108C39.7966 58.8069 39.7891 58.8009 39.7798 58.7932C39.7614 58.7778 39.7341 58.7548 39.6988 58.7249C39.6277 58.6645 39.5235 58.5747 39.3912 58.4583C39.1263 58.2251 38.7481 57.8836 38.2945 57.4495C37.3869 56.5809 36.1767 55.3412 34.9664 53.8567C32.548 50.8905 30.1198 46.9352 30.1197 43.0051C30.1197 40.3914 31.1541 37.8847 32.9957 36.0364C34.8374 34.1881 37.3354 33.1497 39.94 33.1497Z" fill="#00AEAD" stroke="#231F20" stroke-width="0.119908" stroke-linejoin="round"/>
<path d="M39.1503 32.4644C41.7549 32.4644 44.253 33.5028 46.0947 35.3511C47.9361 37.1993 48.9706 39.7062 48.9706 42.3198C48.9705 46.3101 46.4944 50.2659 44.0292 53.2173C42.7957 54.6941 41.5626 55.9226 40.6376 56.7817C40.1752 57.2112 39.7895 57.5487 39.5195 57.7788C39.3845 57.8938 39.2775 57.982 39.205 58.0415C39.1691 58.071 39.1417 58.0938 39.123 58.1089C39.1136 58.1165 39.1063 58.1226 39.1015 58.1265C39.0991 58.1284 39.0969 58.1294 39.0956 58.1304L39.0937 58.1323C39.0828 58.1409 39.0697 58.145 39.0566 58.145L39.0185 58.1313L39.0165 58.1304C39.0154 58.1294 39.014 58.1274 39.0117 58.1255C39.007 58.1216 38.9994 58.1156 38.9902 58.1079C38.9718 58.0925 38.9444 58.0695 38.9091 58.0396C38.8381 57.9792 38.7338 57.8894 38.6015 57.7729C38.3366 57.5398 37.9585 57.1983 37.5048 56.7642C36.5973 55.8956 35.387 54.6559 34.1767 53.1714C31.7584 50.2052 29.3301 46.2499 29.33 42.3198C29.33 39.7061 30.3644 37.1994 32.206 35.3511C34.0477 33.5028 36.5457 32.4644 39.1503 32.4644Z" fill="#2BF2F1" stroke="#231F20" stroke-width="0.119908" stroke-linejoin="round"/>
<path d="M38.7993 42.9259L38.8639 42.9282L39.0098 41.102H43.2109L43.4923 38.6396L36.0365 38.6408C36.0365 38.6408 35.8849 39.3103 35.8473 39.7637C35.6909 41.6547 36.9113 42.8707 38.7993 42.9259Z" fill="#082422"/>
<path d="M35.5729 47.0666L35.5028 48.5427H38.4759L38.7154 45.5857L41.033 45.5968L41.3298 43.0232H40.1639C37.7492 43.0232 35.6583 44.5248 35.5726 47.0669L35.5729 47.0666Z" fill="#082422"/>
</g>
<defs>
<clipPath id="clip0_664_11588">
<rect width="142" height="80" fill="white"/>
</clipPath>
</defs>
</svg>
