<svg width="85" height="80" viewBox="0 0 85 80" fill="none" xmlns="http://www.w3.org/2000/svg">
<g clip-path="url(#clip0_664_14863)">
<path d="M23.6057 76.8191L0.00380707 79.9151L8.1607 68.0469L66.9906 65.4668L84.6049 79.9151L61.6977 76.8191L42.6951 79.1411L23.6057 76.8191Z" fill="#082422" fill-opacity="0.5"/>
<path d="M79.0468 40.9817L84.5966 79.9036L61.5243 72.3665L61.5253 72.3645L61.5204 72.3665L42.3046 78.9524L23.0888 72.3665L23.0858 72.3723L23.0888 72.3645L23.0839 72.3665L0.0116196 79.9036L5.56045 40.9817L25.6728 33.4417L42.3017 40.0295L42.3007 40.0315L42.3065 40.0295L58.9345 33.4417L79.0468 40.9817Z" fill="white" stroke="#082422" stroke-width="0.0134419" stroke-miterlimit="10"/>
<path d="M25.5885 36.0474L25.5914 36.0415L31.6373 38.4663L31.6461 38.4702L31.6412 38.4712L33.7819 47.1558L33.7789 47.146L33.777 47.1499L33.778 47.1509L33.775 47.1567L33.7731 47.1636L25.0817 43.939L25.067 43.9448L6.96936 49.98L6.98303 49.9751L6.97424 49.9731V49.9741L6.96057 49.9722L7.92249 42.6733L7.92444 42.6606L7.92932 42.6743L7.92737 42.6675L25.5865 36.0415L25.5924 36.0386L25.5885 36.0474Z" fill="#60D06F" stroke="#082422" stroke-width="0.0134419" stroke-miterlimit="10"/>
<path d="M4.71701 65.8159L4.70627 65.8208L4.71896 65.8169L4.71701 65.8159ZM4.71701 65.8159L14.8762 62.2446L14.8772 62.2456L14.8801 62.2417L20.9045 53.7446L23.7278 52.6675L24.3137 52.4302L31.8625 49.3267L31.8606 49.3208L31.8576 49.314L31.8567 49.312L31.8625 49.314L24.6877 46.6665L24.6779 46.6606L24.675 46.6655L24.6789 46.6577L24.6731 46.6597L6.41916 52.7124L6.41623 52.7036L6.41428 52.7173L4.69748 65.814L4.70432 65.8149L4.71701 65.8159Z" fill="#2BF2F1" stroke="#082422" stroke-width="0.0134419" stroke-miterlimit="10"/>
<path d="M3.49905 76.4348L3.48734 76.4397L3.50101 76.4358L3.49905 76.4348ZM3.49905 76.4348L23.3233 69.8381L31.8633 72.8499L31.8506 72.886L31.8711 72.8469L35.7891 65.4934L42.2588 67.9368L42.2578 67.9397L42.2647 67.9368L42.2871 67.925L51.1846 64.3118L51.1895 64.3235V64.3049L50.9619 57.1819H50.9356L42.3291 60.6965L42.2862 60.6799L36.3311 58.6311L34.7032 51.1917L34.6973 51.1926L34.6905 51.1936L34.6582 51.2014L24.8428 55.1829L24.2696 55.4006L22.9248 55.9036L22.9219 55.9075L16.918 64.3567L4.51077 68.6624L4.51273 68.6692L4.50784 68.6545L4.50589 68.6682L3.47855 76.4329L3.49222 76.4348V76.4338L3.49905 76.4348Z" fill="#008BD6" stroke="#082422" stroke-width="0.0134419" stroke-miterlimit="10"/>
<path d="M59.1101 36.0415L70.3328 40.2827L70.3191 40.2778L70.3357 40.2944L64.5144 46.0308L64.5037 46.0405L64.5076 46.0317L59.6502 44.2573H59.6443L50.7634 47.7573L50.9675 54.2515V54.27L50.9636 54.2583L42.3845 57.7905L42.3396 57.813L42.3338 57.8159L42.3347 57.813L38.9588 56.645L38.949 56.6421L38.9607 56.6392L38.9539 56.6401L37.0427 48.3003L34.8123 39.7017L34.8152 39.7104L34.8191 39.6997L34.8211 39.6938L42.3816 42.6411L59.1052 36.0415L59.1111 36.0386L59.1101 36.0415Z" fill="#60D06F" stroke="#082422" stroke-width="0.0134419" stroke-miterlimit="10"/>
<path d="M79.0363 60.2378L79.0372 60.2388L79.0343 60.2446L79.0323 60.2515L68.963 56.314L68.9542 56.3101L68.9581 56.3081L66.6681 48.0923L66.6652 48.0815L66.67 48.0864L73.3566 41.4399L73.3673 41.4302L73.3634 41.439L76.7355 42.6899L76.7472 42.6948L76.7394 42.6958L79.0411 60.2446L79.0392 60.2319L79.0363 60.2378Z" fill="#008BD6" stroke="#082422" stroke-width="0.0134419" stroke-miterlimit="10"/>
<path d="M34.8523 73.856L42.366 76.439L42.365 76.4409L42.3699 76.439L61.2879 69.8491L68.24 72.1987L68.242 72.1919L68.2429 72.1851L68.2439 72.1841L68.2468 72.188L62.8914 64.9204L66.0398 57.1411L66.033 57.1382L66.0408 57.1411L66.0398 57.1362L63.7293 48.604L63.7224 48.605L63.7341 48.6021L63.7254 48.5991L59.8064 47.1821L59.8074 47.1792L59.8006 47.1821L59.7898 47.188V47.187L53.6179 49.605L53.6199 49.6108L53.6121 49.5923L53.6131 49.6118L53.8455 55.1558L53.8855 56.0298L54.3093 66.0601L42.3904 70.8696L42.3699 70.8657L37.3757 69.0024L37.3728 69.0083L37.3914 68.9595L37.367 69.0054L34.8132 73.8345L34.8191 73.8384L34.8523 73.856ZM34.8523 73.856L34.8172 73.8442L34.8572 73.8589L34.8523 73.856Z" fill="#2BF2F1" stroke="#082422" stroke-width="0.0134419" stroke-miterlimit="10"/>
<path d="M81.2976 76.4333L81.2957 76.4402L73.1736 73.7859L73.1697 73.7839L73.1707 73.783L66.3221 64.7234L66.3152 64.7146L66.3221 64.7166L68.5867 59.0232L68.7879 58.5183L68.5926 59.0261L68.5955 59.0203L79.5476 63.2224L79.5594 63.2273L79.5515 63.2283L81.3045 76.4333L81.3025 76.4187L81.2976 76.4333Z" fill="#60D06F" stroke="#082422" stroke-width="0.0134419" stroke-miterlimit="10"/>
<path opacity="0.2" d="M42.1307 40.033L25.711 33.4358L23.1563 72.4466L42.1307 79.0438V40.033Z" fill="#082422"/>
<path opacity="0.2" d="M79.0281 40.9546L58.8419 33.4358L61.4389 72.3954L84.6052 79.9142L79.0281 40.9546Z" fill="#082422"/>
<mask id="mask0_664_14863" style="mask-type:alpha" maskUnits="userSpaceOnUse" x="0" y="33" width="85" height="47">
<path d="M79.043 40.9817L84.5928 79.9036L61.5205 72.3665L61.5215 72.3645L61.5166 72.3665L42.3008 78.9524L23.085 72.3665L23.082 72.3723L23.085 72.3645L23.0801 72.3665L0.00782776 79.9036L5.55666 40.9817L25.669 33.4417L42.2979 40.0295L42.2969 40.0315L42.3027 40.0295L58.9307 33.4417L79.043 40.9817Z" fill="white" stroke="#082422" stroke-width="0.0134419" stroke-miterlimit="10"/>
</mask>
<g mask="url(#mask0_664_14863)">
<path opacity="0.2" d="M44.2201 3.30518C48.794 3.30518 53.181 5.12725 56.4154 8.36963C59.6498 11.6123 61.4671 16.0113 61.4671 20.5972C61.467 27.6009 57.1149 34.5558 52.765 39.7583C50.5897 42.3599 48.414 44.5239 46.7826 46.0376C45.9669 46.7944 45.2877 47.3894 44.8119 47.7944C44.574 47.9969 44.3866 48.1517 44.2591 48.2563C44.1954 48.3086 44.1466 48.3489 44.1136 48.3755C44.0975 48.3885 44.0848 48.3981 44.0765 48.4048C44.0724 48.4081 44.0689 48.4109 44.0668 48.4126C44.0659 48.4133 44.0653 48.4142 44.0648 48.4146H44.0638L44.055 48.4048L44.0638 48.4155L44.0462 48.4146C44.0456 48.4141 44.0442 48.4133 44.0433 48.4126C44.0413 48.4109 44.0383 48.4079 44.0345 48.4048C44.0263 48.398 44.0134 48.3878 43.9974 48.3745C43.9651 48.3476 43.9171 48.3072 43.8548 48.2544C43.7298 48.1483 43.546 47.9906 43.3129 47.7856C42.8461 47.3753 42.1792 46.7731 41.3793 46.0083C39.7788 44.4782 37.644 42.2939 35.5101 39.6792C31.2429 34.4503 26.9732 27.4952 26.973 20.5972C26.9731 16.0113 28.7904 11.6123 32.0248 8.36963C35.2591 5.12708 39.6461 3.30531 44.2201 3.30518ZM44.2201 8.19482C38.3558 8.19488 33.6022 12.9487 33.6019 18.813C33.6019 24.6775 38.3556 29.4321 44.2201 29.4321C50.0846 29.4321 54.8392 24.6775 54.8392 18.813C54.839 12.9487 50.0844 8.19482 44.2201 8.19482ZM56.9955 9.00049C57.0892 9.10432 57.1818 9.20908 57.2728 9.31494C57.0893 9.10157 56.9 8.89199 56.7054 8.68701L56.9955 9.00049ZM51.2015 4.80029C51.3298 4.85729 51.4574 4.91594 51.5843 4.97607L51.2025 4.80029C51.0743 4.74334 50.9453 4.68807 50.8158 4.63428L51.2015 4.80029Z" fill="#082422"/>
</g>
<mask id="path-14-outside-1_664_14863" maskUnits="userSpaceOnUse" x="24.051" y="0.218994" width="36" height="47" fill="black">
<rect fill="white" x="24.051" y="0.218994" width="36" height="47"/>
<path d="M42.2981 1.21899C46.8721 1.21904 51.2591 3.04093 54.4934 6.28345C57.7278 9.5262 59.5452 13.9251 59.5452 18.511C59.545 25.5147 55.1929 32.4696 50.843 37.6721C48.6678 40.2737 46.492 42.4378 44.8606 43.9514C44.0449 44.7082 43.3658 45.3032 42.8899 45.7083C42.652 45.9107 42.4647 46.0656 42.3372 46.1702C42.2735 46.2224 42.2246 46.2627 42.1917 46.2893C42.1755 46.3023 42.1629 46.3119 42.1545 46.3186C42.1504 46.3219 42.1469 46.3247 42.1448 46.3264C42.1439 46.3271 42.1433 46.3279 42.1428 46.3284H42.1419L42.1331 46.3186C42.14 46.3131 42.7481 45.8279 43.7346 44.9534C42.7425 45.8328 42.1331 46.3186 42.1331 46.3186C42.1331 46.3186 41.799 46.0436 41.2239 45.5334L41.221 45.5315C41.7941 46.04 42.1289 46.3152 42.1331 46.3186L42.1419 46.3293L42.1243 46.3284C42.1238 46.328 42.1224 46.3272 42.1213 46.3264C42.1193 46.3247 42.1165 46.3218 42.1126 46.3186C42.1044 46.3118 42.0915 46.3018 42.0754 46.2883C42.0432 46.2614 41.9952 46.2211 41.9329 46.1682C41.8078 46.0621 41.6242 45.9046 41.3909 45.6995C40.9241 45.2891 40.2574 44.687 39.4573 43.9221C37.8569 42.392 35.7221 40.2078 33.5881 37.593C29.3208 32.3642 25.0512 25.4091 25.051 18.511C25.051 13.925 26.8684 9.52621 30.1028 6.28345C33.3372 3.04085 37.7241 1.21904 42.2981 1.21899ZM42.2971 6.10864C36.4328 6.10882 31.679 10.8625 31.679 16.7268C31.679 22.5912 36.4328 27.3458 42.2971 27.3459C48.1616 27.3459 52.9163 22.5913 52.9163 16.7268C52.9162 10.8623 48.1616 6.10864 42.2971 6.10864ZM54.2473 6.06079C54.1675 5.98379 54.0862 5.90855 54.0051 5.83325C54.0862 5.90857 54.1675 5.98379 54.2473 6.06079ZM53.927 5.75903C53.9065 5.74019 53.8861 5.72112 53.8655 5.70239C53.8431 5.68207 53.8196 5.66301 53.7971 5.64282C53.8403 5.68165 53.8842 5.71974 53.927 5.75903ZM53.3401 5.24634C53.3725 5.27347 53.4046 5.30098 53.4368 5.32837C53.4045 5.30101 53.3725 5.27344 53.3401 5.24634ZM52.9114 4.89868C52.9037 4.89269 52.8966 4.8861 52.8889 4.88013C52.8814 4.87427 52.874 4.86839 52.8665 4.86255C52.8816 4.87436 52.8963 4.88682 52.9114 4.89868Z"/>
</mask>
<path d="M42.2981 1.21899C46.8721 1.21904 51.2591 3.04093 54.4934 6.28345C57.7278 9.5262 59.5452 13.9251 59.5452 18.511C59.545 25.5147 55.1929 32.4696 50.843 37.6721C48.6678 40.2737 46.492 42.4378 44.8606 43.9514C44.0449 44.7082 43.3658 45.3032 42.8899 45.7083C42.652 45.9107 42.4647 46.0656 42.3372 46.1702C42.2735 46.2224 42.2246 46.2627 42.1917 46.2893C42.1755 46.3023 42.1629 46.3119 42.1545 46.3186C42.1504 46.3219 42.1469 46.3247 42.1448 46.3264C42.1439 46.3271 42.1433 46.3279 42.1428 46.3284H42.1419L42.1331 46.3186C42.14 46.3131 42.7481 45.8279 43.7346 44.9534C42.7425 45.8328 42.1331 46.3186 42.1331 46.3186C42.1331 46.3186 41.799 46.0436 41.2239 45.5334L41.221 45.5315C41.7941 46.04 42.1289 46.3152 42.1331 46.3186L42.1419 46.3293L42.1243 46.3284C42.1238 46.328 42.1224 46.3272 42.1213 46.3264C42.1193 46.3247 42.1165 46.3218 42.1126 46.3186C42.1044 46.3118 42.0915 46.3018 42.0754 46.2883C42.0432 46.2614 41.9952 46.2211 41.9329 46.1682C41.8078 46.0621 41.6242 45.9046 41.3909 45.6995C40.9241 45.2891 40.2574 44.687 39.4573 43.9221C37.8569 42.392 35.7221 40.2078 33.5881 37.593C29.3208 32.3642 25.0512 25.4091 25.051 18.511C25.051 13.925 26.8684 9.52621 30.1028 6.28345C33.3372 3.04085 37.7241 1.21904 42.2981 1.21899ZM42.2971 6.10864C36.4328 6.10882 31.679 10.8625 31.679 16.7268C31.679 22.5912 36.4328 27.3458 42.2971 27.3459C48.1616 27.3459 52.9163 22.5913 52.9163 16.7268C52.9162 10.8623 48.1616 6.10864 42.2971 6.10864ZM54.2473 6.06079C54.1675 5.98379 54.0862 5.90855 54.0051 5.83325C54.0862 5.90857 54.1675 5.98379 54.2473 6.06079ZM53.927 5.75903C53.9065 5.74019 53.8861 5.72112 53.8655 5.70239C53.8431 5.68207 53.8196 5.66301 53.7971 5.64282C53.8403 5.68165 53.8842 5.71974 53.927 5.75903ZM53.3401 5.24634C53.3725 5.27347 53.4046 5.30098 53.4368 5.32837C53.4045 5.30101 53.3725 5.27344 53.3401 5.24634ZM52.9114 4.89868C52.9037 4.89269 52.8966 4.8861 52.8889 4.88013C52.8814 4.87427 52.874 4.86839 52.8665 4.86255C52.8816 4.87436 52.8963 4.88682 52.9114 4.89868Z" fill="#CFCABF"/>
<path d="M42.2981 1.21899V1.20555V1.20555V1.21899ZM54.4934 6.28345L54.5029 6.27395V6.27395L54.4934 6.28345ZM59.5452 18.511H59.5586V18.511H59.5452ZM50.843 37.6721L50.8533 37.6807V37.6807L50.843 37.6721ZM44.8606 43.9514L44.8697 43.9613V43.9613L44.8606 43.9514ZM42.8899 45.7083L42.8986 45.7185V45.7185L42.8899 45.7083ZM42.3372 46.1702L42.3457 46.1806V46.1806L42.3372 46.1702ZM42.1917 46.2893L42.2001 46.2998V46.2998L42.1917 46.2893ZM42.1545 46.3186L42.1462 46.3081L42.1462 46.3081L42.1545 46.3186ZM42.1448 46.3264L42.1532 46.3369H42.1532L42.1448 46.3264ZM42.1428 46.3284V46.346L42.1515 46.3386L42.1428 46.3284ZM42.1419 46.3284L42.1269 46.3418H42.1419V46.3284ZM41.2239 45.5334L41.2329 45.5233L41.2313 45.5223L41.2239 45.5334ZM41.221 45.5315L41.2284 45.5203C41.2225 45.5164 41.2146 45.5177 41.2103 45.5233C41.206 45.5289 41.2067 45.5369 41.212 45.5415L41.221 45.5315ZM42.1419 46.3293L42.1411 46.3428C42.1464 46.3431 42.1514 46.3402 42.1538 46.3354C42.1562 46.3307 42.1556 46.325 42.1523 46.3208L42.1419 46.3293ZM42.1243 46.3284L42.1137 46.3412L42.1235 46.3418L42.1243 46.3284ZM42.1213 46.3264L42.1128 46.3368L42.1131 46.337L42.1213 46.3264ZM42.1126 46.3186L42.1212 46.3083L42.1211 46.3083L42.1126 46.3186ZM42.0754 46.2883L42.0668 46.2986L42.0668 46.2987L42.0754 46.2883ZM41.9329 46.1682L41.9242 46.1785V46.1785L41.9329 46.1682ZM41.3909 45.6995L41.382 45.7096V45.7096L41.3909 45.6995ZM39.4573 43.9221L39.448 43.9318V43.9318L39.4573 43.9221ZM33.5881 37.593L33.5777 37.6015V37.6015L33.5881 37.593ZM25.051 18.511H25.0376V18.511H25.051ZM30.1028 6.28345L30.0933 6.27395H30.0933L30.1028 6.28345ZM42.2971 6.10864V6.0952V6.0952V6.10864ZM31.679 16.7268H31.6655V16.7268H31.679ZM42.2971 27.3459V27.3594V27.3594V27.3459ZM52.9163 16.7268H52.9297V16.7268H52.9163ZM53.8655 5.70239L53.8565 5.71235V5.71235L53.8655 5.70239ZM52.8889 4.88013L52.8972 4.86953V4.86953L52.8889 4.88013ZM42.2981 1.21899V1.23244C46.8685 1.23248 51.2521 3.05294 54.4839 6.29294L54.4934 6.28345L54.5029 6.27395C51.2661 3.02891 46.8757 1.2056 42.2981 1.20555V1.21899ZM54.4934 6.28345L54.4839 6.29294C57.7157 9.53317 59.5317 13.9287 59.5317 18.511H59.5452H59.5586C59.5586 13.9216 57.7398 9.51923 54.5029 6.27395L54.4934 6.28345ZM59.5452 18.511H59.5317C59.5315 25.5097 55.1822 32.4614 50.8327 37.6635L50.843 37.6721L50.8533 37.6807C55.2036 32.4778 59.5584 25.5197 59.5586 18.511H59.5452ZM50.843 37.6721L50.8327 37.6635C48.6579 40.2646 46.4826 42.4282 44.8515 43.9416L44.8606 43.9514L44.8697 43.9613C46.5014 42.4473 48.6776 40.2829 50.8533 37.6807L50.843 37.6721ZM44.8606 43.9514L44.8515 43.9416C44.0359 44.6982 43.3569 45.2931 42.8812 45.698L42.8899 45.7083L42.8986 45.7185C43.3746 45.3133 44.0539 44.7182 44.8697 43.9613L44.8606 43.9514ZM42.8899 45.7083L42.8812 45.698C42.6434 45.9004 42.4561 46.0552 42.3286 46.1598L42.3372 46.1702L42.3457 46.1806C42.4732 46.0759 42.6607 45.921 42.8986 45.7185L42.8899 45.7083ZM42.3372 46.1702L42.3286 46.1598C42.2649 46.2121 42.2161 46.2523 42.1832 46.2788L42.1917 46.2893L42.2001 46.2998C42.2331 46.2731 42.282 46.2328 42.3457 46.1806L42.3372 46.1702ZM42.1917 46.2893L42.1832 46.2788C42.1667 46.2922 42.1552 46.3008 42.1462 46.3081L42.1545 46.3186L42.1629 46.3291C42.1705 46.323 42.1843 46.3125 42.2001 46.2998L42.1917 46.2893ZM42.1545 46.3186L42.1462 46.3081C42.142 46.3114 42.1385 46.3142 42.1364 46.3159L42.1448 46.3264L42.1532 46.3369C42.1553 46.3352 42.1588 46.3324 42.1629 46.3291L42.1545 46.3186ZM42.1448 46.3264L42.1364 46.3159C42.1351 46.3169 42.1342 46.318 42.1337 46.3185C42.1329 46.3194 42.1335 46.3186 42.1341 46.3181L42.1428 46.3284L42.1515 46.3386C42.1523 46.338 42.1528 46.3374 42.1531 46.3371C42.1532 46.337 42.1533 46.3368 42.1534 46.3367C42.1535 46.3366 42.1536 46.3366 42.1536 46.3365C42.1538 46.3363 42.1536 46.3366 42.1532 46.3369L42.1448 46.3264ZM42.1428 46.3284V46.3149H42.1419V46.3284V46.3418H42.1428V46.3284ZM42.1419 46.3284L42.1518 46.3194L42.1431 46.3096L42.1331 46.3186L42.1231 46.3276L42.1319 46.3374L42.1419 46.3284ZM42.1331 46.3186L42.1414 46.3291C42.1485 46.3235 42.7568 45.8381 43.7435 44.9634L43.7346 44.9534L43.7257 44.9433C42.7394 45.8177 42.1315 46.3027 42.1247 46.3081L42.1331 46.3186ZM43.7346 44.9534L43.7257 44.9433C43.2298 45.3829 42.8295 45.7242 42.5532 45.9555C42.415 46.0711 42.3079 46.1593 42.2353 46.2185C42.199 46.2482 42.1713 46.2706 42.1528 46.2855C42.1435 46.293 42.1364 46.2987 42.1317 46.3024C42.1294 46.3043 42.1276 46.3057 42.1264 46.3067C42.1259 46.3072 42.1254 46.3075 42.1251 46.3077C42.125 46.3079 42.1249 46.3079 42.1248 46.308C42.1248 46.308 42.1247 46.3081 42.1247 46.3081C42.1247 46.3081 42.1247 46.3081 42.1247 46.3081C42.1247 46.3081 42.1247 46.3081 42.1331 46.3186C42.1414 46.3291 42.1414 46.3291 42.1415 46.3291C42.1415 46.3291 42.1415 46.3291 42.1415 46.3291C42.1415 46.3291 42.1415 46.3291 42.1416 46.329C42.1416 46.329 42.1417 46.3289 42.1419 46.3288C42.1422 46.3285 42.1426 46.3282 42.1432 46.3277C42.1444 46.3267 42.1462 46.3253 42.1486 46.3234C42.1533 46.3196 42.1603 46.314 42.1696 46.3065C42.1883 46.2915 42.216 46.269 42.2523 46.2394C42.325 46.1801 42.4322 46.0918 42.5704 45.9761C42.8469 45.7446 43.2474 45.4032 43.7435 44.9634L43.7346 44.9534ZM42.1331 46.3186C42.1416 46.3082 42.1416 46.3082 42.1416 46.3082C42.1416 46.3082 42.1416 46.3082 42.1416 46.3082C42.1416 46.3082 42.1416 46.3082 42.1415 46.3082C42.1415 46.3081 42.1414 46.3081 42.1414 46.308C42.1412 46.3079 42.141 46.3077 42.1406 46.3074C42.14 46.3069 42.139 46.3061 42.1377 46.305C42.1352 46.3029 42.1313 46.2997 42.1262 46.2954C42.1159 46.2869 42.1006 46.2742 42.0805 46.2574C42.0402 46.2236 41.9805 46.1733 41.9029 46.1071C41.7475 45.9746 41.5203 45.7784 41.2328 45.5234L41.2239 45.5334L41.215 45.5435C41.5026 45.7986 41.7299 45.995 41.8854 46.1276C41.9632 46.1938 42.0229 46.2442 42.0632 46.278C42.0834 46.2949 42.0987 46.3076 42.109 46.3161C42.1141 46.3204 42.118 46.3236 42.1206 46.3258C42.1219 46.3268 42.1229 46.3276 42.1235 46.3282C42.1239 46.3284 42.1241 46.3286 42.1243 46.3288C42.1244 46.3288 42.1244 46.3289 42.1245 46.3289C42.1245 46.3289 42.1245 46.329 42.1245 46.329C42.1245 46.329 42.1245 46.329 42.1245 46.329C42.1245 46.329 42.1245 46.329 42.1331 46.3186ZM41.2239 45.5334L41.2313 45.5223L41.2284 45.5203L41.221 45.5315L41.2135 45.5427L41.2164 45.5446L41.2239 45.5334ZM41.221 45.5315L41.212 45.5415C41.7853 46.0502 42.1203 46.3255 42.1245 46.329L42.1331 46.3186L42.1416 46.3082C42.1376 46.3049 41.8029 46.0298 41.2299 45.5214L41.221 45.5315ZM42.1331 46.3186L42.1227 46.3271L42.1315 46.3379L42.1419 46.3293L42.1523 46.3208L42.1435 46.3101L42.1331 46.3186ZM42.1419 46.3293L42.1426 46.3159L42.125 46.3149L42.1243 46.3284L42.1235 46.3418L42.1411 46.3428L42.1419 46.3293ZM42.1243 46.3284L42.1328 46.318C42.132 46.3173 42.1312 46.3168 42.131 46.3167C42.1307 46.3165 42.1303 46.3162 42.1301 46.3161C42.1295 46.3158 42.1295 46.3157 42.1296 46.3158L42.1213 46.3264L42.1131 46.337C42.1142 46.3379 42.1154 46.3386 42.1159 46.339C42.1171 46.3397 42.1164 46.3393 42.1157 46.3387L42.1243 46.3284ZM42.1213 46.3264L42.1299 46.316C42.1292 46.3155 42.1284 46.3147 42.1268 46.3132C42.1253 46.3118 42.1234 46.3101 42.1212 46.3083L42.1126 46.3186L42.104 46.3289C42.1056 46.3303 42.1071 46.3317 42.1086 46.333C42.1098 46.3342 42.1114 46.3357 42.1128 46.3368L42.1213 46.3264ZM42.1126 46.3186L42.1211 46.3083C42.1121 46.3007 42.1006 46.2918 42.0841 46.278L42.0754 46.2883L42.0668 46.2987C42.0824 46.3117 42.0967 46.3229 42.104 46.329L42.1126 46.3186ZM42.0754 46.2883L42.0841 46.278C42.0518 46.2511 42.0039 46.2108 41.9416 46.158L41.9329 46.1682L41.9242 46.1785C41.9865 46.2314 42.0345 46.2717 42.0668 46.2986L42.0754 46.2883ZM41.9329 46.1682L41.9416 46.158C41.8166 46.0519 41.633 45.8944 41.3998 45.6894L41.3909 45.6995L41.382 45.7096C41.6154 45.9147 41.7991 46.0723 41.9242 46.1785L41.9329 46.1682ZM41.3909 45.6995L41.3998 45.6894C40.9331 45.2791 40.2665 44.6772 39.4666 43.9124L39.4573 43.9221L39.448 43.9318C40.2482 44.6969 40.9151 45.2991 41.382 45.7096L41.3909 45.6995ZM39.4573 43.9221L39.4666 43.9124C37.8664 42.3826 35.7321 40.1987 33.5986 37.5845L33.5881 37.593L33.5777 37.6015C35.7121 40.2168 37.8473 42.4014 39.448 43.9318L39.4573 43.9221ZM33.5881 37.593L33.5986 37.5845C29.3316 32.3561 25.0647 25.4042 25.0645 18.511H25.051H25.0376C25.0378 25.414 29.3101 32.3722 33.5777 37.6015L33.5881 37.593ZM25.051 18.511H25.0645C25.0645 13.9286 26.8804 9.53318 30.1123 6.29294L30.1028 6.28345L30.0933 6.27395C26.8563 9.51924 25.0376 13.9215 25.0376 18.511H25.051ZM30.1028 6.28345L30.1123 6.29294C33.3442 3.05286 37.7276 1.23248 42.2981 1.23244V1.21899V1.20555C37.7205 1.20559 33.3302 3.02883 30.0933 6.27395L30.1028 6.28345ZM42.2971 6.10864V6.0952C36.4254 6.09538 31.6656 10.855 31.6655 16.7268H31.679H31.6924C31.6925 10.8699 36.4402 6.12226 42.2971 6.12208V6.10864ZM31.679 16.7268H31.6655C31.6655 22.5986 36.4253 27.3592 42.2971 27.3594V27.3459V27.3325C36.4402 27.3323 31.6924 22.5838 31.6924 16.7268H31.679ZM42.2971 27.3459V27.3594C48.1691 27.3594 52.9297 22.5988 52.9297 16.7268H52.9163H52.9028C52.9028 22.5839 48.1542 27.3325 42.2971 27.3325V27.3459ZM52.9163 16.7268H52.9297C52.9296 10.8549 48.169 6.0952 42.2971 6.0952V6.10864V6.12208C48.1542 6.12208 52.9028 10.8698 52.9028 16.7268H52.9163ZM54.2473 6.06079L54.2567 6.05112C54.1768 5.97401 54.0954 5.89867 54.0143 5.8234L54.0051 5.83325L53.996 5.8431C54.0771 5.91843 54.1583 5.99358 54.238 6.07046L54.2473 6.06079ZM54.0051 5.83325L53.996 5.8431C54.0771 5.91846 54.1583 5.99357 54.238 6.07046L54.2473 6.06079L54.2567 6.05112C54.1768 5.97401 54.0953 5.89869 54.0143 5.8234L54.0051 5.83325ZM53.927 5.75903L53.9361 5.74913C53.9157 5.73046 53.8951 5.71115 53.8745 5.69244L53.8655 5.70239L53.8565 5.71235C53.8771 5.73109 53.8972 5.74992 53.9179 5.76894L53.927 5.75903ZM53.8655 5.70239L53.8745 5.69244C53.8632 5.68213 53.8516 5.67217 53.8401 5.66235C53.8286 5.65249 53.8172 5.64279 53.8061 5.63282L53.7971 5.64282L53.7881 5.65282C53.7995 5.66305 53.8112 5.67297 53.8226 5.68277C53.8341 5.69261 53.8454 5.70233 53.8565 5.71235L53.8655 5.70239ZM53.7971 5.64282L53.7881 5.65282C53.8316 5.69189 53.8751 5.72966 53.9179 5.76894L53.927 5.75903L53.9361 5.74913C53.8933 5.70982 53.849 5.6714 53.8061 5.63283L53.7971 5.64282ZM53.3401 5.24634L53.3315 5.25664C53.3638 5.28373 53.3958 5.31117 53.4281 5.33861L53.4368 5.32837L53.4455 5.31813C53.4133 5.29079 53.3812 5.26321 53.3487 5.23603L53.3401 5.24634ZM53.4368 5.32837L53.4455 5.31812C53.4133 5.29085 53.3812 5.26317 53.3487 5.23603L53.3401 5.24634L53.3315 5.25665C53.3638 5.28372 53.3957 5.31117 53.4281 5.33862L53.4368 5.32837ZM52.9114 4.89868L52.9197 4.8881C52.9161 4.8853 52.9126 4.88233 52.9089 4.87915C52.9052 4.87603 52.9013 4.87272 52.8972 4.86953L52.8889 4.88013L52.8806 4.89072C52.8842 4.89351 52.8877 4.89648 52.8915 4.89965C52.8951 4.90276 52.899 4.90608 52.9031 4.90926L52.9114 4.89868ZM52.8889 4.88013L52.8972 4.86953C52.8898 4.86376 52.8822 4.85776 52.8747 4.85194L52.8665 4.86255L52.8582 4.87316C52.8657 4.87901 52.8731 4.88479 52.8806 4.89072L52.8889 4.88013ZM52.8665 4.86255L52.8582 4.87315C52.8656 4.87895 52.873 4.88493 52.8804 4.89101C52.8879 4.89706 52.8954 4.90323 52.9031 4.90926L52.9114 4.89868L52.9197 4.88811C52.9122 4.88227 52.9049 4.87628 52.8974 4.87018C52.89 4.86411 52.8824 4.85795 52.8747 4.85194L52.8665 4.86255Z" fill="#082422" mask="url(#path-14-outside-1_664_14863)"/>
<mask id="path-16-outside-2_664_14863" maskUnits="userSpaceOnUse" x="22.6557" y="-1" width="36" height="47" fill="black">
<rect fill="white" x="22.6557" y="-1" width="36" height="47"/>
<path d="M40.9028 0C45.4768 0 49.8637 1.82197 53.0981 5.06445C56.3325 8.30722 58.1498 12.706 58.1498 17.292C58.1497 24.2957 53.7976 31.2506 49.4477 36.4531C47.2725 39.0547 45.0967 41.2188 43.4653 42.7324C42.6497 43.4892 41.9704 44.0842 41.4946 44.4893C41.2568 44.6917 41.0693 44.8466 40.9418 44.9512C40.8782 45.0034 40.8292 45.0438 40.7963 45.0703C40.7802 45.0833 40.7675 45.093 40.7592 45.0996C40.7551 45.1029 40.7515 45.1058 40.7495 45.1074C40.7487 45.1081 40.748 45.109 40.7475 45.1094H40.7465L40.7377 45.0996L40.7465 45.1104L40.729 45.1094C40.7283 45.1089 40.727 45.1082 40.726 45.1074C40.724 45.1057 40.7211 45.1028 40.7172 45.0996C40.709 45.0928 40.6962 45.0827 40.6801 45.0693C40.6478 45.0424 40.5999 45.0021 40.5375 44.9492C40.4125 44.8431 40.2288 44.6856 39.9956 44.4805C39.5288 44.0701 38.862 43.468 38.062 42.7031C36.4615 41.173 34.3268 38.9888 32.1928 36.374C27.9255 31.1452 23.6559 24.1901 23.6557 17.292C23.6557 12.7061 25.4731 8.3072 28.7075 5.06445C31.9418 1.8219 36.3288 0.000121999 40.9028 0ZM40.9028 4.8877C35.0384 4.8877 30.2838 9.6415 30.2836 15.5059C30.2836 21.3704 35.0383 26.125 40.9028 26.125C46.7672 26.1249 51.5209 21.3703 51.5209 15.5059C51.5207 9.64156 46.7671 4.88778 40.9028 4.8877Z"/>
</mask>
<path d="M40.9028 0C45.4768 0 49.8637 1.82197 53.0981 5.06445C56.3325 8.30722 58.1498 12.706 58.1498 17.292C58.1497 24.2957 53.7976 31.2506 49.4477 36.4531C47.2725 39.0547 45.0967 41.2188 43.4653 42.7324C42.6497 43.4892 41.9704 44.0842 41.4946 44.4893C41.2568 44.6917 41.0693 44.8466 40.9418 44.9512C40.8782 45.0034 40.8292 45.0438 40.7963 45.0703C40.7802 45.0833 40.7675 45.093 40.7592 45.0996C40.7551 45.1029 40.7515 45.1058 40.7495 45.1074C40.7487 45.1081 40.748 45.109 40.7475 45.1094H40.7465L40.7377 45.0996L40.7465 45.1104L40.729 45.1094C40.7283 45.1089 40.727 45.1082 40.726 45.1074C40.724 45.1057 40.7211 45.1028 40.7172 45.0996C40.709 45.0928 40.6962 45.0827 40.6801 45.0693C40.6478 45.0424 40.5999 45.0021 40.5375 44.9492C40.4125 44.8431 40.2288 44.6856 39.9956 44.4805C39.5288 44.0701 38.862 43.468 38.062 42.7031C36.4615 41.173 34.3268 38.9888 32.1928 36.374C27.9255 31.1452 23.6559 24.1901 23.6557 17.292C23.6557 12.7061 25.4731 8.3072 28.7075 5.06445C31.9418 1.8219 36.3288 0.000121999 40.9028 0ZM40.9028 4.8877C35.0384 4.8877 30.2838 9.6415 30.2836 15.5059C30.2836 21.3704 35.0383 26.125 40.9028 26.125C46.7672 26.1249 51.5209 21.3703 51.5209 15.5059C51.5207 9.64156 46.7671 4.88778 40.9028 4.8877Z" fill="#EFEBE7"/>
<path d="M40.9028 0V-0.0134419V-0.0134419V0ZM53.0981 5.06445L53.1076 5.05496V5.05496L53.0981 5.06445ZM58.1498 17.292H58.1633V17.292H58.1498ZM49.4477 36.4531L49.458 36.4617V36.4617L49.4477 36.4531ZM43.4653 42.7324L43.4744 42.7423V42.7423L43.4653 42.7324ZM41.4946 44.4893L41.5033 44.4995V44.4995L41.4946 44.4893ZM40.9418 44.9512L40.9333 44.9408V44.9408L40.9418 44.9512ZM40.7963 45.0703L40.8048 45.0808H40.8048L40.7963 45.0703ZM40.7592 45.0996L40.7676 45.1101V45.1101L40.7592 45.0996ZM40.7495 45.1074L40.7411 45.0969L40.7407 45.0972L40.7495 45.1074ZM40.7475 45.1094V45.1266L40.7559 45.1199L40.7475 45.1094ZM40.7465 45.1094L40.7316 45.1228H40.7465V45.1094ZM40.7377 45.0996L40.7477 45.0906C40.7428 45.0852 40.7345 45.0847 40.729 45.0894C40.7234 45.0942 40.7227 45.1025 40.7273 45.1081L40.7377 45.0996ZM40.7465 45.1104L40.7458 45.1238C40.7511 45.1241 40.7561 45.1212 40.7585 45.1164C40.7609 45.1117 40.7603 45.106 40.7569 45.1018L40.7465 45.1104ZM40.729 45.1094L40.7199 45.1223L40.7282 45.1228L40.729 45.1094ZM40.726 45.1074L40.7174 45.1177L40.7175 45.1178L40.726 45.1074ZM40.7172 45.0996L40.7258 45.0893L40.7258 45.0893L40.7172 45.0996ZM40.6801 45.0693L40.6715 45.0797V45.0797L40.6801 45.0693ZM40.5375 44.9492L40.5288 44.9595V44.9595L40.5375 44.9492ZM39.9956 44.4805L39.9867 44.4906V44.4906L39.9956 44.4805ZM38.062 42.7031L38.0527 42.7128V42.7128L38.062 42.7031ZM32.1928 36.374L32.1824 36.3825V36.3825L32.1928 36.374ZM23.6557 17.292H23.6423V17.292H23.6557ZM28.7075 5.06445L28.6979 5.05496V5.05496L28.7075 5.06445ZM40.9028 4.8877V4.87425V4.87425V4.8877ZM30.2836 15.5059H30.2702V15.5059H30.2836ZM40.9028 26.125V26.1384V26.1384V26.125ZM51.5209 15.5059H51.5344V15.5059H51.5209ZM40.9028 0V0.0134419C45.4732 0.0134419 49.8567 1.83399 53.0886 5.07395L53.0981 5.06445L53.1076 5.05496C49.8707 1.80995 45.4803 -0.0134419 40.9028 -0.0134419V0ZM53.0981 5.06445L53.0886 5.07395C56.3205 8.31419 58.1364 12.7096 58.1364 17.292H58.1498H58.1633C58.1633 12.7025 56.3446 8.30025 53.1076 5.05496L53.0981 5.06445ZM58.1498 17.292H58.1364C58.1362 24.2908 53.7869 31.2424 49.4374 36.4445L49.4477 36.4531L49.458 36.4617C53.8083 31.2587 58.1631 24.3007 58.1633 17.292H58.1498ZM49.4477 36.4531L49.4374 36.4445C47.2626 39.0455 45.0872 41.2092 43.4561 42.7226L43.4653 42.7324L43.4744 42.7423C45.1061 41.2284 47.2823 39.0639 49.458 36.4617L49.4477 36.4531ZM43.4653 42.7324L43.4561 42.7226C42.6407 43.4792 41.9616 44.0741 41.4859 44.479L41.4946 44.4893L41.5033 44.4995C41.9793 44.0943 42.6587 43.4992 43.4744 42.7423L43.4653 42.7324ZM41.4946 44.4893L41.4859 44.479C41.2481 44.6814 41.0607 44.8362 40.9333 44.9408L40.9418 44.9512L40.9504 44.9616C41.0779 44.8569 41.2654 44.702 41.5033 44.4995L41.4946 44.4893ZM40.9418 44.9512L40.9333 44.9408C40.8696 44.993 40.8207 45.0333 40.7879 45.0598L40.7963 45.0703L40.8048 45.0808C40.8377 45.0542 40.8868 45.0137 40.9504 44.9616L40.9418 44.9512ZM40.7963 45.0703L40.7879 45.0598C40.7714 45.0732 40.7599 45.0818 40.7508 45.0891L40.7592 45.0996L40.7676 45.1101C40.7751 45.1041 40.7891 45.0934 40.8048 45.0808L40.7963 45.0703ZM40.7592 45.0996L40.7508 45.0891C40.7467 45.0924 40.7431 45.0953 40.7411 45.0969L40.7495 45.1074L40.7578 45.1179C40.7599 45.1163 40.7635 45.1134 40.7676 45.1101L40.7592 45.0996ZM40.7495 45.1074L40.7407 45.0972C40.7396 45.0981 40.7388 45.0991 40.7385 45.0994C40.7378 45.1001 40.7384 45.0995 40.7391 45.0989L40.7475 45.1094L40.7559 45.1199C40.7567 45.1193 40.7573 45.1186 40.7575 45.1184C40.7578 45.1181 40.7581 45.1178 40.7582 45.1176C40.7586 45.1173 40.7585 45.1174 40.7582 45.1176L40.7495 45.1074ZM40.7475 45.1094V45.0959H40.7465V45.1094V45.1228H40.7475V45.1094ZM40.7465 45.1094L40.7565 45.1004L40.7477 45.0906L40.7377 45.0996L40.7277 45.1086L40.7365 45.1184L40.7465 45.1094ZM40.7377 45.0996L40.7273 45.1081L40.7361 45.1189L40.7465 45.1104L40.7569 45.1018L40.7481 45.0911L40.7377 45.0996ZM40.7465 45.1104L40.7473 45.0969L40.7297 45.096L40.729 45.1094L40.7282 45.1228L40.7458 45.1238L40.7465 45.1104ZM40.729 45.1094L40.7367 45.0984C40.7362 45.098 40.7357 45.0977 40.7355 45.0976C40.7351 45.0974 40.735 45.0973 40.7348 45.0971C40.7343 45.0968 40.7343 45.0968 40.7346 45.097L40.726 45.1074L40.7175 45.1178C40.7187 45.1188 40.7199 45.1195 40.7205 45.1199C40.7215 45.1206 40.7213 45.1204 40.7212 45.1204L40.729 45.1094ZM40.726 45.1074L40.7347 45.0971C40.7339 45.0965 40.7331 45.0957 40.7314 45.0942C40.7299 45.0928 40.728 45.0911 40.7258 45.0893L40.7172 45.0996L40.7087 45.11C40.7103 45.1114 40.7118 45.1127 40.7132 45.114C40.7145 45.1151 40.7161 45.1166 40.7174 45.1177L40.726 45.1074ZM40.7172 45.0996L40.7258 45.0893C40.7168 45.0818 40.7052 45.0727 40.6887 45.059L40.6801 45.0693L40.6715 45.0797C40.6872 45.0927 40.7012 45.1038 40.7087 45.11L40.7172 45.0996ZM40.6801 45.0693L40.6887 45.059C40.6565 45.0321 40.6085 44.9918 40.5462 44.939L40.5375 44.9492L40.5288 44.9595C40.5912 45.0124 40.6392 45.0527 40.6715 45.0797L40.6801 45.0693ZM40.5375 44.9492L40.5462 44.939C40.4212 44.8329 40.2376 44.6754 40.0044 44.4704L39.9956 44.4805L39.9867 44.4906C40.22 44.6957 40.4037 44.8533 40.5288 44.9595L40.5375 44.9492ZM39.9956 44.4805L40.0044 44.4704C39.5378 44.0601 38.8712 43.4582 38.0712 42.6934L38.062 42.7031L38.0527 42.7128C38.8529 43.4779 39.5198 44.0801 39.9867 44.4906L39.9956 44.4805ZM38.062 42.7031L38.0712 42.6934C36.4711 41.1635 34.3367 38.9797 32.2032 36.3655L32.1928 36.374L32.1824 36.3825C34.3168 38.9978 36.4519 41.1824 38.0527 42.7128L38.062 42.7031ZM32.1928 36.374L32.2032 36.3655C27.9363 31.1371 23.6693 24.1852 23.6692 17.292H23.6557H23.6423C23.6424 24.195 27.9147 31.1532 32.1824 36.3825L32.1928 36.374ZM23.6557 17.292H23.6692C23.6692 12.7097 25.4852 8.31417 28.717 5.07395L28.7075 5.06445L28.6979 5.05496C25.4611 8.30023 23.6423 12.7026 23.6423 17.292H23.6557ZM28.7075 5.06445L28.717 5.07395C31.9488 1.83392 36.3324 0.0135638 40.9028 0.0134419V0V-0.0134419C36.3252 -0.0133198 31.9348 1.80988 28.6979 5.05496L28.7075 5.06445ZM40.9028 4.8877V4.87425C35.031 4.87425 30.2704 9.63408 30.2702 15.5059H30.2836H30.2971C30.2973 9.64893 35.0458 4.90114 40.9028 4.90114V4.8877ZM30.2836 15.5059H30.2702C30.2702 21.3778 35.0308 26.1384 40.9028 26.1384V26.125V26.1116C35.0457 26.1116 30.2971 21.363 30.2971 15.5059H30.2836ZM40.9028 26.125V26.1384C46.7746 26.1384 51.5344 21.3777 51.5344 15.5059H51.5209H51.5075C51.5075 21.3629 46.7598 26.1115 40.9028 26.1116V26.125ZM51.5209 15.5059H51.5344C51.5342 9.63414 46.7745 4.87434 40.9028 4.87425V4.8877V4.90114C46.7597 4.90123 51.5073 9.64898 51.5075 15.5059H51.5209Z" fill="#082422" mask="url(#path-16-outside-2_664_14863)"/>
<path d="M21.8707 0.396484C22.1932 0.338249 22.5241 0.343845 22.8443 0.414062C23.1645 0.484353 23.4681 0.617654 23.7369 0.805664L61.7828 26.834C62.3177 27.2092 62.6831 27.7804 62.8004 28.4238C62.9176 29.0675 62.7771 29.7321 62.4088 30.2725C62.2249 30.5419 61.9892 30.7727 61.7164 30.9512C61.4435 31.1296 61.1382 31.2522 60.8179 31.3125C60.4975 31.3729 60.1683 31.3698 59.8492 31.3027C59.5302 31.2357 59.2277 31.106 58.9586 30.9219L20.9136 4.89453C20.3696 4.52148 19.9953 3.94681 19.8736 3.29785C19.752 2.64909 19.8926 1.97876 20.2642 1.43359C20.4504 1.16334 20.6879 0.931851 20.9634 0.753906C21.2391 0.575938 21.5479 0.454777 21.8707 0.396484Z" fill="#F26629" stroke="#082422" stroke-width="0.0134419" stroke-miterlimit="10"/>
</g>
<defs>
<clipPath id="clip0_664_14863">
<rect width="84.6052" height="79.9151" fill="white"/>
</clipPath>
</defs>
</svg>
