<svg width="84" height="80" viewBox="0 0 84 80" fill="none" xmlns="http://www.w3.org/2000/svg">
<g clip-path="url(#clip0_664_11577)">
<path d="M16.5929 58.7298L80.2244 79.852C81.7252 80.3502 83.3515 79.5483 83.853 78.0535C84.049 77.4657 84.049 76.8312 83.853 76.2434L62.5903 13.0327L16.5929 58.7259L16.5929 58.7298Z" fill="#2BF2F1" stroke="#082422" stroke-width="0.145565" stroke-miterlimit="10" stroke-linecap="round"/>
<path d="M16.596 58.7313C16.596 58.7313 25.9695 56.6214 43.2117 39.4777C59.9954 22.8206 62.4759 13.5246 62.5934 13.0419L62.5934 13.0264C62.5934 13.0264 53.2043 15.1362 35.9543 32.2722C18.7043 49.4081 16.596 58.7352 16.596 58.7352L16.596 58.7313Z" fill="#0A9D9C" stroke="#082422" stroke-width="0.145565" stroke-miterlimit="10" stroke-linecap="round"/>
<path d="M57.7145 72.379L67.1428 75.5049C69.1218 73.7493 71.23 71.7834 73.4832 69.549C75.7365 67.3146 77.7154 65.2202 79.4788 63.2505L76.3321 53.8845C73.9378 56.7574 71.0184 59.9689 67.4289 63.5347C63.8394 67.1004 60.6065 70.0006 57.7145 72.379Z" fill="#DCFF00" stroke="#082422" stroke-width="0.145565" stroke-miterlimit="10" stroke-linecap="round"/>
<path d="M32.0477 63.8573L42.1775 67.2129C47.7459 63.2384 52.9577 58.7889 57.7464 53.9113C62.6565 49.1543 67.1355 43.977 71.1365 38.4454L67.7586 28.3826C63.209 35.5024 57.813 42.0539 51.692 47.897C45.8101 53.9814 39.2149 59.3378 32.0477 63.8573Z" fill="#F26629" stroke="#082422" stroke-width="0.145565" stroke-miterlimit="10" stroke-linecap="round"/>
<path d="M49.0649 25.3927C49.8526 25.3927 50.4874 24.7582 50.4874 23.9757C50.4874 23.602 50.3385 23.24 50.072 22.9753C44.3469 17.6072 42.9675 9.08981 46.7098 2.2113C47.1526 1.5651 46.9841 0.685339 46.3336 0.245457C45.6831 -0.194425 44.7975 -0.0270362 44.3547 0.619162C44.3233 0.665875 44.2959 0.712588 44.2685 0.759301C39.8757 8.75503 41.4314 18.6855 48.0578 24.9801C48.3243 25.2448 48.6888 25.3888 49.0649 25.3888L49.0649 25.3927Z" fill="#DCFF00" stroke="#082422" stroke-width="0.145565" stroke-miterlimit="10" stroke-linecap="round"/>
<path d="M51.4474 11.1836C51.8236 11.1836 52.1881 11.0357 52.4545 10.7671L54.841 8.40032C55.3975 7.84755 55.3975 6.95221 54.841 6.39944C54.2846 5.84667 53.3833 5.84667 52.8268 6.39944L50.4443 8.76624C49.8878 9.31901 49.8878 10.2143 50.4443 10.7671C50.7107 11.0318 51.0752 11.1798 51.4514 11.1798L51.4474 11.1836Z" fill="#2BF2F1" stroke="#082422" stroke-width="0.145565" stroke-miterlimit="10" stroke-linecap="round"/>
<path d="M34.7618 8.81767C35.5494 8.81767 36.1882 8.18315 36.1882 7.40071L36.1882 5.03391C36.1882 4.25146 35.5494 3.61694 34.7618 3.61694C33.9741 3.61694 33.3354 4.25146 33.3354 5.03391L33.3354 7.40071C33.3354 8.18315 33.9741 8.81767 34.7618 8.81767Z" fill="#F26629" stroke="#082422" stroke-width="0.145565" stroke-miterlimit="10" stroke-linecap="round"/>
<path d="M32.3753 18.2888L34.7618 18.2888C35.5494 18.2888 36.1882 17.6542 36.1882 16.8718C36.1882 16.0894 35.5494 15.4548 34.7618 15.4548L32.3753 15.4548C31.5876 15.4548 30.9489 16.0894 30.9489 16.8718C30.9489 17.6542 31.5876 18.2888 32.3753 18.2888Z" fill="#2BF2F1" stroke="#082422" stroke-width="0.145565" stroke-miterlimit="10" stroke-linecap="round"/>
<path d="M27.6077 46.7057C28.3953 46.7057 29.0302 46.0712 29.0302 45.2887C29.0302 44.915 28.8812 44.553 28.6148 44.2883C22.2744 37.7056 12.2817 36.1602 4.22885 40.524C3.5666 40.9483 3.37458 41.8203 3.80172 42.4781C4.20926 43.1049 5.0361 43.3112 5.69052 42.9492C12.6031 39.1576 21.2281 40.5357 26.6006 46.2892C26.867 46.5539 27.2315 46.7018 27.6077 46.7057Z" fill="#DCFF00" stroke="#082422" stroke-width="0.145565" stroke-miterlimit="10" stroke-linecap="round"/>
<path d="M10.9238 51.4398C11.3 51.4398 11.6644 51.2919 11.9309 51.0272L14.3174 48.6565C14.8621 48.0959 14.8464 47.1967 14.2821 46.6556C13.7296 46.1262 12.8557 46.1262 12.3032 46.6556L9.91669 49.0224C9.36024 49.5752 9.36024 50.4705 9.91669 51.0233C10.1832 51.288 10.5476 51.4359 10.9238 51.4359L10.9238 51.4398Z" fill="#2BF2F1" stroke="#082422" stroke-width="0.145565" stroke-miterlimit="10" stroke-linecap="round"/>
<path d="M8.54259 32.4986L10.9251 32.4986C11.7128 32.4986 12.3515 31.864 12.3515 31.0816C12.3515 30.2992 11.7128 29.6646 10.9251 29.6646L8.54259 29.6646C7.75494 29.6646 7.11619 30.2992 7.11619 31.0816C7.11619 31.864 7.75494 32.4986 8.54259 32.4986ZM20.4593 32.4986C21.2469 32.4986 21.8857 31.864 21.8857 31.0816L21.8857 28.7109C21.8857 27.9285 21.2469 27.2939 20.4593 27.2939C19.6716 27.2939 19.0329 27.9285 19.0329 28.7109L19.0329 31.0816C19.0329 31.864 19.6716 32.4986 20.4593 32.4986Z" fill="#2BF2F1" stroke="#082422" stroke-width="0.145565" stroke-miterlimit="10" stroke-linecap="round"/>
<path d="M32.3752 27.7595C33.1629 27.7595 33.7977 27.125 33.7977 26.3425C33.7977 25.9688 33.6488 25.6068 33.3823 25.3421C32.1636 24.1704 30.4904 23.5864 28.8014 23.746L28.7701 23.746C27.8531 23.8979 26.9126 23.6137 26.2347 22.9792C25.592 22.2979 25.306 21.3559 25.4627 20.4333C25.8036 17.3736 23.5778 14.6175 20.4977 14.2827C20.0902 14.2399 19.6787 14.2399 19.2712 14.2827C17.7272 14.5903 16.2264 13.5976 15.9168 12.0678C15.8424 11.6979 15.8424 11.3203 15.9168 10.9505C16.0775 9.27276 15.4897 7.60666 14.3062 6.39601C13.7655 5.82766 12.8642 5.80431 12.292 6.33762C11.7199 6.87482 11.6964 7.77015 12.2333 8.33849C12.2529 8.36185 12.2764 8.38131 12.296 8.40078C12.9386 9.0859 13.2247 10.0241 13.0719 10.9466C12.7348 14.0102 14.9567 16.7624 18.0407 17.1011C18.4483 17.1439 18.8597 17.1439 19.2673 17.1011C20.8034 16.7936 22.3003 17.7823 22.6099 19.3083C22.6844 19.6781 22.6844 20.0557 22.6099 20.4255C22.4453 22.1033 23.0331 23.7694 24.2166 24.9762C25.4392 26.144 27.1085 26.724 28.7975 26.5722L28.8288 26.5722C29.7458 26.4204 30.6824 26.7045 31.3603 27.3391C31.6268 27.6038 31.9912 27.7556 32.3674 27.7556L32.3752 27.7595Z" fill="#60D06F" stroke="#082422" stroke-width="0.145565" stroke-miterlimit="10" stroke-linecap="round"/>
<path d="M13.3451 26.3342C14.1327 26.3342 14.7715 25.7035 14.7715 24.9211C14.7715 24.345 14.4227 23.8272 13.8898 23.6092C9.70072 21.768 4.92385 21.7913 0.754378 23.6715C0.0607727 24.0413 -0.201781 24.8977 0.170493 25.5867C0.542767 26.2758 1.40488 26.5366 2.09848 26.1668C5.51557 24.6836 9.4029 24.707 12.8043 26.2252C12.9767 26.2952 13.1609 26.3303 13.3451 26.3303L13.3451 26.3342Z" fill="#F26629" stroke="#082422" stroke-width="0.145565" stroke-miterlimit="10" stroke-linecap="round"/>
</g>
<defs>
<clipPath id="clip0_664_11577">
<rect width="84" height="80" fill="white"/>
</clipPath>
</defs>
</svg>
