<svg width="88" height="80" viewBox="0 0 88 80" fill="none" xmlns="http://www.w3.org/2000/svg">
<g clip-path="url(#clip0_664_11584)">
<path opacity="0.25" d="M43.1952 61.8435L62.7584 60.7285L63.4927 60.0697L61.0447 51.3387L35.324 35.3964L3.93774 38.5779L43.1952 61.8435Z" fill="#082422"/>
<path d="M52.441 25.1162L61.0773 50.9956L60.3532 51.5161L21.5701 28.3469L12.1804 2.90089L12.9045 2.38037L52.441 25.1162Z" fill="#0096A1" stroke="#082422" stroke-width="0.0716378" stroke-miterlimit="10"/>
<path d="M51.7169 25.637L60.3532 51.5163L20.8167 28.78L12.1804 2.90112L51.7169 25.637Z" fill="#009FAA" stroke="#082422" stroke-width="0.0716378" stroke-miterlimit="10"/>
<path d="M12.18 2.90112L51.7166 25.637L44.3202 61.2782L43.3502 61.6886L4.78363 38.5423L11.2105 3.31111L12.18 2.90112Z" fill="#0096A1" stroke="#082422" stroke-width="0.0716378" stroke-miterlimit="10"/>
<path d="M51.7169 25.6369L50.7469 26.0474L11.2108 3.31111L12.1803 2.90112L51.7169 25.6369Z" fill="#0096A1" stroke="#082422" stroke-width="0.0716378" stroke-miterlimit="10"/>
<path d="M11.2109 3.31079L50.747 26.0471L43.3506 61.6883L3.81403 38.952L11.2109 3.31079Z" fill="#29F5FF" stroke="#082422" stroke-width="0.0716378" stroke-miterlimit="10"/>
<path d="M12.9526 11.531L7.44641 38.0643L40.5063 57.5534L41.5799 57.4175L47.0862 30.8842L46.0125 31.02L12.9526 11.531Z" fill="#D0DDDF" stroke="#082422" stroke-width="0.0716378" stroke-miterlimit="10"/>
<path d="M13.9977 5.7854L48.2124 25.4585L47.0864 30.8843L46.0128 31.0201L12.9529 11.5311L12.9241 5.92076L13.9977 5.7854Z" fill="#D0DDDF" stroke="#082422" stroke-width="0.0716378" stroke-miterlimit="10"/>
<path d="M6.32819 37.8807L40.5434 57.5538L46.0496 31.0205L11.8349 11.3474L6.32819 37.8807Z" fill="white" stroke="#082422" stroke-width="0.0716378" stroke-miterlimit="10"/>
<path d="M11.798 11.347L46.0127 31.0201L47.1387 25.5939L12.924 5.92078L11.798 11.347Z" fill="white" stroke="#082422" stroke-width="0.0716378" stroke-miterlimit="10"/>
<path d="M45.3103 25.7591C45.721 25.9952 45.9674 26.6049 45.8609 27.12C45.7538 27.6357 45.3338 27.8621 44.9231 27.6259C44.5119 27.3898 44.266 26.7801 44.3731 26.2645C44.4802 25.7493 44.8996 25.5229 45.3108 25.7591H45.3103Z" fill="#383838" stroke="#082422" stroke-width="0.0716378" stroke-miterlimit="10"/>
<path d="M41.434 23.5298C41.8452 23.766 42.0911 24.3756 41.9845 24.8908C41.8774 25.4064 41.4579 25.6328 41.0467 25.3967C40.636 25.1605 40.3896 24.5509 40.4967 24.0352C40.6038 23.5201 41.0238 23.2937 41.4345 23.5298H41.434Z" fill="#383838" stroke="#082422" stroke-width="0.0716378" stroke-miterlimit="10"/>
<path d="M37.5581 21.3014C37.9693 21.5376 38.2152 22.1472 38.1086 22.6624C38.0016 23.178 37.5821 23.4044 37.1709 23.1683C36.7602 22.9321 36.5138 22.3225 36.6209 21.8069C36.7279 21.2917 37.1479 21.0653 37.5586 21.3014H37.5581Z" fill="#383838" stroke="#082422" stroke-width="0.0716378" stroke-miterlimit="10"/>
<path d="M33.6822 19.0724C34.0929 19.3086 34.3393 19.9182 34.2328 20.4334C34.1257 20.949 33.7057 21.1754 33.295 20.9393C32.8838 20.7031 32.6379 20.0935 32.745 19.5779C32.852 19.0627 33.2715 18.8363 33.6827 19.0724H33.6822Z" fill="#383838" stroke="#082422" stroke-width="0.0716378" stroke-miterlimit="10"/>
<path d="M29.8054 16.8439C30.2166 17.0801 30.463 17.6897 30.356 18.2049C30.2489 18.7205 29.8289 18.9469 29.4177 18.7103C29.007 18.4741 28.7606 17.8645 28.8677 17.3488C28.9748 16.8337 29.3942 16.6073 29.8054 16.8434V16.8439Z" fill="#383838" stroke="#082422" stroke-width="0.0716378" stroke-miterlimit="10"/>
<path d="M25.9295 14.6154C26.3407 14.852 26.5866 15.4612 26.48 15.9763C26.373 16.492 25.9535 16.7184 25.5423 16.4823C25.1316 16.2461 24.8852 15.6365 24.9922 15.1208C25.0993 14.6057 25.5193 14.3792 25.93 14.6154H25.9295Z" fill="#383838" stroke="#082422" stroke-width="0.0716378" stroke-miterlimit="10"/>
<path d="M22.0532 12.3861C22.4639 12.6223 22.7103 13.2319 22.6038 13.7471C22.4967 14.2627 22.0767 14.4892 21.666 14.253C21.2553 14.0168 21.0089 13.4072 21.116 12.8916C21.223 12.3764 21.643 12.15 22.0537 12.3861H22.0532Z" fill="#383838" stroke="#082422" stroke-width="0.0716378" stroke-miterlimit="10"/>
<path d="M18.1773 10.1576C18.588 10.3937 18.8344 11.0033 18.7278 11.5185C18.6208 12.0342 18.2008 12.2606 17.7901 12.0244C17.3789 11.7883 17.1325 11.1786 17.2396 10.663C17.3466 10.1478 17.7661 9.92141 18.1773 10.1581V10.1576Z" fill="#383838" stroke="#082422" stroke-width="0.0716378" stroke-miterlimit="10"/>
<path d="M14.301 7.92887C14.7122 8.16503 14.9581 8.77465 14.8515 9.28982C14.7444 9.80547 14.3249 10.0319 13.9137 9.79573C13.5031 9.55957 13.2566 8.94995 13.3637 8.4343C13.4708 7.91913 13.8908 7.69272 14.3015 7.92887H14.301Z" fill="#383838" stroke="#082422" stroke-width="0.0716378" stroke-miterlimit="10"/>
<path d="M38.8453 35.9605L42.2497 37.9179C42.4804 38.0508 42.7743 37.9193 42.8281 37.6593L43.733 33.2985C43.7673 33.1339 43.6915 32.9664 43.5458 32.8821L40.1414 30.9247C39.9107 30.7918 39.6168 30.9233 39.563 31.1833L38.658 35.5441C38.6238 35.7087 38.6996 35.8762 38.8453 35.9605Z" fill="#2BF2F1" stroke="#082422" stroke-width="0.0716378" stroke-miterlimit="10"/>
<path d="M44.1039 31.5441C44.0511 31.7983 43.7641 31.9269 43.5382 31.7968L40.5274 30.0658C40.3313 29.9534 40.2301 29.7279 40.2756 29.5073C40.3284 29.2532 40.6154 29.1246 40.8413 29.2546L43.8521 30.9856C44.0481 31.0986 44.1493 31.3236 44.1039 31.5441Z" fill="#35605F" stroke="#082422" stroke-width="0.0716378" stroke-miterlimit="10"/>
<path d="M39.6261 28.9692C39.5733 29.2234 39.2863 29.3519 39.0605 29.2219L36.0497 27.4909C35.8536 27.3784 35.7524 27.153 35.7979 26.9324C35.8507 26.6782 36.1377 26.5497 36.3636 26.6797L39.3743 28.4107C39.5704 28.5236 39.6716 28.7486 39.6261 28.9692Z" fill="#35605F" stroke="#082422" stroke-width="0.0716378" stroke-miterlimit="10"/>
<path d="M35.1479 26.3946C35.0951 26.6488 34.8081 26.7773 34.5822 26.6473L31.5715 24.9163C31.3754 24.8038 31.2742 24.5784 31.3197 24.3578C31.3725 24.1036 31.6595 23.9751 31.8854 24.1051L34.8961 25.8361C35.0922 25.9491 35.1934 26.174 35.1479 26.3946Z" fill="#35605F" stroke="#082422" stroke-width="0.0716378" stroke-miterlimit="10"/>
<path d="M30.6701 23.8196C30.6173 24.0738 30.3303 24.2024 30.1045 24.0724L27.0937 22.3413C26.8976 22.2289 26.7964 22.0034 26.8419 21.7828C26.8947 21.5287 27.1817 21.4001 27.4076 21.5301L30.4183 23.2611C30.6144 23.3741 30.7156 23.5991 30.6701 23.8196Z" fill="#35605F" stroke="#082422" stroke-width="0.0716378" stroke-miterlimit="10"/>
<path d="M26.1919 21.2449C26.1391 21.4991 25.8521 21.6277 25.6262 21.4976L22.6154 19.7666C22.4194 19.6542 22.3181 19.4287 22.3636 19.2081C22.4164 18.954 22.7034 18.8254 22.9293 18.9554L25.9401 20.6864C26.1361 20.7994 26.2373 21.0244 26.1919 21.2449Z" fill="#35605F" stroke="#082422" stroke-width="0.0716378" stroke-miterlimit="10"/>
<path d="M21.7141 18.67C21.6613 18.9242 21.3743 19.0527 21.1485 18.9227L18.1377 17.1917C17.9416 17.0792 17.8404 16.8538 17.8859 16.6332C17.9387 16.379 18.2257 16.2505 18.4516 16.3805L21.4624 18.1115C21.6584 18.2244 21.7596 18.4494 21.7141 18.67Z" fill="#35605F" stroke="#082422" stroke-width="0.0716378" stroke-miterlimit="10"/>
<path d="M17.2359 16.0726C17.1831 16.3267 16.8961 16.4553 16.6702 16.3253L13.6594 14.5943C13.4634 14.4818 13.3622 14.2564 13.4076 14.0358C13.4604 13.7816 13.7474 13.6531 13.9733 13.7831L16.9841 15.5141C17.1801 15.627 17.2813 15.852 17.2359 16.0726Z" fill="#35605F" stroke="#082422" stroke-width="0.0716378" stroke-miterlimit="10"/>
<path d="M34.3675 33.3858L37.7719 35.3432C38.0026 35.4761 38.2965 35.3446 38.3503 35.0846L39.2553 30.7238C39.2895 30.5592 39.2137 30.3917 39.068 30.3074L35.6636 28.35C35.4329 28.2171 35.139 28.3485 35.0853 28.6086L34.1803 32.9694C34.146 33.134 34.2218 33.3015 34.3675 33.3858Z" fill="white" stroke="#082422" stroke-width="0.0716378" stroke-miterlimit="10"/>
<path d="M29.8897 30.8108L33.2941 32.7682C33.5249 32.9012 33.8187 32.7697 33.8725 32.5097L34.7775 28.1488C34.8117 27.9842 34.7359 27.8167 34.5902 27.7325L31.1859 25.7751C30.9551 25.6421 30.6613 25.7736 30.6075 26.0336L29.7025 30.3945C29.6683 30.5591 29.744 30.7266 29.8897 30.8108Z" fill="white" stroke="#082422" stroke-width="0.0716378" stroke-miterlimit="10"/>
<path d="M25.4115 28.2366L28.8159 30.194C29.0467 30.3269 29.3405 30.1955 29.3943 29.9355L30.2993 25.5746C30.3335 25.41 30.2577 25.2425 30.112 25.1583L26.7077 23.2008C26.4769 23.0679 26.183 23.1994 26.1293 23.4594L25.2243 27.8203C25.19 27.9848 25.2658 28.1523 25.4115 28.2366Z" fill="white" stroke="#082422" stroke-width="0.0716378" stroke-miterlimit="10"/>
<path d="M20.9338 25.6616L24.3382 27.6191C24.5689 27.752 24.8628 27.6205 24.9166 27.3605L25.8215 22.9996C25.8558 22.835 25.78 22.6675 25.6343 22.5833L22.2299 20.6259C21.9992 20.493 21.7053 20.6244 21.6515 20.8844L20.7465 25.2453C20.7123 25.4099 20.7881 25.5774 20.9338 25.6616Z" fill="white" stroke="#082422" stroke-width="0.0716378" stroke-miterlimit="10"/>
<path d="M16.4555 23.087L19.8599 25.0445C20.0907 25.1774 20.3845 25.0459 20.4383 24.7859L21.3433 20.425C21.3775 20.2605 21.3017 20.093 21.156 20.0087L17.7517 18.0513C17.5209 17.9184 17.227 18.0498 17.1733 18.3099L16.2683 22.6707C16.2341 22.8353 16.3098 23.0028 16.4555 23.087Z" fill="white" stroke="#082422" stroke-width="0.0716378" stroke-miterlimit="10"/>
<path d="M11.9773 20.5121L15.3816 22.4695C15.6124 22.6024 15.9062 22.471 15.96 22.211L16.865 17.8501C16.8992 17.6855 16.8234 17.518 16.6777 17.4338L13.2734 15.4764C13.0426 15.3434 12.7488 15.4749 12.695 15.7349L11.79 20.0958C11.7558 20.2604 11.8316 20.4279 11.9773 20.5121Z" fill="#2BF2F1" stroke="#082422" stroke-width="0.0716378" stroke-miterlimit="10"/>
<path d="M37.7129 41.4175L41.1172 43.3749C41.348 43.5078 41.6418 43.3764 41.6956 43.1164L42.6006 38.755C42.6348 38.5904 42.559 38.4229 42.4133 38.3387L39.009 36.3813C38.7782 36.2483 38.4844 36.3798 38.4306 36.6398L37.5256 41.0012C37.4914 41.1658 37.5672 41.3333 37.7129 41.4175Z" fill="#2BF2F1" stroke="#082422" stroke-width="0.0716378" stroke-miterlimit="10"/>
<path d="M33.2351 38.8431L36.6395 40.8006C36.8703 40.9335 37.1641 40.802 37.2179 40.542L38.1229 36.1807C38.1571 36.0161 38.0813 35.8486 37.9356 35.7643L34.5313 33.8069C34.3005 33.674 34.0067 33.8055 33.9529 34.0655L33.0479 38.4268C33.0137 38.5914 33.0894 38.7589 33.2351 38.8431Z" fill="#35605F" stroke="#082422" stroke-width="0.0716378" stroke-miterlimit="10"/>
<path d="M28.7569 36.2683L32.1612 38.2257C32.392 38.3587 32.6858 38.2272 32.7396 37.9672L33.6446 33.6058C33.6788 33.4413 33.603 33.2737 33.4573 33.1895L30.053 31.2321C29.8222 31.0992 29.5284 31.2306 29.4746 31.4906L28.5696 35.852C28.5354 36.0166 28.6112 36.1841 28.7569 36.2683Z" fill="white" stroke="#082422" stroke-width="0.0716378" stroke-miterlimit="10"/>
<path d="M24.2787 33.6932L27.683 35.6507C27.9138 35.7836 28.2076 35.6521 28.2614 35.3921L29.1664 31.0308C29.2006 30.8662 29.1248 30.6987 28.9791 30.6144L25.5748 28.657C25.344 28.5241 25.0502 28.6556 24.9964 28.9156L24.0914 33.2769C24.0572 33.4415 24.133 33.609 24.2787 33.6932Z" fill="white" stroke="#082422" stroke-width="0.0716378" stroke-miterlimit="10"/>
<path d="M19.8014 31.1188L23.2057 33.0762C23.4365 33.2091 23.7303 33.0777 23.7841 32.8177L24.6891 28.4563C24.7233 28.2917 24.6475 28.1242 24.5018 28.04L21.0975 26.0826C20.8667 25.9496 20.5729 26.0811 20.5191 26.3411L19.6141 30.7025C19.5799 30.867 19.6557 31.0345 19.8014 31.1188Z" fill="white" stroke="#082422" stroke-width="0.0716378" stroke-miterlimit="10"/>
<path d="M15.3236 28.5436L18.728 30.501C18.9588 30.6339 19.2526 30.5025 19.3064 30.2425L20.2114 25.8811C20.2456 25.7165 20.1698 25.549 20.0241 25.4648L16.6198 23.5074C16.389 23.3744 16.0952 23.5059 16.0414 23.7659L15.1364 28.1273C15.1022 28.2918 15.1779 28.4593 15.3236 28.5436Z" fill="white" stroke="#082422" stroke-width="0.0716378" stroke-miterlimit="10"/>
<path d="M10.8449 25.9691L14.2493 27.9265C14.4801 28.0595 14.7739 27.928 14.8277 27.668L15.7327 23.3066C15.7669 23.1421 15.6911 22.9746 15.5454 22.8903L12.1411 20.9329C11.9103 20.8 11.6165 20.9314 11.5627 21.1914L10.6577 25.5528C10.6235 25.7174 10.6992 25.8849 10.8449 25.9691Z" fill="#2BF2F1" stroke="#082422" stroke-width="0.0716378" stroke-miterlimit="10"/>
<path d="M36.5805 46.8744L39.9848 48.8318C40.2156 48.9648 40.5094 48.8333 40.5632 48.5733L41.4682 44.2124C41.5024 44.0478 41.4267 43.8803 41.281 43.7961L37.8766 41.8387C37.6458 41.7057 37.352 41.8372 37.2982 42.0972L36.3932 46.4581C36.359 46.6227 36.4348 46.7902 36.5805 46.8744Z" fill="#2BF2F1" stroke="#082422" stroke-width="0.0716378" stroke-miterlimit="10"/>
<path d="M32.1027 44.2997L35.5071 46.2571C35.7379 46.39 36.0317 46.2586 36.0855 45.9986L36.9905 41.6377C37.0247 41.4731 36.9489 41.3056 36.8032 41.2214L33.3989 39.2639C33.1681 39.131 32.8743 39.2625 32.8205 39.5225L31.9155 43.8834C31.8813 44.048 31.957 44.2155 32.1027 44.2997Z" fill="white" stroke="#082422" stroke-width="0.0716378" stroke-miterlimit="10"/>
<path d="M27.6245 41.7247L31.0289 43.6822C31.2597 43.8151 31.5535 43.6836 31.6073 43.4236L32.5123 39.0627C32.5465 38.8982 32.4707 38.7307 32.325 38.6464L28.9207 36.689C28.6899 36.5561 28.3961 36.6875 28.3423 36.9476L27.4373 41.3084C27.4031 41.473 27.4788 41.6405 27.6245 41.7247Z" fill="white" stroke="#082422" stroke-width="0.0716378" stroke-miterlimit="10"/>
<path d="M23.1468 39.1495L26.5511 41.107C26.7819 41.2399 27.0757 41.1084 27.1295 40.8484L28.0345 36.4875C28.0687 36.323 27.9929 36.1555 27.8472 36.0712L24.4429 34.1138C24.2121 33.9809 23.9183 34.1123 23.8645 34.3724L22.9595 38.7332C22.9253 38.8978 23.0011 39.0653 23.1468 39.1495Z" fill="white" stroke="#082422" stroke-width="0.0716378" stroke-miterlimit="10"/>
<path d="M18.6685 36.5751L22.0728 38.5325C22.3036 38.6654 22.5975 38.534 22.6512 38.274L23.5562 33.9131C23.5904 33.7485 23.5147 33.581 23.369 33.4968L19.9646 31.5393C19.7338 31.4064 19.44 31.5379 19.3862 31.7979L18.4812 36.1588C18.447 36.3233 18.5228 36.4908 18.6685 36.5751Z" fill="white" stroke="#082422" stroke-width="0.0716378" stroke-miterlimit="10"/>
<path d="M14.1912 34L17.5955 35.9574C17.8263 36.0904 18.1202 35.9589 18.1739 35.6989L19.0789 31.338C19.1132 31.1734 19.0374 31.0059 18.8917 30.9217L15.4873 28.9643C15.2565 28.8313 14.9627 28.9628 14.9089 29.2228L14.0039 33.5837C13.9697 33.7483 14.0455 33.9158 14.1912 34Z" fill="white" stroke="#082422" stroke-width="0.0716378" stroke-miterlimit="10"/>
<path d="M9.71249 31.4254L13.1168 33.3828C13.3476 33.5158 13.6415 33.3843 13.6952 33.1243L14.6002 28.7634C14.6345 28.5988 14.5587 28.4313 14.413 28.3471L11.0086 26.3897C10.7778 26.2568 10.484 26.3882 10.4302 26.6482L9.52523 31.0091C9.49101 31.1737 9.56679 31.3412 9.71249 31.4254Z" fill="#2BF2F1" stroke="#082422" stroke-width="0.0716378" stroke-miterlimit="10"/>
<path d="M35.4486 52.3307L38.8529 54.2881C39.0837 54.4211 39.3775 54.2896 39.4313 54.0296L40.3363 49.6687C40.3705 49.5041 40.2948 49.3366 40.1491 49.2524L36.7447 47.295C36.5139 47.162 36.2201 47.2935 36.1663 47.5535L35.2613 51.9144C35.2271 52.079 35.3029 52.2465 35.4486 52.3307Z" fill="#2BF2F1" stroke="#082422" stroke-width="0.0716378" stroke-miterlimit="10"/>
<path d="M30.9704 49.7559L34.3747 51.7133C34.6055 51.8462 34.8993 51.7148 34.9531 51.4547L35.8581 47.0939C35.8923 46.9293 35.8165 46.7618 35.6708 46.6776L32.2665 44.7201C32.0357 44.5872 31.7419 44.7187 31.6881 44.9787L30.7831 49.3396C30.7489 49.5041 30.8247 49.6716 30.9704 49.7559Z" fill="white" stroke="#082422" stroke-width="0.0716378" stroke-miterlimit="10"/>
<path d="M26.4926 47.1812L29.8969 49.1386C30.1277 49.2715 30.4215 49.14 30.4753 48.88L31.3803 44.5192C31.4145 44.3546 31.3388 44.1871 31.1931 44.1028L27.7887 42.1454C27.5579 42.0125 27.2641 42.144 27.2103 42.404L26.3053 46.7648C26.2711 46.9294 26.3469 47.0969 26.4926 47.1812Z" fill="white" stroke="#082422" stroke-width="0.0716378" stroke-miterlimit="10"/>
<path d="M22.0143 44.6066L25.4187 46.564C25.6494 46.6969 25.9433 46.5655 25.9971 46.3054L26.9021 41.9446C26.9363 41.78 26.8605 41.6125 26.7148 41.5283L23.3104 39.5708C23.0797 39.4379 22.7858 39.5694 22.732 39.8294L21.8271 44.1903C21.7928 44.3548 21.8686 44.5223 22.0143 44.6066Z" fill="white" stroke="#082422" stroke-width="0.0716378" stroke-miterlimit="10"/>
<path d="M17.5361 42.032L20.9405 43.9894C21.1712 44.1223 21.4651 43.9909 21.5188 43.7309L22.4238 39.37C22.4581 39.2054 22.3823 39.0379 22.2366 38.9537L18.8322 36.9962C18.6015 36.8633 18.3076 36.9948 18.2538 37.2548L17.3488 41.6157C17.3146 41.7803 17.3904 41.9478 17.5361 42.032Z" fill="white" stroke="#082422" stroke-width="0.0716378" stroke-miterlimit="10"/>
<path d="M13.0584 39.457L16.4627 41.4145C16.6935 41.5474 16.9873 41.4159 17.0411 41.1559L17.9461 36.795C17.9803 36.6305 17.9046 36.463 17.7589 36.3787L14.3545 34.4213C14.1237 34.2884 13.8299 34.4198 13.7761 34.6799L12.8711 39.0407C12.8369 39.2053 12.9127 39.3728 13.0584 39.457Z" fill="white" stroke="#082422" stroke-width="0.0716378" stroke-miterlimit="10"/>
<path d="M8.5801 36.8817L11.9845 38.8391C12.2152 38.9721 12.5091 38.8406 12.5629 38.5806L13.4678 34.2197C13.5021 34.0551 13.4263 33.8876 13.2806 33.8034L9.87623 31.846C9.64546 31.7131 9.35162 31.8445 9.29784 32.1045L8.39285 36.4654C8.35862 36.63 8.43441 36.7975 8.5801 36.8817Z" fill="#2BF2F1" stroke="#082422" stroke-width="0.0716378" stroke-miterlimit="10"/>
<path d="M11.6533 6.46724C11.6533 7.60956 12.0621 8.47433 12.8052 8.90087C12.9939 9.00994 13.1968 9.08541 13.411 9.12875C13.5552 9.15845 13.7039 9.17257 13.8569 9.17257C14.1806 9.17257 14.5223 9.10733 14.8743 8.97732C14.869 8.86192 14.8484 8.74554 14.8157 8.63453C14.7868 8.53763 14.7477 8.44414 14.7008 8.35698C14.6744 8.30877 14.646 8.26349 14.6142 8.22016C14.1595 8.39106 13.7444 8.41833 13.4017 8.2966C13.3337 8.27323 13.2687 8.24304 13.2066 8.20749C12.7231 7.92946 12.4566 7.31107 12.4566 6.46675C12.4566 5.5265 12.7822 4.48498 13.3113 3.55106C13.4447 3.31442 13.5914 3.08557 13.7493 2.86645C14.251 2.17015 14.8646 1.57757 15.5261 1.1968C15.9822 0.934835 16.413 0.801419 16.7914 0.801419C17.0329 0.801419 17.2529 0.855954 17.4436 0.965511C17.9267 1.24354 18.1931 1.86193 18.1931 2.70674C18.1931 2.93949 18.1731 3.17857 18.1349 3.42057C18.1232 3.49653 18.1095 3.57249 18.0939 3.64942C18.0562 3.83689 18.0078 4.02581 17.9501 4.21474C17.8602 4.50835 17.7467 4.80099 17.6138 5.08828L17.6744 5.12333L17.7287 5.1545L17.9868 5.30301L18.3085 5.48804C18.5676 4.94366 18.7578 4.38954 18.8722 3.84857C18.9074 3.67961 18.9353 3.51162 18.9563 3.34607C18.9725 3.2185 18.9837 3.09287 18.9901 2.96822C18.993 2.90881 18.995 2.8499 18.9959 2.79098C18.9969 2.76274 18.9969 2.73498 18.9969 2.70674C18.9969 1.56394 18.5882 0.699165 17.8455 0.272622C17.0975 -0.15733 16.1313 -0.0755272 15.1242 0.503423C14.3659 0.939704 13.6471 1.62383 13.0546 2.46669C12.9182 2.66097 12.7876 2.86353 12.6659 3.07291C12.6502 3.0992 12.6346 3.12647 12.6194 3.15276C11.9961 4.25126 11.6538 5.42474 11.6538 6.46675L11.6533 6.46724Z" fill="#DCFF00" stroke="#082422" stroke-width="0.0716378" stroke-miterlimit="10"/>
<path d="M15.5781 8.72318C15.5781 9.86599 15.9868 10.7308 16.729 11.1573C16.906 11.2591 17.0947 11.3316 17.2937 11.3764C17.4506 11.412 17.613 11.4295 17.7807 11.4295C18.0901 11.4295 18.4167 11.3701 18.7526 11.2503C18.7507 11.1349 18.734 11.018 18.7037 10.9056C18.6778 10.8082 18.6421 10.7137 18.5967 10.6251C18.5727 10.5764 18.5448 10.5297 18.5155 10.4849C18.0471 10.6567 17.6213 10.6743 17.2751 10.534C17.2252 10.5141 17.1773 10.4907 17.1309 10.4639C16.6478 10.1864 16.3814 9.56799 16.3814 8.72318C16.3814 8.48995 16.4014 8.25087 16.4395 8.00887C16.4728 7.79706 16.5197 7.5833 16.5799 7.36905C16.6517 7.11147 16.7417 6.85292 16.8488 6.59826C16.9602 6.32948 17.0903 6.06459 17.236 5.80798C17.3695 5.57134 17.5161 5.34249 17.6746 5.12337C17.7293 5.04693 17.7855 4.97145 17.8432 4.89793C18.0129 4.68076 18.1933 4.47577 18.3825 4.28684C18.5404 4.12908 18.7042 3.98203 18.8724 3.8491C19.0597 3.69961 19.2533 3.56717 19.4503 3.45372C19.906 3.19176 20.3372 3.05883 20.7152 3.05883C20.9572 3.05883 21.1772 3.11336 21.3679 3.22292C21.8509 3.50046 22.1174 4.11885 22.1174 4.96366C22.1174 5.19641 22.0973 5.43549 22.0592 5.67749C22.0475 5.75345 22.0338 5.82941 22.0181 5.90586C21.9805 6.09332 21.9321 6.28273 21.8744 6.47117C21.7839 6.76479 21.671 7.05791 21.5375 7.3452L21.5981 7.37977L21.6524 7.41142L21.9111 7.55993L22.2328 7.74447C22.4924 7.20009 22.6821 6.645 22.797 6.10403C22.8327 5.93556 22.8605 5.76806 22.8811 5.6025C22.8972 5.47542 22.908 5.3493 22.9148 5.22514C22.9177 5.16573 22.9202 5.10633 22.9207 5.04693C22.9217 5.01868 22.9217 4.99093 22.9217 4.96318C22.9217 3.82086 22.5129 2.95608 21.7702 2.52905C21.0217 2.0991 20.0556 2.18091 19.0489 2.76034C19.0313 2.77057 19.0137 2.78079 18.9961 2.79151C18.8729 2.86406 18.7507 2.94342 18.6299 3.02912C18.5184 3.108 18.4084 3.19224 18.2999 3.28135C18.2446 3.32663 18.1894 3.37386 18.1351 3.42158C17.7176 3.78921 17.3264 4.22938 16.9783 4.72361C16.8424 4.91789 16.7119 5.12045 16.5901 5.33031C16.5745 5.35661 16.5593 5.38339 16.5442 5.41017C16.1398 6.12107 15.8543 6.86363 15.7023 7.58184C15.6876 7.65293 15.6744 7.72353 15.6617 7.79414C15.6377 7.93242 15.6186 8.06925 15.605 8.20461C15.5898 8.35166 15.581 8.49677 15.579 8.63943C15.5781 8.66719 15.5781 8.69543 15.5781 8.72367V8.72318Z" fill="#DCFF00" stroke="#082422" stroke-width="0.0716378" stroke-miterlimit="10"/>
<path d="M19.5018 10.9797C19.5018 12.122 19.9106 12.9868 20.6537 13.4138C20.818 13.5083 20.9926 13.5779 21.1764 13.6227C21.3456 13.6646 21.5225 13.6855 21.7054 13.6855C21.9997 13.6855 22.3097 13.6315 22.6285 13.5239C22.6309 13.4085 22.6177 13.2906 22.5908 13.1767C22.5679 13.0788 22.5346 12.9824 22.4926 12.8928C22.4701 12.8436 22.4437 12.7964 22.4158 12.7506C21.9347 12.922 21.4991 12.9303 21.1495 12.7691C21.1172 12.754 21.0864 12.738 21.0556 12.7204C20.5721 12.4424 20.3056 11.824 20.3056 10.9797C20.3056 10.7469 20.3257 10.5079 20.3638 10.2659C20.397 10.0541 20.444 9.8403 20.5041 9.62556C20.5755 9.36847 20.6655 9.11137 20.7716 8.8572C20.884 8.58745 21.0146 8.32159 21.1603 8.06401C21.2937 7.82736 21.4404 7.59851 21.5988 7.37939C21.6541 7.30246 21.7108 7.22699 21.769 7.15249C21.9381 6.93581 22.1185 6.7313 22.3073 6.54238C22.4652 6.38461 22.629 6.23756 22.7972 6.10415C22.9844 5.95563 23.1775 5.82368 23.3746 5.71023C23.8307 5.44826 24.2615 5.31485 24.6399 5.31485C24.8814 5.31485 25.1014 5.36938 25.2921 5.47894C25.7752 5.75697 26.0416 6.37536 26.0416 7.22017C26.0416 7.45341 26.0216 7.69248 25.9835 7.93448C25.8964 8.48665 25.7155 9.05489 25.4618 9.60122L25.5224 9.63628L25.5772 9.66744L25.8353 9.81595L26.1575 10.001C26.4166 9.4566 26.6068 8.90248 26.7212 8.362C26.797 8.00071 26.8391 7.64623 26.8449 7.30441C26.8459 7.27617 26.8459 7.24841 26.8459 7.22017C26.8459 6.07737 26.4372 5.21259 25.695 4.78605C24.9469 4.3561 23.9808 4.4379 22.9737 5.01685C22.9561 5.02659 22.9389 5.03681 22.9213 5.04753C22.7981 5.12056 22.6759 5.19945 22.5551 5.28563C22.4437 5.36451 22.3337 5.44875 22.2251 5.53786C22.1699 5.58363 22.1151 5.62988 22.0604 5.67809C21.6428 6.04572 21.2517 6.48589 20.9036 6.9806C20.7667 7.1744 20.6371 7.37745 20.5149 7.58682C20.4992 7.61312 20.4836 7.64038 20.4689 7.66716C20.0646 8.37807 19.779 9.12111 19.627 9.83981C19.6123 9.91139 19.5981 9.98199 19.5864 10.0526C19.5625 10.1909 19.5434 10.3272 19.5297 10.4621C19.5145 10.6091 19.5057 10.7547 19.5038 10.8974C19.5028 10.9252 19.5028 10.9534 19.5028 10.9812L19.5018 10.9797Z" fill="#DCFF00" stroke="#082422" stroke-width="0.0716378" stroke-miterlimit="10"/>
<path d="M23.4256 13.2356C23.4256 14.3784 23.8343 15.2427 24.577 15.6698C24.7291 15.7574 24.8899 15.8231 25.0581 15.8684C25.24 15.9176 25.4307 15.9419 25.6287 15.9419C25.9078 15.9419 26.2012 15.8933 26.5024 15.7959C26.5082 15.6805 26.499 15.5626 26.476 15.4482C26.4559 15.3494 26.4251 15.252 26.386 15.1604C26.3645 15.1103 26.3405 15.0621 26.3132 15.0158C25.8194 15.1858 25.3749 15.1828 25.0239 15.0007C25.0087 14.9924 24.9936 14.9847 24.9789 14.9764C24.4958 14.6988 24.2294 14.0804 24.2294 13.2356C24.2294 13.0024 24.2494 12.7633 24.2876 12.5213C24.3208 12.3095 24.3677 12.0958 24.4279 11.8815C24.4998 11.6239 24.5897 11.3663 24.6963 11.1117C24.8083 10.8424 24.9383 10.5775 25.084 10.3204C25.2175 10.0843 25.3642 9.85494 25.5221 9.63582C25.5773 9.55938 25.6336 9.48439 25.6913 9.41038C25.8609 9.19321 26.0413 8.98822 26.2305 8.79929C26.388 8.64153 26.5513 8.49448 26.7204 8.36155C26.9077 8.21207 27.1008 8.07962 27.2983 7.96568C27.754 7.70372 28.1852 7.57079 28.5632 7.57079C28.8052 7.57079 29.0252 7.62533 29.2159 7.73488C29.6989 8.01243 29.9654 8.63082 29.9654 9.47563C29.9654 9.70838 29.9454 9.94745 29.9072 10.1895C29.8955 10.2654 29.8823 10.3414 29.8662 10.4178C29.8285 10.6053 29.7801 10.7942 29.7224 10.9826C29.6324 11.2767 29.519 11.5699 29.3855 11.8572L29.4457 11.8917L29.5009 11.9234L29.7591 12.0719L30.0808 12.2569C30.3404 11.7125 30.5301 11.1579 30.645 10.617C30.6802 10.448 30.7086 10.28 30.7291 10.1145C30.7452 9.98738 30.756 9.86176 30.7628 9.73759C30.7658 9.67819 30.7682 9.61878 30.7687 9.55938C30.7697 9.53114 30.7697 9.50338 30.7697 9.47563C30.7697 8.33331 30.3609 7.46854 29.6183 7.04151C28.8697 6.61155 27.9036 6.69336 26.8969 7.27279C26.8793 7.28253 26.8617 7.29324 26.8441 7.30396C26.7209 7.37699 26.5987 7.45588 26.4779 7.54206C26.3665 7.62094 26.2564 7.70518 26.1479 7.79477C26.0927 7.83957 26.0379 7.8868 25.9831 7.93452C25.5656 8.30166 25.1745 8.74184 24.8264 9.23606C24.6904 9.43034 24.5604 9.6329 24.4382 9.84277C24.4225 9.86906 24.4069 9.89633 24.3917 9.92262C23.9879 10.634 23.7018 11.3761 23.5503 12.0948C23.5356 12.1659 23.5224 12.2374 23.5097 12.308C23.4857 12.4458 23.4667 12.5832 23.453 12.718C23.4378 12.8651 23.429 13.0097 23.4271 13.1524C23.4261 13.1806 23.4261 13.2084 23.4261 13.2366L23.4256 13.2356Z" fill="#DCFF00" stroke="#082422" stroke-width="0.0716378" stroke-miterlimit="10"/>
<path d="M27.3494 15.492C27.3494 16.6343 27.7581 17.4991 28.5013 17.9261C28.6406 18.0055 28.7878 18.0683 28.9408 18.1131C29.1359 18.1696 29.3403 18.1978 29.5529 18.1978C29.8165 18.1978 30.0922 18.155 30.3763 18.0683C30.3865 17.9529 30.3802 17.8346 30.3601 17.7187C30.343 17.6194 30.3156 17.5215 30.279 17.4285C30.2589 17.3779 30.236 17.3287 30.21 17.2815C29.7065 17.4494 29.2547 17.4348 28.9032 17.2328L28.8997 17.2308C28.4181 16.9518 28.1532 16.3344 28.1532 15.492C28.1532 15.2593 28.1732 15.0202 28.2113 14.7782C28.3267 14.0429 28.6093 13.279 29.0073 12.5763C29.1408 12.3397 29.2874 12.1108 29.4454 11.8917C29.7974 11.4029 30.2042 10.9656 30.6442 10.6165C30.831 10.468 31.0246 10.3355 31.2216 10.2216C31.6778 9.95962 32.1085 9.8262 32.4869 9.8262C32.7285 9.8262 32.9485 9.88073 33.1392 9.99029C33.6222 10.2683 33.8887 10.8867 33.8887 11.7315C33.8887 11.9648 33.8686 12.2038 33.8305 12.4458C33.8188 12.5218 33.8051 12.5978 33.7894 12.6742C33.7518 12.8617 33.7034 13.0511 33.6452 13.2395C33.5552 13.5326 33.4423 13.8258 33.3093 14.1126L33.3699 14.1476L33.4242 14.1793L33.6824 14.3278L34.0041 14.5128C34.2632 13.968 34.4534 13.4138 34.5678 12.8734C34.603 12.7044 34.6309 12.5369 34.6519 12.3713C34.668 12.2438 34.6793 12.1177 34.6856 11.993C34.6886 11.9336 34.6905 11.8742 34.6915 11.8158C34.6925 11.788 34.6925 11.7598 34.6925 11.7315C34.6925 10.5887 34.2837 9.72395 33.5411 9.2974C32.793 8.86745 31.8269 8.94925 30.8197 9.5282C30.8021 9.53794 30.785 9.54817 30.7674 9.55888C30.4726 9.73368 30.1836 9.94549 29.9064 10.189C29.4889 10.5566 29.0977 10.9968 28.7496 11.4915C28.6132 11.6858 28.4827 11.8878 28.3609 12.0982C28.3453 12.1245 28.3297 12.1517 28.3155 12.178C27.9111 12.8894 27.6251 13.632 27.4736 14.3507C27.3978 14.712 27.3557 15.0664 27.3499 15.4083C27.3489 15.4365 27.3489 15.4643 27.3489 15.492H27.3494Z" fill="#DCFF00" stroke="#082422" stroke-width="0.0716378" stroke-miterlimit="10"/>
<path d="M31.2742 17.7478C31.2742 18.8906 31.6829 19.7549 32.4256 20.182C32.5517 20.2545 32.6842 20.3125 32.8231 20.3558C33.0299 20.4215 33.2489 20.4537 33.4777 20.4537C33.7246 20.4537 33.9838 20.4157 34.2483 20.3392C34.2629 20.2243 34.261 20.106 34.2444 19.9891C34.2302 19.8898 34.2053 19.7905 34.1705 19.6965C34.152 19.6449 34.1309 19.5952 34.1065 19.5465C33.6137 19.7053 33.1726 19.6877 32.828 19.4891C32.8108 19.4789 32.7942 19.4691 32.7776 19.4584C32.3258 19.1667 32.0784 18.5625 32.0784 17.7478C32.0784 17.5146 32.0985 17.2755 32.1366 17.0335C32.1699 16.8222 32.2168 16.608 32.2769 16.3937C32.3488 16.1356 32.4393 15.8776 32.5459 15.6224C32.6578 15.3537 32.7879 15.0893 32.9331 14.8326C33.0666 14.596 33.2132 14.3671 33.3716 14.148C33.4264 14.0716 33.4826 13.9966 33.5403 13.9226C33.71 13.7059 33.8904 13.5009 34.0796 13.312C34.237 13.1537 34.4003 13.0067 34.5695 12.8738C34.7568 12.7243 34.9504 12.5918 35.1474 12.4779C35.6031 12.2159 36.0343 12.0835 36.4122 12.0835C36.6543 12.0835 36.8743 12.138 37.0649 12.2476C37.548 12.5256 37.8145 13.144 37.8145 13.9883C37.8145 14.2211 37.7944 14.4601 37.7563 14.7021C37.7445 14.7781 37.7309 14.8541 37.7152 14.9305C37.6776 15.118 37.6292 15.3074 37.5715 15.4958C37.481 15.7894 37.3681 16.0826 37.2346 16.3699L37.2952 16.4049L37.3495 16.4361L37.6081 16.5846L37.9298 16.7696C38.1895 16.2252 38.3792 15.6701 38.4941 15.1287C38.5298 14.9602 38.5576 14.7927 38.5782 14.6272C38.5943 14.5001 38.605 14.374 38.6119 14.2498C38.6148 14.1904 38.6173 14.1305 38.6178 14.0716C38.6187 14.0438 38.6187 14.0156 38.6187 13.9883C38.6187 12.846 38.21 11.9812 37.4673 11.5542C36.7188 11.1242 35.7527 11.2061 34.746 11.7855C34.7284 11.7957 34.7108 11.8059 34.6932 11.8167C34.57 11.8892 34.4478 11.9686 34.327 12.0548C34.2155 12.1332 34.1055 12.2179 33.997 12.307C33.9417 12.3523 33.8865 12.399 33.8322 12.4472C33.4147 12.8144 33.0235 13.2545 32.6754 13.7488C32.5395 13.943 32.409 14.1456 32.2872 14.3555C32.2716 14.3818 32.2559 14.409 32.2413 14.4358C31.8369 15.1472 31.5509 15.8898 31.3993 16.6084C31.3847 16.6791 31.3715 16.7497 31.3588 16.8193C31.3348 16.9581 31.3157 17.0949 31.302 17.2302C31.2869 17.3773 31.2781 17.5219 31.2761 17.6646C31.2751 17.6928 31.2751 17.7206 31.2751 17.7488L31.2742 17.7478Z" fill="#DCFF00" stroke="#082422" stroke-width="0.0716378" stroke-miterlimit="10"/>
<path d="M35.1974 20.0047C35.1974 21.147 35.6062 22.0113 36.3493 22.4388C36.4628 22.5041 36.5811 22.5576 36.7038 22.599C36.9229 22.6735 37.157 22.711 37.401 22.711C37.6313 22.711 37.8714 22.6779 38.1173 22.6122C38.1364 22.4973 38.1378 22.378 38.1241 22.2606C38.1129 22.1603 38.0909 22.061 38.0596 21.9656C38.0425 21.913 38.0219 21.8618 37.9995 21.8131C37.5193 21.9612 37.0891 21.9407 36.7512 21.7459C36.718 21.727 36.6852 21.706 36.6544 21.6836C36.232 21.3817 36.0017 20.7916 36.0017 20.0052C36.0017 19.7725 36.0218 19.5334 36.0599 19.2914C36.0931 19.0796 36.1401 18.8658 36.2002 18.6511C36.2716 18.394 36.3616 18.1369 36.4677 17.8827C36.5801 17.613 36.7107 17.3471 36.8564 17.0895C36.9898 16.8534 37.1365 16.6245 37.2949 16.4054C37.3497 16.3285 37.4069 16.2525 37.4651 16.178C37.6342 15.9613 37.8146 15.7568 38.0034 15.5679C38.1613 15.4101 38.3251 15.2631 38.4933 15.1297C38.6805 14.9811 38.8736 14.8492 39.0707 14.7357C39.5268 14.4738 39.9576 14.3404 40.336 14.3404C40.5775 14.3404 40.7975 14.3949 40.9882 14.5049C41.4713 14.7825 41.7377 15.4009 41.7377 16.2457C41.7377 16.4789 41.7177 16.718 41.6796 16.96C41.6678 17.036 41.6541 17.1114 41.6385 17.1879C41.6008 17.3753 41.5524 17.5648 41.4943 17.7537C41.4043 18.0473 41.2914 18.3404 41.1579 18.6272L41.2185 18.6618L41.2733 18.6934L41.5314 18.8419L41.8531 19.027C42.1123 18.4826 42.3024 17.928 42.4169 17.3875C42.4521 17.2186 42.4799 17.0506 42.5009 16.885C42.5171 16.7579 42.5283 16.6318 42.5347 16.5076C42.5376 16.4482 42.5396 16.3888 42.5406 16.3299C42.5415 16.3017 42.5415 16.2739 42.5415 16.2457C42.5415 15.1029 42.1328 14.2386 41.3906 13.8116C40.6426 13.3816 39.6765 13.4634 38.6693 14.0424C38.6517 14.0526 38.6346 14.0623 38.617 14.073C38.4938 14.1461 38.3715 14.225 38.2508 14.3111C38.1393 14.39 38.0293 14.4743 37.9207 14.5634C37.8655 14.6087 37.8107 14.6554 37.756 14.7036C37.3384 15.0712 36.9473 15.5114 36.5992 16.0061C36.4628 16.2004 36.3327 16.403 36.2105 16.6128C36.1948 16.6391 36.1797 16.6664 36.1645 16.6927C35.7602 17.4041 35.4747 18.1466 35.3226 18.8653C35.3079 18.9369 35.2938 19.0075 35.282 19.0781C35.2581 19.2164 35.239 19.3527 35.2253 19.4876C35.2102 19.6347 35.2014 19.7802 35.1994 19.9229C35.1984 19.9507 35.1984 19.9789 35.1984 20.0067L35.1974 20.0047Z" fill="#DCFF00" stroke="#082422" stroke-width="0.0716378" stroke-miterlimit="10"/>
<path d="M39.1217 22.2606C39.1217 23.4034 39.5304 24.2682 40.2731 24.6947C40.3738 24.7526 40.478 24.8013 40.5855 24.8403C40.8168 24.925 41.0652 24.9669 41.3248 24.9669C41.5384 24.9669 41.7599 24.9382 41.9868 24.8812C42.0093 24.7672 42.0151 24.6484 42.0044 24.5306C41.9966 24.4298 41.9775 24.33 41.9482 24.2336C41.932 24.1805 41.9134 24.1284 41.8914 24.0783C41.424 24.2161 41.0055 24.1922 40.675 24.0023C40.6251 23.9736 40.5777 23.9414 40.5327 23.9054C40.1396 23.5947 39.9255 23.0192 39.9255 22.2611C39.9255 22.0283 39.9455 21.7892 39.9837 21.5472C40.0169 21.3354 40.0639 21.1217 40.1235 20.9074C40.1954 20.6503 40.2853 20.3927 40.3919 20.1386C40.5039 19.8688 40.6339 19.6034 40.7801 19.3459C40.9136 19.1097 41.0603 18.8804 41.2182 18.6613C41.2734 18.5848 41.3297 18.5098 41.3874 18.4358C41.557 18.2186 41.7374 18.0136 41.9266 17.8247C42.0841 17.667 42.2474 17.5199 42.4165 17.387C42.6038 17.2375 42.7969 17.105 42.9944 16.9911C43.4501 16.7296 43.8813 16.5962 44.2593 16.5962C44.5013 16.5962 44.7213 16.6508 44.9125 16.7603C45.3955 17.0383 45.662 17.6567 45.662 18.5011C45.662 18.7338 45.642 18.9729 45.6038 19.2149C45.5921 19.2908 45.5789 19.3668 45.5628 19.4432C45.5251 19.6312 45.4767 19.8206 45.4185 20.009C45.3286 20.3027 45.2156 20.5958 45.0821 20.8826L45.1423 20.9176L45.1975 20.9493L45.4557 21.0978L45.7769 21.2823C46.0365 20.7375 46.2262 20.1834 46.3411 19.6424C46.3763 19.4734 46.4042 19.3054 46.4252 19.1399C46.4413 19.0128 46.4521 18.8867 46.4589 18.7625C46.4619 18.7031 46.4643 18.6437 46.4648 18.5843C46.4658 18.5561 46.4658 18.5283 46.4658 18.5006C46.4658 17.3582 46.057 16.4935 45.3144 16.0664C44.5658 15.637 43.5997 15.7183 42.593 16.2977C42.5754 16.308 42.5578 16.3182 42.5402 16.3289C42.417 16.4019 42.2948 16.4808 42.174 16.567C42.0626 16.6459 41.9526 16.7301 41.844 16.8197C41.7888 16.8645 41.734 16.9117 41.6793 16.9595C41.2617 17.3266 40.8706 17.7668 40.5225 18.261C40.3865 18.4553 40.256 18.6578 40.1343 18.8677C40.1186 18.8945 40.103 18.9213 40.0878 18.948C39.684 19.6594 39.3979 20.4015 39.2464 21.1197C39.2317 21.1908 39.2175 21.2619 39.2058 21.333C39.1818 21.4713 39.1628 21.6081 39.1491 21.743C39.1339 21.89 39.1251 22.0346 39.1232 22.1773C39.1222 22.2056 39.1222 22.2333 39.1222 22.2615L39.1217 22.2606Z" fill="#DCFF00" stroke="#082422" stroke-width="0.0716378" stroke-miterlimit="10"/>
<path d="M43.045 24.5168C43.045 25.6591 43.4537 26.5239 44.1969 26.9509C44.2839 27.0011 44.3734 27.0434 44.4663 27.0795C44.7102 27.1754 44.9723 27.2231 45.249 27.2231C45.4446 27.2231 45.647 27.1997 45.8538 27.1515C45.8563 27.1408 45.8587 27.1306 45.8607 27.1199C45.8822 27.0157 45.8895 26.9081 45.8837 26.8005C45.8788 26.7002 45.8621 26.5989 45.8357 26.5015C45.8211 26.4479 45.8035 26.3949 45.7829 26.3437C45.3282 26.4708 44.9215 26.4431 44.5988 26.2575C44.5323 26.2196 44.4702 26.1753 44.412 26.1246C44.0468 25.8062 43.8488 25.2457 43.8488 24.5168C43.8488 24.2841 43.8688 24.045 43.907 23.803C43.9402 23.5912 43.9871 23.3774 44.0473 23.1627C44.1191 22.9051 44.2091 22.6475 44.3157 22.3928C44.4277 22.1236 44.5577 21.8582 44.7034 21.6011C44.8369 21.365 44.9836 21.1356 45.1415 20.917C45.1972 20.8401 45.2539 20.7641 45.3116 20.6901C45.4813 20.4729 45.6617 20.2684 45.8504 20.0795C46.0083 19.9217 46.1711 19.7752 46.3403 19.6422C46.5271 19.4932 46.7207 19.3608 46.9177 19.2473C47.3739 18.9854 47.8046 18.8524 48.1831 18.8524C48.4246 18.8524 48.6446 18.9065 48.8353 19.0165C49.3183 19.2941 49.5848 19.9125 49.5848 20.7573C49.5848 21.5213 49.3697 22.3524 49.0049 23.1388L49.1198 23.205L49.3785 23.3535L49.7002 23.5386C50.1466 22.6003 50.3881 21.6328 50.3881 20.7573C50.3881 19.615 49.9793 18.7502 49.2372 18.3232C48.4891 17.8932 47.523 17.975 46.5158 18.554C46.4982 18.5642 46.4811 18.5739 46.4635 18.5846C46.3403 18.6577 46.2181 18.737 46.0973 18.8227C45.9858 18.9016 45.8758 18.9859 45.7673 19.0755C45.712 19.1202 45.6573 19.1675 45.6025 19.2152C45.185 19.5828 44.7939 20.023 44.4457 20.5177C44.3093 20.712 44.1793 20.9146 44.057 21.1244C44.0414 21.1507 44.0262 21.1775 44.0116 21.2043C43.6077 21.9157 43.3217 22.6582 43.1697 23.3764C43.155 23.4475 43.1418 23.5181 43.1291 23.5887C43.1051 23.7265 43.0861 23.8638 43.0724 23.9987C43.0572 24.1458 43.0484 24.2914 43.0465 24.434C43.0455 24.4623 43.0455 24.49 43.0455 24.5178L43.045 24.5168Z" fill="#DCFF00" stroke="#082422" stroke-width="0.0716378" stroke-miterlimit="10"/>
<path d="M34.1484 35.8049C34.6692 35.1803 35.4278 34.9846 36.0947 35.2249C36.3703 35.3242 36.6304 35.4978 36.8525 35.7463C37.612 36.5978 37.63 38.0052 36.8935 38.8899C36.3727 39.5145 35.6149 39.71 34.9482 39.47C34.6725 39.3707 34.4124 39.197 34.1904 38.9485C33.4303 38.0971 33.4114 36.6891 34.1484 35.8049Z" fill="#DCFF00" stroke="#082422" stroke-width="0.0358189"/>
<path d="M36.3658 37.2696C36.4041 37.2834 36.4404 37.3077 36.4711 37.3423C36.577 37.462 36.5794 37.6589 36.4771 37.7821C36.4046 37.8696 36.2993 37.8973 36.2064 37.8637C36.1681 37.8499 36.1314 37.8251 36.1006 37.7905C35.9953 37.6718 35.9923 37.4744 36.0946 37.3507C36.1672 37.2631 36.273 37.2359 36.3658 37.2696Z" fill="#082422"/>
<path d="M35.4097 36.1907C35.4479 36.2046 35.4842 36.2288 35.515 36.2634C35.6203 36.3822 35.6233 36.5795 35.5209 36.7032C35.4484 36.7908 35.3426 36.818 35.2497 36.7844C35.2115 36.7705 35.1752 36.7463 35.1444 36.7116C35.0386 36.5924 35.0361 36.3955 35.1385 36.2718C35.211 36.1843 35.3163 36.1571 35.4097 36.1907Z" fill="#082422"/>
<path d="M34.538 36.6964C34.5425 36.6979 34.5464 36.6999 34.5509 36.7023C34.6006 36.729 34.6224 36.7988 34.5991 36.8572L34.5961 36.8636C34.4128 37.2871 34.5102 37.8377 34.8345 38.2027C34.9617 38.3462 35.1117 38.4481 35.2692 38.505C35.5126 38.5931 35.7724 38.5738 35.9889 38.4352C36.0143 38.4174 36.0436 38.4145 36.0694 38.4239C36.0923 38.4323 36.1126 38.4501 36.1255 38.4758C36.1534 38.5312 36.1375 38.6029 36.0898 38.6356L36.0843 38.6391C35.8196 38.8087 35.5026 38.8335 35.2081 38.7266C35.0218 38.6588 34.8445 38.5391 34.695 38.3704C34.309 37.9351 34.1953 37.2722 34.4183 36.7587C34.4397 36.7053 34.4913 36.6796 34.538 36.6964Z" fill="#082422"/>
<path opacity="0.2" fill-rule="evenodd" clip-rule="evenodd" d="M8.27255 17.4666L8.36923 17.0007C8.54526 17.0665 8.71961 17.1485 8.8913 17.2472L12.3856 19.2567V19.2562C14.5559 20.5042 15.4795 23.9526 14.4469 26.9569C13.6304 29.3345 11.8346 30.7228 10.0452 30.5806L8.93981 30.4925C8.44895 30.4622 7.9578 30.3173 7.48667 30.0464L5.85632 29.1089L8.27247 17.467L11.2245 19.1642C12.5292 19.9144 13.3833 21.4599 13.6328 23.226C13.3834 21.4597 12.5293 19.914 11.2244 19.1637L8.27255 17.4666Z" fill="#002522"/>
<path d="M2.66705 27.5657L3.82824 27.6583L4.18858 26.1517L3.02739 26.0597L2.66705 27.5657Z" fill="#B3D000" stroke="black" stroke-width="0.0716378" stroke-miterlimit="10"/>
<path d="M10.8776 16.9668L7.38329 14.9572C6.93006 14.6967 6.45825 14.5526 5.98596 14.5151L4.82477 14.4226C5.29707 14.4601 5.76887 14.6042 6.2221 14.8647L9.71642 16.8738C11.8867 18.1218 12.8103 21.5701 11.7777 24.5744C10.9612 26.9521 9.16541 28.3403 7.37596 28.1981L8.53714 28.2906C10.3266 28.4328 12.1224 27.0446 12.9389 24.667C13.9715 21.6626 13.0479 18.2143 10.8776 16.9663V16.9668Z" fill="#B3D000" stroke="black" stroke-width="0.0716378" stroke-miterlimit="10"/>
<path d="M9.71618 16.8743C11.8865 18.1223 12.8101 21.5706 11.7775 24.5749C10.7454 27.5802 8.14919 29.0045 5.97838 27.7565L3.02726 26.0596L2.66692 27.5661C2.54518 27.4298 0.232584 24.8413 0.0252815 21.2249C-0.0583239 20.1853 0.0639063 19.0888 0.422285 18.0458C1.4544 15.041 4.05106 13.6168 6.22186 14.8652L9.71618 16.8743Z" fill="#DCFF00" stroke="black" stroke-width="0.0716378" stroke-miterlimit="10"/>
<path d="M5.10856 20.2217C5.32907 20.3483 5.42245 20.698 5.31782 21.0033C5.21319 21.3086 4.94967 21.4527 4.72965 21.3261C4.50964 21.1995 4.41576 20.8494 4.52039 20.5446C4.62502 20.2398 4.88855 20.0951 5.10856 20.2217Z" fill="#002522"/>
<path opacity="0.3" d="M8.1402 21.9649C8.3607 22.0915 8.45458 22.4411 8.34946 22.7464C8.24434 23.0517 7.9813 23.1958 7.7608 23.0688C7.5403 22.9417 7.44691 22.5921 7.55154 22.2873C7.65617 21.9824 7.9197 21.8378 8.13971 21.9644L8.1402 21.9649Z" fill="#002522"/>
<path opacity="0.6" d="M6.62486 21.0933C6.84536 21.2199 6.93875 21.5695 6.83412 21.8748C6.72949 22.1801 6.46596 22.3243 6.24595 22.1977C6.02593 22.0711 5.93206 21.721 6.03669 21.4162C6.14132 21.1113 6.40485 20.9667 6.62486 21.0933Z" fill="#002522"/>
<path opacity="0.2" d="M87.9969 59.0891V59.0798C87.9628 58.5655 87.6492 58.0896 87.1605 57.8095L84.934 56.492L74.085 50.064C73.4307 49.6819 72.6499 49.4713 71.8861 49.4713C71.1223 49.4713 70.3695 49.6692 69.7212 50.0437L65.391 52.5411L37.2067 68.7722C36.6977 69.0578 36.3873 69.5831 36.3758 70.1813C36.3758 70.7668 36.6774 71.2965 37.1825 71.598L50.4434 79.4482C51.0471 79.809 51.7405 79.9998 52.4498 79.9998C53.1591 79.9998 53.8035 79.8227 54.4198 79.4734L60.9336 75.7205L82.7939 63.1316L87.1974 60.593C87.7438 60.2877 88.0421 59.7262 87.9958 59.0897L87.9969 59.0891Z" fill="black"/>
<path d="M52.652 78.1632L84.5529 59.7966C85.2171 59.4161 85.5638 58.7576 85.5897 58.0893C85.6216 57.3699 85.8368 55.5502 85.1275 55.1281L71.8022 48.6595C70.3323 47.79 68.5092 47.7801 67.03 48.631L34.7423 65.849C34.0973 66.2202 34.2943 67.973 34.3295 68.5005C34.3862 69.3563 34.6085 70.0515 35.3597 70.4956L48.2706 78.1347C49.6183 78.9308 51.2939 78.944 52.6515 78.1605V78.1638L52.652 78.1632Z" fill="#BFBBB8" stroke="#082422" stroke-width="0.0286551" stroke-miterlimit="10"/>
<path d="M52.6518 76.3695L84.5527 58.0028C85.9295 57.21 85.9422 55.2335 84.5753 54.4248L71.8052 46.8685C70.3354 45.9989 68.5123 45.9891 67.0331 46.84L35.3825 65.063C33.9798 65.8689 33.9705 67.88 35.36 68.7052L48.2709 76.3442C49.6186 77.1403 51.2942 77.1535 52.6518 76.37V76.3695Z" fill="white" stroke="#082422" stroke-width="0.0286551" stroke-miterlimit="10"/>
<path d="M85.0681 56.0856V56.0763C85.0351 55.5757 84.7297 55.113 84.2543 54.8399L82.0878 53.5575L71.531 47.3022C70.8943 46.93 70.1343 46.7255 69.3909 46.7255C68.6475 46.7255 67.915 46.9179 67.2844 47.2825L63.0708 49.7125L35.6465 65.5077C35.1513 65.7857 34.8491 66.2966 34.8376 66.8789C34.8376 67.4491 35.1309 67.9639 35.6229 68.2573L48.5266 75.8958C49.1138 76.2467 49.789 76.4326 50.4791 76.4326C51.1691 76.4326 51.7959 76.2604 52.3963 75.9205L58.7345 72.269L80.006 60.0189L84.2911 57.5489C84.8233 57.2518 85.1133 56.7057 85.0681 56.0861V56.0856Z" fill="#35605F"/>
<path d="M73.2845 50.0671C73.4999 50.068 73.7173 50.1167 73.8871 50.2126L77.9135 52.5242V52.5261L77.9222 52.531C78.0851 52.6237 78.1625 52.7438 78.1625 52.8601C78.1624 52.9763 78.085 53.0966 77.9222 53.1892C77.7562 53.285 77.5409 53.3329 77.3256 53.3337C77.11 53.3346 76.8956 53.2877 76.7328 53.1951L72.6976 50.8777C72.5314 50.7816 72.4504 50.6596 72.4496 50.5417C72.4489 50.4241 72.5279 50.3021 72.6976 50.2058C72.857 50.1133 73.0691 50.0664 73.2845 50.0671Z" fill="white" stroke="#082422" stroke-width="0.0358189"/>
<path d="M77.7156 62.3071L74.2058 64.2957C73.9422 64.4448 73.7287 64.7787 73.7287 65.0414C73.7287 65.304 73.9422 65.3955 74.2058 65.2464L77.7156 63.2578C77.9791 63.1087 78.1927 62.7748 78.1927 62.5122C78.1927 62.2496 77.9791 62.158 77.7156 62.3071Z" fill="#BFBBB8" stroke="#082422" stroke-width="0.0286551" stroke-miterlimit="10"/>
<path d="M43.8745 75.0353L43.8388 75.0145C43.8129 74.9992 43.7969 74.9717 43.7969 74.9416V74.2398C43.7969 74.174 43.8685 74.1334 43.9252 74.1669L43.9609 74.1877C43.9868 74.2031 44.0027 74.2305 44.0027 74.2606V74.9624C44.0027 75.0282 43.9312 75.0688 43.8745 75.0353Z" fill="#082422"/>
<path d="M44.2617 75.2665L44.2259 75.2451C44.2006 75.2298 44.1852 75.2024 44.1852 75.1727V74.4726C44.1852 74.4068 44.2578 74.3662 44.3145 74.4002L44.3503 74.4216C44.3756 74.437 44.391 74.4644 44.391 74.494V75.1941C44.391 75.2599 44.3184 75.3005 44.2617 75.2665Z" fill="#082422"/>
<path d="M44.6541 75.4979L44.6156 75.4749C44.5903 75.4596 44.5743 75.4321 44.5743 75.4025V74.7024C44.5743 74.6371 44.6453 74.5966 44.702 74.6295L44.7405 74.6519C44.7664 74.6673 44.7824 74.6947 44.7824 74.7249V75.4256C44.7824 75.4914 44.7103 75.5319 44.6536 75.4979H44.6541Z" fill="#082422"/>
<path d="M45.0434 75.731L45.0049 75.7085C44.979 75.6931 44.9631 75.6657 44.9631 75.6356V74.9332C44.9631 74.868 45.0341 74.8274 45.0907 74.8603L45.1293 74.8828C45.1551 74.8981 45.1711 74.9255 45.1711 74.9557V75.658C45.1711 75.7233 45.1001 75.7639 45.0434 75.731Z" fill="#082422"/>
<path d="M45.4302 75.9602L45.3944 75.9388C45.3691 75.9235 45.3537 75.8961 45.3537 75.8665V75.1663C45.3537 75.1005 45.4263 75.06 45.483 75.094L45.5188 75.1153C45.5441 75.1307 45.5595 75.1581 45.5595 75.1877V75.8878C45.5595 75.9536 45.4869 75.9942 45.4302 75.9602Z" fill="#082422"/>
<path d="M45.8195 76.1934L45.7838 76.1726C45.7579 76.1572 45.7419 76.1298 45.7419 76.0997V75.3979C45.7419 75.3321 45.8135 75.2915 45.8702 75.325L45.9059 75.3458C45.9318 75.3611 45.9478 75.3886 45.9478 75.4187V76.1205C45.9478 76.1863 45.8762 76.2269 45.8195 76.1934Z" fill="#082422"/>
<path d="M46.2105 76.4256L46.1719 76.4026C46.1466 76.3872 46.1307 76.3598 46.1307 76.3302V75.629C46.1307 75.5632 46.2028 75.5226 46.2594 75.5566L46.298 75.5796C46.3233 75.595 46.3392 75.6224 46.3392 75.652V76.3532C46.3392 76.419 46.2671 76.4596 46.2105 76.4256Z" fill="#082422"/>
<path d="M46.5994 76.6563L46.5637 76.6355C46.5378 76.6201 46.5219 76.5927 46.5219 76.5626V75.8608C46.5219 75.795 46.5934 75.7544 46.6501 75.7878L46.6858 75.8087C46.7117 75.824 46.7277 75.8515 46.7277 75.8816V76.5834C46.7277 76.6492 46.6561 76.6898 46.5994 76.6563Z" fill="#082422"/>
<path d="M46.9865 76.8872L46.9508 76.8658C46.9254 76.8505 46.91 76.8231 46.91 76.7935V76.0933C46.91 76.0275 46.9827 75.987 47.0394 76.021L47.0751 76.0423C47.1004 76.0577 47.1158 76.0851 47.1158 76.1147V76.8149C47.1158 76.8806 47.0432 76.9212 46.9865 76.8872Z" fill="#082422"/>
<path d="M40.3623 72.9202C40.1604 72.8018 39.9931 72.5397 39.9931 72.3385C39.9931 72.1373 40.1598 72.0666 40.3623 72.185L42.487 73.4257C42.689 73.5442 42.8563 73.8062 42.8563 74.0075C42.8563 74.2087 42.6895 74.2794 42.487 74.161" fill="#082422"/>
<path d="M36.0686 70.4187L36.03 70.3956C36.0047 70.3803 35.9888 70.3529 35.9888 70.3233V69.622C35.9888 69.5562 36.0609 69.5156 36.1175 69.5496L36.1561 69.5727C36.1814 69.588 36.1973 69.6154 36.1973 69.645V70.3463C36.1973 70.4121 36.1252 70.4526 36.0686 70.4187Z" fill="#082422"/>
<path d="M36.457 70.6494L36.4213 70.6285C36.3954 70.6132 36.3795 70.5858 36.3795 70.5556V69.8538C36.3795 69.788 36.451 69.7474 36.5077 69.7809L36.5434 69.8017C36.5693 69.8171 36.5853 69.8445 36.5853 69.8746V70.5764C36.5853 70.6422 36.5137 70.6828 36.457 70.6494Z" fill="#082422"/>
<path d="M36.8447 70.8809L36.8089 70.8595C36.7836 70.8441 36.7682 70.8167 36.7682 70.7871V70.087C36.7682 70.0212 36.8408 69.9806 36.8975 70.0146L36.9333 70.036C36.9586 70.0513 36.974 70.0788 36.974 70.1084V70.8085C36.974 70.8743 36.9014 70.9149 36.8447 70.8809Z" fill="#082422"/>
<path d="M37.2373 71.1151L37.1987 71.0926C37.1729 71.0773 37.1569 71.0499 37.1569 71.0197V70.3174C37.1569 70.2521 37.2279 70.2116 37.2846 70.2445L37.3231 70.2669C37.349 70.2823 37.3649 70.3097 37.3649 70.3399V71.0422C37.3649 71.1074 37.2939 71.148 37.2373 71.1151Z" fill="#082422"/>
<path d="M37.6249 71.3459L37.5864 71.3229C37.5611 71.3075 37.5451 71.2801 37.5451 71.2505V70.5493C37.5451 70.4835 37.6172 70.4429 37.6739 70.4769L37.7124 70.4999C37.7377 70.5153 37.7537 70.5427 37.7537 70.5723V71.2735C37.7537 71.3393 37.6816 71.3799 37.6249 71.3459Z" fill="#082422"/>
<path d="M38.0134 71.5771L37.9776 71.5563C37.9517 71.5409 37.9358 71.5135 37.9358 71.4833V70.7815C37.9358 70.7158 38.0073 70.6752 38.064 70.7086L38.0998 70.7295C38.1256 70.7448 38.1416 70.7722 38.1416 70.8024V71.5042C38.1416 71.57 38.0701 71.6105 38.0134 71.5771Z" fill="#082422"/>
<path d="M38.4021 71.8073L38.3663 71.7865C38.3404 71.7711 38.3245 71.7437 38.3245 71.7136V71.014C38.3245 70.9482 38.3971 70.9076 38.4538 70.9416L38.4896 70.963C38.5149 70.9783 38.5303 71.0058 38.5303 71.0354V71.7344C38.5303 71.8002 38.4587 71.8408 38.4021 71.8073Z" fill="#082422"/>
<path d="M38.7935 72.0397L38.755 72.0167C38.7296 72.0014 38.7137 71.974 38.7137 71.9443V71.2431C38.7137 71.1773 38.7858 71.1367 38.8425 71.1707L38.881 71.1938C38.9063 71.2091 38.9222 71.2365 38.9222 71.2661V71.9674C38.9222 72.0332 38.8502 72.0737 38.7935 72.0397Z" fill="#082422"/>
<path d="M39.1815 72.2708L39.1457 72.25C39.1198 72.2346 39.1039 72.2072 39.1039 72.1771V71.4753C39.1039 71.4095 39.1754 71.3689 39.2321 71.4024L39.2679 71.4232C39.2937 71.4385 39.3097 71.466 39.3097 71.4961V72.1979C39.3097 72.2637 39.2382 72.3043 39.1815 72.2708Z" fill="#082422"/>
<path opacity="0.2" fill-rule="evenodd" clip-rule="evenodd" d="M51.952 55.5248L65.2981 63.1985L65.1215 64.0938C65.2842 64.149 68.3733 65.1925 70.9509 64.6387C71.706 64.4957 72.3813 64.2048 72.8843 63.7674C73.3164 63.3917 73.5733 62.9501 73.6657 62.4835L73.8799 61.3974C73.7878 61.8632 73.531 62.3042 73.0989 62.6794C72.5953 63.1169 71.92 63.4077 71.1655 63.5507C71.0637 63.5726 70.9611 63.592 70.8579 63.609C70.9609 63.592 71.0633 63.5726 71.165 63.5508C71.9195 63.4077 72.5947 63.1169 73.0984 62.6795C74.5484 61.4188 74.0245 59.4203 71.9284 58.2147L59.5961 51.1237L53.0049 54.9186L66.1527 62.4782L66.1525 62.4784L53.0047 54.9187L51.952 55.5248Z" fill="black"/>
<path d="M51.7814 51.6497C50.3105 50.8039 49.6137 49.5675 49.8301 48.4689L49.6155 49.5569C49.3986 50.6549 50.0953 51.8919 51.5668 52.7377L65.7424 60.8884L65.957 59.8004L51.7814 51.6497Z" fill="#B3D000" stroke="black" stroke-width="0.0716378" stroke-miterlimit="10"/>
<path d="M72.903 60.0014C72.3994 60.4388 71.7241 60.7297 70.9696 60.8727C68.3919 61.4265 65.3029 60.3824 65.1402 60.3278L64.9257 61.4158C65.0884 61.471 68.1774 62.5145 70.755 61.9607C71.5102 61.8177 72.1854 61.5268 72.6884 61.0894C73.1205 60.7137 73.3774 60.272 73.4698 59.8055L73.6843 58.7175C73.5926 59.1841 73.3357 59.6257 72.903 60.0014Z" fill="#B3D000" stroke="black" stroke-width="0.0716378" stroke-miterlimit="10"/>
<path d="M71.7321 55.5367C73.8282 56.7422 74.3521 58.7407 72.902 60.0014C72.3984 60.4388 71.7232 60.7297 70.9686 60.8727C68.391 61.4265 65.3019 60.3824 65.1392 60.3278L65.9563 59.8002L51.7807 51.6495C49.6846 50.444 49.1607 48.4455 50.6114 47.1848C52.0614 45.9241 54.9359 45.879 57.0326 47.0845L71.7321 55.5367Z" fill="#DCFF00" stroke="black" stroke-width="0.0716378" stroke-miterlimit="10"/>
<path d="M55.4832 49.1274L55.8361 49.3304L55.5941 49.54L55.2413 49.3376L55.4832 49.1274Z" fill="black"/>
<path d="M62.1075 52.9363L59.7945 53.7519C59.3356 53.9127 59.0489 53.9127 58.761 53.7471C58.6728 53.6967 58.6061 53.6385 58.5798 53.6165L58.7312 53.4848C58.7896 53.5334 58.8421 53.5714 58.9148 53.6136C59.1407 53.7436 59.3189 53.689 59.6383 53.5774L59.7152 53.5489L60.31 51.903L60.5669 52.0507L60.0436 53.4355L61.859 52.7933L62.1075 52.9363Z" fill="black"/>
<path d="M57.9817 49.7909C58.518 50.0995 58.6414 50.4574 58.3047 50.7501C57.9679 51.0427 57.4441 51.0332 56.9077 50.7245L56.0947 50.2574L55.2568 50.9857L54.9963 50.8361L56.9083 49.1736L57.9817 49.7909ZM57.0603 50.575C57.4363 50.791 57.8029 50.7987 58.0365 50.5957C58.2701 50.3927 58.1813 50.1429 57.8058 49.9268L57.0048 49.4662L56.2592 50.1144L57.0603 50.575Z" fill="black"/>
<path d="M55.055 49.6051L55.2659 49.7262L53.8856 50.9703L53.6097 50.8118L55.055 49.6051Z" fill="black"/>
<path d="M58.9754 52.9244C58.9986 52.9375 59.0243 52.9487 59.0422 52.9553L58.8991 53.0799C58.8628 53.0669 58.8228 53.0514 58.7847 53.03C58.5815 52.9131 58.5111 52.7689 58.7018 52.6033C58.4199 52.6822 58.0337 52.614 57.731 52.4401C57.34 52.2151 57.2125 51.9272 57.4509 51.7201C57.6893 51.5129 58.0755 51.5313 58.5266 51.7373L59.0702 51.9848C59.2209 52.0531 59.33 52.0578 59.4099 51.9884C59.5744 51.8453 59.4945 51.6275 59.1608 51.4352C58.8502 51.2565 58.5427 51.2251 58.3246 51.3758L58.0719 51.2304C58.3806 51.0173 58.8628 51.0411 59.3145 51.301C59.7746 51.5658 59.9004 51.91 59.6513 52.1267L58.9349 52.7493C58.8419 52.83 58.8943 52.8793 58.9748 52.925L58.9754 52.9244ZM59.0815 52.2727L59.1584 52.2062L58.4122 51.8803C58.0933 51.7426 57.8585 51.7302 57.7047 51.8643C57.551 51.9985 57.6559 52.173 57.905 52.316C58.3341 52.5629 58.7662 52.5469 59.0821 52.2727" fill="black"/>
<path d="M67.8562 57.5057L67.6458 57.3846L69.0261 56.1405L69.3021 56.299L67.8562 57.5057Z" fill="black"/>
<path d="M68.1608 56.4168L65.8472 57.2324C65.3883 57.3932 65.1022 57.3938 64.8144 57.2282C64.7262 57.1778 64.6594 57.1196 64.6332 57.0976L64.7846 56.9659C64.843 57.0145 64.8954 57.0525 64.9681 57.0947C65.194 57.2246 65.3722 57.17 65.6917 57.0584L65.7685 57.03L66.3633 55.384L66.6202 55.5318L66.0969 56.9166L67.9123 56.2744L68.1608 56.4174V56.4168Z" fill="black"/>
<path d="M67.3169 57.5712L67.6697 57.7736L67.4283 57.9837L67.0755 57.7807L67.3169 57.5712Z" fill="black"/>
<path d="M65.0283 56.4049C65.0515 56.4179 65.0766 56.4286 65.095 56.4357L64.952 56.5604C64.9156 56.5473 64.8757 56.5319 64.8376 56.5105C64.6343 56.3936 64.564 56.2494 64.7553 56.0838C64.4734 56.1627 64.0872 56.0944 63.7845 55.9205C63.3935 55.6956 63.2659 55.4077 63.5049 55.2005C63.7439 54.9934 64.1295 55.0118 64.5807 55.2178L65.1242 55.4653C65.275 55.5335 65.3841 55.5383 65.464 55.4688C65.6284 55.3258 65.548 55.1074 65.2142 54.9156C64.9037 54.737 64.5962 54.7055 64.3781 54.8563L64.1254 54.7109C64.4341 54.4972 64.9156 54.5215 65.368 54.7815C65.8204 55.0415 65.9539 55.3905 65.7047 55.6071L64.9884 56.2298C64.8954 56.3105 64.9478 56.3598 65.0283 56.4055V56.4049ZM65.1344 55.7531L65.2113 55.6867L64.4651 55.3608C64.1462 55.2231 63.9114 55.2106 63.7576 55.3448C63.6039 55.4789 63.7088 55.6534 63.9579 55.7965C64.387 56.0434 64.8191 56.0274 65.135 55.7531" fill="black"/>
<path d="M64.4248 53.4639L64.6662 53.6028L62.7328 55.2837L62.4914 55.1449L62.7137 54.9514C62.4962 55.0178 62.1052 54.9537 61.7911 54.7733C61.1737 54.4183 61.1624 53.9524 61.5551 53.6111C61.9479 53.2698 62.5969 53.1873 63.2102 53.5399C63.4748 53.6918 63.6614 53.9453 63.6447 54.1423L64.4242 53.4645L64.4248 53.4639ZM61.9532 54.6439C62.371 54.8843 62.8711 54.8534 63.2078 54.5608C63.5416 54.2705 63.482 53.918 63.0642 53.6782C62.6464 53.4384 62.1422 53.4657 61.8078 53.7565C61.4735 54.0474 61.5313 54.4017 61.9526 54.6445" fill="black"/>
</g>
<defs>
<clipPath id="clip0_664_11584">
<rect width="88" height="80" fill="white"/>
</clipPath>
</defs>
</svg>
