<svg width="88" height="80" viewBox="0 0 88 80" fill="none" xmlns="http://www.w3.org/2000/svg">
<path fill-rule="evenodd" clip-rule="evenodd" d="M35.9681 34.7825L35.9681 34.7825L35.9849 34.7754L35.9919 34.7724C41.326 32.5225 46.6605 30.2724 51.2727 27.6019C54.6502 25.6455 57.6409 23.4639 59.9609 20.8911C64.9701 23.8108 69.9791 26.7305 74.9881 29.6503L75.1604 21.6716L85.6934 24.7365V24.738L82.9867 26.8345C82.987 26.8352 82.9873 26.8359 82.9876 26.8366L82.9892 26.8354L82.9893 26.8354L85.696 24.7389L87.0136 26.2592L84.3069 28.3557L84.3068 28.3557L84.3059 28.3563L84.3067 28.3572C86.6999 33.9169 86.916 40.4587 84.9213 47.3639C82.4018 56.0827 76.6355 64.2802 68.6844 70.445C60.7333 76.6097 51.5483 80.0061 42.8228 80.0061C40.8692 80.0061 38.9628 79.8313 37.1569 79.4892C36.6411 79.3919 36.2288 79.1517 35.9367 78.8142L34.6337 77.3108C34.0452 76.6496 33.9312 75.6035 34.4372 74.5261C35.1082 73.0925 36.6494 72.0876 38.0567 72.0876C38.2317 72.0876 38.4036 72.1028 38.571 72.1347C40.0498 72.4144 41.6124 72.5573 43.2144 72.5573C57.9588 72.5573 73.4168 60.5728 77.6723 45.8397C78.7432 42.133 79.0361 38.5552 78.5586 35.2485C78.4409 35.8657 78.3219 36.4505 78.2159 36.945C77.9895 37.6802 77.8127 38.2997 77.6566 38.8469L77.6565 38.8472L77.6565 38.8473L77.6564 38.8474C77.2786 40.1714 77.0215 41.0725 76.4736 42.1673C72.1266 44.6851 66.9872 46.8502 61.9445 48.9746L61.9444 48.9746L61.0162 49.3658L61.0091 49.3688C55.6751 51.6187 50.3405 53.8688 45.7284 56.5401C42.3508 58.4965 39.3602 60.6773 37.0402 63.2501C28.6964 58.3869 20.3534 53.5237 12.0097 48.6597C14.3297 46.0877 17.3203 43.9053 20.6979 41.9496V41.9489C25.3072 39.2792 30.6373 37.031 35.9681 34.7825ZM77.496 31.0913C77.4954 31.0898 77.4949 31.0883 77.4943 31.0868L77.4763 31.1007C77.4777 31.1016 77.4791 31.1024 77.4806 31.1032L77.496 31.0913ZM83.7299 28.8026C85.4004 33.9127 85.3652 39.7349 83.6014 45.8412C81.0819 54.5601 75.3156 62.7575 67.3645 68.9223C59.4133 75.0871 50.2283 78.4834 41.5028 78.4834C39.5493 78.4834 37.6444 78.3086 35.8369 77.9665C35.3518 77.8743 34.9574 77.6561 34.6692 77.3496C34.9577 77.6577 35.3524 77.8756 35.8393 77.9689C37.6468 78.311 39.5516 78.4858 41.5052 78.4858C50.2307 78.4858 59.4157 75.0895 67.3668 68.9247C75.3179 62.7599 81.0842 54.5625 83.6038 45.8436C85.368 39.7359 85.4027 33.9126 83.7311 28.8016L83.7299 28.8026Z" fill="black" fill-opacity="0.1"/>
<path d="M70.3669 22.1931L71.6845 23.7134L69.1041 25.7111L67.7865 24.1908L70.3669 22.1931Z" fill="#BABABA" stroke="#002522" stroke-width="0.00672096" stroke-linejoin="round"/>
<path d="M75.8595 17.9377L77.1771 19.458L71.6846 23.7133L70.3671 22.193L75.8595 17.9377Z" fill="#F2F2F2" stroke="#002522" stroke-width="0.00672096" stroke-linejoin="round"/>
<path d="M78.5663 15.8413L79.8839 17.3616L77.1772 19.4581L75.8597 17.9378L78.5663 15.8413Z" fill="#BABABA" stroke="#002522" stroke-width="0.00672096" stroke-linejoin="round"/>
<path d="M28.807 69.9165L27.4894 68.3962C27.7815 68.7337 28.1938 68.9724 28.7096 69.0712C30.5171 69.4133 32.4219 69.5881 34.3755 69.5881C43.101 69.5881 52.286 66.1918 60.2371 60.027C68.1882 53.8622 73.9545 45.6648 76.4741 36.9459C78.4687 30.0407 78.2526 23.4989 75.8594 17.9392L77.177 19.4595C79.5702 25.0192 79.7863 31.561 77.7916 38.4662C75.2721 47.1851 69.5058 55.3825 61.5547 61.5473C53.6036 67.7121 44.4186 71.1084 35.6931 71.1084C33.7395 71.1084 31.8331 70.9336 30.0272 70.5915C29.5114 70.4942 29.0991 70.254 28.807 69.9165Z" fill="#EFEBE7" stroke="#002522" stroke-width="0.00672096" stroke-linejoin="round"/>
<path d="M78.566 15.8413L68.033 12.7764L67.7865 24.1907L70.3669 22.1915C72.0161 26.5624 72.0831 31.6204 70.5449 36.9445C66.2894 51.6776 50.8314 63.6621 36.087 63.6621C34.485 63.6621 32.9224 63.5192 31.4436 63.2395C31.2762 63.2075 31.1043 63.1923 30.9293 63.1923C29.522 63.1923 27.9807 64.1972 27.3098 65.6309C26.5536 67.2409 27.182 68.7809 28.7095 69.0713C30.517 69.4134 32.4219 69.5882 34.3754 69.5882C43.1009 69.5882 52.2859 66.1919 60.237 60.0271C68.1882 53.8623 73.9545 45.6649 76.474 36.946C78.4686 30.0408 78.2526 23.499 75.8593 17.9393L78.566 15.8428V15.8413Z" fill="white" stroke="#002522" stroke-width="0.00672096" stroke-linejoin="round"/>
<path d="M79.9631 26.8911L79.9653 27.7627C77.6427 30.3342 74.6485 32.5147 71.2671 34.4702C66.6475 37.1413 61.3049 39.3902 55.9623 41.64C50.6196 43.8898 45.2763 46.1395 40.6567 48.8106C37.2752 50.766 34.2811 52.9458 31.9584 55.5173L31.9561 54.6457C34.2788 52.0742 37.2722 49.8944 40.6544 47.939C45.274 45.2687 50.6174 43.0182 55.96 40.7684C61.3034 38.5186 66.6452 36.2696 71.2648 33.5985C74.6463 31.6439 77.6404 29.4626 79.9631 26.8911Z" fill="#38A543" stroke="#082422" stroke-width="0.00672096" stroke-miterlimit="10"/>
<path d="M31.9539 54.6446L31.9561 55.5173C23.6325 50.6506 15.3096 45.7839 6.9859 40.9164L6.98363 40.0437C15.3073 44.9104 23.6302 49.7771 31.9539 54.6446Z" fill="#38A543" stroke="#082422" stroke-width="0.00672096" stroke-miterlimit="10"/>
<path d="M15.6718 33.4423C20.286 30.7698 25.6224 28.5197 30.9588 26.2688C36.2953 24.0179 41.6325 21.767 46.2466 19.0953C49.6242 17.1389 52.6148 14.9573 54.9348 12.3845C63.2786 17.2477 71.6216 22.111 79.9653 26.975C77.6453 29.5477 74.6547 31.7294 71.2771 33.6858C66.663 36.3582 61.3265 38.6084 55.9901 40.8592C50.6537 43.1101 45.3165 45.361 40.7023 48.0335C37.3248 49.9899 34.3341 52.1708 32.0141 54.7435C23.6704 49.8803 15.3274 45.0171 6.98363 40.1531C9.30361 37.5811 12.2943 35.3987 15.6718 33.443V33.4423Z" fill="#60D06F" stroke="#082422" stroke-width="0.00672096" stroke-miterlimit="10"/>
<path d="M20.595 34.6691C24.606 32.3552 29.1554 30.3539 33.7048 28.3525C38.2535 26.3511 42.8022 24.3505 46.8131 22.0367C48.2831 21.1884 49.682 20.2978 50.9816 19.3505C51.1914 19.2272 51.4572 19.2325 51.6337 19.3346C53.3135 20.31 55.7862 20.3697 57.3759 19.4527C57.6243 19.3096 57.8508 19.1424 58.05 18.951C58.0833 18.9185 58.1219 18.8905 58.1643 18.8662C58.3741 18.7452 58.674 18.727 58.899 18.8579C62.1942 20.7708 65.4887 22.6844 68.7839 24.5972C69.0543 24.7538 69.0823 25.0474 68.8809 25.2404C67.4093 26.6553 67.5646 28.5848 69.5178 29.7183C69.7321 29.8424 69.7753 30.061 69.5814 30.2025C68.2932 31.1393 66.9095 32.0193 65.4539 32.8592C61.4429 35.173 56.8942 37.1737 52.3456 39.175C47.7962 41.1764 43.2475 43.1778 39.2365 45.4909C37.765 46.3398 36.3654 47.2312 35.065 48.1793C34.8265 48.32 34.5228 48.3117 34.3228 48.1959C32.6453 47.2221 30.1778 47.1616 28.5912 48.0771C28.3413 48.2217 28.1125 48.3896 27.9133 48.5826C27.8831 48.6113 27.849 48.6371 27.8111 48.659C27.6218 48.768 27.3506 48.7831 27.1469 48.6658C23.8221 46.7356 20.4981 44.8053 17.1733 42.8751C16.9294 42.7336 16.9014 42.4688 17.0824 42.294C18.5502 40.8768 18.3927 38.9465 16.4394 37.8123C16.2509 37.7026 16.2153 37.5111 16.3849 37.387C17.6966 36.4276 19.1091 35.5272 20.5958 34.6691H20.595Z" fill="#80E58A" stroke="#082422" stroke-width="0.00672096" stroke-miterlimit="10"/>
<path d="M33.653 32.1896C34.7176 31.5796 35.9049 30.987 37.1996 30.4193C41.6005 28.4888 46.0616 27.0163 49.4657 26.0525C51.1857 25.5808 52.6816 25.2603 53.9489 25.1734C55.2155 25.0865 56.2625 25.2392 57.0604 25.7003C57.856 26.1583 58.33 26.8817 58.4489 27.7676C58.567 28.6528 58.3208 29.6937 57.6502 30.7708C56.7289 32.3045 54.8824 33.8632 52.3288 35.3251C51.2642 35.9351 50.0769 36.5277 48.7821 37.0954C44.3813 39.0259 39.9209 40.4984 36.516 41.4622C34.7961 41.9338 33.3001 42.2543 32.0328 42.3413C30.7663 42.4282 29.72 42.2755 28.9206 41.8152C28.1258 41.3571 27.651 40.633 27.5321 39.747C27.414 38.8619 27.6609 37.821 28.3307 36.7446C29.2521 35.2102 31.0986 33.6523 33.6522 32.1896H33.653Z" fill="#60D06F" stroke="#082422" stroke-width="0.00672096" stroke-miterlimit="10"/>
<path d="M51.0791 1.19873L52.3967 2.71902C52.9703 3.38035 53.0768 4.41719 52.5762 5.48444C51.9037 6.91807 50.3625 7.92299 48.9567 7.92299C48.7832 7.92299 48.6113 7.90778 48.4439 7.87586C46.9636 7.5946 45.401 7.45322 43.7989 7.45322C29.0546 7.45322 13.5981 19.4392 9.34263 34.1708C7.80444 39.4949 7.87139 44.5529 9.52064 48.9238L8.20306 47.4035C6.55533 43.0326 6.48686 37.9746 8.02505 32.6506C12.2806 17.9189 27.737 5.93292 42.4814 5.93292C44.0835 5.93292 45.646 6.07583 47.1264 6.35556C47.2937 6.38749 47.4657 6.40269 47.6391 6.40269C49.0449 6.40269 50.5862 5.39778 51.2586 3.96414C51.7592 2.8969 51.6527 1.86006 51.0791 1.19873Z" fill="#EFEBE7" stroke="#002522" stroke-width="0.00672096" stroke-linejoin="round"/>
<path d="M8.20329 47.4033L9.52086 48.9236L4.02842 53.1774L2.71085 51.6571L8.20329 47.4033Z" fill="#F2F2F2" stroke="#002522" stroke-width="0.00672096" stroke-linejoin="round"/>
<path d="M10.7835 45.4043L12.1011 46.9246L11.8546 58.3405L10.5371 56.8202L10.7835 45.4043Z" fill="#BABABA" stroke="#002522" stroke-width="0.00672096" stroke-linejoin="round"/>
<path d="M10.5371 56.8203L11.8547 58.3406L1.32012 55.2742L0.00254059 53.7539L10.5371 56.8203Z" fill="#BABABA" stroke="#002522" stroke-width="0.00672096" stroke-linejoin="round"/>
<path d="M49.8605 0.5252C48.053 0.183135 46.1467 0.00830078 44.1931 0.00830078C35.4676 0.00830078 26.2826 3.40312 18.3315 9.5679C10.3804 15.7342 4.61406 23.9316 2.09606 32.652C0.101435 39.5572 0.317481 46.099 2.71073 51.6572L0.00254059 53.7537L10.5371 56.8186L10.7836 45.4043L8.20317 47.4034C6.55543 43.0326 6.48697 37.9746 8.02516 32.6505C12.2807 17.9189 27.7371 5.93288 42.4815 5.93288C44.0836 5.93288 45.6461 6.07579 47.1265 6.35553C47.2938 6.38745 47.4658 6.40265 47.6392 6.40265C49.045 6.40265 50.5863 5.39774 51.2587 3.9641C52.0134 2.35411 51.3881 0.814056 49.859 0.52368L49.8605 0.5252Z" fill="white" stroke="#002522" stroke-width="0.00672096" stroke-linejoin="round"/>
</svg>
