<svg width="82" height="80" viewBox="0 0 82 80" fill="none" xmlns="http://www.w3.org/2000/svg">
<g clip-path="url(#clip0_664_11604)">
<path d="M80.9785 78.2072L76.3022 77.0738C78.1871 75.2517 79.3958 72.5975 79.4102 69.6419C79.4389 64.0896 75.3094 59.5846 70.1871 59.5559C69.2519 59.5559 68.3166 59.6993 67.4245 60.0006V59.5559C67.4533 56.3851 65.0792 53.817 62.1584 53.8026C60.6044 53.8026 59.1224 54.5343 58.1152 55.8256C58.3742 54.2617 57.4102 52.7696 55.9713 52.497C54.7195 52.2531 53.4965 53.0135 53.0361 54.2904C52.1296 53.9748 51.1943 53.817 50.2591 53.817C50.1727 53.817 50.1008 53.8313 50.0145 53.8313C46.9641 49.8285 46.403 42.411 46.403 38.0494C46.403 37.2603 45.8274 36.6003 45.0936 36.6003H36.9066C36.1727 36.6147 35.5972 37.2747 35.5972 38.0638C35.5972 42.4253 35.0361 49.8428 32.0001 53.8457C30.9641 53.817 29.9281 53.9461 28.9353 54.2904C28.403 52.8127 26.8634 52.081 25.5109 52.6549C24.331 53.157 23.6404 54.4769 23.8562 55.8399C21.9569 53.4296 18.6188 53.157 16.403 55.2087C15.1224 56.3995 14.4461 58.1785 14.5612 60.0006C9.66915 58.3937 4.4893 61.378 3.00728 66.6864C1.92815 70.5458 3.108 74.563 5.69793 77.0881L1.02167 78.2216C0.66196 78.3077 0.359802 78.5372 0.359802 78.9389C0.359802 79.3407 0.66196 79.6563 1.02167 79.6563H80.9785C81.3382 79.6563 81.6404 79.3407 81.6404 78.9389C81.6404 78.5372 81.3382 78.3077 80.9785 78.2216V78.2072Z" fill="white"/>
<path d="M45.0931 36.6001C45.8269 36.6001 46.4168 37.2601 46.4024 38.0492C46.4024 42.4108 46.9636 49.8426 50.0139 53.8311C50.1003 53.8311 50.1722 53.8168 50.2585 53.8168C51.2082 53.8168 52.1434 53.9746 53.0355 54.2902C53.4384 53.1712 54.4312 52.4538 55.5103 52.4538C55.6686 52.4538 55.8125 52.4681 55.9708 52.4968C57.4096 52.7694 58.3737 54.2615 58.1147 55.8254C59.1219 54.5485 60.5895 53.8024 62.1434 53.8024C65.0643 53.8024 67.424 56.3849 67.424 59.5413V59.9861C68.2873 59.6848 69.2082 59.5413 70.1291 59.5413C70.1434 59.5413 70.1578 59.5413 70.1722 59.5413C75.2945 59.57 79.4096 64.0894 79.3952 69.6274C79.3952 72.5829 78.1866 75.2371 76.2873 77.0592L80.9636 78.1927C81.3233 78.2788 81.6255 78.5083 81.6255 78.91C81.6255 79.3118 81.3233 79.6274 80.9636 79.6274H1.02114C0.661427 79.6274 0.359269 79.3118 0.359269 78.91C0.359269 78.5083 0.661427 78.2788 1.02114 78.1927L5.6974 77.0592C3.09308 74.5341 1.91323 70.5169 3.00675 66.6575C4.21538 62.3247 7.89884 59.527 11.8701 59.527C12.7621 59.527 13.6686 59.6704 14.5607 59.9574C14.4312 58.1353 15.1219 56.3562 16.4024 55.1654C17.3952 54.2472 18.6183 53.7881 19.8413 53.7881C21.3377 53.7881 22.8197 54.4624 23.8701 55.7967C23.6542 54.4481 24.3449 53.1138 25.5247 52.6116C25.8413 52.4825 26.1578 52.4107 26.4888 52.4107C27.5535 52.4107 28.5463 53.1138 28.9636 54.2472C29.8557 53.9459 30.7909 53.8024 31.7262 53.8024C31.8269 53.8024 31.9276 53.8024 32.0283 53.8024C35.0787 49.7996 35.6255 42.3964 35.6255 38.0205C35.6255 37.2314 36.201 36.5714 36.9348 36.5571H45.1219M45.0931 36.2415H36.906C35.9708 36.2701 35.237 37.0879 35.237 38.0636C35.237 41.306 34.906 49.2544 31.8125 53.4724C31.7693 53.4724 31.7262 53.4724 31.683 53.4724C30.7909 53.4724 29.9276 53.5872 29.1219 53.8311C28.6039 52.7694 27.5679 52.0808 26.4456 52.0808C26.0715 52.0808 25.6974 52.1525 25.3521 52.3103C24.3161 52.7407 23.6111 53.7594 23.4672 54.8928C22.46 53.9746 21.165 53.4581 19.8125 53.4581C18.46 53.4581 17.1506 53.9746 16.1291 54.9359C14.8916 56.0836 14.1866 57.7623 14.1578 59.4983C13.3952 59.2974 12.6183 59.1826 11.8413 59.1826C7.5679 59.1826 3.87006 62.1525 2.63265 66.5714C1.61107 70.2013 2.53193 74.1755 4.97797 76.8727L0.92042 77.8483C0.359269 77.9775 -0.0148315 78.3935 -0.0148315 78.91C-0.0148315 79.4983 0.4456 79.9861 1.00675 79.9861H80.9636C81.5247 79.9861 81.9852 79.4983 81.9852 78.91C81.9852 78.3935 81.6111 77.9775 81.0499 77.8483L76.9924 76.8727C78.7477 74.9502 79.7406 72.339 79.7549 69.6417C79.7837 63.9029 75.4816 59.2113 70.1866 59.197C69.3521 59.197 68.5607 59.2974 67.7981 59.5126C67.7693 56.1697 65.2514 53.4581 62.1578 53.4581C60.7909 53.4581 59.5103 53.9746 58.4888 54.9072C58.3161 53.5585 57.3521 52.4107 56.0283 52.1525C55.8557 52.1238 55.6686 52.0951 55.496 52.0951C54.3737 52.0951 53.3377 52.7838 52.8197 53.8455C51.9852 53.5872 51.1219 53.4581 50.2442 53.4581C50.2154 53.4581 50.1866 53.4581 50.1722 53.4581C47.0931 49.24 46.7478 41.2917 46.7478 38.0492C46.7478 37.0592 46.0139 36.2558 45.0787 36.2415H45.0931Z" fill="#001F1D"/>
<path d="M67.5822 59.7566L63.7117 62.913" stroke="#001F1D" stroke-width="0.115265" stroke-miterlimit="10" stroke-linecap="round"/>
<path d="M50.5323 76.8583C49.6402 76.8583 48.7625 76.6287 47.9712 76.1696C46.633 75.3948 45.6402 74.0462 45.2517 72.468C44.9208 71.1481 45.0359 69.7564 45.5395 68.5225C43.9568 67.8195 43.1366 65.8827 43.7122 64.1179C43.9136 63.4723 44.2877 62.9128 44.7913 62.4967C44.8632 62.4393 44.9783 62.4393 45.0503 62.5254C45.1078 62.5971 45.1078 62.7119 45.0215 62.7837C44.5755 63.1567 44.2445 63.6588 44.0575 64.2471C43.5539 65.8396 44.2733 67.5756 45.6978 68.2069C46.6186 66.4565 48.2301 65.2801 49.9999 65.0792C50.0863 65.0505 50.187 65.1366 50.2014 65.237C50.2014 65.3375 50.1438 65.4235 50.0431 65.4379C48.3884 65.6244 46.8776 66.7291 46.0143 68.3791L45.9568 68.4938C45.41 69.699 45.2949 71.0763 45.6114 72.3676C45.9712 73.8597 46.9064 75.1223 48.1582 75.8396C49.2949 76.4996 50.6186 76.6574 51.8704 76.2987L52.0431 76.2413C52.1438 76.1983 52.2445 76.2413 52.2733 76.3561C52.3021 76.4422 52.2589 76.557 52.1582 76.5857L51.9855 76.6431C51.5107 76.7865 51.0215 76.8439 50.5467 76.8439L50.5323 76.8583ZM67.1798 74.491C67.1798 74.491 67.1078 74.491 67.0791 74.4623C66.9927 74.4049 66.9784 74.2901 67.0359 74.2184C67.2373 73.9314 67.3525 73.5871 67.3812 73.2141C67.4388 72.2528 66.8201 71.392 65.9568 71.2342C65.6258 72.4537 64.7913 73.458 63.6978 73.9314C63.6114 73.9745 63.4963 73.9314 63.4676 73.8454C63.4388 73.7593 63.4676 73.6445 63.5539 73.6014C64.5467 73.171 65.3237 72.2528 65.6114 71.1337C65.6114 71.1337 65.6114 71.1337 65.6114 71.1194V71.019C65.7697 70.2299 65.6402 69.4121 65.2805 68.7091C64.8632 67.92 64.1726 67.3604 63.3524 67.1452C62.5899 66.9443 61.7841 67.0591 61.1078 67.4895C61.0215 67.5469 60.9064 67.5182 60.8632 67.4322C60.8057 67.3461 60.8345 67.2313 60.9208 67.1883C61.6834 66.7148 62.5899 66.5713 63.4532 66.8009C64.3596 67.0448 65.1222 67.6617 65.5971 68.5369C65.9712 69.2542 66.1294 70.0864 66.0143 70.8898C67.0503 71.0763 67.8129 72.095 67.7266 73.2428C67.6978 73.6732 67.5539 74.0749 67.3093 74.4192C67.2805 74.4766 67.223 74.491 67.1654 74.491H67.1798ZM18.1294 63.2715C18.1294 63.2715 18.0143 63.2428 17.9855 63.1854C17.1942 62.0089 15.9424 60.4881 14.4028 59.9286C14.3165 59.8999 14.2589 59.7851 14.3021 59.699C14.3309 59.5986 14.4316 59.5555 14.5323 59.5986C16.1582 60.2012 17.4676 61.7794 18.2877 62.9989C18.3453 63.0849 18.3165 63.1854 18.2445 63.2428C18.2158 63.2571 18.1726 63.2715 18.1438 63.2715H18.1294ZM27.2086 55.5383C27.2086 55.5383 27.1366 55.5383 27.0935 55.4953C27.0215 55.4379 26.9927 55.3231 27.0647 55.2514C27.4532 54.7349 28.0575 54.2901 28.8345 53.9314C28.9208 53.8884 29.0359 53.9314 29.0791 54.0175C29.1222 54.1036 29.0791 54.2184 28.9927 54.2614C28.2733 54.5914 27.7266 54.9931 27.3668 55.4666C27.3381 55.5096 27.2805 55.5383 27.223 55.5383H27.2086Z" fill="#001F1D"/>
<path d="M31.4815 76.8582C31.0066 76.8582 30.5318 76.7865 30.057 76.6574L29.87 76.5856C29.7836 76.5569 29.7261 76.4565 29.7548 76.3561C29.7836 76.2556 29.8987 76.2126 29.9851 76.2413L30.1577 76.2987C31.3951 76.6574 32.7045 76.4995 33.8556 75.8396C35.1074 75.1222 36.0426 73.8597 36.4023 72.3675C36.7189 71.0763 36.6038 69.699 36.057 68.4938L35.9995 68.3647C35.1361 66.7148 33.6253 65.61 31.9707 65.4235C31.87 65.4235 31.798 65.3231 31.8124 65.2226C31.8124 65.1222 31.8987 65.0361 32.0138 65.0648C33.7836 65.2657 35.3951 66.4278 36.316 68.1925C37.7261 67.5612 38.4599 65.8252 37.9563 64.2327C37.7692 63.6445 37.4383 63.1423 36.9923 62.7693C36.9203 62.7119 36.9059 62.5971 36.9635 62.511C37.021 62.4393 37.1361 62.4249 37.2225 62.4823C37.7261 62.8984 38.1002 63.4723 38.3016 64.1036C38.8628 65.8683 38.0426 67.8051 36.4743 68.5082C36.9779 69.742 37.093 71.1337 36.762 72.4536C36.3736 74.0318 35.3807 75.3805 34.0426 76.1552C33.2369 76.6143 32.3592 76.8439 31.4815 76.8439V76.8582ZM14.8484 74.4909C14.8484 74.4909 14.7333 74.4622 14.7045 74.4192C14.4599 74.0749 14.316 73.6731 14.2872 73.2427C14.2153 72.095 14.9635 71.0763 15.9994 70.8898C15.8987 70.072 16.0426 69.2542 16.4167 68.5368C16.8915 67.6617 17.6541 67.0447 18.5606 66.8008C19.4239 66.5713 20.3304 66.7148 21.093 67.1882C21.1793 67.2456 21.2081 67.346 21.1505 67.4321C21.093 67.5182 20.9923 67.5469 20.9059 67.4895C20.2153 67.0591 19.4239 66.9443 18.6613 67.1452C17.8412 67.3604 17.1649 67.9199 16.7333 68.709C16.3592 69.412 16.2297 70.2298 16.3735 71.0189V71.1193C16.3735 71.1193 16.4023 71.1193 16.4023 71.1337C16.7045 72.2528 17.4671 73.1853 18.4599 73.6014C18.5462 73.6444 18.5894 73.7449 18.5462 73.8453C18.503 73.9314 18.4023 73.9744 18.316 73.9314C17.2225 73.4579 16.3735 72.4536 16.057 71.2341C15.1937 71.3919 14.575 72.2384 14.6325 73.214C14.6613 73.5727 14.7764 73.917 14.9779 74.2183C15.0354 74.3044 15.021 74.4049 14.9347 74.4622C14.9059 74.4766 14.8628 74.4909 14.834 74.4909H14.8484ZM63.8987 63.2714C63.8987 63.2714 63.8268 63.2714 63.798 63.2427C63.7117 63.1853 63.6973 63.0706 63.7548 62.9988C64.575 61.7793 65.8843 60.2011 67.5102 59.5985C67.5966 59.5698 67.7117 59.5985 67.7405 59.699C67.7692 59.7851 67.7405 59.8998 67.6397 59.9285C66.1002 60.4881 64.8484 62.0089 64.057 63.1853C64.0282 63.2427 63.9707 63.2714 63.9131 63.2714H63.8987ZM54.5606 55.5383C54.5606 55.5383 54.4455 55.5096 54.4167 55.4522C54.1146 54.9787 53.6541 54.577 53.0354 54.247C52.9491 54.204 52.9203 54.0892 52.9635 54.0031C53.0066 53.917 53.1217 53.8884 53.2081 53.9314C53.87 54.2901 54.3879 54.7348 54.7189 55.2513C54.7764 55.3374 54.7477 55.4379 54.6613 55.4952C54.6325 55.5096 54.6038 55.5239 54.5606 55.5239V55.5383Z" fill="#001F1D"/>
<path d="M5.0499 76.6428C5.75493 77.4032 7.13623 78.4219 7.13623 78.4219L5.0499 76.6428Z" fill="white"/>
<path d="M7.12146 78.594C7.12146 78.594 7.04951 78.594 7.02074 78.5653C6.96318 78.5223 5.62505 77.5323 4.92002 76.7719C4.84808 76.7002 4.86246 76.5854 4.92002 76.5137C4.97757 76.4419 5.10707 76.4563 5.17901 76.5137C5.86966 77.2597 7.22218 78.2497 7.23656 78.264C7.3229 78.3214 7.33728 78.4362 7.27973 78.5079C7.25095 78.551 7.1934 78.5797 7.13584 78.5797L7.12146 78.594Z" fill="#001F1D"/>
<path d="M76.6328 77.0164C76.1436 77.5472 75.1795 78.2646 75.1795 78.2646L76.6328 77.0164Z" fill="white"/>
<path d="M75.1794 78.4366C75.1794 78.4366 75.0643 78.4079 75.0355 78.3649C74.978 78.2788 74.9923 78.1784 75.0787 78.121C75.0787 78.121 76.0283 77.418 76.5031 76.9015C76.5751 76.8297 76.6902 76.8297 76.7621 76.9015C76.8341 76.9732 76.8341 77.088 76.7621 77.1597C76.2585 77.7049 75.3233 78.3936 75.2801 78.4223C75.2513 78.451 75.2082 78.451 75.1794 78.451V78.4366Z" fill="#001F1D"/>
<path d="M34.7193 53.9456C33.6977 53.7017 31.9423 53.6587 31.9423 53.6587L34.7193 53.9456Z" fill="white"/>
<path d="M34.7188 54.1322C34.7188 54.1322 34.6901 54.1322 34.6757 54.1322C33.6829 53.9026 31.9563 53.8453 31.9275 53.8453C31.8268 53.8453 31.7548 53.7592 31.7548 53.6587C31.7548 53.5583 31.8412 53.4866 31.9275 53.4866C31.9994 53.4866 33.7117 53.5296 34.7476 53.7735C34.8483 53.8022 34.9059 53.8883 34.8771 53.9887C34.8627 54.0748 34.7908 54.1322 34.7045 54.1322H34.7188Z" fill="#001F1D"/>
<path d="M43.7834 43.9316C44.0136 47.1598 45.3373 52.3534 45.3373 52.3534L43.7834 43.9316Z" fill="white"/>
<path d="M45.3371 52.5257C45.2507 52.5257 45.1788 52.4683 45.1644 52.3965C45.1644 52.3391 43.8407 47.1598 43.5961 43.946C43.5961 43.8456 43.668 43.7595 43.7687 43.7595C43.8838 43.7595 43.9558 43.8313 43.9558 43.9317C44.186 47.1024 45.4953 52.2674 45.5097 52.3248C45.5385 52.4252 45.481 52.5113 45.3802 52.54C45.3659 52.54 45.3515 52.54 45.3371 52.54V52.5257Z" fill="#001F1D"/>
<path d="M38.8474 41.5071C38.8474 43.8744 38.1712 47.7338 38.1712 47.7338L38.8474 41.5071Z" fill="white"/>
<path d="M38.1712 47.9062C38.1712 47.9062 38.1568 47.9062 38.1424 47.9062C38.0417 47.8919 37.9842 47.7914 37.9986 47.7054C37.9986 47.6623 38.6748 43.8316 38.6748 41.5074C38.6748 41.4069 38.7611 41.3352 38.8475 41.3352C38.9482 41.3352 39.0201 41.4213 39.0201 41.5074C39.0201 43.8603 38.3583 47.7197 38.3439 47.7628C38.3295 47.8488 38.2576 47.9062 38.1712 47.9062Z" fill="#001F1D"/>
<path d="M31.5202 50.3156C31.5202 50.3156 31.4627 50.3156 31.4339 50.2869C31.3476 50.2439 31.3188 50.1291 31.362 50.043C31.362 50.0287 32.3835 48.2209 32.6569 46.1406C32.6569 46.0402 32.7433 45.9684 32.8584 45.9828C32.9591 45.9828 33.031 46.0832 33.0166 46.1836C32.7289 48.3357 31.7217 50.1435 31.6785 50.2152C31.6497 50.2726 31.5778 50.3013 31.5202 50.3013V50.3156Z" fill="white"/>
<path d="M49.4377 46.1408C49.4377 46.1408 49.2938 46.0978 49.265 46.0261C49.2218 45.9256 48.2434 43.5727 48.2003 40.8611C48.2003 40.7606 48.2722 40.6746 48.3729 40.6746C48.4736 40.6746 48.5456 40.7463 48.5456 40.8467C48.5887 43.4866 49.5672 45.8539 49.5816 45.8826C49.6247 45.9687 49.5816 46.0835 49.4808 46.1121C49.4521 46.1121 49.4377 46.1121 49.4089 46.1121L49.4377 46.1408Z" fill="white"/>
<path d="M49.9762 1.30524L53.6499 3.44154C55.0791 4.27384 56.3228 5.49359 57.288 7.10534C61.5469 14.2492 58.7177 26.3647 50.9854 34.1621C44.9968 40.1993 37.8164 41.8851 32.9054 39.0311L29.2317 36.8948C34.1462 39.7579 41.3267 38.0721 47.3117 32.0258C55.0532 24.2248 57.8732 12.1129 53.6143 4.96905C52.6491 3.35729 51.4146 2.134 49.9762 1.30524Z" fill="#0CBAB5" stroke="#082422" stroke-width="0.268951"/>
<path d="M31.8885 6.17801C39.6299 -1.62287 49.3512 -2.16191 53.6099 4.9819C57.8687 12.1257 55.0397 24.2411 47.3073 32.0384C39.575 39.8357 29.8446 40.3783 25.5858 33.2345C21.3271 26.0907 24.147 13.9789 31.8885 6.17801Z" fill="#2BF2F1" stroke="#082422" stroke-width="0.268951"/>
<path d="M39.9481 7.55878L44.1419 7.40355L43.4863 10.0922C45.3417 10.6854 46.1198 12.2115 45.6309 14.8581L41.2687 15.0216C41.5654 13.7294 41.1848 13.3402 40.4403 13.3666C40.0562 13.3787 39.7561 13.5182 39.5504 13.7238C39.3926 13.8765 39.2978 14.0733 39.2444 14.2883C39.0512 15.0832 39.6651 15.279 40.81 15.6341L41.41 15.8238C44.2683 16.7016 45.118 17.9712 44.518 20.4211C44.2241 21.6323 43.6547 22.6648 42.8516 23.4796C42.0486 24.2943 41.028 24.8736 39.7897 25.2176L39.0621 28.2199L34.8446 28.3729L35.576 25.3805C33.3223 24.8506 32.5579 23.125 33.1156 20.303L37.7333 20.1203C37.4682 21.4345 37.7103 22.0261 38.6567 21.9897C39.0845 21.9721 39.4459 21.8431 39.7095 21.5807C39.8733 21.4143 39.994 21.196 40.0617 20.9297C40.2241 20.261 39.7842 20.1005 39.0914 19.8783L37.761 19.4582C34.9005 18.6041 34.1909 17.1657 34.7969 14.7021C35.0683 13.5797 35.6035 12.6061 36.3685 11.8404C37.1335 11.0747 38.1045 10.5147 39.2991 10.1763L39.9321 7.57643C39.9321 7.57643 39.9442 7.54886 39.968 7.55107L39.9481 7.55878Z" fill="white" stroke="#082422" stroke-width="0.268951"/>
<path d="M20.3021 42.3586L19.7319 42.9985C19.341 43.4376 18.83 43.7827 18.2013 44.0025C15.4177 44.9769 11.4012 43.1447 9.22977 39.9116C7.54855 37.4072 7.4653 34.7969 8.80642 33.2921L9.37657 32.6522C8.03742 34.1572 8.11869 36.7673 9.79992 39.2717C11.9712 42.5068 15.9877 44.3389 18.7714 43.3626C19.4002 43.1428 19.9111 42.7977 20.3021 42.3586Z" fill="#0CBAB5" stroke="#082422" stroke-width="0.268951"/>
<path d="M19.8789 35.7391C22.0502 38.9742 21.5553 42.3881 18.7717 43.3625C15.9881 44.3369 11.9716 42.5048 9.8002 39.2717C7.62883 36.0386 8.12386 32.6227 10.9075 31.6483C13.6911 30.6739 17.7076 32.506 19.8788 35.7411L19.8789 35.7391Z" fill="#2BF2F1" stroke="#082422" stroke-width="0.268951"/>
<path d="M16.5608 36.0867C16.6145 36.1659 16.666 36.2488 16.7131 36.3374L15.0895 36.5226C15.0585 36.4589 15.0249 36.403 14.9928 36.3532C14.8105 36.0805 14.5998 36.0058 14.3678 36.0326C14.1178 36.062 14.0623 36.1985 14.138 36.3565C14.1484 36.3771 14.1589 36.3957 14.1714 36.4144C14.3073 36.6183 14.5859 36.6583 15.0685 36.729L15.3452 36.7689C16.4776 36.9283 17.1082 37.2275 17.5016 37.8145C17.5624 37.9041 17.6168 38.0011 17.6667 38.1057C18.0335 38.867 17.8264 39.4501 17.0397 39.7435L17.4995 40.6977L15.9279 40.8768L15.4681 39.9226C14.592 39.8372 13.9317 39.4289 13.4561 38.7191C13.3917 38.6233 13.3315 38.5239 13.2757 38.4189L14.9953 38.2228C15.0301 38.2887 15.0655 38.3467 15.1012 38.4008C15.2943 38.6901 15.5117 38.8088 15.8096 38.775C16.0655 38.746 16.1929 38.6305 16.0846 38.4028C16.0742 38.3823 16.0655 38.3658 16.0529 38.3471C15.942 38.1826 15.7461 38.1505 15.4541 38.1036L14.842 38.0136C13.7268 37.8615 13.1088 37.5275 12.7172 36.9426C12.6511 36.8427 12.5914 36.7374 12.5362 36.6245C12.1952 35.9165 12.3866 35.3581 13.1387 35.078L12.7358 34.2408L14.3074 34.0617L14.7207 34.9195C15.4836 35.0342 16.1087 35.4083 16.5628 36.0869L16.5608 36.0867Z" fill="white" stroke="#082422" stroke-width="0.268951"/>
<path d="M54.9887 53.2982C55.027 53.2347 55.1093 53.2139 55.1729 53.2518C56.0749 53.7943 57.4277 53.5977 58.714 52.523C59.6271 51.76 60.3168 50.7102 60.6912 49.6299C61.0663 48.548 61.1205 47.4506 60.7851 46.5881C60.5856 46.0756 60.2718 45.705 59.8876 45.4739C59.8244 45.4356 59.8042 45.3536 59.8422 45.2902C59.8805 45.2267 59.9629 45.2058 60.0265 45.2438L60.6498 45.6187C61.0899 45.8834 61.4405 46.3028 61.6592 46.865C62.0248 47.8046 61.9572 48.9708 61.5687 50.0918C61.1794 51.2146 60.4629 52.3071 59.5096 53.1037C58.1755 54.2187 56.6959 54.4813 55.6573 53.8567L55.0349 53.4822C54.9713 53.444 54.9504 53.3618 54.9887 53.2982Z" fill="#0CBAB5" stroke="#082422" stroke-width="0.268951" stroke-miterlimit="10" stroke-linejoin="round"/>
<path d="M54.1148 49.0094C54.5041 47.8865 55.2204 46.7941 56.1739 45.9974C57.1266 45.2014 58.1488 44.8415 59.0355 44.9253C59.929 45.0099 60.6668 45.5445 61.0354 46.4917C61.401 47.4315 61.3343 48.5977 60.9457 49.7188C60.5564 50.8417 59.8399 51.9341 58.8866 52.7308C57.9338 53.5267 56.9118 53.8866 56.0251 53.8029C55.1315 53.7184 54.3934 53.1845 54.0248 52.2374C53.6591 51.2976 53.7262 50.1307 54.1148 49.0094Z" fill="#2BF2F1" stroke="#082422" stroke-width="0.268951" stroke-miterlimit="10" stroke-linejoin="round"/>
<path d="M56.1473 47.7806C56.145 47.7392 56.1627 47.6982 56.1957 47.6705L57.1527 46.87C57.1935 46.836 57.2491 46.8302 57.2948 46.8509L57.3369 46.8808C57.3489 46.8934 57.3581 46.9088 57.3645 46.925L57.5099 47.2988C57.7441 47.1897 57.9665 47.139 58.1702 47.1728C58.4207 47.2146 58.6145 47.3748 58.7477 47.6276C58.7772 47.6835 58.7637 47.7528 58.7153 47.7935L57.9463 48.4347C58.2342 48.3036 58.4742 48.23 58.6729 48.2352C58.807 48.2386 58.9257 48.2783 59.0255 48.36C59.1229 48.4398 59.1923 48.5516 59.2441 48.6845C59.4457 49.2026 59.2229 49.812 58.716 50.399L58.9077 50.8914C58.9286 50.9451 58.9131 51.0065 58.8689 51.0435L57.9122 51.8431C57.879 51.8708 57.8341 51.8809 57.7922 51.8701C57.7502 51.8594 57.7158 51.8293 57.7001 51.7889L57.533 51.3605C57.2632 51.4978 57.0154 51.5568 56.7948 51.5206C56.5285 51.4768 56.333 51.3012 56.2035 51.041C56.1758 50.9854 56.1902 50.9179 56.2379 50.878L57.1063 50.1523C56.8277 50.2767 56.5948 50.3363 56.4001 50.3188C56.2663 50.3067 56.1507 50.2592 56.0558 50.174C55.9631 50.0909 55.8966 49.9788 55.8465 49.8498L55.8154 49.7554C55.6869 49.3007 55.8764 48.7758 56.3223 48.2503L56.1563 47.8213L56.1473 47.7806ZM57.4263 49.9932C57.4498 50.0052 57.4711 50.0217 57.4842 50.0454C57.5263 50.1213 57.5621 50.1317 57.5865 50.1324C57.6245 50.1334 57.6952 50.1119 57.8038 50.0212C57.9004 49.9405 57.9662 49.8633 58.0016 49.7979C58.0255 49.7535 58.0285 49.7215 58.0275 49.6983C57.9759 49.7137 57.9 49.7496 57.7812 49.8093L57.7803 49.809L57.4263 49.9932ZM57.0996 48.7787C57.0825 48.8146 57.0807 48.8387 57.0812 48.852C57.0871 48.8508 57.0946 48.8494 57.1039 48.8467C57.1442 48.835 57.1951 48.8132 57.2596 48.7817L57.5001 48.6581L57.5013 48.6575L57.5706 48.6214C57.5568 48.6119 57.5441 48.6007 57.5345 48.5865C57.4887 48.5186 57.4533 48.5064 57.431 48.5053C57.4015 48.5038 57.3447 48.5188 57.2555 48.5932C57.1733 48.662 57.1242 48.7271 57.0996 48.7787Z" fill="white" stroke="#082422" stroke-width="0.268951" stroke-miterlimit="10" stroke-linejoin="round"/>
<path d="M15.4875 14.8358C15.4822 14.8321 15.4656 14.8208 15.4386 14.8046C15.4281 14.7988 15.4165 14.7916 15.4031 14.7838C15.3748 14.767 15.3399 14.7459 15.2989 14.7254C15.2276 14.6881 15.149 14.6514 15.0652 14.6159C15.0492 14.6092 15.0329 14.6023 15.016 14.5957C14.9453 14.567 14.8722 14.5399 14.7989 14.5156C14.695 14.4806 14.5826 14.4482 14.4653 14.4196C14.3463 14.3904 14.2209 14.365 14.0931 14.3442C14.0093 14.3306 13.9182 14.319 13.8079 14.3081C13.7974 14.1936 13.7863 14.0988 13.7732 14.0109C13.7628 13.9436 13.7517 13.8771 13.7395 13.8132C13.7305 13.765 13.7208 13.717 13.7107 13.6705C13.6801 13.5297 13.6455 13.3976 13.6079 13.2774C13.5875 13.2118 13.566 13.1476 13.5442 13.0872C13.5378 13.0693 13.5311 13.0516 13.5247 13.0346C13.4874 12.9363 13.4464 12.8406 13.4065 12.7583L13.254 12.4551C13.1827 12.6305 13.0005 13.0881 12.9438 13.2725C12.8757 13.4904 12.8183 13.745 12.7779 14.0086C12.7651 14.0936 12.7543 14.1864 12.7444 14.2913C12.6402 14.3017 12.5535 14.3127 12.4723 14.3257C12.2202 14.3667 11.9752 14.4263 11.7636 14.498C11.5369 14.5737 11.3654 14.6549 11.2615 14.7095C11.2202 14.7303 11.1853 14.7514 11.1539 14.7702L11.1201 14.7902C11.086 14.8107 11.068 14.8237 11.068 14.8237L11.0293 14.852L11.068 14.8803C11.068 14.8803 11.086 14.8934 11.1207 14.9145L11.1492 14.9312L11.1559 14.9353C11.1844 14.9523 11.2196 14.9734 11.261 14.9942C11.3652 15.0489 11.5366 15.1301 11.7633 15.2058C11.9752 15.2775 12.2202 15.337 12.472 15.3781C12.5526 15.3911 12.639 15.4021 12.7429 15.4122C12.7526 15.5165 12.7633 15.6093 12.7761 15.6951C12.8157 15.957 12.8728 16.2113 12.9417 16.4313C13.0151 16.6677 13.2028 17.138 13.2549 17.2455L13.3032 17.1429L13.3227 17.1042L13.3253 17.0998L13.3303 17.0909C13.3355 17.0805 13.3425 17.0683 13.3501 17.0547C13.3611 17.0345 13.3742 17.0114 13.3876 16.9848C13.3937 16.9724 13.4004 16.9591 13.4068 16.9455L13.4179 16.9221C13.4671 16.8183 13.5404 16.6484 13.6088 16.4261C13.6341 16.3452 13.658 16.259 13.6798 16.1703C13.7174 16.018 13.7488 15.8573 13.7738 15.6925C13.7828 15.6315 13.7913 15.5662 13.798 15.4992C13.8018 15.4648 13.8052 15.4301 13.8082 15.3954C13.841 15.3922 13.8739 15.3888 13.9068 15.385C13.9319 15.3821 13.9569 15.3789 13.9816 15.3757C14.0189 15.3708 14.0558 15.3653 14.0922 15.3596C14.2674 15.3307 14.4365 15.294 14.5946 15.25C14.6644 15.2307 14.7328 15.2098 14.798 15.1879C15.0233 15.1127 15.1941 15.0324 15.2977 14.9783L15.3198 14.9668C15.3358 14.9584 15.3507 14.95 15.3644 14.9419L15.3929 14.9251L15.4071 14.9168L15.4394 14.8977L15.4453 14.8942L15.475 14.8754L15.5049 14.8491L15.4866 14.8364L15.4875 14.8358Z" fill="white"/>
<path d="M18.6931 9.25362C18.6905 9.25162 18.6822 9.24561 18.6686 9.23698C18.6634 9.23389 18.6576 9.23004 18.6509 9.22588C18.6368 9.21694 18.6193 9.20568 18.5988 9.19474C18.5631 9.17485 18.5238 9.15528 18.4819 9.13632C18.4739 9.13277 18.4658 9.12907 18.4573 9.12553C18.422 9.11026 18.3854 9.09577 18.3488 9.08283C18.2968 9.06417 18.2407 9.04691 18.182 9.03165C18.1225 9.01608 18.0598 9.00251 17.9959 8.99141C17.954 8.98417 17.9084 8.978 17.8533 8.97215C17.848 8.9111 17.8425 8.86054 17.836 8.81368C17.8307 8.77776 17.8252 8.74231 17.8191 8.70824C17.8146 8.6825 17.8098 8.65691 17.8047 8.63209C17.7894 8.55702 17.7721 8.48657 17.7533 8.42244C17.7431 8.38745 17.7323 8.35323 17.7214 8.32101C17.7182 8.31146 17.7149 8.30205 17.7117 8.29296C17.6931 8.24055 17.6725 8.18952 17.6526 8.14559L17.5763 7.98389C17.5407 8.07746 17.4496 8.32148 17.4212 8.41982C17.3872 8.53605 17.3585 8.67186 17.3383 8.81245C17.3319 8.85777 17.3265 8.90725 17.3215 8.9632C17.2694 8.96875 17.2261 8.97461 17.1855 8.98155C17.0595 9.00344 16.9369 9.03519 16.8311 9.07342C16.7178 9.11381 16.6321 9.15713 16.5801 9.18626C16.5595 9.19736 16.542 9.20861 16.5263 9.21863L16.5094 9.22927C16.4924 9.24021 16.4833 9.24715 16.4833 9.24715L16.464 9.26226L16.4833 9.27736C16.4833 9.27736 16.4924 9.2843 16.5097 9.29555L16.5239 9.30449L16.5273 9.30665C16.5416 9.31575 16.5592 9.327 16.5798 9.3381C16.6319 9.36723 16.7176 9.41055 16.831 9.45094C16.9369 9.48917 17.0595 9.52092 17.1853 9.54281C17.2256 9.54975 17.2689 9.55561 17.3208 9.561C17.3256 9.61665 17.331 9.66613 17.3374 9.71191C17.3572 9.85157 17.3857 9.98723 17.4202 10.1045C17.4569 10.2306 17.5507 10.4814 17.5768 10.5388L17.6009 10.4841L17.6107 10.4634L17.612 10.4611L17.6145 10.4563C17.6171 10.4508 17.6206 10.4443 17.6244 10.437C17.6299 10.4262 17.6364 10.4139 17.6431 10.3997C17.6462 10.3931 17.6495 10.386 17.6527 10.3788L17.6583 10.3663C17.6829 10.3109 17.7195 10.2203 17.7537 10.1018C17.7664 10.0586 17.7783 10.0127 17.7892 9.96534C17.808 9.8841 17.8237 9.79839 17.8362 9.71053C17.8408 9.678 17.845 9.64316 17.8483 9.6074C17.8502 9.58906 17.852 9.57056 17.8534 9.55206C17.8699 9.55036 17.8863 9.54851 17.9028 9.54651C17.9153 9.54497 17.9278 9.54327 17.9402 9.54158C17.9588 9.53896 17.9773 9.53603 17.9954 9.53294C18.0831 9.51753 18.1676 9.49795 18.2466 9.47452C18.2815 9.46419 18.3157 9.45309 18.3483 9.44138C18.461 9.4013 18.5464 9.35845 18.5982 9.32962L18.6093 9.32345C18.6173 9.31898 18.6247 9.31451 18.6315 9.3102L18.6458 9.30126L18.6529 9.29679L18.6691 9.28661L18.672 9.28476L18.6868 9.27474L18.7018 9.26072L18.6926 9.25393L18.6931 9.25362Z" fill="white"/>
<path d="M67.7565 27.7697C67.7512 27.7659 67.7347 27.7546 67.7076 27.7385C67.6971 27.7327 67.6855 27.7255 67.6721 27.7176C67.6438 27.7009 67.6089 27.6798 67.5679 27.6593C67.4966 27.622 67.418 27.5853 67.3342 27.5497C67.3182 27.5431 67.3019 27.5361 67.285 27.5295C67.2143 27.5009 67.1412 27.4737 67.0679 27.4494C66.964 27.4145 66.8516 27.3821 66.7343 27.3535C66.6153 27.3243 66.4899 27.2988 66.3621 27.278C66.2783 27.2644 66.1872 27.2529 66.0769 27.2419C66.0664 27.1274 66.0553 27.0326 66.0422 26.9448C66.0318 26.8774 66.0207 26.811 66.0085 26.7471C65.9995 26.6988 65.9899 26.6508 65.9797 26.6043C65.9491 26.4635 65.9145 26.3314 65.8769 26.2112C65.8566 26.1456 65.835 26.0814 65.8132 26.021C65.8068 26.0031 65.8001 25.9855 65.7937 25.9684C65.7564 25.8702 65.7154 25.7745 65.6755 25.6921L65.523 25.3889C65.4517 25.5644 65.2695 26.0219 65.2128 26.2063C65.1447 26.4242 65.0873 26.6789 65.0469 26.9425C65.0341 27.0274 65.0233 27.1202 65.0134 27.2251C64.9092 27.2355 64.8225 27.2465 64.7413 27.2595C64.4893 27.3006 64.2442 27.3601 64.0326 27.4318C63.8059 27.5075 63.6345 27.5887 63.5306 27.6434C63.4892 27.6642 63.4543 27.6853 63.4229 27.7041L63.3891 27.724C63.3551 27.7445 63.337 27.7575 63.337 27.7575L63.2983 27.7859L63.337 27.8142C63.337 27.8142 63.3551 27.8272 63.3897 27.8483L63.4182 27.8651L63.4249 27.8691C63.4534 27.8862 63.4887 27.9073 63.53 27.9281C63.6342 27.9827 63.8056 28.0639 64.0323 28.1396C64.2442 28.2113 64.4893 28.2709 64.741 28.3119C64.8216 28.3249 64.9081 28.3359 65.012 28.346C65.0216 28.4503 65.0323 28.5431 65.0451 28.629C65.0847 28.8908 65.1418 29.1452 65.2107 29.3651C65.2841 29.6016 65.4718 30.0718 65.5239 30.1793L65.5722 30.0767L65.5917 30.038L65.5943 30.0337L65.5993 30.0247C65.6045 30.0143 65.6115 30.0022 65.6191 29.9886C65.6301 29.9683 65.6432 29.9452 65.6566 29.9186C65.6627 29.9062 65.6694 29.8929 65.6758 29.8793L65.6869 29.8559C65.7361 29.7521 65.8094 29.5822 65.8778 29.3599C65.9031 29.279 65.927 29.1929 65.9488 29.1041C65.9864 28.9518 66.0178 28.7911 66.0428 28.6264C66.0519 28.5654 66.0603 28.5001 66.067 28.433C66.0708 28.3986 66.0743 28.3639 66.0772 28.3292C66.1101 28.3261 66.1429 28.3226 66.1758 28.3188C66.2009 28.3159 66.2259 28.3128 66.2506 28.3096C66.2879 28.3047 66.3248 28.2992 66.3612 28.2934C66.5364 28.2645 66.7055 28.2278 66.8636 28.1839C66.9334 28.1645 67.0018 28.1437 67.067 28.1217C67.2923 28.0466 67.4631 27.9662 67.5667 27.9122L67.5888 27.9006C67.6048 27.8922 67.6197 27.8838 67.6334 27.8757L67.6619 27.859L67.6762 27.8506L67.7085 27.8315L67.7143 27.8281L67.744 27.8093L67.7739 27.783L67.7556 27.7703L67.7565 27.7697Z" fill="white"/>
<path d="M61.2116 36.559C61.209 36.557 61.2007 36.551 61.1872 36.5424C61.1819 36.5393 61.1761 36.5355 61.1694 36.5313C61.1553 36.5224 61.1378 36.5111 61.1173 36.5002C61.0816 36.4803 61.0424 36.4607 61.0004 36.4417C60.9924 36.4382 60.9843 36.4345 60.9759 36.4309C60.9405 36.4157 60.904 36.4012 60.8673 36.3882C60.8153 36.3696 60.7592 36.3523 60.7005 36.3371C60.641 36.3215 60.5783 36.3079 60.5144 36.2968C60.4725 36.2896 60.427 36.2834 60.3718 36.2776C60.3666 36.2165 60.361 36.166 60.3545 36.1191C60.3492 36.0832 60.3437 36.0477 60.3376 36.0137C60.3331 35.9879 60.3283 35.9623 60.3232 35.9375C60.3079 35.8624 60.2906 35.792 60.2718 35.7279C60.2616 35.6929 60.2509 35.6587 60.24 35.6264C60.2368 35.6169 60.2334 35.6075 60.2302 35.5984C60.2116 35.546 60.1911 35.4949 60.1711 35.451L60.0949 35.2893C60.0592 35.3829 59.9681 35.6269 59.9397 35.7252C59.9057 35.8415 59.877 35.9773 59.8568 36.1179C59.8504 36.1632 59.845 36.2127 59.8401 36.2686C59.788 36.2742 59.7446 36.28 59.704 36.287C59.578 36.3089 59.4555 36.3406 59.3497 36.3788C59.2363 36.4192 59.1506 36.4625 59.0986 36.4917C59.078 36.5028 59.0605 36.514 59.0448 36.5241L59.0279 36.5347C59.0109 36.5456 59.0019 36.5526 59.0019 36.5526L58.9825 36.5677L59.0019 36.5828C59.0019 36.5828 59.0109 36.5897 59.0282 36.601L59.0425 36.6099L59.0458 36.6121C59.0601 36.6212 59.0777 36.6324 59.0983 36.6435C59.1504 36.6727 59.2362 36.716 59.3495 36.7564C59.4555 36.7946 59.578 36.8263 59.7039 36.8482C59.7442 36.8552 59.7874 36.861 59.8393 36.8664C59.8441 36.9221 59.8495 36.9716 59.8559 37.0173C59.8757 37.157 59.9042 37.2926 59.9387 37.41C59.9754 37.5361 60.0693 37.7869 60.0953 37.8442L60.1195 37.7895L60.1292 37.7688L60.1305 37.7665L60.133 37.7617C60.1356 37.7562 60.1391 37.7497 60.1429 37.7425C60.1484 37.7317 60.155 37.7193 60.1617 37.7052C60.1647 37.6985 60.1681 37.6914 60.1713 37.6842L60.1768 37.6717C60.2014 37.6164 60.2381 37.5257 60.2723 37.4072C60.2849 37.364 60.2969 37.3181 60.3078 37.2708C60.3265 37.1895 60.3423 37.1038 60.3548 37.0159C60.3593 36.9834 60.3635 36.9486 60.3669 36.9128C60.3687 36.8945 60.3705 36.876 60.3719 36.8575C60.3884 36.8558 60.4048 36.8539 60.4213 36.8519C60.4338 36.8504 60.4463 36.8487 60.4587 36.847C60.4773 36.8444 60.4958 36.8414 60.514 36.8384C60.6016 36.8229 60.6861 36.8034 60.7651 36.7799C60.8001 36.7696 60.8343 36.7585 60.8669 36.7468C60.9795 36.7067 61.0649 36.6639 61.1167 36.635L61.1278 36.6289C61.1358 36.6244 61.1432 36.6199 61.15 36.6156L61.1643 36.6067L61.1714 36.6022L61.1876 36.592L61.1905 36.5902L61.2053 36.5802L61.2203 36.5661L61.2112 36.5594L61.2116 36.559Z" fill="white"/>
<path d="M8.62036 49.2515C8.61699 49.2489 8.60633 49.241 8.58893 49.2296C8.58219 49.2256 8.57471 49.2205 8.5661 49.2151C8.54795 49.2033 8.5255 49.1886 8.49912 49.1742C8.45328 49.1481 8.40277 49.1224 8.34888 49.0975C8.33859 49.0929 8.32811 49.088 8.31726 49.0834C8.2718 49.0633 8.22484 49.0443 8.17769 49.0273C8.11089 49.0028 8.03867 48.9802 7.96327 48.9601C7.88675 48.9397 7.80611 48.9219 7.72397 48.9073C7.67009 48.8978 7.61153 48.8897 7.54062 48.8821C7.53388 48.8019 7.52677 48.7356 7.51835 48.6741C7.51162 48.6269 7.50451 48.5804 7.49665 48.5357C7.49085 48.5019 7.48468 48.4683 7.47813 48.4357C7.45848 48.3372 7.43622 48.2447 7.41208 48.1606C7.39899 48.1146 7.38514 48.0697 7.37111 48.0274C7.36699 48.0149 7.36269 48.0026 7.35857 47.9906C7.33462 47.9218 7.30824 47.8549 7.28261 47.7972L7.18457 47.585C7.13873 47.7078 7.02161 48.028 6.98512 48.1571C6.94134 48.3097 6.90449 48.4879 6.87848 48.6724C6.87025 48.7319 6.86332 48.7969 6.85696 48.8703C6.78998 48.8776 6.73423 48.8853 6.68203 48.8944C6.52 48.9231 6.36246 48.9648 6.22644 49.015C6.08069 49.068 5.97049 49.1248 5.9037 49.1631C5.87713 49.1776 5.85468 49.1924 5.83447 49.2056L5.81277 49.2195C5.79088 49.2339 5.77928 49.243 5.77928 49.243L5.75439 49.2628L5.77928 49.2826C5.77928 49.2826 5.79088 49.2918 5.81314 49.3065L5.83148 49.3183L5.83578 49.3211C5.85412 49.333 5.87676 49.3478 5.90332 49.3624C5.97031 49.4006 6.08051 49.4575 6.22626 49.5105C6.36246 49.5606 6.52 49.6023 6.68184 49.631C6.73367 49.6402 6.78923 49.6478 6.85603 49.6549C6.8622 49.728 6.86912 49.7929 6.87736 49.853C6.9028 50.0363 6.93947 50.2143 6.98382 50.3683C7.03096 50.5338 7.15164 50.863 7.18513 50.9383L7.21619 50.8664L7.22873 50.8393L7.23041 50.8363L7.23359 50.83C7.23696 50.8227 7.24145 50.8142 7.24631 50.8047C7.25342 50.7906 7.26184 50.7744 7.27045 50.7558C7.27438 50.7471 7.27868 50.7378 7.2828 50.7282L7.28991 50.7119C7.32153 50.6392 7.36868 50.5203 7.41264 50.3647C7.42892 50.308 7.44426 50.2477 7.4583 50.1856C7.48243 50.079 7.50264 49.9665 7.51873 49.8512C7.52453 49.8085 7.52995 49.7628 7.53426 49.7158C7.53669 49.6917 7.53893 49.6675 7.54081 49.6432C7.56195 49.641 7.58309 49.6385 7.60423 49.6359C7.62032 49.6339 7.63641 49.6317 7.65232 49.6294C7.67626 49.626 7.70003 49.6221 7.72341 49.6181C7.83605 49.5979 7.94475 49.5722 8.04634 49.5414C8.09125 49.5279 8.13522 49.5133 8.17713 49.4979C8.32194 49.4453 8.43177 49.3891 8.49837 49.3512L8.51259 49.3431C8.52288 49.3373 8.53243 49.3314 8.54122 49.3257L8.55955 49.314L8.56872 49.3081L8.58949 49.2948L8.59323 49.2924L8.61232 49.2792L8.63159 49.2608L8.6198 49.2519L8.62036 49.2515Z" fill="white"/>
<path d="M71.1176 47.4139C71.1136 47.4109 71.1012 47.4019 71.0809 47.3889C71.073 47.3843 71.0643 47.3785 71.0543 47.3723C71.0331 47.3589 71.0069 47.342 70.9761 47.3256C70.9226 47.2957 70.8637 47.2664 70.8008 47.2379C70.7888 47.2326 70.7766 47.2271 70.7639 47.2217C70.7109 47.1988 70.6561 47.1771 70.6011 47.1577C70.5232 47.1297 70.4389 47.1038 70.351 47.0809C70.2617 47.0576 70.1676 47.0372 70.0718 47.0206C70.0089 47.0097 69.9406 47.0005 69.8579 46.9917C69.85 46.9001 69.8417 46.8243 69.8319 46.754C69.824 46.7001 69.8157 46.6469 69.8066 46.5958C69.7998 46.5572 69.7926 46.5188 69.7849 46.4816C69.762 46.369 69.7361 46.2633 69.7079 46.1671C69.6926 46.1146 69.6765 46.0633 69.6601 46.015C69.6553 46.0006 69.6503 45.9865 69.6455 45.9729C69.6175 45.8943 69.5867 45.8177 69.5568 45.7518L69.4425 45.5093C69.389 45.6496 69.2523 46.0157 69.2098 46.1632C69.1587 46.3375 69.1157 46.5412 69.0854 46.7521C69.0758 46.8201 69.0677 46.8943 69.0603 46.9783C68.9821 46.9866 68.9171 46.9954 68.8562 47.0058C68.6671 47.0386 68.4833 47.0862 68.3246 47.1436C68.1546 47.2042 68.026 47.2691 67.9481 47.3128C67.9171 47.3295 67.8909 47.3464 67.8674 47.3614L67.842 47.3774C67.8165 47.3938 67.803 47.4042 67.803 47.4042L67.7739 47.4268L67.803 47.4495C67.803 47.4495 67.8165 47.4599 67.8425 47.4768L67.8639 47.4902L67.8689 47.4934C67.8903 47.5071 67.9167 47.5239 67.9477 47.5406C68.0258 47.5843 68.1544 47.6493 68.3244 47.7099C68.4833 47.7672 68.6671 47.8148 68.8559 47.8477C68.9164 47.8581 68.9812 47.8669 69.0592 47.8749C69.0664 47.9584 69.0744 48.0326 69.084 48.1013C69.1137 48.3108 69.1565 48.5143 69.2083 48.6902C69.2633 48.8794 69.404 49.2556 69.4431 49.3416L69.4794 49.2595L69.494 49.2285L69.4959 49.2251L69.4997 49.2179C69.5036 49.2096 69.5088 49.1999 69.5145 49.189C69.5228 49.1728 69.5326 49.1543 69.5427 49.133C69.5472 49.1231 69.5523 49.1125 69.5571 49.1016L69.5654 49.0829C69.6022 48.9999 69.6573 48.8639 69.7086 48.6861C69.7275 48.6213 69.7454 48.5524 69.7618 48.4815C69.79 48.3596 69.8135 48.231 69.8323 48.0992C69.8391 48.0504 69.8454 47.9982 69.8504 47.9445C69.8533 47.917 69.8559 47.8893 69.8581 47.8615C69.8827 47.859 69.9074 47.8562 69.9321 47.8532C69.9508 47.8509 69.9696 47.8484 69.9882 47.8458C70.0161 47.8419 70.0438 47.8375 70.0711 47.8329C70.2025 47.8097 70.3293 47.7804 70.4479 47.7452C70.5003 47.7297 70.5516 47.7131 70.6004 47.6955C70.7694 47.6354 70.8975 47.5711 70.9752 47.5279L70.9918 47.5186C71.0038 47.5119 71.015 47.5052 71.0252 47.4987L71.0466 47.4853L71.0573 47.4786L71.0815 47.4634L71.0859 47.4606L71.1082 47.4456L71.1307 47.4245L71.1169 47.4143L71.1176 47.4139Z" fill="white"/>
</g>
<defs>
<clipPath id="clip0_664_11604">
<rect width="82" height="80" fill="white"/>
</clipPath>
</defs>
</svg>
