<svg width="80" height="80" viewBox="0 0 80 80" fill="none" xmlns="http://www.w3.org/2000/svg">
<g clip-path="url(#clip0_1272_2055)">
<path d="M39.9734 79.7057C61.9167 79.7057 79.7052 61.9172 79.7052 39.9739C79.7052 18.0307 61.9167 0.242188 39.9734 0.242188C18.0302 0.242188 0.241699 18.0307 0.241699 39.9739C0.241699 61.9172 18.0302 79.7057 39.9734 79.7057Z" fill="#2BF2F1" stroke="#082422" stroke-width="0.484531"/>
<path d="M25.8445 24.8323C27.0558 28.8297 29.8418 35.7342 29.963 36.2186H50.798C51.04 35.2899 51.7913 32.7747 51.888 31.6158C52.1304 28.7086 54.6741 25.3169 54.0684 23.2576C55.6432 20.2293 54.9164 16.3531 51.5248 14.8995C51.04 11.6289 48.0119 10.9021 45.5891 11.2653C43.6511 8.8428 40.6226 8.35831 36.5042 11.0232C33.3546 10.1752 29.9629 11.9922 29.4784 15.9896C26.2078 17.2009 24.6332 20.835 25.8445 24.8323Z" fill="#082422"/>
<path d="M46.8296 43.9714V48.3323C46.83 51.1748 47.1949 52.589 48.0119 53.5377C48.4221 54.0136 48.9525 54.3799 49.6286 54.75C50.3077 55.1217 51.1176 55.4887 52.0926 55.9765L52.2339 56.047L52.1294 56.1648C49.8141 58.7847 47.4948 60.1597 45.3236 60.8783C43.6984 61.4162 42.1597 61.5847 40.7758 61.6358V61.6565H40.6546C40.4565 61.6565 40.254 61.6552 40.0477 61.6525C39.841 61.6552 39.6388 61.6565 39.4407 61.6565H39.3195V61.6358C37.9357 61.5847 36.3973 61.4162 34.7721 60.8783C32.6008 60.1597 30.2812 58.7847 27.9661 56.1648L27.8617 56.047L28.0027 55.9765C28.9779 55.4887 29.7876 55.1217 30.4668 54.75C31.1428 54.3799 31.6733 54.0136 32.0834 53.5377C32.9007 52.589 33.2656 51.1748 33.2656 48.3323V43.9714H46.8296Z" fill="#FFCD9C"/>
<path d="M46.8296 43.9716H47.072V43.7292H46.8296V43.9716ZM52.2339 56.0472L52.4153 56.2075L52.624 55.9713L52.3422 55.8304L52.2339 56.0472ZM40.7759 61.636L40.767 61.3939L40.5338 61.4024V61.636H40.7759ZM40.7759 61.6567V61.8991H41.0182V61.6567H40.7759ZM40.0477 61.6527L40.0507 61.4106H40.0477H40.0446L40.0477 61.6527ZM39.3195 61.6567H39.0771V61.8991H39.3195V61.6567ZM39.3195 61.636H39.5619V61.4024L39.3284 61.3939L39.3195 61.636ZM27.8617 56.0472L27.7534 55.8304L27.4713 55.9713L27.6803 56.2075L27.8617 56.0472ZM33.2657 43.9716V43.7292H33.0234V43.9716H33.2657ZM46.8296 43.9716H46.5876V48.3325H46.8296H47.072V43.9716H46.8296ZM46.8296 48.3325H46.5876C46.5876 51.1825 46.9498 52.676 47.8285 53.6959L48.0119 53.5379L48.1954 53.3796C47.4397 52.5024 47.072 51.1679 47.072 48.3325H46.8296ZM48.0119 53.5379L47.8285 53.6959C48.2662 54.2038 48.8259 54.5871 49.5125 54.9626L49.6286 54.7502L49.745 54.5378C49.0795 54.1735 48.5781 53.8235 48.1954 53.3796L48.0119 53.5379ZM49.6286 54.7502L49.5125 54.9626C50.1958 55.3367 51.0216 55.7119 51.9844 56.1932L52.0926 55.9767L52.2012 55.7599C51.2136 55.2663 50.4198 54.9068 49.745 54.5378L49.6286 54.7502ZM52.0926 55.9767L51.9844 56.1932L52.1253 56.2637L52.2339 56.0472L52.3422 55.8304L52.2012 55.7599L52.0926 55.9767ZM52.2339 56.0472L52.0521 55.8865L51.9479 56.0047L52.1294 56.165L52.3108 56.3257L52.4153 56.2075L52.2339 56.0472ZM52.1294 56.165L51.9479 56.0047C49.6599 58.5936 47.3764 59.9441 45.2473 60.6484L45.3236 60.8785L45.3995 61.1087C47.613 60.3761 49.9684 58.9762 52.3108 56.3257L52.1294 56.165ZM45.3236 60.8785L45.2473 60.6484C43.6514 61.1767 42.1376 61.3435 40.767 61.3939L40.7759 61.636L40.7847 61.878C42.1818 61.8266 43.745 61.6561 45.3995 61.1087L45.3236 60.8785ZM40.7759 61.636H40.5338V61.6567H40.7759H41.0182V61.636H40.7759ZM40.7759 61.6567V61.4147H40.6547V61.6567V61.8991H40.7759V61.6567ZM40.6547 61.6567V61.4147C40.4576 61.4147 40.2564 61.413 40.0507 61.4106L40.0477 61.6527L40.0446 61.895C40.2519 61.8978 40.4555 61.8991 40.6547 61.8991V61.6567ZM40.0477 61.6527L40.0446 61.4106C39.839 61.413 39.6378 61.4147 39.4407 61.4147V61.6567V61.8991C39.6399 61.8991 39.8434 61.8978 40.0507 61.895L40.0477 61.6527ZM39.4407 61.6567V61.4147H39.3195V61.6567V61.8991H39.4407V61.6567ZM39.3195 61.6567H39.5619V61.636H39.3195H39.0771V61.6567H39.3195ZM39.3195 61.636L39.3284 61.3939C37.9578 61.3435 36.4439 61.1767 34.848 60.6484L34.7721 60.8785L34.6959 61.1087C36.3503 61.6561 37.9136 61.8266 39.3107 61.878L39.3195 61.636ZM34.7721 60.8785L34.848 60.6484C32.7192 59.9441 30.4355 58.5936 28.1477 56.0047L27.9661 56.165L27.7846 56.3257C30.1269 58.9759 32.4824 60.3761 34.6959 61.1087L34.7721 60.8785ZM27.9661 56.165L28.1477 56.0047L28.0432 55.8865L27.8617 56.0472L27.6803 56.2075L27.7846 56.3257L27.9661 56.165ZM27.8617 56.0472L27.9701 56.2637L28.111 56.1932L28.0027 55.9767L27.8944 55.7599L27.7534 55.8304L27.8617 56.0472ZM28.0027 55.9767L28.111 56.1932C29.0739 55.7119 29.8995 55.3367 30.5831 54.9626L30.4668 54.7502L30.3505 54.5378C29.6757 54.9071 28.882 55.2663 27.8944 55.7599L28.0027 55.9767ZM30.4668 54.7502L30.5831 54.9626C31.2696 54.5871 31.8293 54.2038 32.267 53.6959L32.0835 53.5379L31.8999 53.3796C31.5174 53.8235 31.016 54.1735 30.3505 54.5378L30.4668 54.7502ZM32.0835 53.5379L32.267 53.6959C33.1456 52.676 33.5079 51.1825 33.5079 48.3325H33.2657H33.0234C33.0234 51.1679 32.6558 52.5024 31.8999 53.3796L32.0835 53.5379ZM33.2657 48.3325H33.5079V43.9716H33.2657H33.0234V48.3325H33.2657ZM33.2657 43.9716V44.214H46.8296V43.9716V43.7292H33.2657V43.9716Z" fill="#082422"/>
<mask id="mask0_1272_2055" style="mask-type:alpha" maskUnits="userSpaceOnUse" x="27" y="43" width="26" height="19">
<path d="M46.8296 43.9714V48.3323C46.83 51.1748 47.1949 52.589 48.0119 53.5377C48.4221 54.0136 48.9525 54.3799 49.6286 54.75C50.3077 55.1217 51.1176 55.4887 52.0926 55.9765L52.2339 56.047L52.1294 56.1648C49.8141 58.7847 47.4948 60.1597 45.3236 60.8783C43.6984 61.4162 42.1597 61.5847 40.7758 61.6358V61.6565H40.6546C40.4565 61.6565 40.254 61.6552 40.0477 61.6525C39.841 61.6552 39.6388 61.6565 39.4407 61.6565H39.3195V61.6358C37.9357 61.5847 36.3973 61.4162 34.7721 60.8783C32.6008 60.1597 30.2812 58.7847 27.9661 56.1648L27.8617 56.047L28.0027 55.9765C28.9779 55.4887 29.7876 55.1217 30.4668 54.75C31.1428 54.3799 31.6733 54.0136 32.0834 53.5377C32.9007 52.589 33.2656 51.1748 33.2656 48.3323V43.9714H46.8296Z" fill="#FFCD9C"/>
<path d="M46.8296 43.9716H47.072V43.7292H46.8296V43.9716ZM52.2339 56.0472L52.4153 56.2075L52.624 55.9713L52.3422 55.8304L52.2339 56.0472ZM40.7759 61.636L40.767 61.3939L40.5338 61.4024V61.636H40.7759ZM40.7759 61.6567V61.8991H41.0182V61.6567H40.7759ZM40.0477 61.6527L40.0507 61.4106H40.0477H40.0446L40.0477 61.6527ZM39.3195 61.6567H39.0771V61.8991H39.3195V61.6567ZM39.3195 61.636H39.5619V61.4024L39.3284 61.3939L39.3195 61.636ZM27.8617 56.0472L27.7534 55.8304L27.4713 55.9713L27.6803 56.2075L27.8617 56.0472ZM33.2657 43.9716V43.7292H33.0234V43.9716H33.2657ZM46.8296 43.9716H46.5876V48.3325H46.8296H47.072V43.9716H46.8296ZM46.8296 48.3325H46.5876C46.5876 51.1825 46.9498 52.676 47.8285 53.6959L48.0119 53.5379L48.1954 53.3796C47.4397 52.5024 47.072 51.1679 47.072 48.3325H46.8296ZM48.0119 53.5379L47.8285 53.6959C48.2662 54.2038 48.8259 54.5871 49.5125 54.9626L49.6286 54.7502L49.745 54.5378C49.0795 54.1735 48.5781 53.8235 48.1954 53.3796L48.0119 53.5379ZM49.6286 54.7502L49.5125 54.9626C50.1958 55.3367 51.0216 55.7119 51.9844 56.1932L52.0926 55.9767L52.2012 55.7599C51.2136 55.2663 50.4198 54.9068 49.745 54.5378L49.6286 54.7502ZM52.0926 55.9767L51.9844 56.1932L52.1253 56.2637L52.2339 56.0472L52.3422 55.8304L52.2012 55.7599L52.0926 55.9767ZM52.2339 56.0472L52.0521 55.8865L51.9479 56.0047L52.1294 56.165L52.3108 56.3257L52.4153 56.2075L52.2339 56.0472ZM52.1294 56.165L51.9479 56.0047C49.6599 58.5936 47.3764 59.9441 45.2473 60.6484L45.3236 60.8785L45.3995 61.1087C47.613 60.3761 49.9684 58.9762 52.3108 56.3257L52.1294 56.165ZM45.3236 60.8785L45.2473 60.6484C43.6514 61.1767 42.1376 61.3435 40.767 61.3939L40.7759 61.636L40.7847 61.878C42.1818 61.8266 43.745 61.6561 45.3995 61.1087L45.3236 60.8785ZM40.7759 61.636H40.5338V61.6567H40.7759H41.0182V61.636H40.7759ZM40.7759 61.6567V61.4147H40.6547V61.6567V61.8991H40.7759V61.6567ZM40.6547 61.6567V61.4147C40.4576 61.4147 40.2564 61.413 40.0507 61.4106L40.0477 61.6527L40.0446 61.895C40.2519 61.8978 40.4555 61.8991 40.6547 61.8991V61.6567ZM40.0477 61.6527L40.0446 61.4106C39.839 61.413 39.6378 61.4147 39.4407 61.4147V61.6567V61.8991C39.6399 61.8991 39.8434 61.8978 40.0507 61.895L40.0477 61.6527ZM39.4407 61.6567V61.4147H39.3195V61.6567V61.8991H39.4407V61.6567ZM39.3195 61.6567H39.5619V61.636H39.3195H39.0771V61.6567H39.3195ZM39.3195 61.636L39.3284 61.3939C37.9578 61.3435 36.4439 61.1767 34.848 60.6484L34.7721 60.8785L34.6959 61.1087C36.3503 61.6561 37.9136 61.8266 39.3107 61.878L39.3195 61.636ZM34.7721 60.8785L34.848 60.6484C32.7191 59.9441 30.4355 58.5936 28.1477 56.0047L27.9661 56.165L27.7846 56.3257C30.1269 58.9759 32.4824 60.3761 34.6959 61.1087L34.7721 60.8785ZM27.9661 56.165L28.1477 56.0047L28.0432 55.8865L27.8617 56.0472L27.6803 56.2075L27.7846 56.3257L27.9661 56.165ZM27.8617 56.0472L27.9701 56.2637L28.111 56.1932L28.0027 55.9767L27.8944 55.7599L27.7534 55.8304L27.8617 56.0472ZM28.0027 55.9767L28.111 56.1932C29.0739 55.7119 29.8995 55.3367 30.5831 54.9626L30.4668 54.7502L30.3505 54.5378C29.6757 54.9071 28.882 55.2663 27.8944 55.7599L28.0027 55.9767ZM30.4668 54.7502L30.5831 54.9626C31.2696 54.5871 31.8293 54.2038 32.267 53.6959L32.0835 53.5379L31.8999 53.3796C31.5174 53.8235 31.016 54.1735 30.3505 54.5378L30.4668 54.7502ZM32.0835 53.5379L32.267 53.6959C33.1456 52.676 33.5079 51.1825 33.5079 48.3325H33.2657H33.0234C33.0234 51.1679 32.6558 52.5024 31.8999 53.3796L32.0835 53.5379ZM33.2657 48.3325H33.5079V43.9716H33.2657H33.0234V48.3325H33.2657ZM33.2657 43.9716V44.214H46.8296V43.9716V43.7292H33.2657V43.9716Z" fill="#082422"/>
</mask>
<g mask="url(#mask0_1272_2055)">
<path d="M36.9137 49.4958C35.2014 49.4958 32.3783 49.6421 29.0133 47.301C30.0374 44.7165 33.7243 39.7518 40.2788 40.5712C48.4715 41.5952 50.2274 41.7415 47.1551 44.8139C44.0827 47.8862 40.1324 49.4958 36.9137 49.4958Z" fill="#002522"/>
</g>
<path d="M28.1869 31.2692C27.0672 31.3909 26.2083 32.3424 26.4452 34.1902C26.694 36.1374 27.9132 37.6465 28.8089 38.328C29.4447 38.8118 29.9334 38.9687 30.3206 38.999C30.6153 39.0218 30.8511 38.9718 31.0482 38.9367V31.7562C30.6652 31.6063 30.0087 31.4195 29.3516 31.3207C28.9414 31.2591 28.5311 31.2318 28.1869 31.2692Z" fill="#FFCD9C" stroke="#082422" stroke-width="0.484531"/>
<path d="M52.0803 31.2692C53.2 31.3909 54.0589 32.3424 53.822 34.1902C53.5734 36.1374 52.354 37.6465 51.4584 38.328C50.8225 38.8118 50.334 38.9687 49.9465 38.999C49.6521 39.0218 49.4162 38.9718 49.2191 38.9367V31.7562C49.602 31.6063 50.2587 31.4195 50.9157 31.3207C51.326 31.2591 51.7362 31.2318 52.0803 31.2692Z" fill="#FFCD9C" stroke="#082422" stroke-width="0.484531"/>
<path d="M40.1243 18.1621C41.6882 18.0735 44.0041 18.1686 46.0351 18.7399C48.1144 19.3249 49.9452 20.4247 50.2975 22.3876C51.1483 27.1263 51.1476 31.7436 50.2975 36.8436C49.7124 40.3547 49.2255 42.162 48.5573 43.3341C47.886 44.5117 47.0318 45.0434 45.7695 46.0048C43.4257 47.7906 41.6848 48.1525 40.367 48.2022V48.21H40.2461C40.206 48.21 40.1655 48.2087 40.1243 48.2083C40.0834 48.2087 40.0433 48.21 40.0031 48.21H39.8822V48.2022C38.5644 48.1525 36.8235 47.791 34.4793 46.0048C33.2173 45.0434 32.3633 44.5117 31.6919 43.3341C31.0237 42.162 30.5367 40.3547 29.9515 36.8436C29.1015 31.7436 29.101 27.1263 29.9515 22.3876C30.3039 20.4247 32.1348 19.3249 34.2141 18.7399C36.2448 18.1687 38.5607 18.0735 40.1243 18.1621Z" fill="#FFCD9C"/>
<path d="M40.1242 18.1622L40.1106 18.4041L40.1242 18.4049L40.1382 18.4041L40.1242 18.1622ZM40.367 48.2023L40.3581 47.9599L40.1249 47.9688V48.2023H40.367ZM40.367 48.2101V48.4525H40.6094V48.2101H40.367ZM40.1242 48.2084L40.1273 47.966H40.1242H40.1215L40.1242 48.2084ZM39.8822 48.2101H39.6398V48.4525H39.8822V48.2101ZM39.8822 48.2023H40.1242V47.9688L39.8911 47.9599L39.8822 48.2023ZM40.1242 18.1622L40.1382 18.4041C41.6848 18.3164 43.9721 18.4114 45.9694 18.9733L46.0351 18.74L46.1004 18.5068C44.0361 17.9261 41.6916 17.8307 40.1106 17.9203L40.1242 18.1622ZM46.0351 18.74L45.9694 18.9733C48.0306 19.5532 49.7331 20.6142 50.0592 22.4304L50.2975 22.3876L50.5362 22.3448C50.1573 20.2353 48.1978 19.0969 46.1004 18.5068L46.0351 18.74ZM50.2975 22.3876L50.0592 22.4304C50.9045 27.1399 50.9045 31.7291 50.0585 36.8038L50.2975 36.8436L50.5365 36.8835C51.3906 31.7581 51.392 27.1129 50.5362 22.3448L50.2975 22.3876ZM50.2975 36.8436L50.0585 36.8038C49.473 40.318 48.9906 42.0845 48.3469 43.214L48.5573 43.3342L48.7677 43.454C49.4601 42.2397 49.952 40.3916 50.5365 36.8835L50.2975 36.8436ZM48.5573 43.3342L48.3469 43.214C47.7059 44.3381 46.9042 44.8362 45.6228 45.8122L45.7695 46.0048L45.9166 46.1979C47.1595 45.2508 48.0657 44.685 48.7677 43.454L48.5573 43.3342ZM45.7695 46.0048L45.6228 45.8122C43.3185 47.5677 41.6259 47.9122 40.3581 47.9599L40.367 48.2023L40.3762 48.4443C41.7437 48.3929 43.5326 48.014 45.9166 46.1979L45.7695 46.0048ZM40.367 48.2023H40.1249V48.2101H40.367H40.6094V48.2023H40.367ZM40.367 48.2101V47.9677H40.2461V48.2101V48.4525H40.367V48.2101ZM40.2461 48.2101V47.9677C40.207 47.9677 40.175 47.9667 40.1273 47.966L40.1242 48.2084L40.1215 48.4508C40.1559 48.4511 40.2049 48.4525 40.2461 48.4525V48.2101ZM40.1242 48.2084L40.1215 47.966C40.0739 47.9667 40.0422 47.9677 40.0031 47.9677V48.2101V48.4525C40.0439 48.4525 40.0933 48.4511 40.1273 48.4508L40.1242 48.2084ZM40.0031 48.2101V47.9677H39.8822V48.2101V48.4525H40.0031V48.2101ZM39.8822 48.2101H40.1242V48.2023H39.8822H39.6398V48.2101H39.8822ZM39.8822 48.2023L39.8911 47.9599C38.6233 47.9122 36.9307 47.5677 34.6264 45.8122L34.4793 46.0048L34.3326 46.1979C36.7166 48.014 38.5055 48.3929 39.873 48.4443L39.8822 48.2023ZM34.4793 46.0048L34.6264 45.8122C33.3449 44.8362 32.5432 44.3381 31.9023 43.214L31.6919 43.3342L31.4814 43.454C32.1833 44.6854 33.0896 45.2508 34.3326 46.1979L34.4793 46.0048ZM31.6919 43.3342L31.9023 43.214C31.2583 42.0845 30.7762 40.318 30.1905 36.8038L29.9515 36.8436L29.7125 36.8835C30.2972 40.3916 30.7891 42.2397 31.4814 43.454L31.6919 43.3342ZM29.9515 36.8436L30.1905 36.8038C29.3447 31.7291 29.3447 27.1399 30.19 22.4304L29.9515 22.3876L29.7131 22.3448C28.8573 27.1129 28.8583 31.7581 29.7125 36.8835L29.9515 36.8436ZM29.9515 22.3876L30.19 22.4304C30.516 20.6142 32.2184 19.5532 34.2798 18.9733L34.2141 18.74L34.1484 18.5068C32.0512 19.0968 30.0918 20.2353 29.7131 22.3448L29.9515 22.3876ZM34.2141 18.74L34.2798 18.9733C36.2768 18.4114 38.5641 18.3164 40.1106 18.4041L40.1242 18.1622L40.1382 17.9203C38.5573 17.8307 36.2128 17.9261 34.1484 18.5068L34.2141 18.74Z" fill="#082422"/>
<mask id="mask1_1272_2055" style="mask-type:alpha" maskUnits="userSpaceOnUse" x="0" y="0" width="80" height="80">
<path d="M39.9734 79.4633C61.7828 79.4633 79.4628 61.7834 79.4628 39.974C79.4628 18.1646 61.7828 0.484619 39.9734 0.484619C18.1641 0.484619 0.48407 18.1646 0.48407 39.974C0.48407 61.7834 18.1641 79.4633 39.9734 79.4633Z" fill="#2BF2F1"/>
</mask>
<g mask="url(#mask1_1272_2055)">
<path d="M52.4888 55.6061C54.4698 56.2529 57.5925 57.3685 60.5235 58.6137C61.9891 59.2364 63.4083 59.8917 64.6141 60.5382C65.8172 61.1833 66.8163 61.8239 67.4345 62.4173C68.9658 63.8873 69.6742 65.3017 70.0126 66.8548C70.3489 68.3982 70.3183 70.081 70.3785 72.0704V83.9451H9.69281V72.0704C9.75307 70.081 9.7226 68.3982 10.0588 66.8548C10.3971 65.3017 11.1058 63.8873 12.6369 62.4173C13.2551 61.8239 14.2542 61.1833 15.4574 60.5382C16.663 59.892 18.0824 59.2364 19.5479 58.6137C22.479 57.3685 25.6017 56.2529 27.5827 55.6061L27.6759 55.5754L27.725 55.6599C28.8253 57.5458 32.83 61.3732 40.0354 61.5315C47.2412 61.3732 51.2463 57.5458 52.3465 55.6599L52.3955 55.5754L52.4888 55.6061Z" fill="#EFEBE7"/>
<path d="M52.4888 55.6062L52.4129 55.8363H52.4136L52.4888 55.6062ZM70.3785 72.0706H70.6209V72.0668V72.0631L70.3785 72.0706ZM70.3785 83.9453V84.1877H70.6209V83.9453H70.3785ZM9.69281 83.9453H9.45053V84.1877H9.69281V83.9453ZM9.69281 72.0706L9.45063 72.0631L9.45053 72.0668V72.0706H9.69281ZM27.5828 55.6062L27.658 55.8363H27.6584L27.5828 55.6062ZM27.6759 55.5756L27.8852 55.4537L27.7865 55.2842L27.6002 55.3455L27.6759 55.5756ZM27.725 55.66L27.5157 55.7819L27.5158 55.7822L27.725 55.66ZM40.0354 61.5317L40.0303 61.7741H40.0354H40.0408L40.0354 61.5317ZM52.3465 55.66L52.5556 55.7822V55.7819L52.3465 55.66ZM52.3955 55.5756L52.4711 55.3455L52.2849 55.2842L52.1862 55.4537L52.3955 55.5756ZM52.4888 55.6062L52.4136 55.8363C54.3894 56.4818 57.5053 57.5946 60.4289 58.8369L60.5235 58.6139L60.6182 58.3909C57.6793 57.1422 54.5501 56.0243 52.5637 55.3758L52.4888 55.6062ZM60.5235 58.6139L60.4289 58.8369C61.8907 59.4578 63.3028 60.11 64.4994 60.7518L64.6141 60.5383L64.7285 60.3249C63.5142 59.674 62.0875 59.0149 60.6182 58.3909L60.5235 58.6139ZM64.6141 60.5383L64.4994 60.7518C65.6987 61.3948 66.6733 62.0226 67.2667 62.5921L67.4345 62.4175L67.6024 62.2425C66.9593 61.6253 65.936 60.9723 64.7285 60.3249L64.6141 60.5383ZM67.4345 62.4175L67.2667 62.5921C68.7635 64.029 69.4478 65.4009 69.776 66.9063L70.0126 66.8549L70.2492 66.8032C69.9006 65.2028 69.1676 63.7455 67.6024 62.2425L67.4345 62.4175ZM70.0126 66.8549L69.776 66.9063C70.1058 68.4212 70.0756 70.0699 70.1365 72.0781L70.3785 72.0706L70.6209 72.0631C70.561 70.0923 70.5916 68.3752 70.2492 66.8032L70.0126 66.8549ZM70.3785 72.0706H70.1365V83.9453H70.3785H70.6209V72.0706H70.3785ZM70.3785 83.9453V83.7029H9.69281V83.9453V84.1877H70.3785V83.9453ZM9.69281 83.9453H9.93506V72.0706H9.69281H9.45053V83.9453H9.69281ZM9.69281 72.0706L9.93496 72.0781C9.99579 70.0699 9.96556 68.4212 10.2955 66.9063L10.0588 66.8549L9.82211 66.8032C9.47967 68.3752 9.51034 70.0923 9.45063 72.0631L9.69281 72.0706ZM10.0588 66.8549L10.2955 66.9063C10.6235 65.4009 11.3079 64.029 12.8047 62.5921L12.6369 62.4175L12.4692 62.2425C10.9037 63.7455 10.1708 65.2028 9.82211 66.8032L10.0588 66.8549ZM12.6369 62.4175L12.8047 62.5921C13.398 62.0226 14.3729 61.3948 15.5719 60.7518L15.4574 60.5383L15.343 60.3249C14.1355 60.9723 13.1121 61.6253 12.4692 62.2425L12.6369 62.4175ZM15.4574 60.5383L15.5719 60.7518C16.7687 60.11 18.1809 59.4578 19.6426 58.8369L19.5479 58.6139L19.4531 58.3909C17.9839 59.0149 16.5572 59.674 15.343 60.3249L15.4574 60.5383ZM19.5479 58.6139L19.6426 58.8369C22.566 57.5946 25.682 56.4818 27.658 55.8363L27.5828 55.6062L27.5076 55.3758C25.5214 56.0243 22.392 57.1422 19.4531 58.3909L19.5479 58.6139ZM27.5828 55.6062L27.6584 55.8363L27.7515 55.8057L27.6759 55.5756L27.6002 55.3455L27.5071 55.3761L27.5828 55.6062ZM27.6759 55.5756L27.4665 55.6975L27.5157 55.7819L27.725 55.66L27.9344 55.5381L27.8852 55.4537L27.6759 55.5756ZM27.725 55.66L27.5158 55.7822C28.6577 57.7397 32.739 61.6137 40.0303 61.7741L40.0354 61.5317L40.0408 61.2896C32.9211 61.133 28.9928 57.3526 27.9343 55.5378L27.725 55.66ZM40.0354 61.5317L40.0408 61.7741C47.3324 61.6137 51.4138 57.7397 52.5556 55.7822L52.3465 55.66L52.1372 55.5378C51.0784 57.3526 47.1503 61.1334 40.0303 61.2896L40.0354 61.5317ZM52.3465 55.66L52.5556 55.7819L52.6049 55.6975L52.3955 55.5756L52.1862 55.4537L52.1372 55.5381L52.3465 55.66ZM52.3955 55.5756L52.32 55.8057L52.4129 55.8363L52.4888 55.6062L52.5644 55.3761L52.4711 55.3455L52.3955 55.5756Z" fill="#082422"/>
</g>
<path d="M29.1918 36.5823C28.3438 35.8555 28.1924 35.6134 28.465 34.8866C28.8284 33.9174 28.465 33.6752 28.1016 33.4329L27.617 33.1907" stroke="#082422" stroke-width="0.484531" stroke-linecap="round"/>
<path d="M50.9958 36.5823C51.8438 35.8555 51.9952 35.6134 51.7226 34.8866C51.359 33.9174 51.7226 33.6752 52.0858 33.4329L52.5706 33.1907" stroke="#082422" stroke-width="0.484531" stroke-linecap="round"/>
</g>
<defs>
<clipPath id="clip0_1272_2055">
<rect width="80" height="80" fill="white"/>
</clipPath>
</defs>
</svg>
