<svg width="118" height="80" viewBox="0 0 118 80" fill="none" xmlns="http://www.w3.org/2000/svg">
<g clip-path="url(#clip0_664_11624)">
<path d="M28.7491 76.2007L24.2137 56.2677L16.2074 56.021C16.5363 56.8935 16.8238 57.8258 17.0751 58.784L20.0927 58.6438L24.6281 78.5768C24.7472 79.1013 24.6048 79.509 24.2758 79.7531C24.2758 79.7531 28.3476 77.416 28.4383 77.3407C28.7336 77.094 28.8605 76.6993 28.7465 76.2007H28.7491Z" fill="#12C6C1" stroke="#002522" stroke-width="0.115265" stroke-miterlimit="10"/>
<path d="M24.6305 78.5738L20.4525 60.2118L20.0951 58.6382L14.6764 59.1446C14.7023 59.1965 14.7282 59.2484 14.7541 59.303C14.7619 59.3211 14.7696 59.3393 14.7774 59.3549C14.7955 59.3939 14.8111 59.4328 14.8292 59.4744C14.837 59.4951 14.8473 59.5185 14.8551 59.5393C14.8707 59.5782 14.8862 59.6172 14.8992 59.6587C14.9069 59.6821 14.9173 59.7055 14.9251 59.7288C14.9406 59.7704 14.9535 59.8145 14.9691 59.8587C14.9769 59.882 14.9846 59.9054 14.9924 59.9288C15.0079 59.9807 15.0235 60.0327 15.039 60.0872C15.0442 60.1054 15.0494 60.121 15.0546 60.1391C15.0753 60.2118 15.096 60.2846 15.1141 60.3625C15.1167 60.3728 15.1193 60.3858 15.1219 60.3962C15.1375 60.4611 15.1556 60.5286 15.1711 60.5962C15.1763 60.6195 15.1815 60.6455 15.1867 60.6715C15.1996 60.726 15.2126 60.7831 15.2229 60.8403C16.0803 64.9224 15.7047 72.866 15.7954 75.9536C15.829 77.091 17.2174 78.4829 18.7042 78.8698L22.6931 79.9034C24.0115 80.2461 24.8766 79.6515 24.6305 78.5712V78.5738Z" fill="#2BF2F1" stroke="#002522" stroke-width="0.115265" stroke-miterlimit="10"/>
<path d="M25.5945 63.831L21.7222 63.4778L20.4893 58.0635L23.038 58.2946L25.5945 63.831Z" fill="white" stroke="#002522" stroke-width="0.115265" stroke-miterlimit="10"/>
<path d="M28.8673 61.949L25.5959 63.8316L23.0394 58.2953L26.3108 56.4126L28.8673 61.949Z" fill="#D3D3D3" stroke="#002522" stroke-width="0.115265" stroke-miterlimit="10"/>
<path d="M18.4797 49.1577C19.767 54.1902 16.7416 59.3189 11.7218 60.6121C6.70202 61.9027 1.58639 58.8697 0.296469 53.8371C-0.99086 48.8045 2.03449 43.6758 7.05429 42.3826C12.0741 41.092 17.1897 44.1251 18.4797 49.1577Z" fill="white" stroke="#002522" stroke-width="0.115265" stroke-miterlimit="10"/>
<path d="M10.5997 58.0152C7.62352 55.0315 6.0953 49.3107 7.18319 45.2364C7.72454 43.2109 8.80983 41.9748 10.1308 41.6086L8.07163 42.1618C6.73767 42.5175 5.64202 43.7588 5.09549 45.7973C4.0076 49.8717 5.53582 55.595 8.51196 58.5761C9.97283 60.0407 11.5114 60.5705 12.8298 60.2511L12.8687 60.2407C12.8894 60.2355 12.9101 60.2303 12.9308 60.2225L14.8372 59.7057C13.5369 59.9888 12.032 59.4512 10.5971 58.0152H10.5997Z" fill="#2BF2F1" stroke="#002522" stroke-width="0.115265" stroke-miterlimit="10"/>
<path d="M10.5351 41.5256C9.03541 41.7359 7.78175 43.0083 7.18601 45.2338C6.09813 49.3082 7.62634 55.0315 10.6025 58.0126C12.0349 59.4487 13.5424 59.9862 14.8426 59.7031C14.8426 59.7031 29.2156 56.078 40.066 60.1887C40.066 60.1887 31.9949 28.7312 32.0882 27.1367C17.5468 39.43 10.5351 41.523 10.5351 41.523V41.5256Z" fill="white" stroke="#002522" stroke-width="0.115265" stroke-miterlimit="10"/>
<path d="M46.6652 28.0427C52.3119 33.7038 55.2155 44.5662 53.1485 52.2994C51.0815 60.0353 44.8262 61.7154 39.1796 56.0518C33.5329 50.3908 30.6293 39.5284 32.6963 31.7951C34.7633 24.0593 41.0186 22.3791 46.6652 28.0427Z" fill="#2BF2F1" stroke="#002522" stroke-width="0.115265" stroke-miterlimit="10"/>
<path d="M38.4703 24.8669L38.3874 24.8851C38.4159 24.8773 38.4444 24.8721 38.4729 24.8669H38.4703Z" fill="#FFCE9B" stroke="#002522" stroke-width="0.115265" stroke-miterlimit="10" stroke-linecap="round"/>
<path d="M39.1795 56.0543C33.5303 50.3907 30.6293 39.5309 32.6963 31.7976C33.7246 27.9543 35.7864 25.6068 38.2937 24.9109L34.3851 25.96C31.8545 26.6378 29.7719 28.9905 28.7359 32.8623C26.6689 40.5981 29.5699 51.4579 35.2191 57.119C37.9932 59.9001 40.915 60.9051 43.4119 60.2974L43.487 60.2793C43.5259 60.2689 43.5673 60.2585 43.6062 60.2481L47.2247 59.2665C44.7588 59.804 41.8967 58.7835 39.177 56.0569L39.1795 56.0543Z" fill="#2BF2F1" stroke="#002522" stroke-width="0.115265" stroke-miterlimit="10"/>
<path d="M46.0556 30.315C50.7879 35.0594 53.2201 44.1585 51.4873 50.6402C50.332 54.969 47.6097 57.0335 44.517 56.5167C46.0116 55.5948 47.216 53.8446 47.8869 51.3283C49.6171 44.8467 47.1875 35.7475 42.4552 31.0032C40.883 29.4269 39.2563 28.531 37.723 28.2687C40.0774 26.8145 43.1598 27.4118 46.0556 30.315Z" fill="#12C6C1" stroke="#002522" stroke-width="0.115265" stroke-miterlimit="10"/>
<path d="M42.4559 31.0003C47.1881 35.7446 49.6203 44.8438 47.8875 51.3254C47.2166 53.8417 46.0122 55.592 44.5177 56.5138C42.9843 56.2515 41.3576 55.3557 39.7854 53.7794C35.0531 49.035 32.6209 39.9359 34.3511 33.4569C35.022 30.9406 36.2264 29.1903 37.7236 28.2659C39.257 28.5281 40.8836 29.424 42.4559 31.0003Z" fill="#D3D3D3" stroke="#002522" stroke-width="0.115265" stroke-miterlimit="10"/>
<path d="M43.0583 41.8713C44.1384 46.0859 42.1906 50.368 38.5799 52.4065C32.0862 43.728 34.06 34.7976 34.06 34.7976C34.1869 34.7976 34.3164 34.8028 34.4433 34.808C38.44 35.0105 42.0119 37.7787 43.0583 41.8687V41.8713Z" fill="white" stroke="#002522" stroke-width="0.115265" stroke-miterlimit="10"/>
<path d="M42.0083 41.1354C42.4719 41.6002 42.7128 42.4909 42.5418 43.1271C42.4046 43.6517 42.029 43.836 41.6405 43.6231C41.6871 43.5426 41.7311 43.4465 41.7596 43.3323C41.9306 42.696 41.6897 41.8053 41.2286 41.3431C41.1483 41.2626 41.0654 41.1977 40.9825 41.1535C41.2131 40.7796 41.6275 40.7536 42.0057 41.1354H42.0083Z" fill="#EFEBE7" stroke="#002522" stroke-width="0.115265" stroke-miterlimit="10"/>
<path d="M41.2293 41.3434C41.6903 41.8056 41.9312 42.6963 41.7603 43.3325C41.7318 43.4468 41.6877 43.5429 41.6411 43.6234C41.5608 43.5792 41.4779 43.5169 41.395 43.4338C40.9314 42.969 40.6957 42.0783 40.8615 41.4421C40.8925 41.3304 40.934 41.2317 40.9832 41.1538C41.0635 41.198 41.1464 41.2603 41.2293 41.3434Z" fill="#12C6C1" stroke="#002522" stroke-width="0.115265" stroke-miterlimit="10"/>
<path d="M61.8058 25.8234L61.8922 26.1092C62.9106 26.7176 64.1098 27.1301 65.4135 27.4299C67.1944 27.8393 69.1701 28.0374 71.1458 28.2358C73.1215 28.4342 75.0975 28.6325 76.8784 29.0419C78.1821 29.3417 79.3813 29.754 80.3996 30.3624L80.3132 30.0765C79.2948 29.4681 78.0959 29.0557 76.792 28.7561C75.0111 28.3469 73.0351 28.1484 71.0593 27.95C69.0834 27.7516 67.108 27.5534 65.327 27.144C64.0234 26.8445 62.8241 26.4317 61.8058 25.8234Z" fill="#60D06F" stroke="#082422" stroke-width="0.115265" stroke-miterlimit="10"/>
<path d="M80.3079 30.086L80.3944 30.3718C82.6454 27.9366 84.8962 25.5014 87.1472 23.0659L87.0608 22.78C84.8097 25.2153 82.5589 27.6505 80.3079 30.086Z" fill="#60D06F" stroke="#082422" stroke-width="0.115265" stroke-miterlimit="10"/>
<path d="M83.5406 21.4503C81.7597 21.0409 79.784 20.8427 77.8083 20.6443C75.8326 20.4459 73.8567 20.2476 72.0758 19.8385C70.7722 19.5388 69.5729 19.1262 68.5546 18.5178C66.3036 20.953 64.0528 23.3881 61.8019 25.8235C62.8202 26.4319 64.0195 26.8444 65.3231 27.1441C67.104 27.5535 69.0797 27.7517 71.0554 27.9501C73.0311 28.1485 75.007 28.3468 76.788 28.7562C78.0916 29.0559 79.2907 29.4682 80.3091 30.0766C82.5601 27.6414 84.8108 25.2063 87.0618 22.7709C86.0435 22.1628 84.8442 21.75 83.5407 21.4505L83.5406 21.4503Z" fill="#60D06F" stroke="#082422" stroke-width="0.115265" stroke-miterlimit="10"/>
<path d="M82.0714 22.3416C80.5207 21.9847 78.8245 21.7852 77.1282 21.5856C75.4323 21.386 73.7363 21.1867 72.1856 20.8298C71.6172 20.6989 71.068 20.5469 70.5456 20.3662C70.4643 20.3467 70.3775 20.3753 70.3298 20.4268C69.876 20.918 69.0695 21.1876 68.4549 21.0461C68.3589 21.0241 68.2676 20.9919 68.1829 20.949C68.1687 20.9416 68.1532 20.9363 68.1368 20.9326C68.0557 20.9139 67.9553 20.9383 67.8946 21.0041C67.0043 21.9674 66.1144 22.9309 65.2241 23.8942C65.151 23.9731 65.1713 24.0726 65.257 24.1158C65.8828 24.4333 66.026 25.0847 65.4982 25.6555C65.4403 25.7181 65.4481 25.7945 65.5261 25.8215C66.0436 25.9999 66.5868 26.15 67.1496 26.2795C68.7004 26.6364 70.3963 26.8358 72.0923 27.0354C73.7885 27.2349 75.4845 27.4345 77.0351 27.7912C77.6041 27.9221 78.1536 28.0743 78.6763 28.2553C78.7689 28.2775 78.8678 28.2441 78.9219 28.1857C79.3751 27.6953 80.1797 27.426 80.7932 27.5672C80.8899 27.5896 80.9819 27.6218 81.0668 27.6652C81.0796 27.6717 81.0934 27.6767 81.1081 27.6801C81.1813 27.6969 81.2719 27.6744 81.327 27.6152C82.2252 26.6432 83.1232 25.6713 84.0214 24.6993C84.0873 24.628 84.0699 24.5379 83.9928 24.4986C83.368 24.1801 83.2255 23.5282 83.7532 22.9571C83.8041 22.9019 83.7965 22.8352 83.7283 22.8115C83.2007 22.628 82.646 22.4741 82.0712 22.3417L82.0714 22.3416Z" fill="#80E58A" stroke="#082422" stroke-width="0.115265" stroke-miterlimit="10"/>
<path d="M77.5005 22.8551C77.0914 22.7608 76.644 22.6847 76.164 22.6275C74.5325 22.4329 72.9274 22.3954 71.7187 22.4195C71.1095 22.4368 70.5887 22.4813 70.1661 22.58C69.7438 22.6785 69.4173 22.8341 69.2032 23.0663C68.9895 23.2973 68.9076 23.5835 68.958 23.8876C69.0086 24.1913 69.1938 24.5099 69.5213 24.7978C69.9766 25.211 70.7366 25.5396 71.7177 25.7652C72.1268 25.8594 72.5742 25.9356 73.0542 25.9927C74.6858 26.1873 76.2906 26.2249 77.4995 26.2007C78.1087 26.1835 78.6295 26.1389 79.0521 26.0403C79.4744 25.9417 79.8007 25.7862 80.0154 25.5541C80.2288 25.3232 80.3109 25.0367 80.2605 24.7326C80.2099 24.4288 80.0244 24.1103 79.6973 23.8226C79.2418 23.4091 78.482 23.0808 77.5007 22.855L77.5005 22.8551Z" fill="#60D06F" stroke="#082422" stroke-width="0.115265" stroke-miterlimit="10"/>
<path d="M41.898 45.3325L41.9059 45.5564C43.4434 45.9572 44.7565 46.5007 45.9394 47.1268C47.5557 47.9819 48.929 48.9904 50.3028 49.9991C51.6764 51.0078 53.0503 52.0166 54.666 52.8714C55.8489 53.4975 57.1618 54.0407 58.6992 54.4415L58.6913 54.2176C57.1536 53.8168 55.841 53.2733 54.6581 52.6475C53.0421 51.7926 51.6685 50.7839 50.2949 49.7752C48.9211 48.7664 47.5477 47.7577 45.9315 46.9028C44.7486 46.2771 43.4355 45.7333 41.898 45.3325Z" fill="#60D06F" stroke="#082422" stroke-width="0.115265" stroke-miterlimit="10"/>
<path d="M58.6917 54.2204L58.6996 54.4443C61.4968 52.6693 64.2941 50.894 67.0913 49.119L67.0834 48.895C64.2861 50.6701 61.4889 52.4453 58.6917 54.2204Z" fill="#60D06F" stroke="#082422" stroke-width="0.115265" stroke-miterlimit="10"/>
<path d="M54.322 41.5774C53.1391 40.9514 51.8265 40.4081 50.2888 40.0073C47.4916 41.7823 44.6943 43.5576 41.8971 45.3326C43.4345 45.7334 44.7477 46.2769 45.9306 46.9029C47.5468 47.758 48.9201 48.7665 50.294 49.7752C51.6676 50.784 53.0414 51.7927 54.6572 52.6476C55.8401 53.2736 57.1529 53.8168 58.6904 54.2176C61.4876 52.4426 64.2848 50.6673 67.0821 48.8923C65.5446 48.4916 64.2315 47.948 63.0486 47.322C61.4326 46.4669 60.059 45.4584 58.6852 44.4497C57.3116 43.441 55.9375 42.4323 54.3217 41.5771L54.322 41.5774Z" fill="#60D06F" stroke="#082422" stroke-width="0.115265" stroke-miterlimit="10"/>
<path d="M53.926 42.6847C53.4103 42.4116 52.8701 42.1542 52.297 41.9178C52.2218 41.8867 52.1085 41.8983 52.0451 41.9386C51.3893 42.3549 50.2459 42.4316 49.394 42.1719C49.2778 42.1363 49.1038 42.149 49.0133 42.2065C47.9067 42.9086 46.8005 43.611 45.6939 44.3131C45.6184 44.3611 45.6318 44.4204 45.7054 44.4594C45.7203 44.4672 45.7375 44.4743 45.757 44.4801C45.8721 44.5152 45.9729 44.5565 46.06 44.6025C46.6177 44.8977 46.6036 45.3922 46.0397 45.75C45.9726 45.7925 45.9702 45.8534 46.0396 45.8902C46.6223 46.1322 47.1564 46.3873 47.6668 46.6574C49.074 47.4022 50.3006 48.2617 51.5269 49.121C52.7535 49.9803 53.9798 50.8398 55.3869 51.5843C55.9034 51.8576 56.4441 52.1156 57.0181 52.3522C57.1035 52.3876 57.233 52.3736 57.3049 52.328C57.9608 51.9117 59.105 51.8344 59.9582 52.0936C60.0633 52.1256 60.2201 52.1137 60.3022 52.0617C61.4184 51.3532 62.5349 50.6447 63.6513 49.9362C63.7197 49.8929 63.7083 49.8392 63.6419 49.8039C63.6286 49.7969 63.613 49.7907 63.5956 49.7853C63.4795 49.7501 63.3777 49.7085 63.29 49.6622C62.7333 49.3675 62.7473 48.8743 63.3106 48.5169C63.3694 48.4797 63.371 48.4263 63.3102 48.3944C62.7145 48.1487 62.1682 47.8883 61.6461 47.6122C60.2393 46.8676 59.0124 46.0081 57.7861 45.1486C56.5595 44.289 55.3332 43.4298 53.9258 42.685L53.926 42.6847Z" fill="#80E58A" stroke="#082422" stroke-width="0.115265" stroke-miterlimit="10"/>
<path d="M55.5069 45.2473C54.6166 44.776 53.6756 44.4474 52.7566 44.3012C52.1114 44.1939 51.4913 44.1697 50.9667 44.2142C50.4416 44.259 50.0161 44.37 49.7506 44.5386C49.4841 44.7077 49.4022 44.9187 49.4647 45.1674C49.527 45.4165 49.7303 45.7053 50.0253 46.0348C50.6269 46.6865 51.5393 47.5353 52.7235 48.3614C53.0716 48.6043 53.4341 48.8255 53.8051 49.0221C54.6957 49.4933 55.6367 49.8223 56.5556 49.9682C57.2008 50.0755 57.8212 50.0997 58.3458 50.0551C58.8706 50.0104 59.2964 49.8994 59.5616 49.7311C59.8281 49.5619 59.91 49.351 59.8478 49.102C59.7855 48.8529 59.5822 48.5641 59.2872 48.2346C58.6859 47.5831 57.7732 46.7341 56.589 45.9082C56.2406 45.6651 55.8784 45.4439 55.5072 45.2476L55.5069 45.2473Z" fill="#60D06F" stroke="#082422" stroke-width="0.115265" stroke-miterlimit="10"/>
<path d="M91.2984 35.6578L91.4003 35.8571C92.9625 35.5657 94.3818 35.4988 95.7181 35.5621C97.5438 35.6484 99.2142 35.9768 100.885 36.3052C102.556 36.6337 104.227 36.9621 106.052 37.0483C107.388 37.1116 108.807 37.0447 110.37 36.7532L110.268 36.5539C108.705 36.8455 107.287 36.912 105.95 36.849C104.125 36.7629 102.454 36.4344 100.783 36.1058C99.1124 35.7774 97.4418 35.4488 95.6163 35.3628C94.2801 35.2998 92.8607 35.3663 91.2984 35.6578Z" fill="#60D06F" stroke="#082422" stroke-width="0.115265" stroke-miterlimit="10"/>
<path d="M110.264 36.5614L110.366 36.7607C112.15 33.9639 113.934 31.167 115.717 28.3702L115.615 28.1709C113.832 30.9676 112.048 33.7646 110.264 36.5614Z" fill="#60D06F" stroke="#082422" stroke-width="0.115265" stroke-miterlimit="10"/>
<path d="M100.963 26.973C99.6271 26.9097 98.2083 26.9765 96.6458 27.2681C94.8622 30.0647 93.0787 32.8617 91.2951 35.6584C92.8573 35.3669 94.2766 35.3001 95.6129 35.3634C97.4385 35.4496 99.109 35.778 100.78 36.1064C102.451 36.4349 104.122 36.7633 105.947 36.8496C107.283 36.9129 108.702 36.8459 110.264 36.5545C112.048 33.7578 113.832 30.9609 115.615 28.1642C114.053 28.4556 112.634 28.5224 111.297 28.4592C109.472 28.3728 107.801 28.0445 106.13 27.7161C104.459 27.3876 102.788 27.0593 100.963 26.9729L100.963 26.973Z" fill="#60D06F" stroke="#082422" stroke-width="0.115265" stroke-miterlimit="10"/>
<path d="M101.073 28.1439C100.49 28.1162 99.8921 28.113 99.2729 28.143C99.1917 28.1468 99.0939 28.2056 99.0536 28.269C98.6355 28.9249 97.6321 29.4808 96.7506 29.6083C96.6303 29.6255 96.4781 29.711 96.4204 29.8016C95.7148 30.9079 95.0096 32.0144 94.304 33.1207C94.2559 33.1963 94.2931 33.2443 94.3763 33.2482C94.393 33.2489 94.4116 33.2481 94.4317 33.2451C94.5508 33.2278 94.6596 33.2223 94.758 33.2269C95.388 33.2567 95.5842 33.7103 95.2246 34.274C95.1818 34.3411 95.2054 34.3972 95.2837 34.401C95.914 34.3721 96.5056 34.3757 97.0821 34.403C98.6717 34.4783 100.146 34.7343 101.62 34.9902C103.095 35.246 104.569 35.5021 106.158 35.5772C106.742 35.6047 107.34 35.6081 107.96 35.5781C108.053 35.5737 108.164 35.5059 108.21 35.4341C108.628 34.7782 109.632 34.2214 110.514 34.0929C110.623 34.0772 110.76 33.9996 110.813 33.9176C111.524 32.8014 112.236 31.6851 112.948 30.5687C112.992 30.5004 112.959 30.4567 112.883 30.453C112.868 30.4523 112.852 30.4533 112.834 30.4559C112.714 30.4734 112.604 30.4791 112.505 30.4745C111.876 30.4447 111.68 29.9923 112.039 29.4291C112.077 29.3704 112.056 29.3215 111.987 29.3185C111.344 29.3496 110.739 29.3463 110.149 29.3185C108.56 29.2433 107.085 28.9874 105.611 28.7313C104.137 28.4753 102.662 28.2195 101.073 28.1443L101.073 28.1439Z" fill="#80E58A" stroke="#082422" stroke-width="0.115265" stroke-miterlimit="10"/>
<path d="M103.589 29.7901C102.583 29.7424 101.592 29.8453 100.698 30.1041C100.068 30.2815 99.4959 30.5235 99.0395 30.787C98.5828 31.051 98.2443 31.3325 98.075 31.598C97.9051 31.8645 97.9201 32.0903 98.0819 32.2889C98.2435 32.4878 98.5498 32.6627 98.9563 32.8354C99.7768 33.1693 100.962 33.5492 102.384 33.793C102.802 33.8647 103.224 33.9106 103.643 33.9307C104.649 33.9783 105.64 33.8755 106.535 33.6166C107.164 33.4392 107.737 33.197 108.193 32.9335C108.65 32.6697 108.988 32.3881 109.157 32.1228C109.327 31.8563 109.312 31.6306 109.151 31.4317C108.989 31.2327 108.683 31.0578 108.276 30.8851C107.456 30.5514 106.271 30.1713 104.849 29.9277C104.43 29.856 104.009 29.8099 103.589 29.7902L103.589 29.7901Z" fill="#60D06F" stroke="#082422" stroke-width="0.115265" stroke-miterlimit="10"/>
<path d="M68.4978 46.0229L68.3562 46.1962C69.2459 47.516 69.8731 48.7942 70.3483 50.0481C70.9977 51.7611 71.3637 53.4282 71.7299 55.0959C72.096 56.7634 72.4622 58.4311 73.1114 60.1436C73.5865 61.3974 74.2138 62.6753 75.1034 63.9951L75.2451 63.8218C74.3552 62.5018 73.7283 61.2239 73.253 59.9703C72.6037 58.2576 72.2376 56.5901 71.8716 54.9226C71.5053 53.2549 71.1395 51.5876 70.4899 49.8747C70.0146 48.6211 69.3875 47.3426 68.4978 46.0229Z" fill="#60D06F" stroke="#082422" stroke-width="0.115265" stroke-miterlimit="10"/>
<path d="M75.2434 63.8207L75.1017 63.994C78.3707 64.5155 81.6399 65.0368 84.9089 65.5583L85.0505 65.385C81.7815 64.8635 78.5124 64.3422 75.2434 63.8207Z" fill="#60D06F" stroke="#082422" stroke-width="0.115265" stroke-miterlimit="10"/>
<path d="M80.2974 51.4376C79.8222 50.1838 79.1952 48.906 78.3054 47.5861C75.0364 47.0646 71.7673 46.5433 68.4983 46.0218C69.388 47.3415 70.0152 48.6198 70.4904 49.8736C71.1398 51.5867 71.5058 53.2538 71.872 54.9215C72.2381 56.589 72.6043 58.2567 73.2535 59.9692C73.7286 61.223 74.3559 62.5009 75.2455 63.8206C78.5145 64.3422 81.7836 64.8635 85.0526 65.385C84.1629 64.0652 83.5357 62.787 83.0605 61.5331C82.4113 59.8203 82.0451 58.153 81.6789 56.4853C81.3128 54.8178 80.9464 53.1499 80.2974 51.4372L80.2974 51.4376Z" fill="#60D06F" stroke="#082422" stroke-width="0.115265" stroke-miterlimit="10"/>
<path d="M79.273 52.0074C79.0658 51.4607 78.8301 50.9095 78.5557 50.3522C78.5198 50.2791 78.427 50.2127 78.353 50.201C77.5864 50.0788 76.6777 49.3786 76.2094 48.6191C76.1456 48.5154 76.0067 48.4096 75.9009 48.3928C74.6077 48.1864 73.3145 47.9803 72.0213 47.774C71.933 47.76 71.904 47.8133 71.9336 47.8914C71.9396 47.9071 71.9478 47.9238 71.9586 47.9411C72.0219 48.0437 72.0703 48.1415 72.1054 48.2338C72.3294 48.8249 71.9929 49.1866 71.334 49.0814C71.2556 49.0688 71.2136 49.113 71.2415 49.1865C71.5194 49.7544 71.7521 50.2997 71.9572 50.8407C72.5225 52.3322 72.8767 53.7901 73.2308 55.2476C73.5852 56.7053 73.9392 58.163 74.5047 59.6543C74.7122 60.2017 74.948 60.7536 75.2229 61.3116C75.2637 61.3947 75.3701 61.4699 75.4542 61.4835C76.2208 61.6057 77.1304 62.306 77.6 63.0659C77.6578 63.1595 77.7834 63.2545 77.8793 63.2699C79.1839 63.478 80.4888 63.6861 81.7936 63.8943C81.8735 63.9071 81.9003 63.8593 81.8737 63.7888C81.8684 63.7747 81.8608 63.7597 81.8512 63.7442C81.7873 63.6407 81.7382 63.5421 81.7029 63.4492C81.4794 62.8592 81.8148 62.4983 82.4732 62.6034C82.5418 62.6144 82.5782 62.5755 82.5535 62.5112C82.2684 61.932 82.03 61.3746 81.8201 60.8214C81.2549 59.3303 80.9005 57.8722 80.5465 56.4145C80.1923 54.9566 79.8381 53.4991 79.2726 52.0074L79.273 52.0074Z" fill="#80E58A" stroke="#082422" stroke-width="0.115265" stroke-miterlimit="10"/>
<path d="M78.7701 54.9785C78.4124 54.0347 77.9227 53.1645 77.3293 52.4458C76.9158 51.9377 76.4663 51.5086 76.0433 51.1943C75.6196 50.88 75.2272 50.6813 74.9168 50.6318C74.6053 50.5822 74.4048 50.6862 74.2878 50.9143C74.1704 51.1424 74.1327 51.494 74.1369 51.9367C74.159 52.8245 74.2844 54.0661 74.6288 55.4708C74.7301 55.8838 74.8564 56.29 75.0053 56.6834C75.3631 57.6273 75.8526 58.4977 76.4462 59.2162C76.8597 59.7243 77.3094 60.1536 77.7325 60.4678C78.1559 60.782 78.5486 60.9809 78.8586 61.0304C79.1701 61.0801 79.3705 60.976 79.4879 60.7479C79.6053 60.5197 79.6431 60.1682 79.6388 59.7255C79.6168 58.8381 79.4913 57.5961 79.1468 56.1915C79.0455 55.7782 78.9193 55.3721 78.7701 54.9788L78.7701 54.9785Z" fill="#60D06F" stroke="#082422" stroke-width="0.115265" stroke-miterlimit="10"/>
<path d="M61.0393 48.7739L61.2616 48.7987C61.8808 47.3327 62.6083 46.11 63.3985 45.0283C64.4779 43.5504 65.6735 42.3357 66.8694 41.1205C68.0653 39.9055 69.2613 38.6903 70.3403 37.2129C71.1305 36.1313 71.8578 34.9087 72.4769 33.4427L72.2545 33.418C71.6354 34.8842 70.9079 36.1064 70.118 37.1881C69.0389 38.6658 67.843 39.8807 66.647 41.0957C65.4511 42.3109 64.2552 43.5256 63.1761 45.0035C62.3862 46.0852 61.6584 47.3079 61.0393 48.7739Z" fill="#60D06F" stroke="#082422" stroke-width="0.115265" stroke-miterlimit="10"/>
<path d="M72.2583 33.4139L72.4807 33.4387C71.1334 30.4067 69.7858 27.3747 68.4384 24.3427L68.2161 24.3179C69.5634 27.3499 70.911 30.3819 72.2583 33.4139Z" fill="#60D06F" stroke="#082422" stroke-width="0.115265" stroke-miterlimit="10"/>
<path d="M59.1372 35.9086C58.347 36.9903 57.6198 38.2126 57.0006 39.6788C58.348 42.7108 59.6956 45.7429 61.043 48.775C61.6621 47.309 62.3897 46.0862 63.1798 45.0046C64.2592 43.5266 65.4549 42.3119 66.6508 41.0967C67.8468 39.8817 69.0427 38.6665 70.1218 37.1891C70.912 36.1074 71.6392 34.8849 72.2584 33.4189C70.911 30.3869 69.5634 27.3548 68.216 24.3227C67.5969 25.7887 66.8693 27.0115 66.0791 28.0931C64.9998 29.5708 63.8041 30.7858 62.6081 32.001C61.4122 33.216 60.2162 34.4314 59.1369 35.9089L59.1372 35.9086Z" fill="#60D06F" stroke="#082422" stroke-width="0.115265" stroke-miterlimit="10"/>
<path d="M60.1756 36.4613C59.8311 36.933 59.4984 37.4312 59.1817 37.9652C59.1401 38.0352 59.1351 38.1493 59.1657 38.2179C59.4815 38.9289 59.3911 40.0739 59.0109 40.881C58.959 40.991 58.9462 41.1654 58.9898 41.2635C59.5223 42.463 60.0552 43.6623 60.5877 44.8618C60.6242 44.9437 60.6847 44.939 60.7338 44.8717C60.7437 44.8581 60.7533 44.8421 60.7618 44.8236C60.8131 44.7146 60.8686 44.6206 60.9267 44.5409C61.2992 44.0308 61.7854 44.1169 62.0567 44.7281C62.0889 44.8008 62.1487 44.8121 62.1951 44.7486C62.5188 44.2059 62.8482 43.7135 63.1891 43.2466C64.1289 41.9596 65.1558 40.8684 66.1824 39.7773C67.209 38.686 68.2358 37.595 69.1754 36.308C69.5203 35.8355 69.8535 35.3369 70.1706 34.8022C70.2179 34.7226 70.2228 34.5922 70.1883 34.5142C69.8725 33.8032 69.9624 32.6573 70.3423 31.849C70.3892 31.7494 70.4001 31.5921 70.3607 31.5031C69.8233 30.2931 69.2859 29.0828 68.7485 27.8725C68.7156 27.7984 68.661 27.8019 68.6165 27.8626C68.6076 27.8748 68.5992 27.8893 68.5914 27.9058C68.5397 28.0159 68.4839 28.1108 68.4255 28.191C68.0536 28.7001 67.5687 28.6145 67.2976 28.0038C67.2693 27.9401 67.2169 27.9308 67.1766 27.9864C66.8475 28.5414 66.511 29.0452 66.1624 29.5227C65.2229 30.8095 64.196 31.901 63.1691 32.992C62.1423 34.0833 61.1157 35.1743 60.1758 36.4616L60.1756 36.4613Z" fill="#80E58A" stroke="#082422" stroke-width="0.115265" stroke-miterlimit="10"/>
<path d="M62.9356 35.2663C62.3409 36.0806 61.8797 36.9659 61.6019 37.856C61.4022 38.4801 61.2883 39.0916 61.256 39.6183C61.224 40.1455 61.2717 40.5836 61.3996 40.8714C61.5279 41.1604 61.7243 41.2723 61.979 41.2465C62.234 41.221 62.5487 41.0614 62.9169 40.8169C63.6478 40.3152 64.6184 39.5339 65.6062 38.4798C65.8966 38.1699 66.1676 37.8426 66.4156 37.5034C67.0103 36.6888 67.4718 35.8035 67.7494 34.9134C67.949 34.2893 68.063 33.6776 68.0952 33.1509C68.1273 32.6239 68.0795 32.1856 67.9519 31.898C67.8236 31.6091 67.6272 31.4972 67.3722 31.5227C67.1173 31.5481 66.8025 31.7077 66.4344 31.9523C65.7037 32.4538 64.7328 33.2353 63.7453 34.2894C63.4547 34.5995 63.1837 34.9265 62.9359 35.2661L62.9356 35.2663Z" fill="#60D06F" stroke="#082422" stroke-width="0.115265" stroke-miterlimit="10"/>
<path d="M92.449 70.5306L92.6217 70.673C93.9397 69.7843 95.2158 69.1586 96.4674 68.6853C98.1773 68.0384 99.8411 67.6755 101.505 67.3125C103.169 66.9496 104.834 66.5865 106.543 65.9399C107.795 65.4665 109.071 64.8408 110.388 63.9521L110.216 63.8097C108.898 64.6986 107.622 65.3239 106.37 65.7974C104.661 66.4442 102.997 66.8071 101.333 67.17C99.6684 67.5331 98.0044 67.8958 96.2947 68.5428C95.0433 69.0163 93.767 69.6419 92.449 70.5306Z" fill="#60D06F" stroke="#082422" stroke-width="0.115265" stroke-miterlimit="10"/>
<path d="M110.216 63.8082L110.389 63.9506C110.914 60.6744 111.439 57.3979 111.964 54.1217L111.791 53.9792C111.266 57.2555 110.741 60.5319 110.216 63.8082Z" fill="#60D06F" stroke="#082422" stroke-width="0.115265" stroke-miterlimit="10"/>
<path d="M97.8707 58.7145C96.6191 59.1878 95.3434 59.8133 94.0253 60.7023C93.5003 63.9785 92.9754 67.2549 92.4504 70.5312C93.7683 69.6425 95.0445 69.0167 96.2961 68.5434C98.006 67.8966 99.6698 67.5337 101.334 67.1706C102.998 66.8077 104.662 66.4446 106.372 65.798C107.623 65.3247 108.899 64.699 110.217 63.8103C110.742 60.534 111.267 57.2576 111.792 53.9813C110.474 54.87 109.198 55.4958 107.946 55.9691C106.237 56.6157 104.573 56.9788 102.908 57.3419C101.244 57.7048 99.5799 58.0681 97.8703 58.7145L97.8707 58.7145Z" fill="#60D06F" stroke="#082422" stroke-width="0.115265" stroke-miterlimit="10"/>
<path d="M98.4365 59.7446C97.8908 59.951 97.3406 60.186 96.7843 60.4597C96.7113 60.4956 96.6449 60.5884 96.6331 60.6626C96.51 61.4309 95.8101 62.3403 95.0518 62.8079C94.9483 62.8716 94.8425 63.0106 94.8255 63.1167C94.6177 64.4128 94.4103 65.7088 94.2025 67.0049C94.1884 67.0934 94.2416 67.1226 94.3195 67.0932C94.3352 67.0872 94.3519 67.079 94.3691 67.0682C94.4716 67.005 94.5692 66.9567 94.6613 66.9218C95.2514 66.6986 95.6118 67.0368 95.5058 67.6972C95.4932 67.7758 95.5371 67.818 95.6106 67.7903C96.1775 67.513 96.7219 67.281 97.2619 67.0767C98.7507 66.5136 100.206 66.1621 101.66 65.8106C103.115 65.4589 104.57 65.1076 106.058 64.5443C106.605 64.3375 107.156 64.1025 107.713 63.8282C107.796 63.7875 107.871 63.681 107.885 63.5968C108.008 62.8285 108.708 61.9182 109.466 61.4492C109.56 61.3915 109.655 61.2658 109.67 61.1697C109.88 59.8622 110.089 58.5544 110.299 57.2467C110.312 57.1666 110.264 57.1396 110.194 57.1661C110.18 57.1714 110.165 57.179 110.149 57.1885C110.046 57.2524 109.948 57.3013 109.855 57.3365C109.266 57.5592 108.906 57.2219 109.012 56.5621C109.023 56.4934 108.984 56.4568 108.92 56.4814C108.342 56.7658 107.786 57.0035 107.233 57.2125C105.745 57.7756 104.29 58.1273 102.835 58.4787C101.38 58.8302 99.9255 59.1817 98.4366 59.745L98.4365 59.7446Z" fill="#80E58A" stroke="#082422" stroke-width="0.115265" stroke-miterlimit="10"/>
<path d="M101.4 60.255C100.458 60.6113 99.5888 61.1001 98.8709 61.6933C98.3635 62.1066 97.9347 62.5563 97.6206 62.9797C97.3063 63.4036 97.1075 63.7966 97.0578 64.1077C97.0077 64.4199 97.1112 64.6211 97.3386 64.739C97.5661 64.8573 97.9167 64.896 98.3584 64.8928C99.2441 64.8729 100.483 64.7502 101.885 64.4084C102.297 64.3078 102.702 64.1822 103.095 64.0339C104.037 63.6774 104.906 63.1888 105.624 62.5954C106.132 62.1821 106.561 61.7322 106.875 61.3088C107.189 60.8851 107.388 60.4919 107.437 60.1812C107.488 59.869 107.384 59.6677 107.157 59.5495C106.929 59.4312 106.579 59.3925 106.137 59.3957C105.251 59.4156 104.012 59.5383 102.611 59.8803C102.198 59.9809 101.793 60.1063 101.4 60.255L101.4 60.255Z" fill="#60D06F" stroke="#082422" stroke-width="0.115265" stroke-miterlimit="10"/>
<path d="M42.5975 36.795L42.8354 36.9756C44.0171 36.8696 45.2303 36.4987 46.4617 35.9751C48.144 35.2597 49.8598 34.2589 51.5758 33.2582C53.2918 32.2575 55.0079 31.2565 56.6901 30.5412C57.9216 30.0175 59.1346 29.6465 60.3163 29.5405L60.0784 29.3599C58.8967 29.4659 57.6839 29.8367 56.4523 30.3605C54.7703 31.0761 53.0539 32.0768 51.3379 33.0775C49.6217 34.0785 47.9061 35.0791 46.2239 35.7945C44.9926 36.3183 43.7793 36.689 42.5975 36.795Z" fill="#60D06F" stroke="#082422" stroke-width="0.115265" stroke-miterlimit="10"/>
<path d="M60.0799 29.3568L60.3178 29.5374C60.7098 26.2425 61.1016 22.9478 61.4934 19.6528L61.2555 19.4722C60.8635 22.7671 60.4717 26.0617 60.0799 29.3568Z" fill="#60D06F" stroke="#082422" stroke-width="0.115265" stroke-miterlimit="10"/>
<path d="M57.6287 20.4757C55.9464 21.191 54.2306 22.1919 52.5146 23.1926C50.7986 24.1933 49.0825 25.1943 47.4004 25.9098C46.169 26.4334 44.9558 26.8043 43.7741 26.9103C43.3821 30.2052 42.9903 33.4999 42.5985 36.795C43.7802 36.689 44.9934 36.3181 46.2249 35.7945C47.9071 35.0791 49.6229 34.0783 51.3389 33.0776C53.0549 32.0769 54.7711 31.0759 56.4533 30.3606C57.6847 29.8369 58.8977 29.4659 60.0795 29.3599C60.4714 26.065 60.8633 22.7702 61.255 19.4752C60.0735 19.5813 58.8601 19.952 57.6289 20.4758L57.6287 20.4757Z" fill="#60D06F" stroke="#082422" stroke-width="0.115265" stroke-miterlimit="10"/>
<path d="M56.9638 22.0588C55.499 22.6817 54.0088 23.5177 52.5186 24.3537C51.0286 25.1894 49.5388 26.0253 48.0739 26.6483C47.537 26.8765 47.0032 27.0765 46.4743 27.2373C46.397 27.2694 46.3435 27.3436 46.3351 27.4134C46.2561 28.0779 45.7616 28.7704 45.181 29.0174C45.0904 29.056 44.9976 29.0836 44.9038 29.0986C44.888 29.101 44.8723 29.1059 44.8569 29.1125C44.7803 29.1451 44.7133 29.2238 44.7028 29.3128C44.5476 30.6163 44.3928 31.9197 44.2377 33.2232C44.2248 33.3301 44.2997 33.3987 44.3944 33.3834C45.0874 33.2723 45.5857 33.7155 45.4936 34.4881C45.4834 34.5728 45.5346 34.6301 45.6136 34.6061C46.1372 34.4462 46.665 34.2483 47.1967 34.0222C48.6615 33.3993 50.1513 32.5634 51.6414 31.7276C53.1316 30.8917 54.6216 30.0559 56.0862 29.4328C56.6236 29.2042 57.1579 29.0043 57.6872 28.8434C57.7751 28.807 57.8356 28.7217 57.8451 28.6427C57.9241 27.9791 58.4173 27.2879 58.9969 27.0415C59.0882 27.0027 59.1817 26.9747 59.2758 26.9599C59.29 26.9576 59.3041 26.9535 59.318 26.9477C59.3871 26.9182 59.4472 26.8468 59.4571 26.7664C59.6136 25.4512 59.7699 24.1362 59.9264 22.821C59.9379 22.7245 59.8709 22.6618 59.7855 22.6753C59.0926 22.7849 58.5946 22.3409 58.6865 21.5682C58.6953 21.4935 58.65 21.444 58.5809 21.4649C58.0461 21.6266 57.5067 21.8282 56.9637 22.059L56.9638 22.0588Z" fill="#80E58A" stroke="#082422" stroke-width="0.115265" stroke-miterlimit="10"/>
<path d="M53.5659 25.1625C53.1794 25.3268 52.7725 25.5282 52.3505 25.7642C50.9155 26.5661 49.5942 27.4797 48.6299 28.21C48.1469 28.5822 47.7516 28.9245 47.4674 29.2529C47.1834 29.5811 47.0103 29.899 46.9733 30.213C46.936 30.5256 47.0377 30.8055 47.257 31.0221C47.4763 31.2383 47.8132 31.3873 48.2473 31.4278C48.8585 31.4946 49.6666 31.3137 50.5932 30.9194C50.9797 30.7551 51.3866 30.5537 51.8087 30.3177C53.2436 29.5158 54.5647 28.6025 55.5292 27.8719C56.0122 27.4998 56.4076 27.1574 56.6917 26.829C56.9758 26.5009 57.1486 26.1831 57.1861 25.8689C57.2233 25.5565 57.1216 25.2762 56.9023 25.0596C56.683 24.8434 56.3459 24.6946 55.9122 24.6541C55.3008 24.5871 54.4929 24.7682 53.566 25.1623L53.5659 25.1625Z" fill="#60D06F" stroke="#082422" stroke-width="0.115265" stroke-miterlimit="10"/>
<path d="M74.9938 37.7791L74.93 38.0709C75.5221 39.1017 76.3673 40.0506 77.3586 40.9523C78.7127 42.1841 80.3396 43.3272 81.9664 44.4706C83.5932 45.614 85.2203 46.7575 86.5744 47.9893C87.5656 48.891 88.4109 49.8396 89.003 50.8704L89.0668 50.5787C88.4747 49.5478 87.6297 48.5993 86.6382 47.6975C85.284 46.466 83.657 45.3223 82.0302 44.1789C80.4031 43.0354 78.7765 41.8923 77.4223 40.6605C76.431 39.759 75.5859 38.8099 74.9938 37.7791Z" fill="#60D06F" stroke="#082422" stroke-width="0.115265" stroke-miterlimit="10"/>
<path d="M89.0595 50.5734L88.9957 50.8652C92.1449 49.8465 95.2939 48.8278 98.4431 47.8089L98.5069 47.5171C95.3577 48.5358 92.2088 49.5545 89.0595 50.5734Z" fill="#60D06F" stroke="#082422" stroke-width="0.115265" stroke-miterlimit="10"/>
<path d="M96.085 44.6363C94.7309 43.4046 93.104 42.2614 91.4773 41.1181C89.8505 39.9747 88.2234 38.8312 86.8692 37.5997C85.878 36.698 85.0328 35.7492 84.4407 34.7184C81.2916 35.737 78.1427 36.7557 74.9935 37.7746C75.5856 38.8054 76.4308 39.7542 77.422 40.6559C78.7762 41.8877 80.403 43.0308 82.0298 44.1742C83.6566 45.3176 85.2836 46.461 86.6378 47.6928C87.629 48.5945 88.4743 49.5431 89.0663 50.5739C92.2155 49.5552 95.3643 48.5366 98.5135 47.5177C97.9214 46.4871 97.0762 45.538 96.085 44.6366L96.085 44.6363Z" fill="#60D06F" stroke="#082422" stroke-width="0.115265" stroke-miterlimit="10"/>
<path d="M94.3693 44.6898C93.1905 43.6173 91.8082 42.6107 90.4258 41.604C89.0437 40.5974 87.6616 39.5911 86.4828 38.5186C86.0508 38.1254 85.6458 37.7232 85.2783 37.3091C85.2168 37.2523 85.1271 37.2346 85.0604 37.2561C84.4253 37.4618 83.5905 37.3012 83.1233 36.8761C83.0503 36.8098 82.9864 36.7369 82.9334 36.6578C82.9246 36.6445 82.9137 36.6322 82.9012 36.6209C82.8395 36.5648 82.7401 36.5368 82.6551 36.5644C81.4093 36.9678 80.1636 37.3714 78.9178 37.7748C78.8156 37.8078 78.7848 37.9046 78.8385 37.9843C79.2298 38.5684 79.0373 39.2069 78.2989 39.4459C78.2179 39.472 78.1875 39.5425 78.2423 39.6043C78.6068 40.014 79.0075 40.4115 79.4353 40.8008C80.614 41.8734 81.9962 42.8797 83.3783 43.8863C84.7606 44.8929 86.1427 45.8995 87.3215 46.9718C87.7539 47.3653 88.1592 47.7678 88.5269 48.1822C88.5968 48.247 88.6994 48.2664 88.775 48.2421C89.4092 48.0367 90.2423 48.1967 90.7086 48.6211C90.782 48.688 90.8466 48.7613 90.8995 48.8408C90.9075 48.8527 90.9171 48.8639 90.9282 48.8741C90.9839 48.9246 91.0739 48.9495 91.1508 48.9249C92.4078 48.5179 93.6646 48.1108 94.9216 47.7037C95.0138 47.6739 95.0424 47.5867 94.9944 47.5146C94.6045 46.93 94.7978 46.2914 95.5363 46.0522C95.6076 46.0291 95.6335 45.9672 95.5855 45.913C95.2148 45.494 94.8059 45.0874 94.369 44.6898L94.3693 44.6898Z" fill="#80E58A" stroke="#082422" stroke-width="0.115265" stroke-miterlimit="10"/>
<path d="M90.1335 42.8957C89.8226 42.6127 89.4695 42.3267 89.0787 42.0412C87.7503 41.0706 86.3686 40.2501 85.3025 39.6778C84.7628 39.3939 84.2868 39.1771 83.8702 39.0557C83.4538 38.9344 83.0932 38.9098 82.7933 39.0073C82.4944 39.1039 82.2835 39.3134 82.1793 39.6034C82.0755 39.8933 82.0818 40.2621 82.2272 40.6739C82.4231 41.2579 82.9259 41.9176 83.6718 42.596C83.9827 42.879 84.3359 43.165 84.7267 43.4505C86.055 44.4211 87.4365 45.2416 88.5028 45.8139C89.0426 46.0979 89.5185 46.3146 89.9352 46.436C90.3516 46.5573 90.7119 46.5818 91.0123 46.4847C91.3109 46.388 91.5221 46.1784 91.6263 45.8884C91.7301 45.5985 91.7235 45.2297 91.5783 44.8181C91.3825 44.2338 90.8796 43.5745 90.1338 42.8958L90.1335 42.8957Z" fill="#60D06F" stroke="#082422" stroke-width="0.115265" stroke-miterlimit="10"/>
<path d="M90.1081 25.2416L90.3173 25.3212C91.2814 24.0567 92.2901 23.0548 93.3244 22.2051C94.7373 21.0441 96.1975 20.167 97.6581 19.2895C99.1186 18.4122 100.579 17.5347 101.992 16.3741C103.026 15.5245 104.034 14.5227 104.998 13.2581L104.789 13.1785C103.825 14.4433 102.816 15.4448 101.782 16.2945C100.37 17.4554 98.9093 18.3326 97.4488 19.2099C95.9882 20.0874 94.5278 20.9644 93.1151 22.1255C92.0811 22.9753 91.0721 23.9771 90.1081 25.2416Z" fill="#60D06F" stroke="#082422" stroke-width="0.115265" stroke-miterlimit="10"/>
<path d="M104.793 13.1711L105.003 13.2507C104.451 9.97828 103.899 6.70577 103.347 3.43336L103.137 3.35376C103.689 6.62617 104.242 9.89868 104.793 13.1711Z" fill="#60D06F" stroke="#082422" stroke-width="0.115265" stroke-miterlimit="10"/>
<path d="M91.463 12.3089C90.4287 13.1585 89.4204 14.1601 88.4562 15.4249C89.0082 18.6974 89.5603 21.9699 90.1123 25.2424C91.0764 23.9779 92.0851 22.9759 93.1194 22.1262C94.5323 20.9652 95.9925 20.0881 97.4531 19.2106C98.9137 18.3333 100.374 17.4558 101.787 16.2952C102.821 15.4455 103.829 14.4437 104.794 13.1792C104.242 9.90671 103.689 6.63415 103.137 3.36168C102.173 4.62621 101.165 5.62816 100.13 6.47782C98.7175 7.63859 97.2572 8.51596 95.7966 9.39348C94.3361 10.2708 92.8754 11.1485 91.4626 12.309L91.463 12.3089Z" fill="#60D06F" stroke="#082422" stroke-width="0.115265" stroke-miterlimit="10"/>
<path d="M92.3315 13.1037C91.8806 13.4743 91.4345 13.8734 90.9951 14.3112C90.9374 14.3686 90.9042 14.4778 90.9168 14.5519C91.0461 15.3193 90.6741 16.4054 90.1053 17.0916C90.0276 17.1852 89.9719 17.3508 89.9897 17.4568C90.2077 18.7514 90.426 20.0458 90.644 21.3404C90.659 21.4288 90.7187 21.4394 90.7831 21.3865C90.796 21.3758 90.8093 21.3627 90.8221 21.3469C90.8989 21.2542 90.976 21.1771 91.0521 21.1145C91.5397 20.7138 91.9894 20.9187 92.1004 21.5783C92.1135 21.6568 92.1687 21.6827 92.2294 21.6329C92.6777 21.1883 93.1193 20.7939 93.5655 20.4272C94.7957 19.4161 96.0616 18.6164 97.3272 17.8168C98.5929 17.0169 99.8587 16.2174 101.089 15.2063C101.54 14.8351 101.987 14.4357 102.427 13.9972C102.493 13.932 102.53 13.807 102.516 13.7228C102.386 12.9554 102.758 11.8685 103.327 11.1808C103.397 11.0961 103.447 10.9466 103.431 10.8505C103.211 9.54455 102.991 8.23832 102.771 6.93208C102.757 6.85207 102.703 6.8418 102.645 6.88947C102.634 6.899 102.622 6.91101 102.61 6.925C102.533 7.01864 102.455 7.09658 102.379 7.15963C101.892 7.55956 101.443 7.35535 101.332 6.6963C101.321 6.62758 101.272 6.60539 101.219 6.64922C100.763 7.10421 100.312 7.50784 99.8553 7.88303C98.6254 8.89392 97.3594 9.69392 96.0935 10.4934C94.8276 11.2932 93.562 12.0928 92.3317 13.1041L92.3315 13.1037Z" fill="#80E58A" stroke="#082422" stroke-width="0.115265" stroke-miterlimit="10"/>
<path d="M95.3027 12.6366C94.5242 13.2763 93.8575 14.0181 93.3672 14.8104C93.0187 15.3648 92.7564 15.9283 92.5943 16.4302C92.4323 16.9327 92.3698 17.3688 92.4222 17.6795C92.4747 17.9913 92.6372 18.1488 92.8903 18.1875C93.1437 18.2266 93.4882 18.1508 93.9057 18.0062C94.7384 17.7032 95.8728 17.1895 97.0916 16.416C97.45 16.1885 97.7938 15.9395 98.1184 15.673C98.8969 15.0331 99.5639 14.2913 100.054 13.499C100.402 12.9446 100.665 12.3808 100.827 11.8789C100.989 11.3767 101.051 10.9403 100.999 10.63C100.947 10.3182 100.784 10.1607 100.531 10.1216C100.278 10.0825 99.933 10.1583 99.5155 10.303C98.6831 10.6058 97.5484 11.1196 96.3298 11.8932C95.9712 12.1208 95.6274 12.3697 95.303 12.6364L95.3027 12.6366Z" fill="#60D06F" stroke="#082422" stroke-width="0.115265" stroke-miterlimit="10"/>
</g>
<defs>
<clipPath id="clip0_664_11624">
<rect width="118" height="80" fill="white"/>
</clipPath>
</defs>
</svg>
