<svg width="79" height="80" viewBox="0 0 79 80" fill="none" xmlns="http://www.w3.org/2000/svg">
<g clip-path="url(#clip0_664_11585)">
<path d="M48.9626 66.7718L37.6006 45.3063L28.3091 47.4862C28.9565 48.3857 29.5747 49.3664 30.1591 50.3881L33.5893 49.299L44.9513 70.7646C45.25 71.3295 45.2117 71.8409 44.9083 72.222C44.9083 72.222 48.8749 68.2891 48.9561 68.1749C49.2199 67.8011 49.2444 67.3094 48.9596 66.7726L48.9626 66.7718Z" fill="#12C6C1" stroke="#002522" stroke-width="0.329214" stroke-miterlimit="10"/>
<path d="M44.952 70.7611L34.486 50.9878L33.5897 49.293L27.5089 51.5406C27.5547 51.5922 27.6005 51.6438 27.6471 51.6983C27.6617 51.7168 27.6762 51.7352 27.69 51.7507C27.7228 51.7898 27.7527 51.8297 27.7864 51.8718C27.8017 51.8932 27.8209 51.9168 27.8362 51.9383C27.8661 51.9782 27.896 52.0181 27.9237 52.0617C27.9398 52.0861 27.959 52.1098 27.9751 52.1342C28.0058 52.177 28.0343 52.2237 28.0658 52.2695C28.0819 52.2939 28.0981 52.3184 28.1142 52.3428C28.1481 52.3976 28.182 52.4523 28.2167 52.5101C28.2283 52.5293 28.239 52.5456 28.2506 52.5649C28.2968 52.6419 28.3431 52.7189 28.388 52.8027C28.3941 52.8138 28.4011 52.8279 28.4073 52.839C28.4452 52.9087 28.4869 52.9805 28.5256 53.0532C28.5387 53.0784 28.5527 53.1066 28.5667 53.1348C28.5984 53.1933 28.6309 53.2549 28.6604 53.3172C30.9049 57.7351 32.92 66.9608 33.9756 70.4739C34.3648 71.768 36.3916 72.9372 38.2221 72.9236L43.1317 72.8819C44.7547 72.8695 45.5673 71.9214 44.9512 70.7581L44.952 70.7611Z" fill="#2BF2F1" stroke="#002522" stroke-width="0.329214" stroke-miterlimit="10"/>
<path d="M41.5232 53.5577L36.9565 54.3439L33.8686 48.513L36.874 47.994L41.5232 53.5577Z" fill="white" stroke="#002522" stroke-width="0.329214" stroke-miterlimit="10"/>
<path d="M44.7127 50.391L41.5269 53.5568L36.8779 47.9933L40.0637 44.8275L44.7127 50.391Z" fill="#D3D3D3" stroke="#002522" stroke-width="0.329214" stroke-miterlimit="10"/>
<path d="M28.8094 38.9239C31.8423 44.3004 29.9399 51.1139 24.5594 54.1416C19.178 57.1664 12.3539 55.2612 9.318 49.8855C6.28506 44.509 8.1875 37.6955 13.568 34.6678C18.9494 31.6431 25.7735 33.5482 28.8094 38.9239Z" fill="white" stroke="#002522" stroke-width="0.329214" stroke-miterlimit="10"/>
<path d="M22.4682 51.5069C18.1233 49.0004 14.6016 42.9095 14.5984 37.902C14.5975 35.4125 15.4658 33.661 16.8735 32.8347L14.6737 34.1025C13.2479 34.9209 12.3692 36.6815 12.3682 39.1875C12.3714 44.195 15.8939 50.2889 20.238 52.7924C22.3708 54.0227 24.305 54.157 25.7241 53.3851L25.7657 53.3612C25.7879 53.3489 25.8102 53.3366 25.8316 53.3213L27.8667 52.1422C26.4573 52.8668 24.5594 52.7132 22.4653 51.5077L22.4682 51.5069Z" fill="#2BF2F1" stroke="#002522" stroke-width="0.329214" stroke-miterlimit="10"/>
<path d="M17.3197 32.6115C15.6579 33.3142 14.6068 35.1594 14.6067 37.8954C14.6099 42.9035 18.133 48.9982 22.478 51.502C24.5696 52.7085 26.4708 52.8613 27.8805 52.1366C27.8805 52.1366 43.3103 43.5565 57.0687 44.9335C57.0687 44.9335 38.0825 11.3337 37.6985 9.47614C24.7461 28.0506 17.3189 32.6086 17.3189 32.6086L17.3197 32.6115Z" fill="white" stroke="#002522" stroke-width="0.329214" stroke-miterlimit="10"/>
<path d="M54.7682 6.02581C63.0124 10.7815 69.7017 22.3465 69.7053 31.8517C69.7096 41.3599 63.0268 45.2111 54.7819 40.4525C46.5377 35.6968 39.8484 24.1318 39.8448 14.6266C39.8405 5.11842 46.5233 1.26718 54.7682 6.02581Z" fill="#2BF2F1" stroke="#002522" stroke-width="0.329214" stroke-miterlimit="10"/>
<path d="M44.3597 4.91071L44.2698 4.95708C44.3003 4.93937 44.3315 4.92464 44.3627 4.90991L44.3597 4.91071Z" fill="#FFCE9B" stroke="#002522" stroke-width="0.329214" stroke-miterlimit="10" stroke-linecap="round"/>
<path d="M54.7795 40.4572C46.532 35.6995 39.8467 24.137 39.8432 14.632C39.8427 9.90795 41.4926 6.5814 44.1642 5.01195L39.9884 7.4175C37.2844 8.97327 35.6123 12.3121 35.6126 17.0714C35.617 26.5793 42.3022 38.1418 50.5489 42.8965C54.599 45.2329 58.2716 45.4867 60.9585 44.0217L61.0394 43.9777C61.0809 43.9538 61.1254 43.9292 61.1669 43.9053L65.0295 41.6664C62.3568 43.0415 58.7479 42.7515 54.7773 40.461L54.7795 40.4572Z" fill="#2BF2F1" stroke="#002522" stroke-width="0.329214" stroke-miterlimit="10"/>
<path d="M54.7687 8.81946C61.6773 12.8049 67.2803 22.4922 67.2828 30.4588C67.2868 35.7788 64.7895 38.9838 61.0706 39.3425C62.5068 37.8255 63.3539 35.4477 63.3507 32.3555C63.3453 24.3898 57.7453 14.7016 50.8367 10.7162C48.5413 9.39207 46.393 8.86497 44.5473 9.03587C46.8093 6.64383 50.5411 6.38065 54.7687 8.81946Z" fill="#12C6C1" stroke="#002522" stroke-width="0.329214" stroke-miterlimit="10"/>
<path d="M50.8334 10.7141C57.7421 14.6996 63.3452 24.387 63.3477 32.3536C63.3508 35.4459 62.5037 37.8237 61.0675 39.3407C59.2217 39.5116 57.0733 38.9845 54.778 37.6603C47.8692 33.6749 42.2662 23.9875 42.2615 16.0246C42.2584 12.9324 43.1055 10.5546 44.5439 9.0338C46.3897 8.8629 48.538 9.39 50.8334 10.7141Z" fill="#D3D3D3" stroke="#002522" stroke-width="0.329214" stroke-miterlimit="10"/>
<path d="M54.8735 22.9968C57.4153 27.4982 56.4926 33.0085 52.9646 36.4571C42.8162 28.5014 42.3365 17.6522 42.3365 17.6522C42.4826 17.6131 42.6332 17.5793 42.7809 17.5462C47.4437 16.549 52.408 18.6251 54.8727 22.9938L54.8735 22.9968Z" fill="white" stroke="#002522" stroke-width="0.329214" stroke-miterlimit="10"/>
<path d="M53.4395 22.4754C54.1164 22.8659 54.6681 23.8133 54.6673 24.5956C54.6709 25.2394 54.2954 25.5664 53.7826 25.4417C53.8115 25.3351 53.8325 25.2113 53.8301 25.0715C53.8309 24.2892 53.2792 23.3418 52.606 22.9535C52.4888 22.8859 52.3734 22.8369 52.2644 22.8118C52.4145 22.312 52.8836 22.1547 53.4365 22.4762L53.4395 22.4754Z" fill="#EFEBE7" stroke="#002522" stroke-width="0.329214" stroke-miterlimit="10"/>
<path d="M52.6094 22.9536C53.2825 23.3419 53.8341 24.2892 53.8334 25.0715C53.8358 25.2113 53.8147 25.335 53.7858 25.4417C53.6798 25.4157 53.5652 25.3698 53.4442 25.3C52.7674 24.9095 52.2217 23.9605 52.2165 23.1799C52.2179 23.0423 52.2352 22.9164 52.2678 22.8119C52.3738 22.8378 52.4884 22.8838 52.6094 22.9536Z" fill="#12C6C1" stroke="#002522" stroke-width="0.329214" stroke-miterlimit="10"/>
</g>
<defs>
<clipPath id="clip0_664_11585">
<rect width="79" height="80" fill="white"/>
</clipPath>
</defs>
</svg>
