<svg width="103" height="81" viewBox="0 0 103 81" fill="none" xmlns="http://www.w3.org/2000/svg">
<path d="M66.9066 0.104858C86.4612 0.104858 102.318 15.9821 102.314 35.5609C102.314 55.144 86.4616 71.0168 66.9027 71.017H40.5121L41.6752 80.1967L41.6957 80.3529L41.5433 80.3099L41.5717 80.2094L41.5424 80.3099H41.5414C41.5407 80.3097 41.5397 80.3093 41.5385 80.309C41.5353 80.3081 41.53 80.3068 41.5238 80.3051C41.5115 80.3015 41.4933 80.2956 41.4691 80.2885C41.4206 80.2742 41.3485 80.2527 41.2543 80.224C41.0658 80.1665 40.7879 80.0803 40.431 79.9633C39.7172 79.7292 38.6858 79.3738 37.4144 78.8881C34.8712 77.9165 31.3662 76.4224 27.5219 74.3353C19.8357 70.1626 10.78 63.611 5.33142 54.101V54.1019C2.01886 48.7054 0.104916 42.3573 0.104858 35.5609C0.104858 15.9821 15.9617 0.104858 35.5209 0.104858H66.9066Z" fill="#DBFF00" stroke="#082422" stroke-width="0.20938" stroke-miterlimit="10"/>
<path d="M38.5795 41.24C40.5581 41.24 42.1621 39.634 42.1621 37.6529C42.1621 35.6718 40.5581 34.0658 38.5795 34.0658C36.6009 34.0658 34.9969 35.6718 34.9969 37.6529C34.9969 39.634 36.6009 41.24 38.5795 41.24Z" fill="#002522"/>
<path opacity="0.3" d="M65.8071 41.2397C67.7857 41.2397 69.3897 39.6337 69.3897 37.6526C69.3897 35.6715 67.7857 34.0656 65.8071 34.0656C63.8285 34.0656 62.2245 35.6715 62.2245 37.6526C62.2245 39.6337 63.8285 41.2397 65.8071 41.2397Z" fill="#002522"/>
<path opacity="0.6" d="M52.1997 41.2397C54.1783 41.2397 55.7822 39.6337 55.7822 37.6526C55.7822 35.6715 54.1783 34.0656 52.1997 34.0656C50.221 34.0656 48.6171 35.6715 48.6171 37.6526C48.6171 39.6337 50.221 41.2397 52.1997 41.2397Z" fill="#002522"/>
</svg>
