<svg width="105" height="80" viewBox="0 0 105 80" fill="none" xmlns="http://www.w3.org/2000/svg">
<path d="M94.2159 19.1125C96.0116 19.4282 97.2116 21.1416 96.8957 22.9374L88.2956 71.8121C87.9897 73.5518 86.3724 74.7325 84.6387 74.5176L84.4707 74.4922L6.38564 60.7547L6.38535 60.7544C4.58972 60.4386 3.38972 58.7255 3.70541 56.9295L12.3056 8.05485C12.6213 6.25916 14.3347 5.0589 16.1306 5.37463L94.2159 19.1125Z" fill="#2BF2F1" stroke="#082422" stroke-width="0.328437" stroke-miterlimit="10" stroke-linecap="round" stroke-linejoin="round"/>
<path d="M10.7122 11.769H89.9962C91.8211 11.769 93.2999 13.2485 93.2999 15.0732V64.6979C93.2999 66.5225 91.8211 68.0017 89.9962 68.0017H10.7122C8.88755 68.0017 7.40807 66.5225 7.40807 64.6979V15.0732C7.40807 13.2485 8.88755 11.769 10.7122 11.769Z" fill="#EFEBE7" stroke="#082422" stroke-width="0.328437" stroke-miterlimit="10" stroke-linecap="round" stroke-linejoin="round"/>
<path d="M74.5285 27.0957H56.4901C55.7343 27.0957 55.1216 27.7084 55.1216 28.4642V28.4642C55.1216 29.22 55.7343 29.8327 56.4901 29.8327H74.5285C75.2843 29.8327 75.897 29.22 75.897 28.4642C75.897 27.7084 75.2843 27.0957 74.5285 27.0957Z" fill="#2BF2F1" stroke="#082422" stroke-width="0.328437"/>
<path d="M84.9759 34.7595H56.4901C55.7343 34.7595 55.1216 35.3722 55.1216 36.128V36.128C55.1216 36.8838 55.7343 37.4965 56.4901 37.4965H84.9759C85.7317 37.4965 86.3444 36.8838 86.3444 36.128C86.3444 35.3722 85.7317 34.7595 84.9759 34.7595Z" fill="#2BF2F1" stroke="#082422" stroke-width="0.328437"/>
<path d="M84.9759 42.4231H56.4901C55.7343 42.4231 55.1216 43.0358 55.1216 43.7916V43.7916C55.1216 44.5474 55.7343 45.1601 56.4901 45.1601H84.9759C85.7317 45.1601 86.3444 44.5474 86.3444 43.7916C86.3444 43.0358 85.7317 42.4231 84.9759 42.4231Z" fill="#2BF2F1" stroke="#082422" stroke-width="0.328437"/>
<path d="M84.9759 50.0869H56.4901C55.7343 50.0869 55.1216 50.6996 55.1216 51.4554C55.1216 52.2112 55.7343 52.8239 56.4901 52.8239H84.9759C85.7317 52.8239 86.3444 52.2112 86.3444 51.4554C86.3444 50.6996 85.7317 50.0869 84.9759 50.0869Z" fill="#2BF2F1" stroke="#082422" stroke-width="0.328437"/>
<path d="M47.2925 18.4473H15.7627C14.7046 18.4473 13.8468 19.305 13.8468 20.3631V59.5566C13.8468 60.6147 14.7046 61.4725 15.7627 61.4725H47.2925C48.3506 61.4725 49.2084 60.6147 49.2084 59.5566V20.3631C49.2084 19.305 48.3506 18.4473 47.2925 18.4473Z" fill="#2BF2F1" stroke="#082422" stroke-width="0.328437"/>
<mask id="mask0_1272_2056" style="mask-type:alpha" maskUnits="userSpaceOnUse" x="14" y="18" width="36" height="44">
<path d="M47.2926 18.6116H15.7627C14.7953 18.6116 14.0111 19.3958 14.0111 20.3632V59.5565C14.0111 60.5239 14.7953 61.3081 15.7627 61.3081H47.2926C48.2601 61.3081 49.0443 60.5239 49.0443 59.5565V20.3632C49.0443 19.3958 48.2601 18.6116 47.2926 18.6116Z" fill="white"/>
</mask>
<g mask="url(#mask0_1272_2056)">
<path d="M22.6806 30.2223C23.4458 32.7476 25.2059 37.1097 25.2824 37.4158H38.4453C38.5982 36.8292 39.0728 35.2398 39.1338 34.5079C39.2871 32.6711 40.8941 30.5284 40.5115 29.2274C41.5062 27.3143 41.0471 24.8654 38.9044 23.9471C38.5982 21.8808 36.685 21.4217 35.1544 21.6512C33.93 20.1207 32.0168 19.8146 29.4149 21.4982C27.4252 20.9625 25.2824 22.1103 24.9763 24.6357C22.9101 25.401 21.9153 27.6969 22.6806 30.2223Z" fill="#082422"/>
<path d="M35.9383 42.3132V45.0683C35.9383 46.8642 36.169 47.7574 36.6853 48.3569C36.9443 48.6577 37.2794 48.8893 37.7064 49.1232C38.1356 49.3577 38.6471 49.5897 39.2633 49.8978L39.3523 49.9422L39.2864 50.0167C37.8239 51.6716 36.3586 52.5404 34.9867 52.9944C33.9592 53.3346 32.9867 53.4409 32.1119 53.4731V53.4866H32.0353C31.9105 53.4866 31.7829 53.4856 31.6529 53.484C31.5228 53.4856 31.3953 53.4866 31.2704 53.4866H31.1938V53.4731C30.3191 53.4409 29.3464 53.3346 28.3189 52.9944C26.9473 52.5404 25.4818 51.6716 24.0192 50.0167L23.9533 49.9422L24.0424 49.8978C24.6585 49.5897 25.1702 49.3577 25.5993 49.1232C26.0263 48.8893 26.3615 48.6577 26.6205 48.3569C27.1368 47.7574 27.3673 46.8642 27.3673 45.0683V42.3132H35.9383Z" fill="#FFCD9C"/>
<path d="M35.9383 42.3134H36.1234V42.1287H35.9383V42.3134ZM39.3523 49.9423L39.4908 50.065L39.6504 49.8848L39.4352 49.7772L39.3523 49.9423ZM39.2864 50.0169L39.1483 49.8941L39.148 49.8944L39.2864 50.0169ZM32.1119 53.4732L32.1051 53.2885L31.927 53.2949V53.4732H32.1119ZM32.1119 53.4867V53.6715H32.2969V53.4867H32.1119ZM31.6529 53.4842L31.6552 53.2991H31.6529H31.6505L31.6529 53.4842ZM31.1938 53.4867H31.009V53.6715H31.1938V53.4867ZM31.1938 53.4732H31.3787V53.2949L31.2006 53.2885L31.1938 53.4732ZM24.0192 50.0169L24.1577 49.8944L24.1576 49.8941L24.0192 50.0169ZM23.9533 49.9423L23.8707 49.7772L23.6553 49.8848L23.8149 50.065L23.9533 49.9423ZM27.3673 42.3134V42.1287H27.1824V42.3134H27.3673ZM35.9383 42.3134H35.7536V45.0684H35.9383H36.1234V42.3134H35.9383ZM35.9383 45.0684H35.7536C35.7536 46.8702 35.982 47.8241 36.5452 48.4776L36.6853 48.3571L36.8254 48.2363C36.3557 47.6914 36.1234 46.8589 36.1234 45.0684H35.9383ZM36.6853 48.3571L36.5452 48.4776C36.8254 48.8027 37.1827 49.0472 37.6177 49.2853L37.7064 49.1234L37.7953 48.9611C37.3761 48.7317 37.0635 48.5126 36.8254 48.2363L36.6853 48.3571ZM37.7064 49.1234L37.6177 49.2853C38.0501 49.5221 38.5741 49.7598 39.1807 50.0631L39.2633 49.898L39.3459 49.7325C38.7203 49.4196 38.221 49.194 37.7953 48.9611L37.7064 49.1234ZM39.2633 49.898L39.1807 50.0631L39.2697 50.1078L39.3523 49.9423L39.4352 49.7772L39.3459 49.7325L39.2633 49.898ZM39.3523 49.9423L39.2141 49.8199L39.1483 49.8941L39.2864 50.0169L39.4249 50.1393L39.4908 50.065L39.3523 49.9423ZM39.2864 50.0169L39.148 49.8944C37.7063 51.5259 36.2683 52.3757 34.9288 52.8191L34.9867 52.9945L35.0448 53.1703C36.4488 52.7054 37.9415 51.8177 39.4249 50.1393L39.2864 50.0169ZM34.9867 52.9945L34.9288 52.8191C33.9235 53.152 32.97 53.2567 32.1051 53.2885L32.1119 53.4732L32.1187 53.658C33.0034 53.6255 33.9949 53.5176 35.0448 53.1703L34.9867 52.9945ZM32.1119 53.4732H31.927V53.4867H32.1119H32.2969V53.4732H32.1119ZM32.1119 53.4867V53.3017H32.0353V53.4867V53.6715H32.1119V53.4867ZM32.0353 53.4867V53.3017C31.9114 53.3017 31.7846 53.3007 31.6552 53.2991L31.6529 53.4842L31.6505 53.6689C31.7813 53.6705 31.9096 53.6715 32.0353 53.6715V53.4867ZM31.6529 53.4842L31.6505 53.2991C31.5211 53.3007 31.3944 53.3017 31.2704 53.3017V53.4867V53.6715C31.3961 53.6715 31.5244 53.6705 31.6552 53.6689L31.6529 53.4842ZM31.2704 53.4867V53.3017H31.1938V53.4867V53.6715H31.2704V53.4867ZM31.1938 53.4867H31.3787V53.4732H31.1938H31.009V53.4867H31.1938ZM31.1938 53.4732L31.2006 53.2885C30.3359 53.2567 29.382 53.1516 28.377 52.8191L28.3189 52.9945L28.2608 53.1703C29.3107 53.5176 30.3023 53.6255 31.1871 53.658L31.1938 53.4732ZM28.3189 52.9945L28.377 52.8191C27.0376 52.3757 25.5995 51.5259 24.1577 49.8944L24.0192 50.0169L23.8807 50.1393C25.364 51.8177 26.8569 52.7054 28.2608 53.1703L28.3189 52.9945ZM24.0192 50.0169L24.1576 49.8941L24.0917 49.8199L23.9533 49.9423L23.8149 50.065L23.8807 50.1393L24.0192 50.0169ZM23.9533 49.9423L24.036 50.1078L24.1251 50.0631L24.0424 49.898L23.9597 49.7325L23.8707 49.7772L23.9533 49.9423ZM24.0424 49.898L24.1251 50.0631C24.7316 49.7598 25.2556 49.5221 25.688 49.2853L25.5993 49.1234L25.5105 48.9611C25.0848 49.194 24.5854 49.4196 23.9597 49.7325L24.0424 49.898ZM25.5993 49.1234L25.688 49.2853C26.1232 49.0472 26.4805 48.8027 26.7606 48.4776L26.6205 48.3571L26.4805 48.2363C26.2424 48.5126 25.9295 48.7317 25.5105 48.9611L25.5993 49.1234ZM26.6205 48.3571L26.7606 48.4776C27.3237 47.8241 27.5521 46.8702 27.5521 45.0684H27.3673H27.1824C27.1824 46.8589 26.95 47.6914 26.4805 48.2363L26.6205 48.3571ZM27.3673 45.0684H27.5521V42.3134H27.3673H27.1824V45.0684H27.3673ZM27.3673 42.3134V42.4985H35.9383V42.3134V42.1287H27.3673V42.3134Z" fill="#082422"/>
<mask id="mask1_1272_2056" style="mask-type:alpha" maskUnits="userSpaceOnUse" x="23" y="42" width="17" height="12">
<path d="M35.937 42.314V45.069C35.9373 46.865 36.1677 47.7581 36.684 48.3577C36.943 48.6584 37.2781 48.89 37.7051 49.1236C38.1343 49.3585 38.6461 49.5904 39.262 49.8985L39.351 49.9429L39.2851 50.0174C37.8227 51.6724 36.3573 52.5411 34.9857 52.9951C33.9582 53.3353 32.9854 53.4417 32.1106 53.4738V53.4873H32.0341C31.9092 53.4873 31.7817 53.4863 31.6516 53.4847C31.5215 53.4863 31.394 53.4873 31.2691 53.4873H31.1926V53.4738C30.3179 53.4417 29.3452 53.3353 28.3177 52.9951C26.946 52.5411 25.4805 51.6724 24.018 50.0174L23.9521 49.9429L24.0412 49.8985C24.6573 49.5904 25.1689 49.3585 25.598 49.1236C26.0251 48.89 26.3602 48.6584 26.6193 48.3577C27.1356 47.7581 27.366 46.865 27.366 45.069V42.314H35.937Z" fill="#FFCD9C"/>
<path d="M35.937 42.3141H36.1221V42.1294H35.937V42.3141ZM39.351 49.9431L39.4895 50.0658L39.6492 49.8855L39.4339 49.7779L39.351 49.9431ZM39.2851 50.0176L39.147 49.8949L39.1467 49.8952L39.2851 50.0176ZM32.1106 53.474L32.1038 53.2892L31.9258 53.2957V53.474H32.1106ZM32.1106 53.4875V53.6722H32.2956V53.4875H32.1106ZM31.6516 53.4849L31.6539 53.2998H31.6516H31.6493L31.6516 53.4849ZM31.1926 53.4875H31.0077V53.6722H31.1926V53.4875ZM31.1926 53.474H31.3774V53.2957L31.1994 53.2892L31.1926 53.474ZM24.018 50.0176L24.1565 49.8952L24.1563 49.8949L24.018 50.0176ZM23.9521 49.9431L23.8694 49.7779L23.654 49.8855L23.8137 50.0658L23.9521 49.9431ZM27.366 42.3141V42.1294H27.1812V42.3141H27.366ZM35.937 42.3141H35.7523V45.0692H35.937H36.1221V42.3141H35.937ZM35.937 45.0692H35.7523C35.7523 46.8709 35.9807 47.8248 36.5439 48.4783L36.684 48.3578L36.8241 48.237C36.3544 47.6921 36.1221 46.8597 36.1221 45.0692H35.937ZM36.684 48.3578L36.5439 48.4783C36.8241 48.8035 37.1814 49.0479 37.6164 49.286L37.7051 49.1238L37.7941 48.9618C37.3751 48.7324 37.0622 48.5133 36.8241 48.237L36.684 48.3578ZM37.7051 49.1238L37.6164 49.286C38.0488 49.5228 38.5728 49.7606 39.1794 50.0639L39.262 49.8987L39.3446 49.7333C38.719 49.4203 38.2198 49.1948 37.7941 48.9618L37.7051 49.1238ZM39.262 49.8987L39.1794 50.0639L39.2684 50.1085L39.351 49.9431L39.4339 49.7779L39.3446 49.7333L39.262 49.8987ZM39.351 49.9431L39.2129 49.8206L39.147 49.8949L39.2851 50.0176L39.4236 50.14L39.4895 50.0658L39.351 49.9431ZM39.2851 50.0176L39.1467 49.8952C37.7051 51.5267 36.267 52.3765 34.9275 52.8198L34.9857 52.9953L35.0435 53.1707C36.4475 52.7061 37.9402 51.8184 39.4236 50.14L39.2851 50.0176ZM34.9857 52.9953L34.9275 52.8198C33.9226 53.1524 32.9687 53.2574 32.1038 53.2892L32.1106 53.474L32.1174 53.6587C33.0021 53.6259 33.9939 53.5183 35.0435 53.1707L34.9857 52.9953ZM32.1106 53.474H31.9258V53.4875H32.1106H32.2956V53.474H32.1106ZM32.1106 53.4875V53.3024H32.0341V53.4875V53.6722H32.1106V53.4875ZM32.0341 53.4875V53.3024C31.9101 53.3024 31.7833 53.3014 31.6539 53.2998L31.6516 53.4849L31.6493 53.6696C31.78 53.6712 31.9084 53.6722 32.0341 53.6722V53.4875ZM31.6516 53.4849L31.6493 53.2998C31.5199 53.3014 31.3931 53.3024 31.2691 53.3024V53.4875V53.6722C31.3948 53.6722 31.5231 53.6712 31.6539 53.6696L31.6516 53.4849ZM31.2691 53.4875V53.3024H31.1926V53.4875V53.6722H31.2691V53.4875ZM31.1926 53.4875H31.3774V53.474H31.1926H31.0077V53.4875H31.1926ZM31.1926 53.474L31.1994 53.2892C30.3346 53.2574 29.3808 53.1524 28.3757 52.8198L28.3177 52.9953L28.2596 53.1707C29.3095 53.5183 30.3011 53.6259 31.1858 53.6587L31.1926 53.474ZM28.3177 52.9953L28.3757 52.8198C27.0363 52.3765 25.5983 51.5267 24.1565 49.8952L24.018 50.0176L23.8794 50.14C25.3628 51.8184 26.8556 52.7061 28.2596 53.1707L28.3177 52.9953ZM24.018 50.0176L24.1563 49.8949L24.0904 49.8206L23.9521 49.9431L23.8137 50.0658L23.8794 50.14L24.018 50.0176ZM23.9521 49.9431L24.0347 50.1085L24.1238 50.0639L24.0412 49.8987L23.9585 49.7333L23.8694 49.7779L23.9521 49.9431ZM24.0412 49.8987L24.1238 50.0639C24.7304 49.7606 25.2544 49.5228 25.6867 49.286L25.598 49.1238L25.5093 48.9618C25.0835 49.1948 24.5842 49.4203 23.9585 49.7333L24.0412 49.8987ZM25.598 49.1238L25.6867 49.286C26.122 49.0479 26.4792 48.8035 26.7593 48.4783L26.6193 48.3578L26.4792 48.237C26.2412 48.5133 25.9283 48.7324 25.5093 48.9618L25.598 49.1238ZM26.6193 48.3578L26.7593 48.4783C27.3224 47.8248 27.5509 46.8709 27.5509 45.0692H27.366H27.1812C27.1812 46.8597 26.9487 47.6921 26.4792 48.237L26.6193 48.3578ZM27.366 45.0692H27.5509V42.3141H27.366H27.1812V45.0692H27.366ZM27.366 42.3141V42.4992H35.937V42.3141V42.1294H27.366V42.3141Z" fill="#082422"/>
</mask>
<g mask="url(#mask1_1272_2056)">
<path d="M29.6736 45.8041C28.5918 45.8041 26.8084 45.8966 24.6825 44.4177C25.3295 42.7847 27.6587 39.6483 31.7995 40.1659C36.9754 40.8129 38.0848 40.9055 36.1436 42.8463C34.2027 44.7872 31.7071 45.8041 29.6736 45.8041Z" fill="#002522"/>
</g>
<path d="M24.16 34.2889C23.4526 34.3657 22.91 34.9668 23.0596 36.1344C23.2168 37.3646 23.9871 38.3178 24.553 38.7484C24.9547 39.0542 25.2634 39.1532 25.508 39.1721C25.6942 39.1866 25.8431 39.1551 25.9677 39.1329V34.5964C25.7257 34.5019 25.3109 34.3837 24.8958 34.3214C24.6367 34.2825 24.3774 34.2651 24.16 34.2889Z" fill="#FFCD9C" stroke="#082422" stroke-width="0.369716"/>
<path d="M39.2549 34.2889C39.9624 34.3657 40.5051 34.9668 40.3553 36.1344C40.1982 37.3646 39.4278 38.3178 38.862 38.7484C38.4604 39.0542 38.1516 39.1532 37.9068 39.1721C37.7208 39.1866 37.5717 39.1551 37.4474 39.1329V34.5964C37.6893 34.5019 38.1041 34.3837 38.5192 34.3214C38.7782 34.2825 39.0374 34.2651 39.2549 34.2889Z" fill="#FFCD9C" stroke="#082422" stroke-width="0.369716"/>
<path d="M31.7018 26.0087C32.6898 25.9527 34.1529 26.013 35.4358 26.3739C36.7496 26.7434 37.9062 27.4381 38.1288 28.6781C38.666 31.6718 38.6657 34.5889 38.1288 37.811C37.759 40.0289 37.4516 41.171 37.0294 41.9113C36.6053 42.6554 36.0656 42.9911 35.2681 43.5987C33.7876 44.727 32.6876 44.9555 31.8552 44.9866V44.9918H31.7787C31.7533 44.9918 31.7277 44.9908 31.7018 44.9905C31.6759 44.9908 31.6503 44.9918 31.6249 44.9918H31.5484V44.9866C30.7159 44.9555 29.6161 44.727 28.1354 43.5987C27.338 42.9911 26.7984 42.6554 26.3743 41.9113C25.9521 41.171 25.6446 40.0289 25.2749 37.811C24.7379 34.5889 24.7375 31.6719 25.2749 28.6781C25.4975 27.4381 26.6542 26.7434 27.9678 26.3739C29.2507 26.013 30.7139 25.9527 31.7018 26.0087Z" fill="#FFCD9C"/>
<path d="M31.7018 26.0084L31.6913 26.193L31.7018 26.1936L31.7123 26.193L31.7018 26.0084ZM31.8552 44.9864L31.8483 44.802L31.6704 44.8084V44.9864H31.8552ZM31.8552 44.9915V45.1763H32.0401V44.9915H31.8552ZM31.7018 44.9903L31.704 44.8055H31.6997L31.7018 44.9903ZM31.5484 44.9915H31.3635V45.1763H31.5484V44.9915ZM31.5484 44.9864H31.7332V44.8084L31.5553 44.802L31.5484 44.9864ZM31.7018 26.0084L31.7123 26.193C32.6872 26.1378 34.1285 26.198 35.3857 26.5516L35.4358 26.3737L35.4859 26.1957C34.1773 25.8276 32.6924 25.7672 31.6913 25.8239L31.7018 26.0084ZM35.4358 26.3737L35.3857 26.5516C36.6856 26.9173 37.7443 27.5825 37.9467 28.7105L38.1288 28.6779L38.3107 28.6452C38.0681 27.2933 36.8132 26.5691 35.4859 26.1957L35.4358 26.3737ZM38.1288 28.6779L37.9467 28.7105C38.48 31.6819 38.4803 34.5774 37.9463 37.7803L38.1288 37.8108L38.311 37.841C38.8514 34.5996 38.852 31.6613 38.3107 28.6452L38.1288 28.6779ZM38.1288 37.8108L37.9463 37.7803C37.5762 40.0007 37.2726 41.1114 36.8688 41.8195L37.0294 41.9111L37.19 42.0026C37.6305 41.2299 37.9418 40.0566 38.311 37.841L38.1288 37.8108ZM37.0294 41.9111L36.8688 41.8195C36.4678 42.5225 35.9682 42.8328 35.1563 43.4513L35.2681 43.5985L35.3802 43.7456C36.1629 43.1493 36.7425 42.7875 37.19 42.0026L37.0294 41.9111ZM35.2681 43.5985L35.1563 43.4513C33.706 44.5565 32.6429 44.7718 31.8483 44.802L31.8552 44.9864L31.8622 45.1711C32.7325 45.1384 33.8692 44.8968 35.3802 43.7456L35.2681 43.5985ZM31.8552 44.9864H31.6704V44.9915H31.8552H32.0401V44.9864H31.8552ZM31.8552 44.9915V44.8068H31.7787V44.9915V45.1763H31.8552V44.9915ZM31.7787 44.9915V44.8068C31.7526 44.8068 31.7383 44.8058 31.704 44.8055L31.7018 44.9903L31.6997 45.1753C31.7171 45.1753 31.754 45.1763 31.7787 45.1763V44.9915ZM31.7018 44.9903L31.6997 44.8055C31.6653 44.8058 31.651 44.8068 31.6249 44.8068V44.9915V45.1763C31.6496 45.1763 31.6865 45.1753 31.704 45.1753L31.7018 44.9903ZM31.6249 44.9915V44.8068H31.5484V44.9915V45.1763H31.6249V44.9915ZM31.5484 44.9915H31.7332V44.9864H31.5484H31.3635V44.9915H31.5484ZM31.5484 44.9864L31.5553 44.802C30.7609 44.7718 29.6977 44.5565 28.2474 43.4513L28.1354 43.5985L28.0233 43.7456C29.5344 44.8968 30.671 45.1384 31.5414 45.1711L31.5484 44.9864ZM28.1354 43.5985L28.2474 43.4513C27.4354 42.8328 26.9357 42.5225 26.5348 41.8195L26.3743 41.9111L26.2137 42.0026C26.6611 42.7875 27.2406 43.1493 28.0233 43.7456L28.1354 43.5985ZM26.3743 41.9111L26.5348 41.8195C26.1312 41.1114 25.8273 40.0007 25.4572 37.7803L25.2749 37.8108L25.0925 37.841C25.4618 40.0566 25.7731 41.2299 26.2137 42.0026L26.3743 41.9111ZM25.2749 37.8108L25.4572 37.7803C24.9234 34.5774 24.9235 31.6819 25.4568 28.7105L25.2749 28.6779L25.0929 28.6452C24.5516 31.6613 24.5523 34.5996 25.0925 37.841L25.2749 37.8108ZM25.2749 28.6779L25.4568 28.7105C25.6594 27.5825 26.718 26.9173 28.0179 26.5516L27.9678 26.3737L27.9178 26.1957C26.5905 26.5691 25.3356 27.2933 25.0929 28.6452L25.2749 28.6779ZM27.9678 26.3737L28.0179 26.5516C29.2751 26.198 30.7165 26.1378 31.6913 26.193L31.7018 26.0084L31.7123 25.8239C30.7113 25.7672 29.2263 25.8276 27.9178 26.1957L27.9678 26.3737Z" fill="#082422"/>
<path d="M39.5113 49.663C40.7631 50.0717 42.7357 50.7766 44.5876 51.5631C45.5136 51.9563 46.4103 52.3708 47.1717 52.7791C47.9319 53.1869 48.5632 53.5914 48.9536 53.9663C49.921 54.8948 50.3688 55.7883 50.5825 56.7695C50.7952 57.7446 50.7759 58.8077 50.8138 60.0646V67.5666H12.4736V60.0646C12.5117 58.8077 12.4925 57.7449 12.7049 56.7695C12.9186 55.7883 13.3665 54.8948 14.3339 53.9663C14.7244 53.5914 15.3555 53.1869 16.1157 52.7791C16.8773 52.3708 17.7739 51.9563 18.6998 51.5631C20.5516 50.7766 22.5245 50.0717 23.776 49.663L23.8347 49.644L23.8658 49.6974C24.5609 50.8887 27.0912 53.3067 31.6438 53.4066C36.1963 53.3067 38.7267 50.889 39.4217 49.6974L39.4529 49.644L39.5113 49.663Z" fill="white"/>
<path d="M50.8138 60.0645H50.9989V60.0616L50.9986 60.0591L50.8138 60.0645ZM50.8138 67.5665V67.7513H50.9989V67.5665H50.8138ZM12.4736 67.5665H12.2888V67.7513H12.4736V67.5665ZM12.4736 60.0645L12.2889 60.0591L12.2888 60.0616V60.0645H12.4736ZM23.8347 49.644L23.9945 49.5508L23.9193 49.4216L23.7774 49.4682L23.8347 49.644ZM23.8658 49.6973L23.706 49.7901L23.7061 49.7905L23.8658 49.6973ZM31.6438 53.4065L31.6397 53.5913H31.6438H31.6478L31.6438 53.4065ZM39.4217 49.6973L39.5814 49.7905V49.7901L39.4217 49.6973ZM39.4529 49.644L39.51 49.4682L39.3684 49.4216L39.2932 49.5508L39.4529 49.644ZM39.5113 49.6629L39.4541 49.8387C40.7017 50.246 42.6696 50.949 44.5153 51.7333L44.5876 51.563L44.6599 51.393C42.8023 50.6036 40.8244 49.8971 39.5688 49.4872L39.5113 49.6629ZM44.5876 51.563L44.5153 51.7333C45.4384 52.1252 46.3296 52.5375 47.0843 52.942L47.1717 52.7791L47.2591 52.6162C46.4909 52.2043 45.5888 51.7876 44.6599 51.393L44.5876 51.563ZM47.1717 52.7791L47.0843 52.942C47.8416 53.3481 48.454 53.7429 48.8257 54.0995L48.9536 53.9662L49.0818 53.8329C48.6721 53.4396 48.0225 53.0255 47.2591 52.6162L47.1717 52.7791ZM48.9536 53.9662L48.8257 54.0995C49.7668 55.003 50.1963 55.864 50.4019 56.8089L50.5825 56.7694L50.7634 56.7302C50.5417 55.7127 50.0752 54.7864 49.0818 53.8329L48.9536 53.9662ZM50.5825 56.7694L50.4019 56.8089C50.6098 57.7622 50.5905 58.7993 50.6291 60.0703L50.8138 60.0645L50.9986 60.0591C50.961 58.8163 50.9806 57.7272 50.7634 56.7302L50.5825 56.7694ZM50.8138 60.0645H50.6291V67.5665H50.8138H50.9989V60.0645H50.8138ZM50.8138 67.5665V67.3815H12.4736V67.5665V67.7513H50.8138V67.5665ZM12.4736 67.5665H12.6585V60.0645H12.4736H12.2888V67.5665H12.4736ZM12.4736 60.0645L12.6584 60.0703C12.6969 58.7993 12.6778 57.7622 12.8855 56.8089L12.7049 56.7694L12.5243 56.7302C12.3071 57.7272 12.3265 58.8163 12.2889 60.0591L12.4736 60.0645ZM12.7049 56.7694L12.8855 56.8089C13.0913 55.864 13.5207 55.003 14.4619 54.0995L14.3339 53.9662L14.2059 53.8329C13.2123 54.7864 12.7459 55.7127 12.5243 56.7302L12.7049 56.7694ZM14.3339 53.9662L14.4619 54.0995C14.8334 53.7429 15.4461 53.3481 16.2031 52.942L16.1157 52.7791L16.0284 52.6162C15.2649 53.0255 14.6153 53.4396 14.2059 53.8329L14.3339 53.9662ZM16.1157 52.7791L16.2031 52.942C16.958 52.5375 17.8492 52.1252 18.7721 51.7333L18.6998 51.563L18.6275 51.393C17.6987 51.7876 16.7966 52.2043 16.0284 52.6162L16.1157 52.7791ZM18.6998 51.563L18.7721 51.7333C20.618 50.949 22.5857 50.246 23.8334 49.8387L23.776 49.6629L23.7187 49.4872C22.4633 49.8971 20.4852 50.6036 18.6275 51.393L18.6998 51.563ZM23.776 49.6629L23.8334 49.8387L23.8921 49.8197L23.8347 49.644L23.7774 49.4682L23.7187 49.4872L23.776 49.6629ZM23.8347 49.644L23.675 49.7368L23.706 49.7901L23.8658 49.6973L24.0255 49.6041L23.9945 49.5508L23.8347 49.644ZM23.8658 49.6973L23.7061 49.7905C24.433 51.0364 27.0218 53.4901 31.6397 53.5913L31.6438 53.4065L31.6478 53.2215C27.1607 53.1232 24.6888 50.7412 24.0255 49.6041L23.8658 49.6973ZM31.6438 53.4065L31.6478 53.5913C36.2657 53.4901 38.8546 51.0364 39.5814 49.7905L39.4217 49.6973L39.262 49.6041C38.5989 50.7412 36.1269 53.1232 31.6397 53.2215L31.6438 53.4065ZM39.4217 49.6973L39.5814 49.7901L39.6125 49.7368L39.4529 49.644L39.2932 49.5508L39.262 49.6041L39.4217 49.6973ZM39.4529 49.644L39.3953 49.8197L39.4541 49.8387L39.5113 49.6629L39.5688 49.4872L39.51 49.4682L39.4529 49.644Z" fill="#082422"/>
<path d="M24.7963 37.6451C24.2606 37.186 24.165 37.033 24.3372 36.5739C24.5667 35.9616 24.3372 35.8086 24.1076 35.6554L23.8015 35.5024" stroke="#082422" stroke-width="0.369716" stroke-linecap="round"/>
<path d="M38.5696 37.6451C39.1052 37.186 39.201 37.033 39.0288 36.5739C38.7994 35.9616 39.0288 35.8086 39.2585 35.6554L39.5647 35.5024" stroke="#082422" stroke-width="0.369716" stroke-linecap="round"/>
</g>
<path d="M96.1825 45.4305L96.6143 47.5876C96.6342 47.686 96.6792 47.7624 96.7428 47.8167L98.4488 49.2532C98.3849 49.1989 98.3393 49.1208 98.3203 49.0241L97.8885 46.867C97.8686 46.7664 97.8226 46.6897 97.759 46.6354L96.053 45.1992C96.1169 45.2522 96.1629 45.33 96.1825 45.4305Z" fill="#17AB2B" stroke="#082422" stroke-width="0.218957" stroke-miterlimit="10"/>
<path d="M82.5709 65.0818L80.8646 63.6447C80.8337 63.619 80.7987 63.5985 80.7582 63.583L78.8835 62.8836C78.8421 62.8682 78.8058 62.8473 78.7753 62.8203L80.4816 64.2574C80.5125 64.2831 80.5484 64.305 80.5902 64.3204L82.4646 65.0202C82.5051 65.0353 82.5401 65.0558 82.5709 65.0818Z" fill="#17AB2B" stroke="#082422" stroke-width="0.218957" stroke-miterlimit="10"/>
<path d="M85.0101 68.2645C85.0898 68.2738 85.1602 68.3031 85.2154 68.3497L83.5091 66.9125C83.4535 66.8663 83.3844 66.837 83.3035 66.8274C83.2354 66.8197 83.1598 66.8258 83.0798 66.848L80.6708 67.505C80.5883 67.5268 80.5128 67.5333 80.4447 67.5252C80.3637 67.5159 80.2933 67.4864 80.239 67.4391L81.9457 68.8762C82.001 68.9225 82.07 68.9527 82.151 68.9623C82.2191 68.9704 82.2949 68.9639 82.3772 68.9421L84.7862 68.2851C84.8662 68.2629 84.942 68.2565 85.0101 68.2645Z" fill="#17AB2B" stroke="#082422" stroke-width="0.218957" stroke-miterlimit="10"/>
<path d="M99.3841 51.0872L101.09 52.5233C100.951 52.4064 100.911 52.1863 100.991 51.9338L101.819 49.3227C101.903 49.0589 101.855 48.8427 101.719 48.7286L100.013 47.2925C100.149 47.4065 100.197 47.6228 100.113 47.8865L99.2855 50.4976C99.2052 50.7502 99.246 50.9702 99.3841 51.0872Z" fill="#17AB2B" stroke="#082422" stroke-width="0.218957" stroke-miterlimit="10"/>
<path d="M103.075 54.3135C103.363 53.9485 103.398 53.5244 103.181 53.3409L101.475 51.9048C101.692 52.0879 101.658 52.512 101.369 52.877L99.502 55.2426C99.2803 55.5221 99.2013 55.8553 99.2993 56.0751L100.139 57.943C100.287 58.2727 100.035 58.814 99.6116 59.0743L97.2051 60.5628C96.9221 60.7388 96.6994 61.054 96.65 61.3538L96.2291 63.889C96.1549 64.3363 95.716 64.7784 95.3112 64.8153L93.0117 65.0251C92.7406 65.0505 92.4366 65.2651 92.2512 65.5626L90.6827 68.0873C90.4598 68.4462 90.0874 68.6621 89.8056 68.629C89.7375 68.6209 89.6758 68.5984 89.6218 68.5605L88.045 67.4364C87.992 67.3988 87.9303 67.3763 87.8622 67.3682C87.689 67.348 87.4779 67.4203 87.2835 67.5764L84.9883 69.4123C84.7865 69.5745 84.5748 69.6423 84.4048 69.6224C84.3251 69.6131 84.2538 69.5835 84.1973 69.5359L85.9033 70.9724C85.9598 71.02 86.0312 71.0492 86.1108 71.0585C86.2808 71.0784 86.4912 71.011 86.6943 70.8487L88.9896 69.0126C89.1836 68.8564 89.396 68.7845 89.5682 68.8047C89.6363 68.8124 89.698 68.8349 89.751 68.8728L91.3275 69.997C91.3818 70.0349 91.4448 70.0574 91.5116 70.0654C91.7934 70.0982 92.1658 69.8823 92.3888 69.5237L93.9573 66.9991C94.1423 66.7016 94.4456 66.4866 94.7177 66.4613L97.0172 66.2515C97.422 66.2148 97.8596 65.7727 97.9351 65.3252L98.356 62.7899C98.4055 62.4905 98.6278 62.175 98.9112 61.9989L101.317 60.5104C101.741 60.2492 101.993 59.7078 101.845 59.3795L101.005 57.5115C100.906 57.2905 100.986 56.9583 101.208 56.6791L103.075 54.3135Z" fill="#17AB2B" stroke="#082422" stroke-width="0.218957" stroke-miterlimit="10"/>
<path d="M95.8416 45.1096C96.0116 45.1295 96.1404 45.2372 96.179 45.4264L96.6114 47.5832C96.6484 47.7653 96.7733 47.8771 96.9468 47.8974C97.0149 47.9054 97.0904 47.8993 97.1704 47.8768L99.5782 47.2208C99.6604 47.1989 99.7359 47.1925 99.8043 47.2005C100.086 47.2336 100.228 47.5099 100.111 47.881L99.2835 50.4921C99.1849 50.7996 99.2678 51.0608 99.4888 51.143L101.363 51.8424C101.693 51.9668 101.694 52.4603 101.366 52.8767L99.4991 55.2416C99.2774 55.5208 99.1984 55.8543 99.2964 56.0741L100.137 57.942C100.285 58.2717 100.032 58.8127 99.6093 59.0727L97.2029 60.5605C96.9195 60.7366 96.6972 61.0521 96.6477 61.3515L96.2271 63.8865C96.1529 64.3337 95.7141 64.7758 95.3092 64.8124L93.0095 65.0216C92.7383 65.0473 92.4341 65.2616 92.249 65.5591L90.6805 68.0834C90.4575 68.442 90.0855 68.6579 89.8034 68.6248C89.7353 68.6167 89.6736 68.5943 89.6196 68.5563L88.0424 67.4318C87.9894 67.3943 87.9277 67.3718 87.8593 67.3637C87.6861 67.3435 87.475 67.4155 87.2806 67.5716L84.9854 69.4071C84.7836 69.5694 84.5716 69.6368 84.4019 69.6169C84.232 69.597 84.1031 69.4894 84.0646 69.2988L83.6321 67.1433C83.5952 66.9599 83.4702 66.8481 83.2983 66.8278C83.2299 66.8201 83.1544 66.8262 83.0744 66.8484L80.6657 67.5045C80.5835 67.5266 80.5076 67.5327 80.4395 67.5247C80.1574 67.4916 80.0157 67.2153 80.1333 66.8445L80.9613 64.2335C81.0599 63.9257 80.977 63.6657 80.756 63.5825L78.8816 62.8828C78.5504 62.7597 78.5504 62.2662 78.8797 61.8489L80.7457 59.4836C80.9674 59.2044 81.0477 58.8725 80.9484 58.6514L80.1096 56.7825C79.9608 56.4539 80.2124 55.9128 80.6368 55.6516L83.0419 54.1647C83.3263 53.989 83.5489 53.6735 83.5971 53.374L84.0177 50.8391C84.0916 50.3928 84.5295 49.9494 84.9346 49.9128L87.2341 49.7037C87.5065 49.6796 87.8095 49.4637 87.9949 49.1661L89.5634 46.6421C89.786 46.2836 90.1584 46.0677 90.4392 46.1004C90.5073 46.1085 90.569 46.131 90.623 46.1689L92.2014 47.2934C92.2545 47.3313 92.3161 47.3535 92.3843 47.3615C92.5565 47.3817 92.7675 47.3094 92.9629 47.1546L95.2582 45.3181C95.4599 45.1571 95.6707 45.0897 95.8416 45.1096Z" fill="#60D06F" stroke="#082422" stroke-width="0.218957" stroke-miterlimit="10"/>
<path d="M95.8689 54.3152C95.9981 54.3303 96.098 54.4065 96.1385 54.5398L96.3968 55.3877C96.4777 55.6521 96.2937 56.0408 95.9859 56.2551L87.2125 62.3852C87.0606 62.4913 86.9067 62.5353 86.7807 62.5205C86.6548 62.5057 86.5536 62.4305 86.5118 62.2982L85.5094 59.1281C85.4265 58.8659 85.6074 58.4765 85.9142 58.2599L86.8986 57.564C87.0519 57.4558 87.2074 57.4108 87.3356 57.4259C87.4638 57.441 87.5627 57.5158 87.6045 57.6469L88.132 59.3183C88.1491 59.3716 88.1889 59.4021 88.2406 59.4082C88.2927 59.4143 88.3547 59.3957 88.417 59.3526L95.4349 54.4489C95.5868 54.3428 95.7407 54.2988 95.8676 54.3139L95.8689 54.3152Z" fill="#17AB2B"/>
<path d="M96.134 54.6762L95.8876 53.8672C95.8692 53.8055 95.8365 53.7561 95.7937 53.7204L94.0871 52.2839C94.1298 52.3193 94.1613 52.3688 94.1809 52.4308L94.4273 53.2398C94.5054 53.492 94.329 53.8631 94.0353 54.0684L88.1632 58.1721L87.7407 56.834C87.7221 56.7733 87.69 56.7263 87.6476 56.6907L85.9409 55.2542C85.9823 55.2896 86.0141 55.3365 86.0341 55.3972L86.5375 56.993C86.5452 57.0174 86.5581 57.0364 86.5751 57.0512L88.0228 58.2692L85.6604 59.9202C85.5149 60.0211 85.368 60.0635 85.2479 60.0494C85.1843 60.042 85.1287 60.0192 85.0837 59.981L86.7904 61.4178C86.835 61.4557 86.8909 61.4785 86.9545 61.4859C87.0747 61.5 87.2215 61.4576 87.3671 61.3567L95.7433 55.5039C96.037 55.2986 96.213 54.9275 96.1353 54.6753L96.134 54.6762Z" fill="#BFBFBF" stroke="#082422" stroke-width="0.218957" stroke-miterlimit="10"/>
<path d="M93.9219 52.2144C94.0456 52.2288 94.141 52.3021 94.1799 52.4293L94.4263 53.2383C94.5041 53.4908 94.328 53.8619 94.0341 54.0672L85.6578 59.9201C85.5123 60.0209 85.3655 60.0634 85.2453 60.0492C85.1251 60.0351 85.0284 59.9631 84.9883 59.8378L84.0308 56.811C83.9515 56.5607 84.1256 56.1883 84.4183 55.9817L85.3578 55.318C85.5049 55.2148 85.6527 55.1715 85.7754 55.1856C85.8978 55.2001 85.9923 55.272 86.0325 55.3973L86.5362 56.9932C86.5523 57.0442 86.5912 57.0732 86.6406 57.0789C86.6904 57.0847 86.7499 57.0674 86.8087 57.0262L93.5081 52.3448C93.6537 52.2436 93.8005 52.2012 93.9216 52.2156L93.9219 52.2144Z" fill="white" stroke="#082422" stroke-width="0.218957" stroke-miterlimit="10"/>
</svg>
