<svg width="62" height="80" viewBox="0 0 62 80" fill="none" xmlns="http://www.w3.org/2000/svg">
<g clip-path="url(#clip0_664_11562)">
<path d="M21.1076 8.08495C21.2967 8.18004 21.4891 8.22923 21.6814 8.22923H27.4454C27.253 8.22923 27.0607 8.18332 26.8716 8.08495L21.2478 5.17955C21.0555 5.08117 20.8598 5.03198 20.6675 5.03198H14.9036C15.0959 5.03198 15.2915 5.07789 15.4839 5.17955L21.1076 8.08495Z" fill="#0CBAB5" stroke="black" stroke-width="0.0531815" stroke-miterlimit="10"/>
<path d="M21.1076 71.915L15.4839 74.8204C15.2915 74.9188 15.0959 74.9647 14.9036 74.9647H20.6675C20.8598 74.9647 21.0555 74.9188 21.2478 74.8204L26.8716 71.915C27.0607 71.8167 27.253 71.7708 27.4454 71.7708H21.6814C21.4891 71.7708 21.2967 71.8167 21.1076 71.915Z" fill="#0CBAB5" stroke="black" stroke-width="0.0531815" stroke-miterlimit="10"/>
<path d="M33.2652 72.6233L29.415 79.1359C29.0759 79.7098 28.5967 79.9983 28.1174 79.9983H33.8814C34.3606 79.9983 34.8398 79.7098 35.1789 79.1359L39.0291 72.6233C39.3551 72.0724 39.8311 71.7708 40.3169 71.7708H34.553C34.0639 71.7708 33.5912 72.0724 33.2652 72.6233Z" fill="#0CBAB5" stroke="black" stroke-width="0.0531815" stroke-miterlimit="10"/>
<path d="M39.0291 7.37352L35.1789 0.860973C34.8398 0.287107 34.3606 -0.00146484 33.8814 -0.00146484H28.1174C28.5967 -0.00146484 29.0759 0.287107 29.415 0.860973L33.2652 7.37352C33.5912 7.92771 34.0672 8.2294 34.5562 8.2294H40.3202C39.8311 8.2294 39.3551 7.92771 39.0291 7.37352Z" fill="#0CBAB5" stroke="black" stroke-width="0.0531815" stroke-miterlimit="10"/>
<path d="M61.3922 41.8445C62.2007 40.8804 62.2007 39.1162 61.3922 38.1488L56.8117 32.6758C56.2738 32.0298 56.0716 30.9739 56.3129 30.0294L58.3537 22.0281C58.7123 20.6213 58.0929 19.0899 57.0562 18.8309L51.1651 17.3454C50.4707 17.1683 49.923 16.3944 49.8024 15.4041L48.7591 7.02565C48.6091 5.83857 47.8854 5.03516 47.0899 5.03516H41.326C42.1215 5.03516 42.8452 5.84185 42.9952 7.02565L44.0384 15.4041C44.1623 16.3944 44.7068 17.1683 45.4012 17.3454L51.2922 18.8309C52.329 19.0899 52.9484 20.6181 52.5898 22.0281L50.5489 30.0294C50.3077 30.9739 50.5065 32.0298 51.0477 32.6758L55.6282 38.1488C56.4368 39.1129 56.4368 40.8804 55.6282 41.8445L51.0477 47.3208C50.5098 47.9668 50.3077 49.026 50.5489 49.9704L52.5898 57.9685C52.9484 59.3753 52.329 60.9067 51.2922 61.169L45.4012 62.6545C44.7068 62.8283 44.159 63.6055 44.0384 64.5925L42.9952 72.971C42.8452 74.1613 42.1182 74.9647 41.326 74.9647H47.0899C47.8854 74.9647 48.6124 74.1613 48.7591 72.971L49.8024 64.5925C49.9263 63.6022 50.4707 62.8283 51.1651 62.6545L57.0562 61.169C58.0929 60.9067 58.7123 59.3786 58.3537 57.9685L56.3129 49.9704C56.0716 49.026 56.2705 47.9668 56.8117 47.3208L61.3922 41.8445Z" fill="#0CBAB5" stroke="black" stroke-width="0.0531815" stroke-miterlimit="10"/>
<path d="M28.1167 0.00219727C28.5959 0.00219727 29.0751 0.290769 29.4142 0.864635L33.2644 7.37718C33.5905 7.93137 34.0664 8.23306 34.5555 8.23306C34.7478 8.23306 34.9402 8.18715 35.1292 8.08878L40.753 5.18338C40.9453 5.085 41.1409 5.03581 41.3333 5.03581C42.1288 5.03581 42.8525 5.8425 43.0025 7.02631L44.0457 15.4047C44.1696 16.3951 44.7141 17.169 45.4085 17.346L51.2996 18.8315C52.3363 19.0906 52.9557 20.6187 52.5971 22.0288L50.5563 30.0301C50.315 30.9745 50.5139 32.0304 51.055 32.6764L55.6355 38.1495C56.4441 39.1136 56.4441 40.8811 55.6355 41.8452L51.055 47.3215C50.5171 47.9675 50.315 49.0267 50.5563 49.9711L52.5971 57.9691C52.9557 59.3759 52.3363 60.9073 51.2996 61.1697L45.4085 62.6551C44.7141 62.8289 44.1664 63.6061 44.0457 64.5932L43.0025 72.9716C42.8525 74.162 42.1255 74.9654 41.3333 74.9654C41.1409 74.9654 40.9453 74.9195 40.753 74.8211L35.1292 71.9157C34.9402 71.8173 34.7478 71.7714 34.5555 71.7714C34.0664 71.7714 33.5937 72.0731 33.2677 72.624L29.4175 79.1366C29.0784 79.7104 28.5992 79.999 28.1199 79.999C27.6407 79.999 27.1614 79.7104 26.8224 79.1366L22.9722 72.624C22.6461 72.0731 22.1734 71.7714 21.6844 71.7714C21.4921 71.7714 21.2997 71.8173 21.1106 71.9157L15.4869 74.8211C15.2945 74.9195 15.0989 74.9654 14.9098 74.9654C14.1144 74.9654 13.3873 74.162 13.2406 72.9716L12.1941 64.5932C12.0702 63.6028 11.5291 62.8289 10.8314 62.6551L4.9403 61.1697C3.90357 60.9073 3.28415 59.3792 3.64277 57.9691L5.68362 49.9711C5.92487 49.0267 5.72599 47.9675 5.18481 47.3215L0.604312 41.8452C-0.204204 40.8811 -0.204204 39.1168 0.604312 38.1495L5.18481 32.6764C5.72599 32.0304 5.92487 30.9745 5.68362 30.0301L3.64277 22.0288C3.28089 20.622 3.90357 19.0906 4.9403 18.8315L10.8314 17.346C11.5291 17.169 12.0735 16.3951 12.1941 15.4047L13.2406 7.02631C13.3873 5.83923 14.1143 5.03581 14.9066 5.03581C15.0989 5.03581 15.2945 5.08172 15.4869 5.18338L21.1106 8.08878C21.2997 8.18387 21.4921 8.23306 21.6844 8.23306C22.1702 8.23306 22.6461 7.93137 22.9722 7.37718L26.8224 0.864635C27.1614 0.290769 27.6407 0.00219727 28.1199 0.00219727H28.1167Z" fill="#2BF2F1" stroke="black" stroke-width="0.0531815" stroke-miterlimit="10"/>
<path d="M39.9666 27.6887C40.335 27.6887 40.7034 27.8888 40.9805 28.2921L42.7475 30.8433C43.2985 31.6435 43.292 32.9224 42.7313 33.7061L26.7663 56.0705C26.4892 56.4574 26.1273 56.6542 25.7687 56.6542C25.4101 56.6542 25.0417 56.4574 24.7646 56.0606L18.0617 46.5246C17.5075 45.7343 17.5075 44.4554 18.0617 43.6651L19.8418 41.1303C20.1189 40.7335 20.484 40.5367 20.8491 40.5367C21.2143 40.5367 21.5762 40.7335 21.8565 41.1303L25.3873 46.1541C25.5014 46.3147 25.6481 46.3934 25.7948 46.3934C25.9415 46.3934 26.0882 46.3147 26.1991 46.1573L38.969 28.2691C39.2461 27.8822 39.608 27.6887 39.9666 27.6887Z" fill="#0CBAB5"/>
<path d="M25.6133 43.9964C25.4731 43.9964 25.3329 43.921 25.2253 43.7701L21.8837 39.0185C21.6229 38.6447 21.2773 38.4578 20.9317 38.4578H15.1678C15.5134 38.4578 15.8557 38.6447 16.1198 39.0185L19.4614 43.7701C19.569 43.921 19.7092 43.9964 19.8494 43.9964H25.6133Z" fill="#D6D6D6" stroke="black" stroke-width="0.0531815" stroke-miterlimit="10"/>
<path d="M41.6471 29.2861L39.9747 26.8726C39.7106 26.4922 39.365 26.302 39.0162 26.302H33.2523C33.6011 26.302 33.9467 26.4922 34.2108 26.8726L35.8832 29.2861C36.4048 30.0403 36.3983 31.2504 35.8702 31.9915L20.7692 53.1425C20.5083 53.5098 20.166 53.6934 19.8237 53.6934H25.5877C25.93 53.6934 26.269 53.5098 26.5331 53.1425L41.6341 31.9915C42.1622 31.2504 42.1688 30.0403 41.6471 29.2861Z" fill="#D6D6D6" stroke="black" stroke-width="0.0531815" stroke-miterlimit="10"/>
<path d="M33.2514 26.3016C33.6002 26.3016 33.9458 26.4918 34.2099 26.8722L35.8823 29.2857C36.404 30.0399 36.3974 31.25 35.8693 31.9911L20.7683 53.1421C20.5075 53.5094 20.1652 53.693 19.8229 53.693C19.4806 53.693 19.135 53.5061 18.8742 53.1323L12.5332 44.1144C12.0083 43.3667 12.0083 42.1567 12.5332 41.4123L14.2187 39.0152C14.4827 38.6414 14.8251 38.4544 15.1706 38.4544C15.5162 38.4544 15.8585 38.6414 16.1226 39.0152L19.4642 43.7668C19.5718 43.9176 19.712 43.9931 19.8522 43.9931C19.9924 43.9931 20.1293 43.9176 20.2336 43.7701L32.3092 26.8493C32.57 26.482 32.9124 26.2983 33.2547 26.2983L33.2514 26.3016Z" fill="white" stroke="black" stroke-width="0.0531815" stroke-miterlimit="10"/>
</g>
<defs>
<clipPath id="clip0_664_11562">
<rect width="62" height="80" fill="white"/>
</clipPath>
</defs>
</svg>
