<svg width="80" height="80" viewBox="0 0 80 80" fill="none" xmlns="http://www.w3.org/2000/svg">
<g clip-path="url(#clip0_664_11557)">
<path d="M40 0.0822754C62.0459 0.0822754 79.918 17.9543 79.918 40.0002C79.918 62.0462 62.0459 79.9182 40 79.9182C17.9541 79.9182 0.0820312 62.0462 0.0820312 40.0002C0.0820312 17.9543 17.9541 0.0822754 40 0.0822754Z" fill="#2BF2F1" stroke="#082422" stroke-width="0.164607"/>
<mask id="mask0_664_11557" style="mask-type:luminance" maskUnits="userSpaceOnUse" x="0" y="0" width="80" height="81">
<path d="M40 0.0822754C62.0459 0.0822754 79.918 17.9543 79.918 40.0002C79.918 62.0462 62.0459 79.9182 40 79.9182C17.9541 79.9182 0.0820312 62.0462 0.0820312 40.0002C0.0820312 17.9543 17.9541 0.0822754 40 0.0822754Z" fill="white" stroke="white" stroke-width="0.164607"/>
</mask>
<g mask="url(#mask0_664_11557)">
<path d="M99.467 24.3488C99.1615 24.3867 98.8544 24.4247 98.4744 24.4722C98.5837 24.1604 98.6454 23.9831 98.7087 23.8058C98.6961 23.7915 98.6818 23.7773 98.6692 23.763C98.6106 23.8263 98.5378 23.8802 98.4966 23.9546C98.3177 24.268 98.0834 24.3329 97.781 24.2126C97.6528 24.1619 97.5056 24.1762 97.3774 24.1255C97.257 24.078 97.1098 24.0147 97.0481 23.9039C96.8344 23.5176 96.3879 23.3799 96.0776 23.6918C95.7388 24.0306 95.4032 24.3947 95.1436 24.8094C94.9109 25.1815 94.675 25.2052 94.36 25.0453C94.2017 24.9646 94.0544 24.8427 93.8898 24.7984C93.7457 24.7604 93.5051 24.7366 93.4465 24.8253C93.1774 25.2321 92.8212 25.1197 92.4935 25.0738C91.7004 24.9646 91.0086 25.0976 90.4181 25.802C90.0271 26.2706 89.5268 26.6173 89.0978 27.0463C88.9157 27.2268 88.8334 27.4643 89.1089 27.6891C89.4176 27.9424 89.7199 28.1434 90.1284 28.0959C90.2329 28.0833 90.4181 28.2717 90.4561 28.4078C90.5178 28.6294 90.5384 28.8986 90.4893 29.1218C90.3627 29.698 90.5511 30.3328 90.217 30.8743C90.1711 30.9471 90.2962 31.1576 90.4292 31.3809C89.9067 32.06 89.4239 32.7898 88.8429 33.3977C88.5928 33.6605 88.2777 34.0515 87.7632 33.7998C87.5321 33.6874 87.2028 33.9518 87.0445 34.2985C86.9622 34.4774 86.8514 34.661 86.7105 34.7766C86.4683 34.9776 86.4366 35.1929 86.6282 35.4209C86.9479 35.8008 86.9099 36.2615 86.8751 36.7127C86.8545 36.9802 86.7358 37.1892 86.4398 37.2003C86.31 37.205 86.1833 37.319 86.0551 37.3855C85.9664 37.4314 85.8556 37.5438 85.8002 37.5153C85.7274 37.4773 85.6735 37.3317 85.6593 37.2256C85.6356 37.0467 85.6403 36.8615 85.6482 36.6795C85.6609 36.3723 85.6213 36.1586 85.3221 35.994C85.1432 35.8958 85.0799 35.527 84.9311 35.2088C84.7886 35.3101 84.5939 35.4494 84.4324 35.5618C84.5891 35.6995 84.7411 35.8341 84.8931 35.9671C84.7506 36.127 84.6097 36.2932 84.4609 36.4467C84.4023 36.5069 84.3248 36.5417 84.2567 36.5892C83.8419 36.8742 83.8514 36.8995 84.0873 37.4045C84.301 37.8605 84.5036 38.329 84.6556 38.8151C84.8234 39.3454 84.6129 39.7982 84.301 40.1844C84.1174 40.4124 83.9591 40.558 84.3374 40.7876C84.4957 40.8842 84.605 41.2752 84.5876 41.5174C84.567 41.7992 84.3944 42.0715 84.2662 42.3343C84.111 42.6541 83.8182 42.6683 83.6203 42.3517C83.5 42.1601 83.4351 41.9227 83.3717 41.7691C82.5295 42.1918 81.7016 42.6081 80.8435 43.0387C80.834 43.4678 80.815 43.9728 80.3069 44.1152C80.1406 44.1627 79.8462 44.1184 79.7702 43.9902C79.5802 43.6751 79.5707 43.3015 79.9396 43.0277C79.5961 42.8298 79.4172 43.0641 79.3016 43.2667C79.1987 43.4456 79.1354 43.6688 79.3412 43.9174C79.653 44.2926 79.9253 44.7232 80.1533 45.1712C80.5728 45.996 80.3607 46.6846 79.6151 47.1405C79.4488 47.2419 79.2953 47.3923 79.1702 47.5553C78.8773 47.9337 78.6193 47.9384 78.3359 47.5426C78.1095 47.226 77.8958 46.892 77.6425 46.6055C77.5333 46.482 77.3386 46.4566 77.1818 46.387C77.1138 46.6324 76.9475 46.9062 76.9966 47.1152C77.1185 47.6455 77.4114 48.0587 77.8626 48.3326C78.3138 48.6065 78.4657 49.322 78.2932 49.9917C78.2536 50.1468 78.2868 50.3257 78.2868 50.5268C77.4256 50.1041 77.2911 49.1337 76.9444 48.3453C76.9095 48.3706 76.8763 48.3943 76.8415 48.4197C76.8763 48.5337 76.9095 48.6476 76.9523 48.787C76.6531 48.6793 76.2225 47.9891 76.2146 47.625C76.2019 47.063 76.2304 46.4962 76.1829 45.939C76.1512 45.5717 76.0199 45.2171 75.917 44.796C75.7222 44.9084 75.6352 44.9654 75.5418 45.0113C75.2061 45.1759 74.8404 44.9733 74.8452 44.5664C74.8547 43.7686 74.261 43.3712 74.0014 42.7585C73.9903 42.7332 73.965 42.7126 73.9413 42.7015C73.8019 42.6271 72.8204 43.0356 72.7476 43.1939C72.7175 43.2604 72.6969 43.3475 72.6494 43.3886C72.2822 43.6957 71.8991 43.9807 71.5397 44.3005C71.2278 44.5791 70.9302 44.883 70.6484 45.2028C70.5819 45.2788 70.6152 45.4625 70.5914 45.5954C70.536 45.8931 70.4664 46.1859 70.4157 46.4836C70.3983 46.5833 70.3872 46.7068 70.422 46.7938C70.6041 47.245 70.7798 47.7025 71.003 48.1268C71.1518 48.4118 71.117 48.5732 70.8701 48.7031C70.7038 48.7901 70.5376 48.874 70.3286 48.9817C70.2384 48.8297 70.1244 48.6698 70.0453 48.4909C69.9629 48.3057 69.9154 48.1015 69.8521 47.9052C69.2173 48.1711 69.1366 48.1015 68.8358 47.3226C68.5477 46.5754 68.2025 45.8582 67.9018 45.1173C67.7878 44.834 67.6833 44.5284 67.65 44.2229C67.5741 43.5358 67.1181 43.2414 66.697 42.8947C66.5846 42.8029 66.4865 42.6762 66.4105 42.5432C66.0337 41.8768 65.6332 41.291 64.8226 41.3543C64.2796 41.3971 63.7335 41.3622 63.1271 41.3622C63.2079 41.5316 63.2475 41.633 63.3013 41.7264C63.6116 42.2741 63.5973 42.7316 63.2253 43.1907C62.8818 43.6166 62.5272 44.0313 62.163 44.435C62.0744 44.5332 61.9335 44.5743 61.8132 44.6329C61.2844 44.891 60.7478 45.13 60.2269 45.4102C59.6918 45.6983 59.1742 46.026 58.647 46.3347C58.6628 46.387 58.6787 46.4376 58.6945 46.4899C59.0728 46.4297 59.4528 46.3712 59.8311 46.311C59.9625 46.2904 60.0939 46.2651 60.2253 46.2429C60.7129 46.159 60.9456 46.3965 60.7842 46.9316C60.6195 47.4777 60.3393 47.9812 60.0955 48.4957C59.9024 48.9025 59.6902 49.2967 59.4797 49.6925C59.4259 49.7938 59.3689 49.9125 59.2866 49.9679C58.4095 50.5505 57.7209 51.3801 57.1383 52.2935C56.9088 52.6545 56.847 53.2481 56.8818 53.7183C56.9499 54.6666 57.1526 55.6022 57.2634 56.5489C57.3188 57.0175 56.8343 57.6111 56.456 57.7678C56.2185 57.866 56.0428 58.1446 55.8275 58.3203C55.4444 58.6338 55.3051 58.9963 55.4571 59.5504C55.6201 60.1393 55.3557 60.6681 55.104 61.1683C55.0771 61.2237 54.9916 61.2712 54.9331 61.2696C54.6307 61.2633 54.637 61.5024 54.5816 61.7493C54.512 62.0612 54.4201 62.411 54.2365 62.6358C53.7505 63.2295 53.4972 64.0511 52.8006 64.4422C52.2893 64.7287 51.7827 64.9519 51.2065 64.9614C50.9452 64.9662 50.6809 65.0406 50.4244 65.1118C49.6946 65.3144 49.2308 64.944 49.1326 64.0955C49.0978 63.7836 49.0345 63.4638 48.9268 63.1757C48.6719 62.495 48.3806 61.8316 48.1115 61.1588C48.0735 61.0638 48.045 60.9514 48.0529 60.8501C48.1036 60.1377 47.8155 59.5504 47.4973 58.9963C46.9748 58.0876 47.1189 57.1362 47.282 56.1721C47.2899 56.1278 47.3041 56.0787 47.3295 56.047C48.0656 55.17 47.5163 54.3167 47.2361 53.5141C47.0366 52.941 46.6709 52.4297 46.3305 51.9373C46.063 51.551 46.0535 51.1679 46.245 50.7959C46.5094 50.2798 46.1706 49.9331 46.025 49.5373C46.0044 49.4804 45.7432 49.4756 45.634 49.5373C45.3712 49.6909 45.1875 49.6181 45.0767 49.3379C44.8773 48.8329 44.5179 48.6999 44.0984 48.8107C43.7485 48.9041 43.4192 49.0972 43.0789 49.2366C42.9079 49.3062 42.7322 49.3933 42.5533 49.4075C42.0245 49.4487 41.4942 49.4598 40.9654 49.4788C40.6077 49.4914 40.2926 49.4994 40.0092 49.1036C39.7908 48.7996 39.3887 48.673 39.0847 48.4418C38.9549 48.3437 38.7808 48.1838 38.7728 48.0413C38.7475 47.6091 38.5243 47.3638 38.271 47.1025C38.0256 46.8508 37.7707 46.5865 37.6029 46.2698C37.3607 45.8139 37.3101 45.3295 37.5428 44.796C37.7882 44.234 37.7834 43.6166 37.5507 43.0277C37.4336 42.7316 37.4193 42.4831 37.5919 42.1807C37.8325 41.758 37.9908 41.2752 38.2045 40.8303C38.3058 40.6198 38.4531 40.4393 38.6066 40.205C38.1982 40.205 37.8863 40.2288 37.5808 40.1939C37.4605 40.1797 37.3528 40.034 37.2388 39.9485C37.3386 39.7934 37.4272 39.624 37.5444 39.4879C37.5839 39.442 37.7185 39.4404 37.7739 39.4815C38.1206 39.738 38.4182 39.4879 38.613 39.4135C38.8647 39.5259 39.0451 39.6889 39.1686 39.6446C39.5011 39.5274 39.7955 39.2647 39.8019 38.8325C39.8114 38.0995 40.166 37.6641 40.6536 37.2905C40.7818 37.1924 40.9005 37.0309 40.9543 36.8679C41.0509 36.5686 40.9638 36.3502 40.6409 36.3755C40.3021 36.4024 40.1581 36.2109 40.128 35.8452C40.1185 35.7359 40.033 35.6378 40.014 35.527C39.9792 35.3386 39.8905 35.0679 39.9649 34.9666C40.1945 34.6579 40.1881 34.3397 40.1438 33.9819C40.0377 33.1318 40.2768 32.8215 41.0303 32.8357C41.4435 32.8436 41.8551 32.8753 42.2667 32.907C42.5264 32.926 42.6182 32.7771 42.6403 32.5048C42.6831 32.0014 42.3855 31.5534 41.9786 31.3903C41.8029 31.3191 41.681 31.0706 41.5353 30.9012C41.6968 30.746 41.8472 30.5671 42.0261 30.4452C42.1243 30.3788 42.2715 30.4072 42.3981 30.393C42.4013 30.3455 42.4045 30.298 42.4076 30.2489C42.2145 30.2299 42.0182 30.2252 41.8282 30.1872C41.6683 30.1555 41.4134 30.1318 41.3786 30.0257C41.328 29.8737 41.4404 29.6537 41.4799 29.4621C41.4894 29.4194 41.4926 29.3767 41.5148 29.212C41.1807 29.2896 40.8689 29.3149 40.5934 29.44C40.3132 29.565 40.0488 29.6679 39.8129 29.4146C39.5976 29.1819 39.5723 28.897 39.7654 28.5946C39.8066 28.5313 39.7306 28.3587 39.691 28.2432C39.6024 27.9772 39.6119 27.7951 39.8921 27.6748C40.0773 27.5957 40.2277 27.412 40.3923 27.2711C40.5032 27.1762 40.5966 27.0321 40.7185 26.9862C40.9575 26.8944 40.9591 26.7487 40.8641 26.535C40.5174 25.7593 40.7945 25.191 41.5448 25.1071C41.7491 25.0849 41.9485 24.9867 42.1528 24.9693C42.2826 24.9582 42.4773 24.9852 42.5374 25.0801C42.6166 25.2084 42.5944 25.4205 42.6229 25.6596C42.9554 25.7213 42.957 26.0664 43.0092 26.4638C43.063 26.8706 43.2609 27.2601 43.4366 27.6337C43.5459 27.868 43.7137 28.0785 43.8847 28.2622C44.043 28.4316 44.244 28.5519 44.4435 28.707C44.6113 28.5503 44.8203 28.3081 45.0656 28.1371C45.3047 27.9725 45.5801 27.879 45.7844 27.7809C45.8271 27.3677 45.7749 26.8865 45.9411 26.5445C46.0899 26.239 46.4809 26.087 46.8593 25.7925C46.8894 26.1471 46.8814 26.3403 46.9274 26.5176C46.9622 26.649 47.0445 26.8041 47.1427 26.8564C47.2091 26.8912 47.396 26.7962 47.4308 26.7076C47.4719 26.6062 47.4244 26.44 47.3817 26.3165C47.301 26.0775 47.1981 25.8464 47.0999 25.6152C46.9353 25.2242 46.7975 25.2068 46.4825 25.4237C46.2213 25.6026 45.9253 25.7134 45.6419 25.8495C45.2714 26.0268 45.0324 25.745 44.9722 25.4332C44.8535 24.8189 44.8329 24.1809 44.7823 23.5509C44.7775 23.4875 44.8234 23.3973 44.8709 23.3546C45.2414 23.0158 45.5817 22.5773 46.0044 22.3889C46.2989 22.2575 46.5189 22.0754 46.7611 21.8807C47.2297 21.5055 47.6033 20.866 47.502 20.3768C47.3516 19.6486 47.8012 19.4712 48.0292 19.0771C48.0735 18.9995 48.1685 18.9251 48.2461 18.914C48.7606 18.8333 49.1532 18.5293 49.4888 18.0955C49.5395 18.0306 49.6139 17.9673 49.6851 17.9531C50.1157 17.8739 50.5479 17.809 50.9801 17.7393C51.0719 17.7251 51.178 17.7393 51.2508 17.6871C51.9378 17.1995 52.6312 17.2866 53.3405 17.6222C53.6064 17.7473 53.9705 17.695 54.0212 18.1684C54.0244 18.1921 54.0497 18.2254 54.0719 18.2333C54.4154 18.352 54.7637 18.4581 55.1056 18.5831C55.4681 18.7145 55.8275 18.8554 56.1837 19.0042C56.3262 19.0644 56.4592 19.1546 56.5953 19.2354C56.9119 19.4222 57.2919 19.5077 57.3868 20.019C57.4217 20.2042 57.5942 20.3562 57.7051 20.5224C57.7573 20.4892 57.8095 20.4575 57.8618 20.4243C57.7858 20.1013 57.7351 19.7689 57.6259 19.4617C57.5436 19.229 57.5056 19.0565 57.7415 18.9409C57.9678 18.8285 58.1942 18.7383 58.3842 19.0264C58.438 19.1087 58.5077 19.248 58.5663 19.2464C58.9304 19.2338 59.2248 19.3019 59.2122 19.8939C59.2486 19.867 59.2866 19.8401 59.323 19.8148C59.3372 19.6929 59.391 19.5567 59.361 19.4507C59.1726 18.7715 59.3135 18.5768 60.0797 18.6116C60.3646 18.6243 60.6924 18.6591 60.428 19.2607C60.6417 19.1768 60.7683 19.1483 60.8776 19.0802C61.1483 18.9124 61.4063 18.7636 61.647 19.1372C61.6707 19.1736 61.7483 19.1926 61.791 19.1784C62.1836 19.0501 62.5731 18.914 62.9483 18.7842C62.9673 18.61 62.9578 18.3631 63.0369 18.162C63.0638 18.0924 63.3108 18.1082 63.4533 18.1272C63.6385 18.1525 63.8205 18.2649 64.0026 18.2633C64.4411 18.2586 64.8543 18.2016 65.2137 18.6401C65.3941 18.8602 65.7361 18.9077 66.0036 19.0343C66.0258 18.9757 66.048 18.9187 66.0701 18.8602C65.9324 18.7858 65.7962 18.7129 65.7076 18.6655C65.6807 18.3314 65.6094 18.0227 65.649 17.733C65.6791 17.5114 65.8437 17.3087 65.9625 17.1093C66.0907 16.8956 66.2395 16.6992 66.3693 16.4855C66.4121 16.4143 66.3994 16.2876 66.4501 16.2338C66.6764 15.9979 66.8949 15.7256 67.1624 15.5753C67.3113 15.4913 67.8337 16.3146 67.8653 16.6423C67.878 16.7752 67.8669 16.9114 67.8669 17.1029C68.163 16.9256 68.5382 16.9161 68.421 16.3557C68.4527 16.3383 68.4827 16.3225 68.5144 16.3051C68.6236 16.419 68.7265 16.5409 68.8453 16.6423C68.9403 16.723 69.0574 16.8449 69.154 16.8338C69.5592 16.7911 69.9598 16.704 70.403 16.6264C70.403 16.647 70.4141 16.5584 70.3904 16.4824C70.2162 15.922 70.2226 15.9014 70.7086 15.6481C70.7466 15.6291 70.7735 15.5848 70.7545 15.4929C71.0679 15.4233 71.3798 15.3536 71.7629 15.2681C71.8532 15.1035 71.6204 14.6523 72.078 14.5811C72.3439 14.5399 72.5845 14.3341 72.8489 14.2502C73.3919 14.0808 73.9381 13.9241 74.4906 13.8038C74.8531 13.7246 75.2315 13.666 75.5956 13.6945C76.1877 13.7389 76.6578 13.3969 77.0473 13.0217C77.375 12.7067 77.7375 12.7336 78.0747 12.588C78.2504 12.512 78.4705 12.5674 78.67 12.5785C78.7586 12.5832 78.9074 12.6006 78.9248 12.6576C79.1195 13.2655 79.6008 13.0708 79.976 13.1705C80.3987 13.2829 80.8356 13.3478 81.2377 13.522C81.7427 13.742 81.8361 14.2249 81.5322 14.7251C81.3786 14.9784 81.5765 15.5278 81.8456 15.5563C82.11 15.5848 82.3776 15.5911 82.6435 15.5848C82.9775 15.5768 83.2815 15.5468 83.5142 15.952C83.6044 16.1088 83.9195 16.1103 84.1364 16.1562C84.3912 16.2101 84.5163 16.0945 84.6303 15.7953C84.6904 15.6386 85.0419 15.5642 85.2619 15.5642C85.6039 15.5642 85.9458 15.6687 86.2894 15.7114C86.6598 15.7573 86.8767 15.9615 86.9004 16.4032C86.9147 16.6613 86.9179 16.9272 86.9796 17.171C87.0113 17.2977 87.1506 17.4607 87.2535 17.4734C87.3516 17.4845 87.5289 17.3436 87.5606 17.2296C87.6556 16.8829 87.7806 16.9415 88.0561 16.9937C88.6371 17.1014 89.2387 17.0649 89.8323 17.076C89.8814 17.076 89.9637 17 89.978 16.943C90.0999 16.4475 90.4782 16.476 90.7869 16.4776C91.4645 16.4776 92.1436 16.5362 92.8212 16.5948C93.2296 16.6312 93.6017 16.7262 93.9199 17.1172C94.2792 17.5573 94.7241 17.6982 95.3241 17.5794C95.9352 17.4591 96.5985 17.6918 97.2396 17.7758C97.3014 17.7837 97.3552 17.8597 97.4185 17.8723C97.8222 17.9562 98.2291 18.0306 98.6343 18.1082C98.6312 18.1525 98.628 18.1953 98.6264 18.2396C98.4269 18.2602 98.2275 18.2808 98.028 18.2998C98.028 18.3346 98.0312 18.3678 98.0312 18.4027C98.6043 18.3599 99.1805 18.2586 99.7504 18.2918C100.333 18.3251 100.876 17.9325 101.498 18.2364C101.851 18.409 102.326 18.2396 102.746 18.2475C102.896 18.2507 103.064 18.2839 103.192 18.3647C103.873 18.7953 104.573 19.2005 105.209 19.7071C105.617 20.0317 105.989 20.296 106.507 20.2881C106.686 20.285 106.892 20.4844 107.042 20.6443C107.36 20.9815 107.284 21.2633 106.876 21.4644C106.752 21.5261 106.626 21.6512 106.564 21.7857C106.382 22.1799 106.015 22.2559 105.651 22.0833C105.237 21.887 104.786 21.7699 104.341 21.7161C104.219 21.7018 104.011 22.02 103.942 22.229C103.862 22.476 103.908 22.772 103.865 23.0411C103.794 23.4844 103.547 23.6221 103.164 23.505C103.051 23.4701 102.874 23.4891 102.795 23.5699C102.304 24.0796 101.737 24.4073 101.099 24.591C101.003 24.6195 100.927 24.7429 100.83 24.7651C100.643 24.8078 100.417 24.8918 100.265 24.811C100.002 24.6733 99.8391 24.7144 99.5778 24.8569C99.2327 25.0453 99.0048 25.2875 98.7578 25.6121C98.5362 25.9049 98.3969 26.1329 98.4554 26.516C98.5093 26.8643 98.476 27.1746 98.0138 27.1318C98.1024 27.6258 97.8966 27.9471 97.6829 28.3302C97.2745 29.06 96.7789 29.584 96.0887 29.9339C95.7832 30.089 95.5505 30.4357 95.275 30.7033C95.0407 30.2379 95.2101 29.6838 95.5441 29.4764C95.647 29.4131 95.7325 29.1661 95.7151 29.0189C95.6534 28.4648 95.4951 27.9202 95.4681 27.3661C95.4238 26.4638 95.8307 25.9366 96.4338 25.4917C96.6222 25.3524 96.7821 25.1625 96.9784 24.9741C97.0069 25.0485 97.0354 25.1261 97.0702 25.221C97.2539 25.0374 97.4201 24.8712 97.6132 24.678C97.6876 24.7477 97.7937 24.8458 97.9441 24.9852C97.5626 25.2337 97.5784 25.5408 97.7193 25.9445C97.8095 26.2041 97.8792 26.5603 97.5436 26.7899C97.4565 26.8485 97.4755 27.1097 97.4613 27.1936C97.6465 27.0321 97.8966 26.8991 98.0248 26.6743C98.1246 26.4986 98.1325 26.1931 98.0787 25.9762C97.895 25.2274 98.2813 24.6084 98.9604 24.6242C99.0665 24.6274 99.1726 24.6495 99.2787 24.6511C99.4845 24.6543 99.5414 24.5403 99.4575 24.3313C99.6998 24.3393 99.9625 24.2759 100.178 24.363C100.608 24.5403 100.832 24.5102 101.21 24.0195C101.017 24.1129 100.881 24.1889 100.738 24.2443C100.621 24.2886 100.453 24.382 100.384 24.3266C100.062 24.0733 99.7662 24.1303 99.4607 24.3361L99.467 24.3488ZM46.8688 33.8394C46.8371 33.8647 46.8055 33.8916 46.7738 33.917C46.7975 34.0468 46.845 34.175 46.8435 34.3048C46.8387 34.5993 46.8466 34.9048 46.7801 35.185C46.6962 35.5365 46.4065 35.5396 46.1548 35.5032C45.8952 35.4652 45.8097 35.2452 45.8509 34.965C45.9253 34.4536 46.0044 33.9423 46.082 33.4325C45.6498 33.4943 45.2382 33.5196 44.8472 33.632C44.7284 33.6668 44.6683 33.947 44.5701 34.1054C44.5226 34.1829 44.4482 34.2399 44.4182 34.2732C44.616 34.4695 44.7965 34.6468 44.977 34.8241C44.7253 35.0267 44.4783 35.3845 44.2187 35.4003C43.6599 35.4336 43.4145 35.8863 43.0709 36.2504C43.2039 36.2758 43.3258 36.2615 43.4446 36.233C43.8688 36.1301 44.2915 36.0098 44.7189 35.9227C44.8994 35.8863 45.091 35.9322 45.2746 35.9117C45.7321 35.8626 46.1881 35.7676 46.6471 35.7454C46.9812 35.7296 47.2234 35.8753 47.2329 36.3549C47.2408 36.7254 47.3485 37.0942 47.4055 37.4283C47.7949 37.5834 48.2445 37.6404 48.5484 37.9127C48.9426 38.2657 49.3717 38.3211 49.8846 38.4984C49.7468 37.7971 50.1759 37.7085 50.5178 37.7021C50.9152 37.6958 51.3189 37.8383 51.7115 37.9539C52.3399 38.1407 52.9368 38.5713 53.6254 38.1787C53.7537 38.1058 53.9405 38.1486 54.0972 38.166C54.6418 38.2277 54.9093 37.9554 54.9489 37.243C54.789 37.289 54.6402 37.338 54.4882 37.3713C54.1368 37.4504 53.9959 37.3174 53.9626 36.9217C53.9563 36.8378 53.8566 36.6842 53.8376 36.6921C53.361 36.8773 52.7706 36.5275 52.3764 37.0911C52.0946 37.4948 51.5152 37.4393 51.1827 37.1132C50.9262 36.8615 50.6904 36.5781 50.4624 36.2916C50.2993 36.0858 50.1157 35.8721 50.0255 35.622C49.7896 34.9666 49.6376 34.9206 49.2086 35.4589C49.1279 35.5602 49.055 35.6679 48.9806 35.7771C48.2983 36.7855 48.5928 36.6937 47.6492 36.184C47.6255 36.1713 47.5891 36.1634 47.5812 36.1412C47.5226 35.9845 47.426 35.8214 47.4339 35.6679C47.4387 35.5713 47.597 35.4605 47.7047 35.4051C47.806 35.3528 47.9326 35.3655 48.064 35.3465C48.0561 34.9555 48.0988 34.5898 47.635 34.5154C47.4973 34.4932 47.3785 34.3143 47.2535 34.2019C47.1237 34.0848 46.997 33.9613 46.8704 33.841L46.8688 33.8394ZM50.5368 25.1799C50.7109 25.1973 50.8661 25.2717 50.9421 25.2131C51.3616 24.8886 51.8112 24.8823 52.2845 24.9535C52.6154 25.0042 52.7769 24.8126 52.807 24.3883C52.6328 24.4026 52.4777 24.3978 52.3273 24.4327C52.093 24.4865 51.865 24.5799 51.6307 24.6321C50.931 24.7857 50.5526 24.4485 50.5099 23.6554C50.5036 23.5525 50.4687 23.4496 50.4466 23.3482C50.3896 23.0728 50.4466 22.8749 50.6492 22.6707C50.9326 22.3841 51.1669 22.0327 51.4028 21.6907C51.4471 21.6258 51.436 21.4216 51.3885 21.3836C51.3173 21.3282 51.1811 21.3314 51.0925 21.3694C51.0165 21.4026 50.9405 21.5087 50.912 21.6021C50.7157 22.2448 50.2392 22.5409 49.7738 22.8701C49.3004 23.2042 49.2593 23.8548 49.6139 24.3867C49.7753 24.6305 49.8102 24.9123 49.6218 25.183C49.492 25.3683 49.3701 25.5614 49.1848 25.8432C49.3637 25.7973 49.4429 25.7482 49.5078 25.7672C49.6424 25.8036 49.7706 25.8764 49.9004 25.935C49.8213 26.1234 49.7563 26.326 49.6519 26.4938C49.617 26.5493 49.4746 26.5144 49.3827 26.5271C49.0677 26.5714 48.6371 27.1477 48.6719 27.42C49.0424 27.3915 49.4081 27.3535 49.7738 27.3376C50.0096 27.3265 50.1331 27.2221 50.1806 26.945C50.2835 26.3561 50.4133 25.7751 50.5336 25.1815L50.5368 25.1799ZM53.7837 32.2056C53.4782 32.3861 53.0381 33.1476 53.0476 33.5845C53.0492 33.6637 53.1695 33.8077 53.2281 33.8046C53.4988 33.7887 53.7742 33.7634 54.0354 33.6827C54.5357 33.5275 54.9948 33.3771 55.5093 33.7412C55.8243 33.9629 56.2549 33.9771 56.6381 34.0547C56.7077 34.0689 56.8344 33.9565 56.8676 33.8695C56.8882 33.8156 56.7916 33.689 56.7315 33.6114C56.6254 33.4784 56.4972 33.3676 56.3958 33.2315C56.0286 32.7391 55.5726 32.6188 55.0407 32.8626C54.9141 32.9212 54.7257 32.9845 54.6307 32.9212C54.3489 32.7312 54.0988 32.4795 53.7837 32.2041V32.2056ZM55.1864 40.433C55.1484 40.4631 55.1104 40.4931 55.0708 40.5248C55.0771 40.596 55.0613 40.6847 55.0929 40.7353C55.427 41.2863 55.294 42.0493 55.7341 42.5591C55.8117 42.6493 55.78 42.8519 55.8275 42.9913C55.9383 43.319 56.0586 43.6451 56.1916 43.9617C56.2534 44.1089 56.3927 44.2182 56.437 44.3685C56.6159 44.9685 57.1209 45.1601 57.4961 45.5147C57.5372 45.5527 57.6306 45.5195 57.7383 45.5195C57.713 45.3089 57.7415 45.1031 57.6639 44.9939C57.2428 44.3891 57.219 43.4693 56.513 43.091C56.4623 43.0641 56.4148 42.9707 56.4101 42.9042C56.3626 42.1997 55.9526 41.7058 55.6391 41.158C55.4982 40.9095 55.3367 40.6752 55.1848 40.433H55.1864ZM60.7129 31.9381C60.6844 31.87 60.6544 31.8004 60.6259 31.7323C60.3472 31.8954 60.0559 32.0394 59.7932 32.231C59.6554 32.3307 59.4908 32.508 59.4718 32.6695C59.3958 33.3154 59.7599 33.7856 60.1161 34.1782C60.3646 34.4505 60.352 34.661 60.2333 34.927C59.9356 35.595 59.9895 35.7708 60.6179 35.9465C60.7541 35.9845 60.9884 35.9829 61.039 35.8942C61.1166 35.7613 61.104 35.5286 61.0739 35.3512C61.0137 34.9887 60.9251 34.6294 60.8317 34.2747C60.7731 34.0515 60.7066 33.8236 60.6021 33.6241C60.477 33.3835 60.3108 33.1697 60.1604 32.9465C59.9594 32.6489 60.0781 32.4494 60.3108 32.2753C60.4486 32.1708 60.5784 32.0505 60.7113 31.9381H60.7129Z" fill="#60D06F" stroke="#082422" stroke-width="0.164607" stroke-linecap="round" stroke-linejoin="round"/>
<path d="M9.82706 17.7954C9.65608 18.2403 9.51519 18.6044 9.37429 18.9685C9.39329 18.9891 9.41229 19.0113 9.43287 19.0318C9.64025 18.8941 9.85081 18.7627 10.0566 18.6202C10.2513 18.4857 10.4397 18.34 10.693 18.1532C10.6803 18.0297 10.6582 17.8129 10.6329 17.5532C10.0851 17.748 9.70516 17.5168 9.36638 17.0894C9.23973 16.9279 9.01968 16.8662 8.87087 16.7221C8.69198 16.5511 8.63182 16.4087 8.85662 16.1364C9.20015 15.72 9.51836 15.3227 10.0471 15.272C10.3004 15.2483 10.5489 15.2213 10.712 15.5459C10.7563 15.6345 10.9194 15.644 11.027 15.6915C11.0619 15.6646 11.0951 15.6377 11.1299 15.6124C11.0635 15.4493 11.0255 15.253 10.9241 15.1295C10.7785 14.9522 10.6265 14.7464 10.3431 14.9269C10.0059 15.1406 9.73366 15.0662 9.4392 14.6973C9.20016 14.3965 8.78855 14.2826 8.47193 14.0514C8.34053 13.9564 8.2598 13.7728 8.15531 13.6287C8.28671 13.5638 8.41177 13.4704 8.54792 13.4388C8.75214 13.3897 8.96427 13.3755 9.17483 13.3596C9.39329 13.3422 9.61334 13.3533 9.83022 13.3264C10.1199 13.29 10.4223 13.2726 10.6914 13.1617C10.9669 13.0478 11.7568 13.1 12.0212 13.2599C12.208 13.3723 12.4819 13.4689 12.6529 13.3913C12.7969 13.3248 12.8492 12.9955 12.9394 12.7881C13.1231 12.8752 13.3843 13.1095 13.5252 13.0383C13.6787 12.9591 13.7215 12.5982 13.8481 12.2673C13.6851 12.2673 13.5505 12.2388 13.4286 12.272C12.884 12.4177 12.3315 12.3354 11.9753 11.8921C11.6872 11.5327 11.4418 11.3174 11.0191 11.2589C10.9162 11.2446 10.7769 10.7523 10.8022 10.5006C10.864 9.89107 11.5115 9.33065 12.0402 9.44463C12.3157 9.50479 12.5547 9.77867 12.8144 9.94806C13.0328 10.0905 13.2576 10.2203 13.4793 10.3549C13.5046 10.3106 13.5299 10.2678 13.5568 10.2235C13.4238 10.0573 13.2972 9.88473 13.1563 9.72484C13.0107 9.5602 12.8523 9.40822 12.588 9.13593C12.9647 9.00928 13.2497 8.90322 13.5394 8.81773C13.8434 8.72908 14.1521 8.65942 14.4592 8.58185C14.6001 8.54544 14.7505 8.4552 14.8803 8.48528C15.4185 8.60876 15.8396 8.2589 16.313 8.09742C16.8006 7.9312 17.3293 7.85362 17.8407 7.85362C19.1008 7.85046 20.361 7.91695 21.6211 7.94861C22.1182 7.96128 22.457 8.31589 22.9208 8.61034C22.5124 8.83514 22.1942 8.99662 21.8886 9.18501C21.2633 9.57128 20.5794 9.88315 20.0443 10.3977C19.6296 10.7966 19.1562 11.0246 18.7367 11.3681C18.4549 11.5992 18.2855 12.0029 18.0528 12.3179C17.9784 12.4177 17.8739 12.5158 17.7663 12.5507C17.4354 12.6567 17.1853 12.7707 17.3673 13.2726C17.4085 13.3881 17.2438 13.6082 17.1631 13.7728C17.0396 14.0229 16.8576 14.2509 16.7863 14.5184C16.6328 15.0994 16.1262 15.4477 15.6133 15.2752C15.4755 15.2293 15.3283 15.2134 15.1842 15.2023C14.4038 15.1453 13.6217 15.101 12.8413 15.0361C12.5579 15.0124 12.303 14.9443 12.2175 14.5295C12.1906 14.3997 11.9357 14.3332 11.7869 14.2382C11.836 14.5628 11.8756 14.8335 11.9152 15.1026C11.8756 15.1327 11.836 15.1628 11.798 15.1944C12.0671 15.2847 12.3442 15.3543 12.6038 15.4731C12.7273 15.53 12.8872 15.6694 12.9046 15.796C12.9315 15.9891 12.9964 16.2614 12.713 16.3612C12.55 16.4182 12.3901 16.51 12.246 16.616C12.0402 16.7696 11.969 16.939 12.1685 17.2065C12.3489 17.4503 12.4756 17.7527 12.6006 18.044C12.7574 18.4081 12.9758 18.6266 13.3447 18.7026C13.541 18.7437 13.712 18.9511 13.8893 19.092C13.9938 19.1743 14.0903 19.2709 14.1901 19.3611C14.255 19.2123 14.3341 19.0683 14.3769 18.9115C14.4022 18.8181 14.3705 18.7057 14.3658 18.6471C14.0713 18.5126 13.7943 18.4224 13.5473 18.2656C13.0597 17.9569 12.8096 17.235 13.036 16.6556C13.3067 15.9622 13.655 15.4176 14.4228 15.5918C15.1304 15.7533 15.8175 15.5918 16.514 15.6108C17.0681 15.6266 17.4876 15.8007 17.9072 16.2345C18.3014 16.6414 18.7209 17.0878 19.3399 17.0973C19.5868 17.1021 19.8322 17.2904 20.1172 17.3079C20.5224 17.8319 20.9261 18.3543 21.3472 18.8989C21.2966 18.9606 21.2285 19.0413 21.0971 19.1996C21.6623 19.5448 22.1958 19.882 22.7388 20.1954C22.9366 20.3094 23.0506 20.6957 22.8702 20.8746C22.4855 21.2529 22.0707 21.5901 21.7098 21.9083C21.7098 22.4244 21.7034 22.9516 21.7113 23.4787C21.7177 23.8302 21.553 23.9062 21.3045 23.8175C20.6079 23.5706 19.905 23.3379 19.2275 23.0371C19.0343 22.9516 18.9298 22.6334 18.7589 22.4513C18.656 22.3421 18.5087 22.2408 18.3726 22.2249C18.0037 22.1822 17.6254 22.2154 17.2597 22.1584C17.1235 22.1363 17.008 21.9431 16.8829 21.8276C16.9858 21.6914 17.0697 21.5125 17.1995 21.4302C17.3562 21.3321 17.5668 21.2403 17.7299 21.2798C18.1541 21.3843 18.3283 21.0756 18.523 20.7669C18.5768 20.683 18.6417 20.6054 18.6829 20.5136C18.7446 20.3791 18.7889 20.2334 18.8396 20.0925C18.6813 20.0593 18.5151 19.9801 18.3647 20.0086C18.2333 20.0324 18.1272 20.2223 17.9927 20.2572C17.8264 20.2999 17.5953 20.3316 17.4797 20.2318C17.3689 20.1368 17.3547 19.8725 17.3293 19.6777C17.3056 19.5052 17.3246 19.3247 17.3246 19.2218C17.0618 19.2836 16.8085 19.3358 16.56 19.4039C16.2956 19.4767 16.2164 19.6461 16.2528 19.9769C16.2766 20.1843 16.1626 20.4392 16.0549 20.6308C15.9346 20.8461 15.5911 21.131 15.6212 21.1833C15.8001 21.503 16.0201 21.8371 16.2987 22.0286C16.6217 22.2519 16.6819 22.293 16.4222 22.6175C16.1737 22.9294 15.9315 23.2524 15.656 23.5294C15.3726 23.8144 15.0639 23.683 14.9262 23.2872C14.885 23.17 14.7679 23.0418 14.6634 23.0054C14.3468 22.8946 14.0207 22.8154 13.6946 22.7458C13.4365 22.692 13.2054 22.7157 13.0407 23.026C12.9663 23.1685 12.7922 23.2413 12.6624 23.3458C12.2128 23.7067 11.7948 24.0946 11.7885 24.8006C11.7885 24.8988 11.8233 25.0777 11.855 25.0808C12.2619 25.1283 12.3268 25.4814 12.4407 25.8296C12.4756 25.9373 12.6766 26.0354 12.8017 26.0354C13.237 26.0386 13.5758 26.2539 13.9415 26.504C14.3104 26.7558 14.7521 26.9014 15.1795 26.998C15.5737 27.0866 15.8602 27.1974 15.9077 27.723C15.9204 27.8655 16.0771 27.9906 16.1689 28.122C16.2243 28.0998 16.2797 28.0776 16.3352 28.0571C16.3352 27.7357 16.3858 27.4001 16.3241 27.0945C16.2164 26.561 16.3399 26.341 16.8164 26.3948C16.9731 26.4122 17.1251 26.4692 17.4196 26.5452C17.2692 26.2539 17.19 26.0275 17.0555 25.8581C16.7468 25.4687 16.7341 25.2771 17.0349 24.894C17.0998 24.8117 17.1615 24.693 17.1631 24.5885C17.1679 24.2355 17.1362 23.8824 17.1362 23.5294C17.1346 23.0956 17.2328 23.0323 17.5953 23.1099C17.8486 23.1637 18.1225 23.102 18.371 23.1716C18.6401 23.2492 18.8887 23.4202 19.1467 23.55C19.3905 23.6735 19.6359 23.7954 19.8797 23.9204C20.0364 23.9996 20.1931 24.0819 20.3689 24.1737C20.4385 24.1611 20.6253 24.0787 20.6554 24.1278C20.7298 24.245 20.8011 24.4729 20.7504 24.5647C20.6728 24.7056 20.4892 24.769 20.323 24.8829C20.3562 25.1711 20.5098 25.2265 20.8913 25.1014C21.1351 24.7294 21.295 24.4524 21.4929 24.2165C21.534 24.1674 21.7398 24.2339 21.8269 24.3099C22.009 24.4682 22.1609 24.6708 22.3272 24.8529C22.3462 24.8735 22.3857 24.8909 22.3857 24.9083C22.3857 25.4117 22.8116 25.7505 22.8702 26.1225C22.9968 26.9299 23.5018 27.0629 23.9831 27.3288C24.0765 27.3811 24.1461 27.4982 24.219 27.5932C24.2949 27.6929 24.344 27.8639 24.4343 27.894C24.8031 28.0159 24.8332 28.3325 24.8332 28.6824C24.8332 29.1035 24.8332 29.5246 24.8332 29.971C25.286 29.9346 25.525 30.1404 25.6817 30.628C26.0648 31.8201 26.0538 31.8612 24.9298 31.8027C24.6369 31.7884 24.3551 31.8311 24.124 31.5319C24.0527 31.4401 23.8327 31.5224 23.7108 31.4528C23.5541 31.3641 23.3546 31.2312 23.3055 31.0665C23.2422 30.8544 23.201 30.5647 23.4955 30.4159C23.7868 30.267 23.9372 29.9948 23.8564 29.5737C23.5208 29.7731 23.1852 29.9346 22.8876 30.1626C22.6438 30.3478 22.4491 30.5837 22.1071 30.5203C22.0248 30.5045 21.8554 30.7293 21.8158 30.875C21.7683 31.0554 21.7145 31.3404 21.9963 31.3768C22.2148 31.4053 22.4427 31.3863 22.6644 31.3562C22.9541 31.3166 23.3831 31.5509 23.4575 31.847C23.4828 31.9483 23.4654 32.1319 23.4068 32.1826C23.0095 32.5119 22.6596 32.9472 22.1229 32.9979C22.0248 33.0074 21.8981 33.0422 21.838 33.1198C21.5641 33.4776 21.2602 33.4301 21.0005 33.1641C20.7567 32.914 20.5446 32.9916 20.3071 33.1103C20.0428 33.2417 19.8607 33.4301 19.9114 33.8037C19.9462 34.0617 19.8607 34.1852 19.6201 34.2913C18.8285 34.6364 18.0322 35.5198 18.1051 36.6612C18.1177 36.8606 17.9008 37.1298 17.7314 37.2817C17.3214 37.6538 16.8544 37.9466 16.4555 38.3329C16.2655 38.5181 15.9821 38.7968 16.3114 39.1609C16.3621 39.2163 16.3621 39.3303 16.3858 39.4157C16.5884 40.1265 16.59 40.1076 17.2201 40.1471C17.3642 40.1566 17.5446 40.307 17.6301 40.4511C17.8438 40.8089 18.0275 41.1936 18.1937 41.5846C18.2507 41.7191 18.2174 41.9028 18.2254 42.0627L18.1225 42.0848C17.9436 41.7809 17.7631 41.4785 17.5415 41.1033C17.5082 41.325 17.4829 41.4991 17.4512 41.7207C16.6755 41.5893 15.9679 41.3265 15.4518 40.5983C15.4265 40.5635 15.3932 40.5207 15.3932 40.4812C15.3853 39.6215 14.7885 39.5012 14.2613 39.2764C13.9985 39.164 13.8323 39.1672 13.674 39.4949C13.5932 39.6643 13.3447 39.8289 13.1769 39.821C12.8587 39.8083 12.5468 39.6295 12.2254 39.601C12.0101 39.582 11.7727 39.6659 11.57 39.7672C11.1854 39.9587 10.8798 40.2073 10.9194 40.8041C10.9431 41.1603 10.7801 41.5276 10.7468 41.8965C10.7278 42.0975 10.7769 42.3207 10.8418 42.5139C11.1553 43.451 11.4624 43.6584 12.2998 43.3861C12.5009 43.3196 12.6355 42.9777 12.7969 42.7592C12.8682 42.6627 12.9331 42.479 13.0043 42.4759C13.332 42.4632 13.6645 42.479 13.989 42.5344C14.0761 42.5487 14.2043 42.7402 14.2011 42.8479C14.1932 43.2136 14.2312 43.584 13.9273 43.8927C13.7911 44.0305 13.8006 44.4009 13.8196 44.6574C13.8244 44.727 14.1014 44.7824 14.2566 44.8236C14.4339 44.8695 14.6286 44.8616 14.7948 44.9328C15.0956 45.0642 15.3315 45.27 15.2444 45.7133C15.2064 45.9048 15.189 46.1043 15.1747 46.3006C15.1146 47.1381 15.542 47.6288 16.2671 47.5639C16.3811 47.5544 16.4982 47.5639 16.6264 47.5639C16.3621 48.1101 16.256 48.1354 15.5452 47.8204C15.6148 47.9328 15.6608 48.0072 15.7399 48.1354C15.618 48.1354 15.4961 48.1766 15.4597 48.1291C15.0813 47.6462 14.4988 47.4626 14.1774 46.8658C13.9194 46.3845 13.5362 45.9887 12.9869 45.8573C12.6798 45.7845 12.4059 45.5439 12.1067 45.4077C11.8455 45.289 11.5621 45.1085 11.3009 45.1307C10.6281 45.1877 10.0645 44.8996 9.49461 44.5735C9.08142 44.336 8.66348 44.108 8.2408 43.8927C7.84344 43.6885 7.66297 43.3545 7.65189 42.8558C7.63606 42.164 7.17696 41.8094 6.81285 41.3867C6.77961 41.4057 6.74478 41.4247 6.71153 41.4437C6.7337 41.5498 6.79069 41.6653 6.76852 41.7587C6.73053 41.9281 6.6767 42.1767 6.57064 42.2226C6.45824 42.2716 6.26668 42.1529 6.1337 42.0611C5.97539 41.9503 5.8345 41.7999 5.70152 41.6479C5.60653 41.5387 5.4783 41.4025 5.46881 41.2711C5.44823 40.9434 5.301 40.774 5.05245 40.6791C4.73425 40.5556 4.59969 40.3039 4.57911 39.9223C4.56961 39.7498 4.46354 39.5804 4.38597 39.4173C4.31157 39.2606 4.19283 39.126 4.14059 38.963C3.92212 38.2822 3.54693 37.8089 2.91369 37.63C2.83929 37.6094 2.77122 37.5097 2.72214 37.429C2.32003 36.7688 1.92109 36.1071 1.53007 35.4406C1.47466 35.3472 1.44933 35.2205 1.4335 35.1066C1.36701 34.6126 1.26569 34.1155 1.26253 33.62C1.25936 33.104 1.41134 32.5831 1.38601 32.0718C1.36543 31.6554 1.2467 31.2042 1.05198 30.856C0.8905 30.5694 0.524806 30.4444 0.304756 30.1863C0.152779 30.0074 -0.00869656 29.7098 0.016633 29.4929C0.064126 29.0956 -0.125845 28.9642 -0.364892 28.7584C-0.417133 28.9515 -0.459878 29.1051 -0.504205 29.2697C-0.75275 29.2998 -0.958551 29.3188 -1.11686 29.0117C-1.22768 28.7979 -1.44298 28.6539 -1.64403 28.4449C-1.64403 28.4512 -1.63295 28.3943 -1.62187 28.3373C-1.47939 27.6106 -1.67253 27.2908 -2.21394 26.903C-2.72687 26.5341 -3.16063 26.0228 -3.62606 25.5716C-3.67514 25.5241 -3.69888 25.407 -3.74638 25.3975C-4.42078 25.2534 -5.0081 24.541 -5.67933 24.7262C-6.27458 24.8924 -6.96797 24.8988 -7.45873 25.4339C-7.5553 25.5399 -7.59171 25.7457 -7.61229 25.9135C-7.69145 26.58 -8.14263 26.846 -8.67138 26.5215C-8.93417 26.3616 -9.30303 26.5357 -9.60699 26.9077C-9.81596 27.1626 -10.0598 27.3858 -10.3067 27.5916C-10.4017 27.6708 -10.5505 27.6676 -10.6756 27.6929C-10.7911 27.7151 -10.9225 27.6929 -11.0254 27.7452C-11.5479 28.0096 -12.0576 28.3103 -12.5864 28.5573C-12.7352 28.627 -12.9536 28.6048 -13.104 28.5304C-13.1721 28.4972 -13.2228 28.1647 -13.1642 28.0903C-13.0122 27.8987 -12.8017 27.761 -12.6022 27.6312C-12.4376 27.5235 -12.246 27.4713 -12.0782 27.3668C-11.7552 27.1658 -11.437 26.9536 -11.1252 26.7304C-11.046 26.675 -10.9985 26.5626 -10.9305 26.5594C-10.6803 26.4819 -10.4318 26.4043 -10.1342 26.3109C-10.2814 26.1304 -10.3542 26.018 -10.446 25.9325C-10.5568 25.8296 -10.6772 25.6903 -10.8054 25.6713C-11.293 25.5985 -11.2946 25.6143 -11.4022 25.0793C-11.9975 25.1837 -12.2238 24.6407 -12.4898 24.2038C-12.7748 23.7368 -12.7162 23.4423 -12.3378 23.0719C-12.0196 22.7616 -12.0386 22.4703 -12.3885 22.2091C-12.6085 22.0445 -12.8507 21.8988 -13.0328 21.6899C-13.142 21.5632 -13.2038 21.3289 -13.199 21.1453C-13.1959 21.0424 -13.0217 20.9173 -12.903 20.8571C-12.5737 20.6893 -12.2333 20.55 -11.8486 20.3775C-11.9452 20.2841 -12.0323 20.1812 -12.1336 20.1083C-12.3616 19.9453 -12.6022 19.8076 -12.8238 19.6334C-12.8713 19.5954 -12.8967 19.4023 -12.8634 19.3659C-12.5436 19.0255 -12.2444 18.6361 -11.8724 18.3923C-11.3041 18.0187 -10.6898 17.7242 -10.0075 17.7068C-9.92677 17.7052 -9.85078 17.6007 -9.76688 17.5675C-9.57216 17.4883 -9.36952 17.3538 -9.1748 17.3633C-8.2202 17.4108 -7.26401 17.4725 -6.31257 17.5817C-5.76324 17.6435 -5.2234 17.8018 -4.67882 17.9173C-4.66615 17.9205 -4.64558 17.9173 -4.64083 17.9268C-4.35112 18.5142 -3.83661 18.2957 -3.40601 18.3875C-3.31261 18.4081 -3.23187 18.5031 -3.1448 18.5632C-2.72687 18.2403 -2.20761 18.3005 -2.13954 18.6725C-1.85458 18.568 -1.56962 18.4619 -1.25934 18.3479C-1.32425 18.2941 -1.37807 18.2482 -1.46831 18.1722C-1.37649 18.1421 -1.29733 18.0852 -1.26409 18.1089C-0.98863 18.3115 -0.746417 18.1881 -0.470959 18.0899C-0.347477 18.0456 -0.15909 18.2355 0.00080204 18.321C0.410824 17.8129 0.507393 17.8065 1.05989 18.2735C1.28944 18.0345 1.53324 18.0044 1.76278 18.3052C1.78653 18.3353 1.84036 18.3669 1.86885 18.3574C2.35803 18.1865 2.76647 18.5078 3.20973 18.625C3.34904 18.6614 3.52002 18.5442 3.67516 18.4968C3.62292 18.3479 3.57859 18.1944 3.51527 18.0503C3.4377 17.8746 3.34588 17.7068 3.2034 17.4218C2.96752 17.5849 2.74747 17.8224 2.49101 17.8888C2.26463 17.9474 1.97809 17.873 1.75962 17.7559C1.50791 17.6213 1.27519 17.4044 1.08839 17.1685C0.993402 17.0482 0.952242 16.7759 1.00448 16.624C1.15488 16.1791 1.42559 15.7881 1.37176 15.2593C1.36226 15.1659 1.57123 14.9506 1.68205 14.949C2.10315 14.9427 2.52425 14.9886 2.94377 15.0377C3.16382 15.063 3.38387 15.1153 3.59601 15.1865C3.9807 15.3179 4.43346 15.367 4.72317 15.6393C5.301 16.1854 5.94057 16.2013 6.60546 16.1427C6.77327 16.1284 6.95058 15.9401 7.08356 15.7865C7.39226 15.4303 7.75954 15.481 8.12998 15.5459C8.41652 15.5965 8.45927 15.8498 8.39278 16.0952C8.15848 16.9707 8.39278 17.6118 9.11308 17.9458C9.2049 17.9886 9.3363 17.9237 9.44712 17.8999C9.56268 17.873 9.67825 17.835 9.83972 17.7875L9.82706 17.7954ZM13.1642 31.1552C13.6012 31.3341 13.9494 31.505 14.312 31.6079C14.4054 31.6348 14.5732 31.4765 14.6476 31.3562C14.6777 31.3071 14.5684 31.1013 14.4845 31.0159C14.0397 30.5678 13.9811 30.5758 13.1626 31.1552H13.1642Z" fill="#60D06F" stroke="#082422" stroke-width="0.164607" stroke-linecap="round" stroke-linejoin="round"/>
<path d="M16.7966 47.6214C16.9913 47.528 17.2889 47.5803 17.0404 47.1782C17.4187 47.2906 17.5675 47.0595 17.7892 46.8473C18.367 46.2948 19.0382 45.8563 19.8409 46.0178C20.0862 46.0668 20.2936 46.3423 20.5295 46.4895C20.6498 46.5639 20.7955 46.6225 20.9284 46.6225C21.5126 46.6225 22.0983 46.6146 22.6809 46.5703C22.9611 46.5497 23.0862 46.6494 23.0656 46.9613C23.0482 47.232 23.1669 47.3444 23.3664 47.4742C23.6609 47.6658 23.9015 47.9618 24.1833 48.1834C24.3163 48.2879 24.492 48.3734 24.6487 48.375C25.369 48.3782 25.9247 48.7518 26.3474 49.3708C26.5453 49.6605 26.6608 50.0325 26.7875 50.3792C26.9394 50.7971 27.2766 51.0932 27.6772 51.1137C27.7706 51.1185 27.8845 51.0758 27.9526 51.1232C28.5906 51.5808 29.2998 51.7454 30.0328 51.8451C30.142 51.8594 30.2449 51.9639 30.3447 52.0383C30.6407 52.2567 30.9209 52.5053 31.228 52.6968C31.57 52.9106 31.9167 53.7164 31.7615 54.1454C31.6301 54.5111 31.4418 54.8546 31.247 55.1855C31.0222 55.567 30.7594 55.92 30.522 56.2936C30.4792 56.3601 30.4571 56.4678 30.465 56.5501C30.5552 57.4651 30.2655 58.2788 29.9584 59.0878C29.865 59.3316 29.8001 59.6181 29.6418 59.7923C29.4455 60.0091 29.1415 60.302 28.931 60.2593C28.5004 60.1722 28.1505 60.4049 27.8956 60.6139C27.5901 60.8656 27.1658 61.1458 27.207 61.7775C27.2244 62.045 27.0265 62.341 26.8999 62.607C26.7637 62.892 26.6117 63.1706 26.4392 63.4302C26.322 63.6075 26.159 63.7452 26.0181 63.9004C25.9722 63.951 25.893 63.9938 25.8819 64.0539C25.7189 64.9088 25.1917 65.2254 24.4936 65.2824C24.5711 66.2402 24.2134 66.7246 23.3791 66.8671C23.1495 66.9067 22.9342 67.0587 22.6714 67.1774C22.6113 67.5067 22.5638 67.9183 22.1316 68.0148C22.1015 68.0212 22.0793 68.1114 22.0635 68.1668C22.0509 68.2096 22.0635 68.2666 22.0461 68.3014C21.7691 68.808 21.5205 69.3431 21.1944 69.8069C21.0123 70.065 20.9174 70.1821 21.2055 70.3942C21.5142 70.6222 21.5094 70.8486 21.2751 71.1858C21.0171 71.5578 20.7606 71.9393 20.5517 72.3478C20.243 72.9525 20.7448 73.9704 21.3559 74.0448C21.6013 74.0749 21.8435 74.1414 22.0873 74.1905C22.0999 74.2491 22.1126 74.3061 22.1268 74.3646C21.9353 74.4834 21.7469 74.61 21.5522 74.7208C20.4329 75.3604 19.4862 75.2306 18.5807 74.2396C18.1818 73.8026 17.8604 73.277 17.8873 72.5773C17.9079 72.0185 17.9174 71.4581 17.9079 70.8992C17.9047 70.6887 17.8335 70.4797 17.7733 70.171C18.2229 69.78 18.1834 69.1088 18.2103 68.447C18.2245 68.1241 18.3369 67.8075 18.3702 67.4829C18.4636 66.5695 18.4287 65.6339 18.9037 64.8091C19.0319 64.5859 19.0271 64.255 19.0604 63.97C19.2282 62.5009 19.3976 61.0334 19.5464 59.5611C19.5844 59.1875 19.586 58.7949 19.5306 58.4261C19.5005 58.2298 19.339 57.9559 19.1902 57.9068C18.5585 57.701 18.0884 57.2451 17.6372 56.7432C17.5549 56.6514 17.4678 56.5501 17.4219 56.4329C17.167 55.7823 16.9359 55.1206 16.6715 54.4762C16.5781 54.2467 16.4483 54.0013 16.2741 53.8573C15.9005 53.5438 15.8815 53.1306 15.9132 52.6763C15.9354 52.3454 15.9686 52.0161 15.9702 51.6852C15.9702 51.0045 16.4515 50.1908 16.9517 49.8742C17.1274 49.7634 17.2937 49.4024 17.2747 49.176C17.243 48.7724 17.0704 48.3845 16.9501 47.9919C16.9169 47.8827 16.8631 47.7813 16.795 47.623L16.7966 47.6214Z" fill="#60D06F" stroke="#082422" stroke-width="0.164607" stroke-linecap="round" stroke-linejoin="round"/>
<path d="M37.1022 11.21C37.1228 11.2147 37.2241 11.2258 37.3223 11.2575C37.4252 11.2907 37.5249 11.3414 37.7275 11.4268C37.4536 11.6485 37.2668 11.8005 37.061 11.9667C37.1386 11.9968 37.213 12.0268 37.289 12.0553C37.2969 12.0981 37.3033 12.1424 37.3112 12.1851C37.1291 12.239 36.9471 12.2912 36.6764 12.3704C36.955 12.4416 37.175 12.5002 37.4536 12.5714C37.3808 13.0748 37.3033 13.6036 37.2225 14.1703C37.3602 14.2384 37.4932 14.2922 37.6183 14.3682C37.8431 14.5028 37.8463 14.8574 37.6515 15.0426C37.3919 15.2896 37.1529 15.565 36.9043 15.8278C36.8568 15.8785 36.8093 15.9323 36.7539 15.9719C36.6209 16.0685 36.3946 16.1302 36.3661 16.2537C36.2869 16.6067 36.2014 17.0072 36.2758 17.3444C36.4199 18.0062 36.3217 18.4542 35.8151 18.7977C34.8716 19.4373 33.8521 19.8362 32.7772 20.0705C32.4843 20.1339 32.3102 20.3571 32.1297 20.6531C31.8638 21.09 31.6437 21.6441 31.0374 21.6742C30.602 21.6948 30.2316 21.8942 30.1556 22.4816C30.1445 22.5639 30.0891 22.6763 30.0289 22.7064C29.5065 22.9565 29.4749 23.5961 29.2026 24.0425C29.163 24.1058 29.1725 24.2135 29.1709 24.3006C29.1567 24.88 28.9176 25.1396 28.4427 25.0066C27.9804 24.8768 27.534 24.6773 27.0844 24.4953C27.0037 24.462 26.9292 24.3765 26.877 24.2942C26.6475 23.9333 26.4543 23.5375 26.1963 23.2082C25.9303 22.8694 25.6865 22.5465 25.7166 22.0557C25.7198 22.0161 25.7008 21.9481 25.6754 21.937C25.1245 21.6742 25.1989 21.0425 25.0707 20.5486C25.0058 20.2969 25.0565 19.9835 25.1166 19.7159C25.1752 19.4531 25.2559 19.2679 24.9931 19.0573C24.8364 18.9307 24.762 18.6331 24.7003 18.3956C24.6243 18.1027 24.6923 17.7655 24.4327 17.5312C24.3631 17.4695 24.3425 17.2637 24.371 17.1481C24.458 16.7935 24.0971 16.4516 24.3599 16.1033C23.9989 15.7883 23.9847 15.1487 23.7156 14.8954C23.1172 14.3318 22.438 13.773 21.5277 14.1149C21.2159 14.2321 20.809 14.2368 20.5051 14.1102C20.076 13.9313 19.7119 13.5545 19.2972 13.3155C18.9505 13.116 18.9204 12.9355 19.2164 12.7123C19.0344 12.5192 18.865 12.3403 18.6069 12.0664C18.9505 11.973 19.1626 11.916 19.3747 11.859C19.5552 11.8115 19.7689 11.8194 19.9114 11.7086C20.2676 11.4316 20.6539 11.4411 21.0512 11.4142C21.2111 11.4031 21.4138 11.2844 21.5056 11.1403C21.6496 10.9123 21.6338 10.6765 21.2982 10.6575C21.132 10.648 20.9673 10.6021 20.7235 10.5577C20.8375 10.3662 20.885 10.1936 20.98 10.1445C21.4233 9.91974 21.8808 9.73135 22.332 9.52713C22.4143 9.48914 22.5061 9.45589 22.5678 9.38782C23.3974 8.48387 24.4375 8.45538 25.4744 8.53136C25.7831 8.55353 26.0522 8.78308 26.3578 8.46646C26.4512 8.36989 26.6902 8.46962 26.8628 8.46171C27.0195 8.45538 27.1746 8.42371 27.3298 8.40313C27.3282 8.35564 27.3266 8.30657 27.325 8.25907H26.782C27.7715 7.64008 28.6707 7.19523 29.7155 7.49602C29.8121 7.52452 29.9308 7.50235 30.0274 7.46436C31.2558 6.98785 32.5191 6.97835 33.7793 7.1699C34.3065 7.25064 34.8146 7.51977 35.3244 7.7224C35.7012 7.8728 36.0669 8.05327 36.4389 8.22108C36.3961 8.25749 36.355 8.2939 36.3122 8.33031C36.3122 8.54245 36.2948 8.93822 36.3154 8.94139C36.6336 8.98255 37.0167 9.10128 37.2684 8.9493C38.1154 8.44113 38.7961 8.74667 39.4673 9.30866C39.1286 9.77726 38.6378 9.92449 38.1993 10.1904C37.7956 10.4358 37.4742 10.8585 37.107 11.2131L37.1022 11.21Z" fill="#60D06F" stroke="#082422" stroke-width="0.164607" stroke-linecap="round" stroke-linejoin="round"/>
<path d="M50.0622 12.224C49.8358 12.5912 49.6094 12.8635 49.4796 13.1849C49.1741 13.9416 48.8638 14.016 48.3113 13.4825C47.6765 12.8715 47.2 12.11 46.6823 11.3865C46.4654 11.0841 46.7029 10.6409 47.1177 10.6045C47.4485 10.5744 47.7873 10.5586 48.115 10.6076C48.7023 10.6979 49.106 10.2451 49.5873 10.0203C49.6601 9.98706 49.7234 9.88574 49.7915 9.88574C50.2807 9.88891 50.7714 9.90949 51.2606 9.93007C51.3113 9.93165 51.3825 10.0029 51.4078 9.98231C51.7197 9.73218 51.9809 10.0678 52.2675 10.0884C52.4226 10.0995 52.6221 10.2926 52.7012 10.4636C52.7946 10.6646 52.812 10.9258 52.554 11.0905C52.4733 11.1411 52.4622 11.3343 52.4194 11.4673C52.744 11.6287 53.1397 11.3153 53.4025 11.8899C53.0495 11.8899 52.7677 11.901 52.4859 11.8884C51.9651 11.8646 51.8701 11.9659 51.9097 12.5406C51.9271 12.7939 51.5772 13.158 51.3049 13.2403C50.8696 13.3717 50.5751 12.9839 50.2063 12.8778C50.1334 12.8572 50.1271 12.5327 50.0654 12.2224L50.0622 12.224Z" fill="#60D06F" stroke="#082422" stroke-width="0.164607" stroke-linecap="round" stroke-linejoin="round"/>
<path d="M64.4887 14.8475C64.2592 14.8681 64.0534 14.8127 63.96 14.9061C63.3964 15.4713 62.8566 16.0697 62.312 16.6602C62.1632 16.8217 62.1616 16.942 62.3357 17.1335C62.5305 17.3488 62.6444 17.6623 62.8107 17.9646C62.293 18.2702 61.8149 18.1594 61.3558 17.9567C61.1262 17.8554 60.922 17.6607 60.7305 17.4739C60.5706 17.3187 60.5548 17.1462 60.588 16.8549C60.6798 16.0444 61.2877 15.7277 61.6328 15.1705C61.7405 14.9979 61.8291 14.8064 61.9526 14.6512C62.0698 14.504 62.2233 14.3932 62.3579 14.2634C62.5241 14.1035 62.6998 13.9531 62.8502 13.7758C63.3141 13.2264 63.8397 12.8877 64.541 12.9906C64.6914 13.0127 64.8639 12.8053 65.0175 12.8212C65.5637 12.8734 66.1082 12.9557 66.6433 13.084C66.7161 13.1014 66.8206 13.5193 66.7557 13.6111C66.5927 13.8454 66.3568 14.0291 66.1225 14.1779C65.9468 14.2887 65.7299 14.3109 65.5304 14.3742C65.3674 14.4264 65.2011 14.5325 65.0428 14.5198C64.7484 14.4961 64.5536 14.5927 64.4887 14.8491V14.8475Z" fill="#60D06F" stroke="#082422" stroke-width="0.164607" stroke-linecap="round" stroke-linejoin="round"/>
<path d="M59.8762 55.4633C60.3226 55.6881 60.6503 56.554 60.4778 57.1397C60.3068 57.7239 60.1691 58.3223 59.9981 58.9081C59.8129 59.5445 59.6324 60.184 59.4029 60.7983C59.2446 61.2241 58.8504 61.1608 58.5274 61.1751C58.2725 61.1861 58.0746 61.0658 57.9971 60.7365C57.9195 60.4073 57.7501 60.1001 57.7153 59.7693C57.6915 59.5429 57.8308 59.2959 57.8878 59.0553C57.9369 58.8416 58.0446 58.6025 58.0002 58.4126C57.834 57.6954 58.1221 57.2585 58.5812 56.839C59.0324 56.4258 59.4329 55.9382 59.8746 55.4617L59.8762 55.4633Z" fill="#60D06F" stroke="#082422" stroke-width="0.164607" stroke-linecap="round" stroke-linejoin="round"/>
<path d="M65.3714 10.1486C65.115 10.0694 64.8886 10.0267 64.7319 10.3813C64.6923 10.4731 64.4722 10.4715 64.3329 10.4905C64.1366 10.5159 63.9387 10.5206 63.7488 10.5349C63.668 11.0668 63.2469 11.2283 62.8733 10.9148C62.7878 10.842 62.6707 10.7866 62.5662 10.7802C62.039 10.7454 62.0374 10.7517 61.7461 10.3671C61.4232 10.937 61.1414 10.9686 60.5937 10.5681C60.4607 10.4715 60.1472 10.432 60.0823 10.5222C59.7071 11.0415 59.2765 10.6821 58.876 10.6726C58.7858 10.671 58.6971 10.5539 58.6069 10.4937C58.4818 10.4098 58.3552 10.3275 58.2285 10.2452C58.3219 10.0948 58.3916 9.90796 58.5135 9.80031C58.8158 9.5296 59.1135 9.13383 59.5504 9.57393C59.6026 9.62617 59.7451 9.62142 59.8148 9.57709C60.2517 9.3048 60.6253 9.36496 60.9483 9.86363C61.0037 9.70057 61.0464 9.57868 61.1002 9.42195C61.5783 9.97287 61.7873 9.26206 62.1277 9.15916C62.4411 9.06575 62.7356 8.88845 63.049 8.78555C63.1409 8.75547 63.3102 8.82037 63.3609 8.90586C63.4036 8.9771 63.3372 9.14966 63.2928 9.26364C63.2469 9.38237 63.1725 9.48686 63.0775 9.65308C63.4337 9.68158 63.6886 9.65308 63.8754 9.32063C63.9466 9.19557 64.0828 9.09108 64.2094 9.04042C64.4342 8.9486 65.297 9.35388 65.3651 9.59767C65.4126 9.76706 65.3651 9.97287 65.3572 10.1628L65.3698 10.1486H65.3714Z" fill="#60D06F" stroke="#082422" stroke-width="0.164607" stroke-linecap="round" stroke-linejoin="round"/>
<path d="M5.03684 13.3613C5.03209 13.4246 5.02259 13.5338 5.01151 13.67C5.33921 13.7095 5.64633 13.7459 5.95662 13.7839C6.1086 13.5623 6.27482 13.3185 6.44105 13.0747C6.46163 13.089 6.48379 13.1032 6.50437 13.1175C6.49804 13.1824 6.4917 13.2473 6.48379 13.3122C6.5107 13.2805 6.5392 13.2489 6.56611 13.2156C6.73233 13.3771 6.88906 13.556 7.06795 13.6969C7.21518 13.814 7.3909 13.8821 7.54921 13.9834C7.68536 14.0721 7.81359 14.1765 7.94498 14.2731C7.86583 14.3871 7.80567 14.5391 7.70277 14.6072C7.56029 14.699 7.38774 14.7322 7.22626 14.7829C6.78616 14.9206 6.34289 15.0441 5.90438 15.1929C5.53552 15.3195 5.17299 15.5269 4.8627 15.052C4.81679 14.9808 4.70281 14.9586 4.61574 14.9301C4.15664 14.7781 3.63106 14.7417 3.2527 14.4536C2.88542 14.1734 2.53714 14.1211 2.13978 14.0721C1.88332 14.0404 1.92448 13.814 2.05113 13.6288C2.22052 13.3834 2.38991 13.1365 2.5783 12.9101C2.64321 12.8309 2.76036 12.7771 2.85851 12.7692C3.23528 12.7407 3.61364 12.7249 3.992 12.7249C4.2358 12.7249 4.44952 12.766 4.5445 13.1175C4.57616 13.2362 4.84371 13.2694 5.03368 13.3565L5.03684 13.3613Z" fill="#60D06F" stroke="#082422" stroke-width="0.164607" stroke-linecap="round" stroke-linejoin="round"/>
<path d="M35.402 22.0287C35.2611 21.8704 35.0806 21.7358 34.9872 21.5474C34.8431 21.2545 35.0584 21.0899 35.2326 20.9173C35.5413 20.6118 35.7772 20.4139 36.2616 20.7052C36.6051 20.9126 37.1608 20.9348 37.5803 20.5802C37.9349 20.2794 38.3418 20.3965 38.6283 20.6229C38.8705 20.8144 39.0447 21.2166 39.1127 21.5601C39.146 21.7311 38.9148 22.0477 38.736 22.1822C38.318 22.4957 37.8605 22.7442 37.4156 23.0102C37.0104 23.2508 36.6162 23.178 36.2774 22.8266C36.222 22.768 36.1413 22.7189 36.0684 22.7094C35.6885 22.6588 35.4922 22.4308 35.5191 21.9654C35.4795 21.9859 35.4415 22.0081 35.402 22.0287Z" fill="#60D06F" stroke="#082422" stroke-width="0.164607" stroke-linecap="round" stroke-linejoin="round"/>
<path d="M17.7114 43.4693C17.7447 43.702 17.7748 43.7717 17.7573 43.8192C17.6861 44.0234 17.6006 44.2213 17.5199 44.4208C17.3014 44.2688 17.0798 44.1247 16.874 43.9538C16.8518 43.9348 16.9056 43.729 16.9658 43.6577C17.1479 43.4472 17.1099 43.2904 16.9136 43.1416C16.7267 43.0007 16.5479 42.8408 16.35 42.7269C16.2534 42.6699 16.0603 42.635 16.0112 42.6952C15.6645 43.1179 15.2988 42.7981 14.9426 42.7696C14.6988 42.7506 14.6339 42.5622 14.7257 42.3596C14.8191 42.1554 14.9553 41.9242 15.1262 41.8292C15.6756 41.5221 16.2122 41.4604 16.7742 41.9132C17.1969 42.2535 17.7019 42.4704 18.1895 42.6904C18.2734 42.7284 18.4476 42.51 18.6645 42.3469C18.8101 42.5005 19.0143 42.7142 19.2454 42.958C19.5763 42.8614 20.2855 43.2208 20.4359 43.634C20.5404 43.9221 20.4533 44.0899 20.1636 44.1358C19.9515 44.1691 19.7473 44.2656 19.5383 44.3274C19.4782 44.3448 19.4101 44.3543 19.3515 44.34C19.1251 44.2846 18.9019 44.2039 18.6755 44.1564C18.4476 44.1089 18.2386 44.0883 18.1769 43.7432C18.1594 43.6435 17.9331 43.5944 17.713 43.4709L17.7114 43.4693Z" fill="#60D06F" stroke="#082422" stroke-width="0.164607" stroke-linecap="round" stroke-linejoin="round"/>
<path d="M82.7882 48.8201C82.8832 49.3979 83.0257 49.8902 83.0257 50.3826C83.0257 50.7245 82.8404 51.0696 82.7217 51.4053C82.6315 51.6617 82.4985 51.8992 82.413 52.1572C82.3402 52.3789 82.2721 52.5245 82.0188 52.4675C81.7608 52.4089 81.4916 52.4042 81.2273 52.3947C80.6083 52.371 80.1159 51.9815 79.9181 51.296C79.8468 51.0507 79.5998 50.8544 79.8056 50.5077C80.0399 50.1135 80.3914 50.0628 80.7048 50.0881C81.3571 50.1404 82.0331 49.7383 82.2563 49.0496C82.3845 48.6554 82.508 48.6238 82.7898 48.8201H82.7882Z" fill="#60D06F" stroke="#082422" stroke-width="0.164607" stroke-linecap="round" stroke-linejoin="round"/>
<path d="M76.6457 51.0957C76.5254 50.9992 76.4146 50.8409 76.3386 50.8599C75.8653 50.9818 75.9333 50.5907 75.9618 50.3216C76.0188 49.7707 75.6215 49.6171 75.3761 49.3163C75.2605 49.1739 75.2336 48.938 75.1671 48.7449C75.2985 48.6894 75.4742 48.547 75.5518 48.5976C75.7639 48.7369 75.9286 48.9665 76.1217 49.147C76.5381 49.5348 76.9528 49.9258 77.3834 50.2947C77.6304 50.5053 77.9328 50.6082 78.0388 51.0213C78.1338 51.3918 78.2573 51.8145 78.7607 51.7068C78.8193 51.6942 78.9966 52.0155 79.0029 52.1865C79.0109 52.4097 78.889 52.6345 78.8478 52.8656C78.7971 53.1443 78.5122 53.3516 78.308 53.1949C77.7586 52.7707 77.2283 52.3131 76.6869 51.8762C76.4051 51.6482 76.337 51.3997 76.6441 51.0989L76.6457 51.0957Z" fill="#60D06F" stroke="#082422" stroke-width="0.164607" stroke-linecap="round" stroke-linejoin="round"/>
<path d="M86.4274 54.1215C86.2501 54.7168 85.6438 54.6376 85.3383 55.0081C84.9472 55.483 84.5388 55.3817 84.0971 55.1822C83.7821 55.0397 83.4781 54.8482 83.152 54.7674C82.7784 54.6756 82.3842 54.7025 82.0058 54.6345C81.8127 54.5996 81.6322 54.4714 81.4454 54.3859C81.3726 54.3527 81.3045 54.2973 81.2301 54.2846C80.646 54.1833 80.0602 54.0788 79.4729 54.0012C79.1499 53.9585 78.9457 53.8413 79.0296 53.3442C79.2307 53.3981 79.4713 53.3886 79.6201 53.5168C79.9447 53.7938 80.2961 53.7368 80.6491 53.7416C81.0465 53.7479 81.4502 53.7036 81.8412 53.7574C82.2892 53.8192 82.7246 53.9775 83.1694 54.0725C83.657 54.1769 84.1446 54.2656 84.6401 54.0804C84.8111 54.0155 85.0074 54.0408 85.191 54.0139C85.3082 53.9965 85.4427 53.9965 85.533 53.9284C85.9572 53.6054 86.057 53.6181 86.4258 54.12L86.4274 54.1215Z" fill="#60D06F" stroke="#082422" stroke-width="0.164607" stroke-linecap="round" stroke-linejoin="round"/>
<path d="M75.2511 9.32609C75.7782 9.30234 76.1028 9.47965 76.3656 9.81368C76.5413 10.0369 76.7883 10.23 76.8706 10.4912C76.9513 10.7509 76.9054 11.0928 76.8373 11.373C76.8041 11.5108 76.5809 11.7039 76.4685 11.6849C75.7323 11.5551 74.925 11.7403 74.2996 11.0865C74.2632 11.0485 74.2047 11.0358 74.1556 11.0152C73.7171 10.8237 73.7139 10.8031 74.0448 10.3773C74.097 10.3092 74.1524 10.2348 74.1777 10.1525C74.3788 9.49548 74.8917 9.43374 75.2495 9.32609H75.2511Z" fill="#60D06F" stroke="#082422" stroke-width="0.164607" stroke-linecap="round" stroke-linejoin="round"/>
<path d="M8.80657 12.6707C8.8604 12.5757 8.91422 12.4807 8.97438 12.3747C8.92847 12.3462 8.89839 12.3113 8.86515 12.3066C8.64193 12.2812 8.41238 12.2907 8.19708 12.2322C8.10368 12.2068 8.02769 12.0517 7.96437 11.9409C7.92637 11.8728 7.94854 11.7557 7.90579 11.6955C7.81397 11.5657 7.48311 11.4976 7.70632 11.295C7.90421 11.1161 8.23191 11.0607 8.49945 11.0686C8.71475 11.0749 8.93639 11.238 9.13902 11.3678C9.45406 11.5704 9.77226 11.7778 10.0556 12.0327C10.2725 12.2274 10.1538 12.4981 9.95748 12.571C9.60287 12.7008 9.22293 12.7419 8.85407 12.8195C8.83823 12.7704 8.8224 12.7213 8.80657 12.6723V12.6707Z" fill="#60D06F" stroke="#082422" stroke-width="0.164607" stroke-linecap="round" stroke-linejoin="round"/>
<path d="M4.48602 12.3851C4.86122 12.1919 5.19208 12.0273 5.51662 11.85C5.65593 11.774 5.78574 11.6727 5.91872 11.5824C6.18151 11.402 6.43639 11.4558 6.65486 11.6648C6.88757 11.888 6.8575 12.1318 6.68494 12.4167C6.28917 13.0674 5.86173 13.2241 5.23483 12.8742C4.98945 12.7365 4.75831 12.5655 4.48602 12.3866V12.3851Z" fill="#60D06F" stroke="#082422" stroke-width="0.164607" stroke-linecap="round" stroke-linejoin="round"/>
<path d="M76.7407 12.376C77.0098 11.909 77.252 11.4294 77.5544 11.0051C77.6256 10.9069 77.928 10.9354 78.0768 11.0177C78.3554 11.1729 78.6103 11.3977 78.8541 11.6225C78.9222 11.6858 78.9538 11.8663 78.9317 11.9755C78.9142 12.0642 78.8003 12.1782 78.7164 12.194C78.1164 12.3032 77.5132 12.3919 76.9101 12.4821C76.8895 12.4853 76.8657 12.4552 76.7407 12.376Z" fill="#60D06F" stroke="#082422" stroke-width="0.164607" stroke-linecap="round" stroke-linejoin="round"/>
<path d="M12.2354 12.773C12.0502 12.8063 11.8571 12.8902 11.6782 12.8617C11.2317 12.7905 10.7505 12.7477 10.4529 12.2918C10.3674 12.1604 10.4101 11.9213 10.3943 11.7329C10.5621 11.7282 10.7679 11.649 10.8866 11.7329C11.132 11.9071 11.5199 11.9261 11.5531 12.4026C11.5563 12.4469 11.7383 12.4802 11.8397 12.5071C11.9726 12.5419 12.1072 12.5657 12.2402 12.5926C12.2386 12.6527 12.2354 12.7145 12.2338 12.7746L12.2354 12.773Z" fill="#60D06F" stroke="#082422" stroke-width="0.164607" stroke-linecap="round" stroke-linejoin="round"/>
<path d="M24.1614 72.5548C23.9619 73.1722 23.4712 73.5443 23.0627 73.4224C22.9487 73.3875 22.8316 73.1406 22.8142 72.9775C22.8015 72.8477 22.9282 72.5865 23.0121 72.5754C23.3698 72.5295 23.7355 72.5564 24.1598 72.5564L24.1614 72.5548Z" fill="#60D06F" stroke="#082422" stroke-width="0.164607" stroke-linecap="round" stroke-linejoin="round"/>
<path d="M35.2644 44.0673C35.3261 44.3585 35.3562 44.5042 35.3705 44.5738C35.5874 44.6023 35.7615 44.6261 35.9356 44.6498C35.8106 44.9332 35.6855 45.215 35.5604 45.4984C35.5082 45.5079 35.456 45.5158 35.4021 45.5253C35.2945 45.3701 35.1837 45.2197 35.0824 45.0599C35.0301 44.9775 34.9921 44.8841 34.9541 44.7923C34.8955 44.6451 34.761 44.4235 34.8053 44.3585C34.894 44.2256 35.0776 44.1749 35.2644 44.0657V44.0673Z" fill="#60D06F" stroke="#082422" stroke-width="0.164607" stroke-linecap="round" stroke-linejoin="round"/>
<path d="M40.6661 23.525C40.6725 23.2369 40.6598 23.001 40.9891 23.0121C41.274 23.0216 41.4624 23.1182 41.445 23.468C41.4308 23.7435 41.3706 24.0126 41.0492 24.0253C40.7089 24.0395 40.6756 23.7751 40.6661 23.5266V23.525Z" fill="#60D06F" stroke="#082422" stroke-width="0.164607" stroke-linecap="round" stroke-linejoin="round"/>
<path d="M43.4703 24.0341C43.3278 24.3459 43.2645 24.5691 43.1394 24.7259C43.046 24.8414 42.8734 24.9016 42.7294 24.919C42.685 24.9238 42.56 24.6879 42.579 24.5881C42.6217 24.3554 42.6803 24.0404 42.8259 23.9454C42.9684 23.852 43.2265 23.9913 43.4687 24.0341H43.4703Z" fill="#60D06F" stroke="#082422" stroke-width="0.164607" stroke-linecap="round" stroke-linejoin="round"/>
<path d="M74.3259 47.0578C74.3037 46.6779 74.2594 46.2963 74.2752 45.918C74.2799 45.804 74.4398 45.6663 74.5538 45.6045C74.6171 45.5697 74.8119 45.6631 74.815 45.7106C74.8261 45.8562 74.777 46.0098 74.7422 46.1586C74.701 46.328 74.6488 46.4942 74.6045 46.6636C74.5696 46.8029 74.5396 46.9438 74.5079 47.0847C74.4462 47.0768 74.3844 47.0673 74.3227 47.0594L74.3259 47.0578Z" fill="#60D06F" stroke="#082422" stroke-width="0.164607" stroke-linecap="round" stroke-linejoin="round"/>
<path d="M22.7446 46.1476C22.667 45.7155 22.5705 45.2706 22.5151 44.8178C22.4992 44.688 22.6021 44.5408 22.6496 44.3999C22.7304 44.5139 22.8159 44.6215 22.8871 44.7434C22.9124 44.7878 22.8855 44.8732 22.9108 44.9192C23.1831 45.4147 23.0976 45.8326 22.743 46.1461L22.7446 46.1476Z" fill="#60D06F" stroke="#082422" stroke-width="0.164607" stroke-linecap="round" stroke-linejoin="round"/>
<path d="M20.9841 43.2568C21.2042 43.5592 21.3277 43.7286 21.4511 43.898C21.2849 44.0357 21.1313 44.2225 20.9445 44.2858C20.8622 44.3128 20.6042 44.0579 20.6184 43.9819C20.6596 43.7713 20.8052 43.5893 20.9825 43.2568H20.9841Z" fill="#60D06F" stroke="#082422" stroke-width="0.164607" stroke-linecap="round" stroke-linejoin="round"/>
<path d="M12.7266 51.7553C12.5651 51.51 12.383 51.3422 12.3498 51.1411C12.3308 51.0335 12.5667 50.8704 12.687 50.7327C12.869 50.9401 13.0495 51.149 13.2316 51.3564C13.0938 51.4656 12.9561 51.5749 12.7266 51.7569V51.7553Z" fill="#60D06F" stroke="#082422" stroke-width="0.164607" stroke-linecap="round" stroke-linejoin="round"/>
<path d="M49.7618 15.6099C49.4183 15.5339 49.2837 15.3518 49.3249 15.0732C49.3407 14.9656 49.5497 14.7946 49.6272 14.8199C49.822 14.8832 49.9913 15.0447 50.1718 15.1666C50.0357 15.3138 49.8979 15.4626 49.7618 15.6099Z" fill="#60D06F" stroke="#082422" stroke-width="0.164607" stroke-linecap="round" stroke-linejoin="round"/>
<path d="M10.0801 11.2453C9.87267 10.9999 9.69219 10.8527 9.61146 10.6532C9.58454 10.5851 9.81093 10.3841 9.92174 10.2432C10.0769 10.4252 10.2463 10.5978 10.3745 10.802C10.3951 10.8352 10.2368 11.0157 10.0816 11.2453H10.0801Z" fill="#60D06F" stroke="#082422" stroke-width="0.164607" stroke-linecap="round" stroke-linejoin="round"/>
<path d="M8.41144 12.9696C8.12648 13.207 7.58823 13.0044 7.57081 12.7242C7.56607 12.6435 7.78928 12.4519 7.82727 12.4757C8.02991 12.6055 8.20563 12.7875 8.41144 12.9696Z" fill="#60D06F" stroke="#082422" stroke-width="0.164607" stroke-linecap="round" stroke-linejoin="round"/>
<path d="M69.0187 12.364C69.0646 12.2294 69.0978 11.9888 69.1596 11.9777C69.359 11.9445 69.5696 11.9904 69.7722 12.0316C69.7881 12.0347 69.796 12.3339 69.7659 12.345C69.5569 12.4194 69.3385 12.4542 69.1216 12.5017C69.0868 12.4558 69.0535 12.4099 69.0187 12.3624V12.364Z" fill="#60D06F" stroke="#082422" stroke-width="0.164607" stroke-linecap="round" stroke-linejoin="round"/>
<path d="M16.9019 22.7574C17.0143 22.3806 17.4718 22.1811 17.646 22.3521C17.6871 22.3932 17.7251 22.4993 17.7061 22.5452C17.6729 22.6275 17.6016 22.7384 17.5351 22.7479C17.3436 22.7748 17.1457 22.7574 16.9003 22.7574H16.9019Z" fill="#60D06F" stroke="#082422" stroke-width="0.164607" stroke-linecap="round" stroke-linejoin="round"/>
<path d="M61.475 45.6799C61.6127 45.8857 61.7647 46.0266 61.7425 46.0947C61.6855 46.2704 61.5526 46.4145 61.4512 46.5712C61.3705 46.4794 61.2122 46.3702 61.2233 46.2973C61.2518 46.1153 61.3578 45.9491 61.475 45.6799Z" fill="#60D06F" stroke="#082422" stroke-width="0.164607" stroke-linecap="round" stroke-linejoin="round"/>
<path d="M63.7889 16.2124C63.6797 16.4831 63.6021 16.7697 63.5609 16.7633C63.3789 16.7348 63.2079 16.6208 63.0322 16.5369C63.0432 16.4625 63.0559 16.3881 63.067 16.3121C63.2649 16.2852 63.4628 16.2583 63.7905 16.2124H63.7889Z" fill="#60D06F" stroke="#082422" stroke-width="0.164607" stroke-linecap="round" stroke-linejoin="round"/>
<path d="M65.358 10.162C65.7538 10.0448 65.7316 10.3757 65.7348 10.6432C65.7395 11.0058 65.5211 10.8997 65.2979 10.8569C65.3216 10.6195 65.3453 10.3836 65.3691 10.1493L65.3564 10.1635L65.358 10.162Z" fill="#60D06F" stroke="#082422" stroke-width="0.164607" stroke-linecap="round" stroke-linejoin="round"/>
<path d="M16.5735 23.0283C16.7065 23.1945 16.8489 23.3465 16.8379 23.3608C16.7365 23.5064 16.6162 23.6394 16.4832 23.7486C16.469 23.7613 16.2806 23.5808 16.2933 23.5444C16.3503 23.3829 16.45 23.242 16.5719 23.0283H16.5735Z" fill="#60D06F" stroke="#082422" stroke-width="0.164607" stroke-linecap="round" stroke-linejoin="round"/>
<path d="M45.7224 11.1411C45.599 11.2883 45.5182 11.3833 45.4375 11.4783C45.3552 11.3864 45.1953 11.2788 45.2064 11.2076C45.2254 11.0857 45.3425 10.9653 45.4438 10.8925C45.4707 10.8735 45.5926 11.0223 45.7224 11.1426V11.1411Z" fill="#60D06F" stroke="#082422" stroke-width="0.164607" stroke-linecap="round" stroke-linejoin="round"/>
<path d="M74.1505 9.70031C73.9479 9.70031 73.7452 9.70347 73.5426 9.70347C73.5521 9.61324 73.5553 9.44543 73.5695 9.44384C73.7611 9.42643 73.9558 9.43276 74.1489 9.43276C74.1489 9.52142 74.1489 9.61165 74.1489 9.70031H74.1505Z" fill="#60D06F" stroke="#082422" stroke-width="0.164607" stroke-linecap="round" stroke-linejoin="round"/>
<path d="M34.6143 35.3923C34.7378 35.4921 34.8612 35.5902 34.9863 35.69C34.9071 35.7834 34.828 35.8783 34.7473 35.9717C34.6459 35.8514 34.5462 35.7311 34.4449 35.6108C34.5019 35.538 34.5573 35.4667 34.6143 35.3939V35.3923Z" fill="#60D06F" stroke="#082422" stroke-width="0.164607" stroke-linecap="round" stroke-linejoin="round"/>
<path d="M65.7483 11.254C66.2121 10.8724 66.3894 10.9073 66.4591 11.3379C66.247 11.3125 66.0507 11.2888 65.7483 11.254Z" fill="#60D06F" stroke="#082422" stroke-width="0.164607" stroke-linecap="round" stroke-linejoin="round"/>
<path d="M33.9843 35.7479C33.9004 35.5959 33.7975 35.493 33.8118 35.4138C33.8276 35.3236 33.9685 35.1764 34.0128 35.1938C34.111 35.2318 34.1838 35.3584 34.2661 35.4487C34.1901 35.5294 34.1141 35.6102 33.9843 35.7479Z" fill="#60D06F" stroke="#082422" stroke-width="0.164607" stroke-linecap="round" stroke-linejoin="round"/>
<path d="M79.9715 49.5124C79.8322 49.6422 79.7134 49.7989 79.6786 49.7783C79.5805 49.7182 79.4981 49.5931 79.4538 49.4728C79.4396 49.4348 79.5757 49.2575 79.6137 49.2702C79.7213 49.3018 79.8132 49.3984 79.9715 49.5124Z" fill="#60D06F" stroke="#082422" stroke-width="0.164607" stroke-linecap="round" stroke-linejoin="round"/>
<path d="M74.6446 48.4469C74.6113 48.1335 74.5908 47.9419 74.5638 47.6902C74.9992 47.9182 75.0118 48.0021 74.6446 48.4469Z" fill="#60D06F" stroke="#082422" stroke-width="0.164607" stroke-linecap="round" stroke-linejoin="round"/>
<path d="M40.1794 10.135C40.1303 10.4579 40.086 10.7207 39.7234 10.564C39.7599 10.2854 39.7773 10.0052 40.1794 10.135Z" fill="#60D06F" stroke="#082422" stroke-width="0.164607" stroke-linecap="round" stroke-linejoin="round"/>
<path d="M37.7354 7.63391C37.4932 8.04393 37.3507 8.03127 37.1417 7.58325C37.3539 7.60225 37.5248 7.6165 37.7354 7.63391Z" fill="#60D06F" stroke="#082422" stroke-width="0.164607" stroke-linecap="round" stroke-linejoin="round"/>
<path d="M8.19458 27.1167C8.19458 27.1167 18.1022 27.8347 18.2508 35.1313C18.2508 35.1313 10.061 34.2597 5.6001 37.4861" stroke="#082422" stroke-width="0.164607" stroke-linecap="round" stroke-linejoin="round" stroke-dasharray="0.82 0.82"/>
<path d="M20.0546 46.1844C20.0546 46.1844 23.7122 38.6368 18.4397 35.4479C18.4397 35.4479 15.6196 41.8042 11.3772 43.704" stroke="#082422" stroke-width="0.164607" stroke-linecap="round" stroke-linejoin="round" stroke-dasharray="0.82 0.82"/>
<path d="M53.6962 29.7513C53.6107 29.7386 53.5221 29.7307 53.4318 29.7307C53.4034 29.7307 53.3733 29.7307 53.3448 29.7323C52.178 29.7909 51.5464 31.1349 52.2002 32.1022L53.4778 33.9892L54.7078 32.0689C55.2936 31.1555 54.7664 29.9175 53.6946 29.7497L53.6962 29.7513Z" fill="#082422" stroke="#082422" stroke-width="0.164607" stroke-linecap="round" stroke-linejoin="round"/>
<path d="M54.3535 31.2416C54.3535 31.7434 53.9467 32.1487 53.4464 32.1487C52.9462 32.1487 52.5393 31.7418 52.5393 31.2416C52.5393 30.7413 52.9462 30.3345 53.4464 30.3345C53.9467 30.3345 54.3535 30.7413 54.3535 31.2416Z" fill="#60D06F" stroke="#082422" stroke-width="0.164607" stroke-linecap="round" stroke-linejoin="round"/>
<path d="M8.91442 23.9217C8.82893 23.909 8.74028 23.9011 8.65005 23.9011C8.62155 23.9011 8.59147 23.9011 8.56298 23.9027C7.39624 23.9613 6.76459 25.3053 7.4184 26.2726L8.69596 28.1596L9.92602 26.2394C10.5118 25.3259 9.9846 24.0879 8.91284 23.9201L8.91442 23.9217Z" fill="#082422" stroke="#082422" stroke-width="0.164607" stroke-linecap="round" stroke-linejoin="round"/>
<path d="M9.57216 25.4127C9.57216 25.9146 9.16531 26.3198 8.66505 26.3198C8.16479 26.3198 7.75793 25.913 7.75793 25.4127C7.75793 24.9125 8.16479 24.5056 8.66505 24.5056C9.16531 24.5056 9.57216 24.9125 9.57216 25.4127Z" fill="#60D06F" stroke="#082422" stroke-width="0.164607" stroke-linecap="round" stroke-linejoin="round"/>
<path d="M18.7657 31.388C18.6803 31.3753 18.5916 31.3674 18.5014 31.3674C18.4729 31.3674 18.4428 31.3674 18.4143 31.369C17.2476 31.4276 16.6159 32.7716 17.2697 33.7389L18.5473 35.626L19.7773 33.7057C20.3631 32.7922 19.8359 31.5542 18.7642 31.3864L18.7657 31.388Z" fill="#082422" stroke="#082422" stroke-width="0.164607" stroke-linecap="round" stroke-linejoin="round"/>
<path d="M19.4231 32.879C19.4231 33.3809 19.0163 33.7861 18.516 33.7861C18.0157 33.7861 17.6089 33.3793 17.6089 32.879C17.6089 32.3788 18.0157 31.9719 18.516 31.9719C19.0163 31.9719 19.4231 32.3788 19.4231 32.879Z" fill="#60D06F" stroke="#082422" stroke-width="0.164607" stroke-linecap="round" stroke-linejoin="round"/>
<path d="M20.486 42.4359C20.4005 42.4232 20.3119 42.4153 20.2216 42.4153C20.1931 42.4153 20.1631 42.4153 20.1346 42.4169C18.9678 42.4754 18.3362 43.8195 18.99 44.7868L20.2676 46.6738L21.4976 44.7535C22.0834 43.8401 21.5562 42.6021 20.4844 42.4343L20.486 42.4359Z" fill="#082422" stroke="#082422" stroke-width="0.164607" stroke-linecap="round" stroke-linejoin="round"/>
<path d="M21.1437 43.9271C21.1437 44.429 20.7368 44.8342 20.2366 44.8342C19.7363 44.8342 19.3295 44.4274 19.3295 43.9271C19.3295 43.4269 19.7363 43.02 20.2366 43.02C20.7368 43.02 21.1437 43.4269 21.1437 43.9271Z" fill="#60D06F" stroke="#082422" stroke-width="0.164607" stroke-linecap="round" stroke-linejoin="round"/>
<path d="M5.28539 33.7733C5.19991 33.7606 5.11126 33.7527 5.02102 33.7527C4.99252 33.7527 4.96244 33.7527 4.93395 33.7543C3.76721 33.8128 3.13556 35.1569 3.78937 36.1242L5.06693 38.0112L6.29699 36.0909C6.88274 35.1775 6.35557 33.9395 5.28381 33.7717L5.28539 33.7733Z" fill="#082422" stroke="#082422" stroke-width="0.164607" stroke-linecap="round" stroke-linejoin="round"/>
<path d="M5.94301 35.264C5.94301 35.7659 5.53616 36.1712 5.0359 36.1712C4.53564 36.1712 4.12878 35.7643 4.12878 35.264C4.12878 34.7638 4.53564 34.3569 5.0359 34.3569C5.53616 34.3569 5.94301 34.7638 5.94301 35.264Z" fill="#60D06F" stroke="#082422" stroke-width="0.164607" stroke-linecap="round" stroke-linejoin="round"/>
<path d="M11.5154 39.7371C11.4299 39.7245 11.3412 39.7166 11.251 39.7166C11.2225 39.7166 11.1924 39.7166 11.1639 39.7181C9.99719 39.7767 9.36554 41.1208 10.0194 42.088L11.2969 43.9751L12.527 42.0548C13.1127 41.1413 12.5855 39.9034 11.5138 39.7356L11.5154 39.7371Z" fill="#082422" stroke="#082422" stroke-width="0.164607" stroke-linecap="round" stroke-linejoin="round"/>
<path d="M12.1731 41.2282C12.1731 41.73 11.7663 42.1353 11.266 42.1353C10.7657 42.1353 10.3589 41.7284 10.3589 41.2282C10.3589 40.7279 10.7657 40.321 11.266 40.321C11.7663 40.321 12.1731 40.7279 12.1731 41.2282Z" fill="#60D06F" stroke="#082422" stroke-width="0.164607" stroke-linecap="round" stroke-linejoin="round"/>
<path d="M24.7721 51.9622C24.6866 51.9496 24.598 51.9417 24.5077 51.9417C24.4792 51.9417 24.4491 51.9416 24.4206 51.9432C23.2539 52.0018 22.6223 53.3459 23.2761 54.3131L24.5536 56.2002L25.7837 54.2799C26.3694 53.3664 25.8423 52.1285 24.7705 51.9606L24.7721 51.9622Z" fill="#082422" stroke="#082422" stroke-width="0.164607" stroke-linecap="round" stroke-linejoin="round"/>
<path d="M25.4282 53.453C25.4282 53.9549 25.0214 54.3601 24.5211 54.3601C24.0209 54.3601 23.614 53.9533 23.614 53.453C23.614 52.9528 24.0209 52.5459 24.5211 52.5459C25.0214 52.5459 25.4282 52.9528 25.4282 53.453Z" fill="#60D06F" stroke="#082422" stroke-width="0.164607" stroke-linecap="round" stroke-linejoin="round"/>
</g>
<path d="M40 80.0002C62.0914 80.0002 80 62.0916 80 40.0002C80 17.9089 62.0914 0.000244141 40 0.000244141C17.9086 0.000244141 0 17.9089 0 40.0002C0 62.0916 17.9086 80.0002 40 80.0002Z" stroke="#082422" stroke-width="0.164607" stroke-linecap="round" stroke-linejoin="round"/>
</g>
<defs>
<clipPath id="clip0_664_11557">
<rect width="80" height="80" fill="white"/>
</clipPath>
</defs>
</svg>
