<svg width="43" height="49" viewBox="0 0 43 49" fill="none" xmlns="http://www.w3.org/2000/svg">
<g opacity="0.8">
<path d="M41.5999 21.5223C41.5999 10.189 32.3934 1 21.0359 1C9.67842 1 0.474487 10.189 0.474487 21.5223C0.474487 32.8556 9.68102 42.0446 21.0359 42.0446C21.1086 42.0446 21.1814 42.0394 21.2567 42.0394L20.4124 48.0237C38.4462 40.0352 40.992 26.8013 41.1817 25.6501C41.4544 24.3174 41.5973 22.9354 41.5973 21.5223H41.5999Z" fill="#00CD65"/>
<path d="M41.5999 21.5223C41.5999 10.189 32.3934 1 21.0359 1C9.67842 1 0.474487 10.189 0.474487 21.5223C0.474487 32.8556 9.68101 42.0446 21.0359 42.0446C21.1086 42.0446 21.1814 42.0394 21.2567 42.0394L20.4124 48.0237C38.4462 40.0352 40.992 26.8013 41.1817 25.6501C41.4544 24.3174 41.5973 22.9354 41.5973 21.5223H41.5999Z" stroke="black" stroke-width="0.26" stroke-miterlimit="10"/>
<path d="M40.8387 21.6728L20.9995 6.82617L1.21741 21.6728L20.9995 36.5168L40.8387 21.6728Z" fill="#FFDE00"/>
<path d="M21.0281 28.2353C24.6594 28.2353 27.6031 25.2972 27.6031 21.6728C27.6031 18.0485 24.6594 15.1104 21.0281 15.1104C17.3968 15.1104 14.4531 18.0485 14.4531 21.6728C14.4531 25.2972 17.3968 28.2353 21.0281 28.2353Z" fill="#1E3583"/>
</g>
</svg>
