<svg width="40" height="45" viewBox="0 0 40 45" fill="none" xmlns="http://www.w3.org/2000/svg">
<path d="M38.5505 19.3564C38.5505 9.10891 30.5292 0.800293 20.6339 0.800293C10.7385 0.800293 2.71948 9.10891 2.71948 19.3564C2.71948 29.6038 10.7408 37.9124 20.6339 37.9124C20.6972 37.9124 17.8245 43.3696 17.8245 43.3696L20.0907 43.3186C35.8028 36.0955 38.0209 24.1296 38.1861 23.0887C38.4238 21.8836 38.5482 20.6341 38.5482 19.3564H38.5505Z" fill="#D0B500" stroke="black" stroke-width="0.2" stroke-miterlimit="10"/>
<path d="M35.7388 29.5825C33.3762 33.8351 28.8148 39.3079 20.0923 43.3179L17.8286 43.3677L19.2417 41.1001L30.9097 29.2817L35.7388 29.5825Z" fill="#C00331"/>
<path fill-rule="evenodd" clip-rule="evenodd" d="M38.5449 18.7705C38.5507 18.9649 38.5537 19.16 38.5537 19.3558H38.5514C38.5514 20.6335 38.4269 21.8831 38.1893 23.0881C38.1095 23.5906 37.5513 26.6391 35.2276 30.471L32.1621 31.4976L36.2298 19.8787L38.5449 18.7705Z" fill="#071031"/>
<path d="M38.5505 19.3564C38.5505 9.10891 30.5292 0.800293 20.6339 0.800293C10.7385 0.800293 2.71948 9.10891 2.71948 19.3564C2.71948 29.6038 10.7408 37.9124 20.6339 37.9124C20.6972 37.9124 17.8245 43.3696 17.8245 43.3696L20.0907 43.3186C35.8028 36.0955 38.0209 24.1296 38.1861 23.0887C38.4238 21.8836 38.5482 20.6341 38.5482 19.3564H38.5505Z" stroke="black" stroke-width="0.2" stroke-miterlimit="10"/>
<mask id="mask0_1583_2271" style="mask-type:luminance" maskUnits="userSpaceOnUse" x="0" y="0" width="37" height="44">
<path d="M36.2486 19.3564C36.2486 9.10891 28.2273 0.800293 18.332 0.800293C8.43663 0.800293 0.417603 9.10891 0.417603 19.3564C0.417603 29.6038 8.4389 37.9124 18.332 37.9124C18.3954 37.9124 18.4587 37.9077 18.5244 37.9077L17.7888 43.3186C33.5009 36.0955 35.719 24.1296 35.8842 23.0887C36.1219 21.8836 36.2464 20.6341 36.2464 19.3564H36.2486Z" fill="white"/>
</mask>
<g mask="url(#mask0_1583_2271)">
<path d="M41.4365 31.2644L-4.77173 31.2644L-4.77173 43.3694L41.4365 43.3694V31.2644Z" fill="#FF003D"/>
<path d="M41.2127 19.3921L-4.77124 19.3921L-4.77124 31.4971L41.2127 31.4971V19.3921Z" fill="#1E3583"/>
<path d="M41.435 -6.68018L-4.77319 -6.68018L-4.77319 19.8578L41.435 19.8578V-6.68018Z" fill="#FFDE00"/>
</g>
<path d="M36.2465 19.3568C36.2465 9.1094 28.2252 0.800781 18.3299 0.800781C8.43456 0.800781 0.415527 9.1094 0.415527 19.3568C0.415527 29.6043 8.43682 37.9129 18.3299 37.9129C18.3933 37.9129 18.4567 37.9082 18.5223 37.9082L17.7867 43.3191C33.4988 36.096 35.7169 24.1301 35.8821 23.0892C36.1198 21.8841 36.2443 20.6346 36.2443 19.3568H36.2465Z" stroke="black" stroke-width="0.2" stroke-miterlimit="10"/>
</svg>
