<svg width="44" height="49" viewBox="0 0 44 49" fill="none" xmlns="http://www.w3.org/2000/svg">
<mask id="mask0_664_11835" style="mask-type:luminance" maskUnits="userSpaceOnUse" x="0" y="0" width="43" height="48">
<path d="M42.3166 21.2761C42.3166 9.96822 33.0225 0.799805 21.557 0.799805C10.0915 0.799805 0.800049 9.96822 0.800049 21.2761C0.800049 32.584 10.0941 41.7524 21.557 41.7524C21.6304 41.7524 21.7039 41.7472 21.7799 41.7472L20.9276 47.7181C39.1329 39.7475 41.7029 26.5433 41.8944 25.3946C42.1697 24.0649 42.314 22.686 42.314 21.2761H42.3166Z" fill="white"/>
</mask>
<g mask="url(#mask0_664_11835)">
<path d="M48.3311 34.429H-5.20923V47.7867H48.3311V34.429Z" fill="#FF003D"/>
<path d="M48.0712 21.3206H-5.20923V34.6783H48.0712V21.3206Z" fill="#1E3583"/>
<path d="M48.3311 -7.45239H-5.20923V21.8318H48.3311V-7.45239Z" fill="#FFDE00"/>
</g>
<path d="M21.5571 0.98584C32.8616 0.98584 42.0315 9.97537 42.1313 21.0952H42.1304V21.2788C42.1304 22.6761 41.9881 24.0425 41.7153 25.3599L41.7134 25.3667C41.5294 26.4704 39.0119 39.4647 21.1567 47.4155L21.9614 41.7759L21.9917 41.5659H21.7798C21.7383 41.5659 21.698 41.5676 21.6616 41.5688C21.624 41.5702 21.5901 41.5718 21.5571 41.5718C10.1933 41.5717 0.984029 32.4829 0.983887 21.2788C0.983887 10.0746 10.1907 0.985909 21.5571 0.98584Z" stroke="#082422" stroke-width="0.366895" stroke-miterlimit="10"/>
</svg>
