<svg width="44" height="49" viewBox="0 0 44 49" fill="none" xmlns="http://www.w3.org/2000/svg">
<mask id="mask0_664_11849" style="mask-type:luminance" maskUnits="userSpaceOnUse" x="0" y="0" width="43" height="48">
<path d="M42.3168 21.2761C42.3168 9.96822 33.0228 0.799805 21.5573 0.799805C10.0918 0.799805 0.800293 9.96822 0.800293 21.2761C0.800293 32.584 10.0944 41.7524 21.5573 41.7524C21.6307 41.7524 21.7041 41.7472 21.7802 41.7472L20.9279 47.7181C39.1331 39.7475 41.7032 26.5433 41.8946 25.3946C42.17 24.0649 42.3142 22.686 42.3142 21.2761H42.3168Z" fill="white"/>
</mask>
<g mask="url(#mask0_664_11849)">
<path d="M48.3309 34.429H-5.20947V47.7867H48.3309V34.429Z" fill="#FF003D"/>
<path d="M48.071 21.3206H-5.20947V34.6783H48.071V21.3206Z" fill="#1E3583"/>
<path d="M48.3311 -7.45239H-5.20923V21.8318H48.3311V-7.45239Z" fill="#FFDE00"/>
</g>
</svg>
