<svg width="43" height="48" viewBox="0 0 43 48" fill="none" xmlns="http://www.w3.org/2000/svg">
<mask id="mask0_1583_2260" style="mask-type:alpha" maskUnits="userSpaceOnUse" x="0" y="0" width="42" height="48">
<path d="M41.8294 21.1035C41.8299 17.0874 40.6307 13.1614 38.3835 9.82194C36.1362 6.48245 32.9419 3.87951 29.2044 2.34227C25.4669 0.805039 21.3541 0.402566 17.3862 1.18575C13.4182 1.96894 9.77338 3.9026 6.91253 6.74221C4.05167 9.58182 2.10332 13.1998 1.31388 17.1387C0.524432 21.0775 0.929346 25.1603 2.47741 28.8708C4.02548 32.5812 6.64717 35.7525 10.0109 37.9838C13.3747 40.215 17.3294 41.406 21.375 41.406H21.5947L20.7549 47.3261C38.6925 39.4232 41.2248 26.3311 41.4263 25.1922C41.7021 23.8483 41.8406 22.4802 41.8398 21.1086L41.8294 21.1035Z" fill="#DCFF00"/>
</mask>
<g mask="url(#mask0_1583_2260)">
<path d="M-8.31396 0.216553H51.1397V48.7031H-8.31396V0.216553Z" fill="#004699"/>
<path d="M-8.31396 9.20581H51.1397V33.0111H-8.31396V9.20581Z" fill="white"/>
<path d="M-8.31396 15.1531H51.1397V27.0557H-8.31396V15.1531Z" fill="#FF003D"/>
</g>
<path d="M17.4216 1.3645C21.3546 0.588272 25.4311 0.986376 29.1355 2.51001C32.8399 4.03364 36.006 6.61356 38.2332 9.9231C40.4603 13.2327 41.6487 17.1239 41.6482 21.1038V21.2161L41.656 21.22C41.6495 22.5418 41.5146 23.86 41.2488 25.1555L41.2478 25.1604C41.0536 26.2576 38.5717 39.1417 20.9802 47.0247L21.7742 41.4319L21.8035 41.2249H21.3748C17.3649 41.2248 13.4449 40.0446 10.1111 37.8333C6.77716 35.6218 4.17943 32.4781 2.64526 28.801C1.11116 25.1241 0.709717 21.0783 1.49194 17.175C2.27428 13.2716 4.2054 9.68565 7.04077 6.87134C9.87613 4.0571 13.4887 2.14077 17.4216 1.3645Z" stroke="#082422" stroke-width="0.362975" stroke-miterlimit="10"/>
</svg>
