<svg width="43" height="48" viewBox="0 0 43 48" fill="none" xmlns="http://www.w3.org/2000/svg">
<mask id="mask0_1583_2261" style="mask-type:alpha" maskUnits="userSpaceOnUse" x="2" y="0" width="40" height="48">
<path d="M41.8651 21.0203C41.8651 9.89183 33.1542 0.868896 22.4081 0.868896C11.6621 0.868896 2.95361 9.89183 2.95361 21.0203C2.95361 32.1487 11.6645 41.1717 22.4081 41.1717C22.477 41.1717 19.3572 47.0981 19.3572 47.0981L21.8182 47.0427C38.8812 39.1985 41.29 26.2039 41.4694 25.0735C41.7275 23.7648 41.8627 22.4078 41.8627 21.0203H41.8651Z" fill="#60D06F"/>
</mask>
<g mask="url(#mask0_1583_2261)">
<path d="M0.477051 0.868896H54.5585V47.7829H0.477051V0.868896Z" fill="#003370"/>
<path d="M36.097 9.77366L41.9612 7.38452V30.6243L35.8798 32.7963L36.097 9.77366Z" fill="#DEDEDE"/>
<path d="M38.5947 15.5293L41.9612 13.9004L42.0698 25.3031L38.4861 26.9321L38.5947 15.5293Z" fill="#D00032"/>
</g>
<path d="M41.8651 21.0203C41.8651 9.89183 33.1542 0.868896 22.4081 0.868896C11.6621 0.868896 2.95361 9.89183 2.95361 21.0203C2.95361 32.1487 11.6645 41.1717 22.4081 41.1717C22.477 41.1717 19.3572 47.0981 19.3572 47.0981L21.8182 47.0427C38.8812 39.1985 41.29 26.2039 41.4694 25.0735C41.7275 23.7648 41.8627 22.4078 41.8627 21.0203H41.8651Z" stroke="black" stroke-width="0.217195" stroke-miterlimit="10"/>
<mask id="mask1_1583_2261" style="mask-type:luminance" maskUnits="userSpaceOnUse" x="0" y="0" width="40" height="48">
<path d="M39.3654 21.0203C39.3654 9.89183 30.6545 0.868896 19.9084 0.868896C9.16231 0.868896 0.453857 9.89183 0.453857 21.0203C0.453857 32.1487 9.16477 41.1716 19.9084 41.1716C19.9772 41.1716 20.046 41.1666 20.1173 41.1666L19.3185 47.0427C36.3814 39.1985 38.7902 26.2039 38.9696 25.0735C39.2277 23.7648 39.3629 22.4078 39.3629 21.0203H39.3654Z" fill="white"/>
</mask>
<g mask="url(#mask1_1583_2261)">
<path d="M-7.12476 0.868896H46.9567V47.7829H-7.12476V0.868896Z" fill="#004699"/>
<path d="M-7.09167 9.80908H46.9078V32.7085H-7.09167V9.80908Z" fill="white"/>
<path d="M-7.09167 15.53H46.9078V26.9797H-7.09167V15.53Z" fill="#FF003D"/>
</g>
<path d="M39.3629 21.0205C39.3629 9.89207 30.652 0.869141 19.9059 0.869141C9.15987 0.869141 0.451416 9.89207 0.451416 21.0205C0.451416 32.149 9.16233 41.1719 19.9059 41.1719C19.9748 41.1719 20.0436 41.1668 20.1149 41.1668L19.316 47.0429C36.379 39.1988 38.7878 26.2041 38.9672 25.0737C39.2253 23.7651 39.3605 22.4081 39.3605 21.0205H39.3629Z" stroke="black" stroke-width="0.217195" stroke-miterlimit="10"/>
</svg>
