<svg width="40" height="45" viewBox="0 0 40 45" fill="none" xmlns="http://www.w3.org/2000/svg">
<path d="M38.5505 19.3559C38.5505 9.10842 30.5292 0.799805 20.6339 0.799805C10.7385 0.799805 2.71948 9.10842 2.71948 19.3559C2.71948 29.6033 10.7408 37.9119 20.6339 37.9119C20.6972 37.9119 17.8245 43.3692 17.8245 43.3692L20.0907 43.3182C35.8028 36.095 38.0209 24.1291 38.1861 23.0882C38.4238 21.8831 38.5482 20.6336 38.5482 19.3559H38.5505Z" fill="#BAA200" stroke="black" stroke-width="0.2" stroke-miterlimit="10"/>
<path d="M35.7388 29.582C33.3762 33.8347 28.8148 39.3074 20.0923 43.3174L17.8286 43.3672L19.2417 41.0996L30.9097 29.2813L35.7388 29.582Z" fill="#750004"/>
<path fill-rule="evenodd" clip-rule="evenodd" d="M38.5449 18.7703C38.5507 18.9646 38.5537 19.1597 38.5537 19.3556H38.5514C38.5514 20.6333 38.4269 21.8829 38.1893 23.0879C38.1095 23.5904 37.5513 26.6389 35.2276 30.4707L32.1621 31.4974L36.2298 19.8784L38.5449 18.7703Z" fill="#071031"/>
<path d="M38.5505 19.3559C38.5505 9.10842 30.5292 0.799805 20.6339 0.799805C10.7385 0.799805 2.71948 9.10842 2.71948 19.3559C2.71948 29.6033 10.7408 37.9119 20.6339 37.9119C20.6972 37.9119 17.8245 43.3692 17.8245 43.3692L20.0907 43.3182C35.8028 36.095 38.0209 24.1291 38.1861 23.0882C38.4238 21.8831 38.5482 20.6336 38.5482 19.3559H38.5505Z" stroke="black" stroke-width="0.2" stroke-miterlimit="10"/>
<mask id="mask0_1583_2263" style="mask-type:luminance" maskUnits="userSpaceOnUse" x="0" y="0" width="37" height="44">
<path d="M36.2486 19.3559C36.2486 9.10842 28.2273 0.799805 18.332 0.799805C8.43663 0.799805 0.417603 9.10842 0.417603 19.3559C0.417603 29.6033 8.4389 37.9119 18.332 37.9119C18.3954 37.9119 18.4587 37.9072 18.5244 37.9072L17.7888 43.3182C33.5009 36.095 35.719 24.1291 35.8842 23.0882C36.1219 21.8831 36.2464 20.6336 36.2464 19.3559H36.2486Z" fill="white"/>
</mask>
<g mask="url(#mask0_1583_2263)">
<path d="M41.4365 31.2646L-4.77173 31.2646L-4.77173 43.3697L41.4365 43.3697V31.2646Z" fill="#FF003D"/>
<path d="M41.2127 19.3923L-4.77124 19.3923L-4.77124 31.4974L41.2127 31.4974V19.3923Z" fill="#1E3583"/>
<path d="M41.435 -6.67993L-4.77319 -6.67993L-4.77319 19.858L41.435 19.858V-6.67993Z" fill="#FFDE00"/>
<path d="M47.5999 31.0046H-10.6001V48.6581H47.5999V31.0046Z" fill="#ED1C24"/>
<path d="M47.3174 19.8242H-10.6001V31.2989H47.3174V19.8242Z" fill="#034EA2"/>
<path d="M47.5999 -14.6001H-10.6001V19.8241H47.5999V-14.6001Z" fill="#FFDD00"/>
<rect x="11.1543" y="11.2917" width="14.4087" height="17.6534" rx="7.20437" fill="#FFDD00"/>
<path d="M20.195 11.5442C20.195 12.5191 19.436 13.3095 18.4998 13.3095C17.5636 13.3095 16.8047 12.5191 16.8047 11.5442C16.8047 10.5692 17.5636 9.77881 18.4998 9.77881C19.436 9.77881 20.195 10.5692 20.195 11.5442Z" fill="white"/>
<path d="M13.1316 19.3836C13.1316 16.3774 15.4717 13.9404 18.3583 13.9404C21.2449 13.9404 23.585 16.3774 23.585 19.3836V21.1489C23.585 24.1551 21.2449 26.5921 18.3583 26.5921C15.4717 26.5921 13.1316 24.1551 13.1316 21.1489V19.3836Z" fill="#51BDDE"/>
<path d="M16.9879 11.2495H12.8489C12.8489 11.9637 13.4048 12.5427 14.0907 12.5427H14.1976V12.573C14.1976 13.4557 14.8847 14.1712 15.7323 14.1712C15.7323 14.8325 16.247 15.3686 16.8821 15.3686H20.2562C20.8912 15.3686 21.406 14.8325 21.406 14.1712C22.0995 14.1712 22.6617 13.5858 22.6617 12.8636V12.5427H22.9081C23.5939 12.5427 24.1498 11.9637 24.1498 11.2495H16.9879Z" fill="#662113"/>
</g>
<path d="M36.2465 19.3561C36.2465 9.10866 28.2252 0.800049 18.3299 0.800049C8.43456 0.800049 0.415527 9.10866 0.415527 19.3561C0.415527 29.6036 8.43682 37.9122 18.3299 37.9122C18.3933 37.9122 18.4567 37.9075 18.5223 37.9075L17.7867 43.3184C33.4988 36.0952 35.7169 24.1293 35.8821 23.0884C36.1198 21.8834 36.2443 20.6338 36.2443 19.3561H36.2465Z" stroke="black" stroke-width="0.2" stroke-miterlimit="10"/>
</svg>
