<svg width="43" height="49" viewBox="0 0 43 49" fill="none" xmlns="http://www.w3.org/2000/svg">
<mask id="mask0_664_11831" style="mask-type:luminance" maskUnits="userSpaceOnUse" x="0" y="0" width="42" height="48">
<path d="M41.7998 20.9178C41.7998 9.58737 32.5955 0.400635 21.2409 0.400635C9.88621 0.400635 0.68457 9.58737 0.68457 20.9178C0.68457 32.2483 9.8888 41.435 21.2409 41.435C21.3136 41.435 21.3863 41.4299 21.4616 41.4299L20.6176 47.4126C38.6468 39.4261 41.192 26.1955 41.3816 25.0446C41.6543 23.7122 41.7972 22.3306 41.7972 20.9178H41.7998Z" fill="white"/>
</mask>
<g mask="url(#mask0_664_11831)">
<path d="M47.7537 32.0254H-5.26904V47.4689H47.7537V32.0254Z" fill="#ED1C24"/>
<path d="M47.4963 22.2446H-5.26904V32.2829H47.4963V22.2446Z" fill="#034EA2"/>
<path d="M47.7537 -7.87036H-5.26904V22.2445H47.7537V-7.87036Z" fill="#FFDD00"/>
</g>
<path d="M21.2412 0.218018C32.6964 0.218204 41.9824 9.48644 41.9824 20.9182V21.1008H41.9785C41.9667 22.4596 41.8239 23.789 41.5615 25.0735C41.3657 26.2622 38.7956 39.5606 20.6914 47.5803L20.3906 47.7131L20.4365 47.387L21.25 41.6174C21.2471 41.6174 21.2441 41.6184 21.2412 41.6184C9.78854 41.6184 0.502157 32.3499 0.501953 20.9182C0.501953 9.48636 9.7858 0.218018 21.2412 0.218018Z" stroke="#082422" stroke-width="0.366" stroke-miterlimit="10"/>
<rect x="14.55" y="14.781" width="13.127" height="15.4435" rx="6.56349" fill="#FFDD00"/>
<path d="M22.7867 15.0016C22.7867 15.8545 22.0953 16.546 21.2423 16.546C20.3894 16.546 19.698 15.8545 19.698 15.0016C19.698 14.1487 20.3894 13.4573 21.2423 13.4573C22.0953 13.4573 22.7867 14.1487 22.7867 15.0016Z" fill="white"/>
<path d="M16.3518 21.8599C16.3518 19.2301 18.4837 17.0981 21.1136 17.0981C23.7434 17.0981 25.8753 19.2301 25.8753 21.8599V23.4042C25.8753 26.0341 23.7434 28.166 21.1136 28.166C18.4837 28.166 16.3518 26.0341 16.3518 23.4042V21.8599Z" fill="#51BDDE"/>
<path d="M19.8651 14.7441H16.0942C16.0942 15.369 16.6008 15.8755 17.2256 15.8755H17.3229V15.9019C17.3229 16.6741 17.9489 17.3001 18.7211 17.3001C18.7211 17.8786 19.1901 18.3476 19.7686 18.3476H22.8426C23.4212 18.3476 23.8901 17.8786 23.8901 17.3001C24.5219 17.3001 25.0341 16.7879 25.0341 16.1561V15.8755H25.2586C25.8834 15.8755 26.3899 15.369 26.3899 14.7441H19.8651Z" fill="#662113"/>
</svg>
