<svg width="43" height="49" viewBox="0 0 43 49" fill="none" xmlns="http://www.w3.org/2000/svg">
<rect width="42.2" height="48.8" fill="white"/>
<path d="M0.600098 21.3033C0.600098 24.9528 1.55852 28.3694 3.24224 31.3459H39.0666C40.6726 28.2141 41.1129 25.8846 41.1906 25.4187C41.4497 24.0987 41.6051 22.701 41.6051 21.3033C41.6051 17.9126 40.7762 14.729 39.3256 11.9336H2.85369C1.4031 14.729 0.600098 17.9126 0.600098 21.3033Z" fill="white"/>
<path d="M21.0906 41.7786C21.1683 41.7786 21.246 41.7786 21.2978 41.7786L20.4689 47.7575C31.3742 42.9174 36.5808 36.1619 39.0675 31.3477H3.21729C6.74014 37.5855 13.4232 41.7786 21.0906 41.7786Z" fill="#0052B4"/>
<path d="M21.089 0.799805C13.1367 0.799805 6.27227 5.30347 2.85303 11.9037H39.3249C35.9057 5.32935 29.0413 0.799805 21.089 0.799805Z" fill="#0052B4"/>
<path d="M41.7328 21.328C41.7328 10.0033 32.5345 0.803711 21.1535 0.803711C9.77246 0.803711 0.600098 10.0033 0.600098 21.328C0.600098 32.6526 9.79845 41.8263 21.1795 41.8263C21.2574 41.8263 21.3354 41.8263 21.3873 41.8263L20.5558 47.8126C38.5888 39.8309 41.1352 26.6145 41.3171 25.4484C41.5769 24.1267 41.7328 22.7273 41.7328 21.328Z" stroke="#082422" stroke-width="0.366895" stroke-miterlimit="10"/>
<path d="M23.6798 19.5903C24.0424 20.1338 24.2755 20.7809 24.2755 21.4797C24.2755 23.2657 22.8509 24.7151 21.1153 24.7151C19.3798 24.7151 17.9551 23.2657 17.9551 21.4797C17.9551 20.7809 18.1883 20.1338 18.5509 19.5903L16.116 17.0796C15.1317 18.2702 14.5359 19.7973 14.5359 21.4797C14.5359 25.2069 17.4889 28.2352 21.1412 28.2352C24.7936 28.2352 27.7466 25.2069 27.7466 21.4797C27.7466 19.7973 27.1508 18.2702 26.1665 17.0796L23.6798 19.5903Z" fill="#FFDA44"/>
<path d="M18.1357 22.6414C18.602 23.8579 19.7418 24.712 21.0887 24.712C22.4357 24.712 23.5754 23.8579 24.0417 22.6414H18.1357Z" fill="#6DA544"/>
<path d="M21.0932 22.6423H18.8137L19.9535 20.6234L21.0932 18.6045L22.233 20.6234L23.3727 22.6423H21.0932Z" fill="#FFDA44"/>
</svg>
