<svg width="39" height="43" viewBox="0 0 39 43" fill="none" xmlns="http://www.w3.org/2000/svg">
<mask id="mask0_1583_2265" style="mask-type:luminance" maskUnits="userSpaceOnUse" x="2" y="0" width="36" height="42">
<path d="M37.9375 18.6236C37.9375 8.78137 30.0674 0.80127 20.3586 0.80127C10.6498 0.80127 2.78198 8.78137 2.78198 18.6236C2.78198 28.4659 10.6521 36.446 20.3586 36.446C20.4208 36.446 20.483 36.4415 20.5474 36.4415L17.8289 41.6385H19.8257C35.2416 34.7009 37.4179 23.2081 37.58 22.2084C37.8131 21.051 37.9353 19.8508 37.9353 18.6236H37.9375Z" fill="white"/>
</mask>
<g mask="url(#mask0_1583_2265)">
<path d="M42.9387 10.4707L-2.22314 10.4707L-2.22314 27.3631L42.9387 27.3631L42.9387 10.4707Z" fill="#EAEAEA"/>
<path d="M42.9378 42.4654L42.9378 30.0447L34.5521 25.5913L-2.22412 25.573L-2.22412 42.4654L42.9378 42.4654Z" fill="#004687"/>
<path d="M42.9375 -4.63281L-2.22437 -4.63281L-2.22437 12.2596L34.7719 12.2596L42.9375 16.7313L42.9375 -4.63281Z" fill="#004687"/>
</g>
<path d="M37.936 18.6238C37.936 8.78149 30.066 0.801392 20.3572 0.801392C10.6484 0.801392 2.78052 8.78149 2.78052 18.6238C2.78052 28.466 10.6506 36.4461 20.3572 36.4461C20.4193 36.4461 20.4815 36.4416 20.5459 36.4416L17.9374 41.6386H19.8242C35.2401 34.7011 37.4164 23.2083 37.5785 22.2085C37.8117 21.0511 37.9338 19.851 37.9338 18.6238H37.936Z" stroke="black" stroke-width="0.111792" stroke-miterlimit="10"/>
<mask id="mask1_1583_2265" style="mask-type:luminance" maskUnits="userSpaceOnUse" x="0" y="0" width="36" height="42">
<path d="M35.9563 18.6239C35.9563 8.78161 28.0862 0.801514 18.3774 0.801514C8.66864 0.801514 0.800781 8.78161 0.800781 18.6239C0.800781 28.4662 8.67086 36.4463 18.3774 36.4463C18.4396 36.4463 18.5018 36.4418 18.5662 36.4418L17.8445 41.6387C33.2604 34.7012 35.4367 23.2084 35.5988 22.2086C35.8319 21.0512 35.9541 19.8511 35.9541 18.6239H35.9563Z" fill="white"/>
</mask>
<g mask="url(#mask1_1583_2265)">
<path d="M40.96 10.4695L-4.2019 10.4695L-4.2019 27.3619L40.96 27.3619L40.96 10.4695Z" fill="white"/>
<path d="M20.0882 16.6501C20.3448 17.035 20.5097 17.4932 20.5097 17.9881C20.5097 19.2527 19.5017 20.2791 18.2737 20.2791C17.0458 20.2791 16.0377 19.2527 16.0377 17.9881C16.0377 17.4932 16.2027 17.035 16.4593 16.6501L14.7364 14.8723C14.04 15.7154 13.6184 16.7968 13.6184 17.9881C13.6184 20.6273 15.7078 22.7717 18.2921 22.7717C20.8763 22.7717 22.9657 20.6273 22.9657 17.9881C22.9657 16.7968 22.5442 15.7154 21.8477 14.8723L20.0882 16.6501Z" fill="#FFDA44"/>
<path d="M16.1655 18.8132C16.4954 19.6746 17.3019 20.2795 18.2549 20.2795C19.208 20.2795 20.0144 19.6746 20.3443 18.8132H16.1655Z" fill="#6DA544"/>
<path d="M18.2545 18.8135H16.6416L17.448 17.3839L18.2545 15.9543L19.0609 17.3839L19.8673 18.8135H18.2545Z" fill="#FFDA44"/>
<path d="M40.959 25.5715L-4.20288 25.5715L-4.20288 42.4639L40.959 42.4639L40.959 25.5715Z" fill="#0067C6"/>
<path d="M40.9588 -4.63428L-4.20312 -4.63428L-4.20312 12.2581L40.9588 12.2581L40.9588 -4.63428Z" fill="#0067C6"/>
</g>
<path d="M35.9557 18.6229C35.9557 8.78064 28.0856 0.800537 18.3768 0.800537C8.66803 0.800537 0.800171 8.78064 0.800171 18.6229C0.800171 28.4652 8.67025 36.4453 18.3768 36.4453C18.439 36.4453 18.5012 36.4408 18.5656 36.4408L17.8439 41.6378C33.2598 34.7002 35.4361 23.2074 35.5982 22.2077C35.8313 21.0503 35.9535 19.8501 35.9535 18.6229H35.9557Z" stroke="black" stroke-width="0.111792" stroke-miterlimit="10"/>
</svg>
