<svg width="43" height="49" viewBox="0 0 43 49" fill="none" xmlns="http://www.w3.org/2000/svg">
<path d="M0.600098 21.3033C0.600098 24.9528 1.55852 28.3694 3.24224 31.3459H39.0666C40.6726 28.2141 41.1129 25.8846 41.1906 25.4187C41.4497 24.0987 41.6051 22.701 41.6051 21.3033C41.6051 17.9126 40.7762 14.729 39.3256 11.9336H2.85369C1.4031 14.729 0.600098 17.9126 0.600098 21.3033Z" fill="white"/>
<path d="M21.0906 41.7786C21.1683 41.7786 21.246 41.7786 21.2978 41.7786L20.4689 47.7575C31.3742 42.9174 36.5808 36.1619 39.0675 31.3477H3.21729C6.74014 37.5855 13.4232 41.7786 21.0906 41.7786Z" fill="#0052B4"/>
<path d="M21.0892 0.799805C13.1369 0.799805 6.27251 5.30347 2.85327 11.9037H39.3252C35.9059 5.32935 29.0415 0.799805 21.0892 0.799805Z" fill="#0052B4"/>
<path d="M23.68 19.5903C24.0427 20.1338 24.2758 20.7809 24.2758 21.4797C24.2758 23.2657 22.8511 24.7151 21.1156 24.7151C19.3801 24.7151 17.9554 23.2657 17.9554 21.4797C17.9554 20.7809 18.1885 20.1338 18.5512 19.5903L16.1162 17.0796C15.1319 18.2702 14.5361 19.7973 14.5361 21.4797C14.5361 25.2069 17.4891 28.2352 21.1415 28.2352C24.7939 28.2352 27.7468 25.2069 27.7468 21.4797C27.7468 19.7973 27.1511 18.2702 26.1667 17.0796L23.68 19.5903Z" fill="#FFDA44"/>
<path d="M18.1362 22.6414C18.6025 23.8579 19.7422 24.712 21.0892 24.712C22.4362 24.712 23.5759 23.8579 24.0422 22.6414H18.1362Z" fill="#6DA544"/>
<path d="M21.0937 22.6423H18.8142L19.954 20.6234L21.0937 18.6045L22.2334 20.6234L23.3732 22.6423H21.0937Z" fill="#FFDA44"/>
</svg>
