<svg width="43" height="49" viewBox="0 0 43 49" fill="none" xmlns="http://www.w3.org/2000/svg">
<mask id="mask0_664_11842" style="mask-type:luminance" maskUnits="userSpaceOnUse" x="1" y="1" width="41" height="47">
<path d="M41.8985 21.5319C41.8985 10.3037 32.7876 1.19995 21.548 1.19995C10.3085 1.19995 1.2002 10.3037 1.2002 21.5319C1.2002 32.7601 10.3111 41.8639 21.548 41.8639C21.62 41.8639 21.692 41.8587 21.7666 41.8587L20.931 47.7875C38.7775 39.8731 41.2969 26.762 41.4846 25.6214C41.7545 24.3011 41.8959 22.9319 41.8959 21.5319H41.8985Z" fill="white"/>
</mask>
<g mask="url(#mask0_664_11842)">
<path d="M11.9018 -2.39478H-7.38428V49.8467H11.9018V-2.39478Z" fill="#00B7FF"/>
<path d="M31.1909 -2.39478H11.9048V49.8467H31.1909V-2.39478Z" fill="white"/>
<path d="M50.4753 -2.39478H31.1892V49.8467H50.4753V-2.39478Z" fill="#00B7FF"/>
</g>
<path d="M21.5434 28.0561C25.1597 28.0561 28.0912 25.1268 28.0912 21.5134C28.0912 17.9 25.1597 14.9707 21.5434 14.9707C17.9272 14.9707 14.9956 17.9 14.9956 21.5134C14.9956 25.1268 17.9272 28.0561 21.5434 28.0561Z" fill="#519400"/>
</svg>
