<svg width="40" height="44" viewBox="0 0 40 44" fill="none" xmlns="http://www.w3.org/2000/svg">
<g clip-path="url(#clip0_1583_2272)">
<mask id="mask0_1583_2272" style="mask-type:luminance" maskUnits="userSpaceOnUse" x="2" y="1" width="38" height="43">
<path d="M39.3457 19.6676C39.3639 9.56864 31.1818 1.39523 21.0699 1.41353C10.9579 1.43183 2.74849 9.63489 2.73023 19.7339C2.71196 29.8328 10.894 38.0063 21.0037 37.988C21.0685 37.9878 21.1332 37.9831 21.2003 37.983L18.349 42.4553L20.3821 43.353C36.4511 36.2055 38.7959 24.3727 38.9666 23.3465C39.2116 22.1585 39.3411 20.9268 39.3433 19.6676L39.3457 19.6676Z" fill="white" stroke="white" stroke-width="0.2" stroke-linejoin="round"/>
</mask>
<g mask="url(#mask0_1583_2272)">
<path d="M12.4054 -1.82924L-4.9502 -1.79956L-5.03051 45.1954L12.3251 45.1657L12.4054 -1.82924Z" fill="#00B7FF"/>
<path d="M29.7494 -1.84877L12.3938 -1.81909L12.3135 45.1758L29.6691 45.1462L29.7494 -1.84877Z" fill="#D8D8D8"/>
<path d="M47.0919 -1.86808L27.7334 -1.83456L27.6187 36.7623L33.3272 40.9118L47.0105 45.1261L47.0919 -1.86808Z" fill="#008FC8"/>
</g>
<path d="M39.4755 19.6997C39.4932 9.6005 31.3108 1.42645 21.1991 1.44415C11.0873 1.46185 2.87862 9.6646 2.86095 19.7638C2.84328 29.863 11.0257 38.037 21.1351 38.0193C21.1999 38.0192 21.2646 38.0145 21.3317 38.0143L18.3821 42.5111L20.4043 43.3994C36.4725 36.2527 38.9261 24.4048 39.0967 23.3786C39.3417 22.1906 39.471 20.9589 39.4732 19.6997L39.4755 19.6997Z" stroke="#082422" stroke-width="0.2" stroke-miterlimit="10" stroke-linejoin="round"/>
<path d="M21.0203 25.5618C24.2735 25.5564 26.9151 22.9173 26.9205 19.6671C26.9259 16.417 24.2931 13.7866 21.0399 13.7921C17.7868 13.7975 15.1451 16.4366 15.1397 19.6868C15.1343 22.9369 17.7671 25.5673 21.0203 25.5618Z" fill="#519400" stroke="#082422" stroke-width="0.2" stroke-linejoin="round"/>
<mask id="mask1_1583_2272" style="mask-type:luminance" maskUnits="userSpaceOnUse" x="0" y="0" width="38" height="43">
<path d="M37.2509 18.7792C37.2718 8.68025 29.0919 0.504681 18.9799 0.520303C8.86793 0.535924 0.656363 8.73682 0.635424 18.8358C0.614485 28.9348 8.79441 37.1103 18.9041 37.0947C18.9688 37.0946 19.0336 37.0899 19.1007 37.0898L18.3379 42.4235C34.4088 35.2802 36.6999 23.4841 36.8709 22.458C37.1162 21.2701 37.2459 20.0384 37.2486 18.7792L37.2509 18.7792Z" fill="white" stroke="white" stroke-width="0.2" stroke-linejoin="round"/>
</mask>
<g mask="url(#mask1_1583_2272)">
<path d="M15.4334 -2.72825L-7.03333 -2.6958L-7.15333 58.1414L15.3134 58.1089L15.4334 -2.72825Z" fill="#00B7FF"/>
<path d="M27.6658 -2.73869L10.3102 -2.71362L10.2175 44.2813L27.5731 44.2562L27.6658 -2.73869Z" fill="white"/>
<path d="M45.0071 -2.75407L27.6515 -2.729L27.5588 44.2659L44.9144 44.2409L45.0071 -2.75407Z" fill="#00B7FF"/>
</g>
<path d="M37.2481 18.7791C37.2684 8.6799 29.0882 0.503678 18.9764 0.518701C8.86469 0.533724 0.653797 8.7343 0.633458 18.8335C0.613119 28.9327 8.79334 37.1089 18.9028 37.0939C18.9675 37.0938 19.0323 37.089 19.0994 37.0889L18.337 42.4227C34.407 35.2802 36.6974 23.4841 36.8683 22.4579C37.1135 21.27 37.2432 20.0383 37.2457 18.7791L37.2481 18.7791Z" stroke="#082422" stroke-width="0.2" stroke-miterlimit="10" stroke-linejoin="round"/>
<path d="M18.921 24.6686C22.1742 24.664 24.8165 22.0256 24.8228 18.7755C24.8291 15.5253 22.1969 12.8943 18.9437 12.8988C15.6906 12.9034 13.0483 15.5419 13.042 18.792C13.0357 22.0421 15.6678 24.6732 18.921 24.6686Z" fill="#519400"/>
</g>
<defs>
<clipPath id="clip0_1583_2272">
<rect width="40" height="43.8" fill="white"/>
</clipPath>
</defs>
</svg>
