<svg width="39" height="42" viewBox="0 0 39 42" fill="none" xmlns="http://www.w3.org/2000/svg">
<g clip-path="url(#clip0_1583_2262)">
<mask id="mask0_1583_2262" style="mask-type:luminance" maskUnits="userSpaceOnUse" x="2" y="0" width="37" height="42">
<path d="M38.3742 17.986C38.3574 8.08981 30.3062 0.0522461 20.3907 0.0353063C10.4753 0.0183665 2.45355 8.02847 2.47034 17.9247C2.48713 27.8209 10.5383 35.8584 20.4515 35.8754C20.515 35.8755 20.5785 35.8711 20.6443 35.8712L17.4897 41.1148L19.9161 41.0954C35.6483 34.1467 37.8513 22.5947 38.0152 21.5898C38.2513 20.4265 38.374 19.2199 38.3719 17.986L38.3742 17.986Z" fill="white"/>
</mask>
<g mask="url(#mask0_1583_2262)">
<path d="M43.4699 26.8067L-2.61487 26.7327L-2.5878 43.6942L43.497 43.7683L43.4699 26.8067Z" fill="#0092CB"/>
<path d="M43.4557 9.80158L-2.62903 9.72754L-2.60196 26.6891L43.4828 26.7632L43.4557 9.80158Z" fill="#CDCDCD"/>
<path d="M43.4394 -7.20526L-2.64539 -7.2793L-2.61831 9.68228L43.4664 9.75632L43.4394 -7.20526Z" fill="#0092CB"/>
</g>
<path d="M38.3692 17.9818C38.354 8.08303 30.3066 0.0447094 20.3942 0.0294089C10.4818 0.0141083 2.46129 8.02762 2.47647 17.9264C2.49165 27.8252 10.5391 35.8635 20.4492 35.8788C20.5127 35.8789 20.5762 35.8745 20.6419 35.8746L17.485 41.1155L19.9131 41.1002C35.6416 34.1472 37.8457 22.5918 38.0097 21.5866C38.246 20.4229 38.3688 19.216 38.3669 17.9818L38.3692 17.9818Z" stroke="#002522" stroke-width="0.2" stroke-miterlimit="10" stroke-linejoin="round"/>
<path d="M14.4422 23.8343C15.4866 23.836 16.3318 22.992 16.3301 21.9491C16.3284 20.9062 15.4805 20.0595 14.4361 20.0578C13.3918 20.0561 12.5465 20.9001 12.5482 21.9429C12.5499 22.9858 13.3979 23.8326 14.4422 23.8343Z" fill="#3EB4F4"/>
<path d="M14.4351 16.8108C15.4795 16.8125 16.3247 15.9685 16.323 14.9257C16.3213 13.8828 15.4734 13.036 14.429 13.0343C13.3847 13.0326 12.5395 13.8767 12.5411 14.9195C12.5428 15.9624 13.3908 16.8091 14.4351 16.8108Z" fill="#3EB4F4"/>
<path d="M26.4125 23.8449C27.4568 23.8466 28.302 23.0025 28.3003 21.9596C28.2987 20.9167 27.4508 20.0699 26.4065 20.0682C25.3622 20.0665 24.517 20.9106 24.5186 21.9535C24.5203 22.9964 25.3682 23.8432 26.4125 23.8449Z" fill="#3EB4F4"/>
<path d="M26.4054 16.822C27.4497 16.8236 28.2949 15.9795 28.2933 14.9366C28.2916 13.8937 27.4437 13.0469 26.3994 13.0453C25.3551 13.0436 24.5099 13.8877 24.5115 14.9306C24.5132 15.9735 25.3611 16.8203 26.4054 16.822Z" fill="#3EB4F4"/>
<path d="M20.424 20.3278C21.4682 20.3295 22.3134 19.4852 22.3118 18.4422C22.3102 17.3992 21.4624 16.5524 20.4183 16.5508C19.3741 16.5492 18.5289 17.3934 18.5305 18.4364C18.5321 19.4794 19.3798 20.3262 20.424 20.3278Z" fill="#3EB4F4"/>
<mask id="mask1_1583_2262" style="mask-type:luminance" maskUnits="userSpaceOnUse" x="0" y="0" width="36" height="42">
<path d="M35.9342 17.9833C35.9174 8.08712 27.8662 0.0495618 17.9508 0.0326215C8.03533 0.0156813 0.0136113 8.02578 0.0303987 17.922C0.0471862 27.8182 8.0984 35.8557 18.0116 35.8727C18.0751 35.8728 18.1386 35.8684 18.2043 35.8685L17.4761 41.0927C33.2084 34.144 35.4114 22.592 35.5752 21.5871C35.8114 20.4238 35.9341 19.2172 35.932 17.9833L35.9342 17.9833Z" fill="white"/>
</mask>
<g mask="url(#mask1_1583_2262)">
<path d="M41.029 26.8059L-5.05579 26.7318L-5.02871 43.6934L41.056 43.7674L41.029 26.8059Z" fill="#00B7FF"/>
<path d="M41.0133 9.80121L-5.07141 9.72717L-5.04434 26.6888L41.0404 26.7628L41.0133 9.80121Z" fill="white"/>
<path d="M40.9985 -7.20611L-5.0863 -7.28015L-5.05923 9.68143L41.0255 9.75547L40.9985 -7.20611Z" fill="#00B7FF"/>
</g>
<path d="M35.9278 17.9801C35.9126 8.08132 27.8652 0.0430024 17.9528 0.0277012C8.04041 0.0123999 0.0198796 8.02591 0.0350638 17.9247C0.0502479 27.8235 8.09767 35.8618 18.0078 35.8771C18.0713 35.8772 18.1348 35.8727 18.2005 35.8728L17.4717 41.0985C33.2002 34.1454 35.4043 22.5901 35.5683 21.5849C35.8046 20.4212 35.9274 19.2143 35.9255 17.9801L35.9278 17.9801Z" stroke="#082422" stroke-width="0.2" stroke-miterlimit="10" stroke-linejoin="round"/>
<path d="M12.0053 23.8298C13.0495 23.8314 13.8948 22.9874 13.8931 21.9444C13.8915 20.9015 13.0435 20.0547 11.9993 20.0531C10.955 20.0514 10.1097 20.8955 10.1114 21.9384C10.1131 22.9813 10.961 23.8281 12.0053 23.8298Z" fill="#3EB4F4"/>
<path d="M11.9982 16.8068C13.0425 16.8085 13.8877 15.9644 13.886 14.9215C13.8844 13.8786 13.0365 13.0318 11.9922 13.0301C10.9479 13.0285 10.1027 13.8725 10.1043 14.9155C10.106 15.9584 10.9539 16.8052 11.9982 16.8068Z" fill="#3EB4F4"/>
<path d="M23.9742 23.8422C25.0185 23.8439 25.8638 22.9998 25.8621 21.9569C25.8604 20.914 25.0125 20.0672 23.9682 20.0655C22.924 20.0639 22.0787 20.9079 22.0804 21.9508C22.0821 22.9938 22.93 23.8406 23.9742 23.8422Z" fill="#3EB4F4"/>
<path d="M23.9672 16.8188C25.0115 16.8205 25.8567 15.9764 25.855 14.9335C25.8534 13.8906 25.0055 13.0438 23.9612 13.0421C22.9169 13.0404 22.0717 13.8845 22.0733 14.9274C22.075 15.9703 22.9229 16.8171 23.9672 16.8188Z" fill="#3EB4F4"/>
<path d="M17.9858 20.3247C19.03 20.3263 19.8752 19.4821 19.8736 18.439C19.872 17.396 19.0242 16.5492 17.98 16.5476C16.9358 16.546 16.0907 17.3902 16.0922 18.4332C16.0938 19.4762 16.9416 20.3231 17.9858 20.3247Z" fill="#3EB4F4"/>
</g>
<defs>
<clipPath id="clip0_1583_2262">
<rect width="38.4126" height="41.1503" fill="white"/>
</clipPath>
</defs>
</svg>
