<svg width="43" height="49" viewBox="0 0 43 49" fill="none" xmlns="http://www.w3.org/2000/svg">
<mask id="mask0_664_11838" style="mask-type:luminance" maskUnits="userSpaceOnUse" x="0" y="0" width="42" height="48">
<path d="M41.9167 21.2761C41.9167 9.96822 32.6226 0.799805 21.1571 0.799805C9.69161 0.799805 0.400146 9.96822 0.400146 21.2761C0.400146 32.584 9.69423 41.7524 21.1571 41.7524C21.2305 41.7524 21.304 41.7472 21.38 41.7472L20.5277 47.7181C38.733 39.7475 41.303 26.5433 41.4945 25.3946C41.7698 24.0649 41.9141 22.686 41.9141 21.2761H41.9167Z" fill="white"/>
</mask>
<g mask="url(#mask0_664_11838)">
<path d="M47.8239 31.3254H-5.50952V50.7333H47.8239V31.3254Z" fill="#00B7FF"/>
<path d="M47.8239 11.9146H-5.50952V31.3224H47.8239V11.9146Z" fill="white"/>
<path d="M47.8239 -7.49634H-5.50952V11.9115H47.8239V-7.49634Z" fill="#00B7FF"/>
</g>
<path d="M14.1874 27.9402C15.3953 27.9402 16.3745 26.9742 16.3745 25.7826C16.3745 24.591 15.3953 23.625 14.1874 23.625C12.9795 23.625 12.0002 24.591 12.0002 25.7826C12.0002 26.9742 12.9795 27.9402 14.1874 27.9402Z" fill="#3EB4F4"/>
<path d="M14.1872 19.915C15.3951 19.915 16.3743 18.949 16.3743 17.7574C16.3743 16.5658 15.3951 15.5999 14.1872 15.5999C12.9792 15.5999 12 16.5658 12 17.7574C12 18.949 12.9792 19.915 14.1872 19.915Z" fill="#3EB4F4"/>
<path d="M28.0499 27.9404C29.2579 27.9404 30.2371 26.9744 30.2371 25.7828C30.2371 24.5912 29.2579 23.6252 28.0499 23.6252C26.842 23.6252 25.8628 24.5912 25.8628 25.7828C25.8628 26.9744 26.842 27.9404 28.0499 27.9404Z" fill="#3EB4F4"/>
<path d="M28.0499 19.9153C29.2579 19.9153 30.2371 18.9493 30.2371 17.7577C30.2371 16.5661 29.2579 15.6001 28.0499 15.6001C26.842 15.6001 25.8628 16.5661 25.8628 17.7577C25.8628 18.9493 26.842 19.9153 28.0499 19.9153Z" fill="#3EB4F4"/>
<path d="M21.1185 23.9409C22.3265 23.9409 23.3057 22.9749 23.3057 21.7833C23.3057 20.5917 22.3265 19.6257 21.1185 19.6257C19.9106 19.6257 18.9314 20.5917 18.9314 21.7833C18.9314 22.9749 19.9106 23.9409 21.1185 23.9409Z" fill="#3EB4F4"/>
</svg>
