<svg width="43" height="49" viewBox="0 0 43 49" fill="none" xmlns="http://www.w3.org/2000/svg">
<g clip-path="url(#clip0_664_11833)">
<mask id="mask0_664_11833" style="mask-type:luminance" maskUnits="userSpaceOnUse" x="0" y="0" width="42" height="48">
<path d="M41.9165 21.2761C41.9165 9.96822 32.6224 0.799805 21.1569 0.799805C9.69137 0.799805 0.399902 9.96822 0.399902 21.2761C0.399902 32.584 9.69399 41.7524 21.1569 41.7524C21.2303 41.7524 21.3037 41.7472 21.3798 41.7472L20.5275 47.7181C38.7328 39.7475 41.3028 26.5433 41.4942 25.3946C41.7696 24.0649 41.9138 22.686 41.9138 21.2761H41.9165Z" fill="white"/>
</mask>
<g mask="url(#mask0_664_11833)">
<path d="M47.8242 31.3254H-5.50928V50.7333H47.8242V31.3254Z" fill="#00B7FF"/>
<path d="M47.8242 11.9146H-5.50928V31.3224H47.8242V11.9146Z" fill="white"/>
<path d="M47.8239 -7.49634H-5.50952V11.9115H47.8239V-7.49634Z" fill="#00B7FF"/>
</g>
<path d="M41.9165 21.2778C41.9165 9.96993 32.6224 0.801514 21.1569 0.801514C9.69136 0.801514 0.399902 9.96993 0.399902 21.2778C0.399902 32.5857 9.69399 41.7541 21.1569 41.7541C21.2303 41.7541 21.3037 41.7489 21.3798 41.7489L20.5275 47.7198C38.7328 39.7492 41.3028 26.545 41.4942 25.3964C41.7696 24.0666 41.9138 22.6877 41.9138 21.2778H41.9165Z" stroke="#082422" stroke-width="0.366895" stroke-miterlimit="10"/>
<path d="M14.1867 27.9402C15.3946 27.9402 16.3738 26.9742 16.3738 25.7826C16.3738 24.591 15.3946 23.625 14.1867 23.625C12.9787 23.625 11.9995 24.591 11.9995 25.7826C11.9995 26.9742 12.9787 27.9402 14.1867 27.9402Z" fill="#3EB4F4"/>
<path d="M14.1869 19.915C15.3948 19.915 16.3741 18.949 16.3741 17.7574C16.3741 16.5658 15.3948 15.5999 14.1869 15.5999C12.979 15.5999 11.9998 16.5658 11.9998 17.7574C11.9998 18.949 12.979 19.915 14.1869 19.915Z" fill="#3EB4F4"/>
<path d="M28.0492 27.9404C29.2571 27.9404 30.2364 26.9744 30.2364 25.7828C30.2364 24.5912 29.2571 23.6252 28.0492 23.6252C26.8413 23.6252 25.8621 24.5912 25.8621 25.7828C25.8621 26.9744 26.8413 27.9404 28.0492 27.9404Z" fill="#3EB4F4"/>
<path d="M28.0492 19.9153C29.2571 19.9153 30.2364 18.9493 30.2364 17.7577C30.2364 16.5661 29.2571 15.6001 28.0492 15.6001C26.8413 15.6001 25.8621 16.5661 25.8621 17.7577C25.8621 18.9493 26.8413 19.9153 28.0492 19.9153Z" fill="#3EB4F4"/>
<path d="M21.1181 23.9409C22.326 23.9409 23.3052 22.9749 23.3052 21.7833C23.3052 20.5917 22.326 19.6257 21.1181 19.6257C19.9101 19.6257 18.9309 20.5917 18.9309 21.7833C18.9309 22.9749 19.9101 23.9409 21.1181 23.9409Z" fill="#3EB4F4"/>
</g>
<defs>
<clipPath id="clip0_664_11833">
<rect width="42.4" height="48.4" fill="white"/>
</clipPath>
</defs>
</svg>
