<svg width="39" height="44" viewBox="0 0 39 44" fill="none" xmlns="http://www.w3.org/2000/svg">
<g clip-path="url(#clip0_1583_2268)">
<path d="M22.6003 38.0012C19.7331 40.0446 16.3078 42.0462 12.2498 43.7991L9.96948 41.8547C14.0274 40.1011 17.4529 38.1012 20.3201 36.0579L22.6003 38.0012ZM3.9353 33.8469C4.21321 34.0837 4.50418 34.306 4.80835 34.5139C6.76536 35.8525 9.2576 36.5849 12.1707 36.5247C12.2307 36.523 12.2917 36.5177 12.3542 36.5168L14.6345 38.4602C14.5719 38.4619 14.511 38.4672 14.4509 38.468C11.5379 38.5283 9.04562 37.7968 7.08862 36.4583C6.78435 36.2503 6.49273 36.0271 6.21558 35.7903L3.9353 33.8469ZM35.7253 23.5354C35.3575 24.3202 31.8685 31.3945 22.6033 37.9983L20.322 36.0549C29.5875 29.4519 33.0772 22.3769 33.4451 21.592L35.7253 23.5354ZM34.2576 4.61841C37.957 7.76516 39.287 13.385 37.2361 19.8557C36.8352 21.1134 36.3282 22.3463 35.7273 23.5364L33.446 21.592C34.0469 20.4021 34.5549 19.17 34.9558 17.9124C37.0068 11.4415 35.675 5.82177 31.9763 2.67505L34.2576 4.61841Z" fill="#FF003D"/>
<path d="M22.6003 38.0012L22.6584 38.0827C22.6835 38.0648 22.6989 38.0363 22.7002 38.0056C22.7016 37.9748 22.6887 37.9451 22.6652 37.9251L22.6003 38.0012ZM12.2498 43.7991L12.1849 43.8752C12.2139 43.8999 12.2544 43.906 12.2894 43.8909L12.2498 43.7991ZM9.96948 41.8547L9.92981 41.7629C9.89811 41.7766 9.87572 41.8057 9.87059 41.8399C9.86546 41.874 9.87832 41.9084 9.9046 41.9308L9.96948 41.8547ZM20.3201 36.0579L20.3849 35.9818C20.35 35.952 20.2994 35.9498 20.262 35.9764L20.3201 36.0579ZM3.9353 33.8469L4.00015 33.7708C3.95811 33.735 3.895 33.74 3.85919 33.7821C3.82337 33.8241 3.82841 33.8872 3.87044 33.923L3.9353 33.8469ZM4.80835 34.5139L4.86481 34.4314L4.86478 34.4314L4.80835 34.5139ZM12.1707 36.5247L12.1727 36.6246L12.1734 36.6246L12.1707 36.5247ZM12.3542 36.5168L12.4191 36.4407C12.4007 36.425 12.3772 36.4165 12.3529 36.4169L12.3542 36.5168ZM14.6345 38.4602L14.6372 38.5602C14.6786 38.5591 14.715 38.5326 14.7288 38.4935C14.7426 38.4545 14.7309 38.411 14.6994 38.3841L14.6345 38.4602ZM14.4509 38.468L14.4496 38.368L14.4489 38.368L14.4509 38.468ZM7.08862 36.4583L7.14508 36.3757L7.14505 36.3757L7.08862 36.4583ZM6.21558 35.7903L6.28054 35.7143L6.28044 35.7142L6.21558 35.7903ZM35.7253 23.5354L35.8159 23.5778C35.835 23.537 35.8245 23.4885 35.7902 23.4593L35.7253 23.5354ZM22.6033 37.9983L22.5384 38.0744C22.5733 38.1041 22.624 38.1063 22.6613 38.0797L22.6033 37.9983ZM20.322 36.0549L20.264 35.9735C20.2389 35.9914 20.2234 36.0198 20.2221 36.0506C20.2208 36.0814 20.2337 36.1111 20.2572 36.1311L20.322 36.0549ZM33.4451 21.592L33.5099 21.5159C33.4862 21.4957 33.4544 21.4877 33.4239 21.4943C33.3934 21.5009 33.3678 21.5214 33.3545 21.5496L33.4451 21.592ZM34.2576 4.61841L34.1927 4.69453L34.1928 4.69458L34.2576 4.61841ZM37.2361 19.8557L37.3314 19.8861L37.3314 19.8859L37.2361 19.8557ZM35.7273 23.5364L35.6624 23.6125C35.6858 23.6324 35.717 23.6405 35.747 23.6344C35.7771 23.6284 35.8027 23.6088 35.8166 23.5815L35.7273 23.5364ZM33.446 21.592L33.3568 21.547C33.336 21.5882 33.3461 21.6382 33.3812 21.6681L33.446 21.592ZM34.9558 17.9124L35.0511 17.9427L35.0511 17.9426L34.9558 17.9124ZM31.9763 2.67505L32.0411 2.59888C31.9991 2.5631 31.936 2.56818 31.9002 2.61023C31.8644 2.65227 31.8694 2.71537 31.9115 2.75117L31.9763 2.67505ZM22.6003 38.0012L22.5423 37.9198C19.6806 39.9592 16.2615 41.9573 12.2101 43.7073L12.2498 43.7991L12.2894 43.8909C16.3542 42.1351 19.7855 40.13 22.6584 38.0827L22.6003 38.0012ZM12.2498 43.7991L12.3146 43.723L10.0344 41.7786L9.96948 41.8547L9.9046 41.9308L12.1849 43.8752L12.2498 43.7991ZM9.96948 41.8547L10.0092 41.9465C14.0738 40.19 17.5053 38.1866 20.3781 36.1393L20.3201 36.0579L20.262 35.9764C17.4004 38.0158 13.9811 40.0122 9.92981 41.7629L9.96948 41.8547ZM20.3201 36.0579L20.2552 36.134L22.5355 38.0773L22.6003 38.0012L22.6652 37.9251L20.3849 35.9818L20.3201 36.0579ZM3.9353 33.8469L3.87045 33.923C4.15107 34.1621 4.44485 34.3866 4.75192 34.5965L4.80835 34.5139L4.86478 34.4314C4.56351 34.2254 4.27536 34.0053 4.00015 33.7708L3.9353 33.8469ZM4.80835 34.5139L4.75189 34.5965C6.72815 35.9482 9.24143 36.6853 12.1727 36.6246L12.1707 36.5247L12.1686 36.4247C9.27377 36.4845 6.80257 35.7568 4.86481 34.4314L4.80835 34.5139ZM12.1707 36.5247L12.1734 36.6246C12.2051 36.6237 12.2369 36.6219 12.2669 36.6203C12.2974 36.6187 12.3265 36.6172 12.3556 36.6168L12.3542 36.5168L12.3529 36.4169C12.3194 36.4173 12.2868 36.4189 12.2561 36.4206C12.2249 36.4223 12.1963 36.4239 12.1679 36.4247L12.1707 36.5247ZM12.3542 36.5168L12.2894 36.593L14.5697 38.5363L14.6345 38.4602L14.6994 38.3841L12.4191 36.4407L12.3542 36.5168ZM14.6345 38.4602L14.6319 38.3602C14.5989 38.3611 14.5665 38.363 14.5364 38.3646C14.5058 38.3662 14.4773 38.3676 14.4496 38.368L14.4509 38.468L14.4523 38.568C14.4846 38.5676 14.5166 38.5659 14.5471 38.5643C14.5782 38.5626 14.6075 38.561 14.6372 38.5602L14.6345 38.4602ZM14.4509 38.468L14.4489 38.368C11.554 38.4279 9.08281 37.7011 7.14508 36.3757L7.08862 36.4583L7.03217 36.5408C9.00843 37.8925 11.5218 38.6286 14.453 38.568L14.4509 38.468ZM7.08862 36.4583L7.14505 36.3757C6.84371 36.1697 6.55494 35.9488 6.28054 35.7143L6.21558 35.7903L6.15061 35.8663C6.43051 36.1055 6.72499 36.3308 7.0322 36.5408L7.08862 36.4583ZM6.21558 35.7903L6.28044 35.7142L4.00017 33.7708L3.9353 33.8469L3.87044 33.923L6.15071 35.8664L6.21558 35.7903ZM35.7253 23.5354L35.6348 23.493C35.2719 24.2673 31.7925 31.3259 22.5452 37.9169L22.6033 37.9983L22.6613 38.0797C31.9445 31.4632 35.4431 24.3732 35.8159 23.5778L35.7253 23.5354ZM22.6033 37.9983L22.6681 37.9222L20.3869 35.9788L20.322 36.0549L20.2572 36.1311L22.5384 38.0744L22.6033 37.9983ZM20.322 36.0549L20.3801 36.1364C29.6635 29.5206 33.1629 22.4298 33.5356 21.6345L33.4451 21.592L33.3545 21.5496C32.9916 22.3239 29.5115 29.3833 20.264 35.9735L20.322 36.0549ZM33.4451 21.592L33.3802 21.6681L35.6605 23.6115L35.7253 23.5354L35.7902 23.4593L33.5099 21.5159L33.4451 21.592ZM34.2576 4.61841L34.1928 4.69458C37.8528 7.80784 39.1834 13.3809 37.1408 19.8255L37.2361 19.8557L37.3314 19.8859C39.3907 13.389 38.0611 7.72248 34.3224 4.54224L34.2576 4.61841ZM37.2361 19.8557L37.1408 19.8253C36.7416 21.0778 36.2366 22.3059 35.638 23.4913L35.7273 23.5364L35.8166 23.5815C36.4198 22.3868 36.9288 21.149 37.3314 19.8861L37.2361 19.8557ZM35.7273 23.5364L35.7922 23.4603L33.5109 21.5159L33.446 21.592L33.3812 21.6681L35.6624 23.6125L35.7273 23.5364ZM33.446 21.592L33.5353 21.6371C34.1385 20.4426 34.6485 19.2056 35.0511 17.9427L34.9558 17.9124L34.8605 17.882C34.4613 19.1343 33.9554 20.3615 33.3568 21.547L33.446 21.592ZM34.9558 17.9124L35.0511 17.9426C37.1104 11.4455 35.7792 5.77908 32.0411 2.59888L31.9763 2.67505L31.9115 2.75121C35.5709 5.86446 36.9032 11.4375 34.8605 17.8821L34.9558 17.9124ZM31.9763 2.67505L31.9115 2.75117L34.1927 4.69453L34.2576 4.61841L34.3224 4.54229L32.0412 2.59893L31.9763 2.67505Z" fill="#082422"/>
<path d="M6.21584 35.7904L3.93506 33.8469C4.21306 34.0838 4.50377 34.3066 4.80804 34.5146L7.08882 36.4581C6.78455 36.2501 6.49299 36.0273 6.21584 35.7904Z" fill="#009464"/>
<path d="M12.3542 36.5165L14.6349 38.46C14.5722 38.4617 14.5112 38.4674 14.451 38.4683C11.538 38.5285 9.04614 37.7965 7.08913 36.4579L4.80835 34.5144C6.76536 35.853 9.25718 36.585 12.1702 36.5248C12.2304 36.5231 12.2914 36.5173 12.3542 36.5165Z" fill="#BFBBB8"/>
<path d="M20.3184 36.0576L22.5992 38.0011C19.7319 40.0445 16.3069 42.0458 12.2488 43.7986L9.96802 41.8551C14.0261 40.1014 17.4511 38.101 20.3184 36.0576Z" fill="#BFBBB8"/>
<path d="M37.2353 19.8561C36.8344 21.1138 36.3267 22.3459 35.7258 23.536L33.445 21.5925C34.0459 20.4024 34.5536 19.1703 34.9545 17.9126C37.0056 11.4416 35.6741 5.82156 31.9753 2.6748L34.2561 4.61832C37.9557 7.76507 39.2864 13.3852 37.2353 19.8561Z" fill="#970024"/>
<path d="M33.445 21.5923L35.7258 23.5358C35.3579 24.3206 31.8685 31.3948 22.603 37.9986L20.3223 36.0551C29.5878 29.4522 33.0772 22.3771 33.445 21.5923Z" fill="#970024"/>
<path fill-rule="evenodd" clip-rule="evenodd" d="M23.7466 0.00246142C26.6596 -0.0576739 29.1516 0.673415 31.1089 2.01223L31.5093 2.30031C35.5596 5.36267 37.0892 11.1755 34.9546 17.9116C34.5537 19.1693 34.0457 20.4014 33.4448 21.5913C33.077 22.3762 29.5873 29.4504 20.3218 36.0542L22.9741 27.6831L20.3198 36.0571C17.4525 38.1005 14.0273 40.1021 9.96924 41.855L12.354 36.5161C12.2914 36.5178 12.2305 36.5231 12.1704 36.5239C9.25736 36.5842 6.76512 35.8528 4.80811 34.5142C0.461955 31.5399 -1.24021 25.5682 0.963381 18.6138C3.16787 11.6593 8.702 5.53807 15.0044 2.34426C17.8403 0.907464 20.8327 0.0627061 23.7466 0.00246142ZM22.9458 19.3159C22.3149 20.5641 21.3644 21.6768 20.2622 22.5161C20.1775 22.5806 20.0918 22.6434 20.0054 22.7046C18.7944 23.5624 17.4227 24.0916 16.1011 24.1187C14.7048 24.1472 13.6102 23.6099 12.937 22.7046C13.6101 23.6107 14.705 24.1483 16.1021 24.1196L16.3862 24.105C19.0414 23.9086 21.8359 21.7574 23.0864 19.0259L22.9458 19.3159ZM12.3355 21.4351C12.4499 21.8684 12.6285 22.2617 12.8657 22.606C12.6283 22.2618 12.4501 21.8683 12.3355 21.4351ZM23.5952 17.5288C23.5512 17.726 23.4974 17.9265 23.4331 18.1294C23.3688 18.3323 23.2957 18.533 23.2144 18.731L23.3306 18.4321C23.367 18.332 23.401 18.2307 23.4331 18.1294C23.4973 17.9268 23.5513 17.7268 23.5952 17.5298V17.5288ZM23.6978 16.9478C23.8309 15.8995 23.6693 14.9595 23.2642 14.2075C23.6691 14.9596 23.831 15.8998 23.6978 16.9478ZM21.2954 12.5738C21.38 12.6015 21.4627 12.6316 21.5435 12.6646C21.4627 12.6316 21.38 12.6015 21.2954 12.5738ZM20.3589 12.3833C20.3739 12.3846 20.3889 12.3867 20.4038 12.3882C20.3889 12.3867 20.3739 12.3846 20.3589 12.3833Z" fill="#532811"/>
<path d="M23.7466 0.00246142L23.7445 -0.0975173L23.7445 -0.0975172L23.7466 0.00246142ZM31.1089 2.01223L31.1673 1.93103L31.1653 1.92969L31.1089 2.01223ZM31.5093 2.30031L31.5696 2.22052L31.5677 2.21914L31.5093 2.30031ZM34.9546 17.9116L35.0499 17.942L35.0499 17.9419L34.9546 17.9116ZM33.4448 21.5913L33.3555 21.5462L33.3543 21.5489L33.4448 21.5913ZM20.3218 36.0542L20.2264 36.024C20.2135 36.065 20.2281 36.1098 20.2629 36.1351C20.2977 36.1604 20.3448 36.1606 20.3798 36.1357L20.3218 36.0542ZM22.9741 27.6831L23.0695 27.7133C23.0861 27.6607 23.057 27.6045 23.0043 27.5878C22.9517 27.5711 22.8955 27.6003 22.8788 27.6529L22.9741 27.6831ZM20.3198 36.0571L20.3779 36.1386C20.3955 36.126 20.4086 36.108 20.4152 36.0874L20.3198 36.0571ZM9.96924 41.855L9.87794 41.8142C9.86112 41.8519 9.86913 41.8959 9.89809 41.9253C9.92706 41.9546 9.97105 41.9631 10.0089 41.9468L9.96924 41.855ZM12.354 36.5161L12.4453 36.5569C12.4593 36.5256 12.4563 36.4892 12.4372 36.4606C12.4181 36.432 12.3857 36.4153 12.3514 36.4162L12.354 36.5161ZM12.1704 36.5239L12.169 36.424L12.1683 36.424L12.1704 36.5239ZM4.80811 34.5142L4.75163 34.5967L4.75165 34.5967L4.80811 34.5142ZM0.963381 18.6138L0.868056 18.5836L0.868052 18.5836L0.963381 18.6138ZM15.0044 2.34426L14.9592 2.25505L14.9592 2.25506L15.0044 2.34426ZM22.9458 19.3159L23.0351 19.3611L23.0358 19.3596L22.9458 19.3159ZM20.2622 22.5161L20.3228 22.5957L20.3228 22.5957L20.2622 22.5161ZM20.0054 22.7046L19.9476 22.623L19.9476 22.623L20.0054 22.7046ZM16.1011 24.1187L16.1031 24.2187H16.1031L16.1011 24.1187ZM12.937 22.7046L13.0173 22.6449C12.9843 22.6006 12.9217 22.5914 12.8774 22.6243C12.833 22.6573 12.8238 22.7199 12.8567 22.7642L12.937 22.7046ZM16.1021 24.1196L16.1041 24.2197L16.1072 24.2195L16.1021 24.1196ZM16.3862 24.105L16.3914 24.2049L16.3936 24.2047L16.3862 24.105ZM23.0864 19.0259L23.1774 19.0675C23.2002 19.0177 23.1786 18.9588 23.1291 18.9354C23.0795 18.9121 23.0204 18.933 22.9964 18.9823L23.0864 19.0259ZM12.3355 21.4351L12.4321 21.4095C12.418 21.3561 12.3633 21.3243 12.3099 21.3384C12.2565 21.3525 12.2247 21.4072 12.2388 21.4606L12.3355 21.4351ZM12.8657 22.606L12.7834 22.6628C12.8148 22.7082 12.877 22.7197 12.9225 22.6883C12.9679 22.657 12.9794 22.5947 12.9481 22.5492L12.8657 22.606ZM23.5952 17.5288H23.6952C23.6952 17.4778 23.6568 17.435 23.6062 17.4294C23.5555 17.4238 23.5087 17.4573 23.4976 17.5071L23.5952 17.5288ZM23.2144 18.731L23.1212 18.6947C23.1013 18.7459 23.1263 18.8035 23.1772 18.8238C23.2282 18.8442 23.286 18.8197 23.3069 18.769L23.2144 18.731ZM23.3306 18.4321L23.4238 18.4684L23.4245 18.4663L23.3306 18.4321ZM23.5952 17.5298L23.6928 17.5516C23.6944 17.5444 23.6952 17.5371 23.6952 17.5298H23.5952ZM23.6978 16.9478L23.5986 16.9352C23.5916 16.99 23.6304 17.04 23.6851 17.047C23.7399 17.0539 23.79 17.0152 23.797 16.9604L23.6978 16.9478ZM23.2642 14.2075L23.3522 14.1601C23.326 14.1115 23.2654 14.0933 23.2167 14.1195C23.1681 14.1457 23.1499 14.2063 23.1761 14.2549L23.2642 14.2075ZM21.2954 12.5738L21.3266 12.4787C21.2741 12.4615 21.2176 12.4901 21.2004 12.5426C21.1832 12.5951 21.2118 12.6516 21.2643 12.6688L21.2954 12.5738ZM21.5435 12.6646L21.5057 12.7572C21.5568 12.778 21.6152 12.7535 21.636 12.7024C21.6569 12.6512 21.6324 12.5929 21.5813 12.572L21.5435 12.6646ZM20.3589 12.3833L20.3676 12.2837C20.3126 12.2789 20.2641 12.3196 20.2593 12.3746C20.2544 12.4296 20.2951 12.4781 20.3501 12.4829L20.3589 12.3833ZM20.4038 12.3882L20.3941 12.4877C20.4491 12.4931 20.498 12.4529 20.5033 12.3979C20.5087 12.343 20.4685 12.294 20.4135 12.2887L20.4038 12.3882ZM23.7466 0.00246142L23.7486 0.10244C26.6435 0.0426806 29.1144 0.769135 31.0524 2.09477L31.1089 2.01223L31.1653 1.92969C29.1888 0.577694 26.6757 -0.158028 23.7445 -0.0975173L23.7466 0.00246142ZM31.1089 2.01223L31.0505 2.0934L31.4509 2.38149L31.5093 2.30031L31.5677 2.21914L31.1673 1.93105L31.1089 2.01223ZM31.5093 2.30031L31.449 2.38008C35.4557 5.40946 36.9852 11.1726 34.8593 17.8814L34.9546 17.9116L35.0499 17.9419C37.1932 11.1785 35.6635 5.31588 31.5696 2.22055L31.5093 2.30031ZM34.9546 17.9116L34.8593 17.8813C34.4601 19.1336 33.9541 20.3608 33.3556 21.5463L33.4448 21.5913L33.5341 21.6364C34.1372 20.4419 34.6473 19.2049 35.0499 17.942L34.9546 17.9116ZM33.4448 21.5913L33.3543 21.5489C32.9914 22.3232 29.5113 29.3818 20.2637 35.9728L20.3218 36.0542L20.3798 36.1357C29.6633 29.519 33.1626 22.4291 33.5354 21.6338L33.4448 21.5913ZM20.3218 36.0542L20.4171 36.0844L23.0695 27.7133L22.9741 27.6831L22.8788 27.6529L20.2264 36.024L20.3218 36.0542ZM22.9741 27.6831L22.8788 27.6529L20.2245 36.0269L20.3198 36.0571L20.4152 36.0874L23.0694 27.7133L22.9741 27.6831ZM20.3198 36.0571L20.2618 35.9757C17.4001 38.0151 13.981 40.0132 9.92959 41.7632L9.96924 41.855L10.0089 41.9468C14.0737 40.191 17.505 38.1859 20.3779 36.1386L20.3198 36.0571ZM9.96924 41.855L10.0605 41.8958L12.4453 36.5569L12.354 36.5161L12.2627 36.4753L9.87794 41.8142L9.96924 41.855ZM12.354 36.5161L12.3514 36.4162C12.3184 36.417 12.286 36.4189 12.2559 36.4205C12.2253 36.4221 12.1968 36.4236 12.169 36.424L12.1704 36.5239L12.1718 36.6239C12.2041 36.6235 12.2361 36.6218 12.2666 36.6202C12.2977 36.6185 12.327 36.6169 12.3566 36.6161L12.354 36.5161ZM12.1704 36.5239L12.1683 36.424C9.2735 36.4838 6.80231 35.757 4.86456 34.4316L4.80811 34.5142L4.75165 34.5967C6.72793 35.9485 9.24121 36.6845 12.1725 36.6239L12.1704 36.5239ZM4.80811 34.5142L4.86458 34.4317C0.56561 31.4896 -1.13598 25.5704 1.05871 18.644L0.963381 18.6138L0.868052 18.5836C-1.34444 25.5661 0.358299 31.5901 4.75163 34.5967L4.80811 34.5142ZM0.963381 18.6138L1.05871 18.644C3.25448 11.717 8.76931 5.61607 15.0496 2.43346L15.0044 2.34426L14.9592 2.25506C8.63469 5.46007 3.08126 11.6016 0.868056 18.5836L0.963381 18.6138ZM15.0044 2.34426L15.0496 2.43346C17.8747 1.00214 20.8524 0.16232 23.7487 0.10244L23.7466 0.00246142L23.7445 -0.0975172C20.813 -0.0369074 17.8059 0.812791 14.9592 2.25505L15.0044 2.34426ZM22.9458 19.3159L22.8566 19.2708C22.2329 20.5048 21.2924 21.6059 20.2016 22.4366L20.2622 22.5161L20.3228 22.5957C21.4363 21.7477 22.397 20.6235 23.0351 19.361L22.9458 19.3159ZM20.2622 22.5161L20.2016 22.4366C20.1179 22.5003 20.0331 22.5624 19.9476 22.623L20.0054 22.7046L20.0632 22.7862C20.1505 22.7244 20.2371 22.6609 20.3228 22.5957L20.2622 22.5161ZM20.0054 22.7046L19.9476 22.623C18.7487 23.4722 17.3961 23.9921 16.099 24.0187L16.1011 24.1187L16.1031 24.2187C17.4493 24.1911 18.84 23.6526 20.0632 22.7862L20.0054 22.7046ZM16.1011 24.1187L16.099 24.0187C14.7311 24.0467 13.6688 23.5212 13.0173 22.6449L12.937 22.7046L12.8568 22.7643C13.5515 23.6985 14.6784 24.2478 16.1031 24.2187L16.1011 24.1187ZM12.937 22.7046L12.8567 22.7642C13.5514 23.6994 14.6786 24.2488 16.1041 24.2196L16.1021 24.1196L16.1 24.0197C14.7313 24.0477 13.6688 23.5221 13.0173 22.645L12.937 22.7046ZM16.1021 24.1196L16.1072 24.2195L16.3914 24.2049L16.3862 24.105L16.3811 24.0051L16.0969 24.0198L16.1021 24.1196ZM16.3862 24.105L16.3936 24.2047C19.0916 24.0051 21.9145 21.8258 23.1774 19.0675L23.0864 19.0259L22.9955 18.9843C21.7573 21.6889 18.9912 23.812 16.3789 24.0053L16.3862 24.105ZM23.0864 19.0259L22.9964 18.9823L22.8558 19.2723L22.9458 19.3159L23.0358 19.3596L23.1764 19.0695L23.0864 19.0259ZM12.3355 21.4351L12.2388 21.4606C12.356 21.9043 12.5392 22.3084 12.7834 22.6627L12.8657 22.606L12.9481 22.5492C12.7178 22.2151 12.5439 21.8324 12.4321 21.4095L12.3355 21.4351ZM12.8657 22.606L12.948 22.5492C12.7176 22.2152 12.544 21.8324 12.4321 21.4095L12.3355 21.4351L12.2388 21.4607C12.3562 21.9042 12.539 22.3084 12.7834 22.6628L12.8657 22.606ZM23.5952 17.5288L23.4976 17.5071C23.4543 17.7014 23.4012 17.8991 23.3378 18.0992L23.4331 18.1294L23.5284 18.1596C23.5936 17.954 23.6482 17.7507 23.6928 17.5506L23.5952 17.5288ZM23.4331 18.1294L23.3378 18.0992C23.2743 18.2994 23.2021 18.4975 23.1219 18.693L23.2144 18.731L23.3069 18.769C23.3892 18.5685 23.4633 18.3652 23.5284 18.1596L23.4331 18.1294ZM23.2144 18.731L23.3076 18.7672L23.4238 18.4684L23.3306 18.4321L23.2374 18.3959L23.1212 18.6947L23.2144 18.731ZM23.3306 18.4321L23.4245 18.4663C23.4615 18.3646 23.496 18.262 23.5284 18.1596L23.4331 18.1294L23.3378 18.0992C23.306 18.1995 23.2725 18.2994 23.2366 18.398L23.3306 18.4321ZM23.4331 18.1294L23.5284 18.1596C23.5935 17.9543 23.6482 17.7515 23.6928 17.5516L23.5952 17.5298L23.4976 17.508C23.4544 17.7021 23.4012 17.8992 23.3378 18.0992L23.4331 18.1294ZM23.5952 17.5298H23.6952V17.5288H23.5952H23.4952V17.5298H23.5952ZM23.6978 16.9478L23.797 16.9604C23.9323 15.8949 23.7687 14.9332 23.3522 14.1601L23.2642 14.2075L23.1761 14.255C23.5699 14.9858 23.7295 15.9042 23.5986 16.9352L23.6978 16.9478ZM23.2642 14.2075L23.1761 14.2549C23.5697 14.9858 23.7296 15.9045 23.5986 16.9352L23.6978 16.9478L23.797 16.9604C23.9324 15.8951 23.7685 14.9333 23.3522 14.1601L23.2642 14.2075ZM21.2954 12.5738L21.2643 12.6688C21.3468 12.6958 21.4273 12.7251 21.5057 12.7571L21.5435 12.6646L21.5813 12.572C21.4981 12.538 21.4132 12.5071 21.3266 12.4787L21.2954 12.5738ZM21.5435 12.6646L21.5812 12.572C21.4981 12.5381 21.4132 12.5071 21.3266 12.4787L21.2954 12.5738L21.2643 12.6688C21.3468 12.6958 21.4273 12.7252 21.5057 12.7572L21.5435 12.6646ZM20.3589 12.3833L20.3501 12.4829C20.3693 12.4846 20.3687 12.4853 20.3941 12.4877L20.4038 12.3882L20.4135 12.2887C20.409 12.2882 20.3785 12.2847 20.3676 12.2837L20.3589 12.3833ZM20.4038 12.3882L20.4135 12.2887C20.4092 12.2883 20.3784 12.2846 20.3676 12.2837L20.3589 12.3833L20.3502 12.4829C20.3694 12.4846 20.3686 12.4852 20.3941 12.4877L20.4038 12.3882Z" fill="#082422"/>
<path d="M15.0043 2.34448L4.80818 34.5143C0.461899 31.54 -1.24084 25.5684 0.962806 18.6138C3.1673 11.6593 8.70186 5.53828 15.0043 2.34448Z" fill="#009464"/>
<path d="M31.1115 2.01399L20.3195 36.0572C17.4522 38.1006 14.0272 40.1018 9.96913 41.8547L12.3542 36.516C12.2914 36.5177 12.2304 36.5235 12.1702 36.5243C9.25718 36.5845 6.76536 35.8525 4.80835 34.5139L15.0045 2.3441C17.8404 0.907302 20.8323 0.0622259 23.7462 0.00198117C26.6609 -0.0582635 29.1544 0.673751 31.1123 2.01399H31.1115ZM16.1021 24.1188C19.1228 24.0561 22.4045 21.3756 23.4334 18.1299C24.4624 14.8841 22.8469 12.3043 19.8271 12.367C16.8064 12.4297 13.5246 15.1102 12.4957 18.356C11.4668 21.6018 13.0814 24.1816 16.1021 24.1197" fill="white"/>
<path d="M31.1091 2.01245C35.4571 4.98837 37.1582 10.9584 34.9545 17.9121C34.5536 19.1698 34.0459 20.4019 33.445 21.592C33.0772 22.3768 29.5878 29.451 20.3223 36.0548L31.1091 2.01245Z" fill="#FF003D"/>
<path d="M19.8264 12.3661C22.8471 12.3034 24.4617 14.884 23.4327 18.129C22.4038 21.3748 19.122 24.0561 16.1013 24.118C13.0807 24.1798 11.4661 21.6001 12.495 18.3543C13.5231 15.1093 16.8057 12.428 19.8264 12.3653V12.3661Z" fill="#532811"/>
</g>
<defs>
<clipPath id="clip0_1583_2268">
<rect width="38.2" height="43.8" fill="white"/>
</clipPath>
</defs>
</svg>
