<svg width="44" height="49" viewBox="0 0 44 49" fill="none" xmlns="http://www.w3.org/2000/svg">
<mask id="mask0_664_11843" style="mask-type:luminance" maskUnits="userSpaceOnUse" x="0" y="1" width="43" height="47">
<path d="M42.3168 21.4763C42.3168 10.1684 33.0228 1 21.5573 1C10.0918 1 0.800293 10.1684 0.800293 21.4763C0.800293 32.7842 10.0944 41.9526 21.5573 41.9526C21.6307 41.9526 21.7041 41.9474 21.7802 41.9474L20.9279 47.9183C39.1331 39.9477 41.7032 26.7435 41.8946 25.5948C42.17 24.2651 42.3142 22.8862 42.3142 21.4763H42.3168Z" fill="white"/>
</mask>
<g mask="url(#mask0_664_11843)">
<path d="M11.7242 -2.61182H-7.94971V50.0005H11.7242V-2.61182Z" fill="#009464"/>
<path d="M31.399 -2.6123H11.7251V50H31.399V-2.6123Z" fill="white"/>
<path d="M51.074 -2.6123H31.4001V50H51.074V-2.6123Z" fill="#FF003D"/>
</g>
<path d="M21.5594 28.0526C25.2483 28.0526 28.2388 25.1025 28.2388 21.4634C28.2388 17.8243 25.2483 14.8743 21.5594 14.8743C17.8704 14.8743 14.8799 17.8243 14.8799 21.4634C14.8799 25.1025 17.8704 28.0526 21.5594 28.0526Z" fill="#532811"/>
</svg>
