<svg width="40" height="44" viewBox="0 0 40 44" fill="none" xmlns="http://www.w3.org/2000/svg">
<g clip-path="url(#clip0_1583_2270)">
<mask id="mask0_1583_2270" style="mask-type:luminance" maskUnits="userSpaceOnUse" x="2" y="1" width="38" height="43">
<path d="M39.3454 19.6677C39.3637 9.56876 31.1816 1.39536 21.0696 1.41365C10.9576 1.43195 2.74825 9.63501 2.72998 19.734C2.71171 29.833 10.8938 38.0064 21.0035 37.9881C21.0682 37.988 21.133 37.9832 21.2001 37.9831L18.3488 42.4554L20.3819 43.3532C36.4509 36.2056 38.7957 24.3728 38.9664 23.3467C39.2114 22.1586 39.3408 20.9269 39.3431 19.6677L39.3454 19.6677Z" fill="white" stroke="white" stroke-width="0.2" stroke-linejoin="round"/>
</mask>
<g mask="url(#mask0_1583_2270)">
<path d="M12.4051 -1.82863L-4.95044 -1.79895L-5.03075 45.196L12.3248 45.1663L12.4051 -1.82863Z" fill="#970024"/>
<path d="M29.7491 -1.8484L12.3936 -1.81873L12.3132 45.1762L29.6688 45.1465L29.7491 -1.8484Z" fill="#D8D8D8"/>
<path d="M47.0916 -1.86747L27.7332 -1.83395L27.6185 36.763L33.327 40.9124L47.0103 45.1267L47.0916 -1.86747Z" fill="#970024"/>
</g>
<path d="M39.4753 19.6998C39.493 9.60063 31.3106 1.42657 21.1988 1.44427C11.0871 1.46197 2.87837 9.66472 2.8607 19.7639C2.84303 29.8631 11.0254 38.0371 21.1349 38.0194C21.1996 38.0193 21.2644 38.0146 21.3315 38.0145L18.3819 42.5113L20.404 43.3996C36.4722 36.2528 38.9259 24.4049 39.0965 23.3788C39.3414 22.1907 39.4708 20.959 39.473 19.6998L39.4753 19.6998Z" stroke="#082422" stroke-width="0.2" stroke-miterlimit="10" stroke-linejoin="round"/>
<path d="M21.0201 25.562C24.2733 25.5565 26.9149 22.9174 26.9203 19.6672C26.9257 16.4171 24.2929 13.7868 21.0397 13.7922C17.7865 13.7976 15.1449 16.4368 15.1395 19.6869C15.1341 22.937 17.7669 25.5674 21.0201 25.562Z" fill="#519400" stroke="#082422" stroke-width="0.2" stroke-linejoin="round"/>
<mask id="mask1_1583_2270" style="mask-type:luminance" maskUnits="userSpaceOnUse" x="0" y="0" width="38" height="43">
<path d="M37.2504 18.7798C37.2713 8.68086 29.0914 0.505291 18.9794 0.520913C8.86744 0.536535 0.655874 8.73743 0.634935 18.8364C0.613996 28.9354 8.79392 37.111 18.9036 37.0953C18.9683 37.0952 19.0331 37.0905 19.1002 37.0904L18.3374 42.4241C34.4083 35.2808 36.6994 23.4848 36.8704 22.4587C37.1157 21.2707 37.2455 20.039 37.2481 18.7798L37.2504 18.7798Z" fill="white" stroke="white" stroke-width="0.2" stroke-linejoin="round"/>
</mask>
<g mask="url(#mask1_1583_2270)">
<path d="M15.4327 -2.72886L-7.03394 -2.69641L-7.15394 58.1408L15.3127 58.1083L15.4327 -2.72886Z" fill="#009464"/>
<path d="M27.6651 -2.7393L10.3096 -2.71423L10.2169 44.2807L27.5724 44.2556L27.6651 -2.7393Z" fill="white"/>
<path d="M45.0065 -2.75444L27.6509 -2.72937L27.5582 44.2656L44.9138 44.2405L45.0065 -2.75444Z" fill="#FF003D"/>
</g>
<path d="M37.2476 18.7796C37.2679 8.68039 29.0877 0.504166 18.9759 0.519189C8.8642 0.534212 0.653309 8.73479 0.63297 18.834C0.612631 28.9331 8.79285 37.1094 18.9023 37.0943C18.967 37.0943 19.0318 37.0895 19.0989 37.0894L18.3365 42.4232C34.4066 35.2807 36.6969 23.4845 36.8678 22.4584C37.113 21.2705 37.2427 20.0388 37.2453 18.7796L37.2476 18.7796Z" stroke="#082422" stroke-width="0.2" stroke-miterlimit="10" stroke-linejoin="round"/>
<path d="M18.9208 24.6689C22.174 24.6643 24.8163 22.0258 24.8225 18.7757C24.8288 15.5256 22.1967 12.8945 18.9435 12.8991C15.6903 12.9036 13.048 15.5421 13.0417 18.7922C13.0355 22.0424 15.6676 24.6734 18.9208 24.6689Z" fill="#532811"/>
</g>
<defs>
<clipPath id="clip0_1583_2270">
<rect width="40" height="43.8" fill="white"/>
</clipPath>
</defs>
</svg>
