<svg width="42" height="46" viewBox="0 0 42 46" fill="none" xmlns="http://www.w3.org/2000/svg">
<g clip-path="url(#clip0_1583_2273)">
<mask id="mask0_1583_2273" style="mask-type:luminance" maskUnits="userSpaceOnUse" x="3" y="1" width="38" height="44">
<path d="M40.7231 20.155C40.7231 9.63248 32.3091 1.10083 21.9293 1.10083C11.5495 1.10083 3.13782 9.63248 3.13782 20.155C3.13782 30.6775 11.5518 39.2092 21.9293 39.2092C21.9958 39.2092 22.0623 39.2044 22.1311 39.2044L19.2247 44.7606H21.3595C37.8409 37.3435 40.1676 25.0564 40.3409 23.9875C40.5902 22.7501 40.7208 21.467 40.7208 20.155H40.7231Z" fill="white"/>
</mask>
<g mask="url(#mask0_1583_2273)">
<path d="M46.0729 11.4382L-2.21045 11.4382L-2.21045 29.4982L46.0729 29.4982L46.0729 11.4382Z" fill="#EAEAEA"/>
<path d="M46.0729 45.6435L46.0729 32.3643L37.1076 27.6031L-2.21045 27.5835L-2.21045 45.6435L46.0729 45.6435Z" fill="#004687"/>
<path d="M46.0726 -4.71021L-2.21069 -4.71021L-2.21069 13.3497L37.3426 13.3497L46.0726 18.1305L46.0726 -4.71021Z" fill="#004687"/>
</g>
<path d="M40.7233 20.155C40.7233 9.63248 32.3093 1.10083 21.9294 1.10083C11.5496 1.10083 3.13794 9.63248 3.13794 20.155C3.13794 30.6775 11.552 39.2092 21.9294 39.2092C21.9959 39.2092 22.0624 39.2044 22.1312 39.2044L19.3424 44.7606H21.3596C37.841 37.3435 40.1677 25.0564 40.341 23.9875C40.5903 22.7501 40.7209 21.467 40.7209 20.155H40.7233Z" stroke="#082422" stroke-width="0.2" stroke-miterlimit="10" stroke-linejoin="round"/>
<ellipse cx="21.9329" cy="20.4313" rx="5.88235" ry="5.97596" stroke="#FFDD3F" stroke-width="0.2" stroke-linejoin="round"/>
<path d="M19.0289 21.1998L21.1311 17.8251C21.483 17.2601 22.3039 17.256 22.6615 17.8173L24.8114 21.192C25.195 21.7941 24.7625 22.5824 24.0486 22.5824H19.7966C19.0869 22.5824 18.6537 21.8022 19.0289 21.1998Z" fill="#02B55B"/>
<mask id="mask1_1583_2273" style="mask-type:luminance" maskUnits="userSpaceOnUse" x="1" y="1" width="38" height="44">
<path d="M38.609 20.1553C38.609 9.63273 30.195 1.10107 19.8152 1.10107C9.43533 1.10107 1.02368 9.63273 1.02368 20.1553C1.02368 30.6778 9.43771 39.2094 19.8152 39.2094C19.8816 39.2094 19.9481 39.2046 20.017 39.2046L19.2454 44.7608C35.7268 37.3437 38.0535 25.0566 38.2268 23.9878C38.4761 22.7504 38.6066 21.4673 38.6066 20.1553L38.609 20.1553Z" fill="white"/>
</mask>
<g mask="url(#mask1_1583_2273)">
<path d="M43.9588 11.4397L-4.32446 11.4397L-4.32446 29.4996L43.9588 29.4996L43.9588 11.4397Z" fill="white"/>
<path d="M43.9588 27.585L-4.32446 27.585L-4.32446 45.6449L43.9588 45.6449L43.9588 27.585Z" fill="#0067C6"/>
<path d="M43.9588 -4.70825L-4.32446 -4.70825L-4.32446 13.3517L43.9588 13.3517L43.9588 -4.70825Z" fill="#0067C6"/>
</g>
<path d="M38.609 20.1553C38.609 9.63273 30.195 1.10107 19.8152 1.10107C9.43533 1.10107 1.02368 9.63273 1.02368 20.1553C1.02368 30.6778 9.43771 39.2094 19.8152 39.2094C19.8816 39.2094 19.9481 39.2046 20.017 39.2046L19.2454 44.7608C35.7268 37.3438 38.0535 25.0566 38.2268 23.9878C38.4761 22.7504 38.6066 21.4673 38.6066 20.1553L38.609 20.1553Z" stroke="#082422" stroke-width="0.2" stroke-miterlimit="10" stroke-linejoin="round"/>
<path d="M24.098 20.4325C24.098 17.9919 22.1571 16.0566 19.8158 16.0565C17.4744 16.0565 15.5333 17.9918 15.5333 20.4325C15.5334 22.8732 17.4744 24.8085 19.8158 24.8085L19.8158 26.4085L19.6638 26.4065C16.5358 26.326 14.0146 23.7646 13.9353 20.5868L13.9333 20.4325C13.9333 17.1321 16.567 14.4565 19.8158 14.4565L19.9675 14.4585C23.1461 14.5403 25.698 17.1837 25.698 20.4325L25.696 20.5868C25.6155 23.8159 23.0137 26.4085 19.8158 26.4085L19.8158 24.8085C22.1571 24.8085 24.098 22.8732 24.098 20.4325Z" fill="#FFDD3F"/>
<path d="M16.9118 21.201L19.0139 17.8263C19.3658 17.2614 20.1867 17.2572 20.5443 17.8185L22.6942 21.1933C23.0778 21.7953 22.6453 22.5836 21.9314 22.5836L17.6794 22.5836C16.9697 22.5836 16.5365 21.8035 16.9118 21.201Z" fill="#02B55B"/>
</g>
<defs>
<clipPath id="clip0_1583_2273">
<rect width="41.8" height="45.6" fill="white"/>
</clipPath>
</defs>
</svg>
