<svg width="44" height="49" viewBox="0 0 44 49" fill="none" xmlns="http://www.w3.org/2000/svg">
<mask id="mask0_664_11841" style="mask-type:luminance" maskUnits="userSpaceOnUse" x="0" y="0" width="43" height="48">
<path d="M42.3185 21.0764C42.3185 9.76825 33.0243 0.599609 21.5587 0.599609C10.0931 0.599609 0.801514 9.76825 0.801514 21.0764C0.801514 32.3846 10.0957 41.5532 21.5587 41.5532C21.6321 41.5532 21.7056 41.548 21.7816 41.548L20.9293 47.519C39.1348 39.5482 41.7048 26.3437 41.8963 25.195C42.1716 23.8653 42.3159 22.4864 42.3159 21.0764H42.3185Z" fill="white"/>
</mask>
<g mask="url(#mask0_664_11841)">
<path d="M48.2244 11.7068H-5.10962V31.1151H48.2244V11.7068Z" fill="white"/>
<path d="M48.2244 29.0562H-5.10962V48.4645H48.2244V29.0562Z" fill="#0067C6"/>
<path d="M48.2244 -5.6499H-5.10962V13.7584H48.2244V-5.6499Z" fill="#0067C6"/>
</g>
<path d="M42.3173 21.0781C42.3173 9.76996 33.0231 0.601318 21.5575 0.601318C10.0919 0.601318 0.800293 9.76996 0.800293 21.0781C0.800293 32.3863 10.0945 41.5549 21.5575 41.5549C21.6309 41.5549 21.7043 41.5497 21.7804 41.5497L20.9281 47.5207C39.1335 39.5499 41.7036 26.3454 41.8951 25.1968C42.1704 23.867 42.3146 22.4881 42.3146 21.0781H42.3173Z" stroke="#082422" stroke-width="0.366959" stroke-miterlimit="10"/>
<path d="M21.5596 15.5361C24.8308 15.5363 27.4706 18.1554 27.4707 21.3721C27.4707 24.5888 24.8309 27.2088 21.5596 27.209C18.2881 27.209 15.6475 24.5889 15.6475 21.3721C15.6476 18.1553 18.2881 15.5361 21.5596 15.5361Z" stroke="#FFDD3F" stroke-width="1.17166"/>
<path d="M17.9765 22.787L21.0231 18.0286C21.2522 17.6708 21.7739 17.6681 22.0066 18.0235L25.1225 22.782C25.3776 23.1716 25.0981 23.6887 24.6323 23.6887H18.4699C18.0069 23.6887 17.7268 23.1769 17.9765 22.787Z" fill="#02B55B"/>
</svg>
