<svg width="44" height="49" viewBox="0 0 44 49" fill="none" xmlns="http://www.w3.org/2000/svg">
<mask id="mask0_664_11836" style="mask-type:luminance" maskUnits="userSpaceOnUse" x="0" y="0" width="43" height="48">
<path d="M42.3183 21.0764C42.3183 9.76825 33.0241 0.599609 21.5585 0.599609C10.0928 0.599609 0.80127 9.76825 0.80127 21.0764C0.80127 32.3846 10.0955 41.5532 21.5585 41.5532C21.6319 41.5532 21.7053 41.548 21.7814 41.548L20.929 47.519C39.1345 39.5482 41.7046 26.3437 41.896 25.195C42.1714 23.8653 42.3156 22.4864 42.3156 21.0764H42.3183Z" fill="white"/>
</mask>
<g mask="url(#mask0_664_11836)">
<path d="M48.2242 11.7068H-5.10986V31.1151H48.2242V11.7068Z" fill="white"/>
<path d="M48.2242 29.0562H-5.10986V48.4645H48.2242V29.0562Z" fill="#0067C6"/>
<path d="M48.2242 -5.6499H-5.10986V13.7584H48.2242V-5.6499Z" fill="#0067C6"/>
</g>
<path d="M21.5596 15.5361C24.8308 15.5363 27.4706 18.1554 27.4707 21.3721C27.4707 24.5888 24.8309 27.2088 21.5596 27.209C18.2881 27.209 15.6475 24.5889 15.6475 21.3721C15.6476 18.1553 18.2881 15.5361 21.5596 15.5361Z" stroke="#FFDD3F" stroke-width="1.17166"/>
<path d="M17.9763 22.787L21.0229 18.0286C21.2519 17.6708 21.7736 17.6681 22.0064 18.0235L25.1222 22.782C25.3773 23.1716 25.0978 23.6887 24.6321 23.6887H18.4696C18.0066 23.6887 17.7266 23.1769 17.9763 22.787Z" fill="#02B55B"/>
</svg>
