<svg width="61" height="51" viewBox="0 0 61 51" fill="none" xmlns="http://www.w3.org/2000/svg">
<mask id="mask0_1583_2269" style="mask-type:luminance" maskUnits="userSpaceOnUse" x="10" y="4" width="43" height="42">
<path d="M49.8372 29.0307C55.0985 19.918 50.8566 7.88748 40.8304 5.20098C30.8043 2.51448 17.2915 10.7874 12.0302 19.9001C11.2672 21.3651 10.7395 22.8039 10.4286 24.2002C9.43008 30.4002 13.1301 37.8002 22.1567 40.6679C22.2209 40.6851 17.5633 42.5837 17.6298 42.6015L18.8306 45.3281C38.4589 43.1704 46.8499 33.1317 47.5518 32.2509C48.4112 31.2438 49.1789 30.1664 49.8349 29.0301L49.8372 29.0307Z" fill="white"/>
</mask>
<g mask="url(#mask0_1583_2269)">
<path d="M59.3629 22.8673L47.9308 18.601L3.69486 26.0111L50.3329 38.5077L59.3629 22.8673Z" fill="#E0E0E0"/>
<path d="M51.2902 36.8496L43.1307 32.101L2.63081 21.401L-4.37789 39.9933L42.2602 52.49L51.2902 36.8496Z" fill="#004687"/>
<path d="M67.4367 8.88299L20.7986 -3.61365L48.4308 18.6009L58.4067 24.5234L67.4367 8.88299Z" fill="#004687"/>
</g>
<path d="M49.8373 29.0308C55.0986 19.918 50.7569 7.78692 40.7308 5.10042C30.7046 2.41392 17.3915 10.4874 12.1303 19.6002C10.5166 22.3952 9.77102 24.2847 10.1303 26.8002C11.1301 33.8002 15.1303 38.4002 22.1568 40.668C22.221 40.6852 17.5634 42.5838 17.6299 42.6016L18.8307 45.3281C38.4591 43.1705 46.85 33.1317 47.5519 32.2509C48.4113 31.2438 49.179 30.1664 49.835 29.0302L49.8373 29.0308Z" stroke="#082422" stroke-width="0.2" stroke-miterlimit="10" stroke-linejoin="round"/>
<path d="M35.6821 25.5146C36.9024 23.401 35.9953 21.2226 33.7338 20.6166C31.4722 20.0106 28.6296 21.1843 27.4093 23.298C26.189 25.4116 27.0962 27.59 29.3578 28.196L28.5578 29.5817L28.412 29.5407C25.4308 28.6613 24.2762 25.7906 25.7886 23.018L25.8638 22.8838C27.514 20.0256 31.3958 18.3901 34.5338 19.231L34.6794 19.2719C37.7088 20.1655 38.852 23.1152 37.2276 25.9288L37.1486 26.0619C35.4562 28.8375 31.6468 30.4093 28.5578 29.5817L29.3578 28.196C31.6194 28.802 34.4618 27.6283 35.6821 25.5146Z" fill="#FFDD3F"/>
<path d="M28.3565 24.3205L32.0743 21.942C32.6967 21.5438 33.4918 21.7527 33.5565 22.3313L33.9458 25.8104C34.0152 26.4311 33.2034 27.0018 32.5138 26.817L28.4067 25.7165C27.7211 25.5328 27.6928 24.7451 28.3565 24.3205Z" fill="#02B55B"/>
<mask id="mask1_1583_2269" style="mask-type:luminance" maskUnits="userSpaceOnUse" x="9" y="4" width="42" height="39">
<path d="M48.6076 26.2287C53.8689 17.1159 50.0074 7.5496 39.9813 4.8631C29.9551 2.17661 17.5643 7.38814 12.303 16.5009C7.04172 25.6137 10.9032 35.18 20.9271 37.8659C20.9913 37.8831 21.0579 37.8962 21.1244 37.914L17.601 42.5261C37.2294 40.3684 45.6203 30.3296 46.3222 29.4488C47.1816 28.4418 47.9493 27.3643 48.6053 26.2281L48.6076 26.2287Z" fill="white"/>
</mask>
<g mask="url(#mask1_1583_2269)">
<path d="M58.1326 20.0643L11.4945 7.56763L2.46453 23.208L49.1026 35.7046L58.1326 20.0643Z" fill="white"/>
<path d="M50.0598 34.0464L3.42175 21.5498L-5.60822 37.1902L41.0299 49.6868L50.0598 34.0464Z" fill="#0067C6"/>
<path d="M66.2067 6.08014L19.5686 -6.4165L10.5386 9.22388L57.1767 21.7205L66.2067 6.08014Z" fill="#0067C6"/>
</g>
<path d="M48.6076 26.2287C53.8689 17.1159 50.0074 7.5496 39.9813 4.8631C29.9551 2.17661 17.5643 7.38814 12.303 16.5009C7.04172 25.6137 10.9032 35.18 20.9271 37.8659C20.9913 37.8831 21.0579 37.8962 21.1244 37.914L17.601 42.5261C37.2294 40.3684 45.6203 30.3296 46.3222 29.4488C47.1816 28.4418 47.9493 27.3643 48.6053 26.2281L48.6076 26.2287Z" stroke="#082422" stroke-width="0.2" stroke-miterlimit="10" stroke-linejoin="round"/>
<path d="M34.4521 22.7124C35.6725 20.5987 34.7653 18.4204 32.5038 17.8144C30.2422 17.2084 27.3997 18.382 26.1793 20.4957C24.959 22.6094 25.8663 24.7878 28.1278 25.3938L27.3278 26.7794L27.182 26.7384C24.2008 25.8591 23.0462 22.9883 24.5586 20.2157L24.6338 20.0816C26.2841 17.2233 30.1658 15.5879 33.3038 16.4287L33.4494 16.4697C36.4788 17.3632 37.622 20.3129 35.9976 23.1265L35.9186 23.2596C34.2262 26.0352 30.4168 27.6071 27.3278 26.7794L28.1278 25.3938C30.3894 25.9997 33.2318 24.8261 34.4521 22.7124Z" fill="#FFDD3F"/>
<path d="M27.1265 21.518L30.8444 19.1395C31.4667 18.7413 32.2618 18.9502 32.3265 19.5289L32.7158 23.0079C32.7853 23.6286 31.9734 24.1993 31.2838 24.0146L27.1767 22.9141C26.4912 22.7304 26.4628 21.9426 27.1265 21.518Z" fill="#02B55B"/>
</svg>
