<svg width="43" height="49" viewBox="0 0 43 49" fill="none" xmlns="http://www.w3.org/2000/svg">
<mask id="mask0_664_11829" style="mask-type:luminance" maskUnits="userSpaceOnUse" x="0" y="0" width="42" height="48">
<path d="M41.8001 21.2772C41.8001 9.96846 32.6135 0.799316 21.2806 0.799316C9.94769 0.799316 0.763672 9.96846 0.763672 21.2772C0.763672 32.586 9.95029 41.7552 21.2806 41.7552C21.3532 41.7552 21.4258 41.75 21.5009 41.75L20.6585 47.7213C38.6533 39.7501 41.1936 26.5448 41.3828 25.3961C41.655 24.0663 41.7976 22.6873 41.7976 21.2772H41.8001Z" fill="white"/>
</mask>
<g mask="url(#mask0_664_11829)">
<path d="M11.5602 -2.83105H-7.88623V49.7854H11.5602V-2.83105Z" fill="#FF003D"/>
<path d="M31.0064 -2.83154H11.5601V49.785H31.0064V-2.83154Z" fill="white"/>
<path d="M50.45 -2.83154H31.0037V49.785H50.45V-2.83154Z" fill="#FF003D"/>
</g>
</svg>
