<svg width="43" height="49" viewBox="0 0 43 49" fill="none" xmlns="http://www.w3.org/2000/svg">
<mask id="mask0_664_11827" style="mask-type:luminance" maskUnits="userSpaceOnUse" x="0" y="0" width="42" height="48">
<path d="M41.7997 21.2772C41.7997 9.96846 32.613 0.799316 21.2801 0.799316C9.9472 0.799316 0.763184 9.96846 0.763184 21.2772C0.763184 32.586 9.9498 41.7552 21.2801 41.7552C21.3527 41.7552 21.4253 41.75 21.5005 41.75L20.658 47.7213C38.6528 39.7501 41.1931 26.5448 41.3823 25.3961C41.6545 24.0663 41.7971 22.6873 41.7971 21.2772H41.7997Z" fill="white"/>
</mask>
<g mask="url(#mask0_664_11827)">
<path d="M11.5597 -2.83105H-7.88672V49.7854H11.5597V-2.83105Z" fill="#FF003D"/>
<path d="M31.006 -2.83154H11.5596V49.785H31.006V-2.83154Z" fill="white"/>
<path d="M50.4498 -2.83154H31.0034V49.785H50.4498V-2.83154Z" fill="#FF003D"/>
</g>
<path d="M41.7997 21.2772C41.7997 9.96846 32.613 0.799316 21.2801 0.799316C9.9472 0.799316 0.763184 9.96846 0.763184 21.2772C0.763184 32.586 9.9498 41.7552 21.2801 41.7552C21.3527 41.7552 21.4253 41.75 21.5005 41.75L20.658 47.7213C38.6528 39.7501 41.1931 26.5448 41.3823 25.3961C41.6545 24.0663 41.7971 22.6873 41.7971 21.2772H41.7997Z" stroke="#082422" stroke-width="0.366" stroke-miterlimit="10"/>
</svg>
