<svg width="39" height="44" viewBox="0 0 39 44" fill="none" xmlns="http://www.w3.org/2000/svg">
<g clip-path="url(#clip0_1583_2274)">
<path fill-rule="evenodd" clip-rule="evenodd" d="M22.6008 38.0037C19.7336 40.047 16.3083 42.0477 12.2502 43.8005L9.96997 41.8572C14.0279 40.1035 17.4533 38.1036 20.3206 36.0603L22.6008 38.0037ZM3.93579 33.8494C4.21371 34.0861 4.50466 34.3085 4.80884 34.5164C6.76585 35.8549 9.25809 36.5873 12.1711 36.5271C12.2312 36.5254 12.2922 36.5191 12.3547 36.5183L14.635 38.4617C14.5724 38.4633 14.5115 38.4696 14.4514 38.4705C11.5384 38.5307 9.04611 37.7983 7.08911 36.4597C6.78501 36.2518 6.49307 36.0295 6.21606 35.7927L3.93579 33.8494ZM35.7258 23.5378C35.358 24.3227 31.8691 31.397 22.6038 38.0007L20.3225 36.0574C29.588 29.4544 33.0777 22.3793 33.4456 21.5945L35.7258 23.5378ZM34.2581 4.62085C37.9574 7.76763 39.2876 13.3874 37.2366 19.8582C36.8357 21.1157 36.3286 22.3479 35.7278 23.5378L33.4465 21.5945C34.0474 20.4045 34.5554 19.1725 34.9563 17.9148C37.0073 11.4439 35.6755 5.82424 31.9768 2.67749L34.2581 4.62085Z" fill="#FF003D"/>
<path d="M22.6008 38.0037L22.6589 38.0851C22.684 38.0672 22.6994 38.0388 22.7007 38.008C22.7021 37.9772 22.6891 37.9475 22.6657 37.9276L22.6008 38.0037ZM12.2502 43.8005L12.1854 43.8766C12.2144 43.9014 12.2549 43.9075 12.2899 43.8923L12.2502 43.8005ZM9.96997 41.8572L9.9303 41.7654C9.89859 41.7791 9.8762 41.8082 9.87108 41.8423C9.86595 41.8765 9.87882 41.9109 9.90511 41.9333L9.96997 41.8572ZM20.3206 36.0603L20.3854 35.9842C20.3505 35.9544 20.2999 35.9523 20.2625 35.9789L20.3206 36.0603ZM3.93579 33.8494L4.00064 33.7732C3.9586 33.7374 3.89549 33.7425 3.85968 33.7845C3.82386 33.8265 3.8289 33.8897 3.87093 33.9255L3.93579 33.8494ZM4.80884 34.5164L4.86529 34.4338L4.86527 34.4338L4.80884 34.5164ZM12.1711 36.5271L12.1732 36.6271L12.1739 36.6271L12.1711 36.5271ZM12.3547 36.5183L12.4196 36.4422C12.4012 36.4265 12.3776 36.418 12.3534 36.4183L12.3547 36.5183ZM14.635 38.4617L14.6377 38.5616C14.6791 38.5605 14.7155 38.534 14.7293 38.495C14.7431 38.4559 14.7314 38.4124 14.6999 38.3856L14.635 38.4617ZM14.4514 38.4705L14.45 38.3705L14.4493 38.3705L14.4514 38.4705ZM7.08911 36.4597L7.14557 36.3772L7.14554 36.3772L7.08911 36.4597ZM6.21606 35.7927L6.28103 35.7167L6.28093 35.7166L6.21606 35.7927ZM35.7258 23.5378L35.8164 23.5803C35.8355 23.5395 35.825 23.491 35.7907 23.4617L35.7258 23.5378ZM22.6038 38.0007L22.5389 38.0769C22.5738 38.1066 22.6245 38.1088 22.6618 38.0822L22.6038 38.0007ZM20.3225 36.0574L20.2645 35.9759C20.2394 35.9938 20.2239 36.0223 20.2226 36.0531C20.2213 36.0838 20.2342 36.1135 20.2577 36.1335L20.3225 36.0574ZM33.4456 21.5945L33.5104 21.5184C33.4867 21.4981 33.4549 21.4901 33.4244 21.4967C33.3939 21.5034 33.3682 21.5238 33.355 21.552L33.4456 21.5945ZM34.2581 4.62085L34.1932 4.69697L34.1933 4.69702L34.2581 4.62085ZM37.2366 19.8582L37.3318 19.8885L37.3319 19.8884L37.2366 19.8582ZM35.7278 23.5378L35.6629 23.614C35.6863 23.6339 35.7175 23.6419 35.7475 23.6359C35.7776 23.6298 35.8032 23.6103 35.817 23.5829L35.7278 23.5378ZM33.4465 21.5945L33.3573 21.5494C33.3365 21.5906 33.3466 21.6407 33.3817 21.6706L33.4465 21.5945ZM34.9563 17.9148L35.0516 17.9452L35.0516 17.945L34.9563 17.9148ZM31.9768 2.67749L32.0416 2.60133C31.9995 2.56555 31.9365 2.57062 31.9007 2.61267C31.8649 2.65471 31.8699 2.71781 31.912 2.75361L31.9768 2.67749ZM22.6008 38.0037L22.5428 37.9222C19.6811 39.9616 16.262 41.9588 12.2106 43.7087L12.2502 43.8005L12.2899 43.8923C16.3546 42.1366 19.786 40.1324 22.6589 38.0851L22.6008 38.0037ZM12.2502 43.8005L12.3151 43.7244L10.0348 41.7811L9.96997 41.8572L9.90511 41.9333L12.1854 43.8766L12.2502 43.8005ZM9.96997 41.8572L10.0096 41.949C14.0743 40.1924 17.5058 38.189 20.3786 36.1417L20.3206 36.0603L20.2625 35.9789C17.4009 38.0182 13.9816 40.0146 9.9303 41.7654L9.96997 41.8572ZM20.3206 36.0603L20.2557 36.1364L22.536 38.0798L22.6008 38.0037L22.6657 37.9276L20.3854 35.9842L20.3206 36.0603ZM3.93579 33.8494L3.87094 33.9255C4.15157 34.1646 4.44534 34.389 4.75241 34.5989L4.80884 34.5164L4.86527 34.4338C4.56399 34.2279 4.27585 34.0077 4.00064 33.7732L3.93579 33.8494ZM4.80884 34.5164L4.75238 34.5989C6.72864 35.9506 9.24191 36.6877 12.1732 36.6271L12.1711 36.5271L12.1691 36.4271C9.27426 36.487 6.80306 35.7592 4.86529 34.4338L4.80884 34.5164ZM12.1711 36.5271L12.1739 36.6271C12.206 36.6262 12.2383 36.624 12.2681 36.6222C12.2987 36.6203 12.3274 36.6187 12.3561 36.6183L12.3547 36.5183L12.3534 36.4183C12.3195 36.4188 12.2864 36.4207 12.2558 36.4226C12.2245 36.4245 12.1963 36.4264 12.1684 36.4271L12.1711 36.5271ZM12.3547 36.5183L12.2899 36.5944L14.5701 38.5378L14.635 38.4617L14.6999 38.3856L12.4196 36.4422L12.3547 36.5183ZM14.635 38.4617L14.6324 38.3617C14.5989 38.3626 14.5661 38.3647 14.5361 38.3666C14.5054 38.3685 14.4774 38.3701 14.45 38.3705L14.4514 38.4705L14.4528 38.5704C14.4855 38.57 14.518 38.5681 14.5484 38.5662C14.5795 38.5643 14.6085 38.5624 14.6377 38.5616L14.635 38.4617ZM14.4514 38.4705L14.4493 38.3705C11.5546 38.4303 9.08332 37.7026 7.14557 36.3772L7.08911 36.4597L7.03266 36.5423C9.0089 37.894 11.5222 38.631 14.4535 38.5704L14.4514 38.4705ZM7.08911 36.4597L7.14554 36.3772C6.84425 36.1712 6.55518 35.951 6.28103 35.7167L6.21606 35.7927L6.1511 35.8687C6.43096 36.1079 6.72577 36.3325 7.03268 36.5423L7.08911 36.4597ZM6.21606 35.7927L6.28093 35.7166L4.00066 33.7733L3.93579 33.8494L3.87093 33.9255L6.1512 35.8688L6.21606 35.7927ZM35.7258 23.5378L35.6353 23.4954C35.2724 24.2697 31.7931 31.3283 22.5457 37.9193L22.6038 38.0007L22.6618 38.0822C31.9451 31.4656 35.4436 24.3756 35.8164 23.5803L35.7258 23.5378ZM22.6038 38.0007L22.6686 37.9246L20.3874 35.9813L20.3225 36.0574L20.2577 36.1335L22.5389 38.0769L22.6038 38.0007ZM20.3225 36.0574L20.3805 36.1388C29.664 29.523 33.1633 22.4323 33.5361 21.6369L33.4456 21.5945L33.355 21.552C32.9921 22.3264 29.512 29.3858 20.2645 35.9759L20.3225 36.0574ZM33.4456 21.5945L33.3807 21.6706L35.661 23.614L35.7258 23.5378L35.7907 23.4617L33.5104 21.5184L33.4456 21.5945ZM34.2581 4.62085L34.1933 4.69702C37.8533 7.81031 39.1839 13.3834 37.1412 19.8279L37.2366 19.8582L37.3319 19.8884C39.3912 13.3915 38.0616 7.72495 34.3228 4.54468L34.2581 4.62085ZM37.2366 19.8582L37.1413 19.8278C36.7421 21.0801 36.237 22.3074 35.6385 23.4928L35.7278 23.5378L35.817 23.5829C36.4202 22.3885 36.9293 21.1513 37.3318 19.8885L37.2366 19.8582ZM35.7278 23.5378L35.7926 23.4617L33.5114 21.5184L33.4465 21.5945L33.3817 21.6706L35.6629 23.614L35.7278 23.5378ZM33.4465 21.5945L33.5358 21.6396C34.139 20.445 34.649 19.2081 35.0516 17.9452L34.9563 17.9148L34.861 17.8844C34.4618 19.1368 33.9559 20.3639 33.3573 21.5494L33.4465 21.5945ZM34.9563 17.9148L35.0516 17.945C37.111 11.448 35.7796 5.78155 32.0416 2.60133L31.9768 2.67749L31.912 2.75365C35.5713 5.86693 36.9037 11.4399 34.861 17.8846L34.9563 17.9148ZM31.9768 2.67749L31.912 2.75361L34.1932 4.69697L34.2581 4.62085L34.3229 4.54473L32.0417 2.60137L31.9768 2.67749Z" fill="#082422"/>
<path d="M6.21657 35.7924L3.93579 33.8489C4.21379 34.0857 4.5045 34.3086 4.80878 34.5165L7.08955 36.46C6.78528 36.2521 6.49372 36.0292 6.21657 35.7924Z" fill="#FF003D"/>
<path d="M12.3546 36.5185L14.6354 38.462C14.5727 38.4636 14.5117 38.4694 14.4515 38.4702C11.5384 38.5305 9.04663 37.7985 7.08962 36.4599L4.80884 34.5164C6.76585 35.8549 9.25767 36.587 12.1707 36.5267C12.2309 36.5251 12.2919 36.5193 12.3546 36.5185Z" fill="#BFBBB8"/>
<path d="M20.3191 36.0598L22.5999 38.0033C19.7326 40.0467 16.3076 42.048 12.2495 43.8008L9.96875 41.8573C14.0269 40.1036 17.4518 38.1032 20.3191 36.0598Z" fill="#BFBBB8"/>
<path d="M37.236 19.8583C36.8351 21.116 36.3274 22.3481 35.7265 23.5382L33.4457 21.5947C34.0467 20.4046 34.5543 19.1725 34.9552 17.9148C37.0063 11.4438 35.6748 5.82376 31.9761 2.677L34.2569 4.62051C37.9564 7.76727 39.2871 13.3874 37.236 19.8583Z" fill="#970024"/>
<path d="M33.4455 21.5945L35.7263 23.538C35.3584 24.3228 31.869 31.397 22.6035 38.0008L20.3228 36.0573C29.5883 29.4544 33.0777 22.3793 33.4455 21.5945Z" fill="#970024"/>
<path d="M23.7464 0.00344674C26.6611 -0.0567958 29.1548 0.674992 31.1126 2.01517H31.1107C35.4576 4.99141 37.1578 10.9606 34.9544 17.9136C34.5536 19.1712 34.0465 20.4034 33.4456 21.5933C33.0778 22.3781 29.588 29.4524 20.3226 36.0562L25.4398 19.9068L20.3197 36.0591C17.4524 38.1024 14.0271 40.1032 9.96908 41.856L12.3548 36.5181C12.2921 36.5197 12.2304 36.5251 12.1703 36.5259C9.43941 36.5823 7.07886 35.9424 5.18197 34.7593L4.80893 34.5152V34.5161C0.46265 31.5419 -1.24043 25.5693 0.963224 18.6148C3.16778 11.6605 8.70199 5.539 15.0042 2.34524C17.8402 0.908449 20.8325 0.0636914 23.7464 0.00344674ZM19.8275 12.3687C16.8068 12.4314 13.5254 15.1122 12.4964 18.3579C11.4676 21.6035 13.0815 24.1833 16.1019 24.1216L16.3861 24.107C19.3258 23.8897 22.4371 21.2758 23.4339 18.1314C24.4627 14.8857 22.8472 12.3061 19.8275 12.3687Z" fill="#00B90F"/>
<path d="M23.7464 0.00344674L23.7444 -0.0965319V-0.0965319L23.7464 0.00344674ZM31.1126 2.01517V2.11517C31.1565 2.11517 31.1952 2.08661 31.2082 2.04473C31.2211 2.00285 31.2053 1.95741 31.1691 1.93265L31.1126 2.01517ZM31.1107 2.01517V1.91517C31.0668 1.91517 31.0281 1.94372 31.0152 1.9856C31.0022 2.02747 31.018 2.07291 31.0542 2.09768L31.1107 2.01517ZM34.9544 17.9136L35.0497 17.944L35.0498 17.9438L34.9544 17.9136ZM33.4456 21.5933L33.3563 21.5482L33.3551 21.5509L33.4456 21.5933ZM20.3226 36.0562L20.2273 36.026C20.2143 36.067 20.229 36.1117 20.2637 36.137C20.2985 36.1623 20.3456 36.1626 20.3806 36.1376L20.3226 36.0562ZM25.4398 19.9068L25.5351 19.937C25.5518 19.8843 25.5226 19.8281 25.47 19.8114C25.4174 19.7948 25.3611 19.8239 25.3445 19.8766L25.4398 19.9068ZM20.3197 36.0591L20.3777 36.1405C20.3954 36.128 20.4084 36.11 20.415 36.0893L20.3197 36.0591ZM9.96908 41.856L9.87779 41.8152C9.86097 41.8528 9.86896 41.8969 9.89793 41.9263C9.9269 41.9556 9.97089 41.9641 10.0087 41.9478L9.96908 41.856ZM12.3548 36.5181L12.4461 36.5589C12.4601 36.5275 12.4571 36.4912 12.438 36.4626C12.4189 36.434 12.3865 36.4172 12.3522 36.4181L12.3548 36.5181ZM12.1703 36.5259L12.1689 36.4259L12.1682 36.4259L12.1703 36.5259ZM5.18197 34.7593L5.1272 34.843L5.12905 34.8442L5.18197 34.7593ZM4.80893 34.5152L4.86369 34.4315C4.83296 34.4114 4.79367 34.4097 4.76137 34.4272C4.72906 34.4447 4.70893 34.4784 4.70893 34.5152H4.80893ZM4.80893 34.5161L4.75245 34.5987C4.78307 34.6196 4.82276 34.6219 4.85558 34.6046C4.88839 34.5873 4.90893 34.5532 4.90893 34.5161H4.80893ZM0.963224 18.6148L0.867899 18.5846L0.867895 18.5846L0.963224 18.6148ZM15.0042 2.34524L14.959 2.25604L14.959 2.25604L15.0042 2.34524ZM19.8275 12.3687L19.8254 12.2687H19.8254L19.8275 12.3687ZM12.4964 18.3579L12.4011 18.3277L12.4011 18.3277L12.4964 18.3579ZM16.1019 24.1216L16.1039 24.2216L16.107 24.2215L16.1019 24.1216ZM16.3861 24.107L16.3912 24.2069L16.3934 24.2067L16.3861 24.107ZM23.4339 18.1314L23.5293 18.1616L23.5293 18.1616L23.4339 18.1314ZM23.7464 0.00344674L23.7485 0.103425C26.645 0.0435592 29.1176 0.770711 31.0562 2.09768L31.1126 2.01517L31.1691 1.93265C29.192 0.579272 26.6772 -0.157151 23.7444 -0.0965319L23.7464 0.00344674ZM31.1126 2.01517V1.91517H31.1107V2.01517V2.11517H31.1126V2.01517ZM31.1107 2.01517L31.0542 2.09768C35.354 5.04163 37.0536 10.9585 34.8591 17.8834L34.9544 17.9136L35.0498 17.9438C37.2621 10.9628 35.5613 4.94119 31.1672 1.93265L31.1107 2.01517ZM34.9544 17.9136L34.8592 17.8832C34.46 19.1356 33.9549 20.3629 33.3564 21.5482L33.4456 21.5933L33.5349 21.6384C34.138 20.4439 34.6472 19.2068 35.0497 17.944L34.9544 17.9136ZM33.4456 21.5933L33.3551 21.5509C32.9922 22.3252 29.512 29.3838 20.2646 35.9747L20.3226 36.0562L20.3806 36.1376C29.664 29.521 33.1634 22.4311 33.5362 21.6357L33.4456 21.5933ZM20.3226 36.0562L20.4179 36.0864L25.5351 19.937L25.4398 19.9068L25.3445 19.8766L20.2273 36.026L20.3226 36.0562ZM25.4398 19.9068L25.3445 19.8766L20.2243 36.0289L20.3197 36.0591L20.415 36.0893L25.5351 19.937L25.4398 19.9068ZM20.3197 36.0591L20.2616 35.9777C17.4 38.017 13.9808 40.0142 9.92943 41.7642L9.96908 41.856L10.0087 41.9478C14.0734 40.1921 17.5049 38.1878 20.3777 36.1405L20.3197 36.0591ZM9.96908 41.856L10.0604 41.8968L12.4461 36.5589L12.3548 36.5181L12.2635 36.4773L9.87779 41.8152L9.96908 41.856ZM12.3548 36.5181L12.3522 36.4181C12.3192 36.419 12.2865 36.4208 12.2563 36.4225C12.2254 36.4241 12.1967 36.4255 12.1689 36.4259L12.1703 36.5259L12.1716 36.6259C12.2039 36.6255 12.2362 36.6238 12.2669 36.6222C12.2982 36.6205 12.3278 36.6188 12.3575 36.6181L12.3548 36.5181ZM12.1703 36.5259L12.1682 36.4259C9.45439 36.482 7.11341 35.8461 5.23489 34.6745L5.18197 34.7593L5.12905 34.8442C7.04431 36.0387 9.42443 36.6827 12.1723 36.6259L12.1703 36.5259ZM5.18197 34.7593L5.23673 34.6756L4.86369 34.4315L4.80893 34.5152L4.75417 34.5988L5.12721 34.843L5.18197 34.7593ZM4.80893 34.5152H4.70893V34.5161H4.80893H4.90893V34.5152H4.80893ZM4.80893 34.5161L4.8654 34.4336C0.566299 31.4916 -1.1362 25.5714 1.05855 18.645L0.963224 18.6148L0.867895 18.5846C-1.34466 25.5672 0.359002 31.5921 4.75245 34.5987L4.80893 34.5161ZM0.963224 18.6148L1.05855 18.645C3.25439 11.7182 8.7693 5.617 15.0494 2.43444L15.0042 2.34524L14.959 2.25604C8.63468 5.46101 3.08117 11.6027 0.867899 18.5846L0.963224 18.6148ZM15.0042 2.34524L15.0494 2.43445C17.8746 1.00312 20.8522 0.163305 23.7485 0.103425L23.7464 0.00344674L23.7444 -0.0965319C20.8128 -0.0359221 17.8058 0.813777 14.959 2.25604L15.0042 2.34524ZM19.8275 12.3687L19.8254 12.2687C18.2873 12.3006 16.6909 12.9982 15.3518 14.0922C14.0121 15.1867 12.9222 16.684 12.4011 18.3277L12.4964 18.3579L12.5918 18.3882C13.0996 16.786 14.1649 15.3202 15.4783 14.2471C16.7923 13.1736 18.347 12.4994 19.8296 12.4687L19.8275 12.3687ZM12.4964 18.3579L12.4011 18.3277C11.8801 19.9712 12.0244 21.4594 12.6959 22.533C13.3691 23.6091 14.5627 24.253 16.1039 24.2216L16.1019 24.1216L16.0999 24.0216C14.6207 24.0518 13.4972 23.4367 12.8655 22.4269C12.2323 21.4147 12.0839 19.9902 12.5918 18.3882L12.4964 18.3579ZM16.1019 24.1216L16.107 24.2215L16.3912 24.2068L16.3861 24.107L16.3809 24.0071L16.0967 24.0217L16.1019 24.1216ZM16.3861 24.107L16.3934 24.2067C17.8891 24.0962 19.4212 23.3771 20.7032 22.2932C21.9856 21.2089 23.0245 19.754 23.5293 18.1616L23.4339 18.1314L23.3386 18.1012C22.8466 19.6532 21.8314 21.0774 20.574 22.1405C19.3163 23.2039 17.8228 23.9005 16.3787 24.0072L16.3861 24.107ZM23.4339 18.1314L23.5293 18.1616C24.0502 16.518 23.9056 15.0298 23.2337 13.9564C22.5601 12.8804 21.3663 12.2367 19.8254 12.2687L19.8275 12.3687L19.8296 12.4687C21.3084 12.438 22.4321 13.0529 23.0641 14.0625C23.6977 15.0746 23.8464 16.4991 23.3386 18.1012L23.4339 18.1314Z" fill="#082422"/>
<path d="M15.005 2.34644L4.80891 34.5163C0.462631 31.542 -1.24011 25.5703 0.963538 18.6158C3.16804 11.6613 8.70259 5.54023 15.005 2.34644Z" fill="#FF003D"/>
<path d="M31.1119 2.01619L20.32 36.0594C17.4527 38.1028 14.0277 40.104 9.96962 41.8569L12.3546 36.5182C12.2919 36.5199 12.2309 36.5257 12.1707 36.5265C9.25767 36.5867 6.76585 35.8547 4.80884 34.5161L15.005 2.34629C17.8409 0.909499 20.8328 0.0644231 23.7467 0.00417844C26.6614 -0.0560663 29.1541 0.675948 31.1119 2.01619Z" fill="white"/>
<path d="M31.1096 2.01465C35.4576 4.99057 37.1586 10.9606 34.955 17.9143C34.5541 19.172 34.0464 20.4041 33.4455 21.5942C33.0777 22.379 29.5883 29.4532 20.3228 36.057L31.1096 2.01465Z" fill="#FF003D"/>
</g>
<defs>
<clipPath id="clip0_1583_2274">
<rect width="38.2" height="43.8" fill="white"/>
</clipPath>
</defs>
</svg>
