<svg width="40" height="44" viewBox="0 0 40 44" fill="none" xmlns="http://www.w3.org/2000/svg">
<g clip-path="url(#clip0_1583_2266)">
<mask id="mask0_1583_2266" style="mask-type:luminance" maskUnits="userSpaceOnUse" x="2" y="1" width="38" height="43">
<path d="M39.3457 19.6682C39.3639 9.56925 31.1818 1.39584 21.0699 1.41414C10.9579 1.43244 2.74849 9.6355 2.73023 19.7345C2.71196 29.8335 10.894 38.0069 21.0037 37.9886C21.0685 37.9885 21.1332 37.9837 21.2003 37.9836L18.349 42.4559L20.3821 43.3537C36.4511 36.2061 38.7959 24.3733 38.9666 23.3471C39.2116 22.1591 39.3411 20.9274 39.3433 19.6682L39.3457 19.6682Z" fill="white" stroke="white" stroke-width="0.2" stroke-linejoin="round"/>
</mask>
<g mask="url(#mask0_1583_2266)">
<path d="M12.4055 -1.82851L-4.95007 -1.79883L-5.03039 45.1961L12.3252 45.1664L12.4055 -1.82851Z" fill="#970024"/>
<path d="M29.7495 -1.84828L12.3939 -1.8186L12.3136 45.1763L29.6692 45.1466L29.7495 -1.84828Z" fill="#D8D8D8"/>
<path d="M47.092 -1.86735L27.7336 -1.83382L27.6189 36.7631L33.3273 40.9126L47.0106 45.1268L47.092 -1.86735Z" fill="#970024"/>
</g>
<path d="M39.4754 19.7C39.4931 9.60087 31.3107 1.42682 21.199 1.44452C11.0872 1.46222 2.8785 9.66496 2.86083 19.7641C2.84316 29.8633 11.0255 38.0374 21.135 38.0197C21.1997 38.0196 21.2645 38.0148 21.3316 38.0147L18.382 42.5115L20.4042 43.3998C36.4724 36.2531 38.926 24.4052 39.0966 23.379C39.3415 22.191 39.4709 20.9593 39.4731 19.7001L39.4754 19.7Z" stroke="#082422" stroke-width="0.2" stroke-miterlimit="10" stroke-linejoin="round"/>
<path d="M21.0207 25.5629C24.2739 25.5575 26.9155 22.9184 26.9209 19.6682C26.9263 16.4181 24.2935 13.7877 21.0403 13.7932C17.7871 13.7986 15.1455 16.4377 15.1401 19.6879C15.1347 22.938 17.7675 25.5684 21.0207 25.5629Z" fill="#519400" stroke="#082422" stroke-width="0.2" stroke-linejoin="round"/>
<mask id="mask1_1583_2266" style="mask-type:luminance" maskUnits="userSpaceOnUse" x="0" y="0" width="38" height="43">
<path d="M37.2499 18.7822C37.2708 8.68318 29.0909 0.507611 18.9789 0.523232C8.86695 0.538854 0.655386 8.73975 0.634447 18.8387C0.613508 28.9377 8.79343 37.1133 18.9031 37.0977C18.9679 37.0976 19.0326 37.0928 19.0997 37.0927L18.337 42.4264C34.4078 35.2831 36.6989 23.4871 36.8699 22.461C37.1152 21.273 37.245 20.0414 37.2476 18.7822L37.2499 18.7822Z" fill="white" stroke="white" stroke-width="0.2" stroke-linejoin="round"/>
</mask>
<g mask="url(#mask1_1583_2266)">
<path d="M15.433 -2.72727L-7.03369 -2.69482L-7.15369 58.1424L15.313 58.1099L15.433 -2.72727Z" fill="#FF003D"/>
<path d="M27.6654 -2.73747L10.3098 -2.7124L10.2171 44.2825L27.5727 44.2575L27.6654 -2.73747Z" fill="white"/>
<path d="M45.0067 -2.75285L27.6511 -2.72778L27.5584 44.2672L44.914 44.2421L45.0067 -2.75285Z" fill="#FF003D"/>
</g>
<path d="M37.2476 18.7815C37.2679 8.68234 29.0877 0.506119 18.9759 0.521142C8.8642 0.536165 0.653309 8.73674 0.63297 18.8359C0.612631 28.9351 8.79285 37.1113 18.9023 37.0963C18.967 37.0962 19.0318 37.0915 19.0989 37.0914L18.3365 42.4251C34.4066 35.2826 36.6969 23.4865 36.8678 22.4604C37.113 21.2724 37.2427 20.0407 37.2453 18.7815L37.2476 18.7815Z" stroke="#082422" stroke-width="0.2" stroke-miterlimit="10" stroke-linejoin="round"/>
</g>
<defs>
<clipPath id="clip0_1583_2266">
<rect width="40" height="43.8" fill="white"/>
</clipPath>
</defs>
</svg>
