<svg width="43" height="48" viewBox="0 0 43 48" fill="none" xmlns="http://www.w3.org/2000/svg">
<path d="M21.1404 0.18335C32.7279 0.18335 42.0974 9.4406 42.0974 20.8728C42.0974 22.3098 41.9653 23.6973 41.6736 25.0339C41.4488 26.2791 38.8289 39.5323 20.5847 47.5349L20.2839 47.6667L20.3289 47.3416L21.1384 41.5613C9.55188 41.5602 0.183408 32.3043 0.18335 20.8728C0.18335 9.44048 9.57928 0.18339 21.1404 0.18335Z" fill="white" stroke="#082422" stroke-width="0.366895" stroke-miterlimit="10"/>
<mask id="mask0_664_11832" style="mask-type:alpha" maskUnits="userSpaceOnUse" x="0" y="0" width="43" height="48">
<path d="M21.1404 0.18335C32.7279 0.18335 42.0974 9.4406 42.0974 20.8728C42.0974 22.3098 41.9653 23.6973 41.6736 25.0339C41.4488 26.2791 38.8289 39.5323 20.5847 47.5349L20.2839 47.6667L20.3289 47.3416L21.1384 41.5613C9.55188 41.5602 0.183408 32.3043 0.18335 20.8728C0.18335 9.44048 9.57928 0.18339 21.1404 0.18335Z" fill="white" stroke="#082422" stroke-width="0.366895" stroke-miterlimit="10"/>
</mask>
<g mask="url(#mask0_664_11832)">
<rect x="-20.2786" y="26.7178" width="35.2757" height="29.3965" fill="#FF003D"/>
<rect x="-20.2783" y="-14.437" width="35.2757" height="29.3965" fill="#0052B4"/>
<rect x="27.2456" y="26.7178" width="35.2757" height="29.3965" fill="#0052B4"/>
<rect x="27.2456" y="-14.4373" width="35.2757" height="29.3965" fill="#FF003D"/>
<mask id="mask1_664_11832" style="mask-type:alpha" maskUnits="userSpaceOnUse" x="15" y="20" width="13" height="7">
<rect x="15.3669" y="20.7219" width="11.8484" height="5.60108" fill="#D9D9D9"/>
</mask>
<g mask="url(#mask1_664_11832)">
<rect x="16.013" y="14.4742" width="10.5559" height="11.2022" rx="1.93884" stroke="#60D06F" stroke-width="0.861705"/>
</g>
<path d="M20.5175 20.6946V24.5991H18.0514C17.484 24.5991 17.0239 24.1391 17.0239 23.5716V20.6946H20.5175ZM25.7011 15.7625C25.7758 15.7625 25.8255 15.8397 25.7946 15.9077L25.3468 16.8927V19.4615H21.7505V15.7625H25.7011Z" fill="#FF003D"/>
<path d="M25.3464 23.5721C25.3464 24.1396 24.8863 24.5996 24.3189 24.5996H21.7501V20.695H25.3464V23.5721ZM20.517 19.462H17.0235V16.8932L16.5757 15.9082C16.5448 15.8402 16.5945 15.763 16.6693 15.7629H20.517V19.462Z" fill="#0052B4"/>
</g>
<path d="M21.1404 0.18335C32.7279 0.18335 42.0974 9.4406 42.0974 20.8728C42.0974 22.3098 41.9653 23.6973 41.6736 25.0339C41.4488 26.2791 38.8289 39.5323 20.5847 47.5349L20.2839 47.6667L20.3289 47.3416L21.1384 41.5613C9.55188 41.5602 0.183408 32.3043 0.18335 20.8728C0.18335 9.44048 9.57928 0.18339 21.1404 0.18335Z" stroke="#082422" stroke-width="0.366895" stroke-miterlimit="10"/>
</svg>
