<svg width="42" height="46" viewBox="0 0 42 46" fill="none" xmlns="http://www.w3.org/2000/svg">
<g clip-path="url(#clip0_1583_2264)">
<mask id="mask0_1583_2264" style="mask-type:luminance" maskUnits="userSpaceOnUse" x="2" y="1" width="40" height="45">
<path d="M40.9627 20.477C40.9817 9.96297 32.4634 1.45367 21.9358 1.47272C11.4083 1.49177 2.86153 10.0319 2.84251 20.5459C2.8235 31.06 11.3418 39.5692 21.867 39.5502C21.9344 39.5501 22.0018 39.5451 22.0716 39.545L19.1032 44.2011L21.2198 45.1358C37.9492 37.6945 40.3904 25.3754 40.5681 24.3071C40.8231 23.0702 40.9579 21.7879 40.9603 20.477L40.9627 20.477Z" fill="white" stroke="white" stroke-width="0.208219" stroke-linejoin="round"/>
</mask>
<g mask="url(#mask0_1583_2264)">
<path d="M41.0975 20.5094C41.1159 9.99517 32.5972 1.4852 22.0699 1.50363C11.5426 1.52205 2.99656 10.0619 2.97816 20.5761C2.95977 31.0903 11.4784 39.6003 22.0033 39.5819C22.0707 39.5818 22.1382 39.5768 22.208 39.5767L19.1372 44.2583L21.2424 45.1831C37.971 37.7427 40.5255 25.4079 40.7031 24.3395C40.9581 23.1027 41.0928 21.8204 41.0951 20.5094L41.0975 20.5094Z" fill="white"/>
<path d="M41.9555 1.4574L25.6104 1.45734L37.9992 14.471L41.2265 16.0327L41.9555 1.4574Z" fill="#D20032"/>
<path d="M43.8298 28.7342L31.1282 44.0383L23.6323 39.7698L36.8544 24.4657L43.8298 28.7342Z" fill="#00418E"/>
</g>
<path d="M41.0977 20.5099C41.1161 9.99566 32.5975 1.48569 22.0702 1.50411C11.5429 1.52254 2.9968 10.0624 2.97841 20.5766C2.96001 31.0908 11.4787 39.6008 22.0035 39.5824C22.071 39.5822 22.1384 39.5773 22.2082 39.5772L19.1374 44.2588L21.2427 45.1836C37.9712 37.7431 40.5257 25.4084 40.7033 24.34C40.9583 23.1032 41.093 21.8208 41.0953 20.5099L41.0977 20.5099Z" stroke="#082422" stroke-width="0.208219" stroke-miterlimit="10" stroke-linejoin="round"/>
<path d="M21.8843 26.6138C25.2711 26.6082 28.0213 23.8606 28.0269 20.4769C28.0326 17.0932 25.2916 14.3547 21.9047 14.3604C18.5178 14.366 15.7676 17.1136 15.762 20.4973C15.7564 23.881 18.4974 26.6195 21.8843 26.6138Z" fill="#519400" stroke="#082422" stroke-width="0.208219" stroke-linejoin="round"/>
<mask id="mask1_1583_2264" style="mask-type:luminance" maskUnits="userSpaceOnUse" x="0" y="0" width="39" height="45">
<path d="M38.7816 19.5526C38.8034 9.0386 30.2874 0.527047 19.7598 0.54331C9.23228 0.559574 0.683253 9.09749 0.661453 19.6115C0.639654 30.1255 9.15574 38.637 19.6809 38.6208C19.7483 38.6207 19.8157 38.6158 19.8856 38.6157L19.0915 44.1685C35.8228 36.7317 38.208 24.4509 38.386 23.3826C38.6414 22.1458 38.7765 20.8635 38.7792 19.5526L38.7816 19.5526Z" fill="white" stroke="white" stroke-width="0.208219" stroke-linejoin="round"/>
</mask>
<g mask="url(#mask1_1583_2264)">
<path d="M38.7787 19.5518C38.7999 9.03761 30.2835 0.52538 19.7562 0.541021C9.22891 0.556661 0.680585 9.09424 0.65941 19.6085C0.638235 30.1227 9.15463 38.6349 19.6795 38.6193C19.7469 38.6192 19.8144 38.6143 19.8842 38.6141L19.0905 44.1671C35.821 36.7311 38.2054 24.4502 38.3833 23.3819C38.6387 22.1451 38.7737 20.8628 38.7763 19.5518L38.7787 19.5518Z" fill="white"/>
<rect x="-17.282" y="25.1172" width="31.5683" height="26.5674" fill="#FF003D"/>
<rect x="-17.282" y="-12.0769" width="31.5683" height="26.5674" fill="#0052B4"/>
<rect x="25.2478" y="25.1172" width="31.5683" height="26.5674" fill="#0052B4"/>
<rect x="25.2478" y="-12.0771" width="31.5683" height="26.5674" fill="#FF003D"/>
<mask id="mask2_1583_2264" style="mask-type:alpha" maskUnits="userSpaceOnUse" x="14" y="19" width="12" height="6">
<rect x="14.9919" y="19.5803" width="10.2027" height="4.82311" fill="#D9D9D9"/>
</mask>
<g mask="url(#mask2_1583_2264)">
<rect x="15.5479" y="14.2008" width="9.08971" height="9.64623" rx="1.66954" stroke="#60D06F" stroke-width="0.742017"/>
</g>
<path d="M19.4283 19.5576V22.9198H17.3047C16.8161 22.9198 16.4199 22.5237 16.4199 22.035V19.5576H19.4283ZM23.8918 15.3105C23.9562 15.3106 23.999 15.3771 23.9724 15.4357L23.5868 16.2838V18.4958H20.49V15.3105H23.8918Z" fill="#FF003D"/>
<path d="M23.5861 22.035C23.5861 22.5237 23.19 22.9198 22.7013 22.9198H20.4893V19.5576H23.5861V22.035ZM19.4275 18.4958H16.4192V16.2838L16.0337 15.4357C16.007 15.3771 16.0499 15.3106 16.1142 15.3105H19.4275V18.4958Z" fill="#0052B4"/>
</g>
<path d="M38.7787 19.5526C38.7999 9.03834 30.2835 0.526113 19.7562 0.541753C9.22891 0.557394 0.680585 9.09498 0.65941 19.6092C0.638235 30.1234 9.15463 38.6356 19.6795 38.62C19.7469 38.6199 19.8144 38.615 19.8842 38.6149L19.0905 44.1678C35.821 36.7318 38.2054 24.4509 38.3833 23.3826C38.6387 22.1458 38.7737 20.8635 38.7763 19.5526L38.7787 19.5526Z" stroke="#082422" stroke-width="0.208219" stroke-miterlimit="10" stroke-linejoin="round"/>
</g>
<defs>
<clipPath id="clip0_1583_2264">
<rect width="41.6438" height="45.6" fill="white"/>
</clipPath>
</defs>
</svg>
