<svg width="45" height="51" viewBox="0 0 45 51" fill="none" xmlns="http://www.w3.org/2000/svg">
<g clip-path="url(#clip0_664_11845)">
<rect width="44.4" height="50.8" fill="white"/>
<path d="M23.2624 16.4331V0.832852C22.9 0.816539 22.535 0.805664 22.1726 0.805664C16.786 0.805352 11.5943 2.81703 7.61922 6.44481C3.64416 10.0726 1.17364 15.0537 0.693848 20.408H23.2624V16.4331Z" fill="#0052B4"/>
<path d="M34.2577 4.50582C31.0003 2.29665 27.1959 1.0258 23.2622 0.832764V4.50582H34.2577Z" fill="white"/>
<path d="M23.2622 8.4807H38.6738C37.3922 6.95917 35.9061 5.62159 34.2577 4.50586H23.2622V8.4807Z" fill="#FF003D"/>
<path d="M23.2622 12.4609H41.3301C40.5942 11.0423 39.7033 9.7093 38.6738 8.48608H23.2622V12.4609Z" fill="white"/>
<path d="M23.2622 16.4331H42.9075C42.5157 15.0598 41.9873 13.7292 41.3301 12.4609H23.2622V16.4331Z" fill="#FF003D"/>
<path d="M23.2622 20.4079H43.6431C43.5245 19.0627 43.2782 17.7318 42.9075 16.4331H23.2622V20.4079Z" fill="white"/>
<path d="M0.704561 24.3856H43.6294C43.6948 23.7059 43.7302 23.0262 43.7302 22.3248C43.7302 21.6777 43.6975 21.0415 43.6403 20.4216H0.693663C0.636452 21.0551 0.60376 21.6913 0.60376 22.3248C0.60376 23.0208 0.639176 23.7059 0.704561 24.3856Z" fill="#FF003D"/>
<path d="M1.47013 28.3603H42.8802C43.0494 27.7996 43.1859 27.2295 43.2889 26.6529C43.4409 25.9036 43.5528 25.1467 43.624 24.3855H0.70459C0.834208 25.7315 1.09052 27.0623 1.47013 28.3603Z" fill="white"/>
<path d="M3.0803 32.3379H41.3302C41.9601 31.0582 42.4805 29.7276 42.8858 28.3604H1.47021C1.87278 29.7364 2.41216 31.0689 3.0803 32.3379Z" fill="#FF003D"/>
<path d="M5.78833 36.3127H39.0036C39.8781 35.048 40.6558 33.7193 41.3302 32.3379H3.08032C3.83202 33.7592 4.74031 35.0924 5.78833 36.3127Z" fill="white"/>
<path d="M10.2999 40.2903H35.7943C36.9628 39.0469 38.0356 37.7173 39.0036 36.3127H5.78833C7.10039 37.8406 8.61873 39.1793 10.2999 40.2903Z" fill="#FF003D"/>
<path d="M22.1671 43.8436H22.3986L22.3387 44.2705H31.419C32.9782 43.0604 34.441 41.7315 35.7943 40.2957H10.2998C13.8202 42.6164 17.9479 43.8504 22.1671 43.8436Z" fill="white"/>
<path d="M21.7773 48.2426H25.319C27.4573 47.0866 29.4974 45.7582 31.4188 44.2705H22.3386L21.7773 48.2426Z" fill="#FF003D"/>
<path d="M21.5132 50.1132C22.8754 49.5151 24.1258 48.8897 25.3273 48.2427H21.7856L21.5132 50.1132Z" fill="white"/>
<path d="M18.511 8.32567C18.8198 8.3262 19.1219 8.2353 19.379 8.06444C19.6361 7.89359 19.8366 7.65048 19.9551 7.36586C20.0737 7.08125 20.105 6.76793 20.0451 6.46556C19.9852 6.16319 19.8367 5.88535 19.6185 5.66721C19.4003 5.44907 19.1221 5.30043 18.8192 5.24009C18.5164 5.17976 18.2023 5.21046 17.9169 5.32829C17.6315 5.44612 17.3876 5.64579 17.2159 5.90203C17.0443 6.15828 16.9526 6.45958 16.9526 6.76781C16.9526 7.18051 17.1167 7.57635 17.4089 7.86842C17.7011 8.1605 18.0974 8.32495 18.511 8.32567Z" fill="white"/>
<path d="M12.5554 8.59764C12.8643 8.59818 13.1663 8.50727 13.4234 8.33642C13.6805 8.16556 13.881 7.92245 13.9996 7.63784C14.1181 7.35322 14.1494 7.03991 14.0895 6.73753C14.0296 6.43516 13.8811 6.15732 13.6629 5.93918C13.4447 5.72104 13.1666 5.5724 12.8637 5.51207C12.5608 5.45174 12.2468 5.48243 11.9614 5.60026C11.676 5.71809 11.432 5.91776 11.2603 6.17401C11.0887 6.43025 10.9971 6.73156 10.9971 7.03979C10.9978 7.45226 11.1621 7.84768 11.4541 8.1396C11.7461 8.43152 12.1421 8.5962 12.5554 8.59764Z" fill="white"/>
<path d="M15.5522 12.9178C15.8602 12.9146 16.1603 12.8203 16.4146 12.647C16.669 12.4737 16.8661 12.2291 16.9812 11.944C17.0964 11.659 17.1242 11.3463 17.0614 11.0454C16.9985 10.7445 16.8478 10.469 16.6281 10.2536C16.4085 10.0381 16.1298 9.8925 15.8272 9.83504C15.5247 9.77758 15.2119 9.81087 14.9283 9.9307C14.6447 10.0505 14.403 10.2515 14.2338 10.5083C14.0646 10.7651 13.9754 11.0662 13.9776 11.3735C13.979 11.5782 14.0209 11.7806 14.1009 11.9691C14.1808 12.1576 14.2973 12.3285 14.4436 12.472C14.5899 12.6154 14.7632 12.7287 14.9534 12.8052C15.1436 12.8817 15.3471 12.92 15.5522 12.9178Z" fill="white"/>
<path d="M9.59132 12.9176C9.89999 12.9176 10.2017 12.8261 10.4582 12.6548C10.7147 12.4834 10.9144 12.2399 11.032 11.9551C11.1497 11.6703 11.1799 11.3571 11.1189 11.0551C11.0578 10.7531 10.9083 10.4761 10.6893 10.259C10.4703 10.042 10.1916 9.89471 9.8886 9.83594C9.5856 9.77717 9.27194 9.80952 8.98739 9.9289C8.70284 10.0483 8.46022 10.2493 8.29031 10.5065C8.12039 10.7636 8.03084 11.0654 8.033 11.3734C8.03587 11.7839 8.20132 12.1767 8.49326 12.466C8.78519 12.7553 9.17991 12.9177 9.59132 12.9176Z" fill="white"/>
<path d="M18.511 16.8925C18.8192 16.8925 19.1205 16.8013 19.3767 16.6304C19.633 16.4595 19.8327 16.2166 19.9507 15.9325C20.0686 15.6483 20.0995 15.3356 20.0393 15.034C19.9792 14.7323 19.8308 14.4552 19.6129 14.2377C19.3949 14.0202 19.1173 13.8721 18.815 13.8121C18.5127 13.7521 18.1994 13.7829 17.9146 13.9006C17.6299 14.0183 17.3865 14.2176 17.2153 14.4734C17.044 14.7291 16.9526 15.0298 16.9526 15.3374C16.9526 15.7498 17.1168 16.1454 17.4091 16.437C17.7013 16.7287 18.0977 16.8925 18.511 16.8925Z" fill="white"/>
<path d="M12.5554 17.1645C12.8636 17.1645 13.1649 17.0733 13.4212 16.9024C13.6774 16.7315 13.8772 16.4886 13.9951 16.2045C14.1131 15.9203 14.1439 15.6076 14.0838 15.3059C14.0237 15.0043 13.8752 14.7272 13.6573 14.5097C13.4394 14.2922 13.1617 14.1441 12.8594 14.0841C12.5571 14.0241 12.2438 14.0549 11.9591 14.1726C11.6743 14.2903 11.4309 14.4896 11.2597 14.7453C11.0885 15.0011 10.9971 15.3018 10.9971 15.6093C10.9978 16.0216 11.1622 16.4167 11.4543 16.7082C11.7464 16.9997 12.1423 17.1638 12.5554 17.1645Z" fill="white"/>
<path d="M6.61916 17.1645C6.92725 17.1639 7.22827 17.0723 7.48417 16.9011C7.74008 16.7299 7.93939 16.4868 8.05692 16.2026C8.17445 15.9184 8.20492 15.6058 8.14448 15.3043C8.08405 15.0028 7.93542 14.7259 7.71737 14.5087C7.49933 14.2915 7.22166 14.1437 6.91945 14.0839C6.61724 14.0241 6.30405 14.0551 6.01946 14.1728C5.73487 14.2906 5.49165 14.4899 5.32054 14.7456C5.14943 15.0013 5.05811 15.3019 5.05811 15.6093C5.05811 15.8138 5.0985 16.0162 5.17699 16.2051C5.25547 16.3939 5.3705 16.5655 5.51549 16.7099C5.66048 16.8544 5.8326 16.9689 6.02197 17.0469C6.21135 17.1249 6.41429 17.1648 6.61916 17.1645Z" fill="white"/>
<path d="M7.91382 6.18237C8.01247 6.33068 8.08649 6.49489 8.12964 6.66968C8.20522 6.97588 8.18595 7.29764 8.07397 7.59253C7.96196 7.88748 7.76271 8.14173 7.50269 8.32104C7.24269 8.5003 6.93394 8.59617 6.61792 8.59644C6.39656 8.59647 6.17784 8.54918 5.97632 8.45776C5.9067 8.42618 5.84098 8.38768 5.7771 8.34644C6.34858 7.67899 6.96243 7.0433 7.61792 6.44507C7.71537 6.35613 7.81492 6.26936 7.91382 6.18237Z" fill="white"/>
<path d="M43.7318 22.3243C43.7323 18.0676 42.4679 13.9063 40.0986 10.3667C37.7292 6.82711 34.3612 4.06819 30.4206 2.43884C26.48 0.809493 22.1437 0.382903 17.9602 1.21302C13.7766 2.04313 9.93367 4.09267 6.91735 7.10243C3.90102 10.1122 1.84679 13.947 1.01445 18.1219C0.182099 22.2968 0.609017 26.6242 2.24121 30.557C3.87341 34.4897 6.63757 37.8511 10.1841 40.2161C13.7307 42.581 17.9003 43.8433 22.1658 43.8433H22.3974L21.512 50.1182C40.4244 41.7417 43.0943 27.8651 43.3068 26.658C43.5975 25.2335 43.7435 23.7834 43.7426 22.3297L43.7318 22.3243Z" stroke="#082422" stroke-width="0.36" stroke-miterlimit="10"/>
</g>
<defs>
<clipPath id="clip0_664_11845">
<rect width="44.4" height="50.8" fill="white"/>
</clipPath>
</defs>
</svg>
