<svg width="42" height="43" viewBox="0 0 42 43" fill="none" xmlns="http://www.w3.org/2000/svg">
<path d="M23.583 15.347L27.0008 2.59176C26.6988 2.55169 26.3933 2.51587 26.0878 2.48913C21.5456 2.09148 16.727 3.35327 12.5802 6.02619C8.43346 8.69911 5.25891 12.5896 3.6813 16.932L22.7122 18.5969L23.583 15.347Z" fill="#0052B4"/>
<path d="M35.468 6.40594C33.2051 4.35934 30.2755 3.03959 27.0007 2.59155L26.196 5.59475L35.468 6.40594Z" fill="#CDCDCD"/>
<path d="M36.5605 8.2365L38.3211 9.98175C37.5737 8.64315 36.6136 7.43987 35.468 6.40601L36.1373 7.55932L36.5605 8.2365Z" fill="#C5000D"/>
<path d="M37.999 11.7065L39.6888 13.432C39.379 12.2178 38.9199 11.0621 38.3198 9.98605L36.7292 8.40527L37.5757 10.1829L37.999 11.7065Z" fill="#CDCDCD"/>
<path d="M38.5065 15.092L40.1486 16.7961C40.1191 15.6444 39.9651 14.5175 39.6887 13.432L38.0833 11.7908L38.3372 13.653L38.5065 15.092Z" fill="#C5000D"/>
<path d="M38.1685 18.3935L39.8982 20.1003C40.093 18.9917 40.1769 17.8853 40.1488 16.7961L38.5071 15.0076L38.1685 18.3935Z" fill="#CDCDCD"/>
<path d="M37.3216 21.6738L39.0154 23.3514C39.2194 22.8005 39.3982 22.2474 39.5518 21.6738C39.6936 21.1448 39.8054 20.6222 39.893 20.1112L38.1685 18.3936C38.084 18.986 37.8838 19.5685 37.745 20.0864C37.5925 20.6555 37.4906 21.2504 37.3216 21.6738Z" fill="#C5000D"/>
<path d="M35.799 24.8921L37.5129 26.546C37.7784 26.0947 38.0184 25.6332 38.2316 25.1639C38.524 24.5553 38.7841 23.9374 39.0109 23.3129L37.3225 21.6365C36.8998 22.6647 36.5612 23.6069 35.799 24.8921Z" fill="#CDCDCD"/>
<path d="M33.5982 27.9588L35.3345 29.6839C36.1461 28.684 36.8764 27.6345 37.5176 26.5465L35.7994 24.9111C35.4195 25.6723 34.4445 26.944 33.5982 27.9588Z" fill="#C5000D"/>
<path d="M30.804 31.1752L32.5014 32.7623C33.5159 31.7928 34.4628 30.7638 35.3341 29.684L33.6827 27.9583C33.005 28.9735 31.4813 30.4975 30.804 31.1752Z" fill="#CDCDCD"/>
<path d="M27.1646 34.0537L28.9239 35.7777C30.1817 34.8473 31.3776 33.8393 32.5016 32.7623L30.72 31.0911C29.6194 32.1062 28.5185 33.1229 27.1646 34.0537Z" fill="#C5000D"/>
<path d="M16.654 37.6779L16.8493 37.6949L16.7053 38.0395L24.3622 38.7094C25.9421 37.8351 27.4668 36.8564 28.9225 35.7823L27.1641 34.0536L5.79993 32.1998L7.42428 33.9014C9.88446 36.0586 13.0947 37.3722 16.654 37.6779Z" fill="#CDCDCD"/>
<path d="M16.4983 39.8097L18.3483 41.507C20.4047 40.7195 22.416 39.7838 24.3622 38.7093L22.5088 37.1007L16.4983 39.8097Z" fill="#C5000D"/>
<path d="M14.7292 42.7555C16.0089 42.367 17.2003 41.948 18.3552 41.5075L16.5838 39.8937L13.0283 41.0792L14.7292 42.7555Z" fill="#CDCDCD"/>
<path d="M21.3524 8.36753C21.6127 8.39076 21.8874 8.33872 22.1416 8.21799C22.3958 8.09726 22.6181 7.91327 22.7805 7.68931C22.9428 7.46535 23.0379 7.21149 23.0536 6.95984C23.0693 6.70819 23.005 6.47007 22.8687 6.27561C22.7325 6.08115 22.5306 5.9391 22.2884 5.86742C22.0462 5.79575 21.7746 5.79768 21.5082 5.87296C21.2417 5.94825 20.9922 6.09351 20.7913 6.29036C20.5904 6.48721 20.4472 6.7268 20.3796 6.97882C20.2892 7.31626 20.3409 7.65201 20.5233 7.91237C20.7056 8.17274 21.0038 8.33644 21.3524 8.36753Z" fill="#CDCDCD"/>
<path d="M16.2709 8.15049C16.5312 8.17372 16.8058 8.12167 17.0601 8.00095C17.3143 7.88022 17.5366 7.69623 17.6989 7.47227C17.8613 7.24831 17.9563 6.99445 17.972 6.7428C17.9877 6.49115 17.9234 6.25303 17.7872 6.05857C17.651 5.86411 17.449 5.72206 17.2068 5.65038C16.9646 5.57871 16.6931 5.58064 16.4266 5.65592C16.1601 5.73121 15.9107 5.87647 15.7098 6.07332C15.5089 6.27017 15.3656 6.50976 15.2981 6.76178C15.2083 7.09909 15.2603 7.43452 15.4426 7.69474C15.6248 7.95497 15.9226 8.11883 16.2709 8.15049Z" fill="#CDCDCD"/>
<path d="M17.8518 11.9035C18.1122 11.9236 18.3859 11.8687 18.6383 11.7458C18.8908 11.6228 19.1106 11.4374 19.2701 11.2128C19.4297 10.9882 19.5217 10.7346 19.5346 10.4839C19.5475 10.2333 19.4808 9.99688 19.3427 9.80454C19.2047 9.6122 19.0016 9.47257 18.7591 9.40327C18.5165 9.33396 18.2455 9.3381 17.9801 9.41516C17.7147 9.49222 17.4668 9.63874 17.2679 9.83622C17.069 10.0337 16.9278 10.2733 16.8623 10.5247C16.8186 10.6922 16.8096 10.8608 16.8358 11.0208C16.8619 11.1808 16.9227 11.3291 17.0146 11.4572C17.1066 11.5853 17.2278 11.6907 17.3715 11.7673C17.5152 11.8439 17.6784 11.8902 17.8518 11.9035Z" fill="#CDCDCD"/>
<path d="M12.8253 11.4639C13.0856 11.4867 13.3601 11.4341 13.6139 11.313C13.8677 11.1918 14.0895 11.0074 14.2511 10.7832C14.4127 10.559 14.5068 10.3051 14.5215 10.0537C14.5362 9.80235 14.4708 9.56478 14.3337 9.37115C14.1965 9.17753 13.9938 9.03657 13.7511 8.96617C13.5085 8.89576 13.2369 8.89907 12.9708 8.97568C12.7047 9.05229 12.4561 9.19875 12.2565 9.39648C12.0569 9.59421 11.9152 9.83431 11.8496 10.0863C11.7621 10.4222 11.8155 10.7556 11.9983 11.0136C12.1811 11.2717 12.4784 11.4336 12.8253 11.4639Z" fill="#CDCDCD"/>
<path d="M19.4757 15.3719C19.7356 15.3946 20.0096 15.3423 20.2631 15.2215C20.5167 15.1006 20.7383 14.9168 20.9 14.6932C21.0617 14.4695 21.1563 14.2161 21.1717 13.9651C21.187 13.714 21.1226 13.4765 20.9865 13.2825C20.8503 13.0886 20.6486 12.9471 20.4069 12.8757C20.1651 12.8043 19.8942 12.8064 19.6283 12.8816C19.3624 12.9569 19.1135 13.1019 18.9131 13.2983C18.7126 13.4948 18.5697 13.7339 18.5023 13.9854C18.412 14.3226 18.4637 14.6581 18.6463 14.9182C18.8288 15.1782 19.1272 15.3414 19.4757 15.3719Z" fill="#CDCDCD"/>
<path d="M14.3941 15.1548C14.654 15.1776 14.9281 15.1252 15.1816 15.0044C15.4351 14.8836 15.6568 14.6998 15.8185 14.4761C15.9802 14.2525 16.0747 13.9991 16.0901 13.748C16.1055 13.4969 16.0411 13.2594 15.9049 13.0655C15.7688 12.8716 15.5671 12.73 15.3253 12.6587C15.0836 12.5873 14.8126 12.5894 14.5467 12.6646C14.2808 12.7398 14.0319 12.8848 13.8315 13.0813C13.6311 13.2778 13.4882 13.5169 13.4208 13.7683C13.3311 14.1055 13.3831 14.4407 13.5656 14.7005C13.748 14.9604 14.046 15.1238 14.3941 15.1548Z" fill="#CDCDCD"/>
<path d="M9.38837 14.717C9.64828 14.7393 9.9222 14.6866 10.1755 14.5655C10.4288 14.4444 10.6501 14.2604 10.8115 14.0366C10.9729 13.8129 11.067 13.5596 11.0821 13.3086C11.0972 13.0577 11.0325 12.8204 10.8963 12.6267C10.76 12.433 10.5582 12.2916 10.3165 12.2204C10.0747 12.1493 9.80387 12.1515 9.53809 12.2268C9.2723 12.3021 9.02354 12.4471 8.82324 12.6435C8.62293 12.84 8.48007 13.079 8.41271 13.3304C8.36792 13.4975 8.35764 13.666 8.38244 13.8262C8.40725 13.9864 8.46666 14.1352 8.55728 14.264C8.6479 14.3928 8.76795 14.4991 8.91056 14.5768C9.05317 14.6546 9.21553 14.7022 9.38837 14.717Z" fill="#CDCDCD"/>
<path fill-rule="evenodd" clip-rule="evenodd" d="M12.884 5.83422C12.9346 5.96268 12.9634 6.10145 12.9615 6.24743C12.9581 6.50335 12.8706 6.76506 12.7116 6.99789C12.5525 7.23072 12.329 7.42356 12.0705 7.55097C11.812 7.67838 11.5305 7.73424 11.264 7.71113C11.0774 7.6948 10.9032 7.64019 10.7534 7.55062C10.7018 7.51979 10.655 7.48365 10.6103 7.44542C11.2385 6.9418 11.8949 6.46652 12.5788 6.0257C12.6798 5.96058 12.7822 5.89766 12.884 5.83422Z" fill="#CDCDCD"/>
<path d="M39.5534 21.6739C40.4864 18.1935 40.3319 14.6979 39.1094 11.629C37.8869 8.56013 35.6513 6.05589 32.6854 4.43297C29.7194 2.81005 26.1563 2.14135 22.4466 2.51143C18.737 2.88152 15.0474 4.27376 11.8445 6.5121C8.6416 8.75044 6.06923 11.7343 4.4527 15.0864C2.83618 18.4385 2.24811 22.0083 2.76286 25.3442C3.27761 28.6802 4.87207 31.6325 7.34458 33.8278C9.8171 36.0231 13.0566 37.3628 16.6535 37.6775L16.8487 37.6946L13.0285 41.0791L14.7274 42.7598C32.5105 37.3062 37.8019 26.1572 38.2456 25.1859C38.8028 24.0427 39.2437 22.8678 39.5614 21.6792L39.5534 21.6739Z" stroke="#082422" stroke-width="0.2" stroke-miterlimit="10" stroke-linejoin="round"/>
<path d="M21.8909 13.6536L25.3086 0.898399C25.0067 0.85833 24.7012 0.822506 24.3957 0.795774C19.8534 0.39812 15.0348 1.65991 10.8881 4.33283C6.74132 7.00575 3.56677 10.8962 1.98916 15.2386L21.0201 16.9036L21.8909 13.6536Z" fill="#0052B4"/>
<path d="M33.7761 4.71282C31.5132 2.66622 28.5836 1.34647 25.3088 0.898438L24.5041 3.90163L33.7761 4.71282Z" fill="white"/>
<path d="M23.6331 7.15155L36.629 8.28854C35.8815 6.94994 34.9214 5.74666 33.7758 4.7128L24.5039 3.90161L23.6331 7.15155Z" fill="#FF003D"/>
<path d="M22.7613 10.4059L37.997 11.7389C37.6872 10.5247 37.2281 9.36908 36.628 8.293L23.6321 7.15601L22.7613 10.4059Z" fill="white"/>
<path d="M21.8908 13.6537L38.4567 15.1031C38.4272 13.9514 38.2731 12.8244 37.9967 11.739L22.761 10.406L21.8908 13.6537Z" fill="#FF003D"/>
<path d="M21.02 16.9035L38.2062 18.4071C38.401 17.2985 38.4849 16.1921 38.4568 15.1029L21.8909 13.6536L21.02 16.9035Z" fill="white"/>
<path d="M1.12696 18.4914L37.3234 21.6582C37.5274 21.1073 37.7062 20.5541 37.8598 19.9806C38.0016 19.4516 38.1134 18.929 38.201 18.4179L1.98621 15.2496C1.79919 15.7633 1.63224 16.281 1.49346 16.799C1.34097 17.3681 1.22074 17.9308 1.12696 18.4914Z" fill="#FF003D"/>
<path d="M0.901677 21.7979L35.8208 24.8529C36.0863 24.4069 36.3262 23.9508 36.5394 23.487C36.8318 22.8856 37.092 22.275 37.3187 21.6578L1.12695 18.4915C0.941371 19.6015 0.865946 20.7086 0.901677 21.7979Z" fill="white"/>
<path d="M1.38791 25.1688L33.6421 27.9907C34.4537 26.9908 35.184 25.9413 35.8253 24.8533L0.901611 21.7979C0.939601 22.9527 1.10251 24.0819 1.38791 25.1688Z" fill="#FF003D"/>
<path d="M2.80089 28.6187L30.8097 31.0691C31.8242 30.0996 32.7711 29.0706 33.6424 27.9908L1.38818 25.1689C1.71066 26.3865 2.1845 27.5436 2.80089 28.6187Z" fill="white"/>
<path d="M5.73395 32.2037L27.2322 34.0845C28.4899 33.1541 29.6858 32.1461 30.8098 31.0691L2.80103 28.6187C3.57268 29.9647 4.55975 31.1712 5.73395 32.2037Z" fill="#FF003D"/>
<path d="M14.9624 35.9847L15.1577 36.0018L15.0137 36.3464L22.6706 37.0163C24.2505 36.1419 25.7752 35.1633 27.2309 34.0891L5.73267 32.2083C8.19284 34.3655 11.4031 35.679 14.9624 35.9847Z" fill="white"/>
<path d="M13.6701 39.5524L16.6566 39.8137C18.7129 39.0263 20.7243 38.0906 22.6705 37.016L15.0135 36.3461L13.6701 39.5524Z" fill="#FF003D"/>
<path d="M13.0372 41.0623C14.3169 40.6738 15.5084 40.2548 16.6633 39.8143L13.6768 39.5531L13.0372 41.0623Z" fill="white"/>
<path d="M19.6608 6.67442C19.9211 6.69764 20.1957 6.6456 20.4499 6.52487C20.7041 6.40414 20.9265 6.22016 21.0888 5.9962C21.2512 5.77224 21.3462 5.51837 21.3619 5.26672C21.3776 5.01507 21.3133 4.77695 21.1771 4.58249C21.0409 4.38804 20.8389 4.24598 20.5967 4.17431C20.3545 4.10264 20.083 4.10456 19.8165 4.17985C19.55 4.25513 19.3006 4.40039 19.0997 4.59724C18.8988 4.7941 18.7555 5.03369 18.688 5.28571C18.5976 5.62314 18.6492 5.95889 18.8316 6.21926C19.014 6.47962 19.3122 6.64332 19.6608 6.67442Z" fill="white"/>
<path d="M14.5792 6.45713C14.8395 6.48036 15.1142 6.42832 15.3684 6.30759C15.6226 6.18686 15.8449 6.00287 16.0073 5.77891C16.1696 5.55495 16.2647 5.30109 16.2804 5.04944C16.2961 4.79779 16.2318 4.55967 16.0956 4.36521C15.9593 4.17075 15.7574 4.0287 15.5152 3.95702C15.273 3.88535 15.0015 3.88728 14.735 3.96256C14.4685 4.03785 14.219 4.18311 14.0181 4.37996C13.8173 4.57681 13.674 4.8164 13.6065 5.06842C13.5167 5.40573 13.5686 5.74116 13.7509 6.00138C13.9332 6.26161 14.231 6.42547 14.5792 6.45713Z" fill="white"/>
<path d="M16.1597 10.2104C16.4201 10.2305 16.6938 10.1756 16.9462 10.0527C17.1986 9.92971 17.4185 9.74424 17.578 9.51966C17.7375 9.29507 17.8296 9.04145 17.8425 8.79081C17.8554 8.54018 17.7886 8.30376 17.6506 8.11143C17.5126 7.91909 17.3094 7.77945 17.0669 7.71015C16.8244 7.64085 16.5533 7.64499 16.2879 7.72205C16.0225 7.7991 15.7747 7.94562 15.5758 8.14311C15.3768 8.34059 15.2357 8.58018 15.1701 8.83162C15.1265 8.99908 15.1175 9.16765 15.1436 9.32767C15.1698 9.48768 15.2306 9.63599 15.3225 9.76409C15.4144 9.89219 15.5357 9.99756 15.6794 10.0741C15.823 10.1507 15.9862 10.197 16.1597 10.2104Z" fill="white"/>
<path d="M11.1332 9.77081C11.3935 9.79357 11.6679 9.74103 11.9218 9.61984C12.1756 9.49865 12.3974 9.31427 12.5589 9.09009C12.7205 8.86591 12.8146 8.61202 12.8293 8.36063C12.844 8.10924 12.7787 7.87166 12.6415 7.67804C12.5044 7.48441 12.3016 7.34346 12.059 7.27305C11.8164 7.20264 11.5448 7.20596 11.2787 7.28257C11.0126 7.35918 10.764 7.50564 10.5643 7.70337C10.3647 7.9011 10.2231 8.1412 10.1574 8.39321C10.0699 8.72911 10.1234 9.06245 10.3062 9.32053C10.489 9.5786 10.7862 9.74046 11.1332 9.77081Z" fill="white"/>
<path d="M17.7838 13.6788C18.0437 13.7015 18.3177 13.6492 18.5712 13.5283C18.8248 13.4075 19.0464 13.2237 19.2081 13C19.3698 12.7764 19.4644 12.523 19.4798 12.2719C19.4951 12.0208 19.4307 11.7833 19.2946 11.5894C19.1584 11.3955 18.9568 11.2539 18.715 11.1826C18.4732 11.1112 18.2023 11.1133 17.9364 11.1885C17.6705 11.2637 17.4216 11.4088 17.2212 11.6052C17.0207 11.8017 16.8778 12.0408 16.8104 12.2923C16.7201 12.6295 16.7718 12.965 16.9544 13.225C17.1369 13.4851 17.4353 13.6483 17.7838 13.6788Z" fill="white"/>
<path d="M12.7022 13.4617C12.9621 13.4845 13.2362 13.4321 13.4897 13.3113C13.7432 13.1905 13.9649 13.0066 14.1266 12.783C14.2883 12.5594 14.3828 12.306 14.3982 12.0549C14.4136 11.8038 14.3492 11.5663 14.213 11.3724C14.0769 11.1785 13.8752 11.0369 13.6335 10.9655C13.3917 10.8942 13.1207 10.8962 12.8548 10.9715C12.5889 11.0467 12.34 11.1917 12.1396 11.3882C11.9392 11.5847 11.7963 11.8238 11.7289 12.0752C11.6392 12.4123 11.6912 12.7475 11.8737 13.0074C12.0561 13.2673 12.3541 13.4307 12.7022 13.4617Z" fill="white"/>
<path d="M7.69647 13.0237C7.95639 13.046 8.23031 12.9932 8.48361 12.8721C8.73691 12.751 8.95823 12.567 9.1196 12.3433C9.28097 12.1196 9.37515 11.8662 9.39024 11.6153C9.40533 11.3643 9.34065 11.127 9.20437 10.9333C9.0681 10.7396 8.86634 10.5982 8.6246 10.5271C8.38286 10.4559 8.11198 10.4581 7.84619 10.5334C7.58041 10.6087 7.33165 10.7537 7.13134 10.9502C6.93104 11.1466 6.78818 11.3856 6.72082 11.637C6.67603 11.8042 6.66574 11.9727 6.69055 12.1329C6.71535 12.2931 6.77477 12.4418 6.86539 12.5706C6.95601 12.6994 7.07606 12.8057 7.21866 12.8835C7.36127 12.9612 7.52364 13.0089 7.69647 13.0237Z" fill="white"/>
<path fill-rule="evenodd" clip-rule="evenodd" d="M11.1911 4.14102C11.242 4.26963 11.2714 4.4081 11.2696 4.55431C11.2662 4.8103 11.1795 5.0729 11.0204 5.3058C10.8613 5.5386 10.6369 5.7314 10.3784 5.8588C10.1201 5.98603 9.83911 6.04206 9.57278 6.01905C9.38602 6.00277 9.2112 5.94809 9.06123 5.85844C9.00941 5.82746 8.96354 5.78983 8.91867 5.75136C9.5465 5.24809 10.2032 4.77408 10.8866 4.33352C10.9876 4.26848 11.0894 4.20438 11.1911 4.14102Z" fill="white"/>
<path d="M37.8613 19.9808C38.7943 16.5004 38.6398 13.0048 37.4173 9.93589C36.1948 6.86702 33.9592 4.36277 30.9932 2.73985C28.0273 1.11693 24.4642 0.448233 20.7545 0.818317C17.0448 1.1884 13.3553 2.58065 10.1524 4.81899C6.94946 7.05733 4.37709 10.0412 2.76057 13.3933C1.14404 16.7454 0.55597 20.3152 1.07072 23.6511C1.58547 26.987 3.17993 29.9393 5.65244 32.1347C8.12496 34.33 11.3645 35.6697 14.9613 35.9844L15.1566 36.0014L13.0352 41.0667C30.8183 35.613 36.1098 24.4641 36.5535 23.4928C37.1107 22.3496 37.5515 21.1747 37.8693 19.986L37.8613 19.9808Z" stroke="#082422" stroke-width="0.2" stroke-miterlimit="10" stroke-linejoin="round"/>
</svg>
