<svg width="43" height="49" viewBox="0 0 43 49" fill="none" xmlns="http://www.w3.org/2000/svg">
<g opacity="0.8">
<path d="M41.9999 21.5223C41.9999 10.189 32.7934 1 21.4359 1C10.0784 1 0.874512 10.189 0.874512 21.5223C0.874512 32.8556 10.081 42.0446 21.4359 42.0446C21.5087 42.0446 21.5814 42.0394 21.6567 42.0394L20.8125 48.0237C38.8462 40.0352 41.3921 26.8013 41.5817 25.6501C41.8545 24.3174 41.9973 22.9354 41.9973 21.5223H41.9999Z" fill="#00CD65"/>
<path d="M41.2387 21.6728L21.3995 6.82617L1.61743 21.6728L21.3995 36.5168L41.2387 21.6728Z" fill="#FFDE00"/>
<path d="M21.4281 28.2353C25.0594 28.2353 28.0031 25.2972 28.0031 21.6728C28.0031 18.0485 25.0594 15.1104 21.4281 15.1104C17.7969 15.1104 14.8531 18.0485 14.8531 21.6728C14.8531 25.2972 17.7969 28.2353 21.4281 28.2353Z" fill="#1E3583"/>
</g>
</svg>
