<svg width="43" height="48" viewBox="0 0 43 48" fill="none" xmlns="http://www.w3.org/2000/svg">
<g clip-path="url(#clip0_1583_2259)">
<mask id="mask0_1583_2259" style="mask-type:alpha" maskUnits="userSpaceOnUse" x="1" y="0" width="42" height="48">
<path d="M42.8295 21.1035C42.8301 17.0874 41.6309 13.1614 39.3836 9.82194C37.1364 6.48245 33.942 3.87951 30.2045 2.34227C26.467 0.805039 22.3542 0.402566 18.3863 1.18575C14.4184 1.96894 10.7735 3.9026 7.91265 6.74221C5.05179 9.58182 3.10345 13.1998 2.314 17.1387C1.52455 21.0775 1.92947 25.1603 3.47754 28.8708C5.0256 32.5812 7.64729 35.7525 11.0111 37.9838C14.3748 40.215 18.3296 41.406 22.3752 41.406H22.5948L21.755 47.3261C39.6926 39.4232 42.2249 26.3311 42.4264 25.1922C42.7022 23.8483 42.8407 22.4802 42.8399 21.1086L42.8295 21.1035Z" fill="#DCFF00"/>
</mask>
<g mask="url(#mask0_1583_2259)">
<path d="M-7.31396 0.216553H52.1397V48.7031H-7.31396V0.216553Z" fill="#004699"/>
<path d="M-7.31396 9.20581H52.1397V33.0111H-7.31396V9.20581Z" fill="white"/>
<path d="M-7.31396 15.1531H52.1397V27.0557H-7.31396V15.1531Z" fill="#FF003D"/>
</g>
</g>
<defs>
<clipPath id="clip0_1583_2259">
<rect width="42.843" height="48" fill="white"/>
</clipPath>
</defs>
</svg>
