<svg width="43" height="48" viewBox="0 0 43 48" fill="none" xmlns="http://www.w3.org/2000/svg">
<mask id="mask0_664_11834" style="mask-type:luminance" maskUnits="userSpaceOnUse" x="0" y="0" width="42" height="48">
<path d="M41.8002 20.9178C41.8002 9.58737 32.596 0.400635 21.2414 0.400635C9.88669 0.400635 0.685059 9.58737 0.685059 20.9178C0.685059 32.2483 9.88929 41.435 21.2414 41.435C21.3141 41.435 21.3868 41.4299 21.4621 41.4299L20.618 47.4126C38.6473 39.4261 41.1925 26.1955 41.3821 25.0446C41.6548 23.7122 41.7976 22.3306 41.7976 20.9178H41.8002Z" fill="white"/>
</mask>
<g mask="url(#mask0_664_11834)">
<path d="M47.7535 32.0254H-5.26929V47.4689H47.7535V32.0254Z" fill="#ED1C24"/>
<path d="M47.4961 22.2446H-5.26929V32.2829H47.4961V22.2446Z" fill="#034EA2"/>
<path d="M47.7535 -7.87036H-5.26929V22.2445H47.7535V-7.87036Z" fill="#FFDD00"/>
</g>
<rect x="14.5503" y="14.781" width="13.127" height="15.4435" rx="6.56349" fill="#FFDD00"/>
<path d="M22.7869 15.0016C22.7869 15.8545 22.0955 16.546 21.2426 16.546C20.3897 16.546 19.6982 15.8545 19.6982 15.0016C19.6982 14.1487 20.3897 13.4573 21.2426 13.4573C22.0955 13.4573 22.7869 14.1487 22.7869 15.0016Z" fill="white"/>
<path d="M16.3523 21.8599C16.3523 19.2301 18.4842 17.0981 21.114 17.0981C23.7439 17.0981 25.8758 19.2301 25.8758 21.8599V23.4042C25.8758 26.0341 23.7439 28.166 21.114 28.166C18.4842 28.166 16.3523 26.0341 16.3523 23.4042V21.8599Z" fill="#51BDDE"/>
<path d="M19.8656 14.7441H16.0947C16.0947 15.369 16.6012 15.8755 17.2261 15.8755H17.3234V15.9019C17.3234 16.6741 17.9494 17.3001 18.7216 17.3001C18.7216 17.8786 19.1906 18.3476 19.7691 18.3476H22.8431C23.4216 18.3476 23.8906 17.8786 23.8906 17.3001C24.5224 17.3001 25.0346 16.7879 25.0346 16.1561V15.8755H25.2591C25.8839 15.8755 26.3904 15.369 26.3904 14.7441H19.8656Z" fill="#662113"/>
</svg>
