<svg width="42" height="47" viewBox="0 0 42 47" fill="none" xmlns="http://www.w3.org/2000/svg">
<path d="M41.547 20.5058C41.547 9.17704 32.2619 0 20.7735 0C9.31136 0 0 9.17704 0 20.5058C0 31.8345 9.28513 41.0115 20.7735 41.0115C20.8522 41.0115 20.9309 41.0115 20.9833 41.0115L20.144 46.9999C38.3471 39.0154 40.9175 25.7942 41.1274 24.6276C41.4159 23.3055 41.547 21.9316 41.547 20.5058Z" fill="white"/>
<mask id="mask0_664_11837" style="mask-type:alpha" maskUnits="userSpaceOnUse" x="0" y="0" width="42" height="47">
<path d="M41.547 20.5058C41.547 9.17704 32.2619 0 20.7735 0C9.31136 0 0 9.17704 0 20.5058C0 31.8345 9.28513 41.0115 20.7735 41.0115C20.8522 41.0115 20.9309 41.0115 20.9833 41.0115L20.144 46.9999C38.3471 39.0154 40.9175 25.7942 41.1274 24.6276C41.4159 23.3055 41.547 21.9316 41.547 20.5058Z" fill="white"/>
</mask>
<g mask="url(#mask0_664_11837)">
<rect x="-20.645" y="26.3508" width="35.2757" height="29.3965" fill="#FF003D"/>
<rect x="-20.645" y="-14.804" width="35.2757" height="29.3965" fill="#0052B4"/>
<rect x="26.8792" y="26.3508" width="35.2757" height="29.3965" fill="#0052B4"/>
<rect x="26.8792" y="-14.8042" width="35.2757" height="29.3965" fill="#FF003D"/>
<mask id="mask1_664_11837" style="mask-type:alpha" maskUnits="userSpaceOnUse" x="15" y="20" width="12" height="6">
<rect x="15.0002" y="20.355" width="11.8484" height="5.60108" fill="#D9D9D9"/>
</mask>
<g mask="url(#mask1_664_11837)">
<rect x="15.6465" y="14.1072" width="10.5559" height="11.2022" rx="1.93884" stroke="#60D06F" stroke-width="0.861705"/>
</g>
<path d="M20.1513 20.3276V24.2322H17.6852C17.1178 24.2322 16.6577 23.7722 16.6577 23.2047V20.3276H20.1513ZM25.3348 15.3955C25.4096 15.3955 25.4593 15.4728 25.4284 15.5408L24.9806 16.5258V19.0946H21.3843V15.3955H25.3348Z" fill="#FF003D"/>
<path d="M24.9799 23.2052C24.9799 23.7726 24.5199 24.2327 23.9524 24.2327H21.3836V20.3281H24.9799V23.2052ZM20.1506 19.0951H16.657V16.5263L16.2093 15.5413C16.1784 15.4733 16.2281 15.396 16.3028 15.396H20.1506V19.0951Z" fill="#0052B4"/>
</g>
</svg>
