<svg width="45" height="51" viewBox="0 0 45 51" fill="none" xmlns="http://www.w3.org/2000/svg">
<g clip-path="url(#clip0_664_11839)">
<path d="M23.2624 16.4331V0.832852C22.9 0.816539 22.535 0.805664 22.1726 0.805664C16.786 0.805352 11.5943 2.81703 7.61922 6.44481C3.64416 10.0726 1.17364 15.0537 0.693848 20.408H23.2624V16.4331Z" fill="#0052B4"/>
<path d="M34.2577 4.50582C31.0003 2.29665 27.1959 1.0258 23.2622 0.832764V4.50582H34.2577Z" fill="white"/>
<path d="M23.2622 8.4807H38.6738C37.3922 6.95917 35.9061 5.62159 34.2577 4.50586H23.2622V8.4807Z" fill="#FF003D"/>
<path d="M23.2622 12.4609H41.3301C40.5942 11.0423 39.7033 9.7093 38.6738 8.48608H23.2622V12.4609Z" fill="white"/>
<path d="M23.2622 16.4331H42.9075C42.5157 15.0598 41.9873 13.7292 41.3301 12.4609H23.2622V16.4331Z" fill="#FF003D"/>
<path d="M23.2622 20.4079H43.6431C43.5245 19.0627 43.2782 17.7318 42.9075 16.4331H23.2622V20.4079Z" fill="white"/>
<path d="M0.704805 24.3856H43.6296C43.695 23.7059 43.7304 23.0262 43.7304 22.3248C43.7304 21.6777 43.6978 21.0415 43.6405 20.4216H0.693907C0.636696 21.0551 0.604004 21.6913 0.604004 22.3248C0.604004 23.0208 0.63942 23.7059 0.704805 24.3856Z" fill="#FF003D"/>
<path d="M1.47013 28.3603H42.8802C43.0494 27.7996 43.1859 27.2295 43.2889 26.6529C43.4409 25.9036 43.5528 25.1467 43.624 24.3855H0.70459C0.834208 25.7315 1.09052 27.0623 1.47013 28.3603Z" fill="white"/>
<path d="M3.0803 32.3379H41.3302C41.9601 31.0582 42.4805 29.7276 42.8858 28.3604H1.47021C1.87278 29.7364 2.41216 31.0689 3.0803 32.3379Z" fill="#FF003D"/>
<path d="M5.78857 36.3127H39.0038C39.8783 35.048 40.6561 33.7193 41.3304 32.3379H3.08057C3.83227 33.7592 4.74056 35.0924 5.78857 36.3127Z" fill="white"/>
<path d="M10.3001 40.2903H35.7946C36.963 39.0469 38.0358 37.7173 39.0038 36.3127H5.78857C7.10063 37.8406 8.61898 39.1793 10.3001 40.2903Z" fill="#FF003D"/>
<path d="M22.1673 43.8436H22.3989L22.3389 44.2705H31.4192C32.9784 43.0604 34.4413 41.7315 35.7945 40.2957H10.3C13.8205 42.6164 17.9481 43.8504 22.1673 43.8436Z" fill="white"/>
<path d="M21.7776 48.2426H25.3192C27.4575 47.0866 29.4976 45.7582 31.4191 44.2705H22.3388L21.7776 48.2426Z" fill="#FF003D"/>
<path d="M21.5132 50.1132C22.8754 49.5151 24.1258 48.8897 25.3273 48.2427H21.7856L21.5132 50.1132Z" fill="white"/>
<path d="M18.511 8.32567C18.8198 8.3262 19.1219 8.2353 19.379 8.06444C19.6361 7.89359 19.8366 7.65048 19.9551 7.36586C20.0737 7.08125 20.105 6.76793 20.0451 6.46556C19.9852 6.16319 19.8367 5.88535 19.6185 5.66721C19.4003 5.44907 19.1221 5.30043 18.8192 5.24009C18.5164 5.17976 18.2023 5.21046 17.9169 5.32829C17.6315 5.44612 17.3876 5.64579 17.2159 5.90203C17.0443 6.15828 16.9526 6.45958 16.9526 6.76781C16.9526 7.18051 17.1167 7.57635 17.4089 7.86842C17.7011 8.1605 18.0974 8.32495 18.511 8.32567Z" fill="white"/>
<path d="M12.5556 8.59764C12.8645 8.59818 13.1666 8.50727 13.4237 8.33642C13.6807 8.16556 13.8812 7.92245 13.9998 7.63784C14.1184 7.35322 14.1497 7.03991 14.0898 6.73753C14.0298 6.43516 13.8814 6.15732 13.6632 5.93918C13.445 5.72104 13.1668 5.5724 12.8639 5.51207C12.561 5.45174 12.247 5.48243 11.9616 5.60026C11.6762 5.71809 11.4322 5.91776 11.2606 6.17401C11.0889 6.43025 10.9973 6.73156 10.9973 7.03979C10.998 7.45226 11.1624 7.84768 11.4544 8.1396C11.7464 8.43152 12.1423 8.5962 12.5556 8.59764Z" fill="white"/>
<path d="M15.5525 12.9178C15.8604 12.9146 16.1605 12.8203 16.4149 12.647C16.6692 12.4737 16.8664 12.2291 16.9815 11.944C17.0966 11.659 17.1245 11.3463 17.0616 11.0454C16.9988 10.7445 16.848 10.469 16.6284 10.2536C16.4087 10.0381 16.13 9.8925 15.8275 9.83504C15.5249 9.77758 15.2121 9.81087 14.9285 9.9307C14.6449 10.0505 14.4033 10.2515 14.2341 10.5083C14.0648 10.7651 13.9757 11.0662 13.9778 11.3735C13.9792 11.5782 14.0211 11.7806 14.1011 11.9691C14.1811 12.1576 14.2976 12.3285 14.4439 12.472C14.5902 12.6154 14.7634 12.7287 14.9536 12.8052C15.1439 12.8817 15.3474 12.92 15.5525 12.9178Z" fill="white"/>
<path d="M9.59157 12.9176C9.90024 12.9176 10.202 12.8261 10.4585 12.6548C10.7149 12.4834 10.9147 12.2399 11.0323 11.9551C11.1499 11.6703 11.1801 11.3571 11.1191 11.0551C11.0581 10.7531 10.9086 10.4761 10.6896 10.259C10.4705 10.042 10.1918 9.89471 9.88885 9.83594C9.58585 9.77717 9.27218 9.80952 8.98763 9.9289C8.70308 10.0483 8.46047 10.2493 8.29055 10.5065C8.12064 10.7636 8.03108 11.0654 8.03324 11.3734C8.03612 11.7839 8.20157 12.1767 8.4935 12.466C8.78543 12.7553 9.18016 12.9177 9.59157 12.9176Z" fill="white"/>
<path d="M18.511 16.8925C18.8192 16.8925 19.1205 16.8013 19.3767 16.6304C19.633 16.4595 19.8327 16.2166 19.9507 15.9325C20.0686 15.6483 20.0995 15.3356 20.0393 15.034C19.9792 14.7323 19.8308 14.4552 19.6129 14.2377C19.3949 14.0202 19.1173 13.8721 18.815 13.8121C18.5127 13.7521 18.1994 13.7829 17.9146 13.9006C17.6299 14.0183 17.3865 14.2176 17.2153 14.4734C17.044 14.7291 16.9526 15.0298 16.9526 15.3374C16.9526 15.7498 17.1168 16.1454 17.4091 16.437C17.7013 16.7287 18.0977 16.8925 18.511 16.8925Z" fill="white"/>
<path d="M12.5556 17.1645C12.8639 17.1645 13.1651 17.0733 13.4214 16.9024C13.6777 16.7315 13.8774 16.4886 13.9953 16.2045C14.1133 15.9203 14.1442 15.6076 14.084 15.3059C14.0239 15.0043 13.8755 14.7272 13.6575 14.5097C13.4396 14.2922 13.1619 14.1441 12.8597 14.0841C12.5574 14.0241 12.244 14.0549 11.9593 14.1726C11.6745 14.2903 11.4312 14.4896 11.2599 14.7453C11.0887 15.0011 10.9973 15.3018 10.9973 15.6093C10.998 16.0216 11.1624 16.4167 11.4545 16.7082C11.7466 16.9997 12.1426 17.1638 12.5556 17.1645Z" fill="white"/>
<path d="M6.61916 17.1645C6.92725 17.1639 7.22827 17.0723 7.48417 16.9011C7.74008 16.7299 7.93939 16.4868 8.05692 16.2026C8.17445 15.9184 8.20492 15.6058 8.14448 15.3043C8.08405 15.0028 7.93542 14.7259 7.71737 14.5087C7.49933 14.2915 7.22166 14.1437 6.91945 14.0839C6.61724 14.0241 6.30405 14.0551 6.01946 14.1728C5.73487 14.2906 5.49165 14.4899 5.32054 14.7456C5.14943 15.0013 5.05811 15.3019 5.05811 15.6093C5.05811 15.8138 5.0985 16.0162 5.17699 16.2051C5.25547 16.3939 5.3705 16.5655 5.51549 16.7099C5.66048 16.8544 5.8326 16.9689 6.02197 17.0469C6.21135 17.1249 6.41429 17.1648 6.61916 17.1645Z" fill="white"/>
<path d="M7.91406 6.18237C8.01272 6.33068 8.08673 6.49489 8.12988 6.66968C8.20546 6.97588 8.18619 7.29764 8.07422 7.59253C7.9622 7.88748 7.76296 8.14173 7.50293 8.32104C7.24293 8.5003 6.93418 8.59617 6.61816 8.59644C6.3968 8.59647 6.17809 8.54918 5.97656 8.45776C5.90694 8.42618 5.84122 8.38768 5.77734 8.34644C6.34883 7.67899 6.96268 7.0433 7.61816 6.44507C7.71561 6.35613 7.81517 6.26936 7.91406 6.18237Z" fill="white"/>
</g>
<defs>
<clipPath id="clip0_664_11839">
<rect width="44.4" height="50.8" fill="white"/>
</clipPath>
</defs>
</svg>
