<svg width="101" height="80" viewBox="0 0 101 80" fill="none" xmlns="http://www.w3.org/2000/svg">
<g clip-path="url(#clip0_664_11609)">
<path d="M28.2269 56.8766C28.2727 56.8246 28.2678 56.7454 28.2158 56.6996C28.1639 56.6538 28.0846 56.6588 28.0388 56.7107L28.1329 56.7937L28.2269 56.8766ZM14.8327 67.9923C14.774 68.0291 14.7563 68.1065 14.7931 68.1652C14.8299 68.2239 14.9073 68.2416 14.9659 68.2048L14.8993 68.0985L14.8327 67.9923ZM28.1329 56.7937L28.0388 56.7107C24.8902 60.2829 19.7125 64.9295 14.8327 67.9923L14.8993 68.0985L14.9659 68.2048C19.8688 65.1275 25.0646 60.4644 28.2269 56.8766L28.1329 56.7937Z" fill="#002522"/>
<path d="M56.097 30.8485L52.2229 35.6248L59.1793 53.652L70.7412 25.2408L56.097 30.8485Z" fill="#EFEBE7" stroke="#002522" stroke-width="0.25082" stroke-linecap="round" stroke-linejoin="round"/>
<path d="M81.986 5.44777L73.6245 43.2158L34.4674 36.9687L81.986 5.44777Z" fill="#EFEBE7" stroke="#002522" stroke-width="0.25082" stroke-linecap="round" stroke-linejoin="round"/>
<path d="M81.98 5.45395L58.9729 40.8843L59.1796 53.6513L49.1273 39.3193L81.98 5.45395Z" fill="#CFCABF" stroke="#002522" stroke-width="0.25082" stroke-linecap="round" stroke-linejoin="round"/>
<mask id="mask0_664_11609" style="mask-type:luminance" maskUnits="userSpaceOnUse" x="46" y="5" width="36" height="49">
<path d="M81.9502 5.35603L58.933 40.7882L59.137 53.5541L49.0868 39.2255L46.2547 25.9025L56.2901 5.6187L81.9502 5.35603Z" fill="white"/>
</mask>
<g mask="url(#mask0_664_11609)">
<path d="M62.7302 14.3871L65.4358 14.9224L65.3335 16.9993C66.7167 17.7464 67.4849 19.1506 67.5185 21.1699L64.7407 20.62C64.674 19.7446 64.3715 19.2442 63.8062 19.1326C63.6955 19.1105 63.5957 19.1054 63.507 19.1149C63.167 19.1506 62.9801 19.3946 62.9633 19.7258C62.9324 20.346 63.3692 20.6014 64.3139 21.1439L64.7856 21.4237C66.8262 22.6397 67.5742 23.718 67.4771 25.6772C67.3858 27.5297 66.4473 28.6144 64.854 28.7808C64.8187 28.7844 64.7843 28.7875 64.7486 28.7901L64.6336 31.101L61.9281 30.5656L62.043 28.237C60.431 27.444 59.6699 25.907 59.6615 23.858L62.6078 24.4413C62.634 25.3767 62.9841 25.92 63.6455 26.0503C63.7938 26.0803 63.9302 26.0881 64.0513 26.0762C64.4116 26.0383 64.6406 25.8116 64.663 25.3726C64.6877 24.8525 64.3465 24.6495 63.7339 24.2746L62.7311 23.6877C60.6874 22.5218 60.0214 21.2742 60.1165 19.3647C60.2015 17.6559 61.0398 16.594 62.5849 16.4326C62.6 16.4313 62.6147 16.429 62.6288 16.4281L62.7305 14.3848L62.7302 14.3871Z" fill="#EFEBE7" stroke="#002522" stroke-width="0.25082" stroke-linecap="round" stroke-linejoin="round"/>
<path d="M64.3306 9.43059C69.6082 10.4756 73.5914 17.2818 73.2264 24.6334C72.9102 31.0076 69.4308 35.6983 65.0711 36.1526C64.4017 36.2221 63.7121 36.1926 63.0095 36.0535C57.732 35.0086 53.7488 28.2024 54.1128 20.8511C54.428 14.4772 57.9087 9.78716 62.2681 9.33195C62.9375 9.26237 63.6271 9.29187 64.3296 9.43097L64.3306 9.43059ZM67.5178 21.1698C67.4841 19.1506 66.716 17.7464 65.3329 16.9993L65.4351 14.9225L62.7297 14.3872L62.628 16.4304C62.6129 16.4317 62.5979 16.4331 62.5842 16.435C61.0391 16.5964 60.1999 17.6586 60.1158 19.367C60.0208 21.2764 60.6877 22.5236 62.7304 23.6898L63.7331 24.2768C64.3457 24.6516 64.6868 24.8546 64.6621 25.3746C64.6398 25.8136 64.4107 26.0404 64.0505 26.0783C63.9298 26.0912 63.793 26.0824 63.6447 26.0524C62.9833 25.922 62.6343 25.3784 62.607 24.4434L59.6609 23.8601C59.6689 25.9081 60.4303 27.446 62.0422 28.239L61.9273 30.5676L64.6327 31.1029L64.7478 28.792C64.7835 28.7895 64.8188 28.786 64.8532 28.7828C66.4463 28.6164 67.3849 27.5317 67.4761 25.6793C67.5729 23.7191 66.8252 22.6419 64.7847 21.4259L64.313 21.1461C63.3688 20.6046 62.9317 20.3483 62.9625 19.728C62.9793 19.3968 63.1659 19.1519 63.5062 19.1172C63.5958 19.1073 63.6956 19.1124 63.8054 19.1349C64.3707 19.2465 64.6732 19.7468 64.7399 20.6222L67.5176 21.1721" fill="#29F5FF"/>
<path d="M64.3306 9.43059L64.355 9.30755C64.3319 9.30296 64.3079 9.30501 64.2858 9.31345L64.3306 9.43059ZM73.2264 24.6334L73.1012 24.6273L73.1012 24.6273L73.2264 24.6334ZM65.0711 36.1526L65.084 36.2773L65.0841 36.2773L65.0711 36.1526ZM63.0095 36.0535L62.9851 36.1766L62.9852 36.1766L63.0095 36.0535ZM54.1128 20.8511L54.238 20.8572L54.238 20.8572L54.1128 20.8511ZM62.2681 9.33195L62.2552 9.20718L62.2551 9.20719L62.2681 9.33195ZM64.3296 9.43097L64.3052 9.55402C64.3284 9.5586 64.3524 9.55655 64.3744 9.54811L64.3296 9.43097ZM65.3329 16.9993L65.2077 16.9932C65.2053 17.0414 65.2308 17.0868 65.2733 17.1097L65.3329 16.9993ZM65.4351 14.9225L65.5603 14.9286C65.5634 14.8665 65.5205 14.8115 65.4595 14.7995L65.4351 14.9225ZM62.7297 14.3872L62.7541 14.2641C62.7183 14.2571 62.6813 14.2659 62.6526 14.2883C62.6238 14.3108 62.6063 14.3446 62.6045 14.381L62.7297 14.3872ZM62.628 16.4304L62.6389 16.5554C62.7013 16.5499 62.7501 16.4992 62.7532 16.4366L62.628 16.4304ZM62.5842 16.435L62.5971 16.5598L62.6015 16.5592L62.5842 16.435ZM60.1158 19.367L60.241 19.3731L60.241 19.3731L60.1158 19.367ZM62.7304 23.6898L62.7937 23.5816L62.7926 23.5809L62.7304 23.6898ZM63.7331 24.2768L63.7986 24.1697L63.7965 24.1685L63.7331 24.2768ZM64.6621 25.3746L64.7873 25.3809L64.7873 25.3805L64.6621 25.3746ZM64.0505 26.0783L64.0374 25.9535L64.0372 25.9536L64.0505 26.0783ZM63.6447 26.0524L63.6696 25.9294L63.669 25.9293L63.6447 26.0524ZM62.607 24.4434L62.7324 24.4397C62.7307 24.3812 62.6888 24.3317 62.6314 24.3203L62.607 24.4434ZM59.6609 23.8601L59.6853 23.737C59.6484 23.7297 59.6102 23.7394 59.5812 23.7633C59.5521 23.7873 59.5354 23.823 59.5355 23.8606L59.6609 23.8601ZM62.0422 28.239L62.1675 28.2451C62.1699 28.1951 62.1425 28.1485 62.0976 28.1264L62.0422 28.239ZM61.9273 30.5676L61.8021 30.5614C61.799 30.6236 61.8419 30.6785 61.9029 30.6906L61.9273 30.5676ZM64.6327 31.1029L64.6083 31.2259C64.6441 31.233 64.6811 31.2242 64.7099 31.2017C64.7386 31.1793 64.7561 31.1455 64.758 31.1091L64.6327 31.1029ZM64.7478 28.792L64.7389 28.6669C64.6756 28.6715 64.6257 28.7225 64.6225 28.7859L64.7478 28.792ZM64.8532 28.7828L64.8646 28.9077L64.8662 28.9076L64.8532 28.7828ZM67.4761 25.6793L67.3509 25.6731L67.3509 25.6732L67.4761 25.6793ZM64.7847 21.4259L64.8489 21.3181L64.8487 21.318L64.7847 21.4259ZM64.313 21.1461L64.377 21.0381L64.3754 21.0372L64.313 21.1461ZM62.9625 19.728L62.8373 19.7217L62.8373 19.7219L62.9625 19.728ZM63.5062 19.1172L63.5189 19.2419L63.5199 19.2418L63.5062 19.1172ZM63.8054 19.1349L63.7802 19.2578L63.7811 19.258L63.8054 19.1349ZM64.7399 20.6222L64.6149 20.6318C64.6191 20.6879 64.6603 20.7343 64.7155 20.7452L64.7399 20.6222ZM64.3306 9.43059L64.3062 9.55364C66.8993 10.0671 69.1883 11.9996 70.7862 14.7304C72.3834 17.4598 73.2825 20.975 73.1012 24.6273L73.2264 24.6334L73.3516 24.6396C73.5353 20.9402 72.6252 17.3765 71.0027 14.6036C69.3809 11.8321 67.0395 9.83907 64.355 9.30755L64.3306 9.43059ZM73.2264 24.6334L73.1012 24.6273C72.7865 30.9718 69.3291 35.5828 65.0582 36.0278L65.0711 36.1526L65.0841 36.2773C69.5326 35.8138 73.034 31.0435 73.3516 24.6396L73.2264 24.6334ZM65.0711 36.1526L65.0582 36.0278C64.4013 36.0961 63.7243 36.0672 63.0339 35.9305L63.0095 36.0535L62.9852 36.1766C63.6999 36.3181 64.402 36.3482 65.084 36.2773L65.0711 36.1526ZM63.0095 36.0535L63.0339 35.9305C60.4408 35.4171 58.1519 33.4845 56.5538 30.7538C54.9565 28.0244 54.0572 24.5093 54.238 20.8572L54.1128 20.8511L53.9876 20.8449C53.8044 24.5441 54.7147 28.1078 56.3374 30.8806C57.9593 33.652 60.3007 35.6451 62.9851 36.1766L63.0095 36.0535ZM54.1128 20.8511L54.238 20.8572C54.5517 14.5132 58.0105 9.90265 62.281 9.4567L62.2681 9.33195L62.2551 9.20719C57.807 9.67167 54.3042 14.4413 53.9876 20.8449L54.1128 20.8511ZM62.2681 9.33195L62.281 9.45671C62.9379 9.38844 63.6148 9.41733 64.3052 9.55402L64.3296 9.43097L64.354 9.30792C63.6393 9.16642 62.9372 9.1363 62.2552 9.20718L62.2681 9.33195ZM64.3296 9.43097L64.3744 9.54811L64.3754 9.54774L64.3306 9.43059L64.2858 9.31345L64.2849 9.31383L64.3296 9.43097ZM67.5178 21.1698L67.6432 21.1676C67.609 19.1151 66.825 17.6627 65.3925 16.8889L65.3329 16.9993L65.2733 17.1097C66.607 17.8301 67.3593 19.1861 67.3924 21.1719L67.5178 21.1698ZM65.3329 16.9993L65.4581 17.0054L65.5603 14.9286L65.4351 14.9225L65.3099 14.9164L65.2077 16.9932L65.3329 16.9993ZM65.4351 14.9225L65.4595 14.7995L62.7541 14.2641L62.7297 14.3872L62.7053 14.5102L65.4107 15.0456L65.4351 14.9225ZM62.7297 14.3872L62.6045 14.381L62.5028 16.4242L62.628 16.4304L62.7532 16.4366L62.8549 14.3934L62.7297 14.3872ZM62.628 16.4304L62.6171 16.3055C62.6028 16.3067 62.5844 16.3083 62.5669 16.3108L62.5842 16.435L62.6015 16.5592C62.6114 16.5578 62.6231 16.5568 62.6389 16.5554L62.628 16.4304ZM62.5842 16.435L62.5712 16.3102C61.7711 16.3938 61.143 16.7126 60.7056 17.2408C60.2699 17.767 60.0335 18.4885 59.9906 19.3608L60.1158 19.367L60.241 19.3731C60.2822 18.537 60.5074 17.8733 60.8987 17.4008C61.2881 16.9305 61.8522 16.6375 62.5971 16.5597L62.5842 16.435ZM60.1158 19.367L59.9906 19.3608C59.9422 20.3319 60.0873 21.1474 60.5134 21.8708C60.9387 22.5927 61.6361 23.2095 62.6682 23.7988L62.7304 23.6898L62.7926 23.5809C61.782 23.0039 61.1246 22.4141 60.7295 21.7434C60.3353 21.0742 60.1943 20.3114 60.241 19.3731L60.1158 19.367ZM62.7304 23.6898L62.667 23.7981L63.6697 24.385L63.7331 24.2768L63.7965 24.1685L62.7937 23.5816L62.7304 23.6898ZM63.7331 24.2768L63.6676 24.3838C63.9796 24.5747 64.2016 24.7102 64.3469 24.8589C64.4823 24.9977 64.5475 25.1449 64.5369 25.3687L64.6621 25.3746L64.7873 25.3805C64.8014 25.0844 64.7084 24.8701 64.5263 24.6836C64.354 24.5072 64.0992 24.3537 63.7986 24.1697L63.7331 24.2768ZM64.6621 25.3746L64.5369 25.3683C64.5268 25.5676 64.4707 25.7035 64.39 25.7928C64.31 25.8813 64.1939 25.9371 64.0374 25.9535L64.0505 26.0783L64.0635 26.203C64.2673 26.1816 64.4458 26.105 64.576 25.961C64.7056 25.8176 64.7751 25.6207 64.7873 25.3809L64.6621 25.3746ZM64.0505 26.0783L64.0372 25.9536C63.932 25.9648 63.8083 25.9575 63.6696 25.9295L63.6447 26.0524L63.6198 26.1753C63.7776 26.2073 63.9275 26.2175 64.0637 26.203L64.0505 26.0783ZM63.6447 26.0524L63.669 25.9293C63.37 25.8704 63.1474 25.7206 62.9935 25.4816C62.8369 25.2386 62.7456 24.8941 62.7324 24.4397L62.607 24.4434L62.4817 24.4471C62.4957 24.9276 62.5925 25.3225 62.7827 25.6176C62.9754 25.9168 63.2581 26.104 63.6204 26.1755L63.6447 26.0524ZM62.607 24.4434L62.6314 24.3203L59.6853 23.737L59.6609 23.8601L59.6365 23.9831L62.5826 24.5664L62.607 24.4434ZM59.6609 23.8601L59.5355 23.8606C59.5436 25.9416 60.3206 27.5318 61.9869 28.3515L62.0422 28.239L62.0976 28.1264C60.5401 27.3602 59.7941 25.8745 59.7863 23.8596L59.6609 23.8601ZM62.0422 28.239L61.917 28.2328L61.8021 30.5614L61.9273 30.5676L62.0526 30.5737L62.1675 28.2451L62.0422 28.239ZM61.9273 30.5676L61.9029 30.6906L64.6083 31.2259L64.6327 31.1029L64.6571 30.9798L61.9517 30.4445L61.9273 30.5676ZM64.6327 31.1029L64.758 31.1091L64.873 28.7982L64.7478 28.792L64.6225 28.7859L64.5075 31.0967L64.6327 31.1029ZM64.7478 28.792L64.7567 28.9172C64.794 28.9145 64.8315 28.9107 64.8646 28.9077L64.8532 28.7828L64.8418 28.6579C64.8061 28.6612 64.7729 28.6645 64.7389 28.6669L64.7478 28.792ZM64.8532 28.7828L64.8662 28.9076C65.6895 28.8215 66.3541 28.4964 66.8233 27.9445C67.2913 27.3942 67.5548 26.6307 67.6014 25.6854L67.4761 25.6793L67.3509 25.6732C67.3062 26.5802 67.0548 27.2852 66.6324 27.782C66.2113 28.2772 65.61 28.5776 64.8402 28.658L64.8532 28.7828ZM67.4761 25.6793L67.6014 25.6854C67.6507 24.687 67.4851 23.8996 67.0373 23.2055C66.5919 22.5151 65.8753 21.9298 64.8489 21.3181L64.7847 21.4259L64.7205 21.5336C65.7346 22.138 66.4122 22.6993 66.8266 23.3416C67.2385 23.9801 67.3984 24.7114 67.3509 25.6731L67.4761 25.6793ZM64.7847 21.4259L64.8487 21.318L64.377 21.0382L64.313 21.1461L64.2491 21.254L64.7207 21.5338L64.7847 21.4259ZM64.313 21.1461L64.3754 21.0372C63.8981 20.7635 63.5681 20.572 63.3578 20.375C63.2552 20.2788 63.1858 20.1854 63.1429 20.0856C63.1003 19.9862 63.0808 19.8735 63.0877 19.7342L62.9625 19.728L62.8373 19.7219C62.8288 19.8927 62.8524 20.0446 62.9125 20.1847C62.9724 20.3242 63.0656 20.445 63.1864 20.5582C63.423 20.7798 63.7838 20.9872 64.2506 21.2549L64.313 21.1461ZM62.9625 19.728L63.0877 19.7343C63.0951 19.5901 63.1388 19.4744 63.2084 19.3928C63.2768 19.3127 63.3777 19.2563 63.5189 19.2419L63.5062 19.1172L63.4935 18.9924C63.2943 19.0127 63.1319 19.0962 63.0177 19.23C62.9048 19.3623 62.8468 19.5347 62.8373 19.7217L62.9625 19.728ZM63.5062 19.1172L63.5199 19.2418C63.5947 19.2336 63.6813 19.2375 63.7802 19.2578L63.8054 19.1349L63.8306 19.012C63.71 18.9873 63.597 18.981 63.4925 18.9925L63.5062 19.1172ZM63.8054 19.1349L63.7811 19.258C64.0285 19.3068 64.2163 19.4385 64.3532 19.6585C64.4929 19.883 64.5823 20.2045 64.6149 20.6318L64.7399 20.6222L64.8649 20.6126C64.8308 20.1646 64.7355 19.7981 64.5661 19.5258C64.3937 19.2489 64.1476 19.0746 63.8298 19.0118L63.8054 19.1349ZM64.7399 20.6222L64.7155 20.7452L67.4932 21.2952L67.5176 21.1721L67.542 21.0491L64.7643 20.4991L64.7399 20.6222Z" fill="#002522"/>
<path d="M65.0724 36.1522L63.2459 36.3424C62.5764 36.4119 61.8868 36.3824 61.1842 36.2433C55.9063 35.1982 51.9228 28.3919 52.2867 21.0405C52.6018 14.6665 56.0828 9.97642 60.4423 9.52126L62.2688 9.33109C57.9093 9.78625 54.4288 14.4773 54.1133 20.8503C53.7494 28.2017 57.7329 35.0081 63.0107 36.0531C63.7133 36.1922 64.4029 36.2217 65.0724 36.1522Z" fill="#16C6D3" stroke="#002522" stroke-width="0.25082" stroke-miterlimit="10" stroke-linejoin="round"/>
</g>
<path d="M91.8692 12.2044L91.7521 14.0725L96.6577 17.31L94.5078 8.22607L91.8692 12.2044Z" fill="#EFEBE7" stroke="#002522" stroke-width="0.25082" stroke-linecap="round" stroke-linejoin="round"/>
<path d="M93.8002 1.33406L98.3957 12.1702L87.5906 17.5437L93.8002 1.33406Z" fill="#EFEBE7" stroke="#002522" stroke-width="0.25082" stroke-linecap="round" stroke-linejoin="round"/>
<path d="M93.8002 1.33655L94.3538 14.1821L96.6583 17.3099L91.6382 15.5346L93.8002 1.33655Z" fill="#CFCABF" stroke="#002522" stroke-width="0.25082" stroke-linecap="round" stroke-linejoin="round"/>
<mask id="mask1_664_11609" style="mask-type:luminance" maskUnits="userSpaceOnUse" x="80" y="1" width="17" height="19">
<path d="M93.7756 1.32024L94.3261 14.1637L96.6312 17.2903L91.61 15.5166L85.3045 19.9117L80.3562 5.6541L93.7756 1.32024Z" fill="white"/>
</mask>
<g mask="url(#mask1_664_11609)">
<path d="M89.7579 8.72168L90.0547 7.93626L90.6722 8.07119C90.966 7.69394 91.4261 7.5333 92.0334 7.62428L91.729 8.43043C91.4631 8.40662 91.298 8.47209 91.2361 8.63592C91.224 8.66835 91.2174 8.69757 91.2157 8.72494C91.2087 8.82882 91.2728 8.89768 91.372 8.91864C91.5565 8.95918 91.6559 8.84104 91.8655 8.58389L91.9733 8.45585C92.4407 7.90426 92.8023 7.73348 93.385 7.86172C93.9359 7.98216 94.2144 8.31811 94.1837 8.80478C94.1831 8.815 94.182 8.82655 94.1814 8.83677L94.8693 8.98702L94.5725 9.77244L93.8797 9.62077C93.5601 10.0646 93.0613 10.2167 92.4469 10.1162L92.7702 9.26055C93.0519 9.29945 93.2322 9.22148 93.3057 9.02984C93.3216 8.98706 93.3317 8.9465 93.334 8.90891C93.3407 8.79847 93.2846 8.71873 93.1536 8.68998C92.9996 8.65664 92.9205 8.74922 92.7778 8.91399L92.5513 9.18535C92.0986 9.74024 91.6908 9.87754 91.123 9.75358C90.6147 9.64245 90.3382 9.33798 90.3676 8.86518C90.368 8.86055 90.3685 8.85593 90.3689 8.85131L89.761 8.71826L89.7579 8.72168Z" fill="#EFEBE7" stroke="#002522" stroke-width="0.25082" stroke-linecap="round" stroke-linejoin="round"/>
<path d="M90.1276 5.44372C91.6201 4.76971 93.8092 5.75195 95.017 7.63727C96.0644 9.27151 96.03 11.0487 95.0297 11.9313C94.8759 12.0669 94.7004 12.1809 94.5012 12.2705C93.0087 12.9445 90.8196 11.9623 89.6118 10.077C88.5645 8.44272 88.5989 6.66552 89.5991 5.78298C89.7529 5.64731 89.9284 5.53338 90.1276 5.44372Z" fill="#DCFF00" stroke="#002522" stroke-width="0.25082" stroke-miterlimit="10" stroke-linejoin="round"/>
<path d="M95.0288 11.9315L94.6097 12.3012C94.4559 12.4368 94.2804 12.5508 94.0812 12.6404C92.5886 13.3145 90.3995 12.3322 89.1916 10.4468C88.1443 8.81255 88.1786 7.03531 89.1789 6.15275L89.598 5.78311C88.5981 6.66664 88.5634 8.44291 89.6107 10.0772C90.8186 11.9626 93.0077 12.9448 94.5003 12.2708C94.6995 12.1811 94.875 12.0672 95.0288 11.9315Z" fill="#B9CC00" stroke="#002522" stroke-width="0.25082" stroke-miterlimit="10" stroke-linejoin="round"/>
</g>
<path d="M20.8388 51.9668L17.8468 53.2215L16.5891 63.3423L29.0473 53.0129L20.8388 51.9668Z" fill="#EFEBE7" stroke="#002522" stroke-width="0.25082" stroke-linecap="round" stroke-linejoin="round"/>
<path d="M39.2091 46.6131L25.909 62.0928L9.25375 49.416L39.2091 46.6131Z" fill="#EFEBE7" stroke="#002522" stroke-width="0.25082" stroke-linecap="round" stroke-linejoin="round"/>
<path d="M39.2048 46.6149L19.6756 57.3526L16.5891 63.3424L15.4862 54.1679L39.2048 46.6149Z" fill="#CFCABF" stroke="#002522" stroke-width="0.25082" stroke-linecap="round" stroke-linejoin="round"/>
<mask id="mask2_664_11609" style="mask-type:luminance" maskUnits="userSpaceOnUse" x="3" y="29" width="37" height="35">
<path d="M39.2128 46.5565L19.6793 57.2963L16.5912 63.2861L15.4906 54.1138L3.81747 47.6878L22.1704 29.0209L39.2128 46.5565Z" fill="white"/>
</mask>
<g mask="url(#mask2_664_11609)">
<path d="M24.6277 46.0052L26.0767 45.8628L26.3413 46.9272C27.1542 47.093 27.7565 47.6854 28.0811 48.7001L26.5934 48.8461C26.426 48.4141 26.1972 48.2081 25.8947 48.2372C25.8358 48.2431 25.7841 48.2562 25.7408 48.2739C25.5739 48.3434 25.5174 48.4952 25.5593 48.666C25.6386 48.9838 25.8984 49.0467 26.4582 49.176L26.7393 49.2451C27.9559 49.5478 28.4976 49.9787 28.7481 50.9828C28.9844 51.9324 28.6759 52.6234 27.896 52.951C27.8785 52.9577 27.8611 52.9644 27.8436 52.9711L28.1378 54.1564L26.6888 54.2988L26.3916 53.1057C25.4563 52.9512 24.8368 52.2908 24.5207 51.2573L26.0983 51.1024C26.2541 51.5711 26.5142 51.7918 26.8677 51.7565C26.9469 51.7484 27.0175 51.7325 27.0769 51.7075C27.2532 51.6333 27.3338 51.4834 27.2789 51.2586C27.2128 50.9925 27.0088 50.9417 26.642 50.8463L26.0458 50.7032C24.8355 50.426 24.309 49.898 24.0655 48.9179C23.8472 48.0416 24.1092 47.3773 24.8652 47.0599C24.873 47.0569 24.8798 47.0543 24.8875 47.0513L24.6273 46.0042L24.6277 46.0052Z" fill="#EFEBE7" stroke="#002522" stroke-width="0.25082" stroke-linecap="round" stroke-linejoin="round"/>
<path d="M30.0041 44.0587C32.1976 45.8612 32.3527 50.0215 30.3507 53.3498C28.6153 56.2357 25.8279 57.5503 23.6881 56.6738C23.3599 56.5392 23.0464 56.3534 22.7546 56.1137C20.5612 54.3113 20.4051 50.1514 22.4067 46.8221C24.1421 43.9363 26.9299 42.6226 29.0702 43.4978C29.3985 43.6323 29.7119 43.8181 30.0037 44.0578L30.0041 44.0587Z" fill="#DCFF00" stroke="#002522" stroke-width="0.25082" stroke-miterlimit="10" stroke-linejoin="round"/>
<path d="M23.6887 56.6741L22.7922 56.3068C22.4639 56.1723 22.1505 55.9865 21.8587 55.7468C19.6652 53.9444 19.5091 49.7844 21.5108 46.4551C23.2461 43.5693 26.034 42.2556 28.1743 43.1308L29.0708 43.4981C26.9301 42.622 24.1436 43.9362 22.4073 46.8224C20.4056 50.1517 20.5617 54.3117 22.7552 56.1141C23.047 56.3538 23.3604 56.5396 23.6887 56.6741Z" fill="#B9CC00" stroke="#002522" stroke-width="0.25082" stroke-miterlimit="10" stroke-linejoin="round"/>
</g>
<path d="M88.6085 22.6601C88.621 22.592 88.5759 22.5266 88.5078 22.5141C88.4397 22.5016 88.3743 22.5467 88.3618 22.6148L88.4851 22.6375L88.6085 22.6601ZM76.7977 53.9838C76.7591 54.0413 76.7744 54.1192 76.8319 54.1578C76.8894 54.1964 76.9673 54.1811 77.0059 54.1235L76.9018 54.0537L76.7977 53.9838ZM88.4851 22.6375L88.3618 22.6148C87.9046 25.1042 86.5574 30.6469 84.5511 36.7196C82.5442 42.794 79.8819 49.3868 76.7977 53.9838L76.9018 54.0537L77.0059 54.1235C80.1096 49.4974 82.7805 42.8782 84.7892 36.7982C86.7984 30.7167 88.1489 25.1628 88.6085 22.6601L88.4851 22.6375Z" fill="#002522"/>
<path d="M98.309 14.1503C98.2925 14.083 98.2247 14.0419 98.1574 14.0583C98.0901 14.0748 98.0489 14.1427 98.0654 14.21L98.1872 14.1802L98.309 14.1503ZM99.1995 40.9519C99.188 41.0202 99.234 41.0849 99.3023 41.0964C99.3706 41.1079 99.4353 41.0618 99.4468 40.9935L99.3232 40.9727L99.1995 40.9519ZM98.1872 14.1802L98.0654 14.21C99.8777 21.6212 100.65 32.3403 99.1995 40.9519L99.3232 40.9727L99.4468 40.9935C100.904 32.3436 100.128 21.5897 98.309 14.1503L98.1872 14.1802Z" fill="#002522"/>
<path d="M70.3471 49.571C70.3756 49.5078 70.3476 49.4335 70.2844 49.4051C70.2213 49.3766 70.1471 49.4047 70.1186 49.4678L70.2328 49.5194L70.3471 49.571ZM49.6159 78.087C49.5647 78.1337 49.561 78.213 49.6077 78.2642C49.6544 78.3154 49.7337 78.319 49.7849 78.2723L49.7004 78.1797L49.6159 78.087ZM70.2328 49.5194L70.1186 49.4678C65.9893 58.6147 58.1005 70.3448 49.6159 78.087L49.7004 78.1797L49.7849 78.2723C58.2982 70.5038 66.2058 58.7444 70.3471 49.571L70.2328 49.5194Z" fill="#002522"/>
<path d="M93.106 36.1205C93.116 36.0519 93.0685 35.9883 93 35.9784C92.9314 35.9684 92.8678 36.016 92.8578 36.0845L92.9819 36.1025L93.106 36.1205ZM89.3487 48.0357C89.3197 48.0986 89.3471 48.1732 89.41 48.2022C89.4729 48.2312 89.5474 48.2037 89.5764 48.1407L89.4625 48.0882L89.3487 48.0357ZM92.9819 36.1025L92.8578 36.0845C92.3671 39.4643 91.0786 44.2843 89.3487 48.0357L89.4625 48.0882L89.5764 48.1407C91.3177 44.3646 92.6123 39.5208 93.106 36.1205L92.9819 36.1025Z" fill="#002522"/>
<path d="M46.4615 62.4826C46.5065 62.43 46.5004 62.3508 46.4479 62.3058C46.3953 62.2607 46.3161 62.2668 46.271 62.3194L46.3663 62.401L46.4615 62.4826ZM33.2272 73.7875C33.1691 73.8252 33.1524 73.9028 33.19 73.961C33.2277 74.0191 33.3053 74.0357 33.3634 73.9981L33.2953 73.8928L33.2272 73.7875ZM46.3663 62.401L46.271 62.3194C43.1729 65.9367 38.063 70.6561 33.2272 73.7875L33.2953 73.8928L33.3634 73.9981C38.2221 70.8519 43.3499 66.1156 46.4615 62.4826L46.3663 62.401Z" fill="#002522"/>
<path d="M55.6696 40.2909C55.7103 40.2348 55.6979 40.1564 55.6418 40.1157C55.5858 40.075 55.5074 40.0875 55.4667 40.1436L55.5682 40.2172L55.6696 40.2909ZM44.8648 51.102C44.8098 51.1442 44.7995 51.2229 44.8417 51.2779C44.8839 51.3328 44.9626 51.3431 45.0175 51.3009L44.9411 51.2014L44.8648 51.102ZM55.5682 40.2172L55.4667 40.1436C53.0118 43.5282 48.8748 48.0199 44.8648 51.102L44.9411 51.2014L45.0175 51.3009C49.0492 48.2021 53.2025 43.6923 55.6696 40.2909L55.5682 40.2172Z" fill="#002522"/>
<path d="M16.6303 52.2739C16.6964 52.2535 16.7336 52.1833 16.7132 52.1171C16.6928 52.0509 16.6227 52.0137 16.5565 52.0341L16.5934 52.154L16.6303 52.2739ZM1.50211 54.4241C1.43286 54.4249 1.37731 54.4816 1.37803 54.5509C1.37876 54.6202 1.43548 54.6757 1.50473 54.675L1.50342 54.5496L1.50211 54.4241ZM16.5934 52.154L16.5565 52.0341C12.5627 53.265 6.55801 54.3697 1.50211 54.4241L1.50342 54.5496L1.50473 54.675C6.58789 54.6202 12.6166 53.5109 16.6303 52.2739L16.5934 52.154Z" fill="#002522"/>
<path d="M93.2051 14.5808C93.2062 14.5116 93.151 14.4545 93.0818 14.4534C93.0125 14.4523 92.9555 14.5075 92.9543 14.5768L93.0797 14.5788L93.2051 14.5808ZM92.4402 20.3919C92.4286 20.4602 92.4745 20.525 92.5428 20.5366C92.6111 20.5482 92.6758 20.5023 92.6875 20.434L92.5639 20.4129L92.4402 20.3919ZM93.0797 14.5788L92.9543 14.5768C92.9307 15.9982 92.7286 18.6979 92.4402 20.3919L92.5639 20.4129L92.6875 20.434C92.9785 18.7246 93.1813 16.012 93.2051 14.5808L93.0797 14.5788Z" fill="#002522"/>
<path d="M14.6653 60.183C14.7291 60.1562 14.7592 60.0826 14.7324 60.0188C14.7056 59.9549 14.6321 59.9249 14.5682 59.9517L14.6168 60.0674L14.6653 60.183ZM9.04164 61.822C8.97446 61.8388 8.93367 61.907 8.95052 61.9742C8.96737 62.0413 9.03548 62.0821 9.10265 62.0653L9.07214 61.9436L9.04164 61.822ZM14.6168 60.0674L14.5682 59.9517C13.2586 60.502 10.7067 61.4036 9.04164 61.822L9.07214 61.9436L9.10265 62.0653C10.7826 61.6432 13.3468 60.737 14.6653 60.183L14.6168 60.0674Z" fill="#002522"/>
</g>
<defs>
<clipPath id="clip0_664_11609">
<rect width="101" height="80" fill="white"/>
</clipPath>
</defs>
</svg>
