<svg width="65" height="80" viewBox="0 0 65 80" fill="none" xmlns="http://www.w3.org/2000/svg">
<g clip-path="url(#clip0_664_11626)">
<path d="M44.1813 0.899061C44.7796 0.727385 45.4693 1.02026 46.1008 1.78056L58.7851 17.039C59.4138 17.7959 59.8768 18.8821 60.1198 20.025C60.3629 21.1683 60.3867 22.3738 60.1321 23.3713L46.5953 76.5076C46.3431 77.4954 45.8614 78.105 45.2721 78.2748L42.696 79.0104C42.6704 79.0176 42.6425 79.0013 42.6339 78.9741C42.6255 78.947 42.6393 78.9189 42.6647 78.9116C43.2089 78.7576 43.6789 78.1868 43.9276 77.2124L57.4609 24.078L57.5419 23.7016C57.7019 22.8019 57.6588 21.7683 57.4487 20.779C57.2084 19.6481 56.7516 18.5803 56.1389 17.8415L43.4533 2.5805C42.8366 1.8375 42.1842 1.57936 41.6367 1.73664C41.6112 1.74386 41.5833 1.72753 41.5746 1.70038C41.566 1.6732 41.5799 1.64516 41.6055 1.63782L44.1813 0.899061Z" fill="#12C6C1" stroke="#082422" stroke-width="0.100076" stroke-miterlimit="10" stroke-linecap="round" stroke-linejoin="round"/>
<path d="M41.6169 1.63466C42.214 1.47055 42.897 1.76257 43.5248 2.51843L56.2098 17.7782C56.8378 18.534 57.3008 19.6199 57.5438 20.7628C57.7866 21.9057 57.8108 23.1113 57.5561 24.1091L44.0214 77.2451C43.7672 78.2408 43.2791 78.851 42.6845 79.0149C42.0873 79.1795 41.404 78.8888 40.7761 78.133L28.0914 62.8724C27.4634 62.1166 27.0003 61.0307 26.7574 59.8877C26.5145 58.7444 26.4905 57.5383 26.7451 56.5414L40.2798 3.40543C40.5342 2.40876 41.0223 1.79828 41.6169 1.63466Z" fill="#2BF2F1" stroke="#082422" stroke-width="0.100076" stroke-miterlimit="10" stroke-linecap="round" stroke-linejoin="round"/>
<path d="M45.1827 24.9058C45.3216 24.8645 45.4474 24.8896 45.5253 24.9849C45.6008 25.0773 45.6165 25.2183 45.5774 25.3752L44.4771 29.826C44.4368 29.9867 44.3457 30.1445 44.2329 30.272C44.1202 30.3992 43.9817 30.5004 43.8433 30.5418C43.7051 30.5832 43.5795 30.5597 43.5012 30.465C43.425 30.373 43.4099 30.232 43.4496 30.0728L44.5499 25.6219L44.5888 25.5035C44.6364 25.3864 44.7081 25.2735 44.7927 25.1775C44.9054 25.0499 45.0442 24.9474 45.1827 24.9058Z" fill="white" stroke="#082422" stroke-width="0.100076" stroke-miterlimit="10" stroke-linecap="round" stroke-linejoin="round"/>
<path d="M41.6559 2.66503C42.0521 2.5558 42.5018 2.74995 42.9111 3.24242L55.2987 18.1487L55.3001 18.1512C55.931 18.9114 56.3965 20.005 56.6411 21.1556C56.8859 22.3075 56.9105 23.5224 56.6546 24.525L43.6027 75.6466C43.3472 76.6478 42.8553 77.2614 42.2562 77.4265C41.6547 77.5922 40.9665 77.3003 40.3349 76.5403L28.7549 62.6035C28.1233 61.8433 27.657 60.749 27.4122 59.5975C27.1674 58.4457 27.1428 57.2308 27.3987 56.2282L40.7778 3.82362C40.9431 3.1764 41.2624 2.77367 41.6559 2.66503Z" fill="white" stroke="#082422" stroke-width="0.100076" stroke-miterlimit="10" stroke-linecap="round" stroke-linejoin="round"/>
<path d="M46.0832 11.2159C46.2815 11.1614 46.5012 11.2607 46.6965 11.4956L49.9767 15.4427C50.1721 15.678 50.3143 16.0134 50.3888 16.3636C50.4633 16.7144 50.4711 17.0862 50.3924 17.395C50.3139 17.7021 50.1608 17.9001 49.9649 17.9541C49.7665 18.0088 49.546 17.9101 49.3505 17.6749L46.0712 13.7282C45.8757 13.493 45.7336 13.1575 45.6591 12.8072C45.5845 12.4565 45.5767 12.0846 45.6555 11.7759C45.734 11.4685 45.8873 11.2698 46.0832 11.2159Z" fill="#082422" stroke="#082422" stroke-width="0.100076" stroke-miterlimit="10" stroke-linecap="round" stroke-linejoin="round"/>
<path d="M51.7993 28.9396C44.935 38.6129 46.8054 56.6532 39.9417 66.3262C35.8978 62.4524 31.8542 58.5784 27.8105 54.7047C34.6743 45.0313 32.8041 26.9911 39.6681 17.3181C43.7118 21.1918 47.7554 25.0655 51.7993 28.9396Z" fill="black" fill-opacity="0.2"/>
<path d="M40.3424 13.8177C40.417 13.7962 40.4915 13.8358 40.5495 13.9087L52.2693 28.6551L52.3086 28.7145C52.345 28.7787 52.3711 28.8554 52.3853 28.9331C52.4043 29.0368 52.4039 29.1482 52.3779 29.2424C52.3525 29.3349 52.3032 29.4058 52.2323 29.4264C52.1578 29.448 52.0831 29.4081 52.0252 29.3354L40.3054 14.5891C40.2474 14.5162 40.2083 14.4144 40.1893 14.3111C40.1703 14.2073 40.171 14.0959 40.1967 14.0017C40.222 13.9091 40.2713 13.8384 40.3424 13.8177Z" fill="#082422" stroke="#082422" stroke-width="0.100076" stroke-linecap="round" stroke-linejoin="round"/>
<path d="M41.7239 28.4288C41.9464 28.4825 42.1435 28.6152 42.3083 28.8259L42.3172 28.8379L42.3153 28.8373C42.6386 29.2585 42.8108 29.9481 42.8625 30.8405C42.915 31.7424 42.8479 32.8618 42.6895 34.1475C42.3659 36.7103 41.7115 39.9862 40.7351 43.2797C39.7591 46.5728 38.5732 49.1736 37.3948 50.6535C36.8097 51.3975 36.232 51.8775 35.7159 52.0669C35.4572 52.1613 35.2119 52.1844 34.9888 52.129C34.7653 52.0734 34.5681 51.9394 34.4034 51.7285C34.0752 51.3082 33.9046 50.6183 33.8571 49.7257C33.8095 48.8302 33.883 47.7189 34.0481 46.4418C34.3856 43.8966 35.0536 40.638 36.0296 37.3438C37.0059 34.0507 38.1786 31.4321 39.3431 29.9348C39.9213 29.1823 40.4918 28.6947 41.0027 28.499C41.2589 28.4011 41.502 28.3752 41.7239 28.4288Z" fill="#60D06F" stroke="#082422" stroke-width="0.100076" stroke-miterlimit="10" stroke-linecap="round" stroke-linejoin="round"/>
<mask id="path-9-outside-1_664_11626" maskUnits="userSpaceOnUse" x="26.5452" y="18.4465" width="23.5372" height="42.7448" fill="black">
<rect fill="white" x="26.5452" y="18.4465" width="23.5372" height="42.7448"/>
<path d="M46.8861 31.8334C42.9628 39.7306 41.3316 50.5472 37.3024 58.3092C37.2217 58.4648 37.0832 58.4849 36.9967 58.3746C36.2086 57.3707 34.994 57.6951 34.1572 58.9381C34.0542 59.0912 33.8863 59.1302 33.788 59.005C32.4466 57.2961 31.1052 55.5876 29.7641 53.8788C29.6656 53.7532 29.6846 53.5244 29.7876 53.3713C30.6244 52.1284 30.5648 50.1807 29.7814 49.183C29.7053 49.086 29.6945 48.898 29.7656 48.7619C33.813 40.9866 35.442 30.1308 39.3829 22.2204C39.4522 22.0815 39.5719 22.0604 39.648 22.1574C40.4362 23.1613 41.6356 22.8175 42.4488 21.5449C42.5594 21.371 42.7432 21.3225 42.8521 21.4613C44.1813 23.1546 45.5107 24.8482 46.8401 26.5419C46.949 26.6808 46.9295 26.9379 46.8186 27.1117C46.0056 28.3847 46.0802 30.3514 46.8635 31.3495C46.95 31.4598 46.9653 31.6759 46.8866 31.8339L46.8861 31.8334ZM37.347 50.6432C38.5281 49.1674 39.7202 46.567 40.7025 43.2686C41.6849 39.9699 42.3432 36.69 42.6688 34.1242C42.8279 32.8367 42.8958 31.7179 42.843 30.8186C42.7904 29.9194 42.6161 29.2384 42.2962 28.8307C41.977 28.424 41.5417 28.3285 41.0387 28.5198C40.5357 28.7115 39.9673 29.1921 39.3872 29.9434C38.2199 31.4372 37.041 34.0539 36.0584 37.3522C35.0763 40.651 34.4049 43.9146 34.0653 46.4627C33.8992 47.7416 33.8246 48.8518 33.8723 49.7448C33.9197 50.6374 34.0912 51.3147 34.4111 51.7223C34.7309 52.13 35.1686 52.2283 35.6767 52.0436C36.1845 51.8585 36.76 51.3862 37.3469 50.6436"/>
</mask>
<path d="M46.8861 31.8334C42.9628 39.7306 41.3316 50.5472 37.3024 58.3092C37.2217 58.4648 37.0832 58.4849 36.9967 58.3746C36.2086 57.3707 34.994 57.6951 34.1572 58.9381C34.0542 59.0912 33.8863 59.1302 33.788 59.005C32.4466 57.2961 31.1052 55.5876 29.7641 53.8788C29.6656 53.7532 29.6846 53.5244 29.7876 53.3713C30.6244 52.1284 30.5648 50.1807 29.7814 49.183C29.7053 49.086 29.6945 48.898 29.7656 48.7619C33.813 40.9866 35.442 30.1308 39.3829 22.2204C39.4522 22.0815 39.5719 22.0604 39.648 22.1574C40.4362 23.1613 41.6356 22.8175 42.4488 21.5449C42.5594 21.371 42.7432 21.3225 42.8521 21.4613C44.1813 23.1546 45.5107 24.8482 46.8401 26.5419C46.949 26.6808 46.9295 26.9379 46.8186 27.1117C46.0056 28.3847 46.0802 30.3514 46.8635 31.3495C46.95 31.4598 46.9653 31.6759 46.8866 31.8339L46.8861 31.8334ZM37.347 50.6432C38.5281 49.1674 39.7202 46.567 40.7025 43.2686C41.6849 39.9699 42.3432 36.69 42.6688 34.1242C42.8279 32.8367 42.8958 31.7179 42.843 30.8186C42.7904 29.9194 42.6161 29.2384 42.2962 28.8307C41.977 28.424 41.5417 28.3285 41.0387 28.5198C40.5357 28.7115 39.9673 29.1921 39.3872 29.9434C38.2199 31.4372 37.041 34.0539 36.0584 37.3522C35.0763 40.651 34.4049 43.9146 34.0653 46.4627C33.8992 47.7416 33.8246 48.8518 33.8723 49.7448C33.9197 50.6374 34.0912 51.3147 34.4111 51.7223C34.7309 52.13 35.1686 52.2283 35.6767 52.0436C36.1845 51.8585 36.76 51.3862 37.3469 50.6436" fill="#80E58A"/>
<path d="M46.8861 31.8334L46.9572 31.7666C46.9351 31.742 46.9031 31.7295 46.8714 31.7331C46.8397 31.7367 46.8124 31.7559 46.7981 31.7847L46.8861 31.8334ZM37.3024 58.3092L37.2151 58.2589L37.2151 58.259L37.3024 58.3092ZM36.9967 58.3746L37.0724 58.3133L37.0724 58.3132L36.9967 58.3746ZM34.1572 58.9381L34.0755 58.8784L34.0755 58.8784L34.1572 58.9381ZM33.788 59.005L33.7123 59.0664L33.7124 59.0664L33.788 59.005ZM29.7641 53.8788L29.6885 53.9401L29.6885 53.9402L29.7641 53.8788ZM29.7876 53.3713L29.7059 53.3117L29.7059 53.3117L29.7876 53.3713ZM29.7814 49.183L29.7058 49.2443L29.7058 49.2444L29.7814 49.183ZM29.7656 48.7619L29.8528 48.8124L29.8529 48.8122L29.7656 48.7619ZM39.3829 22.2204L39.2949 22.1715L39.2949 22.1716L39.3829 22.2204ZM39.648 22.1574L39.5724 22.2188L39.5724 22.2188L39.648 22.1574ZM42.4488 21.5449L42.5317 21.6026L42.5318 21.6024L42.4488 21.5449ZM42.8521 21.4613L42.7765 21.5227L42.7765 21.5227L42.8521 21.4613ZM46.8401 26.5419L46.9157 26.4805L46.9157 26.4805L46.8401 26.5419ZM46.8186 27.1117L46.9016 27.1694L46.9016 27.1694L46.8186 27.1117ZM46.8635 31.3495L46.9392 31.2881L46.9391 31.2881L46.8635 31.3495ZM46.8866 31.8339L46.8155 31.9008C46.8377 31.9254 46.8696 31.9379 46.9013 31.9343C46.9329 31.9308 46.9603 31.9115 46.9746 31.8828L46.8866 31.8339ZM37.2699 50.5773C37.2361 50.6195 37.2432 50.6833 37.2858 50.7197C37.3283 50.7561 37.3902 50.7514 37.424 50.7092L37.347 50.6432L37.2699 50.5773ZM40.7025 43.2686L40.7967 43.3017V43.3017L40.7025 43.2686ZM42.6688 34.1242L42.7664 34.1412L42.7664 34.1409L42.6688 34.1242ZM42.843 30.8186L42.7447 30.8205L42.7447 30.8206L42.843 30.8186ZM42.2962 28.8307L42.3719 28.7693L42.3719 28.7693L42.2962 28.8307ZM41.0387 28.5198L41.0012 28.4249L41.0011 28.425L41.0387 28.5198ZM39.3872 29.9434L39.465 30.0085L39.4653 30.008L39.3872 29.9434ZM36.0584 37.3522L35.9642 37.3191L35.9642 37.3191L36.0584 37.3522ZM34.0653 46.4627L33.9678 46.4451L33.9678 46.4454L34.0653 46.4627ZM33.8723 49.7448L33.9706 49.7435L33.9706 49.7434L33.8723 49.7448ZM35.6767 52.0436L35.7128 52.139L35.7129 52.1389L35.6767 52.0436ZM37.4243 50.7091C37.4579 50.6666 37.4504 50.6029 37.4076 50.5667C37.3649 50.5305 37.303 50.5356 37.2695 50.578L37.3469 50.6436L37.4243 50.7091ZM46.8861 31.8334L46.7981 31.7847C44.832 35.7422 43.441 40.4294 42.0398 45.0886C40.6374 49.752 39.2248 54.3875 37.2151 58.2589L37.3024 58.3092L37.3896 58.3595C39.4092 54.4689 40.8268 49.8151 42.2281 45.1553C43.6306 40.4915 45.0169 35.8218 46.9742 31.8822L46.8861 31.8334ZM37.3024 58.3092L37.2151 58.259C37.1836 58.3197 37.1489 58.3387 37.1298 58.3423C37.1149 58.3452 37.095 58.3421 37.0724 58.3133L36.9967 58.3746L36.921 58.436C36.9849 58.5174 37.0775 58.5594 37.1737 58.5409C37.2655 58.5232 37.3405 58.4543 37.3897 58.3595L37.3024 58.3092ZM36.9967 58.3746L37.0724 58.3132C36.6549 57.7814 36.1157 57.5957 35.5709 57.715C35.0332 57.8327 34.5024 58.2444 34.0755 58.8784L34.1572 58.9381L34.2389 58.9978C34.6488 58.3889 35.1437 58.0168 35.6194 57.9126C36.0882 57.8099 36.5504 57.9639 36.9211 58.436L36.9967 58.3746ZM34.1572 58.9381L34.0755 58.8784C34.0344 58.9395 33.986 58.9693 33.9485 58.9767C33.9156 58.9832 33.8876 58.9742 33.8636 58.9436L33.788 59.005L33.7124 59.0664C33.7866 59.161 33.8918 59.1951 33.9932 59.1751C34.09 59.156 34.177 59.0898 34.2389 58.9978L34.1572 58.9381ZM33.788 59.005L33.8636 58.9436C32.5223 57.2347 31.1809 55.5262 29.8398 53.8174L29.7641 53.8788L29.6885 53.9402C31.0296 55.649 32.371 57.3575 33.7123 59.0664L33.788 59.005ZM29.7641 53.8788L29.8398 53.8174C29.8117 53.7815 29.7942 53.7215 29.7985 53.6454C29.8028 53.5707 29.828 53.4925 29.8693 53.431L29.7876 53.3713L29.7059 53.3117C29.6442 53.4033 29.6084 53.5161 29.6021 53.6254C29.5958 53.7333 29.6181 53.8505 29.6885 53.9401L29.7641 53.8788ZM29.7876 53.3713L29.8693 53.431C30.3006 52.7903 30.4989 51.9719 30.4905 51.1882C30.4821 50.4057 30.2674 49.6442 29.8571 49.1216L29.7814 49.183L29.7058 49.2444C30.0788 49.7195 30.2856 50.4307 30.2937 51.1822C30.3017 51.9325 30.1113 52.7094 29.7059 53.3117L29.7876 53.3713ZM29.7814 49.183L29.8571 49.1216C29.8369 49.0959 29.8193 49.0485 29.8166 48.9867C29.814 48.9263 29.8262 48.8632 29.8528 48.8124L29.7656 48.7619L29.6785 48.7114C29.6339 48.7966 29.616 48.8956 29.62 48.9875C29.624 49.078 29.6499 49.1731 29.7058 49.2443L29.7814 49.183ZM29.7656 48.7619L29.8529 48.8122C31.8815 44.915 33.3031 40.248 34.7083 35.5752C36.1148 30.8982 37.5049 26.2155 39.4709 22.2692L39.3829 22.2204L39.2949 22.1716C37.32 26.1358 35.9251 30.8361 34.52 35.5085C33.1137 40.185 31.6971 44.8335 29.6784 48.7115L29.7656 48.7619ZM39.3829 22.2204L39.4709 22.2693C39.4974 22.2162 39.5253 22.2019 39.5371 22.1993C39.5426 22.1981 39.5467 22.1986 39.5508 22.2003C39.5552 22.2021 39.5629 22.2068 39.5724 22.2188L39.648 22.1574L39.7237 22.0961C39.6647 22.0209 39.5784 21.9821 39.4887 22.0016C39.4043 22.0201 39.3377 22.0857 39.2949 22.1715L39.3829 22.2204ZM39.648 22.1574L39.5724 22.2188C39.99 22.7507 40.526 22.9321 41.065 22.8032C41.5963 22.6762 42.1171 22.2515 42.5317 21.6026L42.4488 21.5449L42.3658 21.4871C41.9672 22.1109 41.4817 22.4944 41.013 22.6064C40.5519 22.7167 40.0942 22.5681 39.7237 22.0961L39.648 22.1574ZM42.4488 21.5449L42.5318 21.6024C42.5773 21.5309 42.6323 21.4943 42.6758 21.4845C42.7142 21.4759 42.7476 21.4859 42.7765 21.5227L42.8521 21.4613L42.9278 21.4C42.8477 21.2979 42.7347 21.2627 42.6263 21.2871C42.523 21.3103 42.4308 21.385 42.3657 21.4873L42.4488 21.5449ZM42.8521 21.4613L42.7765 21.5227C44.1057 23.216 45.4351 24.9096 46.7644 26.6033L46.8401 26.5419L46.9157 26.4805C45.5863 24.7868 44.257 23.0932 42.9278 21.3999L42.8521 21.4613ZM46.8401 26.5419L46.7644 26.6032C46.7978 26.6457 46.8179 26.7163 46.8135 26.8045C46.8092 26.8911 46.7816 26.982 46.7356 27.054L46.8186 27.1117L46.9016 27.1694C46.9666 27.0676 47.0041 26.943 47.0101 26.8229C47.0159 26.7043 46.9913 26.5769 46.9157 26.4805L46.8401 26.5419ZM46.8186 27.1117L46.7357 27.054C46.317 27.7095 46.1288 28.5397 46.1441 29.3316C46.1593 30.1221 46.3776 30.8882 46.7878 31.4109L46.8635 31.3495L46.9391 31.2881C46.566 30.8127 46.3555 30.0964 46.3408 29.3358C46.3262 28.5766 46.5073 27.7869 46.9016 27.1694L46.8186 27.1117ZM46.8635 31.3495L46.7878 31.4108C46.8135 31.4436 46.8347 31.5018 46.8388 31.5754C46.8427 31.6476 46.8294 31.7234 46.7986 31.7851L46.8866 31.8339L46.9746 31.8828C47.0226 31.7865 47.0409 31.6752 47.0353 31.5723C47.0297 31.4708 47 31.3658 46.9392 31.2881L46.8635 31.3495ZM46.8866 31.8339L46.9577 31.7671L46.9572 31.7666L46.8861 31.8334L46.8151 31.9003L46.8155 31.9008L46.8866 31.8339ZM37.347 50.6432L37.424 50.7092C38.6167 49.219 39.8131 46.6045 40.7967 43.3017L40.7025 43.2686L40.6083 43.2355C39.6273 46.5295 38.4396 49.1157 37.2699 50.5773L37.347 50.6432ZM40.7025 43.2686L40.7967 43.3017C41.7806 39.9978 42.44 36.7126 42.7664 34.1412L42.6688 34.1242L42.5712 34.1071C42.2463 36.6674 41.5891 39.9419 40.6083 43.2355L40.7025 43.2686ZM42.6688 34.1242L42.7664 34.1409C42.9258 32.8507 42.9945 31.7249 42.9412 30.8166L42.843 30.8186L42.7447 30.8206C42.797 31.7108 42.7299 32.8227 42.5711 34.1075L42.6688 34.1242ZM42.843 30.8186L42.9412 30.8167C42.8884 29.9129 42.7128 29.2039 42.3719 28.7693L42.2962 28.8307L42.2206 28.8921C42.5193 29.2728 42.6925 29.9259 42.7447 30.8205L42.843 30.8186ZM42.2962 28.8307L42.3719 28.7693C42.1995 28.5497 41.9915 28.4095 41.7551 28.3527C41.5199 28.2963 41.2655 28.3244 41.0012 28.4249L41.0387 28.5198L41.0761 28.6147C41.3149 28.5239 41.5296 28.5042 41.7177 28.5493C41.9044 28.5941 42.0737 28.705 42.2206 28.8921L42.2962 28.8307ZM41.0387 28.5198L41.0011 28.425C40.4749 28.6256 39.8937 29.1217 39.3091 29.8787L39.3872 29.9434L39.4653 30.008C40.041 29.2625 40.5966 28.7975 41.0762 28.6147L41.0387 28.5198ZM39.3872 29.9434L39.3095 29.8782C38.1312 31.3862 36.948 34.0167 35.9642 37.3191L36.0584 37.3522L36.1526 37.3853C37.134 34.0911 38.3087 31.4882 39.465 30.0085L39.3872 29.9434ZM36.0584 37.3522L35.9642 37.3191C34.9806 40.6228 34.3081 43.8915 33.9678 46.4451L34.0653 46.4627L34.1628 46.4804C34.5017 43.9377 35.1719 40.6792 36.1526 37.3853L36.0584 37.3522ZM34.0653 46.4627L33.9678 46.4454C33.8013 47.7268 33.7258 48.8441 33.7741 49.7463L33.8723 49.7448L33.9706 49.7434C33.9233 48.8595 33.9971 47.7563 34.1629 46.4801L34.0653 46.4627ZM33.8723 49.7448L33.7741 49.7462C33.8217 50.6435 33.9943 51.349 34.3354 51.7837L34.4111 51.7223L34.4867 51.661C34.1881 51.2804 34.0177 50.6312 33.9706 49.7435L33.8723 49.7448ZM34.4111 51.7223L34.3354 51.7837C34.5081 52.0038 34.7166 52.1448 34.954 52.2033C35.1901 52.2614 35.4461 52.2359 35.7128 52.139L35.6767 52.0436L35.6405 51.9483C35.3991 52.036 35.1823 52.0537 34.9926 52.007C34.8041 51.9606 34.6339 51.8485 34.4867 51.661L34.4111 51.7223ZM35.6767 52.0436L35.7129 52.1389C36.2442 51.9453 36.8328 51.4576 37.4243 50.7091L37.3469 50.6436L37.2695 50.578C36.6872 51.3149 36.1248 51.7717 35.6404 51.9483L35.6767 52.0436Z" fill="#082422" mask="url(#path-9-outside-1_664_11626)"/>
<path d="M41.4619 15.511C41.4764 15.5117 41.4905 15.5194 41.4998 15.5312C44.8804 19.8221 48.2607 24.1132 51.6415 28.4045C51.6568 28.424 51.6568 28.4516 51.6412 28.4697C48.2527 32.3928 46.2576 38.0884 44.4346 44.0151L42.8859 49.1138C41.063 55.0409 39.0629 60.7558 35.6607 64.6951C35.6513 64.706 35.6374 64.7123 35.623 64.7117C35.6085 64.7111 35.5945 64.7034 35.5852 64.6916C32.2044 60.4007 28.8237 56.1099 25.4432 51.8192C25.4279 51.7997 25.428 51.7721 25.4435 51.754C29.3159 47.2703 31.3678 40.4711 33.4238 33.658C35.4778 26.851 37.5357 20.0297 41.4242 15.5276L41.4415 15.5157C41.4479 15.513 41.4547 15.5107 41.4619 15.511ZM42.8446 21.4551C42.8027 21.4019 42.7491 21.3853 42.6929 21.3978C42.6341 21.411 42.5688 21.4568 42.5181 21.5361C42.105 22.1804 41.5899 22.5962 41.0712 22.7198C40.5487 22.8443 40.0291 22.6707 39.621 22.1527C39.5934 22.1178 39.5631 22.1086 39.5356 22.1144C39.5054 22.121 39.4674 22.1485 39.4368 22.2094C37.4567 26.1696 36.0564 30.8679 34.6417 35.5546C33.2277 40.2392 31.7983 44.9126 29.7599 48.8141C29.7288 48.8738 29.7154 48.9466 29.7184 49.0151C29.7214 49.084 29.7408 49.1432 29.7698 49.1803C30.1732 49.6923 30.3877 50.444 30.3961 51.2206C30.4043 51.9976 30.2067 52.8072 29.7794 53.4396C29.7327 53.5088 29.705 53.596 29.7002 53.6796C29.6954 53.7639 29.7135 53.8386 29.7523 53.8879C31.1003 55.5989 32.4531 57.3148 33.8011 59.0259C33.838 59.0727 33.8856 59.0878 33.9361 59.0779C33.9888 59.0676 34.0478 59.0289 34.0944 58.9599C34.5196 58.331 35.0443 57.9283 35.5695 57.8137C36.0982 57.6983 36.6213 57.8762 37.0293 58.3941C37.0624 58.4362 37.1007 58.4491 37.1362 58.4423C37.1739 58.435 37.2194 58.4038 37.2556 58.3344C39.2801 54.449 40.7025 49.7977 42.1131 45.1242C43.5231 40.4529 44.9215 35.7592 46.8973 31.7971C46.9325 31.7266 46.9474 31.6417 46.943 31.5617C46.9386 31.4811 46.9151 31.4106 46.8805 31.3665C46.4772 30.8545 46.2587 30.0985 46.2435 29.3136C46.2284 28.5281 46.4163 27.7064 46.8315 27.0589L46.8655 26.9953C46.8957 26.9294 46.9143 26.8558 46.9178 26.7845C46.9226 26.6886 46.9007 26.603 46.8565 26.5468C46.188 25.6983 45.5193 24.8501 44.8509 24.0016C44.1823 23.153 43.5133 22.3039 42.8446 21.4551Z" fill="#60D06F" stroke="#082422" stroke-width="0.100076" stroke-miterlimit="10" stroke-linecap="round" stroke-linejoin="round"/>
<path d="M51.6318 28.4154C40.8518 35.7693 42.2768 52.297 33.501 62.7518C27.4249 58.0276 27.3058 56.131 23.1634 52.6356C31.9393 42.1804 35.1423 29.4435 43.9184 18.9887C47.9019 23.836 47.6559 23.311 51.6318 28.4154Z" fill="black" fill-opacity="0.2"/>
<mask id="path-13-outside-2_664_11626" maskUnits="userSpaceOnUse" x="14.2058" y="9.70191" width="40.7402" height="57.7659" fill="black">
<rect fill="white" x="14.2058" y="9.70191" width="40.7402" height="57.7659"/>
<path d="M51.5531 28.2599C38.1394 32.5374 41.6532 58.1793 28.2394 62.4571C24.7562 58.0609 21.2734 53.6653 17.7902 49.2691C31.2043 44.9914 27.6902 19.3494 41.1039 15.0719C44.5872 19.4681 48.0699 23.8637 51.5531 28.2599ZM31.4337 57.5123C31.5234 57.6254 31.6999 57.6264 31.8252 57.4931C38.0814 50.8365 38.7447 37.1217 44.754 30.1537C44.8744 30.0141 44.8894 29.8111 44.7997 29.6979C43.9909 28.6772 44.1859 26.811 45.52 25.889C45.7017 25.763 45.7848 25.5494 45.672 25.4067C44.2943 23.6678 42.9162 21.9287 41.5385 20.1897C41.4257 20.0474 41.1726 20.0467 40.9909 20.1726C39.6568 21.0944 38.1413 21.2939 37.3211 20.2588C37.2423 20.1596 37.0906 20.1642 36.9845 20.2864C30.9434 27.2544 30.2936 41.0274 24.0044 47.6829C23.894 47.7994 23.8761 47.9735 23.9548 48.0727C24.7636 49.0934 24.5332 50.915 23.1442 51.7673C22.9731 51.8726 22.8942 52.0587 22.9963 52.1872C24.3865 53.942 25.7768 55.6964 27.167 57.4512C27.2691 57.58 27.5024 57.5893 27.6736 57.4837C29.0626 56.6314 30.6138 56.4769 31.4339 57.5116"/>
</mask>
<path d="M51.5531 28.2599C38.1394 32.5374 41.6532 58.1793 28.2394 62.4571C24.7562 58.0609 21.2734 53.6653 17.7902 49.2691C31.2043 44.9914 27.6902 19.3494 41.1039 15.0719C44.5872 19.4681 48.0699 23.8637 51.5531 28.2599ZM31.4337 57.5123C31.5234 57.6254 31.6999 57.6264 31.8252 57.4931C38.0814 50.8365 38.7447 37.1217 44.754 30.1537C44.8744 30.0141 44.8894 29.8111 44.7997 29.6979C43.9909 28.6772 44.1859 26.811 45.52 25.889C45.7017 25.763 45.7848 25.5494 45.672 25.4067C44.2943 23.6678 42.9162 21.9287 41.5385 20.1897C41.4257 20.0474 41.1726 20.0467 40.9909 20.1726C39.6568 21.0944 38.1413 21.2939 37.3211 20.2588C37.2423 20.1596 37.0906 20.1642 36.9845 20.2864C30.9434 27.2544 30.2936 41.0274 24.0044 47.6829C23.894 47.7994 23.8761 47.9735 23.9548 48.0727C24.7636 49.0934 24.5332 50.915 23.1442 51.7673C22.9731 51.8726 22.8942 52.0587 22.9963 52.1872C24.3865 53.942 25.7768 55.6964 27.167 57.4512C27.2691 57.58 27.5024 57.5893 27.6736 57.4837C29.0626 56.6314 30.6138 56.4769 31.4339 57.5116" fill="#60D06F"/>
<path d="M51.5531 28.2599L51.5856 28.3563C51.6161 28.3465 51.6395 28.3219 51.6481 28.2903C51.6568 28.2587 51.6495 28.2243 51.6288 28.1981L51.5531 28.2599ZM28.2394 62.4571L28.1638 62.5189C28.19 62.5521 28.2331 62.5659 28.2718 62.5535L28.2394 62.4571ZM17.7902 49.2691L17.7578 49.1727C17.7272 49.1825 17.7039 49.2071 17.6952 49.2387C17.6866 49.2703 17.6938 49.3047 17.7146 49.3309L17.7902 49.2691ZM41.1039 15.0719L41.1796 15.0101C41.1533 14.9769 41.1103 14.9632 41.0715 14.9755L41.1039 15.0719ZM31.5093 57.4504C31.4744 57.4064 31.4122 57.3984 31.3705 57.4326C31.3287 57.4667 31.3231 57.5301 31.3581 57.5741L31.4337 57.5123L31.5093 57.4504ZM31.8252 57.4931L31.753 57.4218L31.753 57.4218L31.8252 57.4931ZM44.754 30.1537L44.6791 30.0854L44.6791 30.0854L44.754 30.1537ZM44.7997 29.6979L44.724 29.7597L44.7241 29.7598L44.7997 29.6979ZM45.52 25.889L45.5772 25.9732L45.5773 25.9731L45.52 25.889ZM45.672 25.4067L45.7477 25.345L45.7476 25.3449L45.672 25.4067ZM41.5385 20.1897L41.6142 20.128L41.6142 20.1279L41.5385 20.1897ZM40.9909 20.1726L41.048 20.2569L41.0482 20.2568L40.9909 20.1726ZM37.3211 20.2588L37.3967 20.197L37.3967 20.197L37.3211 20.2588ZM36.9845 20.2864L36.9098 20.2179L36.9098 20.2179L36.9845 20.2864ZM24.0044 47.6829L24.0763 47.7545L24.0764 47.7544L24.0044 47.6829ZM23.9548 48.0727L24.0305 48.0109L24.0305 48.0109L23.9548 48.0727ZM23.1442 51.7673L23.0913 51.6803L23.0912 51.6804L23.1442 51.7673ZM22.9963 52.1872L23.072 52.1254L23.0719 52.1253L22.9963 52.1872ZM27.167 57.4512L27.2427 57.3894L27.2427 57.3894L27.167 57.4512ZM27.6736 57.4837L27.6207 57.3967L27.6206 57.3968L27.6736 57.4837ZM31.3582 57.5734C31.3931 57.6174 31.4553 57.6255 31.497 57.5913C31.5388 57.5572 31.5444 57.4938 31.5095 57.4498L31.4339 57.5116L31.3582 57.5734ZM51.5531 28.2599L51.5207 28.1635C48.1375 29.2424 45.826 31.668 44.0524 34.7527C42.28 37.8352 41.0396 41.5853 39.8028 45.3229C38.5646 49.0652 37.33 52.795 35.5694 55.8572C33.8101 58.917 31.5306 61.3008 28.207 62.3607L28.2394 62.4571L28.2718 62.5535C31.6551 61.4745 33.9666 59.0489 35.7402 55.9641C37.5126 52.8816 38.7531 49.1315 39.9898 45.3938C41.228 41.6516 42.4626 37.9218 44.2232 34.8597C45.9825 31.7998 48.262 29.4161 51.5856 28.3563L51.5531 28.2599ZM28.2394 62.4571L28.3151 62.3953C26.5735 60.1972 24.832 57.9993 23.0905 55.8013C21.349 53.6034 19.6075 51.4054 17.8659 49.2073L17.7902 49.2691L17.7146 49.3309C19.4562 51.529 21.1977 53.7269 22.9392 55.9249C24.6807 58.1229 26.4222 60.3208 28.1638 62.5189L28.2394 62.4571ZM17.7902 49.2691L17.8226 49.3655C21.206 48.2866 23.5175 45.8609 25.2912 42.7761C27.0635 39.6936 28.304 35.9435 29.5407 32.2059C30.7789 28.4636 32.0134 24.7338 33.774 21.6717C35.5333 18.6118 37.8128 16.2281 41.1364 15.1683L41.1039 15.0719L41.0715 14.9755C37.6883 16.0544 35.3768 18.48 33.6032 21.5647C31.8309 24.6472 30.5905 28.3973 29.3537 32.135C28.1155 35.8772 26.881 39.6071 25.1203 42.6692C23.361 45.7291 21.0815 48.1128 17.7578 49.1727L17.7902 49.2691ZM41.1039 15.0719L41.0283 15.1337C42.7699 17.3318 44.5114 19.5297 46.2529 21.7277C47.9944 23.9256 49.7359 26.1236 51.4775 28.3217L51.5531 28.2599L51.6288 28.1981C49.8872 26 48.1457 23.8021 46.4042 21.6041C44.6627 19.4062 42.9212 17.2082 41.1796 15.0101L41.1039 15.0719ZM31.4337 57.5123L31.3581 57.5741C31.4973 57.7496 31.7449 57.7267 31.8974 57.5643L31.8252 57.4931L31.753 57.4218C31.6549 57.5262 31.5495 57.5012 31.5093 57.4504L31.4337 57.5123ZM31.8252 57.4931L31.8974 57.5643C35.0428 54.2177 36.7784 49.1021 38.4757 43.9756C40.1767 38.8377 41.8394 33.6884 44.8289 30.2219L44.754 30.1537L44.6791 30.0854C41.6593 33.587 39.9857 38.7792 38.2887 43.9047C36.5879 49.0418 34.8638 54.1119 31.753 57.4218L31.8252 57.4931ZM44.754 30.1537L44.8289 30.222C44.9025 30.1367 44.9443 30.0318 44.9538 29.929C44.9632 29.8272 44.9411 29.7191 44.8753 29.6361L44.7997 29.6979L44.7241 29.7598C44.748 29.7899 44.7633 29.8399 44.7575 29.9028C44.7518 29.9647 44.726 30.031 44.6791 30.0854L44.754 30.1537ZM44.7997 29.6979L44.8753 29.6362C44.1076 28.6672 44.2843 26.8667 45.5772 25.9732L45.52 25.889L45.4628 25.8047C44.0874 26.7553 43.8743 28.6873 44.724 29.7597L44.7997 29.6979ZM45.52 25.889L45.5773 25.9731C45.6819 25.9006 45.7626 25.8001 45.7997 25.6901C45.8374 25.5787 45.8312 25.4507 45.7477 25.345L45.672 25.4067L45.5963 25.4684C45.6256 25.5055 45.6343 25.5556 45.6132 25.6181C45.5915 25.6821 45.5398 25.7513 45.4627 25.8048L45.52 25.889ZM45.672 25.4067L45.7476 25.3449C45.0588 24.4755 44.3699 23.606 43.6809 22.7365C42.992 21.8669 42.303 20.9974 41.6142 20.128L41.5385 20.1897L41.4629 20.2515C42.1517 21.121 42.8407 21.9905 43.5296 22.86C44.2186 23.7295 44.9075 24.599 45.5963 25.4685L45.672 25.4067ZM41.5385 20.1897L41.6142 20.1279C41.5329 20.0255 41.4086 19.9824 41.2891 19.9797C41.1685 19.977 41.0404 20.0144 40.9336 20.0885L40.9909 20.1726L41.0482 20.2568C41.1231 20.2049 41.2123 20.1796 41.292 20.1814C41.3726 20.1832 41.4312 20.2116 41.4629 20.2516L41.5385 20.1897ZM40.9909 20.1726L40.9337 20.0884C40.2764 20.5425 39.5804 20.8143 38.9544 20.8488C38.331 20.8832 37.7817 20.6829 37.3967 20.197L37.3211 20.2588L37.2454 20.3206C37.6806 20.8698 38.2992 21.0873 38.9721 21.0503C39.6425 21.0133 40.3713 20.7245 41.048 20.2569L40.9909 20.1726ZM37.3211 20.2588L37.3967 20.197C37.2656 20.0317 37.0407 20.0671 36.9098 20.2179L36.9845 20.2864L37.0593 20.3549C37.1405 20.2613 37.2191 20.2874 37.2454 20.3206L37.3211 20.2588ZM36.9845 20.2864L36.9098 20.2179C33.8739 23.7196 32.1957 28.9265 30.494 34.0664C28.7885 39.2179 27.0595 44.3021 23.9323 47.6114L24.0044 47.6829L24.0764 47.7544C27.2384 44.4082 28.979 39.2782 30.681 34.1373C32.3868 28.9849 34.054 23.8212 37.0593 20.3548L36.9845 20.2864ZM24.0044 47.6829L23.9324 47.6113C23.7997 47.7514 23.7587 47.9826 23.8792 48.1346L23.9548 48.0727L24.0305 48.0109C23.9936 47.9644 23.9882 47.8474 24.0763 47.7545L24.0044 47.6829ZM23.9548 48.0727L23.8792 48.1345C24.6454 49.1015 24.4361 50.8551 23.0913 51.6803L23.1442 51.7673L23.1972 51.8543C24.6302 50.9749 24.8818 49.0853 24.0305 48.0109L23.9548 48.0727ZM23.1442 51.7673L23.0912 51.6804C22.9914 51.7417 22.9129 51.8299 22.8756 51.9295C22.8375 52.0313 22.8422 52.1502 22.9208 52.2491L22.9963 52.1872L23.0719 52.1253C23.0484 52.0957 23.0414 52.0572 23.06 52.0076C23.0794 51.9557 23.1259 51.8981 23.1972 51.8543L23.1442 51.7673ZM22.9963 52.1872L22.9207 52.249C23.6158 53.1264 24.3109 54.0037 25.006 54.881C25.7012 55.7583 26.3963 56.6356 27.0914 57.5129L27.167 57.4512L27.2427 57.3894C26.5476 56.512 25.8525 55.6347 25.1573 54.7574C24.4622 53.8801 23.7671 53.0028 23.072 52.1254L22.9963 52.1872ZM27.167 57.4512L27.0914 57.5129C27.1664 57.6077 27.2819 57.6498 27.3925 57.6561C27.5045 57.6624 27.6248 57.6335 27.7267 57.5706L27.6736 57.4837L27.6206 57.3968C27.5513 57.4395 27.4693 57.4588 27.3963 57.4547C27.3219 57.4505 27.2697 57.4235 27.2427 57.3894L27.167 57.4512ZM27.6736 57.4837L27.7266 57.5707C28.4112 57.1506 29.1302 56.9062 29.7729 56.8909C30.4137 56.8756 30.9729 57.0873 31.3582 57.5734L31.4339 57.5116L31.5095 57.4498C31.0747 56.9013 30.4483 56.6728 29.7612 56.6892C29.0761 56.7055 28.325 56.9645 27.6207 57.3967L27.6736 57.4837Z" fill="#082422" mask="url(#path-13-outside-2_664_11626)"/>
<path d="M38.0668 26.5639C38.6762 26.3938 39.1968 26.5159 39.5365 26.95L39.5977 27.0338C39.8882 27.4674 39.9919 28.121 39.96 28.9549C39.9263 29.8468 39.7403 30.9613 39.4655 32.2769L39.2403 33.2972C38.6826 35.7686 37.9055 38.8584 36.893 42.0171C35.8086 45.402 34.5013 48.0864 33.1407 49.6331L32.868 49.9264C32.1478 50.6799 31.4328 51.1288 30.8135 51.2841C30.193 51.4394 29.6665 51.3072 29.3272 50.8734C28.9903 50.4422 28.877 49.7665 28.9227 48.8919C28.9679 48.0143 29.1689 46.9193 29.4591 45.6241L29.4593 45.6232C30.0568 43.054 30.9368 39.5729 32.0931 35.9627C33.1777 32.579 34.4585 29.8616 35.7893 28.2778L36.0563 27.9756C36.7605 27.2027 37.4591 26.7341 38.0668 26.5639Z" fill="#60D06F" stroke="#082422" stroke-width="0.100076" stroke-miterlimit="10" stroke-linecap="round" stroke-linejoin="round"/>
<mask id="path-16-outside-3_664_11626" maskUnits="userSpaceOnUse" x="20.6678" y="16.0107" width="26.9548" height="45.5386" fill="black">
<rect fill="white" x="20.6678" y="16.0107" width="26.9548" height="45.5386"/>
<path d="M44.6534 30.185C38.6998 37.1202 38.0428 50.7702 31.8444 57.3952C31.7203 57.528 31.5454 57.527 31.4565 57.4144C30.6438 56.3842 29.1072 56.538 27.7312 57.3863C27.5618 57.4915 27.3304 57.4822 27.2293 57.3539C25.8519 55.6075 24.4745 53.8613 23.0972 52.1149C22.9961 51.9866 23.0744 51.8018 23.2441 51.6967C24.6201 50.8484 24.8483 49.0358 24.047 48.0199C23.969 47.9212 23.9867 47.7479 24.0961 47.6319C30.3272 41.008 30.9708 27.3001 36.9559 20.3649C37.061 20.2432 37.2114 20.2383 37.2892 20.337C38.1018 21.3672 39.6033 21.1686 40.925 20.2512C41.105 20.1258 41.3557 20.1265 41.4675 20.2685C42.8326 21.9993 44.1978 23.7301 45.5627 25.4608C45.6745 25.6025 45.5924 25.8155 45.4124 25.9409C44.0907 26.8582 43.8973 28.7155 44.6985 29.7317C44.7874 29.8443 44.7726 30.0464 44.6533 30.1853L44.6534 30.185ZM32.8044 49.9375C34.2739 48.4531 35.7002 45.6352 36.8718 42.0105C38.0439 38.3859 38.9046 34.8515 39.4782 32.2307C39.7566 30.9094 39.9434 29.7931 39.9774 28.9016C40.012 28.0107 39.8894 27.3398 39.5603 26.9225C39.2312 26.5052 38.7294 26.3848 38.1243 26.5523C37.5198 26.7199 36.8186 27.1846 36.108 27.9579C34.6703 29.4828 33.2745 32.3389 32.1024 35.9635C30.9307 39.5886 30.0395 43.0847 29.4342 45.6647C29.1401 46.966 28.9374 48.0619 28.8918 48.9389C28.8456 49.8151 28.9612 50.4774 29.2901 50.8943C29.6175 51.3092 30.128 51.4409 30.7446 51.2882C31.3606 51.1353 32.0778 50.6907 32.8041 49.9374"/>
</mask>
<path d="M44.6534 30.185C38.6998 37.1202 38.0428 50.7702 31.8444 57.3952C31.7203 57.528 31.5454 57.527 31.4565 57.4144C30.6438 56.3842 29.1072 56.538 27.7312 57.3863C27.5618 57.4915 27.3304 57.4822 27.2293 57.3539C25.8519 55.6075 24.4745 53.8613 23.0972 52.1149C22.9961 51.9866 23.0744 51.8018 23.2441 51.6967C24.6201 50.8484 24.8483 49.0358 24.047 48.0199C23.969 47.9212 23.9867 47.7479 24.0961 47.6319C30.3272 41.008 30.9708 27.3001 36.9559 20.3649C37.061 20.2432 37.2114 20.2383 37.2892 20.337C38.1018 21.3672 39.6033 21.1686 40.925 20.2512C41.105 20.1258 41.3557 20.1265 41.4675 20.2685C42.8326 21.9993 44.1978 23.7301 45.5627 25.4608C45.6745 25.6025 45.5924 25.8155 45.4124 25.9409C44.0907 26.8582 43.8973 28.7155 44.6985 29.7317C44.7874 29.8443 44.7726 30.0464 44.6533 30.1853L44.6534 30.185ZM32.8044 49.9375C34.2739 48.4531 35.7002 45.6352 36.8718 42.0105C38.0439 38.3859 38.9046 34.8515 39.4782 32.2307C39.7566 30.9094 39.9434 29.7931 39.9774 28.9016C40.012 28.0107 39.8894 27.3398 39.5603 26.9225C39.2312 26.5052 38.7294 26.3848 38.1243 26.5523C37.5198 26.7199 36.8186 27.1846 36.108 27.9579C34.6703 29.4828 33.2745 32.3389 32.1024 35.9635C30.9307 39.5886 30.0395 43.0847 29.4342 45.6647C29.1401 46.966 28.9374 48.0619 28.8918 48.9389C28.8456 49.8151 28.9612 50.4774 29.2901 50.8943C29.6175 51.3092 30.128 51.4409 30.7446 51.2882C31.3606 51.1353 32.0778 50.6907 32.8041 49.9374" fill="#80E58A"/>
<path d="M44.6534 30.185L44.7484 30.2151C44.7605 30.17 44.74 30.1212 44.6992 30.0976C44.6584 30.074 44.6082 30.0819 44.5783 30.1167L44.6534 30.185ZM31.8444 57.3952L31.772 57.324L31.772 57.324L31.8444 57.3952ZM31.4565 57.4144L31.3808 57.476L31.3809 57.476L31.4565 57.4144ZM27.7312 57.3863L27.6781 57.2993L27.6778 57.2995L27.7312 57.3863ZM27.2293 57.3539L27.305 57.2924L27.3049 57.2923L27.2293 57.3539ZM23.0972 52.1149L23.0215 52.1765L23.0215 52.1765L23.0972 52.1149ZM23.2441 51.6967L23.1909 51.6097L23.1908 51.6098L23.2441 51.6967ZM24.047 48.0199L24.1227 47.9583L24.1226 47.9583L24.047 48.0199ZM24.0961 47.6319L24.1682 47.7035L24.1682 47.7034L24.0961 47.6319ZM36.9559 20.3649L36.8811 20.2964L36.8811 20.2964L36.9559 20.3649ZM37.2892 20.337L37.2135 20.3985L37.2135 20.3986L37.2892 20.337ZM40.925 20.2512L40.9823 20.3354L40.9825 20.3354L40.925 20.2512ZM41.4675 20.2685L41.3918 20.33L41.3918 20.3301L41.4675 20.2685ZM45.5627 25.4608L45.487 25.5224L45.4871 25.5224L45.5627 25.4608ZM45.4124 25.9409L45.4697 26.0251L45.4699 26.025L45.4124 25.9409ZM44.6985 29.7317L44.6229 29.7933L44.6229 29.7934L44.6985 29.7317ZM44.6533 30.1853L44.5582 30.1552C44.5462 30.2003 44.5666 30.2491 44.6074 30.2727C44.6482 30.2964 44.6984 30.2884 44.7283 30.2536L44.6533 30.1853ZM32.7339 49.8643C32.6959 49.9027 32.6967 49.9666 32.7356 50.007C32.7746 50.0474 32.8369 50.0491 32.8749 50.0107L32.8044 49.9375L32.7339 49.8643ZM36.8718 42.0105L36.7782 41.9755L36.7782 41.9755L36.8718 42.0105ZM39.4782 32.2307L39.5743 32.2564L39.5745 32.2556L39.4782 32.2307ZM39.9774 28.9016L39.879 28.8937L39.879 28.8938L39.9774 28.9016ZM38.1243 26.5523L38.0953 26.4548L38.0952 26.4548L38.1243 26.5523ZM36.108 27.9579L36.1801 28.0294L36.1809 28.0286L36.108 27.9579ZM32.1024 35.9635L32.0088 35.9285L32.0088 35.9285L32.1024 35.9635ZM29.4342 45.6647L29.3384 45.6376L29.3382 45.6384L29.4342 45.6647ZM28.8918 48.9389L28.9901 48.9483L28.9901 48.9482L28.8918 48.9389ZM29.2901 50.8943L29.3658 50.8327L29.3658 50.8327L29.2901 50.8943ZM30.7446 51.2882L30.7712 51.3864L30.7712 51.3864L30.7446 51.2882ZM32.8755 50.0097C32.913 49.9709 32.9114 49.907 32.872 49.867C32.8326 49.8271 32.7703 49.8262 32.7328 49.8651L32.8041 49.9374L32.8755 50.0097ZM44.6534 30.185L44.5783 30.1167C41.5866 33.6018 39.9285 38.7695 38.2473 43.8709C36.5623 48.9837 34.8541 54.0297 31.772 57.324L31.8444 57.3952L31.9167 57.4665C35.0331 54.1357 36.7526 49.0442 38.4341 43.942C40.1194 38.8283 41.7667 33.7034 44.7284 30.2533L44.6534 30.185ZM31.8444 57.3952L31.772 57.324C31.6749 57.4278 31.5713 57.4024 31.5321 57.3527L31.4565 57.4144L31.3809 57.476C31.5194 57.6515 31.7656 57.6282 31.9167 57.4665L31.8444 57.3952ZM31.4565 57.4144L31.5321 57.3528C31.1011 56.8063 30.48 56.5787 29.799 56.595C29.1201 56.6112 28.3759 56.8691 27.6781 57.2993L27.7312 57.3863L27.7843 57.4733C28.4626 57.0552 29.1747 56.812 29.8112 56.7968C30.4457 56.7816 30.9993 56.9922 31.3808 57.476L31.4565 57.4144ZM27.7312 57.3863L27.6778 57.2995C27.6095 57.3419 27.5285 57.361 27.4563 57.3569C27.3829 57.3527 27.3314 57.3259 27.305 57.2924L27.2293 57.3539L27.1536 57.4155C27.2283 57.5102 27.3431 57.5522 27.453 57.5584C27.5642 57.5647 27.6835 57.5359 27.7846 57.4732L27.7312 57.3863ZM27.2293 57.3539L27.3049 57.2923C26.6163 56.4191 25.9276 55.546 25.2389 54.6728C24.5502 53.7997 23.8615 52.9265 23.1728 52.0533L23.0972 52.1149L23.0215 52.1765C23.7102 53.0497 24.3989 53.9229 25.0876 54.796C25.7763 55.6691 26.465 56.5423 27.1536 57.4155L27.2293 57.3539ZM23.0972 52.1149L23.1728 52.0533C23.1496 52.0239 23.1428 51.9857 23.1612 51.9363C23.1805 51.8847 23.2266 51.8275 23.2973 51.7836L23.2441 51.6967L23.1908 51.6098C23.0919 51.6711 23.014 51.7588 22.9769 51.8579C22.9391 51.9593 22.9436 52.0776 23.0215 52.1765L23.0972 52.1149ZM23.2441 51.6967L23.2972 51.7837C24.7171 50.9084 24.9663 49.028 24.1227 47.9583L24.047 48.0199L23.9714 48.0815C24.7303 49.0436 24.5231 50.7885 23.1909 51.6097L23.2441 51.6967ZM24.047 48.0199L24.1226 47.9583C24.0864 47.9123 24.0809 47.796 24.1682 47.7035L24.0961 47.6319L24.024 47.5604C23.8925 47.6998 23.8517 47.93 23.9714 48.0816L24.047 48.0199ZM24.0961 47.6319L24.1682 47.7034C27.3011 44.373 29.0255 39.2672 30.7117 34.1507C32.4017 29.0225 34.0534 23.8833 37.0308 20.4333L36.9559 20.3649L36.8811 20.2964C33.8734 23.7816 32.2107 28.9639 30.5249 34.0795C28.8352 39.2068 27.1222 44.2669 24.0239 47.5605L24.0961 47.6319ZM36.9559 20.3649L37.0308 20.4333C37.0693 20.3887 37.1112 20.3712 37.1431 20.369C37.1739 20.3669 37.1975 20.3783 37.2135 20.3985L37.2892 20.337L37.3649 20.2755C37.2343 20.1098 37.0105 20.1466 36.8811 20.2964L36.9559 20.3649ZM37.2892 20.337L37.2135 20.3986C37.645 20.9455 38.2582 21.1621 38.9253 21.1252C39.5896 21.0884 40.3118 20.8009 40.9823 20.3354L40.925 20.2512L40.8676 20.167C40.2165 20.6189 39.5271 20.8894 38.9071 20.9237C38.2898 20.9578 37.746 20.7587 37.3648 20.2754L37.2892 20.337ZM40.925 20.2512L40.9825 20.3354C41.0566 20.2837 41.1448 20.2587 41.2234 20.2605C41.303 20.2623 41.3607 20.2905 41.3918 20.33L41.4675 20.2685L41.5432 20.207C41.4625 20.1046 41.339 20.0614 41.2202 20.0587C41.1005 20.056 40.9734 20.0933 40.8675 20.1671L40.925 20.2512ZM41.4675 20.2685L41.3918 20.3301C42.757 22.0609 44.1221 23.7917 45.487 25.5224L45.5627 25.4608L45.6383 25.3992C44.2734 23.6685 42.9083 21.9377 41.5431 20.207L41.4675 20.2685ZM45.5627 25.4608L45.4871 25.5224C45.5158 25.5589 45.5246 25.6085 45.5037 25.6709C45.4823 25.7347 45.4312 25.8036 45.3549 25.8567L45.4124 25.9409L45.4699 26.025C45.5736 25.9527 45.6535 25.8525 45.6903 25.743C45.7274 25.6321 45.7214 25.5044 45.6383 25.3992L45.5627 25.4608ZM45.4124 25.9409L45.3551 25.8566C43.9924 26.8025 43.7808 28.7253 44.6229 29.7933L44.6985 29.7317L44.7742 29.6702C44.0138 28.7058 44.189 26.914 45.4697 26.0251L45.4124 25.9409ZM44.6985 29.7317L44.6229 29.7934C44.6465 29.8232 44.6617 29.8728 44.6559 29.9354C44.6503 29.997 44.6247 30.063 44.5783 30.117L44.6533 30.1853L44.7283 30.2536C44.8012 30.1688 44.8427 30.0643 44.852 29.9619C44.8613 29.8606 44.8395 29.7529 44.7741 29.6701L44.6985 29.7317ZM44.6533 30.1853L44.7483 30.2155L44.7484 30.2151L44.6534 30.185L44.5583 30.1549L44.5582 30.1552L44.6533 30.1853ZM32.8044 49.9375L32.8749 50.0107C34.3606 48.51 35.7925 45.6743 36.9654 42.0455L36.8718 42.0105L36.7782 41.9755C35.6079 45.5962 34.1873 48.3962 32.7339 49.8643L32.8044 49.9375ZM36.8718 42.0105L36.9654 42.0455C38.1388 38.4168 39.0004 34.8791 39.5743 32.2564L39.4782 32.2307L39.3821 32.2051C38.8089 34.824 37.9489 38.355 36.7782 41.9755L36.8718 42.0105ZM39.4782 32.2307L39.5745 32.2556C39.8531 30.9335 40.0415 29.8101 40.0758 28.9094L39.9774 28.9016L39.879 28.8938C39.8454 29.7761 39.6601 30.8854 39.3819 32.2058L39.4782 32.2307ZM39.9774 28.9016L40.0758 28.9095C40.1106 28.0137 39.9898 27.3095 39.6359 26.8609L39.5603 26.9225L39.4846 26.984C39.789 27.37 39.9134 28.0078 39.879 28.8937L39.9774 28.9016ZM39.5603 26.9225L39.6359 26.8609C39.2736 26.4014 38.7251 26.2805 38.0953 26.4548L38.1243 26.5523L38.1534 26.6498C38.7337 26.4892 39.1888 26.6089 39.4846 26.984L39.5603 26.9225ZM38.1243 26.5523L38.0952 26.4548C37.4679 26.6288 36.7524 27.1066 36.0351 27.8872L36.108 27.9579L36.1809 28.0286C36.8848 27.2626 37.5718 26.8111 38.1534 26.6498L38.1243 26.5523ZM36.108 27.9579L36.0359 27.8863C34.5832 29.4273 33.1819 32.3006 32.0088 35.9285L32.1024 35.9635L32.196 35.9986C33.367 32.3773 34.7575 29.5384 36.1801 28.0294L36.108 27.9579ZM32.1024 35.9635L32.0088 35.9285C30.836 39.5571 29.9441 43.0561 29.3384 45.6376L29.4342 45.6647L29.53 45.6918C30.135 43.1134 31.0255 39.6201 32.196 35.9985L32.1024 35.9635ZM29.4342 45.6647L29.3382 45.6384C29.044 46.9402 28.8395 48.0434 28.7935 48.9297L28.8918 48.9389L28.9901 48.9482C29.0353 48.0805 29.2362 46.9917 29.5302 45.691L29.4342 45.6647ZM28.8918 48.9389L28.7935 48.9296C28.747 49.8112 28.8604 50.5071 29.2145 50.9559L29.2901 50.8943L29.3658 50.8327C29.062 50.4477 28.9442 49.819 28.9901 48.9483L28.8918 48.9389ZM29.2901 50.8943L29.2145 50.9559C29.5744 51.4121 30.1303 51.5451 30.7712 51.3864L30.7446 51.2882L30.718 51.1901C30.1256 51.3368 29.6606 51.2064 29.3658 50.8327L29.2901 50.8943ZM30.7446 51.2882L30.7712 51.3864C31.4101 51.2278 32.1419 50.7706 32.8755 50.0097L32.8041 49.9374L32.7328 49.8651C32.0138 50.6108 31.3112 51.0429 30.718 51.1901L30.7446 51.2882Z" fill="#082422" mask="url(#path-16-outside-3_664_11626)"/>
<path d="M51.4449 28.3022C37.8071 32.481 34.4711 49.1603 23.8729 56.9769C18.904 50.6607 18.5364 50.4311 15.2031 45.8557C25.8015 38.0388 30.6922 23.9307 41.2906 16.1143C44.2017 21.971 44.1758 19.6212 51.4449 28.3022Z" fill="black" fill-opacity="0.2"/>
<path d="M42.8471 28.8217C34.5259 34.1907 32.1056 46.1506 23.1933 50.8597C23.02 50.9513 22.8074 50.922 22.7107 50.814C22.6789 50.7747 22.6546 50.7458 22.6296 50.7177C21.7456 49.7303 19.8548 49.6113 18.0175 50.1119C17.7902 50.1739 17.5088 50.1302 17.3987 50.0071C15.9786 48.2198 14.5651 46.44 13.1502 44.659C13.0462 44.5285 13.1746 44.3732 13.4024 44.3041C15.2548 43.7473 15.808 42.1418 14.9688 41.0869C14.8873 40.9844 14.9341 40.8291 15.0857 40.74C23.7148 35.6743 26.1177 23.6537 34.7907 18.6365C34.9384 18.5509 35.1219 18.5711 35.207 18.6661C35.2377 18.7042 35.2622 18.7332 35.2873 18.761C36.1714 19.7484 38.0247 19.8257 39.8019 19.2582C40.0451 19.1805 40.3517 19.2207 40.4735 19.3568C41.8864 21.1343 43.2914 22.9028 44.698 24.6728C44.8134 24.8182 44.6758 24.9976 44.4319 25.0836C42.6399 25.7071 42.127 27.3578 42.9684 28.4155C43.0615 28.5325 43.0136 28.7145 42.8474 28.8218L42.8471 28.8217ZM25.5363 44.3772C27.5773 43.3303 29.7363 41.0976 31.6639 38.076C33.5924 35.0557 35.1127 32.0316 36.1769 29.7681C36.6992 28.6254 37.0855 27.6493 37.254 26.8497C37.4232 26.0507 37.3692 25.423 37.0215 24.9869C37.0054 24.9671 36.9891 24.9475 36.9721 24.9288C36.6197 24.5353 36.0326 24.3524 35.291 24.3873C34.514 24.4245 33.5737 24.7069 32.5809 25.2613C30.5757 26.348 28.4516 28.6198 26.5252 31.6425C24.5985 34.6648 23.0456 37.6523 21.9456 39.8759C21.4055 40.9987 21.0011 41.955 20.8194 42.7396C20.6369 43.524 20.6824 44.1418 21.0292 44.5768C21.0452 44.5967 21.0613 44.6162 21.0782 44.6352C21.4306 45.0287 22.025 45.2196 22.7785 45.1982C23.5675 45.1746 24.5254 44.9118 25.5359 44.3774" fill="#80E58A"/>
<mask id="path-20-outside-4_664_11626" maskUnits="userSpaceOnUse" x="3.52971" y="5.7787" width="51.1583" height="57.4669" fill="black">
<rect fill="white" x="3.52971" y="5.7787" width="51.1583" height="57.4669"/>
<path d="M51.5508 28.0454C34.2918 30.2405 35.8512 53.4426 17.685 54.6253C14.1866 50.2149 10.6771 45.7924 7.15735 41.3583C24.4166 39.1633 22.8566 15.9614 41.023 14.7788C44.5215 19.1891 48.031 23.6113 51.5508 28.0454ZM22.6791 50.8885C22.7846 51.0069 22.9985 51.0364 23.1724 50.9443C32.1282 46.2149 34.5599 34.2037 42.9219 28.8116C43.0893 28.7036 43.137 28.5211 43.0438 28.4033C42.1983 27.3414 42.7134 25.6835 44.5145 25.0571C44.7595 24.971 44.8978 24.7908 44.7818 24.6449C43.3683 22.8672 41.9561 21.0913 40.5454 19.3166C40.4142 19.1695 40.1062 19.1289 39.8618 19.2072C38.0756 19.7771 36.2132 19.6994 35.3248 18.7078C35.2996 18.6796 35.275 18.6504 35.2513 18.6209C35.1586 18.517 34.9742 18.4964 34.8258 18.5824C26.1104 23.6212 23.6961 35.6938 15.0245 40.7811C14.8722 40.8706 14.8249 41.0262 14.9068 41.1295C15.7501 42.1889 15.1942 43.8013 13.3327 44.3605C13.1038 44.4299 12.975 44.5859 13.0793 44.7169C14.5011 46.5056 15.9216 48.2928 17.3402 50.0782C17.4593 50.2114 17.7419 50.2557 17.9701 50.1933C19.8163 49.6905 21.7164 49.8101 22.605 50.8018C22.6302 50.83 22.6545 50.859 22.6782 50.8886"/>
</mask>
<path d="M51.5508 28.0454C34.2918 30.2405 35.8512 53.4426 17.685 54.6253C14.1866 50.2149 10.6771 45.7924 7.15735 41.3583C24.4166 39.1633 22.8566 15.9614 41.023 14.7788C44.5215 19.1891 48.031 23.6113 51.5508 28.0454ZM22.6791 50.8885C22.7846 51.0069 22.9985 51.0364 23.1724 50.9443C32.1282 46.2149 34.5599 34.2037 42.9219 28.8116C43.0893 28.7036 43.137 28.5211 43.0438 28.4033C42.1983 27.3414 42.7134 25.6835 44.5145 25.0571C44.7595 24.971 44.8978 24.7908 44.7818 24.6449C43.3683 22.8672 41.9561 21.0913 40.5454 19.3166C40.4142 19.1695 40.1062 19.1289 39.8618 19.2072C38.0756 19.7771 36.2132 19.6994 35.3248 18.7078C35.2996 18.6796 35.275 18.6504 35.2513 18.6209C35.1586 18.517 34.9742 18.4964 34.8258 18.5824C26.1104 23.6212 23.6961 35.6938 15.0245 40.7811C14.8722 40.8706 14.8249 41.0262 14.9068 41.1295C15.7501 42.1889 15.1942 43.8013 13.3327 44.3605C13.1038 44.4299 12.975 44.5859 13.0793 44.7169C14.5011 46.5056 15.9216 48.2928 17.3402 50.0782C17.4593 50.2114 17.7419 50.2557 17.9701 50.1933C19.8163 49.6905 21.7164 49.8101 22.605 50.8018C22.6302 50.83 22.6545 50.859 22.6782 50.8886" fill="#60D06F"/>
<path d="M51.5508 28.0454L51.5663 28.1454C51.6013 28.141 51.6307 28.1175 51.6431 28.084C51.6556 28.0505 51.6492 28.0122 51.6265 27.9835L51.5508 28.0454ZM17.685 54.6253L17.6093 54.6871C17.6302 54.7135 17.6622 54.728 17.6947 54.7259L17.685 54.6253ZM7.15735 41.3583L7.14183 41.2583C7.1068 41.2627 7.07747 41.2862 7.06502 41.3197C7.05257 41.3532 7.05892 41.3916 7.08165 41.4202L7.15735 41.3583ZM41.023 14.7788L41.0987 14.7169C41.0778 14.6906 41.0458 14.676 41.0133 14.6782L41.023 14.7788ZM22.7509 50.822C22.7136 50.7802 22.6512 50.776 22.6115 50.8127C22.5718 50.8494 22.57 50.9131 22.6073 50.955L22.6791 50.8885L22.7509 50.822ZM23.1724 50.9443L23.1247 50.8544L23.1246 50.8544L23.1724 50.9443ZM42.9219 28.8116L42.8672 28.7258L42.8672 28.7258L42.9219 28.8116ZM43.0438 28.4033L43.1196 28.3416L43.1194 28.3413L43.0438 28.4033ZM44.5145 25.0571L44.5491 25.1527L44.5494 25.1526L44.5145 25.0571ZM44.7818 24.6449L44.8575 24.583L44.8575 24.5829L44.7818 24.6449ZM40.5454 19.3166L40.6212 19.2546L40.6172 19.2502L40.5454 19.3166ZM39.8618 19.2072L39.8941 19.3035L39.8942 19.3035L39.8618 19.2072ZM35.3248 18.7078L35.253 18.7743L35.2532 18.7745L35.3248 18.7078ZM35.2513 18.6209L35.3269 18.5586L35.3231 18.5543L35.2513 18.6209ZM34.8258 18.5824L34.8766 18.6706L34.8767 18.6706L34.8258 18.5824ZM15.0245 40.7811L14.9733 40.6933L14.9732 40.6933L15.0245 40.7811ZM14.9068 41.1295L14.8311 41.1913L14.8312 41.1915L14.9068 41.1295ZM13.3327 44.3605L13.3019 44.2637L13.3017 44.2638L13.3327 44.3605ZM13.0793 44.7169L13.1549 44.655L13.1549 44.655L13.0793 44.7169ZM17.3402 50.0782L17.2643 50.1403L17.2685 50.1449L17.3402 50.0782ZM17.9701 50.1933L17.9417 50.0958L17.9416 50.0958L17.9701 50.1933ZM22.605 50.8018L22.6767 50.7353L22.6766 50.7351L22.605 50.8018ZM22.6027 50.9508C22.6378 50.9946 22.7 51.0023 22.7417 50.9679C22.7833 50.9336 22.7887 50.8702 22.7536 50.8264L22.6782 50.8886L22.6027 50.9508ZM51.5508 28.0454L51.5353 27.9453C42.856 29.0492 38.9094 35.441 34.8753 41.6572C30.8357 47.8821 26.7068 53.9367 17.6753 54.5247L17.685 54.6253L17.6947 54.7259C26.8294 54.1312 31.0039 47.9934 35.0408 41.7727C39.0834 35.5435 42.9865 29.2367 51.5663 28.1454L51.5508 28.0454ZM17.685 54.6253L17.7607 54.5634C14.2623 50.1531 10.7528 45.7306 7.23305 41.2965L7.15735 41.3583L7.08165 41.4202C10.6014 45.8543 14.1109 50.2768 17.6093 54.6871L17.685 54.6253ZM7.15735 41.3583L7.17287 41.4584C15.8522 40.3546 19.7988 33.9628 23.8327 27.7466C27.8723 21.5219 32.0011 15.4673 41.0327 14.8794L41.023 14.7788L41.0133 14.6782C31.8785 15.2728 27.7041 21.4106 23.6672 27.6312C19.6248 33.8604 15.7217 40.1671 7.14183 41.2583L7.15735 41.3583ZM41.023 14.7788L40.9473 14.8406C44.4457 19.251 47.9553 23.6731 51.4751 28.1072L51.5508 28.0454L51.6265 27.9835C48.1067 23.5494 44.5972 19.1273 41.0987 14.7169L41.023 14.7788ZM22.6791 50.8885L22.6073 50.955C22.7516 51.1168 23.0178 51.1413 23.2201 51.0341L23.1724 50.9443L23.1246 50.8544C22.9792 50.9315 22.8177 50.897 22.7509 50.822L22.6791 50.8885ZM23.1724 50.9443L23.22 51.0342C27.7225 48.6565 30.5813 44.45 33.3526 40.1842C36.1286 35.9111 38.816 31.5803 42.9765 28.8974L42.9219 28.8116L42.8672 28.7258C38.6658 31.435 35.9564 35.8059 33.1871 40.0687C30.413 44.3388 27.578 48.5027 23.1247 50.8544L23.1724 50.9443ZM42.9219 28.8116L42.9765 28.8974C43.0765 28.8329 43.1466 28.7424 43.1753 28.6426C43.2042 28.5418 43.1902 28.4307 43.1196 28.3416L43.0438 28.4033L42.968 28.4651C42.9907 28.4937 42.9994 28.5328 42.9859 28.5797C42.9721 28.6276 42.9346 28.6823 42.8672 28.7258L42.9219 28.8116ZM43.0438 28.4033L43.1194 28.3413C42.722 27.8422 42.6423 27.2021 42.8782 26.6076C43.1145 26.0122 43.67 25.4584 44.5491 25.1527L44.5145 25.0571L44.4798 24.9615C43.5578 25.2822 42.9553 25.8706 42.6951 26.5262C42.4346 27.1827 42.5202 27.9026 42.9682 28.4653L43.0438 28.4033ZM44.5145 25.0571L44.5494 25.1526C44.6836 25.1054 44.7992 25.0293 44.865 24.9332C44.8984 24.8843 44.9212 24.8267 44.922 24.7636C44.9228 24.6988 44.9003 24.6368 44.8575 24.583L44.7818 24.6449L44.7062 24.7068C44.7213 24.7259 44.725 24.7412 44.7248 24.7539C44.7247 24.7683 44.7194 24.7885 44.7021 24.8137C44.6665 24.8657 44.5904 24.9227 44.4796 24.9616L44.5145 25.0571ZM44.7818 24.6449L44.8575 24.5829C43.444 22.8052 42.0318 21.0294 40.6211 19.2547L40.5454 19.3166L40.4698 19.3786C41.8805 21.1532 43.2927 22.9291 44.7062 24.7068L44.7818 24.6449ZM40.5454 19.3166L40.6172 19.2502C40.5292 19.1514 40.3928 19.0982 40.2571 19.0777C40.1189 19.0568 39.9659 19.0671 39.8293 19.1109L39.8618 19.2072L39.8942 19.3035C40.002 19.2689 40.1252 19.2605 40.2349 19.2771C40.3472 19.2941 40.4304 19.3347 40.4736 19.3831L40.5454 19.3166ZM39.8618 19.2072L39.8294 19.1109C38.9456 19.3928 38.0464 19.5134 37.2618 19.4426C36.476 19.3718 35.8168 19.1104 35.3965 18.6411L35.3248 18.7078L35.2532 18.7745C35.7211 19.2968 36.4374 19.5701 37.2513 19.6435C38.0667 19.717 38.9917 19.5914 39.8941 19.3035L39.8618 19.2072ZM35.3248 18.7078L35.3966 18.6413C35.3726 18.6144 35.3492 18.5868 35.3268 18.5587L35.2513 18.6209L35.1759 18.6831C35.2007 18.7141 35.2266 18.7447 35.2531 18.7743L35.3248 18.7078ZM35.2513 18.6209L35.3231 18.5543C35.1901 18.4054 34.9515 18.392 34.775 18.4943L34.8258 18.5824L34.8767 18.6706C34.997 18.6009 35.1271 18.6287 35.1796 18.6874L35.2513 18.6209ZM34.8258 18.5824L34.775 18.4943C30.3945 21.0269 27.6006 25.3256 24.826 29.6059C22.0465 33.8936 19.2865 38.1628 14.9733 40.6933L15.0245 40.7811L15.0758 40.869C19.4342 38.3121 22.217 34.0014 24.9915 29.7213C27.7708 25.4338 30.5418 21.1768 34.8766 18.6706L34.8258 18.5824ZM15.0245 40.7811L14.9732 40.6933C14.881 40.7475 14.8135 40.8257 14.7842 40.9151C14.7544 41.0063 14.7655 41.1085 14.8311 41.1913L14.9068 41.1295L14.9826 41.0677C14.9663 41.0472 14.9601 41.02 14.9715 40.9851C14.9834 40.9486 15.0158 40.9043 15.0759 40.869L15.0245 40.7811ZM14.9068 41.1295L14.8312 41.1915C15.2271 41.6888 15.296 42.3153 15.0439 42.8886C14.7911 43.4634 14.2117 43.9904 13.3019 44.2637L13.3327 44.3605L13.3636 44.4573C14.3152 44.1714 14.9445 43.6126 15.2242 42.9765C15.5046 42.3389 15.4298 41.6295 14.9824 41.0675L14.9068 41.1295ZM13.3327 44.3605L13.3017 44.2638C13.1759 44.3019 13.066 44.3669 13.0019 44.4527C12.9693 44.4965 12.9459 44.5496 12.9442 44.6092C12.9424 44.6705 12.9638 44.7288 13.0036 44.7789L13.0793 44.7169L13.1549 44.655C13.1426 44.6396 13.1411 44.6292 13.1413 44.6223C13.1415 44.6137 13.1451 44.5988 13.1602 44.5785C13.1918 44.5363 13.2606 44.4885 13.3638 44.4573L13.3327 44.3605ZM13.0793 44.7169L13.0036 44.7789C14.4255 46.5675 15.8459 48.3547 17.2645 50.1401L17.3402 50.0782L17.4158 50.0163C15.9973 48.2309 14.5768 46.4437 13.1549 44.655L13.0793 44.7169ZM17.3402 50.0782L17.2685 50.1449C17.3499 50.2358 17.4759 50.2866 17.601 50.3085C17.7286 50.3307 17.8706 50.3258 17.9987 50.2907L17.9701 50.1933L17.9416 50.0958C17.8415 50.1232 17.728 50.1273 17.6275 50.1097C17.5244 50.0917 17.4496 50.0538 17.4118 50.0116L17.3402 50.0782ZM17.9701 50.1933L17.9986 50.2908C18.9128 50.0418 19.8371 49.9479 20.6394 50.0373C21.4433 50.1269 22.1125 50.3988 22.5333 50.8685L22.605 50.8018L22.6766 50.7351C22.2088 50.2131 21.4837 49.9293 20.6539 49.8369C19.8225 49.7443 18.8736 49.842 17.9417 50.0958L17.9701 50.1933ZM22.605 50.8018L22.5332 50.8683C22.557 50.8949 22.5801 50.9225 22.6027 50.9508L22.6782 50.8886L22.7536 50.8264C22.729 50.7956 22.7034 50.7651 22.6767 50.7353L22.605 50.8018Z" fill="#082422" mask="url(#path-20-outside-4_664_11626)"/>
<path d="M35.2366 24.3992C35.9781 24.3642 36.5779 24.5465 36.9417 24.9536L36.9434 24.9551C36.9601 24.9741 36.9765 24.9939 36.9928 25.0145C37.3524 25.4664 37.4034 26.1109 37.2347 26.9102C37.0665 27.711 36.6817 28.6862 36.1639 29.8227L36.1636 29.8236C35.1084 32.0752 33.5999 35.0838 31.687 38.0886C29.7744 41.0961 27.6292 43.3242 25.5959 44.3704L25.5952 44.3692C24.5892 44.9027 23.6337 45.1679 22.843 45.1916C22.0895 45.2132 21.4824 45.022 21.1187 44.6149L21.119 44.614C21.1019 44.5946 21.0842 44.5751 21.0676 44.5539C20.7088 44.1023 20.6683 43.468 20.8502 42.6833C21.0316 41.8975 21.4344 40.9423 21.9697 39.826L21.9699 39.825C23.0608 37.6136 24.6008 34.6411 26.5112 31.6344C28.4225 28.6264 30.5324 26.3597 32.5298 25.2737C33.5183 24.7201 34.4575 24.4366 35.2366 24.3992Z" fill="#60D06F" stroke="#082422" stroke-width="0.100076" stroke-miterlimit="10" stroke-linecap="round" stroke-linejoin="round"/>
<path fill-rule="evenodd" clip-rule="evenodd" d="M55.048 12.6203C54.6359 12.9041 54.2293 13.2715 53.8426 13.7216C51.8475 16.0425 51.1184 19.7002 52.2194 21.8747C52.4858 22.4004 52.8328 22.7917 53.2373 23.0512C53.2157 23.0375 53.1942 23.0236 53.1731 23.0091L53.1577 22.9983C53.1628 23.0019 53.1679 23.0055 53.1731 23.0091L53.8499 23.4813C55.1215 24.3687 56.9805 23.8926 58.5271 22.096C59.1375 21.3859 59.6294 20.5507 59.9867 19.6711C59.7296 18.6697 59.3032 17.7392 58.7482 17.0712L55.048 12.6203ZM52.687 22.5277C52.7039 22.5497 52.7224 22.5693 52.7409 22.5889L52.7409 22.589C52.738 22.5856 52.7352 22.5823 52.7324 22.579C52.717 22.5611 52.7026 22.5443 52.687 22.5277ZM55.0276 12.663L55.0277 12.663L55.0275 12.6608L54.9755 12.6991C54.993 12.6885 55.0103 12.6757 55.0276 12.663ZM54.7873 12.8434C54.8081 12.8281 54.827 12.813 54.846 12.7979C54.8365 12.8055 54.8266 12.8131 54.8166 12.8207C54.8067 12.8283 54.7968 12.8359 54.7873 12.8434ZM54.6298 12.9692C54.6371 12.9635 54.6444 12.9578 54.6513 12.9517L54.6529 12.9493C54.6451 12.9556 54.6379 12.9618 54.6306 12.968C54.6281 12.9701 54.6257 12.9722 54.6233 12.9743C54.6254 12.9726 54.6276 12.9709 54.6298 12.9692ZM53.5755 23.195C53.5614 23.1884 53.5474 23.1819 53.5338 23.1758C53.5446 23.1806 53.5553 23.1857 53.5662 23.191C53.5828 23.1989 53.5997 23.207 53.6172 23.2143C53.6036 23.2082 53.5896 23.2016 53.5755 23.195ZM54.3948 13.1772C54.4068 13.1672 54.4205 13.1549 54.4323 13.1427L54.4339 13.1404C54.4271 13.1466 54.4207 13.1527 54.4144 13.1588C54.408 13.1649 54.4016 13.1711 54.3948 13.1772ZM54.246 13.3217C54.2299 13.3364 54.2149 13.3521 54.1999 13.3678C54.2091 13.3581 54.2185 13.349 54.2278 13.3398C54.2339 13.3338 54.24 13.3279 54.246 13.3217ZM52.9532 22.7954L52.9817 22.8226C52.9782 22.8193 52.975 22.8159 52.9718 22.8127C52.9656 22.8064 52.9597 22.8004 52.9532 22.7954ZM53.1213 22.9338C53.132 22.9421 53.1427 22.9502 53.1538 22.9575C53.1466 22.9521 53.1394 22.9469 53.1323 22.9417C53.1286 22.9391 53.1249 22.9364 53.1213 22.9338ZM53.4713 23.1805C53.4752 23.1822 53.485 23.1877 53.485 23.1877L53.4829 23.1857L53.4713 23.1805Z" fill="black" fill-opacity="0.2"/>
<path d="M57.1146 9.40998L57.133 9.41777L57.8839 9.94285C58.2918 10.2286 58.6452 10.6412 58.9181 11.1801C59.5212 12.3726 59.6227 13.9637 59.3031 15.5689C58.9834 17.1747 58.2413 18.8005 57.1529 20.0665C55.4701 22.0232 53.4317 22.5615 52.0251 21.5809L51.2909 21.0668C51.2853 21.063 51.2787 21.0598 51.2732 21.056C51.2511 21.0402 51.246 21.0092 51.2617 20.9865C51.2737 20.9693 51.2946 20.962 51.3137 20.9661L51.3311 20.974L51.3321 20.9738C52.6774 21.9135 54.6589 21.4168 56.3264 19.4781C57.4021 18.2267 58.1369 16.6173 58.4536 15.0272C58.7704 13.4364 58.6676 11.8699 58.0775 10.7023C57.8111 10.176 57.4682 9.77617 57.0752 9.50076C57.0527 9.48504 57.0466 9.45321 57.0626 9.43045C57.0746 9.41343 57.0956 9.40603 57.1146 9.40998Z" fill="#B3D000" stroke="#082422" stroke-width="0.100076" stroke-linecap="round" stroke-linejoin="round"/>
<path d="M55.4411 8.95272C56.5631 8.90045 57.5594 9.47131 58.164 10.6666C58.7673 11.8595 58.8679 13.4508 58.5482 15.0565C58.2283 16.6628 57.487 18.2896 56.3982 19.556C55.3097 20.822 54.0748 21.4932 52.9559 21.5454C51.8339 21.5976 50.8376 21.0268 50.233 19.8315C49.6297 18.6386 49.5291 17.0473 49.8488 15.4416C50.1687 13.8353 50.91 12.2085 51.9988 10.9421C53.0873 9.67609 54.3222 9.00495 55.4411 8.95272Z" fill="#DAFC35" stroke="#082422" stroke-width="0.100076" stroke-linecap="round" stroke-linejoin="round"/>
<path d="M54.4182 12.1022C54.4331 12.1081 54.4442 12.1206 54.4479 12.1363L54.586 12.7348C54.8944 12.6286 55.1631 12.6086 55.3832 12.693C55.6177 12.7831 55.7858 12.9867 55.886 13.3004C55.8928 13.322 55.8841 13.3462 55.865 13.3587L54.5393 14.2269C54.5257 14.2358 54.5086 14.2377 54.4937 14.2319C54.4789 14.2261 54.4678 14.2133 54.464 14.1979C54.4265 14.0487 54.372 13.994 54.3188 13.9802C54.2609 13.9651 54.1789 13.9902 54.0678 14.0629C53.8695 14.1934 53.8201 14.3287 53.8406 14.4179C53.8494 14.4557 53.8651 14.4724 53.8819 14.4811C53.9015 14.4911 53.933 14.4955 53.9836 14.4886C54.0865 14.4744 54.234 14.4191 54.4367 14.3443L54.648 14.2669C55.0299 14.1228 55.4078 14.0928 55.7041 14.1533C55.9978 14.2135 56.225 14.3674 56.2791 14.6025C56.4167 15.1997 56.1246 15.8555 55.4511 16.4696L55.6122 17.1648C55.6169 17.1854 55.6087 17.2075 55.5909 17.2192L54.3076 18.0591C54.2939 18.0679 54.2769 18.07 54.2619 18.0641C54.2471 18.0582 54.2358 18.0448 54.2322 18.0291L54.0777 17.3626C53.7131 17.5101 53.4097 17.5425 53.1684 17.4522C52.9133 17.3564 52.7411 17.1295 52.6393 16.7946C52.6328 16.7732 52.6415 16.7497 52.6604 16.7373L54.0636 15.8183L54.0854 15.81C54.093 15.8091 54.1009 15.8098 54.1082 15.8124C54.1229 15.8178 54.1344 15.8303 54.1388 15.8454C54.1828 15.9965 54.2374 16.0681 54.2993 16.0909C54.3612 16.1136 54.453 16.0959 54.5951 16.0042L54.7322 15.8988C54.8272 15.8102 54.8753 15.7207 54.8748 15.6345L54.8689 15.5831C54.8615 15.551 54.849 15.5369 54.8384 15.5296C54.8271 15.5219 54.8092 15.5167 54.7785 15.5185C54.7135 15.5223 54.6211 15.5544 54.496 15.6007L54.0299 15.773L54.031 15.7738C53.5315 15.9657 53.1675 16.0299 52.9075 15.9626C52.6396 15.8933 52.4937 15.6887 52.4221 15.3827C52.2943 14.8264 52.569 14.1988 53.2128 13.6092L53.0749 13.0126C53.0714 13.0064 53.0676 13.0002 53.0671 12.9928C53.0659 12.9746 53.0749 12.9571 53.0902 12.947L54.3725 12.1063L54.3953 12.0989C54.403 12.0981 54.4107 12.0993 54.4182 12.1022Z" fill="white" stroke="#082422" stroke-width="0.100076" stroke-linecap="round" stroke-linejoin="round"/>
</g>
<defs>
<clipPath id="clip0_664_11626">
<rect width="64.1142" height="80" fill="white"/>
</clipPath>
</defs>
</svg>
