<svg width="79" height="80" viewBox="0 0 79 80" fill="none" xmlns="http://www.w3.org/2000/svg">
<g clip-path="url(#clip0_664_11591)">
<path d="M36.1123 34.3953L-0.000549316 55.2382L42.8864 80L78.9993 59.1511L36.1123 34.3953Z" fill="#2BF2F1" stroke="#082422" stroke-width="0.143276"/>
<path d="M36.1122 32.3318L-0.000610352 53.1747L42.8864 77.9365L78.9992 57.0876L36.1122 32.3318Z" fill="#2BF2F1" stroke="#082422" stroke-width="0.143276"/>
<path d="M-0.000549316 53.1746V55.238L42.8864 79.9998V77.9363L-0.000549316 53.1746Z" fill="#0A9D9C" stroke="#082422" stroke-width="0.143276"/>
<path d="M78.9996 57.0876V59.1511L42.8867 80V77.9365L78.9996 57.0876Z" fill="#0A9D9C" stroke="#082422" stroke-width="0.143276"/>
<path d="M36.3802 34.2229L3.11621 53.4186L42.6191 76.2239L75.8772 57.0223L36.3802 34.2229Z" fill="#2BF2F1" stroke="#082422" stroke-width="0.143276"/>
<path d="M36.3804 32.1355L3.11639 51.3372L42.6193 74.1366L75.8773 54.9408L36.3804 32.1355Z" fill="#2BF2F1" stroke="#082422" stroke-width="0.143276"/>
<path d="M3.11621 51.3372V53.4185L42.6191 76.2238V74.1365L3.11621 51.3372Z" fill="#0A9D9C" stroke="#082422" stroke-width="0.143276"/>
<path d="M75.8773 54.9409V57.0222L42.6193 76.2239V74.1366L75.8773 54.9409Z" fill="#0A9D9C" stroke="#082422" stroke-width="0.143276"/>
<path d="M73.8077 31.6357V54.9406L55.3647 65.5851V42.3516L73.8077 31.6357Z" fill="#0A9D9C" stroke="#082422" stroke-width="0.143276"/>
<path d="M36.3806 10.0317V33.3306L17.9376 43.9811V20.7476L36.3806 10.0317Z" fill="#0A9D9C" stroke="#082422" stroke-width="0.143276"/>
<path d="M17.9375 20.7476L55.3647 42.3517V65.5852L17.9375 43.9811V20.7476Z" fill="#2BF2F1" stroke="#082422" stroke-width="0.143276"/>
<path d="M36.3806 10.0317L73.8078 31.6359L55.3648 42.3517L17.9376 20.7476L36.3806 10.0317Z" fill="#0A9D9C" stroke="#082422" stroke-width="0.143276"/>
<path d="M6.8952 51.0152V50.0815C6.8952 50.7357 7.31747 51.3898 8.16796 51.8953C9.89271 52.924 12.7296 52.9538 14.502 51.9607C15.406 51.4552 15.858 50.7832 15.858 50.1053V51.0389C15.858 51.7169 15.4 52.3888 14.496 52.8943C12.7237 53.8874 9.88676 53.8636 8.162 52.8289C7.31152 52.3234 6.8952 51.6693 6.8952 51.0152Z" fill="#0A9D9C" stroke="#082422" stroke-width="0.143276"/>
<path d="M10.8083 47.019C10.953 47.007 11.4635 46.9708 12.0641 47.0308L12.0632 47.0317C12.1497 47.0379 12.3912 47.0616 12.6852 47.1216C12.8561 47.1576 13.0035 47.1947 13.1091 47.2231C13.1617 47.2373 13.2044 47.25 13.2341 47.2583C13.2488 47.2624 13.2604 47.265 13.2682 47.2671C13.2697 47.2675 13.2711 47.2678 13.2722 47.2681H13.2751L13.2858 47.272C14.4592 47.6252 15.7446 48.4412 15.9167 49.8345L15.9186 49.8433H15.9177V49.8491C15.968 50.2838 15.8811 50.6814 15.6511 51.0444C15.4205 51.4081 15.0493 51.734 14.5378 52.0288H14.5368C13.6372 52.5328 12.4716 52.7761 11.3161 52.7642C10.1607 52.7521 9.00728 52.4847 8.13153 51.9624C7.27406 51.4492 6.82986 50.7752 6.82977 50.0874C6.82979 49.0353 7.56059 48.1886 8.43524 47.6997C8.80414 47.4881 9.15522 47.3558 9.55731 47.2417L9.76337 47.186C10.2346 47.0688 10.6305 47.0347 10.8083 47.019ZM11.4245 47.5298C10.6431 47.5225 9.86046 47.6887 9.26141 48.0259C8.66184 48.3635 8.37158 48.7997 8.36102 49.2231C8.35201 49.5933 8.55679 49.9765 8.99969 50.3003L9.2038 50.436L9.43036 50.5581C9.97831 50.8264 10.6556 50.9657 11.3395 50.9722C12.1212 50.9795 12.9044 50.8134 13.5036 50.4761C14.103 50.1384 14.3937 49.7023 14.404 49.2788C14.4127 48.9088 14.2081 48.5253 13.7653 48.2017L13.5612 48.0669C12.9801 47.7183 12.2061 47.5371 11.4245 47.5298Z" fill="#0A9D9C"/>
<path d="M10.8083 47.019L10.8023 46.9477L10.802 46.9477L10.8083 47.019ZM12.0641 47.0308L12.1148 47.0814L12.2217 46.9745L12.0713 46.9595L12.0641 47.0308ZM12.0632 47.0317L12.0125 46.9811L11.9016 47.092L12.058 47.1032L12.0632 47.0317ZM12.6852 47.1216L12.7 47.0515L12.6996 47.0514L12.6852 47.1216ZM13.1091 47.2231L13.1277 47.154L13.1277 47.154L13.1091 47.2231ZM13.2341 47.2583L13.2147 47.3273L13.2147 47.3273L13.2341 47.2583ZM13.2682 47.2671L13.2867 47.1979L13.2866 47.1978L13.2682 47.2671ZM13.2722 47.2681L13.2545 47.3375L13.2632 47.3397H13.2722V47.2681ZM13.2751 47.2681L13.2996 47.2007L13.2877 47.1964H13.2751V47.2681ZM13.2858 47.272L13.2613 47.3394L13.2652 47.3406L13.2858 47.272ZM15.9167 49.8345L15.8453 49.8433L15.8468 49.85L15.9167 49.8345ZM15.9186 49.8433V49.9149H16.0079L15.9886 49.8277L15.9186 49.8433ZM15.9177 49.8433V49.7716H15.846V49.8433H15.9177ZM15.9177 49.8491H15.8455L15.8465 49.8574L15.9177 49.8491ZM15.6511 51.0444L15.7116 51.0828L15.7116 51.0828L15.6511 51.0444ZM14.5378 52.0288V52.1004H14.5569L14.5736 52.0909L14.5378 52.0288ZM14.5368 52.0288V51.9572H14.5181L14.5018 51.9663L14.5368 52.0288ZM11.3161 52.7642L11.3154 52.8358H11.3154L11.3161 52.7642ZM8.13153 51.9624L8.09474 52.0239L8.09484 52.0239L8.13153 51.9624ZM6.82977 50.0874L6.75814 50.0874V50.0874L6.82977 50.0874ZM8.43524 47.6997L8.4702 47.7622L8.47089 47.7618L8.43524 47.6997ZM9.55731 47.2417L9.53863 47.1725L9.53776 47.1728L9.55731 47.2417ZM9.76337 47.186L9.74607 47.1165L9.74468 47.1169L9.76337 47.186ZM11.4245 47.5298L11.4252 47.4582L11.4252 47.4582L11.4245 47.5298ZM9.26141 48.0259L9.22627 47.9635L9.22627 47.9635L9.26141 48.0259ZM8.36102 49.2231L8.28941 49.2214L8.28941 49.2214L8.36102 49.2231ZM8.99969 50.3003L8.95737 50.3582L8.96002 50.3599L8.99969 50.3003ZM9.2038 50.436L9.16395 50.4959L9.16982 50.4991L9.2038 50.436ZM9.43036 50.5581L9.39635 50.6212L9.39885 50.6224L9.43036 50.5581ZM11.3395 50.9722L11.3389 51.0438H11.3389L11.3395 50.9722ZM13.5036 50.4761L13.5387 50.5385L13.5388 50.5385L13.5036 50.4761ZM14.404 49.2788L14.4756 49.2806L14.4756 49.2805L14.404 49.2788ZM13.7653 48.2017L13.8076 48.1438L13.8048 48.1419L13.7653 48.2017ZM13.5612 48.0669L13.6007 48.0071L13.5981 48.0055L13.5612 48.0669ZM10.8083 47.019L10.8142 47.0904C10.9569 47.0785 11.4626 47.0427 12.057 47.102L12.0641 47.0308L12.0713 46.9595C11.4644 46.8989 10.949 46.9354 10.8023 46.9477L10.8083 47.019ZM12.0641 47.0308L12.0135 46.9801L12.0125 46.9811L12.0632 47.0317L12.1138 47.0824L12.1148 47.0814L12.0641 47.0308ZM12.0632 47.0317L12.058 47.1032C12.142 47.1092 12.3804 47.1325 12.6709 47.1918L12.6852 47.1216L12.6996 47.0514C12.402 46.9907 12.1573 46.9667 12.0683 46.9603L12.0632 47.0317ZM12.6852 47.1216L12.6705 47.1917C12.8398 47.2273 12.9859 47.2641 13.0904 47.2923L13.1091 47.2231L13.1277 47.154C13.0211 47.1253 12.8725 47.0878 12.7 47.0515L12.6852 47.1216ZM13.1091 47.2231L13.0904 47.2923C13.1427 47.3064 13.1836 47.3185 13.2147 47.3273L13.2341 47.2583L13.2534 47.1893C13.2251 47.1814 13.1806 47.1682 13.1277 47.154L13.1091 47.2231ZM13.2341 47.2583L13.2147 47.3273C13.2285 47.3311 13.2472 47.3356 13.2499 47.3363L13.2682 47.2671L13.2866 47.1978C13.2735 47.1944 13.2692 47.1937 13.2534 47.1893L13.2341 47.2583ZM13.2682 47.2671L13.2498 47.3363C13.2512 47.3367 13.2525 47.337 13.2533 47.3372C13.2535 47.3372 13.2537 47.3373 13.2539 47.3373C13.254 47.3374 13.2541 47.3374 13.2543 47.3374C13.2545 47.3375 13.2546 47.3375 13.2545 47.3375L13.2722 47.2681L13.2898 47.1986C13.2889 47.1984 13.2876 47.1981 13.2874 47.198C13.2871 47.198 13.287 47.1979 13.2868 47.1979C13.2867 47.1979 13.2867 47.1979 13.2867 47.1979L13.2682 47.2671ZM13.2722 47.2681V47.3397H13.2751V47.2681V47.1964H13.2722V47.2681ZM13.2751 47.2681L13.2506 47.3354L13.2613 47.3393L13.2858 47.272L13.3103 47.2046L13.2996 47.2007L13.2751 47.2681ZM13.2858 47.272L13.2652 47.3406C14.4307 47.6915 15.6789 48.4938 15.8456 49.8433L15.9167 49.8345L15.9878 49.8257C15.8102 48.3886 14.4877 47.559 13.3065 47.2034L13.2858 47.272ZM15.9167 49.8345L15.8468 49.85L15.8487 49.8588L15.9186 49.8433L15.9886 49.8277L15.9866 49.8189L15.9167 49.8345ZM15.9186 49.8433V49.7716H15.9177V49.8433V49.9149H15.9186V49.8433ZM15.9177 49.8433H15.846V49.8491H15.9177H15.9893V49.8433H15.9177ZM15.9177 49.8491L15.8465 49.8574C15.8951 50.2764 15.8115 50.6574 15.5905 51.0061L15.6511 51.0444L15.7116 51.0828C15.9507 50.7053 16.041 50.2912 15.9888 49.8409L15.9177 49.8491ZM15.6511 51.0444L15.5906 51.0061C15.3682 51.3568 15.0073 51.6755 14.502 51.9667L14.5378 52.0288L14.5736 52.0909C15.0913 51.7925 15.4728 51.4594 15.7116 51.0828L15.6511 51.0444ZM14.5378 52.0288V51.9572H14.5368V52.0288V52.1004H14.5378V52.0288ZM14.5368 52.0288L14.5018 51.9663C13.6156 52.4628 12.4631 52.7044 11.3168 52.6925L11.3161 52.7642L11.3154 52.8358C12.4802 52.8479 13.6589 52.6028 14.5718 52.0913L14.5368 52.0288ZM11.3161 52.7642L11.3168 52.6925C10.1707 52.6806 9.03051 52.4152 8.16823 51.9009L8.13153 51.9624L8.09484 52.0239C8.98406 52.5543 10.1507 52.8236 11.3154 52.8358L11.3161 52.7642ZM8.13153 51.9624L8.16832 51.9009C7.32389 51.3955 6.9015 50.7414 6.90141 50.0874L6.82977 50.0874L6.75814 50.0874C6.75823 50.809 7.22423 51.5028 8.09474 52.0239L8.13153 51.9624ZM6.82977 50.0874L6.90141 50.0874C6.90143 49.0709 7.60829 48.244 8.47019 47.7622L8.43524 47.6997L8.40029 47.6372C7.5129 48.1332 6.75816 48.9997 6.75814 50.0874L6.82977 50.0874ZM8.43524 47.6997L8.47089 47.7618C8.83337 47.5539 9.17866 47.4236 9.57686 47.3106L9.55731 47.2417L9.53776 47.1728C9.13178 47.2879 8.77492 47.4222 8.39959 47.6376L8.43524 47.6997ZM9.55731 47.2417L9.57599 47.3109L9.78205 47.2552L9.76337 47.186L9.74468 47.1169L9.53863 47.1725L9.55731 47.2417ZM9.76337 47.186L9.78066 47.2556C10.2462 47.1397 10.6374 47.106 10.8146 47.0904L10.8083 47.019L10.802 46.9477C10.6235 46.9634 10.223 46.9979 9.74607 47.1165L9.76337 47.186ZM11.4245 47.5298L11.4252 47.4582C10.6344 47.4508 9.83873 47.6187 9.22627 47.9635L9.26141 48.0259L9.29655 48.0883C9.8822 47.7586 10.6518 47.5942 11.4238 47.6014L11.4245 47.5298ZM9.26141 48.0259L9.22627 47.9635C8.61381 48.3083 8.30081 48.7638 8.28941 49.2214L8.36102 49.2231L8.43264 49.2249C8.44234 48.8357 8.70987 48.4186 9.29656 48.0883L9.26141 48.0259ZM8.36102 49.2231L8.28941 49.2214C8.27966 49.6217 8.50168 50.0249 8.95741 50.3581L8.99969 50.3003L9.04198 50.2425C8.6119 49.928 8.42436 49.5649 8.43264 49.2249L8.36102 49.2231ZM8.99969 50.3003L8.96002 50.3599L9.16412 50.4957L9.2038 50.436L9.24347 50.3764L9.03937 50.2406L8.99969 50.3003ZM9.2038 50.436L9.16982 50.4991L9.39638 50.6212L9.43036 50.5581L9.46434 50.495L9.23778 50.373L9.2038 50.436ZM9.43036 50.5581L9.39885 50.6224C9.95822 50.8964 10.6464 51.0372 11.3389 51.0438L11.3395 50.9722L11.3402 50.9005C10.6647 50.8941 9.9984 50.7565 9.46186 50.4938L9.43036 50.5581ZM11.3395 50.9722L11.3389 51.0438C12.1298 51.0512 12.9262 50.8834 13.5387 50.5385L13.5036 50.4761L13.4685 50.4137C12.8827 50.7434 12.1125 50.9078 11.3402 50.9005L11.3395 50.9722ZM13.5036 50.4761L13.5388 50.5385C14.151 50.1936 14.4645 49.7382 14.4756 49.2806L14.404 49.2788L14.3324 49.2771C14.3229 49.6663 14.0551 50.0832 13.4684 50.4137L13.5036 50.4761ZM14.404 49.2788L14.4756 49.2805C14.485 48.8805 14.2633 48.4769 13.8076 48.1438L13.7653 48.2017L13.723 48.2595C14.153 48.5737 14.3404 48.9372 14.3324 49.2771L14.404 49.2788ZM13.7653 48.2017L13.8048 48.1419L13.6007 48.0071L13.5612 48.0669L13.5217 48.1267L13.7258 48.2614L13.7653 48.2017ZM13.5612 48.0669L13.5981 48.0055C13.0034 47.6487 12.2161 47.4656 11.4252 47.4582L11.4245 47.5298L11.4238 47.6014C12.1962 47.6087 12.9568 47.7879 13.5244 48.1283L13.5612 48.0669Z" fill="#082422"/>
<path d="M14.4717 49.232C14.4598 48.792 14.1683 48.3519 13.5974 48.013C12.4079 47.2994 10.4512 47.2815 9.22601 47.9713L9.24386 47.2161C10.4571 46.5322 12.4019 46.556 13.5795 47.2577C14.1445 47.5967 14.436 48.0308 14.4479 48.4708C14.4538 48.7266 14.4598 48.9823 14.4717 49.238V49.232Z" fill="#0A9D9C" stroke="#082422" stroke-width="0.143276"/>
<path d="M8.31603 48.4474C8.33387 47.9954 8.64314 47.5494 9.24383 47.2104L9.22598 47.9657C8.61934 48.3046 8.30413 48.7566 8.29224 49.2145C8.29818 48.9588 8.31008 48.7031 8.31603 48.4474Z" fill="#0A9D9C" stroke="#082422" stroke-width="0.143276"/>
<path d="M8.28645 49.2144C8.2924 48.9587 8.30429 48.703 8.31023 48.4473C8.29239 48.9052 8.58382 49.369 9.17857 49.7198C10.3621 50.4275 12.301 50.4453 13.5142 49.7615C14.1447 49.4047 14.4599 48.9349 14.442 48.4592C14.442 48.4948 14.442 48.5365 14.442 48.5721C14.442 48.584 14.442 48.6019 14.442 48.6078C14.442 48.6851 14.442 48.7624 14.448 48.8397C14.448 48.9646 14.4539 49.0954 14.4599 49.2203C14.4718 49.6961 14.1625 50.1777 13.5261 50.5345C12.301 51.2243 10.3443 51.2006 9.15477 50.4929C8.55408 50.1361 8.26265 49.6663 8.2805 49.2084L8.28645 49.2144Z" fill="#2BF2F1" stroke="#082422" stroke-width="0.143276"/>
<path d="M8.78674 49.7616C7.69836 49.1313 7.1393 47.9182 7.89463 46.7943C8.08494 46.5207 8.34069 46.2828 8.61427 46.0926C8.68564 46.045 8.79269 45.9796 8.87001 45.9379C8.96517 45.8844 9.09601 45.8963 9.23875 45.9796C8.01358 46.6634 7.98979 47.7992 9.17928 48.5069C10.3688 49.2145 12.3195 49.2383 13.5447 48.5485C14.7699 47.8646 14.7937 46.7288 13.6042 46.0212C12.4147 45.3135 10.4639 45.2898 9.23875 45.9796C9.09601 45.8963 8.96517 45.8844 8.87001 45.9379C10.2974 45.153 12.3076 45.153 13.735 45.8547C14.8412 46.3899 15.5847 47.496 15.0435 48.6734C14.7044 49.3513 14.1692 49.72 13.4733 50.0233C12.2125 50.5704 10.1368 50.5823 8.78674 49.7557V49.7616Z" fill="#0A9D9C"/>
<path d="M8.87001 45.9379C8.79269 45.9796 8.68564 46.045 8.61427 46.0926C8.34069 46.2828 8.08494 46.5207 7.89463 46.7943C7.1393 47.9182 7.69836 49.1313 8.78674 49.7616V49.7557C10.1368 50.5823 12.2125 50.5704 13.4733 50.0233C14.1692 49.72 14.7044 49.3513 15.0435 48.6734C15.5847 47.496 14.8412 46.3899 13.735 45.8547C12.3076 45.153 10.2974 45.153 8.87001 45.9379ZM8.87001 45.9379C8.96517 45.8844 9.09601 45.8963 9.23875 45.9796M9.23875 45.9796C8.01358 46.6634 7.98979 47.7992 9.17928 48.5069C10.3688 49.2145 12.3195 49.2383 13.5447 48.5485C14.7699 47.8646 14.7937 46.7288 13.6042 46.0212C12.4147 45.3135 10.4639 45.2898 9.23875 45.9796Z" stroke="#082422" stroke-width="0.143276"/>
<path d="M14.4667 47.169C14.425 46.7527 14.1336 46.3484 13.5983 46.0272C12.4088 45.3196 10.4581 45.2958 9.23291 45.9856L9.29238 45.2244C10.4819 44.5584 12.3851 44.5763 13.5448 45.2661C14.0682 45.5812 14.3477 45.9737 14.3893 46.3781C14.4131 46.6397 14.4429 46.9073 14.4667 47.169Z" fill="#0A9D9C" stroke="#082422" stroke-width="0.143276"/>
<path d="M8.38826 46.3603C8.42989 45.944 8.73321 45.5337 9.29227 45.2185L9.23279 45.9797C8.66184 46.3008 8.34662 46.723 8.30499 47.1512C8.33473 46.8895 8.35852 46.6219 8.38826 46.3603Z" fill="#0A9D9C" stroke="#082422" stroke-width="0.143276"/>
<path d="M8.3053 47.151C8.33504 46.8894 8.35883 46.6218 8.38857 46.3601C8.34099 46.8299 8.62052 47.3175 9.2331 47.6803C10.3929 48.3701 12.296 48.3938 13.4855 47.7219C14.1397 47.3591 14.4371 46.8596 14.3895 46.372C14.4133 46.6336 14.4431 46.9013 14.4668 47.1629C14.5144 47.6624 14.2052 48.1738 13.5391 48.5485C12.3139 49.2323 10.3631 49.2145 9.17363 48.5068C8.5432 48.1322 8.25178 47.6327 8.3053 47.151Z" fill="#2BF2F1" stroke="#082422" stroke-width="0.143276"/>
<path d="M13.4606 46.491C12.283 47.151 10.4036 47.1332 9.26172 46.4493C8.11981 45.7655 8.1436 44.6772 9.32119 44.0172C10.4988 43.3571 12.3782 43.3749 13.5201 44.0588C14.662 44.7426 14.6382 45.8309 13.4606 46.491ZM13.6033 44.0112C12.4139 43.3036 10.4631 43.2798 9.23793 43.9696C8.01276 44.6534 7.98897 45.7893 9.17846 46.4969C10.3679 47.2046 12.3187 47.2283 13.5439 46.5385C14.769 45.8547 14.7928 44.7189 13.6033 44.0112Z" fill="#0A9D9C" stroke="#082422" stroke-width="0.143276"/>
<path d="M8.79141 47.7516C7.80413 47.1807 7.24507 46.1163 7.73276 45.0697C7.8874 44.7129 8.27398 44.3026 8.61893 44.0825C8.6903 44.035 8.79735 43.9696 8.87467 43.9279C8.96983 43.8744 9.10067 43.8863 9.24341 43.9696C8.01824 44.6534 7.99445 45.7892 9.18394 46.4969C10.3734 47.2045 12.3242 47.2283 13.5494 46.5385C14.7745 45.8546 14.7983 44.7188 13.6088 44.0112C12.4193 43.3035 10.4686 43.2797 9.24341 43.9696C9.10067 43.8863 8.96983 43.8744 8.87467 43.9279C10.3021 43.143 12.3123 43.143 13.7397 43.8447C14.8459 44.3799 15.5893 45.4859 15.0481 46.6634C14.7091 47.3413 14.1738 47.71 13.478 48.0192C12.2112 48.5663 10.1474 48.5782 8.79141 47.7576V47.7516Z" fill="#0A9D9C"/>
<path d="M8.87467 43.9279C8.79735 43.9696 8.6903 44.035 8.61893 44.0825C8.27398 44.3026 7.8874 44.7129 7.73276 45.0697C7.24507 46.1163 7.80413 47.1807 8.79141 47.7516V47.7576C10.1474 48.5782 12.2112 48.5663 13.478 48.0192C14.1738 47.71 14.7091 47.3413 15.0481 46.6634C15.5893 45.4859 14.8459 44.3799 13.7397 43.8447C12.3123 43.143 10.3021 43.143 8.87467 43.9279ZM8.87467 43.9279C8.96983 43.8744 9.10067 43.8863 9.24341 43.9696M9.24341 43.9696C8.01824 44.6534 7.99445 45.7892 9.18394 46.4969C10.3734 47.2045 12.3242 47.2283 13.5494 46.5385C14.7745 45.8546 14.7983 44.7188 13.6088 44.0112C12.4193 43.3035 10.4686 43.2797 9.24341 43.9696Z" stroke="#082422" stroke-width="0.143276"/>
<path d="M8.42311 45.2125C8.58369 40.4433 8.74427 32.9981 8.90485 28.2349C8.89295 28.6095 9.13085 28.9901 9.61854 29.2874C10.5939 29.8702 12.1938 29.8821 13.193 29.3231C13.7104 29.0317 13.9721 28.6392 13.9602 28.2527C14.091 33.0219 14.2278 40.4671 14.3587 45.2363C14.3705 45.6942 14.0732 46.1521 13.4606 46.497C12.283 47.157 10.4036 47.1392 9.26169 46.4553C8.68479 46.1104 8.40526 45.6644 8.42311 45.2244V45.2125Z" fill="#2BF2F1" stroke="#082422" stroke-width="0.143276"/>
<path d="M9.21185 25.8359C10.488 25.1332 12.3826 25.1173 13.704 25.8652L13.8574 25.96C14.596 26.4448 14.9312 27.1172 14.8808 27.7793C14.827 28.484 14.3378 29.1568 13.4785 29.5605L13.4775 29.5596C12.2032 30.1628 10.4073 30.1579 9.1308 29.4141V29.415C8.63973 29.1344 8.2543 28.7066 8.08197 28.2129C7.90898 27.717 7.95298 27.1572 8.31049 26.624C8.48306 26.3714 8.72233 26.1517 8.97162 25.9814L8.97357 25.9795C9.01763 25.9514 9.06968 25.9154 9.11322 25.8887C9.14148 25.8713 9.17128 25.8549 9.20209 25.8408C9.20509 25.8391 9.20879 25.8375 9.21185 25.8359Z" fill="#0A9D9C"/>
<path d="M9.21185 25.8359L9.24463 25.8997L9.24641 25.8987L9.21185 25.8359ZM13.704 25.8652L13.7417 25.8042L13.7393 25.8029L13.704 25.8652ZM13.8574 25.96L13.8967 25.9L13.895 25.899L13.8574 25.96ZM14.8808 27.7793L14.9522 27.7847L14.9522 27.7847L14.8808 27.7793ZM13.4785 29.5605L13.4278 29.6112L13.4634 29.6468L13.5089 29.6254L13.4785 29.5605ZM13.4775 29.5596L13.5281 29.5089L13.4924 29.4732L13.4468 29.4948L13.4775 29.5596ZM9.1308 29.4141L9.16687 29.3522L9.05916 29.2894V29.4141H9.1308ZM9.1308 29.415L9.09525 29.4772L9.20244 29.5385V29.415H9.1308ZM8.08197 28.2129L8.01433 28.2365L8.01433 28.2365L8.08197 28.2129ZM8.31049 26.624L8.25133 26.5836L8.25099 26.5841L8.31049 26.624ZM8.97162 25.9814L9.01273 26.0416L9.02227 26.0321L8.97162 25.9814ZM8.97357 25.9795L8.9351 25.9191L8.92847 25.9233L8.92292 25.9288L8.97357 25.9795ZM9.11322 25.8887L9.07576 25.8276L9.07574 25.8276L9.11322 25.8887ZM9.20209 25.8408L9.23199 25.9062L9.23721 25.9033L9.20209 25.8408ZM9.21185 25.8359L9.24641 25.8987C10.5012 25.2077 12.3693 25.1921 13.6688 25.9276L13.704 25.8652L13.7393 25.8029C12.3959 25.0425 10.4749 25.0586 9.1773 25.7732L9.21185 25.8359ZM13.704 25.8652L13.6664 25.9262L13.8197 26.0209L13.8574 25.96L13.895 25.899L13.7417 25.8043L13.704 25.8652ZM13.8574 25.96L13.8181 26.0199C14.5389 26.493 14.8574 27.1422 14.8094 27.7739L14.8808 27.7793L14.9522 27.7847C15.0049 27.0921 14.6531 26.3965 13.8967 25.9001L13.8574 25.96ZM14.8808 27.7793L14.8094 27.7738C14.758 28.4472 14.2895 29.1003 13.448 29.4957L13.4785 29.5605L13.5089 29.6254C14.3861 29.2132 14.8961 28.5207 14.9522 27.7847L14.8808 27.7793ZM13.4785 29.5605L13.5291 29.5099L13.5281 29.5089L13.4775 29.5596L13.4268 29.6102L13.4278 29.6112L13.4785 29.5605ZM13.4775 29.5596L13.4468 29.4948C12.1921 30.0888 10.4213 30.0832 9.16687 29.3522L9.1308 29.4141L9.09473 29.476C10.3933 30.2327 12.2143 30.2368 13.5081 29.6243L13.4775 29.5596ZM9.1308 29.4141H9.05916V29.415H9.1308H9.20244V29.4141H9.1308ZM9.1308 29.415L9.16635 29.3528C8.68771 29.0793 8.31534 28.6641 8.14961 28.1893L8.08197 28.2129L8.01433 28.2365C8.19326 28.7491 8.59175 29.1895 9.09525 29.4772L9.1308 29.415ZM8.08197 28.2129L8.14961 28.1893C7.98399 27.7145 8.02511 27.1782 8.36999 26.6639L8.31049 26.624L8.25099 26.5841C7.88086 27.1361 7.83396 27.7194 8.01433 28.2365L8.08197 28.2129ZM8.31049 26.624L8.36963 26.6644C8.53607 26.4208 8.76827 26.2071 9.01202 26.0406L8.97162 25.9814L8.93122 25.9223C8.67639 26.0963 8.43006 26.322 8.25134 26.5836L8.31049 26.624ZM8.97162 25.9814L9.02227 26.0321L9.02423 26.0301L8.97357 25.9795L8.92292 25.9288L8.92096 25.9308L8.97162 25.9814ZM8.97357 25.9795L9.01204 26.0399C9.06115 26.0087 9.10626 25.977 9.1507 25.9497L9.11322 25.8887L9.07574 25.8276C9.0331 25.8538 8.97411 25.8942 8.9351 25.9191L8.97357 25.9795ZM9.11322 25.8887L9.15068 25.9497C9.17705 25.9336 9.20427 25.9186 9.23189 25.906L9.20209 25.8408L9.17229 25.7757C9.13829 25.7912 9.10591 25.8091 9.07576 25.8276L9.11322 25.8887ZM9.20209 25.8408L9.23721 25.9033C9.23659 25.9036 9.23651 25.9036 9.2381 25.9028C9.23895 25.9024 9.24202 25.901 9.24462 25.8996L9.21185 25.8359L9.17909 25.7722C9.17909 25.7722 9.17908 25.7722 9.17904 25.7723C9.179 25.7723 9.17894 25.7723 9.17887 25.7723C9.17871 25.7724 9.1785 25.7725 9.17821 25.7727C9.17727 25.7731 9.17719 25.7732 9.1758 25.7738C9.17402 25.7747 9.17059 25.7763 9.16697 25.7784L9.20209 25.8408Z" fill="#082422"/>
<path d="M17.4182 57.0872V56.1536C17.4182 56.8077 17.8404 57.4618 18.6909 57.9673C20.4157 58.9961 23.2526 59.0258 25.0249 58.0327C25.9289 57.5272 26.3809 56.8553 26.3809 56.1774V57.111C26.3809 57.7889 25.923 58.4609 25.019 58.9663C23.2466 59.9594 20.4097 59.9356 18.685 58.9009C17.8345 58.3954 17.4182 57.7413 17.4182 57.0872Z" fill="#0A9D9C" stroke="#082422" stroke-width="0.143276"/>
<path d="M21.3316 53.0908C21.4765 53.0787 21.987 53.0425 22.5875 53.1025L22.5865 53.1035C22.6731 53.1097 22.9146 53.1334 23.2086 53.1934C23.3795 53.2294 23.5268 53.2665 23.6324 53.2949C23.6851 53.3091 23.7277 53.3218 23.7574 53.3301C23.7723 53.3342 23.7837 53.3368 23.7916 53.3389C23.793 53.3393 23.7944 53.3396 23.7955 53.3398H23.7984L23.8091 53.3438C24.9824 53.697 26.2677 54.5132 26.44 55.9062L26.442 55.915H26.441V55.9209C26.4914 56.3556 26.4043 56.7532 26.1744 57.1162C25.9439 57.4799 25.5726 57.8057 25.0611 58.1006H25.0601C24.1606 58.6046 22.995 58.8479 21.8394 58.8359C20.6839 58.8239 19.5307 58.5565 18.6548 58.0342C17.7973 57.5209 17.3531 56.8471 17.3531 56.1592C17.3533 55.1071 18.0839 54.2603 18.9586 53.7715C19.3275 53.5599 19.6785 53.4275 20.0806 53.3135L20.2867 53.2578C20.7581 53.1406 21.154 53.1065 21.3316 53.0908ZM21.9478 53.6025C21.1664 53.5953 20.3838 53.7615 19.7847 54.0986C19.185 54.4363 18.8947 54.8724 18.8843 55.2959C18.8753 55.666 19.08 56.0492 19.523 56.373L19.7271 56.5088L19.9537 56.6309C20.5016 56.8991 21.1791 57.0384 21.8629 57.0449C22.6444 57.0522 23.4279 56.8861 24.0269 56.5488C24.6263 56.2112 24.917 55.775 24.9273 55.3516C24.9361 54.9816 24.7314 54.5981 24.2886 54.2744L24.0845 54.1396C23.5035 53.7911 22.7294 53.61 21.9478 53.6025Z" fill="#0A9D9C"/>
<path d="M21.3316 53.0908L21.3257 53.0194L21.3253 53.0195L21.3316 53.0908ZM22.5875 53.1025L22.6381 53.1532L22.745 53.0463L22.5946 53.0313L22.5875 53.1025ZM22.5865 53.1035L22.5358 53.0529L22.425 53.1637L22.5814 53.175L22.5865 53.1035ZM23.2086 53.1934L23.2233 53.1233L23.2229 53.1232L23.2086 53.1934ZM23.6324 53.2949L23.651 53.2258L23.651 53.2258L23.6324 53.2949ZM23.7574 53.3301L23.738 53.3991L23.7381 53.3991L23.7574 53.3301ZM23.7916 53.3389L23.7731 53.4081L23.7732 53.4081L23.7916 53.3389ZM23.7955 53.3398L23.7776 53.4092L23.7864 53.4115H23.7955V53.3398ZM23.7984 53.3398L23.8229 53.2725L23.811 53.2682H23.7984V53.3398ZM23.8091 53.3438L23.7846 53.4112L23.7885 53.4123L23.8091 53.3438ZM26.44 55.9062L26.3686 55.9151L26.3701 55.9218L26.44 55.9062ZM26.442 55.915V55.9867H26.5313L26.5119 55.8995L26.442 55.915ZM26.441 55.915V55.8434H26.3693V55.915H26.441ZM26.441 55.9209H26.3689L26.3698 55.9292L26.441 55.9209ZM26.1744 57.1162L26.2349 57.1546L26.2349 57.1545L26.1744 57.1162ZM25.0611 58.1006V58.1722H25.0803L25.0969 58.1627L25.0611 58.1006ZM25.0601 58.1006V58.0289H25.0414L25.0251 58.0381L25.0601 58.1006ZM21.8394 58.8359L21.8387 58.9076H21.8387L21.8394 58.8359ZM18.6548 58.0342L18.6181 58.0956L18.6182 58.0957L18.6548 58.0342ZM17.3531 56.1592L17.2815 56.1592V56.1592H17.3531ZM18.9586 53.7715L18.9935 53.834L18.9942 53.8336L18.9586 53.7715ZM20.0806 53.3135L20.0619 53.2443L20.0611 53.2446L20.0806 53.3135ZM20.2867 53.2578L20.2694 53.1883L20.268 53.1887L20.2867 53.2578ZM21.9478 53.6025L21.9485 53.5309L21.9485 53.5309L21.9478 53.6025ZM19.7847 54.0986L19.7496 54.0362L19.7496 54.0362L19.7847 54.0986ZM18.8843 55.2959L18.8127 55.2941L18.8127 55.2942L18.8843 55.2959ZM19.523 56.373L19.4807 56.4309L19.4833 56.4327L19.523 56.373ZM19.7271 56.5088L19.6873 56.5687L19.6931 56.5719L19.7271 56.5088ZM19.9537 56.6309L19.9197 56.694L19.9222 56.6952L19.9537 56.6309ZM21.8629 57.0449L21.8622 57.1166H21.8622L21.8629 57.0449ZM24.0269 56.5488L24.0621 56.6113L24.0621 56.6112L24.0269 56.5488ZM24.9273 55.3516L24.9989 55.3533L24.9989 55.3533L24.9273 55.3516ZM24.2886 54.2744L24.331 54.2165L24.3281 54.2146L24.2886 54.2744ZM24.0845 54.1396L24.124 54.0798L24.1214 54.0782L24.0845 54.1396ZM21.3316 53.0908L21.3376 53.1622C21.4805 53.1503 21.986 53.1144 22.5803 53.1738L22.5875 53.1025L22.5946 53.0313C21.9879 52.9706 21.4726 53.0072 21.3257 53.0194L21.3316 53.0908ZM22.5875 53.1025L22.5368 53.0519L22.5358 53.0529L22.5865 53.1035L22.6371 53.1542L22.6381 53.1532L22.5875 53.1025ZM22.5865 53.1035L22.5814 53.175C22.6654 53.181 22.9038 53.2043 23.1942 53.2636L23.2086 53.1934L23.2229 53.1232C22.9253 53.0625 22.6807 53.0385 22.5916 53.0321L22.5865 53.1035ZM23.2086 53.1934L23.1938 53.2635C23.3632 53.2991 23.5092 53.3359 23.6137 53.3641L23.6324 53.2949L23.651 53.2258C23.5444 53.197 23.3958 53.1596 23.2233 53.1233L23.2086 53.1934ZM23.6324 53.2949L23.6137 53.3641C23.6662 53.3782 23.7069 53.3903 23.738 53.3991L23.7574 53.3301L23.7767 53.2611C23.7485 53.2532 23.704 53.24 23.651 53.2258L23.6324 53.2949ZM23.7574 53.3301L23.7381 53.3991C23.7515 53.4028 23.771 53.4075 23.7731 53.4081L23.7916 53.3389L23.81 53.2696C23.7964 53.266 23.793 53.2657 23.7767 53.2611L23.7574 53.3301ZM23.7916 53.3389L23.7732 53.4081C23.7746 53.4085 23.7759 53.4088 23.7767 53.409C23.7777 53.4092 23.7776 53.4092 23.7776 53.4092L23.7955 53.3398L23.8133 53.2705C23.8122 53.2702 23.8109 53.2699 23.8107 53.2698C23.8104 53.2697 23.8102 53.2697 23.8101 53.2697C23.81 53.2696 23.8099 53.2696 23.8099 53.2696L23.7916 53.3389ZM23.7955 53.3398V53.4115H23.7984V53.3398V53.2682H23.7955V53.3398ZM23.7984 53.3398L23.7739 53.4072L23.7847 53.4111L23.8091 53.3438L23.8336 53.2764L23.8229 53.2725L23.7984 53.3398ZM23.8091 53.3438L23.7885 53.4123C24.9539 53.7632 26.2021 54.5658 26.3689 55.915L26.44 55.9062L26.5111 55.8975C26.3334 54.4605 25.0109 53.6308 23.8298 53.2752L23.8091 53.3438ZM26.44 55.9062L26.3701 55.9218L26.372 55.9306L26.442 55.915L26.5119 55.8995L26.5099 55.8907L26.44 55.9062ZM26.442 55.915V55.8434H26.441V55.915V55.9867H26.442V55.915ZM26.441 55.915H26.3693V55.9209H26.441H26.5126V55.915H26.441ZM26.441 55.9209L26.3698 55.9292C26.4184 56.3482 26.3347 56.7292 26.1139 57.0779L26.1744 57.1162L26.2349 57.1545C26.4739 56.7771 26.5644 56.363 26.5121 55.9126L26.441 55.9209ZM26.1744 57.1162L26.1139 57.0779C25.8916 57.4286 25.5306 57.7472 25.0253 58.0385L25.0611 58.1006L25.0969 58.1627C25.6146 57.8642 25.9962 57.5312 26.2349 57.1546L26.1744 57.1162ZM25.0611 58.1006V58.0289H25.0601V58.1006V58.1722H25.0611V58.1006ZM25.0601 58.1006L25.0251 58.0381C24.1389 58.5346 22.9865 58.7762 21.8402 58.7643L21.8394 58.8359L21.8387 58.9076C23.0036 58.9196 24.1822 58.6746 25.0951 58.1631L25.0601 58.1006ZM21.8394 58.8359L21.8402 58.7643C20.694 58.7524 19.5539 58.487 18.6915 57.9727L18.6548 58.0342L18.6182 58.0957C19.5074 58.6261 20.6739 58.8955 21.8387 58.9076L21.8394 58.8359ZM18.6548 58.0342L18.6916 57.9727C17.8471 57.4672 17.4247 56.8133 17.4247 56.1592H17.3531H17.2815C17.2815 56.8809 17.7474 57.5746 18.6181 58.0956L18.6548 58.0342ZM17.3531 56.1592L17.4247 56.1592C17.4249 55.1427 18.1316 54.3157 18.9935 53.834L18.9586 53.7715L18.9236 53.7089C18.0362 54.2049 17.2816 55.0715 17.2815 56.1592L17.3531 56.1592ZM18.9586 53.7715L18.9942 53.8336C19.3567 53.6257 19.7019 53.4953 20.1002 53.3824L20.0806 53.3135L20.0611 53.2446C19.6551 53.3597 19.2982 53.4941 18.9229 53.7093L18.9586 53.7715ZM20.0806 53.3135L20.0993 53.3826L20.3054 53.327L20.2867 53.2578L20.268 53.1887L20.0619 53.2443L20.0806 53.3135ZM20.2867 53.2578L20.304 53.3273C20.7697 53.2115 21.1609 53.1778 21.3379 53.1622L21.3316 53.0908L21.3253 53.0195C21.147 53.0352 20.7465 53.0696 20.2694 53.1883L20.2867 53.2578ZM21.9478 53.6025L21.9485 53.5309C21.1578 53.5235 20.362 53.6915 19.7496 54.0362L19.7847 54.0986L19.8199 54.1611C20.4055 53.8314 21.1751 53.667 21.9471 53.6742L21.9478 53.6025ZM19.7847 54.0986L19.7496 54.0362C19.137 54.3811 18.8239 54.8364 18.8127 55.2941L18.8843 55.2959L18.956 55.2977C18.9655 54.9083 19.233 54.4915 19.8199 54.1611L19.7847 54.0986ZM18.8843 55.2959L18.8127 55.2942C18.803 55.6944 19.0249 56.0977 19.4807 56.4309L19.523 56.373L19.5653 56.3152C19.1352 56.0008 18.9477 55.6377 18.956 55.2976L18.8843 55.2959ZM19.523 56.373L19.4833 56.4327L19.6874 56.5684L19.7271 56.5088L19.7668 56.4491L19.5627 56.3134L19.523 56.373ZM19.7271 56.5088L19.6931 56.5719L19.9197 56.6939L19.9537 56.6309L19.9877 56.5678L19.7611 56.4457L19.7271 56.5088ZM19.9537 56.6309L19.9222 56.6952C20.4815 56.969 21.1699 57.11 21.8622 57.1166L21.8629 57.0449L21.8635 56.9733C21.1882 56.9669 20.5216 56.8291 19.9852 56.5665L19.9537 56.6309ZM21.8629 57.0449L21.8622 57.1166C22.653 57.1239 23.4496 56.9561 24.0621 56.6113L24.0269 56.5488L23.9918 56.4864C23.4061 56.8161 22.6357 56.9805 21.8635 56.9733L21.8629 57.0449ZM24.0269 56.5488L24.0621 56.6112C24.6743 56.2664 24.9877 55.8109 24.9989 55.3533L24.9273 55.3516L24.8557 55.3498C24.8462 55.739 24.5783 56.156 23.9918 56.4864L24.0269 56.5488ZM24.9273 55.3516L24.9989 55.3533C25.0085 54.9532 24.7865 54.5497 24.3309 54.2166L24.2886 54.2744L24.2464 54.3322C24.6762 54.6465 24.8638 55.01 24.8557 55.3499L24.9273 55.3516ZM24.2886 54.2744L24.3281 54.2146L24.124 54.0799L24.0845 54.1396L24.0451 54.1994L24.2492 54.3342L24.2886 54.2744ZM24.0845 54.1396L24.1214 54.0782C23.5268 53.7215 22.7393 53.5384 21.9485 53.5309L21.9478 53.6025L21.9471 53.6742C22.7194 53.6815 23.4802 53.8606 24.0477 54.2011L24.0845 54.1396Z" fill="#082422"/>
<path d="M24.9947 55.3033C24.9828 54.8633 24.6913 54.4232 24.1204 54.0842C22.9309 53.3706 20.9742 53.3528 19.749 54.0426L19.7669 53.2874C20.9801 52.6035 22.925 52.6273 24.1026 53.329C24.6676 53.668 24.959 54.1021 24.9709 54.5421C24.9768 54.7978 24.9828 55.0535 24.9947 55.3092V55.3033Z" fill="#0A9D9C" stroke="#082422" stroke-width="0.143276"/>
<path d="M18.839 54.5184C18.8569 54.0665 19.1661 53.6205 19.7668 53.2815L19.749 54.0367C19.1424 54.3757 18.8271 54.8276 18.8152 55.2855C18.8212 55.0298 18.8331 54.7741 18.839 54.5184Z" fill="#0A9D9C" stroke="#082422" stroke-width="0.143276"/>
<path d="M18.8095 55.2852C18.8155 55.0295 18.8274 54.7738 18.8333 54.5181C18.8155 54.976 19.1069 55.4398 19.7016 55.7906C20.8852 56.4983 22.824 56.5161 24.0373 55.8323C24.6677 55.4755 24.983 55.0057 24.9651 54.53C24.9651 54.5656 24.9651 54.6073 24.9651 54.6429C24.9651 54.6548 24.9651 54.6727 24.9651 54.6786C24.9651 54.7559 24.9651 54.8332 24.9711 54.9105C24.9711 55.0354 24.977 55.1662 24.983 55.2911C24.9949 55.7669 24.6856 56.2485 24.0492 56.6053C22.824 57.2951 20.8673 57.2714 19.6778 56.5637C19.0772 56.2069 18.7857 55.7371 18.8036 55.2792L18.8095 55.2852Z" fill="#2BF2F1" stroke="#082422" stroke-width="0.143276"/>
<path d="M19.3088 55.8329C18.2205 55.2026 17.6614 53.9895 18.4167 52.8655C18.607 52.592 18.8628 52.3541 19.1364 52.1638C19.2077 52.1163 19.3148 52.0509 19.3921 52.0092C19.4873 51.9557 19.6181 51.9676 19.7608 52.0509C18.5357 52.7347 18.5119 53.8705 19.7014 54.5782C20.8909 55.2858 22.8416 55.3096 24.0668 54.6198C25.292 53.9359 25.3157 52.8001 24.1263 52.0925C22.9368 51.3848 20.986 51.361 19.7608 52.0509C19.6181 51.9676 19.4873 51.9557 19.3921 52.0092C20.8195 51.2243 22.8297 51.2243 24.2571 51.926C25.3633 52.4612 26.1068 53.5672 25.5655 54.7447C25.2265 55.4226 24.6913 55.7913 23.9954 56.0946C22.7346 56.6417 20.6589 56.6535 19.3088 55.827V55.8329Z" fill="#0A9D9C"/>
<path d="M19.3921 52.0092C19.3148 52.0509 19.2077 52.1163 19.1364 52.1638C18.8628 52.3541 18.607 52.592 18.4167 52.8655C17.6614 53.9895 18.2205 55.2026 19.3088 55.8329V55.827C20.6589 56.6535 22.7346 56.6417 23.9954 56.0946C24.6913 55.7913 25.2265 55.4226 25.5655 54.7447C26.1068 53.5672 25.3633 52.4612 24.2571 51.926C22.8297 51.2243 20.8195 51.2243 19.3921 52.0092ZM19.3921 52.0092C19.4873 51.9557 19.6181 51.9676 19.7608 52.0509M19.7608 52.0509C18.5357 52.7347 18.5119 53.8705 19.7014 54.5782C20.8909 55.2858 22.8416 55.3096 24.0668 54.6198C25.292 53.9359 25.3157 52.8001 24.1263 52.0925C22.9368 51.3848 20.986 51.361 19.7608 52.0509Z" stroke="#082422" stroke-width="0.143276"/>
<path d="M24.9882 53.2403C24.9466 52.824 24.6551 52.4196 24.1199 52.0985C22.9304 51.3909 20.9796 51.3671 19.7545 52.0569L19.8139 51.2957C21.0034 50.6297 22.9066 50.6475 24.0663 51.3374C24.5897 51.6525 24.8693 52.045 24.9109 52.4494C24.9347 52.711 24.9644 52.9786 24.9882 53.2403Z" fill="#0A9D9C" stroke="#082422" stroke-width="0.143276"/>
<path d="M18.9099 52.4313C18.9515 52.015 19.2548 51.6047 19.8139 51.2896L19.7544 52.0507C19.1834 52.3718 18.8682 52.794 18.8266 53.2222C18.8563 52.9606 18.8801 52.693 18.9099 52.4313Z" fill="#0A9D9C" stroke="#082422" stroke-width="0.143276"/>
<path d="M18.8262 53.2223C18.856 52.9606 18.8798 52.693 18.9095 52.4314C18.8619 52.9012 19.1415 53.3888 19.754 53.7515C20.9138 54.4414 22.817 54.4651 24.0065 53.7932C24.6607 53.4304 24.9581 52.9309 24.9105 52.4433C24.9343 52.7049 24.964 52.9725 24.9878 53.2342C25.0354 53.7337 24.7261 54.2451 24.06 54.6198C22.8348 55.3036 20.8841 55.2858 19.6946 54.5781C19.0641 54.2035 18.7727 53.704 18.8262 53.2223Z" fill="#2BF2F1" stroke="#082422" stroke-width="0.143276"/>
<path d="M23.9827 52.5625C22.8051 53.2226 20.9257 53.2047 19.7838 52.5209C18.6419 51.837 18.6657 50.7488 19.8433 50.0887C21.0209 49.4286 22.9003 49.4465 24.0422 50.1303C25.1841 50.8142 25.1603 51.9024 23.9827 52.5625ZM24.1254 50.0827C22.936 49.3751 20.9852 49.3513 19.76 50.0411C18.5349 50.725 18.5111 51.8608 19.7006 52.5684C20.89 53.2761 22.8408 53.2999 24.066 52.6101C25.2911 51.9262 25.3149 50.7904 24.1254 50.0827Z" fill="#0A9D9C" stroke="#082422" stroke-width="0.143276"/>
<path d="M19.3141 53.8231C18.3268 53.2523 17.7678 52.1878 18.2555 51.1412C18.4101 50.7844 18.7967 50.3741 19.1416 50.1541C19.213 50.1065 19.3201 50.0411 19.3974 49.9995C19.4925 49.9459 19.6234 49.9578 19.7661 50.0411C18.5409 50.7249 18.5172 51.8608 19.7066 52.5684C20.8961 53.2761 22.8469 53.2998 24.0721 52.61C25.2972 51.9262 25.321 50.7904 24.1315 50.0827C22.9421 49.3751 20.9913 49.3513 19.7661 50.0411C19.6234 49.9578 19.4925 49.9459 19.3974 49.9995C20.8248 49.2145 22.835 49.2145 24.2624 49.9162C25.3686 50.4514 26.112 51.5575 25.5708 52.7349C25.2318 53.4128 24.6965 53.7815 24.0007 54.0907C22.7339 54.6378 20.6701 54.6497 19.3141 53.8291V53.8231Z" fill="#0A9D9C"/>
<path d="M19.3974 49.9995C19.3201 50.0411 19.213 50.1065 19.1416 50.1541C18.7967 50.3741 18.4101 50.7844 18.2555 51.1412C17.7678 52.1878 18.3268 53.2523 19.3141 53.8231V53.8291C20.6701 54.6497 22.7339 54.6378 24.0007 54.0907C24.6965 53.7815 25.2318 53.4128 25.5708 52.7349C26.112 51.5575 25.3686 50.4514 24.2624 49.9162C22.835 49.2145 20.8248 49.2145 19.3974 49.9995ZM19.3974 49.9995C19.4925 49.9459 19.6234 49.9578 19.7661 50.0411M19.7661 50.0411C18.5409 50.7249 18.5172 51.8608 19.7066 52.5684C20.8961 53.2761 22.8469 53.2998 24.0721 52.61C25.2972 51.9262 25.321 50.7904 24.1315 50.0827C22.9421 49.3751 20.9913 49.3513 19.7661 50.0411Z" stroke="#082422" stroke-width="0.143276"/>
<path d="M18.9457 51.2835C19.1063 46.5143 19.2669 39.0692 19.4275 34.3059C19.4156 34.6805 19.6535 35.0611 20.1412 35.3585C21.1166 35.9412 22.7164 35.9531 23.7156 35.3941C24.233 35.1028 24.4947 34.7103 24.4828 34.3238C24.6137 39.0929 24.7505 46.5381 24.8813 51.3073C24.8932 51.7652 24.5958 52.2231 23.9832 52.568C22.8056 53.2281 20.9262 53.2102 19.7843 52.5264C19.2074 52.1815 18.9279 51.7355 18.9457 51.2954V51.2835Z" fill="#2BF2F1" stroke="#082422" stroke-width="0.143276"/>
<path d="M19.7346 31.9072C21.0108 31.2045 22.9054 31.1887 24.2268 31.9365L24.3801 32.0312C25.1187 32.516 25.4539 33.1885 25.4036 33.8506C25.3498 34.5553 24.8605 35.228 24.0012 35.6318L24.0002 35.6309C22.7259 36.2341 20.93 36.2292 19.6536 35.4854V35.4863C19.1625 35.2057 18.7771 34.7779 18.6047 34.2842C18.4318 33.7883 18.4757 33.2284 18.8333 32.6953C19.0058 32.4427 19.2451 32.223 19.4944 32.0527L19.4963 32.0508C19.5404 32.0227 19.5924 31.9867 19.636 31.96C19.6642 31.9426 19.694 31.9262 19.7249 31.9121C19.7279 31.9104 19.7316 31.9088 19.7346 31.9072Z" fill="#0A9D9C"/>
<path d="M19.7346 31.9072L19.7674 31.971L19.7692 31.97L19.7346 31.9072ZM24.2268 31.9365L24.2645 31.8755L24.2621 31.8742L24.2268 31.9365ZM24.3801 32.0312L24.4194 31.9713L24.4178 31.9703L24.3801 32.0312ZM25.4036 33.8506L25.475 33.856L25.475 33.856L25.4036 33.8506ZM24.0012 35.6318L23.9506 35.6825L23.9861 35.7181L24.0317 35.6967L24.0012 35.6318ZM24.0002 35.6309L24.0509 35.5802L24.0152 35.5445L23.9696 35.5661L24.0002 35.6309ZM19.6536 35.4854L19.6896 35.4235L19.5819 35.3607V35.4854H19.6536ZM19.6536 35.4863L19.618 35.5485L19.7252 35.6098V35.4863H19.6536ZM18.6047 34.2842L18.5371 34.3078L18.5371 34.3078L18.6047 34.2842ZM18.8333 32.6953L18.7741 32.6549L18.7738 32.6554L18.8333 32.6953ZM19.4944 32.0527L19.5355 32.1129L19.545 32.1034L19.4944 32.0527ZM19.4963 32.0508L19.4579 31.9904L19.4512 31.9946L19.4457 32.0001L19.4963 32.0508ZM19.636 31.96L19.5985 31.8989L19.5985 31.8989L19.636 31.96ZM19.7249 31.9121L19.7548 31.9775L19.76 31.9745L19.7249 31.9121ZM19.7346 31.9072L19.7692 31.97C21.0239 31.279 22.8921 31.2635 24.1915 31.9989L24.2268 31.9365L24.2621 31.8742C22.9187 31.1139 20.9976 31.1299 19.7001 31.8445L19.7346 31.9072ZM24.2268 31.9365L24.1892 31.9975L24.3425 32.0922L24.3801 32.0312L24.4178 31.9703L24.2645 31.8756L24.2268 31.9365ZM24.3801 32.0312L24.3408 32.0911C25.0617 32.5643 25.3802 33.2135 25.3321 33.8452L25.4036 33.8506L25.475 33.856C25.5277 33.1634 25.1758 32.4678 24.4194 31.9714L24.3801 32.0312ZM25.4036 33.8506L25.3321 33.8451C25.2808 34.5185 24.8122 35.1716 23.9708 35.567L24.0012 35.6318L24.0317 35.6967C24.9088 35.2845 25.4188 34.592 25.475 33.856L25.4036 33.8506ZM24.0012 35.6318L24.0519 35.5812L24.0509 35.5802L24.0002 35.6309L23.9496 35.6815L23.9506 35.6825L24.0012 35.6318ZM24.0002 35.6309L23.9696 35.5661C22.7148 36.1601 20.944 36.1544 19.6896 35.4235L19.6536 35.4854L19.6175 35.5472C20.9161 36.304 22.7371 36.3081 24.0309 35.6956L24.0002 35.6309ZM19.6536 35.4854H19.5819V35.4863H19.6536H19.7252V35.4854H19.6536ZM19.6536 35.4863L19.6891 35.4241C19.2105 35.1506 18.8381 34.7354 18.6724 34.2606L18.6047 34.2842L18.5371 34.3078C18.716 34.8204 19.1146 35.2607 19.618 35.5485L19.6536 35.4863ZM18.6047 34.2842L18.6724 34.2606C18.5068 33.7858 18.5479 33.2495 18.8928 32.7352L18.8333 32.6953L18.7738 32.6554C18.4036 33.2074 18.3568 33.7907 18.5371 34.3078L18.6047 34.2842ZM18.8333 32.6953L18.8924 32.7357C19.0588 32.4921 19.291 32.2784 19.5348 32.1119L19.4944 32.0527L19.454 31.9936C19.1992 32.1676 18.9528 32.3933 18.7741 32.6549L18.8333 32.6953ZM19.4944 32.0527L19.545 32.1034L19.547 32.1014L19.4963 32.0508L19.4457 32.0001L19.4437 32.0021L19.4944 32.0527ZM19.4963 32.0508L19.5348 32.1112C19.5839 32.0799 19.629 32.0483 19.6735 32.021L19.636 31.96L19.5985 31.8989C19.5559 31.9251 19.4969 31.9655 19.4579 31.9904L19.4963 32.0508ZM19.636 31.96L19.6734 32.021C19.6998 32.0048 19.727 31.9899 19.7547 31.9773L19.7249 31.9121L19.6951 31.847C19.6611 31.8625 19.6287 31.8804 19.5985 31.8989L19.636 31.96ZM19.7249 31.9121L19.76 31.9745C19.7594 31.9749 19.7593 31.9749 19.7609 31.9741C19.7617 31.9737 19.7648 31.9723 19.7674 31.9709L19.7346 31.9072L19.7019 31.8435C19.7019 31.8435 19.7018 31.8436 19.7016 31.8436C19.7015 31.8437 19.7013 31.8438 19.701 31.844C19.7 31.8444 19.7 31.8444 19.6986 31.8451C19.6968 31.846 19.6934 31.8476 19.6897 31.8497L19.7249 31.9121Z" fill="#082422"/>
<path d="M27.937 63.1592V62.2256C27.937 62.8797 28.3593 63.5338 29.2098 64.0393C30.9345 65.0681 33.7714 65.0978 35.5438 64.1047C36.4478 63.5993 36.8998 62.9273 36.8998 62.2494V63.183C36.8998 63.8609 36.4418 64.5329 35.5378 65.0383C33.7655 66.0314 30.9286 66.0076 29.2038 64.9729C28.3533 64.4675 27.937 63.8133 27.937 63.1592Z" fill="#0A9D9C" stroke="#082422" stroke-width="0.143276"/>
<path d="M31.8499 59.1631C31.995 59.151 32.5055 59.1148 33.1058 59.1748L33.1048 59.1758C33.1915 59.182 33.433 59.2057 33.7269 59.2656C33.8978 59.3016 34.0452 59.3387 34.1507 59.3672C34.2033 59.3814 34.246 59.394 34.2757 59.4023C34.2905 59.4065 34.302 59.409 34.3099 59.4111C34.3113 59.4115 34.3127 59.4118 34.3138 59.4121H34.3167L34.3275 59.416C35.5007 59.7693 36.7861 60.5855 36.9583 61.9785L36.9603 61.9873H36.9593V61.9932C37.0097 62.4278 36.9226 62.8255 36.6927 63.1885C36.4622 63.5522 36.0908 63.878 35.5794 64.1729H35.5784C34.6789 64.6769 33.5133 64.9201 32.3577 64.9082C31.2023 64.8962 30.049 64.6288 29.1732 64.1064C28.3155 63.5932 27.8714 62.9193 27.8714 62.2314C27.8716 61.1794 28.6022 60.3325 29.4769 59.8438C29.8457 59.6322 30.1969 59.4998 30.5989 59.3857L30.805 59.3301C31.2763 59.2129 31.6723 59.1788 31.8499 59.1631ZM32.4651 59.6748C31.6837 59.6676 30.9011 59.8337 30.3021 60.1709C29.7026 60.5086 29.4121 60.9447 29.4017 61.3682C29.3928 61.7382 29.5975 62.1216 30.0403 62.4453L30.2444 62.5811L30.471 62.7031C31.0189 62.9714 31.6964 63.1107 32.3802 63.1172C33.1617 63.1245 33.9451 62.9583 34.5443 62.6211C35.1437 62.2835 35.4342 61.8473 35.4446 61.4238C35.4535 61.0537 35.2489 60.6704 34.806 60.3467L34.6019 60.2119C34.0207 59.8633 33.2468 59.6821 32.4651 59.6748Z" fill="#0A9D9C"/>
<path d="M31.8499 59.1631L31.844 59.0917L31.8436 59.0917L31.8499 59.1631ZM33.1058 59.1748L33.1564 59.2255L33.2633 59.1186L33.1129 59.1035L33.1058 59.1748ZM33.1048 59.1758L33.0541 59.1251L32.9433 59.236L33.0997 59.2472L33.1048 59.1758ZM33.7269 59.2656L33.7416 59.1955L33.7412 59.1954L33.7269 59.2656ZM34.1507 59.3672L34.1693 59.298L34.1693 59.298L34.1507 59.3672ZM34.2757 59.4023L34.2564 59.4713L34.2564 59.4713L34.2757 59.4023ZM34.3099 59.4111L34.2915 59.4804L34.2916 59.4804L34.3099 59.4111ZM34.3138 59.4121L34.2959 59.4815L34.3047 59.4837H34.3138V59.4121ZM34.3167 59.4121L34.3412 59.3448L34.3293 59.3405H34.3167V59.4121ZM34.3275 59.416L34.3029 59.4834L34.3068 59.4846L34.3275 59.416ZM36.9583 61.9785L36.8869 61.9873L36.8884 61.9941L36.9583 61.9785ZM36.9603 61.9873V62.0589H37.0496L37.0302 61.9718L36.9603 61.9873ZM36.9593 61.9873V61.9157H36.8877V61.9873H36.9593ZM36.9593 61.9932H36.8872L36.8881 62.0014L36.9593 61.9932ZM36.6927 63.1885L36.7532 63.2268L36.7532 63.2268L36.6927 63.1885ZM35.5794 64.1729V64.2445H35.5986L35.6152 64.2349L35.5794 64.1729ZM35.5784 64.1729V64.1012H35.5597L35.5434 64.1104L35.5784 64.1729ZM32.3577 64.9082L32.357 64.9798H32.357L32.3577 64.9082ZM29.1732 64.1064L29.1364 64.1679L29.1365 64.168L29.1732 64.1064ZM27.8714 62.2314L27.7998 62.2314V62.2314H27.8714ZM29.4769 59.8438L29.5118 59.9063L29.5125 59.9059L29.4769 59.8438ZM30.5989 59.3857L30.5803 59.3166L30.5794 59.3168L30.5989 59.3857ZM30.805 59.3301L30.7877 59.2605L30.7863 59.2609L30.805 59.3301ZM32.4651 59.6748L32.4658 59.6032L32.4658 59.6032L32.4651 59.6748ZM30.3021 60.1709L30.2669 60.1085L30.2669 60.1085L30.3021 60.1709ZM29.4017 61.3682L29.3301 61.3664L29.3301 61.3664L29.4017 61.3682ZM30.0403 62.4453L29.998 62.5032L30.0007 62.505L30.0403 62.4453ZM30.2444 62.5811L30.2046 62.641L30.2105 62.6441L30.2444 62.5811ZM30.471 62.7031L30.437 62.7662L30.4395 62.7675L30.471 62.7031ZM32.3802 63.1172L32.3795 63.1888H32.3795L32.3802 63.1172ZM34.5443 62.6211L34.5794 62.6835L34.5794 62.6835L34.5443 62.6211ZM35.4446 61.4238L35.5163 61.4256L35.5163 61.4255L35.4446 61.4238ZM34.806 60.3467L34.8483 60.2888L34.8454 60.2869L34.806 60.3467ZM34.6019 60.2119L34.6414 60.1521L34.6387 60.1505L34.6019 60.2119ZM31.8499 59.1631L31.8559 59.2345C31.999 59.2226 32.5046 59.1867 33.0987 59.2461L33.1058 59.1748L33.1129 59.1035C32.5064 59.0429 31.9911 59.0794 31.844 59.0917L31.8499 59.1631ZM33.1058 59.1748L33.0551 59.1241L33.0541 59.1251L33.1048 59.1758L33.1555 59.2264L33.1564 59.2255L33.1058 59.1748ZM33.1048 59.1758L33.0997 59.2472C33.1839 59.2533 33.4223 59.2766 33.7125 59.3358L33.7269 59.2656L33.7412 59.1954C33.4438 59.1348 33.1992 59.1107 33.1099 59.1043L33.1048 59.1758ZM33.7269 59.2656L33.7121 59.3357C33.8815 59.3714 34.0275 59.4082 34.1321 59.4364L34.1507 59.3672L34.1693 59.298C34.0628 59.2693 33.9141 59.2318 33.7416 59.1955L33.7269 59.2656ZM34.1507 59.3672L34.1321 59.4364C34.1844 59.4505 34.2252 59.4626 34.2564 59.4713L34.2757 59.4023L34.295 59.3334C34.2668 59.3255 34.2223 59.3123 34.1693 59.298L34.1507 59.3672ZM34.2757 59.4023L34.2564 59.4713C34.2698 59.4751 34.2893 59.4798 34.2915 59.4804L34.3099 59.4111L34.3283 59.3419C34.3148 59.3383 34.3112 59.3379 34.295 59.3334L34.2757 59.4023ZM34.3099 59.4111L34.2916 59.4804C34.293 59.4808 34.2942 59.4811 34.2949 59.4812C34.2959 59.4815 34.2959 59.4815 34.2959 59.4815L34.3138 59.4121L34.3317 59.3427C34.3306 59.3425 34.3294 59.3422 34.329 59.3421C34.3284 59.3419 34.3282 59.3419 34.3281 59.3419L34.3099 59.4111ZM34.3138 59.4121V59.4837H34.3167V59.4121V59.3405H34.3138V59.4121ZM34.3167 59.4121L34.2922 59.4794L34.303 59.4833L34.3275 59.416L34.3519 59.3487L34.3412 59.3448L34.3167 59.4121ZM34.3275 59.416L34.3068 59.4846C35.4722 59.8355 36.7204 60.6381 36.8872 61.9873L36.9583 61.9785L37.0294 61.9697C36.8517 60.5329 35.5292 59.7031 34.3481 59.3474L34.3275 59.416ZM36.9583 61.9785L36.8884 61.9941L36.8903 62.0028L36.9603 61.9873L37.0302 61.9718L37.0282 61.963L36.9583 61.9785ZM36.9603 61.9873V61.9157H36.9593V61.9873V62.0589H36.9603V61.9873ZM36.9593 61.9873H36.8877V61.9932H36.9593H37.0309V61.9873H36.9593ZM36.9593 61.9932L36.8881 62.0014C36.9367 62.4204 36.853 62.8015 36.6322 63.1501L36.6927 63.1885L36.7532 63.2268C36.9922 62.8494 37.0827 62.4352 37.0304 61.9849L36.9593 61.9932ZM36.6927 63.1885L36.6322 63.1501C36.4099 63.5009 36.0489 63.8195 35.5436 64.1108L35.5794 64.1729L35.6152 64.2349C36.1328 63.9365 36.5145 63.6035 36.7532 63.2268L36.6927 63.1885ZM35.5794 64.1729V64.1012H35.5784V64.1729V64.2445H35.5794V64.1729ZM35.5784 64.1729L35.5434 64.1104C34.6573 64.6069 33.5047 64.8484 32.3585 64.8366L32.3577 64.9082L32.357 64.9798C33.5218 64.9919 34.7005 64.7469 35.6134 64.2353L35.5784 64.1729ZM32.3577 64.9082L32.3585 64.8366C31.2123 64.8247 30.0722 64.5592 29.2099 64.0449L29.1732 64.1064L29.1365 64.168C30.0257 64.6983 31.1923 64.9677 32.357 64.9798L32.3577 64.9082ZM29.1732 64.1064L29.2099 64.045C28.3654 63.5395 27.943 62.8855 27.943 62.2314H27.8714H27.7998C27.7998 62.9531 28.2657 63.6468 29.1364 64.1679L29.1732 64.1064ZM27.8714 62.2314L27.943 62.2315C27.9432 61.215 28.6499 60.388 29.5118 59.9063L29.4769 59.8438L29.4419 59.7812C28.5545 60.2771 27.7999 61.1438 27.7998 62.2314L27.8714 62.2314ZM29.4769 59.8438L29.5125 59.9059C29.875 59.698 30.2203 59.5676 30.6185 59.4547L30.5989 59.3857L30.5794 59.3168C30.1734 59.432 29.8165 59.5664 29.4412 59.7816L29.4769 59.8438ZM30.5989 59.3857L30.6176 59.4549L30.8237 59.3992L30.805 59.3301L30.7863 59.2609L30.5803 59.3166L30.5989 59.3857ZM30.805 59.3301L30.8223 59.3996C31.2879 59.2838 31.6792 59.2501 31.8562 59.2344L31.8499 59.1631L31.8436 59.0917C31.6653 59.1075 31.2648 59.1419 30.7877 59.2606L30.805 59.3301ZM32.4651 59.6748L32.4658 59.6032C31.6751 59.5959 30.8793 59.7637 30.2669 60.1085L30.3021 60.1709L30.3372 60.2333C30.9228 59.9036 31.6924 59.7393 32.4645 59.7464L32.4651 59.6748ZM30.3021 60.1709L30.2669 60.1085C29.6546 60.4534 29.3413 60.9088 29.3301 61.3664L29.4017 61.3682L29.4733 61.3699C29.4828 60.9807 29.7506 60.5637 30.3372 60.2333L30.3021 60.1709ZM29.4017 61.3682L29.3301 61.3664C29.3204 61.7666 29.5424 62.17 29.9981 62.5031L30.0403 62.4453L30.0826 62.3875C29.6527 62.0731 29.4651 61.7098 29.4733 61.3699L29.4017 61.3682ZM30.0403 62.4453L30.0007 62.505L30.2048 62.6407L30.2444 62.5811L30.2841 62.5214L30.08 62.3857L30.0403 62.4453ZM30.2444 62.5811L30.2105 62.6441L30.437 62.7662L30.471 62.7031L30.505 62.6401L30.2784 62.518L30.2444 62.5811ZM30.471 62.7031L30.4395 62.7675C30.9988 63.0413 31.6872 63.1822 32.3795 63.1888L32.3802 63.1172L32.3809 63.0456C31.7055 63.0391 31.0389 62.9015 30.5025 62.6388L30.471 62.7031ZM32.3802 63.1172L32.3795 63.1888C33.1703 63.1963 33.9668 63.0283 34.5794 62.6835L34.5443 62.6211L34.5091 62.5587C33.9234 62.8883 33.153 63.0528 32.3809 63.0456L32.3802 63.1172ZM34.5443 62.6211L34.5794 62.6835C35.1917 62.3386 35.505 61.8832 35.5163 61.4256L35.4446 61.4238L35.373 61.4221C35.3634 61.8113 35.0957 62.2283 34.5091 62.5587L34.5443 62.6211ZM35.4446 61.4238L35.5163 61.4255C35.5258 61.0254 35.3041 60.622 34.8482 60.2888L34.806 60.3467L34.7637 60.4045C35.1938 60.7189 35.3811 61.0821 35.373 61.4221L35.4446 61.4238ZM34.806 60.3467L34.8454 60.2869L34.6413 60.1521L34.6019 60.2119L34.5624 60.2717L34.7665 60.4065L34.806 60.3467ZM34.6019 60.2119L34.6387 60.1505C34.044 59.7938 33.2568 59.6106 32.4658 59.6032L32.4651 59.6748L32.4645 59.7464C33.2368 59.7537 33.9974 59.9329 34.565 60.2733L34.6019 60.2119Z" fill="#082422"/>
<path d="M35.5136 61.3756C35.5018 60.9355 35.2103 60.4955 34.6394 60.1565C33.4499 59.4429 31.4932 59.4251 30.268 60.1149L30.2859 59.3597C31.4991 58.6758 33.4439 58.6996 34.6215 59.4013C35.1865 59.7402 35.478 60.1744 35.4899 60.6144C35.4958 60.8701 35.5018 61.1258 35.5136 61.3815V61.3756Z" fill="#0A9D9C" stroke="#082422" stroke-width="0.143276"/>
<path d="M29.358 60.5907C29.3758 60.1387 29.6851 59.6927 30.2858 59.3538L30.2679 60.109C29.6613 60.4479 29.3461 60.8999 29.3342 61.3578C29.3401 61.1021 29.352 60.8464 29.358 60.5907Z" fill="#0A9D9C" stroke="#082422" stroke-width="0.143276"/>
<path d="M29.3284 61.3577C29.3343 61.102 29.3462 60.8463 29.3522 60.5906C29.3343 61.0485 29.6258 61.5123 30.2205 61.8632C31.404 62.5708 33.3429 62.5886 34.5562 61.9048C35.1866 61.548 35.5018 61.0782 35.484 60.6025C35.484 60.6381 35.484 60.6798 35.484 60.7155C35.484 60.7273 35.484 60.7452 35.484 60.7511C35.484 60.8284 35.484 60.9057 35.4899 60.9831C35.4899 61.1079 35.4959 61.2388 35.5018 61.3636C35.5137 61.8394 35.2044 62.321 34.5681 62.6778C33.3429 63.3677 31.3862 63.3439 30.1967 62.6362C29.596 62.2794 29.3046 61.8096 29.3224 61.3517L29.3284 61.3577Z" fill="#2BF2F1" stroke="#082422" stroke-width="0.143276"/>
<path d="M29.8291 61.9044C28.7407 61.2741 28.1817 60.061 28.937 58.9371C29.1273 58.6635 29.383 58.4257 29.6566 58.2354C29.728 58.1878 29.835 58.1224 29.9124 58.0808C30.0075 58.0272 30.1384 58.0391 30.2811 58.1224C29.0559 58.8063 29.0321 59.9421 30.2216 60.6497C31.4111 61.3574 33.3619 61.3811 34.587 60.6913C35.8122 60.0075 35.836 58.8717 34.6465 58.164C33.457 57.4564 31.5063 57.4326 30.2811 58.1224C30.1384 58.0391 30.0075 58.0272 29.9124 58.0808C31.3398 57.2958 33.35 57.2958 34.7774 57.9975C35.8836 58.5327 36.627 59.6388 36.0858 60.8162C35.7468 61.4941 35.2115 61.8628 34.5157 62.1661C33.2548 62.7132 31.1792 62.7251 29.8291 61.8985V61.9044Z" fill="#0A9D9C"/>
<path d="M29.9124 58.0808C29.835 58.1224 29.728 58.1878 29.6566 58.2354C29.383 58.4257 29.1273 58.6635 28.937 58.9371C28.1817 60.061 28.7407 61.2741 29.8291 61.9044V61.8985C31.1792 62.7251 33.2548 62.7132 34.5157 62.1661C35.2115 61.8628 35.7468 61.4941 36.0858 60.8162C36.627 59.6388 35.8836 58.5327 34.7774 57.9975C33.35 57.2958 31.3398 57.2958 29.9124 58.0808ZM29.9124 58.0808C30.0075 58.0272 30.1384 58.0391 30.2811 58.1224M30.2811 58.1224C29.0559 58.8063 29.0321 59.9421 30.2216 60.6497C31.4111 61.3574 33.3619 61.3811 34.5871 60.6913C35.8122 60.0075 35.836 58.8717 34.6465 58.164C33.457 57.4564 31.5063 57.4326 30.2811 58.1224Z" stroke="#082422" stroke-width="0.143276"/>
<path d="M35.5099 59.3121C35.4682 58.8958 35.1768 58.4914 34.6415 58.1703C33.4521 57.4627 31.5013 57.4389 30.2761 58.1287L30.3356 57.3675C31.5251 56.7015 33.4283 56.7193 34.588 57.4091C35.1114 57.7243 35.3909 58.1168 35.4326 58.5212C35.4563 58.7828 35.4861 59.0504 35.5099 59.3121Z" fill="#0A9D9C" stroke="#082422" stroke-width="0.143276"/>
<path d="M29.4315 58.5033C29.4732 58.0871 29.7765 57.6767 30.3355 57.3616L30.2761 58.1227C29.7051 58.4439 29.3899 58.8661 29.3483 59.2942C29.378 59.0326 29.4018 58.765 29.4315 58.5033Z" fill="#0A9D9C" stroke="#082422" stroke-width="0.143276"/>
<path d="M29.3475 59.2938C29.3772 59.0322 29.401 58.7646 29.4307 58.5029C29.3832 58.9727 29.6627 59.4603 30.2753 59.8231C31.435 60.5129 33.3382 60.5367 34.5277 59.8647C35.1819 59.502 35.4793 59.0024 35.4317 58.5148C35.4555 58.7765 35.4852 59.0441 35.509 59.3057C35.5566 59.8052 35.2473 60.3166 34.5812 60.6913C33.3561 61.3751 31.4053 61.3573 30.2158 60.6497C29.5854 60.275 29.294 59.7755 29.3475 59.2938Z" fill="#2BF2F1" stroke="#082422" stroke-width="0.143276"/>
<path d="M34.5034 58.6338C33.3258 59.2939 31.4464 59.276 30.3045 58.5922C29.1626 57.9083 29.1864 56.8201 30.364 56.16C31.5416 55.4999 33.421 55.5177 34.5629 56.2016C35.7048 56.8855 35.681 57.9737 34.5034 58.6338ZM34.6461 56.154C33.4566 55.4464 31.5059 55.4226 30.2807 56.1124C29.0555 56.7963 29.0318 57.9321 30.2212 58.6397C31.4107 59.3474 33.3615 59.3712 34.5867 58.6814C35.8118 57.9975 35.8356 56.8617 34.6461 56.154Z" fill="#0A9D9C" stroke="#082422" stroke-width="0.143276"/>
<path d="M29.8348 59.8944C28.8475 59.3236 28.2885 58.2591 28.7762 57.2125C28.9308 56.8557 29.3174 56.4454 29.6623 56.2254C29.7337 56.1778 29.8407 56.1124 29.9181 56.0708C30.0132 56.0172 30.1441 56.0291 30.2868 56.1124C29.0616 56.7962 29.0378 57.932 30.2273 58.6397C31.4168 59.3473 33.3676 59.3711 34.5928 58.6813C35.8179 57.9975 35.8417 56.8617 34.6522 56.154C33.4627 55.4464 31.512 55.4226 30.2868 56.1124C30.1441 56.0291 30.0132 56.0172 29.9181 56.0708C31.3454 55.2858 33.3557 55.2858 34.7831 55.9875C35.8893 56.5227 36.6327 57.6288 36.0915 58.8062C35.7525 59.4841 35.2172 59.8528 34.5214 60.162C33.2546 60.7091 31.1908 60.721 29.8348 59.9004V59.8944Z" fill="#0A9D9C"/>
<path d="M29.9181 56.0708C29.8407 56.1124 29.7337 56.1778 29.6623 56.2254C29.3174 56.4454 28.9308 56.8557 28.7762 57.2125C28.2885 58.2591 28.8475 59.3236 29.8348 59.8944V59.9004C31.1908 60.721 33.2546 60.7091 34.5214 60.162C35.2172 59.8528 35.7525 59.4841 36.0915 58.8062C36.6327 57.6288 35.8893 56.5227 34.7831 55.9875C33.3557 55.2858 31.3454 55.2858 29.9181 56.0708ZM29.9181 56.0708C30.0132 56.0172 30.1441 56.0291 30.2868 56.1124M30.2868 56.1124C29.0616 56.7962 29.0378 57.932 30.2273 58.6397C31.4168 59.3473 33.3676 59.3711 34.5928 58.6813C35.8179 57.9975 35.8417 56.8617 34.6522 56.154C33.4627 55.4464 31.512 55.4226 30.2868 56.1124Z" stroke="#082422" stroke-width="0.143276"/>
<path d="M29.4665 57.3553C29.6271 52.5861 29.7877 45.1409 29.9482 40.3777C29.9363 40.7523 30.1742 41.1329 30.6619 41.4302C31.6373 42.013 33.2372 42.0249 34.2364 41.4659C34.7538 41.1745 35.0155 40.7821 35.0036 40.3955C35.1344 45.1647 35.2712 52.6099 35.402 57.3791C35.4139 57.837 35.1166 58.2949 34.504 58.6398C33.3264 59.2999 31.447 59.282 30.3051 58.5982C29.7282 58.2533 29.4487 57.8073 29.4665 57.3672V57.3553Z" fill="#2BF2F1" stroke="#082422" stroke-width="0.143276"/>
<path d="M30.2556 37.9785C31.5319 37.2757 33.4264 37.2598 34.7478 38.0078L34.9011 38.1025C35.6398 38.5874 35.975 39.2597 35.9246 39.9219C35.8708 40.6265 35.3815 41.2993 34.5222 41.7031L34.5212 41.7021C33.2469 42.3054 31.4511 42.3005 30.1746 41.5566V41.5576C29.6834 41.2769 29.2981 40.8493 29.1257 40.3555C28.9527 39.8595 28.9967 39.2998 29.3542 38.7666C29.5268 38.514 29.7661 38.2943 30.0154 38.124L30.0173 38.1221C30.0614 38.094 30.1134 38.058 30.157 38.0312C30.1853 38.0139 30.215 37.9975 30.2458 37.9834C30.2489 37.9817 30.2525 37.9801 30.2556 37.9785Z" fill="#0A9D9C"/>
<path d="M30.2556 37.9785L30.2885 38.0422L30.2902 38.0413L30.2556 37.9785ZM34.7478 38.0078L34.7855 37.9468L34.7831 37.9455L34.7478 38.0078ZM34.9011 38.1025L34.9404 38.0426L34.9388 38.0416L34.9011 38.1025ZM35.9246 39.9219L35.996 39.9273L35.996 39.9273L35.9246 39.9219ZM34.5222 41.7031L34.4716 41.7538L34.5071 41.7894L34.5527 41.768L34.5222 41.7031ZM34.5212 41.7021L34.5719 41.6515L34.5362 41.6158L34.4906 41.6374L34.5212 41.7021ZM30.1746 41.5566L30.2106 41.4947L30.1029 41.432V41.5566H30.1746ZM30.1746 41.5576L30.139 41.6198L30.2462 41.6811V41.5576H30.1746ZM29.1257 40.3555L29.0581 40.3791L29.0581 40.3791L29.1257 40.3555ZM29.3542 38.7666L29.2951 38.7262L29.2947 38.7267L29.3542 38.7666ZM30.0154 38.124L30.0565 38.1842L30.066 38.1747L30.0154 38.124ZM30.0173 38.1221L29.9789 38.0616L29.9722 38.0659L29.9667 38.0714L30.0173 38.1221ZM30.157 38.0312L30.1195 37.9702L30.1195 37.9702L30.157 38.0312ZM30.2458 37.9834L30.2757 38.0488L30.281 38.0458L30.2458 37.9834ZM30.2556 37.9785L30.2902 38.0413C31.545 37.3503 33.4131 37.3346 34.7125 38.0702L34.7478 38.0078L34.7831 37.9455C33.4397 37.185 31.5187 37.2012 30.2211 37.9158L30.2556 37.9785ZM34.7478 38.0078L34.7101 38.0688L34.8635 38.1635L34.9011 38.1025L34.9388 38.0416L34.7855 37.9469L34.7478 38.0078ZM34.9011 38.1025L34.8618 38.1624C35.5828 38.6356 35.9012 39.2848 35.8531 39.9164L35.9246 39.9219L35.996 39.9273C36.0488 39.2346 35.6969 38.5391 34.9404 38.0426L34.9011 38.1025ZM35.9246 39.9219L35.8531 39.9164C35.8018 40.5898 35.3332 41.2429 34.4918 41.6383L34.5222 41.7031L34.5527 41.768C35.4298 41.3558 35.9398 40.6633 35.996 39.9273L35.9246 39.9219ZM34.5222 41.7031L34.5729 41.6525L34.5719 41.6515L34.5212 41.7021L34.4706 41.7528L34.4716 41.7538L34.5222 41.7031ZM34.5212 41.7021L34.4906 41.6374C33.2358 42.2314 31.4651 42.2258 30.2106 41.4947L30.1746 41.5566L30.1385 41.6185C31.4371 42.3753 33.258 42.3794 34.5519 41.7669L34.5212 41.7021ZM30.1746 41.5566H30.1029V41.5576H30.1746H30.2462V41.5566H30.1746ZM30.1746 41.5576L30.2101 41.4954C29.7314 41.2219 29.3591 40.8068 29.1934 40.3319L29.1257 40.3555L29.0581 40.3791C29.2371 40.8918 29.6354 41.332 30.139 41.6198L30.1746 41.5576ZM29.1257 40.3555L29.1934 40.3319C29.0277 39.857 29.0688 39.3209 29.4137 38.8065L29.3542 38.7666L29.2947 38.7267C28.9246 39.2788 28.8776 39.8619 29.0581 40.3791L29.1257 40.3555ZM29.3542 38.7666L29.4134 38.807C29.5799 38.5634 29.812 38.3497 30.0558 38.1832L30.0154 38.124L29.975 38.0649C29.7201 38.2389 29.4738 38.4646 29.2951 38.7262L29.3542 38.7666ZM30.0154 38.124L30.066 38.1747L30.068 38.1727L30.0173 38.1221L29.9667 38.0714L29.9647 38.0734L30.0154 38.124ZM30.0173 38.1221L30.0558 38.1825C30.105 38.1512 30.15 38.1196 30.1945 38.0923L30.157 38.0312L30.1195 37.9702C30.0768 37.9964 30.0179 38.0368 29.9789 38.0616L30.0173 38.1221ZM30.157 38.0312L30.1944 38.0923C30.2209 38.0761 30.248 38.0612 30.2756 38.0486L30.2458 37.9834L30.2161 37.9182C30.182 37.9338 30.1497 37.9517 30.1195 37.9702L30.157 38.0312ZM30.2458 37.9834L30.281 38.0458C30.2803 38.0462 30.2802 38.0462 30.2818 38.0455C30.2827 38.045 30.2858 38.0436 30.2885 38.0422L30.2556 37.9785L30.2227 37.9149C30.2227 37.9149 30.2225 37.915 30.222 37.9153C30.2212 37.9156 30.2209 37.9158 30.2196 37.9164C30.2179 37.9172 30.2144 37.9189 30.2107 37.921L30.2458 37.9834Z" fill="#082422"/>
<path d="M38.4624 69.2007V68.2671C38.4624 68.9212 38.8847 69.5753 39.7352 70.0808C41.4599 71.1096 44.2968 71.1393 46.0692 70.1462C46.9732 69.6408 47.4252 68.9688 47.4252 68.2909V69.2245C47.4252 69.9024 46.9672 70.5744 46.0632 71.0798C44.2909 72.0729 41.454 72.0491 39.7292 71.0144C38.8787 70.509 38.4624 69.8548 38.4624 69.2007Z" fill="#0A9D9C" stroke="#082422" stroke-width="0.143276"/>
<path d="M42.3754 65.2048C42.5201 65.1928 43.0306 65.1566 43.6312 65.2166L43.6302 65.2175C43.7167 65.2237 43.9583 65.2474 44.2523 65.3074C44.4232 65.3434 44.5706 65.3805 44.6761 65.4089C44.7287 65.4231 44.7714 65.4358 44.8011 65.4441C44.8159 65.4482 44.8275 65.4508 44.8353 65.4529C44.8367 65.4533 44.8382 65.4536 44.8392 65.4539H44.8422L44.8529 65.4578C46.0263 65.811 47.3116 66.627 47.4838 68.0203L47.4857 68.0291H47.4847V68.0349C47.5351 68.4696 47.4482 68.8672 47.2181 69.2302C46.9876 69.5939 46.6163 69.9198 46.1049 70.2146H46.1039C45.2043 70.7185 44.0387 70.9619 42.8832 70.95C41.7278 70.9379 40.5743 70.6705 39.6986 70.1482C38.8412 69.635 38.3969 68.961 38.3969 68.2732C38.3969 67.2211 39.1277 66.3744 40.0023 65.8855C40.3712 65.6739 40.7223 65.5415 41.1244 65.4275L41.3304 65.3718C41.8017 65.2546 42.1975 65.2205 42.3754 65.2048ZM42.9916 65.7166C42.2101 65.7093 41.4276 65.8753 40.8285 66.2126C40.2289 66.5503 39.9385 66.9864 39.9281 67.4099C39.9193 67.7799 40.124 68.1633 40.5668 68.4871L40.7709 68.6228L40.9974 68.7449C41.5454 69.0131 42.2227 69.1524 42.9066 69.1589C43.6882 69.1663 44.4715 69.0001 45.0707 68.6628C45.6701 68.3253 45.9606 67.8889 45.9711 67.4656C45.9799 67.0955 45.7752 66.7121 45.3324 66.3884L45.1283 66.2537C44.5471 65.905 43.7733 65.7239 42.9916 65.7166Z" fill="#0A9D9C"/>
<path d="M42.3754 65.2048L42.3694 65.1334L42.3691 65.1335L42.3754 65.2048ZM43.6312 65.2166L43.6819 65.2672L43.7888 65.1603L43.6383 65.1453L43.6312 65.2166ZM43.6302 65.2175L43.5796 65.1669L43.4687 65.2778L43.6251 65.289L43.6302 65.2175ZM44.2523 65.3074L44.2671 65.2373L44.2666 65.2372L44.2523 65.3074ZM44.6761 65.4089L44.6948 65.3398L44.6948 65.3398L44.6761 65.4089ZM44.8011 65.4441L44.7818 65.5131L44.7818 65.5131L44.8011 65.4441ZM44.8353 65.4529L44.8537 65.3837L44.8537 65.3836L44.8353 65.4529ZM44.8392 65.4539L44.8217 65.5233L44.8303 65.5255H44.8392V65.4539ZM44.8422 65.4539L44.8666 65.3865L44.8548 65.3822H44.8422V65.4539ZM44.8529 65.4578L44.8284 65.5252L44.8323 65.5264L44.8529 65.4578ZM47.4838 68.0203L47.4123 68.0291L47.4138 68.0358L47.4838 68.0203ZM47.4857 68.0291V68.1007H47.575L47.5556 68.0135L47.4857 68.0291ZM47.4847 68.0291V67.9574H47.4131V68.0291H47.4847ZM47.4847 68.0349H47.4126L47.4136 68.0432L47.4847 68.0349ZM47.2181 69.2302L47.2786 69.2686L47.2787 69.2686L47.2181 69.2302ZM46.1049 70.2146V70.2862H46.124L46.1406 70.2767L46.1049 70.2146ZM46.1039 70.2146V70.143H46.0852L46.0689 70.1521L46.1039 70.2146ZM42.8832 70.95L42.8824 71.0216H42.8824L42.8832 70.95ZM39.6986 70.1482L39.6618 70.2097L39.6619 70.2097L39.6986 70.1482ZM38.3969 68.2732L38.3252 68.2732V68.2732L38.3969 68.2732ZM40.0023 65.8855L40.0373 65.948L40.038 65.9476L40.0023 65.8855ZM41.1244 65.4275L41.1057 65.3583L41.1048 65.3586L41.1244 65.4275ZM41.3304 65.3718L41.3131 65.3023L41.3118 65.3027L41.3304 65.3718ZM42.9916 65.7166L42.9923 65.6449L42.9922 65.6449L42.9916 65.7166ZM40.8285 66.2126L40.7933 66.1502L40.7933 66.1502L40.8285 66.2126ZM39.9281 67.4099L39.8565 67.4082L39.8565 67.4082L39.9281 67.4099ZM40.5668 68.4871L40.5245 68.5449L40.5271 68.5467L40.5668 68.4871ZM40.7709 68.6228L40.731 68.6827L40.7369 68.6859L40.7709 68.6228ZM40.9974 68.7449L40.9634 68.808L40.9659 68.8092L40.9974 68.7449ZM42.9066 69.1589L42.9059 69.2306H42.9059L42.9066 69.1589ZM45.0707 68.6628L45.1058 68.7253L45.1058 68.7253L45.0707 68.6628ZM45.9711 67.4656L46.0427 67.4674L46.0427 67.4673L45.9711 67.4656ZM45.3324 66.3884L45.3747 66.3305L45.3719 66.3286L45.3324 66.3884ZM45.1283 66.2537L45.1678 66.1938L45.1651 66.1922L45.1283 66.2537ZM42.3754 65.2048L42.3813 65.2762C42.524 65.2643 43.0297 65.2285 43.6241 65.2878L43.6312 65.2166L43.6383 65.1453C43.0316 65.0847 42.5161 65.1212 42.3694 65.1334L42.3754 65.2048ZM43.6312 65.2166L43.5806 65.1659L43.5796 65.1669L43.6302 65.2175L43.6809 65.2682L43.6819 65.2672L43.6312 65.2166ZM43.6302 65.2175L43.6251 65.289C43.7091 65.295 43.9476 65.3183 44.238 65.3776L44.2523 65.3074L44.2666 65.2372C43.9691 65.1765 43.7244 65.1525 43.6354 65.1461L43.6302 65.2175ZM44.2523 65.3074L44.2376 65.3775C44.4069 65.4131 44.5529 65.4499 44.6575 65.4781L44.6761 65.4089L44.6948 65.3398C44.5882 65.311 44.4395 65.2736 44.2671 65.2373L44.2523 65.3074ZM44.6761 65.4089L44.6575 65.4781C44.7098 65.4922 44.7507 65.5043 44.7818 65.5131L44.8011 65.4441L44.8205 65.3751C44.7922 65.3672 44.7477 65.354 44.6948 65.3398L44.6761 65.4089ZM44.8011 65.4441L44.7818 65.5131C44.7957 65.517 44.8142 65.5214 44.817 65.5221L44.8353 65.4529L44.8537 65.3836C44.8408 65.3802 44.8361 65.3795 44.8205 65.3751L44.8011 65.4441ZM44.8353 65.4529L44.8169 65.5221C44.8183 65.5225 44.8196 65.5228 44.8203 65.523C44.8207 65.5231 44.8212 65.5232 44.8213 65.5232C44.8216 65.5233 44.8217 65.5233 44.8217 65.5233L44.8392 65.4539L44.8568 65.3844C44.8559 65.3842 44.8547 65.3839 44.8545 65.3838C44.8542 65.3838 44.854 65.3837 44.8539 65.3837C44.8538 65.3837 44.8537 65.3836 44.8537 65.3837L44.8353 65.4529ZM44.8392 65.4539V65.5255H44.8422V65.4539V65.3822H44.8392V65.4539ZM44.8422 65.4539L44.8177 65.5212L44.8284 65.5251L44.8529 65.4578L44.8774 65.3904L44.8666 65.3865L44.8422 65.4539ZM44.8529 65.4578L44.8323 65.5264C45.9977 65.8773 47.246 66.6796 47.4127 68.029L47.4838 68.0203L47.5549 68.0115C47.3773 66.5744 46.0548 65.7448 44.8736 65.3892L44.8529 65.4578ZM47.4838 68.0203L47.4138 68.0358L47.4158 68.0446L47.4857 68.0291L47.5556 68.0135L47.5537 68.0047L47.4838 68.0203ZM47.4857 68.0291V67.9574H47.4847V68.0291V68.1007H47.4857V68.0291ZM47.4847 68.0291H47.4131V68.0349H47.4847H47.5564V68.0291H47.4847ZM47.4847 68.0349L47.4136 68.0432C47.4621 68.4622 47.3785 68.8432 47.1576 69.1919L47.2181 69.2302L47.2787 69.2686C47.5178 68.8911 47.6081 68.477 47.5559 68.0267L47.4847 68.0349ZM47.2181 69.2302L47.1576 69.1919C46.9353 69.5426 46.5743 69.8613 46.0691 70.1525L46.1049 70.2146L46.1406 70.2767C46.6583 69.9783 47.0399 69.6452 47.2786 69.2686L47.2181 69.2302ZM46.1049 70.2146V70.143H46.1039V70.2146V70.2862H46.1049V70.2146ZM46.1039 70.2146L46.0689 70.1521C45.1827 70.6485 44.0301 70.8902 42.8839 70.8783L42.8832 70.95L42.8824 71.0216C44.0473 71.0337 45.2259 70.7886 46.1389 70.2771L46.1039 70.2146ZM42.8832 70.95L42.8839 70.8783C41.7378 70.8664 40.5976 70.6009 39.7353 70.0867L39.6986 70.1482L39.6619 70.2097C40.5511 70.7401 41.7178 71.0094 42.8824 71.0216L42.8832 70.95ZM39.6986 70.1482L39.7354 70.0867C38.891 69.5813 38.4686 68.9272 38.4685 68.2732L38.3969 68.2732L38.3252 68.2732C38.3253 68.9948 38.7913 69.6886 39.6618 70.2097L39.6986 70.1482ZM38.3969 68.2732L38.4685 68.2732C38.4685 67.2568 39.1754 66.4298 40.0373 65.948L40.0023 65.8855L39.9674 65.823C39.08 66.319 38.3252 67.1855 38.3252 68.2732L38.3969 68.2732ZM40.0023 65.8855L40.038 65.9476C40.4004 65.7397 40.7458 65.6094 41.1439 65.4964L41.1244 65.4275L41.1048 65.3586C40.6989 65.4737 40.342 65.608 39.9667 65.8234L40.0023 65.8855ZM41.1244 65.4275L41.1431 65.4966L41.3491 65.441L41.3304 65.3718L41.3118 65.3027L41.1057 65.3583L41.1244 65.4275ZM41.3304 65.3718L41.3477 65.4413C41.8132 65.3255 42.2045 65.2918 42.3817 65.2762L42.3754 65.2048L42.3691 65.1335C42.1906 65.1492 41.7901 65.1837 41.3132 65.3023L41.3304 65.3718ZM42.9916 65.7166L42.9922 65.6449C42.2014 65.6375 41.4058 65.8054 40.7933 66.1502L40.8285 66.2126L40.8636 66.2751C41.4493 65.9453 42.2187 65.781 42.9909 65.7882L42.9916 65.7166ZM40.8285 66.2126L40.7933 66.1502C40.1808 66.4951 39.8677 66.9505 39.8565 67.4082L39.9281 67.4099L39.9997 67.4117C40.0093 67.0224 40.2769 66.6055 40.8636 66.2751L40.8285 66.2126ZM39.9281 67.4099L39.8565 67.4082C39.8469 67.8083 40.0688 68.2118 40.5245 68.5449L40.5668 68.4871L40.6091 68.4292C40.1791 68.1149 39.9916 67.7516 39.9997 67.4116L39.9281 67.4099ZM40.5668 68.4871L40.5271 68.5467L40.7312 68.6825L40.7709 68.6228L40.8105 68.5632L40.6064 68.4274L40.5668 68.4871ZM40.7709 68.6228L40.7369 68.6859L40.9635 68.8079L40.9974 68.7449L41.0314 68.6818L40.8049 68.5597L40.7709 68.6228ZM40.9974 68.7449L40.9659 68.8092C41.5253 69.0831 42.2136 69.224 42.9059 69.2306L42.9066 69.1589L42.9073 69.0873C42.2319 69.0809 41.5654 68.9432 41.0289 68.6805L40.9974 68.7449ZM42.9066 69.1589L42.9059 69.2306C43.6968 69.238 44.4933 69.0701 45.1058 68.7253L45.0707 68.6628L45.0355 68.6004C44.4498 68.9302 43.6795 69.0946 42.9073 69.0873L42.9066 69.1589ZM45.0707 68.6628L45.1058 68.7253C45.7181 68.3804 46.0313 67.9249 46.0427 67.4674L45.9711 67.4656L45.8995 67.4638C45.8898 67.853 45.6221 68.2701 45.0355 68.6004L45.0707 68.6628ZM45.9711 67.4656L46.0427 67.4673C46.0522 67.0672 45.8303 66.6637 45.3747 66.3306L45.3324 66.3884L45.2901 66.4463C45.7201 66.7606 45.9076 67.1239 45.8995 67.4639L45.9711 67.4656ZM45.3324 66.3884L45.3719 66.3286L45.1678 66.1939L45.1283 66.2537L45.0888 66.3134L45.2929 66.4482L45.3324 66.3884ZM45.1283 66.2537L45.1651 66.1922C44.5704 65.8354 43.7833 65.6524 42.9923 65.6449L42.9916 65.7166L42.9909 65.7882C43.7633 65.7954 44.5238 65.9746 45.0914 66.3151L45.1283 66.2537Z" fill="#082422"/>
<path d="M46.0386 67.4173C46.0267 66.9773 45.7353 66.5372 45.1643 66.1983C43.9748 65.4847 42.0181 65.4668 40.793 66.1566L40.8108 65.4014C42.0241 64.7175 43.9689 64.7413 45.1465 65.443C45.7115 65.782 46.0029 66.2161 46.0148 66.6561C46.0208 66.9119 46.0267 67.1676 46.0386 67.4233V67.4173Z" fill="#0A9D9C" stroke="#082422" stroke-width="0.143276"/>
<path d="M39.883 66.6324C39.9008 66.1805 40.2101 65.7345 40.8108 65.3955L40.7929 66.1507C40.1863 66.4897 39.8711 66.9416 39.8592 67.3995C39.8651 67.1438 39.877 66.8881 39.883 66.6324Z" fill="#0A9D9C" stroke="#082422" stroke-width="0.143276"/>
<path d="M39.8534 67.3994C39.8594 67.1437 39.8712 66.888 39.8772 66.6323C39.8593 67.0902 40.1508 67.5541 40.7455 67.9049C41.9291 68.6126 43.8679 68.6304 45.0812 67.9465C45.7116 67.5897 46.0268 67.1199 46.009 66.6442C46.009 66.6799 46.009 66.7215 46.009 66.7572C46.009 66.7691 46.009 66.7869 46.009 66.7929C46.009 66.8702 46.009 66.9475 46.0149 67.0248C46.0149 67.1497 46.0209 67.2805 46.0268 67.4054C46.0387 67.8811 45.7295 68.3628 45.0931 68.7196C43.8679 69.4094 41.9112 69.3856 40.7217 68.678C40.121 68.3212 39.8296 67.8514 39.8475 67.3935L39.8534 67.3994Z" fill="#2BF2F1" stroke="#082422" stroke-width="0.143276"/>
<path d="M40.3537 67.9462C39.2653 67.3159 38.7063 66.1027 39.4616 64.9788C39.6519 64.7053 39.9076 64.4674 40.1812 64.2771C40.2526 64.2296 40.3596 64.1641 40.437 64.1225C40.5321 64.069 40.663 64.0809 40.8057 64.1641C39.5805 64.848 39.5567 65.9838 40.7462 66.6915C41.9357 67.3991 43.8865 67.4229 45.1116 66.7331C46.3368 66.0492 46.3606 64.9134 45.1711 64.2058C43.9816 63.4981 42.0309 63.4743 40.8057 64.1641C40.663 64.0809 40.5321 64.069 40.437 64.1225C41.8643 63.3376 43.8746 63.3376 45.302 64.0393C46.4082 64.5745 47.1516 65.6805 46.6104 66.858C46.2714 67.5359 45.7361 67.9046 45.0403 68.2078C43.7794 68.7549 41.7038 68.7668 40.3537 67.9402V67.9462Z" fill="#0A9D9C"/>
<path d="M40.437 64.1225C40.3596 64.1641 40.2526 64.2296 40.1812 64.2771C39.9076 64.4674 39.6519 64.7053 39.4616 64.9788C38.7063 66.1027 39.2653 67.3159 40.3537 67.9462V67.9402C41.7038 68.7668 43.7794 68.7549 45.0403 68.2078C45.7361 67.9046 46.2714 67.5359 46.6104 66.858C47.1516 65.6805 46.4082 64.5745 45.302 64.0393C43.8746 63.3376 41.8643 63.3376 40.437 64.1225ZM40.437 64.1225C40.5321 64.069 40.663 64.0809 40.8057 64.1641M40.8057 64.1641C39.5805 64.848 39.5567 65.9838 40.7462 66.6915C41.9357 67.3991 43.8865 67.4229 45.1116 66.7331C46.3368 66.0492 46.3606 64.9134 45.1711 64.2058C43.9816 63.4981 42.0309 63.4743 40.8057 64.1641Z" stroke="#082422" stroke-width="0.143276"/>
<path d="M46.0337 65.3548C45.9921 64.9385 45.7007 64.5341 45.1654 64.213C43.9759 63.5054 42.0252 63.4816 40.8 64.1714L40.8595 63.4102C42.0489 62.7442 43.9521 62.7621 45.1119 63.4519C45.6353 63.767 45.9148 64.1595 45.9564 64.5639C45.9802 64.8255 46.0099 65.0931 46.0337 65.3548Z" fill="#0A9D9C" stroke="#082422" stroke-width="0.143276"/>
<path d="M39.9554 64.5461C39.997 64.1298 40.3003 63.7195 40.8594 63.4043L40.7999 64.1655C40.229 64.4866 39.9138 64.9088 39.8721 65.337C39.9019 65.0753 39.9257 64.8077 39.9554 64.5461Z" fill="#0A9D9C" stroke="#082422" stroke-width="0.143276"/>
<path d="M39.8724 65.3368C39.9021 65.0751 39.9259 64.8076 39.9556 64.5459C39.9081 65.0157 40.1876 65.5033 40.8002 65.866C41.9599 66.5559 43.8631 66.5796 45.0526 65.9077C45.7068 65.5449 46.0042 65.0454 45.9566 64.5578C45.9804 64.8194 46.0101 65.087 46.0339 65.3487C46.0815 65.8482 45.7722 66.3596 45.1061 66.7343C43.881 67.4181 41.9302 67.4003 40.7407 66.6926C40.1103 66.318 39.8189 65.8185 39.8724 65.3368Z" fill="#2BF2F1" stroke="#082422" stroke-width="0.143276"/>
<path d="M45.0274 64.6758C43.8499 65.3358 41.9705 65.318 40.8286 64.6341C39.6866 63.9503 39.7104 62.862 40.888 62.202C42.0656 61.5419 43.945 61.5597 45.0869 62.2436C46.2288 62.9275 46.205 64.0157 45.0274 64.6758ZM45.1702 62.196C43.9807 61.4884 42.0299 61.4646 40.8048 62.1544C39.5796 62.8383 39.5558 63.9741 40.7453 64.6817C41.9348 65.3894 43.8855 65.4132 45.1107 64.7233C46.3359 64.0395 46.3597 62.9037 45.1702 62.196Z" fill="#0A9D9C" stroke="#082422" stroke-width="0.143276"/>
<path d="M40.3584 65.9364C39.3711 65.3655 38.812 64.3011 39.2997 63.2545C39.4544 62.8977 39.8409 62.4874 40.1859 62.2674C40.2573 62.2198 40.3643 62.1544 40.4416 62.1127C40.5368 62.0592 40.6676 62.0711 40.8104 62.1544C39.5852 62.8382 39.5614 63.974 40.7509 64.6817C41.9404 65.3893 43.8911 65.4131 45.1163 64.7233C46.3415 64.0395 46.3653 62.9036 45.1758 62.196C43.9863 61.4883 42.0355 61.4646 40.8104 62.1544C40.6676 62.0711 40.5368 62.0592 40.4416 62.1127C41.869 61.3278 43.8792 61.3278 45.3066 62.0295C46.4129 62.5647 47.1563 63.6708 46.6151 64.8482C46.2761 65.5261 45.7408 65.8948 45.0449 66.204C43.7781 66.7511 41.7144 66.763 40.3584 65.9424V65.9364Z" fill="#0A9D9C"/>
<path d="M40.4416 62.1127C40.3643 62.1544 40.2573 62.2198 40.1859 62.2674C39.8409 62.4874 39.4544 62.8977 39.2997 63.2545C38.812 64.3011 39.3711 65.3655 40.3584 65.9364V65.9424C41.7144 66.763 43.7781 66.7511 45.0449 66.204C45.7408 65.8948 46.2761 65.5261 46.6151 64.8482C47.1563 63.6708 46.4129 62.5647 45.3066 62.0295C43.8792 61.3278 41.869 61.3278 40.4416 62.1127ZM40.4416 62.1127C40.5368 62.0592 40.6676 62.0711 40.8104 62.1544M40.8104 62.1544C39.5852 62.8382 39.5614 63.974 40.7509 64.6817C41.9404 65.3893 43.8911 65.4131 45.1163 64.7233C46.3415 64.0395 46.3653 62.9036 45.1758 62.196C43.9863 61.4883 42.0355 61.4646 40.8104 62.1544Z" stroke="#082422" stroke-width="0.143276"/>
<path d="M39.9901 63.3973C40.1506 58.6281 40.3112 51.1829 40.4718 46.4197C40.4599 46.7943 40.6978 47.1749 41.1855 47.4722C42.1609 48.055 43.7607 48.0669 44.7599 47.5079C45.2773 47.2165 45.539 46.8241 45.5271 46.4375C45.658 51.2067 45.7948 58.6519 45.9256 63.4211C45.9375 63.879 45.6401 64.3369 45.0275 64.6818C43.85 65.3419 41.9706 65.324 40.8286 64.6402C40.2517 64.2952 39.9722 63.8492 39.9901 63.4092V63.3973Z" fill="#2BF2F1" stroke="#082422" stroke-width="0.143276"/>
<path d="M40.7787 44.0208C42.0549 43.318 43.9494 43.3021 45.2709 44.05L45.4242 44.1448C46.1628 44.6296 46.498 45.302 46.4476 45.9641C46.3939 46.6688 45.9046 47.3416 45.0453 47.7454L45.0443 47.7444C43.77 48.3476 41.9741 48.3427 40.6976 47.5989V47.5999C40.2066 47.3192 39.8211 46.8914 39.6488 46.3977C39.4758 45.9018 39.5198 45.342 39.8773 44.8088C40.0499 44.5563 40.2892 44.3365 40.5385 44.1663L40.5404 44.1643C40.5845 44.1363 40.6365 44.1002 40.6801 44.0735C40.7083 44.0562 40.7381 44.0397 40.7689 44.0256C40.7719 44.0239 40.7756 44.0223 40.7787 44.0208Z" fill="#0A9D9C"/>
<path d="M40.7787 44.0208L40.8114 44.0845L40.8132 44.0835L40.7787 44.0208ZM45.2709 44.05L45.3086 43.9891L45.3062 43.9877L45.2709 44.05ZM45.4242 44.1448L45.4635 44.0849L45.4618 44.0838L45.4242 44.1448ZM46.4476 45.9641L46.5191 45.9696L46.5191 45.9695L46.4476 45.9641ZM45.0453 47.7454L44.9946 47.796L45.0302 47.8316L45.0758 47.8102L45.0453 47.7454ZM45.0443 47.7444L45.095 47.6937L45.0593 47.658L45.0137 47.6796L45.0443 47.7444ZM40.6976 47.5989L40.7337 47.537L40.626 47.4742V47.5989H40.6976ZM40.6976 47.5999L40.6621 47.662L40.7693 47.7233V47.5999H40.6976ZM39.6488 46.3977L39.5812 46.4213L39.5812 46.4213L39.6488 46.3977ZM39.8773 44.8088L39.8182 44.7684L39.8178 44.7689L39.8773 44.8088ZM40.5385 44.1663L40.5796 44.2265L40.5891 44.2169L40.5385 44.1663ZM40.5404 44.1643L40.5019 44.1039L40.4953 44.1081L40.4897 44.1137L40.5404 44.1643ZM40.6801 44.0735L40.6426 44.0124L40.6426 44.0124L40.6801 44.0735ZM40.7689 44.0256L40.7988 44.091L40.804 44.0881L40.7689 44.0256ZM40.7787 44.0208L40.8132 44.0835C42.068 43.3925 43.9361 43.3769 45.2356 44.1124L45.2709 44.05L45.3062 43.9877C43.9627 43.2274 42.0417 43.2434 40.7441 43.958L40.7787 44.0208ZM45.2709 44.05L45.2332 44.111L45.3865 44.2057L45.4242 44.1448L45.4618 44.0838L45.3085 43.9891L45.2709 44.05ZM45.4242 44.1448L45.3849 44.2047C46.1058 44.6778 46.4243 45.327 46.3762 45.9587L46.4476 45.9641L46.5191 45.9695C46.5718 45.2769 46.2199 44.5813 45.4635 44.0849L45.4242 44.1448ZM46.4476 45.9641L46.3762 45.9587C46.3248 46.632 45.8563 47.2851 45.0148 47.6805L45.0453 47.7454L45.0758 47.8102C45.9529 47.398 46.4629 46.7055 46.5191 45.9696L46.4476 45.9641ZM45.0453 47.7454L45.0959 47.6947L45.095 47.6937L45.0443 47.7444L44.9937 47.795L44.9946 47.796L45.0453 47.7454ZM45.0443 47.7444L45.0137 47.6796C43.7589 48.2736 41.9881 48.268 40.7337 47.537L40.6976 47.5989L40.6616 47.6608C41.9601 48.4175 43.7811 48.4216 45.075 47.8091L45.0443 47.7444ZM40.6976 47.5989H40.626V47.5999H40.6976H40.7693V47.5989H40.6976ZM40.6976 47.5999L40.7332 47.5377C40.2546 47.2641 39.8822 46.8489 39.7164 46.3741L39.6488 46.3977L39.5812 46.4213C39.7601 46.934 40.1586 47.3743 40.6621 47.662L40.6976 47.5999ZM39.6488 46.3977L39.7164 46.3741C39.5508 45.8993 39.592 45.363 39.9368 44.8487L39.8773 44.8088L39.8178 44.7689C39.4477 45.3209 39.4008 45.9042 39.5812 46.4213L39.6488 46.3977ZM39.8773 44.8088L39.9365 44.8493C40.1029 44.6057 40.3351 44.3919 40.5789 44.2254L40.5385 44.1663L40.498 44.1071C40.2432 44.2811 39.9969 44.5069 39.8182 44.7684L39.8773 44.8088ZM40.5385 44.1663L40.5891 44.2169L40.5911 44.215L40.5404 44.1643L40.4897 44.1137L40.4878 44.1156L40.5385 44.1663ZM40.5404 44.1643L40.5789 44.2247C40.628 44.1935 40.6731 44.1618 40.7175 44.1345L40.6801 44.0735L40.6426 44.0124C40.5999 44.0386 40.5409 44.079 40.5019 44.1039L40.5404 44.1643ZM40.6801 44.0735L40.7175 44.1346C40.7439 44.1184 40.7711 44.1034 40.7987 44.0908L40.7689 44.0256L40.7391 43.9605C40.7051 43.976 40.6727 43.9939 40.6426 44.0124L40.6801 44.0735ZM40.7689 44.0256L40.804 44.0881C40.8034 44.0884 40.8033 44.0884 40.8049 44.0877C40.8058 44.0872 40.8089 44.0858 40.8114 44.0845L40.7787 44.0208L40.746 43.957C40.746 43.957 40.7459 43.957 40.7459 43.9571C40.7459 43.9571 40.7458 43.9571 40.7457 43.9571C40.7456 43.9572 40.7453 43.9573 40.745 43.9575C40.7441 43.958 40.7441 43.9579 40.7426 43.9586C40.7408 43.9595 40.7374 43.9612 40.7338 43.9632L40.7689 44.0256Z" fill="#082422"/>
<path d="M55.1497 0.000244141L36.3975 3.25305L36.3796 10.0322L55.0903 20.8372L73.8069 31.6363L73.8247 24.8572L55.1497 0.000244141Z" fill="#2BF2F1" stroke="#082422" stroke-width="0.143276"/>
<path d="M73.8073 31.6363L36.38 10.0322L7.69556 26.6828L45.1228 48.2929L73.8073 31.6363Z" fill="#2BF2F1" stroke="#082422" stroke-width="0.143276"/>
<path d="M9.30682 21.9373L37.9854 5.28076L37.9735 8.97957L9.29492 25.6301L9.30682 21.9373Z" fill="#0A9D9C" stroke="#082422" stroke-width="0.143276"/>
<path d="M55.0961 18.863L37.9735 8.97974L9.29492 25.6303L26.4176 35.5136L43.5343 45.3969L72.2188 28.7463L55.0961 18.863Z" fill="#0A9D9C" stroke="#082422" stroke-width="0.143276"/>
<path d="M27.0956 18.5896L44.1766 41.3355L44.1648 45.0343L27.048 35.151L9.92535 25.2677L9.93725 21.5689L27.0956 18.5896Z" fill="#0A9D9C" stroke="#082422" stroke-width="0.143276"/>
<path d="M43.5467 41.7039L72.2252 25.0474L72.2193 28.7462L43.5348 45.3967L43.5467 41.7039Z" fill="#082422" stroke="#082422" stroke-width="0.143276"/>
<path d="M7.71259 19.9041L36.3971 3.25354L55.1493 0.000732422L26.4708 16.6513L7.71259 19.9041Z" fill="#2BF2F1" stroke="#082422" stroke-width="0.143276"/>
<path d="M26.4711 16.6513L55.1496 0.000732422L73.8246 24.8577L45.1401 41.5142L26.4711 16.6513Z" fill="#2BF2F1" stroke="#082422" stroke-width="0.143276"/>
<path d="M26.4716 16.6509L45.1466 41.5137L45.1287 48.2929L26.4121 37.4879L7.69556 26.6828L7.7134 19.9037L26.4657 16.6509H26.4716ZM43.5348 45.3969L43.5467 41.6981L26.4657 18.9522L9.30731 21.9315L9.29542 25.6303L26.4181 35.5136L43.5408 45.3969H43.5348Z" fill="#2BF2F1" stroke="#082422" stroke-width="0.143276"/>
<path d="M45.14 41.5139L73.8245 24.8574L73.8067 31.6366L45.1222 48.2931L45.14 41.5139Z" fill="#0A9D9C" stroke="#082422" stroke-width="0.143276"/>
<mask id="mask0_664_11591" style="mask-type:luminance" maskUnits="userSpaceOnUse" x="22" y="21" width="9" height="12">
<path d="M28.4047 32.8125L29.1541 32.3784C29.9213 31.9324 30.3912 30.9869 30.3971 29.643C30.4031 26.9373 28.4999 23.6428 26.1447 22.2811C24.9612 21.5972 23.8847 21.5318 23.1115 21.9837L22.3621 22.4178C23.1353 21.9659 24.2118 22.0313 25.3953 22.7152C27.7505 24.0769 29.6537 27.3714 29.6477 30.0771C29.6477 31.421 29.1719 32.3666 28.4047 32.8125Z" fill="white" stroke="white" stroke-width="0.143276"/>
</mask>
<g mask="url(#mask0_664_11591)">
<path d="M28.4047 32.8125L29.1541 32.3784C29.9213 31.9324 30.3912 30.9869 30.3971 29.643C30.4031 26.9373 28.4999 23.6428 26.1447 22.2811C24.9612 21.5972 23.8847 21.5318 23.1115 21.9837L22.3621 22.4178C23.1353 21.9659 24.2118 22.0313 25.3953 22.7152C27.7505 24.0769 29.6537 27.3714 29.6477 30.0771C29.6477 31.421 29.1719 32.3666 28.4047 32.8125Z" fill="#B3D000" stroke="#082422" stroke-width="0.143276"/>
</g>
<path d="M29.6478 30.0777C29.6538 27.3719 27.7506 24.0775 25.3954 22.7157C23.6825 21.7286 22.2076 22.0319 21.5236 23.3104C21.2679 23.7921 21.1192 24.4105 21.1192 25.1538C21.1192 25.9864 21.2976 26.8724 21.6128 27.7406C22.3265 29.703 23.742 31.5703 25.3716 32.5098C27.7268 33.8716 29.6419 32.7774 29.6478 30.0717V30.0777Z" fill="#DCFF00" stroke="#082422" stroke-width="0.143276"/>
<path d="M25.9064 24.5177V25.0529C26.6737 25.6772 27.1673 26.5336 27.203 27.4493L25.8945 26.6941C25.8767 26.3135 25.6507 25.9686 25.3236 25.7724C25.3176 25.7724 25.3117 25.7664 25.3057 25.7605C25.0262 25.5999 24.8181 25.6475 24.8181 25.9984C24.8181 26.9915 27.2684 27.9548 27.2624 29.8637C27.2624 30.6903 26.7748 31.1184 25.8886 30.7854V31.3028L24.8775 30.72V30.1848C24.0984 29.5485 23.5453 28.6506 23.5156 27.6991L24.8002 28.4424C24.8359 28.9003 25.0738 29.2512 25.4128 29.4474C25.7637 29.6496 25.9897 29.5782 25.9956 29.2452C25.9956 28.1927 23.5156 27.3245 23.5394 25.3145C23.5394 24.3987 24.0984 24.149 24.8954 24.4582V23.9468L25.9064 24.5296V24.5177Z" fill="#002522"/>
</g>
<defs>
<clipPath id="clip0_664_11591">
<rect width="79" height="80" fill="white"/>
</clipPath>
</defs>
</svg>
