<svg width="101" height="80" viewBox="0 0 101 80" fill="none" xmlns="http://www.w3.org/2000/svg">
<g clip-path="url(#clip0_664_11560)">
<path d="M94.6396 16.9415C96.4532 17.2599 97.6648 18.9879 97.346 20.7986L88.7156 69.7737C88.3966 71.5841 86.6668 72.7943 84.8532 72.4758L6.49701 58.71C4.68367 58.3915 3.47193 56.6635 3.79065 54.853L12.421 5.87784C12.7399 4.06737 14.4698 2.85732 16.2834 3.17571L94.6396 16.9415Z" fill="#2BF2F1" stroke="#082422" stroke-width="0.28757" stroke-miterlimit="10" stroke-linecap="round" stroke-linejoin="round"/>
<path d="M7.7713 16.3242L86.8559 7.51671C88.6878 7.3127 90.3369 8.62967 90.5402 10.4574L96.0354 59.8605C96.2387 61.6882 94.9193 63.3358 93.0875 63.5398L14.0028 72.3473C12.171 72.5513 10.5209 71.2344 10.3176 69.4067L4.8224 20.0036C4.6191 18.1759 5.93945 16.5282 7.7713 16.3242Z" fill="#DCFF00" stroke="#082422" stroke-width="0.28757" stroke-miterlimit="10" stroke-linecap="round" stroke-linejoin="round"/>
<path d="M17.2591 55.025L50.3623 51.3421C51.0254 51.2683 51.6219 51.7448 51.6954 52.405L51.6978 52.4264C51.7712 53.0865 51.294 53.6816 50.631 53.7554L17.5278 57.4383C16.8649 57.5119 16.2684 57.0364 16.1948 56.3763L16.1924 56.355C16.1189 55.6948 16.5962 55.099 17.2591 55.025Z" fill="white" stroke="#082422" stroke-width="0.28757" stroke-miterlimit="10" stroke-linecap="round" stroke-linejoin="round"/>
<path d="M17.9339 61.0913L73.0475 54.9612C73.7105 54.8875 74.3068 55.3635 74.3805 56.0232L74.3829 56.0446C74.4564 56.7046 73.9794 57.3008 73.3163 57.3745L18.2027 63.5046C17.5397 63.5782 16.943 63.1015 16.8695 62.4416L16.8672 62.4203C16.794 61.7606 17.2711 61.1652 17.9339 61.0913Z" fill="white" stroke="#082422" stroke-width="0.28757" stroke-miterlimit="10" stroke-linecap="round" stroke-linejoin="round"/>
<path d="M26.6922 35.5581C27.6776 35.4471 28.5722 36.1698 28.6862 37.1778L29.3831 43.4592C29.4937 44.4662 28.78 45.3676 27.7942 45.4787L17.2206 46.6579C16.2352 46.7689 15.3407 46.0455 15.2269 45.0373L14.53 38.7558C14.4196 37.749 15.133 36.8484 16.1187 36.7373L26.6922 35.5581Z" fill="#FFCE9B" stroke="#082422" stroke-width="0.28757" stroke-miterlimit="10" stroke-linecap="round" stroke-linejoin="round"/>
<path d="M26.6482 35.1516L16.0744 36.3308C14.8636 36.4685 13.9911 37.5724 14.1268 38.8036L14.8233 45.0851C14.9598 46.3127 16.0525 47.203 17.266 47.0696L27.8397 45.8904C29.0505 45.7527 29.923 44.6488 29.7874 43.4176L29.0909 37.1361C28.9543 35.9084 27.8617 35.0182 26.6474 35.1551L26.6482 35.1516ZM22.9669 39.022C22.9669 39.022 22.9723 39.0306 22.9706 39.0375C22.9788 39.0652 22.9913 39.0902 23.0073 39.1161C23.0099 39.1204 23.0126 39.1247 23.0187 39.1298C23.0355 39.1521 23.0567 39.1718 23.0786 39.188C23.0786 39.188 23.0813 39.1923 23.0847 39.1932C24.1307 39.8296 24.4751 41.2056 23.8481 42.268C23.7442 42.4422 23.622 42.601 23.4751 42.7393C23.4743 42.7428 23.4735 42.7462 23.4683 42.7524C23.4289 42.7946 23.4052 42.8479 23.399 42.9053C23.3965 42.9157 23.3941 42.9262 23.3951 42.9374C23.3934 42.9444 23.3909 42.9549 23.3928 42.9626L23.7117 45.8151L21.2684 46.089L20.9503 43.2331C20.9503 43.2331 20.9458 43.221 20.9439 43.2132C20.9429 43.2019 20.9384 43.1898 20.9331 43.1812C20.9276 43.1578 20.9142 43.1363 20.9009 43.1148C20.8983 43.1105 20.8921 43.1053 20.8895 43.101C20.8727 43.0787 20.8515 43.059 20.8261 43.042C20.8261 43.042 20.8261 43.042 20.8192 43.0403C19.7732 42.4039 19.4288 41.0279 20.0515 39.9681C20.1553 39.7939 20.2776 39.6352 20.4253 39.4934C20.4253 39.4934 20.4261 39.4899 20.4269 39.4864C20.4467 39.4653 20.4629 39.4434 20.4765 39.4172C20.4781 39.4102 20.4824 39.4075 20.4841 39.4006C20.4899 39.3762 20.4956 39.3518 20.5006 39.3309C20.5031 39.3204 20.5055 39.31 20.5045 39.2987C20.5062 39.2917 20.5078 39.2848 20.5095 39.2778L20.1913 36.4219L22.6347 36.148L22.9528 39.0039C22.9528 39.0039 22.9591 39.0238 22.961 39.0316L22.9669 39.022ZM29.04 41.4574L24.5586 41.9573C24.7901 41.2283 24.7103 40.4297 24.335 39.76L28.7973 39.263L29.04 41.4574ZM14.8774 40.8124L19.3397 40.3154C19.1214 41.0511 19.2167 41.846 19.605 42.5077L15.1236 43.0076L14.8809 40.8132L14.8774 40.8124ZM16.1333 36.8597L19.6765 36.4661L19.9799 39.1972C19.8222 39.366 19.6863 39.551 19.5724 39.7522L14.8185 40.2835L14.6485 38.7463C14.5461 37.8099 15.2099 36.9658 16.1325 36.8632L16.1333 36.8597ZM15.3458 45.0243L15.179 43.5356L19.9668 43.0013C20.1105 43.1566 20.2696 43.2934 20.4449 43.4082L20.7483 46.1393L17.2052 46.5329C16.2825 46.6355 15.449 45.9572 15.3432 45.02L15.3458 45.0243ZM27.7816 45.358L24.2385 45.7516L23.935 43.0206C24.0782 42.8667 24.2065 42.6983 24.3119 42.5171L29.0997 41.9828L29.2665 43.4714C29.3689 44.4078 28.7051 45.2519 27.7825 45.3545L27.7816 45.358ZM28.7392 38.7306L23.9853 39.2619C23.8309 39.0895 23.6569 38.9381 23.4666 38.8086L23.1632 36.0776L26.7063 35.684C27.6289 35.5814 28.4625 36.2597 28.5684 37.1969L28.7384 38.7341L28.7392 38.7306Z" fill="#082422"/>
</g>
<defs>
<clipPath id="clip0_664_11560">
<rect width="101" height="80" fill="white"/>
</clipPath>
</defs>
</svg>
