<svg width="86" height="80" viewBox="0 0 86 80" fill="none" xmlns="http://www.w3.org/2000/svg">
<g clip-path="url(#clip0_664_15104)">
<path d="M54.3196 22.4124L41.1048 30.1313" stroke="#082422" stroke-width="0.0627396" stroke-linecap="round"/>
<path opacity="0.25" d="M69.08 52.2169V52.2045C69.0348 51.5212 68.6194 50.8889 67.9723 50.5166L65.0238 48.7661L50.6567 40.2252C49.7902 39.7175 48.7562 39.4377 47.7447 39.4377C46.7332 39.4377 45.7363 39.7007 44.8778 40.1983L39.1433 43.5166L1.81942 65.0828C1.14534 65.4623 0.734328 66.1602 0.719025 66.955C0.719025 67.733 1.11837 68.4367 1.78736 68.8374L19.3486 79.2679C20.148 79.7473 21.0662 80.0008 22.0055 80.0008C22.9449 80.0008 23.7982 79.7655 24.6144 79.3014L33.2405 74.3149L62.1898 57.5881L68.0211 54.2152C68.7448 53.8094 69.1398 53.0634 69.0785 52.2176L69.08 52.2169Z" fill="#082422"/>
<path d="M24.3374 78.6369L66.5833 54.2332C67.4629 53.7276 67.922 52.8527 67.9562 51.9647C67.9985 51.0089 68.2834 48.591 67.3441 48.0301L49.6976 39.4354C47.7511 38.28 45.3368 38.2669 43.378 39.3975L0.619841 62.275C-0.234243 62.7682 0.0266459 65.0972 0.0732853 65.798C0.148346 66.9352 0.442757 67.8589 1.43749 68.449L18.5352 78.599C20.3199 79.6568 22.5389 79.6743 24.3367 78.6332V78.6376L24.3374 78.6369Z" fill="#04A8A7" stroke="#082422" stroke-width="0.0627396" stroke-miterlimit="10"/>
<path d="M24.3371 76.2536L66.5829 51.8499C68.4062 50.7965 68.423 48.1703 66.6128 47.0958L49.7017 37.0557C47.7552 35.9004 45.3409 35.8872 43.382 37.0179L1.46776 61.2307C-0.389802 62.3016 -0.402191 64.9737 1.43788 66.07L18.5356 76.2201C20.3203 77.2779 22.5393 77.2953 24.3371 76.2543V76.2536Z" fill="#2BF2F1" stroke="#082422" stroke-width="0.0627396" stroke-miterlimit="10"/>
<path d="M46.5053 36.8967C47.484 36.8968 48.4846 37.1669 49.3227 37.6584L63.3031 45.97L66.1723 47.6741C66.755 48.0098 67.1407 48.5637 67.2221 49.1702L67.2348 49.2922V49.3049C67.2937 50.1162 66.9156 50.8302 66.2221 51.219H66.2211L60.5463 54.5012L32.3773 70.7776L23.9838 75.6292C23.1933 76.0782 22.3685 76.3059 21.4604 76.3059C20.5522 76.3059 19.6637 76.0602 18.891 75.5969L1.80215 65.4475C1.16048 65.0635 0.777907 64.39 0.77774 63.6438L0.785553 63.5022C0.839776 62.8455 1.17785 62.2711 1.71524 61.9202L1.8334 61.8489L38.1508 40.8616L43.7309 37.6331C44.5611 37.1515 45.5261 36.8967 46.5053 36.8967Z" fill="white" stroke="#082422" stroke-width="0.0627396"/>
<path d="M57.8152 44.5584C58.2554 44.8098 58.2554 45.2228 57.8152 45.4742C57.3663 45.7342 56.6565 45.7342 56.2164 45.4829L50.8725 42.4036C50.4236 42.1435 50.4141 41.7304 50.8725 41.4696C51.3039 41.2183 52.013 41.2183 52.4714 41.4784L57.8152 44.5577V44.5584Z" fill="#082422"/>
<path d="M57.5295 57.5692L52.8816 60.2114C52.5325 60.4095 52.2498 60.8532 52.2498 61.2021C52.2498 61.5511 52.5325 61.6727 52.8816 61.4746L57.5295 58.8324C57.8786 58.6342 58.1613 58.1906 58.1613 57.8416C58.1613 57.4927 57.8786 57.371 57.5295 57.5692Z" fill="#007473" stroke="#082422" stroke-width="0.0627396" stroke-miterlimit="10"/>
<path d="M12.7154 74.4801L12.668 74.4525C12.6337 74.4321 12.6126 74.3956 12.6126 74.3556V73.4231C12.6126 73.3357 12.7073 73.2818 12.7824 73.3262L12.8298 73.3539C12.864 73.3743 12.8852 73.4107 12.8852 73.4508V74.3832C12.8852 74.4707 12.7904 74.5246 12.7154 74.4801Z" fill="#082422"/>
<path d="M13.2286 74.7877L13.1812 74.7593C13.1477 74.7389 13.1273 74.7025 13.1273 74.6631V73.7328C13.1273 73.6454 13.2235 73.5915 13.2985 73.6367L13.3459 73.6651C13.3794 73.6855 13.3998 73.7219 13.3998 73.7613V74.6915C13.3998 74.779 13.3036 74.8329 13.2286 74.7877Z" fill="#082422"/>
<path d="M13.7476 75.0952L13.6966 75.0646C13.6631 75.0442 13.6419 75.0078 13.6419 74.9685V74.0382C13.6419 73.9515 13.7359 73.8976 13.811 73.9413L13.862 73.9712C13.8963 73.9916 13.9174 74.028 13.9174 74.068V74.9991C13.9174 75.0865 13.8219 75.1404 13.7469 75.0952H13.7476Z" fill="#082422"/>
<path d="M14.263 75.4048L14.212 75.3749C14.1777 75.3545 14.1566 75.3181 14.1566 75.278V74.3448C14.1566 74.2581 14.2506 74.2042 14.3257 74.2479L14.3767 74.2778C14.4109 74.2982 14.432 74.3346 14.432 74.3747V75.3079C14.432 75.3946 14.338 75.4485 14.263 75.4048Z" fill="#082422"/>
<path d="M14.7755 75.7093L14.7281 75.6809C14.6946 75.6605 14.6742 75.6241 14.6742 75.5848V74.6545C14.6742 74.5671 14.7704 74.5131 14.8454 74.5583L14.8928 74.5867C14.9263 74.6071 14.9467 74.6435 14.9467 74.6829V75.6132C14.9467 75.7006 14.8505 75.7545 14.7755 75.7093Z" fill="#082422"/>
<path d="M15.2916 76.0185L15.2442 75.9908C15.21 75.9704 15.1888 75.934 15.1888 75.8939V74.9614C15.1888 74.874 15.2836 74.8201 15.3586 74.8645L15.406 74.8922C15.4403 74.9126 15.4614 74.949 15.4614 74.9891V75.9216C15.4614 76.009 15.3667 76.0629 15.2916 76.0185Z" fill="#082422"/>
<path d="M15.8082 76.3275L15.7572 76.2969C15.7236 76.2765 15.7025 76.2401 15.7025 76.2007V75.269C15.7025 75.1816 15.798 75.1277 15.873 75.1728L15.9241 75.2034C15.9576 75.2238 15.9787 75.2602 15.9787 75.2996V76.2313C15.9787 76.3187 15.8832 76.3726 15.8082 76.3275Z" fill="#082422"/>
<path d="M16.3239 76.6344L16.2765 76.6068C16.2423 76.5864 16.2211 76.5499 16.2211 76.5099V75.5774C16.2211 75.49 16.3159 75.4361 16.3909 75.4805L16.4383 75.5082C16.4725 75.5286 16.4937 75.565 16.4937 75.6051V76.5375C16.4937 76.625 16.3989 76.6789 16.3239 76.6344Z" fill="#082422"/>
<path d="M16.8371 76.941L16.7897 76.9126C16.7562 76.8922 16.7358 76.8558 16.7358 76.8164V75.8862C16.7358 75.7987 16.832 75.7448 16.907 75.79L16.9544 75.8184C16.9879 75.8388 17.0083 75.8752 17.0083 75.9146V76.8449C17.0083 76.9323 16.9121 76.9862 16.8371 76.941Z" fill="#082422"/>
<path d="M8.06244 71.6706C7.79499 71.5132 7.57346 71.165 7.57346 70.8976C7.57346 70.6303 7.79426 70.5363 8.06244 70.6937L10.8761 72.3422C11.1436 72.4996 11.3651 72.8478 11.3651 73.1152C11.3651 73.3825 11.1443 73.4765 10.8761 73.3191" fill="#082422"/>
<path d="M2.37788 68.3465L2.32687 68.3159C2.29335 68.2955 2.27222 68.2591 2.27222 68.2198V67.288C2.27222 67.2006 2.36768 67.1467 2.44274 67.1919L2.49375 67.2225C2.52728 67.2429 2.54841 67.2793 2.54841 67.3186V68.2504C2.54841 68.3378 2.45294 68.3917 2.37788 68.3465Z" fill="#082422"/>
<path d="M2.89246 68.6532L2.84509 68.6256C2.81084 68.6052 2.7897 68.5687 2.7897 68.5287V67.5962C2.7897 67.5088 2.88444 67.4549 2.9595 67.4993L3.00687 67.527C3.04112 67.5474 3.06225 67.5838 3.06225 67.6239V68.5563C3.06225 68.6438 2.96752 68.6977 2.89246 68.6532Z" fill="#082422"/>
<path d="M3.40467 68.9608L3.3573 68.9324C3.32378 68.912 3.30338 68.8756 3.30338 68.8362V67.9059C3.30338 67.8185 3.39957 67.7646 3.47463 67.8098L3.522 67.8382C3.55552 67.8586 3.57592 67.895 3.57592 67.9344V68.8646C3.57592 68.9521 3.47973 69.006 3.40467 68.9608Z" fill="#082422"/>
<path d="M3.92543 69.2717L3.87442 69.2418C3.84016 69.2214 3.81903 69.185 3.81903 69.145V68.2118C3.81903 68.1251 3.91304 68.0712 3.9881 68.1149L4.03911 68.1447C4.07336 68.1651 4.09449 68.2016 4.09449 68.2416V69.1748C4.09449 69.2615 4.00049 69.3154 3.92543 69.2717Z" fill="#082422"/>
<path d="M4.43837 69.5785L4.38736 69.5479C4.35384 69.5275 4.3327 69.491 4.3327 69.4517V68.52C4.3327 68.4325 4.42817 68.3786 4.50323 68.4238L4.55424 68.4544C4.58776 68.4748 4.6089 68.5112 4.6089 68.5506V69.4823C4.6089 69.5697 4.51343 69.6236 4.43837 69.5785Z" fill="#082422"/>
<path d="M4.95306 69.8859L4.9057 69.8582C4.87144 69.8378 4.85031 69.8014 4.85031 69.7613V68.8289C4.85031 68.7414 4.94505 68.6875 5.02011 68.732L5.06748 68.7597C5.10173 68.7801 5.12286 68.8165 5.12286 68.8565V69.789C5.12286 69.8764 5.02812 69.9303 4.95306 69.8859Z" fill="#082422"/>
<path d="M5.46771 70.1918L5.42034 70.1641C5.38609 70.1437 5.36496 70.1072 5.36496 70.0672V69.1376C5.36496 69.0502 5.46115 68.9963 5.53621 69.0415L5.58358 69.0699C5.6171 69.0903 5.63751 69.1267 5.63751 69.166V70.0949C5.63751 70.1823 5.54277 70.2362 5.46771 70.1918Z" fill="#082422"/>
<path d="M5.98628 70.5008L5.93527 70.4702C5.90175 70.4498 5.88062 70.4134 5.88062 70.3741V69.4423C5.88062 69.3549 5.97608 69.301 6.05114 69.3462L6.10215 69.3768C6.13567 69.3972 6.15681 69.4336 6.15681 69.4729V70.4047C6.15681 70.4921 6.06134 70.546 5.98628 70.5008Z" fill="#082422"/>
<path d="M6.49997 70.8075L6.4526 70.7798C6.41835 70.7594 6.39722 70.723 6.39722 70.683V69.7505C6.39722 69.6631 6.49195 69.6092 6.56701 69.6536L6.61438 69.6813C6.64863 69.7017 6.66977 69.7381 6.66977 69.7782V70.7106C6.66977 70.7981 6.57503 70.852 6.49997 70.8075Z" fill="#082422"/>
<path fill-rule="evenodd" clip-rule="evenodd" d="M44.1542 61.2274C41.3954 59.6192 36.931 59.623 34.1834 61.2352C33.2298 61.7943 32.6089 62.4746 32.3192 63.1912C31.1879 65.6501 33.6133 68.1907 33.7492 68.3331L33.7499 68.3338L34.8924 67.4686L37.1981 68.8123V71.1265L49.1822 64.2038C49.0023 64.0689 48.8061 63.9391 48.5936 63.8153L44.1542 61.2274ZM67.7322 48.498L66.2469 49.6688C64.3228 51.165 62.332 52.6222 60.077 53.9256C57.876 55.1981 55.4223 56.323 52.5321 57.1942C50.6624 56.1065 48.7928 55.0187 46.9231 53.9308C45.8286 53.294 44.734 52.6572 43.6395 52.0204C40.8451 53.5449 37.7047 54.8687 34.5633 56.1912C31.0856 57.6554 27.6075 59.1199 24.6004 60.8582C22.3994 62.1308 20.4502 63.5491 18.9383 65.2225C17.5354 64.4064 16.1326 63.5902 14.7297 62.7741C12.06 61.221 9.39041 59.668 6.72075 58.1148L37.9797 40.0573C40.1938 41.3454 42.4079 42.6335 44.6219 43.9217C45.3692 43.464 46.0885 42.9902 46.7879 42.5047C44.6214 41.2443 42.455 39.9839 40.2885 38.7235L43.311 36.9775C45.2698 35.8469 47.6841 35.86 49.6306 37.0154L66.5418 47.0555C67.1337 47.4068 67.5303 47.9241 67.7322 48.498Z" fill="black" fill-opacity="0.2"/>
<path d="M55.2058 43.4736L41.991 51.1926" stroke="#082422" stroke-width="0.0627396" stroke-linecap="round"/>
<path d="M52.5342 40.1199L52.5357 40.6871C51.0237 42.3606 49.0747 43.7797 46.8736 45.0523C43.8665 46.7907 40.3888 48.2543 36.9111 49.7185C33.4333 51.1826 29.9551 52.6468 26.948 54.3851C24.7469 55.6577 22.7979 57.0763 21.286 58.7498L21.2845 58.1826C22.7964 56.5091 24.7449 55.0905 26.9466 53.8179C29.9536 52.08 33.4318 50.6154 36.9096 49.1512C40.3878 47.6871 43.8651 46.2234 46.8721 44.4851C49.0733 43.213 51.0223 41.7934 52.5342 40.1199Z" fill="#38A543" stroke="#082422" stroke-width="0.0627396" stroke-miterlimit="10"/>
<path d="M21.2845 58.1828L21.286 58.7501C15.8484 55.5867 10.4113 52.4233 4.97368 49.2594L4.9722 48.6921C10.4098 51.8555 15.8469 55.0189 21.2845 58.1828Z" fill="#38A543" stroke="#082422" stroke-width="0.0627396" stroke-miterlimit="10"/>
<path d="M10.6343 44.3274C13.6413 42.589 17.1191 41.1254 20.5968 39.6612C24.0745 38.1971 27.5528 36.733 30.5598 34.9951C32.761 33.7225 34.71 32.3034 36.2219 30.6299C41.6595 33.7933 47.0966 36.9567 52.5342 40.1206C51.0223 41.7941 49.0733 43.2132 46.8722 44.4858C43.8651 46.2241 40.3874 47.6878 36.9096 49.1519C33.4319 50.6161 29.9537 52.0802 26.9466 53.8186C24.7455 55.0912 22.7965 56.5098 21.2845 58.1833C15.8469 55.0199 10.4098 51.8565 4.9722 48.6926C6.48413 47.0196 8.43313 45.6 10.6343 44.3279V44.3274Z" fill="#60D06F" stroke="#082422" stroke-width="0.0627396" stroke-miterlimit="10"/>
<path d="M13.7931 45.1228C16.4116 43.6091 19.3815 42.2999 22.3515 40.9907C25.321 39.6815 28.2905 38.3728 30.9089 36.8591C31.8686 36.3042 32.7818 35.7217 33.6302 35.1019C33.7671 35.0213 33.9407 35.0247 34.0559 35.0916C35.1525 35.7296 36.7668 35.7687 37.8046 35.1688C37.9667 35.0752 38.1146 34.9658 38.2446 34.8406C38.2663 34.8193 38.2916 34.801 38.3192 34.7852C38.4562 34.706 38.652 34.6941 38.7988 34.7797C40.95 36.031 43.1008 37.2828 45.252 38.5341C45.4285 38.6366 45.4468 38.8286 45.3153 38.9548C44.3546 39.8805 44.456 41.1426 45.7311 41.8841C45.871 41.9653 45.8992 42.1083 45.7726 42.2009C44.9316 42.8137 44.0283 43.3893 43.078 43.9388C40.4596 45.4524 37.4901 46.7611 34.5206 48.0703C31.5507 49.3796 28.5812 50.6888 25.9627 52.2019C25.0021 52.7573 24.0884 53.3404 23.2395 53.9606C23.0837 54.0526 22.8855 54.0472 22.755 53.9715C21.6598 53.3344 20.049 53.2948 19.0132 53.8938C18.85 53.9883 18.7007 54.0982 18.5707 54.2244C18.5509 54.2432 18.5287 54.26 18.504 54.2744C18.3803 54.3457 18.2033 54.3556 18.0703 54.2788C15.8999 53.0162 13.7299 51.7535 11.5594 50.4908C11.4002 50.3982 11.3819 50.225 11.5 50.1106C12.4582 49.1836 12.3554 47.9209 11.0803 47.1789C10.9572 47.1071 10.9339 46.9819 11.0447 46.9007C11.901 46.2731 12.8231 45.6841 13.7936 45.1228H13.7931Z" fill="#80E58A" stroke="#082422" stroke-width="0.0627396" stroke-miterlimit="10"/>
<path d="M22.378 43.5041C23.0687 43.1047 23.839 42.7166 24.6791 42.3449C27.5343 41.0807 30.4286 40.1165 32.6372 39.4854C33.7531 39.1766 34.7237 38.9667 35.5459 38.9098C36.3676 38.8528 37.0469 38.9528 37.5646 39.2548C38.0808 39.5547 38.3883 40.0284 38.4654 40.6085C38.542 41.1881 38.3823 41.8697 37.9473 42.5751C37.3495 43.5794 36.1515 44.6 34.4947 45.5573C33.804 45.9567 33.0337 46.3448 32.1937 46.7165C29.3385 47.9807 26.4446 48.9449 24.2356 49.576C23.1197 49.8849 22.1491 50.0948 21.3269 50.1517C20.5052 50.2086 19.8263 50.1086 19.3077 49.8072C18.792 49.5072 18.484 49.033 18.4069 48.4529C18.3302 47.8733 18.4904 47.1917 18.925 46.4869C19.5228 45.4821 20.7207 44.4619 22.3775 43.5041H22.378Z" fill="#60D06F" stroke="#082422" stroke-width="0.0627396" stroke-miterlimit="10"/>
<path d="M85.8271 32.1299L85.8281 32.5551C82.9377 33.4262 80.4834 34.5518 78.2823 35.8244C75.2747 37.5628 72.7393 39.5743 70.203 41.5864C67.6671 43.5985 65.1307 45.6106 62.1242 47.3485C59.923 48.621 57.4692 49.7461 54.5789 50.6173L54.5779 50.1921C57.4687 49.3209 59.922 48.1954 62.1232 46.9233C65.1302 45.1854 67.6661 43.1733 70.202 41.1612C72.7384 39.1492 75.2737 37.1371 78.2813 35.3992C80.4824 34.1271 82.9367 33.001 85.8271 32.1299Z" fill="#38A543" stroke="#082422" stroke-width="0.0627396" stroke-miterlimit="10"/>
<path d="M54.5784 50.1921L54.5794 50.6173C49.1418 47.4539 43.7042 44.29 38.2666 41.1266L38.2656 40.7014C43.7032 43.8648 49.1408 47.0287 54.5784 50.1921Z" fill="#38A543" stroke="#082422" stroke-width="0.0627396" stroke-miterlimit="10"/>
<path d="M61.9695 25.9087C64.1706 24.6361 66.6239 23.5111 69.5148 22.6399C74.9524 25.8033 80.39 28.9672 85.8276 32.1306C82.9372 33.0017 80.4829 34.1273 78.2818 35.3999C75.2742 37.1383 72.7389 39.1499 70.2025 41.1619C67.6666 43.174 65.1303 45.1861 62.1237 46.924C59.9226 48.1966 57.4688 49.3216 54.5784 50.1928C49.1408 47.0294 43.7032 43.8655 38.2656 40.7021C41.1559 39.8309 43.6102 38.7054 45.8114 37.4328C48.8184 35.6944 51.3543 33.6828 53.8907 31.6708C56.4265 29.6587 58.9634 27.6466 61.9699 25.9082L61.9695 25.9087Z" fill="#60D06F" stroke="#082422" stroke-width="0.0627396" stroke-miterlimit="10"/>
<path d="M62.7984 27.9807C63.7581 27.4258 64.7652 26.8987 65.8366 26.4092C65.977 26.3448 66.1931 26.3587 66.3162 26.4305C67.5913 27.1724 69.7677 27.2353 71.3667 26.6814C71.5847 26.6057 71.916 26.6171 72.092 26.7195C74.2432 27.9708 76.3939 29.2226 78.5452 30.4739C78.692 30.5596 78.6707 30.6729 78.5338 30.7521C78.5061 30.7679 78.474 30.7828 78.4374 30.7952C78.2213 30.8699 78.0329 30.9555 77.8708 31.0491C76.833 31.649 76.8953 32.5855 77.9914 33.223C78.1219 33.2988 78.1308 33.4141 78.0018 33.4888C76.9126 33.9897 75.9168 34.5119 74.967 35.0609C72.3486 36.5745 70.0812 38.2926 67.8143 40.0102C65.5469 41.7277 63.28 43.4458 60.6616 44.9589C59.7004 45.5143 58.6923 46.0424 57.6194 46.5325C57.4597 46.6057 57.213 46.5884 57.0731 46.5072C55.798 45.7653 53.62 45.7014 52.0186 46.2543C51.8214 46.3226 51.5227 46.3112 51.363 46.2186C49.193 44.956 47.0225 43.6933 44.852 42.4306C44.719 42.3534 44.7368 42.2509 44.8604 42.1791C44.8852 42.1648 44.9143 42.1519 44.947 42.1405C45.165 42.0653 45.3554 41.9792 45.5185 41.8851C46.5543 41.2862 46.4925 40.3522 45.3974 39.7151C45.2832 39.6488 45.2763 39.5478 45.3895 39.483C46.5029 38.9742 47.5214 38.4411 48.4929 37.8798C51.1109 36.3666 53.3788 34.6486 55.6457 32.9305C57.9131 31.2124 60.18 29.4949 62.7989 27.9812L62.7984 27.9807Z" fill="#80E58A" stroke="#082422" stroke-width="0.0627396" stroke-miterlimit="10"/>
<path d="M59.9789 32.9533C61.6357 31.9955 63.3988 31.3045 65.1332 30.961C66.3504 30.7111 67.5262 30.6205 68.5254 30.667C69.5256 30.714 70.3414 30.8937 70.8576 31.1942C71.3757 31.4956 71.5463 31.8896 71.4454 32.3658C71.3451 32.8424 70.9797 33.4047 70.4432 34.0507C69.3476 35.3297 67.676 37.0047 65.4867 38.6564C64.843 39.142 64.1706 39.5875 63.4803 39.9869C61.8231 40.9447 60.06 41.6362 58.3255 41.9792C57.1083 42.2292 55.9321 42.3198 54.9328 42.2732C53.9331 42.2262 53.1169 42.0465 52.6012 41.7466C52.0855 41.4466 51.9124 41.0511 52.0128 40.5745C52.1132 40.0978 52.4786 39.5355 53.015 38.8896C54.1101 37.611 55.7823 35.9355 57.9715 34.2843C58.6158 33.7982 59.2877 33.3528 59.9784 32.9538L59.9789 32.9533Z" fill="#60D06F" stroke="#082422" stroke-width="0.0627396" stroke-miterlimit="10"/>
<path fill-rule="evenodd" clip-rule="evenodd" d="M77.155 27.0844C74.6768 28.3489 71.9783 29.485 69.2795 30.6212L69.2686 30.6258L69.264 30.6277C65.7878 32.0912 62.3113 33.5548 59.3056 35.2924C57.1044 36.565 55.1554 37.9836 53.6435 39.6571C51.6815 38.5157 49.7195 37.3743 47.7576 36.2328C49.9495 34.7978 51.9203 33.2344 53.8915 31.6707C56.4273 29.6586 58.9642 27.6465 61.9707 25.9082L61.9703 25.9087C64.1714 24.6361 66.6247 23.511 69.5156 22.6398C72.062 24.1213 74.6085 25.6028 77.155 27.0844Z" fill="black" fill-opacity="0.2"/>
<path d="M34.9304 60.853L34.9208 64.3261L33.7755 65.1978L33.7851 61.7247L34.9304 60.853Z" fill="#BBCE00" stroke="#082422" stroke-width="0.0627396" stroke-linecap="round" stroke-linejoin="round"/>
<path d="M32.0386 61.3986L32.0482 57.9255C32.0426 59.8977 33.679 61.6151 33.7841 61.7249L33.7745 65.198C33.6702 65.0881 32.0337 63.3715 32.0386 61.3986Z" fill="#85A309"/>
<mask id="mask0_664_15104" style="mask-type:luminance" maskUnits="userSpaceOnUse" x="32" y="57" width="2" height="9">
<path d="M32.0388 61.3986L32.0485 57.9255C32.0428 59.8977 33.6793 61.6151 33.7844 61.7249L33.7748 65.198C33.6704 65.0881 32.034 63.3715 32.0388 61.3986Z" fill="white"/>
</mask>
<g mask="url(#mask0_664_15104)">
<path d="M33.7844 61.7249L33.7748 65.198C33.6704 65.0881 32.034 63.3715 32.0388 61.3986L32.0485 57.9255C32.0428 59.8977 33.6793 61.6151 33.7844 61.7249Z" fill="#85A309" stroke="#082422" stroke-width="0.0627396" stroke-linecap="round" stroke-linejoin="round"/>
</g>
<path d="M32.0386 61.3986L32.0482 57.9255C32.0426 59.8977 33.679 61.6151 33.7841 61.7249L33.7745 65.198C33.6702 65.0881 32.0337 63.3715 32.0386 61.3986Z" stroke="#082422" stroke-width="0.0627396" stroke-linecap="round" stroke-linejoin="round"/>
<path d="M50.7449 60.2489C50.7433 60.2847 50.7409 60.3205 50.7369 60.3571C50.7337 60.3889 50.7297 60.4206 50.7249 60.4515C50.7201 60.4874 50.7144 60.5232 50.708 60.559C50.7024 60.5907 50.6952 60.6225 50.6888 60.6542C50.6807 60.6892 50.6727 60.7242 50.6639 60.7592C50.6551 60.791 50.6462 60.8227 50.6366 60.8544C50.6262 60.8894 50.6149 60.9236 50.6029 60.9586C50.5917 60.9896 50.5804 61.0205 50.5684 61.0514C50.5539 61.088 50.5395 61.1239 50.5234 61.1605C50.5098 61.1906 50.4962 61.2215 50.4817 61.2516C50.464 61.2875 50.4456 61.3233 50.4271 61.3591C50.4063 61.3973 50.3862 61.4364 50.3637 61.4747C50.3589 61.4836 50.3541 61.4917 50.3485 61.5007C50.3156 61.5552 50.2803 61.6098 50.2433 61.6643C50.2361 61.6749 50.2289 61.6846 50.2225 61.6952C50.1848 61.7489 50.1454 61.8027 50.1037 61.8556C50.0957 61.8662 50.0868 61.8759 50.0788 61.8865C50.0419 61.9321 50.0034 61.9785 49.9641 62.0232C49.9528 62.0354 49.9424 62.0477 49.9311 62.0607C49.8838 62.1128 49.8348 62.1649 49.7835 62.217C49.7739 62.2267 49.7634 62.2365 49.7538 62.2454C49.7153 62.2837 49.6743 62.3211 49.6334 62.3586C49.5997 62.3887 49.566 62.4196 49.5307 62.4489C49.4986 62.4766 49.4665 62.5043 49.4328 62.5311C49.3966 62.5612 49.3589 62.5905 49.3212 62.6198C49.2867 62.6467 49.2514 62.6736 49.2161 62.6996C49.1767 62.7281 49.1366 62.7566 49.0957 62.7851C49.0588 62.8111 49.021 62.8372 48.9825 62.8624C48.9408 62.8901 48.8967 62.9177 48.8533 62.9454C48.7987 62.9796 48.7458 63.0138 48.6888 63.0472C48.5829 63.1098 48.4729 63.1692 48.3621 63.227C48.33 63.2433 48.2979 63.2596 48.2658 63.2759C48.1792 63.3198 48.0909 63.3613 48.001 63.402C47.9713 63.4151 47.9424 63.4289 47.9127 63.4419C47.7963 63.4932 47.6792 63.542 47.5588 63.5884C47.5363 63.5974 47.5138 63.6047 47.4914 63.6128C47.391 63.6511 47.2891 63.6869 47.1864 63.7211C47.1439 63.7349 47.1021 63.7496 47.0596 63.7626C47.0018 63.7813 46.9448 63.7984 46.8862 63.8163C46.8381 63.831 46.7891 63.8448 46.7402 63.8586C46.6816 63.8749 46.6222 63.8912 46.5628 63.9067C46.5139 63.9197 46.4641 63.9327 46.4151 63.9449C46.3549 63.9596 46.294 63.9734 46.2338 63.9872C46.184 63.9986 46.1342 64.01 46.0845 64.0206C46.0227 64.0336 45.9601 64.0458 45.8983 64.0581C45.8509 64.067 45.8036 64.0768 45.7562 64.0849C45.6238 64.1085 45.4898 64.1305 45.3558 64.15C45.3333 64.1533 45.31 64.1557 45.2875 64.159C45.1736 64.1744 45.0596 64.1883 44.9448 64.2005C44.8999 64.2054 44.855 64.2094 44.81 64.2143C44.7346 64.2217 44.6583 64.2282 44.5821 64.2339C44.5347 64.2371 44.4874 64.2412 44.44 64.2436C44.3598 64.2485 44.2787 64.2526 44.1985 64.2558C44.1551 64.2575 44.1118 64.2599 44.0693 64.2615C43.9986 64.264 43.928 64.2648 43.8574 64.2656C43.8108 64.2656 43.7651 64.2672 43.7185 64.268C43.6407 64.268 43.5628 64.2672 43.485 64.2656C43.4457 64.2656 43.4063 64.2656 43.367 64.264C43.2948 64.2624 43.2226 64.2583 43.1511 64.255C43.1086 64.2534 43.0661 64.2518 43.0235 64.2501C42.936 64.2453 42.8486 64.2387 42.7611 64.2322C42.7346 64.2298 42.7073 64.229 42.6808 64.2265C42.5669 64.2168 42.4537 64.2062 42.3405 64.1932C42.3116 64.1899 42.2836 64.1858 42.2547 64.1826C42.1704 64.1728 42.0869 64.1622 42.0035 64.15C41.9714 64.1451 41.9401 64.1403 41.9088 64.1354C41.8261 64.1232 41.7442 64.1101 41.6624 64.0963C41.619 64.089 41.5765 64.08 41.534 64.0719C41.4641 64.0589 41.3943 64.0458 41.3253 64.032C41.2852 64.0239 41.2459 64.0141 41.2065 64.006C41.1287 63.9889 41.0516 63.9718 40.9746 63.9531C40.9304 63.9425 40.8863 63.9311 40.8422 63.9197C40.7707 63.901 40.7001 63.8822 40.6295 63.8627C40.5886 63.8513 40.5484 63.8391 40.5083 63.8277C40.3951 63.7943 40.2828 63.7593 40.172 63.7219C40.1536 63.7154 40.1351 63.7105 40.1175 63.704C39.9915 63.6609 39.8671 63.6145 39.7451 63.5656C39.6953 63.5461 39.6463 63.5257 39.5974 63.5054C39.5581 63.4891 39.5187 63.4728 39.4802 63.4558C39.4248 63.4313 39.3703 63.4061 39.3157 63.3817C39.2804 63.3654 39.2443 63.3491 39.209 63.332C39.1496 63.3035 39.091 63.2734 39.0332 63.2433C39.0043 63.2287 38.9746 63.214 38.9465 63.1994C38.8606 63.1538 38.7756 63.1066 38.6921 63.0577L34.9321 60.8561L34.9225 64.3291L38.6825 66.5308C38.7659 66.5796 38.8502 66.6268 38.9369 66.6724C38.9658 66.6879 38.9947 66.7017 39.0236 66.7163C39.0822 66.7465 39.1399 66.7766 39.1993 66.8051C39.2346 66.8222 39.2708 66.8384 39.3061 66.8547C39.3606 66.8799 39.4152 66.9052 39.4706 66.9288C39.5091 66.9459 39.5484 66.9613 39.5878 66.9784C39.6247 66.9939 39.6616 67.0102 39.6985 67.0248C39.7106 67.0297 39.7234 67.0338 39.7354 67.0387C39.8582 67.0867 39.9818 67.1331 40.1078 67.177C40.1263 67.1835 40.1447 67.1884 40.1624 67.1949C40.2732 67.2324 40.3855 67.2674 40.4987 67.3007C40.5171 67.3064 40.5348 67.313 40.5532 67.3178C40.5757 67.3243 40.5982 67.3292 40.6199 67.3357C40.6905 67.3553 40.7611 67.3748 40.8325 67.3927C40.8767 67.4041 40.9208 67.4155 40.965 67.4261C41.042 67.4448 41.1198 67.4619 41.1977 67.479C41.2282 67.4855 41.2579 67.4936 41.2884 67.5002C41.2972 67.5018 41.3068 67.5034 41.3157 67.5059C41.3855 67.5205 41.4553 67.5335 41.5251 67.5465C41.5677 67.5547 41.6094 67.5628 41.6527 67.5702C41.7346 67.5848 41.8173 67.597 41.8999 67.61C41.9288 67.6141 41.9577 67.6198 41.9874 67.6239C41.9898 67.6239 41.9922 67.6239 41.9946 67.6247C42.0781 67.6369 42.1624 67.6467 42.2458 67.6572C42.2747 67.6605 42.3028 67.6646 42.3317 67.6678C42.4449 67.6808 42.558 67.6914 42.672 67.7012C42.672 67.7012 42.6736 67.7012 42.6744 67.7012C42.7001 67.7036 42.7266 67.7044 42.7523 67.7069C42.8397 67.7134 42.9272 67.7199 43.0147 67.7248C43.0572 67.7272 43.0998 67.7281 43.1423 67.7297C43.2145 67.7329 43.2868 67.7362 43.3582 67.7386C43.3622 67.7386 43.3662 67.7386 43.3702 67.7386C43.4055 67.7394 43.4409 67.7386 43.4762 67.7394C43.554 67.7411 43.6319 67.7419 43.7097 67.7419C43.7563 67.7419 43.802 67.7403 43.8486 67.7394C43.9192 67.7386 43.9898 67.7378 44.0604 67.7354C44.0717 67.7354 44.0829 67.7354 44.0941 67.7354C44.1262 67.7346 44.1583 67.7321 44.1904 67.7305C44.2715 67.7272 44.3518 67.7232 44.432 67.7183C44.4794 67.715 44.5267 67.7118 44.5741 67.7085C44.6503 67.7028 44.7266 67.6963 44.802 67.689C44.8277 67.6865 44.8526 67.6849 44.8782 67.6825C44.8975 67.6808 44.9168 67.6776 44.936 67.6751C45.0508 67.6629 45.1648 67.6491 45.2787 67.6336C45.3012 67.6304 45.3245 67.6279 45.3469 67.6247C45.481 67.6052 45.615 67.584 45.7474 67.5596C45.7586 67.5571 45.7707 67.5563 45.7819 67.5539C45.818 67.5474 45.8533 67.5392 45.8895 67.5327C45.9521 67.5205 46.0139 67.5083 46.0757 67.4953C46.1254 67.4847 46.1752 67.4733 46.2249 67.4619C46.2859 67.4481 46.3461 67.4342 46.4063 67.4196C46.4561 67.4074 46.505 67.3943 46.554 67.3813C46.6134 67.3659 46.6728 67.3496 46.7313 67.3333C46.7803 67.3195 46.8285 67.3056 46.8774 67.291C46.9352 67.2739 46.993 67.256 47.0508 67.2373C47.0748 67.2299 47.0997 67.2226 47.1238 67.2145C47.1423 67.2088 47.1599 67.2014 47.1776 67.1949C47.2803 67.1599 47.3822 67.1241 47.4825 67.0859C47.505 67.0777 47.5275 67.0696 47.55 67.0614C47.6703 67.0151 47.7875 66.9662 47.9039 66.9149C47.9336 66.9019 47.9625 66.8881 47.9922 66.8751C48.0821 66.8344 48.1703 66.792 48.257 66.7489C48.2891 66.7326 48.3212 66.7172 48.3533 66.7001C48.4641 66.6423 48.574 66.5829 48.68 66.5202C48.7089 66.5031 48.7385 66.4852 48.7666 66.4681C48.7931 66.4518 48.818 66.4347 48.8437 66.4184C48.887 66.3908 48.9304 66.3631 48.9729 66.3354C49.0114 66.3102 49.0491 66.2841 49.0861 66.2581C49.127 66.2296 49.1671 66.2011 49.2064 66.1726C49.2426 66.1458 49.2771 66.1197 49.3116 66.0929C49.3493 66.0636 49.387 66.0343 49.4231 66.0042C49.456 65.9765 49.4889 65.9496 49.521 65.9219C49.5556 65.8918 49.5901 65.8617 49.6238 65.8316C49.6374 65.8186 49.6527 65.8064 49.6663 65.7942C49.6928 65.7689 49.7185 65.7437 49.7442 65.7185C49.7538 65.7087 49.7642 65.6997 49.7738 65.69C49.8252 65.6387 49.8742 65.5866 49.9215 65.5337C49.9328 65.5215 49.9432 65.5093 49.9544 65.4963C49.9945 65.4507 50.0331 65.4051 50.0692 65.3595C50.0772 65.3489 50.086 65.3392 50.0941 65.3286C50.0981 65.3237 50.1021 65.3188 50.1061 65.3139C50.1438 65.2659 50.1791 65.2171 50.2128 65.1683C50.2201 65.1577 50.2273 65.1479 50.2337 65.1373C50.2706 65.0828 50.3059 65.0291 50.3389 64.9737C50.3437 64.9648 50.3493 64.9566 50.3541 64.9477C50.3669 64.9265 50.379 64.9054 50.391 64.8842C50.4006 64.8671 50.4079 64.85 50.4175 64.8321C50.4368 64.7963 50.4552 64.7605 50.4721 64.7247C50.4865 64.6945 50.5002 64.6644 50.5138 64.6335C50.5299 64.5977 50.5451 64.5611 50.5588 64.5244C50.5652 64.5082 50.5732 64.4919 50.5788 64.4756C50.5844 64.461 50.5876 64.4463 50.5933 64.4325C50.6053 64.3975 50.6165 64.3633 50.627 64.3283C50.6366 64.2965 50.6462 64.2648 50.6543 64.2331C50.6639 64.1981 50.6719 64.1631 50.6791 64.1281C50.6831 64.1093 50.6888 64.0898 50.6928 64.0711C50.6952 64.0581 50.696 64.0458 50.6984 64.0328C50.7048 63.997 50.7104 63.9612 50.7153 63.9254C50.7193 63.8936 50.7241 63.8627 50.7273 63.831C50.7305 63.7952 50.7329 63.7593 50.7345 63.7227C50.7353 63.7016 50.7385 63.6804 50.7393 63.6592C50.7393 63.6381 50.7401 63.6169 50.7401 63.5966L50.7498 60.1235C50.7498 60.1659 50.7466 60.2082 50.7441 60.2505L50.7449 60.2489Z" fill="#85A309" stroke="#082422" stroke-width="0.0627396" stroke-linecap="round" stroke-linejoin="round"/>
<path d="M48.6705 57.1735C51.4361 58.7924 51.4442 61.4222 48.6882 63.046C45.9322 64.6706 41.4563 64.6738 38.6899 63.0541L34.9299 60.8525L33.7847 61.7242C33.6562 61.5891 31.2133 59.026 32.3497 56.5452C32.6402 55.8232 33.263 55.1379 34.2196 54.5746C36.9748 52.9508 41.4515 52.9468 44.2179 54.5665L48.6697 57.1735H48.6705Z" fill="#DCFF00" stroke="#082422" stroke-width="0.0627396" stroke-linecap="round" stroke-linejoin="round"/>
<path d="M39.8869 57.6716C40.1678 57.836 40.1686 58.103 39.8893 58.2674C39.6101 58.4318 39.1558 58.4327 38.8741 58.2674C38.5932 58.103 38.5932 57.836 38.8725 57.6716C39.1526 57.5064 39.606 57.5064 39.8869 57.6708V57.6716Z" fill="#082422"/>
<path d="M41.8192 58.8019C42.1001 58.9663 42.1009 59.2324 41.8208 59.3977C41.5415 59.5621 41.0873 59.5629 40.8064 59.3985C40.5255 59.2341 40.5255 58.9671 40.8048 58.8027C41.084 58.6383 41.5383 58.6374 41.8192 58.8019Z" fill="#4C6B11"/>
<path d="M43.7494 59.933C44.0303 60.0974 44.0311 60.3643 43.751 60.5288C43.4709 60.6932 43.0175 60.694 42.7366 60.5296C42.4557 60.3652 42.4557 60.0982 42.735 59.9338C43.0143 59.7694 43.4685 59.7685 43.7494 59.933Z" fill="#85A309"/>
<path d="M82.0504 9.49121L82.0519 10.0585C80.54 11.732 78.591 13.1511 76.3898 14.4237C73.3828 16.162 69.905 17.6257 66.4273 19.0898C62.9496 20.554 59.4713 22.0181 56.4643 23.7565C54.2631 25.029 52.3141 26.4476 50.8022 28.1212L50.8007 27.5539C52.3127 25.8804 54.2612 24.4618 56.4628 23.1892C59.4698 21.4513 62.9481 19.9867 66.4258 18.5226C69.904 17.0584 73.3813 15.5948 76.3883 13.8564C78.5895 12.5843 80.5385 11.1647 82.0504 9.49121Z" fill="#38A543" stroke="#082422" stroke-width="0.0627396" stroke-miterlimit="10"/>
<path d="M50.8008 27.5537L50.8023 28.1209C45.3646 24.9575 39.9275 21.7941 34.4899 18.6302L34.4884 18.063C39.926 21.2264 45.3632 24.3898 50.8008 27.5537Z" fill="#38A543" stroke="#082422" stroke-width="0.0627396" stroke-miterlimit="10"/>
<path d="M40.1505 13.6985C43.1576 11.9601 46.6353 10.4965 50.1131 9.03233C53.5908 7.56819 57.069 6.10404 60.0761 4.36618C62.2772 3.09359 64.2262 1.67449 65.7382 0.000976562C71.1758 3.16438 76.6129 6.32778 82.0505 9.49167C80.5386 11.1652 78.5896 12.5843 76.3884 13.8569C73.3814 15.5952 69.9036 17.0589 66.4259 18.523C62.9482 19.9872 59.4699 21.4513 56.4629 23.1897C54.2617 24.4623 52.3127 25.8809 50.8008 27.5544C45.3632 24.391 39.9261 21.2276 34.4885 18.0637C36.0004 16.3907 37.9494 14.9711 40.1505 13.699V13.6985Z" fill="#60D06F" stroke="#082422" stroke-width="0.0627396" stroke-miterlimit="10"/>
<path d="M43.3107 14.4939C45.9292 12.9802 48.8991 11.671 51.8691 10.3618C54.8386 9.05257 57.808 7.74385 60.4265 6.23021C61.3861 5.67534 62.2993 5.09275 63.1478 4.47304C63.2847 4.39236 63.4583 4.39582 63.5735 4.46265C64.6701 5.10067 66.2843 5.13977 67.3221 4.53986C67.4843 4.44631 67.6321 4.33692 67.7622 4.21169C67.7839 4.19041 67.8091 4.17209 67.8368 4.15626C67.9738 4.07706 68.1696 4.06518 68.3164 4.15081C70.4676 5.40211 72.6183 6.65391 74.7696 7.90521C74.9461 8.00767 74.9644 8.19972 74.8328 8.32594C73.8722 9.25155 73.9735 10.5137 75.2486 11.2552C75.3886 11.3364 75.4167 11.4794 75.2902 11.572C74.4492 12.1848 73.5459 12.7604 72.5956 13.3099C69.9772 14.8235 67.0077 16.1322 64.0382 17.4414C61.0682 18.7507 58.0988 20.0599 55.4803 21.573C54.5197 22.1284 53.606 22.7115 52.7571 23.3317C52.6013 23.4237 52.4031 23.4183 52.2725 23.3426C51.1774 22.7055 49.5666 22.6659 48.5308 23.2648C48.3676 23.3594 48.2183 23.4693 48.0883 23.5955C48.0685 23.6143 48.0463 23.6311 48.0215 23.6455C47.8979 23.7168 47.7209 23.7267 47.5879 23.6499C45.4174 22.3873 43.2474 21.1246 41.0769 19.8619C40.9177 19.7693 40.8994 19.5961 41.0176 19.4817C41.9758 18.5546 41.8729 17.292 40.5978 16.55C40.4747 16.4782 40.4515 16.353 40.5622 16.2718C41.4186 15.6442 42.3407 15.0552 43.3112 14.4939H43.3107Z" fill="#80E58A" stroke="#082422" stroke-width="0.0627396" stroke-miterlimit="10"/>
<path d="M51.8946 12.8747C52.5853 12.4753 53.3556 12.0872 54.1957 11.7155C57.0509 10.4513 59.9453 9.48712 62.1538 8.85602C63.2697 8.54716 64.2403 8.33729 65.0625 8.28037C65.8842 8.22344 66.5635 8.32343 67.0812 8.62536C67.5974 8.92532 67.9049 9.39901 67.982 9.97913C68.0587 10.5587 67.899 11.2403 67.4639 11.9457C66.8661 12.95 65.6681 13.9706 64.0113 14.9279C63.3206 15.3274 62.5503 15.7154 61.7103 16.0871C58.8551 17.3513 55.9612 18.3155 53.7522 18.9466C52.6363 19.2555 51.6657 19.4654 50.8435 19.5223C50.0218 19.5792 49.3429 19.4792 48.8243 19.1778C48.3086 18.8778 48.0006 18.4036 47.9235 17.8235C47.8468 17.2439 48.007 16.5623 48.4416 15.8575C49.0394 14.8527 50.2374 13.8325 51.8941 12.8747H51.8946Z" fill="#60D06F" stroke="#082422" stroke-width="0.0627396" stroke-miterlimit="10"/>
<path d="M38.2857 18.032L25.0709 25.7509" stroke="#082422" stroke-width="0.0627396" stroke-linecap="round"/>
<path d="M39.3973 23.7134L33.2222 27.4185" stroke="#082422" stroke-width="0.0627396" stroke-linecap="round"/>
<path d="M51.6237 49.6489L45.4485 53.354" stroke="#082422" stroke-width="0.0627396" stroke-linecap="round"/>
<path d="M9.13919 49.6489L2.96405 53.354" stroke="#082422" stroke-width="0.0627396" stroke-linecap="round"/>
<path d="M30.3818 26.9243L27.2943 28.7769" stroke="#082422" stroke-width="0.0627396" stroke-linecap="round"/>
<path d="M48.5313 28.7439L46.4318 29.9789" stroke="#082422" stroke-width="0.0627396" stroke-linecap="round"/>
<path d="M41.9908 42.2388L39.8912 43.4738" stroke="#082422" stroke-width="0.0627396" stroke-linecap="round"/>
<path d="M41.3732 49.4019L39.2736 50.6369" stroke="#082422" stroke-width="0.0627396" stroke-linecap="round"/>
<path d="M8.02714 52.8601L6.4216 53.8481" stroke="#082422" stroke-width="0.0627396" stroke-linecap="round"/>
<path d="M4.56952 57.1826L2.46997 58.4176" stroke="#082422" stroke-width="0.0627396" stroke-linecap="round"/>
<path d="M16.5489 58.1707L14.4493 59.4057" stroke="#082422" stroke-width="0.0627396" stroke-linecap="round"/>
<path d="M41.6199 27.542L37.2973 30.1356" stroke="#082422" stroke-width="0.0627396" stroke-linecap="round"/>
<path d="M18.0308 60.6409L13.7082 63.2344" stroke="#082422" stroke-width="0.0627396" stroke-linecap="round"/>
<path d="M27.6551 34.8621L27.4116 35.9408C27.2502 36.6548 26.8383 37.323 26.1617 37.8824C23.8923 39.7585 19.5028 39.7002 16.3575 37.7526C14.1498 36.3858 13.142 34.4511 13.5217 32.7707L13.7653 31.6919C13.3855 33.3724 14.3933 35.3067 16.6011 36.6739C19.7464 38.6215 24.1359 38.6794 26.4052 36.8037C27.0818 36.2443 27.4937 35.5761 27.6551 34.8621Z" fill="#0096A1" stroke="#082422" stroke-width="0.0627396" stroke-miterlimit="10"/>
<path d="M24.8174 29.8827C27.9627 31.8303 28.6726 34.9297 26.4028 36.8061C24.1335 38.6822 19.744 38.6239 16.5987 36.6763C13.4534 34.7283 12.7435 31.6289 15.0128 29.7528C17.2822 27.8767 21.6717 27.9346 24.8174 29.8827Z" fill="#29F5FF" stroke="#082422" stroke-width="0.0627396" stroke-miterlimit="10"/>
<path d="M24.0226 31.7145L23.3814 32.2445C24.0746 32.883 24.1867 33.5059 23.6504 34.063L21.9954 33.038C22.1945 32.7803 22.1355 32.5489 21.7987 32.3403C21.4835 32.1451 21.2152 32.1284 21.0858 32.2355C20.8946 32.3936 21.1081 32.6003 21.5724 33.0452L21.8021 33.2697C22.7936 34.2425 22.9826 34.7703 22.3776 35.2705C21.7933 35.7535 20.8557 35.7412 19.7415 35.2529L19.0282 35.8426L17.4159 34.8441L18.1348 34.25C17.305 33.5267 17.2343 32.8704 17.7959 32.3131L19.5514 33.4003C19.31 33.6619 19.3872 33.9191 19.7815 34.1632C20.1324 34.3806 20.4496 34.4499 20.6309 34.3003C20.791 34.1679 20.6247 34.0049 20.3296 33.71L19.8392 33.2343C18.8322 32.2742 18.7432 31.726 19.3331 31.2389C19.8656 30.7988 20.7161 30.7795 21.7798 31.2367L22.4107 30.7152L24.023 31.7137L24.0226 31.7145Z" fill="white" stroke="#082422" stroke-width="0.0627396" stroke-miterlimit="10"/>
<path d="M11.3292 37.8767L3.61932 42.5026" stroke="#082422" stroke-width="0.0627396" stroke-linecap="round"/>
<path d="M11.399 34.6143L7.50919 36.9984" stroke="#082422" stroke-width="0.0627396" stroke-linecap="round"/>
</g>
<defs>
<clipPath id="clip0_664_15104">
<rect width="85.8277" height="80" fill="white"/>
</clipPath>
</defs>
</svg>
