<svg width="109" height="80" viewBox="0 0 109 80" fill="none" xmlns="http://www.w3.org/2000/svg">
<g clip-path="url(#clip0_664_14948)">
<path opacity="0.25" d="M0.895721 45.9632V45.9485C0.949539 45.1345 1.44433 44.3813 2.21515 43.9379L5.72726 41.8527L22.8408 31.6792C23.8729 31.0744 25.1046 30.7412 26.3095 30.7412C27.5143 30.7412 28.7018 31.0545 29.7244 31.6471L36.555 35.5997L81.0137 61.2885C81.8167 61.7406 82.3062 62.5719 82.3245 63.5186C82.3245 64.4454 81.8488 65.2836 81.0519 65.7609L60.1338 78.1852C59.1815 78.7562 58.0878 79.0582 56.9689 79.0582C55.8499 79.0582 54.8335 78.7779 53.8613 78.2252L43.5862 72.2854L9.10309 52.3611L2.157 48.3434C1.29502 47.8601 0.824547 46.9715 0.897461 45.9641L0.895721 45.9632Z" fill="#082422"/>
<path d="M54.1906 77.4336L3.86919 48.3649C2.82146 47.7627 2.2746 46.7206 2.2338 45.6628C2.18345 44.5243 1.84404 41.6442 2.96295 40.9761L23.9827 30.7384C26.3012 29.3621 29.1771 29.3465 31.5104 30.6933L82.4421 57.944C83.4594 58.5315 83.1486 61.3056 83.0931 62.1404C83.0037 63.495 82.653 64.5953 81.4681 65.2981L61.102 77.3885C58.9762 78.6484 56.333 78.6693 54.1915 77.4292V77.4344L54.1906 77.4336Z" fill="#04A8A7" stroke="#082422" stroke-width="0.0677966" stroke-miterlimit="10" stroke-linejoin="round"/>
<path d="M67.9971 72.462L68.052 72.4299C68.0917 72.4063 68.1162 72.364 68.1162 72.3176V71.2363C68.1162 71.1349 68.0064 71.0724 67.9193 71.1239L67.8644 71.156C67.8247 71.1797 67.8002 71.2219 67.8002 71.2684V72.3497C67.8002 72.4511 67.91 72.5136 67.9971 72.462Z" fill="#082422"/>
<path d="M67.4018 72.8188L67.4567 72.7858C67.4956 72.7622 67.5193 72.7199 67.5193 72.6743V71.5955C67.5193 71.4942 67.4077 71.4316 67.3207 71.484L67.2657 71.517C67.2269 71.5406 67.2032 71.5829 67.2032 71.6285V72.7073C67.2032 72.8086 67.3148 72.8711 67.4018 72.8188Z" fill="#082422"/>
<path d="M66.7998 73.1754L66.859 73.14C66.8978 73.1163 66.9223 73.0741 66.9223 73.0284V71.9497C66.9223 71.8491 66.8133 71.7866 66.7263 71.8373L66.6671 71.872C66.6274 71.8956 66.6029 71.9378 66.6029 71.9843V73.0639C66.6029 73.1653 66.7136 73.2278 66.8006 73.1754H66.7998Z" fill="#082422"/>
<path d="M66.203 73.5343L66.2622 73.4996C66.3019 73.476 66.3264 73.4338 66.3264 73.3873V72.3051C66.3264 72.2046 66.2174 72.1421 66.1304 72.1928L66.0712 72.2274C66.0315 72.2511 66.007 72.2933 66.007 72.3398V73.4219C66.007 73.5225 66.116 73.585 66.203 73.5343Z" fill="#082422"/>
<path d="M65.6078 73.8876L65.6627 73.8547C65.7016 73.831 65.7253 73.7888 65.7253 73.7432V72.6644C65.7253 72.563 65.6137 72.5005 65.5267 72.5529L65.4717 72.5858C65.4329 72.6095 65.4092 72.6517 65.4092 72.6973V73.7761C65.4092 73.8775 65.5207 73.94 65.6078 73.8876Z" fill="#082422"/>
<path d="M65.0102 74.2465L65.0651 74.2144C65.1049 74.1907 65.1294 74.1485 65.1294 74.102V73.0207C65.1294 72.9193 65.0195 72.8568 64.9325 72.9083L64.8775 72.9404C64.8378 72.9641 64.8133 73.0063 64.8133 73.0528V74.1341C64.8133 74.2355 64.9232 74.298 65.0102 74.2465Z" fill="#082422"/>
<path d="M64.4109 74.6045L64.4701 74.569C64.5089 74.5453 64.5334 74.5031 64.5334 74.4575V73.377C64.5334 73.2756 64.4227 73.2131 64.3357 73.2655L64.2765 73.301C64.2377 73.3246 64.2132 73.3669 64.2132 73.4125V74.493C64.2132 74.5943 64.3239 74.6569 64.4109 74.6045Z" fill="#082422"/>
<path d="M63.8131 74.9603L63.8681 74.9282C63.9078 74.9046 63.9323 74.8623 63.9323 74.8159V73.7346C63.9323 73.6332 63.8224 73.5707 63.7354 73.6222L63.6805 73.6543C63.6407 73.678 63.6162 73.7202 63.6162 73.7667V74.848C63.6162 74.9493 63.7261 75.0119 63.8131 74.9603Z" fill="#082422"/>
<path d="M63.2179 75.3158L63.2728 75.2829C63.3117 75.2592 63.3353 75.217 63.3353 75.1714V74.0926C63.3353 73.9912 63.2238 73.9287 63.1367 73.9811L63.0818 74.014C63.0429 74.0377 63.0193 74.0799 63.0193 74.1255V75.2043C63.0193 75.3057 63.1308 75.3682 63.2179 75.3158Z" fill="#082422"/>
<path d="M73.3923 69.2042C73.7025 69.0217 73.9594 68.6179 73.9594 68.3079C73.9594 67.9979 73.7033 67.8889 73.3923 68.0713L70.1295 69.9831C69.8194 70.1655 69.5625 70.5693 69.5625 70.8794C69.5625 71.1894 69.8186 71.2984 70.1295 71.1159" fill="#082422"/>
<path d="M79.9846 65.3498L80.0438 65.3144C80.0826 65.2907 80.1071 65.2485 80.1071 65.2029V64.1224C80.1071 64.021 79.9964 63.9585 79.9094 64.0109L79.8502 64.0464C79.8114 64.07 79.7869 64.1122 79.7869 64.1579V65.2383C79.7869 65.3397 79.8976 65.4022 79.9846 65.3498Z" fill="#082422"/>
<path d="M79.388 65.7052L79.4429 65.6731C79.4826 65.6494 79.5071 65.6072 79.5071 65.5607V64.4794C79.5071 64.3781 79.3973 64.3155 79.3102 64.3671L79.2553 64.3992C79.2156 64.4228 79.1911 64.4651 79.1911 64.5115V65.5928C79.1911 65.6942 79.3009 65.7567 79.388 65.7052Z" fill="#082422"/>
<path d="M78.7938 66.0617L78.8487 66.0287C78.8876 66.0051 78.9112 65.9628 78.9112 65.9172V64.8384C78.9112 64.7371 78.7997 64.6746 78.7126 64.7269L78.6577 64.7599C78.6188 64.7835 78.5952 64.8258 78.5952 64.8714V65.9502C78.5952 66.0515 78.7067 66.1141 78.7938 66.0617Z" fill="#082422"/>
<path d="M78.1888 66.4227L78.2479 66.3881C78.2877 66.3644 78.3122 66.3222 78.3122 66.2757V65.1936C78.3122 65.093 78.2032 65.0305 78.1161 65.0812L78.057 65.1158C78.0172 65.1395 77.9927 65.1817 77.9927 65.2282V66.3104C77.9927 66.4109 78.1017 66.4734 78.1888 66.4227Z" fill="#082422"/>
<path d="M77.5937 66.7783L77.6529 66.7428C77.6918 66.7192 77.7163 66.6769 77.7163 66.6313V65.5509C77.7163 65.4495 77.6056 65.387 77.5185 65.4393L77.4594 65.4748C77.4205 65.4985 77.396 65.5407 77.396 65.5863V66.6668C77.396 66.7682 77.5067 66.8307 77.5937 66.7783Z" fill="#082422"/>
<path d="M76.9981 67.1346L77.053 67.1025C77.0927 67.0789 77.1172 67.0367 77.1172 66.9902V65.9089C77.1172 65.8075 77.0074 65.745 76.9203 65.7965L76.8654 65.8286C76.8257 65.8523 76.8012 65.8945 76.8012 65.941V67.0223C76.8012 67.1237 76.911 67.1862 76.9981 67.1346Z" fill="#082422"/>
<path d="M76.4011 67.4898L76.456 67.4577C76.4958 67.434 76.5203 67.3918 76.5203 67.3453V66.2674C76.5203 66.166 76.4087 66.1035 76.3217 66.1559L76.2667 66.1888C76.2279 66.2125 76.2042 66.2547 76.2042 66.3003V67.3774C76.2042 67.4788 76.3141 67.5413 76.4011 67.4898Z" fill="#082422"/>
<path d="M75.7997 67.8479L75.8589 67.8124C75.8978 67.7888 75.9223 67.7465 75.9223 67.7009V66.6204C75.9223 66.5191 75.8116 66.4565 75.7245 66.5089L75.6654 66.5444C75.6265 66.5681 75.602 66.6103 75.602 66.6559V67.7364C75.602 67.8378 75.7127 67.9003 75.7997 67.8479Z" fill="#082422"/>
<path d="M75.203 68.2035L75.2579 68.1714C75.2976 68.1477 75.3221 68.1055 75.3221 68.059V66.9777C75.3221 66.8764 75.2123 66.8138 75.1252 66.8654L75.0703 66.8975C75.0306 66.9211 75.0061 66.9634 75.0061 67.0098V68.0911C75.0061 68.1925 75.1159 68.255 75.203 68.2035Z" fill="#082422"/>
<path d="M54.1906 74.5943L3.86914 45.5256C1.69729 44.2709 1.67733 41.1426 3.83355 39.8627L23.9774 27.9034C26.296 26.5272 29.1718 26.5116 31.5051 27.8583L81.4316 56.6996C83.6443 57.9752 83.659 61.1581 81.4672 62.464L61.1011 74.5544C58.9753 75.8143 56.3321 75.8352 54.1906 74.5951V74.5943Z" fill="#2BF2F1" stroke="#082422" stroke-width="0.0677966" stroke-miterlimit="10" stroke-linejoin="round"/>
<path d="M27.7871 27.7112C26.6205 27.7113 25.4276 28.0333 24.4287 28.6194L7.77634 38.5188L4.35934 40.5491H4.35837C3.66348 40.9495 3.20347 41.6098 3.10641 42.3333L3.09177 42.4788V42.4944C3.02151 43.4621 3.47228 44.3139 4.29977 44.7776H4.30075L11.0595 48.6868L44.6142 68.0754L54.6123 73.8538C55.5544 74.389 56.5377 74.6604 57.6201 74.6604C58.7022 74.6603 59.7609 74.3676 60.6816 73.8157H60.6826L81.0371 61.7258C81.8025 61.2678 82.2585 60.4645 82.2588 59.5745C82.2419 58.7216 81.8279 57.9673 81.1416 57.5188L81 57.4329L37.7402 32.4338L31.0937 28.5881C30.1043 28.0142 28.954 27.7112 27.7871 27.7112Z" fill="white" stroke="#082422" stroke-width="0.0677966" stroke-linejoin="round"/>
<path d="M14.3142 36.84C13.7899 37.1394 13.7899 37.6314 14.3142 37.9307C14.8489 38.2405 15.6944 38.2405 16.2187 37.9412L22.5841 34.2732C23.1188 33.9634 23.1301 33.4714 22.5841 33.1607C22.0702 32.8614 21.2256 32.8614 20.6796 33.1712L14.3142 36.8391V36.84Z" fill="#082422"/>
<path d="M14.6542 52.3383L20.1906 55.4856C20.6063 55.7216 20.9431 56.2501 20.9431 56.6657C20.9431 57.0814 20.6063 57.2263 20.1906 56.9903L14.6542 53.843C14.2384 53.6069 13.9016 53.0785 13.9016 52.6628C13.9016 52.2472 14.2384 52.1023 14.6542 52.3383Z" fill="#007473" stroke="#082422" stroke-width="0.0677966" stroke-miterlimit="10" stroke-linejoin="round"/>
<path d="M102.557 10.9821L102.636 11.5626C101.317 13.4815 99.5148 15.1996 97.435 16.802C94.5937 18.991 91.2332 20.9629 87.8727 22.9352C84.5123 24.9076 81.1513 26.8801 78.31 29.069C76.2302 30.6715 74.4284 32.389 73.1087 34.308L73.0299 33.7275C74.3496 31.8086 76.1509 30.0911 78.2313 28.4886C81.0726 26.3001 84.4335 24.3272 87.794 22.3548C91.1549 20.3824 94.5149 18.4106 97.3562 16.2216C99.4361 14.6197 101.238 12.9011 102.557 10.9821Z" fill="#38A543" stroke="#082422" stroke-width="0.0677966" stroke-miterlimit="10" stroke-linejoin="round"/>
<path d="M73.0307 33.727L73.1095 34.3074C67.1126 31.8099 61.1163 29.3123 55.1193 26.8143L55.0406 26.2339C61.0374 28.7314 67.0338 31.229 73.0307 33.727Z" fill="#38A543" stroke="#082422" stroke-width="0.0677966" stroke-miterlimit="10" stroke-linejoin="round"/>
<path d="M60.2414 20.9954C63.0827 18.8065 66.4432 16.8346 69.8037 14.8622C73.1641 12.8898 76.5251 10.9174 79.3665 8.72891C81.4463 7.12648 83.248 5.40842 84.5677 3.48946C90.5646 5.98697 96.561 8.48455 102.558 10.9826C101.238 12.9015 99.4365 14.6196 97.3567 16.222C94.5153 18.411 91.1548 20.3829 87.7944 22.3552C84.4339 24.3276 81.073 26.3001 78.2317 28.489C76.1519 30.0915 74.35 31.809 73.0303 33.728C67.0335 31.2305 61.0371 28.7329 55.0402 26.2349C56.3599 24.3164 58.1616 22.5978 60.2415 20.9959L60.2414 20.9954Z" fill="#60D06F" stroke="#082422" stroke-width="0.0677966" stroke-miterlimit="10" stroke-linejoin="round"/>
<path d="M63.5847 21.3791C66.0588 19.4731 68.9206 17.7285 71.7824 15.9839C74.6437 14.2393 77.505 12.4952 79.9792 10.5892C80.8859 9.89054 81.7413 9.16982 82.5254 8.41992C82.6546 8.31868 82.8327 8.29859 82.9597 8.3513C84.1691 8.85504 85.8269 8.6752 86.8074 7.91978C86.9607 7.80193 87.0971 7.66982 87.2132 7.52393C87.2325 7.49918 87.2559 7.477 87.282 7.45701C87.4114 7.35729 87.6102 7.31847 87.7722 7.38612C90.1447 8.37398 92.5166 9.36242 94.8891 10.3503C95.0837 10.4311 95.1286 10.6252 95.0112 10.7723C94.1539 11.8506 94.4296 13.1288 95.8358 13.7141C95.99 13.7782 96.0384 13.9208 95.9214 14.0328C95.144 14.7746 94.2978 15.4868 93.3999 16.1787C90.9258 18.0847 88.0644 19.8287 85.2031 21.5733C82.3413 23.3179 79.48 25.0625 77.0059 26.968C76.0982 27.6673 75.2423 28.3886 74.4578 29.1391C74.3109 29.2546 74.1073 29.276 73.9633 29.2162C72.7556 28.7133 71.1013 28.8922 70.1226 29.6463C69.9685 29.7653 69.8306 29.8981 69.7147 30.045C69.697 30.067 69.6765 30.0872 69.6532 30.1053C69.5364 30.1951 69.3565 30.2293 69.21 30.1689C66.8162 29.172 64.423 28.1751 62.0293 27.1782C61.8537 27.1051 61.8114 26.9303 61.9168 26.7971C62.7713 25.7177 62.4941 24.4392 61.0878 23.8533C60.952 23.7966 60.9112 23.6716 61.0135 23.5734C61.8045 22.8143 62.6682 22.0858 63.5852 21.3791L63.5847 21.3791Z" fill="#80E58A" stroke="#082422" stroke-width="0.0677966" stroke-miterlimit="10" stroke-linejoin="round"/>
<path d="M72.152 18.5525C72.8046 18.0496 73.5402 17.5474 74.3495 17.0525C77.1 15.3696 79.9313 13.9884 82.1061 13.0416C83.2063 12.5735 84.1712 12.2265 85.005 12.0562C85.8384 11.886 86.5474 11.8959 87.1184 12.1344C87.6876 12.3712 88.0669 12.8142 88.2249 13.3975C88.3823 13.9803 88.3116 14.6998 87.9623 15.481C87.4873 16.5905 86.4 17.7984 84.8345 19.0039C84.1819 19.5069 83.4462 20.009 82.637 20.5039C79.8865 22.1868 77.0556 23.5679 74.8804 24.5148C73.7802 24.983 72.8153 25.33 71.9814 25.5002C71.148 25.6704 70.4395 25.6605 69.8676 25.4226C69.2989 25.1858 68.919 24.7424 68.7611 24.159C68.6037 23.5762 68.6748 22.8567 69.0237 22.076C69.4987 20.966 70.586 19.7586 72.1515 18.5526L72.152 18.5525Z" fill="#60D06F" stroke="#082422" stroke-width="0.0677966" stroke-miterlimit="10" stroke-linejoin="round"/>
<path d="M74.1857 6.62892L74.8536 7.02822C75.2956 7.29261 75.6521 7.71453 75.8778 8.28963C76.6347 10.2184 75.6334 13.1411 73.6416 14.8176C72.2437 15.9945 70.7291 16.2444 69.6887 15.6222L69.0208 15.2229C70.0612 15.8451 71.5755 15.5951 72.9737 14.4183C74.9655 12.7418 75.9666 9.81904 75.2099 7.89033C74.9842 7.31523 74.6277 6.89332 74.1857 6.62892Z" fill="#90A700" stroke="#082422" stroke-width="0.0677966" stroke-miterlimit="10" stroke-linejoin="round"/>
<path d="M70.2334 7.4347C72.2252 5.75815 74.4533 5.96268 75.2104 7.89186C75.9674 9.82067 74.9661 12.7433 72.9742 14.4199C70.9821 16.0963 68.754 15.8918 67.9971 13.963C67.2402 12.0342 68.2412 9.11142 70.2334 7.4347Z" fill="#DCFF00" stroke="#082422" stroke-width="0.0677966" stroke-miterlimit="10" stroke-linejoin="round"/>
<path d="M71.285 8.36823L71.4988 8.91321C72.0777 8.58953 72.5188 8.65109 72.7738 9.13186L71.7255 10.014C71.5968 9.82432 71.4292 9.81306 71.2159 9.99257C71.0162 10.1606 70.9463 10.3363 70.9895 10.4464C71.0533 10.6089 71.2383 10.5114 71.6376 10.2985L71.8381 10.194C72.7059 9.74418 73.1003 9.7335 73.3021 10.2477C73.497 10.7443 73.2832 11.3686 72.7124 12.0067L72.9503 12.6129L71.9292 13.4724L71.6896 12.8614C71.024 13.2578 70.5696 13.1612 70.3201 12.6635L71.432 11.7278C71.554 11.9465 71.7429 11.9513 71.9926 11.7411C72.2149 11.5541 72.3307 11.3571 72.2705 11.2032C72.217 11.0671 72.0716 11.1426 71.8097 11.2753L71.3841 11.4989C70.5213 11.9619 70.1353 11.9013 69.9389 11.4001C69.7613 10.9475 69.9349 10.3745 70.4738 9.76336L70.2634 9.22718L71.2845 8.36775L71.285 8.36823Z" fill="white" stroke="#082422" stroke-width="0.0677966" stroke-miterlimit="10" stroke-linejoin="round"/>
<path d="M88.4202 1.44621L89.1492 1.41032C89.6318 1.38668 90.1321 1.54133 90.613 1.8956C92.2256 3.08385 93.0084 6.06896 92.3617 8.56293C91.9079 10.3135 90.8701 11.3567 89.7343 11.4123L89.0052 11.4482C90.1411 11.3926 91.1786 10.3494 91.6326 8.59883C92.2794 6.10486 91.4963 3.11982 89.8839 1.93149C89.4031 1.57722 88.9027 1.42258 88.4202 1.44621Z" fill="#0096A1" stroke="#082422" stroke-width="0.0677966" stroke-miterlimit="10" stroke-linejoin="round"/>
<path d="M85.7936 4.29616C86.4404 1.80219 88.2718 0.743854 89.8848 1.93232C91.4975 3.12057 92.2803 6.10568 91.6335 8.59965C90.9865 11.0937 89.155 12.152 87.5424 10.9638C85.9297 9.77553 85.1466 6.79049 85.7936 4.29616Z" fill="#29F5FF" stroke="#082422" stroke-width="0.0677966" stroke-miterlimit="10" stroke-linejoin="round"/>
<path d="M87.1035 4.49355L87.5591 4.82933C87.8342 4.24065 88.208 4.04869 88.6612 4.30831L88.3208 5.62062C88.1202 5.53371 87.9846 5.61678 87.9154 5.88383C87.8505 6.13382 87.8901 6.31867 87.9821 6.38645C88.118 6.48653 88.2091 6.30341 88.4043 5.90594L88.5037 5.70844C88.935 4.85545 89.2342 4.62909 89.6641 4.94586C90.0793 5.2518 90.2466 5.88941 90.1452 6.73529L90.6521 7.10879L90.3205 8.38727L89.8098 8.01082C89.5064 8.70779 89.1037 8.87794 88.6457 8.60121L89.0068 7.2092C89.2176 7.324 89.3662 7.22377 89.4472 6.91114C89.5195 6.63291 89.5041 6.40505 89.3755 6.31011C89.2617 6.22629 89.1895 6.36932 89.0577 6.62421L88.8479 7.04507C88.4275 7.90622 88.0967 8.06862 87.6779 7.75966C87.2996 7.48082 87.1285 6.90814 87.2195 6.10225L86.7713 5.77189L87.1029 4.49341L87.1035 4.49355Z" fill="white" stroke="#082422" stroke-width="0.0677966" stroke-miterlimit="10" stroke-linejoin="round"/>
<path d="M31.5599 40.9435L52.5813 53.0856C52.5914 53.0914 52.5979 53.1021 52.5984 53.1137C52.5987 53.1254 52.593 53.1367 52.5832 53.1432L50.0226 54.8418C50.012 54.8489 49.9986 54.8496 49.9875 54.8434L28.9652 42.7012C28.9551 42.6954 28.9486 42.6848 28.9481 42.6732C28.9478 42.6615 28.9536 42.6502 28.9633 42.6436L31.5238 40.945C31.5345 40.9379 31.5488 40.9371 31.5599 40.9435Z" fill="#0D4440" stroke="#082422" stroke-width="0.0677966" stroke-linejoin="round"/>
<mask id="mask0_664_14948" style="mask-type:alpha" maskUnits="userSpaceOnUse" x="28" y="9" width="81" height="46">
<path d="M108.749 14.6171L50.0044 54.8138L28.9825 42.6717L33.3045 9.49941L108.749 14.6171Z" fill="#0D2F20"/>
</mask>
<g mask="url(#mask0_664_14948)">
<path d="M65.9608 26.8714L66.7365 26.9349C67.2499 26.9771 67.7561 27.1983 68.2126 27.6146C69.7434 29.011 70.135 32.0749 69.0875 34.458C68.3524 36.1308 67.1034 37.0234 65.895 36.9242L65.1193 36.8607C66.3277 36.9599 67.5764 36.0673 68.3118 34.3945C69.3593 32.0114 68.9674 28.9475 67.4369 27.5511C66.9804 27.1348 66.4742 26.9136 65.9608 26.8714Z" fill="#90A700" stroke="#082422" stroke-width="0.0677966" stroke-miterlimit="10" stroke-linejoin="round"/>
<path d="M62.7706 29.3389C63.8181 26.9558 65.9081 26.1561 67.4392 27.5527C68.97 28.9491 69.3616 32.013 68.3141 34.3961C67.2663 36.7793 65.1763 37.579 63.6455 36.1827C62.1147 34.7863 61.7228 31.7224 62.7706 29.3389Z" fill="#DCFF00" stroke="#082422" stroke-width="0.0677966" stroke-miterlimit="10" stroke-linejoin="round"/>
<path d="M64.1255 29.7116L64.5579 30.1061C64.9346 29.5603 65.3577 29.4209 65.7987 29.7397L65.2474 30.9936C65.0482 30.8803 64.8927 30.9441 64.7805 31.1993C64.6755 31.4382 64.6903 31.6267 64.7777 31.7064C64.9067 31.824 65.0297 31.6549 65.294 31.2877L65.4279 31.1055C66.0081 30.3189 66.3574 30.1353 66.7655 30.5076C67.1596 30.8671 67.2433 31.5216 67.0128 32.3459L67.4939 32.7848L66.9569 34.0064L66.4721 33.5641C66.0498 34.2134 65.5993 34.3273 65.1557 33.9909L65.7405 32.6607C65.9465 32.8031 66.1182 32.724 66.2495 32.4253C66.3664 32.1594 66.3835 31.9316 66.2614 31.82C66.1534 31.7215 66.0562 31.8534 65.8797 32.0881L65.5965 32.4765C65.0266 33.2726 64.6533 33.3886 64.2558 33.0256C63.8967 32.6979 63.7994 32.1073 64.0133 31.3212L63.5878 30.933L64.1248 29.7113L64.1255 29.7116Z" fill="white" stroke="#082422" stroke-width="0.0677966" stroke-miterlimit="10" stroke-linejoin="round"/>
<path d="M49.2169 19.7143L49.75 19.9571C50.6699 22.0967 51.1628 24.537 51.4096 27.1509C51.7466 30.7218 51.6232 34.6162 51.5002 38.5107C51.3773 42.4053 51.2541 46.3004 51.5911 49.8712C51.838 52.4851 52.3304 54.9252 53.2503 57.0648L52.7172 56.822C51.7973 54.6824 51.3047 52.2428 51.0581 49.6284C50.7215 46.0578 50.8442 42.1625 50.9672 38.2679C51.0904 34.3729 51.2136 30.479 50.8765 26.9081C50.6302 24.2944 50.1368 21.8539 49.2169 19.7143Z" fill="#38A543" stroke="#082422" stroke-width="0.0677966" stroke-miterlimit="10" stroke-linejoin="round"/>
<path d="M52.7178 56.8219L53.2509 57.0647C47.9407 60.8066 42.6307 64.548 37.3201 68.2897L36.787 68.0469C42.0972 64.305 47.4072 60.5635 52.7178 56.8219Z" fill="#38A543" stroke="#082422" stroke-width="0.0677966" stroke-miterlimit="10" stroke-linejoin="round"/>
<path d="M35.1279 60.8533C34.7909 57.2824 34.9143 53.3881 35.0373 49.4935C35.1603 45.5989 35.2835 41.7039 34.9469 38.1332C34.7001 35.5193 34.2071 33.079 33.2873 30.9394C38.5975 27.1975 43.9075 23.4561 49.2181 19.7144C50.138 21.854 50.6309 24.2943 50.8777 26.9082C51.2148 30.479 51.0913 34.3734 50.9684 38.268C50.8454 42.1626 50.7222 46.0576 51.0593 49.6285C51.3061 52.2424 51.7985 54.6825 52.7184 56.8221C47.4082 60.564 42.0982 64.3054 36.7875 68.0471C35.8681 65.9077 35.3748 63.4672 35.1284 60.8535L35.1279 60.8533Z" fill="#60D06F" stroke="#082422" stroke-width="0.0677966" stroke-miterlimit="10" stroke-linejoin="round"/>
<path d="M37.234 58.2302C36.9405 55.1208 36.9903 51.7695 37.0401 48.4183C37.0897 45.0674 37.1397 41.7168 36.8463 38.6075C36.7386 37.4678 36.585 36.3599 36.3685 35.2967C36.3518 35.1335 36.4297 34.9721 36.5421 34.8927C37.613 34.1381 38.3447 32.6398 38.2284 31.4074C38.2104 31.2149 38.1714 31.0291 38.1098 30.8531C38.0992 30.8235 38.0929 30.792 38.0899 30.7592C38.0746 30.5965 38.1477 30.4076 38.2913 30.3067C40.3919 28.8262 42.4928 27.3465 44.5934 25.866C44.7656 25.7445 44.9537 25.81 45.0156 25.9877C45.4708 27.2879 46.6991 27.7362 47.944 26.8586C48.0805 26.7622 48.2269 26.7973 48.2593 26.956C48.4724 28.0092 48.6238 29.1048 48.7304 30.2333C49.0238 33.3427 48.9738 36.6933 48.9242 40.0441C48.8744 43.3954 48.8248 46.7462 49.1178 49.8554C49.2255 50.9961 49.3794 52.1048 49.5961 53.1686C49.6154 53.3544 49.525 53.5381 49.3977 53.6281C48.3283 54.3817 47.5976 55.8766 47.7139 57.1067C47.7324 57.3005 47.7712 57.488 47.8337 57.6643C47.8428 57.691 47.8491 57.7191 47.8519 57.7485C47.8656 57.8952 47.7987 58.0656 47.6694 58.1574C45.5498 59.6511 43.4304 61.1442 41.3108 62.6379C41.1554 62.7475 40.9849 62.69 40.9284 62.5299C40.4708 61.2314 39.2413 60.7843 37.9959 61.6617C37.8756 61.7464 37.748 61.7143 37.7195 61.5754C37.4991 60.5014 37.3432 59.3823 37.2342 58.2297L37.234 58.2302Z" fill="#80E58A" stroke="#082422" stroke-width="0.0677966" stroke-miterlimit="10" stroke-linejoin="round"/>
<path d="M39.4115 49.4757C39.3339 48.6554 39.3013 47.7653 39.314 46.8168C39.3567 43.5926 39.6977 40.4608 40.0562 38.1162C40.2467 36.9358 40.4676 35.9345 40.7681 35.1382C41.0685 34.3424 41.4548 33.7479 41.961 33.392C42.4648 33.0366 43.0418 32.9519 43.6195 33.1293C44.1966 33.3069 44.7675 33.7502 45.2423 34.4622C45.9276 35.4557 46.3698 37.0195 46.5551 38.9867C46.6326 39.807 46.6652 40.6971 46.6525 41.6456C46.6098 44.8698 46.269 48.0011 45.9103 50.3462C45.7198 51.5266 45.4989 52.5279 45.1984 53.3242C44.898 54.12 44.5119 54.7141 44.0057 55.0711C43.5022 55.426 42.9245 55.511 42.3468 55.3336C41.7697 55.156 41.199 54.7122 40.7245 54.0008C40.0387 53.0072 39.5969 51.4436 39.4112 49.4761L39.4115 49.4757Z" fill="#60D06F" stroke="#082422" stroke-width="0.0677966" stroke-miterlimit="10" stroke-linejoin="round"/>
<path d="M69.3075 18.5355L69.6043 19.0405C69.1281 21.3203 68.1297 23.6009 66.8301 25.8822C65.0547 28.9987 62.7165 32.1154 60.3785 35.2326C58.0405 38.3498 55.7021 41.4672 53.9267 44.5837C52.6271 46.8651 51.6285 49.1452 51.1523 51.425L50.8555 50.92C51.3316 48.6402 52.3299 46.3603 53.6299 44.0787C55.4056 40.9627 57.7437 37.8448 60.0817 34.7276C62.4201 31.6102 64.7579 28.4937 66.5333 25.3772C67.8331 23.0963 68.8313 20.8153 69.3075 18.5355Z" fill="#38A543" stroke="#082422" stroke-width="0.0677966" stroke-miterlimit="10" stroke-linejoin="round"/>
<path d="M50.8569 50.9198L51.1538 51.4248C44.6576 51.4371 38.1619 51.4491 31.6655 51.461L31.3687 50.9561C37.8648 50.9437 44.3605 50.9317 50.8569 50.9198Z" fill="#38A543" stroke="#082422" stroke-width="0.0677966" stroke-miterlimit="10" stroke-linejoin="round"/>
<path d="M34.1424 44.1154C35.9178 40.9989 38.2561 37.8822 40.594 34.765C42.932 31.6478 45.2704 28.5304 47.0461 25.4143C48.3456 23.133 49.3441 20.8524 49.8202 18.5726C56.3164 18.5603 62.8121 18.5482 69.3085 18.5363C68.8323 20.8161 67.8339 23.0967 66.5343 25.378C64.7589 28.4945 62.4207 31.6113 60.0827 34.7285C57.7448 37.8456 55.4064 40.9631 53.6309 44.0796C52.3314 46.3609 51.3327 48.6411 50.8565 50.9208C44.3603 50.9331 37.8646 50.9452 31.3682 50.9571C31.8447 48.6778 32.8428 46.3967 34.1427 44.1158L34.1424 44.1154Z" fill="#60D06F" stroke="#082422" stroke-width="0.0677966" stroke-miterlimit="10" stroke-linejoin="round"/>
<path d="M37.3748 43.1784C38.9208 40.4648 40.8868 37.7502 42.8527 35.0357C44.8182 32.3214 46.784 29.6076 48.33 26.894C48.8966 25.8993 49.4073 24.9041 49.8409 23.9096C49.9209 23.7663 50.0775 23.679 50.215 23.6786C51.5251 23.6761 52.9848 22.87 53.5975 21.7945C53.6934 21.6266 53.7682 21.452 53.8189 21.2727C53.8272 21.2423 53.8401 21.2129 53.8566 21.1843C53.9374 21.0424 54.1058 20.9298 54.2813 20.9296C56.8512 20.9246 59.4209 20.9202 61.9908 20.9152C62.2015 20.9146 62.3179 21.0763 62.2664 21.2573C61.8921 22.5831 62.64 23.6556 64.1632 23.6524C64.3302 23.6519 64.4299 23.7648 64.3652 23.9132C63.9346 24.8977 63.4292 25.8816 62.8681 26.8665C61.3221 29.5801 59.3563 32.294 57.3908 35.0082C55.4249 37.7228 53.4594 40.437 51.9131 43.1503C51.3459 44.1459 50.835 45.1417 50.4012 46.137C50.3103 46.3002 50.1307 46.3986 49.9749 46.3991C48.6666 46.4016 47.2098 47.2055 46.5983 48.2791C46.5021 48.4484 46.4262 48.6242 46.376 48.8045C46.3682 48.8315 46.3571 48.8581 46.3426 48.8838C46.2695 49.0117 46.1168 49.1128 45.9583 49.1137C43.3653 49.1186 40.7727 49.1233 38.1797 49.1282C37.9895 49.1287 37.883 48.9837 37.9288 48.8202C38.3001 47.4945 37.5506 46.4222 36.0272 46.425C35.88 46.4251 35.7941 46.3256 35.8505 46.1955C36.287 45.1898 36.8023 44.1842 37.3752 43.1782L37.3748 43.1784Z" fill="#80E58A" stroke="#082422" stroke-width="0.0677966" stroke-miterlimit="10" stroke-linejoin="round"/>
<path d="M44.1831 37.2629C44.5908 36.5469 45.0754 35.7996 45.6307 35.0306C47.5179 32.416 49.5961 30.0485 51.2365 28.3352C52.0705 27.4785 52.8265 26.7857 53.5299 26.3066C54.2329 25.8278 54.8907 25.563 55.5095 25.5626C56.126 25.5611 56.6469 25.8232 57.0179 26.3003C57.3882 26.7771 57.6009 27.468 57.5804 28.3236C57.5707 29.5304 57.0343 31.0645 56.0558 32.7811C55.6481 33.4971 55.1635 34.2444 54.6082 35.0134C52.721 37.6281 50.6432 39.9953 49.0024 41.7088C48.1684 42.5656 47.4124 43.2583 46.709 43.7374C46.006 44.2162 45.3487 44.4807 44.7292 44.4822C44.1132 44.4834 43.5915 44.2211 43.2205 43.744C42.8502 43.2672 42.638 42.576 42.6583 41.7212C42.6677 40.5139 43.2044 38.9802 44.1826 37.2632L44.1831 37.2629Z" fill="#60D06F" stroke="#082422" stroke-width="0.0677966" stroke-miterlimit="10" stroke-linejoin="round"/>
<path d="M54.9004 37.7366L55.429 38.3077C55.7788 38.6859 56.0022 39.1911 56.0571 39.8065C56.2408 41.8703 54.4577 44.3929 52.0747 45.4409C50.4021 46.1766 48.8784 45.99 48.055 45.1L47.5264 44.5289C48.3498 45.4189 49.8733 45.6053 51.5461 44.8697C53.9291 43.8217 55.712 41.299 55.5285 39.2353C55.4736 38.6199 55.2502 38.1147 54.9004 37.7366Z" fill="#90A700" stroke="#082422" stroke-width="0.0677966" stroke-miterlimit="10" stroke-linejoin="round"/>
<path d="M50.8822 37.398C53.2653 36.35 55.3459 37.1735 55.5297 39.2378C55.7135 41.3016 53.9304 43.8242 51.5473 44.8722C49.164 45.92 47.0834 45.0965 46.8997 43.0326C46.7159 40.9688 48.4988 38.446 50.8822 37.398Z" fill="#DCFF00" stroke="#082422" stroke-width="0.0677966" stroke-miterlimit="10" stroke-linejoin="round"/>
<path d="M51.6287 38.5891L51.6806 39.1722C52.3272 39.0246 52.7331 39.2079 52.8426 39.741L51.5885 40.2923C51.5184 40.0741 51.3606 40.0161 51.1055 40.1283C50.8666 40.2333 50.75 40.3823 50.7605 40.5C50.7761 40.6739 50.981 40.6325 51.4241 40.5405L51.6458 40.4967C52.6052 40.3094 52.9866 40.4102 53.0357 40.9604C53.083 41.4918 52.7021 42.0306 51.9749 42.4822L52.0327 43.1309L50.811 43.6681L50.7529 43.0144C50.0028 43.2074 49.5939 42.9868 49.4945 42.439L50.8246 41.8541C50.8802 42.0984 51.0602 42.1561 51.3589 42.0247C51.6248 41.9079 51.7914 41.7515 51.7769 41.5868C51.7639 41.4412 51.6031 41.4726 51.3144 41.5263L50.8431 41.6211C49.8849 41.8224 49.5315 41.6556 49.484 41.1193C49.441 40.6351 49.7687 40.1341 50.4578 39.6994L50.4068 39.1257L51.6284 38.5885L51.6287 38.5891Z" fill="white" stroke="#082422" stroke-width="0.0677966" stroke-miterlimit="10" stroke-linejoin="round"/>
<path d="M54.9639 19.7781L54.8252 20.5438C54.7333 21.0507 54.4639 21.5329 54.0051 21.9466C52.4663 23.334 49.3788 23.4255 47.1089 22.1511C45.5156 21.2568 44.7488 19.9269 44.9651 18.734L45.1038 17.9683C44.8875 19.1612 45.6543 20.4907 47.2476 21.3853C49.5174 22.6597 52.605 22.568 54.1438 21.1809C54.6026 20.7671 54.872 20.2849 54.9639 19.7781Z" fill="#0096A1" stroke="#082422" stroke-width="0.0677966" stroke-miterlimit="10" stroke-linejoin="round"/>
<path d="M52.8185 16.3631C55.0884 17.6375 55.6809 19.7951 54.1419 21.1829C52.6031 22.5703 49.5155 22.6617 47.2457 21.3873C44.9758 20.1126 44.3832 17.955 45.922 16.5675C47.4608 15.1801 50.5483 15.0884 52.8185 16.3631Z" fill="#29F5FF" stroke="#082422" stroke-width="0.0677966" stroke-miterlimit="10" stroke-linejoin="round"/>
<path d="M52.3157 17.6745L51.8809 18.0665C52.3875 18.4945 52.4851 18.929 52.1249 19.3369L50.9305 18.6662C51.0627 18.479 51.0143 18.3181 50.7712 18.1816C50.5437 18.0538 50.3546 18.0502 50.2669 18.1294C50.1372 18.2463 50.2935 18.3852 50.6333 18.684L50.8016 18.8349C51.528 19.4889 51.6767 19.8543 51.2665 20.2242C50.8703 20.5814 50.2108 20.601 49.4128 20.2914L48.9292 20.7275L47.7656 20.0741L48.253 19.6347C47.6479 19.1513 47.5784 18.6919 47.9564 18.2832L49.2233 18.9946C49.0615 19.1858 49.1235 19.3643 49.4081 19.524C49.6613 19.6663 49.8864 19.7054 50.0093 19.5948C50.1179 19.4969 49.9961 19.3873 49.7797 19.1889L49.4206 18.8693C48.6838 18.2246 48.6047 17.8418 49.0047 17.4816C49.3657 17.1561 49.9631 17.1169 50.7246 17.4062L51.1524 17.0206L52.316 17.6739L52.3157 17.6745Z" fill="white" stroke="#082422" stroke-width="0.0677966" stroke-miterlimit="10" stroke-linejoin="round"/>
<path d="M35.399 38.2234L36.128 38.1876C36.6106 38.1639 37.1109 38.3186 37.5918 38.6729C39.2044 39.8612 39.9872 42.8464 39.3405 45.3404C38.8867 47.091 37.849 48.1343 36.7132 48.1899L35.9842 48.2258C37.12 48.1702 38.1574 47.127 38.6114 45.3763C39.2582 42.8823 38.4751 39.8971 36.8627 38.7088C36.3819 38.3545 35.8816 38.1998 35.399 38.2234Z" fill="#0096A1" stroke="#082422" stroke-width="0.0677966" stroke-miterlimit="10" stroke-linejoin="round"/>
<path d="M32.7746 41.074C33.4213 38.5799 35.2527 37.5216 36.8657 38.7101C38.4783 39.8984 39.2611 42.8836 38.6144 45.3777C37.9674 47.8718 36.136 48.9301 34.5234 47.7418C32.9108 46.5535 32.1277 43.5684 32.7746 41.074Z" fill="#29F5FF" stroke="#082422" stroke-width="0.0677966" stroke-miterlimit="10" stroke-linejoin="round"/>
<path d="M34.0834 41.2707L34.539 41.6065C34.8141 41.0178 35.1879 40.8259 35.6411 41.0855L35.3007 42.3978C35.1002 42.3109 34.9646 42.394 34.8953 42.6611C34.8305 42.9111 34.87 43.0959 34.962 43.1637C35.0979 43.2638 35.189 43.0807 35.3842 42.6832L35.4836 42.4857C35.9149 41.6327 36.2141 41.4063 36.644 41.7231C37.0592 42.029 37.2264 42.6667 37.1251 43.5126L37.632 43.8861L37.3004 45.1646L36.7897 44.7881C36.4864 45.4851 36.0836 45.6553 35.6256 45.3785L35.9867 43.9865C36.1975 44.1013 36.3461 44.0011 36.4271 43.6884C36.4994 43.4102 36.484 43.1823 36.3554 43.0874C36.2416 43.0036 36.1694 43.1466 36.0376 43.4015L35.8278 43.8224C35.4074 44.6835 35.0767 44.8459 34.6579 44.537C34.2795 44.2581 34.1084 43.6854 34.1995 42.8795L33.7513 42.5491L34.0828 41.2706L34.0834 41.2707Z" fill="white" stroke="#082422" stroke-width="0.0677966" stroke-miterlimit="10" stroke-linejoin="round"/>
</g>
</g>
<defs>
<clipPath id="clip0_664_14948">
<rect width="108.701" height="80" fill="white"/>
</clipPath>
</defs>
</svg>
