<svg width="123" height="80" viewBox="0 0 123 80" fill="none" xmlns="http://www.w3.org/2000/svg">
<g clip-path="url(#clip0_664_11625)">
<path d="M12.3172 49.8589H19.9073C21.4811 49.8589 22.9843 50.2231 24.3675 50.8809H16.7774C15.3942 50.2231 13.891 49.8589 12.3172 49.8589Z" fill="#E6E6E6" stroke="#002522" stroke-width="0.115265" stroke-miterlimit="10"/>
<path d="M38.7854 23.7268H46.3755C47.7657 23.7268 49.1243 23.8913 50.4431 24.1936H42.853C41.5342 23.8913 40.1757 23.7268 38.7854 23.7268Z" fill="#E6E6E6" stroke="#002522" stroke-width="0.115265" stroke-miterlimit="10"/>
<path d="M68.3694 -0.000976562H75.9595C89.1513 -0.000976562 100.078 11.8656 101.998 27.3499H94.4081C92.4876 11.8656 81.5612 -0.000976562 68.3694 -0.000976562Z" fill="#E6E6E6" stroke="#002522" stroke-width="0.115265" stroke-miterlimit="10"/>
<path d="M94.4066 27.3511H101.997C113.643 27.6897 123 39.337 123 53.6676C123 67.9982 113.364 80 101.478 80H93.8879C105.774 80 115.41 68.2112 115.41 53.6676C115.41 39.1239 106.053 27.6897 94.4066 27.3511Z" fill="#E6E6E6" stroke="#002522" stroke-width="0.115265" stroke-miterlimit="10"/>
<path d="M68.3683 -0.000976562C81.5601 -0.000976562 92.4865 11.8656 94.407 27.3499C106.053 27.6886 115.41 39.3359 115.41 53.6665C115.41 67.997 105.775 79.9989 93.8883 79.9989H12.3177C5.51535 79.9989 9.15527e-05 73.2522 9.15527e-05 64.9292C9.15527e-05 56.6061 5.51535 49.8595 12.3177 49.8595C13.8915 49.8595 15.3947 50.2237 16.7779 50.8815C16.7735 35.7853 26.6298 23.7269 38.7878 23.7269C40.178 23.7269 41.5366 23.8913 42.8554 24.1937C45.7709 10.2813 56.0878 -0.000976562 68.3683 -0.000976562Z" fill="white" stroke="#002522" stroke-width="0.115265" stroke-miterlimit="10"/>
<path d="M97.2941 13.321C99.7043 17.3854 101.36 22.1645 102.003 27.3503H94.4152C94.4261 27.3507 94.4375 27.351 94.4484 27.3513H102.001C105.987 27.4672 109.705 28.9076 112.871 31.3269C112.356 33.2755 111.606 35.1961 110.612 37.0017C107.059 31.6678 101.822 28.1128 95.8879 27.4539C101.808 28.12 107.033 31.7178 110.585 37.0496C110.539 37.1324 110.494 37.2162 110.447 37.2986C105.804 45.4545 97.9228 48.046 92.8508 43.0925C87.7788 38.139 87.4303 27.5083 92.0734 19.3523C92.1648 19.1917 92.2569 19.0329 92.3508 18.8767C93.3384 21.5284 94.042 24.3724 94.4113 27.3503H94.4123C94.0429 24.3717 93.3397 21.5269 92.3517 18.8748C93.7748 16.5067 95.4763 14.6384 97.2941 13.321Z" fill="black" fill-opacity="0.2"/>
<path d="M97.5264 2.96033L100.077 3.65352C101.438 4.0258 102.729 4.75916 103.875 5.87677C108.946 10.8253 109.287 21.4533 104.637 29.6107C101.036 35.9234 95.497 38.9064 90.8274 37.6394L88.2766 36.9462C92.9484 38.2189 98.4852 35.2302 102.086 28.9175C106.737 20.7601 106.397 10.1378 101.324 5.18358C100.178 4.06597 98.887 3.3326 97.5264 2.96033Z" fill="#0CBAB5" stroke="#082422" stroke-width="0.115265"/>
<path d="M83.7201 10.9832C88.3707 2.82591 96.2565 0.22942 101.327 5.17787C106.397 10.1263 106.739 20.754 102.088 28.9113C97.4376 37.0685 89.5519 39.665 84.4815 34.7166C79.4111 29.7681 79.0694 19.1404 83.7201 10.9832Z" fill="#2BF2F1" stroke="#082422" stroke-width="0.115265"/>
<path d="M88.2078 15.1562L91.4029 11.9625L92.2792 13.4803C94.0228 12.3274 95.4233 12.3304 96.4006 13.704L93.097 17.0057C92.6629 16.291 92.166 16.4262 91.6049 16.9861C91.0918 17.5009 90.9901 17.9468 91.1502 18.2249C91.4093 18.6738 91.9902 18.2831 93.063 17.5758L93.6312 17.2031C95.6357 15.8631 97.8606 15.6816 98.4188 16.649C99.1961 17.9959 98.7972 19.8679 97.2069 21.9893L98.1799 23.6724L94.9848 26.8661L94.0118 25.183C91.9811 26.6577 90.5045 26.56 89.4853 25.0783L92.9821 21.5832C93.4503 22.2846 93.942 22.3217 94.6653 21.6068C95.1967 21.0717 95.4417 20.5567 95.2103 20.1624C94.9935 19.7887 94.5722 20.0515 93.9163 20.4846L92.6681 21.313C90.0051 23.1133 88.7112 23.0817 87.9093 21.7051C87.1887 20.4539 87.5572 18.6724 89.0766 16.6377L88.2214 15.1575L88.2078 15.1562Z" fill="white" stroke="#082422" stroke-width="0.115265"/>
</g>
<defs>
<clipPath id="clip0_664_11625">
<rect width="123" height="80" fill="white"/>
</clipPath>
</defs>
</svg>
