<svg width="78" height="80" viewBox="0 0 78 80" fill="none" xmlns="http://www.w3.org/2000/svg">
<g clip-path="url(#clip0_664_11565)">
<path d="M4.6706 27.0997C4.69134 27.0594 4.74072 27.043 4.78117 27.0638C4.82155 27.0846 4.83702 27.1341 4.81635 27.1745C-0.142534 36.8296 3.81063 50.3603 16.0428 61.2134C23.9318 68.2158 33.7682 72.7601 43.2884 74.4449C52.8096 76.1299 62.006 74.9537 68.6244 70.5289C71.6184 68.5294 73.8211 66.0372 75.2664 63.2296C75.287 63.1894 75.3366 63.1732 75.3769 63.1936C75.4172 63.2143 75.4335 63.2638 75.4131 63.3042L75.4132 63.3051L73.3002 67.4327C71.8441 70.2815 69.6041 72.7822 66.6031 74.7936C59.9383 79.2494 50.6985 80.4236 41.1523 78.7335C31.6047 77.0431 21.7411 72.4857 13.8212 65.4639C1.57786 54.5974 -2.44994 40.9772 2.5576 31.2273L4.6706 27.0997Z" fill="#0CBAB5" stroke="#082422" stroke-width="0.164607" stroke-linejoin="round"/>
<path d="M11.3821 19.734C18.047 15.278 27.2875 14.1038 36.8339 15.7939C46.0832 17.4316 55.6292 21.7594 63.4172 28.4123L64.165 29.0636L64.8967 29.7247C72.3531 36.5955 76.5771 44.486 77.3795 51.7799C78.2081 59.3124 75.386 66.205 68.717 70.6637C62.0523 75.1195 52.8124 76.2937 43.2663 74.6036C33.7187 72.9132 23.855 68.3558 15.9352 61.334C8.02325 54.3113 3.54902 46.1468 2.72065 38.6177C1.89206 31.0852 4.71343 24.1927 11.3821 19.734Z" fill="#2BF2F1" stroke="#082422" stroke-width="0.164607" stroke-linejoin="round"/>
<path d="M32.555 27.7721C32.5803 27.7707 32.6059 27.7814 32.623 27.8014L35.9424 31.7107C40.1101 31.2845 43.9103 32.4171 47.2333 35.3664C47.245 35.3767 47.2529 35.3904 47.2572 35.4047C47.6291 35.7378 48.0063 36.0971 48.3714 36.4738C48.3907 36.4937 48.3982 36.5224 48.3922 36.5494C48.3862 36.5762 48.3672 36.5984 48.3415 36.6083L40.0698 39.7699C40.0375 39.7822 39.9999 39.7731 39.9772 39.747C39.7282 39.4605 39.4878 39.2175 39.2524 39.0042C38.5949 38.4173 37.9725 38.1035 37.3739 37.9905C36.7758 37.8777 36.1935 37.9643 35.6133 38.1891C34.9892 38.4298 34.6718 38.7379 34.5734 39.0539C34.4881 39.328 34.5603 39.6311 34.7809 39.9373L34.8855 40.0692C34.9604 40.1579 35.0482 40.2435 35.1257 40.3233C35.6061 40.7459 36.2119 40.9217 37.0324 40.9547C37.857 40.9878 38.8864 40.8762 40.206 40.7357L41.717 40.5675C47.886 39.874 51.6317 40.5828 54.5192 43.1458L54.5202 43.1456C54.961 43.5402 55.3947 43.9822 55.8042 44.4588L55.8044 44.4597C57.2928 46.2174 57.9752 47.9478 57.8029 49.5746C57.6327 51.1813 56.6305 52.6651 54.7968 53.9596L58.4567 58.2696C58.474 58.2899 58.4809 58.318 58.4743 58.3438C58.4677 58.3695 58.4487 58.39 58.424 58.3996L50.4094 61.4689C50.3767 61.4814 50.3393 61.4717 50.3166 61.445L46.6287 57.1014C41.9055 57.825 37.8816 56.5665 34.4128 53.4907L34.4126 53.4897C33.9539 53.0703 33.4901 52.6347 33.048 52.1485C33.0297 52.1284 33.022 52.1001 33.0283 52.0736C33.0346 52.0472 33.0539 52.0255 33.0792 52.0158L41.8346 48.6601C41.8665 48.6479 41.9032 48.6568 41.9261 48.6822C42.1261 48.9063 42.3215 49.1052 42.5189 49.2842L42.7174 49.4576L42.7197 49.4591C43.4153 50.0791 44.0823 50.4644 44.7572 50.6256C45.4308 50.7865 46.1194 50.7263 46.8621 50.4419C47.5135 50.1952 47.9408 49.8862 48.1058 49.5302C48.2658 49.1846 48.1911 48.764 47.7631 48.2555C47.6875 48.1659 47.615 48.0922 47.5295 48.021L47.5272 48.0194L47.5824 47.9577L47.527 48.0184C47.1426 47.6734 46.6905 47.5235 46.1336 47.4794C45.5734 47.4351 44.914 47.4986 44.1168 47.5747L44.1166 47.5737L40.7817 47.9362C34.8926 48.6215 31.2171 47.7876 28.372 45.4196L28.0997 45.1852C27.6054 44.7535 27.1483 44.27 26.702 43.7557L26.7009 43.7549C25.3192 42.1221 24.6784 40.4903 24.8427 38.9451C25.0049 37.4202 25.9498 36.0002 27.6938 34.7599L24.4819 30.977C24.4646 30.9567 24.4587 30.9285 24.4653 30.9026C24.472 30.8769 24.4908 30.8563 24.5156 30.8468L32.5302 27.7776L32.555 27.7721Z" fill="white" stroke="#082422" stroke-width="0.164607" stroke-linejoin="round"/>
<mask id="mask0_664_11565" style="mask-type:alpha" maskUnits="userSpaceOnUse" x="0" y="15" width="78" height="65">
<path d="M11.4023 19.7682C18.0561 15.3196 27.2852 14.1446 36.8251 15.8336C46.3658 17.5228 56.2233 22.0766 64.1376 29.0934C72.0443 36.1114 76.5118 44.2684 77.3388 51.7858C77.7922 55.9083 77.1473 59.8364 75.3778 63.2789C75.3771 63.282 75.3793 63.2858 75.3778 63.2887L73.2655 67.4166C71.8127 70.2591 69.5768 72.7544 66.581 74.7623C59.9271 79.2109 50.698 80.3859 41.1581 78.6969C31.6175 77.0077 21.7599 72.4539 13.8456 65.4371C1.60891 54.5766 -2.40533 40.9742 2.59073 31.2467L4.70303 27.1188C4.70858 27.108 4.71834 27.1006 4.7294 27.0973C6.18742 24.271 8.40417 21.7727 11.4023 19.7682Z" fill="white"/>
</mask>
<g mask="url(#mask0_664_11565)">
<path opacity="0.25" d="M43.0206 5.02441C47.8713 3.89162 52.234 4.387 55.3634 6.11035C57.0798 7.05577 58.4235 8.37116 59.2735 9.9873L60.712 12.7227C61.4108 14.0523 61.7781 15.5889 61.7384 17.292C61.6514 21.0569 59.6004 24.9209 56.3634 28.124C53.1259 31.3276 48.6973 33.8753 43.8438 35.0078C36.333 36.758 29.9893 34.6098 27.5909 30.0449L26.253 27.501C25.4861 26.1272 25.0837 24.5272 25.1261 22.7441C25.2131 18.9794 27.2632 15.1161 30.5001 11.9131C33.7346 8.71243 38.1577 6.16528 43.006 5.03125C43.0104 5.02847 43.0153 5.02569 43.0206 5.02441Z" fill="#002522"/>
</g>
<path d="M51.247 5.92728C51.2872 5.90619 51.3376 5.92146 51.3588 5.9615L52.7971 8.6962C53.4988 10.0312 53.8665 11.5739 53.8266 13.2826C53.7394 17.0584 51.6832 20.9294 48.4425 24.1363C45.2008 27.344 40.7666 29.8943 35.9071 31.0281C28.3891 32.7799 22.027 30.6316 19.6191 26.0483L18.1805 23.3145C18.1594 23.2744 18.1748 23.224 18.2149 23.2028C18.245 23.1869 18.2808 23.1919 18.3056 23.2121L18.3267 23.237L18.5594 23.6512C21.0827 27.8581 27.1893 29.823 34.4319 28.1333C39.2585 27.006 43.6639 24.4715 46.8843 21.2853C50.0048 18.1978 52.0067 14.505 52.2096 10.8936L52.2229 10.5442C52.2619 8.8737 51.9046 7.37327 51.2264 6.06552L51.2126 6.03903L51.2128 6.03807C51.192 5.99797 51.207 5.94843 51.247 5.92728Z" fill="#B9CC00" stroke="#082422" stroke-width="0.164607" stroke-linejoin="round"/>
<path d="M35.0682 0.981916C39.9245 -0.152193 44.295 0.343351 47.4329 2.07139C50.5737 3.80123 52.476 6.76541 52.3857 10.5482C52.2984 14.3238 50.2424 18.1941 47.0018 21.4009C43.7601 24.6087 39.3259 27.1599 34.4663 28.2937C29.6075 29.4273 25.2368 28.9322 22.0994 27.2048C18.9593 25.4758 17.059 22.5134 17.1486 18.7334L17.1619 18.379C17.3647 14.7161 19.3922 10.9863 22.5317 7.87949C25.7705 4.67458 30.1995 2.12448 35.0539 0.98913C35.0587 0.986964 35.0629 0.983145 35.0682 0.981916Z" fill="#DCFF00" stroke="#082422" stroke-width="0.164607" stroke-linejoin="round"/>
<path d="M33.6974 7.68395L33.721 7.70633L33.7258 7.71222L33.7262 7.71528L34.6596 9.0494L34.727 9.02447C35.1601 8.8561 35.5752 8.73098 35.963 8.64073C37.5779 8.26447 38.8186 8.53572 39.7098 9.47525C39.727 9.49334 39.735 9.51832 39.7316 9.54303C39.7282 9.56751 39.7145 9.58952 39.6934 9.60235L35.6397 12.0427C35.6055 12.0629 35.5616 12.0557 35.5355 12.0258C35.3786 11.8462 35.2063 11.7278 35.0177 11.6667C34.8289 11.6055 34.6179 11.5996 34.3818 11.6538C34.1525 11.7072 33.8995 11.8159 33.6218 11.9871L33.6207 11.9879C33.2069 12.2365 32.9883 12.4704 32.8931 12.6654C32.8003 12.8555 32.8238 13.0092 32.9004 13.1201C32.9805 13.2324 33.0896 13.2954 33.2362 13.3183C33.3865 13.3417 33.577 13.3231 33.8155 13.2687C34.2301 13.1727 34.7635 12.9681 35.4316 12.7128L36.1695 12.427C37.1634 12.0408 38.0048 11.7667 38.7204 11.596L39.0378 11.5273C39.7584 11.3848 40.3463 11.365 40.831 11.4735C41.3886 11.5983 41.8043 11.8916 42.1261 12.3476C42.5764 12.9892 42.6339 13.712 42.315 14.4833C41.9983 15.2492 41.3104 16.0621 40.2734 16.9056L40.2742 16.9067L40.2222 16.9495L41.2731 18.4432C41.2862 18.4619 41.2914 18.4851 41.2866 18.5074C41.2819 18.5297 41.268 18.549 41.2486 18.5608L37.3229 20.9242C37.2859 20.9464 37.238 20.9356 37.2132 20.9003L36.1586 19.3999L36.0864 19.4338L36.0843 19.4344C35.5034 19.6816 34.9653 19.8614 34.4582 19.9804C32.7989 20.3691 31.5115 20.0676 30.5905 19.0453C30.5741 19.0271 30.5661 19.002 30.5697 18.9777C30.5733 18.9536 30.5879 18.9322 30.6087 18.9195L34.9323 16.3219L34.959 16.312C34.9866 16.3068 35.016 16.3157 35.0356 16.3376C35.2235 16.5469 35.4207 16.6833 35.6332 16.7527C35.8454 16.822 36.079 16.8262 36.3419 16.7645C36.5933 16.705 36.8747 16.5863 37.1863 16.4006C37.567 16.1723 37.831 15.9428 37.9777 15.7273L37.9779 15.7263C38.0625 15.6057 38.1039 15.4919 38.1102 15.3887C38.1149 15.3122 38.1006 15.2382 38.0661 15.1676L38.025 15.0971C37.8808 14.8906 37.6289 14.8571 37.2439 14.9492L37.2428 14.95C36.972 15.0125 36.6476 15.1342 36.2884 15.2701L36.2892 15.2712L34.666 15.8903C33.7592 16.2475 32.978 16.5036 32.3055 16.6622L32.3045 16.662C31.4203 16.8695 30.7071 16.9079 30.1271 16.7698C29.5436 16.631 29.1011 16.3147 28.7577 15.8268C28.3378 15.2332 28.2955 14.5453 28.6025 13.8109C28.9078 13.0806 29.5589 12.302 30.5282 11.5107L30.5771 11.4684L29.6631 10.1737C29.6501 10.1551 29.6458 10.1319 29.6505 10.1097C29.6552 10.0874 29.669 10.0681 29.6886 10.0563L33.5892 7.70407C33.5943 7.69739 33.5994 7.69056 33.6067 7.68553C33.6347 7.66613 33.6704 7.66671 33.6974 7.68395Z" fill="white" stroke="#082422" stroke-width="0.164607" stroke-linejoin="round"/>
</g>
<defs>
<clipPath id="clip0_664_11565">
<rect width="78" height="80" fill="white"/>
</clipPath>
</defs>
</svg>
