<svg width="75" height="80" viewBox="0 0 75 80" fill="none" xmlns="http://www.w3.org/2000/svg">
<g clip-path="url(#clip0_664_11566)">
<path d="M46.0245 73.7618C62.0139 70.8431 72.1621 53.1478 68.6911 34.2382C65.2201 15.3286 49.4443 2.36533 33.4549 5.28396C17.4654 8.20259 7.31725 25.8979 10.7882 44.8075C14.2592 63.7171 30.035 76.6804 46.0245 73.7618Z" fill="#DCFF00" stroke="#082422" stroke-width="0.164607" stroke-miterlimit="10"/>
<path d="M41.5452 74.7147C57.5346 71.796 67.6828 54.1007 64.2118 35.1911C60.7408 16.2815 44.965 3.31821 28.9756 6.23684C12.9862 9.15547 2.83797 26.8508 6.30897 45.7604C9.77996 64.67 25.5558 77.6333 41.5452 74.7147Z" fill="#DCFF00" stroke="#082422" stroke-width="0.164607" stroke-miterlimit="10"/>
<path d="M39.1692 22.9641V27.3665C41.2764 27.8674 42.9598 28.7701 44.1692 30.0754C45.3912 31.3945 46.1242 33.1185 46.3254 35.2375L46.3342 35.3274H37.7824L37.7707 35.26C37.6092 34.3694 37.2878 33.707 36.8059 33.2678C36.3251 32.8297 35.6744 32.6048 34.8362 32.6047C34.0479 32.6047 33.4573 32.7793 33.0666 33.054C32.6782 33.3271 32.4846 33.7006 32.4846 34.1135C32.4846 34.425 32.5637 34.6743 32.7229 34.887C32.8836 35.1014 33.1304 35.2851 33.4738 35.4543C33.9912 35.7093 34.7125 35.9256 35.6555 36.175L36.6731 36.4377L36.674 36.4387L38.1272 36.8274L38.7053 36.9875C41.5418 37.7922 43.546 38.6677 44.8586 39.8196C46.2645 41.0535 46.8703 42.5985 46.8703 44.6858C46.8703 46.7043 46.1723 48.3964 44.8479 49.7034C43.537 50.9969 41.6179 51.907 39.1692 52.3899V57.2854H30.8303V52.3538C28.3803 51.8522 26.5227 50.88 25.2346 49.4934C23.9345 48.0939 23.2205 46.2805 23.0559 44.1262L23.049 44.0374H32.1125L32.1203 44.1106C32.2278 45.0691 32.558 45.7818 33.0969 46.2551C33.636 46.7285 34.3953 46.9729 35.3811 46.9729C36.2639 46.9729 36.9826 46.8228 37.4778 46.5286C37.9679 46.2372 38.2414 45.8034 38.2414 45.2161C38.2414 44.9564 38.1794 44.7498 38.0617 44.5764C37.9432 44.4018 37.7635 44.2545 37.5207 44.1213C37.0315 43.8531 36.3073 43.6523 35.3586 43.386V43.385L32.2717 42.5735V42.5725C29.1251 41.7758 26.9926 40.7905 25.6467 39.4895C24.2966 38.1844 23.7463 36.5696 23.7463 34.5374C23.7464 32.6971 24.3526 31.1205 25.5539 29.884C26.7428 28.6604 28.5087 27.7759 30.8303 27.2932V22.9641H39.1692Z" fill="white" stroke="#082422" stroke-width="0.164607"/>
</g>
<defs>
<clipPath id="clip0_664_11566">
<rect width="75" height="80" fill="white"/>
</clipPath>
</defs>
</svg>
