<svg width="179" height="80" viewBox="0 0 179 80" fill="none" xmlns="http://www.w3.org/2000/svg">
<g clip-path="url(#clip0_664_11628)">
<path d="M0.837927 74.7634L2.01598 76.6623C10.5545 79.0864 20.0219 79.7441 30.0256 79.3837C43.6917 78.8908 58.3564 76.4932 73.0222 74.0973C87.688 71.7014 102.355 69.3045 116.022 68.8116C126.025 68.4511 135.492 69.1072 144.03 71.5313L142.852 69.6324C134.314 67.2083 124.849 66.5512 114.843 66.9127C101.178 67.4073 86.51 69.8025 71.8442 72.1984C57.1767 74.5954 42.5136 76.9919 28.8476 77.4848C18.8449 77.8469 9.37649 77.1875 0.837927 74.7634Z" fill="#60D06F" stroke="#082422" stroke-width="0.210254" stroke-miterlimit="10" stroke-linejoin="round"/>
<path d="M142.823 69.6743L144.001 71.5732C155.56 49.6037 167.117 27.6353 178.675 5.66427L177.497 3.76538C165.938 25.7348 154.381 47.7032 142.823 69.6743Z" fill="#60D06F" stroke="#082422" stroke-width="0.210254" stroke-miterlimit="10" stroke-linejoin="round"/>
<path d="M149.5 1.00539C135.834 1.4983 121.169 3.89584 106.504 6.29172C91.8378 8.6876 77.1705 11.0845 63.5056 11.5791C53.5019 11.9395 44.0346 11.2818 35.4961 8.85774C23.9372 30.8268 12.3801 52.7947 0.822225 74.7654C9.36074 77.1895 18.828 77.8472 28.8317 77.4868C42.4977 76.9938 57.1623 74.5963 71.828 72.2004C86.4937 69.8046 101.161 67.4076 114.827 66.9147C124.831 66.5543 134.297 67.2104 142.835 69.6344C154.394 47.6654 165.951 25.6974 177.509 3.72673C168.972 1.30433 159.504 0.644965 149.501 1.00705L149.5 1.00539Z" fill="#60D06F" stroke="#082422" stroke-width="0.210254" stroke-miterlimit="10" stroke-linejoin="round"/>
<path d="M140.59 10.3056C128.69 10.7289 116.044 12.5721 103.397 14.4153C90.7527 16.2575 78.109 18.1013 66.2093 18.5246C61.8478 18.6793 57.5835 18.644 53.458 18.3489C52.8324 18.366 52.2604 18.7411 52.0153 19.2058C49.6866 23.6366 44.3799 27.1488 39.6636 27.3166C38.927 27.3434 38.2052 27.2873 37.5098 27.1409C37.3927 27.1153 37.2703 27.1069 37.1448 27.1119C36.5224 27.134 35.844 27.5044 35.5326 28.0983C30.9638 36.789 26.3977 45.4803 21.8289 54.171C21.4536 54.8834 21.7934 55.5639 22.4959 55.7105C27.6346 56.7935 29.9308 61.2267 27.2223 66.3773C26.9247 66.9418 27.1292 67.4792 27.7449 67.5236C31.8312 67.8111 36.048 67.844 40.3668 67.6907C52.2665 67.2674 64.9102 65.4236 77.555 63.5814C90.2014 61.7382 102.846 59.896 114.745 59.4711C119.111 59.316 123.378 59.3519 127.506 59.6476C128.218 59.6293 128.868 59.1958 129.146 58.6691C131.472 54.2448 136.766 50.7381 141.474 50.5712C142.216 50.5456 142.943 50.6003 143.641 50.75C143.746 50.7714 143.855 50.7811 143.968 50.7773C144.529 50.7568 145.141 50.4191 145.425 49.8839C150.034 41.1148 154.642 32.3467 159.251 23.5775C159.589 22.9345 159.289 22.3168 158.656 22.182C153.522 21.0889 151.23 16.6509 153.937 11.4987C154.198 11.0008 154.015 10.5334 153.476 10.4939C149.307 10.1889 145 10.1507 140.588 10.3067L140.59 10.3056Z" fill="#80E58A" stroke="#082422" stroke-width="0.210254" stroke-miterlimit="10"/>
<path d="M108.559 22.8718C105.419 22.9829 102.038 23.2988 98.4582 23.8153C86.2887 25.5689 74.6149 28.4073 65.9255 30.9233C61.5559 32.228 57.8782 33.5592 55.0149 35.0912C52.1532 36.6221 50.0943 38.3795 48.9966 40.4735C47.8998 42.5579 47.862 44.7861 48.8154 46.8876C49.7695 48.9865 51.7252 50.9312 54.6498 52.3785C58.7414 54.4849 64.8706 55.3885 72.3991 55.1192C75.5384 55.0081 78.9197 54.6922 82.4996 54.1757C94.6691 52.4221 106.341 49.5847 115.032 47.0677C119.402 45.763 123.08 44.4318 125.943 42.8998C128.805 41.3689 130.862 39.6125 131.964 37.5181C133.059 35.4348 133.097 33.2038 132.144 31.1023C131.19 29.0035 129.233 27.0598 126.311 25.6131C122.218 23.5051 116.09 22.6031 108.56 22.8708L108.559 22.8718Z" fill="#60D06F" stroke="#082422" stroke-width="0.210254" stroke-miterlimit="10"/>
</g>
<defs>
<clipPath id="clip0_664_11628">
<rect width="179" height="80" fill="white"/>
</clipPath>
</defs>
</svg>
