<svg width="70" height="80" viewBox="0 0 70 80" fill="none" xmlns="http://www.w3.org/2000/svg">
<g clip-path="url(#clip0_664_11616)">
<path d="M65.0292 6.06885C66.2577 6.8098 67.0663 8.26919 67.1786 10.4233L70.0692 65.438C70.2401 68.6992 68.7564 72.3572 66.5673 75.1978C64.3801 78.0356 61.4691 80.0823 58.7665 80.0825H13.4696C12.7294 80.0825 12.0812 79.9301 11.5233 79.646L11.2899 79.5161L2.08386 73.9409L2.1698 73.8003L2.3905 73.9243C2.9204 74.1955 3.5466 74.3422 4.26355 74.3423H49.5604C52.1843 74.3423 55.0531 72.3449 57.2294 69.522C59.4035 66.7017 60.8674 63.0811 60.6991 59.8706L57.8085 4.85693C57.6981 2.7444 56.9065 1.34401 55.7382 0.634277L55.7802 0.563965L55.8231 0.493652L65.0292 6.06885Z" fill="#A52C1A" stroke="#082422" stroke-width="0.164607"/>
<path d="M53.6367 -0.0820312C54.8234 -0.0820312 55.867 0.330422 56.6348 1.1582C57.4016 1.985 57.8861 3.21846 57.9717 4.84863L60.8623 59.8623C61.0333 63.1237 59.5496 66.7823 57.3604 69.623C55.1731 72.4611 52.2614 74.5068 49.5586 74.5068H4.2627C2.90864 74.5068 1.8593 73.9923 1.13184 73.1133C0.406313 72.2365 0.00585276 71.0041 -0.0693359 69.5771C-0.219658 66.7235 0.929006 63.0649 3.43359 59.8164L45.835 4.80273C48.3356 1.55862 51.2681 -0.0819855 53.6367 -0.0820312Z" fill="#F24E29" stroke="#082422" stroke-width="0.164607"/>
<path d="M30.4233 45.6343L35.9438 48.978L36.0366 49.0347L35.9565 49.1089L24.7944 59.521C24.4087 59.8829 23.9974 60.0706 23.6411 60.0708C23.4833 60.0708 23.3359 60.0297 23.2065 59.9536H23.2055L17.685 56.6089L17.7709 56.4683C17.8683 56.5282 17.986 56.562 18.1205 56.562C18.421 56.5619 18.7939 56.3961 19.1616 56.0562L30.3246 45.644L30.3696 45.6021L30.4233 45.6343Z" fill="#D6D6D6" stroke="#082422" stroke-width="0.164607"/>
<path d="M46.6125 24.9631L52.133 28.3069H52.132C52.2948 28.4029 52.4174 28.5623 52.4914 28.7717L53.3293 31.1409L53.3254 31.1428C53.4581 31.5198 53.4133 31.9986 53.2453 32.4661C53.0754 32.9385 52.7765 33.4105 52.3898 33.7708L41.2668 44.1506L44.9348 54.512L44.9767 54.6575C45.0573 55.0075 45.006 55.4274 44.8586 55.8391C44.6894 56.3116 44.3905 56.7848 44.0012 57.1477L41.466 59.5159C41.0803 59.8778 40.6691 60.0656 40.3127 60.0657C40.1549 60.0657 40.0075 60.0245 39.8781 59.9485H39.8771L34.3605 56.6057C34.3593 56.605 34.3579 56.6045 34.3566 56.6038L34.4426 56.4631C34.5399 56.5231 34.6577 56.5569 34.7922 56.5569C35.0928 56.5569 35.4663 56.3912 35.8342 56.051L38.3683 53.6829C38.7347 53.339 39.018 52.8889 39.1789 52.4397C39.3405 51.9886 39.3748 51.549 39.259 51.2229L35.5734 40.8108L35.5558 40.76L35.5949 40.7229L38.0285 38.4553L33.8742 35.9377L33.8498 35.9231L33.84 35.8948L30.1545 25.4827C30.0907 25.3021 29.9897 25.1775 29.8664 25.1047L29.8674 25.1038H29.8654L29.9504 24.9622L29.9514 24.9631L35.4709 28.3069H35.4699C35.6328 28.4029 35.7552 28.5623 35.8293 28.7717L38.9533 37.594L46.7629 30.3108C47.1291 29.9696 47.4125 29.5208 47.5734 29.0715C47.7349 28.6206 47.7695 28.1797 47.6535 27.8508L46.8156 25.4827C46.7518 25.3021 46.6509 25.1774 46.5275 25.1047V25.1038L46.5695 25.0334L46.6125 24.9631Z" fill="#D6D6D6" stroke="#082422" stroke-width="0.164607"/>
<path d="M46.1729 24.8506C46.3518 24.8507 46.5171 24.8983 46.6553 24.9971C46.7935 25.0959 46.9001 25.2424 46.9658 25.4326L47.8037 27.8008L47.8457 27.9473C47.9241 28.2991 47.8711 28.72 47.7236 29.1318C47.5544 29.6043 47.2568 30.0762 46.8701 30.4365L35.7471 40.8164L39.415 51.1777C39.5484 51.5531 39.5025 52.0343 39.334 52.5049C39.1648 52.9773 38.868 53.4506 38.4814 53.8135L35.9463 56.1816C35.5613 56.5376 35.1499 56.7313 34.793 56.7314C34.6137 56.7314 34.4475 56.6838 34.3086 56.585C34.1697 56.4862 34.0626 56.3394 33.9941 56.1494L30.3496 45.8545L19.2793 56.1816C18.8942 56.5377 18.4829 56.7314 18.126 56.7314C17.9468 56.7314 17.7809 56.6838 17.6426 56.585C17.5388 56.5107 17.4527 56.4095 17.3887 56.2832L17.332 56.1484L16.4941 53.7803C16.3611 53.4025 16.4067 52.9198 16.5752 52.4492C16.7444 51.9771 17.0413 51.5056 17.4277 51.1455L28.5508 40.7695L24.8838 30.4033C24.7505 30.028 24.7954 29.5467 24.9639 29.0762C25.1331 28.6038 25.4309 28.1314 25.8174 27.7686L28.3516 25.4004L28.3525 25.3994C28.7376 25.0435 29.149 24.8506 29.5059 24.8506C29.685 24.8506 29.8504 24.8983 29.9893 24.9971C30.0935 25.0712 30.1805 25.1718 30.2461 25.2979L30.3047 25.4326L33.9473 35.7256L45.0186 25.3994C45.4037 25.0433 45.8159 24.8506 46.1729 24.8506Z" fill="white" stroke="#082422" stroke-width="0.164607"/>
</g>
<defs>
<clipPath id="clip0_664_11616">
<rect width="70" height="80" fill="white"/>
</clipPath>
</defs>
</svg>
