<svg width="92" height="80" viewBox="0 0 92 80" fill="none" xmlns="http://www.w3.org/2000/svg">
<g clip-path="url(#clip0_664_11614)">
<path opacity="0.25" d="M91.9923 43.0929V43.0765C91.9321 42.1688 91.3791 41.3288 90.5175 40.8343L86.5919 38.509L67.4637 27.1637C66.31 26.4893 64.9333 26.1177 63.5866 26.1177C62.2399 26.1177 60.9126 26.467 59.7697 27.1279L52.1348 31.5358L2.44211 60.1833C1.54464 60.6875 0.997426 61.6145 0.977051 62.6703C0.977051 63.7038 1.50874 64.6386 2.39942 65.1708L25.7802 79.0262C26.8446 79.6629 28.0671 79.9997 29.3177 79.9997C30.5684 79.9997 31.7045 79.6871 32.7912 79.0707L44.2759 72.4469L82.8187 50.2277L90.5825 45.7473C91.546 45.2083 92.0718 44.2174 91.9903 43.0939L91.9923 43.0929Z" fill="black"/>
<path d="M32.4222 78.1885L88.6679 45.7718C89.839 45.1002 90.4502 43.938 90.4958 42.7584C90.5521 41.4888 90.9315 38.277 89.6808 37.5319L66.1865 26.1151C63.595 24.5803 60.3806 24.5629 57.7726 26.0648L0.844801 56.4541C-0.292319 57.1093 0.0550267 60.203 0.117122 61.1339C0.217057 62.6445 0.609033 63.8715 1.93341 64.6553L24.6972 78.1382C27.0733 79.5433 30.0276 79.5665 32.4212 78.1836V78.1895L32.4222 78.1885Z" fill="#50929D" stroke="black" stroke-width="0.0286551" stroke-miterlimit="10"/>
<path d="M32.4223 75.0222L88.668 42.6055C91.0956 41.2062 91.1179 37.7177 88.7078 36.2903L66.1924 22.9546C63.6009 21.4198 60.3865 21.4024 57.7785 22.9042L1.97423 55.0664C-0.498913 56.4889 -0.515407 60.0384 1.93445 61.4948L24.6982 74.9776C27.0743 76.3827 30.0287 76.406 32.4223 75.0231V75.0222Z" fill="#2BF2F1" stroke="black" stroke-width="0.0286551" stroke-miterlimit="10"/>
<path d="M89.5771 39.2211V39.2047C89.5189 38.3212 88.9805 37.5044 88.1422 37.0225L84.3223 34.7591L65.7093 23.7187C64.5867 23.0616 63.2468 22.7007 61.936 22.7007C60.6252 22.7007 59.3338 23.0403 58.2219 23.6839L50.7928 27.9727L2.43998 55.8509C1.56677 56.3415 1.03411 57.2434 1.01373 58.2711C1.01373 59.2775 1.53087 60.1861 2.39826 60.7038L25.1494 74.1857C26.1846 74.805 27.3751 75.1331 28.5918 75.1331C29.8085 75.1331 30.9136 74.8292 31.9721 74.2293L43.1473 67.7844L80.6519 46.1633L88.2072 41.8039C89.1454 41.2794 89.6567 40.3156 89.5771 39.2221V39.2211Z" fill="#6060BF"/>
<mask id="mask0_664_11614" style="mask-type:luminance" maskUnits="userSpaceOnUse" x="1" y="22" width="89" height="54">
<path d="M89.5781 39.221V39.2045C89.5199 38.321 88.9814 37.5043 88.1431 37.0224L84.3233 34.759L65.7102 23.7186C64.5876 23.0615 63.2477 22.7006 61.9369 22.7006C60.6261 22.7006 59.3347 23.0402 58.2229 23.6837L50.7937 27.9725L2.4409 55.8508C1.56768 56.3414 1.03502 57.2433 1.01465 58.271C1.01465 59.2774 1.53179 60.186 2.39918 60.7037L25.1503 74.1856C26.1856 74.8049 27.376 75.133 28.5927 75.133C29.8094 75.133 30.9145 74.8291 31.973 74.2291L43.1482 67.7843L80.6528 46.1632L88.2081 41.8038C89.1463 41.2793 89.6576 40.3154 89.5781 39.222V39.221Z" fill="white"/>
</mask>
<g mask="url(#mask0_664_11614)">
<g opacity="0.25">
<path d="M82.9152 25.9989C83.639 26.416 83.409 27.2269 82.4019 27.8104L62.3519 39.4314L71.5304 44.716C71.9757 44.9724 72.0767 45.3924 71.7982 45.8308C71.5236 46.2691 70.9095 46.6688 70.1663 46.8914L26.8664 59.8681C25.9971 60.1284 25.1035 60.1042 24.5844 59.8062C23.8606 59.3891 24.0896 58.5772 25.0967 57.9947L45.1467 46.3736L35.9682 41.0881C35.781 40.9807 35.6519 40.8433 35.5879 40.6856C35.3395 40.0672 36.1206 39.2737 37.3324 38.9127L80.6322 25.936C81.5006 25.6757 82.3951 25.6999 82.9142 25.9979L82.9152 25.9989Z" fill="black"/>
</g>
</g>
<path d="M76.9946 32.9197C77.5806 33.2536 77.5806 33.8023 76.9946 34.1361C76.397 34.4816 75.4519 34.4816 74.8659 34.1477L67.7511 30.0573C67.1535 29.7118 67.1409 29.1631 67.7511 28.8167C68.3255 28.4829 69.2696 28.4829 69.8799 28.8283L76.9946 32.9187V32.9197Z" fill="#282525"/>
<path d="M76.6138 50.2027L70.4256 53.7125C69.9609 53.9757 69.5844 54.565 69.5844 55.0285C69.5844 55.4921 69.9609 55.6537 70.4256 55.3904L76.6138 51.8806C77.0785 51.6174 77.455 51.0281 77.455 50.5646C77.455 50.101 77.0785 49.9394 76.6138 50.2027Z" fill="#418187" stroke="black" stroke-width="0.0286551" stroke-miterlimit="10"/>
<path d="M23.3178 0.0529342C23.3275 0.0529342 23.3372 0.0548695 23.3469 0.0558372C23.3605 0.0577726 23.3741 0.059708 23.3867 0.0616434C23.3974 0.0635788 23.4071 0.0655141 23.4178 0.0674495C23.4294 0.0703526 23.442 0.072288 23.4537 0.0751911C23.4643 0.0780941 23.475 0.0800295 23.4847 0.0829326C23.4954 0.0858357 23.5061 0.0887387 23.5167 0.0926095C23.5274 0.0964803 23.539 0.0993833 23.5497 0.103254C23.5594 0.106157 23.5691 0.110028 23.5779 0.113899C23.5895 0.117769 23.6002 0.122608 23.6108 0.127446C23.6196 0.131317 23.6293 0.135188 23.638 0.140026C23.6487 0.144865 23.6603 0.150671 23.671 0.155509C23.6797 0.15938 23.6885 0.164219 23.6972 0.169057C23.7079 0.174863 23.7195 0.180669 23.7302 0.187443C23.7389 0.192282 23.7467 0.19712 23.7554 0.201959C23.7661 0.208732 23.7768 0.215506 23.7874 0.22228C23.7952 0.227119 23.8039 0.232925 23.8117 0.238731C23.8224 0.246472 23.833 0.254214 23.8437 0.261955C23.8515 0.267762 23.8592 0.273568 23.867 0.279374C23.8777 0.287115 23.8883 0.295825 23.898 0.304534C23.9058 0.31034 23.9136 0.317114 23.9204 0.32292C23.9301 0.330662 23.9388 0.339371 23.9485 0.34808C23.9572 0.355822 23.966 0.363563 23.9737 0.371305C23.9824 0.379046 23.9902 0.387755 23.9989 0.396465C24.0077 0.406141 24.0174 0.414851 24.0261 0.424528C24.0339 0.432269 24.0407 0.440978 24.0484 0.44872C24.0581 0.460332 24.0688 0.470977 24.0785 0.482589C24.0853 0.490331 24.0911 0.498072 24.0979 0.505814C24.1095 0.519361 24.1202 0.533877 24.1309 0.547424C24.1367 0.555166 24.1435 0.563875 24.1493 0.572584C24.161 0.589035 24.1736 0.605486 24.1852 0.622904C24.191 0.630646 24.1959 0.638387 24.2017 0.647097C24.2202 0.67516 24.2376 0.703223 24.2541 0.732253C24.2551 0.735157 24.257 0.737092 24.258 0.739995C24.2784 0.774832 24.2968 0.810636 24.3152 0.847409C24.3181 0.853215 24.3211 0.859021 24.324 0.864827C24.3366 0.891922 24.3492 0.919018 24.3618 0.947081C24.3618 0.947081 24.3618 0.949016 24.3628 0.949984C24.3754 0.979015 24.387 1.00805 24.3977 1.03804C24.4006 1.04579 24.4035 1.05353 24.4064 1.06127C24.4161 1.08836 24.4258 1.11546 24.4346 1.14352C24.4375 1.1532 24.4404 1.16288 24.4443 1.17255C24.455 1.20739 24.4656 1.24319 24.4744 1.279C24.4744 1.279 24.4744 1.28093 24.4744 1.2819C24.4831 1.31674 24.4918 1.35254 24.4996 1.38932C24.5015 1.39996 24.5035 1.40964 24.5054 1.42028C24.5112 1.45028 24.517 1.48125 24.5219 1.51125C24.5229 1.51995 24.5248 1.5277 24.5258 1.5364C24.5287 1.55866 24.5316 1.58189 24.5345 1.60511C24.5355 1.61479 24.5374 1.62446 24.5384 1.63414C24.5423 1.66704 24.5452 1.69994 24.5471 1.73285C24.5471 1.73478 24.5471 1.73672 24.5471 1.73865C24.55 1.7793 24.552 1.81994 24.552 1.86058C24.552 1.8809 24.5529 1.90122 24.5529 1.92251V22.5382H27.6548V1.87897V1.87703C27.6548 1.87123 27.6548 1.86639 27.6548 1.86058C27.6548 1.81994 27.6519 1.7793 27.65 1.73865C27.65 1.73672 27.65 1.73478 27.65 1.73381C27.65 1.73381 27.65 1.73381 27.65 1.73285C27.648 1.69994 27.6441 1.66704 27.6412 1.63414C27.6402 1.62446 27.6383 1.61479 27.6373 1.60511C27.6344 1.58189 27.6315 1.55866 27.6286 1.5364C27.6286 1.5335 27.6286 1.53157 27.6276 1.52866C27.6276 1.52286 27.6257 1.51705 27.6247 1.51125C27.6199 1.48028 27.614 1.45028 27.6082 1.42028C27.6063 1.40964 27.6043 1.39899 27.6024 1.38932C27.5946 1.35351 27.5869 1.31771 27.5772 1.2819C27.5772 1.2819 27.5772 1.27997 27.5772 1.279C27.5675 1.24319 27.5578 1.20739 27.5471 1.17255C27.5442 1.16288 27.5413 1.1532 27.5374 1.14352C27.5287 1.11546 27.519 1.08836 27.5093 1.06127C27.5073 1.05546 27.5054 1.05062 27.5034 1.04482C27.5034 1.04288 27.5015 1.03998 27.5005 1.03804C27.4889 1.00805 27.4772 0.979015 27.4656 0.949984C27.4656 0.949984 27.4656 0.948049 27.4646 0.947081C27.453 0.919018 27.4404 0.891922 27.4268 0.864827C27.4258 0.862892 27.4249 0.859989 27.4239 0.858053C27.4219 0.854183 27.42 0.851279 27.4181 0.847409C27.3996 0.810636 27.3812 0.774832 27.3608 0.739995C27.3598 0.73806 27.3589 0.736124 27.3579 0.734189C27.3579 0.734189 27.3579 0.733221 27.3569 0.732253C27.3404 0.703223 27.322 0.67516 27.3045 0.647097C27.3026 0.644194 27.3007 0.64129 27.2987 0.638387C27.2948 0.633549 27.2919 0.628711 27.2881 0.622904C27.2764 0.605486 27.2648 0.589035 27.2522 0.572584C27.2483 0.567746 27.2454 0.562907 27.2415 0.558069C27.2386 0.554198 27.2357 0.551295 27.2327 0.547424C27.2221 0.532909 27.2104 0.519361 27.1998 0.505814C27.1949 0.500008 27.191 0.494201 27.1862 0.488395C27.1842 0.48646 27.1823 0.484524 27.1804 0.481621C27.1707 0.470009 27.1609 0.459365 27.1503 0.447752C27.1445 0.440978 27.1386 0.434205 27.1328 0.428398C27.1309 0.426463 27.1299 0.425495 27.128 0.42356C27.1192 0.413883 27.1095 0.405174 27.1008 0.395497C27.094 0.388723 27.0872 0.380982 27.0794 0.374208C27.0785 0.37324 27.0765 0.371305 27.0756 0.370337C27.0668 0.362595 27.0581 0.354854 27.0503 0.347112C27.0426 0.340338 27.0348 0.332597 27.0271 0.325823C27.0251 0.324855 27.0241 0.32292 27.0222 0.321952C27.0144 0.315179 27.0067 0.309372 26.9999 0.303566C26.9921 0.296792 26.9834 0.290019 26.9756 0.283245C26.9737 0.281309 26.9708 0.280342 26.9688 0.278406C26.9611 0.2726 26.9533 0.266794 26.9456 0.260988C26.9378 0.255182 26.93 0.249375 26.9223 0.243569C26.9194 0.241634 26.9165 0.239699 26.9135 0.237763C26.9058 0.231957 26.898 0.227119 26.8893 0.221312C26.8825 0.216474 26.8757 0.211636 26.8689 0.207765C26.865 0.204862 26.8611 0.202926 26.8573 0.200991C26.8485 0.196152 26.8408 0.191314 26.832 0.186476C26.8262 0.182605 26.8204 0.178734 26.8136 0.175831C26.8088 0.172928 26.8039 0.170993 26.799 0.168089C26.7903 0.163251 26.7816 0.15938 26.7729 0.154542C26.768 0.151639 26.7622 0.148736 26.7573 0.1468C26.7515 0.143897 26.7457 0.141962 26.7399 0.139059C26.7311 0.135188 26.7214 0.130349 26.7127 0.126479C26.7078 0.124543 26.704 0.122608 26.6991 0.120673C26.6923 0.117769 26.6855 0.115834 26.6787 0.112931C26.669 0.10906 26.6593 0.106157 26.6506 0.102286C26.6467 0.101319 26.6428 0.0993833 26.639 0.097448C26.6322 0.0955126 26.6254 0.0935772 26.6176 0.0916418C26.6069 0.0887387 26.5963 0.084868 26.5856 0.0819649C26.5817 0.0809972 26.5778 0.0800295 26.574 0.0780941C26.5672 0.0761588 26.5604 0.0751911 26.5536 0.0732557C26.5419 0.0703526 26.5293 0.0674495 26.5177 0.0655141C26.5138 0.0655141 26.5089 0.0635788 26.5051 0.0626111C26.4992 0.0616434 26.4934 0.0606757 26.4866 0.059708C26.473 0.0577726 26.4595 0.0558372 26.4469 0.0539019C26.442 0.0539019 26.4372 0.0519665 26.4323 0.0519665C26.4274 0.0519665 26.4226 0.0519665 26.4187 0.0519665C26.4013 0.0500311 26.3838 0.0490634 26.3663 0.0490634C26.3605 0.0490634 26.3547 0.0480957 26.3489 0.0480957C26.3421 0.0480957 26.3362 0.0480957 26.3295 0.0480957H23.2276C23.2402 0.0480957 23.2519 0.0480957 23.2645 0.0490634C23.2819 0.0490634 23.2994 0.0509988 23.3169 0.0529342H23.3178Z" fill="#CFCABF" stroke="black" stroke-width="0.0286551" stroke-miterlimit="10"/>
<path d="M38.2874 24.3546C38.2874 24.3178 38.2854 24.282 38.2825 24.2462C38.2825 24.2414 38.2825 24.2366 38.2825 24.2317C38.2816 24.2153 38.2796 24.1978 38.2777 24.1814C38.2767 24.1678 38.2757 24.1553 38.2738 24.1417C38.2709 24.1146 38.268 24.0885 38.2641 24.0614C38.2631 24.0527 38.2621 24.043 38.2602 24.0343C38.2602 24.0333 38.2602 24.0314 38.2602 24.0304C38.2592 24.0217 38.2573 24.013 38.2554 24.0043C38.2505 23.9743 38.2457 23.9433 38.2398 23.9133C38.2369 23.8988 38.234 23.8843 38.2301 23.8698C38.2243 23.8446 38.2195 23.8195 38.2127 23.7943C38.2088 23.7788 38.2049 23.7633 38.2001 23.7479C38.1942 23.7246 38.1874 23.7014 38.1806 23.6782C38.1758 23.6627 38.1709 23.6463 38.1661 23.6308C38.1583 23.6085 38.1506 23.5863 38.1428 23.564C38.1399 23.5553 38.137 23.5456 38.1341 23.5369C38.1321 23.5321 38.1292 23.5263 38.1273 23.5214C38.1108 23.4779 38.0924 23.4343 38.073 23.3927C38.0652 23.3763 38.0574 23.3598 38.0497 23.3434C38.0468 23.3376 38.0429 23.3318 38.04 23.326C38.0254 23.296 38.0099 23.2679 37.9934 23.2389C37.9895 23.2321 37.9866 23.2253 37.9827 23.2185C37.9808 23.2156 37.9798 23.2137 37.9779 23.2108C37.9662 23.1914 37.9546 23.1721 37.942 23.1527C37.9361 23.1431 37.9303 23.1334 37.9235 23.1237C37.9226 23.1218 37.9216 23.1208 37.9206 23.1189C37.9129 23.1073 37.9051 23.0966 37.8973 23.086C37.8876 23.0724 37.8779 23.0579 37.8682 23.0453C37.8663 23.0434 37.8653 23.0415 37.8634 23.0395C37.8566 23.0308 37.8498 23.0231 37.843 23.0144C37.8333 23.0018 37.8236 22.9892 37.8139 22.9776C37.811 22.9737 37.8071 22.9698 37.8042 22.9669C37.7974 22.9592 37.7906 22.9515 37.7838 22.9437C37.7761 22.935 37.7693 22.9273 37.7615 22.9186C37.7557 22.9118 37.7489 22.906 37.7431 22.9002C37.7363 22.8934 37.7295 22.8866 37.7227 22.8798C37.7178 22.875 37.714 22.8702 37.7091 22.8663C37.6975 22.8547 37.6858 22.845 37.6742 22.8344C37.6703 22.8305 37.6655 22.8266 37.6616 22.8228C37.6606 22.8218 37.6587 22.8208 37.6577 22.8189C37.6402 22.8034 37.6228 22.7899 37.6053 22.7753C37.6034 22.7734 37.6004 22.7715 37.5985 22.7705C37.5937 22.7666 37.5878 22.7628 37.583 22.7589C37.5733 22.7511 37.5636 22.7434 37.5529 22.7366C37.5461 22.7318 37.5393 22.727 37.5316 22.7231C37.5248 22.7192 37.5189 22.7144 37.5122 22.7105C37.5073 22.7076 37.5034 22.7047 37.4986 22.7018C37.4821 22.6911 37.4656 22.6815 37.4491 22.6728C37.4481 22.6728 37.4462 22.6708 37.4452 22.6699C37.4452 22.6699 37.4452 22.6699 37.4442 22.6699C37.4258 22.6592 37.4064 22.6495 37.388 22.6408C37.3841 22.6389 37.3802 22.6379 37.3763 22.636C37.3695 22.6331 37.3627 22.6302 37.3559 22.6273C37.3472 22.6234 37.3385 22.6195 37.3297 22.6157C37.321 22.6118 37.3123 22.6089 37.3036 22.606C37.2958 22.6031 37.289 22.6002 37.2812 22.5973C37.2774 22.5953 37.2725 22.5944 37.2686 22.5924C37.2521 22.5866 37.2356 22.5818 37.2191 22.5779C37.2153 22.577 37.2114 22.575 37.2065 22.5741C37.2065 22.5741 37.2046 22.5741 37.2036 22.5741C37.1813 22.5683 37.158 22.5624 37.1347 22.5586C37.1328 22.5586 37.1318 22.5586 37.1299 22.5586C37.1211 22.5566 37.1124 22.5557 37.1037 22.5547C37.0891 22.5528 37.0746 22.5499 37.061 22.5479C37.0581 22.5479 37.0552 22.5479 37.0513 22.5479C37.0377 22.547 37.0251 22.546 37.0115 22.545C36.9999 22.545 36.9892 22.5431 36.9776 22.5431C36.9708 22.5431 36.964 22.5431 36.9572 22.5431H33.8553C33.8738 22.5431 33.8912 22.5441 33.9087 22.545C33.9223 22.545 33.9349 22.546 33.9485 22.5479C33.9659 22.5499 33.9834 22.5518 34.0009 22.5547C34.0096 22.5557 34.0183 22.5566 34.0271 22.5586C34.0523 22.5634 34.0775 22.5692 34.1027 22.576C34.1066 22.577 34.1105 22.5789 34.1153 22.5799C34.1357 22.5857 34.1571 22.5924 34.1774 22.5992C34.1852 22.6021 34.192 22.605 34.1998 22.6079C34.2172 22.6147 34.2347 22.6215 34.2521 22.6292C34.2589 22.6321 34.2657 22.635 34.2725 22.6379C34.2958 22.6486 34.3191 22.6602 34.3414 22.6728C34.3424 22.6728 34.3443 22.6747 34.3453 22.6757C34.3666 22.6873 34.388 22.7008 34.4084 22.7144C34.4152 22.7182 34.421 22.7231 34.4278 22.727C34.4452 22.7386 34.4617 22.7502 34.4792 22.7628C34.484 22.7666 34.4899 22.7705 34.4947 22.7744C34.5161 22.7908 34.5374 22.8082 34.5578 22.8266C34.5617 22.8305 34.5665 22.8344 34.5704 22.8382C34.5869 22.8528 34.6034 22.8682 34.6189 22.8847C34.6257 22.8915 34.6325 22.8982 34.6393 22.905C34.6529 22.9195 34.6664 22.934 34.68 22.9486C34.6868 22.9563 34.6936 22.964 34.7004 22.9718C34.714 22.9873 34.7266 23.0037 34.7392 23.0192C34.746 23.0279 34.7528 23.0356 34.7586 23.0444C34.7703 23.0598 34.7809 23.0753 34.7926 23.0918C34.8003 23.1024 34.8081 23.114 34.8159 23.1247C34.8236 23.1353 34.8304 23.1469 34.8372 23.1585C34.8488 23.1779 34.8615 23.1963 34.8731 23.2166C34.878 23.2253 34.8838 23.235 34.8886 23.2437C34.9042 23.2718 34.9197 23.3008 34.9352 23.3298C34.9459 23.3521 34.9575 23.3743 34.9682 23.3966C34.9876 23.4382 35.0051 23.4818 35.0215 23.5253C35.0274 23.5388 35.0322 23.5534 35.0371 23.5679C35.0448 23.5901 35.0526 23.6124 35.0604 23.6346C35.0652 23.6501 35.0701 23.6656 35.0749 23.6821C35.0817 23.7053 35.0885 23.7285 35.0943 23.7517C35.0982 23.7672 35.103 23.7827 35.1069 23.7982C35.1128 23.8233 35.1186 23.8485 35.1244 23.8737C35.1273 23.8882 35.1312 23.9027 35.1341 23.9172C35.1399 23.9472 35.1448 23.9772 35.1496 24.0082C35.1516 24.0179 35.1535 24.0275 35.1545 24.0382C35.1554 24.0469 35.1564 24.0566 35.1584 24.0653C35.1622 24.0924 35.1651 24.1185 35.1681 24.1456C35.169 24.1591 35.17 24.1717 35.1719 24.1853C35.1739 24.2066 35.1758 24.2288 35.1768 24.2501C35.1787 24.2859 35.1807 24.3227 35.1816 24.3585C35.1816 24.3662 35.1816 24.373 35.1816 24.3807C35.1816 24.4059 35.1816 24.4301 35.1816 24.4552C35.1816 24.4698 35.1816 24.4833 35.1816 24.4978C35.1816 24.5065 35.1816 24.5152 35.1807 24.524C35.1797 24.552 35.1787 24.581 35.1758 24.6091C35.1758 24.6198 35.1739 24.6304 35.1729 24.641C35.171 24.6662 35.1681 24.6923 35.1651 24.7175C35.1642 24.7291 35.1622 24.7407 35.1603 24.7523C35.1574 24.7765 35.1535 24.8007 35.1496 24.8249C35.1477 24.8365 35.1457 24.8472 35.1438 24.8588C35.1389 24.8868 35.1341 24.9149 35.1283 24.943C35.1273 24.9488 35.1263 24.9546 35.1244 24.9614C35.1176 24.9943 35.1089 25.0281 35.1011 25.061C35.0992 25.0697 35.0963 25.0775 35.0943 25.0862C35.0856 25.1171 35.0769 25.1481 35.0672 25.1791L24.4372 58.9138C24.4333 58.9273 24.4285 58.9399 24.4246 58.9534C24.4197 58.9689 24.4139 58.9844 24.4081 58.9999C24.4052 59.0076 24.4023 59.0163 24.3994 59.0241C24.3926 59.0415 24.3868 59.0579 24.38 59.0754C24.378 59.0812 24.3751 59.087 24.3732 59.0928C24.3635 59.116 24.3538 59.1383 24.3441 59.1605C24.3421 59.1654 24.3392 59.1702 24.3373 59.175C24.3285 59.1934 24.3208 59.2108 24.3121 59.2283C24.3082 59.235 24.3053 59.2418 24.3014 59.2486C24.2926 59.266 24.2829 59.2834 24.2742 59.3008C24.2713 59.3057 24.2684 59.3115 24.2655 59.3163C24.2529 59.3386 24.2403 59.3608 24.2267 59.3821C24.2238 59.387 24.2208 59.3908 24.2179 59.3957C24.2053 59.416 24.1917 59.4363 24.1782 59.4557C24.1752 59.4595 24.1733 59.4634 24.1704 59.4663C24.1539 59.4905 24.1364 59.5137 24.118 59.537C24.1151 59.5408 24.1122 59.5447 24.1083 59.5486C24.087 59.5747 24.0656 59.6008 24.0443 59.625C24.0404 59.6289 24.0365 59.6337 24.0326 59.6376C24.0219 59.6492 24.0113 59.6608 23.9996 59.6715C23.9958 59.6753 23.9919 59.6792 23.988 59.6831C23.9734 59.6976 23.9579 59.7121 23.9434 59.7266C23.9366 59.7324 23.9298 59.7382 23.923 59.744C23.9162 59.7499 23.9104 59.7557 23.9036 59.7615C23.8968 59.7673 23.89 59.7731 23.8832 59.7779C23.8764 59.7837 23.8696 59.7886 23.8628 59.7944C23.856 59.8002 23.8483 59.805 23.8415 59.8108C23.8347 59.8157 23.8279 59.8205 23.8211 59.8253C23.8133 59.8302 23.8066 59.835 23.7988 59.8408C23.792 59.8457 23.7852 59.8505 23.7784 59.8544C23.7707 59.8592 23.7639 59.864 23.7561 59.8679C23.7493 59.8718 23.7425 59.8766 23.7357 59.8805C23.728 59.8853 23.7202 59.8892 23.7124 59.8931C23.7057 59.8969 23.6989 59.9008 23.6911 59.9047C23.6833 59.9086 23.6756 59.9124 23.6678 59.9163C23.661 59.9202 23.6542 59.9231 23.6465 59.9269C23.6387 59.9308 23.6309 59.9337 23.6222 59.9376C23.6154 59.9405 23.6077 59.9444 23.6009 59.9473C23.5931 59.9502 23.5853 59.954 23.5766 59.9569C23.5688 59.9598 23.5621 59.9627 23.5553 59.9656C23.5475 59.9685 23.5388 59.9715 23.531 59.9744C23.5242 59.9773 23.5165 59.9792 23.5097 59.9821C23.5009 59.985 23.4922 59.9869 23.4844 59.9898C23.4776 59.9918 23.4699 59.9937 23.4631 59.9956C23.4544 59.9976 23.4447 59.9995 23.4359 60.0024C23.4291 60.0044 23.4223 60.0053 23.4155 60.0073C23.4058 60.0092 23.3961 60.0111 23.3864 60.0121C23.3806 60.0131 23.3738 60.014 23.368 60.015C23.3583 60.0169 23.3476 60.0179 23.3379 60.0189C23.3321 60.0189 23.3263 60.0208 23.3195 60.0208C23.3098 60.0218 23.2991 60.0227 23.2894 60.0227C23.2836 60.0227 23.2768 60.0237 23.271 60.0237C23.2545 60.0237 23.238 60.0247 23.2225 60.0247H26.3243C26.3408 60.0247 26.3573 60.0247 26.3728 60.0237C26.3787 60.0237 26.3855 60.0227 26.3913 60.0227C26.401 60.0227 26.4116 60.0218 26.4214 60.0208C26.4272 60.0208 26.433 60.0189 26.4388 60.0189C26.4495 60.0179 26.4592 60.0169 26.4699 60.015C26.4757 60.015 26.4825 60.0131 26.4883 60.0121C26.498 60.0102 26.5077 60.0092 26.5184 60.0063C26.5252 60.0053 26.532 60.0034 26.5387 60.0014C26.5475 59.9995 26.5572 59.9976 26.5659 59.9947C26.5727 59.9927 26.5805 59.9908 26.5873 59.9889C26.596 59.9869 26.6047 59.984 26.6125 59.9811C26.6203 59.9792 26.627 59.9763 26.6348 59.9734C26.6426 59.9705 26.6513 59.9676 26.6591 59.9647C26.6668 59.9618 26.6736 59.9589 26.6814 59.956C26.6891 59.9531 26.6969 59.9502 26.7056 59.9463C26.7124 59.9434 26.7202 59.9395 26.727 59.9366C26.7347 59.9327 26.7435 59.9298 26.7512 59.926C26.758 59.9231 26.7648 59.9192 26.7726 59.9153C26.7803 59.9115 26.7881 59.9076 26.7959 59.9037C26.8027 59.8998 26.8104 59.896 26.8172 59.8921C26.825 59.8882 26.8327 59.8834 26.8405 59.8795C26.8473 59.8756 26.8541 59.8708 26.8609 59.8669C26.8686 59.8621 26.8754 59.8582 26.8832 59.8534C26.89 59.8486 26.8968 59.8447 26.9036 59.8398C26.9113 59.835 26.9181 59.8302 26.9259 59.8244C26.9327 59.8195 26.9395 59.8147 26.9463 59.8098C26.953 59.804 26.9608 59.7992 26.9676 59.7934C26.9744 59.7886 26.9812 59.7828 26.988 59.7769C26.9948 59.7711 27.0016 59.7663 27.0083 59.7605C27.0151 59.7547 27.021 59.7489 27.0278 59.7431C27.0336 59.7373 27.0404 59.7324 27.0462 59.7266C27.0462 59.7266 27.0472 59.7257 27.0481 59.7247C27.0636 59.7111 27.0782 59.6966 27.0928 59.6821C27.0966 59.6782 27.1005 59.6744 27.1044 59.6705C27.1151 59.6589 27.1257 59.6482 27.1364 59.6366C27.1384 59.6347 27.1413 59.6318 27.1432 59.6299C27.1451 59.6279 27.1461 59.626 27.1481 59.6241C27.1704 59.5999 27.1917 59.5747 27.2121 59.5476C27.2131 59.5457 27.215 59.5447 27.216 59.5428C27.2179 59.5408 27.2189 59.5379 27.2208 59.536C27.2383 59.5128 27.2558 59.4895 27.2732 59.4654C27.2732 59.4644 27.2752 59.4634 27.2752 59.4624C27.2771 59.4595 27.279 59.4566 27.28 59.4547C27.2936 59.4354 27.3062 59.415 27.3198 59.3947C27.3217 59.3918 27.3237 59.3889 27.3256 59.386C27.3266 59.3841 27.3276 59.3831 27.3285 59.3812C27.3421 59.3599 27.3547 59.3376 27.3673 59.3154C27.3673 59.3144 27.3693 59.3125 27.3693 59.3115C27.3712 59.3076 27.3732 59.3037 27.3751 59.2999C27.3848 59.2825 27.3935 59.266 27.4023 59.2476C27.4042 59.2438 27.4061 59.2408 27.4081 59.237C27.41 59.2341 27.411 59.2302 27.4129 59.2273C27.4217 59.2099 27.4304 59.1925 27.4382 59.1741C27.4401 59.1702 27.442 59.1663 27.443 59.1625C27.443 59.1615 27.443 59.1605 27.444 59.1596C27.4537 59.1373 27.4634 59.115 27.4731 59.0918C27.4731 59.0909 27.4741 59.0899 27.475 59.088C27.477 59.0831 27.4789 59.0783 27.4799 59.0744C27.4867 59.057 27.4935 59.0405 27.5003 59.0231C27.5012 59.0202 27.5032 59.0163 27.5041 59.0134C27.5061 59.0086 27.507 59.0038 27.509 58.9989C27.5148 58.9834 27.5197 58.968 27.5255 58.9525C27.5274 58.9476 27.5294 58.9428 27.5303 58.938C27.5332 58.9292 27.5362 58.9215 27.5381 58.9128L38.168 25.1781C38.1739 25.1607 38.1787 25.1433 38.1836 25.1259C38.1874 25.1123 38.1913 25.0988 38.1942 25.0852C38.1962 25.0765 38.1991 25.0688 38.201 25.0601C38.202 25.0552 38.203 25.0513 38.2049 25.0465C38.2117 25.0194 38.2185 24.9923 38.2243 24.9652C38.2243 24.9633 38.2243 24.9623 38.2253 24.9604C38.2263 24.9546 38.2272 24.9488 38.2292 24.942C38.233 24.9217 38.2379 24.9014 38.2418 24.881C38.2427 24.8733 38.2437 24.8656 38.2457 24.8588C38.2476 24.8472 38.2495 24.8365 38.2515 24.8249C38.2534 24.8143 38.2554 24.8036 38.2563 24.793C38.2583 24.7794 38.2602 24.7659 38.2612 24.7523C38.2631 24.7407 38.2641 24.7291 38.266 24.7175C38.266 24.7117 38.268 24.7068 38.268 24.701C38.2699 24.6807 38.2719 24.6604 38.2738 24.641C38.2738 24.6304 38.2757 24.6198 38.2767 24.6101C38.2767 24.6081 38.2767 24.6052 38.2767 24.6033C38.2786 24.5772 38.2796 24.551 38.2806 24.5249C38.2806 24.5162 38.2816 24.5075 38.2816 24.4988C38.2816 24.4988 38.2816 24.4978 38.2816 24.4969C38.2816 24.4833 38.2816 24.4698 38.2816 24.4562C38.2816 24.4311 38.2816 24.4069 38.2816 24.3817C38.2816 24.3807 38.2816 24.3798 38.2816 24.3778C38.2816 24.372 38.2816 24.3653 38.2816 24.3594L38.2874 24.3546Z" fill="#CFCABF" stroke="black" stroke-width="0.0286551" stroke-miterlimit="10"/>
<path d="M23.228 0.0480957C23.9624 0.0480957 24.5562 0.888052 24.5562 1.92348V22.5392H33.8569C34.3091 22.5392 34.7272 22.8614 34.9708 23.3936C35.2162 23.9249 35.2541 24.5955 35.0717 25.1742L24.4417 58.9089C24.2283 59.5863 23.7529 60.0227 23.227 60.0227C22.4925 60.0227 21.8987 59.1827 21.8987 58.1473V37.5316H12.598C12.4069 37.5316 12.2225 37.4755 12.0518 37.3681C11.3833 36.9452 11.0844 35.8391 11.3843 34.8966L22.0132 1.16191C22.2267 0.484525 22.7021 0.0480957 23.228 0.0480957Z" fill="#EFEBE7" stroke="black" stroke-width="0.0286551" stroke-miterlimit="10"/>
<path d="M67.0883 28.8013L67.0767 32.9304L65.6921 33.9668L65.7038 29.8377L67.0883 28.8013Z" fill="#BBCE00" stroke="black" stroke-width="0.0286551" stroke-linecap="round" stroke-linejoin="round"/>
<path d="M63.5934 29.4492L63.605 25.3201C63.5982 27.6648 65.5766 29.7066 65.7037 29.8373L65.692 33.9664C65.5659 33.8358 63.5876 31.7949 63.5934 29.4492Z" fill="#85A309"/>
<mask id="mask1_664_11614" style="mask-type:luminance" maskUnits="userSpaceOnUse" x="63" y="25" width="3" height="9">
<path d="M63.5939 29.4492L63.6056 25.3201C63.5988 27.6648 65.5771 29.7066 65.7042 29.8373L65.6926 33.9664C65.5664 33.8358 63.5881 31.7949 63.5939 29.4492Z" fill="white"/>
</mask>
<g mask="url(#mask1_664_11614)">
<path d="M65.7042 29.8373L65.6926 33.9664C65.5664 33.8358 63.5881 31.7949 63.5939 29.4492L63.6056 25.3201C63.5988 27.6648 65.5771 29.7066 65.7042 29.8373Z" fill="#85A309" stroke="black" stroke-width="0.0286551" stroke-linecap="round" stroke-linejoin="round"/>
</g>
<path d="M63.5934 29.4492L63.605 25.3201C63.5982 27.6648 65.5766 29.7066 65.7037 29.8373L65.692 33.9664C65.5659 33.8358 63.5876 31.7949 63.5934 29.4492Z" stroke="black" stroke-width="0.0286551" stroke-linecap="round" stroke-linejoin="round"/>
<path d="M86.2069 28.0831C86.205 28.1257 86.2021 28.1683 86.1972 28.2118C86.1934 28.2495 86.1885 28.2873 86.1827 28.3241C86.1769 28.3666 86.1701 28.4092 86.1623 28.4518C86.1555 28.4895 86.1468 28.5273 86.139 28.565C86.1293 28.6066 86.1196 28.6482 86.1089 28.6898C86.0983 28.7276 86.0876 28.7653 86.076 28.8031C86.0633 28.8447 86.0498 28.8853 86.0352 28.9269C86.0216 28.9637 86.008 29.0005 85.9935 29.0372C85.976 29.0808 85.9586 29.1234 85.9392 29.1669C85.9227 29.2027 85.9062 29.2395 85.8887 29.2753C85.8674 29.3179 85.845 29.3605 85.8227 29.403C85.7975 29.4485 85.7732 29.495 85.7461 29.5404C85.7403 29.5511 85.7344 29.5608 85.7276 29.5714C85.6879 29.6362 85.6452 29.7011 85.6005 29.7659C85.5918 29.7785 85.5831 29.7901 85.5753 29.8027C85.5297 29.8666 85.4822 29.9304 85.4317 29.9933C85.422 30.0059 85.4113 30.0175 85.4016 30.0301C85.357 30.0843 85.3104 30.1395 85.2629 30.1927C85.2493 30.2072 85.2367 30.2217 85.2231 30.2372C85.1659 30.2991 85.1067 30.3611 85.0446 30.423C85.033 30.4346 85.0203 30.4462 85.0087 30.4569C84.9621 30.5023 84.9126 30.5468 84.8632 30.5914C84.8224 30.6272 84.7817 30.6639 84.739 30.6988C84.7002 30.7317 84.6613 30.7646 84.6206 30.7965C84.5769 30.8323 84.5313 30.8672 84.4857 30.902C84.444 30.9339 84.4013 30.9659 84.3586 30.9968C84.3111 31.0307 84.2626 31.0646 84.2131 31.0984C84.1685 31.1294 84.1229 31.1604 84.0763 31.1904C84.0258 31.2233 83.9725 31.2562 83.9201 31.2891C83.8541 31.3297 83.7901 31.3704 83.7212 31.41C83.5931 31.4845 83.4602 31.5552 83.3263 31.6239C83.2875 31.6432 83.2487 31.6626 83.2099 31.6819C83.1051 31.7342 82.9984 31.7836 82.8897 31.8319C82.8538 31.8474 82.8189 31.8639 82.783 31.8794C82.6423 31.9403 82.5006 31.9984 82.3551 32.0535C82.3279 32.0642 82.3008 32.0729 82.2736 32.0826C82.1523 32.1281 82.0291 32.1706 81.9049 32.2113C81.8535 32.2277 81.803 32.2451 81.7516 32.2606C81.6817 32.2829 81.6129 32.3032 81.542 32.3245C81.4838 32.3419 81.4246 32.3584 81.3654 32.3748C81.2946 32.3942 81.2228 32.4135 81.151 32.4319C81.0918 32.4474 81.0317 32.4629 80.9725 32.4774C80.8997 32.4948 80.826 32.5113 80.7532 32.5277C80.6931 32.5413 80.6329 32.5548 80.5728 32.5674C80.4981 32.5829 80.4224 32.5974 80.3477 32.6119C80.2904 32.6225 80.2332 32.6342 80.1759 32.6438C80.0158 32.6719 79.8538 32.698 79.6918 32.7213C79.6646 32.7251 79.6365 32.728 79.6093 32.7319C79.4715 32.7503 79.3338 32.7667 79.195 32.7812C79.1407 32.7871 79.0864 32.7919 79.032 32.7977C78.9408 32.8064 78.8486 32.8141 78.7565 32.8209C78.6992 32.8248 78.642 32.8296 78.5847 32.8325C78.4877 32.8383 78.3897 32.8432 78.2927 32.847C78.2403 32.849 78.1879 32.8519 78.1365 32.8538C78.0511 32.8567 77.9657 32.8577 77.8803 32.8587C77.8241 32.8587 77.7688 32.8606 77.7125 32.8616C77.6184 32.8616 77.5243 32.8606 77.4302 32.8587C77.3826 32.8587 77.3351 32.8587 77.2875 32.8567C77.2002 32.8548 77.1129 32.85 77.0265 32.8461C76.9751 32.8441 76.9237 32.8422 76.8723 32.8403C76.7665 32.8345 76.6608 32.8267 76.555 32.819C76.523 32.8161 76.49 32.8151 76.458 32.8122C76.3202 32.8006 76.1834 32.788 76.0466 32.7725C76.0117 32.7687 75.9777 32.7638 75.9428 32.76C75.8409 32.7483 75.74 32.7358 75.6391 32.7213C75.6003 32.7154 75.5624 32.7096 75.5246 32.7038C75.4247 32.6893 75.3257 32.6738 75.2267 32.6574C75.1744 32.6487 75.1229 32.638 75.0715 32.6284C74.9871 32.6129 74.9027 32.5974 74.8192 32.5809C74.7707 32.5713 74.7232 32.5596 74.6756 32.55C74.5815 32.5296 74.4884 32.5093 74.3953 32.4871C74.3419 32.4745 74.2885 32.4609 74.2352 32.4474C74.1488 32.4251 74.0634 32.4029 73.978 32.3797C73.9286 32.3661 73.8801 32.3516 73.8315 32.338C73.6947 32.2984 73.5589 32.2568 73.425 32.2122C73.4027 32.2045 73.3804 32.1987 73.359 32.191C73.2067 32.1397 73.0563 32.0845 72.9088 32.0264C72.8487 32.0032 72.7895 31.979 72.7303 31.9548C72.6828 31.9355 72.6352 31.9161 72.5887 31.8958C72.5217 31.8668 72.4557 31.8368 72.3898 31.8077C72.3471 31.7884 72.3034 31.769 72.2607 31.7487C72.1889 31.7148 72.1181 31.679 72.0482 31.6432C72.0133 31.6258 71.9774 31.6084 71.9435 31.591C71.8396 31.5368 71.7368 31.4807 71.6359 31.4226L67.0903 28.805L67.0787 32.9341L71.6242 35.5517C71.7252 35.6098 71.827 35.6659 71.9318 35.7201C71.9667 35.7385 72.0017 35.755 72.0366 35.7724C72.1074 35.8082 72.1773 35.844 72.2491 35.8779C72.2918 35.8982 72.3354 35.9175 72.3781 35.9369C72.4441 35.9669 72.5101 35.9969 72.577 36.0249C72.6236 36.0453 72.6711 36.0637 72.7187 36.084C72.7633 36.1024 72.8079 36.1217 72.8526 36.1391C72.8671 36.1449 72.8826 36.1498 72.8972 36.1556C73.0456 36.2127 73.1951 36.2678 73.3474 36.3201C73.3697 36.3278 73.392 36.3336 73.4134 36.3414C73.5473 36.3859 73.6831 36.4275 73.8199 36.4672C73.8422 36.474 73.8636 36.4817 73.8859 36.4875C73.913 36.4952 73.9402 36.5011 73.9664 36.5088C74.0518 36.532 74.1372 36.5552 74.2235 36.5765C74.2769 36.5901 74.3302 36.6036 74.3836 36.6162C74.4768 36.6385 74.5709 36.6588 74.665 36.6791C74.7018 36.6868 74.7377 36.6965 74.7746 36.7043C74.7853 36.7062 74.7969 36.7081 74.8076 36.711C74.892 36.7285 74.9764 36.7439 75.0608 36.7594C75.1123 36.7691 75.1627 36.7788 75.2151 36.7875C75.3141 36.8049 75.414 36.8194 75.5139 36.8349C75.5489 36.8397 75.5838 36.8465 75.6197 36.8514C75.6226 36.8514 75.6255 36.8514 75.6284 36.8523C75.7293 36.8668 75.8312 36.8785 75.9321 36.891C75.967 36.8949 76.001 36.8997 76.0359 36.9036C76.1727 36.9191 76.3095 36.9317 76.4473 36.9433C76.4473 36.9433 76.4492 36.9433 76.4502 36.9433C76.4813 36.9462 76.5133 36.9472 76.5443 36.9501C76.6501 36.9578 76.7558 36.9655 76.8616 36.9713C76.913 36.9743 76.9644 36.9752 77.0159 36.9772C77.1032 36.981 77.1905 36.9849 77.2769 36.9878C77.2817 36.9878 77.2866 36.9878 77.2914 36.9878C77.3341 36.9888 77.3768 36.9878 77.4195 36.9888C77.5136 36.9907 77.6077 36.9917 77.7018 36.9917C77.7581 36.9917 77.8134 36.9897 77.8697 36.9888C77.9551 36.9878 78.0404 36.9868 78.1258 36.9839C78.1394 36.9839 78.153 36.9839 78.1666 36.9839C78.2054 36.983 78.2442 36.9801 78.283 36.9781C78.381 36.9743 78.478 36.9694 78.575 36.9636C78.6323 36.9597 78.6895 36.9559 78.7468 36.952C78.8389 36.9452 78.9311 36.9375 79.0223 36.9288C79.0534 36.9259 79.0834 36.9239 79.1145 36.921C79.1378 36.9191 79.1611 36.9152 79.1843 36.9123C79.3231 36.8978 79.4609 36.8814 79.5986 36.863C79.6258 36.8591 79.6539 36.8562 79.6811 36.8523C79.8431 36.8291 80.0052 36.8039 80.1653 36.7749C80.1788 36.772 80.1934 36.771 80.207 36.7681C80.2506 36.7604 80.2933 36.7507 80.337 36.743C80.4127 36.7285 80.4874 36.7139 80.5621 36.6985C80.6222 36.6859 80.6824 36.6723 80.7426 36.6588C80.8163 36.6423 80.8891 36.6259 80.9618 36.6085C81.022 36.5939 81.0812 36.5785 81.1403 36.563C81.2121 36.5446 81.2839 36.5252 81.3548 36.5059C81.414 36.4894 81.4722 36.473 81.5314 36.4556C81.6012 36.4352 81.6711 36.414 81.7409 36.3917C81.77 36.383 81.8001 36.3743 81.8292 36.3646C81.8515 36.3578 81.8729 36.3491 81.8942 36.3414C82.0184 36.2998 82.1416 36.2572 82.2629 36.2117C82.2901 36.202 82.3173 36.1924 82.3444 36.1827C82.49 36.1275 82.6316 36.0695 82.7723 36.0085C82.8082 35.993 82.8431 35.9766 82.879 35.9611C82.9877 35.9127 83.0944 35.8624 83.1992 35.8111C83.238 35.7917 83.2768 35.7733 83.3156 35.753C83.4495 35.6843 83.5824 35.6137 83.7105 35.5392C83.7454 35.5188 83.7813 35.4976 83.8153 35.4772C83.8473 35.4579 83.8774 35.4376 83.9084 35.4182C83.9608 35.3853 84.0132 35.3524 84.0646 35.3195C84.1112 35.2895 84.1568 35.2585 84.2015 35.2276C84.2509 35.1937 84.2995 35.1598 84.347 35.126C84.3907 35.094 84.4324 35.0631 84.4741 35.0311C84.5197 34.9963 84.5653 34.9615 84.609 34.9257C84.6487 34.8927 84.6885 34.8608 84.7273 34.8279C84.769 34.7921 84.8108 34.7563 84.8515 34.7205C84.868 34.705 84.8864 34.6905 84.9029 34.676C84.935 34.646 84.966 34.616 84.997 34.586C85.0087 34.5744 85.0213 34.5637 85.0329 34.5521C85.095 34.4912 85.1542 34.4292 85.2115 34.3663C85.2251 34.3518 85.2377 34.3373 85.2513 34.3218C85.2998 34.2676 85.3463 34.2134 85.39 34.1592C85.3997 34.1467 85.4104 34.135 85.4201 34.1225C85.4249 34.1167 85.4298 34.1109 85.4346 34.105C85.4802 34.048 85.5229 33.9899 85.5637 33.9318C85.5724 33.9193 85.5811 33.9076 85.5889 33.8951C85.6335 33.8302 85.6762 33.7664 85.716 33.7006C85.7218 33.6899 85.7286 33.6802 85.7344 33.6696C85.75 33.6444 85.7645 33.6193 85.7791 33.5941C85.7907 33.5738 85.7994 33.5535 85.8111 33.5322C85.8344 33.4896 85.8567 33.447 85.8771 33.4044C85.8945 33.3686 85.911 33.3328 85.9275 33.2961C85.9469 33.2535 85.9653 33.2099 85.9818 33.1664C85.9896 33.147 85.9993 33.1277 86.0061 33.1083C86.0129 33.0909 86.0168 33.0735 86.0236 33.057C86.0381 33.0154 86.0517 32.9748 86.0643 32.9332C86.076 32.8954 86.0876 32.8577 86.0973 32.82C86.1089 32.7783 86.1186 32.7367 86.1274 32.6951C86.1322 32.6729 86.139 32.6496 86.1439 32.6274C86.1468 32.6119 86.1478 32.5974 86.1507 32.5819C86.1584 32.5393 86.1652 32.4967 86.171 32.4542C86.1759 32.4164 86.1817 32.3797 86.1856 32.3419C86.1895 32.2993 86.1924 32.2568 86.1943 32.2132C86.1953 32.1881 86.1992 32.1629 86.2001 32.1377C86.2001 32.1126 86.2011 32.0874 86.2011 32.0632L86.2128 27.9341C86.2128 27.9844 86.2089 28.0347 86.206 28.085L86.2069 28.0831Z" fill="#85A309" stroke="black" stroke-width="0.0286551" stroke-linecap="round" stroke-linejoin="round"/>
<mask id="mask2_664_11614" style="mask-type:luminance" maskUnits="userSpaceOnUse" x="63" y="25" width="24" height="12">
<path d="M86.2075 28.0832C86.2055 28.1258 86.2026 28.1684 86.1978 28.2119C86.1939 28.2497 86.189 28.2874 86.1832 28.3242C86.1774 28.3668 86.1706 28.4093 86.1628 28.4519C86.156 28.4897 86.1473 28.5274 86.1395 28.5651C86.1298 28.6067 86.1201 28.6484 86.1095 28.69C86.0998 28.7277 86.0881 28.7654 86.0765 28.8032C86.0639 28.8448 86.0503 28.8854 86.0357 28.9271C86.0221 28.9638 86.0086 29.0006 85.994 29.0374C85.9765 29.0809 85.9591 29.1235 85.9397 29.167C85.9232 29.2028 85.9067 29.2396 85.8892 29.2754C85.8679 29.318 85.8456 29.3606 85.8232 29.4032C85.798 29.4486 85.7738 29.4951 85.7466 29.5406C85.7408 29.5512 85.735 29.5609 85.7282 29.5715C85.6884 29.6364 85.6457 29.7012 85.6011 29.766C85.5923 29.7786 85.5836 29.7902 85.5758 29.8028C85.5302 29.8667 85.4827 29.9305 85.4322 29.9934C85.4225 30.006 85.4119 30.0176 85.4022 30.0302C85.3575 30.0844 85.311 30.1396 85.2634 30.1928C85.2498 30.2073 85.2372 30.2218 85.2236 30.2373C85.1664 30.2992 85.1072 30.3612 85.0451 30.4231C85.0335 30.4347 85.0209 30.4463 85.0092 30.457C84.9626 30.5025 84.9132 30.547 84.8637 30.5915C84.8229 30.6273 84.7822 30.6641 84.7395 30.6989C84.7007 30.7318 84.6619 30.7647 84.6211 30.7966C84.5775 30.8315 84.5319 30.8673 84.4863 30.9021C84.4445 30.934 84.4018 30.966 84.3592 30.9969C84.3116 31.0308 84.2631 31.0647 84.2136 31.0986C84.169 31.1295 84.1234 31.1605 84.0768 31.1905C84.0264 31.2234 83.973 31.2563 83.9206 31.2892C83.8546 31.3298 83.7906 31.3705 83.7217 31.4101C83.5936 31.4847 83.4607 31.5553 83.3268 31.624C83.289 31.6434 83.2492 31.6627 83.2104 31.6821C83.1056 31.7343 82.9989 31.7837 82.8902 31.8321C82.8543 31.8475 82.8194 31.864 82.7835 31.8795C82.6428 31.9404 82.5011 31.9985 82.3556 32.0537C82.3284 32.0643 82.3013 32.073 82.2741 32.0827C82.1528 32.1282 82.0296 32.1708 81.9054 32.2114C81.854 32.2278 81.8035 32.2453 81.7521 32.2607C81.6832 32.283 81.6134 32.3033 81.5425 32.3246C81.4843 32.342 81.4251 32.3585 81.366 32.3749C81.2951 32.3943 81.2233 32.4136 81.1515 32.432C81.0924 32.4475 81.0322 32.463 80.973 32.4775C80.9002 32.4949 80.8265 32.5114 80.7537 32.5278C80.6936 32.5414 80.6334 32.5549 80.5733 32.5675C80.4986 32.583 80.4229 32.5975 80.3482 32.612C80.2909 32.6227 80.2337 32.6343 80.1764 32.644C80.0164 32.672 79.8543 32.6981 79.6923 32.7214C79.6651 32.7252 79.637 32.7281 79.6098 32.732C79.4721 32.7504 79.3343 32.7669 79.1955 32.7814C79.1412 32.7872 79.0869 32.792 79.0325 32.7978C78.9413 32.8065 78.8492 32.8143 78.757 32.821C78.6997 32.8249 78.6425 32.8298 78.5853 32.8327C78.4882 32.8385 78.3902 32.8433 78.2932 32.8472C78.2408 32.8491 78.1884 32.852 78.137 32.8539C78.0516 32.8568 77.9662 32.8578 77.8809 32.8588C77.8246 32.8588 77.7693 32.8607 77.713 32.8617C77.6189 32.8617 77.5248 32.8607 77.4307 32.8588C77.3831 32.8588 77.3356 32.8588 77.2881 32.8568C77.2007 32.8549 77.1134 32.8501 77.0271 32.8462C76.9756 32.8443 76.9242 32.8423 76.8728 32.8404C76.767 32.8346 76.6613 32.8268 76.5555 32.8191C76.5235 32.8162 76.4905 32.8152 76.4585 32.8123C76.3207 32.8007 76.1839 32.7881 76.0471 32.7727C76.0122 32.7688 75.9782 32.7639 75.9433 32.7601C75.8414 32.7485 75.7405 32.7359 75.6396 32.7214C75.6008 32.7156 75.563 32.7098 75.5251 32.7039C75.4252 32.6894 75.3262 32.674 75.2273 32.6575C75.1749 32.6488 75.1234 32.6381 75.072 32.6285C74.9876 32.613 74.9032 32.5975 74.8198 32.5811C74.7713 32.5714 74.7237 32.5598 74.6762 32.5501C74.5821 32.5298 74.4889 32.5094 74.3958 32.4872C74.3424 32.4746 74.289 32.4611 74.2357 32.4475C74.1493 32.4253 74.0639 32.403 73.9786 32.3798C73.9291 32.3662 73.8806 32.3517 73.8321 32.3382C73.6953 32.2985 73.5594 32.2569 73.4255 32.2124C73.4032 32.2046 73.3809 32.1988 73.3596 32.1911C73.2072 32.1398 73.0568 32.0846 72.9094 32.0266C72.8492 32.0033 72.79 31.9792 72.7308 31.955C72.6833 31.9356 72.6358 31.9162 72.5892 31.8969C72.5222 31.8679 72.4563 31.8379 72.3913 31.8079C72.3486 31.7885 72.3049 31.7692 72.2622 31.7488C72.1904 31.715 72.1196 31.6792 72.0497 31.6434C72.0148 31.6259 71.9789 31.6085 71.9449 31.5911C71.8411 31.5369 71.7383 31.4808 71.6374 31.4227L67.0918 28.8051L65.7073 29.8415C65.5811 29.7109 63.6019 27.67 63.6087 25.3243L63.597 29.4535C63.5902 31.7982 65.5685 33.84 65.6956 33.9707L67.0802 32.9343L71.6257 35.5519C71.7266 35.6099 71.8285 35.6661 71.9333 35.7202C71.9682 35.7386 72.0032 35.7551 72.0381 35.7725C72.1089 35.8083 72.1788 35.8441 72.2506 35.878C72.2933 35.8983 72.3369 35.9177 72.3796 35.937C72.4456 35.967 72.5116 35.997 72.5785 36.0251C72.6251 36.0454 72.6726 36.0638 72.7202 36.0831C72.7648 36.1015 72.8094 36.1209 72.8541 36.1383C72.8686 36.1441 72.8841 36.1489 72.8987 36.1547C73.0471 36.2118 73.1965 36.267 73.3489 36.3192C73.3712 36.327 73.3935 36.3328 73.4149 36.3405C73.5487 36.385 73.6846 36.4267 73.8214 36.4663C73.8437 36.4731 73.865 36.4808 73.8874 36.4867C73.9145 36.4944 73.9417 36.5002 73.9679 36.5079C74.0533 36.5312 74.1387 36.5544 74.225 36.5757C74.2784 36.5892 74.3317 36.6028 74.3851 36.6154C74.4782 36.6376 74.5724 36.6579 74.6665 36.6783C74.7033 36.686 74.7392 36.6957 74.7761 36.7034C74.7868 36.7054 74.7984 36.7073 74.8091 36.7102C74.8935 36.7276 74.9779 36.7431 75.0623 36.7586C75.1137 36.7683 75.1642 36.7779 75.2166 36.7866C75.3156 36.8041 75.4155 36.8186 75.5154 36.8341C75.5504 36.8389 75.5853 36.8457 75.6212 36.8505C75.6241 36.8505 75.627 36.8505 75.6289 36.8515C75.7298 36.866 75.8317 36.8776 75.9326 36.8902C75.9676 36.8941 76.0015 36.8989 76.0364 36.9028C76.1732 36.9182 76.31 36.9308 76.4478 36.9424C76.4478 36.9424 76.4498 36.9424 76.4507 36.9424C76.4818 36.9453 76.5138 36.9463 76.5448 36.9492C76.6506 36.957 76.7564 36.9647 76.8621 36.9705C76.9135 36.9734 76.965 36.9744 77.0164 36.9763C77.1037 36.9802 77.1901 36.984 77.2774 36.987C77.2822 36.987 77.2871 36.987 77.2919 36.987C77.3346 36.9879 77.3773 36.987 77.42 36.9879C77.5141 36.9899 77.6082 36.9908 77.7023 36.9908C77.7586 36.9908 77.8139 36.9889 77.8702 36.9879C77.9556 36.987 78.041 36.986 78.1263 36.9831C78.1399 36.9831 78.1535 36.9831 78.1671 36.9831C78.2059 36.9821 78.2447 36.9792 78.2835 36.9773C78.3815 36.9734 78.4785 36.9686 78.5756 36.9628C78.6328 36.9589 78.69 36.955 78.7473 36.9511C78.8395 36.9444 78.9316 36.9366 79.0228 36.9279C79.0539 36.925 79.084 36.9231 79.115 36.9202C79.1383 36.9182 79.1616 36.9144 79.1849 36.9115C79.3236 36.897 79.4614 36.8805 79.5992 36.8621C79.6263 36.8582 79.6545 36.8553 79.6816 36.8515C79.8437 36.8282 80.0057 36.8031 80.1658 36.7741C80.1794 36.7712 80.1939 36.7702 80.2075 36.7673C80.2512 36.7595 80.2939 36.7499 80.3375 36.7421C80.4132 36.7276 80.4879 36.7131 80.5626 36.6976C80.6228 36.685 80.6829 36.6715 80.7431 36.6579C80.8168 36.6415 80.8896 36.625 80.9623 36.6076C81.0225 36.5931 81.0817 36.5776 81.1409 36.5621C81.2127 36.5437 81.2845 36.5244 81.3553 36.505C81.4145 36.4886 81.4727 36.4721 81.5319 36.4547C81.6017 36.4344 81.6716 36.4131 81.7414 36.3909C81.7706 36.3821 81.8006 36.3734 81.8297 36.3638C81.8521 36.357 81.8734 36.3483 81.8947 36.3405C82.0189 36.2989 82.1422 36.2563 82.2644 36.2118C82.2916 36.2022 82.3187 36.1925 82.3459 36.1828C82.4914 36.1276 82.6331 36.0696 82.7738 36.0086C82.8097 35.9931 82.8446 35.9767 82.8795 35.9612C82.9882 35.9128 83.0949 35.8625 83.1997 35.8112C83.2385 35.7919 83.2773 35.7735 83.3161 35.7531C83.45 35.6844 83.583 35.6138 83.711 35.5393C83.7469 35.519 83.7819 35.4977 83.8158 35.4774C83.8478 35.458 83.8779 35.4377 83.909 35.4183C83.9614 35.3854 84.0137 35.3525 84.0652 35.3196C84.1117 35.2896 84.1573 35.2587 84.202 35.2277C84.2515 35.1938 84.3 35.1599 84.3475 35.1261C84.3912 35.0941 84.4329 35.0632 84.4746 35.0312C84.5202 34.9964 84.5658 34.9616 84.6095 34.9258C84.6493 34.8938 84.689 34.8609 84.7278 34.828C84.7696 34.7922 84.8113 34.7564 84.852 34.7206C84.8685 34.7051 84.887 34.6906 84.9035 34.6761C84.9355 34.6461 84.9665 34.6161 84.9976 34.5861C85.0092 34.5745 85.0218 34.5639 85.0335 34.5522C85.0956 34.4913 85.1547 34.4293 85.212 34.3664C85.2256 34.3519 85.2382 34.3374 85.2518 34.3219C85.3003 34.2677 85.3469 34.2135 85.3905 34.1594C85.4002 34.1468 85.4109 34.1352 85.4206 34.1226C85.4254 34.1168 85.4303 34.111 85.4351 34.1052C85.4807 34.0481 85.5234 33.99 85.5642 33.9319C85.5729 33.9194 85.5817 33.9078 85.5894 33.8952C85.634 33.8303 85.6767 33.7665 85.7165 33.7007C85.7233 33.69 85.7291 33.6804 85.735 33.6697C85.7505 33.6445 85.765 33.6194 85.7796 33.5942C85.7912 33.5739 85.8 33.5536 85.8116 33.5323C85.8349 33.4897 85.8572 33.4471 85.8776 33.4046C85.895 33.3688 85.9115 33.3329 85.928 33.2962C85.9474 33.2536 85.9659 33.2101 85.9824 33.1665C85.9901 33.1472 85.9998 33.1278 86.0066 33.1084C86.0134 33.091 86.0173 33.0736 86.0241 33.0562C86.0386 33.0146 86.0522 32.9739 86.0648 32.9323C86.0765 32.8946 86.0881 32.8568 86.0978 32.8191C86.1095 32.7775 86.1192 32.7359 86.1279 32.6943C86.1327 32.672 86.1395 32.6488 86.1444 32.6265C86.1473 32.6111 86.1483 32.5965 86.1512 32.5811C86.1589 32.5385 86.1657 32.4959 86.1716 32.4533C86.1764 32.4156 86.1822 32.3788 86.1861 32.3411C86.19 32.2985 86.1929 32.2559 86.1948 32.2124C86.1958 32.1872 86.1997 32.162 86.2007 32.1369C86.2007 32.1117 86.2016 32.0866 86.2016 32.0624L86.2133 27.9332C86.2133 27.9836 86.2094 28.0339 86.2065 28.0842L86.2075 28.0832Z" fill="white"/>
</mask>
<g mask="url(#mask2_664_11614)">
<path opacity="0.25" d="M70.3176 26.4666H63.817V34.8855H70.3176V26.4666Z" fill="black"/>
</g>
<path d="M83.6997 24.4262C87.0432 26.3509 87.0529 29.4775 83.7211 31.408C80.3893 33.3396 74.9783 33.3434 71.6339 31.4177L67.0883 28.8001L65.7038 29.8365C65.5485 29.6759 62.5951 26.6286 63.969 23.6791C64.3202 22.8208 65.0731 22.006 66.2296 21.3363C69.5605 19.4058 74.9724 19.4009 78.3169 21.3266L83.6988 24.4262H83.6997Z" fill="#DCFF00" stroke="black" stroke-width="0.0286551" stroke-linecap="round" stroke-linejoin="round"/>
<path d="M73.0799 25.0184C73.4195 25.2139 73.4205 25.5313 73.0828 25.7268C72.7452 25.9222 72.196 25.9232 71.8555 25.7268C71.5159 25.5313 71.5159 25.2139 71.8535 25.0184C72.1921 24.822 72.7403 24.822 73.0799 25.0175V25.0184Z" fill="#00201D"/>
<path d="M75.4159 26.3627C75.7555 26.5581 75.7564 26.8746 75.4178 27.071C75.0802 27.2665 74.531 27.2675 74.1915 27.072C73.8519 26.8765 73.8519 26.5591 74.1895 26.3636C74.5272 26.1682 75.0763 26.1672 75.4159 26.3627Z" fill="#4C6B11"/>
<path d="M77.749 27.7065C78.0886 27.902 78.0896 28.2194 77.751 28.4149C77.4124 28.6104 76.8642 28.6113 76.5246 28.4159C76.185 28.2204 76.185 27.903 76.5226 27.7075C76.8603 27.512 77.4094 27.5111 77.749 27.7065Z" fill="#85A309"/>
<g opacity="0.25">
<mask id="mask3_664_11614" style="mask-type:luminance" maskUnits="userSpaceOnUse" x="63" y="19" width="24" height="14">
<path d="M83.6981 24.4253C87.0415 26.35 87.0512 29.4766 83.7194 31.4072C80.3876 33.3387 74.9766 33.3426 71.6322 31.4169L67.0866 28.7993L65.7021 29.8357C65.5469 29.675 62.5935 26.6278 63.9673 23.6782C64.3185 22.8199 65.0714 22.0051 66.228 21.3355C69.5588 19.4049 74.9708 19.4001 78.3152 21.3258L83.6971 24.4253H83.6981Z" fill="white"/>
</mask>
<g mask="url(#mask3_664_11614)">
<path d="M82.7489 21.7762C83.4834 22.2001 83.2506 23.0226 82.2289 23.6139L62.3603 35.3684L71.1982 40.7662C71.6504 41.0265 71.7522 41.4523 71.4699 41.8974C71.1914 42.3426 70.5686 42.7471 69.8147 42.9735L25.8852 56.139C25.0032 56.4031 24.096 56.3789 23.5702 56.0761C22.8357 55.6522 23.0686 54.8297 24.0902 54.2384L44.4323 42.4481L35.1199 37.0861C34.9297 36.9767 34.7997 36.8384 34.7337 36.6777C34.4815 36.0507 35.2742 35.2455 36.5035 34.8788L80.433 21.7133C81.314 21.4492 82.2221 21.4733 82.748 21.7762H82.7489Z" fill="black"/>
</g>
</g>
<path d="M16.9477 72.6675L16.8846 72.6307C16.839 72.6036 16.8109 72.5552 16.8109 72.502V71.2634C16.8109 71.1472 16.937 71.0756 17.0369 71.1347L17.1 71.1714C17.1456 71.1985 17.1737 71.2469 17.1737 71.3001V72.5388C17.1737 72.6549 17.0476 72.7265 16.9477 72.6675Z" fill="#00201D"/>
<path d="M17.6309 73.0755L17.5678 73.0378C17.5232 73.0107 17.496 72.9623 17.496 72.9101V71.6743C17.496 71.5582 17.6241 71.4866 17.724 71.5466L17.7871 71.5843C17.8317 71.6114 17.8589 71.6598 17.8589 71.7121V72.9478C17.8589 73.0639 17.7308 73.1355 17.6309 73.0755Z" fill="#00201D"/>
<path d="M18.3226 73.4841L18.2547 73.4434C18.2101 73.4163 18.1819 73.368 18.1819 73.3157V72.08C18.1819 71.9648 18.3071 71.8932 18.407 71.9513L18.475 71.9909C18.5206 72.018 18.5487 72.0664 18.5487 72.1196V73.3563C18.5487 73.4725 18.4216 73.5441 18.3217 73.4841H18.3226Z" fill="#00201D"/>
<path d="M19.0088 73.8957L18.9409 73.856C18.8953 73.8289 18.8672 73.7805 18.8672 73.7273V72.4877C18.8672 72.3725 18.9923 72.3009 19.0923 72.359L19.1602 72.3986C19.2058 72.4257 19.2339 72.4741 19.2339 72.5273V73.767C19.2339 73.8821 19.1088 73.9537 19.0088 73.8957Z" fill="#00201D"/>
<path d="M19.6902 74.2997L19.6272 74.2619C19.5825 74.2348 19.5554 74.1864 19.5554 74.1342V72.8984C19.5554 72.7823 19.6834 72.7107 19.7834 72.7707L19.8464 72.8084C19.8911 72.8355 19.9182 72.8839 19.9182 72.9362V74.1719C19.9182 74.288 19.7902 74.3597 19.6902 74.2997Z" fill="#00201D"/>
<path d="M20.3774 74.7111L20.3143 74.6743C20.2687 74.6472 20.2406 74.5988 20.2406 74.5456V73.3069C20.2406 73.1908 20.3667 73.1192 20.4667 73.1782L20.5297 73.215C20.5753 73.2421 20.6035 73.2905 20.6035 73.3437V74.5823C20.6035 74.6985 20.4773 74.7701 20.3774 74.7111Z" fill="#00201D"/>
<path d="M21.0665 75.1215L20.9985 75.0809C20.9539 75.0538 20.9258 75.0054 20.9258 74.9531V73.7155C20.9258 73.5993 21.0529 73.5277 21.1528 73.5877L21.2207 73.6284C21.2654 73.6555 21.2935 73.7038 21.2935 73.7561V74.9938C21.2935 75.1099 21.1664 75.1815 21.0665 75.1215Z" fill="#00201D"/>
<path d="M21.7522 75.5289L21.6892 75.4922C21.6436 75.4651 21.6154 75.4167 21.6154 75.3635V74.1248C21.6154 74.0087 21.7415 73.9371 21.8415 73.9961L21.9045 74.0329C21.9501 74.06 21.9783 74.1084 21.9783 74.1616V75.4002C21.9783 75.5163 21.8522 75.588 21.7522 75.5289Z" fill="#00201D"/>
<path d="M22.4355 75.9365L22.3724 75.8988C22.3278 75.8717 22.3006 75.8233 22.3006 75.771V74.5353C22.3006 74.4192 22.4287 74.3476 22.5286 74.4075L22.5917 74.4453C22.6363 74.4724 22.6635 74.5208 22.6635 74.573V75.8088C22.6635 75.9249 22.5354 75.9965 22.4355 75.9365Z" fill="#00201D"/>
<path d="M10.7543 68.9347C10.3982 68.7256 10.1033 68.2631 10.1033 67.9079C10.1033 67.5528 10.3973 67.428 10.7543 67.637L14.5004 69.8269C14.8565 70.0359 15.1514 70.4984 15.1514 70.8536C15.1514 71.2087 14.8574 71.3336 14.5004 71.1245" fill="#00201D"/>
<path d="M3.18481 64.5189L3.1169 64.4782C3.07227 64.4511 3.04413 64.4027 3.04413 64.3505V63.1128C3.04413 62.9967 3.17123 62.9251 3.27116 62.9851L3.33908 63.0257C3.38371 63.0528 3.41185 63.1012 3.41185 63.1534V64.3911C3.41185 64.5072 3.28475 64.5788 3.18481 64.5189Z" fill="#00201D"/>
<path d="M3.86996 64.9266L3.80689 64.8899C3.76129 64.8628 3.73315 64.8144 3.73315 64.7612V63.5225C3.73315 63.4064 3.85929 63.3348 3.95922 63.3938L4.02229 63.4306C4.06789 63.4577 4.09602 63.5061 4.09602 63.5593V64.7979C4.09602 64.9141 3.96989 64.9857 3.86996 64.9266Z" fill="#00201D"/>
<path d="M4.55247 65.3353L4.4894 65.2976C4.44477 65.2705 4.4176 65.2221 4.4176 65.1698V63.9341C4.4176 63.818 4.54567 63.7464 4.64561 63.8064L4.70867 63.8441C4.75331 63.8712 4.78047 63.9196 4.78047 63.9718V65.2076C4.78047 65.3237 4.6524 65.3953 4.55247 65.3353Z" fill="#00201D"/>
<path d="M5.24596 65.7481L5.17805 65.7084C5.13245 65.6813 5.10431 65.6329 5.10431 65.5797V64.3401C5.10431 64.2249 5.22947 64.1533 5.3294 64.2114L5.39732 64.2511C5.44292 64.2782 5.47106 64.3265 5.47106 64.3798V65.6194C5.47106 65.7345 5.3459 65.8061 5.24596 65.7481Z" fill="#00201D"/>
<path d="M5.92877 66.1557L5.86085 66.115C5.81622 66.088 5.78809 66.0396 5.78809 65.9873V64.7496C5.78809 64.6335 5.91519 64.5619 6.01512 64.6219L6.08304 64.6626C6.12767 64.6896 6.15581 64.738 6.15581 64.7903V66.028C6.15581 66.1441 6.0287 66.2157 5.92877 66.1557Z" fill="#00201D"/>
<path d="M6.61373 66.564L6.55067 66.5272C6.50507 66.5001 6.47693 66.4517 6.47693 66.3985V65.1598C6.47693 65.0437 6.60306 64.9721 6.70299 65.0311L6.76606 65.0679C6.81166 65.095 6.8398 65.1434 6.8398 65.1966V66.4353C6.8398 66.5514 6.71367 66.623 6.61373 66.564Z" fill="#00201D"/>
<path d="M7.29891 66.9704L7.23585 66.9337C7.19025 66.9066 7.16211 66.8582 7.16211 66.805V65.5702C7.16211 65.4541 7.29018 65.3825 7.39012 65.4425L7.45318 65.4802C7.49781 65.5073 7.52498 65.5557 7.52498 65.6079V66.8417C7.52498 66.9579 7.39885 67.0295 7.29891 66.9704Z" fill="#00201D"/>
<path d="M7.9881 67.3808L7.92018 67.3401C7.87555 67.3131 7.84741 67.2647 7.84741 67.2124V65.9747C7.84741 65.8586 7.97451 65.787 8.07445 65.847L8.14236 65.8876C8.187 65.9147 8.21513 65.9631 8.21513 66.0154V67.2531C8.21513 67.3692 8.08803 67.4408 7.9881 67.3808Z" fill="#00201D"/>
<path d="M8.67373 67.788L8.61066 67.7512C8.56506 67.7241 8.53693 67.6757 8.53693 67.6225V66.3838C8.53693 66.2677 8.66306 66.1961 8.76299 66.2551L8.82606 66.2919C8.87166 66.319 8.8998 66.3674 8.8998 66.4206V67.6593C8.8998 67.7754 8.77366 67.847 8.67373 67.788Z" fill="#00201D"/>
</g>
<defs>
<clipPath id="clip0_664_11614">
<rect width="92" height="80" fill="white"/>
</clipPath>
</defs>
</svg>
