<svg width="103" height="80" viewBox="0 0 103 80" fill="none" xmlns="http://www.w3.org/2000/svg">
<g clip-path="url(#clip0_664_15105)">
<path d="M63.5971 27.4897L47.3881 36.9576" stroke="#082422" stroke-width="0.085689" stroke-linecap="round"/>
<path d="M64.6842 53.3235L48.4753 62.7913" stroke="#082422" stroke-width="0.085689" stroke-linecap="round"/>
<path d="M61.4079 49.21L61.4097 49.9057C59.5552 51.9584 57.1646 53.6991 54.4647 55.26C50.7764 57.3922 46.5106 59.1875 42.2449 60.9834C37.9792 62.7792 33.7129 64.5751 30.0245 66.7074C27.3247 68.2683 24.9341 70.0083 23.0796 72.061L23.0778 71.3652C24.9323 69.3125 27.3222 67.5725 30.0227 66.0116C33.7111 63.88 37.9774 62.0835 42.2431 60.2876C46.5094 58.4917 50.7745 56.6964 54.4629 54.5642C57.1628 53.0039 59.5534 51.2627 61.4079 49.21Z" fill="#38A543" stroke="#082422" stroke-width="0.085689" stroke-miterlimit="10"/>
<path d="M23.0777 71.3649L23.0795 72.0607C16.4099 68.1806 9.74086 64.3004 3.07122 60.4196L3.0694 59.7239C9.73904 63.604 16.4081 67.4842 23.0777 71.3649Z" fill="#38A543" stroke="#082422" stroke-width="0.085689" stroke-miterlimit="10"/>
<path d="M10.0144 54.3706C13.7028 52.2384 17.9685 50.4431 22.2342 48.6472C26.4999 46.8513 30.7662 45.0555 34.4546 42.9238C37.1545 41.3629 39.5451 39.6223 41.3996 37.5696C48.0692 41.4497 54.7382 45.3299 61.4079 49.2106C59.5534 51.2633 57.1628 53.004 54.4629 54.5649C50.7745 56.6971 46.5088 58.4924 42.2431 60.2883C37.9774 62.0841 33.7111 63.88 30.0227 66.0123C27.3229 67.5732 24.9323 69.3132 23.0778 71.3659C16.4081 67.4858 9.7391 63.6056 3.06946 59.7249C4.92396 57.6728 7.31455 55.9315 10.0144 54.3712V54.3706Z" fill="#60D06F" stroke="#082422" stroke-width="0.085689" stroke-miterlimit="10"/>
<path d="M13.8893 55.3464C17.101 53.4898 20.7439 51.8839 24.3868 50.2781C28.0291 48.6722 31.6713 47.067 34.883 45.2104C36.0602 44.5298 37.1802 43.8152 38.2209 43.0551C38.3889 42.9561 38.6017 42.9604 38.743 43.0423C40.0881 43.8249 42.0682 43.8729 43.3411 43.137C43.54 43.0223 43.7213 42.8881 43.8808 42.7345C43.9075 42.7084 43.9384 42.6859 43.9724 42.6665C44.1404 42.5694 44.3805 42.5548 44.5606 42.6598C47.1993 44.1947 49.8373 45.7301 52.4759 47.2649C52.6924 47.3906 52.7148 47.6261 52.5535 47.781C51.3752 48.9163 51.4995 50.4645 53.0635 51.3739C53.2352 51.4735 53.2697 51.649 53.1145 51.7625C52.0829 52.5141 50.975 53.2202 49.8094 53.8941C46.5977 55.7507 42.9554 57.356 39.3131 58.9618C35.6702 60.5677 32.0279 62.1735 28.8162 64.0295C27.6379 64.7107 26.5172 65.4259 25.4759 66.1866C25.2849 66.2995 25.0417 66.2929 24.8816 66.2C23.5384 65.4186 21.5626 65.37 20.2921 66.1047C20.0919 66.2206 19.9088 66.3554 19.7493 66.5102C19.7251 66.5333 19.6978 66.5539 19.6674 66.5715C19.5158 66.659 19.2987 66.6711 19.1356 66.577C16.4733 65.0282 13.8116 63.4794 11.1494 61.9307C10.9541 61.8171 10.9317 61.6046 11.0766 61.4644C12.2519 60.3272 12.1257 58.7785 10.5617 57.8684C10.4107 57.7803 10.3822 57.6267 10.5181 57.5272C11.5684 56.7573 12.6994 56.0348 13.8899 55.3464H13.8893Z" fill="#80E58A" stroke="#082422" stroke-width="0.085689" stroke-miterlimit="10"/>
<path d="M24.4193 53.3613C25.2665 52.8714 26.2113 52.3954 27.2417 51.9394C30.7439 50.3888 34.294 49.2061 37.0029 48.432C38.3717 48.0532 39.5621 47.7958 40.5706 47.726C41.5785 47.6561 42.4118 47.7788 43.0467 48.1491C43.6798 48.517 44.0571 49.0981 44.1517 49.8096C44.2457 50.5206 44.0498 51.3566 43.5161 52.2217C42.7829 53.4536 41.3135 54.7055 39.2813 55.8797C38.4341 56.3696 37.4893 56.8456 36.459 57.3016C32.9568 58.8522 29.4073 60.0348 26.6977 60.8089C25.3289 61.1878 24.1385 61.4452 23.13 61.515C22.1221 61.5848 21.2894 61.4622 20.6533 61.0925C20.0208 60.7245 19.643 60.1429 19.5483 59.4314C19.4543 58.7204 19.6508 57.8844 20.1839 57.0199C20.9171 55.7874 22.3865 54.5361 24.4187 53.3613H24.4193Z" fill="#60D06F" stroke="#082422" stroke-width="0.085689" stroke-miterlimit="10"/>
<path d="M102.243 39.4097L102.245 39.9312C98.6993 40.9997 95.6889 42.3803 92.989 43.9413C89.3 46.0735 86.1902 48.5409 83.0791 51.0088C79.9687 53.4768 76.8577 55.9448 73.1699 58.0764C70.47 59.6373 67.4603 61.0173 63.915 62.0859L63.9138 61.5643C67.4596 60.4958 70.4688 59.1152 73.1687 57.5549C76.8571 55.4232 79.9675 52.9553 83.0779 50.4873C86.189 48.0193 89.2988 45.5514 92.9878 43.4197C95.6877 41.8594 98.698 40.4782 102.243 39.4097Z" fill="#38A543" stroke="#082422" stroke-width="0.085689" stroke-miterlimit="10"/>
<path d="M63.9143 61.5644L63.9156 62.0859C57.2459 58.2058 50.5763 54.325 43.9066 50.4449L43.9054 49.9233C50.5751 53.8035 57.2447 57.6842 63.9143 61.5644Z" fill="#38A543" stroke="#082422" stroke-width="0.085689" stroke-miterlimit="10"/>
<path d="M72.98 31.7788C75.6799 30.2178 78.689 28.8378 82.2349 27.7693C88.9045 31.6494 95.5742 35.5302 102.244 39.4103C98.6985 40.4789 95.6882 41.8595 92.9883 43.4204C89.2993 45.5526 86.1895 48.02 83.0784 50.488C79.968 52.9559 76.857 55.4239 73.1692 57.5555C70.4693 59.1165 67.4595 60.4965 63.9143 61.565C57.2446 57.6849 50.575 53.8041 43.9054 49.924C47.4506 48.8554 50.461 47.4748 53.1609 45.9139C56.8492 43.7817 59.9597 41.3143 63.0707 38.8463C66.1812 36.3783 69.2928 33.9104 72.9806 31.7781L72.98 31.7788Z" fill="#60D06F" stroke="#082422" stroke-width="0.085689" stroke-miterlimit="10"/>
<path d="M73.9971 34.3203C75.1742 33.6397 76.4095 32.9931 77.7237 32.3926C77.8959 32.3137 78.1609 32.3307 78.3119 32.4187C79.8759 33.3288 82.5455 33.4059 84.5067 32.7266C84.7742 32.6337 85.1805 32.6476 85.3964 32.7733C88.035 34.3081 90.673 35.8435 93.3116 37.3784C93.4918 37.4834 93.4657 37.6224 93.2977 37.7196C93.2637 37.739 93.2243 37.7572 93.1794 37.7724C92.9144 37.8641 92.6834 37.9691 92.4845 38.0838C91.2115 38.8197 91.2879 39.9684 92.6324 40.7503C92.7925 40.8432 92.8034 40.9847 92.6452 41.0764C91.3092 41.6908 90.0878 42.3313 88.9228 43.0046C85.7111 44.8612 82.93 46.9685 80.1494 49.0753C77.3683 51.182 74.5878 53.2893 71.376 55.1453C70.1971 55.8265 68.9606 56.4743 67.6446 57.0754C67.4487 57.1652 67.1461 57.144 66.9745 57.0444C65.4105 56.1343 62.7391 56.056 60.7749 56.7342C60.5329 56.818 60.1666 56.804 59.9707 56.6905C57.309 55.1417 54.6468 53.5929 51.9845 52.0441C51.8214 51.9494 51.8432 51.8237 51.9948 51.7357C52.0251 51.7181 52.0609 51.7023 52.1009 51.6883C52.3684 51.5961 52.6018 51.4904 52.802 51.3751C54.0725 50.6404 53.9967 49.4948 52.6534 48.7134C52.5133 48.6321 52.5048 48.5082 52.6437 48.4287C54.0094 47.8045 55.2587 47.1507 56.4503 46.4622C59.6614 44.6062 62.4432 42.4989 65.2237 40.3915C68.0048 38.2842 70.7854 36.1775 73.9977 34.3209L73.9971 34.3203Z" fill="#80E58A" stroke="#082422" stroke-width="0.085689" stroke-miterlimit="10"/>
<path d="M70.5391 40.4193C72.5713 39.2445 74.7339 38.397 76.8613 37.9756C78.3543 37.669 79.7964 37.5579 81.0221 37.615C82.2489 37.6727 83.2495 37.893 83.8826 38.2616C84.5182 38.6313 84.7274 39.1146 84.6037 39.6986C84.4806 40.2833 84.0324 40.973 83.3744 41.7653C82.0306 43.3341 79.9802 45.3886 77.2949 47.4146C76.5053 48.0102 75.6805 48.5566 74.8339 49.0466C72.8011 50.2214 70.6386 51.0695 68.5112 51.4903C67.0181 51.7969 65.5754 51.908 64.3498 51.8509C63.1235 51.7932 62.1223 51.5728 61.4898 51.2049C60.8573 50.837 60.645 50.3519 60.7681 49.7672C60.8912 49.1826 61.3394 48.4929 61.9974 47.7006C63.3407 46.1324 65.3916 44.0772 68.077 42.0519C68.8671 41.4557 69.6913 40.9093 70.5385 40.4199L70.5391 40.4193Z" fill="#60D06F" stroke="#082422" stroke-width="0.085689" stroke-miterlimit="10"/>
<path fill-rule="evenodd" clip-rule="evenodd" d="M91.6063 33.2208C88.5666 34.7719 85.2566 36.1654 81.9463 37.5591L81.9329 37.5647L81.9273 37.5671C77.6634 39.3622 73.3993 41.1574 69.7125 43.2887C67.0126 44.8496 64.622 46.5897 62.7675 48.6424C60.361 47.2423 57.9546 45.8423 55.5482 44.4423C58.2368 42.682 60.6542 40.7644 63.072 38.8464C66.1824 36.3784 69.2941 33.9104 72.9819 31.7782L72.9813 31.7788C75.6811 30.2179 78.6903 28.8379 82.2362 27.7693C85.3596 29.5864 88.4829 31.4036 91.6063 33.2208Z" fill="black" fill-opacity="0.2"/>
<path d="M97.6106 11.6409L97.6124 12.3366C95.7579 14.3893 93.3673 16.13 90.6675 17.6909C86.9791 19.8231 82.7134 21.6184 78.4477 23.4143C74.182 25.2102 69.9156 27.006 66.2273 29.1383C63.5274 30.6992 61.1368 32.4392 59.2823 34.4919L59.2805 33.7961C61.135 31.7434 63.525 30.0034 66.2254 28.4425C69.9138 26.3109 74.1801 24.5144 78.4458 22.7185C82.7122 20.9226 86.9773 19.1274 90.6656 16.9951C93.3655 15.4348 95.7561 13.6936 97.6106 11.6409Z" fill="#38A543" stroke="#082422" stroke-width="0.085689" stroke-miterlimit="10"/>
<path d="M59.2804 33.7958L59.2823 34.4916C52.6126 30.6115 45.9436 26.7313 39.2739 22.8506L39.2721 22.1548C45.9418 26.0349 52.6108 29.9151 59.2804 33.7958Z" fill="#38A543" stroke="#082422" stroke-width="0.085689" stroke-miterlimit="10"/>
<path d="M46.217 16.8015C49.9054 14.6693 54.1711 12.874 58.4368 11.0781C62.7025 9.28224 66.9688 7.48636 70.6572 5.35474C73.3571 3.79382 75.7477 2.05318 77.6022 0.000488281C84.2718 3.88064 90.9409 7.76078 97.6105 11.6415C95.756 13.6942 93.3654 15.4349 90.6655 16.9958C86.9772 19.128 82.7114 20.9233 78.4457 22.7192C74.18 24.5151 69.9137 26.3109 66.2253 28.4432C63.5255 30.0041 61.1349 31.7441 59.2804 33.7968C52.6107 29.9167 45.9417 26.0365 39.2721 22.1558C41.1266 20.1037 43.5172 18.3624 46.217 16.8021V16.8015Z" fill="#60D06F" stroke="#082422" stroke-width="0.085689" stroke-miterlimit="10"/>
<path d="M50.0938 17.777C53.3055 15.9204 56.9484 14.3146 60.5913 12.7087C64.2336 11.1029 67.8759 9.49764 71.0876 7.64105C72.2647 6.96046 73.3848 6.24587 74.4255 5.48575C74.5934 5.38678 74.8063 5.39103 74.9476 5.473C76.2927 6.25558 78.2727 6.30355 79.5456 5.56771C79.7446 5.45296 79.9259 5.31879 80.0854 5.16518C80.1121 5.13908 80.143 5.11661 80.1769 5.09718C80.3449 5.00004 80.5851 4.98547 80.7652 5.09051C83.4038 6.62532 86.0418 8.16075 88.6805 9.69556C88.897 9.82124 88.9194 10.0568 88.7581 10.2116C87.5798 11.3469 87.7041 12.8951 89.2681 13.8046C89.4397 13.9042 89.4743 14.0796 89.319 14.1932C88.2875 14.9448 87.1795 15.6509 86.0139 16.3248C82.8022 18.1814 79.1599 19.7866 75.5177 21.3925C71.8748 22.9983 68.2325 24.6042 65.0208 26.4602C63.8425 27.1414 62.7218 27.8565 61.6805 28.6173C61.4895 28.7302 61.2463 28.7235 61.0862 28.6306C59.7429 27.8493 57.7671 27.8007 56.4966 28.5353C56.2965 28.6513 56.1134 28.7861 55.9539 28.9409C55.9296 28.9639 55.9023 28.9846 55.872 29.0022C55.7204 29.0896 55.5033 29.1018 55.3401 29.0077C52.6779 27.4589 50.0162 25.9101 47.3539 24.3613C47.1587 24.2478 47.1362 24.0353 47.2812 23.895C48.4564 22.7579 48.3303 21.2091 46.7663 20.299C46.6153 20.211 46.5868 20.0574 46.7226 19.9578C47.773 19.188 48.904 18.4655 50.0944 17.777H50.0938Z" fill="#80E58A" stroke="#082422" stroke-width="0.085689" stroke-miterlimit="10"/>
<path d="M60.6225 15.7912C61.4697 15.3013 62.4145 14.8253 63.4449 14.3693C66.9471 12.8187 70.4972 11.6361 73.2062 10.862C74.5749 10.4831 75.7653 10.2257 76.7738 10.1559C77.7818 10.0861 78.615 10.2087 79.2499 10.5791C79.8831 10.947 80.2603 11.528 80.3549 12.2395C80.4489 12.9505 80.253 13.7865 79.7193 14.6517C78.9861 15.8835 77.5167 17.1354 75.4846 18.3096C74.6374 18.7996 73.6925 19.2755 72.6622 19.7315C69.16 21.2821 65.6105 22.4648 62.9009 23.2389C61.5322 23.6177 60.3417 23.8751 59.3332 23.945C58.3253 24.0148 57.4927 23.8921 56.8565 23.5224C56.224 23.1545 55.8462 22.5728 55.7516 21.8613C55.6576 21.1503 55.8541 20.3143 56.3871 19.4498C57.1203 18.2173 58.5897 16.966 60.6219 15.7912H60.6225Z" fill="#60D06F" stroke="#082422" stroke-width="0.085689" stroke-miterlimit="10"/>
<path d="M43.9301 22.1172L27.7212 31.585" stroke="#082422" stroke-width="0.085689" stroke-linecap="round"/>
<path d="M45.2929 29.0854L37.7187 33.63" stroke="#082422" stroke-width="0.085689" stroke-linecap="round"/>
<path d="M60.2912 60.8979L52.7169 65.4425" stroke="#082422" stroke-width="0.085689" stroke-linecap="round"/>
<path d="M8.18026 60.8979L0.605988 65.4425" stroke="#082422" stroke-width="0.085689" stroke-linecap="round"/>
<path d="M34.2356 33.0242L30.4485 35.2965" stroke="#082422" stroke-width="0.085689" stroke-linecap="round"/>
<path d="M56.4972 35.2561L53.9219 36.771" stroke="#082422" stroke-width="0.085689" stroke-linecap="round"/>
<path d="M48.4745 51.8083L45.8993 53.3232" stroke="#082422" stroke-width="0.085689" stroke-linecap="round"/>
<path d="M47.718 60.5945L45.1428 62.1093" stroke="#082422" stroke-width="0.085689" stroke-linecap="round"/>
<path d="M6.81553 64.8362L4.84622 66.0481" stroke="#082422" stroke-width="0.085689" stroke-linecap="round"/>
<path d="M2.5747 70.1382L-0.000549316 71.653" stroke="#082422" stroke-width="0.085689" stroke-linecap="round"/>
<path d="M17.269 71.3499L14.6938 72.8647" stroke="#082422" stroke-width="0.085689" stroke-linecap="round"/>
<path d="M48.0201 33.7817L42.7181 36.9629" stroke="#082422" stroke-width="0.085689" stroke-linecap="round"/>
<path d="M19.0867 74.3801L13.7847 77.5613" stroke="#082422" stroke-width="0.085689" stroke-linecap="round"/>
<path d="M30.8891 42.7607L30.5903 44.0838C30.3924 44.9595 29.8872 45.7791 29.0572 46.4653C26.2737 48.7664 20.8897 48.6949 17.0317 46.306C14.3238 44.6296 13.0876 42.2565 13.5534 40.1953L13.8521 38.8722C13.3863 40.9334 14.6225 43.3059 17.3305 44.9829C21.1884 47.3718 26.5725 47.4428 29.356 45.1422C30.1859 44.456 30.6911 43.6364 30.8891 42.7607Z" fill="#0096A1" stroke="#082422" stroke-width="0.085689" stroke-miterlimit="10"/>
<path d="M27.4088 36.6531C31.2668 39.042 32.1376 42.8437 29.3535 45.1453C26.57 47.4464 21.186 47.3749 17.328 44.986C13.4701 42.5966 12.5993 38.795 15.3828 36.4939C18.1663 34.1927 23.5504 34.2637 27.4088 36.6531Z" fill="#29F5FF" stroke="#082422" stroke-width="0.085689" stroke-miterlimit="10"/>
<path d="M26.4348 38.9001L25.6483 39.5502C26.4987 40.3334 26.6362 41.0974 25.9783 41.7808L23.9484 40.5235C24.1926 40.2074 24.1202 39.9236 23.7071 39.6677C23.3204 39.4283 22.9914 39.4078 22.8326 39.5392C22.5982 39.7331 22.86 39.9866 23.4295 40.5323L23.7113 40.8077C24.9274 42.0009 25.1592 42.6484 24.4171 43.2619C23.7005 43.8543 22.5504 43.8391 21.1838 43.2402L20.3089 43.9635L18.3312 42.7389L19.213 42.0101C18.1952 41.123 18.1085 40.3179 18.7973 39.6344L20.9506 40.9679C20.6546 41.2887 20.7492 41.6043 21.2329 41.9037C21.6632 42.1704 22.0524 42.2553 22.2746 42.0719C22.471 41.9095 22.2671 41.7095 21.9051 41.3478L21.3036 40.7643C20.0685 39.5866 19.9593 38.9142 20.6829 38.3168C21.336 37.777 22.3792 37.7532 23.6839 38.314L24.4577 37.6745L26.4354 38.8991L26.4348 38.9001Z" fill="white" stroke="#082422" stroke-width="0.085689" stroke-miterlimit="10"/>
<path d="M10.8645 46.4587L1.40775 52.1328" stroke="#082422" stroke-width="0.085689" stroke-linecap="round"/>
<path d="M10.9508 42.457L6.17957 45.3813" stroke="#082422" stroke-width="0.085689" stroke-linecap="round"/>
</g>
<defs>
<clipPath id="clip0_664_15105">
<rect width="102.244" height="80" fill="white"/>
</clipPath>
</defs>
</svg>
