<svg width="79" height="80" viewBox="0 0 79 80" fill="none" xmlns="http://www.w3.org/2000/svg">
<g clip-path="url(#clip0_664_11558)">
<path d="M5.17865 0.0546875H62.3925C60.0157 0.546242 58.2294 2.64076 58.2294 5.15137V13.2432C58.2294 13.5163 58.0084 13.7382 57.7353 13.7383H0.549744C0.276592 13.7383 0.0546265 13.5163 0.0546265 13.2432V5.15137C0.0546265 2.33683 2.3482 0.0547539 5.17865 0.0546875Z" fill="#CFCABF" stroke="#082422" stroke-width="0.109908"/>
<path d="M10.4079 5.02026C10.3732 3.63422 9.79433 2.3823 8.87567 1.47241C8.17028 0.768061 7.2629 0.264846 6.24677 0.0544434H63.445C63.4492 0.0554988 63.4531 0.0583128 63.4577 0.0583496C66.287 0.059791 68.5798 2.34134 68.5798 5.15503V79.45C68.5798 79.7231 68.3578 79.9451 68.0847 79.9451H15.528C14.1148 79.945 12.8336 79.3736 11.9079 78.4529C10.9821 77.5282 10.4079 76.2536 10.4079 74.8445V5.02026Z" fill="#EFEBE7" stroke="#082422" stroke-width="0.109908"/>
<path d="M21.2649 66.2576H78.4504C78.7236 66.2576 78.9446 66.4795 78.9446 66.7527V74.8445C78.9446 77.6589 76.6519 79.941 73.8215 79.9412H16.6077C18.9844 79.4495 20.7698 77.355 20.7698 74.8445V66.7527C20.7698 66.4795 20.9917 66.2576 21.2649 66.2576Z" fill="#CFCABF" stroke="#082422" stroke-width="0.109908"/>
<rect x="16.0475" y="13.6741" width="49" height="4" rx="0.549538" fill="#082422"/>
<rect x="16.0475" y="26.6741" width="49" height="4" rx="0.549538" fill="#082422"/>
<rect x="16.0475" y="39.6741" width="49" height="4" rx="0.549538" fill="#082422"/>
<rect x="16.0475" y="52.6741" width="49" height="4" rx="0.549538" fill="#082422"/>
</g>
<defs>
<clipPath id="clip0_664_11558">
<rect width="79" height="80" fill="white"/>
</clipPath>
</defs>
</svg>
