<svg width="122" height="80" viewBox="0 0 122 80" fill="none" xmlns="http://www.w3.org/2000/svg">
<g clip-path="url(#clip0_664_11574)">
<path d="M91.0529 63.4141C91.0529 63.4141 82.0614 63.7574 84.1245 65.7728C86.1876 67.7882 86.7194 70.1 89.5917 70.264C92.4641 70.428 95.1992 70.602 96.8878 71.505C98.5763 72.408 98.6773 72.2925 100.113 71.1131C101.55 69.933 108.813 69.4526 108.813 69.4526L91.0537 63.4141H91.0529Z" fill="#D9D9D9"/>
<path d="M15.3421 69.8121C21.9586 69.1279 27.211 67.4989 27.0736 66.1735C26.9363 64.8481 21.4612 64.3283 14.8447 65.0124C8.22827 65.6966 2.97591 67.3257 3.11326 68.651C3.25061 69.9764 8.72567 70.4962 15.3421 69.8121Z" fill="#D9D9D9"/>
<path d="M33.9797 74.3628L19.4693 77.9879L66.218 79.9995L78.8371 75.9186L33.9797 74.3628Z" fill="#D9D9D9"/>
<path d="M63.1001 5.04125C63.1001 5.04125 64.1004 4.84802 64.206 4.78643C64.3116 4.72485 67.6548 1.7279 67.6548 1.7279C67.6548 1.7279 68.1812 1.01812 67.4182 0.255218C66.6552 -0.507683 63.8361 0.676314 63.8361 0.676314L61.1094 1.85954C61.1094 1.85954 60.6 3.04277 60.8628 3.59474C61.1264 4.14671 63.1001 5.04125 63.1001 5.04125Z" fill="#EF6629" stroke="#022522" stroke-width="0.164607" stroke-miterlimit="10"/>
<path d="M59.0463 11.2214C59.0463 11.2214 59.2043 7.32991 63.1001 5.04198C63.1001 5.04198 64.495 4.27908 63.4422 2.78022C63.4422 2.78022 62.6785 2.04426 61.6257 2.78022C60.573 3.51617 56.8876 5.4623 56.4136 10.9058L59.0463 11.2214Z" fill="#EEEBE7" stroke="#002522" stroke-width="0.164607" stroke-miterlimit="10"/>
<path d="M75.1838 12.2464C75.1838 12.2464 75.4473 7.08087 82.7125 6.83683C82.7125 6.83683 84.5552 6.35646 84.0289 4.75214C84.0289 4.75214 83.6343 3.83142 82.318 3.88454C82.318 3.88454 73.4436 4.1917 72.5234 11.7691L72.9989 12.2472H75.1838V12.2464Z" fill="#EEEBE7" stroke="#002522" stroke-width="0.164607" stroke-miterlimit="10"/>
<path d="M43.1808 39.7567L47.882 15.0976C47.882 15.0976 48.4847 10.7626 53.0648 10.5225L76.5768 12.0275C76.5768 12.0275 81.9946 12.3285 81.0305 18.8905L73.7376 59.8485L49.0272 58.4875L43.1808 39.7567Z" fill="#EEEBE7" stroke="#022522" stroke-width="0.164607" stroke-miterlimit="10"/>
<path d="M45.1815 41.0261L49.4364 17.1829C49.4364 17.1829 50.1331 12.614 53.81 12.3738L73.6689 13.4923C73.6689 13.4923 78.3231 13.8796 77.4615 18.4L71.7291 48.4411L58.5019 42.5157L45.1807 41.0268L45.1815 41.0261Z" fill="white" stroke="#002522" stroke-width="0.164607" stroke-miterlimit="10"/>
<path d="M72.0738 47.4808L71.5451 47.3746C71.5975 47.1136 76.7926 21.2158 77.2674 17.9494C77.4338 16.8062 77.1055 15.8108 76.2925 14.9909C75.5588 14.2511 74.5561 13.8092 73.4695 13.7461L54.0545 12.6183C53.7454 12.6006 53.4549 12.6168 53.1905 12.6676C52.3158 12.8354 51.5829 13.268 51.0118 13.954C50.6142 14.432 50.339 15.0279 50.2165 15.6768L45.4945 40.654L44.9643 40.5539L49.6863 15.5768C49.8258 14.8377 50.141 14.1572 50.5972 13.6091C51.25 12.8254 52.0877 12.3304 53.0888 12.1379C53.3971 12.0786 53.7323 12.0594 54.0861 12.0794L73.5011 13.2072C74.7211 13.278 75.8486 13.7769 76.6755 14.6114C77.6011 15.5444 77.9903 16.7253 77.8007 18.0271C77.3236 21.3074 72.1254 47.2191 72.073 47.4808H72.0738Z" fill="#EEEBE7" stroke="#002522" stroke-width="0.164607" stroke-miterlimit="10"/>
<path d="M80.475 26.3822C80.567 25.8726 80.2279 25.385 79.7177 25.2931C79.2075 25.2012 78.7194 25.5398 78.6274 26.0495L77.1167 34.4196C77.0247 34.9292 77.3637 35.4169 77.8739 35.5088C78.3841 35.6006 78.8723 35.262 78.9643 34.7523L80.475 26.3822Z" fill="#EEEBE7" stroke="#022522" stroke-width="0.164607" stroke-miterlimit="10"/>
<path d="M91.2928 2.45335C90.9244 1.99453 90.082 2.28091 90.082 2.28091L82.4739 3.88292C83.5189 3.79439 84.0268 4.75283 84.0268 4.75283C84.4484 6.46185 82.7105 6.83753 82.7105 6.83753L88.2386 7.38257L93.0299 6.04153V4.54267C93.0299 4.35868 91.6612 2.91217 91.2928 2.45335ZM91.635 4.33173C91.5294 4.59502 89.0023 5.72513 87.528 4.93682L91.2396 4.06922C91.2396 4.06922 91.7398 4.06922 91.6342 4.3325L91.635 4.33173Z" fill="#EF6629" stroke="#022522" stroke-width="0.164607" stroke-miterlimit="10"/>
<path d="M85.267 4.0686C85.267 4.0686 87.2885 4.82766 87.5313 4.9362L85.267 4.0686Z" fill="white"/>
<path d="M85.267 4.0686C85.267 4.0686 87.2885 4.82766 87.5313 4.9362" stroke="#002522" stroke-width="0.164607" stroke-miterlimit="10"/>
<path d="M84.1229 4.93579C84.1229 4.93579 87.3451 5.82956 89.1354 5.51393C90.9257 5.1983 93.0312 4.6394 93.0312 4.6394" stroke="#002522" stroke-width="0.164607" stroke-miterlimit="10"/>
<path d="M58.032 42.1843V39.3498L63.5401 39.6978C63.9933 39.7262 64.4487 39.7078 64.8973 39.6346C66.8725 39.3121 71.3656 37.834 72.2966 31.0626C72.2966 31.0626 73.0488 26.7592 68.9233 24.2157C67.98 23.6337 67.012 23.7954 65.9045 23.7423L60.8204 23.5005C59.7876 23.4513 58.7526 23.5868 57.7739 23.9186C55.6252 24.6468 52.4115 26.4552 51.7256 30.837C51.4412 32.6531 50.0362 36.7994 57.6945 41.6362L58.032 42.1835V42.1843Z" fill="#C1440D" stroke="#022522" stroke-width="0.164607" stroke-miterlimit="10"/>
<path d="M57.2466 41.5024V38.6679L62.7546 39.0158C63.2078 39.0443 63.6633 39.0258 64.1118 38.9527C66.0871 38.6302 70.5801 37.1521 71.5111 30.3807C71.5111 30.3807 72.2409 26.0642 68.2897 23.9256C67.3148 23.3983 66.2265 23.1135 65.1191 23.0611L60.0349 22.8194C59.0022 22.7701 57.9672 22.9056 56.9884 23.2374C54.8397 23.9657 51.626 25.774 50.9401 30.1559C50.6557 31.9719 49.2508 36.1182 56.909 40.955L57.2466 41.5024Z" fill="#EF6629" stroke="#022522" stroke-width="0.164607" stroke-miterlimit="10"/>
<path d="M57.9897 31.5213C58.2914 30.8902 58.1319 30.1858 57.6334 29.9479C57.1349 29.7101 56.4861 30.0289 56.1843 30.66C55.8826 31.2911 56.0421 31.9955 56.5406 32.2334C57.0391 32.4712 57.6879 32.1524 57.9897 31.5213Z" fill="#C1440D" stroke="#022522" stroke-width="0.164607" stroke-miterlimit="10"/>
<path d="M57.9579 31.4658C58.2156 30.9268 58.1602 30.3637 57.8341 30.2081C57.508 30.0525 57.0348 30.3634 56.777 30.9024C56.5193 31.4414 56.5747 32.0045 56.9008 32.1601C57.2269 32.3157 57.7001 32.0048 57.9579 31.4658Z" fill="white" stroke="#002522" stroke-width="0.164607" stroke-miterlimit="10"/>
<path d="M62.1472 31.8465C62.449 31.2154 62.2894 30.511 61.7909 30.2731C61.2924 30.0353 60.6436 30.3541 60.3419 30.9852C60.0401 31.6163 60.1996 32.3207 60.6981 32.5586C61.1967 32.7964 61.8454 32.4776 62.1472 31.8465Z" fill="#C1440D" stroke="#022522" stroke-width="0.164607" stroke-miterlimit="10"/>
<path d="M62.1155 31.792C62.3733 31.2529 62.3179 30.6898 61.9918 30.5343C61.6657 30.3787 61.1924 30.6896 60.9347 31.2286C60.677 31.7676 60.7324 32.3307 61.0584 32.4863C61.3845 32.6418 61.8578 32.331 62.1155 31.792Z" fill="white" stroke="#002522" stroke-width="0.164607" stroke-miterlimit="10"/>
<path d="M66.3331 32.1438C66.7138 31.5568 66.6466 30.8377 66.1829 30.5376C65.7193 30.2376 65.0347 30.4701 64.654 31.0571C64.2733 31.644 64.3405 32.3631 64.8042 32.6632C65.2678 32.9633 65.9524 32.7307 66.3331 32.1438Z" fill="#C1440D" stroke="#022522" stroke-width="0.164607" stroke-miterlimit="10"/>
<path d="M66.3086 32.0855C66.6338 31.5842 66.6516 31.0187 66.3483 30.8224C66.045 30.6261 65.5355 30.8734 65.2104 31.3747C64.8852 31.8761 64.8674 32.4416 65.1707 32.6379C65.474 32.8341 65.9834 32.5869 66.3086 32.0855Z" fill="white" stroke="#002522" stroke-width="0.164607" stroke-miterlimit="10"/>
<path d="M96.9395 62.7105C96.9395 62.7105 96.6212 55.9083 97.5368 49.3447C97.5368 49.3447 97.8952 47.8328 98.8115 45.4863C99.7271 43.1391 100.962 39.9574 101.042 39.4794C101.122 39.0013 101.347 38.9228 101.393 39.4794C101.44 40.036 100.962 43.1391 100.603 44.1338C100.245 45.1284 99.4489 48.4302 99.6878 50.22C99.9267 52.0099 100.405 55.6196 100.405 55.6196L101.396 59.8491L101.121 63.2671L100.882 64.5797H97.8559L96.9403 62.7097L96.9395 62.7105Z" fill="#60CD6F" stroke="#022522" stroke-width="0.164607" stroke-miterlimit="10"/>
<path d="M95.3474 57.0226L88.4182 51.8516C88.4182 51.8516 87.9704 51.653 87.955 52.0903C87.9396 52.5276 91.9402 55.6392 92.2693 56.5299C92.5991 57.4206 94.431 60.5253 94.431 60.5253L95.5061 60.1881L95.3466 57.0226H95.3474Z" fill="#60CD6F" stroke="#022522" stroke-width="0.164607" stroke-miterlimit="10"/>
<path d="M88.1859 61.9375C88.1859 61.9375 88.6282 62.1838 88.6282 61.5433C88.6282 60.9028 89.5153 57.26 90.1072 57.26C90.699 57.26 92.7683 60.1877 92.7683 60.1877L94.1486 59.6218L92.867 56.8174C92.867 56.8174 89.2201 54.9467 88.8748 55.882C88.5296 56.8174 87.4992 59.2161 88.1859 61.9375Z" fill="#60CD6F" stroke="#022522" stroke-width="0.164607" stroke-miterlimit="10"/>
<path d="M110.855 65.8272C110.855 65.8272 115.045 67.4022 115.488 67.7471C115.932 68.092 118.297 66.9103 119.431 66.7871C120.565 66.664 122.339 66.7132 121.945 65.8272C121.55 64.9411 121.354 63.6116 121.403 63.3652C121.452 63.1189 121.896 60.5554 121.502 60.1882C121.107 59.821 120.072 57.2605 119.678 56.9657C119.284 56.6708 118.446 55.8332 118.446 55.8332C118.446 55.8332 120.023 53.9626 120.22 53.5191C120.417 53.0757 121.502 51.8948 120.368 51.3528C119.234 50.8109 116.179 50.6146 115.981 50.4175C115.784 50.2204 112.433 49.0387 112.088 48.6946C111.743 48.3497 110.116 48.0056 109.919 48.0056C109.722 48.0056 109.131 48.252 109.131 48.252L108.096 49.0395L106.962 49.7778L105.336 54.8979L104.821 61.249L110.855 65.8272Z" fill="#FBAD5A" stroke="#022522" stroke-width="0.164607" stroke-miterlimit="10"/>
<path d="M115.489 67.7469C115.489 67.7469 115.439 64.2511 115.094 63.1687C114.749 62.0864 114.65 61.4951 114.355 61.2981C114.059 61.101 113.6 61.0024 113.411 60.7569C113.221 60.5113 112.663 60.4613 112.474 60.6091C112.284 60.7569 110.432 61.5406 110.501 61.8061" stroke="#002522" stroke-width="0.164607" stroke-linecap="round" stroke-linejoin="round"/>
<path d="M118.799 50.9183C118.799 50.9183 112.729 50.4841 111.743 50.9183C110.757 51.3525 110.412 51.0076 110.216 51.1554C110.018 51.3032 109.23 51.8937 109.279 52.2878C109.329 52.682 108.737 54.6019 108.54 54.8475C108.343 55.0931 107.359 55.5858 107.359 55.5858" stroke="#002522" stroke-width="0.164607" stroke-linecap="round" stroke-linejoin="round"/>
<path d="M99.1411 64.2046C99.1411 64.2046 100.802 57.26 103.512 52.5833C106.223 47.9065 110.341 42.7864 110.499 43.0813C110.658 43.3761 109.229 45.3954 108.54 46.4292C107.85 47.4631 103.512 60.5649 102.576 64.2046C101.64 67.8451 102.428 64.0075 102.428 64.0075L99.1411 64.2046Z" fill="#60CD6F" stroke="#022522" stroke-width="0.164607" stroke-miterlimit="10"/>
<path d="M101.394 64.2041C101.394 64.2041 103.454 55.0486 106.091 54.7491C108.727 54.4496 108.925 58.4635 108.777 58.8015C108.629 59.1394 107.756 57.2295 106.721 56.8846C105.685 56.5397 104.617 59.6329 104.828 63.1526L101.394 64.2049V64.2041Z" fill="#60CD6F" stroke="#022522" stroke-width="0.164607" stroke-miterlimit="10"/>
<path d="M97.895 61.9837C97.895 61.9837 95.0281 50.4586 94.7491 49.902C94.4701 49.3454 89.0545 42.1452 88.4965 42.1852C87.9393 42.2253 88.2977 42.8403 88.4965 43.0698C88.6954 43.2992 93.0466 50.3 93.0466 50.3L94.3907 57.0622L95.267 61.5172L97.895 61.9837Z" fill="#60CD6F" stroke="#022522" stroke-width="0.164607" stroke-miterlimit="10"/>
<path d="M97.3791 62.1541C97.3791 62.1541 101.242 48.9869 101.8 47.8337C102.358 46.6805 103.711 44.4126 104.388 43.2594C105.065 42.1062 106.579 40.5542 108.251 37.6504C109.923 34.7466 108.813 38.0084 108.813 38.0084C108.813 38.0084 107.335 41.1909 106.578 41.8668C105.821 42.5427 104.507 44.6913 103.79 46.8391C103.074 48.9869 101.242 53.7529 101.6 55.5867C101.958 57.4204 101.6 61.984 101.6 61.984L101.122 65.0579H97.618L97.3791 62.1541Z" fill="#60CD6F" stroke="#022522" stroke-width="0.164607" stroke-miterlimit="10"/>
<path d="M99.1313 68.8386C99.1313 68.8386 99.0388 69.1781 100.646 68.8386C102.255 68.4991 102.935 68.2828 103.275 68.4676C103.616 68.6523 105.378 69.5484 105.842 69.6724C106.306 69.7963 108.749 70.3213 109.121 70.259C109.492 70.1974 111.502 68.8563 111.966 68.3991C112.43 67.9418 112.585 67.2004 112.399 66.7678C112.214 66.3352 111.533 64.8525 111.533 64.8525C111.533 64.8525 111.811 63.7716 111.224 63.4621C110.637 63.1534 110.513 61.2381 110.173 60.9602C109.833 60.6823 108.503 60.1573 108.317 60.1881C108.131 60.2189 106.183 60.312 105.997 60.466C105.812 60.6207 104.884 60.9602 104.884 60.9602L104.822 62.9371C104.822 62.9371 100.431 63.9017 99.8742 64.0064C99.3178 64.1111 99.0226 63.8894 99.0226 63.8894C99.0226 63.8894 98.0184 64.3582 99.1321 68.8371L99.1313 68.8386Z" fill="#FBAD5A" stroke="#022522" stroke-width="0.164607" stroke-miterlimit="10"/>
<path d="M104.821 62.9383C104.821 62.9383 106.893 62.7597 107.295 64.0076C107.697 65.2555 106.027 67.5103 106.058 68.2517C106.089 68.993 106.367 69.7967 106.367 69.7967" stroke="#002522" stroke-width="0.164607" stroke-linecap="round" stroke-linejoin="round"/>
<path d="M88.1849 65.6686L91.7393 60.4353L94.059 58.9834L97.7698 60.7132C97.7698 60.7132 99.9963 66.1813 100.09 67.0766C100.183 67.9719 99.9655 68.8064 99.7181 68.9612C99.4707 69.1159 97.9247 68.9612 97.9247 68.9612C97.9247 68.9612 95.3892 67.664 95.2035 67.3861C95.0177 67.1082 94.3303 66.8611 94.1484 66.8303C93.9665 66.7995 92.6363 66.0581 92.0799 66.1197C91.5235 66.1813 89.3625 67.3183 88.1856 65.6686H88.1849Z" fill="#FBAD5A" stroke="#022522" stroke-width="0.164607" stroke-miterlimit="10"/>
<path d="M93.9373 59.8494C93.9373 59.8494 92.6079 62.6608 95.0509 63.6492C97.494 64.6377 98.267 68.5608 98.267 68.5608" stroke="#002522" stroke-width="0.164607" stroke-linecap="round" stroke-linejoin="round"/>
<path d="M36.3255 40.398C36.3255 38.0986 34.4419 36.1648 32.1407 36.1817C31.2636 36.1878 30.4521 36.4665 29.7839 36.9361C28.715 37.6875 28.016 38.9277 28.016 40.3326V45.8885C28.016 46.1502 27.9798 46.4127 27.8904 46.6591C27.7023 47.1787 27.3324 47.6106 26.8592 47.8816V28.3933C26.8592 24.3948 23.6139 21.1531 19.611 21.1531C15.608 21.1531 12.3627 24.3948 12.3627 28.3933V42.1094C12.0105 42.1656 11.6498 42.1956 11.2822 42.1956C10.2187 42.1956 9.21062 41.9539 8.312 41.522V34.3064H8.30429C8.17944 32.1262 6.37066 30.3964 4.15649 30.3964C1.94233 30.3964 0.133537 32.1255 0.00868701 34.3056H0.000980202V41.5382C0.000980202 41.5382 -0.0028732 41.9731 0.000980202 42.1941C0.104251 48.0278 4.52102 50.7707 7.64074 50.7707C9.46956 50.7707 11.1751 50.82 12.3619 50.8015V67.1281C12.3619 67.9664 15.6073 68.6462 19.6102 68.6462C23.6131 68.6462 26.8584 67.9664 26.8584 67.1281V57.0641C32.1507 56.5252 36.2808 52.061 36.2808 46.6321C36.2808 46.4581 36.2993 46.2818 36.2908 46.1094L36.3255 40.3965V40.398Z" fill="#60CD6F" stroke="#022522" stroke-width="0.164607" stroke-miterlimit="10"/>
<path d="M8.09802 41.697L9.25636 40.4507L9.03979 41.9634L10.3376 41.8241L9.21782 42.4723" fill="#60CD6F"/>
<path d="M8.09802 41.697L9.25636 40.4507L9.03979 41.9634L10.3376 41.8241L9.21782 42.4723" stroke="#022522" stroke-width="0.164607" stroke-miterlimit="10"/>
<path d="M1.88945 31.0676C1.88945 31.0676 0.489893 31.9483 0.466002 34.4903C0.44211 37.0323 0.466002 41.8976 0.466002 41.8976C0.466002 41.8976 0.320343 46.836 4.75561 49.4257C4.75561 49.4257 6.30622 50.2733 10.1357 50.3211C10.1357 50.3211 11.59 50.1794 11.6863 50.8068" stroke="#002522" stroke-width="0.164607" stroke-miterlimit="10"/>
<path d="M3.27718 30.4887C3.27718 30.4887 2.20363 31.3924 2.09111 33.3024C2.05874 33.8497 2.09111 35.0938 2.09111 35.0938L3.06062 34.1985L2.55197 35.4818L3.81204 35.772L2.50342 35.9899L2.93577 37.2485L2.05951 36.3286V41.3394C2.05951 41.3394 2.21287 47.3187 6.30827 48.7228L5.77496 47.5127L6.81692 48.3602L7.54367 47.1986L7.42268 48.5057L8.80374 48.4819L7.64078 49.1116H11.5427C11.5427 49.1116 12.5123 48.8214 12.5608 47.8044C12.6094 46.7875 11.4942 46.5211 11.4942 46.5211L9.67692 46.4003C9.67692 46.4003 5.16921 46.3764 5.14531 40.7844C5.12142 35.1923 5.16921 32.675 5.16921 32.675C5.16921 32.675 5.25938 30.9921 4.41471 30.4055" stroke="#002522" stroke-width="0.164607" stroke-miterlimit="10"/>
<path d="M5.58362 30.7476C5.58362 30.7476 7.42786 31.9654 7.41244 33.686C7.39703 35.4066 7.26679 39.5051 7.47333 41.462C7.50261 41.7407 7.80857 44.0233 9.94259 44.2819C12.0766 44.5406 12.3047 43.5814 12.2593 43.1403C12.2138 42.6992 11.8022 42.2727 11.4208 42.1965" stroke="#002522" stroke-width="0.164607" stroke-miterlimit="10"/>
<path d="M12.1191 42.1846C12.1191 42.1846 13.0454 42.2693 13.289 42.9575V26.4909C13.289 26.4909 13.2458 25.0613 13.6535 24.2668" stroke="#002522" stroke-width="0.164607" stroke-miterlimit="10"/>
<path d="M17.3975 21.4956C17.3975 21.4956 15.5471 22.9067 15.4908 27.0022C15.4346 31.0977 15.4908 65.5915 15.4908 65.5915C15.4908 65.5915 15.7852 67.0996 17.3975 67.1311C19.0098 67.1627 19.3411 65.5106 19.3411 65.5106V21.8182C19.3411 21.8182 19.3573 21.431 19.4706 21.1531" stroke="#002522" stroke-width="0.164607" stroke-miterlimit="10"/>
<path d="M20.6331 21.271C20.6331 21.271 21.9409 21.8029 22.0781 26.3827V59.8518L22.9258 58.8679L22.5305 60.2467L23.8622 60.3599L22.4095 60.7794L22.9181 61.8279L22.0789 61.0296V64.9727C22.0789 64.9727 22.2399 66.7548 23.863 66.6979C25.4853 66.6417 25.4205 64.8918 25.4205 64.8918V53.8456L24.6861 54.7971L25.0575 53.3783L23.8229 53.2012L25.1146 52.8548L24.6945 51.6292L25.4776 52.5407V26.6267C25.4776 26.6267 25.2263 24.0886 23.3343 22.1809" stroke="#002522" stroke-width="0.164607" stroke-miterlimit="10"/>
<path d="M12.3628 66.1369C12.3628 66.1369 13.2159 66.0176 13.209 64.7682C13.2021 63.518 13.209 50.8389 13.209 50.8389" stroke="#002522" stroke-width="0.164607" stroke-miterlimit="10"/>
<path d="M13.851 50.8066H12.3628" stroke="#002522" stroke-width="0.164607" stroke-miterlimit="10"/>
<path d="M26.8586 57.0515V47.8982" stroke="#002522" stroke-width="0.164607" stroke-miterlimit="10"/>
<path d="M32.4961 36.209C32.4961 36.209 34.2995 36.9634 34.2864 39.1066C34.2733 41.2498 34.2864 45.8696 34.2864 45.8696C34.2864 45.8696 34.3766 54.1221 26.8586 55.1445" stroke="#002522" stroke-width="0.164607" stroke-miterlimit="10"/>
<path d="M32.0946 36.209C32.0946 36.209 31.2684 36.5908 31.2885 38.1767C31.3085 39.7625 31.2885 46.8057 31.2885 46.8057C31.2885 46.8057 31.6399 51.8273 26.8586 52.1183" stroke="#002522" stroke-width="0.164607" stroke-miterlimit="10"/>
<path d="M30.5725 36.5012C30.5725 36.5012 28.9024 37.5628 28.8662 39.5274C28.83 41.492 28.8662 47.7153 28.8662 47.7153L29.959 47.2419L29.1213 48.3335L30.1779 49.1103L28.85 48.8069L28.6111 49.8624L28.2104 48.8069C28.2104 48.8069 28.0932 49.4983 26.8586 50.0441" stroke="#002522" stroke-width="0.164607" stroke-miterlimit="10"/>
<path d="M15.0975 63.6901L15.8766 64.5608L15.4874 63.3306L16.8408 63.0751L15.4874 62.7617L15.9691 61.6008L15.0975 62.5177" fill="#60CD6F"/>
<path d="M15.0975 63.6901L15.8766 64.5608L15.4874 63.3306L16.8408 63.0751L15.4874 62.7617L15.9691 61.6008L15.0975 62.5177" stroke="#022522" stroke-width="0.164607" stroke-miterlimit="10"/>
<path d="M15.4658 28.6515L16.349 29.6399L15.9598 28.4097L17.3139 28.1542L15.9598 27.8408L16.4423 26.6799L15.4843 27.6884" stroke="#002522" stroke-width="0.164607" stroke-miterlimit="10"/>
<path d="M19.3176 38.2587L18.4337 37.2703L18.8229 38.5012L17.4695 38.756L18.8229 39.0694L18.3412 40.2303L19.2991 39.2218" stroke="#002522" stroke-width="0.164607" stroke-miterlimit="10"/>
<path d="M25.475 35.7172L24.5911 34.7288L24.9803 35.9597L23.627 36.2145L24.9803 36.5286L24.4986 37.6888L25.4566 36.681" stroke="#002522" stroke-width="0.164607" stroke-miterlimit="10"/>
<path d="M22.4928 46.7733L24.0882 46.2136H22.5946L22.7811 44.7563L22.0775 45.9765" stroke="#002522" stroke-width="0.164607" stroke-miterlimit="10"/>
<path d="M34.627 42.1973L33.1681 42.4005L34.2879 41.6553L33.592 40.6038L34.7965 41.2481" fill="#60CD6F"/>
<path d="M34.627 42.1973L33.1681 42.4005L34.2879 41.6553L33.592 40.6038L34.7965 41.2481" stroke="#022522" stroke-width="0.164607" stroke-miterlimit="10"/>
<path d="M84.8698 67.3797C84.9021 73.3744 81.0603 76.9325 77.0165 76.6338C72.9728 76.3344 69.8469 71.3998 70.2253 66.2966C70.6037 61.1934 74.1943 57.228 78.2327 57.599C82.9847 58.0355 84.842 62.2634 84.8698 67.3805V67.3797Z" fill="#4D4D4D" stroke="#002522" stroke-width="0.164607" stroke-miterlimit="10"/>
<path d="M48.6115 66.6108C48.1753 72.5901 44.0668 75.8372 40.0592 75.2237C36.0509 74.6101 33.3212 69.4461 34.0972 64.3883C34.8733 59.3305 38.7637 55.6569 42.7597 56.342C47.4624 57.1473 48.9837 61.5076 48.6115 66.6116V66.6108Z" fill="#4D4D4D" stroke="#002522" stroke-width="0.164607" stroke-miterlimit="10"/>
<path d="M81.5857 67.7692C81.3391 70.0495 80.1769 71.8747 78.8375 71.8201C77.4981 71.7654 76.4885 69.8632 76.5817 67.5722C76.675 65.2811 78.1847 62.947 79.5234 63.0017C80.8628 63.0563 81.8262 65.5452 81.585 67.77L81.5857 67.7692Z" fill="white" stroke="#002522" stroke-width="0.164607" stroke-miterlimit="10"/>
<path d="M79.986 67.7048C79.7879 69.9873 79.099 70.7186 78.3082 71.0612C77.4713 71.423 76.4887 69.8641 76.5819 67.5723C76.6752 65.2806 78.3452 62.9742 79.099 63.4861C79.8588 64.0019 80.1787 65.4776 79.986 67.7048Z" fill="white" stroke="#002522" stroke-width="0.164607" stroke-miterlimit="10"/>
<path d="M36.5732 51.758L38.9361 39.5562L61.4037 41.0258L72.2935 46.3715L70.1941 57.3246L62.5189 53.8065L36.5732 51.758Z" fill="#FBAD5A" stroke="#022522" stroke-width="0.164607" stroke-miterlimit="10"/>
<path d="M74.6472 59.6412L62.5205 53.8075L30.1997 51.3132L27.342 66.0547L39.4687 71.8954L71.7934 73.8908L74.6472 59.6412Z" fill="#BEA687" stroke="#022522" stroke-width="0.164607" stroke-miterlimit="10"/>
<path d="M70.9912 73.8406C70.9912 73.8406 71.1692 75.003 67.2904 74.7359C63.4115 74.4687 42.4143 72.9545 42.4143 72.9545L35.6824 69.1692L35.9052 68.2339L62.7426 69.7928L70.9904 73.8406H70.9912Z" fill="#EEEBE7" stroke="#002522" stroke-width="0.164607" stroke-miterlimit="10"/>
<path d="M68.9414 74.7759L61.4064 71.1138L35.967 69.3293" stroke="#022522" stroke-width="0.164607" stroke-miterlimit="10"/>
<path d="M62.744 69.7938L59.7808 68.2349L27.342 66.054" stroke="#002522" stroke-width="0.164607" stroke-miterlimit="10"/>
<path d="M62.5216 53.8069L59.7818 68.235" stroke="#002522" stroke-width="0.164607" stroke-miterlimit="10"/>
<path d="M61.4052 41.0256L59.2789 53.5561" stroke="#002522" stroke-width="0.164607" stroke-miterlimit="10"/>
<path d="M67.6187 56.2598C67.6187 56.2598 66.0565 61.9326 66.9212 63.9334L69.5616 65.343C69.5616 65.343 68.69 63.9034 70.1951 57.3252L67.6187 56.2598Z" fill="#D9FB35" stroke="#022522" stroke-width="0.164607" stroke-miterlimit="10" stroke-linecap="round"/>
<path d="M67.2396 43.9846C67.2396 43.9846 65.3977 49.1109 66.6601 51.7022L69.2881 53.248C69.2881 53.248 68.2785 51.5343 69.9208 45.2071L67.2396 43.9846Z" fill="#8AFAF7" stroke="#022522" stroke-width="0.164607" stroke-miterlimit="10"/>
</g>
<defs>
<clipPath id="clip0_664_11574">
<rect width="122" height="80" fill="white"/>
</clipPath>
</defs>
</svg>
