<svg width="52" height="80" viewBox="0 0 52 80" fill="none" xmlns="http://www.w3.org/2000/svg">
<g clip-path="url(#clip0_664_11618)">
<path d="M10.9026 34.437L25.4122 48.475C25.4122 48.475 25.49 48.9241 25.0509 48.6947L10.7725 34.8057L10.9031 34.437H10.9026Z" fill="white" stroke="#082422" stroke-width="0.164607" stroke-miterlimit="10"/>
<path d="M19.4515 34.0694L25.2981 45.6942C25.3184 45.7349 25.3221 45.7821 25.3077 45.8255C25.2725 45.9337 25.1761 46.0961 24.9368 45.871C24.9224 45.8576 24.9107 45.841 24.9016 45.8228L19.2138 34.3759C19.2138 34.3759 19.5645 35.0222 19.2026 34.3952L19.4302 34.093C19.7958 34.7157 19.4494 34.0656 19.451 34.0689L19.4515 34.0694Z" fill="white" stroke="#082422" stroke-width="0.164607" stroke-miterlimit="10"/>
<path d="M28.5493 33.1531L26.278 48.3561C26.278 48.3561 25.9673 48.6878 25.8863 48.1964L28.1773 33.2688L28.5487 33.1531H28.5493Z" fill="white" stroke="#082422" stroke-width="0.164607" stroke-miterlimit="10"/>
<path d="M41.4273 34.988L26.5926 48.5137C26.5926 48.5137 26.1433 48.5747 26.3879 48.1417L41.066 34.8428L41.4273 34.988Z" fill="white" stroke="#082422" stroke-width="0.164607" stroke-miterlimit="10"/>
<path d="M28.98 19.8138C29.7742 19.733 30.3834 19.3242 30.3408 18.9007C30.2981 18.4773 29.6198 18.1996 28.8257 18.2804C28.0315 18.3612 27.4223 18.77 27.4649 19.1935C27.5076 19.6169 28.1859 19.8946 28.98 19.8138Z" fill="white" stroke="#082422" stroke-width="0.164607" stroke-miterlimit="10"/>
<path d="M29.9023 18.7052C29.9327 18.9276 29.5506 19.3445 28.982 19.4083C28.4133 19.4721 27.874 19.158 27.8437 18.9356C27.8133 18.7132 28.2492 18.4817 28.8178 18.4179C29.3864 18.3542 29.8719 18.4828 29.9023 18.7052Z" fill="white" stroke="#082422" stroke-width="0.164607" stroke-miterlimit="10"/>
<path d="M29.6965 18.0602C29.7626 18.542 29.4343 18.7612 28.9024 18.8207C28.37 18.8802 27.835 18.758 27.7695 18.2762C27.7034 17.7944 28.0817 17.3555 28.6141 17.296C29.1465 17.2365 29.6315 17.5785 29.697 18.0602H29.6965Z" fill="white" stroke="#082422" stroke-width="0.164607" stroke-miterlimit="10"/>
<path d="M29.354 17.9983C29.3929 18.2813 29.1808 18.4715 28.8504 18.5085C28.52 18.5455 28.1571 18.4367 28.1187 18.1537C28.0804 17.8708 28.3804 17.5214 28.7103 17.4844C29.0401 17.4474 29.3151 17.7154 29.354 17.9983Z" fill="white" stroke="#082422" stroke-width="0.164607" stroke-miterlimit="10"/>
<path d="M36.1055 7.07174C37.311 11.8793 34.3128 16.5931 29.41 17.6001C24.5072 18.607 19.5554 15.5261 18.3499 10.7186C17.1445 5.91097 20.1426 1.19717 25.0454 0.19021C29.9482 -0.816751 34.9001 2.26415 36.1055 7.07174Z" fill="white" stroke="#082422" stroke-width="0.164607" stroke-miterlimit="10"/>
<path d="M33.5709 75.9693C33.768 73.8739 28.4096 71.7389 22.7788 71.2753C18.2006 70.8981 14.8816 71.7844 14.5879 73.1971C14.5847 73.2132 14.581 73.2292 14.5789 73.2453C14.5768 73.2614 14.5746 73.2775 14.5725 73.2941L14.3865 74.449C14.3833 74.465 14.3796 74.4811 14.3774 74.4972C14.3753 74.5133 14.3732 74.5293 14.371 74.546L14.3673 74.569H14.3684C14.2346 75.9983 17.0985 77.8803 21.5387 78.9714C26.9936 80.3117 32.7134 80.0009 33.2453 77.9795L33.2506 77.9806L33.5746 75.9704H33.5714L33.5709 75.9693Z" fill="#D1E50E" stroke="#082422" stroke-width="0.164607" stroke-miterlimit="10"/>
<path d="M33.563 76.041C33.2224 78.154 27.3641 78.6755 21.7786 77.4831C17.2478 76.5158 14.3466 74.6873 14.579 73.2457C14.8113 71.8041 18.1538 70.8947 22.7789 71.2757C28.4811 71.7457 33.9035 73.9279 33.5624 76.041H33.563Z" fill="white" stroke="#082422" stroke-width="0.164607" stroke-miterlimit="10"/>
<path d="M33.7938 74.5928C33.991 72.4975 28.6325 70.3624 23.0017 69.8989C18.4235 69.5216 15.1045 70.408 14.8109 71.8206C14.8077 71.8367 14.8039 71.8528 14.8018 71.8688C14.7997 71.8849 14.7975 71.901 14.7954 71.9176L14.6094 73.0725C14.6062 73.0886 14.6025 73.1046 14.6004 73.1207C14.5982 73.1368 14.5961 73.1529 14.594 73.1695L14.5902 73.1925H14.5913C14.3366 74.7836 17.3214 76.5039 21.7617 77.595C27.2166 78.9353 32.9363 78.6244 33.4682 76.603L33.4735 76.6041L33.7975 74.5939H33.7943L33.7938 74.5928Z" fill="#D1E50E" stroke="#082422" stroke-width="0.164607" stroke-miterlimit="10"/>
<path d="M33.786 74.664C33.4455 76.7771 27.5871 77.2985 22.0017 76.1062C17.4708 75.1388 14.5697 73.3103 14.802 71.8688C15.0344 70.4267 18.3768 69.5178 23.0019 69.8988C28.7041 70.3688 34.1265 72.551 33.7854 74.664H33.786Z" fill="white" stroke="#082422" stroke-width="0.164607" stroke-miterlimit="10"/>
<path d="M34.016 73.2171C34.2132 71.1217 28.8548 68.9867 23.224 68.5231C18.6458 68.1459 15.3268 69.0323 15.0331 70.4449C15.0299 70.461 15.0262 70.477 15.0241 70.4931C15.0219 70.5092 15.0198 70.5253 15.0177 70.5419L14.8317 71.6968C14.8285 71.7128 14.8248 71.7289 14.8226 71.745C14.8205 71.7611 14.8184 71.7771 14.8162 71.7938L14.8125 71.8168H14.8136C14.5386 73.4658 17.5437 75.1281 21.9839 76.2192C27.4388 77.5595 33.1586 77.2487 33.6904 75.2273L33.6958 75.2284L34.0198 73.2182H34.0166L34.016 73.2171Z" fill="#D1E50E" stroke="#082422" stroke-width="0.164607" stroke-miterlimit="10"/>
<path d="M34.008 73.2881C33.6674 75.4011 27.8091 75.9226 22.2237 74.7302C17.6928 73.7629 14.7916 71.9344 15.024 70.4928C15.2563 69.0507 18.5988 68.1418 23.2239 68.5228C28.9261 68.9928 34.3485 71.175 34.0074 73.2881H34.008Z" fill="white" stroke="#082422" stroke-width="0.164607" stroke-miterlimit="10"/>
<path d="M34.2375 71.8414C34.4346 69.746 29.0762 67.611 23.4454 67.1474C18.8672 66.7701 15.5482 67.6565 15.2545 69.0692C15.2514 69.0852 15.2476 69.1013 15.2455 69.1174C15.2434 69.1335 15.2412 69.1495 15.2391 69.1662L15.0531 70.321C15.0499 70.3371 15.0462 70.3532 15.044 70.3693C15.0419 70.3853 15.0398 70.4014 15.0377 70.418L15.0339 70.4411H15.035C14.8314 72.2396 17.7651 73.7524 22.2053 74.8435C27.6602 76.1838 33.38 75.873 33.9119 73.8516L33.9172 73.8526L34.2412 71.8425H34.238L34.2375 71.8414Z" fill="#D1E50E" stroke="#082422" stroke-width="0.164607" stroke-miterlimit="10"/>
<path d="M34.2289 71.9126C33.8884 74.0256 28.0301 74.5471 22.4446 73.3547C17.9138 72.3874 15.0126 70.5589 15.2449 69.1173C15.4773 67.6752 18.8197 66.7663 23.4449 67.1473C29.1471 67.6173 34.5694 69.7995 34.2284 71.9126H34.2289Z" fill="#DCFF00" stroke="#082422" stroke-width="0.164607" stroke-miterlimit="10"/>
<path d="M26.3155 71.7648C31.467 71.7648 35.6431 66.8374 35.6431 60.759C35.6431 54.6807 31.467 49.7532 26.3155 49.7532C21.164 49.7532 16.9879 54.6807 16.9879 60.759C16.9879 66.8374 21.164 71.7648 26.3155 71.7648Z" fill="#D1E50E" stroke="#082422" stroke-width="0.164607" stroke-miterlimit="10"/>
<path d="M25.4176 71.7648C30.5691 71.7648 34.7452 66.8374 34.7452 60.759C34.7452 54.6807 30.5691 49.7532 25.4176 49.7532C20.2661 49.7532 16.09 54.6807 16.09 60.759C16.09 66.8374 20.2661 71.7648 25.4176 71.7648Z" fill="#DCFF00" stroke="#082422" stroke-width="0.164607" stroke-miterlimit="10"/>
<path d="M20.307 33.8353C20.4072 34.248 19.918 34.6863 19.2135 34.8144C18.509 34.9425 17.8567 34.7115 17.756 34.2989C17.6553 33.8862 18.145 33.4479 18.8495 33.3198C19.554 33.1917 20.2063 33.4227 20.307 33.8353Z" fill="#6060BF" stroke="#082422" stroke-width="0.164607" stroke-miterlimit="10"/>
<path d="M19.8946 33.6796C19.9474 33.8972 19.6511 34.328 19.1464 34.4197C18.6417 34.5113 18.1195 34.2294 18.0667 34.0124C18.0139 33.7954 18.3801 33.5446 18.8853 33.4524C19.3899 33.3607 19.8424 33.4626 19.8951 33.6796H19.8946Z" fill="#6060BF" stroke="#082422" stroke-width="0.164607" stroke-miterlimit="10"/>
<path d="M19.634 33.054C19.7486 33.5255 19.4784 33.7581 19.0057 33.8439C18.533 33.9296 18.0369 33.8364 17.9223 33.3653C17.8077 32.8937 18.0976 32.4419 18.5708 32.3562C19.0435 32.2705 19.52 32.5829 19.6345 33.054H19.634Z" fill="white" stroke="#082422" stroke-width="0.164607" stroke-miterlimit="10"/>
<path d="M19.3181 33.0109C19.3853 33.2874 19.2164 33.4862 18.9232 33.5398C18.6301 33.5929 18.2907 33.5045 18.223 33.2274C18.1553 32.9503 18.3861 32.5908 18.6792 32.5377C18.9723 32.4846 19.251 32.7338 19.3181 33.0109Z" fill="#6060BF" stroke="#082422" stroke-width="0.164607" stroke-miterlimit="10"/>
<path d="M24.147 21.8985C25.7851 26.5743 23.6258 31.3722 19.323 32.6155C15.0208 33.8582 10.2049 31.0758 8.5667 26.4001C6.92852 21.7243 9.08789 16.9264 13.3906 15.6831C17.6928 14.4403 22.5088 17.2228 24.147 21.8985Z" fill="#6060BF" stroke="#082422" stroke-width="0.164607" stroke-miterlimit="10"/>
<path d="M42.5903 35.1076C42.4816 35.5192 41.8229 35.6725 41.12 35.4506C40.4171 35.2287 39.9353 34.7153 40.0441 34.3038C40.1528 33.8922 40.8115 33.7389 41.5144 33.9608C42.2173 34.1827 42.699 34.6961 42.5903 35.1076Z" fill="#FFB05A" stroke="#082422" stroke-width="0.164607" stroke-miterlimit="10"/>
<path d="M42.2909 34.7739C42.2334 34.9905 41.7548 35.2295 41.2507 35.0703C40.7465 34.9111 40.4087 34.4144 40.4657 34.1979C40.5232 33.9813 40.9778 33.9342 41.4819 34.0934C41.9861 34.2525 42.3479 34.5569 42.2904 34.7739H42.2909Z" fill="#FFB05A" stroke="#082422" stroke-width="0.164607" stroke-miterlimit="10"/>
<path d="M42.357 34.0995C42.2329 34.5695 41.8737 34.6462 41.402 34.4972C40.9304 34.3482 40.5238 34.0304 40.6485 33.5604C40.7727 33.0904 41.256 32.8305 41.7282 32.9795C42.1998 33.1285 42.4817 33.6301 42.3576 34.1001L42.357 34.0995Z" fill="white" stroke="#082422" stroke-width="0.164607" stroke-miterlimit="10"/>
<path d="M42.0909 33.911C42.0179 34.187 41.7674 34.2813 41.4749 34.1891C41.1823 34.097 40.9164 33.8569 40.9894 33.5809C41.0624 33.3049 41.4466 33.0975 41.7392 33.1897C42.0318 33.2819 42.1639 33.635 42.0909 33.9105V33.911Z" fill="#FFB05A" stroke="#082422" stroke-width="0.164607" stroke-miterlimit="10"/>
<path d="M51.8778 26.4135C51.0992 31.3127 46.8055 34.5142 42.288 33.5646C37.7705 32.615 34.7388 27.8738 35.5174 22.9746C36.296 18.0754 40.5896 14.8739 45.1072 15.8235C49.6252 16.7732 52.6564 21.5143 51.8778 26.4135Z" fill="#FFB05A" stroke="#082422" stroke-width="0.164607" stroke-miterlimit="10"/>
<path d="M29.5365 34.5764C29.4811 34.9976 28.8666 35.2275 28.1643 35.0898C27.4619 34.9521 26.937 34.4992 26.9919 34.078C27.0467 33.6568 27.6617 33.4269 28.3641 33.5646C29.067 33.7023 29.5914 34.1552 29.5365 34.5764Z" fill="#F26629" stroke="#082422" stroke-width="0.164607" stroke-miterlimit="10"/>
<path d="M29.2087 34.2805C29.1794 34.5024 28.7478 34.7955 28.2442 34.6969C27.7406 34.5983 27.3558 34.1449 27.3846 33.9231C27.4133 33.7012 27.8455 33.6015 28.3491 33.6996C28.8527 33.7982 29.2375 34.0581 29.2082 34.28L29.2087 34.2805Z" fill="#F26629" stroke="#082422" stroke-width="0.164607" stroke-miterlimit="10"/>
<path d="M29.1897 33.6032C29.1268 34.0844 28.7911 34.2023 28.3195 34.1101C27.8478 34.018 27.4188 33.75 27.4823 33.2688C27.5457 32.7875 27.9789 32.4724 28.4506 32.5646C28.9222 32.6568 29.2531 33.1219 29.1903 33.6026L29.1897 33.6032Z" fill="white" stroke="#082422" stroke-width="0.164607" stroke-miterlimit="10"/>
<path d="M28.9119 33.4473C28.8746 33.7298 28.6454 33.853 28.3528 33.7957C28.0603 33.7383 27.7757 33.532 27.813 33.2491C27.8503 32.9661 28.1946 32.7153 28.4871 32.7726C28.7797 32.83 28.9486 33.1644 28.9119 33.4468V33.4473Z" fill="#F26629" stroke="#082422" stroke-width="0.164607" stroke-miterlimit="10"/>
<path d="M37.4198 24.8533C37.2599 29.8083 33.5167 33.4915 29.0589 33.081C24.6011 32.6705 21.1169 28.3206 21.2768 23.3656C21.4366 18.4107 25.1798 14.7274 29.6377 15.1379C34.0955 15.549 37.5797 19.8984 37.4198 24.8533Z" fill="#F26629" stroke="#082422" stroke-width="0.164607" stroke-miterlimit="10"/>
<path d="M19.131 21.325L25.769 48.328C25.769 48.328 25.6049 48.753 25.3464 48.328L18.8294 21.5725L19.1305 21.325H19.131Z" fill="white" stroke="#082422" stroke-width="0.164607" stroke-miterlimit="10"/>
<path d="M18.9137 22.3528C19.6276 22.264 20.1643 21.8501 20.1124 21.4283C20.0605 21.0065 19.4398 20.7366 18.7259 20.8253C18.012 20.9141 17.4753 21.328 17.5272 21.7498C17.5791 22.1716 18.1999 22.4416 18.9137 22.3528Z" fill="#FFB05A" stroke="#082422" stroke-width="0.164607" stroke-miterlimit="10"/>
<path d="M19.7236 21.2445C19.7508 21.4669 19.4071 21.8838 18.8955 21.9476C18.3839 22.0114 17.8984 21.6973 17.8712 21.4749C17.844 21.2525 18.2363 21.021 18.7484 20.9573C19.26 20.8935 19.697 21.0221 19.7241 21.2445H19.7236Z" fill="#FFB05A" stroke="#082422" stroke-width="0.164607" stroke-miterlimit="10"/>
<path d="M19.537 20.599C19.5962 21.0808 19.3015 21.3 18.8224 21.3595C18.3433 21.419 17.8616 21.2968 17.8024 20.815C17.7432 20.3332 18.0832 19.8943 18.5623 19.8348C19.0414 19.7754 19.4779 20.1173 19.537 20.599Z" fill="white" stroke="#082422" stroke-width="0.164607" stroke-miterlimit="10"/>
<path d="M19.2291 20.5369C19.2637 20.8199 19.073 21.0101 18.7761 21.0471C18.4793 21.084 18.1521 20.9753 18.1174 20.6923C18.0828 20.4093 18.353 20.0599 18.6498 20.023C18.9467 19.986 19.1945 20.2539 19.2291 20.5369Z" fill="#FFB05A" stroke="#082422" stroke-width="0.164607" stroke-miterlimit="10"/>
<path d="M23.2912 29.7409C23.2912 29.7409 20.0847 25.0576 21.6616 20.9408L22.5185 18.9505C22.5185 18.9505 22.4199 18.6107 22.3485 18.6568C20.2435 20.0201 20.0378 20.1905 17.2464 20.3347C16.6841 19.1439 15.8816 17.8353 14.779 16.4006C12.9538 14.0255 9.70618 15.4483 9.70618 15.4483C15.58 17.2892 16.439 21.7029 16.6841 23.4017C17.3151 27.7752 13.9652 30.9081 14.0574 30.8765C14.9223 30.5753 18.7892 28.5973 18.3133 23.9199C18.6266 25.9258 20.5819 28.7704 23.2907 29.7409H23.2912Z" fill="#DADADA"/>
<path d="M19.278 20.1422C23.6914 19.1355 26.39 14.4219 25.3055 9.61406C24.2211 4.80621 19.7642 1.72475 15.3508 2.73144C10.9375 3.73812 8.23888 8.45174 9.32335 13.2596C10.4078 18.0674 14.8647 21.1489 19.278 20.1422Z" fill="#FFB05A" stroke="#082422" stroke-width="0.164607" stroke-miterlimit="10"/>
<path d="M10.619 34.9387C11.3353 34.8092 11.8554 34.3649 11.7806 33.9463C11.7058 33.5276 11.0644 33.2933 10.348 33.4228C9.63164 33.5523 9.11156 33.9966 9.18638 34.4152C9.26121 34.8338 9.9026 35.0681 10.619 34.9387Z" fill="#60D06F" stroke="#082422" stroke-width="0.164607" stroke-miterlimit="10"/>
<path d="M11.3706 33.788C11.4116 34.0082 11.0887 34.445 10.5749 34.5393C10.0618 34.6331 9.55229 34.3485 9.51125 34.1283C9.47022 33.908 9.85338 33.6535 10.3666 33.5597C10.8798 33.4659 11.329 33.5683 11.3701 33.788H11.3706Z" fill="#60D06F" stroke="#082422" stroke-width="0.164607" stroke-miterlimit="10"/>
<path d="M11.1447 33.1552C11.2332 33.6327 10.9481 33.869 10.4674 33.9569C9.98672 34.0448 9.49271 33.9515 9.40425 33.474C9.31579 32.9966 9.6334 32.5384 10.1141 32.4505C10.5948 32.3626 11.0563 32.6782 11.1447 33.1557V33.1552Z" fill="white" stroke="#082422" stroke-width="0.164607" stroke-miterlimit="10"/>
<path d="M10.829 33.1118C10.8812 33.3921 10.6995 33.5936 10.4011 33.6482C10.1032 33.7029 9.76638 33.6134 9.71416 33.3331C9.66193 33.0528 9.91453 32.6879 10.2124 32.6332C10.5103 32.5786 10.7763 32.8315 10.8285 33.1118H10.829Z" fill="#60D06F" stroke="#082422" stroke-width="0.164607" stroke-miterlimit="10"/>
<path d="M16.3218 21.8434C17.7042 26.5781 15.257 31.4441 10.8568 32.7115C6.45598 33.9789 1.76847 31.1681 0.386095 26.4329C-0.996283 21.6982 1.45086 16.8322 5.85112 15.5648C10.2519 14.2974 14.9394 17.1082 16.3218 21.8434Z" fill="#60D06F" stroke="#082422" stroke-width="0.164607" stroke-miterlimit="10"/>
<path d="M34.0645 25.0936L26.5435 48.3871C26.5435 48.3871 26.18 48.6594 26.1854 48.1615L33.6787 25.1423L34.0645 25.093V25.0936Z" fill="white" stroke="#082422" stroke-width="0.164607" stroke-miterlimit="10"/>
<path d="M34.7458 25.2188C34.9247 24.8357 34.5526 24.2808 33.9145 23.9795C33.2765 23.6781 32.6143 23.7443 32.4353 24.1274C32.2564 24.5105 32.6285 25.0654 33.2666 25.3667C33.9046 25.6681 34.5669 25.6018 34.7458 25.2188Z" fill="#DCFF00" stroke="#082422" stroke-width="0.164607" stroke-miterlimit="10"/>
<path d="M34.5169 24.8526C34.4284 25.0568 33.9318 25.2352 33.4724 25.0241C33.013 24.8129 32.7652 24.2915 32.8537 24.0873C32.9422 23.8832 33.3866 23.8885 33.846 24.1002C34.3053 24.3119 34.6059 24.6484 34.5174 24.8531L34.5169 24.8526Z" fill="#DCFF00" stroke="#082422" stroke-width="0.164607" stroke-miterlimit="10"/>
<path d="M34.6851 24.2034C34.4932 24.6466 34.1367 24.6809 33.7066 24.4826C33.2766 24.2848 32.9355 23.9295 33.1274 23.4863C33.3192 23.0431 33.8239 22.8443 34.2539 23.0421C34.684 23.2398 34.8769 23.7597 34.6851 24.2028V24.2034Z" fill="white" stroke="#082422" stroke-width="0.164607" stroke-miterlimit="10"/>
<path d="M34.4576 23.9904C34.3446 24.2509 34.0899 24.3146 33.8229 24.1919C33.5559 24.0692 33.3379 23.8061 33.4504 23.5456C33.5628 23.2852 33.9646 23.1265 34.2311 23.2493C34.4981 23.372 34.57 23.73 34.457 23.9904H34.4576Z" fill="#DCFF00" stroke="#082422" stroke-width="0.164607" stroke-miterlimit="10"/>
<path d="M45.0163 17.7957C43.5114 22.4747 38.8926 25.1076 34.7007 23.6756C30.5088 22.2442 28.3303 17.2904 29.8358 12.6114C31.3407 7.93242 35.9595 5.29953 40.1514 6.73146C44.3433 8.16339 46.5218 13.1167 45.0163 17.7957Z" fill="#DCFF00" stroke="#082422" stroke-width="0.164607" stroke-miterlimit="10"/>
<path d="M23.9248 44.5828C23.9248 44.5828 23.6402 45.1063 23.8161 45.5844C23.992 46.0624 24.8718 46.5758 25.1537 46.8411C25.4777 47.146 25.6914 48.0093 25.887 48.0093C25.887 48.0093 26.5094 46.811 25.1361 46.0163C25.1361 46.0163 24.4028 45.847 23.9248 44.5833V44.5828Z" fill="white" stroke="#082422" stroke-width="0.164607" stroke-miterlimit="10"/>
<path d="M23.9248 43.8223C23.9248 43.8223 23.6402 44.3458 23.8161 44.8239C23.992 45.3019 24.8659 45.9396 25.1185 46.1234C25.887 46.6824 26.0746 47.169 26.016 47.5495C26.016 47.5495 26.5968 46.3389 25.4175 45.6733C25.4175 45.6733 24.502 45.3726 23.9243 43.8223H23.9248Z" fill="white" stroke="#082422" stroke-width="0.164607" stroke-miterlimit="10"/>
<path d="M25.5479 48.7605C25.5479 48.7605 21.6795 49.1319 18.8316 55.8832C15.9837 62.6345 13.7306 74.196 13.7306 74.196C13.7306 74.196 13.5355 75.8788 15.6309 76.4779C15.6309 76.4779 14.4036 75.68 14.3658 74.837C14.3285 73.994 15.4535 68.6468 15.4977 68.5803C15.5419 68.5139 18.7186 50.5429 25.6684 48.9234L25.5479 48.7605Z" fill="white" stroke="#082422" stroke-width="0.164607" stroke-miterlimit="10"/>
<path d="M27.4596 79.7828C28.7029 79.6472 30.5883 80.1734 31.6339 79.9382C32.6491 79.7093 33.8652 76.6702 32.9369 63.6853C32.0091 50.7004 25.6669 48.9233 25.6669 48.9233L24.9586 49.1495C24.9586 49.1495 30.7855 49.3864 31.9472 64.353C33.109 79.3197 31.2081 79.3921 31.2081 79.3921L27.4591 79.7828H27.4596Z" fill="white" stroke="#082422" stroke-width="0.164607" stroke-linejoin="round"/>
<path d="M24.8077 48.9517C24.8077 48.9517 25.4057 47.1478 27.0135 48.3986C27.3924 48.6933 27.564 49.4377 27.4936 49.7823L26.9714 49.5953C27.0252 49.2132 26.9815 48.3209 25.9338 48.3638C25.9338 48.3638 25.6737 48.3713 25.3161 48.7603C25.3161 48.7603 25.1008 49.0685 24.8072 48.9522L24.8077 48.9517Z" fill="white" stroke="#082422" stroke-width="0.164607" stroke-miterlimit="10"/>
<path d="M26.2791 48.3564C26.2791 48.3564 26.5568 49.3066 26.3159 49.6431C26.0755 49.9802 26.9575 49.8007 26.9719 49.5955C26.9863 49.3902 27.0343 48.4079 26.2791 48.3564Z" fill="white" stroke="#082422" stroke-width="0.164607" stroke-linejoin="round"/>
<path d="M25.2116 48.8696C25.2116 48.8696 24.8572 49.6916 25.7232 49.7533C26.5892 49.8154 26.2279 49.7533 26.2279 49.7533C26.2279 49.7533 25.3544 49.272 25.7701 48.7174C25.7701 48.7174 25.9375 48.4194 26.1586 48.3562C26.1586 48.3562 25.5095 48.2082 25.2116 48.8701V48.8696Z" fill="white" stroke="#082422" stroke-width="0.164607" stroke-linejoin="round"/>
<path d="M40.1228 23.4021C40.1228 23.4021 40.1921 28.1508 36.4084 28.8517C36.4084 28.8517 37.6272 26.6047 37.4172 24.1095C37.4172 24.1095 38.5891 24.0115 40.1228 23.4016V23.4021Z" fill="#DADADA"/>
<path d="M46.8752 16.419C46.8752 16.419 46.102 20.3001 42.111 22.1607C42.111 22.1607 44.694 20.7282 45.4278 15.8987L46.8757 16.419H46.8752Z" fill="#DADADA"/>
<path d="M27.8436 15.2032C27.8436 15.2032 28.0578 20.3194 31.9145 21.9561C31.9145 21.9561 28.8748 18.91 29.349 15.1174L27.8441 15.2037L27.8436 15.2032Z" fill="#DADADA"/>
<path d="M27.1561 61.2419L26.959 63.1821C27.8394 63.4967 28.5257 63.966 28.9919 64.592C29.4691 65.233 29.7121 66.0306 29.7049 66.9761L29.7036 67.0663L25.9116 66.6811L25.9067 66.6129C25.8769 66.2216 25.7689 65.9283 25.5886 65.7246C25.4094 65.5222 25.15 65.3984 24.7959 65.3624C24.461 65.3284 24.2079 65.3788 24.0374 65.4758C23.8691 65.5715 23.7776 65.7143 23.7608 65.8796C23.7479 66.0076 23.7696 66.1105 23.8234 66.201C23.8784 66.2935 23.9708 66.3794 24.1086 66.4665C24.3869 66.6426 24.8244 66.8068 25.4408 67.0347L25.4418 67.0348L26.0541 67.2688L26.5322 67.4607C27.6023 67.9069 28.3637 68.3559 28.853 68.8881C29.4176 69.5022 29.6139 70.2198 29.52 71.1448C29.429 72.0403 29.046 72.7625 28.4044 73.2852C27.7774 73.7958 26.9087 74.11 25.838 74.2181L25.6191 76.373L21.9165 75.9969L22.1371 73.8255C21.1099 73.4954 20.3508 72.9884 19.8534 72.3224C19.3456 71.6422 19.1153 70.8054 19.1401 69.846L19.1422 69.7579L23.1576 70.1658L23.159 70.2395C23.1628 70.6565 23.2713 70.971 23.4736 71.1912C23.676 71.4116 23.9826 71.5482 24.4018 71.5908C24.7796 71.6291 25.0874 71.5949 25.304 71.493C25.5155 71.3933 25.643 71.2285 25.6675 70.988C25.6782 70.8822 25.6616 70.7983 25.6234 70.7264C25.5843 70.6532 25.5189 70.586 25.4235 70.5196C25.2294 70.3845 24.9318 70.2662 24.531 70.107L24.5309 70.1079L23.2302 69.6156C21.9005 69.1271 21.0119 68.5976 20.4792 67.959C19.9429 67.316 19.7741 66.571 19.8655 65.6714C19.9485 64.8543 20.2864 64.1783 20.8716 63.6808C21.4429 63.1952 22.2444 62.8856 23.2598 62.772L23.4534 60.8658L27.1561 61.2419Z" fill="white" stroke="black" stroke-width="0.164607"/>
</g>
<defs>
<clipPath id="clip0_664_11618">
<rect width="52" height="80" fill="white"/>
</clipPath>
</defs>
</svg>
