<svg width="98" height="80" viewBox="0 0 98 80" fill="none" xmlns="http://www.w3.org/2000/svg">
<g clip-path="url(#clip0_664_11590)">
<path d="M78.0518 69.1542C79.3444 69.1542 80.3922 68.636 80.3922 67.9969C80.3922 67.3577 79.3444 66.8396 78.0518 66.8396C76.7593 66.8396 75.7114 67.3577 75.7114 67.9969C75.7114 68.636 76.7593 69.1542 78.0518 69.1542Z" fill="#DADADA"/>
<path d="M75.3608 72.4305C76.6534 72.4305 77.7012 71.9124 77.7012 71.2733C77.7012 70.6341 76.6534 70.116 75.3608 70.116C74.0682 70.116 73.0204 70.6341 73.0204 71.2733C73.0204 71.9124 74.0682 72.4305 75.3608 72.4305Z" fill="#DADADA"/>
<path d="M80.367 72.3641C81.6595 72.3641 82.7074 71.846 82.7074 71.2068C82.7074 70.5677 81.6595 70.0496 80.367 70.0496C79.0744 70.0496 78.0266 70.5677 78.0266 71.2068C78.0266 71.846 79.0744 72.3641 80.367 72.3641Z" fill="#DADADA"/>
<path d="M33.9874 69.8844C35.28 69.8844 36.3278 69.3663 36.3278 68.7271C36.3278 68.088 35.28 67.5698 33.9874 67.5698C32.6948 67.5698 31.647 68.088 31.647 68.7271C31.647 69.3663 32.6948 69.8844 33.9874 69.8844Z" fill="#DADADA"/>
<path d="M31.4343 70.6549C32.7269 70.6549 33.7747 70.1368 33.7747 69.4976C33.7747 68.8585 32.7269 68.3403 31.4343 68.3403C30.1417 68.3403 29.0939 68.8585 29.0939 69.4976C29.0939 70.1368 30.1417 70.6549 31.4343 70.6549Z" fill="#DADADA"/>
<path d="M28.4421 70.5944C29.7347 70.5944 30.7825 70.0762 30.7825 69.4371C30.7825 68.7979 29.7347 68.2798 28.4421 68.2798C27.1495 68.2798 26.1017 68.7979 26.1017 69.4371C26.1017 70.0762 27.1495 70.5944 28.4421 70.5944Z" fill="#DADADA"/>
<path d="M26.7281 68.1378C28.0207 68.1378 29.0685 67.6197 29.0685 66.9805C29.0685 66.3414 28.0207 65.8232 26.7281 65.8232C25.4355 65.8232 24.3877 66.3414 24.3877 66.9805C24.3877 67.6197 25.4355 68.1378 26.7281 68.1378Z" fill="#DADADA"/>
<path d="M29.0682 59.8485C30.3608 59.8485 31.4086 59.3304 31.4086 58.6912C31.4086 58.0521 30.3608 57.5339 29.0682 57.5339C27.7756 57.5339 26.7278 58.0521 26.7278 58.6912C26.7278 59.3304 27.7756 59.8485 29.0682 59.8485Z" fill="#DADADA"/>
<path d="M24.1292 59.3268C25.7062 59.3268 26.9847 58.8086 26.9847 58.1695C26.9847 57.5303 25.7062 57.0122 24.1292 57.0122C22.5522 57.0122 21.2737 57.5303 21.2737 58.1695C21.2737 58.8086 22.5522 59.3268 24.1292 59.3268Z" fill="#DADADA"/>
<path d="M76.9756 65.5645L74.3307 64.103L72.1621 65.7166L71.6074 70.6403C71.6074 70.6403 76.4714 69.7988 77.5438 68.382C78.6162 66.9658 76.9756 65.5639 76.9756 65.5639V65.5645Z" fill="#DADADA"/>
<path d="M59.1636 73.9316L57.9529 75.5251C57.9529 75.5251 62.307 77.7775 63.0672 78.1245C63.8274 78.4714 64.5798 78.1193 69.994 77.0423C75.4082 75.9652 69.994 75.6403 69.994 75.6403L59.1636 73.9309V73.9316Z" fill="#DADADA"/>
<path d="M31.6273 33.1251C31.6273 33.1251 26.6977 24.6364 22.6398 28.2319C22.6398 28.2319 21.3971 29.4953 22.3875 31.5458C22.3875 31.5458 19.1873 32.375 22.3875 34.8138C22.3875 34.8138 23.0315 35.3569 23.7922 35.3316C23.7922 35.3316 20.35 38.1368 26.001 38.6675C26.001 38.6675 24.4497 42.3232 28.1918 41.9698C31.9339 41.6158 30.8609 38.9828 34.842 40.052L31.6273 33.1258V33.1251Z" fill="white" stroke="#002522" stroke-width="0.164607" stroke-miterlimit="10"/>
<path d="M73.2139 70.82C73.202 71.2342 74.1583 71.6129 75.35 71.6653C76.5411 71.7177 77.5165 71.4252 77.5278 71.0109C77.5319 70.8692 77.5448 70.4025 77.5448 70.4025C77.1733 70.1682 76.1762 70.1999 75.3918 70.1656C74.596 70.1307 73.6108 70.0057 73.231 70.2122C73.231 70.2122 73.2175 70.6828 73.2139 70.8206V70.82Z" fill="#DAFC35" stroke="#022522" stroke-width="0.164607" stroke-miterlimit="10" stroke-linecap="round"/>
<path d="M77.5454 70.4047C77.5571 69.9907 76.6008 69.6123 75.4096 69.5596C74.2184 69.5069 73.2433 69.7999 73.2317 70.2139C73.22 70.628 74.1762 71.0063 75.3675 71.059C76.5587 71.1117 77.5338 70.8188 77.5454 70.4047Z" fill="#DAFC35" stroke="#022522" stroke-width="0.164607" stroke-miterlimit="10" stroke-linecap="round"/>
<path d="M70.0791 70.8695C70.1369 71.2773 71.135 71.3964 72.3085 71.1343C73.4821 70.8728 74.3868 70.3297 74.3285 69.9213C74.3088 69.7815 74.2433 69.322 74.2433 69.322C73.8408 69.1906 72.8711 69.4838 72.0985 69.6559C71.3146 69.8307 70.3304 69.9679 69.9934 70.2695C69.9934 70.2695 70.0589 70.733 70.0786 70.8689L70.0791 70.8695Z" fill="#DAFC35" stroke="#022522" stroke-width="0.164607" stroke-miterlimit="10" stroke-linecap="round"/>
<path d="M72.2212 70.5383C73.3948 70.2767 74.2992 69.7339 74.2414 69.326C74.1836 68.9181 73.1854 68.7995 72.0118 69.0612C70.8383 69.3228 69.9338 69.8656 69.9916 70.2735C70.0494 70.6814 71.0476 70.8 72.2212 70.5383Z" fill="#DAFC35" stroke="#022522" stroke-width="0.164607" stroke-miterlimit="10" stroke-linecap="round"/>
<path d="M65.075 76.2503C65.075 76.2503 65.2546 77.2393 65.2546 77.4711C65.2546 77.7028 68.2081 76.4989 71.4754 77.6795C74.7427 78.8601 77.6585 79.9992 77.6585 79.9992C77.6585 79.9992 75.4456 76.9617 75.4079 75.9662C75.3702 74.9707 75.4079 74.5079 75.4079 74.5079C75.4079 74.5079 72.7677 74.9481 66.6573 72.8639L65.0745 72.262C65.0745 72.262 64.6921 75.0115 65.0745 76.2503H65.075Z" fill="#60CE6F" stroke="#022522" stroke-width="0.164607" stroke-miterlimit="10"/>
<path d="M65.1023 75.7606C65.1023 75.7606 65.2819 76.7496 65.2819 76.9813C65.2819 77.213 68.2354 76.0091 71.5027 77.1897C74.77 78.3703 77.6858 79.5095 77.6858 79.5095C77.6858 79.5095 75.4729 76.4719 75.4352 75.4764C75.3975 74.481 75.4352 74.0182 75.4352 74.0182C75.4352 74.0182 72.795 74.4583 66.6846 72.3742L65.1018 71.7722C65.1018 71.7722 64.7194 74.5217 65.1018 75.7606H65.1023Z" fill="#60CE6F" stroke="#022522" stroke-width="0.164607" stroke-miterlimit="10"/>
<path d="M64.9319 74.9921C64.9319 74.9921 65.1745 76.0568 65.1745 76.2199C65.1745 76.383 67.888 75.304 70.8034 76.1351C72.7139 76.6801 74.1785 77.227 74.9614 77.5396C75.3727 77.704 74.5207 77.1416 74.6136 76.9675C74.7065 76.7934 75.4006 77.5293 75.19 77.1662C74.9531 76.7578 74.6972 76.2367 74.6796 75.8652C74.6677 75.6199 74.6631 75.4082 74.6621 75.2374C74.66 74.9189 74.2982 75.3642 74.2172 75.2911C74.0789 75.1668 74.515 74.8192 73.9927 74.8264C73.1918 74.838 71.5259 74.6768 68.2261 73.7888L65.0145 72.5513C65.0145 72.5513 64.5908 74.1189 64.9319 74.9914V74.9921Z" fill="#60CE6F" stroke="#022522" stroke-width="0.164607" stroke-miterlimit="10"/>
<path d="M76.6975 75.6408C76.6975 75.6408 76.2847 73.4317 73.455 71.7722C73.455 71.7722 72.4476 71.1359 66.1257 72.4317L65.5306 76.2479C65.5306 76.2479 72.7129 73.6453 76.6975 75.6414V75.6408Z" fill="#60CE6F" stroke="#022522" stroke-width="0.164607" stroke-miterlimit="10"/>
<path d="M77.191 75.2589C77.191 75.2589 76.7781 73.0499 73.9485 71.3903C73.9485 71.3903 72.9411 70.7541 66.6191 72.0499L66.0241 75.8661C66.0241 75.8661 73.2064 73.2635 77.191 75.2596V75.2589Z" fill="#60CE6F" stroke="#022522" stroke-width="0.164607" stroke-miterlimit="10"/>
<path d="M74.6619 73.504C74.7512 73.2904 75.7508 74.0263 75.3875 73.6839C74.9638 73.2839 74.2057 72.5163 73.6514 72.1215C73.4832 72.0017 73.1782 72.2736 73.0203 72.1875C72.8551 72.0975 73.7407 71.8652 73.1632 71.8645C72.3313 71.8639 70.0425 72.1228 66.495 72.8503L66.1404 75.0322C66.1404 75.0322 71.2537 73.1519 75.1749 74.0425C75.4546 74.1059 74.5339 73.8101 74.6619 73.5033V73.504Z" fill="#60CE6F" stroke="#022522" stroke-width="0.164607" stroke-miterlimit="10"/>
<path d="M59.1636 74.4727C59.1636 74.4727 63.251 76.14 63.9807 77.1659C63.9807 77.1659 67.0116 73.7672 73.4543 74.1516C73.4543 74.1516 71.6914 70.9387 68.0985 69.7872C68.0985 69.7872 64.8792 68.6241 62.2322 71.5561C61.5108 72.3555 59.1636 74.472 59.1636 74.472V74.4727Z" fill="#60CE6F" stroke="#022522" stroke-width="0.164607" stroke-miterlimit="10"/>
<path d="M58.3854 74.3494C58.3854 74.3494 62.4728 76.0167 63.2025 77.0426C63.2025 77.0426 66.2334 73.6439 72.6761 74.0283C72.6761 74.0283 70.9132 70.8154 67.3203 69.6639C67.3203 69.6639 64.101 68.5008 61.454 71.4329C60.7326 72.2322 58.3854 74.3487 58.3854 74.3487V74.3494Z" fill="#60CE6F" stroke="#022522" stroke-width="0.164607" stroke-miterlimit="10"/>
<path d="M58.5518 73.0693C58.5518 73.0693 62.5483 75.0544 63.2248 76.136C63.2248 76.136 66.4194 72.9819 72.8306 73.8713C72.8306 73.8713 71.2313 70.5263 67.7034 69.0952C67.7034 69.0952 64.5481 67.6816 61.7602 70.4C61.0005 71.1411 58.5523 73.0693 58.5523 73.0693H58.5518Z" fill="#60CE6F" stroke="#022522" stroke-width="0.164607" stroke-miterlimit="10"/>
<path d="M58.8365 72.2278C58.8365 72.2278 62.7665 74.411 63.4085 75.5249C63.4085 75.5249 66.7005 72.5326 73.0782 73.7417C73.0782 73.7417 71.5868 70.3197 68.1063 68.7132C68.1063 68.7132 64.9985 67.143 62.1265 69.7203C61.3437 70.4226 58.8365 72.2271 58.8365 72.2271V72.2278Z" fill="#60CE6F" stroke="#022522" stroke-width="0.164607" stroke-miterlimit="10"/>
<path d="M61.4614 71.8828C61.4614 72.2116 60.6192 72.1113 60.9294 72.2621C61.4929 72.5359 62.6644 73.4705 63.2471 73.932C63.47 74.1087 63.6228 73.1301 63.7843 73.3637C64.016 73.6984 63.406 74.4427 63.7595 74.2453C64.9775 73.5637 68.7144 71.5462 72.6154 72.8822C72.6154 72.8822 71.3505 70.398 68.7686 69.2064C68.7686 69.2064 65.9668 68.3326 63.6429 69.8498C63.1733 70.1566 61.5729 71.1462 60.8803 71.6653C60.5975 71.8776 61.4609 71.6679 61.4609 71.8828H61.4614Z" fill="#60CE6F" stroke="#022522" stroke-width="0.164607" stroke-miterlimit="10"/>
<path d="M24.5605 51.5785L19.9999 53.6853C19.9999 53.6853 29.1169 55.24 30.0175 57.7999L32.0033 55.7378C32.0033 55.7378 29.4554 51.5772 24.5605 51.5779V51.5785Z" fill="#60CE6F" stroke="#022522" stroke-width="0.164607" stroke-miterlimit="10"/>
<path d="M24.9016 52.4951C24.7571 52.5243 24.735 52.0828 24.5884 52.1482C24.1915 52.3243 22.7672 52.8938 22.5421 53.1495C22.4307 53.2764 23.1067 53.0472 23.13 53.3113C23.1552 53.5942 22.0828 53.5236 22.6397 53.6117C24.7788 53.9502 30.0335 54.9799 30.7478 57.0117L31.6406 56.0842C31.6406 56.0842 29.582 52.4971 25.219 52.143C24.9853 52.1243 25.1468 52.4453 24.9011 52.4945L24.9016 52.4951Z" fill="#60CE6F" stroke="#022522" stroke-width="0.164607" stroke-miterlimit="10"/>
<path d="M25.5477 50.3656L20.7477 51.319C20.7477 51.319 29.4493 55.0692 29.9349 57.8L32.2025 56.2621C32.2025 56.2621 30.3488 51.5592 25.5477 50.365V50.3656Z" fill="#60CE6F" stroke="#022522" stroke-width="0.164607" stroke-miterlimit="10"/>
<path d="M25.7191 50.957L25.2954 51.036C25.2954 51.036 23.5088 51.3176 23.3287 51.4043C23.18 51.4755 23.9459 51.5176 23.933 51.6593C23.9144 51.8632 23.1057 51.6004 23.483 51.7985C25.2216 52.7091 30.1367 55.4354 30.5863 57.3577L31.7159 56.5739C31.7159 56.5739 30.5976 52.4373 26.1815 51.0852C26.0314 51.0392 25.877 50.9965 25.7186 50.957H25.7191Z" fill="#60CE6F" stroke="#022522" stroke-width="0.164607" stroke-miterlimit="10"/>
<path d="M26.0624 49.6348L21.2118 50.0154C21.2118 50.0154 29.5919 54.7804 29.87 57.5565L32.2435 56.2943C32.2435 56.2943 30.7525 51.3934 26.0624 49.6354V49.6348Z" fill="#60CE6F" stroke="#022522" stroke-width="0.164607" stroke-miterlimit="10"/>
<path d="M26.0021 50.711C25.7704 50.546 25.8116 50.2301 25.6589 50.2864C25.4406 50.366 23.8877 50.2748 23.4945 50.3486C23.3453 50.3764 24.0843 50.4923 24.0394 50.6728C23.992 50.8631 23.0795 50.4748 23.4041 50.6696C25.07 51.6677 30.1931 54.9162 30.4259 57.2399L31.891 56.4606C31.891 56.4606 30.685 52.2353 26.401 50.366C26.2436 50.2974 26.1827 50.8392 26.0026 50.711H26.0021Z" fill="#60CE6F" stroke="#022522" stroke-width="0.164607" stroke-miterlimit="10"/>
<path d="M27.738 50.5986L22.8781 50.5261C22.8781 50.5261 30.9531 56.0582 31.0656 58.8524L33.5072 57.8148C33.5072 57.8148 32.3104 52.7883 27.7374 50.5986H27.738Z" fill="#60CE6F" stroke="#022522" stroke-width="0.164607" stroke-miterlimit="10"/>
<path d="M27.9142 51.659C27.7202 51.5373 27.8492 50.9768 27.4296 51.1276C27.1396 51.2318 26.0016 51.1846 25.598 51.248C25.4716 51.2681 26.2586 51.6098 26.2034 51.7542C26.1482 51.8985 25.1738 51.3891 25.5103 51.6312C27.0973 52.7742 31.6387 56.2429 31.7316 58.5484L33.1792 57.9335C33.1792 57.9335 32.1564 53.5412 27.9901 51.2797C27.8394 51.1975 28.0659 51.7542 27.9142 51.6597V51.659Z" fill="#60CE6F" stroke="#022522" stroke-width="0.164607" stroke-miterlimit="10"/>
<path d="M82.9412 34.8135C83.2916 36.2401 84.2138 39.877 84.2138 39.877C84.2138 39.877 82.904 37.3048 81.2825 34.8135C79.7518 32.4614 77.9429 30.1811 76.6966 30.2057L75.7114 26.6633C75.7114 26.6633 81.4997 28.9468 82.9412 34.8135Z" fill="#60CE6F" stroke="#022522" stroke-width="0.164607" stroke-miterlimit="10"/>
<path d="M82.8367 34.2789C83.4658 35.5463 83.8101 38.279 83.8101 38.279C83.8101 38.279 83.3802 36.6751 81.7587 34.1838C80.3978 32.0932 78.5889 29.9915 77.3792 29.5825C77.228 29.5313 77.5671 29.1016 77.4288 29.099C77.3302 29.097 77.0928 29.4828 77.034 29.0776C77.0056 28.8802 76.7966 28.2938 76.7666 28.1158C76.7486 28.0097 77.0082 28.3902 77.0732 28.3184C77.1382 28.2465 76.7636 27.7592 76.9648 27.8944C77.9753 28.5721 81.1549 30.8925 82.8367 34.2789Z" fill="#60CE6F" stroke="#022522" stroke-width="0.164607" stroke-miterlimit="10"/>
<path d="M31.5712 59.0856C31.533 59.4973 30.5427 59.6915 29.3583 59.5193C28.1739 59.3471 27.2455 58.874 27.2832 58.4623C27.2961 58.3219 27.3389 57.8578 27.3389 57.8578C27.7342 57.696 28.7163 57.9154 29.4961 58.0287C30.2867 58.1439 31.276 58.206 31.627 58.4811C31.627 58.4811 31.5836 58.9491 31.5712 59.0856Z" fill="#DAFC35" stroke="#022522" stroke-width="0.164607" stroke-miterlimit="10" stroke-linecap="round"/>
<path d="M31.6279 58.4795C31.6659 58.068 30.7369 57.5949 29.5528 57.4228C28.3688 57.2507 27.3781 57.4448 27.3401 57.8564C27.3021 58.2679 28.2311 58.7411 29.4151 58.9131C30.5992 59.0852 31.5898 58.8911 31.6279 58.4795Z" fill="#DAFC35" stroke="#022522" stroke-width="0.164607" stroke-miterlimit="10" stroke-linecap="round"/>
<path d="M30.2971 28.4272V63.6992L50.9552 73.3187L71.9203 63.6992V28.4272L51.109 22.2705L30.2971 28.4272Z" fill="#FDCB9A" stroke="#022522" stroke-width="0.164607" stroke-miterlimit="10"/>
<path d="M51.1598 37.8541L32.1002 29.2242L52.9684 28.8755L60.2723 25.3015L62.22 25.563L71.8193 28.4397L51.1598 37.8541Z" fill="#082422"/>
<path d="M69.4757 32.8294C69.3421 33.2081 68.3496 33.0249 67.2602 32.4191C66.1702 31.8132 65.3956 31.0152 65.5293 30.6365C65.5752 30.5071 65.7259 30.0799 65.7259 30.0799C66.1419 30.0728 67.028 30.6482 67.7448 31.0469C68.4725 31.4514 69.4024 31.8793 69.6723 32.2734C69.6723 32.2734 69.5201 32.7039 69.4757 32.8301V32.8294Z" fill="#DAFC35" stroke="#022522" stroke-width="0.164607" stroke-miterlimit="10" stroke-linecap="round"/>
<path d="M69.6726 32.2755C69.8064 31.8967 69.0315 31.0987 67.9417 30.493C66.852 29.8874 65.86 29.7034 65.7262 30.0822C65.5924 30.461 66.3673 31.259 67.4571 31.8647C68.5468 32.4704 69.5387 32.6543 69.6726 32.2755Z" fill="#DAFC35" stroke="#022522" stroke-width="0.164607" stroke-miterlimit="10" stroke-linecap="round"/>
<path d="M69.9888 32.1014C69.8552 32.48 68.8628 32.2969 67.7733 31.691C66.6834 31.0852 65.9087 30.2872 66.0424 29.9085C66.0883 29.7791 66.239 29.3519 66.239 29.3519C66.655 29.3448 67.5411 29.9202 68.2579 30.3189C68.9856 30.7234 69.9156 31.1512 70.1855 31.5454C70.1855 31.5454 70.0332 31.9758 69.9888 32.1021V32.1014Z" fill="#DAFC35" stroke="#022522" stroke-width="0.164607" stroke-miterlimit="10" stroke-linecap="round"/>
<path d="M70.1867 31.547C70.3205 31.1682 69.5456 30.3702 68.4558 29.7645C67.3661 29.1589 66.3741 28.9749 66.2403 29.3537C66.1065 29.7325 66.8814 30.5305 67.9712 31.1362C69.0609 31.7419 70.0528 31.9258 70.1867 31.547Z" fill="#DAFC35" stroke="#022522" stroke-width="0.164607" stroke-miterlimit="10" stroke-linecap="round"/>
<path d="M70.2213 30.7171C70.0877 31.0958 69.0952 30.9126 68.0058 30.3068C66.9159 29.7009 66.1412 28.9029 66.2749 28.5242C66.3208 28.3948 66.4715 27.9676 66.4715 27.9676C66.8875 27.9605 67.7736 28.5359 68.4904 28.9346C69.2181 29.3391 70.148 29.767 70.418 30.1611C70.418 30.1611 70.2657 30.5916 70.2213 30.7178V30.7171Z" fill="#DAFC35" stroke="#022522" stroke-width="0.164607" stroke-miterlimit="10" stroke-linecap="round"/>
<path d="M70.4193 30.1632C70.5531 29.7844 69.7782 28.9864 68.6884 28.3807C67.5987 27.7751 66.6068 27.5911 66.4729 27.9699C66.3391 28.3487 67.114 29.1467 68.2038 29.7524C69.2935 30.3581 70.2854 30.542 70.4193 30.1632Z" fill="#DAFC35" stroke="#022522" stroke-width="0.164607" stroke-miterlimit="10" stroke-linecap="round"/>
<path d="M65.5996 32.1335C65.6987 32.529 64.8575 33.2132 63.7201 33.6617C62.5826 34.1103 61.5809 34.153 61.4818 33.7575C61.4478 33.6222 61.3363 33.1769 61.3363 33.1769C61.6449 32.8274 62.6131 32.5245 63.3614 32.2293C64.1211 31.9297 65.0438 31.4805 65.4541 31.553C65.4541 31.553 65.5666 32.0022 65.5996 32.1335Z" fill="white" stroke="#002522" stroke-width="0.164607" stroke-miterlimit="10"/>
<path d="M63.5748 33.0763C64.7118 32.6278 65.5532 31.9438 65.4541 31.5486C65.355 31.1534 64.3529 31.1966 63.2158 31.6451C62.0788 32.0937 61.2374 32.7777 61.3365 33.1729C61.4356 33.5681 62.4377 33.5249 63.5748 33.0763Z" fill="white" stroke="#002522" stroke-width="0.164607" stroke-miterlimit="10"/>
<path d="M65.6018 31.1606C65.7009 31.5561 64.8597 32.2403 63.7223 32.6888C62.5853 33.1374 61.5831 33.1801 61.484 32.7846C61.45 32.6493 61.3385 32.204 61.3385 32.204C61.6471 31.8545 62.6153 31.5516 63.3636 31.2564C64.1233 30.9568 65.046 30.5076 65.4563 30.5801C65.4563 30.5801 65.5688 31.0293 65.6018 31.1606Z" fill="#DAFC35" stroke="#022522" stroke-width="0.164607" stroke-miterlimit="10" stroke-linecap="round"/>
<path d="M63.5769 32.1042C64.7139 31.6556 65.5554 30.9716 65.4562 30.5764C65.3571 30.1812 64.355 30.2244 63.218 30.673C62.0809 31.1215 61.2395 31.8055 61.3386 32.2007C61.4378 32.5959 62.4399 32.5527 63.5769 32.1042Z" fill="#DAFC35" stroke="#022522" stroke-width="0.164607" stroke-miterlimit="10" stroke-linecap="round"/>
<path d="M65.0465 29.9294C65.1455 30.3249 64.3043 31.0091 63.1669 31.4576C62.03 31.9062 61.0278 31.9489 60.9287 31.5534C60.8946 31.4181 60.7831 30.9728 60.7831 30.9728C61.0918 30.6233 62.0599 30.3204 62.8082 30.0252C63.5679 29.7256 64.4906 29.2764 64.9009 29.3489C64.9009 29.3489 65.0134 29.7981 65.0465 29.9294Z" fill="#DAFC35" stroke="#022522" stroke-width="0.164607" stroke-miterlimit="10" stroke-linecap="round"/>
<path d="M63.0225 30.8717C64.1596 30.4232 65.001 29.7392 64.9019 29.344C64.8027 28.9488 63.8006 28.992 62.6636 29.4405C61.5266 29.8891 60.6851 30.5731 60.7843 30.9683C60.8834 31.3635 61.8855 31.3203 63.0225 30.8717Z" fill="#DAFC35" stroke="#022522" stroke-width="0.164607" stroke-miterlimit="10" stroke-linecap="round"/>
<path d="M66.0497 29.1745C66.1096 29.5823 65.2085 30.1331 64.036 30.4049C62.864 30.6768 61.8648 30.5667 61.805 30.159C61.7843 30.0198 61.7167 29.5603 61.7167 29.5603C62.0568 29.2599 63.0472 29.1072 63.8182 28.9285C64.5892 28.7499 65.561 28.4418 65.961 28.5758C65.961 28.5758 66.0291 29.0386 66.0492 29.1745H66.0497Z" fill="#DAFC35" stroke="#022522" stroke-width="0.164607" stroke-miterlimit="10" stroke-linecap="round"/>
<path d="M63.9479 29.803C65.1199 29.5311 66.0214 28.9804 65.9613 28.573C65.9012 28.1656 64.9023 28.0558 63.7303 28.3277C62.5582 28.5996 61.6567 29.1503 61.7168 29.5577C61.7769 29.9651 62.7758 30.0749 63.9479 29.803Z" fill="#DAFC35" stroke="#022522" stroke-width="0.164607" stroke-miterlimit="10" stroke-linecap="round"/>
<path d="M66.1454 28.2099C66.2052 28.6176 65.3042 29.1685 64.1316 29.4403C62.9596 29.7122 61.9605 29.6021 61.9006 29.1944C61.88 29.0552 61.8124 28.5956 61.8124 28.5956C62.1525 28.2953 63.1428 28.1426 63.9138 27.9639C64.6967 27.782 65.6566 27.4772 66.0566 27.6112C66.0566 27.6112 66.1247 28.074 66.1448 28.2099H66.1454Z" fill="#DAFC35" stroke="#022522" stroke-width="0.164607" stroke-miterlimit="10" stroke-linecap="round"/>
<path d="M64.0457 28.8382C65.2178 28.5663 66.1192 28.0156 66.0591 27.6082C65.999 27.2008 65.0002 27.091 63.8281 27.3629C62.656 27.6348 61.7546 28.1855 61.8147 28.5929C61.8748 29.0003 62.8736 29.1101 64.0457 28.8382Z" fill="#DAFC35" stroke="#022522" stroke-width="0.164607" stroke-miterlimit="10" stroke-linecap="round"/>
<path d="M66.4798 25.8144C66.6397 26.1775 65.9229 27.0572 64.8794 27.7801C63.8359 28.5025 62.8605 28.7944 62.701 28.4319C62.6463 28.3076 62.4667 27.8992 62.4667 27.8992C62.7134 27.4798 63.6145 26.9419 64.3014 26.4662C64.9883 25.9905 65.8321 25.3135 66.2455 25.2817C66.2455 25.2817 66.4271 25.694 66.4798 25.8144Z" fill="#DAFC35" stroke="#022522" stroke-width="0.164607" stroke-miterlimit="10" stroke-linecap="round"/>
<path d="M64.6452 27.2443C65.6886 26.5216 66.405 25.6417 66.2453 25.279C66.0856 24.9164 65.1103 25.2082 64.0669 25.9309C63.0235 26.6536 62.3071 27.5335 62.4668 27.8962C62.6265 28.2589 63.6018 27.967 64.6452 27.2443Z" fill="#DAFC35" stroke="#022522" stroke-width="0.164607" stroke-miterlimit="10" stroke-linecap="round"/>
<path d="M69.9812 29.606C69.8476 29.9847 68.8551 29.8015 67.7657 29.1957C66.6757 28.5899 65.9011 27.7918 66.0348 27.4131C66.0807 27.2837 66.2314 26.8565 66.2314 26.8565C66.6474 26.8494 67.5335 27.4248 68.2503 27.8235C68.978 28.228 69.9079 28.6559 70.1778 29.05C70.1778 29.05 70.0256 29.4805 69.9812 29.6067V29.606Z" fill="#DAFC35" stroke="#022522" stroke-width="0.164607" stroke-miterlimit="10" stroke-linecap="round"/>
<path d="M70.1792 29.0531C70.313 28.6743 69.5381 27.8763 68.4483 27.2706C67.3586 26.665 66.3666 26.481 66.2328 26.8598C66.099 27.2386 66.8739 28.0366 67.9637 28.6423C69.0534 29.248 70.0453 29.4319 70.1792 29.0531Z" fill="#DAFC35" stroke="#022522" stroke-width="0.164607" stroke-miterlimit="10" stroke-linecap="round"/>
<path d="M70.7072 29.3419C70.5736 29.7205 69.5811 29.5374 68.4917 28.9315C67.4018 28.3257 66.6271 27.5276 66.7608 27.149C66.8067 27.0195 66.9574 26.5924 66.9574 26.5924C67.3734 26.5852 68.2595 27.1606 68.9763 27.5593C69.704 27.9639 70.6339 28.3917 70.9039 28.7859C70.9039 28.7859 70.7516 29.2163 70.7072 29.3425V29.3419Z" fill="#DAFC35" stroke="#022522" stroke-width="0.164607" stroke-miterlimit="10" stroke-linecap="round"/>
<path d="M70.9052 28.7877C71.039 28.4089 70.2641 27.6109 69.1743 27.0052C68.0846 26.3996 67.0927 26.2157 66.9588 26.5944C66.825 26.9732 67.5999 27.7713 68.6897 28.3769C69.7794 28.9826 70.7713 29.1665 70.9052 28.7877Z" fill="#DAFC35" stroke="#022522" stroke-width="0.164607" stroke-miterlimit="10" stroke-linecap="round"/>
<path d="M71.28 28.7464C71.1464 29.1251 70.154 28.9419 69.0645 28.3361C67.9746 27.7302 67.1999 26.9322 67.3336 26.5535C67.3795 26.4241 67.5302 25.9969 67.5302 25.9969C67.9462 25.9898 68.8323 26.5652 69.5491 26.9639C70.266 27.3626 71.2068 27.7963 71.4767 28.1904C71.4767 28.1904 71.3244 28.6209 71.28 28.7471V28.7464Z" fill="#DAFC35" stroke="#022522" stroke-width="0.164607" stroke-miterlimit="10" stroke-linecap="round"/>
<path d="M71.4779 28.1925C71.6117 27.8137 70.8368 27.0157 69.747 26.41C68.6573 25.8044 67.6653 25.6204 67.5315 25.9992C67.3977 26.378 68.1726 27.176 69.2624 27.7817C70.3521 28.3874 71.344 28.5713 71.4779 28.1925Z" fill="#DAFC35" stroke="#022522" stroke-width="0.164607" stroke-miterlimit="10" stroke-linecap="round"/>
<path d="M30.2971 28.427L51.0579 37.8426L71.9203 28.427V63.699L50.9552 73.3185L51.0579 37.8426" fill="#FDCB9A"/>
<path d="M30.2971 28.427L51.0579 37.8426L71.9203 28.427V63.699L50.9552 73.3185L51.0579 37.8426" stroke="#022522" stroke-width="0.164607" stroke-miterlimit="10"/>
<path d="M51.6707 36.8235C52.1134 36.7115 56.8557 36.8364 56.3871 46.3834C56.3871 46.3834 60.5296 43.7769 62.0015 42.5459C62.0015 42.5459 60.2164 32.929 55.7554 35.0092C54.7331 35.4863 51.6707 36.8235 51.6707 36.8235Z" fill="#60CE6F" stroke="#022522" stroke-width="0.164607" stroke-miterlimit="10"/>
<path d="M52.3262 36.5307C52.6766 36.4336 57.2108 35.7773 57.3218 43.1715C57.3275 43.5547 57.7161 42.5203 58.0252 42.7022C58.5552 43.0148 57.6552 44.1611 58.1594 43.8194C58.6915 43.4589 59.3913 42.9689 60.0235 42.4802C60.3538 42.2246 59.9997 41.5915 60.1148 41.2161C60.1927 40.9618 60.8528 41.3132 60.7026 40.6783C60.1664 38.4129 57.8756 33.7753 54.9767 35.2523C54.1257 35.686 52.3272 36.53 52.3272 36.53L52.3262 36.5307Z" fill="#60CE6F" stroke="#022522" stroke-width="0.164607" stroke-miterlimit="10"/>
<path d="M48.6784 44.1625C48.6784 44.1625 48.5572 40.5359 51.3177 37.2039L51.3641 36.9553C51.3641 36.9553 48.0184 39.7087 47.6355 41.5955C47.6355 41.5955 47.3759 42.433 47.4352 43.5897L48.6784 44.1618V44.1625Z" fill="#60CE6F" stroke="#022522" stroke-width="0.164607" stroke-miterlimit="10"/>
<path d="M51.3174 37.3777C51.3174 37.3777 49.2484 40.4062 49.4956 43.2444L48.7633 42.9874C48.7633 42.9874 49.2789 39.3091 51.3169 37.3777H51.3174Z" fill="#60CE6F" stroke="#022522" stroke-width="0.164607" stroke-miterlimit="10"/>
<path d="M51.3287 37.607C51.3287 37.607 51.2213 36.9216 51.6703 36.8238C52.1193 36.7261 52.7974 36.9708 52.7974 36.9708L51.3292 37.6064L51.3287 37.607Z" fill="#60CE6F" stroke="#022522" stroke-width="0.164607" stroke-miterlimit="10"/>
<path d="M52.9029 28.9072L28.5476 29.1933L28.0646 23.7059L52.5014 22.5415L52.9029 28.9072Z" fill="#FDCB9A" stroke="#022522" stroke-width="0.164607" stroke-miterlimit="10"/>
<path d="M72.4526 19.6042L52.9021 28.9059L52.5011 22.5395L72.4423 13.9045L72.4526 19.6042Z" fill="#FDCB9A" stroke="#022522" stroke-width="0.164607" stroke-miterlimit="10"/>
<path d="M72.4426 13.9045L50.6791 15.1078L28.0646 23.7059L52.5014 22.5395L72.4426 13.9045Z" fill="#FDCB9A" stroke="#022522" stroke-width="0.164607" stroke-miterlimit="10"/>
<path d="M51.6701 36.143C51.6701 36.143 56.6441 32.0737 60.1968 33.9747L64.2702 32.2517C64.2702 32.2517 59.6043 29.1624 55.6966 31.7767C52.1738 34.1333 51.6696 36.143 51.6696 36.143H51.6701Z" fill="#60CE6F" stroke="#022522" stroke-width="0.164607" stroke-miterlimit="10"/>
<path d="M57.2475 33.5747C57.2475 33.5747 56.3015 34.1831 56.1064 34.7184L52.1058 36.6336L51.5696 36.3139C51.5696 36.3139 51.5882 36.1987 51.8147 36.0291C51.8147 36.0291 54.9793 33.609 57.2469 33.5747H57.2475Z" fill="#60CE6F" stroke="#022522" stroke-width="0.164607" stroke-miterlimit="10"/>
<path d="M51.109 31.7729C51.109 31.7729 47.6925 32.6395 47.2539 27.723C47.2539 27.723 43.5464 27.123 41.7922 26.4065C41.7922 26.4065 41.6859 31.1897 46.1247 33.0564C46.1247 33.0564 48.2664 33.7567 51.1095 31.7729H51.109Z" fill="#60CE6F" stroke="#022522" stroke-width="0.164607" stroke-miterlimit="10"/>
<path d="M50.5859 32.113C50.5859 32.113 48.0282 33.3622 46.8035 29.2049C46.7354 28.9738 46.5935 29.4974 46.2998 29.2211C46.0454 28.9816 46.4113 28.4547 46.0805 28.4243C45.4561 28.3667 44.3718 28.2211 43.3112 27.8644C43.1466 27.8088 43.6978 28.3052 43.4114 28.6223C43.2034 28.8528 42.8153 27.9537 42.9066 28.3848C43.1394 29.4845 44.0012 31.6256 47.1901 32.9667C47.1901 32.9667 48.6526 33.4916 50.5864 32.113H50.5859Z" fill="#60CE6F" stroke="#022522" stroke-width="0.164607" stroke-miterlimit="10"/>
<path d="M52.2196 30.7859H48.2959C48.2959 30.7859 49.1691 32.1063 51.108 31.7729C51.108 31.7729 51.7939 31.617 52.2191 30.7859H52.2196Z" fill="#60CE6F" stroke="#022522" stroke-width="0.164607" stroke-miterlimit="10"/>
<path d="M40.0029 27.05L41.8944 27.5251C41.8944 27.5251 42.2236 30.5264 44.8298 32.353C44.8298 32.353 42.2633 32.2676 40.0029 27.05Z" fill="#60CE6F" stroke="#022522" stroke-width="0.164607" stroke-miterlimit="10"/>
<path d="M75.9846 68.0125C76.0744 68.4112 75.2177 69.0643 74.0705 69.4714C72.9238 69.8785 71.921 69.885 71.8307 69.4863C71.7998 69.3497 71.6986 68.9005 71.6986 68.9005C72.015 68.562 72.9898 68.2947 73.7443 68.0274C74.5102 67.7555 75.4438 67.34 75.852 67.4274C75.852 67.4274 75.9542 67.8805 75.9841 68.0131L75.9846 68.0125Z" fill="#DAFC35" stroke="#022522" stroke-width="0.164607" stroke-miterlimit="10" stroke-linecap="round"/>
<path d="M73.9358 68.8903C75.0828 68.4835 75.9397 67.8305 75.8499 67.4318C75.76 67.0332 74.7573 67.0398 73.6103 67.4465C72.4633 67.8533 71.6064 68.5063 71.6963 68.905C71.7862 69.3036 72.7888 69.2971 73.9358 68.8903Z" fill="#DAFC35" stroke="#022522" stroke-width="0.164607" stroke-miterlimit="10" stroke-linecap="round"/>
<path d="M75.4022 66.6878C75.492 67.0865 74.6353 67.7396 73.4881 68.1467C72.3414 68.5538 71.3386 68.5603 71.2483 68.1616C71.2174 68.025 71.1162 67.5758 71.1162 67.5758C71.4326 67.2373 72.4074 66.97 73.1619 66.7027C73.9278 66.4308 74.8614 66.0153 75.2696 66.1027C75.2696 66.1027 75.3718 66.5557 75.4017 66.6884L75.4022 66.6878Z" fill="#DAFC35" stroke="#022522" stroke-width="0.164607" stroke-miterlimit="10" stroke-linecap="round"/>
<path d="M73.3533 67.567C74.5003 67.1602 75.3572 66.5073 75.2673 66.1086C75.1775 65.7099 74.1748 65.7165 73.0278 66.1233C71.8808 66.5301 71.0239 67.1831 71.1137 67.5817C71.2036 67.9804 72.2063 67.9738 73.3533 67.567Z" fill="#DAFC35" stroke="#022522" stroke-width="0.164607" stroke-miterlimit="10" stroke-linecap="round"/>
<path d="M72.0024 68.5679C72.0922 68.9666 71.2355 69.6197 70.0883 70.0268C68.9415 70.4339 67.9388 70.4404 67.8485 70.0417C67.8175 69.9051 67.7164 69.4559 67.7164 69.4559C68.0327 69.1174 69.0076 68.8501 69.7621 68.5828C70.528 68.311 71.4615 67.8954 71.8698 67.9828C71.8698 67.9828 71.9719 68.4359 72.0019 68.5686L72.0024 68.5679Z" fill="#DAFC35" stroke="#022522" stroke-width="0.164607" stroke-miterlimit="10" stroke-linecap="round"/>
<path d="M69.9534 69.4469C71.1004 69.0401 71.9573 68.3872 71.8674 67.9885C71.7775 67.5898 70.7749 67.5964 69.6279 68.0032C68.4809 68.41 67.624 69.0629 67.7138 69.4616C67.8037 69.8603 68.8064 69.8537 69.9534 69.4469Z" fill="#DAFC35" stroke="#022522" stroke-width="0.164607" stroke-miterlimit="10" stroke-linecap="round"/>
<path d="M73.448 66.3951C73.5377 66.7938 72.6811 67.4468 71.5338 67.854C70.3871 68.2611 69.3844 68.2676 69.294 67.8689C69.2631 67.7323 69.1619 67.2831 69.1619 67.2831C69.4783 66.9446 70.4532 66.6773 71.2077 66.41C71.9735 66.1381 72.9071 65.7226 73.3153 65.8099C73.3153 65.8099 73.4175 66.263 73.4474 66.3957L73.448 66.3951Z" fill="#DAFC35" stroke="#022522" stroke-width="0.164607" stroke-miterlimit="10" stroke-linecap="round"/>
<path d="M71.399 67.2731C72.546 66.8663 73.4029 66.2133 73.3131 65.8147C73.2232 65.416 72.2205 65.4226 71.0735 65.8294C69.9265 66.2362 69.0696 66.8891 69.1595 67.2878C69.2494 67.6865 70.252 67.6799 71.399 67.2731Z" fill="#DAFC35" stroke="#022522" stroke-width="0.164607" stroke-miterlimit="10" stroke-linecap="round"/>
<path d="M72.0756 28.0345C71.942 28.4132 70.9496 28.23 69.8601 27.6241C68.7702 27.0183 67.9955 26.2203 68.1292 25.8416C68.1751 25.7122 68.3258 25.285 68.3258 25.285C68.7418 25.2779 69.6279 25.8533 70.3447 26.252C71.0724 26.6565 72.0024 27.0843 72.2723 27.4785C72.2723 27.4785 72.12 27.9089 72.0756 28.0352V28.0345Z" fill="#DAFC35" stroke="#022522" stroke-width="0.164607" stroke-miterlimit="10" stroke-linecap="round"/>
<path d="M72.2735 27.4806C72.4073 27.1018 71.6324 26.3038 70.5426 25.6981C69.4529 25.0924 68.4609 24.9085 68.3271 25.2873C68.1933 25.6661 68.9682 26.4641 70.058 27.0698C71.1477 27.6754 72.1396 27.8594 72.2735 27.4806Z" fill="#DAFC35" stroke="#022522" stroke-width="0.164607" stroke-miterlimit="10" stroke-linecap="round"/>
<path d="M72.9712 27.501C72.8138 27.8654 71.8363 27.5825 70.7887 26.8692C69.741 26.156 69.0195 25.2828 69.177 24.9184C69.2306 24.7941 69.4082 24.3838 69.4082 24.3838C69.8231 24.4187 70.6695 25.0809 71.3589 25.5501C72.0587 26.0265 72.9577 26.5463 73.2018 26.9663C73.2018 26.9663 73.0228 27.3799 72.9706 27.501H72.9712Z" fill="#DAFC35" stroke="#022522" stroke-width="0.164607" stroke-miterlimit="10" stroke-linecap="round"/>
<path d="M73.2019 26.9655C73.3594 26.6014 72.6379 25.7281 71.5903 25.015C70.5427 24.3019 69.5657 24.019 69.4081 24.3832C69.2505 24.7473 69.9721 25.6206 71.0197 26.3336C72.0673 27.0467 73.0443 27.3296 73.2019 26.9655Z" fill="#DAFC35" stroke="#022522" stroke-width="0.164607" stroke-miterlimit="10" stroke-linecap="round"/>
<path d="M76.6985 67.8547C76.6603 68.2664 77.5892 68.7395 78.7736 68.9117C79.9575 69.0839 80.9484 68.8897 80.9865 68.478C80.9995 68.3376 81.0423 67.8735 81.0423 67.8735C80.6867 67.603 79.6907 67.5343 78.9114 67.4211C78.1208 67.3059 77.1464 67.0826 76.7542 67.2502C76.7542 67.2502 76.7108 67.7182 76.6985 67.8547Z" fill="#DAFC35" stroke="#022522" stroke-width="0.164607" stroke-miterlimit="10" stroke-linecap="round"/>
<path d="M81.0408 67.8716C81.0789 67.4601 80.1498 66.987 78.9658 66.8149C77.7818 66.6428 76.7911 66.8369 76.7531 67.2485C76.715 67.66 77.6441 68.1332 78.8281 68.3052C80.0121 68.4773 81.0028 68.2832 81.0408 67.8716Z" fill="#DAFC35" stroke="#022522" stroke-width="0.164607" stroke-miterlimit="10" stroke-linecap="round"/>
<path d="M76.4452 66.9768C76.407 67.3885 77.336 67.8616 78.5204 68.0338C79.7043 68.2059 80.6951 68.0118 80.7333 67.6001C80.7462 67.4597 80.7891 66.9956 80.7891 66.9956C80.4335 66.725 79.4374 66.6564 78.6582 66.5431C77.8675 66.4279 76.8932 66.2046 76.501 66.3723C76.501 66.3723 76.4576 66.8402 76.4452 66.9768Z" fill="#DAFC35" stroke="#022522" stroke-width="0.164607" stroke-miterlimit="10" stroke-linecap="round"/>
<path d="M80.7877 66.9942C80.8257 66.5826 79.8967 66.1095 78.7126 65.9374C77.5286 65.7654 76.5379 65.9595 76.4999 66.371C76.4619 66.7826 77.3909 67.2557 78.5749 67.4278C79.759 67.5999 80.7496 67.4057 80.7877 66.9942Z" fill="#DAFC35" stroke="#022522" stroke-width="0.164607" stroke-miterlimit="10" stroke-linecap="round"/>
<path d="M76.0484 65.8567C76.0102 66.2683 76.9392 66.7415 78.1236 66.9136C79.3075 67.0858 80.2983 66.8916 80.3365 66.48C80.3494 66.3395 80.3923 65.8755 80.3923 65.8755C80.0367 65.6049 79.0407 65.5363 78.2614 65.423C77.4707 65.3078 76.4964 65.0845 76.1042 65.2522C76.1042 65.2522 76.0608 65.7201 76.0484 65.8567Z" fill="#DAFC35" stroke="#022522" stroke-width="0.164607" stroke-miterlimit="10" stroke-linecap="round"/>
<path d="M80.391 65.8741C80.429 65.4625 79.5 64.9894 78.316 64.8173C77.1319 64.6452 76.1412 64.8394 76.1032 65.2509C76.0652 65.6625 76.9942 66.1356 78.1782 66.3077C79.3623 66.4798 80.353 66.2856 80.391 65.8741Z" fill="#DAFC35" stroke="#022522" stroke-width="0.164607" stroke-miterlimit="10" stroke-linecap="round"/>
<path d="M22.6411 58.1169C22.6029 58.5286 23.5318 59.0017 24.7162 59.1739C25.9001 59.3461 26.891 59.1519 26.9292 58.7402C26.9421 58.5998 26.9849 58.1357 26.9849 58.1357C26.6293 57.8652 25.6333 57.7965 24.854 57.6833C24.0634 57.5681 23.089 57.3448 22.6968 57.5124C22.6968 57.5124 22.6535 57.9804 22.6411 58.1169Z" fill="#DAFC35" stroke="#022522" stroke-width="0.164607" stroke-miterlimit="10" stroke-linecap="round"/>
<path d="M26.9846 58.1338C27.0226 57.7223 26.0936 57.2492 24.9096 57.0771C23.7255 56.905 22.7349 57.0991 22.6968 57.5107C22.6588 57.9222 23.5878 58.3954 24.7719 58.5674C25.9559 58.7395 26.9466 58.5454 26.9846 58.1338Z" fill="#DAFC35" stroke="#022522" stroke-width="0.164607" stroke-miterlimit="10" stroke-linecap="round"/>
<path d="M22.389 57.2388C22.3508 57.6504 23.2797 58.1236 24.4641 58.2957C25.648 58.4679 26.6389 58.2737 26.677 57.8621C26.6899 57.7216 26.7328 57.2575 26.7328 57.2575C26.3772 56.987 25.3812 56.9184 24.6019 56.8051C23.8113 56.6899 22.8369 56.4666 22.4447 56.6342C22.4447 56.6342 22.4013 57.1022 22.389 57.2388Z" fill="#DAFC35" stroke="#022522" stroke-width="0.164607" stroke-miterlimit="10" stroke-linecap="round"/>
<path d="M26.7325 57.2557C26.7705 56.8441 25.8415 56.371 24.6574 56.1989C23.4734 56.0268 22.4827 56.221 22.4447 56.6325C22.4067 57.0441 23.3357 57.5172 24.5197 57.6893C25.7038 57.8614 26.6945 57.6672 26.7325 57.2557Z" fill="#DAFC35" stroke="#022522" stroke-width="0.164607" stroke-miterlimit="10" stroke-linecap="round"/>
<path d="M21.9923 56.1186C21.9541 56.5303 22.883 57.0034 24.0674 57.1756C25.2513 57.3478 26.2422 57.1536 26.2804 56.742C26.2933 56.6015 26.3361 56.1374 26.3361 56.1374C25.9805 55.8669 24.9845 55.7983 24.2052 55.685C23.4146 55.5698 22.4402 55.3465 22.048 55.5141C22.048 55.5141 22.0047 55.9821 21.9923 56.1186Z" fill="#DAFC35" stroke="#022522" stroke-width="0.164607" stroke-miterlimit="10" stroke-linecap="round"/>
<path d="M26.3358 56.1365C26.3738 55.725 25.4448 55.2519 24.2607 55.0798C23.0767 54.9077 22.086 55.1018 22.048 55.5134C22.01 55.9249 22.939 56.398 24.123 56.5701C25.3071 56.7422 26.2977 56.5481 26.3358 56.1365Z" fill="#DAFC35" stroke="#022522" stroke-width="0.164607" stroke-miterlimit="10" stroke-linecap="round"/>
<path d="M75.4932 64.8266C75.4813 65.2409 76.4376 65.6195 77.6292 65.6719C78.8203 65.7244 79.7957 65.4318 79.807 65.0176C79.8112 64.8758 79.8241 64.4091 79.8241 64.4091C79.4525 64.1748 78.4554 64.2066 77.671 64.1723C76.8866 64.1379 75.89 64.0124 75.5102 64.2189C75.5102 64.2189 75.4968 64.6894 75.4932 64.8273V64.8266Z" fill="#DAFC35" stroke="#022522" stroke-width="0.164607" stroke-miterlimit="10" stroke-linecap="round"/>
<path d="M79.8257 64.4108C79.8374 63.9968 78.8811 63.6184 77.6899 63.5657C76.4987 63.513 75.5236 63.806 75.5119 64.22C75.5003 64.6341 76.4565 65.0124 77.6477 65.0651C78.839 65.1178 79.8141 64.8249 79.8257 64.4108Z" fill="#DAFC35" stroke="#022522" stroke-width="0.164607" stroke-miterlimit="10" stroke-linecap="round"/>
<path d="M80.1961 71.3193C80.1842 71.7335 81.1405 72.1122 82.3321 72.1646C83.5232 72.217 84.4986 71.9245 84.51 71.5102C84.5141 71.3685 84.527 70.9018 84.527 70.9018C84.1554 70.6675 83.1584 70.6992 82.3739 70.6649C81.5895 70.6306 80.593 70.5051 80.2131 70.7115C80.2131 70.7115 80.1997 71.1821 80.1961 71.3199V71.3193Z" fill="#DAFC35" stroke="#022522" stroke-width="0.164607" stroke-miterlimit="10" stroke-linecap="round"/>
<path d="M84.5276 70.9035C84.5393 70.4895 83.583 70.1111 82.3918 70.0584C81.2006 70.0057 80.2255 70.2987 80.2138 70.7127C80.2022 71.1268 81.1584 71.5051 82.3496 71.5578C83.5409 71.6105 84.516 71.3176 84.5276 70.9035Z" fill="#DAFC35" stroke="#022522" stroke-width="0.164607" stroke-miterlimit="10" stroke-linecap="round"/>
<path d="M77.0611 71.3688C77.1189 71.7766 78.117 71.8957 79.2906 71.6335C80.4641 71.372 81.3688 70.829 81.3105 70.4206C81.2909 70.2808 81.2254 69.8212 81.2254 69.8212C80.8228 69.6898 79.8531 69.983 79.0805 70.1552C78.2966 70.33 77.3125 70.4672 76.9755 70.7688C76.9755 70.7688 77.041 71.2322 77.0606 71.3682L77.0611 71.3688Z" fill="#DAFC35" stroke="#022522" stroke-width="0.164607" stroke-miterlimit="10" stroke-linecap="round"/>
<path d="M79.2033 71.0371C80.3768 70.7755 81.2813 70.2327 81.2235 69.8248C81.1657 69.4169 80.1674 69.2983 78.9939 69.5599C77.8203 69.8216 76.9158 70.3644 76.9736 70.7723C77.0315 71.1802 78.0297 71.2988 79.2033 71.0371Z" fill="#DAFC35" stroke="#022522" stroke-width="0.164607" stroke-miterlimit="10" stroke-linecap="round"/>
<path d="M71.8743 65.4594C71.979 65.8523 72.9802 65.7876 74.1109 65.3151C75.2417 64.842 76.0736 64.1397 75.9688 63.7468C75.9332 63.6122 75.8155 63.1695 75.8155 63.1695C75.4022 63.1131 74.4763 63.5798 73.7321 63.8911C72.9879 64.2025 72.0193 64.5222 71.7205 64.8821C71.7205 64.8821 71.8392 65.3287 71.8737 65.4594H71.8743Z" fill="#DAFC35" stroke="#022522" stroke-width="0.164607" stroke-miterlimit="10" stroke-linecap="round"/>
<path d="M73.9594 64.7316C75.0901 64.2585 75.922 63.5564 75.8174 63.1634C75.7129 62.7704 74.7115 62.8353 73.5808 63.3084C72.4501 63.7815 71.6183 64.4836 71.7228 64.8766C71.8273 65.2697 72.8287 65.2047 73.9594 64.7316Z" fill="#DAFC35" stroke="#022522" stroke-width="0.164607" stroke-miterlimit="10" stroke-linecap="round"/>
<path d="M65.7235 71.4464C65.9191 71.7804 66.8563 71.3331 67.8167 70.4477C68.7771 69.5622 69.3969 68.5732 69.2008 68.2392C69.1337 68.1253 68.9134 67.7493 68.9134 67.7493C68.5062 67.8548 67.7398 68.6554 67.1076 69.2386C66.4661 69.8302 65.6316 70.4988 65.436 70.9564C65.436 70.9564 65.6585 71.3357 65.7235 71.4464Z" fill="#DAFC35" stroke="#022522" stroke-width="0.164607" stroke-miterlimit="10" stroke-linecap="round"/>
<path d="M67.5302 69.9508C68.4904 69.0651 69.1102 68.0766 68.9145 67.7428C68.7188 67.4091 67.7817 67.8564 66.8215 68.7421C65.8612 69.6277 65.2414 70.6163 65.4371 70.95C65.6328 71.2838 66.5699 70.8364 67.5302 69.9508Z" fill="#DAFC35" stroke="#022522" stroke-width="0.164607" stroke-miterlimit="10" stroke-linecap="round"/>
<path d="M74.6685 35.3232C74.3506 35.4358 73.8298 34.3614 73.5052 32.9225C73.1806 31.4843 73.1754 30.2267 73.4934 30.1135C73.6022 30.0746 73.9604 29.9478 73.9604 29.9478C74.2303 30.3445 74.4434 31.5672 74.6566 32.5135C74.8733 33.474 75.2047 34.6449 75.135 35.1568C75.135 35.1568 74.7737 35.285 74.6679 35.3225L74.6685 35.3232Z" fill="#DAFC35" stroke="#022522" stroke-width="0.164607" stroke-miterlimit="10" stroke-linecap="round"/>
<path d="M75.1346 35.1627C75.4525 35.0499 75.4473 33.7924 75.1229 32.3539C74.7986 30.9154 74.278 29.8406 73.9601 29.9533C73.6422 30.0661 73.6475 31.3236 73.9718 32.7621C74.2962 34.2007 74.8168 35.2754 75.1346 35.1627Z" fill="#DAFC35" stroke="#022522" stroke-width="0.164607" stroke-miterlimit="10" stroke-linecap="round"/>
<path d="M54.2017 33.9299C54.3416 34.3053 53.5798 35.1228 52.5002 35.7564C51.4206 36.3901 50.4318 36.5985 50.2914 36.2231C50.2434 36.0949 50.086 35.6716 50.086 35.6716C50.3549 35.2736 51.2823 34.8134 51.9934 34.3966C52.7144 33.9739 53.5824 33.3752 53.9963 33.3784C53.9963 33.3784 54.1553 33.805 54.2017 33.9299Z" fill="#DAFC35" stroke="#022522" stroke-width="0.164607" stroke-miterlimit="10" stroke-linecap="round"/>
<path d="M52.2945 35.2043C53.3743 34.5711 54.1362 33.7535 53.9962 33.3782C53.8563 33.0029 52.8676 33.212 51.7878 33.8452C50.7081 34.4784 49.9462 35.2959 50.0861 35.6712C50.226 36.0466 51.2148 35.8375 52.2945 35.2043Z" fill="#DAFC35" stroke="#022522" stroke-width="0.164607" stroke-miterlimit="10" stroke-linecap="round"/>
<path d="M53.0834 32.4907C53.279 32.8247 52.6592 33.813 51.6993 34.6991C50.7389 35.5846 49.8017 36.0318 49.6061 35.6978C49.539 35.5839 49.3187 35.2079 49.3187 35.2079C49.5205 34.7516 50.3586 34.0726 50.9902 33.4901C51.6317 32.8985 52.3893 32.0991 52.796 32.0007C52.796 32.0007 53.0184 32.38 53.0834 32.4907Z" fill="#DAFC35" stroke="#022522" stroke-width="0.164607" stroke-miterlimit="10" stroke-linecap="round"/>
<path d="M51.4118 34.2054C52.372 33.3198 52.9918 32.3312 52.7961 31.9975C52.6004 31.6637 51.6633 32.1111 50.7031 32.9967C49.7428 33.8824 49.123 34.8709 49.3187 35.2047C49.5144 35.5385 50.4515 35.0911 51.4118 34.2054Z" fill="#DAFC35" stroke="#022522" stroke-width="0.164607" stroke-miterlimit="10" stroke-linecap="round"/>
<path d="M50.6467 32.8994C50.8423 33.2334 50.2225 34.2217 49.2626 35.1078C48.3021 35.9933 47.3649 36.4405 47.1694 36.1065C47.1023 35.9926 46.8819 35.6166 46.8819 35.6166C47.0837 35.1602 47.9218 34.4813 48.5535 33.8988C49.195 33.3072 49.9526 32.5078 50.3592 32.4094C50.3592 32.4094 50.5817 32.7887 50.6467 32.8994Z" fill="#DAFC35" stroke="#022522" stroke-width="0.164607" stroke-miterlimit="10" stroke-linecap="round"/>
<path d="M48.975 34.6134C49.9353 33.7277 50.5551 32.7392 50.3594 32.4054C50.1637 32.0717 49.2266 32.519 48.2663 33.4047C47.306 34.2903 46.6862 35.2789 46.8819 35.6126C47.0776 35.9464 48.0147 35.499 48.975 34.6134Z" fill="#DAFC35" stroke="#022522" stroke-width="0.164607" stroke-miterlimit="10" stroke-linecap="round"/>
<path d="M49.3091 32.8116C49.4139 33.2045 48.582 33.9068 47.4512 34.3799C46.3205 34.8531 45.3193 34.9178 45.2146 34.5243C45.1789 34.3896 45.0613 33.9469 45.0613 33.9469C45.3647 33.5903 46.3288 33.2673 47.0729 32.956C47.8171 32.6446 48.745 32.1709 49.1564 32.2343C49.1564 32.2343 49.275 32.6809 49.3096 32.8116H49.3091Z" fill="#DAFC35" stroke="#022522" stroke-width="0.164607" stroke-miterlimit="10" stroke-linecap="round"/>
<path d="M47.2992 33.7997C48.4299 33.3266 49.2617 32.6245 49.1572 32.2315C49.0526 31.8385 48.0513 31.9034 46.9206 32.3765C45.7899 32.8496 44.958 33.5518 45.0626 33.9448C45.1671 34.3378 46.1685 34.2728 47.2992 33.7997Z" fill="#DAFC35" stroke="#022522" stroke-width="0.164607" stroke-miterlimit="10" stroke-linecap="round"/>
<path d="M28.1272 68.6375C28.1422 69.0517 27.189 69.442 25.9984 69.51C24.8078 69.5779 23.8304 69.297 23.8154 68.8834C23.8102 68.7417 23.7932 68.2757 23.7932 68.2757C24.1627 68.0368 25.1603 68.0556 25.9442 68.0109C26.7395 67.9656 27.7237 67.8284 28.1056 68.0297C28.1056 68.0297 28.1226 68.5003 28.1277 68.6375H28.1272Z" fill="#DAFC35" stroke="#022522" stroke-width="0.164607" stroke-miterlimit="10" stroke-linecap="round"/>
<path d="M25.9719 68.9024C27.1627 68.8346 28.1158 68.4441 28.1008 68.0302C28.0858 67.6163 27.1084 67.3358 25.9177 67.4036C24.7269 67.4714 23.7738 67.8619 23.7888 68.2758C23.8038 68.6896 24.7812 68.9702 25.9719 68.9024Z" fill="#DAFC35" stroke="#022522" stroke-width="0.164607" stroke-miterlimit="10" stroke-linecap="round"/>
<path d="M27.2742 65.1882C27.4698 65.5222 26.85 66.5106 25.8901 67.3966C24.9302 68.2827 23.9925 68.7293 23.7969 68.3953C23.7298 68.2814 23.5095 67.9054 23.5095 67.9054C23.7112 67.4491 24.5494 66.7701 25.181 66.1876C25.8225 65.596 26.5801 64.7966 26.9868 64.6982C26.9868 64.6982 27.2092 65.0775 27.2742 65.1882Z" fill="#DAFC35" stroke="#022522" stroke-width="0.164607" stroke-miterlimit="10" stroke-linecap="round"/>
<path d="M25.6048 66.9022C26.565 66.0166 27.1848 65.028 26.9891 64.6942C26.7934 64.3605 25.8563 64.8079 24.8961 65.6935C23.9358 66.5792 23.316 67.5677 23.5117 67.9015C23.7074 68.2352 24.6445 67.7878 25.6048 66.9022Z" fill="#DAFC35" stroke="#022522" stroke-width="0.164607" stroke-miterlimit="10" stroke-linecap="round"/>
<path d="M32.9863 68.5863C33.0911 68.9792 32.2591 69.6815 31.1284 70.1546C29.9977 70.6278 28.9965 70.6925 28.8917 70.299C28.8561 70.1643 28.7385 69.7216 28.7385 69.7216C29.0419 69.365 30.006 69.042 30.7501 68.7307C31.5052 68.4148 32.4222 67.9456 32.8335 68.009C32.8335 68.009 32.9522 68.4556 32.9868 68.5863H32.9863Z" fill="#DAFC35" stroke="#022522" stroke-width="0.164607" stroke-miterlimit="10" stroke-linecap="round"/>
<path d="M30.9775 69.5744C32.1082 69.1013 32.9401 68.3991 32.8355 68.0061C32.731 67.6131 31.7296 67.6781 30.5989 68.1512C29.4682 68.6243 28.6364 69.3264 28.7409 69.7194C28.8455 70.1124 29.8468 70.0475 30.9775 69.5744Z" fill="#DAFC35" stroke="#022522" stroke-width="0.164607" stroke-miterlimit="10" stroke-linecap="round"/>
<path d="M52.042 36.5805C52.042 36.5805 51.9331 36.4879 51.8701 36.4575C51.3437 36.2038 48.8418 35.0031 48.0563 34.7144C47.1764 34.3915 46.0911 34.7908 44.9495 36.2225C43.808 37.6543 42.7407 39.1565 42.8346 42.5371L47.6636 45.143C47.6636 45.143 46.8027 42.2789 48.3185 40.143C48.3185 40.143 50.1511 37.93 51.3179 36.9915C51.6172 36.7507 51.8727 36.5941 52.042 36.5798V36.5805Z" fill="#60CE6F" stroke="#022522" stroke-width="0.164607" stroke-miterlimit="10"/>
<path d="M51.3721 36.219C51.3721 36.219 50.8834 35.9912 50.838 35.9646C50.4576 35.7472 48.7463 35.0604 48.1787 34.8132C47.5428 34.5361 46.3306 35.6073 45.4734 36.8002C44.6575 37.9355 43.952 38.7025 43.5918 40.8941C43.5531 41.131 44.0779 40.8643 44.1868 41.1032C44.4077 41.588 43.8142 41.808 43.9608 41.9245C44.4077 42.2805 45.6958 42.9841 45.9879 43.0695C46.1923 43.1291 45.8511 42.265 46.1933 42.0501C46.5355 41.8352 46.6247 43.1135 46.6758 42.6281C46.7646 41.7899 47.0376 40.4624 47.8675 39.452C48.4578 38.7336 49.9503 37.4902 50.7936 36.685C51.0099 36.4785 51.2493 36.2307 51.3721 36.219Z" fill="#60CE6F" stroke="#022522" stroke-width="0.164607" stroke-miterlimit="10"/>
<path d="M57.5338 30.4481C57.5338 30.4481 62.6301 27.3697 57.7196 22.0765C57.7196 22.0765 59.7256 22.3762 62.0005 20.1458C62.0005 20.1458 64.0101 22.6092 62.2317 26.9037C62.2317 26.9037 61.3028 29.6655 57.5333 30.4481H57.5338Z" fill="#60CE6F" stroke="#022522" stroke-width="0.164607" stroke-miterlimit="10"/>
<path d="M58.6669 30.1274C58.6669 30.1274 61.9022 27.6212 59.4962 23.3073C59.394 23.1235 59.7661 23.3901 59.8812 23.1914C59.9509 23.0717 59.3099 22.8212 59.6288 22.7642C60.0092 22.6963 60.6259 22.4413 61.5032 21.6484C61.6034 21.5584 61.6178 22.038 61.7169 22.1539C61.8836 22.3494 61.8841 21.5196 61.9754 21.7998C62.2495 22.6406 62.7072 24.5416 61.9796 26.2898C61.6152 27.1649 61.1642 29.0724 58.6669 30.1267V30.1274Z" fill="#60CE6F" stroke="#022522" stroke-width="0.164607" stroke-miterlimit="10"/>
<path d="M54.7997 30.7264L57.8523 28.6086C57.8523 28.6086 59.1245 28.6507 59.8026 27.1614C59.8026 27.1614 59.7783 28.8397 57.5339 30.4488C57.5339 30.4488 57.0994 30.7562 54.7997 30.7271V30.7264Z" fill="#60CE6F" stroke="#022522" stroke-width="0.164607" stroke-miterlimit="10"/>
<path d="M57.2233 34.31C57.0659 34.6744 56.0884 34.3916 55.0408 33.6783C53.9932 32.9651 53.2717 32.0919 53.4291 31.7275C53.4828 31.6032 53.6603 31.1929 53.6603 31.1929C54.0752 31.2278 54.9216 31.89 55.6111 32.3592C56.3109 32.8356 57.2099 33.3553 57.454 33.7754C57.454 33.7754 57.2749 34.189 57.2228 34.31H57.2233Z" fill="#DAFC35" stroke="#022522" stroke-width="0.164607" stroke-miterlimit="10" stroke-linecap="round"/>
<path d="M57.4551 33.7755C57.6127 33.4114 56.8912 32.5382 55.8435 31.8251C54.7959 31.112 53.8189 30.8291 53.6613 31.1932C53.5038 31.5574 54.2253 32.4306 55.2729 33.1437C56.3205 33.8568 57.2975 34.1397 57.4551 33.7755Z" fill="#DAFC35" stroke="#022522" stroke-width="0.164607" stroke-miterlimit="10" stroke-linecap="round"/>
<path d="M58.5397 31.5225C58.5335 31.9368 57.5627 32.2507 56.3706 32.2235C55.179 32.1963 54.2175 31.8384 54.2237 31.4235C54.2258 31.2817 54.2325 30.8151 54.2325 30.8151C54.6134 30.606 55.6078 30.7044 56.3923 30.7225C57.1881 30.7406 58.1774 30.6824 58.5479 30.9141C58.5479 30.9141 58.5412 31.3847 58.5392 31.5225H58.5397Z" fill="#DAFC35" stroke="#022522" stroke-width="0.164607" stroke-miterlimit="10" stroke-linecap="round"/>
<path d="M58.5504 30.9156C58.5565 30.5013 57.5952 30.1433 56.4035 30.1159C55.2117 30.0885 54.2407 30.4021 54.2347 30.8164C54.2286 31.2306 55.1898 31.5886 56.3816 31.616C57.5733 31.6434 58.5443 31.3298 58.5504 30.9156Z" fill="#DAFC35" stroke="#022522" stroke-width="0.164607" stroke-miterlimit="10" stroke-linecap="round"/>
<path d="M56.7527 31.457C56.619 31.8357 55.6266 31.6519 54.5372 31.046C53.4472 30.4402 52.6726 29.6421 52.8063 29.2635C52.8522 29.134 53.0029 28.7069 53.0029 28.7069C53.4188 28.6997 54.3049 29.2751 55.0218 29.6738C55.7494 30.0784 56.6794 30.5062 56.9493 30.9004C56.9493 30.9004 56.7971 31.3308 56.7527 31.457Z" fill="#DAFC35" stroke="#022522" stroke-width="0.164607" stroke-miterlimit="10" stroke-linecap="round"/>
<path d="M56.9495 30.9025C57.0834 30.5237 56.3085 29.7256 55.2187 29.12C54.1289 28.5143 53.137 28.3304 53.0032 28.7092C52.8694 29.088 53.6443 29.886 54.734 30.4917C55.8238 31.0973 56.8157 31.2812 56.9495 30.9025Z" fill="#DAFC35" stroke="#022522" stroke-width="0.164607" stroke-miterlimit="10" stroke-linecap="round"/>
<path d="M57.6635 30.7262C57.5298 31.1048 56.5374 30.9216 55.4479 30.3158C54.358 29.71 53.5834 28.9119 53.717 28.5333C53.763 28.4038 53.9136 27.9766 53.9136 27.9766C54.3296 27.9695 55.2157 28.5449 55.9325 28.9436C56.6602 29.3482 57.5902 29.776 57.8601 30.1702C57.8601 30.1702 57.7078 30.5999 57.6635 30.7262Z" fill="#DAFC35" stroke="#022522" stroke-width="0.164607" stroke-miterlimit="10" stroke-linecap="round"/>
<path d="M57.8604 30.1718C57.9942 29.793 57.2193 28.9949 56.1295 28.3893C55.0398 27.7836 54.0479 27.5997 53.914 27.9785C53.7802 28.3572 54.5551 29.1553 55.6449 29.7609C56.7346 30.3666 57.7265 30.5505 57.8604 30.1718Z" fill="#DAFC35" stroke="#022522" stroke-width="0.164607" stroke-miterlimit="10" stroke-linecap="round"/>
<path d="M43.6666 37.4154C43.5329 37.794 42.5405 37.6108 41.4511 37.005C40.3611 36.3992 39.5865 35.6011 39.7201 35.2225C39.7661 35.093 39.9168 34.6658 39.9168 34.6658C40.3327 34.6587 41.2188 35.2341 41.9357 35.6328C42.6633 36.0374 43.5933 36.4652 43.8632 36.8594C43.8632 36.8594 43.711 37.2898 43.6666 37.416V37.4154Z" fill="#DAFC35" stroke="#022522" stroke-width="0.164607" stroke-miterlimit="10" stroke-linecap="round"/>
<path d="M43.8634 36.8619C43.9973 36.4832 43.2223 35.6851 42.1326 35.0794C41.0428 34.4738 40.0509 34.2899 39.9171 34.6687C39.7832 35.0474 40.5582 35.8455 41.6479 36.4511C42.7377 37.0568 43.7296 37.2407 43.8634 36.8619Z" fill="#DAFC35" stroke="#022522" stroke-width="0.164607" stroke-miterlimit="10" stroke-linecap="round"/>
<path d="M43.7644 36.0897C43.6308 36.4683 42.6383 36.2852 41.5489 35.6793C40.4589 35.0735 39.6843 34.2754 39.818 33.8968C39.8639 33.7673 40.0146 33.3402 40.0146 33.3402C40.4306 33.333 41.3167 33.9084 42.0335 34.3071C42.7503 34.7059 43.6911 35.1395 43.961 35.5337C43.961 35.5337 43.8088 35.9641 43.7644 36.0903V36.0897Z" fill="#DAFC35" stroke="#022522" stroke-width="0.164607" stroke-miterlimit="10" stroke-linecap="round"/>
<path d="M43.9613 35.5353C44.0951 35.1565 43.3202 34.3584 42.2304 33.7528C41.1407 33.1471 40.1487 32.9632 40.0149 33.342C39.8811 33.7208 40.656 34.5188 41.7458 35.1245C42.8355 35.7301 43.8274 35.9141 43.9613 35.5353Z" fill="#DAFC35" stroke="#022522" stroke-width="0.164607" stroke-miterlimit="10" stroke-linecap="round"/>
<path d="M44.7035 35.2794C44.5698 35.658 43.5774 35.4748 42.488 34.869C41.398 34.2632 40.6234 33.4651 40.7571 33.0865C40.803 32.957 40.9537 32.5299 40.9537 32.5299C41.3696 32.5227 42.2558 33.0981 42.9726 33.4968C43.7003 33.9014 44.6302 34.3292 44.9001 34.7234C44.9001 34.7234 44.7479 35.1538 44.7035 35.28V35.2794Z" fill="#DAFC35" stroke="#022522" stroke-width="0.164607" stroke-miterlimit="10" stroke-linecap="round"/>
<path d="M44.9003 34.7255C45.0341 34.3467 44.2592 33.5486 43.1694 32.943C42.0797 32.3373 41.0878 32.1534 40.9539 32.5322C40.8201 32.911 41.595 33.709 42.6848 34.3147C43.7745 34.9203 44.7665 35.1042 44.9003 34.7255Z" fill="#DAFC35" stroke="#022522" stroke-width="0.164607" stroke-miterlimit="10" stroke-linecap="round"/>
<path d="M45.4992 34.401C45.3655 34.7796 44.3731 34.5964 43.2836 33.9906C42.1937 33.3848 41.4191 32.5867 41.5527 32.2081C41.5986 32.0786 41.7493 31.6514 41.7493 31.6514C42.1653 31.6443 43.0514 32.2197 43.7682 32.6184C44.4959 33.023 45.4259 33.4508 45.6958 33.845C45.6958 33.845 45.5435 34.2754 45.4992 34.4016V34.401Z" fill="#DAFC35" stroke="#022522" stroke-width="0.164607" stroke-miterlimit="10" stroke-linecap="round"/>
<path d="M45.6969 33.8463C45.8308 33.4675 45.0558 32.6695 43.9661 32.0638C42.8763 31.4582 41.8844 31.2742 41.7506 31.653C41.6167 32.0318 42.3917 32.8299 43.4814 33.4355C44.5712 34.0412 45.5631 34.2251 45.6969 33.8463Z" fill="#DAFC35" stroke="#022522" stroke-width="0.164607" stroke-miterlimit="10" stroke-linecap="round"/>
<path d="M27.2742 63.7873C27.414 64.1627 26.6523 64.9802 25.5727 65.6139C24.493 66.2469 23.5042 66.4559 23.3638 66.0805C23.3159 65.9524 23.1584 65.5291 23.1584 65.5291C23.4273 65.131 24.3547 64.6708 25.0659 64.254C25.7868 63.8313 26.6549 63.2326 27.0688 63.2359C27.0688 63.2359 27.2277 63.6624 27.2742 63.7873Z" fill="#DAFC35" stroke="#022522" stroke-width="0.164607" stroke-miterlimit="10" stroke-linecap="round"/>
<path d="M25.368 65.0605C26.4478 64.4273 27.2097 63.6097 27.0697 63.2344C26.9298 62.8591 25.9411 63.0682 24.8613 63.7014C23.7816 64.3346 23.0197 65.1521 23.1596 65.5275C23.2995 65.9028 24.2883 65.6937 25.368 65.0605Z" fill="#DAFC35" stroke="#022522" stroke-width="0.164607" stroke-miterlimit="10" stroke-linecap="round"/>
<path d="M35.0835 41.5899C35.374 41.7873 35.1485 43.0132 34.5798 44.3271C34.011 45.641 33.3149 46.5459 33.0243 46.3485C32.9252 46.2812 32.598 46.0585 32.598 46.0585C32.6259 45.5381 33.1538 44.4766 33.528 43.6119C33.9078 42.7342 34.3222 41.6067 34.6572 41.3005C34.6572 41.3005 34.9869 41.5251 35.0835 41.5905V41.5899Z" fill="#DAFC35" stroke="#022522" stroke-width="0.164607" stroke-miterlimit="10" stroke-linecap="round"/>
<path d="M34.1529 44.0371C34.7215 42.7232 34.947 41.4979 34.6567 41.3002C34.3664 41.1026 33.6701 42.0075 33.1015 43.3214C32.5329 44.6353 32.3074 45.8606 32.5977 46.0583C32.8881 46.2559 33.5843 45.351 34.1529 44.0371Z" fill="#DAFC35" stroke="#022522" stroke-width="0.164607" stroke-miterlimit="10" stroke-linecap="round"/>
<path d="M34.0873 53.6888C34.4124 53.6163 34.8454 54.7503 35.0544 56.2222C35.2634 57.694 35.1685 58.9458 34.8433 59.0183C34.7319 59.0429 34.3654 59.1251 34.3654 59.1251C34.1286 58.6966 34.0135 57.4539 33.8762 56.485C33.7369 55.5018 33.5 54.296 33.6099 53.795C33.6099 53.795 33.9794 53.7128 34.0878 53.6882L34.0873 53.6888Z" fill="#DAFC35" stroke="#022522" stroke-width="0.164607" stroke-miterlimit="10" stroke-linecap="round"/>
<path d="M34.3631 59.1267C34.6883 59.0542 34.7828 57.8023 34.5742 56.3304C34.3656 54.8586 33.9328 53.7242 33.6076 53.7967C33.2823 53.8692 33.1878 55.1212 33.3964 56.593C33.605 58.0649 34.0378 59.1993 34.3631 59.1267Z" fill="#DAFC35" stroke="#022522" stroke-width="0.164607" stroke-miterlimit="10" stroke-linecap="round"/>
<path d="M33.9358 62.0907C34.2573 62.1859 34.296 63.4428 34.0225 64.8979C33.7489 66.3529 33.2659 67.4552 32.9444 67.36C32.8345 67.3277 32.4722 67.2202 32.4722 67.2202C32.3901 66.7089 32.6776 65.5108 32.8582 64.5529C33.0409 63.5814 33.205 62.3568 33.4641 61.9509C33.4641 61.9509 33.8294 62.059 33.9363 62.0907H33.9358Z" fill="#DAFC35" stroke="#022522" stroke-width="0.164607" stroke-miterlimit="10" stroke-linecap="round"/>
<path d="M33.5495 64.7524C33.8233 63.2975 33.7846 62.0409 33.4631 61.9457C33.1416 61.8505 32.659 62.9529 32.3852 64.4078C32.1114 65.8628 32.15 67.1194 32.4715 67.2146C32.7931 67.3097 33.2756 66.2074 33.5495 64.7524Z" fill="#DAFC35" stroke="#022522" stroke-width="0.164607" stroke-miterlimit="10" stroke-linecap="round"/>
<path d="M33.9792 69.8392C33.8455 70.2178 32.8531 70.0347 31.7637 69.4288C30.6737 68.823 29.8991 68.0249 30.0328 67.6463C30.0787 67.5169 30.2294 67.0897 30.2294 67.0897C30.6453 67.0825 31.5314 67.6579 32.2483 68.0567C32.9651 68.4554 33.9059 68.889 34.1758 69.2832C34.1758 69.2832 34.0236 69.7136 33.9792 69.8398V69.8392Z" fill="#DAFC35" stroke="#022522" stroke-width="0.164607" stroke-miterlimit="10" stroke-linecap="round"/>
<path d="M34.1749 69.2867C34.3088 68.908 33.5339 68.1099 32.4441 67.5043C31.3543 66.8986 30.3624 66.7147 30.2286 67.0935C30.0948 67.4722 30.8697 68.2703 31.9594 68.8759C33.0492 69.4816 34.0411 69.6655 34.1749 69.2867Z" fill="#DAFC35" stroke="#022522" stroke-width="0.164607" stroke-miterlimit="10" stroke-linecap="round"/>
<path d="M30.2949 68.5455C30.3527 68.9533 29.4486 69.4963 28.275 69.7585C27.1014 70.0199 26.1033 69.9015 26.0455 69.4937C26.0259 69.3539 25.9604 68.8944 25.9604 68.8944C26.302 68.5973 27.2929 68.4529 28.0655 68.2808C28.8494 68.106 29.8108 67.8089 30.2103 67.9468C30.2103 67.9468 30.2758 68.4102 30.2954 68.5462L30.2949 68.5455Z" fill="#DAFC35" stroke="#022522" stroke-width="0.164607" stroke-miterlimit="10" stroke-linecap="round"/>
<path d="M28.1871 69.1597C29.3606 68.898 30.2651 68.3552 30.2073 67.9473C30.1495 67.5394 29.1513 67.4208 27.9777 67.6825C26.8041 67.9441 25.8997 68.4869 25.9575 68.8948C26.0153 69.3027 27.0135 69.4213 28.1871 69.1597Z" fill="#DAFC35" stroke="#022522" stroke-width="0.164607" stroke-miterlimit="10" stroke-linecap="round"/>
<path d="M31.6053 67.4855C31.5939 67.8998 30.6196 68.1949 29.4279 68.1444C28.2363 68.0939 27.28 67.7172 27.2909 67.303C27.2945 67.1613 27.3074 66.6946 27.3074 66.6946C27.6908 66.4933 28.6843 66.6104 29.4682 66.6441C30.264 66.6778 31.2533 66.6383 31.6213 66.8771C31.6213 66.8771 31.6089 67.3477 31.6048 67.4855H31.6053Z" fill="#DAFC35" stroke="#022522" stroke-width="0.164607" stroke-miterlimit="10" stroke-linecap="round"/>
<path d="M31.6205 66.8779C31.6317 66.4638 30.675 66.0873 29.4837 66.037C28.2924 65.9866 27.3176 66.2815 27.3065 66.6956C27.2954 67.1096 28.2521 67.4861 29.4434 67.5365C30.6347 67.5868 31.6094 67.292 31.6205 66.8779Z" fill="#DAFC35" stroke="#022522" stroke-width="0.164607" stroke-miterlimit="10" stroke-linecap="round"/>
<path d="M36.3012 68.7097C36.2697 69.122 35.2824 69.3421 34.096 69.1997C32.9095 69.0579 31.9728 68.6081 32.0043 68.1958C32.0151 68.0547 32.0502 67.5899 32.0502 67.5899C32.443 67.4184 33.4287 67.612 34.2095 67.7058C35.0022 67.8003 35.9915 67.8372 36.3471 68.1039C36.3471 68.1039 36.3115 68.5725 36.3012 68.7097Z" fill="#DAFC35" stroke="#022522" stroke-width="0.164607" stroke-miterlimit="10" stroke-linecap="round"/>
<path d="M36.3475 68.1087C36.3789 67.6963 35.4424 67.2468 34.2558 67.1048C33.0692 66.9629 32.0819 67.1821 32.0505 67.5945C32.0191 68.007 32.9556 68.4564 34.1422 68.5984C35.3288 68.7404 36.3161 68.5211 36.3475 68.1087Z" fill="#DAFC35" stroke="#022522" stroke-width="0.164607" stroke-miterlimit="10" stroke-linecap="round"/>
<path d="M60.4487 33.1412C60.2015 33.4163 59.3597 32.7328 58.5691 31.6144C57.778 30.4959 57.3372 29.3665 57.585 29.0914C57.6696 28.9975 57.9478 28.6875 57.9478 28.6875C58.3281 28.8979 58.9438 29.8823 59.4645 30.6183C59.993 31.3652 60.6969 32.2383 60.812 32.7374C60.812 32.7374 60.5312 33.05 60.4492 33.1412H60.4487Z" fill="#DAFC35" stroke="#022522" stroke-width="0.164607" stroke-miterlimit="10" stroke-linecap="round"/>
<path d="M60.8113 32.7377C61.0584 32.4628 60.6176 31.3333 59.8267 30.2149C59.0358 29.0964 58.1943 28.4126 57.9471 28.6875C57.7 28.9624 58.1408 30.092 58.9317 31.2104C59.7226 32.3288 60.5641 33.0126 60.8113 32.7377Z" fill="#DAFC35" stroke="#022522" stroke-width="0.164607" stroke-miterlimit="10" stroke-linecap="round"/>
<path d="M62.232 26.9032C62.232 26.9032 64.591 25.5194 64.0796 21.2864C64.0796 21.2864 62.9462 21.6857 62.7997 21.7479C62.7997 21.7479 63.5181 23.6262 62.232 26.9032Z" fill="#60CE6F" stroke="#022522" stroke-width="0.164607" stroke-miterlimit="10"/>
<path d="M39.297 28.7071C39.297 28.7071 41.7737 32.0042 44.8304 32.3531C44.8304 32.3531 41.8459 31.1705 40.8096 28.687L39.2965 28.7071H39.297Z" fill="#60CE6F" stroke="#022522" stroke-width="0.164607" stroke-miterlimit="10"/>
<path d="M36.2397 30.9235C36.2397 30.9235 35.0419 30.7513 34.9918 31.8271L34.9598 32.653C34.9598 32.653 38.7597 32.1721 40.214 32.1805C40.214 32.1805 40.3601 30.7714 40.5314 30.7876L40.26 30.5203L36.2392 30.9235H36.2397Z" fill="#60CE6F" stroke="#022522" stroke-width="0.164607" stroke-miterlimit="10"/>
<path d="M35.2098 29.7014C35.2098 29.7014 35.3915 30.6962 36.2399 30.9234C37.0884 31.1506 40.5316 30.7875 40.5316 30.7875C40.5316 30.7875 39.9485 30.616 40.0032 29.803C40.0032 29.803 37.2741 30.6309 35.2098 29.7014Z" fill="#60CE6F" stroke="#022522" stroke-width="0.164607" stroke-miterlimit="10"/>
<path d="M40.832 31.7353C40.9719 32.1107 40.2102 32.9282 39.1305 33.5619C38.0509 34.1949 37.0621 34.4039 36.9217 34.0285C36.8737 33.9004 36.7163 33.4771 36.7163 33.4771C36.9852 33.079 37.9126 32.6188 38.6237 32.202C39.3447 31.7793 40.2127 31.1806 40.6266 31.1839C40.6266 31.1839 40.7856 31.6104 40.832 31.7353Z" fill="#DAFC35" stroke="#022522" stroke-width="0.164607" stroke-miterlimit="10" stroke-linecap="round"/>
<path d="M38.9248 33.0095C40.0045 32.3763 40.7664 31.5587 40.6265 31.1834C40.4866 30.8081 39.4978 31.0172 38.4181 31.6504C37.3383 32.2836 36.5764 33.1011 36.7164 33.4764C36.8563 33.8517 37.845 33.6427 38.9248 33.0095Z" fill="#DAFC35" stroke="#022522" stroke-width="0.164607" stroke-miterlimit="10" stroke-linecap="round"/>
<path d="M80.9351 36.7193C80.9351 36.7193 82.425 37.4863 84.2137 39.876C84.2137 39.876 82.4957 36.142 81.2824 34.8125C81.2824 34.8125 80.9944 36.3568 80.9351 36.7187V36.7193Z" fill="#60CE6F" stroke="#022522" stroke-width="0.164607" stroke-miterlimit="10"/>
<path d="M66.9621 43.2432C66.9621 43.2432 70.7878 48.0433 76.4445 43.5028C82.1012 38.9623 84.1697 37.1519 93.714 41.3002C103.258 45.4484 94.6073 49.93 94.6073 49.93C94.6073 49.93 96.8641 52.1708 96.1587 53.2912C95.4532 54.4116 92.2561 56.0627 89.6236 52.2886C89.6236 52.2886 92.4444 58.2071 87.6021 56.5747C87.6021 56.5747 84.6816 55.5514 84.214 53.596C84.214 53.596 85.5873 57.1779 82.575 57.2401C79.5621 57.3016 77.1417 52.7022 75.978 52.0536C74.8137 51.4051 74.5066 50.4025 73.2133 51.1099C71.9206 51.8174 67.056 51.8886 66.9621 43.2439V43.2432Z" fill="white" stroke="#002522" stroke-width="0.164607" stroke-miterlimit="10"/>
<path d="M81.8198 48.4553C81.8198 50.4709 84.3093 54.5259 85.2997 55.2353L81.8198 48.4553Z" fill="white"/>
<path d="M81.8198 48.4553C81.8198 50.4709 84.3093 54.5259 85.2997 55.2353" stroke="#002522" stroke-width="0.164607" stroke-miterlimit="10" stroke-linecap="round"/>
<path d="M88.3541 49.1038C88.3541 49.1038 88.6844 52.2203 91.4578 54.0824L88.3541 49.1038Z" fill="white"/>
<path d="M88.3541 49.1038C88.3541 49.1038 88.6844 52.2203 91.4578 54.0824" stroke="#002522" stroke-width="0.164607" stroke-miterlimit="10" stroke-linecap="round"/>
<path d="M75.7118 48.7505C75.7118 48.7505 75.1044 51.3266 77.6853 53.8787L75.7118 48.7505Z" fill="white"/>
<path d="M75.7118 48.7505C75.7118 48.7505 75.1044 51.3266 77.6853 53.8787" stroke="#002522" stroke-width="0.164607" stroke-miterlimit="10" stroke-linecap="round"/>
<path d="M92.5853 48.1069C92.5853 48.1069 92.8031 51.817 96.3377 48.7503L92.5853 48.1069Z" fill="white"/>
<path d="M92.5853 48.1069C92.5853 48.1069 92.8031 51.817 96.3377 48.7503" stroke="#002522" stroke-width="0.164607" stroke-miterlimit="10" stroke-linecap="round"/>
<path d="M73.4843 45.8873C73.1566 45.8329 73.0183 44.5869 73.1752 43.1054C73.3321 41.6232 73.7248 40.4665 74.052 40.5209C74.164 40.5397 74.533 40.6011 74.533 40.6011C74.6553 41.0995 74.4644 42.328 74.3612 43.3034C74.2564 44.2931 74.1909 45.5326 73.9653 45.9682C73.9653 45.9682 73.5932 45.906 73.4843 45.8879V45.8873Z" fill="#DAFC35" stroke="#022522" stroke-width="0.164607" stroke-miterlimit="10" stroke-linecap="round"/>
<path d="M74.8456 43.3854C75.0024 41.9035 74.8641 40.658 74.5366 40.6035C74.2092 40.549 73.8166 41.7061 73.6597 43.1881C73.5029 44.67 73.6413 45.9155 73.9687 45.97C74.2962 46.0245 74.6888 44.8674 74.8456 43.3854Z" fill="#DAFC35" stroke="#022522" stroke-width="0.164607" stroke-miterlimit="10" stroke-linecap="round"/>
<path d="M25.4098 31.8273C25.4098 31.8273 22.5621 33.8758 22.0063 30.0803L25.4098 31.8273Z" fill="white"/>
<path d="M25.4098 31.8273C25.4098 31.8273 22.5621 33.8758 22.0063 30.0803" stroke="#002522" stroke-width="0.164607" stroke-miterlimit="10" stroke-linecap="round"/>
<path d="M24.8412 34.7817C24.8412 34.7817 24.4537 35.9128 22.3878 34.8134L24.8412 34.7817Z" fill="white"/>
<path d="M24.8412 34.7817C24.8412 34.7817 24.4537 35.9128 22.3878 34.8134" stroke="#002522" stroke-width="0.164607" stroke-miterlimit="10" stroke-linecap="round"/>
<path d="M26.3346 36.9553C26.3346 36.9553 27.0974 39.1683 25.2235 38.5715L26.3346 36.9553Z" fill="white"/>
<path d="M26.3346 36.9553C26.3346 36.9553 27.0974 39.1683 25.2235 38.5715" stroke="#002522" stroke-width="0.164607" stroke-miterlimit="10" stroke-linecap="round"/>
<path d="M34.1533 57.6715L34.0955 57.4347C34.0145 57.3796 33.9283 57.291 33.8736 57.2113L33.8633 57.078C33.92 57.1557 33.998 57.2372 34.0774 57.2819C34.1894 57.3453 34.2482 57.28 34.2116 57.1181C34.175 56.9583 34.0847 56.8372 33.95 56.7214C33.7905 56.5868 33.6909 56.4618 33.6357 56.2456C33.5815 56.0327 33.5995 55.8431 33.6966 55.7544L33.6192 55.4359L33.7002 55.3777L33.7776 55.7052C33.8715 55.6709 33.9551 55.6987 34.0238 55.7414L34.0294 55.9958C33.982 55.9622 33.8953 55.9045 33.7987 55.9311C33.6976 55.9589 33.6955 56.0974 33.7229 56.2075C33.758 56.3479 33.8215 56.4204 33.9691 56.5343C34.176 56.6929 34.319 56.8871 34.3804 57.1725C34.433 57.4159 34.3654 57.5635 34.191 57.4903L34.2519 57.7473L34.1533 57.6722V57.6715Z" fill="white" stroke="#002522" stroke-width="0.164607" stroke-linecap="round" stroke-linejoin="round"/>
<path d="M56.8396 29.5691L56.658 29.4714C56.5723 29.5141 56.4629 29.5394 56.3788 29.54L56.291 29.4643C56.3746 29.4597 56.4748 29.4371 56.5532 29.3905C56.6642 29.3238 56.6621 29.2254 56.5398 29.1562C56.419 29.0882 56.2864 29.0966 56.129 29.151C55.9442 29.217 55.8039 29.2319 55.6367 29.1458C55.472 29.061 55.3678 28.9212 55.3765 28.7704L55.1324 28.639L55.149 28.5238L55.3982 28.661C55.438 28.5491 55.5092 28.4869 55.5789 28.4487L55.7373 28.6073C55.6857 28.6313 55.5949 28.6772 55.5494 28.7866C55.5014 28.9018 55.5845 28.9931 55.6692 29.0377C55.7775 29.0947 55.8627 29.0804 56.0273 29.0125C56.257 28.916 56.4681 28.9044 56.6817 29.0293C56.8639 29.1355 56.9103 29.2953 56.7534 29.4164L56.949 29.5238L56.8396 29.5698V29.5691Z" fill="white" stroke="#002522" stroke-width="0.164607" stroke-linecap="round" stroke-linejoin="round"/>
<path d="M72.1038 26.2344L71.9221 26.1367C71.8365 26.1794 71.7271 26.2046 71.6429 26.2053L71.5552 26.1296C71.6388 26.125 71.7389 26.1024 71.8174 26.0558C71.9283 25.9891 71.9263 25.8907 71.8039 25.8215C71.6832 25.7535 71.5506 25.7619 71.3932 25.8163C71.2084 25.8823 71.068 25.8972 70.9008 25.8111C70.7336 25.725 70.6319 25.5865 70.6407 25.4357L70.3966 25.3043L70.4131 25.1891L70.6624 25.3263C70.7021 25.2143 70.7733 25.1522 70.843 25.114L71.0014 25.2726C70.9498 25.2965 70.859 25.3425 70.8136 25.4519C70.7656 25.5671 70.8487 25.6584 70.9333 25.703C71.0417 25.76 71.1269 25.7457 71.2915 25.6778C71.5211 25.5813 71.7322 25.5697 71.9459 25.6946C72.128 25.8007 72.1745 25.9606 72.0176 26.0817L72.2132 26.1891L72.1038 26.2351V26.2344Z" fill="white" stroke="#002522" stroke-width="0.164607" stroke-linecap="round" stroke-linejoin="round"/>
<path d="M74.7383 33.5078L74.6841 33.2696C74.6036 33.2133 74.519 33.1221 74.4658 33.0412L74.4576 32.9078C74.5133 32.9868 74.5902 33.0696 74.6687 33.1162C74.7801 33.1823 74.8395 33.1182 74.8049 32.9557C74.7708 32.7952 74.6821 32.6716 74.5489 32.5531C74.3915 32.4146 74.294 32.2878 74.2419 32.0703C74.1908 31.8567 74.2114 31.667 74.31 31.5803L74.2372 31.2599L74.3193 31.2036L74.3915 31.5324C74.486 31.5007 74.5691 31.5305 74.6372 31.5745L74.6392 31.8289C74.5923 31.7939 74.5066 31.7344 74.4096 31.759C74.3084 31.7848 74.3038 31.9227 74.3296 32.0334C74.3626 32.1745 74.4251 32.2483 74.5711 32.3661C74.7755 32.5292 74.9159 32.7266 74.9731 33.0133C75.0222 33.258 74.9525 33.4036 74.7791 33.3266L74.8364 33.5849L74.7388 33.5072L74.7383 33.5078Z" fill="white" stroke="#002522" stroke-width="0.164607" stroke-linecap="round" stroke-linejoin="round"/>
<path d="M66.4629 69.9344L66.6069 69.7765C66.6131 69.6645 66.6415 69.5344 66.676 69.4425L66.7658 69.3784C66.7339 69.4722 66.7075 69.5907 66.707 69.6962C66.707 69.8457 66.7762 69.8845 66.8753 69.7797C66.9733 69.6761 67.0229 69.5273 67.0512 69.3324C67.0827 69.1027 67.1312 68.9428 67.2618 68.7959C67.3898 68.6515 67.5307 68.5965 67.6323 68.6684L67.8264 68.4561L67.8997 68.5227L67.6999 68.7383C67.7614 68.8289 67.7748 68.9324 67.7717 69.025L67.5952 69.1324C67.6003 69.0664 67.6065 68.9473 67.5493 68.8515C67.4894 68.7506 67.3908 68.803 67.3242 68.8768C67.2391 68.9713 67.2133 69.0703 67.1916 69.2794C67.1622 69.5713 67.0817 69.8069 66.9052 69.9881C66.755 70.1428 66.6239 70.1266 66.6059 69.904L66.449 70.0729L66.4629 69.9337V69.9344Z" fill="white" stroke="#002522" stroke-width="0.164607" stroke-linecap="round" stroke-linejoin="round"/>
<path d="M72.9407 64.3252L73.1167 64.2301C73.1497 64.1259 73.2086 64.0132 73.2638 63.9382L73.3649 63.9116C73.3118 63.9887 73.2576 64.0916 73.2318 64.1919C73.1952 64.3343 73.2519 64.3977 73.3717 64.3362C73.4904 64.2747 73.5734 64.1524 73.6483 63.9776C73.7345 63.7712 73.8196 63.6372 73.9796 63.5472C74.1396 63.4573 74.2846 63.4605 74.363 63.5679L74.5994 63.4404L74.6531 63.5317L74.4105 63.6605C74.4466 63.7699 74.4343 63.8741 74.409 63.9615L74.2144 63.9958C74.2351 63.9349 74.2701 63.8242 74.2392 63.7103C74.2067 63.5912 74.1004 63.6035 74.0188 63.6482C73.9146 63.7058 73.8661 63.7899 73.7943 63.9809C73.6952 64.2476 73.5616 64.4411 73.3489 64.5459C73.1678 64.6359 73.0476 64.5699 73.0847 64.3511L72.8943 64.4521L72.9412 64.3252H72.9407Z" fill="white" stroke="#002522" stroke-width="0.164607" stroke-linecap="round" stroke-linejoin="round"/>
<path d="M78.1827 70.2985L78.3824 70.2668C78.4408 70.1736 78.5269 70.0804 78.6002 70.0248L78.7086 70.0351C78.6369 70.0934 78.5574 70.1782 78.5079 70.2707C78.4372 70.4021 78.4795 70.4875 78.6152 70.4694C78.7494 70.4513 78.8624 70.3574 78.979 70.2079C79.1148 70.0299 79.2324 69.9251 79.4151 69.8934C79.5978 69.8617 79.7433 69.918 79.7975 70.0571L80.0659 70.015L80.0984 70.1283L79.8228 70.1691C79.8337 70.294 79.7965 70.395 79.7501 70.4746L79.5457 70.4371C79.5813 70.3827 79.6427 70.283 79.6381 70.1562C79.6334 70.0293 79.523 69.9963 79.4301 70.0112C79.3114 70.0306 79.2422 70.0985 79.1251 70.2662C78.962 70.5005 78.7809 70.6474 78.5419 70.6759C78.3381 70.6998 78.2323 70.5885 78.321 70.3795L78.1048 70.4112L78.1822 70.2992L78.1827 70.2985Z" fill="white" stroke="#002522" stroke-width="0.164607" stroke-linecap="round" stroke-linejoin="round"/>
<path d="M62.7254 67.9456L61.6179 68.4563V18.6165L62.7254 18.0288V67.9456Z" fill="#F06629" stroke="#022522" stroke-width="0.164607" stroke-miterlimit="10"/>
<path d="M62.7255 18.0288L61.618 18.5816L40.1812 19.0987L41.2903 18.6864L62.7255 18.0288Z" fill="#F06629" stroke="#022522" stroke-width="0.164607" stroke-miterlimit="10"/>
<path d="M39.5258 67.9461L40.6333 68.5357V23.0908L39.5258 23.1568V67.9461Z" fill="#F06629" stroke="#022522" stroke-width="0.164607" stroke-miterlimit="10"/>
<path d="M39.5258 23.1567L40.6333 23.0906L62.5036 14.4563L61.1175 14.5437L39.5258 23.1567Z" fill="#F06629" stroke="#022522" stroke-width="0.164607" stroke-miterlimit="10"/>
<path d="M51.6417 17.7212C51.4631 17.7497 51.2784 17.6552 51.169 17.4572C51.0126 17.1737 51.0694 16.7847 51.2954 16.5885C51.298 16.5866 51.3259 16.562 51.3764 16.5167C51.3697 16.4863 51.3646 16.4552 51.3615 16.4235C50.864 11.2811 51.0126 7.24416 51.8038 4.42603C52.6383 1.45319 54.0069 0.453189 55.0076 0.137329C55.8323 -0.122866 56.7251 -0.0134806 57.5234 0.444774C58.2635 0.869372 58.842 1.56193 59.0701 2.29656C59.5924 3.97748 59.5165 5.85063 58.8441 7.86294C58.3254 9.4144 57.4502 11.0539 56.2415 12.7374C54.2092 15.5678 51.956 17.5329 51.861 17.6151C51.7934 17.674 51.7181 17.7083 51.6417 17.7206V17.7212ZM55.5649 1.2739C55.4607 1.29073 55.3559 1.31533 55.2501 1.34834C54.154 1.69397 53.287 2.90175 52.7425 4.84091C52.0339 7.36455 51.8827 10.9969 52.2914 15.6462C53.1296 14.8118 54.3702 13.4811 55.5128 11.8869C57.253 9.45906 59.1222 5.90306 58.1422 2.75029C57.9017 1.97682 56.7901 1.07779 55.5644 1.2739H55.5649Z" fill="#F06629" stroke="#022522" stroke-width="0.164607" stroke-miterlimit="10"/>
<path d="M51.5149 17.7415C51.436 17.7538 51.3539 17.7428 51.2744 17.7047C50.8285 17.4904 40.3656 12.3648 41.5417 4.89487C41.6589 4.15118 42.1001 3.34794 42.7225 2.74535C43.4161 2.0735 44.2537 1.72139 45.08 1.75376C46.0626 1.79194 47.5112 2.38871 48.8318 5.01009C50.0797 7.48712 50.9823 10.935 51.5227 16.0134C51.5258 16.0444 51.8963 16.0276 51.8958 16.058C51.9557 16.0885 52.3138 16.3428 52.3195 16.3454C52.576 16.469 52.4537 17.0503 52.3551 17.372C52.287 17.594 51.6904 17.7131 51.5149 17.7409V17.7415ZM44.6645 3.02496C43.5317 3.20619 42.6436 4.34083 42.5182 5.13695C41.7141 10.2405 47.8358 14.3817 50.4678 15.9079C49.1446 4.41461 46.2494 3.04891 45.0495 3.00166C44.9189 2.99648 44.7899 3.0049 44.665 3.02496H44.6645Z" fill="#F06629" stroke="#022522" stroke-width="0.164607" stroke-miterlimit="10"/>
<path d="M82.7313 13.2216C82.6859 12.9051 82.4454 12.6948 82.192 12.7511C81.9396 12.808 81.7714 13.1109 81.8168 13.4275C81.8993 14.0035 81.9375 14.7478 81.6522 15.019C81.4292 15.2313 80.86 15.3504 79.4165 14.7174C78.2533 14.2074 76.8315 13.3433 75.4566 12.5077C74.4322 11.885 73.3727 11.241 72.4175 10.742C70.2634 9.61643 66.8614 10.0022 62.3065 11.8896C58.6748 13.3944 55.2037 15.4831 53.5352 16.487C53.3825 16.5789 53.0708 16.7582 52.8499 16.8857C52.6935 17.2637 52.7451 17.764 52.7621 18.2158C52.854 18.1692 52.9484 18.1194 53.047 18.0644C53.2385 17.9582 53.5316 17.7815 53.9372 17.5375C55.5882 16.544 59.0232 14.4773 62.5981 12.9964C66.9347 11.1996 70.1183 10.8028 72.0603 11.8177C72.9913 12.3045 74.039 12.9407 75.052 13.5563C77.6675 15.1453 79.9888 16.5556 81.4266 16.3259C81.7306 16.2773 81.9943 16.1556 82.2136 15.9472C82.7437 15.443 82.9181 14.5258 82.7313 13.2216Z" fill="#F06629" stroke="#022522" stroke-width="0.164607" stroke-miterlimit="10"/>
<path d="M22.422 26.0307C22.1185 26.0792 21.8383 26.0442 21.5844 25.9116C20.9703 25.5905 20.6183 24.7575 20.5383 23.4358C20.5187 23.1148 20.7096 22.8358 20.9661 22.8106C21.2221 22.786 21.4451 23.0268 21.4647 23.3471C21.5003 23.931 21.6118 24.663 21.942 24.8358C22.2006 24.9711 22.775 24.9077 24.0461 23.841C25.0705 22.9808 26.274 21.6979 27.4377 20.4565C28.3053 19.5316 29.2022 18.5749 30.0269 17.7918C31.8874 16.0241 35.2574 15.3283 40.0445 15.7232C43.8609 16.0377 47.6391 16.9678 49.4546 17.4151C49.6853 17.472 50.2468 17.595 50.4156 17.6351C50.3237 17.3529 49.5661 17.5012 49.9656 16.3736C50.1524 15.8461 50.364 15.3387 50.8542 14.973C51.5076 14.4856 52.2131 14.5626 52.741 15.1788C53.2679 15.7937 53.4708 16.7995 53.2029 17.4688C52.7715 18.5484 52.3333 19.2209 50.2427 18.7885C50.0363 18.7458 49.7173 18.6675 49.2756 18.5588C47.4791 18.116 43.7406 17.1957 39.9836 16.8863C35.4261 16.5109 32.2651 17.1277 30.5879 18.7212C29.7838 19.485 28.8972 20.4306 28.0395 21.3452C25.8255 23.7064 23.8603 25.8015 22.4225 26.0313L22.422 26.0307ZM50.4502 17.6429C51.1582 17.7801 51.6918 17.7898 51.9488 17.639C52.132 17.5316 52.2146 17.34 52.37 16.9516C52.4386 16.7801 52.3565 16.3225 52.1073 16.0319C51.8828 15.7698 51.6284 15.751 51.3285 15.9749C51.0705 16.1672 50.9177 16.3834 50.8739 16.6177C50.813 16.9445 50.8976 16.984 50.9244 17.0759C50.9471 17.1549 50.9502 17.272 50.9224 17.3232C50.8511 17.4539 50.4502 17.6429 50.4502 17.6429Z" fill="#F06629" stroke="#022522" stroke-width="0.164607" stroke-miterlimit="10"/>
</g>
<defs>
<clipPath id="clip0_664_11590">
<rect width="98" height="80" fill="white"/>
</clipPath>
</defs>
</svg>
