<svg width="50" height="80" viewBox="0 0 50 80" fill="none" xmlns="http://www.w3.org/2000/svg">
<g clip-path="url(#clip0_664_11598)">
<path d="M45.5977 49.0766L37.5109 51.6163V51.6198L34.2544 52.6396L30.1436 53.9314L28.3211 54.5053L26.1676 55.181L22.0568 56.4728L20.2325 57.0468L18.7986 57.4979L12.2542 56.2341L9.88015 55.776L3.33051 54.5123L18.7881 49.6558L30.1296 46.0928L36.6757 47.3547L39.0498 47.8128L45.5977 49.0766Z" fill="#274B4B" stroke="#082422" stroke-width="0.0418033" stroke-linejoin="round"/>
<path d="M41.1339 45.0483L41.7239 45.4854C42.0391 45.7188 42.2999 46.04 42.4838 46.4455C43.2996 48.241 42.321 51.0299 40.2971 52.6728C38.7301 53.9453 36.9968 54.1577 35.9149 53.3555L35.3249 52.9185C36.4068 53.7206 38.1401 53.5082 39.707 52.2358C41.7309 50.5929 42.7096 47.804 41.8938 46.0084C41.7099 45.603 41.4491 45.2818 41.1339 45.0483Z" fill="#69B8B3" stroke="#082422" stroke-width="0.0418033" stroke-linejoin="round"/>
<path d="M36.7513 45.7313C38.7752 44.0885 41.0775 44.2131 41.8934 46.0086C42.7092 47.8042 41.7305 50.5931 39.7067 52.236C37.6828 53.8788 35.3805 53.7542 34.5646 51.9569C33.7488 50.1613 34.7275 47.3724 36.7513 45.7295V45.7313Z" fill="#8CF1F0" stroke="#082422" stroke-width="0.0418033" stroke-linejoin="round"/>
<path d="M37.496 47.2689L38.6445 46.7651L38.7198 47.2461C39.2871 47.1249 39.6495 47.2654 39.765 47.7217L38.578 48.2412C38.5377 48.0131 38.3942 47.9973 38.1928 48.085C38.009 48.1675 37.9372 48.2728 37.9495 48.3606C37.9722 48.5028 38.1613 48.4606 38.5097 48.3869L38.6936 48.3465C39.3484 48.2009 39.9401 48.3816 39.9874 48.687C40.0539 49.1135 39.7615 49.5594 39.1365 49.949L39.2205 50.4843L38.072 50.9881L37.988 50.4527C37.314 50.6283 36.941 50.4545 36.8255 49.9666L38.0825 49.4154C38.1333 49.6436 38.2576 49.705 38.515 49.591C38.7058 49.5067 38.8214 49.3979 38.8021 49.2715C38.7829 49.1522 38.648 49.1785 38.4345 49.2224L38.0265 49.3101C37.1564 49.5067 36.8237 49.368 36.7555 48.9293C36.6942 48.5326 36.9691 48.1078 37.5661 47.734L37.4925 47.2636L37.496 47.2689Z" fill="white" stroke="#082422" stroke-width="0.0418033" stroke-linejoin="round"/>
<path d="M27.0602 43.7601C27.0602 43.7601 28.818 44.3937 29.268 44.7974C29.7179 45.201 29.2627 51.5302 29.2627 51.5302C29.2627 51.5302 28.2158 51.1616 27.9514 50.3525C27.687 49.5433 27.2878 45.8259 27.2878 45.8259L27.062 43.7583L27.0602 43.7601Z" fill="#F1CC9B" stroke="#082422" stroke-width="0.0418033" stroke-miterlimit="10" stroke-linecap="round"/>
<path opacity="0.25" d="M27.3373 46.0938C27.9539 47.0961 28.7315 48.3591 29.3725 49.3506C29.3497 49.9083 29.3125 50.5099 29.2807 50.9727C29.2647 51.2049 29.2502 51.4028 29.2397 51.542C29.2344 51.6114 29.2299 51.6665 29.227 51.7041C29.2263 51.7129 29.2255 51.7207 29.225 51.7275C29.2205 51.7247 29.2148 51.7222 29.2094 51.7188C29.181 51.7009 29.1401 51.6738 29.0902 51.6396C28.9903 51.5711 28.8544 51.4715 28.7104 51.3467C28.4213 51.0962 28.1015 50.7468 27.9711 50.3477C27.8572 49.998 27.7173 49.0999 27.5951 48.1934C27.482 47.3544 27.3837 46.5106 27.3373 46.0938Z" fill="#082422" stroke="#082422" stroke-width="0.0418033"/>
<path d="M21.0744 41.7117C21.0744 41.7117 23.9107 41.7678 25.1747 42.0574C26.437 42.3453 27.3737 42.7033 27.6591 43.2036C27.9094 43.6424 28.3454 47.8811 28.4469 48.9008C28.4592 49.0237 28.3646 49.129 28.2421 49.1308C27.8482 49.136 27.0586 49.0922 26.8222 48.6551C26.5053 48.0671 25.9398 45.4712 25.9398 45.4712L22.2229 44.4129L19.9872 42.6454L21.0762 41.7117H21.0744Z" fill="#F1CC9B" stroke="#082422" stroke-width="0.0418033" stroke-miterlimit="10" stroke-linecap="round"/>
<mask id="mask0_664_11598" style="mask-type:luminance" maskUnits="userSpaceOnUse" x="19" y="41" width="10" height="9">
<path d="M21.105 41.7332C21.126 41.7336 21.157 41.7341 21.1968 41.7351C21.2768 41.7372 21.3929 41.741 21.5357 41.7458C21.8212 41.7556 22.2149 41.7715 22.648 41.7966C23.5151 41.8469 24.5384 41.9336 25.1685 42.0779C25.7991 42.2217 26.3481 42.3828 26.774 42.5701C27.2001 42.7575 27.4999 42.9698 27.6392 43.2136C27.6687 43.2653 27.7026 43.3767 27.7388 43.5369C27.7747 43.6961 27.8123 43.9013 27.8511 44.1384C27.9287 44.613 28.01 45.2159 28.0865 45.8367C28.2394 47.0784 28.3736 48.3933 28.4243 48.9031C28.4353 49.0136 28.3509 49.1084 28.2408 49.1101C28.0445 49.1127 27.7499 49.1032 27.4761 49.0388C27.2015 48.9742 26.9531 48.8554 26.8394 48.6453C26.7614 48.5006 26.6696 48.2268 26.5757 47.8953C26.4821 47.5645 26.3867 47.1783 26.3013 46.8103C26.2159 46.4424 26.1406 46.0924 26.0865 45.8347C26.0594 45.7059 26.037 45.5997 26.022 45.5261C26.0146 45.4895 26.0093 45.4607 26.0054 45.4412C26.0034 45.4314 26.0015 45.4237 26.0005 45.4187C26 45.4162 25.9998 45.4141 25.9995 45.4128V45.4109L25.9966 45.3982L25.9839 45.3953L22.231 44.3933L20.0181 42.6443L21.0816 41.7332C21.087 41.7333 21.095 41.7329 21.105 41.7332Z" fill="white" stroke="white" stroke-width="0.0418033"/>
</mask>
<g mask="url(#mask0_664_11598)">
<path opacity="0.25" d="M24.4488 33.5212C24.6029 33.5494 24.7582 33.6496 24.8931 33.7898C25.0279 33.93 25.1415 34.1083 25.2125 34.2878C25.2835 34.4677 25.3107 34.6467 25.2779 34.7898C25.233 34.9836 25.0976 35.2956 24.9068 35.6677L24.8961 35.6902L24.9195 35.697C25.2166 35.7858 25.5074 35.9403 25.6822 36.2117C25.7393 36.3004 25.7904 36.4334 25.8355 36.6033C25.8805 36.7729 25.9194 36.9786 25.9517 37.2107C26.0163 37.6746 26.0559 38.2449 26.0728 38.8523C26.1067 40.0676 26.0502 41.43 25.9244 42.3826C25.6889 44.1758 26.554 45.9783 26.6646 46.2019L26.6656 46.2039C27.352 47.3203 28.357 48.9124 29.0591 49.9919C30.1484 51.6661 30.8176 53.2306 30.8697 54.5496L30.8716 54.8103C30.8297 56.5359 30.1382 57.9682 29.813 58.5798C29.7031 58.7878 29.639 59.017 29.6265 59.2517L28.6695 77.1541C28.6609 77.2997 28.6155 77.4216 28.5269 77.5095C28.4384 77.5975 28.3033 77.6545 28.1089 77.6648C27.5104 77.6962 26.0256 77.686 24.1265 76.9031C21.8217 75.9529 20.1723 74.6797 19.3658 74.0291C19.145 73.8511 19.1527 73.5683 19.1861 73.2722C19.2859 72.4009 19.7514 68.7407 20.1939 65.1521C20.4152 63.3579 20.6309 61.5811 20.7925 60.1804C20.954 58.7813 21.0616 57.7553 21.067 57.4617C21.0683 57.3854 21.0476 57.2811 21.0093 57.155C20.9709 57.0286 20.9141 56.878 20.8414 56.7068C20.6958 56.364 20.4865 55.9373 20.233 55.4558C19.7257 54.4925 19.0409 53.3072 18.3384 52.1277C16.9329 49.7675 15.456 47.4308 15.1714 46.9314C14.8928 46.4421 15.0525 45.8332 15.3423 45.2527C15.4869 44.9633 15.663 44.683 15.8297 44.4304C15.9959 44.1784 16.1538 43.9529 16.2613 43.7761C16.7767 42.9296 17.6175 41.6172 18.4214 40.4158C19.2256 39.214 19.9916 38.1249 20.3589 37.7224L24.0025 33.6892L24.0045 33.6873C24.142 33.5358 24.2962 33.4934 24.4488 33.5212ZM23.3922 38.28C23.0777 38.7862 22.8249 39.1812 22.7388 39.322C22.6288 39.4995 22.3383 40.071 22.023 40.7058C21.7074 41.3413 21.3656 42.0423 21.1529 42.4802C21.023 42.7447 21.0827 43.0637 21.2974 43.2664L21.9722 43.9001L21.9781 43.906H22.0054L22.0103 43.8904C22.3954 42.5287 22.8396 40.9365 23.0289 40.1531C23.1498 39.649 23.2917 38.9796 23.4283 38.3074L23.4273 38.3064C23.4281 38.3036 23.43 38.3015 23.4302 38.2996V38.2175L23.3922 38.28Z" fill="#082422" stroke="#082422" stroke-width="0.0418033"/>
</g>
<path d="M28.0385 46.9417H28.0776C28.1257 46.9432 28.1761 46.9473 28.2299 46.9553L28.4096 48.5784C28.4135 48.6108 28.3889 48.6398 28.3588 48.6399V48.6389L28.3569 48.6399L27.895 48.6682L27.2133 47.5862C27.2144 47.5816 27.216 47.575 27.2182 47.5667C27.223 47.5489 27.2303 47.5231 27.2416 47.4924C27.2644 47.4311 27.3022 47.3495 27.3618 47.2678C27.4804 47.1051 27.6865 46.9417 28.0385 46.9417Z" stroke="#082422" stroke-width="0.0418033"/>
<path d="M23.1039 32.5427C22.1077 33.6414 19.8019 37.0166 19.2329 37.6397C18.4959 38.4471 16.5157 41.4151 15.4845 43.1106C15.0556 43.8161 14.2923 45.1957 14.8613 46.1944C15.4303 47.1931 20.2641 55.2107 20.2414 56.3779C20.2204 57.5451 18.4153 71.0511 18.2157 72.7922C18.1825 73.0871 18.172 73.382 18.4031 73.568C19.2102 74.2192 20.406 75.0845 23.1354 75.9919C25.0893 76.6413 26.6247 76.5851 27.2252 76.5535C27.6209 76.5325 27.7872 76.3219 27.8047 76.0235L28.3545 57.9751C28.3667 57.7434 28.4298 57.517 28.5383 57.3116C28.8639 56.6991 29.4189 55.1352 29.4592 53.4046C29.4925 52.0268 29.3524 50.635 28.1899 48.8482C27.2182 47.3528 26.1467 45.9943 25.6635 45.1553C25.569 44.9904 24.9282 43.7617 24.7426 43.7266L21.6473 43.1281C21.5265 43.1053 21.4144 43.0474 21.3251 42.9631L20.427 42.1207C20.2186 41.9241 20.1608 41.6152 20.2869 41.3589C20.7123 40.4831 21.6525 38.5559 21.8714 38.2031C22.155 37.745 24.2121 34.5471 24.4135 33.6643C24.55 33.0693 23.6729 31.9161 23.1039 32.5427Z" fill="#F1CC9B" stroke="#082422" stroke-width="0.0418033" stroke-miterlimit="10" stroke-linecap="round"/>
<path d="M20.0081 42.4492C24.189 38.2174 21.1952 31.439 25.376 27.2073C28.0389 28.1516 30.7001 29.0958 33.3631 30.0401C29.1822 34.2718 32.176 41.0503 27.9952 45.282C25.3323 44.3377 22.6711 43.3934 20.0081 42.4492Z" fill="#60D06F" stroke="#082422" stroke-width="0.0418033" stroke-miterlimit="10"/>
<path d="M26.8035 29.0025C26.4113 29.566 25.6883 29.8784 25.0632 29.6572C25.0037 29.6362 24.9284 29.6625 24.9004 29.7222C23.3265 33.0974 24.0881 37.2992 22.5071 40.6709C22.4791 40.7306 22.5106 40.7938 22.5701 40.8148C23.1899 41.0342 23.4735 41.7047 23.0814 42.2681C23.0323 42.3383 23.0481 42.4191 23.1251 42.4471C24.1878 42.8245 25.2506 43.2001 26.3133 43.5775C26.3921 43.6055 26.4954 43.5652 26.5426 43.495C26.9348 42.9316 27.6614 42.6209 28.2864 42.842C28.3547 42.8666 28.4405 42.8368 28.472 42.7701C30.0424 39.4054 29.2896 35.2158 30.8513 31.8494C30.8828 31.7827 30.8478 31.709 30.7778 31.6844C30.158 31.465 29.8726 30.7946 30.2648 30.2312C30.3173 30.1539 30.3033 30.0627 30.2175 30.0328C29.1636 29.659 28.1113 29.2851 27.0574 28.9113C26.9716 28.8814 26.856 28.9253 26.8035 29.0025Z" fill="#80E58A" stroke="#082422" stroke-width="0.0418033" stroke-miterlimit="10"/>
<path d="M27.5624 31.5475C27.8163 31.637 28.0106 31.8458 28.1594 32.1512C28.3065 32.4566 28.4081 32.8586 28.4798 33.3377C28.6146 34.2925 28.6619 35.5615 28.5254 36.8972C28.3888 38.2329 28.0229 39.3562 27.4906 40.0741C27.228 40.4339 26.9339 40.6954 26.6415 40.8463C26.3491 40.9955 26.0603 41.0324 25.8082 40.9429C25.5543 40.8534 25.36 40.6445 25.2111 40.3391C25.0641 40.0337 24.9625 39.6318 24.8907 39.1526C24.7559 38.1978 24.7087 36.9288 24.8452 35.5931C24.9818 34.2574 25.3477 33.1341 25.8799 32.4163C26.1426 32.0565 26.4367 31.7949 26.7291 31.644C27.0214 31.4948 27.3103 31.458 27.5624 31.5475Z" fill="#60D06F" stroke="#082422" stroke-width="0.0418033" stroke-miterlimit="10"/>
<path opacity="0.25" d="M24.3632 28.5264C24.1492 30.9979 25.1569 33.3068 26.0233 35.627C26.8991 37.9723 27.6283 40.3304 26.8173 42.8926C26.1522 42.9806 25.4873 43.0702 24.8222 43.1582C24.1542 43.2466 23.4862 43.3344 22.8183 43.4229C22.3516 43.2576 21.8851 43.093 21.4189 42.9277C20.9613 42.7655 20.5038 42.6026 20.0458 42.4404C21.9292 40.5182 22.3479 38.0764 22.6298 35.5928C22.9097 33.1259 23.0575 30.6207 24.3632 28.5264Z" fill="#082422" stroke="#082422" stroke-width="0.0418033"/>
<path d="M20.0677 45.828C20.7435 39.9095 14.2096 36.4396 14.8854 30.5211C17.5606 29.6137 20.2358 28.7063 22.9092 27.7971C22.2334 33.7155 28.7673 37.1855 28.0915 43.1039C25.4163 44.0114 22.7412 44.9188 20.0677 45.828Z" fill="#60D06F" stroke="#082422" stroke-width="0.0418033" stroke-miterlimit="10"/>
<path d="M20.5774 29.8734C20.6176 30.5685 21.2654 30.923 21.8975 30.7089C21.9587 30.6878 22.0218 30.7194 22.0358 30.7809C22.8849 34.3965 26.0591 37.2223 26.8994 40.8397C26.9134 40.9012 26.8732 40.9679 26.8119 40.9889C26.1746 41.2048 25.7929 41.9086 25.8315 42.6054C25.835 42.6809 25.7842 42.7652 25.7159 42.7897C24.6479 43.1513 23.58 43.5146 22.5137 43.8762C22.4455 43.899 22.3894 43.8516 22.3859 43.7744C22.3474 43.0793 21.6996 42.723 21.0676 42.9372C21.0151 42.9547 20.9608 42.9284 20.9485 42.874C20.1117 39.2443 16.9218 36.4114 16.0779 32.7853C16.0656 32.7326 16.1007 32.6747 16.1532 32.6571C16.7905 32.4413 17.1704 31.7374 17.1301 31.0424C17.1249 30.9564 17.1826 30.8616 17.2579 30.837C18.3154 30.4772 19.3746 30.1192 20.4321 29.7594C20.5091 29.733 20.5704 29.7874 20.5756 29.8734H20.5774Z" fill="#80E58A" stroke="#082422" stroke-width="0.0418033" stroke-miterlimit="10"/>
<path d="M19.2811 32.5786C19.535 32.4925 19.8186 32.5347 20.1232 32.6839C20.4278 32.8331 20.7552 33.0858 21.1071 33.4175C21.8022 34.0845 22.6216 35.0533 23.3376 36.1872C24.0537 37.321 24.4581 38.4303 24.4844 39.3254C24.5001 39.7712 24.4301 40.1591 24.2918 40.4593C24.1535 40.7576 23.9504 40.9665 23.6965 41.0525C23.4409 41.1385 23.1591 41.0964 22.8544 40.9472C22.5498 40.798 22.2224 40.5453 21.8705 40.2135C21.1754 39.5466 20.3561 38.5777 19.64 37.4439C18.9239 36.31 18.5195 35.2008 18.4932 34.3056C18.4775 33.8598 18.5475 33.4719 18.6858 33.1718C18.8241 32.8734 19.0272 32.6646 19.2811 32.5786Z" fill="#60D06F" stroke="#082422" stroke-width="0.0418033" stroke-miterlimit="10"/>
<path d="M28.5147 57.3589C28.5147 57.3589 28.1103 58.3277 26.4926 59.1211" stroke="#082422" stroke-width="0.0418033" stroke-miterlimit="10" stroke-linecap="round"/>
<path d="M26.4123 46.2924C26.4123 46.2924 25.2112 44.5916 25.5877 42.3573C25.9063 40.46 25.8135 36.904 25.3425 36.1721C25.1482 35.8702 24.8156 35.7105 24.4899 35.6262C24.012 35.5034 23.527 35.8105 23.436 36.2967C23.2469 37.3007 22.9037 39.0716 22.6516 40.1195C22.2839 41.6429 20.9551 46.2187 20.9551 46.2187" fill="#F1CC9B"/>
<path d="M26.4123 46.2924C26.4123 46.2924 25.2112 44.5916 25.5877 42.3573C25.9063 40.46 25.8135 36.904 25.3425 36.1721C25.1482 35.8702 24.8156 35.7105 24.4899 35.6262C24.012 35.5034 23.527 35.8105 23.436 36.2967C23.2469 37.3007 22.9037 39.0716 22.6516 40.1195C22.2839 41.6429 20.9551 46.2187 20.9551 46.2187" stroke="#082422" stroke-width="0.0418033" stroke-miterlimit="10"/>
<path d="M23.4341 36.2986C23.336 36.8217 23.196 37.55 23.0489 38.2767C23.1785 38.296 24.0539 38.4118 24.2622 38.0643C24.4881 37.6887 24.5038 36.1266 24.5038 36.1266C24.5038 36.1266 23.9488 35.8019 23.5164 36.0617C23.4779 36.1336 23.4498 36.2126 23.4341 36.2986Z" fill="#F1CC9B" stroke="#082422" stroke-width="0.0418033" stroke-miterlimit="10"/>
<path d="M36.6832 10.1658C36.3715 10.3904 35.9846 10.4887 35.6135 10.5888C32.9663 11.2873 30.3769 12.2105 27.8838 13.3444C27.8033 13.3777 27.7227 13.4146 27.6457 13.455C27.6877 13.4111 27.7262 13.3654 27.7682 13.3233C29.5453 11.3768 31.781 9.8516 34.2426 8.91083C34.5192 8.80376 34.7959 8.70547 35.0777 8.61596C35.4646 8.48959 35.8726 8.37726 36.2735 8.43869C36.3295 8.44922 36.3873 8.45975 36.4416 8.47555C36.4959 8.49485 36.5519 8.51416 36.6027 8.53698C36.8723 8.66159 37.0946 8.8845 37.1524 9.1741C37.2277 9.55497 36.9966 9.94111 36.6832 10.1693V10.1658Z" fill="#ECECEC" stroke="#082422" stroke-width="0.0418033" stroke-linecap="round" stroke-linejoin="round"/>
<path d="M44.3656 24.251L36.0529 22.5976L33.8539 22.1624L32.7072 21.9342L30.9056 20.4458C32.5163 20.9969 34.3546 21.0496 35.8288 20.2106C36.1684 20.014 36.4818 19.7771 36.7654 19.5085L39.2218 19.9965H39.2235L44.3673 24.251H44.3656Z" fill="#2BF2F1" stroke="#082422" stroke-width="0.0418033" stroke-linecap="round" stroke-linejoin="round"/>
<path d="M13.7879 13.7763L9.8084 12.9848L4.66287 8.73022L12.284 10.2432H12.2857C12.291 10.8083 12.3785 11.3682 12.5694 11.9001C12.825 12.6162 13.2522 13.2428 13.7879 13.7746V13.7763Z" fill="#2BF2F1" stroke="#082422" stroke-width="0.0418033" stroke-linecap="round" stroke-linejoin="round"/>
<path d="M7.5607 20.416L2.41693 16.165L4.69644 8.73535L9.84196 12.9881L7.5607 20.416Z" fill="#2BF2F1" stroke="#082422" stroke-width="0.0418033" stroke-linecap="round" stroke-linejoin="round"/>
<path d="M14.535 26.2082L9.39127 21.9555L11.6725 14.5276L16.8163 18.7786L14.535 26.2082Z" fill="#2BF2F1" stroke="#082422" stroke-width="0.0418033" stroke-linecap="round" stroke-linejoin="round"/>
<path d="M26.1981 28.525L14.5362 26.2082L16.8174 18.7786L18.2916 19.0717L20.1649 19.442L24.393 20.2827L26.606 20.7233L28.4793 21.0971L26.1981 28.525Z" fill="#2BF2F1" stroke="#082422" stroke-width="0.0418033" stroke-linecap="round" stroke-linejoin="round"/>
<path d="M42.0826 31.6825L30.4224 29.3657L26.1978 28.525L30.4242 29.364L32.7054 21.9343L33.8539 22.1625L36.0529 22.5978L44.3656 24.2511L42.0826 31.6825Z" fill="#2BF2F1" stroke="#082422" stroke-width="0.0418033" stroke-linecap="round" stroke-linejoin="round"/>
<path d="M9.39247 21.9555L7.52789 20.4127L9.80915 12.9849L11.6737 14.5277L9.39247 21.9555Z" fill="white" stroke="#082422" stroke-width="0.0418033" stroke-linecap="round" stroke-linejoin="round"/>
<path d="M32.7048 21.9343L28.4802 21.0936L24.8876 18.1238C25.5249 18.2502 26.1745 18.2836 26.7224 17.9694C26.7259 17.9694 26.7277 17.9659 26.7312 17.9641C27.9357 18.8961 29.184 19.7825 30.6004 20.3336C30.7002 20.3722 30.8017 20.4091 30.905 20.4442L32.7066 21.9325L32.7048 21.9343Z" fill="white" stroke="#082422" stroke-width="0.0418033" stroke-linecap="round" stroke-linejoin="round"/>
<path d="M16.9292 15.5685L11.6751 14.5241L9.80878 12.9849L13.7883 13.7764C14.5236 14.5119 15.4673 15.0665 16.4495 15.4158C16.607 15.4719 16.7681 15.5246 16.9292 15.5702V15.5685Z" fill="white" stroke="#082422" stroke-width="0.0418033" stroke-linecap="round" stroke-linejoin="round"/>
<path d="M28.4799 21.0935L26.6066 20.7214L24.3936 20.2809L20.1637 19.4402L18.2922 19.0698L16.818 18.7767L11.6742 14.5239L16.9283 15.5665C16.9388 15.57 16.9511 15.5735 16.9616 15.577C17.6514 15.7806 18.3604 15.907 19.0747 15.9948C19.0835 15.9965 19.0958 15.9965 19.1045 16C19.9764 16.1018 20.8588 16.1492 21.7394 16.1878C21.7814 16.316 21.834 16.4371 21.897 16.5547C22.0038 16.753 22.1421 16.9338 22.3119 17.0917C22.8267 17.5709 23.534 17.7727 24.2115 17.957C24.4321 18.0185 24.6597 18.0764 24.8873 18.122L28.4799 21.0918V21.0935Z" fill="#2BF2F1" stroke="#082422" stroke-width="0.0418033" stroke-linecap="round" stroke-linejoin="round"/>
<path d="M39.2174 19.997L36.7611 19.509C37.0482 19.2387 37.3056 18.9333 37.535 18.6086H37.5367L39.2157 19.9987L39.2174 19.997Z" fill="white" stroke="#082422" stroke-width="0.0418033" stroke-linecap="round" stroke-linejoin="round"/>
<path d="M30.4242 29.364L26.1978 28.525L28.479 21.0972L32.7054 21.9344L30.4242 29.364Z" fill="white" stroke="#082422" stroke-width="0.0418033" stroke-linecap="round" stroke-linejoin="round"/>
<path d="M26.7294 17.9675C26.7294 17.9675 26.7242 17.9711 26.7207 17.9728C26.1727 18.287 25.5232 18.2536 24.8859 18.1273C24.6583 18.0816 24.4307 18.022 24.2101 17.9623C23.5325 17.7762 22.8252 17.5761 22.3105 17.097C22.1407 16.939 22.0041 16.7582 21.8956 16.5599C21.8325 16.4423 21.78 16.3212 21.738 16.1931C21.647 15.9333 21.6049 15.6507 21.6032 15.3717C21.5979 14.8047 21.7608 14.229 22.0776 13.7639C22.1652 13.6375 22.265 13.5147 22.3805 13.4041C22.4208 13.362 22.4663 13.3251 22.5101 13.2865C22.5539 13.2497 22.5976 13.2146 22.6449 13.1812C22.6904 13.1461 22.7412 13.118 22.7885 13.0899C22.8357 13.0636 22.883 13.039 22.9303 13.018C22.939 13.0127 22.9478 13.011 22.9565 13.0074C23.002 12.9899 23.0511 12.9723 23.0983 12.9583C23.1509 12.9407 23.2051 12.9302 23.2594 12.9197C23.3119 12.9127 23.368 12.9056 23.4222 12.9056C23.4783 12.9039 23.5343 12.9056 23.5921 12.9144C23.6849 12.9267 23.7794 12.9495 23.8669 12.9811C24.1295 13.0689 24.3747 13.2233 24.632 13.3374C24.7318 13.383 24.8421 13.4217 24.9524 13.441C25.0259 13.4024 25.1012 13.3725 25.1818 13.3515C25.6475 13.2128 26.185 13.297 26.6139 13.5551C26.6962 13.6077 26.7802 13.6656 26.8538 13.7271C26.8958 13.7657 26.936 13.8008 26.9746 13.8411C27.0183 13.8868 27.0621 13.9342 27.1024 13.9816C27.1076 13.9886 27.1164 13.9956 27.1216 14.0061C27.1479 14.0377 27.1706 14.0711 27.1969 14.1044C27.2319 14.1501 27.2617 14.1974 27.2932 14.2448C27.3212 14.2905 27.3492 14.3361 27.3755 14.387C27.4035 14.4397 27.4315 14.4941 27.4543 14.5502C27.4788 14.6029 27.4998 14.6555 27.5208 14.7082C27.5383 14.7538 27.5541 14.7995 27.5663 14.8451C27.5751 14.8627 27.5803 14.8855 27.5873 14.9083C27.6013 14.9522 27.6136 14.996 27.6241 15.0399C27.6293 15.0487 27.6293 15.0522 27.6293 15.0592C27.6469 15.1242 27.6609 15.1874 27.6714 15.2523C27.7081 15.4489 27.7256 15.6472 27.7274 15.842C27.7309 16.0702 27.7081 16.3072 27.6591 16.5353C27.5366 17.1233 27.2354 17.6744 26.7259 17.9711L26.7294 17.9675Z" fill="white" stroke="#082422" stroke-width="0.0418033" stroke-linecap="round" stroke-linejoin="round"/>
<path d="M38.3271 17.169C38.8454 15.9369 39.087 14.61 39.3251 13.2918C39.5404 12.1124 39.7383 10.8241 39.171 9.76746C38.7386 8.95657 37.9017 8.42124 37.0053 8.2036C36.9545 8.18956 36.9038 8.17903 36.8512 8.1685C36.7935 8.15797 36.7357 8.14568 36.6762 8.1369C36.6744 8.1369 36.6692 8.13339 36.6657 8.13339C36.6061 8.12462 36.5483 8.1176 36.4923 8.10882C36.431 8.1018 36.3698 8.09654 36.3085 8.09127H36.3067C36.1457 8.07723 35.9864 8.07372 35.8218 8.07898C35.3106 8.08776 34.7958 8.17201 34.2881 8.29838C34.0587 8.35279 33.8347 8.41773 33.6123 8.48794C30.9844 9.32164 28.6226 10.9785 26.9243 13.1514C26.8193 13.2813 26.7195 13.4147 26.6215 13.5481C26.7037 13.6007 26.7878 13.6587 26.8613 13.7201C26.9033 13.7587 26.9436 13.7938 26.9821 13.8342C27.0259 13.8798 27.0697 13.9272 27.1099 13.9746C27.1152 13.9816 27.1239 13.9886 27.1292 13.9992C27.1554 14.0308 27.1782 14.0641 27.2045 14.0975C27.2412 14.1413 27.271 14.1887 27.3008 14.2379C27.3288 14.2835 27.3568 14.3291 27.383 14.38C27.4111 14.4327 27.4391 14.4871 27.4618 14.5433C27.4881 14.5942 27.5074 14.6486 27.5284 14.7012C27.5459 14.7469 27.5616 14.7925 27.5739 14.8381C27.5826 14.8557 27.5879 14.8785 27.5949 14.9013C27.6106 14.9417 27.6212 14.9891 27.6317 15.033C27.6369 15.0417 27.6369 15.0452 27.6369 15.0523C27.6562 15.1155 27.6684 15.1804 27.6789 15.2453C27.7157 15.4419 27.7332 15.6402 27.735 15.8351C27.7385 16.0632 27.7157 16.3002 27.6667 16.5284C27.5441 17.1163 27.243 17.6675 26.7335 17.9641C27.938 18.8961 29.1863 19.7824 30.6027 20.3336C30.7025 20.3722 30.8041 20.409 30.9074 20.4441C32.5181 20.9953 34.3564 21.0479 35.8305 20.209C36.1702 20.0124 36.4836 19.7754 36.7672 19.5069C37.0543 19.2366 37.3117 18.9312 37.541 18.6065H37.5428C37.8562 18.1589 38.117 17.671 38.3306 17.1672L38.3271 17.169ZM36.6832 10.1659C36.3715 10.3905 35.9846 10.4888 35.6134 10.5889C32.9663 11.2874 30.3769 12.2106 27.8838 13.3445C27.8032 13.3778 27.7227 13.4147 27.6457 13.4551C27.6877 13.4112 27.7262 13.3656 27.7682 13.3234C29.5453 11.3769 31.781 9.8517 34.2426 8.91093C34.5192 8.80387 34.7958 8.70558 35.0777 8.61607C35.4646 8.48969 35.8726 8.37736 36.2735 8.43879C36.3295 8.44932 36.3873 8.45986 36.4416 8.47565C36.4958 8.49496 36.5519 8.51427 36.6026 8.53708C36.6166 8.54586 36.6359 8.55288 36.6499 8.56166C36.6849 8.57921 36.7164 8.59676 36.7479 8.61958C36.9493 8.75121 37.1051 8.93902 37.1524 9.17421C37.2276 9.55508 36.9965 9.94122 36.6832 10.1694V10.1659Z" fill="white" stroke="#082422" stroke-width="0.0418033" stroke-linecap="round" stroke-linejoin="round"/>
<path d="M35.2811 6.71355C34.9484 7.24536 34.6193 7.77191 34.2866 8.29846C34.0573 8.35287 33.8332 8.41781 33.6108 8.48802C30.9829 9.32173 28.6211 10.9786 26.9229 13.1515C26.8178 13.2814 26.718 13.4148 26.62 13.5482C26.191 13.2902 25.6536 13.2059 25.1879 13.3446L25.1756 13.2954C25.2036 13.1375 25.2316 12.9777 25.2614 12.8215C26.0142 8.93383 28.0013 5.29537 30.8761 2.57837C30.9479 3.6578 31.0232 4.73372 31.0967 5.81139C31.1125 6.04132 31.144 6.29582 31.3208 6.43623C31.4539 6.53978 31.6325 6.55032 31.7988 6.56085C32.9613 6.6135 34.1238 6.6644 35.2828 6.7153L35.2811 6.71355Z" fill="white" stroke="#082422" stroke-width="0.0418033" stroke-linecap="round" stroke-linejoin="round"/>
<path d="M22.0778 13.7589C22.1654 13.6325 22.2652 13.5097 22.3807 13.3991C22.421 13.357 22.4665 13.3201 22.5103 13.2815C22.5523 13.2446 22.5978 13.2095 22.6451 13.1762C22.6906 13.1411 22.7414 13.113 22.7886 13.0849C22.8359 13.0586 22.8832 13.034 22.9304 13.0129C22.9392 13.0077 22.948 13.0059 22.9567 13.0024C23.0022 12.9849 23.0495 12.9656 23.0985 12.9533C23.151 12.9357 23.2053 12.9252 23.2596 12.9147C23.3121 12.9076 23.3681 12.9006 23.4224 12.9006C23.4784 12.8989 23.5345 12.9006 23.5922 12.9094C23.685 12.9217 23.7796 12.9445 23.8671 12.9761C23.8811 12.8357 23.8916 12.6953 23.8986 12.5549H23.8969C24.0649 9.73605 23.3489 6.86986 21.866 4.46704C21.423 3.75093 20.9066 3.0629 20.257 2.53635C20.25 2.53284 20.2465 2.52758 20.2395 2.52231C20.2308 2.51354 20.222 2.50827 20.2115 2.503L20.1992 2.49598C20.1887 2.48721 20.1782 2.47668 20.166 2.46966C20.0452 2.37312 19.9174 2.28185 19.7843 2.1976C19.6705 2.1274 19.555 2.06421 19.4359 2.00278C18.6235 1.60085 17.6606 1.47272 16.8185 1.79743C15.7033 2.23095 15.017 3.33495 14.4112 4.3705C13.7354 5.52365 13.0561 6.69083 12.6464 7.96509C12.41 8.69875 12.27 9.47804 12.2805 10.245H12.2822C12.2875 10.8102 12.375 11.3701 12.5659 11.9019C12.8215 12.618 13.2487 13.2446 13.7844 13.7764C14.5197 14.5119 15.4634 15.0665 16.4456 15.4158C16.6032 15.4719 16.7642 15.5246 16.9253 15.5702C16.9358 15.5737 16.9481 15.5772 16.9586 15.5808L19.0717 15.9985C19.0717 15.9985 19.0928 16.0002 19.1015 16.0038C19.9734 16.1056 20.8558 16.1529 21.7364 16.1916C21.6454 15.9318 21.6034 15.6492 21.6016 15.3701C21.5964 14.8032 21.7592 14.2275 22.0761 13.7624L22.0778 13.7589ZM18.9895 4.74786C18.7689 4.42667 18.543 4.10021 18.4502 3.72636C18.3592 3.34899 18.438 2.90494 18.7408 2.66623C19.0612 2.417 19.5427 2.46439 19.8859 2.68203C19.9121 2.69783 19.9401 2.71713 19.9681 2.73644C19.9769 2.74522 19.9856 2.75048 19.9944 2.7575C20.0102 2.76979 20.0259 2.78208 20.0434 2.79612C20.306 3.012 20.5021 3.30687 20.6807 3.59998C22.2406 6.15375 23.1073 9.12525 23.1668 12.1196C21.9885 9.54825 20.5879 7.07697 18.9895 4.74962V4.74786Z" fill="white" stroke="#082422" stroke-width="0.0418033" stroke-linecap="round" stroke-linejoin="round"/>
<path d="M23.1673 12.1193C21.9891 9.54799 20.5884 7.07671 18.99 4.74936C18.7694 4.42817 18.5435 4.1017 18.4508 3.72785C18.3597 3.35049 18.4385 2.90644 18.7414 2.66773C19.0618 2.4185 19.5432 2.46589 19.8864 2.68353C19.9126 2.69933 19.9407 2.71863 19.9687 2.73794C19.9932 2.759 20.0177 2.77655 20.044 2.79762C20.3066 3.0135 20.5027 3.30837 20.6812 3.60148C22.2412 6.15525 23.1078 9.12675 23.1673 12.1211V12.1193Z" fill="#ECECEC" stroke="#082422" stroke-width="0.0418033" stroke-linecap="round" stroke-linejoin="round"/>
<path d="M25.1732 13.2972C25.2012 13.1393 25.2292 12.9795 25.259 12.8233L24.6585 12.7057C25.2239 10.3047 25.7895 7.90534 26.3602 5.50778C26.544 4.732 26.7279 3.94393 26.7226 3.14708C26.7156 2.34848 26.502 1.52706 25.975 0.930303C25.1364 -0.0174874 23.6763 -0.189494 22.4665 0.179091C21.3355 0.52486 20.3708 1.25852 19.4394 2.00271C19.5584 2.06239 19.674 2.12733 19.7878 2.19753C19.9191 2.28178 20.0487 2.37305 20.1695 2.46959C20.1817 2.47661 20.1922 2.48538 20.2027 2.49591L20.215 2.50293C20.2255 2.5082 20.2342 2.51347 20.243 2.52224C20.25 2.52575 20.2535 2.53102 20.2605 2.53628C20.91 3.06283 21.4283 3.75086 21.8695 4.46697C23.3524 6.87155 24.0684 9.73598 23.9004 12.553H23.9021C23.8934 12.6952 23.8846 12.8356 23.8706 12.976C24.1332 13.0638 24.3783 13.2182 24.6357 13.3323C24.7355 13.378 24.8458 13.4166 24.9561 13.4359C25.0296 13.3973 25.1049 13.3674 25.1854 13.3464L25.1732 13.2972ZM24.219 2.4731C24.205 1.98867 24.2733 1.37085 24.7355 1.21991C25.0751 1.10758 25.4516 1.35505 25.6109 1.67625C25.7684 1.9992 25.7649 2.37656 25.7544 2.73462C25.6459 5.92727 25.2275 9.10939 24.5079 12.2248C24.4116 8.97424 24.317 5.72367 24.219 2.4731Z" fill="white" stroke="#082422" stroke-width="0.0418033" stroke-linecap="round" stroke-linejoin="round"/>
<path d="M24.5066 12.2265C24.4103 8.97593 24.3158 5.72536 24.2178 2.47479C24.2038 1.99036 24.272 1.37254 24.7342 1.2216C25.0739 1.10927 25.4503 1.35675 25.6096 1.67794C25.7672 2.00089 25.7637 2.37825 25.7532 2.73631C25.6446 5.92896 25.2262 9.11108 24.5066 12.2265Z" fill="#ECECEC" stroke="#082422" stroke-width="0.0418033" stroke-linecap="round" stroke-linejoin="round"/>
<path d="M45.5982 49.0764L49.9996 71.5794L38.6581 75.1424L34.5455 76.4342L23.2005 79.999L22.3689 75.7357L18.7991 57.4977L20.233 57.0466L22.0573 56.4727L26.1681 55.1809L28.3215 54.5052L30.1441 53.9312L34.2549 52.6394L37.5113 51.6197V51.6161L45.5982 49.0764Z" fill="#2BF2F1" stroke="#082422" stroke-width="0.0418033" stroke-linejoin="round"/>
<path d="M18.7986 57.498L22.3684 75.7359L23.2 79.9992L16.6521 78.7355L14.2816 78.2774L7.7337 77.0137L3.33051 54.5125L9.88015 55.7762L12.2542 56.2343L18.7986 57.498Z" fill="#2BF2F1" stroke="#082422" stroke-width="0.0418033" stroke-linejoin="round"/>
<path d="M12.2535 56.2322L16.6549 78.7352L14.2826 78.2771L9.88116 55.7759L12.2535 56.2322Z" fill="white" stroke="#082422" stroke-width="0.0418033" stroke-linejoin="round"/>
<path d="M30.4083 53.8543L34.7572 76.3731L38.3918 75.2217L34.0411 52.7029L30.4083 53.8543Z" fill="white" stroke="#082422" stroke-width="0.0418033" stroke-linejoin="round"/>
<path d="M36.2561 34.5735L36.7533 35.2001C36.9476 35.444 37.0807 35.7442 37.1402 36.0935C37.3976 37.6398 36.0757 39.5775 34.1849 40.4217C32.7212 41.0746 31.3486 40.8798 30.6833 40.0426L30.1861 39.416C30.8514 40.255 32.2258 40.448 33.6877 39.7951C35.5768 38.9509 36.9003 37.0132 36.643 35.4669C36.5852 35.1176 36.4504 34.8175 36.2561 34.5735Z" fill="#B9CC00" stroke="#082422" stroke-width="0.0418033" stroke-linejoin="round"/>
<path d="M32.7528 34.1927C34.6419 33.3484 36.3839 33.9189 36.6413 35.4652C36.8987 37.0115 35.5768 38.9492 33.686 39.7934C31.7952 40.6376 30.0549 40.0672 29.7975 38.5209C29.5402 36.9746 30.862 35.0369 32.7528 34.1927Z" fill="#DCFF00" stroke="#082422" stroke-width="0.0418033" stroke-linejoin="round"/>
<path d="M34.1233 35.2508L34.8097 35.4878L34.5348 35.8827C34.7956 36.0951 34.8272 36.3917 34.582 36.7884L33.8695 36.5409C33.999 36.3513 33.9623 36.2636 33.8397 36.2214C33.7767 36.2004 33.7207 36.2039 33.6734 36.2232C33.6384 36.239 33.6104 36.2636 33.5876 36.2952C33.5053 36.411 33.5946 36.4812 33.7557 36.6111L33.8415 36.6795C34.2477 37.0007 34.3054 37.2587 34.0533 37.6203C33.929 37.7976 33.7732 37.9292 33.5911 38.01C33.409 38.0907 33.2094 38.1205 32.9871 38.0977L32.6807 38.5365L31.9909 38.2978L32.2973 37.859C31.9664 37.6308 31.9524 37.3044 32.2185 36.8831L32.9748 37.1447C32.8488 37.3395 32.8523 37.4518 33.0064 37.5045C33.0764 37.529 33.1429 37.5308 33.2024 37.5045C33.2392 37.4887 33.2725 37.4606 33.3005 37.4202C33.3688 37.3219 33.3075 37.2693 33.2094 37.1885L33.0204 37.0376C32.6124 36.7199 32.5897 36.4408 32.84 36.081C32.9538 35.9178 33.1009 35.7932 33.2742 35.7159C33.4476 35.6387 33.6384 35.6089 33.8502 35.6299L34.1163 35.2491C34.1163 35.2491 34.1198 35.2456 34.1233 35.2473V35.2508Z" fill="white" stroke="#082422" stroke-width="0.0418033" stroke-linejoin="round"/>
<path d="M10.9065 46.2769L11.5806 47.1264C11.9062 47.5371 12.1321 48.0408 12.2301 48.6288C12.6643 51.2282 10.4408 54.4858 7.26318 55.9039C4.80335 57.0009 2.49408 56.6745 1.37708 55.2651L0.703033 54.4156C1.82178 55.825 4.13105 56.1514 6.58913 55.0544C9.76504 53.6363 11.9885 50.3804 11.5561 47.7793C11.458 47.1913 11.2322 46.6893 10.9065 46.2769Z" fill="#B9CC00" stroke="#082422" stroke-width="0.0418033" stroke-linejoin="round"/>
<path d="M5.02075 45.6379C8.19665 44.2197 11.1239 45.178 11.5564 47.7792C11.9906 50.3786 9.76709 53.6362 6.58944 55.0544C3.41179 56.4725 0.486243 55.5142 0.0538022 52.9148C-0.38039 50.3154 1.84309 47.0578 5.02075 45.6396V45.6379Z" fill="#DCFF00" stroke="#082422" stroke-width="0.0418033" stroke-linejoin="round"/>
<path d="M4.96842 48.0427L5.39561 48.4605L5.43588 48.4359C5.57244 48.3499 5.7055 48.2797 5.83155 48.2235C6.35503 47.9901 6.78747 48.0041 7.14463 48.2621L5.91384 49.3714C5.77553 49.2626 5.62671 49.2433 5.46389 49.3152C5.3851 49.3503 5.30282 49.4065 5.21703 49.4855C4.96142 49.7154 4.95967 49.8839 5.0437 49.9664C5.12599 50.0454 5.23979 50.0331 5.39911 49.9629C5.53742 49.9014 5.709 49.7944 5.92084 49.6627L6.15544 49.5153C6.47058 49.317 6.7402 49.1678 6.97306 49.0625C7.53856 48.8097 7.88871 48.829 8.16008 49.0923C8.53825 49.4609 8.42095 50.0331 7.82218 50.7492L7.79067 50.7878L8.26863 51.2529L7.07635 52.3271L6.59839 51.862L6.55637 51.8918C6.37429 52.0147 6.20272 52.1112 6.03814 52.1849C5.50066 52.4254 5.05071 52.4043 4.67779 52.12L5.99087 50.9388C6.15369 51.0634 6.31652 51.0844 6.49685 51.0037C6.58263 50.9651 6.67367 50.9036 6.76997 50.8176C6.88727 50.7123 6.96605 50.6123 7.00457 50.5228C7.05009 50.421 7.03783 50.3332 6.97306 50.27C6.89602 50.1946 6.79098 50.2068 6.66317 50.2648C6.57213 50.3051 6.46708 50.3701 6.35328 50.4403L5.8368 50.7615C5.54968 50.944 5.29932 51.0827 5.08047 51.181C4.50446 51.439 4.1298 51.4144 3.83917 51.1318C3.48902 50.7931 3.60632 50.2349 4.16481 49.5645L4.19633 49.5258L3.77789 49.1204L4.97017 48.0445L4.96842 48.0427Z" fill="white" stroke="#082422" stroke-width="0.0418033" stroke-linejoin="round"/>
<path d="M12.8005 32.1109L12.4714 32.5427C12.2455 32.8393 11.9374 33.0798 11.5522 33.2483C9.84169 33.9942 7.22428 33.0184 5.70461 31.0701C4.52984 29.5624 4.35651 27.9126 5.13211 26.8981L5.46125 26.4663C4.68566 27.4808 4.85723 29.1289 6.03375 30.6383C7.55168 32.5866 10.1708 33.5625 11.8813 32.8165C12.2683 32.648 12.5746 32.4058 12.8005 32.1109Z" fill="#69B8B3" stroke="#082422" stroke-width="0.0418033" stroke-linejoin="round"/>
<path d="M12.2301 27.9393C13.748 29.8875 13.5922 32.0709 11.8817 32.8169C10.1712 33.5628 7.5538 32.5869 6.03413 30.6387C4.51621 28.6905 4.67203 26.507 6.38253 25.7611C8.09304 25.0151 10.7104 25.991 12.2301 27.9393Z" fill="#8CF1F0" stroke="#082422" stroke-width="0.0418033" stroke-linejoin="round"/>
<path d="M10.1546 28.3111C10.1913 28.3585 10.2281 28.4094 10.2631 28.462L9.24767 28.6533C9.22491 28.6147 9.20215 28.5814 9.17939 28.5515C9.05158 28.3865 8.91502 28.3497 8.76971 28.3778C8.61389 28.4076 8.58413 28.4971 8.64015 28.5936C8.64715 28.6059 8.65591 28.6182 8.66291 28.6287C8.7592 28.7516 8.93603 28.7639 9.24417 28.7867L9.421 28.799C10.1423 28.8481 10.5537 29.0079 10.8286 29.3607C10.8706 29.4151 10.9109 29.4747 10.9477 29.5379C11.2138 30.003 11.1105 30.3822 10.6273 30.6033L10.9617 31.186L9.97774 31.3721L9.64334 30.7894C9.0866 30.7753 8.65241 30.5471 8.31976 30.1206C8.27599 30.0627 8.23222 30.003 8.19195 29.9381L9.26693 29.7345C9.29144 29.7749 9.31595 29.81 9.34221 29.8416C9.47702 30.0153 9.62058 30.0803 9.80617 30.0452C9.96724 30.0153 10.0408 29.9364 9.96198 29.7977C9.95498 29.7854 9.94798 29.7749 9.93922 29.7643C9.86219 29.6643 9.73613 29.6538 9.55055 29.638L9.16013 29.6099C8.44932 29.5643 8.04489 29.3817 7.77002 29.0307C7.72274 28.971 7.68073 28.9061 7.64046 28.8376C7.3936 28.4058 7.48814 28.0425 7.94859 27.8302L7.65446 27.3176L8.6384 27.1316L8.93953 27.6564C9.42625 27.6932 9.83768 27.9021 10.1563 28.3111H10.1546Z" fill="white" stroke="#082422" stroke-width="0.0418033" stroke-linejoin="round"/>
</g>
<defs>
<clipPath id="clip0_664_11598">
<rect width="50" height="80" fill="white"/>
</clipPath>
</defs>
</svg>
