<svg width="37" height="80" viewBox="0 0 37 80" fill="none" xmlns="http://www.w3.org/2000/svg">
<g clip-path="url(#clip0_664_11581)">
<path d="M27.4966 30.2763C27.7657 30.388 28.1321 30.5435 28.5194 30.7199C28.9071 30.8964 29.3153 31.0935 29.6691 31.2866C30.0252 31.4809 30.3185 31.6677 30.4822 31.8232C30.5052 31.8454 30.5363 31.9004 30.5657 32.006C30.594 32.1082 30.6165 32.244 30.6348 32.4093C30.6712 32.7394 30.6867 33.1784 30.685 33.6904C30.6817 34.7139 30.6121 36.0189 30.5208 37.3049C30.4294 38.5904 30.3166 39.8554 30.2264 40.7993C30.1813 41.2712 30.1421 41.6627 30.114 41.9362C30.1013 42.0595 30.0898 42.1587 30.0822 42.2306C30.0448 42.2136 29.9995 42.193 29.9485 42.1676C29.7916 42.0898 29.5785 41.9729 29.3541 41.8166C28.9028 41.5023 28.4185 41.0382 28.2391 40.4252C28.1474 40.1115 28.0504 39.5095 27.9571 38.7755C27.8641 38.044 27.7757 37.1879 27.6986 36.3722C27.6216 35.5568 27.556 34.7816 27.51 34.2102C27.487 33.9245 27.4692 33.6897 27.4567 33.5264C27.4505 33.445 27.4459 33.3812 27.4427 33.3379C27.4411 33.3164 27.4399 33.2995 27.4391 33.2884C27.4387 33.2828 27.4381 33.2782 27.4379 33.2753C27.4378 33.274 27.4381 33.273 27.4381 33.2723L27.4375 33.271L27.2038 30.1563C27.2782 30.1864 27.378 30.227 27.4966 30.2763Z" fill="#FFCE9B" stroke="#082422" stroke-width="0.196987" stroke-miterlimit="10" stroke-linecap="round" stroke-linejoin="round"/>
<path opacity="0.25" d="M27.4956 33.9865C28.3925 35.5471 29.4854 37.4436 30.3983 38.9543C30.3302 39.8275 30.2392 40.766 30.1633 41.489C30.125 41.8546 30.0909 42.1649 30.0664 42.384C30.0584 42.4556 30.0511 42.5176 30.0453 42.5684C30.0115 42.5449 29.9717 42.5175 29.9278 42.4855C29.774 42.3734 29.5644 42.2111 29.344 42.0088C28.956 41.6526 28.5414 41.1811 28.3226 40.6544L28.2416 40.4255C28.1619 40.1532 28.0783 39.6629 27.9963 39.0558C27.9146 38.4507 27.835 37.7354 27.7631 37.0179C27.6474 35.8632 27.5523 34.7034 27.4956 33.9865Z" fill="black" stroke="#082422" stroke-width="0.196987" stroke-linecap="round" stroke-linejoin="round"/>
<path d="M17.6864 26.5657C17.6908 26.566 17.6958 26.5658 17.701 26.5661C17.7344 26.5679 17.7836 26.5705 17.8468 26.5741C17.9741 26.5813 18.1585 26.5929 18.3856 26.6076C18.8398 26.6371 19.4668 26.6814 20.1554 26.7422C21.5349 26.8641 23.1555 27.0496 24.1447 27.3058C25.1405 27.5638 26.0016 27.8449 26.6644 28.1589C27.3306 28.4746 27.7805 28.817 27.978 29.1894C28.0168 29.2628 28.063 29.4303 28.112 29.6867C28.16 29.9383 28.2084 30.2629 28.2569 30.6391C28.3538 31.3914 28.4493 32.3467 28.5363 33.3309C28.6233 34.3149 28.7016 35.3273 28.7649 36.1947L28.9028 38.1897C28.9118 38.3251 28.8025 38.44 28.6624 38.4383C28.3519 38.4333 27.8899 38.4027 27.4648 38.2894C27.0348 38.1748 26.6688 37.9826 26.5134 37.6723C26.4002 37.4465 26.2666 37.02 26.129 36.4991C25.9921 35.9813 25.8532 35.3785 25.7293 34.8042C25.6054 34.2297 25.497 33.6842 25.4188 33.2827C25.3798 33.082 25.348 32.9171 25.3265 32.8025C25.3157 32.7455 25.3074 32.7009 25.3017 32.6706C25.2989 32.6554 25.2969 32.6435 25.2955 32.6357C25.2948 32.6318 25.2942 32.6287 25.2938 32.6267L25.2936 32.6245L25.2927 32.6242L25.293 32.6233C25.2864 32.588 25.2604 32.5592 25.226 32.5483L19.3819 30.7L16.0229 27.8876L17.6864 26.5657Z" fill="#FFCE9B" stroke="#082422" stroke-width="0.196987" stroke-miterlimit="10" stroke-linecap="round" stroke-linejoin="round"/>
<mask id="mask0_664_11581" style="mask-type:luminance" maskUnits="userSpaceOnUse" x="15" y="26" width="14" height="13">
<path d="M17.6905 26.566C17.6952 26.5662 17.7004 26.5664 17.706 26.5667C17.7395 26.5685 17.7892 26.5714 17.8528 26.575C17.98 26.5821 18.1638 26.5935 18.3908 26.608C18.8449 26.6371 19.4715 26.6815 20.16 26.7418C21.5394 26.8626 23.1598 27.0469 24.1487 27.3026C25.1442 27.5599 26.0049 27.8396 26.6673 28.1532C27.333 28.4685 27.7828 28.8104 27.98 29.1828C28.0188 29.256 28.0648 29.424 28.1136 29.6808C28.1614 29.9325 28.2098 30.2574 28.2579 30.6339C28.3541 31.3866 28.4485 32.3425 28.5347 33.3274C28.6208 34.3118 28.698 35.3248 28.7606 36.1927L28.8964 38.1887C28.9053 38.3242 28.7964 38.4389 28.6567 38.4376C28.3464 38.4329 27.8845 38.4033 27.4595 38.2904C27.0295 38.176 26.6635 37.9831 26.5083 37.6728C26.3958 37.4475 26.2662 37.0167 26.1353 36.4875C26.0052 35.9614 25.8759 35.3473 25.7609 34.7618C25.6459 34.1762 25.545 33.6197 25.4735 33.2098C25.4377 33.0049 25.4091 32.8363 25.3895 32.7193C25.3797 32.6609 25.3723 32.6151 25.3671 32.5841C25.3646 32.5687 25.3626 32.5563 25.3613 32.5484C25.3607 32.5447 25.3608 32.5416 25.3605 32.5397L25.3594 32.5372C25.3534 32.5002 25.3267 32.4692 25.2907 32.4585L19.3808 30.7023L16.0261 27.8911L17.6905 26.566Z" fill="white" stroke="white" stroke-width="0.196987" stroke-linecap="round" stroke-linejoin="round"/>
</mask>
<g mask="url(#mask0_664_11581)">
<path opacity="0.25" d="M8.08859 34.3902C7.68921 33.6365 7.96194 32.7119 8.45482 31.812C8.69928 31.3656 8.99399 30.9336 9.27309 30.5436C9.55018 30.1563 9.81669 29.8046 9.99868 29.5293C10.8655 28.2182 12.277 26.1886 13.6239 24.3316C14.9729 22.472 16.2509 20.7942 16.8539 20.1809C17.7926 19.2252 21.2248 15.6816 22.8726 13.9948C22.8741 13.9935 22.8766 13.9932 22.8781 13.9917C23.0904 13.7742 23.3157 13.7216 23.534 13.7678C23.7594 13.8156 23.9896 13.9716 24.1911 14.1939C24.3915 14.4151 24.5569 14.6946 24.6567 14.9734C24.7571 15.2539 24.7872 15.5232 24.7317 15.7293C24.6526 16.0244 24.4202 16.5022 24.0966 17.0816C24.0824 17.1072 24.0804 17.1381 24.091 17.1653C24.1016 17.1922 24.1239 17.2129 24.1515 17.222C24.6106 17.3734 25.0466 17.6239 25.2974 18.041C25.378 18.1754 25.4501 18.3805 25.5116 18.6486C25.5727 18.9149 25.6226 19.2374 25.6605 19.6034C25.7364 20.3356 25.7664 21.2355 25.7586 22.1937C25.7431 24.1105 25.5759 26.2534 25.3225 27.7465C24.841 30.5857 26.1232 33.49 26.2879 33.8473L26.2916 33.854C27.3179 35.6491 28.8263 38.2083 29.8826 39.9469C31.6259 42.8174 32.6098 45.4552 32.4806 47.5978C32.3185 50.3018 31.1433 52.5205 30.5927 53.4662C30.3999 53.7964 30.282 54.1647 30.249 54.5446L27.7043 82.7482C27.6838 82.966 27.6108 83.139 27.4809 83.2598C27.3508 83.3804 27.1498 83.4606 26.8503 83.4673C25.901 83.4887 23.5537 83.4031 20.5873 82.0805C17.4346 80.6753 15.0935 78.9049 13.7236 77.7722L13.1964 77.328C12.8855 77.063 12.9045 76.6549 12.9762 76.1836C13.1854 74.8143 14.1331 69.0621 15.0416 63.4201C15.4957 60.5995 15.9405 57.806 16.2775 55.6032C16.6141 53.4041 16.8447 51.7854 16.8703 51.3189C16.8775 51.1881 16.8496 51.0155 16.7955 50.8131C16.7409 50.6086 16.6574 50.3655 16.551 50.0904C16.3383 49.5402 16.0286 48.8553 15.6526 48.0828C14.9003 46.5373 13.8796 44.6338 12.8297 42.7391C10.7269 38.944 8.51311 35.192 8.08859 34.3902ZM17.7396 27.6519C17.5062 28.091 17.5857 28.628 17.937 28.9769L18.9722 30.0076C18.9964 30.0317 19.0313 30.0419 19.0647 30.0338C19.0982 30.0257 19.1252 30.0006 19.1358 29.968C19.8281 27.8391 20.6246 25.3467 20.9716 24.1172C21.194 23.3295 21.4572 22.2785 21.7117 21.2265C21.7127 21.2233 21.7143 21.2208 21.7149 21.2183C21.7159 21.2141 21.7173 21.2102 21.7176 21.2089L21.7167 21.2085C21.7163 21.2099 21.716 21.2129 21.7147 21.2161C21.7331 21.1694 21.7134 21.1158 21.6688 21.0928C21.6242 21.0699 21.5693 21.0847 21.5412 21.1264C21.2774 21.5185 21.0395 21.8673 20.8494 22.1453C20.6596 22.4229 20.5166 22.6309 20.4435 22.7394C20.2569 23.0169 19.7611 23.9076 19.2245 24.8926C18.6862 25.8807 18.1024 26.971 17.7396 27.6519Z" fill="black" stroke="#082422" stroke-width="0.196987" stroke-linecap="round" stroke-linejoin="round"/>
</g>
<mask id="path-6-inside-1_664_11581" fill="white">
<path d="M27.1905 35.9364C27.3108 35.6307 27.7016 34.9486 28.7561 35.1294L28.9489 37.6788C28.9492 37.6879 28.9484 37.6966 28.9453 37.7044C28.9361 37.7278 28.9136 37.7423 28.8877 37.7426L28.1665 37.7645L27.154 36.0456C27.1601 36.0236 27.1728 35.9848 27.1921 35.9357M27.1345 35.9148C27.1011 35.9996 27.0884 36.0551 27.0884 36.0551L28.1305 37.8265L28.8883 37.8032C28.9402 37.8026 28.9838 37.7706 29.0009 37.7271C29.007 37.7114 29.0103 37.6934 29.0086 37.6748L28.8121 35.079C27.6764 34.8618 27.2595 35.5968 27.1345 35.9148Z"/>
</mask>
<path d="M27.1905 35.9364C27.3108 35.6307 27.7016 34.9486 28.7561 35.1294L28.9489 37.6788C28.9492 37.6879 28.9484 37.6966 28.9453 37.7044C28.9361 37.7278 28.9136 37.7423 28.8877 37.7426L28.1665 37.7645L27.154 36.0456C27.1601 36.0236 27.1728 35.9848 27.1921 35.9357M27.1345 35.9148C27.1011 35.9996 27.0884 36.0551 27.0884 36.0551L28.1305 37.8265L28.8883 37.8032C28.9402 37.8026 28.9838 37.7706 29.0009 37.7271C29.007 37.7114 29.0103 37.6934 29.0086 37.6748L28.8121 35.079C27.6764 34.8618 27.2595 35.5968 27.1345 35.9148Z" fill="black"/>
<path d="M27.0067 35.8657C26.9669 35.9669 27.0169 36.0806 27.1184 36.1197C27.22 36.1587 27.3346 36.1083 27.3744 36.0071L27.1905 35.9364L27.0067 35.8657ZM28.7561 35.1294L28.9531 35.1136C28.9463 35.0242 28.8795 34.951 28.7907 34.9358L28.7561 35.1294ZM28.9489 37.6788L29.1465 37.6714L29.1458 37.663L28.9489 37.6788ZM28.8877 37.7426L28.8865 37.5461L28.8827 37.5462L28.8877 37.7426ZM28.1665 37.7645L27.996 37.8646C28.0323 37.9262 28.0995 37.9631 28.1714 37.9609L28.1665 37.7645ZM27.154 36.0456L26.9636 35.9945C26.9495 36.0456 26.9567 36.1001 26.9835 36.1457L27.154 36.0456ZM27.376 36.0064C27.4158 35.9052 27.3657 35.7914 27.2642 35.7524C27.1627 35.7133 27.0481 35.7637 27.0082 35.865L27.1921 35.9357L27.376 36.0064ZM27.0884 36.0551L26.8959 36.0122C26.8846 36.0609 26.8925 36.112 26.9178 36.155L27.0884 36.0551ZM28.1305 37.8265L27.9599 37.9264C27.9962 37.9881 28.0635 38.0251 28.1355 38.0229L28.1305 37.8265ZM28.8883 37.8032L28.8871 37.6067L28.8834 37.6068L28.8883 37.8032ZM29.0086 37.6748L28.8116 37.6906L28.8119 37.6937L29.0086 37.6748ZM28.8121 35.079L29.009 35.0632C29.0024 34.9751 28.9375 34.9027 28.8504 34.886L28.8121 35.079ZM27.1905 35.9364L27.3744 36.0071C27.4274 35.8723 27.5377 35.6621 27.7424 35.5063C27.9401 35.3558 28.2448 35.2413 28.7216 35.323L28.7561 35.1294L28.7907 34.9358C28.213 34.8367 27.795 34.9728 27.5035 35.1946C27.2191 35.4111 27.0739 35.6948 27.0067 35.8657L27.1905 35.9364ZM28.7561 35.1294L28.5592 35.1452L28.752 37.6946L28.9489 37.6788L29.1458 37.663L28.9531 35.1136L28.7561 35.1294ZM28.9489 37.6788L28.7515 37.6862C28.7513 37.6812 28.751 37.6602 28.7614 37.6337L28.9453 37.7044L29.1291 37.7751C29.1457 37.7329 29.147 37.6946 29.1463 37.6714L28.9489 37.6788ZM28.9453 37.7044L28.7614 37.6337C28.7841 37.5759 28.8384 37.5467 28.8865 37.5461L28.8877 37.7426L28.8889 37.9391C28.9888 37.9379 29.088 37.8797 29.1291 37.7751L28.9453 37.7044ZM28.8877 37.7426L28.8827 37.5462L28.1616 37.5681L28.1665 37.7645L28.1714 37.9609L28.8926 37.939L28.8877 37.7426ZM28.1665 37.7645L28.337 37.6645L27.3245 35.9456L27.154 36.0456L26.9835 36.1457L27.996 37.8646L28.1665 37.7645ZM27.154 36.0456L27.3444 36.0967C27.3482 36.0829 27.3585 36.0508 27.376 36.0064L27.1921 35.9357L27.0082 35.865C26.9871 35.9187 26.972 35.9642 26.9636 35.9945L27.154 36.0456ZM27.1345 35.9148L26.9506 35.8441C26.9317 35.8921 26.9185 35.9323 26.9097 35.9613C26.9054 35.9759 26.9021 35.9876 26.8999 35.9963C26.8987 36.0006 26.8978 36.0041 26.8972 36.0067C26.8968 36.0081 26.8966 36.0092 26.8964 36.0101C26.8962 36.0106 26.8962 36.011 26.8961 36.0113C26.896 36.0115 26.896 36.0116 26.896 36.0118C26.8959 36.0119 26.8959 36.0119 26.8959 36.012C26.8959 36.012 26.8959 36.0121 26.8959 36.0121C26.8959 36.0121 26.8959 36.0121 26.8959 36.0121C26.8959 36.0122 26.8959 36.0122 27.0884 36.0551C27.2808 36.0979 27.2808 36.098 27.2808 36.098C27.2808 36.098 27.2808 36.098 27.2808 36.098C27.2808 36.0981 27.2808 36.0981 27.2808 36.0981C27.2808 36.0982 27.2808 36.0982 27.2808 36.0983C27.2807 36.0984 27.2807 36.0984 27.2807 36.0985C27.2807 36.0986 27.2807 36.0987 27.2807 36.0987C27.2806 36.0988 27.2807 36.0986 27.2808 36.0983C27.2809 36.0976 27.2813 36.0961 27.2819 36.0939C27.2831 36.0895 27.2851 36.0821 27.2881 36.0721C27.2941 36.0522 27.3039 36.0223 27.3183 35.9855L27.1345 35.9148ZM27.0884 36.0551L26.9178 36.155L27.9599 37.9264L28.1305 37.8265L28.3011 37.7265L27.2589 35.9551L27.0884 36.0551ZM28.1305 37.8265L28.1355 38.0229L28.8933 37.9996L28.8883 37.8032L28.8834 37.6068L28.1255 37.6301L28.1305 37.8265ZM28.8883 37.8032L28.8896 37.9997C29.0232 37.9982 29.1385 37.9154 29.1848 37.7978L29.0009 37.7271L28.817 37.6563C28.8291 37.6258 28.8572 37.6071 28.8871 37.6068L28.8883 37.8032ZM29.0009 37.7271L29.1848 37.7978C29.201 37.7566 29.21 37.7079 29.2052 37.6559L29.0086 37.6748L28.8119 37.6937C28.8105 37.6789 28.8131 37.6663 28.817 37.6563L29.0009 37.7271ZM29.0086 37.6748L29.2055 37.6589L29.009 35.0632L28.8121 35.079L28.6152 35.0948L28.8116 37.6906L29.0086 37.6748ZM28.8121 35.079L28.8504 34.886C28.232 34.7678 27.786 34.907 27.476 35.1396C27.1733 35.3665 27.0202 35.6672 26.9506 35.8441L27.1345 35.9148L27.3183 35.9855C27.3738 35.8444 27.4916 35.6186 27.7126 35.4529C27.9262 35.2927 28.2565 35.173 28.7738 35.272L28.8121 35.079Z" fill="#082422" mask="url(#path-6-inside-1_664_11581)"/>
<path d="M7.63438 30.6518C7.8614 30.0074 8.19797 29.3963 8.50426 28.9011L8.79602 28.4473C9.6628 27.1374 10.9246 25.3363 12.1221 23.7084C13.3211 22.0784 14.4503 20.6287 15.0535 20.0158C15.5283 19.5328 16.7334 17.9833 18.0177 16.3546C19.3068 14.7199 20.6791 13.0009 21.4977 12.1636C21.71 11.9464 21.9355 11.8946 22.154 11.941C22.3797 11.989 22.6101 12.1453 22.812 12.3678C23.0126 12.589 23.178 12.868 23.278 13.1466C23.3788 13.4273 23.4095 13.697 23.3542 13.9031C23.2653 14.2343 22.9866 14.7915 22.6028 15.4618C22.221 16.1285 21.7415 16.8967 21.2575 17.6448C20.2894 19.1415 19.3082 20.5534 19.0684 20.9094C18.8818 21.1869 18.3867 22.0775 17.8505 23.0619C17.3128 24.0492 16.7302 25.1383 16.3678 25.8188C16.1345 26.2577 16.2139 26.795 16.5655 27.1441L17.9476 28.5181C18.0988 28.669 18.2895 28.7733 18.4984 28.8199L23.3927 29.9159C23.3949 29.9169 23.4028 29.9206 23.4161 29.9311C23.4331 29.9445 23.4544 29.9643 23.4793 29.9921C23.5292 30.0479 23.5878 30.1278 23.653 30.2253C23.7832 30.4197 23.9323 30.6773 24.078 30.9433C24.2255 31.2126 24.3663 31.4826 24.479 31.7033L24.7146 32.1664C25.0777 32.8463 25.6686 33.7367 26.3479 34.7534C27.0286 35.7722 27.8009 36.9206 28.5316 38.1213C30.268 40.9759 30.4116 43.1564 30.2831 45.3156C30.1227 48.0257 29.1568 50.4528 28.6114 51.3898L28.6111 51.3907C28.4186 51.7206 28.3009 52.0887 28.2681 52.4684L28.268 52.4714L26.9327 76.9288L26.9327 76.9341C26.9321 77.2141 26.8003 77.521 26.5902 77.7785C26.3802 78.0358 26.1012 78.2319 25.8198 78.2993C24.4679 78.6229 21.6017 79.2113 18.401 78.6974C14.9206 78.1384 13.1005 77.0301 11.8655 75.9761C11.7043 75.8381 11.5532 75.5984 11.4524 75.3056C11.3521 75.014 11.3048 74.6787 11.342 74.356C11.5008 72.984 12.5502 67.2527 13.5736 61.6271C14.085 58.8161 14.5892 56.033 14.9722 53.8376C15.3544 51.6465 15.6172 50.0307 15.6425 49.5629C15.6494 49.4333 15.6242 49.2638 15.5758 49.0653C15.5269 48.8651 15.4531 48.6282 15.3575 48.3609C15.166 47.8255 14.8863 47.1617 14.5467 46.4147C13.8672 44.9203 12.9432 43.0852 11.9905 41.2587C10.0866 37.6084 8.05906 33.9781 7.63655 33.1815C7.23019 32.4154 7.33114 31.5127 7.63438 30.6518Z" fill="#FFCE9B" stroke="#082422" stroke-width="0.196987" stroke-miterlimit="10" stroke-linecap="round" stroke-linejoin="round"/>
<path d="M7.05121 6.69814C5.14996 8.13534 3.24874 9.57259 1.34764 11.0094C1.33066 11.0222 1.32146 11.0431 1.32331 11.0642C1.32524 11.0852 1.33784 11.1036 1.35665 11.1133C5.24404 13.1162 7.18118 16.5945 8.88017 20.2736L10.3164 23.4439C12.0169 27.1271 13.97 30.6407 17.8962 32.6632C17.9174 32.6742 17.9435 32.672 17.9626 32.6578C19.8638 31.2209 21.7657 29.7834 23.6671 28.3461C25.5683 26.9089 27.4696 25.4717 29.3706 24.0349C29.3876 24.0221 29.3968 24.0012 29.395 23.9801C29.3931 23.959 29.3802 23.9399 29.3612 23.9301C24.9188 21.641 23.0235 17.425 21.1196 13.1847C19.2187 8.95091 17.3088 4.69248 12.8221 2.38105C12.8008 2.37009 12.7748 2.37224 12.7557 2.38649C10.8545 3.82334 8.95254 5.26088 7.05121 6.69814Z" fill="#60D06F" stroke="#082422" stroke-width="0.124234" stroke-miterlimit="10" stroke-linecap="round" stroke-linejoin="round"/>
<path d="M11.1947 5.8931C11.2889 5.89703 11.386 5.92781 11.4605 5.98416L11.4618 5.98592C12.3668 6.66895 13.6631 6.78725 14.5275 6.13327L14.5273 6.13231C14.6363 6.05071 14.806 6.05329 14.9055 6.15933C16.7862 8.16809 18.0256 10.6597 19.1826 13.2032L20.168 15.3878C21.325 17.9293 22.5598 20.4018 24.4304 22.3918C24.533 22.5011 24.5081 22.6598 24.3947 22.745C23.9656 23.0694 23.7263 23.5248 23.7041 23.9794C23.6847 24.3763 23.8311 24.7768 24.167 25.0953L24.3223 25.2264C24.39 25.2777 24.4354 25.3491 24.4424 25.4255C24.4494 25.5039 24.415 25.5792 24.3434 25.6334L19.7918 29.0762C19.7219 29.1289 19.6321 29.1497 19.5463 29.1465C19.4603 29.1433 19.3717 29.1158 19.3029 29.0646C18.396 28.382 17.0963 28.2627 16.2312 28.9172C16.1267 28.9965 15.968 29.0067 15.8565 28.9281L15.8121 28.8891C13.6682 26.6006 12.3574 23.6844 11.0526 20.7788C9.74613 17.8693 8.44525 14.9704 6.32252 12.6952C6.20894 12.574 6.23896 12.3973 6.36285 12.3047C6.79213 11.9802 7.03193 11.5252 7.05447 11.0702C7.07687 10.6163 6.88372 10.1572 6.43883 9.82068C6.36494 9.76471 6.31664 9.68781 6.30904 9.60544C6.30132 9.52116 6.33722 9.43959 6.41416 9.38081L10.9273 5.96905C11.0029 5.9116 11.1009 5.88926 11.1947 5.8931Z" fill="#80E58A" stroke="black" stroke-width="0.124234" stroke-miterlimit="10" stroke-linecap="round" stroke-linejoin="round"/>
<path d="M12.919 10.1471C12.3576 10.058 11.8556 10.1467 11.4776 10.4328C11.0985 10.7196 10.8856 11.1704 10.8047 11.7432C10.7442 12.1722 10.7541 12.6746 10.8193 13.2368L10.9029 13.8192L11.0207 14.4385C11.3301 15.9293 11.8767 17.7268 12.6756 19.532C13.5895 21.5973 14.7662 23.2117 16.007 24.0923L16.0074 24.091C16.6223 24.5348 17.2421 24.8057 17.8025 24.8954C18.3628 24.9849 18.8658 24.8957 19.2438 24.6096C19.6228 24.3227 19.8359 23.8719 19.9167 23.2992C19.9974 22.7272 19.9528 22.0264 19.8189 21.2241L19.8185 21.2232C19.5419 19.6267 18.9588 17.5734 18.0459 15.5104C17.1891 13.5743 16.1006 12.0352 14.9456 11.1247L14.7136 10.9505C14.0991 10.5071 13.4791 10.2367 12.919 10.1471Z" fill="#60D06F" stroke="#082422" stroke-width="0.124234" stroke-miterlimit="10" stroke-linecap="round" stroke-linejoin="round"/>
<path d="M28.037 5.00494C25.6702 4.70614 23.303 4.40716 20.9366 4.10818C20.9155 4.10556 20.894 4.11402 20.8804 4.13031C20.8669 4.14654 20.8628 4.16853 20.8692 4.18852C22.3912 8.91254 20.7412 13.2377 19.08 17.5858C17.4214 21.927 15.7521 26.2919 17.2895 31.0625C17.2968 31.0853 17.3165 31.1019 17.3404 31.1049C19.7068 31.4039 22.0741 31.7029 24.4409 32.0017C26.8075 32.3004 29.1742 32.5991 31.5404 32.8981C31.5616 32.9008 31.5829 32.8923 31.5966 32.876C31.6101 32.8597 31.6143 32.8378 31.6078 32.8178C30.0858 28.0939 31.7355 23.7694 33.3967 19.4214C35.0553 15.0799 36.7251 10.7146 35.1875 5.94376L35.1689 5.91521C35.16 5.90775 35.1486 5.9029 35.1366 5.90137C32.7703 5.60241 30.4037 5.30371 28.037 5.00494Z" fill="#60D06F" stroke="#082422" stroke-width="0.124234" stroke-miterlimit="10" stroke-linecap="round" stroke-linejoin="round"/>
<path d="M31.547 7.32218C31.611 7.39049 31.6573 7.47957 31.6701 7.57151L31.6698 7.57367C31.8261 8.68986 32.6619 9.67529 33.7391 9.81067C33.8574 9.8261 33.9631 9.91947 33.9847 10.0394L33.9888 10.0924L33.9565 10.6779C33.7381 13.5978 32.6612 16.4071 31.5906 19.2065C30.4471 22.1963 29.3109 25.175 29.2111 28.2825L29.2033 28.3355C29.1732 28.4538 29.0576 28.526 28.9343 28.51C28.3997 28.4427 27.9072 28.6001 27.5686 28.9085C27.2729 29.1778 27.0915 29.5646 27.1033 30.0252L27.1204 30.2267L27.124 30.2889C27.1214 30.3498 27.1017 30.4069 27.0647 30.4513C27.0141 30.5122 26.9363 30.543 26.847 30.5318C25.9017 30.4124 24.956 30.2926 24.0107 30.1739L21.1747 29.8172C21.0876 29.8061 21.0091 29.7584 20.9505 29.6965C20.8919 29.6344 20.8492 29.5535 20.8369 29.4692C20.6788 28.352 19.8414 27.3635 18.7633 27.2281C18.6143 27.2094 18.4796 27.0765 18.4865 26.9155C18.5922 23.7938 19.7348 20.8046 20.8737 17.827C22.014 14.8456 23.1501 11.8756 23.2613 8.77825C23.2669 8.61288 23.4137 8.50781 23.5674 8.52813C24.102 8.59555 24.5946 8.43858 24.9338 8.13025C25.2722 7.82253 25.4618 7.36133 25.3856 6.81212C25.3728 6.72078 25.3933 6.63246 25.4464 6.56843C25.5009 6.50285 25.5846 6.46897 25.6811 6.48077L31.302 7.1904C31.3967 7.20197 31.4832 7.25399 31.547 7.32218Z" fill="#80E58A" stroke="black" stroke-width="0.124234" stroke-miterlimit="10" stroke-linecap="round" stroke-linejoin="round"/>
<path d="M29.7406 11.5504C29.4065 11.0964 28.9887 10.8103 28.5182 10.7512C28.0465 10.6918 27.5757 10.8652 27.1124 11.2171C26.6497 11.5686 26.1842 12.1003 25.7105 12.7638L25.3552 13.2876C24.5169 14.5652 23.6279 16.2262 22.9129 18.0685C22.0952 20.1758 21.7841 22.145 22.0378 23.6357L22.039 23.6351C22.1595 24.3789 22.4056 25.0031 22.7386 25.4567C23.0716 25.9103 23.4905 26.1968 23.961 26.2559C24.4327 26.3153 24.9035 26.1419 25.3668 25.79C25.8295 25.4385 26.2946 24.908 26.7687 24.2432C27.7052 22.9132 28.7493 21.044 29.5663 18.9386C30.384 16.8313 30.6951 14.862 30.4414 13.3714C30.3209 12.6278 30.0735 12.0039 29.7406 11.5504Z" fill="#60D06F" stroke="#082422" stroke-width="0.124234" stroke-miterlimit="10" stroke-linecap="round" stroke-linejoin="round"/>
<path opacity="0.25" d="M20.5176 16.9109C21.0883 13.1173 21.4566 9.28267 23.5073 6.10171C23.1258 9.90918 24.5717 13.5318 25.7896 17.1425C27.0481 20.8738 28.0662 24.5991 26.6608 28.5644C25.6122 28.6692 24.5632 28.7734 23.5143 28.8784C22.4515 28.9848 21.3884 29.091 20.326 29.1973C18.911 28.6492 17.4947 28.1013 16.0786 27.5528C19.1389 24.6046 19.9351 20.7837 20.5176 16.9109Z" fill="black" stroke="#082422" stroke-width="0.196987" stroke-linecap="round" stroke-linejoin="round"/>
<path d="M7.85471 6.72843C7.83411 6.73392 7.81764 6.74991 7.81119 6.77014C7.80478 6.79048 7.80929 6.81298 7.82314 6.82915C10.6537 10.1346 11.1064 14.0746 11.2609 18.1114L11.3683 21.5804C11.5226 25.6219 11.9769 29.6012 14.8363 32.9395C14.8518 32.9576 14.8765 32.9646 14.8996 32.9584L28.8071 29.2521C28.8277 29.2466 28.8442 29.2307 28.8506 29.2103C28.8569 29.1902 28.8523 29.1684 28.8387 29.1523C25.6035 25.3745 25.4739 20.7675 25.3462 16.1346C25.2187 11.5089 25.0924 6.85727 21.8246 3.04198L21.7964 3.02263C21.7855 3.01922 21.7737 3.01906 21.7621 3.02205L7.85471 6.72843Z" fill="#60D06F" stroke="#082422" stroke-width="0.124234" stroke-miterlimit="10" stroke-linecap="round" stroke-linejoin="round"/>
<path d="M18.9579 5.65563C19.0432 5.69458 19.1203 5.75947 19.1673 5.83952L19.1678 5.84163C19.7403 6.81365 20.8914 7.40867 21.9402 7.12667L21.9904 7.11791C22.1093 7.10885 22.2344 7.1739 22.2791 7.29259C23.3801 10.225 23.4656 13.428 23.5533 16.6179C23.6411 19.812 23.7313 22.9935 24.83 25.9018C24.8826 26.0416 24.7984 26.1806 24.6611 26.2169C24.1407 26.3567 23.7455 26.6881 23.5504 27.1008C23.3557 27.5127 23.3579 28.0098 23.6408 28.4877L23.668 28.5438C23.6889 28.601 23.6924 28.6613 23.6753 28.7164C23.6518 28.7918 23.5908 28.8496 23.5038 28.8729C22.5833 29.1197 21.6627 29.3674 20.7425 29.6149C19.8224 29.8623 18.9025 30.1102 17.9821 30.357C17.8973 30.3798 17.8056 30.3651 17.7275 30.33C17.6495 30.2948 17.5791 30.2361 17.5353 30.1629C16.9609 29.1906 15.8071 28.5934 14.7575 28.8757C14.6125 28.9147 14.437 28.8428 14.3816 28.6915C13.283 25.7678 13.1944 22.5749 13.107 19.394C13.0195 16.2087 12.9337 13.0349 11.8494 10.1314C11.7912 9.97651 11.8858 9.8246 12.0356 9.78522C12.5564 9.64544 12.9528 9.31401 13.1485 8.90085C13.3436 8.48868 13.3416 7.99105 13.0604 7.51243C13.0136 7.43279 12.9987 7.34348 13.0233 7.26419C13.0486 7.18308 13.113 7.12094 13.2067 7.09533L13.2069 7.09438L18.681 5.62557C18.773 5.60049 18.8727 5.61678 18.9579 5.65563Z" fill="#80E58A" stroke="black" stroke-width="0.124234" stroke-miterlimit="10" stroke-linecap="round" stroke-linejoin="round"/>
<path d="M18.9163 10.2539C18.4293 9.96148 17.929 9.85584 17.4675 9.97908C17.0046 10.1025 16.6329 10.44 16.3362 10.9398C16.0399 11.4389 15.8095 12.1048 15.6234 12.8959L15.6234 12.8969C15.2626 14.4776 15.0102 16.5956 15.06 18.846C15.1068 20.9577 15.5218 22.7889 16.2426 24.0635L16.3907 24.3111C16.7901 24.9516 17.2615 25.434 17.7472 25.7265C18.233 26.019 18.7346 26.1245 19.1961 26.0013C19.6592 25.878 20.0316 25.5405 20.3284 25.0406C20.6247 24.5415 20.8541 23.8759 21.0401 23.0835C21.401 21.5028 21.6544 19.3848 21.6045 17.1343C21.5546 14.8819 21.0857 12.9483 20.2738 11.6693C19.8743 11.0286 19.4022 10.5464 18.9163 10.2539Z" fill="#60D06F" stroke="#082422" stroke-width="0.124234" stroke-miterlimit="10" stroke-linecap="round" stroke-linejoin="round"/>
<path d="M28.2446 52.0047C28.1599 52.1106 28.0582 52.2295 27.9361 52.3569C27.5552 52.7543 26.9793 53.2389 26.1397 53.7072L28.2446 52.0047Z" stroke="#082422" stroke-width="0.196987" stroke-miterlimit="10" stroke-linecap="round" stroke-linejoin="round"/>
<mask id="path-20-inside-2_664_11581" fill="white">
<path d="M25.8881 33.9637C25.8881 33.9637 24.0735 31.2241 24.7982 27.7151C25.4137 24.7357 25.467 19.123 24.7591 17.9441C24.4677 17.4596 23.9457 17.1909 23.4341 17.0431C22.6795 16.8249 21.8931 17.2869 21.7188 18.0508C21.3601 19.6276 20.7148 22.4042 20.2526 24.0439C19.581 26.4289 17.2073 33.5848 17.2073 33.5848"/>
</mask>
<path d="M25.8881 33.9637C25.8881 33.9637 24.0735 31.2241 24.7982 27.7151C25.4137 24.7357 25.467 19.123 24.7591 17.9441C24.4677 17.4596 23.9457 17.1909 23.4341 17.0431C22.6795 16.8249 21.8931 17.2869 21.7188 18.0508C21.3601 19.6276 20.7148 22.4042 20.2526 24.0439C19.581 26.4289 17.2073 33.5848 17.2073 33.5848" fill="#FFCE9B"/>
<path d="M25.723 34.0725C25.7828 34.1628 25.9053 34.1874 25.9965 34.1273C26.0877 34.0673 26.1131 33.9453 26.0532 33.855L25.8881 33.9637L25.723 34.0725ZM24.7982 27.7151L24.6047 27.6766L24.6047 27.6766L24.7982 27.7151ZM24.7591 17.9441L24.9289 17.8427L24.9288 17.8425L24.7591 17.9441ZM23.4341 17.0431L23.3779 17.2317L23.378 17.2317L23.4341 17.0431ZM21.7188 18.0508L21.5262 18.0084L21.5262 18.0085L21.7188 18.0508ZM20.2526 24.0439L20.0625 23.9919L20.0624 23.9919L20.2526 24.0439ZM17.0197 33.5242C16.9855 33.6274 17.0417 33.7382 17.1453 33.7717C17.2489 33.8051 17.3606 33.7486 17.3948 33.6454L17.2073 33.5848L17.0197 33.5242ZM25.8881 33.9637C26.0532 33.855 26.0533 33.855 26.0533 33.855C26.0533 33.855 26.0533 33.8551 26.0533 33.8551C26.0533 33.8551 26.0533 33.855 26.0532 33.8549C26.0531 33.8548 26.0529 33.8544 26.0526 33.854C26.0519 33.853 26.0508 33.8513 26.0494 33.849C26.0464 33.8444 26.0418 33.8372 26.0357 33.8274C26.0235 33.808 26.0052 33.7783 25.9821 33.739C25.9357 33.6604 25.8696 33.5432 25.7922 33.3912C25.6372 33.0871 25.4373 32.6445 25.2595 32.0942C24.9036 30.9928 24.638 29.4659 24.9916 27.7535L24.7982 27.7151L24.6047 27.6766C24.2337 29.4733 24.5131 31.0707 24.8833 32.2164C25.0685 32.7895 25.277 33.2512 25.4396 33.5704C25.521 33.7301 25.591 33.8543 25.641 33.9392C25.666 33.9817 25.6861 34.0144 25.7001 34.0367C25.7071 34.0479 25.7126 34.0565 25.7165 34.0625C25.7184 34.0655 25.7199 34.0678 25.721 34.0695C25.7215 34.0703 25.722 34.071 25.7223 34.0715C25.7225 34.0717 25.7226 34.0719 25.7227 34.0721C25.7228 34.0722 25.7228 34.0723 25.7229 34.0723C25.7229 34.0724 25.723 34.0725 25.8881 33.9637ZM24.7982 27.7151L24.9916 27.7535C25.303 26.2464 25.4707 24.0841 25.4724 22.1534C25.4733 21.1872 25.4327 20.274 25.3467 19.5257C25.3036 19.1517 25.2489 18.8158 25.1815 18.5337C25.1147 18.2546 25.0325 18.0153 24.9289 17.8427L24.7591 17.9441L24.5894 18.0456C24.6627 18.1676 24.7337 18.3617 24.7971 18.6267C24.8598 18.8888 24.9123 19.2082 24.9542 19.5726C25.038 20.3014 25.0783 21.1986 25.0774 22.1553C25.0756 24.0705 24.9089 26.2043 24.6047 27.6766L24.7982 27.7151ZM24.7591 17.9441L24.9288 17.8425C24.6005 17.2967 24.0224 17.0082 23.4902 16.8544L23.4341 17.0431L23.378 17.2317C23.869 17.3736 24.3349 17.6225 24.5895 18.0457L24.7591 17.9441ZM23.4341 17.0431L23.4902 16.8544C22.6263 16.6047 21.7258 17.1335 21.5262 18.0084L21.7188 18.0508L21.9114 18.0933C22.0604 17.4402 22.7326 17.0452 23.3779 17.2317L23.4341 17.0431ZM21.7188 18.0508L21.5262 18.0085C21.1672 19.5861 20.523 22.3578 20.0625 23.9919L20.2526 24.0439L20.4428 24.0959C20.9065 22.4505 21.5529 19.669 21.9115 18.0931L21.7188 18.0508ZM20.2526 24.0439L20.0624 23.9919C19.7279 25.1799 18.9679 27.5612 18.2901 29.6494C17.9516 30.6926 17.6339 31.6613 17.401 32.3693C17.2845 32.7233 17.1892 33.012 17.123 33.2123C17.0899 33.3124 17.0641 33.3904 17.0465 33.4434C17.0378 33.4699 17.0311 33.4901 17.0266 33.5037C17.0243 33.5105 17.0226 33.5156 17.0215 33.5191C17.0209 33.5208 17.0205 33.5221 17.0202 33.5229C17.02 33.5234 17.0199 33.5237 17.0198 33.5239C17.0198 33.524 17.0198 33.5241 17.0198 33.5241C17.0197 33.5242 17.0197 33.5242 17.2073 33.5848C17.3948 33.6454 17.3948 33.6453 17.3948 33.6453C17.3949 33.6452 17.3949 33.6452 17.3949 33.645C17.395 33.6448 17.3951 33.6445 17.3952 33.6441C17.3955 33.6432 17.396 33.6419 17.3965 33.6402C17.3977 33.6367 17.3994 33.6315 17.4017 33.6247C17.4062 33.6111 17.4129 33.5908 17.4217 33.5643C17.4392 33.5113 17.4651 33.4332 17.4982 33.333C17.5644 33.1326 17.6598 32.8437 17.7763 32.4896C18.0094 31.7813 18.3272 30.812 18.666 29.7681C19.343 27.682 20.1057 25.2928 20.4428 24.0958L20.2526 24.0439Z" fill="#082422" mask="url(#path-20-inside-2_664_11581)"/>
<path d="M21.9107 17.7519C22.223 17.5907 22.5727 17.6219 22.8578 17.7027C23.0026 17.7437 23.1273 17.7965 23.2154 17.8391C23.251 17.8563 23.2799 17.8728 23.3023 17.885C23.3016 17.8982 23.3012 17.9133 23.3002 17.9303C23.2964 17.9984 23.2904 18.0968 23.2822 18.2163C23.2656 18.4555 23.2402 18.7804 23.2024 19.123C23.1646 19.466 23.1143 19.8255 23.0512 20.1341C22.9871 20.4471 22.9117 20.6927 22.8283 20.8205C22.7587 20.9267 22.6318 21.004 22.4602 21.0546C22.2899 21.1048 22.0876 21.1252 21.8844 21.1283C21.565 21.1332 21.2557 21.0927 21.0888 21.0673C21.3551 19.9631 21.6096 18.8645 21.7899 18.0695L21.7892 18.0661C21.8163 17.9537 21.8585 17.8491 21.9107 17.7519Z" fill="#FFCE9B" stroke="#082422" stroke-width="0.196987" stroke-miterlimit="10" stroke-linecap="round" stroke-linejoin="round"/>
</g>
<defs>
<clipPath id="clip0_664_11581">
<rect width="37" height="80" fill="white"/>
</clipPath>
</defs>
</svg>
