<svg width="70" height="80" viewBox="0 0 70 80" fill="none" xmlns="http://www.w3.org/2000/svg">
<g clip-path="url(#clip0_664_11615)">
<path d="M52.7044 31.8222L51.8842 33.4263C52.1545 32.8974 55.1371 32.034 55.4059 31.6523C55.4114 31.6448 55.4166 31.6356 55.4217 31.626L56.2419 30.022C56.2368 30.0319 56.2316 30.0407 56.226 30.0483C55.9573 30.4296 52.9747 31.2934 52.7044 31.8222Z" fill="#A8BA00" stroke="#002522" stroke-width="0.11819" stroke-miterlimit="10"/>
<path d="M63.3829 32.3516C63.3186 31.8367 65.0669 29.2169 64.6783 28.7858C64.2892 28.3551 60.9021 29.1595 60.3372 28.9776C59.7719 28.7962 57.228 26.0834 56.7028 26.2206C56.65 26.235 56.6055 26.2812 56.5686 26.3538L55.7484 27.9579C55.7853 27.8857 55.8298 27.839 55.8826 27.8246C56.4082 27.6875 58.9521 30.4002 59.517 30.5817C60.0815 30.7635 63.469 29.9591 63.8581 30.3898C64.2467 30.821 62.4984 33.4404 62.5627 33.9557C62.6266 34.4661 65.0034 37.2068 64.7751 37.6531L65.5953 36.049C65.8232 35.6032 63.4464 32.8621 63.3829 32.3516Z" fill="#A8BA00" stroke="#002522" stroke-width="0.11819" stroke-miterlimit="10"/>
<path d="M55.8828 27.8246C56.4084 27.6874 58.9523 30.4002 59.5172 30.5816C60.0817 30.7635 63.4692 29.9591 63.8583 30.3898C64.2469 30.8209 62.4986 33.4403 62.5629 33.9556C62.6272 34.4713 65.0524 37.263 64.7678 37.6658C64.7471 37.6953 64.7082 37.7169 64.6542 37.7312C63.9694 37.9155 60.8201 36.9854 60.3334 37.1123C60.0877 37.1785 59.5549 37.7524 58.9956 38.3326C58.437 38.9133 57.8526 39.5004 57.5061 39.5937C57.4489 39.6092 57.3981 39.6108 57.3548 39.5973C56.7903 39.4154 56.2984 36.12 55.9098 35.6897C55.5211 35.2586 51.9292 34.0306 51.8645 33.5149C51.8002 32.9993 55.1206 32.0565 55.4048 31.6533C55.6899 31.2504 55.3588 27.9662 55.8824 27.825L55.8828 27.8246Z" fill="#DCFF00" stroke="#002522" stroke-width="0.11819" stroke-miterlimit="10"/>
<path d="M37.3128 54.2646C38.9818 51.4799 45.3857 44.0041 46.9767 41.404C47.5641 40.8652 55.8321 33.2723 56.9444 31.7019C57.647 30.7099 57.6681 30.0789 57.1427 29.4747C55.8653 28.0626 53.9463 30.0003 51.3009 32.4512C51.2772 32.473 54.2724 26.8667 53.831 24.1993C53.7257 23.562 53.2495 23.1397 52.6195 23.0066C52.2063 22.9192 51.743 22.9436 51.2803 23.2681C50.52 23.8018 50.1548 24.9125 49.6886 25.9306C48.9751 27.4897 48.5455 28.2351 47.48 30.2721C47.456 30.3181 45.3522 33.5375 45.3337 33.5733C45.3189 33.5655 47.7159 25.952 45.991 19.2417C45.9694 19.1577 45.9955 19.0702 45.9293 19.0229C45.6463 17.8952 44.9923 17.7294 43.9953 18.0747C42.8321 18.4835 42.4847 19.1819 42.283 20.3402C41.9662 23.3276 42.0866 25.5852 41.7344 27.092C41.4116 28.755 40.5223 30.5547 40.0086 32.1691C39.9719 32.1569 39.93 31.7726 39.8673 31.4968C39.1567 28.3685 36.2277 28.5265 33.6462 28.675C31.5828 28.8604 27.6964 29.1906 27.785 30.6328C27.7263 31.6171 28.4222 32.1477 29.3694 32.6696C30.6166 33.3572 35.2203 32.8163 35.748 33.5057C36.2755 34.1948 35.6817 39.1651 35.2106 39.5041C34.9026 39.7021 31.0144 41.3527 29.7205 41.3867C26.4598 41.4727 28.8174 32.3832 26.536 30.9773C24.9161 29.979 23.8652 31.2538 23.6567 32.593C23.5821 33.0714 23.2585 36.0449 23.227 36.2585C22.9946 37.843 22.7588 39.4318 22.551 41.0158C22.3058 42.9264 22.7192 46.0261 23.7428 47.8943C24.7665 49.7625 25.8114 51.3144 25.83 52.2989C25.9432 53.512 20.1513 68.8465 19.3065 70.8725C23.8051 74.9684 29.3884 75.1082 33.1351 74.8425C33.8277 74.7934 35.2543 57.6987 37.3129 54.2642L37.3128 54.2646Z" fill="#FFCE9B" stroke="#002522" stroke-width="0.11819" stroke-miterlimit="10" stroke-linecap="round"/>
<path d="M26.5714 31.8954C26.5714 31.8954 26.7092 34.5054 26.1295 34.7466C25.5497 34.9879 24.1638 34.9988 24.0178 34.4102C23.8722 33.8216 24.2695 31.7193 24.2695 31.7193C24.2695 31.7193 25.7003 31.156 26.5714 31.8954Z" fill="#FFCE9B" stroke="#002522" stroke-width="0.11819" stroke-miterlimit="10" stroke-linecap="round"/>
<path d="M53.8333 24.209C53.5606 24.1858 53.3725 24.2047 53.3725 24.2047C53.3725 24.2047 52.8529 26.3526 52.9672 26.8622C53.0097 27.052 53.2021 27.1734 53.4527 27.2409C53.7773 26.1196 53.9657 25.0271 53.8333 24.209Z" fill="#FFCE9B" stroke="#002522" stroke-width="0.11819" stroke-miterlimit="10" stroke-linecap="round"/>
<path d="M55.3805 32.5728C55.3117 32.759 55.4328 32.9735 55.6305 33.1664C56.26 32.5196 56.7325 32.0011 56.9448 31.7015C57.1168 31.4585 57.2478 31.2372 57.3402 31.0327C57.1349 30.8679 56.9703 30.7828 56.9703 30.7828C56.9703 30.7828 55.542 32.1358 55.3805 32.5728Z" fill="#FFCE9B" stroke="#002522" stroke-width="0.11819" stroke-miterlimit="10" stroke-linecap="round"/>
<path d="M23.9487 36.8652C23.9171 36.8734 23.8982 36.9057 23.9064 36.9374C23.9146 36.969 23.9468 36.988 23.9783 36.9798L23.9635 36.9225L23.9487 36.8652ZM25.942 37.0975C25.9711 37.1122 26.0066 37.1003 26.0212 37.0711C26.0358 37.0419 26.024 37.0063 25.9949 36.9917L25.9684 37.0446L25.942 37.0975ZM23.9635 36.9225L23.9783 36.9798C24.7411 36.7805 25.5094 36.88 25.942 37.0975L25.9684 37.0446L25.9949 36.9917C25.5329 36.7594 24.7348 36.6599 23.9487 36.8652L23.9635 36.9225Z" fill="#002522"/>
<path d="M24.1835 37.3346C24.1513 37.3398 24.1294 37.3701 24.1345 37.4024C24.1396 37.4347 24.1698 37.4567 24.202 37.4515L24.1928 37.3931L24.1835 37.3346ZM25.6927 37.4963C25.724 37.5054 25.7567 37.4873 25.7658 37.4559C25.7749 37.4245 25.7569 37.3917 25.7256 37.3826L25.7092 37.4394L25.6927 37.4963ZM24.1928 37.3931L24.202 37.4515C24.7818 37.3591 25.3649 37.4007 25.6927 37.4963L25.7092 37.4394L25.7256 37.3826C25.378 37.2813 24.777 37.24 24.1835 37.3346L24.1928 37.3931Z" fill="#002522"/>
<path d="M31.2182 30.1703C31.3132 29.9401 31.1947 29.2813 31.1368 28.9487C30.0796 29.08 29.0971 29.3563 28.4522 29.7019C28.5392 30.3338 28.877 30.9273 28.877 30.9273C28.877 30.9273 31.0771 30.5115 31.2182 30.1703Z" fill="#FFCE9B" stroke="#002522" stroke-width="0.11819" stroke-miterlimit="10" stroke-linecap="round"/>
<path d="M44.7911 18.8064C44.7911 18.8064 45.1538 21.2311 45.4873 21.4646C45.6832 21.6015 46.1201 21.6641 46.4475 21.6925C46.348 20.8723 46.2001 20.0506 45.9922 19.2416C45.9706 19.1576 45.9967 19.0701 45.9305 19.0228C45.8941 18.8777 45.8513 18.7489 45.8026 18.6345C45.2514 18.6215 44.7911 18.8064 44.7911 18.8064Z" fill="#FFCE9B" stroke="#002522" stroke-width="0.11819" stroke-miterlimit="10" stroke-linecap="round"/>
<path d="M39.9387 31.8765L40.0656 32.5791C40.0656 32.5791 40.301 34.0403 40.3409 34.467C40.3854 34.9459 40.4084 35.3283 40.4084 35.3283" fill="#FFCE9B"/>
<path d="M39.9967 31.8659C39.9909 31.8337 39.9602 31.8124 39.9281 31.8182C39.8961 31.8241 39.8748 31.8549 39.8806 31.887L39.9387 31.8765L39.9967 31.8659ZM40.0656 32.5791L40.1239 32.5697L40.1237 32.5686L40.0656 32.5791ZM40.3409 34.467L40.3996 34.4615L40.3996 34.4615L40.3409 34.467ZM40.3495 35.3319C40.3515 35.3645 40.3795 35.3894 40.412 35.3874C40.4445 35.3854 40.4693 35.3573 40.4673 35.3247L40.4084 35.3283L40.3495 35.3319ZM39.9387 31.8765L39.8806 31.887L40.0076 32.5897L40.0656 32.5791L40.1237 32.5686L39.9967 31.8659L39.9387 31.8765ZM40.0656 32.5791C40.0074 32.5886 40.0074 32.5886 40.0074 32.5886C40.0074 32.5886 40.0074 32.5887 40.0074 32.5887C40.0074 32.5887 40.0074 32.5888 40.0074 32.5889C40.0075 32.589 40.0075 32.5893 40.0076 32.5897C40.0077 32.5904 40.0078 32.5914 40.0081 32.5928C40.0085 32.5956 40.0092 32.5997 40.01 32.6051C40.0118 32.6159 40.0143 32.6318 40.0176 32.6521C40.0241 32.6929 40.0334 32.7516 40.0448 32.8234C40.0674 32.967 40.0981 33.1628 40.13 33.372C40.1939 33.7913 40.2624 34.2613 40.2821 34.4726L40.3409 34.467L40.3996 34.4615C40.3795 34.246 40.3103 33.7721 40.2466 33.3541C40.2147 33.1446 40.184 32.9485 40.1613 32.8048C40.15 32.733 40.1406 32.6742 40.1341 32.6334C40.1308 32.613 40.1283 32.597 40.1265 32.5862C40.1257 32.5808 40.125 32.5767 40.1246 32.5739C40.1243 32.5725 40.1242 32.5714 40.124 32.5707C40.124 32.5704 40.1239 32.5701 40.1239 32.5699C40.1239 32.5699 40.1239 32.5698 40.1239 32.5697C40.1239 32.5697 40.1239 32.5697 40.1239 32.5697C40.1239 32.5697 40.1239 32.5697 40.0656 32.5791ZM40.3409 34.467L40.2821 34.4726C40.3043 34.7115 40.3212 34.9264 40.3325 35.0816C40.3381 35.1591 40.3424 35.2218 40.3453 35.265C40.3467 35.2866 40.3478 35.3033 40.3485 35.3147C40.3488 35.3203 40.3491 35.3247 40.3493 35.3275C40.3494 35.329 40.3494 35.3301 40.3495 35.3308C40.3495 35.3312 40.3495 35.3314 40.3495 35.3316C40.3495 35.3317 40.3495 35.3318 40.3495 35.3318C40.3495 35.3318 40.3495 35.3319 40.3495 35.3319C40.3495 35.3319 40.3495 35.3319 40.3495 35.3319C40.3495 35.3319 40.3495 35.3319 40.4084 35.3283C40.4673 35.3247 40.4673 35.3247 40.4673 35.3247C40.4673 35.3247 40.4673 35.3247 40.4673 35.3247C40.4673 35.3247 40.4673 35.3246 40.4673 35.3246C40.4673 35.3246 40.4673 35.3245 40.4673 35.3244C40.4673 35.3242 40.4673 35.3239 40.4672 35.3235C40.4672 35.3228 40.4671 35.3217 40.467 35.3202C40.4669 35.3173 40.4666 35.3129 40.4662 35.3072C40.4655 35.2957 40.4644 35.2789 40.463 35.2571C40.4601 35.2137 40.4558 35.1508 40.4502 35.0729C40.4388 34.9171 40.4219 34.7014 40.3996 34.4615L40.3409 34.467Z" fill="#002522"/>
<path d="M45.4096 33.3018L45.2186 33.9899C45.2186 33.9899 44.7956 35.4084 44.646 35.8102C44.478 36.2609 44.3326 36.6152 44.3326 36.6152" fill="#FFCE9B"/>
<path d="M45.4665 33.3176C45.4752 33.2861 45.4569 33.2535 45.4255 33.2447C45.3941 33.236 45.3615 33.2544 45.3528 33.2859L45.4096 33.3018L45.4665 33.3176ZM45.2186 33.9899L45.2751 34.0068L45.2754 34.0057L45.2186 33.9899ZM44.646 35.8102L44.7013 35.8309L44.7013 35.8309L44.646 35.8102ZM44.278 36.5927C44.2656 36.6229 44.28 36.6575 44.3101 36.6699C44.3402 36.6824 44.3747 36.6679 44.3871 36.6377L44.3326 36.6152L44.278 36.5927ZM45.4096 33.3018L45.3528 33.2859L45.1618 33.974L45.2186 33.9899L45.2754 34.0057L45.4665 33.3176L45.4096 33.3018ZM45.2186 33.9899C45.1621 33.9729 45.1621 33.9729 45.1621 33.9729C45.1621 33.9729 45.1621 33.973 45.1621 33.973C45.1621 33.973 45.162 33.9731 45.162 33.9732C45.162 33.9733 45.1619 33.9736 45.1618 33.9739C45.1616 33.9746 45.1613 33.9756 45.1609 33.977C45.1601 33.9797 45.1589 33.9837 45.1573 33.9889C45.1542 33.9994 45.1496 34.0148 45.1437 34.0346C45.1318 34.0741 45.1147 34.1311 45.0937 34.2007C45.0517 34.3399 44.9942 34.5296 44.932 34.7319C44.8074 35.1374 44.6648 35.5906 44.5907 35.7895L44.646 35.8102L44.7013 35.8309C44.7768 35.628 44.9205 35.171 45.0448 34.7668C45.1071 34.5642 45.1646 34.3742 45.2067 34.2349C45.2277 34.1652 45.2448 34.1082 45.2566 34.0686C45.2626 34.0488 45.2672 34.0334 45.2703 34.0229C45.2719 34.0176 45.2731 34.0136 45.2739 34.0109C45.2743 34.0095 45.2746 34.0085 45.2748 34.0078C45.2749 34.0075 45.275 34.0072 45.2751 34.0071C45.2751 34.007 45.2751 34.0069 45.2751 34.0069C45.2751 34.0068 45.2751 34.0068 45.2751 34.0068C45.2751 34.0068 45.2751 34.0068 45.2186 33.9899ZM44.646 35.8102L44.5907 35.7895C44.5069 36.0144 44.4287 36.2152 44.3714 36.3599C44.3428 36.4322 44.3194 36.4904 44.3032 36.5306C44.2951 36.5506 44.2888 36.5662 44.2845 36.5767C44.2824 36.582 44.2807 36.586 44.2797 36.5886C44.2791 36.59 44.2787 36.591 44.2784 36.5917C44.2783 36.592 44.2782 36.5923 44.2781 36.5924C44.2781 36.5925 44.278 36.5926 44.278 36.5926C44.278 36.5926 44.278 36.5926 44.278 36.5927C44.278 36.5927 44.278 36.5927 44.278 36.5927C44.278 36.5927 44.278 36.5927 44.3326 36.6152C44.3871 36.6377 44.3871 36.6377 44.3871 36.6377C44.3871 36.6377 44.3871 36.6377 44.3871 36.6377C44.3871 36.6377 44.3871 36.6377 44.3871 36.6376C44.3872 36.6376 44.3872 36.6375 44.3872 36.6374C44.3873 36.6373 44.3874 36.637 44.3875 36.6366C44.3878 36.6359 44.3882 36.6349 44.3888 36.6335C44.3899 36.6308 44.3916 36.6268 44.3937 36.6215C44.3981 36.6108 44.4044 36.5952 44.4126 36.575C44.4289 36.5346 44.4524 36.4761 44.4811 36.4035C44.5386 36.2583 44.6171 36.0567 44.7013 35.8309L44.646 35.8102Z" fill="#002522"/>
<path d="M51.3802 32.2939L51.1933 32.6517C51.1933 32.6517 49.5585 35.3833 49.4281 35.5877" fill="#FFCE9B"/>
<path d="M51.4325 32.3214C51.4476 32.2925 51.4365 32.2567 51.4076 32.2415C51.3788 32.2263 51.3431 32.2375 51.328 32.2665L51.3802 32.2939L51.4325 32.3214ZM51.1933 32.6517L51.244 32.6822L51.2456 32.6792L51.1933 32.6517ZM49.3784 35.5558C49.3608 35.5834 49.3688 35.62 49.3963 35.6376C49.4237 35.6552 49.4602 35.6471 49.4778 35.6196L49.4281 35.5877L49.3784 35.5558ZM51.3802 32.2939L51.328 32.2665L51.1411 32.6242L51.1933 32.6517L51.2456 32.6792L51.4325 32.3214L51.3802 32.2939ZM51.1933 32.6517C51.1428 32.6212 51.1428 32.6213 51.1427 32.6213C51.1427 32.6213 51.1427 32.6213 51.1427 32.6214C51.1426 32.6215 51.1426 32.6216 51.1425 32.6217C51.1423 32.6221 51.142 32.6226 51.1416 32.6232C51.1408 32.6245 51.1396 32.6265 51.1381 32.6291C51.135 32.6343 51.1304 32.6419 51.1244 32.652C51.1124 32.672 51.0947 32.7015 51.0723 32.739C51.0273 32.8141 50.9629 32.9216 50.8853 33.0512C50.73 33.3105 50.5216 33.6583 50.3091 34.0125C49.8836 34.7217 49.443 35.4545 49.3784 35.5558L49.4281 35.5877L49.4778 35.6196C49.5435 35.5165 49.9855 34.7813 50.4101 34.0736C50.6227 33.7193 50.8311 33.3715 50.9864 33.1122C51.0641 32.9825 51.1284 32.875 51.1734 32.7999C51.1959 32.7624 51.2135 32.733 51.2255 32.7129C51.2315 32.7029 51.2361 32.6952 51.2392 32.69C51.2408 32.6874 51.2419 32.6855 51.2427 32.6841C51.2431 32.6835 51.2434 32.683 51.2436 32.6827C51.2437 32.6825 51.2438 32.6824 51.2438 32.6823C51.2439 32.6823 51.2439 32.6822 51.2439 32.6822C51.2439 32.6822 51.2439 32.6822 51.1933 32.6517Z" fill="#002522"/>
<mask id="mask0_664_11615" style="mask-type:luminance" maskUnits="userSpaceOnUse" x="19" y="17" width="39" height="58">
<path d="M52.6108 23.0621C53.2212 23.1909 53.6755 23.5971 53.7761 24.2061C53.8844 24.861 53.7816 25.7025 53.5637 26.6004C53.346 27.497 53.0149 28.4449 52.67 29.3096C52.3252 30.1739 51.9674 30.9547 51.6971 31.5181C51.562 31.7997 51.4487 32.0272 51.37 32.1834C51.3307 32.2614 51.2997 32.322 51.2791 32.3626C51.269 32.3826 51.2605 32.3979 51.2555 32.4082C51.253 32.4132 51.2513 32.4178 51.2498 32.421C51.2493 32.4222 51.2484 32.4253 51.2473 32.4285C51.2469 32.4295 51.2453 32.4317 51.2449 32.4332C51.2443 32.4357 51.2434 32.4437 51.2432 32.449C51.2451 32.4634 51.2719 32.4997 51.3016 32.5082L51.342 32.4921L52.3017 31.6018C53.2255 30.748 54.0452 30.0189 54.7683 29.5609C55.2501 29.2558 55.6822 29.0762 56.0682 29.0555C56.4497 29.0351 56.7922 29.1697 57.1002 29.5096C57.355 29.8027 57.4731 30.0967 57.4472 30.4343C57.4209 30.7757 57.2472 31.1714 56.8982 31.6641C56.6235 32.0519 55.9019 32.8173 54.9599 33.7596C54.0196 34.7003 52.8634 35.8133 51.7236 36.8943C49.445 39.0554 47.2314 41.0872 46.9366 41.3576L46.9307 41.3642L46.9261 41.3708C46.1327 42.667 44.1363 45.1827 42.1258 47.727C40.1189 50.2667 38.0977 52.8352 37.26 54.2321L37.2593 54.2327C36.998 54.6686 36.749 55.3178 36.5111 56.1153C36.2729 56.9136 36.0449 57.8648 35.8275 58.9085C35.3927 60.9965 34.9991 63.4584 34.6484 65.8129C34.2974 68.1687 33.9891 70.4165 33.7255 72.0794C33.5937 72.9106 33.4736 73.5939 33.3647 74.0706C33.3102 74.3092 33.2591 74.494 33.2116 74.6188C33.1877 74.6815 33.1655 74.7263 33.1462 74.7546C33.1247 74.7863 33.1163 74.7828 33.1237 74.7823C29.3892 75.0479 23.8447 74.908 19.371 70.8567C19.8198 69.7718 21.4584 65.4869 22.979 61.3025C23.7492 59.1832 24.4897 57.0884 25.0305 55.4478C25.3008 54.628 25.5214 53.9208 25.6711 53.3803C25.7459 53.1102 25.8035 52.8806 25.8403 52.6993C25.8762 52.5229 25.8938 52.3848 25.8867 52.2989L25.8873 52.2996C25.8778 51.7915 25.6043 51.1458 25.2136 50.4024C24.8226 49.6588 24.3022 48.7978 23.793 47.8683C23.2859 46.9425 22.9291 45.7075 22.7293 44.4643C22.5296 43.2213 22.4881 41.9746 22.61 41.0264C22.818 39.4431 23.0542 37.855 23.287 36.2705C23.3031 36.1621 23.3922 35.3635 23.4864 34.5351C23.5808 33.7044 23.6797 32.8433 23.7168 32.6056C23.8197 31.9458 24.1299 31.3086 24.6047 30.9594C24.8411 30.7856 25.1189 30.6826 25.4347 30.6825C25.751 30.6824 26.1098 30.7855 26.5074 31.0304C26.7782 31.1973 26.9843 31.4813 27.1418 31.8577C27.2991 32.234 27.4066 32.6981 27.4816 33.2199C27.6315 34.2644 27.6515 35.5249 27.703 36.7462C27.7544 37.9636 27.8366 39.1435 28.1123 40.0141C28.2503 40.4498 28.4388 40.8132 28.7006 41.0658C28.9643 41.32 29.2992 41.4583 29.722 41.4471C30.0538 41.4384 30.5461 41.327 31.0975 41.1642C31.6507 41.001 32.2696 40.7847 32.8566 40.5635C33.4434 40.3423 33.9995 40.1162 34.4283 39.9327C34.6425 39.841 34.8253 39.7598 34.9643 39.6953C35.1017 39.6315 35.2008 39.5818 35.2434 39.5544L35.2456 39.5525C35.2858 39.5235 35.321 39.4752 35.3523 39.4179C35.3844 39.359 35.4158 39.2843 35.4465 39.198C35.508 39.025 35.5686 38.7975 35.6257 38.5343C35.74 38.0072 35.8428 37.3295 35.9138 36.6425C35.9848 35.9556 36.0245 35.2564 36.0134 34.6852C36.0078 34.3998 35.99 34.1448 35.9561 33.9385C35.9227 33.7349 35.8716 33.5687 35.7961 33.4701C35.718 33.3684 35.5727 33.2977 35.3919 33.2447C35.2082 33.1907 34.9764 33.1515 34.7124 33.1229C34.1843 33.0657 33.5175 33.048 32.8319 33.0297C32.145 33.0114 31.4379 32.9924 30.825 32.936C30.2095 32.8794 29.6992 32.7848 29.3995 32.6196C28.9269 32.3593 28.5243 32.1003 28.2466 31.7876C27.9711 31.4774 27.8178 31.114 27.8462 30.6392L27.8469 30.6385L27.8466 30.6323L27.8495 30.5112C27.8803 30.2357 28.0776 30.0005 28.407 29.7975C28.783 29.5659 29.3177 29.3857 29.9248 29.243C31.1385 28.9579 32.6215 28.8273 33.6543 28.7343C34.9471 28.6596 36.3132 28.585 37.4447 28.9142C38.0092 29.0785 38.5127 29.3432 38.9188 29.7571C39.3247 30.1708 39.6363 30.7373 39.8118 31.5102C39.8426 31.6459 39.8681 31.8082 39.8912 31.9416C39.9027 32.0075 39.914 32.0673 39.9246 32.1115C39.9298 32.1332 39.9353 32.1533 39.9416 32.1694C39.9447 32.1772 39.9483 32.1867 39.9538 32.1951C39.9581 32.2016 39.9702 32.2181 39.9919 32.2253L40.0487 32.2442L40.0662 32.187C40.3225 31.3819 40.6729 30.5315 41.0008 29.6697C41.3278 28.8103 41.632 27.941 41.7948 27.1046L41.7954 27.1054C41.9731 26.3458 42.0305 25.3987 42.0842 24.2737C42.1245 23.4286 42.1627 22.4808 42.246 21.4304L42.3463 20.3466C42.4468 19.7719 42.5827 19.3191 42.8322 18.9602C43.081 18.6023 43.447 18.3322 44.0194 18.1309C44.514 17.9595 44.9087 17.9204 45.2113 18.0504C45.5106 18.1792 45.7377 18.4813 45.877 19.0363L45.8818 19.0581L45.8996 19.071C45.912 19.08 45.9194 19.0922 45.9232 19.1245C45.9252 19.1424 45.9258 19.1591 45.9277 19.183C45.9294 19.2049 45.9316 19.23 45.9382 19.2558C46.7972 22.5999 46.6298 26.172 46.2479 28.9115C46.057 30.2807 45.8122 31.4408 45.6167 32.2591C45.5189 32.6682 45.4339 32.9924 45.3733 33.2139C45.343 33.3245 45.3181 33.4095 45.3018 33.4672C45.2937 33.496 45.2879 33.5188 45.2837 33.534C45.2817 33.5413 45.2802 33.5478 45.2791 33.5524C45.2786 33.5545 45.277 33.5571 45.2765 33.5599C45.2763 33.561 45.2762 33.5644 45.276 33.5681C45.2759 33.5705 45.2762 33.5769 45.2766 33.5807C45.2786 33.5891 45.2922 33.6132 45.3076 33.6249L45.3598 33.6518L45.3873 33.5988C45.3864 33.6007 45.3873 33.6 45.3926 33.5915L45.4809 33.4537C45.5402 33.3622 45.6243 33.2335 45.7245 33.0797C45.9247 32.7722 46.1902 32.3647 46.4559 31.9572C46.7216 31.5497 46.9879 31.1422 47.1888 30.8334C47.2893 30.6789 47.3734 30.5486 47.4333 30.456C47.4631 30.4099 47.487 30.373 47.5038 30.3468C47.5193 30.3226 47.5315 30.3034 47.5346 30.2975C48.5995 28.2621 49.0305 27.5139 49.7451 25.9529C49.9803 25.4393 50.1855 24.9135 50.4294 24.4434C50.6727 23.9746 50.9489 23.5729 51.3174 23.3142C51.708 23.0403 52.0982 22.9885 52.4584 23.0364L52.6108 23.0621Z" fill="white" stroke="white" stroke-width="0.11819"/>
</mask>
<g mask="url(#mask0_664_11615)">
<path fill-rule="evenodd" clip-rule="evenodd" d="M17.4704 38.8616C17.3418 38.7743 17.2252 38.7378 17.124 38.7642L17.1255 38.7634C16.554 38.918 15.7422 41.2638 15.0114 43.3759C14.4772 44.9194 13.9863 46.338 13.6639 46.6855C13.3418 47.0323 12.0328 47.552 10.6085 48.1174C8.65722 48.8921 6.4896 49.7526 6.34685 50.3723C6.20413 50.9924 7.90318 52.1652 9.43284 53.2211C10.5497 53.9921 11.5763 54.7007 11.7297 55.0863C11.8834 55.4712 11.7153 56.9155 11.5323 58.4872C11.2817 60.6407 11.0032 63.0334 11.4865 63.2676C11.551 63.2985 11.6387 63.2969 11.7467 63.2675C12.4013 63.0911 13.8031 61.9021 15.1553 60.7251C15.2795 60.6171 15.4033 60.5093 15.5261 60.4024C16.7413 59.3439 17.8559 58.3731 18.2774 58.2595C18.6947 58.1503 19.9004 58.5236 21.212 58.9298C22.7808 59.4156 24.5012 59.9483 25.2057 59.7586C25.3077 59.7308 25.3887 59.6885 25.4442 59.6283C25.885 59.1536 25.3372 56.9776 24.8438 55.0183C24.4836 53.5875 24.1524 52.2722 24.2566 51.8194C24.3605 51.3671 25.2735 50.1529 26.2669 48.8318C27.6276 47.0223 29.1392 45.0121 28.9291 44.484C28.9226 44.4678 28.9143 44.4524 28.9041 44.4377C28.9149 44.4529 28.9236 44.469 28.9304 44.4858C29.1405 45.014 27.6289 47.0241 26.2682 48.8337C25.2748 50.1547 24.3618 51.3688 24.258 51.8212C24.1537 52.274 24.4849 53.5892 24.8452 55.02C25.3385 56.9793 25.8864 59.1553 25.4455 59.63C25.39 59.6902 25.309 59.7324 25.207 59.7603C24.5025 59.95 22.7821 59.4173 21.2133 58.9315L21.2133 58.9315C19.9016 58.5253 18.696 58.152 18.2787 58.2612C17.8571 58.3749 16.7425 59.3456 15.5272 60.4041L15.5268 60.4045C15.4042 60.5113 15.2805 60.6189 15.1565 60.7267C13.8042 61.9037 12.4025 63.0928 11.7478 63.2692C11.6398 63.2986 11.5521 63.3001 11.4876 63.2692L14.3367 65.1143C14.4004 65.1452 14.4881 65.1436 14.5969 65.1142C15.2515 64.9378 16.6533 63.7488 18.0055 62.5718C18.125 62.4679 18.2441 62.3642 18.3622 62.2612L18.3622 62.2612C19.583 61.1974 20.7052 60.2196 21.1277 60.1062C21.545 59.997 22.7508 60.3704 24.0627 60.7766C25.6317 61.2623 27.3523 61.7951 28.0568 61.6054C28.1588 61.5782 28.2398 61.5353 28.2953 61.475C28.7368 60.9997 28.1884 58.8219 27.6948 56.8619L27.6948 56.8619C27.3347 55.4324 27.0039 54.1187 27.1078 53.6663L27.107 53.6663C27.2112 53.2141 28.1235 52.0007 29.1164 50.6803C30.4774 48.8704 31.9896 46.8592 31.7795 46.3309C31.7585 46.2789 31.7188 46.2345 31.661 46.1976L28.835 44.3674C28.3496 44.0029 26.3497 44.2561 24.5343 44.4859C23.9717 44.5571 23.4267 44.6261 22.9501 44.6737C22.8234 44.4547 22.6931 44.2264 22.5607 43.9944L22.5607 43.9944L22.5607 43.9944C21.7663 42.6023 20.8986 41.0819 20.2998 40.694L17.4704 38.8616Z" fill="black" fill-opacity="0.2"/>
</g>
<path d="M15.0258 38.8453L17.8759 40.6914C17.0883 40.1813 15.0678 35.6121 13.963 34.8963L11.1129 33.0503C12.2177 33.7661 14.2382 38.3352 15.0258 38.8453Z" fill="#A8BA00" stroke="#002522" stroke-width="0.11819" stroke-miterlimit="10"/>
<path d="M20.7717 47.8695C21.0185 46.7973 25.8074 41.4476 25.4436 40.5336C25.4226 40.4816 25.3829 40.4372 25.3251 40.4002L22.475 38.5542C22.5328 38.5911 22.5725 38.6356 22.5935 38.6876C22.9573 39.6015 18.1676 44.9513 17.9216 46.0235C17.6748 47.0964 19.8739 53.0128 19.1111 53.8341C19.0556 53.8944 18.9746 53.9366 18.8726 53.9644C17.5788 54.3126 12.8589 52.2239 11.9424 52.4635C11.4781 52.5886 10.1738 53.7527 8.82004 54.9289C7.46774 56.1058 6.06594 57.2948 5.41116 57.4712C5.30316 57.5005 5.2154 57.502 5.1509 57.4712L8.001 59.3172C8.06476 59.3481 8.15251 59.3466 8.26126 59.3172C8.91604 59.1409 10.3178 57.9519 11.6701 56.7749C13.0239 55.598 14.329 54.4339 14.7925 54.3095C15.709 54.0699 20.4297 56.1586 21.7235 55.8105C21.8255 55.7833 21.9065 55.7404 21.962 55.6801C22.7255 54.8581 20.5265 48.9425 20.7725 47.8695H20.7717Z" fill="#A8BA00" stroke="#002522" stroke-width="0.11819" stroke-miterlimit="10"/>
<path d="M10.7852 32.9644C11.7752 32.7068 14.2316 38.4641 15.0686 38.8687C15.9049 39.2741 22.2298 37.7747 22.5944 38.6879C22.9581 39.6019 18.1685 44.9516 17.9224 46.0238C17.6757 47.0968 19.8748 53.0131 19.112 53.8344C19.0565 53.8947 18.9755 53.9369 18.8735 53.9648C17.5797 54.3129 12.8598 52.2242 11.9432 52.4638C11.479 52.5889 10.1747 53.7531 8.82088 54.9292C7.46858 56.1062 6.06678 57.2952 5.412 57.4715C5.304 57.5009 5.21624 57.5024 5.15174 57.4715C4.31546 57.0661 5.75776 50.2011 5.39325 49.2887C5.02949 48.3747 -0.238701 45.6456 0.00805787 44.5726C0.254817 43.5004 6.56254 41.7086 7.32607 40.8866C8.08959 40.0638 9.79741 33.2312 10.7867 32.9637L10.7852 32.9644Z" fill="#DCFF00" stroke="#002522" stroke-width="0.11819" stroke-miterlimit="10"/>
<path d="M52.0474 41.8672L48.2528 44.325C46.7639 45.289 44.0118 51.2139 42.9463 51.903L46.7409 49.4452C47.8054 48.755 50.5585 42.8312 52.0474 41.8672Z" fill="#A8BA00" stroke="#002522" stroke-width="0.11819" stroke-miterlimit="10"/>
<path d="M59.5411 74.4105C59.4592 74.4486 59.3474 74.4466 59.2116 74.4105C57.489 73.947 51.7931 67.9409 50.5738 67.6029C49.9567 67.4363 48.0764 68.0132 46.1321 68.5709C44.1889 69.1297 42.1807 69.6704 41.309 69.4357C41.1652 69.3965 41.0514 69.3374 40.9755 69.2521C39.9729 68.1426 43.0275 60.3428 42.72 58.9133C42.4134 57.4837 36.1254 50.2678 36.6306 49.065C36.6586 48.9988 36.7095 48.9436 36.7814 48.8965L32.9868 51.3543C32.9149 51.4014 32.863 51.4566 32.836 51.5228C32.3317 52.7256 38.6188 59.9415 38.9254 61.3711C39.2329 62.7996 36.1783 70.6004 37.1809 71.7099C37.2577 71.7942 37.3706 71.8543 37.5144 71.8935C38.3861 72.1282 40.3943 71.5875 42.3375 71.0287C44.2828 70.471 46.1621 69.8941 46.7792 70.0607C47.9985 70.3987 53.6944 76.4048 55.4159 76.8683C55.5518 76.9044 55.6626 76.9074 55.7455 76.8683C55.7565 76.8632 55.7674 76.8572 55.7784 76.8502L59.573 74.3924C59.5621 74.3994 59.5511 74.4054 59.5401 74.4105H59.5411Z" fill="#A8BA00" stroke="#002522" stroke-width="0.11819" stroke-miterlimit="10"/>
<path d="M52.5062 41.7469C53.8243 42.1121 55.9683 51.236 56.9718 52.3455C57.9744 53.4551 66.3605 55.9821 66.6681 57.4126C66.9746 58.8422 59.8867 62.3403 59.3824 63.5431C58.8771 64.7479 60.6646 73.8929 59.5402 74.4116C59.4583 74.4497 59.3465 74.4477 59.2106 74.4116C57.4881 73.9481 51.7922 67.942 50.5729 67.604C49.9558 67.4374 48.0755 68.0143 46.1312 68.572C44.188 69.1308 42.1798 69.6715 41.3081 69.4368C41.1643 69.3977 41.0504 69.3385 40.9746 69.2532C39.972 68.1437 43.0266 60.3439 42.7191 58.9144C42.4125 57.4849 36.1244 50.2689 36.6297 49.0661C37.135 47.8613 45.5491 50.0031 46.6735 49.4835C47.7979 48.9658 51.189 41.3928 52.5062 41.7469Z" fill="#DCFF00" stroke="#002522" stroke-width="0.11819" stroke-miterlimit="10"/>
<path d="M31.004 17.0676C30.7536 16.5776 28.0541 15.7471 27.8145 15.3939C27.8105 15.388 27.8065 15.3811 27.8029 15.3738L28.555 16.8446C28.5586 16.8519 28.5626 16.8585 28.5666 16.8647C28.8061 17.2176 31.5053 18.0484 31.7561 18.5384L31.004 17.0676Z" fill="#A8BA00" stroke="#002522" stroke-width="0.11819" stroke-miterlimit="10"/>
<path d="M28.1925 13.339C28.2391 13.3518 28.2781 13.3924 28.3101 13.4553L27.5581 11.9845C27.526 11.9216 27.4871 11.8814 27.4405 11.8682C26.9604 11.7391 24.5914 14.1947 24.0727 14.3541C23.5532 14.514 20.4693 13.7288 20.1064 14.1197C19.7438 14.5103 21.2989 16.9421 21.2308 17.415C21.1635 17.8874 18.8993 20.4213 19.1527 20.7954L19.8942 22.2457C19.7256 21.8087 21.9166 19.3502 21.9825 18.8858C22.0506 18.4129 20.4955 15.9811 20.8581 15.5905C21.221 15.1996 24.3045 15.9848 24.8243 15.8249C25.3434 15.6659 27.712 13.2099 28.1922 13.339H28.1925Z" fill="#A8BA00" stroke="#002522" stroke-width="0.11819" stroke-miterlimit="10"/>
<path d="M28.1922 13.3389C28.6709 13.4716 28.3127 16.4904 28.566 16.8649C28.8197 17.2393 31.8407 18.1506 31.773 18.6235C31.7056 19.0963 28.4004 20.1773 28.0375 20.5678C27.6746 20.9588 27.17 23.9812 26.6502 24.1406C26.6124 24.1523 26.568 24.1505 26.5188 24.1373C25.8913 23.9684 24.4116 21.9399 23.9689 21.817C23.744 21.7563 22.9137 21.9275 22.0608 22.092C21.2075 22.257 20.3314 22.4149 20.0136 22.3297C19.9612 22.3155 19.924 22.2946 19.9047 22.2661C19.6514 21.892 21.9155 19.3581 21.9829 18.8857C22.051 18.4128 20.4959 15.981 20.8585 15.5904C21.2214 15.1995 24.3049 15.9847 24.8247 15.8249C25.3438 15.6658 27.7124 13.2098 28.1925 13.3389H28.1922Z" fill="#DCFF00" stroke="#002522" stroke-width="0.11819" stroke-miterlimit="10"/>
<path d="M40.6619 11.7019C40.672 11.7459 40.6688 11.8039 40.655 11.8741L41.2428 8.89313C41.2566 8.82292 41.2598 8.76496 41.2497 8.72094C41.1194 8.15203 37.7306 5.30227 37.8517 4.68799L37.2639 7.66897C37.1427 8.28378 40.5315 11.133 40.6619 11.7019Z" fill="#A8BA00" stroke="#002522" stroke-width="0.11819" stroke-miterlimit="10"/>
<path d="M51.3356 10.7862C51.3063 10.8263 51.284 10.8887 51.2681 10.9695L50.6803 13.9505C50.6962 13.8696 50.7185 13.8072 50.7478 13.7672C51.0958 13.2967 55.3626 12.015 55.4828 11.405L56.0706 8.42409C55.9504 9.0341 51.6842 10.3158 51.3356 10.7862Z" fill="#A8BA00" stroke="#002522" stroke-width="0.11819" stroke-miterlimit="10"/>
<path d="M51.0116 15.2263C50.9592 15.2406 50.8908 15.2386 50.8086 15.2221C49.7647 15.0136 46.4859 12.5031 45.7469 12.3516C45.3727 12.2768 44.1912 12.4897 42.97 12.6941C41.7503 12.8993 40.4909 13.0961 39.9621 12.9904C39.8746 12.973 39.8075 12.9474 39.7633 12.9121C39.6611 12.8298 39.6461 12.6628 39.69 12.4402L39.1026 15.4179C39.0587 15.6405 39.0737 15.8075 39.1759 15.8898C39.2196 15.925 39.2873 15.9507 39.3747 15.9682C39.903 16.0737 41.1624 15.877 42.3826 15.6718C43.6038 15.4674 44.7849 15.2545 45.1595 15.3293C45.898 15.4807 49.1774 17.9913 50.2213 18.1999C50.3034 18.2163 50.3719 18.2184 50.4243 18.204C50.5583 18.1667 50.6411 18.0038 50.689 17.761L51.2763 14.7833C51.2284 15.0261 51.1456 15.189 51.0116 15.2263Z" fill="#A8BA00" stroke="#002522" stroke-width="0.11819" stroke-miterlimit="10"/>
<path d="M47.9496 1.83095C48.7479 1.9947 49.7155 5.73629 50.2905 6.19981C50.8654 6.66333 55.9381 7.78753 56.0725 8.37369C56.2058 8.95964 51.6986 10.3046 51.3408 10.7892C50.9823 11.2742 51.7281 15.0207 51.0149 15.2188C50.9625 15.2332 50.894 15.2312 50.8119 15.2148C49.768 15.0064 46.4898 12.4949 45.7508 12.3436C45.3767 12.2689 44.195 12.4824 42.9736 12.6874C41.7537 12.8932 40.4942 13.0906 39.9654 12.9851C39.878 12.9676 39.8108 12.9421 39.7666 12.9067C39.1917 12.4432 41.3792 9.2999 41.2458 8.71448C41.112 8.12843 37.516 5.11798 37.8739 4.63284C38.2324 4.14781 43.3377 5.11545 44.0511 4.91682C44.7649 4.71882 47.151 1.67155 47.9496 1.83095Z" fill="#DCFF00" stroke="#002522" stroke-width="0.11819" stroke-miterlimit="10"/>
</g>
<defs>
<clipPath id="clip0_664_11615">
<rect width="70" height="80" fill="white"/>
</clipPath>
</defs>
</svg>
