<svg width="38" height="80" viewBox="0 0 38 80" fill="none" xmlns="http://www.w3.org/2000/svg">
<g clip-path="url(#clip0_664_11568)">
<path d="M20.6033 43.5056C20.6033 43.5056 22.58 39.9164 22.9509 36.759C23.3835 33.0857 22.3171 29.6717 22.3171 29.6717L16.4501 23.2545L8.1046 27.3305L18.2526 43.3027L20.6021 43.5069L20.6033 43.5056Z" fill="#FFCE9B" stroke="#082422" stroke-width="0.164607" stroke-miterlimit="10" stroke-linecap="round" stroke-linejoin="round"/>
<path d="M12.1296 29.0017C12.0957 28.9715 12.0437 28.9744 12.0134 29.0084C11.9831 29.0423 11.986 29.0943 12.0198 29.1246L12.0747 29.0631L12.1296 29.0017ZM16.1669 38.134C16.1714 38.1792 16.2118 38.2122 16.257 38.2075C16.3022 38.2029 16.3352 38.1625 16.3306 38.1173L16.2487 38.1257L16.1669 38.134ZM12.0747 29.0631L12.0198 29.1246C12.9252 29.9331 15.5871 32.382 16.1669 38.134L16.2487 38.1257L16.3306 38.1173C15.7454 32.3104 13.0532 29.8266 12.1296 29.0017L12.0747 29.0631Z" fill="#082422"/>
<path d="M12.0372 4.43868L13.6455 32.1108C13.6844 32.7788 14.261 33.2888 14.9332 33.2492L32.361 32.2242C33.0331 32.1846 33.5471 31.6107 33.5082 30.9427L31.8999 3.2706C31.861 2.60256 31.2843 2.09258 30.6121 2.1322L13.1844 3.15714C12.5122 3.19675 11.9983 3.77063 12.0372 4.43868Z" fill="#45B754" stroke="#082422" stroke-width="0.164607" stroke-miterlimit="10" stroke-linecap="round" stroke-linejoin="round"/>
<path d="M37.5755 27.2551L28.153 1.17383C27.9253 0.543745 27.2268 0.217004 26.5928 0.444034L10.1663 6.32609C9.53227 6.55312 9.20283 7.24796 9.43047 7.87804L18.853 33.9594C19.0806 34.5894 19.7791 34.9162 20.4132 34.6891L36.8397 28.8071C37.4737 28.5801 37.8031 27.8852 37.5755 27.2551Z" fill="#2BF2F1" stroke="#082422" stroke-width="0.164607" stroke-miterlimit="10" stroke-linecap="round" stroke-linejoin="round"/>
<path d="M19.6442 18.4536L15.6988 7.53804C15.6104 7.29347 15.3394 7.16657 15.0935 7.25459L15.0864 7.25712C14.8405 7.34514 14.7128 7.61475 14.8012 7.85932L18.7465 18.7749C18.8349 19.0195 19.1059 19.1464 19.3518 19.0583L19.3589 19.0558C19.6049 18.9678 19.7325 18.6982 19.6442 18.4536Z" fill="white" stroke="#082422" stroke-width="0.164607" stroke-miterlimit="10" stroke-linecap="round" stroke-linejoin="round"/>
<path d="M20.251 26.4314L13.6819 8.25848C13.5935 8.01393 13.3225 7.88701 13.0766 7.975L13.0696 7.97753C12.8237 8.06553 12.696 8.33511 12.7844 8.57967L19.3535 26.7526C19.4419 26.9972 19.7129 27.1241 19.9588 27.0361L19.9659 27.0335C20.2117 26.9456 20.3394 26.676 20.251 26.4314Z" fill="white" stroke="#082422" stroke-width="0.164607" stroke-miterlimit="10" stroke-linecap="round" stroke-linejoin="round"/>
<path d="M21.8558 5.66561L23.1159 9.15351C23.2434 9.50529 23.0544 9.89556 22.694 10.0253L20.606 10.7726C20.2456 10.9011 19.8508 10.72 19.7233 10.3683L18.4632 6.88035C18.3357 6.52857 18.5247 6.13831 18.885 6.00853L20.9731 5.26128C21.3334 5.13274 21.7283 5.31383 21.8558 5.66561Z" fill="#FFCE9B" stroke="#082422" stroke-width="0.164607" stroke-miterlimit="10" stroke-linecap="round" stroke-linejoin="round"/>
<path d="M23.2026 9.12141L21.9426 5.63351C21.7974 5.23432 21.3497 5.02843 20.9404 5.17461L18.8524 5.92186C18.4443 6.06803 18.229 6.51082 18.3729 6.91126L19.633 10.3992C19.7782 10.7984 20.2258 11.0042 20.6352 10.8581L22.7232 10.1108C23.1313 9.96465 23.3466 9.52185 23.2014 9.12142L23.2026 9.12141ZM21.5828 8.18865C21.5828 8.18865 21.5803 8.19116 21.5777 8.19117C21.569 8.19619 21.5614 8.20246 21.5539 8.20997C21.5526 8.21123 21.5514 8.21248 21.5501 8.21498C21.5439 8.2225 21.5389 8.23126 21.5351 8.24001C21.5351 8.24001 21.5339 8.24126 21.5339 8.24251C21.4014 8.64882 20.9596 8.87753 20.546 8.75146C20.4781 8.73044 20.414 8.70193 20.3549 8.6634C20.3536 8.6634 20.3523 8.6634 20.3498 8.66216C20.3322 8.65223 20.3121 8.64855 20.292 8.65111C20.2882 8.65112 20.2845 8.65113 20.2807 8.65239C20.2782 8.6524 20.2744 8.65242 20.2719 8.65367L19.324 8.99389L19.0323 8.18803L19.9815 7.84781C19.9815 7.84781 19.9853 7.8453 19.9878 7.84404C19.9916 7.84278 19.9953 7.84027 19.9978 7.83776C20.0054 7.83399 20.0116 7.82773 20.0179 7.82146C20.0192 7.82021 20.0204 7.81771 20.0217 7.81646C20.0279 7.80894 20.0329 7.80018 20.0367 7.79018C20.0367 7.79018 20.0367 7.79018 20.0367 7.78769C20.1691 7.38137 20.611 7.15266 21.0233 7.27749C21.0912 7.29851 21.1553 7.32702 21.2157 7.36555C21.2157 7.36555 21.2169 7.36554 21.2182 7.36554C21.227 7.37051 21.2358 7.37423 21.2459 7.37669C21.2484 7.37668 21.2496 7.37793 21.2521 7.37792C21.2609 7.37789 21.2697 7.37787 21.2773 7.37784C21.281 7.37783 21.2848 7.37782 21.2886 7.37656C21.2911 7.37655 21.2936 7.37654 21.2961 7.37653L22.2453 7.0363L22.537 7.84217L21.5878 8.18239C21.5878 8.18239 21.5815 8.18616 21.579 8.18741L21.5828 8.18865ZM21.2438 10.4452L20.7097 8.967C20.9773 8.98613 21.2435 8.89411 21.4417 8.71239L21.9733 10.1844L21.2438 10.4452ZM20.3155 5.59248L20.847 7.06449C20.5781 7.05036 20.3145 7.14736 20.1201 7.33282L19.586 5.85457L20.3155 5.59373L20.3155 5.59248ZM21.7668 5.69651L22.1885 6.86539L21.2807 7.1905C21.2103 7.15076 21.1361 7.11977 21.0582 7.09754L20.4913 5.52948L21.0023 5.34676C21.3137 5.23586 21.6557 5.39213 21.7655 5.69652L21.7668 5.69651ZM18.9155 6.094L19.4102 5.91633L19.9809 7.49562C19.9395 7.55695 19.9057 7.622 19.8807 7.69077L18.9729 8.01587L18.5512 6.847C18.4414 6.54262 18.6054 6.20489 18.9168 6.09275L18.9155 6.094ZM19.8101 10.3362L19.3883 9.16729L20.2961 8.84218C20.3603 8.87819 20.4282 8.90795 20.4986 8.92896L21.0693 10.5082L20.5746 10.6859C20.2632 10.7968 19.9212 10.6405 19.8113 10.3362L19.8101 10.3362ZM22.1503 10.1214L21.5834 8.55333C21.6298 8.48699 21.6673 8.41568 21.6961 8.34066L22.6039 8.01555L23.0256 9.18442C23.1354 9.4888 22.9715 9.82653 22.6601 9.93868L22.1491 10.1214L22.1503 10.1214Z" fill="#082422"/>
<g opacity="0.15">
<mask id="mask0_664_11568" style="mask-type:luminance" maskUnits="userSpaceOnUse" x="9" y="0" width="29" height="35">
<path d="M9.44725 7.85669L18.8207 33.9554C19.0472 34.5859 19.745 34.9139 20.3795 34.6881L36.817 28.8361C37.4514 28.6103 37.7822 27.916 37.5557 27.2855L28.1822 1.18682C27.9558 0.556312 27.2579 0.228287 26.6235 0.454155L10.186 6.30609C9.55154 6.53195 9.2208 7.22618 9.44725 7.85669Z" fill="white"/>
</mask>
<g mask="url(#mask0_664_11568)">
<path d="M20.9498 44.5988L27.2098 69.7634C27.3128 70.1778 27.1796 70.615 26.8592 70.9002C25.9572 71.7043 23.907 73.3104 21.0427 74.222C18.0931 75.1613 13.7767 75.2457 11.8083 75.2296C11.2128 75.2241 10.7179 74.7715 10.6627 74.1822L8.02961 46.0646C8.02961 46.0646 5.19338 42.7018 3.42504 38.1052C2.32736 35.2496 0.983657 30.2028 0.647123 28.6985C0.349517 27.3666 0.200242 24.8893 0.397561 23.7839C0.772091 21.6868 1.44051 20.3748 2.69311 18.4526C3.62157 17.0266 5.87544 14.2427 7.82905 11.7588C8.69467 10.6576 10.5313 9.96833 11.9118 10.2287L24.4637 12.592C25.299 12.7495 25.7914 13.6154 25.4974 14.41C24.8854 16.0641 23.1431 15.8979 21.9648 15.9719C19.3569 16.1364 16.7214 15.573 16.7214 15.573L22.8397 24.0224C23.2969 24.6549 23.1347 25.558 22.4601 25.956C22.0066 26.2238 21.4287 26.2733 20.7542 26.2292L23.0715 30.7377C23.329 31.2306 22.9307 32.094 22.2573 32.4221C21.5613 32.7627 21.025 32.6435 20.4408 32.3434L21.0498 35.6067C21.1741 36.2733 20.7457 36.9195 20.0812 37.0702C19.3186 37.2448 18.7998 37.012 18.2245 36.3272C17.5249 35.4953 15.8734 31.0882 15.3696 31.0552C14.8659 31.0222 11.0622 30.4204 11.0622 30.4204" fill="#082422"/>
</g>
</g>
<path d="M20.8185 43.0462L32.3482 75.5626C32.4512 75.977 32.318 76.4142 31.9976 76.6994C31.0956 77.5035 27.0715 78.46 24.103 78.9335C20.1382 79.5656 16.4839 79.9965 14.5153 79.9804C13.9198 79.975 13.4249 79.5224 13.3697 78.9331L7.84754 45.1025C7.84754 45.1025 5.98609 40.5737 4.02163 36.0562C2.76558 33.166 0.737115 27.6172 0.400543 26.113C0.102903 24.7811 -0.118106 23.4666 0.0792009 22.3613C0.453707 20.2643 1.36708 19.0621 2.61844 17.14C3.5469 15.714 5.17139 13.4568 7.12503 10.9732C7.99066 9.87194 9.82734 9.18274 11.2079 9.44311L24.3319 11.0439C25.1673 11.2013 25.6597 12.0672 25.3656 12.8618C24.7537 14.5158 23.1043 14.5629 21.9246 14.6382C19.3167 14.8027 16.8557 14.4027 16.8557 14.4027L22.708 22.4735C23.1652 23.1059 23.0031 24.0089 22.3285 24.4069C21.875 24.6747 21.2971 24.7242 20.6225 24.6801L22.94 29.1884C23.1975 29.6813 22.7992 30.5446 22.1258 30.8726C21.4298 31.2132 20.8934 31.0941 20.3093 30.7939L20.9183 34.0571C21.0426 34.7237 20.6142 35.3698 19.9496 35.5205C19.1871 35.6951 18.6683 35.4623 18.093 34.7775C17.3933 33.9456 15.7416 29.5389 15.2379 29.5058C14.7341 29.4728 10.9302 28.871 10.9302 28.871" fill="#FFCE9B"/>
<path d="M20.896 43.0186C20.8809 42.9757 20.8338 42.9534 20.791 42.9686C20.7481 42.9839 20.7257 43.031 20.7409 43.0738L20.8185 43.0462L20.896 43.0186ZM32.3482 75.5626L32.4285 75.5426L32.4258 75.535L32.3482 75.5626ZM31.9976 76.6994L31.943 76.6379L31.9429 76.638L31.9976 76.6994ZM24.103 78.9335L24.1158 79.0148L24.1158 79.0148L24.103 78.9335ZM14.5153 79.9804L14.5144 80.0627L14.5145 80.0627L14.5153 79.9804ZM13.3697 78.9331L13.4518 78.9253L13.4509 78.9197L13.3697 78.9331ZM7.84754 45.1025L7.92877 45.0891C7.92776 45.083 7.92605 45.0769 7.92367 45.0711L7.84754 45.1025ZM4.02163 36.0562L3.94614 36.0891L3.94614 36.0891L4.02163 36.0562ZM0.400543 26.113L0.32022 26.1311L0.320225 26.1311L0.400543 26.113ZM0.0792009 22.3613L-0.00181992 22.347L-0.00182112 22.347L0.0792009 22.3613ZM2.61844 17.14L2.54949 17.0951L2.54948 17.0951L2.61844 17.14ZM7.12503 10.9732L7.18969 11.024L7.18971 11.024L7.12503 10.9732ZM11.2079 9.44311L11.1925 9.52416L11.1979 9.52481L11.2079 9.44311ZM24.3319 11.0439L24.3473 10.9628L24.3419 10.9622L24.3319 11.0439ZM25.3656 12.8618L25.2885 12.8333L25.2885 12.8333L25.3656 12.8618ZM21.9246 14.6382L21.9297 14.7203L21.9298 14.7203L21.9246 14.6382ZM16.8557 14.4027L16.869 14.3215C16.8361 14.3161 16.8032 14.3312 16.7857 14.3596C16.7682 14.388 16.7695 14.4241 16.789 14.4511L16.8557 14.4027ZM22.708 22.4735L22.7747 22.4252L22.7747 22.4251L22.708 22.4735ZM22.3285 24.4069L22.2867 24.336L22.2867 24.336L22.3285 24.4069ZM20.6225 24.6801L20.628 24.598C20.5984 24.596 20.57 24.6102 20.5537 24.635C20.5374 24.6598 20.5357 24.6915 20.5493 24.7178L20.6225 24.6801ZM22.94 29.1884L22.8667 29.2261L22.867 29.2266L22.94 29.1884ZM22.1258 30.8726L22.0898 30.7987L22.0897 30.7987L22.1258 30.8726ZM20.3093 30.7939L20.347 30.7207C20.319 30.7063 20.2853 30.7092 20.2601 30.7279C20.2349 30.7467 20.2226 30.7782 20.2284 30.8091L20.3093 30.7939ZM20.9183 34.0571L20.9992 34.0419L20.9992 34.0418L20.9183 34.0571ZM19.9496 35.5205L19.9316 35.4402L19.9314 35.4403L19.9496 35.5205ZM18.093 34.7775L18.156 34.7246L18.156 34.7245L18.093 34.7775ZM10.9432 28.7897C10.8983 28.7826 10.8561 28.8133 10.849 28.8582C10.8418 28.903 10.8724 28.9452 10.9173 28.9523L10.9302 28.871L10.9432 28.7897ZM20.8185 43.0462L20.7409 43.0738L32.2706 75.5902L32.3482 75.5626L32.4258 75.535L20.896 43.0186L20.8185 43.0462ZM32.3482 75.5626L32.2683 75.5826C32.364 75.9676 32.2403 76.3733 31.943 76.6379L31.9976 76.6994L32.0523 76.7608C32.3958 76.4552 32.5384 75.9865 32.4281 75.5427L32.3482 75.5626ZM31.9976 76.6994L31.9429 76.638C31.7297 76.8281 31.3217 77.0342 30.7718 77.2442C30.2249 77.453 29.5475 77.6619 28.8041 77.8609C27.3174 78.2589 25.5721 78.6158 24.0901 78.8522L24.103 78.9335L24.1158 79.0148C25.6025 78.7777 27.3534 78.4196 28.8464 78.0199C29.5929 77.8201 30.2762 77.6095 30.8303 77.398C31.3813 77.1876 31.8146 76.9727 32.0524 76.7608L31.9976 76.6994ZM24.103 78.9335L24.0902 78.8522C20.1251 79.4844 16.477 79.9142 14.5161 79.8981L14.5153 79.9804L14.5145 80.0627C16.4907 80.0789 20.1514 79.6468 24.1158 79.0148L24.103 78.9335ZM14.5153 79.9804L14.5162 79.8981C13.9625 79.893 13.5029 79.4722 13.4516 78.9253L13.3697 78.9331L13.2877 78.9409C13.3469 79.5725 13.8772 80.0569 14.5144 80.0627L14.5153 79.9804ZM13.3697 78.9331L13.4509 78.9197L7.92877 45.0891L7.84754 45.1025L7.76631 45.1159L13.2885 78.9464L13.3697 78.9331ZM7.84754 45.1025C7.92367 45.0711 7.92367 45.0711 7.92365 45.0711C7.92364 45.071 7.92361 45.071 7.92359 45.0709C7.92353 45.0708 7.92344 45.0706 7.92333 45.0703C7.9231 45.0697 7.92276 45.0689 7.92231 45.0678C7.92141 45.0656 7.92006 45.0623 7.91826 45.058C7.91468 45.0493 7.90933 45.0363 7.90227 45.0191C7.88815 44.9848 7.86718 44.934 7.83981 44.8676C7.78506 44.7349 7.70466 44.5403 7.60204 44.2927C7.3968 43.7974 7.10268 43.0901 6.74718 42.2415C6.03617 40.5444 5.07954 38.2825 4.09711 36.0233L4.02163 36.0562L3.94614 36.0891C4.92818 38.3474 5.8845 40.6086 6.59534 42.3053C6.95076 43.1536 7.24478 43.8608 7.44996 44.3559C7.55254 44.6034 7.63291 44.798 7.68763 44.9306C7.71499 44.9969 7.73594 45.0477 7.75005 45.082C7.7571 45.0991 7.76244 45.1121 7.76602 45.1208C7.76781 45.1251 7.76916 45.1284 7.77006 45.1306C7.77051 45.1317 7.77085 45.1325 7.77107 45.1331C7.77119 45.1333 7.77127 45.1336 7.77133 45.1337C7.77136 45.1338 7.77138 45.1338 7.77139 45.1338C7.77141 45.1339 7.77141 45.1339 7.84754 45.1025ZM4.02163 36.0562L4.09712 36.0233C3.47001 34.5803 2.64951 32.4723 1.94361 30.5366C1.23698 28.5989 0.647762 26.8409 0.480861 26.095L0.400543 26.113L0.320225 26.1311C0.489896 26.8894 1.0832 28.6579 1.78895 30.5931C2.49544 32.5304 3.3172 34.6419 3.94614 36.0891L4.02163 36.0562ZM0.400543 26.113L0.480866 26.095C0.183093 24.7625 -0.0338483 23.4629 0.160223 22.3757L0.0792009 22.3613L-0.00182112 22.347C-0.202364 23.4704 0.0227138 24.7998 0.32022 26.1311L0.400543 26.113ZM0.0792009 22.3613L0.160222 22.3757C0.531157 20.2987 1.43293 19.1117 2.68739 17.1848L2.61844 17.14L2.54948 17.0951C1.30124 19.0125 0.376257 20.23 -0.00181992 22.347L0.0792009 22.3613ZM2.61844 17.14L2.68739 17.1848C3.61411 15.7616 5.23703 13.5064 7.18969 11.024L7.12503 10.9732L7.06037 10.9223C5.10575 13.4072 3.4797 15.6665 2.54949 17.0951L2.61844 17.14ZM7.12503 10.9732L7.18971 11.024C7.61102 10.488 8.27267 10.0481 9.00217 9.7746C9.73166 9.50111 10.5205 9.39723 11.1926 9.52399L11.2079 9.44311L11.2233 9.36224C10.5148 9.22861 9.69499 9.33915 8.94458 9.62048C8.19418 9.9018 7.50466 10.3571 7.06035 10.9223L7.12503 10.9732ZM11.2079 9.44311L11.1979 9.52481L24.3218 11.1256L24.3319 11.0439L24.3419 10.9622L11.218 9.36141L11.2079 9.44311ZM24.3319 11.0439L24.3165 11.1247C25.1023 11.2729 25.5647 12.0869 25.2885 12.8333L25.3656 12.8618L25.4428 12.8902C25.7547 12.0475 25.2322 11.1298 24.3472 10.963L24.3319 11.0439ZM25.3656 12.8618L25.2885 12.8333C24.9924 13.6334 24.4481 14.0432 23.8304 14.2645C23.2073 14.4877 22.5131 14.5182 21.9195 14.556L21.9246 14.6382L21.9298 14.7203C22.5158 14.6829 23.2361 14.6522 23.8857 14.4195C24.5406 14.1849 25.1269 13.7441 25.4428 12.8902L25.3656 12.8618ZM21.9246 14.6382L21.9196 14.556C20.621 14.638 19.358 14.5794 18.4192 14.5001C17.95 14.4605 17.562 14.4158 17.2916 14.381C17.1564 14.3636 17.0505 14.3487 16.9786 14.3381C16.9426 14.3329 16.9151 14.3287 16.8967 14.3258C16.8875 14.3244 16.8805 14.3233 16.8759 14.3226C16.8735 14.3222 16.8718 14.3219 16.8707 14.3217C16.8701 14.3216 16.8697 14.3216 16.8694 14.3215C16.8693 14.3215 16.8692 14.3215 16.8691 14.3215C16.8691 14.3215 16.869 14.3215 16.869 14.3215C16.869 14.3215 16.869 14.3215 16.8557 14.4027C16.8424 14.4839 16.8424 14.4839 16.8424 14.4839C16.8425 14.4839 16.8425 14.484 16.8425 14.484C16.8426 14.484 16.8427 14.484 16.8429 14.484C16.8432 14.4841 16.8437 14.4842 16.8443 14.4842C16.8456 14.4845 16.8474 14.4847 16.8498 14.4851C16.8547 14.4859 16.8618 14.487 16.8713 14.4885C16.8901 14.4914 16.9181 14.4957 16.9545 14.501C17.0273 14.5117 17.1341 14.5267 17.2704 14.5443C17.5428 14.5793 17.9332 14.6243 18.4051 14.6642C19.3488 14.7438 20.6204 14.8029 21.9297 14.7203L21.9246 14.6382ZM16.8557 14.4027L16.789 14.4511L22.6414 22.5218L22.708 22.4735L22.7747 22.4251L16.9224 14.3543L16.8557 14.4027ZM22.708 22.4735L22.6413 22.5218C23.0719 23.1173 22.9171 23.9642 22.2867 24.336L22.3285 24.4069L22.3702 24.4778C23.0892 24.0537 23.2586 23.0945 22.7747 22.4252L22.708 22.4735ZM22.3285 24.4069L22.2867 24.336C21.8553 24.5908 21.2984 24.6418 20.628 24.598L20.6225 24.6801L20.617 24.7622C21.2958 24.8066 21.8946 24.7586 22.3703 24.4777L22.3285 24.4069ZM20.6225 24.6801L20.5493 24.7178L22.8667 29.2261L22.94 29.1884L23.0132 29.1507L20.6957 24.6424L20.6225 24.6801ZM22.94 29.1884L22.867 29.2266C22.979 29.4409 22.9534 29.7507 22.8076 30.057C22.663 30.3609 22.4076 30.6439 22.0898 30.7987L22.1258 30.8726L22.1618 30.9466C22.5174 30.7734 22.7978 30.4606 22.9563 30.1276C23.1136 29.7971 23.1584 29.4287 23.0129 29.1502L22.94 29.1884ZM22.1258 30.8726L22.0897 30.7987C21.7535 30.9632 21.4602 31.0149 21.1826 30.9915C20.9036 30.9681 20.6344 30.8684 20.347 30.7207L20.3093 30.7939L20.2716 30.8671C20.5683 31.0196 20.8594 31.1295 21.1686 31.1556C21.4792 31.1817 21.8021 31.1226 22.1619 30.9466L22.1258 30.8726ZM20.3093 30.7939L20.2284 30.8091L20.8374 34.0723L20.9183 34.0571L20.9992 34.0418L20.3902 30.7787L20.3093 30.7939ZM20.9183 34.0571L20.8374 34.0723C20.9535 34.6949 20.5534 35.2992 19.9316 35.4402L19.9496 35.5205L19.9677 35.6008C20.675 35.4403 21.1317 34.7524 20.9992 34.0419L20.9183 34.0571ZM19.9496 35.5205L19.9314 35.4403C19.5627 35.5247 19.2603 35.5092 18.9825 35.3951C18.7028 35.2802 18.4394 35.0619 18.156 34.7246L18.093 34.7775L18.0299 34.8305C18.3218 35.178 18.6056 35.4184 18.9197 35.5474C19.2358 35.6772 19.5741 35.6909 19.9679 35.6007L19.9496 35.5205ZM18.093 34.7775L18.156 34.7245C17.9887 34.5256 17.7585 34.1038 17.4964 33.5711C17.2358 33.0415 16.9486 32.4131 16.6666 31.8073C16.385 31.2027 16.1084 30.6203 15.8703 30.1868C15.7514 29.9703 15.6405 29.7881 15.5422 29.658C15.4931 29.5931 15.4451 29.5385 15.3989 29.4989C15.3547 29.4609 15.3018 29.4275 15.2434 29.4237L15.2379 29.5058L15.2324 29.5879C15.2369 29.5882 15.2559 29.5932 15.2916 29.6238C15.3253 29.6527 15.3652 29.697 15.4108 29.7574C15.5019 29.8779 15.6082 30.0519 15.726 30.2662C15.9611 30.6942 16.2355 31.2717 16.5173 31.8769C16.7986 32.481 17.087 33.1123 17.3487 33.6439C17.6088 34.1725 17.8474 34.6135 18.0299 34.8306L18.093 34.7775ZM15.2379 29.5058L15.2434 29.4237C14.9961 29.4075 13.9243 29.2496 12.9077 29.0947C12.4008 29.0174 11.9097 28.9412 11.5453 28.8842C11.3631 28.8558 11.2125 28.8321 11.1076 28.8156C11.0551 28.8074 11.014 28.8009 10.986 28.7965C10.972 28.7943 10.9613 28.7926 10.9541 28.7914C10.9505 28.7909 10.9478 28.7904 10.946 28.7902C10.945 28.79 10.9444 28.7899 10.9439 28.7898C10.9437 28.7898 10.9435 28.7898 10.9434 28.7897C10.9433 28.7897 10.9433 28.7897 10.9433 28.7897C10.9432 28.7897 10.9432 28.7897 10.9302 28.871C10.9173 28.9523 10.9173 28.9523 10.9173 28.9523C10.9173 28.9523 10.9174 28.9523 10.9174 28.9523C10.9176 28.9523 10.9177 28.9524 10.918 28.9524C10.9184 28.9525 10.9191 28.9526 10.92 28.9527C10.9219 28.953 10.9246 28.9535 10.9282 28.954C10.9354 28.9552 10.9461 28.9569 10.9601 28.9591C10.9881 28.9635 11.0293 28.97 11.0818 28.9782C11.1868 28.9948 11.3374 29.0184 11.5197 29.0469C11.8842 29.1038 12.3755 29.1801 12.8826 29.2574C13.8938 29.4115 14.9759 29.5711 15.2324 29.5879L15.2379 29.5058Z" fill="#082422"/>
<path d="M20.5575 24.7236C20.5787 24.7638 20.6285 24.779 20.6687 24.7577C20.7089 24.7364 20.7243 24.6866 20.703 24.6464L20.6302 24.685L20.5575 24.7236ZM17.4577 19.231L17.5269 19.1863L17.5268 19.1862L17.4577 19.231ZM15.3868 18.0159L15.3921 18.0981L15.3921 18.0981L15.3868 18.0159ZM6.52917 19.1055C6.48421 19.1122 6.45314 19.154 6.45978 19.199C6.46642 19.244 6.50826 19.275 6.55323 19.2683L6.5412 19.1869L6.52917 19.1055ZM20.6302 24.685C20.703 24.6464 20.703 24.6464 20.703 24.6464C20.703 24.6464 20.7029 24.6463 20.7029 24.6463C20.7029 24.6462 20.7028 24.6461 20.7027 24.6459C20.7025 24.6455 20.7022 24.645 20.7018 24.6442C20.7011 24.6428 20.6999 24.6406 20.6984 24.6378C20.6953 24.632 20.6908 24.6235 20.6848 24.6123C20.6729 24.5898 20.6552 24.5566 20.632 24.5134C20.5858 24.4271 20.518 24.3011 20.4316 24.1422C20.2589 23.8243 20.0119 23.3746 19.715 22.8474C19.1213 21.7932 18.3272 20.4281 17.5269 19.1863L17.4577 19.231L17.3885 19.2756C18.1863 20.5135 18.9786 21.8755 19.5716 22.9284C19.868 23.4547 20.1145 23.9036 20.287 24.2209C20.3732 24.3796 20.4408 24.5053 20.4869 24.5913C20.51 24.6344 20.5276 24.6675 20.5395 24.6898C20.5455 24.7009 20.55 24.7094 20.553 24.7151C20.5545 24.7179 20.5556 24.7201 20.5564 24.7215C20.5567 24.7222 20.557 24.7227 20.5572 24.7231C20.5573 24.7233 20.5574 24.7234 20.5574 24.7235C20.5574 24.7235 20.5575 24.7236 20.5575 24.7236C20.5575 24.7236 20.5575 24.7236 20.6302 24.685ZM17.4577 19.231L17.5268 19.1862C17.155 18.6108 16.4453 17.8632 15.3815 17.9338L15.3868 18.0159L15.3921 18.0981C16.3641 18.0335 17.0266 18.7156 17.3885 19.2757L17.4577 19.231ZM15.3868 18.0159L15.3815 17.9338C14.483 17.9933 12.2681 18.2866 10.2817 18.5643C9.2876 18.7033 8.3495 18.8386 7.65992 18.9391C7.31513 18.9894 7.03246 19.031 6.83598 19.06C6.73774 19.0745 6.66105 19.0859 6.60891 19.0936C6.58284 19.0975 6.56291 19.1004 6.5495 19.1024C6.54279 19.1034 6.53771 19.1042 6.53431 19.1047C6.53261 19.1049 6.53132 19.1051 6.53047 19.1053C6.53004 19.1053 6.52972 19.1054 6.5295 19.1054C6.52939 19.1054 6.52931 19.1054 6.52926 19.1054C6.5292 19.1055 6.52917 19.1055 6.5412 19.1869C6.55323 19.2683 6.55326 19.2683 6.55331 19.2683C6.55336 19.2682 6.55344 19.2682 6.55355 19.2682C6.55376 19.2682 6.55408 19.2681 6.55451 19.2681C6.55536 19.2679 6.55664 19.2678 6.55834 19.2675C6.56173 19.267 6.5668 19.2662 6.5735 19.2652C6.5869 19.2633 6.60681 19.2603 6.63285 19.2564C6.68495 19.2487 6.7616 19.2373 6.8598 19.2228C7.05619 19.1938 7.33876 19.1523 7.68344 19.102C8.37281 19.0015 9.31058 18.8663 10.3042 18.7274C12.2933 18.4493 14.5011 18.1571 15.3921 18.0981L15.3868 18.0159Z" fill="#082422"/>
<path d="M20.2421 30.8214C20.2506 30.8661 20.2937 30.8953 20.3383 30.8868C20.383 30.8782 20.4123 30.8351 20.4038 30.7904L20.3229 30.8059L20.2421 30.8214ZM19.0567 25.0934L19.136 25.0711L19.136 25.0711L19.0567 25.0934ZM17.9623 23.8583L17.9447 23.9388L17.9448 23.9388L17.9623 23.8583ZM5.8399 22.9904C5.79445 22.9897 5.75698 23.026 5.75621 23.0714C5.75544 23.1169 5.79165 23.1543 5.8371 23.155L5.8385 23.0727L5.8399 22.9904ZM20.3229 30.8059C20.4038 30.7904 20.4038 30.7904 20.4038 30.7904C20.4038 30.7904 20.4038 30.7903 20.4038 30.7903C20.4037 30.7901 20.4037 30.79 20.4037 30.7897C20.4036 30.7893 20.4034 30.7886 20.4033 30.7877C20.4029 30.7859 20.4024 30.7832 20.4017 30.7796C20.4004 30.7725 20.3983 30.7619 20.3957 30.748C20.3903 30.7202 20.3824 30.6792 20.3722 30.6263C20.3517 30.5205 20.3219 30.3672 20.2843 30.177C20.2091 29.7966 20.103 29.2687 19.9796 28.6785C19.7327 27.499 19.4157 26.0684 19.136 25.0711L19.0567 25.0934L18.9775 25.1157C19.2556 26.1073 19.5716 27.533 19.8184 28.7125C19.9418 29.3019 20.0477 29.8292 20.1228 30.2091C20.1603 30.3991 20.1902 30.5522 20.2106 30.6578C20.2208 30.7106 20.2287 30.7515 20.234 30.7792C20.2367 30.7931 20.2387 30.8036 20.24 30.8107C20.2407 30.8143 20.2412 30.817 20.2416 30.8187C20.2417 30.8196 20.2419 30.8203 20.242 30.8208C20.242 30.821 20.242 30.8211 20.242 30.8213C20.2421 30.8213 20.2421 30.8213 20.2421 30.8214C20.2421 30.8214 20.2421 30.8214 20.3229 30.8059ZM19.0567 25.0934L19.136 25.0711C19.0628 24.8104 18.988 24.5308 18.8245 24.2963C18.6574 24.0568 18.4021 23.8694 17.9798 23.7779L17.9623 23.8583L17.9448 23.9388C18.3305 24.0223 18.5483 24.1883 18.6894 24.3906C18.834 24.5979 18.9024 24.8483 18.9775 25.1157L19.0567 25.0934ZM17.9623 23.8583L17.9799 23.7779C16.492 23.4546 13.4534 23.2581 10.7944 23.1422C9.46323 23.0841 8.22468 23.0462 7.31894 23.0228C6.86606 23.0111 6.49635 23.003 6.23984 22.9978C6.11158 22.9952 6.01162 22.9934 5.94372 22.9922C5.90976 22.9916 5.88382 22.9911 5.86636 22.9909C5.85763 22.9907 5.85102 22.9906 5.84659 22.9905C5.84438 22.9905 5.84271 22.9905 5.84159 22.9905C5.84103 22.9904 5.84061 22.9904 5.84033 22.9904C5.84018 22.9904 5.84008 22.9904 5.84001 22.9904C5.83993 22.9904 5.8399 22.9904 5.8385 23.0727C5.8371 23.155 5.83713 23.155 5.8372 23.155C5.83727 23.155 5.83737 23.155 5.83751 23.155C5.83778 23.155 5.8382 23.155 5.83875 23.155C5.83986 23.1551 5.84151 23.1551 5.84371 23.1551C5.84811 23.1552 5.85469 23.1553 5.8634 23.1554C5.8808 23.1557 5.90668 23.1562 5.94057 23.1568C6.00835 23.158 6.10818 23.1598 6.2363 23.1624C6.49253 23.1675 6.86192 23.1756 7.31445 23.1873C8.21954 23.2107 9.45707 23.2486 10.787 23.3066C13.45 23.4227 16.4733 23.6191 17.9447 23.9388L17.9623 23.8583Z" fill="#082422"/>
<path d="M19.1461 32.2048C19.0669 32.9304 19.504 34.6032 19.504 34.6032C19.504 34.6032 20.4789 34.7118 20.9262 34.5513C20.9576 34.3964 20.9614 34.2341 20.93 34.0693L20.4427 31.4538C20.0997 31.4843 19.2102 31.6191 19.1461 32.2036L19.1461 32.2048Z" fill="#FFCE9B" stroke="#082422" stroke-width="0.164607" stroke-miterlimit="10" stroke-linecap="round" stroke-linejoin="round"/>
<path d="M22.9565 29.1989L21.6639 26.6843C21.4641 26.7645 20.469 27.1991 20.6121 27.8283C20.7704 28.5275 21.7138 29.9436 21.7138 29.9436C21.7138 29.9436 22.6687 29.7325 23.0269 29.4385C23.0156 29.3524 22.9942 29.2712 22.9565 29.1989Z" fill="#FFCE9B" stroke="#082422" stroke-width="0.164607" stroke-miterlimit="10" stroke-linecap="round" stroke-linejoin="round"/>
<path d="M22.921 22.8889C22.8783 22.7491 22.813 22.6131 22.7225 22.4871L21.1496 20.3163C20.9147 20.4502 20.0427 20.9959 20.2587 21.5913C20.5087 22.2765 21.6431 23.585 21.6431 23.585C21.6431 23.585 22.6157 23.2378 22.921 22.8889Z" fill="#FFCE9B" stroke="#082422" stroke-width="0.164607" stroke-miterlimit="10" stroke-linecap="round" stroke-linejoin="round"/>
<path d="M21.5548 12.2523C22.2648 12.5599 24.0994 12.6448 24.0994 12.6448C24.0994 12.6448 24.5808 11.5588 24.4841 11.1031C24.3861 11.067 24.283 11.0421 24.1737 11.0285L21.2144 10.6765C21.1415 10.9901 20.958 11.9933 21.5561 12.2523L21.5548 12.2523Z" fill="#FFCE9B" stroke="#082422" stroke-width="0.164607" stroke-miterlimit="10" stroke-linecap="round" stroke-linejoin="round"/>
<path d="M6.42107 29.7602C6.37561 29.7603 6.33876 29.7972 6.33876 29.8426C6.33875 29.8881 6.3756 29.9249 6.42105 29.9248L6.42106 29.8425L6.42107 29.7602ZM10.9399 28.881L10.9875 28.9481C11.0133 28.9298 11.0264 28.8982 11.0211 28.867C11.0157 28.8358 10.993 28.8105 10.9625 28.8018L10.9399 28.881ZM8.15615 27.2604C8.11995 27.233 8.06832 27.2401 8.04083 27.2764C8.01335 27.3126 8.02042 27.3642 8.05662 27.3917L8.10639 27.326L8.15615 27.2604ZM6.42106 29.8425L6.42105 29.9248C6.43921 29.9248 7.23134 29.9265 8.19105 29.8066C9.1461 29.6873 10.2861 29.4454 10.9875 28.9481L10.9399 28.881L10.8924 28.8139C10.2278 29.2851 9.12526 29.524 8.17086 29.6433C7.22112 29.762 6.43684 29.7602 6.42107 29.7602L6.42106 29.8425ZM10.9399 28.881L10.9625 28.8018C10.3367 28.6241 9.65348 28.2534 9.11487 27.9176C8.57757 27.5826 8.19007 27.2861 8.15615 27.2604L8.10639 27.326L8.05662 27.3917C8.09182 27.4183 8.48399 27.7184 9.02764 28.0573C9.56997 28.3955 10.2689 28.7761 10.9173 28.9602L10.9399 28.881Z" fill="#082422"/>
<path d="M17.1159 14.9165C17.1427 14.9532 17.1942 14.9612 17.2309 14.9344C17.2677 14.9076 17.2757 14.8561 17.249 14.8194L17.1825 14.868L17.1159 14.9165ZM16.6898 14.2215L16.752 14.1675L16.752 14.1675L16.6898 14.2215ZM14.6074 13.6708L14.6165 13.7526L14.6166 13.7526L14.6074 13.6708ZM8.75059 15.0339C8.70711 15.0472 8.6826 15.0932 8.69584 15.1366C8.70909 15.1801 8.75508 15.2046 8.79856 15.1912L8.77457 15.1125L8.75059 15.0339ZM17.1825 14.868C17.249 14.8194 17.249 14.8194 17.249 14.8194C17.2489 14.8194 17.2489 14.8194 17.2489 14.8194C17.2489 14.8193 17.2489 14.8193 17.2489 14.8193C17.2488 14.8192 17.2488 14.8191 17.2487 14.819C17.2485 14.8188 17.2482 14.8184 17.2479 14.8179C17.2472 14.817 17.2462 14.8156 17.2448 14.8137C17.2421 14.8101 17.2382 14.8047 17.2331 14.7977C17.223 14.7839 17.2083 14.7639 17.1903 14.7395C17.1544 14.6907 17.105 14.624 17.0515 14.5525C16.9454 14.4106 16.8204 14.2463 16.752 14.1675L16.6898 14.2215L16.6276 14.2755C16.6912 14.3489 16.8125 14.5079 16.9197 14.6512C16.9729 14.7223 17.0219 14.7886 17.0577 14.8372C17.0756 14.8615 17.0902 14.8814 17.1003 14.8951C17.1053 14.902 17.1092 14.9074 17.1119 14.911C17.1132 14.9128 17.1143 14.9142 17.1149 14.9151C17.1153 14.9156 17.1155 14.916 17.1157 14.9162C17.1158 14.9163 17.1158 14.9164 17.1159 14.9165C17.1159 14.9165 17.1159 14.9165 17.1159 14.9165C17.1159 14.9165 17.1159 14.9165 17.1159 14.9165C17.1159 14.9165 17.1159 14.9165 17.1825 14.868ZM16.6898 14.2215L16.752 14.1675C16.5302 13.9123 16.3495 13.7179 16.0371 13.6163C15.73 13.5164 15.3047 13.5087 14.5982 13.589L14.6074 13.6708L14.6166 13.7526C15.3214 13.6724 15.7155 13.6848 15.9859 13.7728C16.251 13.8591 16.4059 14.0204 16.6277 14.2755L16.6898 14.2215ZM14.6074 13.6708L14.5982 13.589C13.6999 13.6909 12.2359 14.0531 11.0012 14.3881C10.3828 14.5558 9.82027 14.7173 9.4123 14.8367C9.20831 14.8965 9.04294 14.9457 8.92854 14.9801C8.87135 14.9972 8.82689 15.0107 8.79672 15.0198C8.78163 15.0244 8.77011 15.0279 8.76236 15.0303C8.75848 15.0314 8.75555 15.0323 8.75358 15.0329C8.75259 15.0332 8.75185 15.0335 8.75135 15.0336C8.7511 15.0337 8.75091 15.0338 8.75079 15.0338C8.75072 15.0338 8.75067 15.0338 8.75064 15.0338C8.75061 15.0338 8.75059 15.0339 8.77457 15.1125C8.79856 15.1912 8.79857 15.1912 8.7986 15.1912C8.79863 15.1912 8.79867 15.1912 8.79873 15.1912C8.79885 15.1912 8.79903 15.1911 8.79927 15.191C8.79976 15.1909 8.80049 15.1907 8.80145 15.1904C8.80339 15.1898 8.80629 15.1889 8.81014 15.1877C8.81782 15.1854 8.82927 15.1819 8.84429 15.1773C8.87432 15.1682 8.91863 15.1548 8.97567 15.1377C9.08976 15.1035 9.25477 15.0543 9.45837 14.9947C9.8656 14.8754 10.4271 14.7143 11.0441 14.5469C12.2804 14.2116 13.7327 13.8529 14.6165 13.7526L14.6074 13.6708Z" fill="#082422"/>
<path d="M15.2431 29.4833C15.2287 29.5265 15.252 29.5731 15.2952 29.5874C15.3383 29.6017 15.3849 29.5784 15.3993 29.5352L15.3212 29.5093L15.2431 29.4833ZM16.3544 27.9352C16.3851 27.9016 16.3829 27.8496 16.3494 27.8189C16.3159 27.7882 16.2639 27.7905 16.2331 27.824L16.2938 27.8796L16.3544 27.9352ZM15.3212 29.5093C15.3993 29.5352 15.3993 29.5352 15.3993 29.5352C15.3993 29.5352 15.3993 29.5352 15.3993 29.5352C15.3993 29.5352 15.3993 29.5352 15.3993 29.5352C15.3993 29.5351 15.3993 29.535 15.3994 29.5348C15.3995 29.5345 15.3997 29.5339 15.4 29.5332C15.4005 29.5316 15.4013 29.5293 15.4024 29.5261C15.4046 29.5197 15.408 29.5102 15.4126 29.4976C15.4218 29.4726 15.4357 29.4356 15.4546 29.3889C15.4923 29.2955 15.5497 29.1629 15.628 29.0075C15.7846 28.6964 16.0238 28.296 16.3544 27.9352L16.2938 27.8796L16.2331 27.824C15.889 28.1996 15.6419 28.6141 15.481 28.9337C15.4004 29.0937 15.3412 29.2304 15.302 29.3275C15.2824 29.376 15.2678 29.4146 15.258 29.4413C15.2531 29.4546 15.2495 29.4649 15.247 29.472C15.2458 29.4756 15.2448 29.4783 15.2442 29.4802C15.2439 29.4812 15.2436 29.4819 15.2434 29.4824C15.2433 29.4827 15.2433 29.4829 15.2432 29.483C15.2432 29.4831 15.2432 29.4832 15.2432 29.4832C15.2432 29.4833 15.2431 29.4833 15.2431 29.4833C15.2431 29.4833 15.2431 29.4833 15.3212 29.5093Z" fill="#082422"/>
</g>
<defs>
<clipPath id="clip0_664_11568">
<rect width="38" height="80" fill="white"/>
</clipPath>
</defs>
</svg>
