<svg width="113" height="80" viewBox="0 0 113 80" fill="none" xmlns="http://www.w3.org/2000/svg">
<g clip-path="url(#clip0_664_11607)">
<g opacity="0.25">
<path d="M89.3629 44.3128C89.2337 44.2955 89.0959 44.2783 88.9667 44.2697C88.8409 44.2602 88.7152 44.2515 88.5886 44.2446C88.89 44.2619 89.1829 44.2938 89.4688 44.3378L89.4783 44.3327C89.4395 44.3266 89.4025 44.3188 89.3637 44.3128H89.3629Z" fill="black"/>
<path d="M102.758 24.0534C102.194 23.4934 101.587 22.9635 100.941 22.4622L101.252 26.4455L102.51 28.6917C102.708 27.5336 102.806 26.3445 102.796 25.1355C102.794 24.7731 102.781 24.4124 102.759 24.0534H102.758Z" fill="black"/>
<path d="M102.511 28.6918C101.552 34.3078 98.2286 39.2058 93.2038 42.2037L89.4787 44.33C89.7224 44.3697 89.9601 44.4137 90.1909 44.4654C90.2512 44.4827 90.3201 44.4913 90.3804 44.5086C90.6819 44.5906 90.9747 44.695 91.2538 44.8089L91.2615 44.8287C90.7103 44.5992 90.1108 44.4344 89.47 44.3351L86.2264 46.1861C86.2264 46.1861 79.3368 40.0593 78.6504 40.2975C77.7201 40.5995 76.7985 41.0051 75.8769 41.471C75.5755 41.6177 75.2913 41.8076 74.9898 41.9715C74.5419 42.2218 74.0854 42.4462 73.6376 42.7309C73.4395 42.8604 73.25 43.0071 73.0519 43.1365C72.8796 43.2573 72.6987 43.3781 72.5265 43.499C72.3198 43.6456 72.1131 43.7751 71.9149 43.9304C71.4671 44.267 71.0364 44.6208 70.6058 44.9832C70.4594 45.104 70.3215 45.2421 70.1751 45.3629C70.0976 45.4319 70.0287 45.4923 69.9512 45.5614C69.8048 45.6908 69.6497 45.8203 69.5033 45.9583C69.1674 46.269 68.8487 46.5883 68.5214 46.9162C68.22 47.2268 67.9185 47.5375 67.6343 47.8654C67.6084 47.8913 67.5912 47.9172 67.574 47.9345C67.5568 47.9517 67.5395 47.9776 67.5223 47.9949C67.2811 48.2624 67.04 48.5385 66.816 48.8146C66.549 49.1339 66.2906 49.4618 66.0323 49.7898C65.8083 50.0832 65.5844 50.3852 65.3777 50.6786C65.3604 50.6959 65.3518 50.7131 65.3346 50.739C65.3174 50.7563 65.3088 50.7821 65.2915 50.7994C65.0417 51.1446 64.8092 51.4984 64.5766 51.8522C64.3355 52.2232 64.1115 52.5943 63.8876 52.974C63.7756 53.1638 63.6809 53.3537 63.5775 53.5435C63.5345 53.6212 63.4914 53.7075 63.4397 53.7852C63.3622 53.9232 63.2847 54.0613 63.2072 54.1994C62.966 54.6654 62.7421 55.1313 62.5354 55.5973C62.4062 55.8821 62.3114 56.1669 62.1995 56.4516C62.1392 56.5983 62.0789 56.7537 62.0186 56.9004C61.9669 57.0384 61.9066 57.1765 61.8549 57.3146C61.5621 58.143 61.3295 58.9714 61.1573 59.7998C60.3132 63.8643 60.8403 68.4206 62.8644 70.25L67.524 74.1945C72.7082 78.1726 77.9415 80.3869 84.2247 77.0543C90.2547 73.8562 96.4621 67.2807 97.8488 60.6015C98.1098 59.3373 98.1718 58.181 98.0572 57.1515L100.356 55.7803C108.345 51.0134 113.071 42.6049 112.999 33.2869C112.928 23.9638 108.068 15.6235 100.001 10.9766C97.1287 9.32145 94.1159 7.93902 91.0066 6.8405L89.2444 5.53833L77.1698 1.79059L61.0264 1.65942L48.8708 6.11995L39.5747 11.345L36.437 10.363C36.4112 10.363 36.3853 10.3458 36.3595 10.3371C36.1269 10.2681 35.8858 10.2077 35.6446 10.1732C35.6015 10.1732 35.5499 10.1645 35.5068 10.1559C35.4293 10.1473 35.3518 10.1386 35.2742 10.13C35.1537 10.1128 35.0331 10.0955 34.9125 10.0869H34.1632C33.9048 10.1041 33.6378 10.13 33.3708 10.1732C33.3535 10.1732 33.3363 10.1732 33.3191 10.1818C33.2588 10.1904 33.1899 10.2077 33.1296 10.2249C32.9315 10.2681 32.7248 10.3026 32.5267 10.3544C32.4578 10.3716 32.3889 10.4062 32.32 10.4234C32.1908 10.4579 32.0702 10.5097 31.941 10.5529C31.8204 10.596 31.7085 10.6219 31.5965 10.6737C31.4931 10.7168 31.3898 10.7686 31.295 10.8117C31.1314 10.8808 30.9591 10.9584 30.7955 11.0447C30.7093 11.0879 30.6146 11.1224 30.5285 11.1655C30.4423 11.2087 30.3562 11.2777 30.2615 11.3295C29.9858 11.4848 29.7102 11.6574 29.426 11.8473C29.3313 11.9163 29.2279 11.9594 29.1332 12.0285C29.0815 12.063 29.0212 12.1234 28.9695 12.1579C28.9032 12.2062 28.8369 12.2554 28.7697 12.3055L28.6853 12.2787C28.6594 12.2787 28.6422 12.2615 28.6164 12.2615C28.4183 12.2011 28.2288 12.1579 28.0221 12.1234C27.9876 12.1234 27.9445 12.1234 27.9101 12.1061C27.8412 12.0975 27.7809 12.0889 27.712 12.0803C27.6173 12.0716 27.5139 12.0544 27.4192 12.0457H26.7904C26.5751 12.0544 26.3511 12.0803 26.1358 12.1148C26.1186 12.1148 26.11 12.1148 26.0927 12.1234C26.0411 12.132 25.9894 12.1493 25.9377 12.1579C25.7741 12.1924 25.6018 12.2183 25.4382 12.2701C25.3779 12.2874 25.3262 12.3133 25.2659 12.3305C25.1625 12.365 25.0592 12.3995 24.9558 12.4341C24.8611 12.4686 24.7663 12.4945 24.663 12.529C24.5769 12.5635 24.4907 12.6066 24.4132 12.6498C24.2754 12.7102 24.1376 12.7706 23.9998 12.8396C23.9223 12.8742 23.8534 12.9 23.7758 12.9432C23.7069 12.9777 23.6294 13.0381 23.5605 13.0813C23.328 13.2107 23.104 13.3574 22.8715 13.5127C22.794 13.5645 22.7078 13.6077 22.6303 13.6594C22.5872 13.694 22.5442 13.7371 22.4925 13.7716C22.0963 14.065 21.7001 14.3757 21.3125 14.7381C20.7182 15.2904 20.1584 15.9117 19.633 16.5848C19.4607 16.8005 19.3057 17.0421 19.142 17.2665C18.8923 17.6117 18.6253 17.9396 18.3927 18.3107C18.2893 18.4746 18.1946 18.6558 18.0912 18.8198C17.9965 18.9751 17.9104 19.1218 17.8242 19.2772C17.7209 19.4584 17.6089 19.631 17.5142 19.8122C17.2988 20.2178 17.0921 20.6406 16.894 21.0634C16.8251 21.2101 16.7648 21.3568 16.7045 21.5035C16.6701 21.5812 16.6356 21.6589 16.6012 21.7365C16.5323 21.8919 16.4634 22.0386 16.4031 22.1853C16.2567 22.5304 16.1275 22.8842 15.9983 23.2467C15.8777 23.5832 15.7657 23.9284 15.6538 24.2736C15.6538 24.2995 15.6365 24.3253 15.6279 24.3512C15.6279 24.3771 15.6193 24.3944 15.6107 24.4203C15.5246 24.705 15.4384 24.9984 15.3609 25.2832C15.2662 25.6197 15.1886 25.9563 15.1111 26.2928C15.0422 26.5949 14.9819 26.8969 14.9216 27.1903C14.9216 27.2076 14.9216 27.2248 14.913 27.2507C14.913 27.268 14.913 27.2938 14.9044 27.3111C14.8355 27.6563 14.7838 28.0015 14.7322 28.3553C14.6805 28.7177 14.6374 29.0801 14.603 29.4426C14.5857 29.6238 14.5771 29.7964 14.5599 29.9776C14.5599 30.0552 14.5513 30.1329 14.5427 30.2106C14.5427 30.34 14.5168 30.4695 14.5168 30.5989C14.5013 30.9795 14.4944 31.3591 14.4927 31.7337L9.77364 34.4623C5.03044 37.2047 2.1623 42.1174 2.10287 47.6039C2.04344 53.0905 4.80306 58.0645 9.4851 60.9104L19.4151 66.9441C18.8673 68.966 19.7157 71.1811 21.6123 72.2779L31.3329 77.9008C33.5913 79.2073 36.4792 78.4315 37.7824 76.1698C39.0864 73.9071 38.3121 71.0137 36.0537 69.7081L26.3331 64.0852C24.489 63.0186 22.2255 63.3405 20.7466 64.7263L10.8244 58.697C6.93048 56.3308 4.63596 52.1948 4.68592 47.6324C4.73587 43.0701 7.11996 38.9849 11.0647 36.705L14.7304 34.5857C14.783 34.9041 14.8433 35.2182 14.913 35.5271C15.6796 38.8753 17.4022 40.9723 19.5555 41.6454L21.241 42.1726C22.3108 44.0219 23.1497 45.3767 24.8025 45.8919L30.7162 47.7429C33.4741 48.9708 37.5429 48.0009 40.908 44.8805C46.1353 40.0334 49.422 31.1607 49.1206 23.6074L54.4563 20.6147C68.1769 12.9173 84.8948 13.0036 98.5292 20.8391C99.3888 21.3361 100.192 21.8798 100.943 22.464L102.512 28.6927L102.511 28.6918ZM38.5472 12.6325C38.6764 12.5894 38.797 12.5462 38.9262 12.5031C38.9486 12.4962 38.9701 12.4902 38.9925 12.4832L38.9959 12.4893C38.8263 12.5385 38.6557 12.5946 38.4852 12.6558C38.5059 12.6481 38.5274 12.6394 38.5481 12.6325H38.5472ZM66.307 64.4778C66.0968 65.4935 65.9909 66.4514 65.9814 67.3471C65.9883 66.4436 66.0943 65.4771 66.307 64.4519C66.4069 63.9696 66.5327 63.4829 66.6791 62.9953C66.5335 63.4906 66.4086 63.9851 66.307 64.4778ZM83.7915 44.9668C83.6786 45.0039 83.5658 45.0419 83.453 45.0816C83.5718 45.0393 83.6898 44.9979 83.8087 44.9582C83.9207 44.9219 84.0309 44.8891 84.1412 44.8564C84.0249 44.8917 83.9086 44.9288 83.7915 44.9668Z" fill="black"/>
</g>
<path d="M31.448 75.2681L7.3832 60.6447C2.70029 57.7996 -0.0593233 52.8248 0.000967893 47.3382C0.0603978 41.8517 2.92854 36.939 7.67173 34.1966L44.203 13.0779L45.4941 15.3198L8.96283 36.4385C5.01892 38.7183 2.63397 42.8035 2.58402 47.3658C2.53406 51.9282 4.82943 56.0642 8.72252 58.4304L32.7873 73.0538L31.4472 75.2672L31.448 75.2681Z" fill="white" stroke="black" stroke-width="0.0309962" stroke-miterlimit="10"/>
<path d="M101.759 24.9742C100.312 23.2742 98.5294 21.7899 96.4279 20.5732C82.7934 12.7377 66.0755 12.6514 52.355 20.3488L42.1227 26.0874L37.0496 12.5392L47.2819 6.77482C54.0862 2.96926 61.5968 1.0708 69.1332 1.0708C76.6696 1.0708 84.4644 3.05556 91.3548 7.00781C98.2711 11.0118 101.759 17.9671 101.759 24.9828V24.9742Z" fill="#082422" stroke="black" stroke-width="0.0309962" stroke-miterlimit="10"/>
<path d="M106.83 38.5766C106.83 45.4801 103.454 52.3749 96.7099 56.4135L94.1604 57.9495L89.0873 44.3755L91.6368 42.874C98.3808 38.8096 103.614 29.728 99.4144 13.2908C102.791 17.1567 107.048 30.0999 106.83 38.5852V38.5766Z" fill="#082422" stroke="black" stroke-width="0.0309962" stroke-miterlimit="10"/>
<path d="M89.658 45.2807L88.5702 43.4495L91.1024 41.9394C97.1634 38.3228 100.75 31.9422 100.696 24.8713C100.641 17.7961 96.9541 11.4673 90.8319 7.94135C77.6023 0.317295 61.1178 0.230139 47.8098 7.71353L37.5862 13.4607L36.5449 11.6019L46.7685 5.85477C53.6529 1.98363 61.4624 -0.0399602 69.3596 0.000597894C77.2561 0.0420189 85.0474 2.14931 91.8922 6.0938C98.6758 10.0012 102.763 17.0151 102.822 24.8549C102.882 32.6913 98.9075 39.7622 92.1902 43.7705L89.658 45.2807Z" fill="white" stroke="black" stroke-width="0.0309962" stroke-miterlimit="10"/>
<path d="M65.2451 60.8626C65.5983 59.9651 66.0117 59.0763 66.4854 58.1961C66.5285 58.1184 66.5715 58.0321 66.6232 57.9545C67.1486 57.0052 67.7343 56.0646 68.3803 55.1586C68.3975 55.1413 68.4061 55.124 68.4233 55.0981C69.0865 54.1662 69.81 53.2687 70.5766 52.4144C70.5938 52.3971 70.611 52.3713 70.6283 52.354C71.3776 51.517 72.1786 50.7317 73.0055 49.9809C73.083 49.9119 73.1605 49.8429 73.238 49.7738C73.996 49.1094 74.7798 48.488 75.5894 47.9099C75.7616 47.7804 75.9425 47.6596 76.1148 47.5388C76.7435 47.1073 77.3981 46.7363 78.0441 46.3652C78.3369 46.2013 78.6298 46.0114 78.9312 45.8647C79.8442 45.4074 80.7744 45.0018 81.7046 44.6911C82.3162 44.4926 82.9105 44.3459 83.4875 44.2251C83.6684 44.1906 83.8493 44.1561 84.0302 44.1302C84.3574 44.0784 84.6847 44.0353 85.0034 44.0094C85.2101 43.9921 85.4082 43.9749 85.6063 43.9663H86.1576C86.3987 43.9663 86.6313 43.9835 86.8638 44.0008C86.993 44.0094 87.1308 44.0267 87.26 44.0439C87.5443 44.0871 87.8199 44.1388 88.0869 44.1992C88.1472 44.2165 88.2161 44.2251 88.2764 44.2424C88.5951 44.3287 88.9051 44.4409 89.198 44.5617C89.2669 44.5962 89.3444 44.6307 89.4133 44.6566C89.6458 44.7602 89.8612 44.881 90.0765 45.0104C90.1454 45.0536 90.2143 45.0881 90.2746 45.1312C90.5416 45.3038 90.8 45.4937 91.0325 45.7094L85.882 41.0582C83.9957 39.3763 81.2981 39.0596 78.8796 39.4703C78.7676 39.4876 78.6556 39.4876 78.535 39.5135C77.8804 39.6688 77.2319 39.7931 76.5454 40.0313C75.6152 40.3333 74.6936 40.7389 73.772 41.2049C73.4706 41.3516 73.1863 41.5414 72.8849 41.7054C72.437 41.9556 71.9805 42.18 71.5326 42.4647C71.3345 42.5942 71.1451 42.7409 70.947 42.8703C70.7747 42.9911 70.5938 43.1119 70.4216 43.2328C70.2148 43.3795 70.0081 43.5089 69.81 43.6642C69.3622 44.0008 68.9315 44.3546 68.5009 44.717C68.3544 44.8378 68.2166 44.9759 68.0702 45.0967C67.9927 45.1657 67.9238 45.2261 67.8463 45.2952C67.6998 45.4246 67.5448 45.5541 67.3984 45.6921C67.0625 46.0028 66.7438 46.3221 66.4165 46.65C66.115 46.9606 65.8136 47.2713 65.5294 47.5992C65.5035 47.6251 65.4863 47.651 65.4691 47.6683C65.4518 47.6855 65.4346 47.7114 65.4174 47.7287C65.1762 47.9962 64.9351 48.2723 64.7111 48.5484C64.4441 48.8677 64.1857 49.1956 63.9273 49.5236C63.7034 49.817 63.4795 50.119 63.2727 50.4124C63.2555 50.4297 63.2469 50.4469 63.2297 50.4728C63.2125 50.4901 63.2038 50.5159 63.1866 50.5332C62.9368 50.8784 62.7043 51.2322 62.4717 51.586C62.2306 51.9571 62.0066 52.3281 61.7827 52.7078C61.6707 52.8977 61.576 53.0875 61.4726 53.2773C61.4296 53.355 61.3865 53.4413 61.3348 53.519C61.2573 53.657 61.1798 53.7951 61.1023 53.9332C60.8611 54.3992 60.6372 54.8652 60.4304 55.3311C60.3012 55.6159 60.2065 55.9007 60.0945 56.1854C60.0342 56.3321 59.974 56.4875 59.9137 56.6342C59.862 56.7722 59.8017 56.9103 59.75 57.0484C59.4572 57.8768 59.2246 58.7052 59.0524 59.5336C58.2083 63.5981 59.0437 66.7564 61.0678 68.5859L66.2184 73.2371C64.1943 71.4077 63.3589 68.2493 64.2029 64.1849C64.401 63.227 64.7025 62.2519 65.0642 61.2854C65.1159 61.1387 65.1848 60.9834 65.2451 60.8367V60.8626Z" fill="#2BF2F1" stroke="black" stroke-width="0.0309962" stroke-miterlimit="10"/>
<path d="M81.6901 44.7018C89.6313 42.0957 94.7216 46.5916 93.0249 54.7723C91.3281 62.9529 83.4988 71.6945 75.5576 74.3005C67.5906 76.9066 62.5089 72.3935 64.2057 64.2128C65.9024 56.0322 73.7231 47.3079 81.6901 44.7018Z" fill="#50929D" stroke="black" stroke-width="0.0309962" stroke-miterlimit="10"/>
<path d="M73.0603 65.3187C73.3532 64.5852 73.6805 63.8603 74.068 63.1355C74.1025 63.0664 74.137 63.006 74.18 62.937C74.6107 62.1603 75.0844 61.3923 75.6184 60.6502C75.627 60.6329 75.6442 60.6157 75.6528 60.607C76.1955 59.8477 76.7812 59.1142 77.4099 58.4152C77.4271 58.3979 77.4357 58.3807 77.453 58.3634C78.0645 57.6817 78.7191 57.0345 79.3909 56.4304C79.4512 56.37 79.5201 56.3182 79.5804 56.2665C80.2005 55.7228 80.8379 55.2137 81.5011 54.7477C81.6475 54.6441 81.7853 54.5406 81.9317 54.4457C82.4485 54.0919 82.9739 53.7898 83.5079 53.4878C83.7491 53.3497 83.9903 53.203 84.2314 53.0822C84.9808 52.7025 85.7387 52.3746 86.4967 52.1244C86.9962 51.9604 87.4785 51.8396 87.9523 51.7447C88.1073 51.7102 88.2537 51.6929 88.4001 51.667C88.6671 51.6239 88.9341 51.5893 89.1925 51.5635C89.3562 51.5462 89.5284 51.5376 89.6921 51.5289H90.14C90.3381 51.5289 90.5276 51.5462 90.717 51.5635C90.829 51.5721 90.9324 51.5807 91.0443 51.598C91.2769 51.6325 91.5008 51.6756 91.7161 51.7274C91.7678 51.736 91.8195 51.7447 91.8712 51.7619C92.1382 51.831 92.388 51.9259 92.6291 52.0208C92.6894 52.0467 92.7411 52.0726 92.8014 52.0985C92.9909 52.1848 93.1718 52.2797 93.344 52.3833C93.3957 52.4178 93.456 52.4523 93.5077 52.4868C93.723 52.6335 93.9383 52.7888 94.1278 52.9614L89.9246 49.1645C89.9074 49.1472 89.8902 49.1386 89.873 49.1213C89.7265 48.9919 89.5629 48.8625 89.3992 48.7503C89.3648 48.733 89.3303 48.7158 89.3045 48.6899C89.2528 48.6554 89.1925 48.6208 89.1409 48.5863C89.0547 48.5345 88.9772 48.4828 88.8911 48.431C88.7963 48.3792 88.7016 48.3447 88.5982 48.2929C88.5379 48.267 88.4863 48.2412 88.426 48.2153C88.3915 48.198 88.3657 48.1807 88.3312 48.1721C88.1331 48.0945 87.9264 48.0254 87.7111 47.965C87.4958 47.9046 87.6853 47.965 87.668 47.9564C87.6163 47.9391 87.5647 47.9305 87.513 47.9219C87.3493 47.8787 87.1857 47.8442 87.022 47.8097C86.9618 47.8011 86.9015 47.8011 86.8412 47.7924C86.7378 47.7752 86.6258 47.7665 86.5139 47.7579C86.4105 47.7493 86.3158 47.732 86.2124 47.7234H85.2478C85.1702 47.7234 85.0755 47.7493 84.998 47.7579C84.7396 47.7838 84.4726 47.8097 84.2056 47.8615C84.1108 47.8787 84.0247 47.8787 83.93 47.896C83.8783 47.9046 83.818 47.9305 83.7663 47.9391C83.2926 48.034 82.8103 48.1549 82.3107 48.3188C81.5528 48.5691 80.7948 48.897 80.0455 49.2767C79.8043 49.3975 79.5632 49.5528 79.322 49.6823C78.9516 49.8894 78.5813 50.0706 78.2195 50.3036C78.0559 50.4071 77.9008 50.5279 77.7372 50.6401C77.5908 50.735 77.453 50.8386 77.3065 50.9421C77.1429 51.063 76.9706 51.1665 76.807 51.2959C76.4452 51.5721 76.0835 51.8569 75.739 52.1589C75.6184 52.2624 75.5064 52.366 75.3858 52.4695C75.3256 52.5213 75.2653 52.5817 75.205 52.6335C75.0844 52.7457 74.9638 52.8492 74.8432 52.9528C74.5762 53.203 74.3092 53.4705 74.0422 53.7294C73.7924 53.9797 73.5513 54.2386 73.3101 54.5061C73.2929 54.5233 73.2756 54.5492 73.2584 54.5665C73.2412 54.5837 73.2326 54.601 73.2154 54.6183C73.0173 54.8426 72.8278 55.0584 72.6383 55.2827C72.423 55.5416 72.2076 55.8091 72.0009 56.0766C71.82 56.3182 71.6392 56.5599 71.4669 56.8015C71.4583 56.8188 71.4411 56.836 71.4325 56.8446C71.4238 56.8533 71.4066 56.8792 71.398 56.8964C71.1999 57.1812 71.0018 57.466 70.8123 57.7593C70.6142 58.0614 70.4334 58.3634 70.2525 58.6741C70.1663 58.8294 70.0802 58.9847 69.9941 59.14C69.9596 59.2091 69.9166 59.2695 69.8821 59.3385C69.8218 59.4507 69.7529 59.5629 69.6926 59.6751C69.4945 60.0548 69.3137 60.4345 69.1414 60.8142C69.038 61.0471 68.9605 61.2801 68.8658 61.5131C68.8141 61.6339 68.7624 61.7548 68.7194 61.8842C68.6763 61.9964 68.6246 62.1086 68.5902 62.2207C68.3576 62.8938 68.1595 63.5755 68.0217 64.2486C67.3327 67.5709 68.0131 70.1511 69.6668 71.644L73.87 75.4409C72.2162 73.9481 71.5358 71.3679 72.2249 68.0456C72.3885 67.2603 72.6297 66.4664 72.9225 65.6811C72.9656 65.5603 73.0173 65.4395 73.0689 65.3101L73.0603 65.3187Z" fill="#2BF2F1" stroke="black" stroke-width="0.0309962" stroke-miterlimit="10"/>
<path d="M86.4884 52.1152C92.974 49.9924 97.1254 53.6599 95.7474 60.339C94.3607 67.0182 87.9698 74.1633 81.4842 76.2861C74.9813 78.4176 70.8299 74.7328 72.2166 68.0537C73.6033 61.3746 79.9941 54.2467 86.497 52.1152H86.4884Z" fill="#50929D" stroke="black" stroke-width="0.0309962" stroke-miterlimit="10"/>
<path d="M78.0124 75.2857C76.9616 75.2857 75.5146 75.0355 74.5586 73.8619C73.5767 72.6538 73.3011 70.7122 73.7834 68.3822C75.0581 62.2295 80.9839 55.6194 86.9872 53.6519C88.0466 53.3067 89.0457 53.1255 89.9501 53.1255C90.8544 53.1255 92.4478 53.3757 93.4039 54.5493C94.3772 55.7488 94.6528 57.6904 94.1791 60.0117C92.9216 66.0782 86.8838 72.8264 80.9839 74.7593C79.9245 75.1045 78.9254 75.2857 78.0124 75.2857Z" fill="#2C6E79" stroke="black" stroke-width="0.0309962" stroke-miterlimit="10"/>
<path d="M17.9113 34.0879C17.8683 33.2854 17.8683 32.4743 17.9199 31.6458C17.9199 31.5682 17.9286 31.4905 17.9372 31.4128C18.0061 30.5154 18.118 29.6007 18.2903 28.6946C18.2903 28.6773 18.2903 28.6601 18.2989 28.6342C18.4798 27.7022 18.7123 26.7789 18.988 25.8641C18.988 25.8383 18.9966 25.821 19.0052 25.7951C19.2808 24.9063 19.6081 24.0347 19.9698 23.189C20.0043 23.1114 20.0388 23.0337 20.0732 22.956C20.4091 22.188 20.7881 21.4545 21.2015 20.7383C21.2876 20.583 21.3824 20.4276 21.4685 20.2723C21.7958 19.7287 22.1576 19.2195 22.5193 18.719C22.683 18.4947 22.838 18.253 23.0102 18.0373C23.5443 17.3728 24.0955 16.7429 24.6898 16.1906C25.086 15.8282 25.4736 15.5089 25.8698 15.2241C25.999 15.1292 26.1196 15.0515 26.2488 14.9652C26.4813 14.8099 26.7052 14.6632 26.9378 14.5338C27.0842 14.4475 27.2306 14.3698 27.3771 14.2922C27.5149 14.2231 27.6527 14.1627 27.7905 14.1023C27.9714 14.0246 28.1522 13.947 28.3331 13.8866C28.4365 13.8521 28.5398 13.8089 28.6432 13.783C28.8671 13.714 29.0997 13.6536 29.3236 13.6104C29.3753 13.6018 29.427 13.5845 29.4786 13.5759C29.7543 13.5328 30.0213 13.5069 30.2883 13.4983H30.4864C30.6931 13.4983 30.9084 13.5069 31.1065 13.5328C31.1754 13.5328 31.2357 13.5414 31.3046 13.5587C31.563 13.6018 31.8214 13.6536 32.0712 13.7312L26.5847 12.014C26.5588 12.014 26.5416 11.9967 26.5158 11.9967C26.3177 11.9363 26.1282 11.8932 25.9215 11.8587C25.887 11.8587 25.8439 11.8587 25.8095 11.8414C25.7406 11.8328 25.6803 11.8242 25.6114 11.8155C25.5166 11.8069 25.4133 11.7896 25.3185 11.781H24.6898C24.4745 11.7896 24.2505 11.8155 24.0352 11.85C24.018 11.85 24.0094 11.85 23.9921 11.8587C23.9405 11.8673 23.8888 11.8846 23.8371 11.8932C23.6735 11.9277 23.5012 11.9536 23.3375 12.0054C23.2773 12.0226 23.2256 12.0485 23.1653 12.0658C23.0619 12.1003 22.9586 12.1348 22.8552 12.1693C22.7605 12.2038 22.6657 12.2297 22.5624 12.2643C22.4762 12.2988 22.3901 12.3419 22.3126 12.3851C22.1748 12.4455 22.037 12.5059 21.8992 12.5749C21.8217 12.6094 21.7527 12.6353 21.6752 12.6785C21.6063 12.713 21.5288 12.7734 21.4599 12.8165C21.2274 12.946 21.0034 13.0927 20.7709 13.248C20.6933 13.2998 20.6072 13.3429 20.5297 13.3947C20.4866 13.4292 20.4436 13.4724 20.3919 13.5069C19.9957 13.8003 19.5995 14.1109 19.2119 14.4734C18.6176 15.0256 18.0578 15.647 17.5324 16.3201C17.3601 16.5358 17.2051 16.7774 17.0414 17.0018C16.7916 17.347 16.5246 17.6749 16.2921 18.0459C16.1887 18.2099 16.094 18.3911 15.9906 18.5551C15.8959 18.7104 15.8098 18.8571 15.7236 19.0124C15.6203 19.1936 15.5083 19.3662 15.4136 19.5474C15.1982 19.953 14.9915 20.3759 14.7934 20.7987C14.7245 20.9454 14.6642 21.0921 14.6039 21.2388C14.5695 21.3165 14.535 21.3941 14.5006 21.4718C14.4317 21.6271 14.3628 21.7738 14.3025 21.9205C14.1561 22.2657 14.0269 22.6195 13.8977 22.9819C13.7771 23.3185 13.6651 23.6637 13.5531 24.0088C13.5531 24.0347 13.5359 24.0606 13.5273 24.0865C13.5273 24.1124 13.5187 24.1296 13.5101 24.1555C13.4239 24.4403 13.3378 24.7337 13.2603 25.0185C13.1656 25.355 13.088 25.6916 13.0105 26.0281C12.9416 26.3301 12.8813 26.6322 12.821 26.9256C12.821 26.9428 12.821 26.9601 12.8124 26.986C12.8124 27.0032 12.8124 27.0291 12.8038 27.0464C12.7349 27.3915 12.6832 27.7367 12.6315 28.0905C12.5799 28.453 12.5368 28.8154 12.5023 29.1778C12.4851 29.359 12.4765 29.5316 12.4593 29.7128C12.4593 29.7905 12.4507 29.8682 12.4421 29.9458C12.4421 30.0753 12.4162 30.2047 12.4162 30.3342C12.399 30.7656 12.3904 31.1971 12.3904 31.6199C12.3904 31.8788 12.4162 32.1291 12.4334 32.3793C12.4334 32.5174 12.4421 32.6468 12.4593 32.7763C12.4679 32.8971 12.4593 33.0265 12.4765 33.1473C12.5454 33.8722 12.6574 34.5798 12.8124 35.2615C13.579 38.6097 15.3016 40.7067 17.4548 41.3798L22.9413 43.097C20.7881 42.4239 19.0655 40.327 18.2989 36.9788C18.118 36.1849 18.0061 35.3478 17.9458 34.5022C17.9372 34.3727 17.9286 34.2346 17.9199 34.1052L17.9113 34.0879Z" fill="#2BF2F1" stroke="black" stroke-width="0.0309962" stroke-miterlimit="10"/>
<path d="M24.7179 16.2086C29.7996 11.4883 35.1827 13.1106 36.733 19.8588C38.2834 26.607 35.4153 35.9094 30.3336 40.6211C25.2347 45.35 19.8515 43.7104 18.3012 36.9622C16.7508 30.214 19.6276 20.9288 24.7179 16.1999V16.2086Z" fill="#2BF2F1" stroke="black" stroke-width="0.0309962" stroke-miterlimit="10"/>
<path d="M23.8381 36.7353C23.7864 35.7688 23.7864 34.7851 23.8467 33.7927C23.8467 33.6978 23.8639 33.6115 23.8639 33.5166C23.9415 32.4293 24.0879 31.3333 24.2946 30.2374C24.2946 30.2115 24.3032 30.1943 24.3118 30.1684C24.5271 29.0466 24.8028 27.9247 25.1473 26.8288C25.1473 26.8029 25.1645 26.777 25.1731 26.7511C25.509 25.6811 25.9052 24.6283 26.3445 23.6014C26.3876 23.5065 26.422 23.4116 26.4651 23.3167C26.8699 22.3933 27.335 21.5045 27.8259 20.6416C27.9293 20.4517 28.0413 20.2705 28.1532 20.0806C28.5494 19.4248 28.9801 18.8121 29.4193 18.2081C29.6174 17.9319 29.8069 17.6472 30.0136 17.3796C30.651 16.5771 31.3228 15.8264 32.0463 15.1533C32.52 14.7132 32.9938 14.3335 33.4761 13.9883C33.6311 13.8761 33.7775 13.7726 33.9326 13.669C34.2082 13.4792 34.4838 13.3066 34.7594 13.1513C34.9403 13.0477 35.1126 12.9528 35.2934 12.8579C35.4571 12.7716 35.6207 12.7025 35.793 12.6249C36.0083 12.5299 36.2323 12.4436 36.4476 12.366C36.5768 12.3228 36.6974 12.2797 36.8265 12.2365C37.1022 12.1502 37.3778 12.0812 37.6448 12.0294C37.7051 12.0208 37.7654 11.9949 37.8343 11.9863C38.1616 11.9345 38.4889 11.9 38.8075 11.8914H39.0401C39.2899 11.8914 39.5483 11.9086 39.7894 11.9345C39.8669 11.9431 39.9445 11.9518 40.022 11.9604C40.3407 12.0122 40.6507 12.0726 40.9522 12.1675L34.3374 10.0965C34.3116 10.0965 34.2857 10.0792 34.2599 10.0706C34.0273 10.0015 33.7861 9.94112 33.545 9.90661C33.5019 9.90661 33.4502 9.89798 33.4072 9.88935C33.3297 9.88072 33.2521 9.87209 33.1746 9.86346C33.054 9.8462 32.9335 9.82894 32.8129 9.82031H32.0635C31.8052 9.83757 31.5381 9.86346 31.2711 9.90661C31.2539 9.90661 31.2367 9.90661 31.2195 9.91524C31.1592 9.92387 31.0903 9.94112 31.03 9.95838C30.8319 10.0015 30.6252 10.036 30.4271 10.0878C30.3582 10.1051 30.2893 10.1396 30.2204 10.1569C30.0912 10.1914 29.9706 10.2432 29.8414 10.2863C29.7208 10.3294 29.6088 10.3553 29.4969 10.4071C29.3935 10.4503 29.2901 10.502 29.1954 10.5452C29.0318 10.6142 28.8595 10.6919 28.6959 10.7782C28.6097 10.8213 28.515 10.8558 28.4288 10.899C28.3427 10.9421 28.2566 11.0112 28.1618 11.0629C27.8862 11.2183 27.6106 11.3909 27.3264 11.5807C27.2316 11.6497 27.1283 11.6929 27.0335 11.7619C26.9819 11.7964 26.9216 11.8568 26.8699 11.8914C26.3962 12.2365 25.9138 12.6162 25.4401 13.0563C24.7252 13.7208 24.0534 14.4802 23.4074 15.2827C23.2007 15.5416 23.0112 15.835 22.8131 16.1025C22.5117 16.5167 22.1844 16.9137 21.9002 17.3624C21.771 17.5609 21.659 17.7766 21.5384 17.9837C21.4264 18.1649 21.3231 18.3461 21.2111 18.536C21.0905 18.7517 20.9527 18.9588 20.8321 19.1832C20.5651 19.6751 20.3154 20.1756 20.0828 20.6847C20.0053 20.8573 19.9278 21.0385 19.8503 21.2111C19.8072 21.306 19.7727 21.3923 19.7297 21.4872C19.6522 21.6684 19.566 21.8497 19.4885 22.0309C19.3163 22.4537 19.1526 22.8766 18.9976 23.308C18.8512 23.7136 18.7133 24.1278 18.5842 24.542C18.5755 24.5765 18.5669 24.6024 18.5583 24.637C18.5583 24.6628 18.5411 24.6887 18.5325 24.7146C18.4291 25.0598 18.3258 25.405 18.231 25.7588C18.119 26.1644 18.0243 26.5699 17.9296 26.9755C17.8434 27.3379 17.7745 27.7004 17.7056 28.0628C17.7056 28.0887 17.697 28.106 17.6884 28.1318C17.6884 28.1577 17.6798 28.1836 17.6712 28.2009C17.5936 28.6237 17.5247 29.0379 17.4645 29.4521C17.4042 29.8922 17.3525 30.3237 17.3094 30.7552C17.2922 30.9709 17.275 31.1866 17.2664 31.4024C17.2664 31.4973 17.2491 31.5836 17.2491 31.6785C17.2405 31.8338 17.2233 31.9978 17.2147 32.1531C17.1888 32.6709 17.1802 33.1887 17.1888 33.7064C17.1888 34.0171 17.2233 34.3191 17.2405 34.6298C17.2491 34.7937 17.2577 34.9491 17.2664 35.113C17.275 35.2597 17.275 35.415 17.2922 35.5531C17.3783 36.4247 17.5075 37.279 17.697 38.0988C18.6272 42.146 20.703 44.6657 23.3041 45.4769L29.9189 47.5479C27.3178 46.7368 25.242 44.2084 24.3118 40.1698C24.0879 39.212 23.9587 38.2023 23.8812 37.1754C23.8726 37.0115 23.8639 36.8561 23.8553 36.6922L23.8381 36.7353Z" fill="#2BF2F1" stroke="black" stroke-width="0.0309962" stroke-miterlimit="10"/>
<path d="M32.0375 15.1642C38.17 9.47742 44.6642 11.4277 46.5333 19.5652C48.4023 27.7027 44.9399 38.9295 38.8074 44.6162C32.6577 50.3203 26.1634 48.3441 24.2858 40.2066C22.4168 32.0691 25.8878 20.8596 32.0289 15.1556L32.0375 15.1642Z" fill="#50929D" stroke="black" stroke-width="0.0309962" stroke-miterlimit="10"/>
<path d="M31.8139 46.2727C28.9629 46.2727 26.7925 43.9342 25.8536 39.8525C24.1052 32.2414 27.3695 21.6963 33.123 16.3461C35.1126 14.4994 37.1539 13.5156 39.0144 13.5156C41.8567 13.5156 44.0271 15.8542 44.966 19.9272C46.723 27.5556 43.4673 38.1007 37.7138 43.4337C35.7156 45.289 33.6743 46.2641 31.8139 46.2641V46.2727Z" fill="#082422" stroke="black" stroke-width="0.0309962" stroke-miterlimit="10"/>
<path d="M32.5337 41.6997C30.2254 41.6997 29.3124 38.8088 29.0196 37.5662C27.7362 31.983 30.2254 23.949 34.4544 20.0227C35.7894 18.7887 37.1503 18.1069 38.2872 18.1069C40.5955 18.1069 41.5085 20.9891 41.7927 22.2318C43.0761 27.8236 40.5955 35.8662 36.3751 39.7839C35.0401 41.0179 33.6792 41.6997 32.5337 41.6997Z" fill="#50929D" stroke="black" stroke-width="0.0309962" stroke-miterlimit="10"/>
<path d="M33.9541 69.4411L24.2334 63.8182C21.9751 62.5119 19.0874 63.2871 17.7835 65.5497C16.4797 67.8123 17.2534 70.7055 19.5118 72.0119L29.2325 77.6348C31.4908 78.9411 34.3785 78.1659 35.6824 75.9033C36.9862 73.6406 36.2125 70.7474 33.9541 69.4411Z" fill="#082422" stroke="black" stroke-width="0.0309962" stroke-miterlimit="10"/>
</g>
<defs>
<clipPath id="clip0_664_11607">
<rect width="113" height="80" fill="white"/>
</clipPath>
</defs>
</svg>
