<svg width="134" height="120" viewBox="0 0 134 120" fill="none" xmlns="http://www.w3.org/2000/svg">
<g clip-path="url(#clip0_664_11619)">
<path d="M16.3622 29.2921C20.714 13.0625 36.79 3.25866 52.2743 7.40442C54.1738 7.91302 55.9765 8.60804 57.6688 9.46594C59.5615 9.56805 61.4679 9.86617 63.3651 10.3741C69.2427 11.948 74.1873 15.3098 77.8202 19.7638C83.2002 17.7226 89.171 17.2839 95.0555 18.8595C96.9467 19.3659 98.7417 20.0566 100.428 20.9093C102.312 21.0127 104.21 21.3108 106.099 21.8165C121.566 25.9581 130.57 42.4775 126.218 58.7072C123.828 67.62 117.907 74.5954 110.492 78.3878L110.491 78.3868L60.5282 106.895C60.5094 106.905 60.4866 106.909 60.4657 106.903L49.4237 103.946C49.4194 103.945 49.416 103.941 49.412 103.94C49.3869 103.937 49.3632 103.925 49.3495 103.901L18.6942 51.9044C18.6774 51.8757 18.6799 51.8392 18.7001 51.8126C18.7103 51.7993 18.7239 51.7894 18.7391 51.7843C15.2994 45.1982 14.2388 37.211 16.3622 29.2921Z" fill="#8DFDFA" stroke="#082422" stroke-width="0.164607" stroke-linejoin="round"/>
<path d="M106.058 21.9752C121.431 26.0913 130.391 42.5155 126.061 58.6648C123.683 67.5322 117.792 74.4698 110.419 78.2412L110.415 78.2433L60.4773 106.735L49.5083 103.798L30.0163 54.9601L30.1644 54.9997L30.0756 54.8334C26.598 48.2565 25.5151 40.2512 27.6436 32.3131C31.9739 16.1638 47.9516 6.41686 63.3242 10.533C71.8722 12.8218 78.4367 18.9157 81.8368 26.6519L81.8774 26.7456L81.9604 26.685C88.7759 21.6841 97.5101 19.6864 106.058 21.9752Z" fill="#2BF2F1" stroke="#082422" stroke-width="0.164607"/>
<path d="M95.012 19.0181C110.402 23.1388 119.375 39.5666 115.045 55.7158C112.667 64.5832 106.772 71.5198 99.3922 75.2895L99.3886 75.2915L49.4492 103.749L18.9372 51.9942L19.0495 52.0242L18.9606 51.8579C15.4777 45.2796 14.3917 37.2733 16.5201 29.3353C20.8504 13.1862 36.8414 3.44278 52.2309 7.56326C60.7884 9.85457 67.3614 15.9508 70.7671 23.6885L70.8089 23.7816L70.8907 23.7216C77.7118 18.7222 86.4545 16.7268 95.012 19.0181Z" fill="#8DFDFA" stroke="#082422" stroke-width="0.164607"/>
<path d="M81.0818 56.8187L81.0398 56.9075L74.725 70.2972L74.6963 70.3593L63.2126 67.2752L56.9009 85.6214L56.8765 85.6937L40.746 81.3617L40.7753 81.2786L45.0206 69.0207C48.8884 56.2943 61.4871 51.5563 73.6743 54.8293L81.0818 56.8187Z" fill="#082422" stroke="#082422" stroke-width="0.164607"/>
<path d="M99.3361 36.4961L99.2941 36.5849L93.7174 48.3668L93.6887 48.4289L71.2051 42.3907L67.8004 52.4191L67.7755 52.4934L67.6994 52.4719L67.0384 52.2823L67.0375 52.282C62.306 50.8615 58.7403 47.9859 56.7762 44.2924C54.8119 40.5985 54.4536 36.093 56.1268 31.4188C56.5272 30.299 57.1677 28.8553 57.7079 27.6936C57.9782 27.1124 58.2235 26.6007 58.4012 26.2346C58.4901 26.0517 58.5626 25.9049 58.6124 25.8039C58.6372 25.7536 58.6566 25.7143 58.6697 25.6879C58.6761 25.675 58.6813 25.6652 58.6846 25.6585C58.6863 25.6552 58.687 25.652 58.6878 25.6503L58.6893 25.6487L58.6895 25.6477L58.7196 25.588L99.3361 36.4961Z" fill="#082422" stroke="#082422" stroke-width="0.164607"/>
</g>
<defs>
<clipPath id="clip0_664_11619">
<rect width="134" height="120" fill="white"/>
</clipPath>
</defs>
</svg>
