<svg width="132" height="80" viewBox="0 0 132 80" fill="none" xmlns="http://www.w3.org/2000/svg">
<g clip-path="url(#clip0_1272_2054)">
<path d="M119.976 6.31641C105.779 -1.88036 82.8323 -1.87967 68.7241 6.31916C61.647 10.4316 58.1452 15.8269 58.2017 21.2187C58.2017 21.1651 58.1948 21.1108 58.1955 21.0571L58.1797 26.5445C58.1762 27.7984 58.3743 29.0524 58.7561 30.2911L51.3606 34.5886L51.3475 39.2816L0.185989 69.0138L0.183926 74.0095L0.168106 79.4972L8.79614 79.4817L14.8297 75.9758L19.3005 77.2209L26.0646 73.2901L26.0708 71.1375L27.9265 72.2091L32.1539 69.752L32.1594 67.6975L33.9299 68.7194L43.1452 63.3643L43.1501 61.7651L45.0072 62.2823L51.7712 58.3514L51.7774 56.1979L53.6332 57.2695L57.8605 54.8126L57.8646 53.3455L59.1288 54.0753L67.3318 49.308L71.3762 51.6431L80.9029 46.1069C94.0047 49.1738 109.548 47.6352 120.121 41.4909C127.131 37.4169 130.641 32.087 130.656 26.7488L130.672 21.2614C130.672 21.4169 130.658 21.5723 130.651 21.7277C130.879 16.168 127.324 10.5603 119.974 6.31641H119.976ZM111.599 16.1241C109.397 17.1331 106.254 17.1276 104.055 16.1048C106.26 15.0923 109.399 15.0999 111.599 16.1241Z" fill="#2BF2F1" stroke="#082422" stroke-width="0.338288" stroke-linejoin="round"/>
<path d="M111.601 16.1245C111.784 16.0405 111.963 15.9511 112.132 15.8535C112.893 15.4092 113.404 14.8843 113.674 14.3251C113.837 13.9847 113.906 13.6339 113.889 13.2838C113.886 13.235 113.882 13.1854 113.877 13.1366C113.871 13.0871 113.864 13.0368 113.855 12.9873C113.843 12.9316 113.829 12.8752 113.813 12.8202C113.793 12.7486 113.769 12.6771 113.741 12.6056C113.723 12.5588 113.704 12.5121 113.682 12.466C113.658 12.4164 113.634 12.3676 113.608 12.3188C113.581 12.2686 113.55 12.219 113.518 12.1695C113.472 12.0966 113.421 12.0244 113.367 11.9536C113.333 11.9095 113.299 11.8655 113.261 11.8222C113.22 11.7754 113.179 11.7286 113.135 11.6826C113.092 11.6379 113.046 11.5938 113 11.5505C112.926 11.481 112.85 11.4136 112.767 11.3469C112.717 11.3063 112.667 11.2657 112.614 11.2265C112.556 11.1839 112.497 11.1413 112.436 11.1C112.378 11.0607 112.317 11.0229 112.256 10.9851C112.206 10.9542 112.158 10.9225 112.106 10.8922C110.495 9.96095 108.207 9.6624 106.166 9.99671L106.111 10.0042C105.966 10.029 105.823 10.0593 105.681 10.0909C105.639 10.0998 105.597 10.1068 105.556 10.1164C105.423 10.1473 105.293 10.1845 105.162 10.2216C105.115 10.2347 105.066 10.2457 105.019 10.2601C104.882 10.3021 104.748 10.3495 104.614 10.3977C104.579 10.4108 104.541 10.4218 104.506 10.4348C104.349 10.4947 104.196 10.56 104.047 10.6295L104.021 10.6405C103.863 10.7148 103.71 10.7939 103.563 10.8791L103.544 10.8929C102.954 11.2341 102.512 11.6289 102.218 12.0498C102.19 12.0911 102.168 12.1337 102.143 12.1757C102.103 12.2397 102.061 12.3023 102.028 12.3669C101.989 12.4412 101.962 12.5162 101.933 12.5911L101.89 12.6922C101.862 12.7796 101.841 12.8683 101.825 12.9571L101.808 13.0238C101.794 13.1166 101.788 13.2095 101.786 13.3031L101.78 13.3608V13.3835C101.79 14.2791 102.387 15.1733 103.57 15.8542C103.726 15.9443 103.89 16.0275 104.058 16.1059C106.262 15.0935 109.402 15.101 111.602 16.1252L111.601 16.1245Z" fill="#00A8A7" stroke="#082422" stroke-width="0.338288" stroke-linejoin="round"/>
<path d="M60.3213 28.1846C60.269 28.0993 60.2194 28.014 60.1685 27.9288C60.0386 27.7093 59.9154 27.4885 59.7978 27.2671C59.7538 27.1838 59.7083 27.1013 59.6664 27.018C59.5178 26.7237 59.3775 26.4279 59.251 26.1308L59.2152 26.0393C59.1031 25.7704 59.002 25.5001 58.9084 25.2291C58.8775 25.1389 58.8486 25.0488 58.8197 24.9588C58.7461 24.7297 58.6794 24.5007 58.6195 24.2709C58.5982 24.1904 58.5748 24.1106 58.5556 24.0295C58.4827 23.7282 58.4187 23.4262 58.3685 23.1236C58.3602 23.0727 58.3554 23.0218 58.3472 22.9716C58.3079 22.7157 58.2763 22.4599 58.2536 22.204C58.2454 22.1112 58.2385 22.019 58.2323 21.9261C58.2165 21.6909 58.2076 21.455 58.2048 21.2191C58.2048 21.1654 58.1979 21.111 58.1986 21.0574L58.1828 26.5448C58.1793 27.7988 58.3775 29.0527 58.7592 30.2914L60.8907 29.0527C60.6885 28.7651 60.5014 28.4755 60.3219 28.1839L60.3213 28.1846Z" fill="#00A8A7" stroke="#082422" stroke-width="0.338288" stroke-linejoin="round"/>
<path d="M51.3602 34.5889L51.3471 39.2818L55.4053 36.924L51.3602 34.5889Z" fill="#00A8A7" stroke="#082422" stroke-width="0.338288" stroke-linejoin="round"/>
<path d="M130.654 21.7273C130.647 21.8897 130.646 22.0513 130.633 22.2137C130.619 22.3863 130.593 22.5583 130.571 22.7302C130.551 22.8918 130.537 23.0541 130.51 23.2158C130.482 23.3884 130.442 23.5597 130.407 23.7316C130.373 23.8919 130.346 24.0528 130.306 24.2131C130.264 24.3851 130.208 24.5556 130.159 24.7276C130.113 24.8872 130.071 25.0475 130.019 25.2063C129.962 25.3769 129.892 25.5462 129.829 25.716C129.769 25.8742 129.715 26.0331 129.649 26.1906C129.578 26.3612 129.494 26.5297 129.415 26.6989C129.343 26.8544 129.277 27.0112 129.197 27.1659C129.111 27.3351 129.012 27.503 128.919 27.6715C128.834 27.8249 128.754 27.9783 128.663 28.131C128.562 28.2988 128.448 28.4645 128.34 28.631C128.242 28.7817 128.15 28.933 128.045 29.0822C127.929 29.2493 127.799 29.4137 127.675 29.5795C127.565 29.726 127.462 29.8732 127.347 30.0184C127.214 30.1841 127.069 30.3464 126.929 30.5101C126.807 30.6532 126.692 30.797 126.563 30.9386C126.415 31.1023 126.254 31.2626 126.099 31.4243C125.965 31.5625 125.839 31.7028 125.7 31.8397C125.534 32.0027 125.355 32.1623 125.181 32.3232C125.038 32.456 124.902 32.5901 124.752 32.7208C124.569 32.8824 124.371 33.0406 124.178 33.2002C124.026 33.3268 123.88 33.4547 123.723 33.5799C123.511 33.747 123.285 33.9101 123.065 34.0744C122.913 34.1872 122.768 34.3028 122.611 34.4142C122.359 34.5944 122.091 34.7698 121.827 34.9459C121.688 35.0381 121.558 35.1323 121.417 35.2231C121.004 35.4879 120.579 35.7486 120.139 36.0038C109.566 42.148 94.0236 43.6867 80.9217 40.6197L80.9062 46.1072C94.0074 49.1742 109.55 47.6355 120.124 41.4912C127.133 37.4172 130.644 32.0873 130.659 26.7491L130.675 21.2617C130.675 21.4171 130.661 21.5719 130.654 21.7273Z" fill="#00A8A7" stroke="#082422" stroke-width="0.338288" stroke-linejoin="round"/>
<path d="M55.823 48.1388L55.8271 46.6716L54.5587 47.409L55.823 48.1388Z" fill="#00D2D1" stroke="#082422" stroke-width="0.338288" stroke-linejoin="round"/>
<path d="M55.8313 46.6716L55.8272 48.1388L57.881 49.3246L57.87 53.3456L59.1342 54.0753L59.1493 48.5879L55.8313 46.6716Z" fill="#00A8A7" stroke="#082422" stroke-width="0.338288" stroke-linejoin="round"/>
<path d="M50.3302 51.1201L50.3337 49.8655L49.6245 50.2775L50.3302 51.1201Z" fill="#00D2D1" stroke="#082422" stroke-width="0.338288" stroke-linejoin="round"/>
<path d="M50.3343 49.8655L50.3309 51.1201L51.7904 52.863L51.7815 56.1976L53.6372 57.2685L53.6523 51.781L50.3343 49.8655Z" fill="#00A8A7" stroke="#082422" stroke-width="0.338288" stroke-linejoin="round"/>
<path d="M40.5547 56.3682L40.5568 55.5483L39.8476 55.9604L40.5547 56.3682Z" fill="#00D2D1" stroke="#082422" stroke-width="0.338288" stroke-linejoin="round"/>
<path d="M40.5562 55.5483L40.5541 56.3682L43.1651 57.8759L43.1541 61.7642L45.012 62.2821L45.0271 56.794L40.5562 55.5483Z" fill="#00A8A7" stroke="#082422" stroke-width="0.338288" stroke-linejoin="round"/>
<path d="M30.6228 63.3702L30.629 61.3157L28.8524 62.3481L30.6228 63.3702Z" fill="#00D2D1" stroke="#082422" stroke-width="0.338288" stroke-linejoin="round"/>
<path d="M30.6312 61.3157L30.625 63.3702L32.1726 64.2637L32.163 67.6968L33.9335 68.7194L33.9493 63.2313L30.6312 61.3157Z" fill="#00A8A7" stroke="#082422" stroke-width="0.338288" stroke-linejoin="round"/>
<path d="M24.6231 66.0588L24.6273 64.8049L23.9181 65.2169L24.6231 66.0588Z" fill="#00D2D1" stroke="#082422" stroke-width="0.338288" stroke-linejoin="round"/>
<path d="M24.6286 64.8049L24.6245 66.0588L26.0847 67.8022L26.0751 71.1367L27.9309 72.2076L27.9467 66.7205L24.6286 64.8049Z" fill="#00A8A7" stroke="#082422" stroke-width="0.338288" stroke-linejoin="round"/>
<path d="M67.3506 43.8203L67.3345 49.3078L71.3788 51.6429L71.395 46.1555L67.3506 43.8203Z" fill="#00A8A7" stroke="#082422" stroke-width="0.338288" stroke-linejoin="round"/>
<path d="M14.8497 70.4883L14.8346 75.9753L19.3054 77.2211L19.3212 71.7333L14.8497 70.4883Z" fill="#00A8A7" stroke="#082422" stroke-width="0.338288" stroke-linejoin="round"/>
<path d="M71.3916 46.1554L71.3761 51.6429L80.9029 46.1066L80.9183 40.6191L71.3916 46.1554Z" fill="#00D2D1" stroke="#082422" stroke-width="0.338288" stroke-linejoin="round"/>
<path d="M59.1459 48.5876L59.1308 54.075L67.3338 49.3078L67.3493 43.8203L59.1459 48.5876Z" fill="#00D2D1" stroke="#082422" stroke-width="0.338288" stroke-linejoin="round"/>
<path d="M53.6523 51.7814L53.6371 57.2688L57.8644 54.8126L57.8686 53.3455L57.8796 49.3245L53.6523 51.7814Z" fill="#00D2D1" stroke="#082422" stroke-width="0.338288" stroke-linejoin="round"/>
<path d="M45.0256 56.7947L45.0105 62.2828L51.7745 58.3519L51.7807 56.1983L51.7897 52.8638L45.0256 56.7947Z" fill="#00D2D1" stroke="#082422" stroke-width="0.338288" stroke-linejoin="round"/>
<path d="M33.947 63.2313L33.9312 68.7198L43.1466 63.3641L43.1507 61.7642L43.1618 57.876L33.947 63.2313Z" fill="#00D2D1" stroke="#082422" stroke-width="0.338288" stroke-linejoin="round"/>
<path d="M27.9438 66.7208L27.928 72.2083L32.156 69.7511L32.1616 67.6967L32.1712 64.2639L27.9438 66.7208Z" fill="#00D2D1" stroke="#082422" stroke-width="0.338288" stroke-linejoin="round"/>
<path d="M19.3199 71.7339L19.3041 77.221L26.0681 73.2902L26.0743 71.1376L26.084 67.8025L19.3199 71.7339Z" fill="#00D2D1" stroke="#082422" stroke-width="0.338288" stroke-linejoin="round"/>
<path d="M8.81569 73.9948L8.79982 79.4819L14.8341 75.9753L14.8492 70.4883L8.81569 73.9948Z" fill="#00D2D1" stroke="#082422" stroke-width="0.338288" stroke-linejoin="round"/>
<path d="M0.183926 74.0089L0.168106 79.4967L8.79614 79.4819L8.81194 73.9941L0.183926 74.0089Z" fill="#00A8A7" stroke="#082422" stroke-width="0.338288" stroke-linejoin="round"/>
<path d="M57.9915 39.6437C58.1236 39.5667 58.2212 39.4786 58.2934 39.3851C58.541 39.0652 58.4413 38.6766 57.9887 38.4152C57.3999 38.0755 56.4487 38.0755 55.8634 38.4152L55.4005 38.6842L52.178 40.5571L3.26703 68.9815C2.83165 69.2343 2.72572 69.6027 2.94238 69.9146C3.01667 70.0222 3.1281 70.1223 3.27873 70.2097C3.64396 70.4208 4.15089 70.5008 4.62273 70.4477C4.71696 70.4376 4.80982 70.4215 4.89992 70.4006C5.08014 70.3576 5.24865 70.2944 5.39516 70.2097L57.9922 39.6437H57.9915Z" fill="#00D2D1" stroke="#082422" stroke-width="0.338288" stroke-linejoin="round"/>
<path d="M123.117 21.635C123.098 21.4596 123.077 21.2918 123.05 21.1232C123.023 20.9486 122.99 20.78 122.956 20.6115C122.881 20.2752 122.794 19.9313 122.68 19.5949C122.627 19.4264 122.566 19.2586 122.506 19.0901C122.438 18.9085 122.358 18.7262 122.283 18.5378C122.216 18.3899 122.142 18.2413 122.068 18.0865C121.886 17.7165 121.677 17.3458 121.449 16.9826C121.375 16.8615 121.294 16.7405 121.213 16.6187C121.112 16.4571 120.998 16.3023 120.889 16.1476C120.532 15.6627 120.136 15.1846 119.698 14.7204C119.638 14.6598 119.585 14.5993 119.523 14.5388C119.375 14.384 119.226 14.2361 119.072 14.0875C118.85 13.8791 118.621 13.6701 118.385 13.4617L118.318 13.408C118.149 13.2601 117.982 13.1115 117.799 12.9705C117.597 12.8089 117.396 12.6473 117.18 12.4856L117.133 12.4519C116.863 12.2497 116.594 12.055 116.305 11.8659C115.793 11.5158 115.255 11.1726 114.689 10.8493C109.062 7.59793 101.696 5.96851 94.3375 5.96851C86.9795 5.96851 79.6417 7.59793 74.0478 10.8493C73.6975 11.0515 73.3614 11.2599 73.038 11.4683C71.7318 12.3033 70.6078 13.1982 69.6518 14.1412C68.6958 15.0767 67.9079 16.0603 67.3022 17.0693C67.235 17.1834 67.1743 17.2914 67.1069 17.4056L67.0595 17.4861C66.9246 17.7351 66.7967 17.9841 66.6825 18.233C66.5684 18.4889 66.4603 18.7379 66.3592 18.9938L66.3524 19.0075C66.2719 19.2366 66.1908 19.4718 66.1165 19.7009C65.9094 20.4031 65.7746 21.113 65.7196 21.8248L65.7258 21.8833C65.7326 21.972 65.7443 22.0601 65.754 22.1481C65.7711 22.3098 65.7911 22.4707 65.8166 22.6324C65.8317 22.7286 65.8496 22.825 65.8675 22.9206C65.8964 23.0719 65.928 23.2232 65.9637 23.3738C65.9886 23.477 66.0133 23.5802 66.0408 23.6834C66.0532 23.7294 66.0621 23.7762 66.0759 23.823C66.1082 23.9385 66.1481 24.0527 66.1853 24.1675C66.2093 24.2412 66.23 24.3154 66.2554 24.3891C66.3379 24.6284 66.4288 24.8664 66.5291 25.1037L66.5746 25.2041C66.6653 25.4125 66.7637 25.6202 66.8682 25.8273C66.8985 25.8871 66.9309 25.9463 66.9625 26.0061C67.0622 26.1952 67.1689 26.3837 67.2807 26.5715C67.3116 26.6231 67.3419 26.6754 67.3735 26.7269C67.674 27.2133 68.0121 27.694 68.3927 28.1659L68.4027 28.1782C68.5863 28.4059 68.7819 28.6315 68.9849 28.8557L69.0784 28.9575C69.2679 29.1639 69.4656 29.3675 69.672 29.5704L69.7459 29.644C70.2219 30.1062 70.7382 30.5575 71.2975 30.9969L71.3244 31.0176C71.5859 31.2225 71.8582 31.4241 72.1385 31.6235C72.1795 31.6531 72.2219 31.6827 72.2636 31.7123C72.5318 31.9007 72.8074 32.0865 73.0925 32.2694L73.1832 32.3286C73.5046 32.5329 73.8327 32.7351 74.1742 32.9325C82.4753 37.7259 94.5406 38.9812 104.793 36.7086C108.451 35.8977 111.88 34.6424 114.822 32.9325L114.894 32.8885C115.179 32.7213 115.456 32.5514 115.726 32.3794C115.835 32.31 115.94 32.2398 116.046 32.1704C116.235 32.0459 116.42 31.9214 116.601 31.7948C116.711 31.7185 116.82 31.6414 116.926 31.5644C117.111 31.4303 117.29 31.2948 117.467 31.1586C117.552 31.0926 117.64 31.0272 117.724 30.9612C117.969 30.7659 118.206 30.5684 118.434 30.369C118.512 30.3009 118.585 30.2321 118.66 30.1633C118.819 30.0202 118.975 29.8765 119.125 29.7306C119.209 29.6495 119.29 29.5683 119.371 29.4865C119.513 29.3434 119.651 29.199 119.786 29.0532C119.854 28.9796 119.923 28.906 119.989 28.8317C120.184 28.6143 120.371 28.3956 120.547 28.1741L120.557 28.1611C120.733 27.9382 120.9 27.7133 121.058 27.487C121.099 27.4299 121.137 27.3714 121.176 27.3144C121.3 27.1314 121.419 26.947 121.532 26.762C121.565 26.7084 121.598 26.6547 121.63 26.6004C122.062 25.8686 122.403 25.123 122.653 24.3698L122.672 24.3099C122.705 24.2088 122.742 24.1077 122.772 24.0066C122.963 23.3456 123.085 22.6798 123.14 22.0133C123.133 21.8875 123.127 21.7622 123.115 21.635H123.117ZM104.055 16.1056C103.887 16.0272 103.724 15.9439 103.568 15.8539C102.384 15.1736 101.787 14.2787 101.778 13.3832V13.3606L101.783 13.3027C101.786 13.2099 101.791 13.1163 101.806 13.0235L101.822 12.9568C101.84 12.868 101.859 12.78 101.888 12.692L101.93 12.5909C101.959 12.5158 101.987 12.4409 102.025 12.3666C102.058 12.302 102.1 12.2387 102.14 12.1754C102.166 12.1335 102.187 12.0908 102.216 12.0496C102.51 11.6279 102.951 11.2331 103.541 10.8926L103.561 10.8789C103.708 10.7942 103.861 10.7145 104.018 10.6402L104.044 10.6292C104.194 10.5597 104.347 10.4944 104.504 10.4345C104.539 10.4215 104.577 10.4104 104.612 10.3974C104.745 10.3485 104.879 10.3018 105.017 10.2598C105.064 10.2454 105.112 10.235 105.159 10.2213C105.289 10.1841 105.42 10.147 105.554 10.116C105.595 10.1064 105.636 10.0996 105.678 10.0906C105.821 10.0596 105.963 10.0287 106.108 10.004L106.163 9.99638C108.204 9.66213 110.493 9.96062 112.104 10.8919C112.156 10.9222 112.204 10.9538 112.253 10.9848C112.315 11.0226 112.375 11.0605 112.433 11.0996C112.494 11.1409 112.553 11.1829 112.611 11.2262C112.664 11.2654 112.714 11.306 112.764 11.3466C112.847 11.4133 112.924 11.4814 112.998 11.5502C113.044 11.5942 113.09 11.6375 113.133 11.6822C113.177 11.7284 113.218 11.7751 113.259 11.8219C113.296 11.8652 113.33 11.9092 113.364 11.9532C113.419 12.0248 113.47 12.0963 113.515 12.1692C113.547 12.2188 113.578 12.2682 113.605 12.3185C113.632 12.3673 113.657 12.4161 113.679 12.4657C113.701 12.5117 113.72 12.5585 113.739 12.6053C113.767 12.6769 113.79 12.7484 113.81 12.8199C113.827 12.8756 113.841 12.9313 113.852 12.987C113.862 13.0366 113.868 13.0861 113.874 13.1363C113.88 13.1852 113.884 13.2346 113.886 13.2835C113.903 13.6329 113.834 13.9844 113.672 14.3249C113.402 14.8834 112.891 15.4088 112.13 15.8532C111.96 15.9515 111.782 16.0403 111.599 16.1242C109.396 17.1332 106.253 17.1277 104.055 16.105L104.055 16.1056Z" fill="#00D2D1" stroke="#082422" stroke-width="0.338288" stroke-linejoin="round"/>
<path d="M65.7201 21.821V21.8272V21.8251C65.7744 21.1132 65.9092 20.4034 66.117 19.7011C66.1912 19.4721 66.2717 19.2369 66.3529 19.0078L66.3598 18.994C66.4609 18.7382 66.5682 18.4892 66.683 18.2333C66.7972 17.9843 66.9252 17.7353 67.06 17.4863L67.1074 17.4059C67.1748 17.2917 67.2356 17.1837 67.3028 17.0695C67.9086 16.0598 68.6965 15.0769 69.6524 14.1415C70.6084 13.1991 71.7324 12.3036 73.0386 11.4686C73.362 11.2602 73.6981 11.0511 74.0484 10.8496C79.6423 7.59821 86.9869 5.96877 94.3381 5.96877C101.689 5.96877 109.061 7.59821 114.69 10.8496C115.255 11.1728 115.794 11.5161 116.305 11.8662C116.595 12.0546 116.864 12.25 117.133 12.4522L117.18 12.4859C117.396 12.6475 117.598 12.8092 117.8 12.9708C117.981 13.1125 118.15 13.2604 118.319 13.4082L118.386 13.4619C118.622 13.6703 118.85 13.8794 119.072 14.0878C119.227 14.2357 119.375 14.3843 119.523 14.539C119.584 14.5996 119.638 14.6601 119.699 14.7206C120.136 15.1849 120.534 15.6629 120.89 16.1479C120.998 16.3026 121.113 16.4574 121.213 16.619C121.294 16.7401 121.375 16.8611 121.449 16.9829C121.679 17.346 121.887 17.7167 122.069 18.0868C122.143 18.2416 122.216 18.3895 122.284 18.538C122.358 18.7265 122.438 18.9081 122.506 19.0903C122.567 19.2588 122.627 19.4267 122.68 19.5952C122.795 19.9315 122.883 20.2755 122.957 20.6118C122.99 20.7803 123.024 20.9481 123.051 21.1235C123.078 21.2921 123.097 21.4599 123.118 21.6353C123.131 21.7625 123.137 21.8884 123.144 22.0136V22.0273C123.156 21.8953 123.166 21.7639 123.172 21.6305V21.2467C123.172 21.1215 123.168 20.9949 123.161 20.867L123.158 20.7755L123.152 20.6943C123.146 20.5471 123.137 20.4013 123.123 20.2541L123.117 20.1764C123.097 20.0017 123.077 19.8332 123.05 19.6647L123.037 19.5979L123.021 19.5058C123 19.3875 122.979 19.2692 122.956 19.153C122.93 19.0387 122.901 18.9225 122.873 18.8069L122.859 18.7533C122.807 18.547 122.75 18.3406 122.68 18.1364C122.627 17.9678 122.566 17.8 122.506 17.6315C122.471 17.5407 122.432 17.4471 122.395 17.3557C122.357 17.2642 122.32 17.1741 122.283 17.0798C122.216 16.932 122.141 16.7834 122.068 16.6286C122.049 16.5908 122.027 16.5536 122.009 16.5159C121.98 16.4608 121.951 16.4058 121.922 16.3514C121.825 16.1664 121.722 15.9827 121.613 15.7991C121.563 15.7159 121.515 15.6313 121.464 15.5487L121.449 15.5247C121.375 15.4036 121.294 15.2826 121.213 15.1615C121.112 14.9999 120.998 14.8451 120.889 14.6904C120.8 14.5693 120.701 14.4503 120.607 14.3299L120.57 14.2839C120.523 14.2233 120.477 14.1628 120.429 14.1029C120.292 13.9358 120.148 13.7707 120.002 13.6063C119.929 13.5231 119.858 13.4399 119.781 13.3573L119.698 13.2631C119.638 13.2026 119.584 13.1421 119.523 13.0815C119.433 12.9873 119.34 12.8979 119.249 12.8078C119.201 12.7603 119.155 12.7115 119.106 12.6647L119.072 12.631C118.989 12.5526 118.899 12.4748 118.815 12.3965C118.674 12.2658 118.533 12.1358 118.386 12.0051L118.319 11.9514C118.203 11.8496 118.083 11.7506 117.963 11.6515C117.908 11.6061 117.857 11.5587 117.8 11.514L117.738 11.4652C117.613 11.3654 117.484 11.265 117.354 11.1653C117.295 11.1199 117.241 11.0744 117.18 11.0291L117.133 10.9954C116.998 10.8943 116.864 10.7952 116.727 10.6976C116.59 10.5999 116.45 10.5043 116.305 10.41C116.049 10.2353 115.787 10.0613 115.518 9.89138C115.376 9.80197 115.228 9.71673 115.082 9.62866C114.951 9.55028 114.824 9.4698 114.69 9.39276C112.939 8.38093 111.019 7.52668 108.985 6.82994L108.958 6.82033L108.89 6.79828C108.093 6.52797 107.28 6.28035 106.452 6.0575C106.026 5.94332 105.597 5.83533 105.163 5.73354C104.297 5.52994 103.418 5.35179 102.528 5.1991C100.303 4.81736 98.0154 4.59519 95.7183 4.53122C95.2585 4.51815 94.7986 4.51196 94.3388 4.51196C93.8796 4.51196 93.4198 4.51815 92.9613 4.53122C87.9126 4.67085 82.9183 5.58084 78.5452 7.25844C77.7499 7.56386 76.9748 7.89401 76.2239 8.25024C75.4736 8.60587 74.7469 8.98691 74.0484 9.39276C73.6981 9.59498 73.362 9.80338 73.0386 10.0118C72.4222 10.4059 71.8494 10.8145 71.3123 11.234L71.2121 11.309C70.6487 11.7547 70.1297 12.2135 69.6524 12.6847C68.9351 13.3869 68.3133 14.1146 67.7909 14.8609L67.7835 14.8733C67.6128 15.1181 67.4521 15.3644 67.3035 15.6134C67.2733 15.665 67.2444 15.7145 67.2154 15.7647C67.1804 15.826 67.1453 15.8871 67.1081 15.9497L67.0606 16.0309C67.0304 16.0866 67.0056 16.1423 66.9761 16.1981C66.8942 16.3542 66.8144 16.5096 66.7402 16.6658C66.7223 16.7029 66.7009 16.7407 66.6838 16.7779C66.6624 16.8246 66.6452 16.8707 66.6246 16.9168C66.5544 17.0757 66.487 17.2339 66.4224 17.3921C66.4024 17.441 66.3797 17.4891 66.3605 17.5379L66.3536 17.5517C66.3198 17.648 66.2883 17.745 66.2545 17.8426C66.2284 17.9183 66.2029 17.9932 66.1775 18.0696C66.1582 18.1281 66.1362 18.1872 66.1176 18.2457C66.0825 18.3647 66.0557 18.4844 66.0248 18.6041C66.0035 18.6866 65.9794 18.7691 65.9601 18.8523C65.9209 19.0215 65.8886 19.1907 65.8577 19.3606C65.8425 19.4439 65.8239 19.5264 65.8109 19.6096C65.7345 20.0987 65.6933 20.5891 65.6933 21.0802V21.1139C65.6933 21.3512 65.7036 21.5885 65.7208 21.8244L65.7201 21.821Z" fill="#00A8A7" stroke="#082422" stroke-width="0.338288" stroke-linejoin="round"/>
</g>
<defs>
<clipPath id="clip0_1272_2054">
<rect width="131.092" height="80" fill="white"/>
</clipPath>
</defs>
</svg>
