<svg width="76" height="80" viewBox="0 0 76 80" fill="none" xmlns="http://www.w3.org/2000/svg">
<g clip-path="url(#clip0_664_11571)">
<path d="M73.075 59.7648L73.0704 61.8959C73.0659 62.1269 72.9186 62.3578 72.6145 62.5363L43.314 79.7351C42.7058 80.0881 41.7155 80.0881 41.1027 79.7351L0.460466 56.1964C0.151813 56.0179 0 55.7824 0 55.5469L0.00452405 53.4158C0.00452405 53.6513 0.160861 53.8863 0.469514 54.0653L41.1072 77.604C41.724 77.957 42.7103 77.957 43.3186 77.604L72.619 60.4052C72.9232 60.2267 73.075 59.9957 73.075 59.7648Z" fill="#082422" stroke="#082422" stroke-width="0.0440749" stroke-linecap="round" stroke-linejoin="round"/>
<path d="M72.6117 59.1189C73.2245 59.4739 73.228 60.0493 72.6188 60.4044L43.3163 77.6057C42.71 77.9592 41.7202 77.9592 41.1069 77.6042L0.465718 54.0654C-0.147065 53.7104 -0.150584 53.135 0.455663 52.782L29.7581 35.5807C30.3674 35.2257 31.3572 35.2257 31.97 35.5807L72.6117 59.1189Z" fill="#35605F" stroke="#082422" stroke-width="0.0440749" stroke-linecap="round" stroke-linejoin="round"/>
<path d="M32.0242 1.2341C31.4084 0.87757 30.9062 1.16502 30.9042 1.87758L30.8142 33.6483C30.8122 34.3579 31.3114 35.2257 31.9272 35.5823L72.9324 59.3318C73.5507 59.6898 74.0534 59.4029 74.0554 58.6928L74.1454 26.9221C74.1474 26.209 73.6482 25.3417 73.0299 24.9836L32.0242 1.2341Z" fill="#35605F" stroke="#082422" stroke-width="0.0440749" stroke-linecap="round" stroke-linejoin="round"/>
<path d="M71.9543 27.4102C71.9553 27.1298 71.7577 26.7864 71.5159 26.6462L34.4011 5.14986C33.8175 4.81199 33.0881 5.23307 33.0861 5.90882L33.0092 33.1606C33.0082 33.441 33.2057 33.7844 33.4475 33.9246L70.5628 55.421C71.1465 55.7588 71.8759 55.3377 71.8779 54.662L71.9543 27.4102Z" fill="#2BF2F1" stroke="#082422" stroke-width="0.0440749" stroke-linecap="round" stroke-linejoin="round"/>
<path d="M31.237 1.15753C31.4386 1.03902 31.7191 1.05617 32.0303 1.23216L73.0334 24.9842C73.6512 25.3402 74.1509 26.2066 74.1509 26.9232L74.0589 58.6909C74.0589 59.0429 73.9363 59.293 73.7347 59.4075L75.5886 58.3303C75.7857 58.2118 75.9128 57.9652 75.9128 57.6092L76.0003 25.8415C76.0048 25.1289 75.5052 24.2585 74.8868 23.9025L33.8792 0.154497C33.5725 -0.025534 33.292 -0.0431845 33.0859 0.0753235L31.237 1.15753Z" fill="#082422" stroke="#082422" stroke-width="0.0440749" stroke-linecap="round" stroke-linejoin="round"/>
<path d="M31.2888 1.12881C31.2933 1.12427 31.3018 1.12427 31.3064 1.12427C31.2802 1.13284 31.2586 1.14595 31.237 1.15906C31.2541 1.14646 31.2712 1.13738 31.2888 1.12881Z" fill="white" stroke="#082422" stroke-width="0.0440749" stroke-linecap="round" stroke-linejoin="round"/>
<path d="M31.2888 1.12881C31.2933 1.12427 31.3018 1.12427 31.3064 1.12427C31.2802 1.13284 31.2586 1.14595 31.237 1.15906C31.2541 1.14646 31.2712 1.13738 31.2888 1.12881Z" fill="#FEFCF9" stroke="#082422" stroke-width="0.0440749" stroke-linecap="round" stroke-linejoin="round"/>
<path d="M69.8389 59.517C70.1742 59.7111 70.1757 60.0258 69.8429 60.2199L54.4022 69.2215C54.0694 69.4156 53.5275 69.4156 53.1922 69.2215L14.5768 46.8563C14.2415 46.6621 14.241 46.3479 14.5738 46.1538L30.0145 37.1522C30.3473 36.9581 30.8882 36.9576 31.2235 37.1517L69.8389 59.517Z" fill="#082422" stroke="#082422" stroke-width="0.0440749" stroke-linecap="round" stroke-linejoin="round"/>
<path d="M35.1993 40.8658C35.4597 41.0166 35.4612 41.2607 35.2023 41.4115C34.9444 41.5618 34.5236 41.5623 34.2633 41.4115L32.9985 40.6787C32.7381 40.528 32.7376 40.2834 32.9955 40.1331C33.2543 39.9823 33.6741 39.9823 33.9345 40.1331L35.1993 40.8658Z" fill="#35605F" stroke="#082422" stroke-width="0.0440749" stroke-linecap="round" stroke-linejoin="round"/>
<path d="M32.5182 39.3146C32.7776 39.4649 32.7801 39.7095 32.5212 39.8603C32.2633 40.0106 31.8416 40.0106 31.5822 39.8603L30.3164 39.127C30.057 38.9768 30.0555 38.7317 30.3134 38.5814C30.5723 38.4306 30.993 38.4311 31.2524 38.5814L32.5182 39.3146Z" fill="#35605F" stroke="#082422" stroke-width="0.0440749" stroke-linecap="round" stroke-linejoin="round"/>
<path d="M31.5129 40.5408C31.7532 40.68 31.7552 40.9054 31.5169 41.0446L29.6735 42.1192C29.4348 42.2584 29.0457 42.2584 28.8059 42.1192L26.9525 41.0456C26.7122 40.9064 26.7112 40.6805 26.9494 40.5413L28.7928 39.4667C29.0316 39.3275 29.4197 39.328 29.6595 39.4672L31.5129 40.5408Z" fill="#35605F" stroke="#082422" stroke-width="0.0440749" stroke-linecap="round" stroke-linejoin="round"/>
<path d="M28.2028 42.4732C28.4431 42.6124 28.4441 42.8383 28.2058 42.9775L26.3634 44.0516C26.1246 44.1908 25.7356 44.1908 25.4958 44.0516L23.6423 42.978C23.4021 42.8388 23.401 42.6129 23.6393 42.4737L25.4817 41.3996C25.7205 41.2604 26.1096 41.2604 26.3493 41.3996L28.2028 42.4732Z" fill="#35605F" stroke="#082422" stroke-width="0.0440749" stroke-linecap="round" stroke-linejoin="round"/>
<path d="M55.6833 58.3904C55.9235 58.5296 55.9235 58.755 55.6853 58.8942L53.8429 59.9684C53.6041 60.1075 53.2165 60.108 52.9762 59.9689L51.1218 58.8947C50.8815 58.7555 50.8815 58.5301 51.1198 58.3909L52.9622 57.3168C53.201 57.1776 53.589 57.1771 53.8288 57.3163L55.6833 58.3904Z" fill="#35605F" stroke="#082422" stroke-width="0.0440749" stroke-linecap="round" stroke-linejoin="round"/>
<path d="M52.3691 60.3196C52.6094 60.4588 52.6104 60.6837 52.3721 60.8229L50.5287 61.8976C50.2899 62.0367 49.9034 62.0367 49.6631 61.8976L47.8087 60.8234C47.5684 60.6842 47.5674 60.4593 47.8056 60.3201L49.649 59.2455C49.8878 59.1063 50.2744 59.1063 50.5147 59.2455L52.3691 60.3196Z" fill="#35605F" stroke="#082422" stroke-width="0.0440749" stroke-linecap="round" stroke-linejoin="round"/>
<path d="M62.5524 62.366C62.7927 62.5052 62.7937 62.7311 62.5554 62.8703L60.713 63.9444C60.4742 64.0836 60.0852 64.0836 59.8454 63.9444L57.9919 62.8708C57.7517 62.7316 57.7507 62.5057 57.9889 62.3665L59.8313 61.2924C60.0701 61.1532 60.4592 61.1532 60.6989 61.2924L62.5524 62.366Z" fill="#35605F" stroke="#082422" stroke-width="0.0440749" stroke-linecap="round" stroke-linejoin="round"/>
<path d="M52.4957 64.2414C52.736 64.3806 52.736 64.606 52.4977 64.7452L50.6553 65.8194C50.4165 65.9585 50.029 65.959 49.7887 65.8199L44.4988 62.7558C44.2585 62.6166 44.2585 62.3912 44.4968 62.252L46.3392 61.1779C46.578 61.0387 46.966 61.0382 47.2058 61.1774L52.4957 64.2414Z" fill="#35605F" stroke="#082422" stroke-width="0.0440749" stroke-linecap="round" stroke-linejoin="round"/>
<path d="M59.24 64.299C59.4803 64.4382 59.4823 64.6636 59.244 64.8028L57.4007 65.8775C57.1619 66.0166 56.7738 66.0161 56.534 65.877L51.2452 62.8139C51.0049 62.6747 51.0039 62.4498 51.2422 62.3106L53.0855 61.236C53.3243 61.0968 53.7109 61.0968 53.9512 61.236L59.24 64.299Z" fill="#35605F" stroke="#082422" stroke-width="0.0440749" stroke-linecap="round" stroke-linejoin="round"/>
<path d="M55.9285 66.229C56.1688 66.3682 56.1698 66.5941 55.9315 66.7333L54.0891 67.8075C53.8503 67.9467 53.4613 67.9467 53.2215 67.8075L51.368 66.7338C51.1278 66.5947 51.1268 66.3687 51.365 66.2295L53.2074 65.1554C53.4462 65.0162 53.8353 65.0162 54.075 65.1554L55.9285 66.229Z" fill="#35605F" stroke="#082422" stroke-width="0.0440749" stroke-linecap="round" stroke-linejoin="round"/>
<path d="M45.6241 60.2605C45.8644 60.3997 45.8654 60.6256 45.6271 60.7648L43.7847 61.839C43.546 61.9782 43.1569 61.9782 42.9171 61.839L41.0637 60.7653C40.8234 60.6262 40.8224 60.4002 41.0606 60.261L42.903 59.1869C43.1418 59.0477 43.5309 59.0477 43.7707 59.1869L45.6241 60.2605Z" fill="#35605F" stroke="#082422" stroke-width="0.0440749" stroke-linecap="round" stroke-linejoin="round"/>
<path d="M48.9338 58.3299C49.1741 58.4691 49.1761 58.6945 48.9378 58.8337L47.0944 59.9083C46.8556 60.0475 46.4676 60.047 46.2278 59.9078L44.3744 58.8342C44.1341 58.695 44.1321 58.4696 44.3703 58.3304L46.2137 57.2557C46.4525 57.1166 46.8401 57.1171 47.0803 57.2563L48.9338 58.3299Z" fill="#35605F" stroke="#082422" stroke-width="0.0440749" stroke-linecap="round" stroke-linejoin="round"/>
<path d="M45.4995 56.3414C45.7398 56.4806 45.7408 56.7055 45.5025 56.8446L43.6592 57.9193C43.4204 58.0585 43.0338 58.0585 42.7935 57.9193L40.9391 56.8452C40.6988 56.706 40.6978 56.4811 40.9361 56.3419L42.7795 55.2672C43.0182 55.128 43.4048 55.128 43.6451 55.2672L45.4995 56.3414Z" fill="#35605F" stroke="#082422" stroke-width="0.0440749" stroke-linecap="round" stroke-linejoin="round"/>
<path d="M31.6385 44.4603C31.8788 44.5995 31.8798 44.8254 31.6415 44.9646L29.7991 46.0387C29.5604 46.1779 29.1713 46.1779 28.9315 46.0387L27.0771 44.9646C26.8378 44.8259 26.8368 44.6 27.0751 44.4608L28.9174 43.3867C29.1562 43.2475 29.5453 43.2475 29.7841 43.3862L31.6385 44.4603Z" fill="#35605F" stroke="#082422" stroke-width="0.0440749" stroke-linecap="round" stroke-linejoin="round"/>
<path d="M25.6034 45.3203C25.8421 45.1811 26.2302 45.1816 26.469 45.3203L28.3234 46.3944C28.5637 46.5336 28.5657 46.759 28.3274 46.8982L26.4841 47.9728C26.2453 48.112 25.8572 48.1115 25.6174 47.9723L23.763 46.8982C23.5237 46.7595 23.5217 46.5341 23.76 46.3949L25.6034 45.3203Z" fill="#35605F" stroke="#082422" stroke-width="0.0440749" stroke-linecap="round" stroke-linejoin="round"/>
<path d="M35.072 46.4512C35.3123 46.5904 35.3123 46.8158 35.074 46.955L33.2316 48.0291C32.9928 48.1683 32.6053 48.1688 32.365 48.0296L30.5105 46.9555C30.2703 46.8163 30.2703 46.5909 30.5085 46.4517L32.3509 45.3776C32.5897 45.2384 32.9778 45.2379 33.2175 45.3771L35.072 46.4512Z" fill="#35605F" stroke="#082422" stroke-width="0.0440749" stroke-linecap="round" stroke-linejoin="round"/>
<path d="M25.0147 48.3233C25.2549 48.4625 25.256 48.6885 25.0177 48.8276L23.1753 49.9018C22.9365 50.041 22.5474 50.041 22.3077 49.9018L20.4532 48.8276C20.2139 48.689 20.2129 48.463 20.4512 48.3239L22.2936 47.2497C22.5324 47.1105 22.9214 47.1105 23.1602 47.2492L25.0147 48.3233Z" fill="#35605F" stroke="#082422" stroke-width="0.0440749" stroke-linecap="round" stroke-linejoin="round"/>
<path d="M31.7577 48.3836C31.998 48.5228 31.999 48.7477 31.7607 48.8869L29.9173 49.9615C29.6786 50.1007 29.292 50.1007 29.0517 49.9615L27.1973 48.8874C26.957 48.7482 26.956 48.5233 27.1943 48.3841L29.0376 47.3095C29.2764 47.1703 29.663 47.1703 29.9033 47.3095L31.7577 48.3836Z" fill="#35605F" stroke="#082422" stroke-width="0.0440749" stroke-linecap="round" stroke-linejoin="round"/>
<path d="M38.508 48.4419C38.7483 48.5811 38.7493 48.807 38.511 48.9462L36.6687 50.0204C36.4299 50.1595 36.0408 50.1595 35.801 50.0204L33.9476 48.9467C33.7073 48.8075 33.7063 48.5816 33.9446 48.4424L35.7869 47.3683C36.0257 47.2291 36.4148 47.2291 36.6546 47.3683L38.508 48.4419Z" fill="#35605F" stroke="#082422" stroke-width="0.0440749" stroke-linecap="round" stroke-linejoin="round"/>
<path d="M28.4489 50.3123C28.6892 50.4515 28.6892 50.6769 28.4509 50.8161L26.6086 51.8902C26.3698 52.0294 25.9822 52.0299 25.7419 51.8907L23.8875 50.8166C23.6472 50.6774 23.6472 50.452 23.8855 50.3128L25.7279 49.2387C25.9666 49.0995 26.3547 49.099 26.5945 49.2382L28.4489 50.3123Z" fill="#35605F" stroke="#082422" stroke-width="0.0440749" stroke-linecap="round" stroke-linejoin="round"/>
<path d="M35.1929 50.3724C35.4332 50.5116 35.4352 50.737 35.1969 50.8762L33.3535 51.9508C33.1147 52.09 32.7267 52.0895 32.4869 51.9503L30.6334 50.8767C30.3932 50.7375 30.3911 50.5121 30.6294 50.3729L32.4728 49.2982C32.7116 49.159 33.0997 49.1595 33.3394 49.2987L35.1929 50.3724Z" fill="#35605F" stroke="#082422" stroke-width="0.0440749" stroke-linecap="round" stroke-linejoin="round"/>
<path d="M31.8832 52.3047C32.1235 52.4439 32.1245 52.6698 31.8862 52.809L30.0438 53.8832C29.8051 54.0223 29.416 54.0223 29.1762 53.8832L27.3228 52.8095C27.0825 52.6703 27.0815 52.4444 27.3197 52.3052L29.1621 51.2311C29.4009 51.0919 29.79 51.0919 30.0298 51.2311L31.8832 52.3047Z" fill="#35605F" stroke="#082422" stroke-width="0.0440749" stroke-linecap="round" stroke-linejoin="round"/>
<path d="M38.6294 52.3614C38.8697 52.5006 38.8717 52.726 38.6334 52.8652L36.79 53.9398C36.5513 54.079 36.1632 54.0785 35.9234 53.9393L34.07 52.8657C33.8297 52.7265 33.8277 52.5011 34.0659 52.3619L35.9093 51.2872C36.1481 51.1481 36.5362 51.1486 36.776 51.2877L38.6294 52.3614Z" fill="#35605F" stroke="#082422" stroke-width="0.0440749" stroke-linecap="round" stroke-linejoin="round"/>
<path d="M42.1888 58.2733C42.4291 58.4125 42.4291 58.6379 42.1908 58.7771L40.3484 59.8513C40.1097 59.9904 39.7216 59.9909 39.4818 59.8518L30.7576 54.7988C30.5173 54.6596 30.5163 54.4337 30.7546 54.2945L32.5969 53.2204C32.8357 53.0812 33.2248 53.0812 33.4646 53.2204L42.1888 58.2733Z" fill="#35605F" stroke="#082422" stroke-width="0.0440749" stroke-linecap="round" stroke-linejoin="round"/>
<path d="M65.8616 60.4358C66.1019 60.575 66.1039 60.8004 65.8657 60.9396L64.0223 62.0143C63.7835 62.1535 63.3944 62.1535 63.1546 62.0143L61.3012 60.9406C61.0609 60.8015 61.0599 60.5755 61.2982 60.4363L63.1416 59.3617C63.3804 59.2225 63.7684 59.223 64.0082 59.3622L65.8616 60.4358Z" fill="#35605F" stroke="#082422" stroke-width="0.0440749" stroke-linecap="round" stroke-linejoin="round"/>
<path d="M59.119 60.378C59.3593 60.5172 59.3593 60.7426 59.121 60.8818L57.2786 61.9559C57.0398 62.0951 56.6523 62.0956 56.412 61.9564L54.5575 60.8823C54.3173 60.7431 54.3173 60.5177 54.5555 60.3785L56.3979 59.3043C56.6367 59.1652 57.0243 59.1647 57.2645 59.3038L59.119 60.378Z" fill="#35605F" stroke="#082422" stroke-width="0.0440749" stroke-linecap="round" stroke-linejoin="round"/>
<path d="M56.6569 53.2956C56.9163 53.4459 56.9188 53.6905 56.6599 53.8412C56.402 53.9915 55.9802 53.9915 55.7209 53.8412L54.4551 53.108C54.1957 52.9577 54.1942 52.7126 54.4521 52.5624C54.7109 52.4116 55.1317 52.4121 55.3911 52.5624L56.6569 53.2956Z" fill="#35605F" stroke="#082422" stroke-width="0.0440749" stroke-linecap="round" stroke-linejoin="round"/>
<path d="M59.3386 54.8496C59.598 54.9998 59.6005 55.2444 59.3416 55.3952C59.0838 55.5455 58.662 55.5455 58.4026 55.3952L57.1368 54.662C56.8774 54.5117 56.8759 54.2666 57.1338 54.1163C57.3927 53.9655 57.8135 53.966 58.0728 54.1163L59.3386 54.8496Z" fill="#35605F" stroke="#082422" stroke-width="0.0440749" stroke-linecap="round" stroke-linejoin="round"/>
<path d="M64.7016 57.9525C64.962 58.1033 64.9635 58.3474 64.7046 58.4981C64.4467 58.6484 64.026 58.6489 63.7656 58.4981L62.5008 57.7654C62.2404 57.6146 62.2399 57.3701 62.4978 57.2198C62.7567 57.069 63.1764 57.069 63.4368 57.2198L64.7016 57.9525Z" fill="#35605F" stroke="#082422" stroke-width="0.0440749" stroke-linecap="round" stroke-linejoin="round"/>
<path d="M67.3869 59.5077C67.6473 59.6585 67.6488 59.9025 67.3899 60.0533C67.132 60.2036 66.7113 60.2041 66.4509 60.0533L65.1861 59.3206C64.9257 59.1698 64.9252 58.9252 65.1831 58.775C65.442 58.6242 65.8617 58.6242 66.1221 58.775L67.3869 59.5077Z" fill="#35605F" stroke="#082422" stroke-width="0.0440749" stroke-linecap="round" stroke-linejoin="round"/>
<path d="M62.0207 56.4005C62.2811 56.5513 62.2826 56.7954 62.0237 56.9461C61.7658 57.0964 61.3451 57.0969 61.0847 56.9461L59.8199 56.2134C59.5595 56.0626 59.559 55.8181 59.8169 55.6678C60.0758 55.517 60.4955 55.517 60.7559 55.6678L62.0207 56.4005Z" fill="#35605F" stroke="#082422" stroke-width="0.0440749" stroke-linecap="round" stroke-linejoin="round"/>
<path d="M62.43 58.4471C62.6703 58.5863 62.6713 58.8112 62.433 58.9504L60.5897 60.025C60.3509 60.1642 59.9633 60.1647 59.723 60.0255L57.8686 58.9514C57.6283 58.8122 57.6283 58.5868 57.8666 58.4476L59.7099 57.3729C59.9487 57.2338 60.3353 57.2338 60.5756 57.3729L62.43 58.4471Z" fill="#35605F" stroke="#082422" stroke-width="0.0440749" stroke-linecap="round" stroke-linejoin="round"/>
<path d="M58.9935 56.4546C59.2338 56.5938 59.2348 56.8187 58.9965 56.9579L57.1531 58.0326C56.9144 58.1718 56.5268 58.1723 56.2865 58.0331L54.4321 56.9589C54.1918 56.8197 54.1918 56.5943 54.43 56.4551L56.2734 55.3805C56.5122 55.2413 56.8988 55.2413 57.1391 55.3805L58.9935 56.4546Z" fill="#35605F" stroke="#082422" stroke-width="0.0440749" stroke-linecap="round" stroke-linejoin="round"/>
<path d="M55.5582 54.4671C55.7985 54.6063 55.8005 54.8317 55.5622 54.9709L53.7188 56.0455C53.48 56.1847 53.091 56.1847 52.8512 56.0455L50.9977 54.9719C50.7575 54.8327 50.7565 54.6068 50.9947 54.4676L52.8381 53.393C53.0769 53.2538 53.4645 53.2543 53.7047 53.3935L55.5582 54.4671Z" fill="#35605F" stroke="#082422" stroke-width="0.0440749" stroke-linecap="round" stroke-linejoin="round"/>
<path d="M48.8111 54.407C49.0513 54.5462 49.0513 54.7716 48.8131 54.9108L46.9707 55.985C46.7319 56.1241 46.3438 56.1246 46.1041 55.9855L44.2496 54.9113C44.0093 54.7721 44.0093 54.5467 44.2476 54.4075L46.09 53.3334C46.3288 53.1942 46.7168 53.1937 46.9566 53.3329L48.8111 54.407Z" fill="#35605F" stroke="#082422" stroke-width="0.0440749" stroke-linecap="round" stroke-linejoin="round"/>
<path d="M52.123 52.48C52.3633 52.6192 52.3643 52.8441 52.126 52.9833L50.2826 54.058C50.0439 54.1971 49.6558 54.1976 49.416 54.0585L47.5616 52.9843C47.3213 52.8451 47.3213 52.6197 47.5596 52.4805L49.4029 51.4059C49.6417 51.2667 50.0283 51.2667 50.2686 51.4059L52.123 52.48Z" fill="#35605F" stroke="#082422" stroke-width="0.0440749" stroke-linecap="round" stroke-linejoin="round"/>
<path d="M41.9437 50.4307C42.184 50.5699 42.185 50.7958 41.9467 50.935L40.1043 52.0091C39.8655 52.1483 39.4765 52.1483 39.2367 52.0091L37.3832 50.9355C37.143 50.7963 37.142 50.5704 37.3802 50.4312L39.2226 49.3571C39.4614 49.2179 39.8505 49.2179 40.0902 49.3571L41.9437 50.4307Z" fill="#35605F" stroke="#082422" stroke-width="0.0440749" stroke-linecap="round" stroke-linejoin="round"/>
<path d="M42.0665 54.3509C42.3068 54.4901 42.3078 54.715 42.0695 54.8542L40.2261 55.9288C39.9873 56.068 39.6008 56.068 39.3605 55.9288L37.506 54.8547C37.2658 54.7155 37.2648 54.4906 37.503 54.3514L39.3464 53.2768C39.5852 53.1376 39.9718 53.1376 40.212 53.2768L42.0665 54.3509Z" fill="#35605F" stroke="#082422" stroke-width="0.0440749" stroke-linecap="round" stroke-linejoin="round"/>
<path d="M45.3772 52.42C45.6174 52.5592 45.6174 52.7846 45.3792 52.9238L43.5368 53.9979C43.298 54.1371 42.9099 54.1376 42.6702 53.9984L40.8157 52.9243C40.5754 52.7851 40.5754 52.5597 40.8137 52.4205L42.6561 51.3463C42.8949 51.2072 43.2829 51.2067 43.5227 51.3458L45.3772 52.42Z" fill="#35605F" stroke="#082422" stroke-width="0.0440749" stroke-linecap="round" stroke-linejoin="round"/>
<path d="M48.6091 48.6351C48.8695 48.7859 48.871 49.03 48.6121 49.1808C48.3543 49.331 47.9335 49.3315 47.6731 49.1808L46.4083 48.448C46.1479 48.2972 46.1474 48.0527 46.4053 47.9024C46.6642 47.7516 47.0839 47.7516 47.3443 47.9024L48.6091 48.6351Z" fill="#35605F" stroke="#082422" stroke-width="0.0440749" stroke-linecap="round" stroke-linejoin="round"/>
<path d="M48.6882 50.4893C48.9285 50.6285 48.9295 50.8534 48.6912 50.9926L46.8478 52.0672C46.6091 52.2064 46.2215 52.2069 45.9812 52.0677L44.1268 50.9936C43.8865 50.8544 43.8865 50.629 44.1247 50.4898L45.9681 49.4152C46.2069 49.276 46.5935 49.276 46.8338 49.4152L48.6882 50.4893Z" fill="#35605F" stroke="#082422" stroke-width="0.0440749" stroke-linecap="round" stroke-linejoin="round"/>
<path d="M37.8838 42.421C38.1442 42.5718 38.1457 42.8159 37.8868 42.9667C37.6289 43.1169 37.2082 43.1174 36.9478 42.9667L35.683 42.2339C35.4226 42.0831 35.4221 41.8386 35.68 41.6883C35.9389 41.5375 36.3586 41.5375 36.619 41.6883L37.8838 42.421Z" fill="#35605F" stroke="#082422" stroke-width="0.0440749" stroke-linecap="round" stroke-linejoin="round"/>
<path d="M34.9496 42.5316C35.1899 42.6708 35.1919 42.8962 34.9536 43.0354L33.1102 44.11C32.8715 44.2492 32.4824 44.2492 32.2426 44.11L30.3882 43.0359C30.1489 42.8972 30.1479 42.6713 30.3861 42.5321L32.2295 41.4575C32.4683 41.3183 32.8564 41.3188 33.0952 41.4575L34.9496 42.5316Z" fill="#35605F" stroke="#082422" stroke-width="0.0440749" stroke-linecap="round" stroke-linejoin="round"/>
<path d="M40.5646 43.9762C40.825 44.127 40.8265 44.371 40.5676 44.5218C40.3098 44.6721 39.889 44.6726 39.6286 44.5218L38.3638 43.7891C38.1034 43.6383 38.1029 43.3937 38.3608 43.2435C38.6197 43.0927 39.0394 43.0927 39.2998 43.2435L40.5646 43.9762Z" fill="#35605F" stroke="#082422" stroke-width="0.0440749" stroke-linecap="round" stroke-linejoin="round"/>
<path d="M43.2462 45.5287C43.5055 45.679 43.5081 45.9236 43.2492 46.0744C42.9913 46.2247 42.5695 46.2247 42.3101 46.0744L41.0444 45.3412C40.785 45.1909 40.7835 44.9458 41.0413 44.7955C41.3002 44.6447 41.721 44.6452 41.9804 44.7955L43.2462 45.5287Z" fill="#35605F" stroke="#082422" stroke-width="0.0440749" stroke-linecap="round" stroke-linejoin="round"/>
<path d="M38.3857 44.522C38.626 44.6612 38.627 44.8861 38.3887 45.0253L36.5453 46.1C36.3066 46.2391 35.919 46.2396 35.6787 46.1005L33.8243 45.0263C33.584 44.8871 33.584 44.6617 33.8223 44.5225L35.6656 43.4479C35.9044 43.3087 36.291 43.3087 36.5313 43.4479L38.3857 44.522Z" fill="#35605F" stroke="#082422" stroke-width="0.0440749" stroke-linecap="round" stroke-linejoin="round"/>
<path d="M45.9306 47.0817C46.19 47.232 46.1925 47.4766 45.9336 47.6274C45.6757 47.7776 45.254 47.7776 44.9946 47.6274L43.7288 46.8941C43.4694 46.7439 43.4679 46.4988 43.7258 46.3485C43.9847 46.1977 44.4054 46.1982 44.6648 46.3485L45.9306 47.0817Z" fill="#35605F" stroke="#082422" stroke-width="0.0440749" stroke-linecap="round" stroke-linejoin="round"/>
<path d="M41.8191 46.5096C42.0594 46.6488 42.0614 46.8742 41.8231 47.0134L39.9797 48.088C39.741 48.2272 39.3519 48.2272 39.1121 48.088L37.2587 47.0144C37.0184 46.8752 37.0174 46.6493 37.2557 46.5101L39.099 45.4354C39.3378 45.2963 39.7259 45.2968 39.9657 45.4359L41.8191 46.5096Z" fill="#35605F" stroke="#082422" stroke-width="0.0440749" stroke-linecap="round" stroke-linejoin="round"/>
<path d="M45.2539 48.4988C45.4941 48.638 45.4962 48.8634 45.2579 49.0026L43.4145 50.0773C43.1757 50.2164 42.7866 50.2164 42.5469 50.0773L40.6934 49.0036C40.4531 48.8644 40.4521 48.6385 40.6904 48.4993L42.5338 47.4247C42.7726 47.2855 43.1606 47.286 43.4004 47.4252L45.2539 48.4988Z" fill="#35605F" stroke="#082422" stroke-width="0.0440749" stroke-linecap="round" stroke-linejoin="round"/>
<path d="M52.2462 56.3995C52.4865 56.5386 52.4875 56.7646 52.2492 56.9037L50.4069 57.9779C50.1681 58.1171 49.779 58.1171 49.5392 57.9779L47.6858 56.9043C47.4455 56.7651 47.4445 56.5391 47.6828 56.4L49.5251 55.3258C49.7639 55.1866 50.153 55.1866 50.3928 55.3258L52.2462 56.3995Z" fill="#35605F" stroke="#082422" stroke-width="0.0440749" stroke-linecap="round" stroke-linejoin="round"/>
<path d="M28.3244 46.3926C28.5647 46.5317 28.5667 46.7572 28.3284 46.8963L26.485 47.971C26.2463 48.1102 25.8582 48.1097 25.6184 47.9705L20.3291 44.9069C20.0888 44.7677 20.0868 44.5423 20.325 44.4031L22.1684 43.3285C22.4072 43.1893 22.7953 43.1898 23.0351 43.329L28.3244 46.3926Z" fill="#35605F" stroke="#082422" stroke-width="0.0440749" stroke-linecap="round" stroke-linejoin="round"/>
<path d="M21.578 46.334C21.8182 46.4732 21.8192 46.6991 21.581 46.8383L19.7386 47.9125C19.4998 48.0516 19.1107 48.0516 18.8709 47.9125L17.0175 46.8388C16.7772 46.6996 16.7762 46.4737 17.0145 46.3345L18.8569 45.2604C19.0957 45.1212 19.4847 45.1212 19.7245 45.2604L21.578 46.334Z" fill="#35605F" stroke="#082422" stroke-width="0.0440749" stroke-linecap="round" stroke-linejoin="round"/>
<path d="M53.9745 51.7418C54.2349 51.8926 54.2364 52.1367 53.9775 52.2875C53.7196 52.4377 53.2989 52.4382 53.0385 52.2875L51.7737 51.5547C51.5133 51.4039 51.5128 51.1594 51.7707 51.0091C52.0296 50.8583 52.4493 50.8583 52.7097 51.0091L53.9745 51.7418Z" fill="#35605F" stroke="#082422" stroke-width="0.0440749" stroke-linecap="round" stroke-linejoin="round"/>
<path d="M51.2936 50.1869C51.554 50.3377 51.5555 50.5817 51.2966 50.7325C51.0387 50.8828 50.6179 50.8833 50.3576 50.7325L49.0928 49.9998C48.8324 49.849 48.8319 49.6044 49.0898 49.4542C49.3486 49.3034 49.7684 49.3034 50.0288 49.4542L51.2936 50.1869Z" fill="#35605F" stroke="#082422" stroke-width="0.0440749" stroke-linecap="round" stroke-linejoin="round"/>
<path d="M38.5256 62.4293C38.7232 62.5438 38.7242 62.7294 38.5281 62.8438L29.0805 68.39C28.885 68.504 28.5658 68.504 28.3682 68.3895L15.265 60.8004C15.0675 60.686 15.0665 60.5004 15.262 60.3864L24.7096 54.8402C24.9062 54.7258 25.2249 54.7258 25.4229 54.8402L38.5256 62.4293Z" fill="#082422" stroke="#082422" stroke-width="0.0440749" stroke-linecap="round" stroke-linejoin="round"/>
<path d="M57.5685 25.0021L57.0544 29.2337L51.3045 25.9101L51.0091 29.0977L50.9208 29.0422C48.3398 27.4493 46.7328 24.2838 47.0461 20.9873C47.1211 20.1969 47.3515 19.1604 47.3636 19.1057L57.5685 25.0021Z" fill="#00201D"/>
<path d="M54.3738 31.2222L53.8326 35.6424L50.6612 33.7888L50.1788 38.9481L46.1091 36.5959L46.282 33.9815C46.5324 29.4512 49.4726 28.3892 52.7777 30.2996L54.3738 31.2222Z" fill="#00201D"/>
<path d="M25.8604 26.6016L25.9936 28.6833L28.0456 27.829L27.9123 25.7473L25.8604 26.6016Z" fill="#DCFF00" stroke="#082422" stroke-width="0.0440749" stroke-linejoin="round"/>
<path d="M32.6227 13.233L27.5585 10.3001C26.2561 9.54566 25.0391 9.42514 24.0513 9.83664L21.9993 10.6914C22.9871 10.2799 24.2041 10.4004 25.5066 11.1549L30.5707 14.0878C33.7175 15.9103 36.1717 20.7439 36.0515 24.8836C35.9817 27.3103 35.0426 28.9598 33.6442 29.5422L35.6961 28.6875C37.0946 28.105 38.0337 26.4555 38.1035 24.0289C38.2237 19.8891 35.7695 15.0555 32.6227 13.233Z" fill="#B3D000" stroke="#082422" stroke-width="0.0440749" stroke-linejoin="round"/>
<path d="M30.5702 14.089C33.7171 15.9115 36.1712 20.7451 36.0511 24.8848C35.9314 29.0245 33.2842 30.903 30.1369 29.08L25.8595 26.6029L25.9927 28.6846C25.7911 28.4905 21.9566 24.7976 20.3188 19.7577C19.8191 18.3084 19.5497 16.7879 19.5914 15.3517C19.711 11.212 22.3592 9.33352 25.5066 11.156L30.5707 14.089H30.5702Z" fill="#DCFF00" stroke="#082422" stroke-width="0.0440749" stroke-linejoin="round"/>
<path d="M25.7929 18.6198C26.1122 18.8049 26.361 19.2951 26.3489 19.7151C26.3369 20.1352 26.0679 20.3258 25.7492 20.1407C25.4305 19.9557 25.1812 19.4655 25.1932 19.0454C25.2053 18.6254 25.4742 18.4347 25.7929 18.6198Z" fill="#082422"/>
<path d="M27.9875 19.8918C28.3072 20.0769 28.5565 20.5675 28.544 20.9871C28.5314 21.4067 28.263 21.5978 27.9432 21.4122C27.6235 21.2267 27.3752 20.737 27.3873 20.3169C27.3993 19.8968 27.6683 19.7062 27.987 19.8913L27.9875 19.8918Z" fill="#517C3C"/>
<path d="M30.1887 21.1657C30.5079 21.3507 30.7567 21.8409 30.7447 22.261C30.7326 22.6811 30.4637 22.8717 30.1449 22.6866C29.8252 22.5015 29.5759 22.0109 29.5885 21.5913C29.601 21.1717 29.8695 20.9806 30.1892 21.1662L30.1887 21.1657Z" fill="#8DBD50"/>
</g>
<defs>
<clipPath id="clip0_664_11571">
<rect width="76" height="80" fill="white"/>
</clipPath>
</defs>
</svg>
