<svg width="76" height="80" viewBox="0 0 76 80" fill="none" xmlns="http://www.w3.org/2000/svg">
<g clip-path="url(#clip0_664_11569)">
<path d="M73.5315 59.7511L73.5269 61.195C73.5224 61.4259 73.3751 61.6568 73.071 61.8353L43.7705 79.03C43.1623 79.3829 42.172 79.3829 41.5592 79.03L0.916948 55.4969C0.608295 55.3184 0.456482 55.0829 0.456482 54.8475L0.461006 53.4036C0.461006 53.639 0.617343 53.874 0.925996 54.0529L41.5637 77.586C42.1805 77.939 43.1668 77.939 43.775 77.586L73.0755 60.3914C73.3796 60.2129 73.5315 59.982 73.5315 59.7511Z" fill="#B4B4B4" stroke="#082422" stroke-width="0.0987641" stroke-linecap="round" stroke-linejoin="round"/>
<path d="M73.0683 59.1054C73.681 59.4604 73.6846 60.0356 73.0753 60.3906L43.7728 77.5878C43.1666 77.9412 42.1768 77.9412 41.5635 77.5863L0.922261 54.0532C0.309478 53.6982 0.305959 53.123 0.912206 52.7701L30.2147 35.5728C30.8239 35.2179 31.8138 35.2179 32.4265 35.5728L73.0683 59.1054Z" fill="#D6D6D6" stroke="#082422" stroke-width="0.0987641" stroke-linecap="round" stroke-linejoin="round"/>
<path d="M32.4809 1.23407C31.8651 0.877619 31.3629 1.165 31.3609 1.87739L31.2709 33.6406C31.2689 34.3499 31.768 35.2176 32.3838 35.5741L73.389 59.3179C74.0073 59.6759 74.51 59.389 74.512 58.6791L74.602 26.916C74.604 26.2031 74.1049 25.3359 73.4865 24.9779L32.4809 1.23407Z" fill="#D6D6D6" stroke="#082422" stroke-width="0.0987641" stroke-linecap="round" stroke-linejoin="round"/>
<path d="M72.411 27.4041C72.412 27.1238 72.2144 26.7805 71.9726 26.6403L34.8578 5.1491C34.2742 4.81131 33.5447 5.23229 33.5427 5.90788L33.4658 33.1532C33.4648 33.4335 33.6624 33.7768 33.9042 33.917L71.0195 55.4082C71.6031 55.746 72.3325 55.325 72.3346 54.6494L72.411 27.4041Z" fill="#2BF2F1" stroke="#082422" stroke-width="0.0987641" stroke-linecap="round" stroke-linejoin="round"/>
<path d="M31.6934 1.15757C31.895 1.03909 32.1755 1.05623 32.4867 1.23219L73.4898 24.9786C74.1077 25.3345 74.6073 26.2007 74.6073 26.9171L74.5153 58.6772C74.5153 59.0291 74.3927 59.2792 74.1911 59.3937L75.2462 58.7745C75.4433 58.6561 75.6713 58.4095 75.6713 58.0536V26.4079C75.6758 25.6955 75.2769 24.8253 74.6586 24.4694L33.6509 0.841472C33.3442 0.661484 33.0637 0.643837 32.8576 0.762317L31.6934 1.15757Z" fill="#B4B4B4" stroke="#082422" stroke-width="0.0987641" stroke-linecap="round" stroke-linejoin="round"/>
<path d="M31.7452 1.1288C31.7497 1.12427 31.7583 1.12427 31.7628 1.12427C31.7367 1.13284 31.715 1.14595 31.6934 1.15905C31.7105 1.14645 31.7276 1.13738 31.7452 1.1288Z" fill="#D6D6D6" stroke="#082422" stroke-width="0.0987641" stroke-linecap="round" stroke-linejoin="round"/>
<path d="M31.7452 1.1288C31.7497 1.12427 31.7583 1.12427 31.7628 1.12427C31.7367 1.13284 31.715 1.14595 31.6934 1.15905C31.7105 1.14645 31.7276 1.13738 31.7452 1.1288Z" fill="#FEFCF9" stroke="#082422" stroke-width="0.0987641" stroke-linecap="round" stroke-linejoin="round"/>
<path d="M70.2955 59.503C70.6308 59.6972 70.6323 60.0117 70.2995 60.2059L54.8588 69.2053C54.526 69.3994 53.9841 69.3994 53.6488 69.2053L15.0334 46.8454C14.6981 46.6513 14.6976 46.3372 15.0304 46.1431L30.4711 37.1436C30.8039 36.9495 31.3448 36.949 31.6801 37.1431L70.2955 59.503Z" fill="#B4B4B4" stroke="#082422" stroke-width="0.0987641" stroke-linecap="round" stroke-linejoin="round"/>
<path d="M35.6556 40.8566C35.916 41.0073 35.9175 41.2514 35.6586 41.4021C35.4007 41.5524 34.9799 41.5529 34.7196 41.4021L33.4548 40.6696C33.1944 40.5188 33.1939 40.2743 33.4518 40.124C33.7106 39.9733 34.1304 39.9733 34.3908 40.124L35.6556 40.8566Z" fill="#D6D6D6" stroke="#082422" stroke-width="0.0987641" stroke-linecap="round" stroke-linejoin="round"/>
<path d="M32.9746 39.3056C33.2339 39.4559 33.2365 39.7004 32.9776 39.8512C32.7197 40.0014 32.2979 40.0014 32.0385 39.8512L30.7728 39.1181C30.5134 38.9679 30.5119 38.7228 30.7697 38.5726C31.0286 38.4218 31.4494 38.4223 31.7088 38.5726L32.9746 39.3056Z" fill="#D6D6D6" stroke="#082422" stroke-width="0.0987641" stroke-linecap="round" stroke-linejoin="round"/>
<path d="M31.5128 40.5318C31.7531 40.6709 31.7551 40.8963 31.5168 41.0354L29.6734 42.1098C29.4346 42.249 29.0455 42.249 28.8058 42.1098L26.9523 41.0364C26.712 40.8973 26.711 40.6714 26.9493 40.5323L28.7927 39.4579C29.0315 39.3187 29.4196 39.3192 29.6593 39.4584L31.5128 40.5318Z" fill="#D6D6D6" stroke="#082422" stroke-width="0.0987641" stroke-linecap="round" stroke-linejoin="round"/>
<path d="M28.2026 42.4634C28.4429 42.6025 28.4439 42.8284 28.2056 42.9676L26.3632 44.0414C26.1244 44.1806 25.7354 44.1806 25.4956 44.0414L23.6422 42.9681C23.4019 42.8289 23.4009 42.603 23.6391 42.4639L25.4815 41.39C25.7203 41.2509 26.1094 41.2509 26.3492 41.39L28.2026 42.4634Z" fill="#D6D6D6" stroke="#082422" stroke-width="0.0987641" stroke-linecap="round" stroke-linejoin="round"/>
<path d="M55.6832 58.3767C55.9235 58.5159 55.9235 58.7412 55.6852 58.8804L53.8428 59.9543C53.6041 60.0934 53.2165 60.0939 52.9762 59.9548L51.1218 58.8809C50.8815 58.7417 50.8815 58.5164 51.1197 58.3772L52.9621 57.3033C53.2009 57.1642 53.589 57.1637 53.8288 57.3028L55.6832 58.3767Z" fill="#D6D6D6" stroke="#082422" stroke-width="0.0987641" stroke-linecap="round" stroke-linejoin="round"/>
<path d="M52.3689 60.3057C52.6092 60.4448 52.6102 60.6697 52.3719 60.8088L50.5285 61.8832C50.2898 62.0224 49.9032 62.0224 49.6629 61.8832L47.8085 60.8094C47.5682 60.6702 47.5672 60.4453 47.8055 60.3062L49.6488 59.2318C49.8876 59.0927 50.2742 59.0927 50.5145 59.2318L52.3689 60.3057Z" fill="#D6D6D6" stroke="#082422" stroke-width="0.0987641" stroke-linecap="round" stroke-linejoin="round"/>
<path d="M62.5527 62.3516C62.793 62.4907 62.794 62.7166 62.5558 62.8557L60.7134 63.9296C60.4746 64.0688 60.0855 64.0688 59.8457 63.9296L57.9923 62.8562C57.752 62.7171 57.751 62.4912 57.9893 62.3521L59.8317 61.2782C60.0704 61.139 60.4595 61.139 60.6993 61.2782L62.5527 62.3516Z" fill="#D6D6D6" stroke="#082422" stroke-width="0.0987641" stroke-linecap="round" stroke-linejoin="round"/>
<path d="M52.4955 64.2268C52.7358 64.3659 52.7358 64.5913 52.4975 64.7304L50.6551 65.8043C50.4163 65.9435 50.0288 65.944 49.7885 65.8048L44.4986 62.7415C44.2584 62.6023 44.2584 62.377 44.4966 62.2378L46.339 61.1639C46.5778 61.0248 46.9659 61.0243 47.2056 61.1634L52.4955 64.2268Z" fill="#D6D6D6" stroke="#082422" stroke-width="0.0987641" stroke-linecap="round" stroke-linejoin="round"/>
<path d="M59.2401 64.2841C59.4804 64.4233 59.4824 64.6486 59.2442 64.7878L57.4008 65.8622C57.162 66.0013 56.7739 66.0008 56.5341 65.8617L51.2453 62.7993C51.005 62.6602 51.004 62.4353 51.2423 62.2962L53.0857 61.2218C53.3244 61.0826 53.711 61.0826 53.9513 61.2218L59.2401 64.2841Z" fill="#D6D6D6" stroke="#082422" stroke-width="0.0987641" stroke-linecap="round" stroke-linejoin="round"/>
<path d="M55.9288 66.2136C56.1691 66.3528 56.1701 66.5786 55.9318 66.7178L54.0894 67.7917C53.8507 67.9308 53.4616 67.9308 53.2218 67.7917L51.3684 66.7183C51.1281 66.5791 51.1271 66.3533 51.3653 66.2141L53.2077 65.1403C53.4465 65.0011 53.8356 65.0011 54.0754 65.1403L55.9288 66.2136Z" fill="#D6D6D6" stroke="#082422" stroke-width="0.0987641" stroke-linecap="round" stroke-linejoin="round"/>
<path d="M45.6237 60.2468C45.864 60.386 45.865 60.6119 45.6267 60.751L43.7844 61.8249C43.5456 61.964 43.1565 61.964 42.9167 61.8249L41.0633 60.7515C40.823 60.6124 40.822 60.3865 41.0603 60.2473L42.9027 59.1735C43.1414 59.0343 43.5305 59.0343 43.7703 59.1735L45.6237 60.2468Z" fill="#D6D6D6" stroke="#082422" stroke-width="0.0987641" stroke-linecap="round" stroke-linejoin="round"/>
<path d="M48.9334 58.3167C49.1737 58.4558 49.1757 58.6812 48.9374 58.8203L47.0941 59.8947C46.8553 60.0339 46.4672 60.0334 46.2274 59.8942L44.374 58.8208C44.1337 58.6817 44.1317 58.4563 44.37 58.3172L46.2133 57.2428C46.4521 57.1036 46.8397 57.1041 47.08 57.2433L48.9334 58.3167Z" fill="#D6D6D6" stroke="#082422" stroke-width="0.0987641" stroke-linecap="round" stroke-linejoin="round"/>
<path d="M45.4998 56.3279C45.7401 56.4671 45.7411 56.6919 45.5028 56.8311L43.6594 57.9055C43.4206 58.0446 43.0341 58.0446 42.7938 57.9055L40.9393 56.8316C40.699 56.6924 40.698 56.4676 40.9363 56.3284L42.7797 55.254C43.0185 55.1149 43.405 55.1149 43.6453 55.254L45.4998 56.3279Z" fill="#D6D6D6" stroke="#082422" stroke-width="0.0987641" stroke-linecap="round" stroke-linejoin="round"/>
<path d="M31.6386 44.4503C31.8789 44.5894 31.8799 44.8153 31.6416 44.9544L29.7993 46.0283C29.5605 46.1675 29.1714 46.1675 28.9316 46.0283L27.0772 44.9544C26.8379 44.8158 26.8369 44.5899 27.0752 44.4508L28.9175 43.3769C29.1563 43.2377 29.5454 43.2377 29.7842 43.3764L31.6386 44.4503Z" fill="#D6D6D6" stroke="#082422" stroke-width="0.0987641" stroke-linecap="round" stroke-linejoin="round"/>
<path d="M25.6034 45.3097C25.8421 45.1706 26.2302 45.1711 26.469 45.3097L28.3234 46.3836C28.5637 46.5228 28.5657 46.7481 28.3274 46.8873L26.4841 47.9617C26.2453 48.1008 25.8572 48.1003 25.6174 47.9612L23.763 46.8873C23.5237 46.7486 23.5217 46.5233 23.76 46.3841L25.6034 45.3097Z" fill="#D6D6D6" stroke="#082422" stroke-width="0.0987641" stroke-linecap="round" stroke-linejoin="round"/>
<path d="M35.0722 46.4404C35.3125 46.5796 35.3125 46.805 35.0742 46.9441L33.2319 48.018C32.9931 48.1571 32.6055 48.1576 32.3652 48.0185L30.5108 46.9446C30.2705 46.8055 30.2705 46.5801 30.5088 46.4409L32.3511 45.3671C32.5899 45.2279 32.978 45.2274 33.2178 45.3666L35.0722 46.4404Z" fill="#D6D6D6" stroke="#082422" stroke-width="0.0987641" stroke-linecap="round" stroke-linejoin="round"/>
<path d="M25.0147 48.3123C25.2549 48.4515 25.256 48.6773 25.0177 48.8165L23.1753 49.8904C22.9365 50.0295 22.5474 50.0295 22.3077 49.8904L20.4532 48.8165C20.2139 48.6778 20.2129 48.452 20.4512 48.3128L22.2936 47.2389C22.5324 47.0998 22.9214 47.0998 23.1602 47.2384L25.0147 48.3123Z" fill="#D6D6D6" stroke="#082422" stroke-width="0.0987641" stroke-linecap="round" stroke-linejoin="round"/>
<path d="M31.7579 48.3728C31.9982 48.512 31.9992 48.7368 31.761 48.876L29.9176 49.9504C29.6788 50.0895 29.2922 50.0895 29.0519 49.9504L27.1975 48.8765C26.9572 48.7373 26.9562 48.5125 27.1945 48.3733L29.0379 47.2989C29.2767 47.1598 29.6632 47.1598 29.9035 47.2989L31.7579 48.3728Z" fill="#D6D6D6" stroke="#082422" stroke-width="0.0987641" stroke-linecap="round" stroke-linejoin="round"/>
<path d="M38.5076 48.4307C38.7479 48.5698 38.7489 48.7957 38.5107 48.9348L36.6683 50.0087C36.4295 50.1479 36.0404 50.1479 35.8006 50.0087L33.9472 48.9353C33.7069 48.7962 33.7059 48.5703 33.9442 48.4312L35.7866 47.3573C36.0253 47.2181 36.4144 47.2181 36.6542 47.3573L38.5076 48.4307Z" fill="#D6D6D6" stroke="#082422" stroke-width="0.0987641" stroke-linecap="round" stroke-linejoin="round"/>
<path d="M28.4491 50.3008C28.6894 50.4399 28.6894 50.6653 28.4511 50.8045L26.6088 51.8783C26.37 52.0175 25.9824 52.018 25.7421 51.8788L23.8877 50.805C23.6474 50.6658 23.6474 50.4404 23.8857 50.3013L25.728 49.2274C25.9668 49.0883 26.3549 49.0878 26.5947 49.2269L28.4491 50.3008Z" fill="#D6D6D6" stroke="#082422" stroke-width="0.0987641" stroke-linecap="round" stroke-linejoin="round"/>
<path d="M35.1934 50.3609C35.4336 50.5 35.4357 50.7254 35.1974 50.8645L33.354 51.9389C33.1152 52.0781 32.7271 52.0775 32.4874 51.9384L30.6339 50.865C30.3936 50.7259 30.3916 50.5005 30.6299 50.3614L32.4733 49.287C32.7121 49.1478 33.1001 49.1483 33.3399 49.2875L35.1934 50.3609Z" fill="#D6D6D6" stroke="#082422" stroke-width="0.0987641" stroke-linecap="round" stroke-linejoin="round"/>
<path d="M31.8837 52.2927C32.124 52.4319 32.125 52.6578 31.8867 52.7969L30.0443 53.8708C29.8055 54.0099 29.4165 54.0099 29.1767 53.8708L27.3232 52.7974C27.083 52.6582 27.082 52.4324 27.3202 52.2932L29.1626 51.2194C29.4014 51.0802 29.7905 51.0802 30.0302 51.2194L31.8837 52.2927Z" fill="#D6D6D6" stroke="#082422" stroke-width="0.0987641" stroke-linecap="round" stroke-linejoin="round"/>
<path d="M38.6293 52.3494C38.8696 52.4885 38.8716 52.7139 38.6333 52.853L36.7899 53.9274C36.5511 54.0666 36.1631 54.0661 35.9233 53.9269L34.0698 52.8535C33.8296 52.7144 33.8275 52.489 34.0658 52.3499L35.9092 51.2755C36.148 51.1364 36.5361 51.1368 36.7758 51.276L38.6293 52.3494Z" fill="#D6D6D6" stroke="#082422" stroke-width="0.0987641" stroke-linecap="round" stroke-linejoin="round"/>
<path d="M42.1886 58.2597C42.4289 58.3988 42.4289 58.6242 42.1906 58.7633L40.3482 59.8372C40.1094 59.9764 39.7213 59.9769 39.4816 59.8377L30.7573 54.7859C30.517 54.6468 30.516 54.4209 30.7543 54.2818L32.5967 53.2079C32.8355 53.0687 33.2245 53.0687 33.4643 53.2079L42.1886 58.2597Z" fill="#D6D6D6" stroke="#082422" stroke-width="0.0987641" stroke-linecap="round" stroke-linejoin="round"/>
<path d="M65.862 60.4221C66.1023 60.5613 66.1043 60.7866 65.866 60.9258L64.0227 62.0002C63.7839 62.1393 63.3948 62.1393 63.155 62.0002L61.3016 60.9268C61.0613 60.7877 61.0603 60.5618 61.2986 60.4226L63.1419 59.3483C63.3807 59.2091 63.7688 59.2096 64.0086 59.3488L65.862 60.4221Z" fill="#D6D6D6" stroke="#082422" stroke-width="0.0987641" stroke-linecap="round" stroke-linejoin="round"/>
<path d="M59.1191 60.3638C59.3594 60.5029 59.3594 60.7283 59.1211 60.8674L57.2787 61.9413C57.04 62.0805 56.6524 62.081 56.4121 61.9418L54.5577 60.8679C54.3174 60.7288 54.3174 60.5034 54.5557 60.3643L56.398 59.2904C56.6368 59.1513 57.0244 59.1508 57.2647 59.2899L59.1191 60.3638Z" fill="#D6D6D6" stroke="#082422" stroke-width="0.0987641" stroke-linecap="round" stroke-linejoin="round"/>
<path d="M56.6568 53.2837C56.9162 53.4339 56.9187 53.6784 56.6598 53.8292C56.4019 53.9794 55.9802 53.9794 55.7208 53.8292L54.455 53.0961C54.1956 52.9459 54.1941 52.7009 54.452 52.5506C54.7109 52.3999 55.1316 52.4004 55.391 52.5506L56.6568 53.2837Z" fill="#D6D6D6" stroke="#082422" stroke-width="0.0987641" stroke-linecap="round" stroke-linejoin="round"/>
<path d="M59.3385 54.8367C59.5979 54.9869 59.6004 55.2314 59.3415 55.3822C59.0836 55.5324 58.6619 55.5324 58.4025 55.3822L57.1367 54.6491C56.8773 54.4989 56.8758 54.2538 57.1337 54.1036C57.3926 53.9528 57.8133 53.9534 58.0727 54.1036L59.3385 54.8367Z" fill="#D6D6D6" stroke="#082422" stroke-width="0.0987641" stroke-linecap="round" stroke-linejoin="round"/>
<path d="M64.7012 57.9389C64.9616 58.0896 64.9631 58.3336 64.7042 58.4844C64.4464 58.6346 64.0256 58.6351 63.7652 58.4844L62.5004 57.7518C62.24 57.6011 62.2395 57.3566 62.4974 57.2063C62.7563 57.0556 63.1761 57.0556 63.4364 57.2063L64.7012 57.9389Z" fill="#D6D6D6" stroke="#082422" stroke-width="0.0987641" stroke-linecap="round" stroke-linejoin="round"/>
<path d="M67.3873 59.4941C67.6477 59.6448 67.6492 59.8888 67.3903 60.0396C67.1325 60.1898 66.7117 60.1903 66.4513 60.0396L65.1865 59.307C64.9261 59.1563 64.9256 58.9117 65.1835 58.7615C65.4424 58.6108 65.8621 58.6108 66.1225 58.7615L67.3873 59.4941Z" fill="#D6D6D6" stroke="#082422" stroke-width="0.0987641" stroke-linecap="round" stroke-linejoin="round"/>
<path d="M62.0204 56.3876C62.2808 56.5384 62.2823 56.7824 62.0234 56.9331C61.7656 57.0834 61.3448 57.0839 61.0844 56.9331L59.8196 56.2006C59.5592 56.0498 59.5587 55.8053 59.8166 55.6551C60.0755 55.5043 60.4953 55.5043 60.7557 55.6551L62.0204 56.3876Z" fill="#D6D6D6" stroke="#082422" stroke-width="0.0987641" stroke-linecap="round" stroke-linejoin="round"/>
<path d="M62.4302 58.4336C62.6705 58.5728 62.6715 58.7976 62.4332 58.9368L60.5898 60.0112C60.3511 60.1503 59.9635 60.1508 59.7232 60.0117L57.8688 58.9378C57.6285 58.7986 57.6285 58.5733 57.8668 58.4341L59.7101 57.3597C59.9489 57.2206 60.3355 57.2206 60.5758 57.3597L62.4302 58.4336Z" fill="#D6D6D6" stroke="#082422" stroke-width="0.0987641" stroke-linecap="round" stroke-linejoin="round"/>
<path d="M58.9934 56.4419C59.2337 56.5811 59.2347 56.8059 58.9964 56.9451L57.153 58.0195C56.9142 58.1586 56.5267 58.1591 56.2864 58.02L54.4319 56.9461C54.1916 56.8069 54.1916 56.5816 54.4299 56.4424L56.2733 55.368C56.5121 55.2289 56.8986 55.2289 57.1389 55.368L58.9934 56.4419Z" fill="#D6D6D6" stroke="#082422" stroke-width="0.0987641" stroke-linecap="round" stroke-linejoin="round"/>
<path d="M55.5579 54.4546C55.7982 54.5938 55.8002 54.8191 55.5619 54.9583L53.7185 56.0327C53.4797 56.1718 53.0907 56.1718 52.8509 56.0327L50.9974 54.9593C50.7572 54.8201 50.7561 54.5943 50.9944 54.4551L52.8378 53.3807C53.0766 53.2416 53.4642 53.2421 53.7044 53.3812L55.5579 54.4546Z" fill="#D6D6D6" stroke="#082422" stroke-width="0.0987641" stroke-linecap="round" stroke-linejoin="round"/>
<path d="M48.8114 54.3945C49.0516 54.5337 49.0516 54.7591 48.8134 54.8982L46.971 55.9721C46.7322 56.1112 46.3441 56.1117 46.1044 55.9726L44.2499 54.8987C44.0096 54.7596 44.0096 54.5342 44.2479 54.395L46.0903 53.3212C46.3291 53.182 46.7171 53.1815 46.9569 53.3207L48.8114 54.3945Z" fill="#D6D6D6" stroke="#082422" stroke-width="0.0987641" stroke-linecap="round" stroke-linejoin="round"/>
<path d="M52.1234 52.468C52.3637 52.6072 52.3647 52.8321 52.1264 52.9712L50.283 54.0456C50.0442 54.1847 49.6562 54.1852 49.4164 54.0461L47.5619 52.9722C47.3216 52.8331 47.3217 52.6077 47.5599 52.4685L49.4033 51.3942C49.6421 51.255 50.0287 51.255 50.2689 51.3942L52.1234 52.468Z" fill="#D6D6D6" stroke="#082422" stroke-width="0.0987641" stroke-linecap="round" stroke-linejoin="round"/>
<path d="M41.9436 50.4189C42.1838 50.5581 42.1848 50.784 41.9466 50.9231L40.1042 51.997C39.8654 52.1361 39.4763 52.1361 39.2366 51.997L37.3831 50.9236C37.1428 50.7845 37.1418 50.5586 37.3801 50.4195L39.2225 49.3456C39.4613 49.2064 39.8503 49.2064 40.0901 49.3456L41.9436 50.4189Z" fill="#D6D6D6" stroke="#082422" stroke-width="0.0987641" stroke-linecap="round" stroke-linejoin="round"/>
<path d="M42.0665 54.3384C42.3068 54.4775 42.3078 54.7024 42.0696 54.8416L40.2262 55.9159C39.9874 56.0551 39.6008 56.0551 39.3605 55.9159L37.5061 54.8421C37.2658 54.7029 37.2648 54.4781 37.5031 54.3389L39.3465 53.2645C39.5852 53.1254 39.9718 53.1254 40.2121 53.2645L42.0665 54.3384Z" fill="#D6D6D6" stroke="#082422" stroke-width="0.0987641" stroke-linecap="round" stroke-linejoin="round"/>
<path d="M45.3773 52.408C45.6176 52.5471 45.6176 52.7725 45.3793 52.9116L43.5369 53.9855C43.2981 54.1247 42.9101 54.1252 42.6703 53.986L40.8158 52.9121C40.5756 52.773 40.5756 52.5476 40.8138 52.4085L42.6562 51.3346C42.895 51.1954 43.2831 51.1949 43.5228 51.3341L45.3773 52.408Z" fill="#D6D6D6" stroke="#082422" stroke-width="0.0987641" stroke-linecap="round" stroke-linejoin="round"/>
<path d="M48.6093 48.6239C48.8697 48.7747 48.8712 49.0187 48.6123 49.1694C48.3544 49.3197 47.9337 49.3202 47.6733 49.1694L46.4085 48.4369C46.1481 48.2861 46.1476 48.0416 46.4055 47.8914C46.6644 47.7406 47.0841 47.7406 47.3445 47.8914L48.6093 48.6239Z" fill="#D6D6D6" stroke="#082422" stroke-width="0.0987641" stroke-linecap="round" stroke-linejoin="round"/>
<path d="M48.6884 50.4776C48.9287 50.6167 48.9297 50.8416 48.6914 50.9807L46.848 52.0551C46.6092 52.1943 46.2217 52.1948 45.9814 52.0556L44.1269 50.9817C43.8867 50.8426 43.8867 50.6172 44.1249 50.4781L45.9683 49.4037C46.2071 49.2645 46.5937 49.2645 46.8339 49.4037L48.6884 50.4776Z" fill="#D6D6D6" stroke="#082422" stroke-width="0.0987641" stroke-linecap="round" stroke-linejoin="round"/>
<path d="M37.8835 42.4115C38.1439 42.5623 38.1454 42.8063 37.8865 42.957C37.6286 43.1073 37.2079 43.1078 36.9475 42.957L35.6827 42.2245C35.4223 42.0737 35.4218 41.8292 35.6797 41.679C35.9386 41.5282 36.3583 41.5282 36.6187 41.679L37.8835 42.4115Z" fill="#D6D6D6" stroke="#082422" stroke-width="0.0987641" stroke-linecap="round" stroke-linejoin="round"/>
<path d="M34.9497 42.5218C35.1899 42.661 35.192 42.8863 34.9537 43.0255L33.1103 44.0999C32.8715 44.239 32.4824 44.239 32.2427 44.0999L30.3882 43.026C30.1489 42.8873 30.1479 42.6615 30.3862 42.5223L32.2296 41.4479C32.4684 41.3088 32.8564 41.3093 33.0952 41.4479L34.9497 42.5218Z" fill="#D6D6D6" stroke="#082422" stroke-width="0.0987641" stroke-linecap="round" stroke-linejoin="round"/>
<path d="M40.5643 43.9662C40.8247 44.117 40.8262 44.361 40.5673 44.5117C40.3094 44.662 39.8886 44.6625 39.6282 44.5117L38.3635 43.7792C38.1031 43.6284 38.1026 43.3839 38.3605 43.2337C38.6193 43.0829 39.0391 43.0829 39.2995 43.2337L40.5643 43.9662Z" fill="#D6D6D6" stroke="#082422" stroke-width="0.0987641" stroke-linecap="round" stroke-linejoin="round"/>
<path d="M43.2466 45.5183C43.506 45.6685 43.5085 45.9131 43.2496 46.0638C42.9917 46.214 42.57 46.214 42.3106 46.0638L41.0448 45.3307C40.7854 45.1805 40.7839 44.9355 41.0418 44.7852C41.3007 44.6345 41.7214 44.635 41.9808 44.7852L43.2466 45.5183Z" fill="#D6D6D6" stroke="#082422" stroke-width="0.0987641" stroke-linecap="round" stroke-linejoin="round"/>
<path d="M38.3859 44.5122C38.6262 44.6514 38.6272 44.8762 38.389 45.0154L36.5456 46.0898C36.3068 46.2289 35.9192 46.2294 35.6789 46.0903L33.8245 45.0164C33.5842 44.8772 33.5842 44.6519 33.8225 44.5127L35.6659 43.4383C35.9047 43.2992 36.2912 43.2992 36.5315 43.4383L38.3859 44.5122Z" fill="#D6D6D6" stroke="#082422" stroke-width="0.0987641" stroke-linecap="round" stroke-linejoin="round"/>
<path d="M45.931 47.071C46.1904 47.2213 46.1929 47.4658 45.934 47.6165C45.6761 47.7668 45.2543 47.7668 44.995 47.6165L43.7292 46.8835C43.4698 46.7332 43.4683 46.4882 43.7262 46.338C43.985 46.1872 44.4058 46.1877 44.6652 46.338L45.931 47.071Z" fill="#D6D6D6" stroke="#082422" stroke-width="0.0987641" stroke-linecap="round" stroke-linejoin="round"/>
<path d="M41.8187 46.4988C42.059 46.6379 42.061 46.8633 41.8228 47.0025L39.9794 48.0768C39.7406 48.216 39.3515 48.216 39.1117 48.0768L37.2583 47.0035C37.018 46.8643 37.017 46.6384 37.2553 46.4993L39.0987 45.4249C39.3374 45.2858 39.7255 45.2863 39.9653 45.4254L41.8187 46.4988Z" fill="#D6D6D6" stroke="#082422" stroke-width="0.0987641" stroke-linecap="round" stroke-linejoin="round"/>
<path d="M45.2537 48.4876C45.494 48.6267 45.496 48.8521 45.2578 48.9912L43.4144 50.0656C43.1756 50.2048 42.7865 50.2048 42.5467 50.0656L40.6933 48.9922C40.453 48.8531 40.452 48.6272 40.6903 48.4881L42.5337 47.4137C42.7724 47.2745 43.1605 47.275 43.4003 47.4142L45.2537 48.4876Z" fill="#D6D6D6" stroke="#082422" stroke-width="0.0987641" stroke-linecap="round" stroke-linejoin="round"/>
<path d="M52.2459 56.3865C52.4861 56.5256 52.4871 56.7515 52.2489 56.8907L50.4065 57.9645C50.1677 58.1037 49.7786 58.1037 49.5389 57.9645L47.6854 56.8912C47.4451 56.752 47.4441 56.5261 47.6824 56.387L49.5248 55.3131C49.7636 55.174 50.1526 55.174 50.3924 55.3131L52.2459 56.3865Z" fill="#D6D6D6" stroke="#082422" stroke-width="0.0987641" stroke-linecap="round" stroke-linejoin="round"/>
<path d="M28.3242 46.3818C28.5645 46.521 28.5665 46.7463 28.3282 46.8855L26.4849 47.9599C26.2461 48.099 25.858 48.0985 25.6182 47.9593L20.3289 44.8965C20.0886 44.7574 20.0866 44.532 20.3249 44.3929L22.1682 43.3185C22.407 43.1793 22.7951 43.1798 23.0349 43.319L28.3242 46.3818Z" fill="#D6D6D6" stroke="#082422" stroke-width="0.0987641" stroke-linecap="round" stroke-linejoin="round"/>
<path d="M21.5777 46.3232C21.818 46.4624 21.819 46.6883 21.5807 46.8274L19.7384 47.9013C19.4996 48.0404 19.1105 48.0404 18.8707 47.9013L17.0173 46.8279C16.777 46.6888 16.776 46.4629 17.0143 46.3237L18.8566 45.2499C19.0954 45.1107 19.4845 45.1107 19.7243 45.2499L21.5777 46.3232Z" fill="#D6D6D6" stroke="#082422" stroke-width="0.0987641" stroke-linecap="round" stroke-linejoin="round"/>
<path d="M53.9745 51.7294C54.2349 51.8802 54.2364 52.1242 53.9775 52.2749C53.7196 52.4252 53.2989 52.4257 53.0385 52.2749L51.7737 51.5424C51.5133 51.3916 51.5128 51.1471 51.7707 50.9968C52.0296 50.8461 52.4493 50.8461 52.7097 50.9968L53.9745 51.7294Z" fill="#D6D6D6" stroke="#082422" stroke-width="0.0987641" stroke-linecap="round" stroke-linejoin="round"/>
<path d="M51.2937 50.1757C51.5541 50.3264 51.5556 50.5705 51.2967 50.7212C51.0388 50.8714 50.6181 50.872 50.3577 50.7212L49.0929 49.9887C48.8325 49.8379 48.832 49.5934 49.0899 49.4431C49.3488 49.2924 49.7685 49.2924 50.0289 49.4431L51.2937 50.1757Z" fill="#D6D6D6" stroke="#082422" stroke-width="0.0987641" stroke-linecap="round" stroke-linejoin="round"/>
<path d="M38.5253 62.4148C38.7228 62.5292 38.7238 62.7148 38.5278 62.8292L29.0802 68.3741C28.8846 68.488 28.5654 68.488 28.3678 68.3735L15.2646 60.7863C15.0671 60.6719 15.0661 60.4863 15.2616 60.3724L24.7092 54.8275C24.9058 54.7131 25.2245 54.7131 25.4226 54.8275L38.5253 62.4148Z" fill="#B4B4B4" stroke="#082422" stroke-width="0.0987641" stroke-linecap="round" stroke-linejoin="round"/>
<path d="M57.5682 24.9958L57.0541 29.2264L51.3042 25.9036L51.0088 29.0905L50.9205 29.035C48.3395 27.4424 46.7325 24.2777 47.0458 20.982C47.1208 20.1917 47.3512 19.1555 47.3633 19.1008L57.5682 24.9958Z" fill="#00201D"/>
<path d="M54.3739 31.2145L53.8327 35.6336L50.6613 33.7804L50.1788 38.9385L46.1092 36.5869L46.2821 33.973C46.5325 29.4438 49.4726 28.3821 52.7778 30.292L54.3739 31.2145Z" fill="#00201D"/>
<path d="M25.8602 26.5955L25.9934 28.6767L28.0454 27.8227L27.9122 25.7415L25.8602 26.5955Z" fill="#DCFF00" stroke="#082422" stroke-width="0.0987641" stroke-linejoin="round"/>
<path d="M32.6224 13.2302L27.5583 10.298C26.2558 9.54372 25.0388 9.42323 24.051 9.83463L21.999 10.6892C22.9868 10.2778 24.2038 10.3983 25.5063 11.1525L30.5704 14.0848C33.7173 15.9068 36.1714 20.7393 36.0513 24.878C35.9814 27.3041 35.0424 28.9532 33.6439 29.5355L35.6959 28.681C37.0944 28.0987 38.0334 26.4495 38.1033 24.0235C38.2234 19.8847 35.7693 15.0523 32.6224 13.2302Z" fill="#B3D000" stroke="#082422" stroke-width="0.0987641" stroke-linejoin="round"/>
<path d="M30.5696 14.0857C33.7164 15.9077 36.1706 20.7402 36.0504 24.8789C35.9308 29.0176 33.2836 30.8957 30.1363 29.0731L25.8588 26.5966L25.9921 28.6778C25.7905 28.4837 21.9559 24.7917 20.3182 19.753C19.8185 18.304 19.549 16.784 19.5908 15.3481C19.7104 11.2094 22.3586 9.33134 25.506 11.1534L30.5701 14.0857H30.5696Z" fill="#DCFF00" stroke="#082422" stroke-width="0.0987641" stroke-linejoin="round"/>
<path d="M25.7925 18.6154C26.1117 18.8004 26.3606 19.2905 26.3485 19.7105C26.3364 20.1304 26.0675 20.321 25.7488 20.136C25.4301 19.9509 25.1807 19.4609 25.1928 19.0409C25.2049 18.6209 25.4738 18.4304 25.7925 18.6154Z" fill="#082422"/>
<path d="M27.9871 19.8871C28.3068 20.0722 28.5561 20.5627 28.5435 20.9822C28.531 21.4017 28.2625 21.5927 27.9428 21.4072C27.6231 21.2217 27.3748 20.7321 27.3868 20.3122C27.3989 19.8922 27.6678 19.7016 27.9865 19.8866L27.9871 19.8871Z" fill="#517C3C"/>
<path d="M30.1883 21.1605C30.5075 21.3456 30.7563 21.8356 30.7442 22.2556C30.7322 22.6756 30.4632 22.8661 30.1445 22.6811C29.8248 22.4961 29.5755 22.0055 29.588 21.586C29.6006 21.1666 29.869 20.9755 30.1888 21.161L30.1883 21.1605Z" fill="#8DBD50"/>
</g>
<defs>
<clipPath id="clip0_664_11569">
<rect width="76" height="80" fill="white"/>
</clipPath>
</defs>
</svg>
