<svg width="54" height="80" viewBox="0 0 54 80" fill="none" xmlns="http://www.w3.org/2000/svg">
<g clip-path="url(#clip0_664_11610)">
<path d="M20.0143 41.6239L20.0186 41.6009C23.7423 45.3172 28.4746 49.0144 33.3781 52.2795C33.4735 52.343 33.5686 52.4057 33.6638 52.4684L33.9712 52.6702L34.1948 52.816C34.254 52.8543 34.313 52.893 34.3722 52.9313L34.818 53.2184C34.9077 53.2756 34.9974 53.3329 35.0867 53.3897L35.5558 53.6861C35.6376 53.7372 35.719 53.7887 35.8008 53.8398L36.0251 53.9791C36.0357 53.9859 36.0465 53.9923 36.0571 53.9991L36.2416 54.113L36.2452 54.1156C36.3104 54.1551 36.3753 54.1951 36.4403 54.2351L36.4449 54.2383C36.4692 54.253 36.4936 54.2676 36.5176 54.2826L36.8687 54.4963C36.9593 54.5512 37.0499 54.6061 37.1397 54.6599L37.1516 54.6671C37.1774 54.6828 37.2033 54.6984 37.23 54.7141L37.4699 54.8573C37.5868 54.9272 37.7041 54.9966 37.8206 55.065C37.832 55.0717 37.8433 55.0785 37.8552 55.0856C37.8809 55.1006 37.9062 55.1159 37.9319 55.1308L38.2642 55.3251C38.3155 55.355 38.3662 55.3845 38.4177 55.414L38.9309 55.7087L38.9402 55.714C39.0005 55.7485 39.0616 55.7829 39.1214 55.817L39.1266 55.8206C39.1522 55.8344 39.1781 55.8489 39.2032 55.8635L39.5261 56.0449C39.6111 56.0924 39.696 56.14 39.7802 56.1864L39.9087 56.2573C39.9325 56.2704 39.9558 56.2832 39.9796 56.2963L40.2153 56.4256C40.2925 56.4678 40.3697 56.5099 40.4466 56.5513L40.7761 56.7286C40.8549 56.7707 40.9331 56.8124 41.0111 56.8534L41.4257 57.0714C41.5045 57.1123 41.5833 57.1533 41.6615 57.1939L42.0715 57.4041C42.1467 57.4425 42.2221 57.4805 42.297 57.5182L42.6143 57.6766C42.718 57.7279 42.8217 57.7793 42.9246 57.8295L43.2407 57.983C43.3141 58.0185 43.387 58.0536 43.4601 58.0883L43.8419 58.2684C43.9189 58.3041 43.9957 58.3402 44.0722 58.3755L44.2351 58.4508L44.2153 58.463C43.0365 59.191 35.3786 73.1835 35.3786 73.1835L35.3719 73.1933L35.2766 73.3089L35.2694 73.3172L35.2355 73.3566C35.2251 73.3684 35.2149 73.3799 35.204 73.3925L35.1285 73.4757C35.1181 73.4876 35.1075 73.4986 35.0966 73.5101L35.0905 73.5145C35.046 73.5749 34.9887 73.6262 34.9194 73.6682C33.459 74.6711 26.6878 72.0389 20.1463 67.4873C13.6048 62.9357 8.64409 57.3627 9.19809 55.6915C9.21311 55.6396 9.23408 55.5912 9.26177 55.5475L9.26614 55.5367C9.27293 55.5223 9.27971 55.508 9.28729 55.4936L9.31546 55.437C9.32276 55.423 9.33006 55.409 9.33737 55.395L9.36008 55.3519L9.49521 55.1137C9.49521 55.1137 19.7555 42.9892 20.0143 41.6227L20.0143 41.6239Z" fill="#9191F6" stroke="#082422" stroke-width="0.0960541" stroke-miterlimit="10"/>
<path fill-rule="evenodd" clip-rule="evenodd" d="M20.027 41.6015L20.0226 41.6245L20.0227 41.6233C19.7632 42.9902 9.49696 55.1222 9.49696 55.1222L9.36171 55.3604L9.33898 55.4036L9.31705 55.4456L9.28885 55.5022C9.28127 55.5166 9.27448 55.531 9.26769 55.5453L9.26331 55.5561C9.2356 55.5999 9.2146 55.6483 9.19956 55.7002C8.64474 57.372 13.6028 62.9436 20.1421 67.4929C26.6815 72.0421 33.4514 74.6715 34.9123 73.6676C34.9816 73.6256 35.039 73.5742 35.0835 73.5139L35.0896 73.5094C35.1005 73.498 35.1111 73.4869 35.1216 73.475L35.197 73.3917L35.2285 73.3558L35.2624 73.3164L35.2696 73.3081L35.3651 73.1924L35.3718 73.1826C35.3718 73.1826 43.0365 59.1836 44.2156 58.4548L44.2355 58.4426L44.0726 58.3675C44.0304 58.348 43.9881 58.3283 43.9458 58.3086C43.9114 58.2925 43.8769 58.2764 43.8423 58.2604L43.4606 58.0805C43.3875 58.0458 43.3147 58.0107 43.2413 57.9753L42.9253 57.8219C42.8226 57.7718 42.7191 57.7206 42.6155 57.6693L42.6151 57.6691L42.2978 57.5108C42.2229 57.4732 42.1475 57.4352 42.0724 57.3968L41.6625 57.1868L41.4267 57.0644L41.0123 56.8466C40.9343 56.8056 40.8561 56.7639 40.7773 56.7218L40.4479 56.5447C40.371 56.5033 40.2938 56.4612 40.2166 56.4191L39.981 56.2898L39.9101 56.2509L39.7816 56.18C39.6976 56.1337 39.6128 56.0863 39.528 56.0388L39.5277 56.0386L39.2048 55.8574C39.1797 55.8428 39.1538 55.8283 39.1282 55.8145L39.123 55.8109C39.0953 55.7951 39.0674 55.7792 39.0393 55.7633C39.0068 55.7449 38.9742 55.7264 38.9418 55.7079L38.9325 55.7026L38.4195 55.4082C38.368 55.3787 38.3173 55.3492 38.2661 55.3193L37.9338 55.1252C37.921 55.1177 37.9083 55.1101 37.8955 55.1026C37.8828 55.095 37.87 55.0875 37.8572 55.08L37.8225 55.0593C37.7061 54.991 37.5889 54.9216 37.4719 54.8519L37.2321 54.7087C37.2055 54.6931 37.1796 54.6774 37.1537 54.6617L37.1418 54.6546C37.0521 54.6008 36.9617 54.546 36.8713 54.4912L36.871 54.491L36.52 54.2775C36.496 54.2625 36.4718 54.248 36.4476 54.2334L36.4473 54.2332L36.4426 54.23C36.3777 54.1901 36.3128 54.1501 36.2476 54.1105L36.244 54.108L36.0596 53.9942C36.0543 53.9908 36.0489 53.9875 36.0436 53.9842C36.0382 53.9809 36.0328 53.9776 36.0275 53.9742L35.8033 53.835C35.7625 53.8094 35.7217 53.7838 35.6809 53.7582C35.6401 53.7325 35.5993 53.7069 35.5585 53.6814L35.0894 53.3851L34.8208 53.2139L34.3752 52.927C34.3456 52.9078 34.316 52.8886 34.2865 52.8693C34.257 52.8501 34.2274 52.8309 34.1978 52.8117L33.9743 52.666L33.667 52.4644C33.5719 52.4017 33.4768 52.339 33.3814 52.2755C28.4795 49.0122 23.7489 45.3167 20.027 41.6015Z" fill="#6060BF"/>
<path d="M17.6284 33.6872C17.6113 33.71 17.216 34.2852 17.1999 34.3086C15.2664 37.1267 21.4951 44.8348 31.1126 51.5252C40.7301 58.2156 50.0933 61.3541 52.0268 58.536C52.0481 58.5049 52.4316 57.944 52.451 57.9116L17.6284 33.6872Z" fill="#6060BF" stroke="#082422" stroke-width="0.0960541" stroke-miterlimit="10"/>
<path d="M31.6799 50.6976C22.061 44.0055 15.8311 36.2954 17.765 33.4765C19.6988 30.6576 29.0642 33.7974 38.6831 40.4894C48.302 47.1815 54.5319 54.8916 52.598 57.7105C50.6642 60.5294 41.2988 57.3896 31.6799 50.6976Z" fill="#9191F6" stroke="#082422" stroke-width="0.0960541" stroke-miterlimit="10"/>
<path d="M33.2321 48.4358C27.1071 44.1746 23.1402 39.2649 24.3717 37.4698C25.6032 35.6747 31.5668 37.674 37.6918 41.9352C43.8167 46.1965 47.7836 51.1061 46.5521 52.9012C45.3206 54.6963 39.3571 52.6971 33.2321 48.4358Z" fill="#6060BF" stroke="#082422" stroke-width="0.0960541" stroke-miterlimit="10"/>
<mask id="mask0_664_11610" style="mask-type:luminance" maskUnits="userSpaceOnUse" x="21" y="-1" width="40" height="55">
<path d="M58.0882 9.82126C55.3639 4.76136 49.6487 0.941806 39.2659 -0.277201C31.9535 -1.1357 27.4583 0.680892 24.8013 3.90264C22.1417 7.12763 21.3141 11.7718 21.3634 16.5901C21.4127 21.407 22.3382 26.3887 23.175 30.2804C23.593 32.2244 23.9895 33.8996 24.2426 35.1418C24.3692 35.7631 24.4607 36.2789 24.5009 36.6677C24.5209 36.8619 24.5286 37.0263 24.5211 37.1571C24.5137 37.2859 24.4905 37.3902 24.4443 37.4576C24.1504 37.8865 24.1621 38.511 24.456 39.286C24.7493 40.0594 25.3199 40.9714 26.1222 41.9633C27.7264 43.9467 30.2515 46.2414 33.317 48.3756C36.3825 50.5099 39.4057 52.0781 41.8141 52.8883C43.0183 53.2934 44.0663 53.5081 44.8877 53.5109C45.711 53.5137 46.2948 53.3039 46.5888 52.8751C47.2043 51.9772 55.7523 39.8969 58.9529 27.4337C60.5532 21.202 60.8139 14.884 58.0882 9.82126Z" fill="white" stroke="white" stroke-width="0.0960541"/>
</mask>
<g mask="url(#mask0_664_11610)">
<path d="M35.0825 27.7288C35.0825 27.7288 32.9738 27.9827 32.3725 28.3154C31.7711 28.6486 30.7013 35.7841 30.7013 35.7841C30.7013 35.7841 31.9557 35.6436 32.4514 34.8134C32.9475 33.9839 34.3164 29.963 34.3164 29.963L35.0826 27.7283L35.0825 27.7288Z" fill="#FFCE9B" stroke="#082422" stroke-width="0.0960541" stroke-miterlimit="10" stroke-linecap="round"/>
<path opacity="0.25" d="M34.1317 30.3443C33.2118 31.2824 32.0747 32.4421 31.144 33.3512C31.0316 33.9735 30.9233 34.647 30.8437 35.1662C30.8037 35.4277 30.7706 35.6502 30.7477 35.8072C30.7374 35.8776 30.7301 35.935 30.7241 35.9768C30.7581 35.9646 30.803 35.9489 30.8558 35.9281C30.9831 35.8777 31.1586 35.8021 31.3488 35.7008C31.7307 35.4974 32.1674 35.1935 32.4083 34.7901C32.514 34.6131 32.6617 34.2853 32.8288 33.8776C32.9957 33.4709 33.1809 32.9871 33.3613 32.5006C33.6712 31.6651 33.9664 30.8214 34.1317 30.3443Z" fill="#082422" stroke="#082422" stroke-width="0.0960541"/>
<path d="M42.2087 26.9793C42.2087 26.9793 39.0533 26.3184 37.5835 26.3155C36.1139 26.312 34.9877 26.4698 34.5485 26.95C34.1623 27.3721 32.6277 31.9552 32.262 33.0582C32.2183 33.1909 32.2968 33.3323 32.4319 33.3655C32.8665 33.4726 33.7531 33.624 34.1217 33.2014C34.6194 32.631 35.8905 29.9007 35.8905 29.9007L40.2677 29.6767L43.182 28.2906L42.208 26.9798L42.2087 26.9793Z" fill="#FFCE9B" stroke="#082422" stroke-width="0.0960541" stroke-miterlimit="10" stroke-linecap="round"/>
<path d="M33.1544 31.0229L33.14 31.02C33.0954 31.0117 33.0483 31.0054 32.9985 31.0011L32.4027 32.7359C32.3957 32.757 32.4079 32.779 32.4291 32.7849L32.43 32.7851L32.9221 32.931L33.9298 31.9215C33.9297 31.918 33.9293 31.9138 33.9291 31.9095C33.9282 31.8886 33.9262 31.8583 33.9212 31.8213C33.9109 31.7469 33.8886 31.6461 33.8416 31.5408C33.7486 31.3322 33.5566 31.1023 33.1544 31.0229Z" stroke="#082422" stroke-width="0.0960541"/>
<path d="M42.2268 16.2872C43.0594 17.7601 44.7791 22.0927 45.2549 22.9291C45.8718 24.013 47.331 27.811 48.0541 29.9539C48.3552 30.8471 48.8594 32.5713 47.9777 33.5338C47.0968 34.4958 39.7337 42.1544 39.4672 43.4549C39.2007 44.7554 37.8397 60.1955 37.6278 62.1794C37.5917 62.5158 37.5302 62.8453 37.2271 62.9928C36.1681 63.5081 34.6252 64.1637 31.3687 64.4724C29.0371 64.6936 27.3477 64.2384 26.6875 64.0496C26.2525 63.9253 26.1223 63.6485 26.1771 63.3135L30.0617 43.1543C30.1064 42.8937 30.0926 42.6263 30.0222 42.3708C29.8124 41.6088 29.5872 39.7311 29.9718 37.8025C30.2783 36.2654 30.7807 34.7585 32.5163 33.0733C33.9679 31.6637 35.4961 30.4308 36.2406 29.6225C36.3861 29.4647 37.4048 28.2652 37.6198 28.2727L41.2066 28.3997C41.3463 28.4048 41.4849 28.3699 41.6054 28.2996L42.812 27.5937C43.0923 27.4299 43.2327 27.1017 43.1583 26.7838C42.9043 25.7034 42.34 23.3247 42.186 22.8793C41.9851 22.299 40.4976 18.226 40.4935 17.196C40.4906 16.502 41.752 15.4457 42.2274 16.2874L42.2268 16.2872Z" fill="#FFCE9B" stroke="#082422" stroke-width="0.0960541" stroke-miterlimit="10" stroke-linecap="round"/>
<path d="M43.4757 28.0228C39.5745 21.3214 45.0379 13.4577 41.136 6.75695C37.6614 7.18824 34.1875 7.61966 30.7129 8.05096C34.6141 14.7523 29.1507 22.616 33.0526 29.3168C36.5272 28.8855 40.0011 28.454 43.4757 28.0228Z" fill="#60D06F" stroke="#082422" stroke-width="0.0960541" stroke-miterlimit="10" stroke-linejoin="round"/>
<path d="M38.9256 8.65115C39.2456 9.49436 40.0362 10.1123 40.852 10.011C40.9304 10.0013 41.0136 10.0573 41.0305 10.1422C42.0145 14.9653 39.9505 20.1668 40.9437 24.989C40.9612 25.074 40.9069 25.1467 40.8285 25.1565C40.0186 25.2569 39.493 26.038 39.815 26.8809C39.8548 26.9851 39.8147 27.0862 39.7132 27.0994C38.3258 27.2718 36.9385 27.4435 35.5511 27.6158C35.4491 27.6282 35.3344 27.5463 35.2952 27.4422C34.9732 26.5993 34.1813 25.9818 33.3655 26.083C33.276 26.0939 33.1811 26.0306 33.1612 25.9341C32.1793 21.1245 34.2289 15.9386 33.2562 11.1276C33.2369 11.0312 33.2994 10.9484 33.3891 10.9369C34.199 10.8365 34.726 10.055 34.406 9.21183C34.3624 9.09654 34.4052 8.98352 34.5179 8.96923C35.8928 8.79839 37.2676 8.62822 38.6431 8.45752C38.7558 8.44323 38.8826 8.53599 38.9257 8.65048L38.9256 8.65115Z" fill="#80E58A" stroke="#082422" stroke-width="0.0960541" stroke-miterlimit="10"/>
<path d="M37.3148 11.7108C36.9834 11.7516 36.6901 11.9639 36.4286 12.3144C36.167 12.665 35.9344 13.1553 35.718 13.7518C35.2944 14.9447 34.8921 16.5701 34.6939 18.3348C34.4957 20.0995 34.6322 21.6585 35.0796 22.743C35.2987 23.2859 35.5847 23.7112 35.8977 23.9905C36.2112 24.27 36.5492 24.4035 36.8793 24.3624C37.2106 24.3215 37.5039 24.1093 37.7655 23.7587C38.0272 23.4075 38.2597 22.9178 38.476 22.3213C38.8996 21.1285 39.302 19.5031 39.5002 17.7384C39.6984 15.973 39.5619 14.4146 39.1144 13.3302C38.8954 12.7872 38.6094 12.3619 38.2964 12.0826C37.9828 11.8032 37.6449 11.6696 37.3148 11.7108Z" fill="#60D06F" stroke="#082422" stroke-width="0.0960541" stroke-miterlimit="10"/>
<path opacity="0.25" d="M42.002 8.85309C41.5662 12.0697 39.733 14.7293 38.0708 17.4394C36.3756 20.2034 34.8575 23.0227 35.139 26.558C35.9158 26.8676 36.6927 27.1775 37.4695 27.4869C38.2528 27.7989 39.0366 28.1098 39.8198 28.422C40.4273 28.3472 41.035 28.2732 41.6423 28.1986C42.2308 28.1263 42.8193 28.0538 43.408 27.9813C41.6611 24.9409 41.8175 21.669 42.1491 18.3896C42.4764 15.1532 42.9726 11.9125 42.002 8.85309Z" fill="#082422" stroke="#082422" stroke-width="0.0960541"/>
<path d="M42.5115 32.5026C43.3048 24.6627 52.1448 22.1156 52.9374 14.2763C49.9521 12.3127 46.9663 10.349 43.9809 8.38605C43.1876 16.226 34.3476 18.773 33.555 26.6124C36.5403 28.576 39.5261 30.5397 42.5115 32.5026Z" fill="#60D06F" stroke="#082422" stroke-width="0.0960541" stroke-miterlimit="10" stroke-linejoin="round"/>
<path d="M46.236 11.7556C45.9981 12.6408 45.1189 12.9071 44.4136 12.4436C44.345 12.3989 44.2607 12.4205 44.2264 12.4967C42.2172 16.9129 37.6131 19.621 35.612 24.0423C35.5777 24.1185 35.6095 24.2168 35.678 24.2615C36.3891 24.729 36.6587 25.7509 36.4224 26.6379C36.3965 26.7351 36.4353 26.859 36.5113 26.9087C37.7027 27.6926 38.8947 28.476 40.0861 29.2598C40.1619 29.3102 40.2423 29.2643 40.2687 29.1672C40.5049 28.2809 41.383 28.0137 42.0883 28.4772C42.147 28.5157 42.2193 28.4964 42.2491 28.431C44.2482 23.9927 48.8734 21.2815 50.8806 16.8483C50.9104 16.7829 50.8832 16.698 50.8245 16.6595C50.1134 16.192 49.845 15.171 50.083 14.2851C50.1121 14.1768 50.0697 14.037 49.9839 13.9811C48.8029 13.2042 47.6219 12.4273 46.4408 11.6511C46.3556 11.5953 46.2658 11.6475 46.2366 11.7557L46.236 11.7556Z" fill="#80E58A" stroke="#082422" stroke-width="0.0960541" stroke-miterlimit="10" stroke-linejoin="round"/>
<path d="M47.0667 15.6285C46.7825 15.4414 46.4298 15.4136 46.0215 15.5154C45.6132 15.6173 45.1478 15.847 44.6331 16.1719C43.6118 16.8267 42.3576 17.8345 41.1837 19.0866C40.0097 20.3393 39.2182 21.6508 38.9448 22.7974C38.8041 23.3682 38.7833 23.891 38.8688 24.3169C38.9541 24.7435 39.1434 25.0719 39.4264 25.2581C39.7106 25.4451 40.064 25.4731 40.4716 25.3711C40.8799 25.2693 41.3453 25.0395 41.8601 24.7147C42.8814 24.0598 44.1355 23.052 45.3094 21.8C46.4835 20.5473 47.2749 19.2357 47.5483 18.0891C47.689 17.5184 47.7097 16.9962 47.6244 16.5696C47.539 16.1431 47.3498 15.8147 47.0667 15.6285Z" fill="#60D06F" stroke="#082422" stroke-width="0.0960541" stroke-miterlimit="10" stroke-linejoin="round"/>
<path d="M30.0138 42.458C30.0092 42.4318 30.0266 42.407 30.0527 42.4025C30.0788 42.398 30.1037 42.4155 30.1083 42.4417L30.0611 42.4498L30.0138 42.458ZM31.8928 44.8798C31.9135 44.8966 31.9168 44.9269 31.9002 44.9475C31.8836 44.9681 31.8534 44.9712 31.8327 44.9545L31.8628 44.9172L31.8928 44.8798ZM30.0611 42.4498C30.1083 42.4417 30.1083 42.4417 30.1083 42.4416C30.1083 42.4416 30.1083 42.4416 30.1083 42.4416C30.1083 42.4416 30.1083 42.4417 30.1083 42.4417C30.1083 42.4418 30.1083 42.4419 30.1084 42.4421C30.1085 42.4425 30.1086 42.4433 30.1088 42.4443C30.1092 42.4462 30.1098 42.4493 30.1107 42.4535C30.1125 42.4618 30.1154 42.4745 30.1196 42.4913C30.1281 42.5247 30.1421 42.5745 30.1639 42.6384C30.2074 42.7663 30.2821 42.951 30.4063 43.1761C30.6546 43.6261 31.101 44.2381 31.8928 44.8798L31.8628 44.9172L31.8327 44.9545C31.031 44.3048 30.5766 43.6831 30.3224 43.2223C30.1953 42.992 30.1184 42.802 30.0731 42.6691C30.0505 42.6026 30.0357 42.5504 30.0266 42.5145C30.0221 42.4966 30.0189 42.4827 30.0169 42.4732C30.0159 42.4685 30.0151 42.4648 30.0146 42.4623C30.0144 42.461 30.0142 42.46 30.0141 42.4593C30.014 42.4589 30.0139 42.4586 30.0139 42.4584C30.0139 42.4583 30.0139 42.4582 30.0138 42.4582C30.0138 42.4581 30.0138 42.4581 30.0138 42.4581C30.0138 42.458 30.0138 42.458 30.0611 42.4498Z" fill="#082422"/>
<path d="M35.1631 30.6826C35.1631 30.6826 36.9191 29.1046 37.0575 26.5306C37.1749 24.3448 38.163 20.4281 38.8679 19.7364C39.1581 19.4516 39.5679 19.3597 39.9498 19.3493C40.5119 19.3348 40.9718 19.7991 40.9526 20.3623C40.9131 21.5247 40.8524 23.5754 40.8729 24.8005C40.9031 26.5833 41.2389 31.9955 41.2389 31.9955" fill="#FFCE9B"/>
<path d="M37.0575 26.5306L37.1055 26.5334L37.1055 26.5334L37.0575 26.5306ZM38.8679 19.7364L38.8342 19.7019L38.8342 19.7019L38.8679 19.7364ZM39.9498 19.3493L39.9482 19.3012L39.9483 19.3012L39.9498 19.3493ZM40.9526 20.3623L40.9046 20.3604L40.9046 20.3604L40.9526 20.3623ZM40.8729 24.8005L40.825 24.8011L40.825 24.8011L40.8729 24.8005ZM35.1631 30.6826C35.131 30.6467 35.131 30.6467 35.131 30.6467C35.131 30.6467 35.131 30.6467 35.131 30.6467C35.131 30.6467 35.1311 30.6466 35.1312 30.6465C35.1313 30.6464 35.1316 30.6461 35.132 30.6458C35.1328 30.6451 35.134 30.644 35.1356 30.6425C35.1387 30.6396 35.1435 30.6351 35.1498 30.6292C35.1624 30.6173 35.1811 30.5994 35.2049 30.5756C35.2525 30.528 35.321 30.4571 35.4037 30.3638C35.5691 30.1772 35.7913 29.9015 36.0179 29.5458C36.4712 28.8343 36.941 27.8042 37.0096 26.5277L37.0575 26.5306L37.1055 26.5334C37.0356 27.8309 36.5582 28.8768 36.0989 29.5979C35.8691 29.9584 35.6437 30.2381 35.4756 30.4278C35.3915 30.5227 35.3217 30.5951 35.2728 30.6439C35.2483 30.6683 35.2291 30.6868 35.2159 30.6993C35.2093 30.7055 35.2042 30.7103 35.2007 30.7135C35.199 30.7151 35.1976 30.7163 35.1967 30.7171C35.1963 30.7175 35.1959 30.7178 35.1957 30.7181C35.1955 30.7182 35.1954 30.7183 35.1954 30.7183C35.1953 30.7184 35.1953 30.7184 35.1953 30.7184C35.1952 30.7184 35.1952 30.7185 35.1631 30.6826ZM37.0575 26.5306L37.0096 26.5277C37.0685 25.4305 37.3457 23.9015 37.6959 22.5608C37.8711 21.8903 38.0649 21.2657 38.2594 20.7648C38.3566 20.5144 38.4543 20.2942 38.5502 20.1144C38.6457 19.9353 38.7409 19.7934 38.8342 19.7019L38.8679 19.7364L38.9015 19.7708C38.8185 19.8522 38.7287 19.9841 38.6348 20.1601C38.5413 20.3355 38.4452 20.5519 38.3488 20.8001C38.1561 21.2965 37.9634 21.9173 37.7888 22.5856C37.4394 23.9227 37.1639 25.4449 37.1055 26.5334L37.0575 26.5306ZM38.8679 19.7364L38.8342 19.7019C39.1369 19.4049 39.5612 19.3117 39.9482 19.3012L39.9498 19.3493L39.9513 19.3973C39.5746 19.4076 39.1793 19.4983 38.9015 19.7708L38.8679 19.7364ZM39.9498 19.3493L39.9483 19.3012C40.5381 19.286 41.0207 19.7732 41.0005 20.3642L40.9526 20.3623L40.9046 20.3604C40.9229 19.825 40.4857 19.3836 39.9512 19.3973L39.9498 19.3493ZM40.9526 20.3623L41.0005 20.3642C40.961 21.5268 40.9004 23.5763 40.9209 24.8L40.8729 24.8005L40.825 24.8011C40.8044 23.5745 40.8652 21.5225 40.9046 20.3604L40.9526 20.3623ZM40.8729 24.8005L40.9209 24.8C40.936 25.6902 41.0274 27.488 41.1151 29.0642C41.159 29.852 41.2019 30.5842 41.2338 31.1194C41.2498 31.387 41.2631 31.6054 41.2723 31.7568C41.2769 31.8325 41.2805 31.8915 41.283 31.9316C41.2842 31.9516 41.2852 31.9669 41.2858 31.9772C41.2861 31.9824 41.2864 31.9863 41.2865 31.9889C41.2866 31.9902 41.2867 31.9912 41.2867 31.9918C41.2867 31.9922 41.2868 31.9924 41.2868 31.9926C41.2868 31.9926 41.2868 31.9927 41.2868 31.9927C41.2868 31.9928 41.2868 31.9928 41.2389 31.9955C41.191 31.9983 41.191 31.9982 41.191 31.9982C41.191 31.9982 41.191 31.9981 41.191 31.998C41.191 31.9978 41.191 31.9976 41.191 31.9973C41.1909 31.9966 41.1909 31.9956 41.1908 31.9943C41.1906 31.9917 41.1904 31.9878 41.1901 31.9827C41.1894 31.9724 41.1885 31.9571 41.1872 31.937C41.1848 31.8969 41.1811 31.8379 41.1765 31.7622C41.1673 31.6107 41.154 31.3923 41.1381 31.1246C41.1061 30.5893 41.0632 29.857 41.0193 29.069C40.9316 27.4934 40.8401 25.6936 40.825 24.8011L40.8729 24.8005Z" fill="#082422"/>
<path d="M40.9606 20.3572C40.9401 20.9609 40.9137 21.8049 40.8963 22.6483C40.7474 22.6366 39.7476 22.5415 39.6029 22.1034C39.4462 21.6298 39.8169 19.8939 39.8169 19.8939C39.8169 19.8939 40.5124 19.6757 40.9279 20.0743C40.9515 20.1642 40.9633 20.2595 40.9605 20.3577L40.9606 20.3572Z" fill="#FFCE9B" stroke="#082422" stroke-width="0.0960541" stroke-miterlimit="10"/>
</g>
<path d="M44.9704 3.17563C44.966 3.17231 44.952 3.16235 44.9291 3.14806C44.9202 3.14295 44.9104 3.13657 44.8991 3.12968C44.8752 3.11487 44.8457 3.09624 44.811 3.07812C44.7508 3.04519 44.6844 3.01277 44.6135 2.98137C44.6 2.9755 44.5862 2.96937 44.572 2.9635C44.5122 2.93823 44.4505 2.91423 44.3885 2.89279C44.3007 2.86191 44.2057 2.83332 44.1066 2.80804C44.006 2.78226 43.9 2.7598 43.792 2.74142C43.7212 2.72942 43.6442 2.71921 43.551 2.70951C43.5421 2.60843 43.5328 2.5247 43.5217 2.4471C43.5129 2.38762 43.5035 2.32891 43.4932 2.27249C43.4856 2.22987 43.4775 2.18749 43.4688 2.14639C43.443 2.02208 43.4138 1.90542 43.382 1.79923C43.3648 1.74129 43.3466 1.68462 43.3282 1.63127C43.3228 1.61544 43.3171 1.59987 43.3117 1.58481C43.2802 1.49802 43.2455 1.41352 43.2118 1.34077L43.0829 1.073C43.0227 1.22794 42.8687 1.63203 42.8208 1.79489C42.7632 1.98736 42.7147 2.21225 42.6806 2.44506C42.6697 2.5201 42.6606 2.60204 42.6523 2.69471C42.5642 2.7039 42.4909 2.7136 42.4223 2.72508C42.2093 2.76133 42.0022 2.81392 41.8234 2.87722C41.6318 2.9441 41.4869 3.01583 41.3991 3.06408C41.3642 3.08246 41.3347 3.10109 41.3081 3.11768L41.2796 3.1353C41.2508 3.15342 41.2356 3.16491 41.2356 3.16491L41.2029 3.18992L41.2356 3.21494C41.2356 3.21494 41.2508 3.22643 41.2801 3.24506L41.3042 3.25987L41.3098 3.26344C41.3339 3.2785 41.3637 3.29713 41.3986 3.31551C41.4867 3.36376 41.6316 3.43549 41.8232 3.50237C42.0022 3.56567 42.2093 3.61826 42.4221 3.65451C42.4902 3.66599 42.5632 3.67569 42.651 3.68463C42.6592 3.77678 42.6683 3.85872 42.6791 3.93453C42.7125 4.16581 42.7607 4.39044 42.819 4.5847C42.881 4.79351 43.0397 5.20882 43.0837 5.30378L43.1245 5.21316L43.141 5.17896L43.1432 5.17513L43.1474 5.16722C43.1518 5.15803 43.1577 5.14731 43.1641 5.13531C43.1735 5.11744 43.1845 5.09702 43.1958 5.07353C43.201 5.06256 43.2067 5.05081 43.2121 5.03882L43.2214 5.01814C43.263 4.9265 43.325 4.7764 43.3828 4.5801C43.4042 4.50863 43.4243 4.43256 43.4428 4.35419C43.4745 4.21967 43.5011 4.07774 43.5222 3.93224C43.5298 3.87838 43.537 3.82069 43.5426 3.76146C43.5458 3.73109 43.5488 3.70046 43.5512 3.66982C43.579 3.66702 43.6068 3.66395 43.6346 3.66063C43.6558 3.65808 43.6769 3.65527 43.6978 3.65247C43.7293 3.64813 43.7606 3.64328 43.7913 3.63817C43.9394 3.61264 44.0823 3.58022 44.2158 3.54142C44.2748 3.52432 44.3326 3.50594 44.3877 3.48654C44.5781 3.42017 44.7225 3.34921 44.8101 3.30147L44.8287 3.29126C44.8423 3.28386 44.8548 3.27646 44.8664 3.26931L44.8905 3.2545L44.9025 3.2471L44.9298 3.23025L44.9348 3.22719L44.9598 3.2106L44.9852 3.18737L44.9697 3.17614L44.9704 3.17563Z" fill="white"/>
<path d="M52.5673 39.4185C52.5629 39.4152 52.5489 39.4053 52.526 39.391C52.5171 39.3859 52.5073 39.3795 52.496 39.3726C52.4721 39.3578 52.4426 39.3392 52.4079 39.321C52.3477 39.2881 52.2813 39.2557 52.2104 39.2243C52.1969 39.2184 52.1831 39.2123 52.1689 39.2064C52.1091 39.1811 52.0474 39.1572 51.9854 39.1357C51.8976 39.1048 51.8026 39.0762 51.7035 39.051C51.6029 39.0252 51.4969 39.0027 51.3889 38.9843C51.3181 38.9723 51.2411 38.9621 51.1479 38.9524C51.139 38.8513 51.1297 38.7676 51.1186 38.69C51.1098 38.6305 51.1004 38.5718 51.0901 38.5154C51.0825 38.4728 51.0744 38.4304 51.0657 38.3893C51.0399 38.265 51.0106 38.1483 50.9789 38.0422C50.9617 37.9842 50.9435 37.9275 50.9251 37.8742C50.9196 37.8584 50.914 37.8428 50.9086 37.8277C50.8771 37.7409 50.8424 37.6564 50.8087 37.5837L50.6798 37.3159C50.6196 37.4709 50.4656 37.875 50.4176 38.0378C50.3601 38.2303 50.3116 38.4552 50.2775 38.688C50.2666 38.763 50.2575 38.845 50.2492 38.9376C50.1611 38.9468 50.0878 38.9565 50.0192 38.968C49.8062 39.0043 49.5991 39.0568 49.4203 39.1201C49.2287 39.187 49.0838 39.2588 48.996 39.307C48.9611 39.3254 48.9316 39.344 48.905 39.3606L48.8765 39.3782C48.8477 39.3963 48.8325 39.4078 48.8325 39.4078L48.7997 39.4328L48.8325 39.4579C48.8325 39.4579 48.8477 39.4693 48.877 39.488L48.9011 39.5028L48.9067 39.5064C48.9308 39.5214 48.9606 39.5401 48.9955 39.5584C49.0836 39.6067 49.2284 39.6784 49.42 39.7453C49.5991 39.8086 49.8062 39.8612 50.019 39.8974C50.0871 39.9089 50.1601 39.9186 50.2479 39.9275C50.2561 40.0197 50.2652 40.1016 50.276 40.1775C50.3094 40.4087 50.3576 40.6334 50.4159 40.8276C50.4779 41.0364 50.6365 41.4517 50.6806 41.5467L50.7214 41.4561L50.7379 41.4219L50.7401 41.418L50.7443 41.4101C50.7487 41.4009 50.7546 41.3902 50.761 41.3782C50.7703 41.3604 50.7814 41.3399 50.7927 41.3165C50.7979 41.3055 50.8036 41.2937 50.809 41.2817L50.8183 41.2611C50.8599 41.1694 50.9219 41.0193 50.9797 40.823C51.0011 40.7515 51.0212 40.6755 51.0397 40.5971C51.0714 40.4626 51.098 40.3207 51.1191 40.1752C51.1267 40.1213 51.1339 40.0636 51.1395 40.0044C51.1427 39.974 51.1457 39.9434 51.1481 39.9127C51.1759 39.9099 51.2037 39.9069 51.2315 39.9036C51.2527 39.901 51.2738 39.8982 51.2947 39.8954C51.3262 39.891 51.3574 39.8862 51.3882 39.8811C51.5363 39.8556 51.6792 39.8231 51.8127 39.7843C51.8717 39.7672 51.9295 39.7489 51.9846 39.7295C52.175 39.6631 52.3194 39.5921 52.4069 39.5444L52.4256 39.5342C52.4392 39.5268 52.4517 39.5194 52.4633 39.5122L52.4874 39.4974L52.4994 39.49L52.5267 39.4732L52.5316 39.4701L52.5567 39.4535L52.5821 39.4303L52.5666 39.4191L52.5673 39.4185Z" fill="white"/>
<path d="M47.7279 6.48857C47.7255 6.48691 47.718 6.48193 47.7058 6.47479C47.7011 6.47223 47.6959 6.46904 47.6898 6.4656C47.6771 6.45819 47.6614 6.44888 47.6429 6.43981C47.6107 6.42335 47.5753 6.40714 47.5375 6.39144C47.5303 6.38851 47.523 6.38544 47.5154 6.38251C47.4835 6.36987 47.4506 6.35787 47.4175 6.34715C47.3707 6.33171 47.32 6.31741 47.2672 6.30478C47.2135 6.29189 47.157 6.28066 47.0994 6.27147C47.0616 6.26547 47.0206 6.26036 46.9709 6.25551C46.9661 6.20497 46.9611 6.16311 46.9552 6.12431C46.9505 6.09457 46.9455 6.06521 46.94 6.037C46.936 6.01569 46.9316 5.9945 46.927 5.97395C46.9133 5.9118 46.8977 5.85347 46.8807 5.80037C46.8716 5.7714 46.8618 5.74306 46.852 5.71639C46.8491 5.70848 46.8461 5.70069 46.8432 5.69316C46.8264 5.64977 46.8079 5.60752 46.79 5.57114L46.7212 5.43726C46.6891 5.51473 46.607 5.71677 46.5814 5.7982C46.5507 5.89444 46.5249 6.00688 46.5066 6.12328C46.5008 6.16081 46.496 6.20178 46.4915 6.24811C46.4446 6.2527 46.4055 6.25755 46.3689 6.2633C46.2553 6.28142 46.1448 6.30771 46.0495 6.33937C45.9473 6.37281 45.87 6.40867 45.8232 6.43279C45.8046 6.44198 45.7888 6.4513 45.7746 6.4596L45.7594 6.4684C45.7441 6.47747 45.736 6.48321 45.736 6.48321L45.7185 6.49572L45.736 6.50823C45.736 6.50823 45.7441 6.51397 45.7597 6.52329L45.7726 6.53069L45.7756 6.53248C45.7884 6.54001 45.8043 6.54932 45.8229 6.55851C45.8699 6.58264 45.9471 6.6185 46.0493 6.65194C46.1448 6.68359 46.2553 6.70989 46.3687 6.72801C46.4051 6.73375 46.444 6.7386 46.4909 6.74307C46.4952 6.78915 46.5001 6.83012 46.5058 6.86802C46.5237 6.98366 46.5494 7.09598 46.5805 7.19311C46.6135 7.29751 46.6981 7.50517 46.7216 7.55265L46.7434 7.50734L46.7522 7.49024L46.7534 7.48832L46.7556 7.48436C46.758 7.47977 46.7611 7.47441 46.7645 7.46841C46.7695 7.45948 46.7754 7.44927 46.7814 7.43752C46.7842 7.43204 46.7872 7.42616 46.7901 7.42017L46.7951 7.40983C46.8172 7.36401 46.8503 7.28896 46.8811 7.19081C46.8925 7.15507 46.9033 7.11704 46.9131 7.07785C46.9301 7.01059 46.9442 6.93963 46.9555 6.86688C46.9596 6.83994 46.9634 6.8111 46.9664 6.78149C46.9681 6.7663 46.9697 6.75098 46.971 6.73567C46.9858 6.73426 47.0006 6.73273 47.0155 6.73107C47.0267 6.7298 47.038 6.72839 47.0492 6.72699C47.066 6.72482 47.0826 6.72239 47.099 6.71984C47.178 6.70708 47.2542 6.69087 47.3254 6.67147C47.3569 6.66292 47.3877 6.65373 47.4171 6.64403C47.5186 6.61084 47.5956 6.57536 47.6423 6.55149L47.6523 6.54639C47.6595 6.54269 47.6662 6.53899 47.6724 6.53541L47.6852 6.52801L47.6917 6.52431L47.7062 6.51588L47.7089 6.51435L47.7222 6.50606L47.7357 6.49444L47.7275 6.48883L47.7279 6.48857Z" fill="white"/>
<path d="M12.7276 40.9871C12.7322 40.9838 12.7465 40.9741 12.7699 40.9601C12.7789 40.9551 12.789 40.9488 12.8005 40.9421C12.8249 40.9276 12.8551 40.9093 12.8906 40.8915C12.9521 40.8593 13.02 40.8275 13.0924 40.7967C13.1063 40.791 13.1204 40.785 13.1349 40.7792C13.196 40.7544 13.2591 40.7309 13.3225 40.7099C13.4123 40.6796 13.5093 40.6516 13.6106 40.6269C13.7135 40.6016 13.8218 40.5796 13.9322 40.5616C14.0046 40.5498 14.0833 40.5398 14.1786 40.5303C14.1876 40.4312 14.1972 40.3492 14.2085 40.2731C14.2176 40.2148 14.2271 40.1573 14.2377 40.102C14.2455 40.0602 14.2538 40.0187 14.2626 39.9784C14.289 39.8566 14.3189 39.7423 14.3513 39.6382C14.3689 39.5814 14.3875 39.5259 14.4064 39.4736C14.4119 39.4581 14.4177 39.4428 14.4232 39.4281C14.4554 39.343 14.4909 39.2602 14.5253 39.1889L14.657 38.9265C14.7186 39.0784 14.876 39.4744 14.9251 39.634C14.9839 39.8226 15.0334 40.043 15.0684 40.2711C15.0794 40.3447 15.0887 40.425 15.0973 40.5158C15.1873 40.5248 15.2622 40.5343 15.3324 40.5456C15.5501 40.5811 15.7618 40.6326 15.9446 40.6947C16.1404 40.7602 16.2885 40.8305 16.3783 40.8778C16.414 40.8958 16.4442 40.914 16.4713 40.9303L16.5005 40.9476C16.5299 40.9653 16.5455 40.9766 16.5455 40.9766L16.5789 41.0011L16.5455 41.0256C16.5455 41.0256 16.5299 41.0369 16.5 41.0551L16.4753 41.0696L16.4695 41.0731C16.4449 41.0879 16.4145 41.1062 16.3788 41.1242C16.2888 41.1715 16.1407 41.2418 15.9448 41.3073C15.7618 41.3693 15.5501 41.4209 15.3326 41.4564C15.263 41.4677 15.1883 41.4772 15.0985 41.4859C15.0902 41.5762 15.0809 41.6565 15.0699 41.7308C15.0357 41.9575 14.9864 42.1776 14.9268 42.368C14.8635 42.5726 14.7013 42.9796 14.6563 43.0727L14.6146 42.9839L14.5977 42.9504L14.5954 42.9466L14.5912 42.9388C14.5866 42.9298 14.5806 42.9193 14.5741 42.9076C14.5645 42.8901 14.5532 42.8701 14.5416 42.847C14.5364 42.8363 14.5306 42.8248 14.525 42.813L14.5155 42.7928C14.473 42.7029 14.4096 42.5559 14.3506 42.3635C14.3287 42.2934 14.3081 42.2189 14.2892 42.1421C14.2568 42.0102 14.2296 41.8712 14.208 41.7286C14.2002 41.6758 14.1929 41.6192 14.1871 41.5612C14.1839 41.5314 14.1809 41.5014 14.1783 41.4714C14.1499 41.4687 14.1215 41.4656 14.0931 41.4624C14.0715 41.4599 14.0499 41.4571 14.0285 41.4544C13.9963 41.4501 13.9644 41.4454 13.9329 41.4404C13.7816 41.4154 13.6355 41.3836 13.499 41.3456C13.4387 41.3288 13.3796 41.3108 13.3232 41.2918C13.1286 41.2267 12.9811 41.1572 12.8916 41.1104L12.8724 41.1004C12.8586 41.0932 12.8458 41.0859 12.834 41.0789L12.8093 41.0644L12.797 41.0571L12.7691 41.0406L12.7641 41.0376L12.7384 41.0214L12.7125 40.9986L12.7284 40.9876L12.7276 40.9871Z" fill="white"/>
<path d="M11.2074 44.1241C11.2097 44.1224 11.2169 44.1174 11.2286 44.1103C11.2331 44.1077 11.2381 44.1045 11.2439 44.1011C11.2561 44.0937 11.2712 44.0844 11.2889 44.0753C11.3197 44.0588 11.3536 44.0426 11.3898 44.0269C11.3968 44.024 11.4038 44.0209 11.4111 44.018C11.4416 44.0054 11.4732 43.9934 11.5049 43.9827C11.5498 43.9672 11.5983 43.9529 11.6489 43.9403C11.7004 43.9274 11.7545 43.9162 11.8097 43.907C11.8459 43.901 11.8853 43.8959 11.9329 43.891C11.9374 43.8405 11.9422 43.7986 11.9479 43.7598C11.9524 43.7301 11.9572 43.7007 11.9625 43.6725C11.9664 43.6512 11.9705 43.63 11.9749 43.6095C11.9881 43.5473 12.0031 43.489 12.0193 43.4359C12.0281 43.4069 12.0374 43.3786 12.0468 43.3519C12.0496 43.344 12.0525 43.3362 12.0552 43.3287C12.0713 43.2853 12.0891 43.243 12.1063 43.2066L12.1722 43.0728C12.2029 43.1502 12.2816 43.3523 12.3062 43.4337C12.3356 43.5299 12.3603 43.6424 12.3778 43.7588C12.3833 43.7963 12.388 43.8373 12.3923 43.8836C12.4373 43.8882 12.4747 43.8931 12.5098 43.8988C12.6187 43.9169 12.7245 43.9432 12.8159 43.9749C12.9138 44.0083 12.9879 44.0442 13.0328 44.0683C13.0506 44.0775 13.0657 44.0868 13.0793 44.0951L13.0939 44.1039C13.1086 44.113 13.1164 44.1187 13.1164 44.1187L13.1331 44.1312L13.1164 44.1437C13.1164 44.1437 13.1086 44.1495 13.0936 44.1588L13.0813 44.1662L13.0784 44.168C13.0661 44.1755 13.0509 44.1848 13.033 44.194C12.988 44.2181 12.914 44.254 12.816 44.2874C12.7245 44.3191 12.6187 44.3454 12.5099 44.3635C12.4751 44.3693 12.4378 44.3741 12.3929 44.3786C12.3888 44.4246 12.3841 44.4656 12.3786 44.5035C12.3615 44.6192 12.3368 44.7315 12.307 44.8286C12.2754 44.933 12.1943 45.1407 12.1718 45.1881L12.1509 45.1428L12.1425 45.1257L12.1414 45.1238L12.1392 45.1199C12.137 45.1153 12.1339 45.1099 12.1307 45.1039C12.1259 45.095 12.1202 45.0848 12.1144 45.073C12.1118 45.0675 12.1089 45.0617 12.1062 45.0557L12.1014 45.0453C12.0801 44.9995 12.0485 44.9245 12.0189 44.8263C12.008 44.7906 11.9977 44.7525 11.9882 44.7134C11.972 44.6461 11.9584 44.5751 11.9476 44.5024C11.9437 44.4754 11.9401 44.4466 11.9372 44.417C11.9356 44.4018 11.9341 44.3865 11.9328 44.3712C11.9186 44.3698 11.9044 44.3682 11.8902 44.3666C11.8794 44.3653 11.8686 44.3639 11.8579 44.3625C11.8418 44.3603 11.8258 44.3579 11.8101 44.3553C11.7344 44.3426 11.6614 44.3264 11.5931 44.307C11.563 44.2984 11.5334 44.2892 11.5053 44.2795C11.408 44.2463 11.3342 44.2109 11.2894 44.187L11.2799 44.1819C11.2729 44.1782 11.2665 44.1745 11.2606 44.1709L11.2483 44.1635L11.2421 44.1598L11.2282 44.1514L11.2257 44.1499L11.2128 44.1416L11.1999 44.1299L11.2078 44.1243L11.2074 44.1241Z" fill="white"/>
<path d="M28.7098 30.3838C28.7067 30.3816 28.6971 30.3751 28.6813 30.3656C28.6752 30.3623 28.6684 30.3581 28.6606 30.3535C28.6442 30.3437 28.6239 30.3314 28.6 30.3195C28.5585 30.2977 28.5127 30.2763 28.4639 30.2556C28.4546 30.2517 28.4451 30.2477 28.4353 30.2438C28.3941 30.2271 28.3516 30.2113 28.3089 30.1972C28.2484 30.1768 28.183 30.1579 28.1147 30.1412C28.0454 30.1242 27.9724 30.1094 27.898 30.0973C27.8492 30.0893 27.7962 30.0826 27.732 30.0762C27.7259 30.0095 27.7194 29.9542 27.7118 29.903C27.7057 29.8637 27.6993 29.825 27.6921 29.7878C27.6869 29.7596 27.6813 29.7317 27.6754 29.7045C27.6576 29.6225 27.6374 29.5455 27.6156 29.4754C27.6037 29.4372 27.5912 29.3998 27.5785 29.3646C27.5747 29.3541 27.5708 29.3438 27.5671 29.3339C27.5454 29.2766 27.5215 29.2208 27.4983 29.1728L27.4095 28.9961C27.368 29.0984 27.2619 29.3651 27.2289 29.4725C27.1893 29.5996 27.1559 29.748 27.1323 29.9017C27.1249 29.9512 27.1186 30.0053 27.1128 30.0664C27.0522 30.0725 27.0017 30.0789 26.9544 30.0865C26.8077 30.1104 26.665 30.1451 26.5418 30.1869C26.4098 30.231 26.31 30.2784 26.2496 30.3102C26.2255 30.3223 26.2052 30.3346 26.1869 30.3456L26.1672 30.3572C26.1474 30.3692 26.1369 30.3768 26.1369 30.3768L26.1143 30.3933L26.1369 30.4098C26.1369 30.4098 26.1474 30.4174 26.1676 30.4297L26.1842 30.4394L26.1881 30.4418C26.2047 30.4517 26.2252 30.464 26.2492 30.4762C26.3099 30.508 26.4097 30.5553 26.5417 30.5995C26.665 30.6413 26.8077 30.676 26.9542 30.6999C27.0012 30.7075 27.0515 30.7139 27.112 30.7198C27.1176 30.7806 27.1239 30.8347 27.1313 30.8847C27.1544 31.0373 27.1876 31.1856 27.2277 31.3138C27.2704 31.4516 27.3797 31.7257 27.41 31.7884L27.4382 31.7286L27.4495 31.706L27.451 31.7035L27.4539 31.6983C27.457 31.6922 27.461 31.6851 27.4654 31.6772C27.4719 31.6654 27.4795 31.6519 27.4873 31.6364C27.4909 31.6292 27.4948 31.6215 27.4985 31.6135L27.5049 31.5999C27.5336 31.5394 27.5763 31.4403 27.6161 31.3108C27.6308 31.2636 27.6447 31.2134 27.6574 31.1617C27.6793 31.0729 27.6976 30.9792 27.7121 30.8832C27.7174 30.8476 27.7223 30.8096 27.7262 30.7705C27.7284 30.7504 27.7304 30.7302 27.7321 30.71C27.7513 30.7081 27.7704 30.7061 27.7896 30.7039C27.8041 30.7022 27.8187 30.7004 27.8331 30.6985C27.8548 30.6957 27.8763 30.6925 27.8975 30.6891C27.9995 30.6723 28.0979 30.6509 28.19 30.6253C28.2306 30.614 28.2704 30.6018 28.3084 30.589C28.4395 30.5452 28.539 30.4984 28.5993 30.4669L28.6122 30.4601C28.6215 30.4553 28.6301 30.4504 28.6381 30.4457L28.6547 30.4359L28.663 30.431L28.6818 30.4199L28.6852 30.4179L28.7025 30.4069L28.7199 30.3916L28.7093 30.3842L28.7098 30.3838Z" fill="white"/>
<path d="M48.718 43.4601C48.716 43.4586 48.7098 43.4542 48.6996 43.4479C48.6957 43.4457 48.6913 43.4429 48.6863 43.4399C48.6757 43.4333 48.6625 43.4251 48.6471 43.4172C48.6203 43.4027 48.5908 43.3884 48.5593 43.3746C48.5533 43.372 48.5472 43.3693 48.5409 43.3667C48.5143 43.3556 48.4869 43.3451 48.4593 43.3356C48.4203 43.322 48.3781 43.3095 48.334 43.2983C48.2893 43.287 48.2422 43.2771 48.1942 43.269C48.1628 43.2637 48.1285 43.2592 48.0871 43.255C48.0832 43.2105 48.079 43.1737 48.0741 43.1395C48.0702 43.1133 48.066 43.0875 48.0614 43.0627C48.058 43.0439 48.0544 43.0253 48.0506 43.0072C48.0391 42.9525 48.0261 42.9012 48.012 42.8545C48.0044 42.829 47.9963 42.804 47.9881 42.7805C47.9857 42.7736 47.9832 42.7667 47.9807 42.7601C47.9668 42.7219 47.9513 42.6847 47.9364 42.6527L47.8791 42.5349C47.8523 42.6031 47.7839 42.7809 47.7626 42.8525C47.737 42.9372 47.7154 43.0362 47.7002 43.1386C47.6954 43.1716 47.6914 43.2077 47.6877 43.2485C47.6485 43.2525 47.616 43.2568 47.5855 43.2618C47.4908 43.2778 47.3988 43.3009 47.3193 43.3288C47.2341 43.3582 47.1697 43.3898 47.1307 43.411C47.1152 43.4191 47.1021 43.4273 47.0903 43.4346L47.0776 43.4423C47.0648 43.4503 47.058 43.4554 47.058 43.4554L47.0435 43.4664L47.058 43.4774C47.058 43.4774 47.0648 43.4824 47.0778 43.4906L47.0885 43.4971L47.091 43.4987C47.1018 43.5053 47.115 43.5135 47.1305 43.5216C47.1696 43.5428 47.234 43.5744 47.3192 43.6038C47.3988 43.6317 47.4908 43.6548 47.5854 43.6708C47.6156 43.6758 47.6481 43.6801 47.6871 43.684C47.6907 43.7246 47.6948 43.7606 47.6996 43.794C47.7145 43.8957 47.7359 43.9946 47.7618 44.0801C47.7893 44.1719 47.8598 44.3547 47.8794 44.3965L47.8976 44.3566L47.9049 44.3415L47.9059 44.3399L47.9077 44.3364C47.9097 44.3323 47.9123 44.3276 47.9152 44.3223C47.9193 44.3145 47.9242 44.3055 47.9293 44.2951C47.9316 44.2903 47.9341 44.2852 47.9365 44.2799L47.9406 44.2708C47.9591 44.2305 47.9866 44.1644 48.0123 44.078C48.0218 44.0466 48.0308 44.0131 48.039 43.9786C48.0531 43.9194 48.0649 43.857 48.0743 43.793C48.0777 43.7693 48.0809 43.7439 48.0834 43.7178C48.0848 43.7045 48.0861 43.691 48.0872 43.6775C48.0996 43.6763 48.1119 43.6749 48.1243 43.6735C48.1337 43.6723 48.1431 43.6711 48.1524 43.6699C48.1664 43.668 48.1802 43.6658 48.1939 43.6636C48.2597 43.6524 48.3232 43.6381 48.3826 43.621C48.4088 43.6135 48.4345 43.6054 48.459 43.5969C48.5436 43.5677 48.6078 43.5364 48.6467 43.5154L48.655 43.5109C48.661 43.5077 48.6666 43.5044 48.6717 43.5013L48.6824 43.4948L48.6878 43.4915L48.6999 43.4841L48.7021 43.4828L48.7133 43.4755L48.7245 43.4652L48.7176 43.4603L48.718 43.4601Z" fill="white"/>
<path d="M11.1409 20.6571C11.1389 20.6556 11.1327 20.6513 11.1225 20.645C11.1186 20.6427 11.1142 20.6399 11.1092 20.6369C11.0986 20.6304 11.0855 20.6222 11.0701 20.6142C11.0433 20.5997 11.0138 20.5854 10.9823 20.5716C10.9763 20.569 10.9702 20.5663 10.9638 20.5638C10.9373 20.5526 10.9098 20.5421 10.8823 20.5326C10.8432 20.5191 10.801 20.5065 10.757 20.4954C10.7123 20.484 10.6652 20.4741 10.6172 20.466C10.5857 20.4608 10.5515 20.4563 10.5101 20.452C10.5061 20.4075 10.502 20.3707 10.497 20.3365C10.4931 20.3104 10.489 20.2845 10.4844 20.2597C10.481 20.241 10.4774 20.2223 10.4735 20.2042C10.4621 20.1495 10.4491 20.0982 10.435 20.0515C10.4273 20.026 10.4192 20.001 10.411 19.9776C10.4086 19.9706 10.4061 19.9638 10.4037 19.9571C10.3897 19.9189 10.3743 19.8818 10.3593 19.8498L10.302 19.7319C10.2752 19.8001 10.2068 19.9779 10.1855 20.0496C10.1599 20.1343 10.1384 20.2332 10.1232 20.3356C10.1184 20.3687 10.1143 20.4047 10.1106 20.4455C10.0715 20.4495 10.0389 20.4538 10.0084 20.4589C9.91374 20.4748 9.8217 20.4979 9.74223 20.5258C9.65707 20.5552 9.59269 20.5868 9.55366 20.608C9.53814 20.6161 9.52502 20.6243 9.51322 20.6316L9.50054 20.6393C9.48775 20.6473 9.48097 20.6524 9.48097 20.6524L9.46643 20.6634L9.48097 20.6744C9.48097 20.6744 9.48775 20.6794 9.50076 20.6876L9.51147 20.6942L9.51398 20.6957C9.5247 20.7024 9.53792 20.7106 9.55344 20.7186C9.59258 20.7399 9.65697 20.7714 9.74212 20.8009C9.8217 20.8287 9.91374 20.8518 10.0083 20.8678C10.0386 20.8729 10.071 20.8771 10.1101 20.8811C10.1137 20.9216 10.1177 20.9577 10.1225 20.991C10.1374 21.0928 10.1588 21.1916 10.1847 21.2771C10.2123 21.369 10.2828 21.5517 10.3024 21.5935L10.3205 21.5536L10.3278 21.5386L10.3288 21.5369L10.3307 21.5334C10.3326 21.5293 10.3353 21.5246 10.3381 21.5193C10.3423 21.5115 10.3472 21.5025 10.3522 21.4922C10.3545 21.4873 10.357 21.4822 10.3594 21.4769L10.3636 21.4678C10.382 21.4275 10.4096 21.3614 10.4353 21.2751C10.4448 21.2436 10.4538 21.2101 10.462 21.1757C10.4761 21.1165 10.4879 21.054 10.4973 20.99C10.5007 20.9663 10.5038 20.9409 10.5063 20.9149C10.5078 20.9015 10.5091 20.888 10.5102 20.8745C10.5225 20.8733 10.5349 20.872 10.5472 20.8705C10.5566 20.8694 10.566 20.8681 10.5753 20.8669C10.5893 20.865 10.6032 20.8629 10.6169 20.8606C10.6827 20.8494 10.7462 20.8351 10.8055 20.818C10.8318 20.8105 10.8575 20.8024 10.8819 20.7939C10.9665 20.7647 11.0307 20.7335 11.0696 20.7125L11.0779 20.708C11.084 20.7047 11.0895 20.7015 11.0947 20.6983L11.1054 20.6918L11.1107 20.6885L11.1229 20.6811L11.1251 20.6798L11.1362 20.6725L11.1475 20.6623L11.1406 20.6573L11.1409 20.6571Z" fill="white"/>
<rect x="0.632996" y="33.9087" width="3.91605" height="81.5179" rx="1.95802" transform="rotate(-13.9504 0.632996 33.9087)" fill="#082422"/>
<rect x="6.59589" y="47.8225" width="0.60354" height="46.2776" rx="0.30177" transform="rotate(-13.9504 6.59589 47.8225)" fill="white"/>
<path d="M2.54579 33.5577C3.53483 33.3109 4.53609 33.9159 4.78191 34.9097L6.63944 42.4217C5.38006 42.5121 4.16835 42.7837 3.03089 43.2124L1.19943 35.8038C0.953908 34.81 1.55684 33.8047 2.54579 33.5577Z" fill="white" stroke="#082422" stroke-width="0.192108"/>
</g>
<defs>
<clipPath id="clip0_664_11610">
<rect width="54" height="80" fill="white"/>
</clipPath>
</defs>
</svg>
