<svg width="62" height="80" viewBox="0 0 62 80" fill="none" xmlns="http://www.w3.org/2000/svg">
<g clip-path="url(#clip0_664_11559)">
<path d="M29.1985 47.2156L23.4353 46.718C20.7087 46.4826 18.126 44.4473 16.3664 40.6553C12.8692 33.1385 13.9224 21.5525 18.6898 14.8176C21.0751 11.4604 23.9328 9.9378 26.6282 10.1682L32.3918 10.6652C29.6848 10.4267 26.8186 11.9611 24.453 15.3151C19.6739 22.0419 18.6325 33.6361 22.1216 41.1642C23.8777 44.9368 26.4605 46.9721 29.1985 47.2156Z" fill="#B2CE00" stroke="#082422" stroke-width="0.0915521"/>
<path d="M36.3188 16.7864C39.8505 24.3859 38.8057 36.0751 33.9741 42.8844C29.1317 49.7088 22.3488 49.0515 18.8171 41.452C15.2854 33.8525 16.3302 22.1632 21.1727 15.3387C26.0041 8.52936 32.787 9.18703 36.3188 16.7864Z" fill="#8BFFFE" stroke="#082422" stroke-width="0.0915521"/>
<path d="M38.5789 45.7183C35.6547 49.8396 32.1472 51.7184 28.8202 51.4259L23.0686 50.9365C26.3836 51.2216 29.9032 49.3501 32.8268 45.2295C38.7152 36.93 40.0019 22.6552 35.7034 13.4015C33.5294 8.74835 30.3651 6.236 26.9991 5.94964L32.7505 6.43902C36.117 6.72483 39.2926 9.24578 41.4586 13.9101C45.7572 23.1639 44.4588 37.4306 38.5789 45.7183Z" fill="#B2CE00" stroke="#082422" stroke-width="0.0915521"/>
<path d="M35.7016 13.4108C40.0017 22.6637 38.7088 36.9366 32.826 45.2273C26.9433 53.518 18.6642 52.7351 14.364 43.4822C10.0594 34.2199 11.346 19.9561 17.2288 11.6655C23.1115 3.37489 31.397 4.14848 35.7016 13.4108ZM16.3647 40.6626C19.8566 48.1765 26.5863 48.8122 31.3634 42.08C36.1465 35.3391 37.1926 23.7447 33.7006 16.231C30.2043 8.70759 23.4744 8.07185 18.6914 14.8127C13.9144 21.5449 12.8684 33.1392 16.3647 40.6626Z" fill="#DCFF00" stroke="#082422" stroke-width="0.0915521"/>
<path d="M33.4891 45.3931C33.1336 45.8972 33.062 46.3705 33.2312 46.7404L36.4495 53.7175C36.2801 53.3479 36.3498 52.8625 36.7054 52.3584C37.4167 51.3498 39.012 50.6048 40.257 50.7136C40.8081 50.7651 41.2144 50.9771 41.4113 51.2929L38.257 44.4332C38.0877 44.0636 37.666 43.799 37.041 43.7482C35.7958 43.6397 34.1985 44.3724 33.4891 45.3931Z" fill="#009191" stroke="#082422" stroke-width="0.0915521"/>
<path d="M40.2523 50.7174C39.011 50.6072 37.4153 51.3461 36.7042 52.3602C35.9896 53.3794 36.4267 54.2933 37.6681 54.4035C38.9157 54.5143 40.5014 53.7803 41.216 52.761C41.927 51.7468 41.5 50.8282 40.2523 50.7174Z" fill="#2BF2F1" stroke="#082422" stroke-width="0.0915521"/>
<path d="M34.2037 50.2063C33.5935 51.0714 33.4707 51.8834 33.7609 52.5186L44.7608 76.5295C44.4703 75.8951 44.5897 75.0622 45.1999 74.1971C46.4206 72.4664 49.1583 71.1878 51.2946 71.3745C52.2402 71.4629 52.9377 71.8265 53.2754 72.3686L42.3852 48.5592C42.0946 47.9248 41.3708 47.4709 40.2983 47.3836C38.162 47.1971 35.421 48.4548 34.2037 50.2063Z" fill="#2BF2F1" stroke="#082422" stroke-width="0.0915521"/>
<path d="M51.2915 71.3752C49.1613 71.1859 46.4231 72.4539 45.2029 74.1942C43.9768 75.9431 44.7268 77.5113 46.857 77.7006C48.998 77.8909 51.7191 76.6311 52.9452 74.8821C54.1654 73.1417 53.4325 71.5654 51.2915 71.3752Z" fill="#009191" stroke="#082422" stroke-width="0.0915521"/>
</g>
<defs>
<clipPath id="clip0_664_11559">
<rect width="62" height="80" fill="white"/>
</clipPath>
</defs>
</svg>
