<svg width="146" height="80" viewBox="0 0 146 80" fill="none" xmlns="http://www.w3.org/2000/svg">
<g clip-path="url(#clip0_664_11593)">
<path d="M40.7309 70.4046L0 80.2617L14.0767 42.476L115.602 34.2617L146 80.2617L106.468 70.4046L73.6743 77.7974L40.7309 70.4046Z" fill="#082422" fill-opacity="0.5"/>
<path d="M136.406 13.0146L145.972 79.8994L106.209 66.9492L106.192 66.9443L106.176 66.9502L73.0176 78.2793L39.8613 66.9502L39.8447 66.9443L39.8281 66.9492L0.0644531 79.8994L9.62988 13.0146L44.3105 0.0556641L72.999 11.3848L73.0186 11.3926L73.0381 11.3848L101.726 0.0556641L136.406 13.0146Z" fill="white" stroke="#082422" stroke-width="0.105565" stroke-miterlimit="10"/>
<path d="M44.1795 4.44385L54.616 8.6167L54.6414 8.62744L54.6483 8.65381L58.3426 23.5972L58.367 23.6938L58.2733 23.6597L43.285 18.1167L43.2733 18.1216L12.033 28.5063L11.9529 28.5327L11.9637 28.4487L13.6248 15.8892L13.6287 15.8569L13.659 15.8462L44.1414 4.44287L44.1609 4.43604L44.1795 4.44385Z" fill="#60D06F" stroke="#082422" stroke-width="0.105565" stroke-miterlimit="10"/>
<path d="M42.6088 22.7195L42.6224 22.7273L55.0072 27.2839L55.1342 27.3308L55.0092 27.3816L41.9769 32.7224V32.7234L40.9662 33.1296L40.9652 33.1306L36.1029 34.9812L25.7113 49.5916L25.7015 49.6052L25.6849 49.6101L8.13025 55.7654L8.04919 55.7937L8.05994 55.7087L11.0238 33.1736L11.0277 33.1404L11.0599 33.1306L42.5687 22.7166L42.5892 22.7097L42.6088 22.7195Z" fill="#2BF2F1" stroke="#082422" stroke-width="0.105565" stroke-miterlimit="10"/>
<path d="M59.937 30.542L62.7416 43.3232L72.9995 46.8408H73.0004L73.06 46.8623L87.9301 40.8115L88.0004 40.7832L88.0024 40.8584L88.395 53.1162L88.3959 53.1523L88.3618 53.167L73.0053 59.3809L73.0063 59.3818L72.9662 59.4023L72.9457 59.4121L72.9243 59.4043L61.7905 55.2129L55.0434 67.834L55.0219 67.874L54.9799 67.8584L40.2524 62.6807L6.02484 74.0371L5.94476 74.0635L5.95551 73.9795L7.72894 60.6191L7.73285 60.5869L7.7641 60.5762L29.1713 53.1709L39.5258 38.6426L39.5346 38.6289L39.5502 38.623L41.8715 37.7559L42.8608 37.3818L59.8657 30.5049L59.9233 30.4814L59.937 30.542Z" fill="#008BD6" stroke="#082422" stroke-width="0.105565" stroke-miterlimit="10"/>
<path d="M102.045 4.44287L121.417 11.7427L121.494 11.772L121.435 11.8296L111.387 21.6997L111.363 21.7231L111.332 21.7124L102.956 18.6616L87.663 24.6724L88.0146 35.8159L88.0156 35.853L87.9824 35.8667L73.1738 41.9448L73.0995 41.9819L73.079 41.9927L73.0585 41.9849L67.2304 39.9751L67.2031 39.9663L67.1962 39.937L63.8964 25.5864L60.0478 10.7905L60.0214 10.6909L60.1181 10.728L73.1533 15.7935L102.007 4.44385L102.025 4.43604L102.045 4.44287Z" fill="#60D06F" stroke="#082422" stroke-width="0.105565" stroke-miterlimit="10"/>
<path d="M126.644 13.7307L132.463 15.885L132.494 15.8958L132.498 15.928L136.47 46.1243L136.482 46.2122L136.399 46.1799L119.018 39.4045L118.994 39.3948L118.987 39.3694L115.033 25.2307L115.024 25.2014L115.046 25.179L126.588 13.7434L126.613 13.719L126.644 13.7307Z" fill="#008BD6" stroke="#082422" stroke-width="0.105565" stroke-miterlimit="10"/>
<path d="M103.245 23.6157L110.01 26.0552L110.035 26.064L110.043 26.0903L114.031 40.7729L114.035 40.7905L114.029 40.8071L108.604 54.1733L117.835 66.6597L117.935 66.7944L117.775 66.7407L105.788 62.7036L73.1464 74.0376L73.1288 74.0435L73.1122 74.0376L60.081 69.5728L60.0234 69.5532L60.0517 69.4985L64.4609 61.189L64.4824 61.1479L64.5253 61.1636L73.1425 64.3677L73.165 64.3735L93.7001 56.1128L92.9687 38.8813L92.9003 37.3774V37.3765L92.4999 27.8374L92.498 27.8003L92.5331 27.7866L103.184 23.6284L103.203 23.6187L103.224 23.6079L103.245 23.6157Z" fill="#2BF2F1" stroke="#082422" stroke-width="0.105565" stroke-miterlimit="10"/>
<path d="M118.415 43.9844L137.322 51.2158L137.351 51.2275L137.356 51.2578L140.38 73.9805L140.391 74.0635L140.311 74.0371L126.291 69.4688L126.276 69.4639L126.266 69.4512L114.444 53.8623L114.425 53.8389L114.437 53.8105L118.348 44.0137L118.368 43.9648L118.415 43.9844Z" fill="#60D06F" stroke="#082422" stroke-width="0.105565" stroke-miterlimit="10"/>
<path opacity="0.2" d="M72.7165 11.352L44.3732 0L39.9634 67.1273L72.7165 78.4792V11.352Z" fill="#082422"/>
<path opacity="0.2" d="M136.41 12.9379L101.565 0L106.047 67.039L146.037 79.9769L136.41 12.9379Z" fill="#082422"/>
<mask id="mask0_664_11593" style="mask-type:alpha" maskUnits="userSpaceOnUse" x="0" y="0" width="147" height="80">
<path d="M136.406 13.0168L145.972 79.9016L106.209 66.9514L106.192 66.9465L106.176 66.9524L73.0176 78.2815L39.8613 66.9524L39.8447 66.9465L39.8281 66.9514L0.0644531 79.9016L9.62988 13.0168L44.3105 0.0578613L72.999 11.387L73.0186 11.3948L73.0381 11.387L101.726 0.0578613L136.406 13.0168Z" fill="white" stroke="#082422" stroke-width="0.105565" stroke-miterlimit="10"/>
</mask>
<g mask="url(#mask0_664_11593)">
<path opacity="0.2" d="M76.3229 -51.9241C84.2405 -51.9241 91.8346 -48.7811 97.4332 -43.1858C103.032 -37.5905 106.177 -30.0011 106.177 -22.0881C106.177 -10.0054 98.6467 1.98205 91.1354 10.9373C87.3778 15.4172 83.6202 19.1435 80.8024 21.7498C79.3935 23.0528 78.2193 24.0765 77.3971 24.7742C76.9861 25.1229 76.6624 25.3908 76.442 25.571C76.3323 25.6608 76.248 25.7294 76.191 25.7751C76.1627 25.798 76.1401 25.8153 76.1256 25.8269C76.1185 25.8326 76.1126 25.8377 76.109 25.8406C76.1075 25.8418 76.1059 25.8429 76.1051 25.8435L76.1041 25.8445C76.0749 25.8675 76.036 25.8732 76.0026 25.8611L75.9713 25.8435L75.9703 25.8425C75.9693 25.8418 75.9672 25.841 75.9655 25.8396C75.9619 25.8366 75.9568 25.8317 75.9498 25.8259C75.9356 25.8142 75.9142 25.7964 75.8864 25.7732C75.8304 25.7267 75.7472 25.6575 75.6393 25.5662C75.4231 25.3833 75.1059 25.1119 74.7028 24.7585C73.8962 24.0517 72.7441 23.0153 71.3619 21.698C68.5976 19.0634 64.9115 15.3031 61.2252 10.8005C57.4703 6.21404 53.712 0.851044 50.9274 -4.88013C55.417 -6.39614 58.651 -10.6386 58.651 -15.6399C58.6508 -21.9125 53.5653 -26.9973 47.2926 -26.9973C47.1533 -26.9973 47.0147 -26.9925 46.8766 -26.9875C47.8921 -33.0835 50.7841 -38.7589 55.2135 -43.1858C60.812 -48.7808 68.4055 -51.9239 76.3229 -51.9241ZM80.5533 21.8337C77.853 24.3212 76.0609 25.7439 76.0387 25.7615C76.0288 25.7533 75.5735 25.38 74.7828 24.6873C75.1809 25.036 75.4936 25.3041 75.7076 25.4851L76.0387 25.7625C76.0466 25.7562 77.8421 24.3314 80.5533 21.8337ZM99.3522 -40.9075C99.3222 -40.9441 99.2915 -40.9803 99.2614 -41.0168C99.2915 -40.9803 99.3222 -40.9441 99.3522 -40.9075ZM98.9645 -41.3704C98.9027 -41.4429 98.8405 -41.5152 98.778 -41.5872C98.8405 -41.5152 98.9027 -41.4429 98.9645 -41.3704Z" fill="#082422"/>
</g>
</g>
<defs>
<clipPath id="clip0_664_11593">
<rect width="146" height="80" fill="white"/>
</clipPath>
</defs>
</svg>
