<svg width="79" height="80" viewBox="0 0 79 80" fill="none" xmlns="http://www.w3.org/2000/svg">
<g clip-path="url(#clip0_664_11621)">
<path d="M37.2514 39.6777L33.7308 45.0901L42.9676 63.1498L51.9231 32.2151L37.2514 39.6777Z" fill="#EFEBE7" stroke="#002522" stroke-width="0.192108" stroke-linecap="round" stroke-linejoin="round"/>
<path d="M61.4913 10.3145L56.4046 50.4471L15.3435 48.4428L61.4913 10.3145Z" fill="#EFEBE7" stroke="#002522" stroke-width="0.192108" stroke-linecap="round" stroke-linejoin="round"/>
<path d="M61.4861 10.3215L41.3527 49.8415L42.9675 63.1496L30.9041 49.288L61.4861 10.3215Z" fill="#CFCABF" stroke="#002522" stroke-width="0.192108" stroke-linecap="round" stroke-linejoin="round"/>
<mask id="mask0_664_11621" style="mask-type:alpha" maskUnits="userSpaceOnUse" x="21" y="-2" width="58" height="88">
<path d="M78.6697 26.4145L69.1604 -1.82544L38.5191 3.64964L21.5175 52.9254L36.9823 78.9561L57.7299 85.7759L60.8037 65.7006L78.6697 26.4145Z" fill="#D9D9D9"/>
</mask>
<g mask="url(#mask0_664_11621)">
<path d="M51.4942 9.27285L50.9182 9.18509C49.0903 10.2604 47.4837 11.7592 46.0046 13.5021C43.9841 15.8832 42.2027 18.7203 40.4208 21.5574C38.6389 24.3944 36.8569 27.2319 34.8364 29.613C33.3573 31.3559 31.7512 32.8547 29.9233 33.9301L30.4993 34.0179C32.3272 32.9425 33.9333 31.4441 35.4124 29.7008C37.4324 27.3196 39.2149 24.4822 40.9968 21.6451C42.7787 18.8076 44.5601 15.9709 46.5806 13.5899C48.0592 11.8468 49.6663 10.3482 51.4942 9.27285Z" fill="#84ED92" stroke="#082422" stroke-width="0.192108" stroke-miterlimit="10" stroke-linejoin="round"/>
<path d="M30.4992 34.02L29.9232 33.9323C32.6752 39.1992 35.4273 44.4656 38.1798 49.7326L38.7558 49.8203C36.0038 44.5534 33.2517 39.287 30.4992 34.02Z" fill="#84ED92" stroke="#082422" stroke-width="0.192108" stroke-miterlimit="10" stroke-linejoin="round"/>
<path d="M43.6672 45.5009C45.6877 43.1198 47.4691 40.2826 49.251 37.4456C51.0329 34.6085 52.8149 31.771 54.8349 29.3898C56.314 27.6469 57.9206 26.1481 59.7485 25.0728C56.9965 19.8059 54.2444 14.5394 51.4918 9.27237C49.6639 10.3477 48.0573 11.8465 46.5782 13.5894C44.5576 15.9705 42.7762 18.8076 40.9943 21.6447C39.2124 24.4818 37.4305 27.3193 35.4099 29.7004C33.9308 31.4433 32.3248 32.9421 30.4968 34.0175C33.2489 39.2844 36.001 44.5509 38.7535 49.8179C40.581 48.7425 42.188 47.2438 43.6667 45.5008L43.6672 45.5009Z" fill="#60D06F" stroke="#082422" stroke-width="0.192108" stroke-miterlimit="10" stroke-linejoin="round"/>
<path d="M43.1272 42.6008C44.8866 40.5271 46.4681 38.1129 48.0497 35.6987C49.6312 33.2849 51.2122 30.8711 52.9715 28.7974C53.6164 28.0374 54.2856 27.3225 54.9869 26.6703C55.0805 26.5621 55.0917 26.4088 55.0336 26.2973C54.4786 25.2351 54.5758 23.8085 55.2731 22.9867C55.3819 22.8582 55.5055 22.7448 55.6437 22.6494C55.6672 22.6335 55.6879 22.6141 55.7064 22.5921C55.7984 22.4837 55.8271 22.3132 55.7526 22.1709C54.6642 20.0873 53.5753 18.004 52.487 15.9203C52.3979 15.7494 52.2044 15.704 52.0651 15.8005C51.0435 16.5049 49.7702 16.2235 49.1254 14.9885C49.0548 14.853 48.9119 14.8064 48.8072 14.9037C48.1135 15.5504 47.4522 16.2577 46.8136 17.0102C45.0543 19.0839 43.4733 21.4978 41.8918 23.9115C40.3102 26.3257 38.7287 28.7395 36.9699 30.8132C36.3244 31.574 35.6547 32.2893 34.9528 32.9418C34.8461 33.0649 34.8348 33.2402 34.9007 33.3666C35.4547 34.4273 35.3583 35.8509 34.6622 36.6712C34.5523 36.8004 34.4281 36.915 34.2889 37.0102C34.2681 37.0248 34.2491 37.0418 34.2324 37.0613C34.1496 37.1593 34.1245 37.3135 34.1911 37.4422C35.2894 39.5446 36.3877 41.6465 37.486 43.7489C37.5665 43.9031 37.7409 43.9456 37.867 43.859C38.8899 43.157 40.1635 43.4398 40.8089 44.6749C40.8714 44.7942 40.9966 44.8337 41.0884 44.7486C41.7985 44.0906 42.4749 43.3689 43.1273 42.6003L43.1272 42.6008Z" fill="#80E58A" stroke="#082422" stroke-width="0.192108" stroke-miterlimit="10" stroke-linejoin="round"/>
<path d="M50.1542 16.3662L49.5716 16.3681C47.9301 17.7121 46.5722 19.4405 45.3775 21.3906C43.7457 24.0547 42.4199 27.1327 41.0936 30.2107C39.7673 33.2887 38.4411 36.3671 36.8092 39.0312C35.6146 40.9813 34.2571 42.7097 32.6156 44.0537L33.1982 44.0518C34.8397 42.7078 36.1972 40.9799 37.3918 39.0293C39.0231 36.3652 40.3499 33.2868 41.6762 30.2088C43.0024 27.1303 44.3282 24.0528 45.9601 21.3887C47.1542 19.4386 48.5127 17.7102 50.1542 16.3662Z" fill="#84ED92" stroke="#082422" stroke-width="0.192108" stroke-miterlimit="10" stroke-linejoin="round"/>
<path d="M33.2008 44.0496L32.6182 44.0515C36.1439 48.8334 39.6696 53.6148 43.1959 58.3967L43.7784 58.3948C40.2527 53.6129 36.727 48.8315 33.2008 44.0496Z" fill="#84ED92" stroke="#082422" stroke-width="0.192108" stroke-miterlimit="10" stroke-linejoin="round"/>
<path d="M47.9691 53.3743C49.601 50.7102 50.9267 47.6322 52.253 44.5542C53.5793 41.4762 54.9056 38.3977 56.5369 35.7337C57.7316 33.7836 59.0895 32.0552 60.731 30.7112C57.2053 25.9293 53.6796 21.1479 50.1533 16.366C48.5118 17.71 47.1539 19.4384 45.9592 21.3885C44.3273 24.0526 43.0016 27.1306 41.6753 30.2086C40.349 33.2866 39.0227 36.365 37.3909 39.0291C36.1962 40.9792 34.8388 42.7076 33.1973 44.0516C36.723 48.8334 40.2487 53.6149 43.775 58.3967C45.416 57.0528 46.7744 55.3244 47.9686 53.3743L47.9691 53.3743Z" fill="#60D06F" stroke="#082422" stroke-width="0.192108" stroke-miterlimit="10" stroke-linejoin="round"/>
<path d="M46.9935 50.5894C48.4142 48.2696 49.607 45.6407 50.7999 43.0117C51.9928 40.3832 53.1852 37.7547 54.6059 35.4349C55.1267 34.5847 55.6783 33.7754 56.2714 33.023C56.3473 32.9016 56.3349 32.7485 56.2604 32.6472C55.5493 31.6828 55.4268 30.2581 55.9899 29.3387C56.0776 29.195 56.1824 29.0639 56.3044 28.9484C56.3251 28.9291 56.3427 28.9067 56.3575 28.8822C56.4318 28.7609 56.4341 28.588 56.3386 28.4589C54.944 26.5671 53.5488 24.6757 52.1542 22.7839C52.04 22.6287 51.8418 22.6136 51.7189 22.7304C50.8175 23.5836 49.5162 23.5012 48.6898 22.3799C48.5993 22.2568 48.451 22.2327 48.3624 22.345C47.776 23.0908 47.231 23.8914 46.7153 24.7332C45.2946 27.053 44.1022 29.6815 42.9093 32.31C41.7164 34.939 40.5236 37.5675 39.1034 39.8873C38.5821 40.7384 38.0299 41.5481 37.4364 42.301C37.3498 42.439 37.3655 42.6139 37.4499 42.7287C38.1599 43.6918 38.2828 45.1134 37.7206 46.0311C37.6319 46.1756 37.5266 46.3081 37.4037 46.4236C37.3854 46.4411 37.3692 46.4608 37.3557 46.4828C37.2888 46.5923 37.2877 46.7486 37.3733 46.8655C38.7806 48.7743 40.1879 50.6826 41.5952 52.5914C41.6984 52.7314 41.8772 52.7465 41.9886 52.6416C42.8917 51.7906 44.1936 51.8743 45.0205 52.9956C45.1005 53.1039 45.2303 53.1237 45.308 53.0255C45.9088 52.266 46.4666 51.4488 46.9934 50.589L46.9935 50.5894Z" fill="#80E58A" stroke="#082422" stroke-width="0.192108" stroke-miterlimit="10" stroke-linejoin="round"/>
<path d="M47.0181 10.1539C46.9978 10.1161 46.9553 10.0923 46.9139 10.0951L46.2747 10.1389C46.2545 10.1404 46.2358 10.1482 46.2217 10.1611C44.5904 11.6548 43.3255 13.5198 42.2717 15.5957C40.8326 18.431 39.7857 21.6657 38.741 24.8926C37.6955 28.122 36.6529 31.3446 35.2207 34.1664C34.1725 36.2313 32.9182 38.079 31.3054 39.5558C31.2766 39.5822 31.2705 39.6258 31.2908 39.6637C31.3111 39.7016 31.3535 39.7253 31.395 39.7225L32.0332 39.6787C32.0536 39.6773 32.072 39.6695 32.0862 39.6565C33.7176 38.1628 34.9825 36.2984 36.0362 34.2219C37.4747 31.3868 38.5222 28.1519 39.5669 24.9251C40.6123 21.6951 41.6559 18.4731 43.0882 15.6512C44.1358 13.5864 45.3906 11.7386 47.0035 10.2618C47.0322 10.2354 47.0384 10.1917 47.0181 10.1539Z" fill="#84ED92" stroke="#082422" stroke-width="0.192108" stroke-miterlimit="10" stroke-linejoin="round"/>
<path d="M45.61 53.3742C41.1034 48.7571 36.5966 44.1398 32.0894 39.5227C32.0668 39.4997 32.0354 39.4869 32.0049 39.4888L31.3656 39.5327C31.3297 39.5351 31.3001 39.5569 31.2897 39.5895C31.2794 39.6221 31.2901 39.6604 31.3167 39.6877C35.8231 44.3046 40.3292 48.9213 44.8361 53.5383C44.8588 53.5615 44.8909 53.5742 44.9216 53.5721L45.5609 53.5283C45.5968 53.5258 45.6264 53.5041 45.6368 53.4715C45.647 53.439 45.6363 53.4014 45.61 53.3742Z" fill="#84ED92" stroke="#082422" stroke-width="0.192108" stroke-miterlimit="10" stroke-linejoin="round"/>
<path d="M60.5426 24.0852C60.556 24.0524 60.5478 24.0111 60.5185 23.981C56.0119 19.3639 51.5052 14.7475 46.9981 10.1305C46.9793 10.1112 46.9541 10.0988 46.9283 10.0965C46.9023 10.0943 46.8773 10.1026 46.8595 10.1188C45.2282 11.6125 43.9633 13.4775 42.9095 15.5534C41.4705 18.3887 40.4236 21.6234 39.3789 24.8503C38.3333 28.0798 37.2899 31.3023 35.8576 34.1241C34.8095 36.189 33.556 38.0367 31.9432 39.5135C31.9066 39.547 31.9083 39.6064 31.9473 39.6463C36.4538 44.2634 40.9606 48.8798 45.4677 53.4969C45.4866 53.5162 45.5115 53.5286 45.5375 53.5308C45.5634 53.533 45.5875 53.5248 45.6052 53.5086C47.2355 52.0155 48.5018 50.152 49.5548 48.0769C49.5554 48.076 49.5558 48.0749 49.5562 48.0739C50.9953 45.2387 52.0412 42.004 53.0859 38.7771C54.1315 35.5476 55.1755 32.3251 56.6072 29.5033C57.6554 27.4384 58.9096 25.5906 60.5225 24.1138L60.5426 24.0852Z" fill="#60D06F" stroke="#082422" stroke-width="0.192108" stroke-miterlimit="10" stroke-linejoin="round"/>
<path d="M48.0264 45.26C49.2761 42.7969 50.2344 40.0354 51.1928 37.2738C52.1512 34.5127 53.1091 31.7516 54.3587 29.2886C54.8168 28.3858 55.3142 27.5225 55.8647 26.7143C55.9317 26.5853 55.8977 26.4303 55.8024 26.3324C54.8935 25.4012 54.5691 23.9594 55.0643 22.9832C55.1415 22.8307 55.239 22.6897 55.3574 22.5635C55.3776 22.5423 55.3939 22.5183 55.4069 22.4923C55.4723 22.3634 55.4516 22.1873 55.3297 22.0626C53.547 20.2358 51.7639 18.4095 49.9812 16.5827C49.8351 16.4328 49.6157 16.4316 49.4964 16.5593C48.621 17.4921 47.1821 17.501 46.1257 16.4181C46.01 16.2993 45.844 16.2854 45.7618 16.406C45.2178 17.207 44.7265 18.061 44.2729 18.9548C43.0233 21.4179 42.0654 24.179 41.107 26.9401C40.1486 29.7017 39.1902 32.4628 37.9411 34.9258C37.4826 35.8294 36.9848 36.6932 36.4338 37.502C36.3572 37.6486 36.3978 37.8256 36.5057 37.9365C37.4133 38.8665 37.7377 40.3051 37.2432 41.2795C37.1651 41.433 37.0673 41.5753 36.9477 41.7016C36.93 41.7208 36.9149 41.7421 36.903 41.7653C36.8442 41.8816 36.8638 42.0408 36.9733 42.1538C38.7722 43.9969 40.5709 45.8396 42.3698 47.6827C42.5017 47.8179 42.6999 47.8206 42.8082 47.7059C43.6857 46.7751 45.1254 46.7676 46.1824 47.8503C46.2846 47.9549 46.4296 47.9658 46.5018 47.8603C47.0598 47.0443 47.5629 46.1725 48.0264 45.2595L48.0264 45.26Z" fill="#80E58A" stroke="black" stroke-width="0.210254" stroke-miterlimit="10"/>
<path d="M48.3567 37.4489C48.6866 36.7991 48.9897 36.0791 49.2624 35.2979C50.19 32.6425 50.773 29.9759 51.1 27.9493C51.2539 26.9262 51.3217 26.0409 51.243 25.3005C51.1643 24.5605 50.9337 23.9603 50.5038 23.5208C50.0764 23.0825 49.4896 22.8446 48.823 22.8213C48.157 22.7984 47.4172 22.9951 46.6985 23.4402C45.6715 24.0544 44.7303 25.2072 43.9401 26.7656C43.6103 27.4153 43.3071 28.1354 43.0344 28.9166C42.1069 31.5719 41.5238 34.2381 41.1969 36.2652C41.0429 37.2883 40.9751 38.1736 41.0539 38.914C41.1325 39.654 41.363 40.2537 41.7925 40.6941C42.2199 41.132 42.8073 41.3703 43.474 41.3936C44.1399 41.4165 44.8796 41.2194 45.5978 40.7748C46.6254 40.1605 47.5661 39.0078 48.3568 37.4493L48.3567 37.4489Z" fill="#60D06F" stroke="black" stroke-width="0.210254" stroke-miterlimit="10"/>
</g>
<path d="M42.9675 63.1497L42.9656 63.1458L41.3523 49.842L48.6892 35.4387L51.9226 32.2151L42.9675 63.1497Z" fill="#EFEBE7"/>
<path d="M42.9675 63.1497L42.8816 63.1926C42.8993 63.228 42.9369 63.2489 42.9763 63.2453C43.0156 63.2417 43.0488 63.2144 43.0598 63.1764L42.9675 63.1497ZM42.9656 63.1458L42.8702 63.1573C42.8715 63.1682 42.8747 63.1789 42.8797 63.1887L42.9656 63.1458ZM41.3523 49.842L41.2667 49.7984C41.258 49.8155 41.2546 49.8347 41.2569 49.8536L41.3523 49.842ZM48.6892 35.4387L48.6214 35.3707C48.6142 35.3779 48.6082 35.3861 48.6036 35.3951L48.6892 35.4387ZM51.9226 32.2151L52.0149 32.2418C52.0271 32.1997 52.0092 32.1547 51.9715 32.1324C51.9338 32.1101 51.8858 32.1161 51.8548 32.1471L51.9226 32.2151ZM42.9675 63.1497L43.0534 63.1067L43.0515 63.1028L42.9656 63.1458L42.8797 63.1887L42.8816 63.1926L42.9675 63.1497ZM42.9656 63.1458L43.0609 63.1342L41.4477 49.8305L41.3523 49.842L41.2569 49.8536L42.8702 63.1573L42.9656 63.1458ZM41.3523 49.842L41.4379 49.8856L48.7748 35.4823L48.6892 35.4387L48.6036 35.3951L41.2667 49.7984L41.3523 49.842ZM48.6892 35.4387L48.757 35.5067L51.9904 32.2831L51.9226 32.2151L51.8548 32.1471L48.6214 35.3707L48.6892 35.4387ZM51.9226 32.2151L51.8303 32.1884L42.8753 63.1229L42.9675 63.1497L43.0598 63.1764L52.0149 32.2418L51.9226 32.2151Z" fill="#082422"/>
<path d="M56.7591 50.668L41.4144 49.8604L61.4642 10.5059L56.7591 50.668Z" fill="#EFEBE7"/>
<path d="M56.7591 50.668L56.7541 50.7639C56.8047 50.7666 56.8486 50.7295 56.8545 50.6791L56.7591 50.668ZM41.4144 49.8604L41.3288 49.8167C41.314 49.8457 41.315 49.8802 41.3312 49.9084C41.3475 49.9365 41.3769 49.9546 41.4093 49.9563L41.4144 49.8604ZM61.4642 10.5059L61.5596 10.517C61.565 10.4708 61.5365 10.4274 61.492 10.4139C61.4475 10.4004 61.3997 10.4208 61.3786 10.4623L61.4642 10.5059ZM56.7591 50.668L56.7642 50.572L41.4194 49.7644L41.4144 49.8604L41.4093 49.9563L56.7541 50.7639L56.7591 50.668ZM41.4144 49.8604L41.5 49.904L61.5498 10.5495L61.4642 10.5059L61.3786 10.4623L41.3288 49.8167L41.4144 49.8604ZM61.4642 10.5059L61.3688 10.4947L56.6637 50.6568L56.7591 50.668L56.8545 50.6791L61.5596 10.517L61.4642 10.5059Z" fill="#082422"/>
<path d="M54.0064 58.0532C54.0234 58.0029 53.9964 57.9484 53.9462 57.9314C53.896 57.9145 53.8415 57.9415 53.8245 57.9918L53.9155 58.0225L54.0064 58.0532ZM41.808 81.797C41.7781 81.8409 41.7895 81.9007 41.8334 81.9305C41.8772 81.9603 41.9369 81.9489 41.9668 81.9051L41.8874 81.851L41.808 81.797ZM53.9155 58.0225L53.8245 57.9918C51.3699 65.2606 47.0429 74.0944 41.808 81.797L41.8874 81.851L41.9668 81.9051C47.211 74.1887 51.546 65.3393 54.0064 58.0532L53.9155 58.0225Z" fill="#002522"/>
<path d="M21.4425 55.8698C21.4785 55.8309 21.4762 55.7701 21.4373 55.7341C21.3984 55.698 21.3377 55.7003 21.3016 55.7392L21.372 55.8045L21.4425 55.8698ZM0.726658 73.0023C0.682504 73.0317 0.670546 73.0913 0.69995 73.1355C0.729353 73.1796 0.788984 73.1916 0.833139 73.1622L0.779898 73.0822L0.726658 73.0023ZM21.372 55.8045L21.3016 55.7392C16.0136 61.4421 8.64247 67.7302 0.726658 73.0023L0.779898 73.0822L0.833139 73.1622C8.76041 67.8824 16.1433 61.5847 21.4425 55.8698L21.372 55.8045Z" fill="#002522"/>
<path d="M37.8091 49.5571C37.8356 49.5111 37.8199 49.4524 37.7739 49.4259C37.728 49.3994 37.6693 49.4152 37.6428 49.4612L37.726 49.5091L37.8091 49.5571ZM27.777 62.069C27.7386 62.1055 27.737 62.1664 27.7735 62.2048C27.8101 62.2433 27.8708 62.2448 27.9093 62.2082L27.8432 62.1386L27.777 62.069ZM37.726 49.5091L37.6428 49.4612C35.4509 53.2651 31.6257 58.4084 27.777 62.069L27.8432 62.1386L27.9093 62.2082C31.7731 58.5332 35.6093 53.3748 37.8091 49.5571L37.726 49.5091Z" fill="#002522"/>
</g>
<defs>
<clipPath id="clip0_664_11621">
<rect width="79" height="80" fill="white"/>
</clipPath>
</defs>
</svg>
