<svg width="79" height="80" viewBox="0 0 79 80" fill="none" xmlns="http://www.w3.org/2000/svg">
<g clip-path="url(#clip0_664_11601)">
<path d="M51.8798 30.2699C51.9139 30.2525 51.9547 30.257 51.9842 30.2814C52.0136 30.3057 52.0259 30.345 52.0154 30.3817L43.0594 61.3165C43.0485 61.3542 43.0162 61.3817 42.9773 61.3857C42.9381 61.3895 42.8997 61.3685 42.8818 61.3335L33.6457 43.274C33.6301 43.2433 33.6316 43.2063 33.6504 43.1774L37.1708 37.7657C37.18 37.7517 37.1929 37.7403 37.2077 37.7327L51.8798 30.2699Z" fill="#EFEBE7" stroke="#002522" stroke-width="0.192108" stroke-linecap="round" stroke-linejoin="round"/>
<path d="M61.4303 8.38051C61.4604 8.3557 61.5024 8.3517 61.5368 8.37018C61.5712 8.38885 61.5907 8.4266 61.5863 8.46553L56.9969 48.8193C56.9909 48.8697 56.9471 48.907 56.8965 48.9043L15.3387 46.6792C15.2994 46.6771 15.2652 46.6507 15.2528 46.6133C15.2404 46.5757 15.2521 46.5335 15.2827 46.5083L61.4303 8.38051Z" fill="#EFEBE7" stroke="#002522" stroke-width="0.192108" stroke-linecap="round" stroke-linejoin="round"/>
<path d="M61.4109 8.40261C61.4415 8.36384 61.4963 8.35422 61.5378 8.38079C61.5795 8.4074 61.5943 8.46187 61.5718 8.50594L41.4505 47.9993L43.0631 61.2787C43.0681 61.3205 43.0446 61.3607 43.0061 61.3778C42.9677 61.3947 42.9227 61.3849 42.8951 61.3532L30.8321 47.4915C30.8018 47.4567 30.8007 47.4055 30.8292 47.3692L61.4109 8.40261Z" fill="#CFCABF" stroke="#002522" stroke-width="0.192108" stroke-linecap="round" stroke-linejoin="round"/>
<mask id="mask0_664_11601" style="mask-type:luminance" maskUnits="userSpaceOnUse" x="26" y="8" width="36" height="54">
<path d="M61.4456 8.36274L41.2995 47.8851L42.9109 61.1917L30.85 47.3345L26.4343 33.7348L34.6882 11.4543L61.4456 8.36274Z" fill="white"/>
</mask>
<g mask="url(#mask0_664_11601)">
<path d="M42.3677 19.8033C42.3761 19.803 42.3839 19.8056 42.3918 19.8075L45.2621 20.0685C45.3095 20.0728 45.3469 20.1112 45.3496 20.1588L45.4667 22.2796C46.999 22.9348 47.9509 24.3427 48.2072 26.447C48.2106 26.4756 48.2011 26.5042 48.1811 26.5249C48.1609 26.5458 48.1316 26.5565 48.1027 26.5539L45.1428 26.2847C45.1001 26.2806 45.0649 26.2488 45.0571 26.2067C44.9758 25.7612 44.846 25.429 44.6706 25.2035C44.5193 25.0091 44.3326 24.8912 44.1048 24.8482L44.0047 24.8345C43.895 24.8243 43.8002 24.8297 43.7197 24.8469L43.7189 24.8473C43.5652 24.8801 43.4571 24.9543 43.3888 25.0536C43.3197 25.1542 43.2858 25.2884 43.2943 25.4457C43.3026 25.5961 43.3369 25.7173 43.3953 25.8217C43.454 25.9263 43.54 26.0198 43.6604 26.1108C43.8443 26.25 44.0987 26.3775 44.4366 26.5311L44.8026 26.6955L44.8039 26.696L45.3267 26.9362C46.4632 27.4613 47.2698 27.991 47.8053 28.6565C48.343 29.3249 48.6009 30.1212 48.6583 31.1634C48.7129 32.1502 48.5223 32.9686 48.0997 33.5863C47.7291 34.1279 47.1852 34.5078 46.4905 34.714L46.1836 34.7912C46.174 34.7932 46.1641 34.7943 46.1544 34.7962L46.2842 37.1385C46.2858 37.1663 46.2747 37.1944 46.2546 37.2138C46.2345 37.233 46.2068 37.2426 46.1792 37.2401L43.2962 36.9779C43.249 36.9734 43.2123 36.9346 43.2096 36.8871L43.0769 34.5047C41.3026 33.8255 40.3427 32.2776 40.1094 30.1383L40.1144 30.0963C40.119 30.083 40.1263 30.0702 40.1364 30.0599C40.1566 30.0396 40.1846 30.0293 40.2131 30.0319L43.353 30.3168C43.3975 30.321 43.4331 30.3558 43.4391 30.4001C43.5027 30.8771 43.6378 31.2337 43.8335 31.4771C44.0268 31.7175 44.2849 31.8542 44.6127 31.8838L44.8249 31.8898C44.8914 31.8869 44.9535 31.8793 45.0107 31.8675L45.0098 31.868C45.178 31.8322 45.3017 31.7568 45.3817 31.647C45.4622 31.5366 45.5068 31.38 45.4953 31.1652L45.4869 31.0774C45.4582 30.8816 45.3717 30.7473 45.2283 30.6283C45.0564 30.4857 44.8054 30.3669 44.4616 30.2031L43.3509 29.6999L43.3513 29.7008C42.2122 29.2005 41.4226 28.636 40.9047 27.9357C40.3861 27.2343 40.1474 26.4056 40.0917 25.391C40.0418 24.4806 40.2082 23.7097 40.5997 23.1209C40.9866 22.539 41.5867 22.1459 42.3869 21.9684L42.2745 19.9044L42.2745 19.9C42.2742 19.8479 42.3156 19.8049 42.3677 19.8033Z" fill="#EFEBE7" stroke="#002522" stroke-width="0.192108" stroke-linecap="round" stroke-linejoin="round"/>
<path d="M43.4983 14.5511C49.122 15.0627 54.0256 21.7319 54.4499 29.448C54.8181 36.1381 51.6998 41.4178 47.1985 42.3707C46.5073 42.5169 45.7843 42.5618 45.0356 42.4937C39.412 41.982 34.5084 35.3129 34.0831 27.5973C33.7139 20.9076 36.8337 15.6285 41.3345 14.6746C42.0257 14.5284 42.7488 14.4835 43.4974 14.5516L43.4983 14.5511ZM48.1114 26.4583C47.855 24.3537 46.8994 22.9719 45.3737 22.3437L45.2529 20.164L42.3701 19.9021L42.4878 22.0467C42.4722 22.0497 42.4566 22.0527 42.4425 22.0563C40.8473 22.3944 40.0876 23.5956 40.187 25.3886C40.297 27.3927 41.1298 28.6217 43.3899 29.6152L44.5009 30.1179C45.1814 30.442 45.5598 30.6165 45.5909 31.1622C45.6157 31.623 45.4014 31.8849 45.0295 31.964C44.9049 31.9907 44.7612 31.9966 44.6032 31.9815C43.8984 31.918 43.4745 31.3887 43.3437 30.4155L40.2043 30.1299C40.437 32.2674 41.4003 33.7896 43.1698 34.4405L43.305 36.8845L46.1878 37.1464L46.0547 34.721C46.0917 34.7144 46.1282 34.7068 46.1638 34.6997C47.8086 34.351 48.6695 33.1154 48.5618 31.1713C48.4481 29.114 47.5497 28.0713 45.2864 27.0257L44.7633 26.7854C43.7184 26.3237 43.234 26.104 43.1982 25.4531C43.1795 25.1054 43.3474 24.8291 43.6988 24.7555C43.7913 24.7354 43.8961 24.7298 44.0131 24.7412C44.6154 24.7957 44.986 25.2848 45.1515 26.1915L48.1114 26.4607" fill="#2BF2F1"/>
<path d="M43.4983 14.5511L43.5071 14.4554C43.4891 14.4538 43.471 14.4572 43.4549 14.4654L43.4983 14.5511ZM54.4499 29.448L54.354 29.4533L54.354 29.4533L54.4499 29.448ZM47.1985 42.3707L47.2183 42.4647L47.2184 42.4647L47.1985 42.3707ZM45.0356 42.4937L45.0269 42.5894L45.0269 42.5894L45.0356 42.4937ZM34.0831 27.5973L34.179 27.592L34.179 27.5919L34.0831 27.5973ZM41.3345 14.6746L41.3147 14.5805L41.3146 14.5805L41.3345 14.6746ZM43.4974 14.5516L43.4886 14.6473C43.5066 14.6489 43.5247 14.6454 43.5408 14.6372L43.4974 14.5516ZM45.3737 22.3437L45.2779 22.3491C45.2799 22.386 45.303 22.4185 45.3372 22.4326L45.3737 22.3437ZM45.2529 20.164L45.3488 20.1587C45.3462 20.1111 45.3091 20.0727 45.2617 20.0683L45.2529 20.164ZM42.3701 19.9021L42.3789 19.8064C42.3511 19.8039 42.3236 19.8136 42.3035 19.833C42.2834 19.8524 42.2727 19.8796 42.2743 19.9075L42.3701 19.9021ZM42.4878 22.0467L42.5061 22.141C42.5532 22.1318 42.5863 22.0893 42.5837 22.0414L42.4878 22.0467ZM42.4425 22.0563L42.4624 22.1503L42.4656 22.1495L42.4425 22.0563ZM40.187 25.3886L40.2829 25.3833L40.2829 25.3832L40.187 25.3886ZM43.3899 29.6152L43.4295 29.5276L43.4285 29.5272L43.3899 29.6152ZM44.5009 30.1179L44.5422 30.0311L44.5405 30.0303L44.5009 30.1179ZM45.5909 31.1622L45.6868 31.1569L45.6868 31.1566L45.5909 31.1622ZM45.0295 31.964L45.0096 31.87L45.0095 31.8701L45.0295 31.964ZM44.6032 31.9815L44.6123 31.8859L44.6118 31.8858L44.6032 31.9815ZM43.3437 30.4155L43.4388 30.4026C43.4328 30.3582 43.397 30.3238 43.3524 30.3198L43.3437 30.4155ZM40.2043 30.1299L40.2131 30.0342C40.1844 30.0316 40.156 30.042 40.1359 30.0626C40.1157 30.0832 40.1058 30.1117 40.1089 30.1404L40.2043 30.1299ZM43.1698 34.4405L43.2657 34.4352C43.2636 34.3969 43.239 34.3635 43.203 34.3503L43.1698 34.4405ZM43.305 36.8845L43.2091 36.8898C43.2117 36.9374 43.2488 36.9758 43.2962 36.9802L43.305 36.8845ZM46.1878 37.1464L46.179 37.2421C46.2068 37.2446 46.2343 37.2349 46.2544 37.2155C46.2745 37.1961 46.2852 37.1689 46.2836 37.1411L46.1878 37.1464ZM46.0547 34.721L46.0379 34.6263C45.9901 34.6349 45.9562 34.6778 45.9588 34.7263L46.0547 34.721ZM46.1638 34.6997L46.1824 34.794L46.1836 34.7937L46.1638 34.6997ZM48.5618 31.1713L48.466 31.1767L48.466 31.1767L48.5618 31.1713ZM45.2864 27.0257L45.3267 26.9385L45.3265 26.9384L45.2864 27.0257ZM44.7633 26.7854L44.8035 26.698L44.8022 26.6975L44.7633 26.7854ZM43.1982 25.4531L43.1023 25.4583L43.1023 25.4584L43.1982 25.4531ZM43.6988 24.7555L43.7185 24.8496L43.7192 24.8494L43.6988 24.7555ZM44.0131 24.7412L44.0038 24.8368L44.0045 24.8369L44.0131 24.7412ZM45.1515 26.1915L45.0571 26.2088C45.0648 26.2513 45.0999 26.2833 45.1428 26.2872L45.1515 26.1915ZM43.4983 14.5511L43.4896 14.6468C46.2659 14.8994 48.8753 16.6736 50.8465 19.3548C52.817 22.035 54.1429 25.6133 54.354 29.4533L54.4499 29.448L54.5458 29.4426C54.3326 25.5666 52.9946 21.9522 51.0012 19.2409C49.0086 16.5306 46.3544 14.7144 43.5071 14.4554L43.4983 14.5511ZM54.4499 29.448L54.354 29.4533C54.721 36.1207 51.6131 41.3379 47.1787 42.2767L47.1985 42.3707L47.2184 42.4647C51.7865 41.4976 54.9153 36.1555 54.5458 29.4426L54.4499 29.448ZM47.1985 42.3707L47.1787 42.2767C46.497 42.4208 45.7836 42.4652 45.0444 42.398L45.0356 42.4937L45.0269 42.5894C45.785 42.6583 46.5176 42.6129 47.2183 42.4647L47.1985 42.3707ZM45.0356 42.4937L45.0444 42.398C42.2681 42.1454 39.6587 40.3711 37.6873 37.69C35.7167 35.0098 34.3906 31.4317 34.179 27.592L34.0831 27.5973L33.9872 27.6026C34.2009 31.4785 35.5392 35.0927 37.5326 37.804C39.5253 40.5142 42.1795 42.3303 45.0269 42.5894L45.0356 42.4937ZM34.0831 27.5973L34.179 27.5919C33.811 20.9251 36.9204 15.7083 41.3543 14.7686L41.3345 14.6746L41.3146 14.5805C36.747 15.5486 33.6168 20.8902 33.9872 27.6027L34.0831 27.5973ZM41.3345 14.6746L41.3543 14.7686C42.036 14.6244 42.7495 14.5801 43.4886 14.6473L43.4974 14.5516L43.5061 14.4559C42.7481 14.3869 42.0154 14.4324 41.3147 14.5805L41.3345 14.6746ZM43.4974 14.5516L43.5408 14.6372L43.5418 14.6368L43.4983 14.5511L43.4549 14.4654L43.4539 14.4659L43.4974 14.5516ZM48.1114 26.4583L48.2067 26.4466C47.9473 24.3166 46.9757 22.8994 45.4103 22.2548L45.3737 22.3437L45.3372 22.4326C46.8231 23.0444 47.7628 24.3907 48.0161 26.47L48.1114 26.4583ZM45.3737 22.3437L45.4696 22.3383L45.3488 20.1587L45.2529 20.164L45.1571 20.1694L45.2779 22.3491L45.3737 22.3437ZM45.2529 20.164L45.2617 20.0683L42.3789 19.8064L42.3701 19.9021L42.3614 19.9978L45.2442 20.2597L45.2529 20.164ZM42.3701 19.9021L42.2743 19.9075L42.3919 22.052L42.4878 22.0467L42.5837 22.0414L42.466 19.8968L42.3701 19.9021ZM42.4878 22.0467L42.4695 21.9524C42.4545 21.9553 42.4364 21.9588 42.4194 21.963L42.4425 22.0563L42.4656 22.1495C42.4769 22.1467 42.4899 22.1442 42.5061 22.141L42.4878 22.0467ZM42.4425 22.0563L42.4227 21.9623C41.6043 22.1357 40.9922 22.533 40.5994 23.1237C40.2077 23.7126 40.0407 24.4836 40.0911 25.394L40.187 25.3886L40.2829 25.3832C40.2339 24.5007 40.3971 23.7745 40.7592 23.2301C41.1202 22.6873 41.6856 22.3149 42.4624 22.1503L42.4425 22.0563ZM40.187 25.3886L40.0911 25.3939C40.1468 26.4086 40.3862 27.2368 40.905 27.9381C41.423 28.6383 42.2125 29.2026 43.3512 29.7031L43.3899 29.6152L43.4285 29.5272C42.3072 29.0343 41.5503 28.4873 41.0593 27.8237C40.5692 27.1611 40.3372 26.3728 40.2829 25.3833L40.187 25.3886ZM43.3899 29.6152L43.3503 29.7027L44.4613 30.2054L44.5009 30.1179L44.5405 30.0303L43.4295 29.5276L43.3899 29.6152ZM44.5009 30.1179L44.4596 30.2046C44.8044 30.3689 45.0559 30.488 45.2281 30.6309C45.392 30.767 45.4811 30.9226 45.4951 31.1677L45.5909 31.1622L45.6868 31.1566C45.6696 30.8561 45.554 30.6517 45.3507 30.483C45.1558 30.3212 44.8779 30.191 44.5422 30.0311L44.5009 30.1179ZM45.5909 31.1622L45.4951 31.1674C45.5066 31.3823 45.462 31.5392 45.3815 31.6496C45.3014 31.7594 45.1778 31.8343 45.0096 31.87L45.0295 31.964L45.0495 32.058C45.2532 32.0147 45.4227 31.919 45.5366 31.7628C45.65 31.6073 45.7001 31.4029 45.6868 31.1569L45.5909 31.1622ZM45.0295 31.964L45.0095 31.8701C44.8965 31.8943 44.7629 31.9002 44.6123 31.8859L44.6032 31.9815L44.594 32.0772C44.7595 32.0929 44.9133 32.0872 45.0496 32.058L45.0295 31.964ZM44.6032 31.9815L44.6118 31.8858C44.2841 31.8563 44.0263 31.72 43.833 31.4794C43.6375 31.236 43.5029 30.8793 43.4388 30.4026L43.3437 30.4155L43.2485 30.4283C43.3152 30.9248 43.4581 31.3195 43.6834 31.5999C43.911 31.8832 44.2175 32.0433 44.5945 32.0772L44.6032 31.9815ZM43.3437 30.4155L43.3524 30.3198L40.2131 30.0342L40.2043 30.1299L40.1956 30.2256L43.3349 30.5112L43.3437 30.4155ZM40.2043 30.1299L40.1089 30.1404C40.3443 32.3029 41.3236 33.8638 43.1367 34.5307L43.1698 34.4405L43.203 34.3503C41.4771 33.7154 40.5297 32.2318 40.2998 30.1195L40.2043 30.1299ZM43.1698 34.4405L43.074 34.4459L43.2091 36.8898L43.305 36.8845L43.4008 36.8791L43.2657 34.4352L43.1698 34.4405ZM43.305 36.8845L43.2962 36.9802L46.179 37.2421L46.1878 37.1464L46.1965 37.0507L43.3137 36.7888L43.305 36.8845ZM46.1878 37.1464L46.2836 37.1411L46.1506 34.7156L46.0547 34.721L45.9588 34.7263L46.0919 37.1517L46.1878 37.1464ZM46.0547 34.721L46.0715 34.8156C46.1097 34.8087 46.1479 34.8008 46.1824 34.794L46.1638 34.6997L46.1451 34.6055C46.1086 34.6127 46.0737 34.62 46.0379 34.6263L46.0547 34.721ZM46.1638 34.6997L46.1836 34.7937C47.0262 34.6151 47.6757 34.2071 48.0992 33.588C48.5218 32.9703 48.7123 32.1527 48.6577 31.1659L48.5618 31.1713L48.466 31.1767C48.519 32.1341 48.3329 32.9062 47.9408 33.4795C47.5495 34.0515 46.9461 34.4356 46.1439 34.6057L46.1638 34.6997ZM48.5618 31.1713L48.6577 31.1659C48.6001 30.1232 48.3426 29.3272 47.805 28.6589C47.2695 27.9933 46.4633 27.4636 45.3267 26.9385L45.2864 27.0257L45.2461 27.113C46.3727 27.6335 47.1474 28.148 47.6554 28.7794C48.1612 29.4082 48.4099 30.1621 48.466 31.1767L48.5618 31.1713ZM45.2864 27.0257L45.3265 26.9384L44.8035 26.698L44.7633 26.7854L44.7232 26.8727L45.2463 27.1131L45.2864 27.0257ZM44.7633 26.7854L44.8022 26.6975C44.2754 26.4647 43.9055 26.2992 43.6603 26.1136C43.5398 26.0223 43.4534 25.9289 43.3947 25.824C43.3362 25.7194 43.3024 25.5984 43.2941 25.4477L43.1982 25.4531L43.1023 25.4584C43.1119 25.6332 43.1521 25.7838 43.2271 25.9179C43.3019 26.0517 43.4087 26.1641 43.5443 26.2668C43.8116 26.4692 44.2063 26.6443 44.7245 26.8733L44.7633 26.7854ZM43.1982 25.4531L43.2941 25.4478C43.2856 25.2904 43.3197 25.1566 43.3888 25.0559C43.4571 24.9564 43.5646 24.8818 43.7185 24.8496L43.6988 24.7555L43.6792 24.6615C43.4816 24.7029 43.3294 24.8031 43.2306 24.9471C43.1326 25.0899 43.0921 25.2681 43.1023 25.4583L43.1982 25.4531ZM43.6988 24.7555L43.7192 24.8494C43.8006 24.8317 43.8952 24.8263 44.0038 24.8368L44.0131 24.7412L44.0225 24.6456C43.897 24.6333 43.7821 24.6391 43.6785 24.6616L43.6988 24.7555ZM44.0131 24.7412L44.0045 24.8369C44.2782 24.8617 44.4975 24.9837 44.6704 25.2058C44.8458 25.4313 44.9758 25.7633 45.0571 26.2088L45.1515 26.1915L45.246 26.1742C45.1618 25.713 45.0238 25.3472 44.8219 25.0877C44.6175 24.825 44.3504 24.6752 44.0218 24.6455L44.0131 24.7412ZM45.1515 26.1915L45.1428 26.2872L48.1026 26.5564L48.1114 26.4607L48.1201 26.365L45.1603 26.0958L45.1515 26.1915Z" fill="#002522"/>
<path d="M47.1998 42.3705L45.3139 42.7697C44.6226 42.9158 43.8995 42.9607 43.1509 42.8926C37.527 42.381 32.6232 35.7116 32.1978 27.9957C31.8286 21.3058 34.9486 16.0265 39.4495 15.0725L41.3354 14.6734C36.8344 15.6274 33.715 20.9077 34.0837 27.5966C34.509 35.3125 39.4128 41.9818 45.0368 42.4935C45.7854 42.5616 46.5085 42.5167 47.1998 42.3705Z" fill="#0CBAB5" stroke="#002522" stroke-width="0.192108" stroke-miterlimit="10" stroke-linejoin="round"/>
</g>
<path d="M54.0064 56.2024C54.0234 56.1521 53.9964 56.0976 53.9462 56.0806C53.896 56.0636 53.8415 56.0906 53.8245 56.1409L53.9155 56.1716L54.0064 56.2024ZM41.808 79.9462C41.7781 79.9901 41.7895 80.0499 41.8334 80.0797C41.8772 80.1095 41.9369 80.0981 41.9668 80.0542L41.8874 80.0002L41.808 79.9462ZM53.9155 56.1716L53.8245 56.1409C51.3699 63.4098 47.0429 72.2436 41.808 79.9462L41.8874 80.0002L41.9668 80.0542C47.211 72.3378 51.546 63.4884 54.0064 56.2024L53.9155 56.1716Z" fill="#002522"/>
<path d="M21.4425 54.019C21.4785 53.9801 21.4762 53.9193 21.4373 53.8832C21.3984 53.8472 21.3377 53.8495 21.3016 53.8884L21.372 53.9537L21.4425 54.019ZM0.726658 71.1515C0.682504 71.1809 0.670546 71.2405 0.69995 71.2846C0.729353 71.3288 0.788984 71.3407 0.833139 71.3113L0.779898 71.2314L0.726658 71.1515ZM21.372 53.9537L21.3016 53.8884C16.0136 59.5913 8.64247 65.8793 0.726658 71.1515L0.779898 71.2314L0.833139 71.3113C8.76041 66.0316 16.1433 59.7339 21.4425 54.019L21.372 53.9537Z" fill="#002522"/>
<path d="M37.8091 47.7065C37.8356 47.6605 37.8199 47.6018 37.7739 47.5753C37.728 47.5488 37.6693 47.5646 37.6428 47.6106L37.726 47.6585L37.8091 47.7065ZM27.777 60.2184C27.7386 60.2549 27.737 60.3158 27.7735 60.3542C27.8101 60.3927 27.8708 60.3942 27.9093 60.3576L27.8432 60.288L27.777 60.2184ZM37.726 47.6585L37.6428 47.6106C35.4509 51.4145 31.6257 56.5578 27.777 60.2184L27.8432 60.288L27.9093 60.3576C31.7731 56.6826 35.6093 51.5243 37.8091 47.7065L37.726 47.6585Z" fill="#002522"/>
</g>
<defs>
<clipPath id="clip0_664_11601">
<rect width="79" height="80" fill="white"/>
</clipPath>
</defs>
</svg>
