<svg width="126" height="80" viewBox="0 0 126 80" fill="none" xmlns="http://www.w3.org/2000/svg">
<g clip-path="url(#clip0_664_11613)">
<path opacity="0.15" d="M90.6612 43.2269L41.7166 14.8014C40.453 14.0675 38.4123 14.0675 37.1566 14.8014L5.6793 33.0928C5.56177 33.1609 5.45778 33.2412 5.36518 33.3287L2.6877 34.8847C1.59221 35.5212 1.59007 37.1109 2.68343 37.7503L52.7314 67.0172C53.2414 67.3154 53.8703 67.3161 54.381 67.0194L87.6803 47.6736L87.6832 47.6758C87.842 47.5826 87.9809 47.4823 88.0992 47.3762L90.6712 45.8818L90.6741 45.8839C91.9291 45.15 91.9227 43.9602 90.6598 43.2269H90.6612Z" fill="black"/>
<path d="M86.333 42.8277L38.548 15.0752C37.3364 14.3714 35.3954 14.3606 34.1653 15.0387L34.0998 15.0766L86.3444 45.4194L86.3993 45.3879C87.5703 44.669 87.5482 43.5322 86.3337 42.827L86.333 42.8277Z" fill="#C72200" stroke="black" stroke-width="0.0358189" stroke-miterlimit="10"/>
<path d="M86.3386 44.5908L38.5536 16.8391C37.3199 16.1223 35.3276 16.1223 34.1018 16.8391L0.968439 36.0916H0.967015C0.811737 36.1805 0.670704 36.1891 0.568848 36.1296L52.6347 66.5763C52.7366 66.6358 52.8769 66.628 53.0314 66.5384H53.0336L86.35 47.1833L86.3528 47.1847C87.5787 46.468 87.5723 45.3069 86.3393 44.5908H86.3386Z" fill="#21504F" stroke="black" stroke-width="0.0358189" stroke-miterlimit="10"/>
<path d="M52.2421 66.0975L86.1582 46.3941L86.1554 45.4465L52.2421 65.1492V66.0975Z" fill="#CCCCCC" stroke="black" stroke-width="0.0358189" stroke-miterlimit="10"/>
<path d="M86.3326 42.8279L38.5476 15.0754C37.3139 14.3587 35.3217 14.3587 34.0958 15.0754L0.961792 34.3294L53.0269 64.7761L86.3433 45.4204L86.3462 45.4218C87.572 44.705 87.5656 43.5439 86.3326 42.8279Z" fill="#21504F" stroke="black" stroke-width="0.0358189" stroke-miterlimit="10"/>
<path d="M86.3519 47.1833L53.0327 66.5377C52.7243 66.7168 52.4721 66.5721 52.4714 66.2158C52.4707 65.8582 52.7207 65.4217 53.0291 65.2425L86.3462 45.8881C86.9552 45.5319 87.2601 45.066 87.2615 44.5994L87.2629 44.1335C87.2615 44.6001 86.9566 45.066 86.3476 45.4223L53.0284 64.7766C52.497 65.0855 52.0668 65.8352 52.0682 66.4509C52.0697 67.0659 52.5034 67.3139 53.0348 67.005L86.3519 47.6506C86.9609 47.2944 87.2658 46.8285 87.2672 46.3619L87.2686 45.896C87.2672 46.3619 86.9623 46.8278 86.3533 47.184L86.3519 47.1833Z" fill="#35605F" stroke="black" stroke-width="0.0358189" stroke-miterlimit="10"/>
<path d="M52.3486 67.0716L0.283431 36.6248C0.110346 36.5238 0.00279101 36.3088 0.00207872 36.0034C0.000654154 35.3877 0.430874 34.638 0.962238 34.3291L53.0274 64.7758C52.496 65.0847 52.0658 65.8345 52.0672 66.4501C52.0679 66.7555 52.1755 66.9705 52.3486 67.0716Z" fill="#35605F" stroke="black" stroke-width="0.0358189" stroke-miterlimit="10"/>
<path d="M57.9761 46.2315C55.3414 47.7725 51.8704 48.7437 48.1665 48.9823L47.7897 49.0046L47.2555 49.0311C42.7325 49.1701 38.3256 48.2298 35.0277 46.4149L34.7037 46.2315L34.3838 46.0458C31.2633 44.1271 29.6365 41.5611 29.8694 38.9242L29.9043 38.6139L29.9356 38.3945C30.3381 36.235 31.9927 34.2087 34.6274 32.6677C37.2615 31.1274 40.7331 30.1555 44.4363 29.9176L44.8131 29.8953L45.348 29.8681C49.8703 29.7298 54.2772 30.6694 57.5751 32.4842L57.8992 32.6677L58.219 32.8534C61.3395 34.7721 62.9664 37.3381 62.7342 39.9743L62.6986 40.2853L62.6672 40.5046C62.2655 42.6642 60.6102 44.6905 57.9754 46.2315H57.9761ZM57.5801 33.2268L52.9374 35.9418C55.5394 37.5208 56.9982 39.2575 57.8045 40.5892C57.8401 40.5821 57.8757 40.5742 57.9106 40.5663C57.9619 40.5555 58.0125 40.5441 58.0637 40.5333C58.1236 40.5211 58.1834 40.5089 58.2432 40.4968C58.2945 40.4867 58.3451 40.476 58.3957 40.4659C58.4562 40.4538 58.5168 40.4423 58.578 40.4308C58.6293 40.4215 58.6799 40.4115 58.7311 40.4014C58.7924 40.3907 58.8544 40.3799 58.9163 40.3692C58.9676 40.3599 59.0175 40.3513 59.0688 40.3427C59.1315 40.3326 59.1934 40.3219 59.2568 40.3118C59.3074 40.304 59.3572 40.2954 59.4085 40.2875C59.4719 40.2774 59.536 40.2681 59.6001 40.2588C59.6507 40.2516 59.7006 40.2437 59.7504 40.2366C59.816 40.2273 59.8822 40.2187 59.9477 40.2093C59.9962 40.2029 60.0453 40.1957 60.0938 40.1893C60.1628 40.18 60.2319 40.1721 60.301 40.1642C60.3473 40.1585 60.3936 40.1527 60.4399 40.1477C60.5161 40.1384 60.5916 40.1305 60.6679 40.1219C60.7077 40.1176 60.7476 40.1126 60.7875 40.109C60.8872 40.099 60.9877 40.0889 61.0881 40.0796C61.1045 40.0782 61.1209 40.0767 61.1365 40.0753C61.2533 40.0646 61.3695 40.0552 61.487 40.0459C61.524 40.0431 61.5625 40.0409 61.5995 40.038C61.6764 40.033 61.7519 40.0266 61.8289 40.0223C62.0874 37.5065 60.5539 35.0552 57.5808 33.2261L57.5801 33.2268ZM52.2985 35.5698L56.9412 32.8548C53.7936 31.1281 49.5826 30.2422 45.2675 30.4014C45.2597 30.4465 45.2497 30.491 45.2405 30.5354C45.2362 30.5569 45.2319 30.5784 45.2269 30.5999C45.212 30.6687 45.1956 30.7361 45.1778 30.8042C45.1764 30.8128 45.1735 30.8207 45.1714 30.8285C45.1557 30.8888 45.1393 30.9482 45.1222 31.0077C45.1151 31.0307 45.1073 31.0536 45.1002 31.0765C45.0859 31.121 45.0724 31.1661 45.0574 31.2106C45.0489 31.2378 45.0389 31.2643 45.0296 31.2908C45.0154 31.331 45.0012 31.3718 44.9862 31.412C44.9755 31.4406 44.9641 31.4686 44.9527 31.4966C44.9378 31.5353 44.9235 31.574 44.9071 31.6127C44.895 31.6421 44.8822 31.6707 44.8701 31.6994C44.8544 31.7367 44.838 31.7747 44.8217 31.8119C44.8088 31.8413 44.7939 31.8714 44.7803 31.9008C44.7632 31.9374 44.7454 31.9739 44.7283 32.0105C44.7134 32.0399 44.6984 32.07 44.6828 32.0993C44.665 32.1352 44.6464 32.1717 44.6272 32.2076C44.6115 32.237 44.5952 32.2671 44.5788 32.2957C44.5588 32.3316 44.5396 32.3667 44.5189 32.4025C44.5018 32.4319 44.484 32.462 44.4669 32.4914C44.4463 32.5265 44.4256 32.5609 44.4043 32.596C44.3865 32.6262 44.3672 32.6555 44.3487 32.6856C44.3359 32.7057 44.3223 32.7272 44.3102 32.748C46.5981 33.2132 49.5826 34.0582 52.2999 35.5691L52.2985 35.5698ZM35.0242 45.6717L39.6669 42.9566C37.0649 41.3776 35.6054 39.641 34.7998 38.3092C34.7642 38.3164 34.7286 38.3243 34.693 38.3322C34.6417 38.3429 34.5911 38.3544 34.5398 38.3652C34.48 38.3781 34.4209 38.3895 34.3603 38.4024C34.309 38.4125 34.2592 38.4225 34.2079 38.4332C34.1474 38.4454 34.0868 38.4569 34.0248 38.4684C33.9743 38.4777 33.9237 38.487 33.8731 38.497C33.8112 38.5085 33.7492 38.5193 33.6872 38.53C33.6359 38.5393 33.5861 38.5479 33.5348 38.5565C33.4721 38.5666 33.4101 38.5773 33.3468 38.5873C33.2962 38.5952 33.2463 38.6038 33.195 38.6117C33.1316 38.6217 33.0675 38.6311 33.0027 38.6404C32.9536 38.6475 32.9037 38.6554 32.8539 38.6626C32.7883 38.6719 32.7214 38.6812 32.6551 38.6898C32.6067 38.6963 32.559 38.7035 32.5105 38.7099C32.4414 38.7192 32.3716 38.7271 32.3025 38.7357C32.257 38.7407 32.2107 38.7472 32.1644 38.7522C32.0881 38.7615 32.0112 38.7694 31.935 38.7773C31.8958 38.7816 31.8559 38.7859 31.8168 38.7902C31.7156 38.8002 31.6131 38.8103 31.5098 38.8196C31.4962 38.821 31.482 38.8224 31.467 38.8239C31.3502 38.8346 31.2341 38.8439 31.1166 38.8533C31.0796 38.8561 31.0425 38.8583 31.0055 38.8611C30.9285 38.8662 30.8516 38.8726 30.7754 38.8769C30.5168 41.3927 32.0511 43.844 35.0235 45.6731L35.0242 45.6717ZM35.6638 46.043C38.8114 47.7696 43.0224 48.6555 47.3374 48.4964C47.3453 48.4512 47.3553 48.4075 47.3645 48.3624C47.3695 48.3408 47.3731 48.3186 47.378 48.2971C47.393 48.2283 47.4094 48.1609 47.4272 48.0929C47.4293 48.0835 47.4322 48.0742 47.435 48.0642C47.45 48.0054 47.4664 47.9474 47.4835 47.8893C47.4899 47.8656 47.4984 47.8427 47.5055 47.8191C47.5198 47.7746 47.5333 47.7309 47.5483 47.6865C47.5568 47.6592 47.5668 47.6327 47.5768 47.6055C47.591 47.5653 47.6046 47.5252 47.6195 47.4843C47.6302 47.4557 47.6423 47.4277 47.653 47.399C47.6679 47.3611 47.6829 47.3216 47.6986 47.2836C47.7107 47.2543 47.7235 47.2256 47.7356 47.1962C47.752 47.1589 47.7677 47.1217 47.784 47.0844C47.7969 47.055 47.8118 47.0249 47.8254 46.9962C47.8425 46.9597 47.8603 46.9231 47.8774 46.8866C47.8923 46.8565 47.9073 46.8271 47.9229 46.7977C47.9408 46.7619 47.9593 46.7253 47.9778 46.6902C47.9942 46.6608 48.0106 46.6307 48.0269 46.6006C48.0462 46.5655 48.0654 46.5296 48.0861 46.4945C48.1032 46.4651 48.121 46.435 48.1381 46.4056C48.1587 46.3705 48.1794 46.3361 48.2007 46.301C48.2193 46.2716 48.2385 46.2415 48.257 46.2114C48.2698 46.1913 48.2834 46.1698 48.2955 46.149C46.0069 45.6831 43.0231 44.8388 40.3058 43.3272L35.6638 46.0422V46.043ZM46.3004 39.0776L51.6646 35.9411C49.0448 34.4868 46.1657 33.6783 43.9683 33.234C43.9626 33.2411 43.9569 33.249 43.9512 33.2562C43.9263 33.2891 43.9007 33.3228 43.8743 33.3558C43.8515 33.3845 43.828 33.4139 43.8052 33.4425C43.7782 33.4755 43.7511 33.5085 43.724 33.5414C43.6998 33.5701 43.6756 33.5988 43.6514 33.6274C43.6236 33.6597 43.5951 33.6927 43.5673 33.7249C43.5431 33.7536 43.5175 33.7815 43.4918 33.8095C43.4626 33.8418 43.4334 33.874 43.4035 33.9063C43.3779 33.9349 43.3515 33.9629 43.3251 33.9908C43.2952 34.0231 43.2646 34.0539 43.234 34.0862C43.2069 34.1141 43.1806 34.1414 43.1528 34.1693C43.1221 34.2008 43.0901 34.2324 43.058 34.2632C43.0295 34.2904 43.0025 34.3177 42.9733 34.3456C42.9405 34.3764 42.907 34.408 42.875 34.4388C42.8458 34.466 42.8166 34.4933 42.7874 34.5198C42.7539 34.5506 42.7197 34.5814 42.6848 34.6123C42.6549 34.6388 42.6257 34.666 42.5951 34.6918C42.5602 34.7219 42.5245 34.7527 42.4889 34.7828C42.4576 34.8094 42.4277 34.8359 42.3956 34.8617C42.36 34.8918 42.3223 34.9219 42.2859 34.952C42.2539 34.9771 42.2225 35.0029 42.1912 35.0287C42.1527 35.0581 42.1143 35.0882 42.0758 35.1183C42.0437 35.1434 42.0117 35.1685 41.9796 35.1935C41.9405 35.2229 41.8999 35.253 41.86 35.2831C41.8265 35.3075 41.7952 35.3312 41.7617 35.3555C41.7204 35.3856 41.6783 35.4157 41.637 35.4451C41.6036 35.4688 41.5722 35.4917 41.538 35.5154C41.4946 35.5455 41.4504 35.5756 41.4055 35.6057C41.3728 35.6279 41.3407 35.6501 41.308 35.6723C41.2609 35.7039 41.2132 35.7347 41.1655 35.7655C41.1342 35.7856 41.1035 35.8064 41.0715 35.8264C41.0181 35.8601 40.9646 35.8938 40.9112 35.9268L46.3004 39.0783V39.0776ZM52.3035 36.3124L46.9393 39.4489L52.3455 42.5897C52.421 42.5481 52.4773 42.5166 52.5357 42.4857C52.5699 42.4671 52.6055 42.4492 52.6411 42.4305C52.6938 42.4033 52.7465 42.3754 52.8 42.3474C52.8377 42.3281 52.8762 42.3087 52.9132 42.2901C52.9652 42.2643 53.0165 42.2385 53.0685 42.2127C53.1077 42.1926 53.1483 42.174 53.1882 42.1546C53.2387 42.1302 53.2907 42.1059 53.3413 42.0808C53.3826 42.0614 53.4246 42.0428 53.4652 42.0234C53.5165 41.9998 53.5678 41.9761 53.6184 41.9532C53.6611 41.9338 53.7031 41.9152 53.7473 41.8966C53.7979 41.8744 53.8492 41.8514 53.9004 41.8292C53.9439 41.8106 53.988 41.7919 54.0315 41.774C54.0835 41.7525 54.1348 41.7303 54.1868 41.7095C54.2309 41.6909 54.2758 41.6737 54.3207 41.6557C54.3727 41.635 54.4247 41.6135 54.4767 41.5934C54.5215 41.5755 54.5678 41.5583 54.6134 41.5411C54.6654 41.521 54.7181 41.5009 54.7716 41.4809C54.8171 41.4637 54.8634 41.4465 54.9097 41.4293C54.9632 41.4106 55.0159 41.3905 55.0693 41.3712C55.1163 41.3547 55.1633 41.3382 55.2096 41.3217C55.2637 41.3031 55.3179 41.2837 55.372 41.2658C55.419 41.2501 55.4667 41.2343 55.5138 41.2185C55.5679 41.1999 55.6227 41.1827 55.6769 41.1648C55.7253 41.1497 55.773 41.1339 55.8215 41.1189C55.8763 41.1017 55.9312 41.0838 55.9867 41.0673C56.0352 41.0522 56.0836 41.0379 56.132 41.0236C56.1883 41.0071 56.2439 40.9906 56.2994 40.9741C56.3486 40.9598 56.397 40.9454 56.4469 40.9318C56.5038 40.9161 56.5594 40.9003 56.6164 40.8845C56.6655 40.8709 56.7154 40.8573 56.7645 40.8444C56.8215 40.8293 56.8785 40.8143 56.9355 40.7992C56.9483 40.7956 56.9604 40.7928 56.9732 40.7892C56.204 39.5098 54.8079 37.834 52.3035 36.3124ZM40.3015 42.5861L45.6657 39.4496L40.2595 36.3088C40.184 36.3504 40.127 36.3819 40.0693 36.4127C40.0351 36.4314 39.9995 36.4493 39.9646 36.4679C39.9112 36.4959 39.8585 36.5238 39.805 36.5511C39.7673 36.5704 39.7295 36.5891 39.6911 36.6084C39.6398 36.6342 39.5885 36.66 39.5365 36.6858C39.4973 36.7059 39.4574 36.7245 39.4168 36.7439C39.3663 36.7682 39.3143 36.7933 39.263 36.817C39.2217 36.8363 39.1811 36.855 39.1398 36.8743C39.0885 36.898 39.0379 36.9209 38.9866 36.9446C38.9439 36.9632 38.9011 36.9825 38.8577 37.0012C38.8071 37.0234 38.7551 37.0463 38.7046 37.0686C38.6604 37.0872 38.6162 37.1051 38.5728 37.1237C38.5215 37.1452 38.4702 37.1668 38.4175 37.1883C38.3733 37.2069 38.3285 37.2241 38.2829 37.2427C38.2316 37.2635 38.1796 37.2843 38.1276 37.3051C38.0827 37.323 38.0364 37.3402 37.9909 37.3574C37.9389 37.3782 37.8861 37.3975 37.8327 37.4176C37.7871 37.4348 37.7408 37.452 37.6945 37.4692C37.6411 37.4879 37.5884 37.5079 37.535 37.5273C37.488 37.5438 37.441 37.5602 37.3947 37.5767C37.3405 37.5954 37.2871 37.614 37.233 37.6319C37.1853 37.6484 37.1382 37.6642 37.0905 37.6799C37.0357 37.6979 36.9815 37.7158 36.9267 37.7337C36.879 37.7495 36.8312 37.7645 36.7821 37.7796C36.7273 37.7968 36.6724 37.814 36.6176 37.8312C36.5691 37.8462 36.52 37.8613 36.4715 37.8756C36.416 37.8921 36.3597 37.9086 36.3042 37.9251C36.255 37.9394 36.2066 37.9537 36.1567 37.9674C36.0997 37.9831 36.0442 37.9989 35.9879 38.0147C35.938 38.0283 35.8882 38.0419 35.839 38.0555C35.7821 38.0706 35.7251 38.0856 35.6681 38.1007C35.6553 38.1043 35.6432 38.1071 35.6303 38.1107C36.3989 39.3901 37.7957 41.0659 40.2994 42.5882L40.3015 42.5861ZM46.3046 39.8209L40.9404 42.9574C43.5602 44.4116 46.4393 45.2201 48.6367 45.6645C48.6423 45.6573 48.648 45.6495 48.6537 45.6423C48.6787 45.6086 48.7043 45.5756 48.7307 45.5427C48.7535 45.514 48.777 45.4846 48.8005 45.4559C48.8268 45.423 48.8539 45.3907 48.881 45.357C48.9052 45.3284 48.9294 45.2997 48.9536 45.271C48.9814 45.2388 49.0099 45.2058 49.0377 45.1735C49.0619 45.1449 49.0875 45.1169 49.1132 45.089C49.1424 45.0567 49.1716 45.0245 49.2015 44.9922C49.2271 44.9635 49.2535 44.9356 49.2798 44.9076C49.3098 44.8761 49.3404 44.8438 49.3717 44.8123C49.3988 44.7843 49.4252 44.7571 49.4529 44.7292C49.4843 44.6976 49.5163 44.6661 49.5484 44.6345C49.5762 44.6073 49.6039 44.5801 49.6324 44.5528C49.6652 44.522 49.6987 44.4905 49.7307 44.4597C49.7599 44.4324 49.7891 44.4052 49.8183 44.3787C49.8518 44.3478 49.886 44.317 49.9209 44.2862C49.9508 44.2597 49.98 44.2325 50.0107 44.2066C50.0463 44.1758 50.0812 44.1457 50.1175 44.1156C50.1481 44.0898 50.1787 44.0633 50.2101 44.0375C50.2457 44.0074 50.2835 43.9773 50.3205 43.9465C50.3511 43.9207 50.3825 43.8956 50.4145 43.8698C50.4523 43.8397 50.4914 43.8103 50.5299 43.7802C50.562 43.7544 50.594 43.73 50.6261 43.7049C50.6652 43.6755 50.7058 43.6454 50.7457 43.6153C50.7792 43.591 50.8105 43.5666 50.8433 43.5429C50.8853 43.5136 50.9274 43.4834 50.9687 43.4533C51.0021 43.4297 51.0335 43.4068 51.0677 43.3838C51.1118 43.3537 51.1553 43.3236 51.1995 43.2935C51.2329 43.2713 51.2643 43.2498 51.2977 43.2276C51.3448 43.196 51.3925 43.1652 51.4402 43.1344C51.4715 43.1143 51.5022 43.0935 51.5342 43.0735C51.5869 43.0391 51.6411 43.0061 51.6945 42.9731L46.3053 39.8216L46.3046 39.8209ZM60.868 40.6351C60.8089 40.6415 60.7491 40.648 60.6899 40.6552C60.6408 40.6602 60.5909 40.6659 60.5425 40.6716C60.4827 40.6788 60.4235 40.6867 60.3651 40.6939C60.316 40.6996 60.2675 40.7061 60.2184 40.7125C60.1586 40.7204 60.0994 40.7283 60.0403 40.7369C59.9919 40.7433 59.9442 40.7505 59.8972 40.7569C59.8373 40.7663 59.7775 40.7749 59.7177 40.7842C59.6699 40.7913 59.6229 40.7985 59.5759 40.8057C59.5161 40.8157 59.4555 40.825 59.3957 40.8351C59.3501 40.8422 59.3038 40.8501 59.2582 40.858C59.197 40.868 59.135 40.8795 59.0738 40.891C59.0296 40.8989 58.9869 40.906 58.9427 40.9146C58.8786 40.9261 58.8145 40.939 58.7511 40.9512C58.7112 40.9591 58.6699 40.9662 58.6293 40.9748C58.5595 40.9892 58.4904 41.0035 58.4206 41.0178C58.3871 41.025 58.3522 41.0315 58.3187 41.0386C58.2418 41.0551 58.1656 41.0723 58.0894 41.0888C58.2482 41.3884 58.3714 41.6593 58.4662 41.8923C58.9064 42.9774 59.0424 43.9959 58.8914 44.7972C60.4421 43.5544 61.4314 42.093 61.747 40.557C61.7227 40.5591 61.6992 40.5598 61.6757 40.562C61.6252 40.5656 61.576 40.5692 61.5254 40.5735C61.4656 40.5785 61.4058 40.5835 61.3459 40.5885C61.2961 40.5928 61.2455 40.5978 61.1957 40.6021C61.1358 40.6079 61.0767 40.6136 61.0169 40.6193C60.967 40.6243 60.9172 40.6294 60.868 40.6344V40.6351ZM44.3508 30.4508C41.7161 30.6393 39.2131 31.2213 37.0855 32.1294C38.4602 32.0391 40.2082 32.1144 42.0708 32.3681C42.4711 32.4226 42.9362 32.4936 43.4505 32.5853C43.4797 32.5409 43.5082 32.4957 43.5367 32.4513C43.5488 32.4312 43.5609 32.4104 43.5737 32.3903C43.5979 32.3502 43.6222 32.3108 43.645 32.2699C43.6592 32.2456 43.672 32.2212 43.6856 32.1968C43.7062 32.1603 43.7269 32.1237 43.7475 32.0872C43.7611 32.0614 43.7739 32.0348 43.7874 32.0083C43.8059 31.9732 43.8252 31.9381 43.8416 31.903C43.8558 31.8757 43.8679 31.8485 43.8814 31.8212C43.8978 31.7868 43.9149 31.7524 43.9306 31.7173C43.9427 31.6901 43.9555 31.6621 43.9676 31.6342C43.9826 31.5998 43.9983 31.5654 44.0132 31.5302C44.026 31.5023 44.0367 31.4736 44.0481 31.4457C44.0616 31.4113 44.0752 31.3776 44.088 31.3432C44.0994 31.3145 44.1101 31.2851 44.1201 31.2564C44.1322 31.222 44.145 31.1884 44.1564 31.154C44.1664 31.1253 44.1763 31.0959 44.1856 31.0672C44.197 31.0328 44.2077 30.9984 44.2184 30.9633C44.2276 30.9346 44.2362 30.9052 44.244 30.8766C44.254 30.8422 44.2639 30.8078 44.2725 30.7726C44.2803 30.7433 44.2882 30.7139 44.2953 30.6845C44.3045 30.6501 44.3124 30.615 44.3202 30.5798C44.3266 30.5504 44.333 30.5211 44.3394 30.4924C44.343 30.4788 44.3451 30.4652 44.348 30.4508H44.3508ZM48.2549 48.4469C50.8889 48.2584 53.3919 47.6764 55.5195 46.769C54.1447 46.8593 52.3968 46.7841 50.5342 46.5303C50.1346 46.4759 49.6688 46.4049 49.1545 46.3132C49.1253 46.3576 49.0968 46.4021 49.0683 46.4472C49.0562 46.4673 49.0448 46.4873 49.0334 46.5067C49.0085 46.5475 48.9842 46.5877 48.96 46.6285C48.9458 46.6522 48.9337 46.6766 48.9194 46.6995C48.8988 46.7368 48.8767 46.774 48.8575 46.8113C48.8439 46.8364 48.8304 46.8622 48.8176 46.888C48.7991 46.9238 48.7798 46.9597 48.762 46.9955C48.7485 47.022 48.7357 47.0493 48.7228 47.0751C48.7057 47.1102 48.6894 47.1453 48.673 47.1804C48.6609 47.2077 48.648 47.2349 48.6359 47.2621C48.621 47.2973 48.6053 47.3324 48.5904 47.3668C48.5782 47.3947 48.5668 47.4227 48.5562 47.4507C48.5419 47.4851 48.5284 47.5195 48.5149 47.5546C48.5042 47.5832 48.4935 47.6112 48.4835 47.6399C48.4707 47.6743 48.4579 47.7087 48.4458 47.7438C48.4358 47.7725 48.4265 47.8011 48.4173 47.8298C48.4052 47.8642 48.3945 47.8993 48.3838 47.9337C48.3745 47.9624 48.366 47.9918 48.3582 48.0205C48.3482 48.0549 48.3382 48.0893 48.3289 48.1244C48.3218 48.1538 48.3147 48.1824 48.3062 48.2118C48.2969 48.2462 48.2891 48.2814 48.2805 48.3165C48.2741 48.3459 48.267 48.3745 48.2613 48.4039C48.2584 48.4168 48.2563 48.4312 48.2534 48.4448L48.2549 48.4469ZM31.7363 38.2634C31.7954 38.2569 31.8545 38.2505 31.9136 38.244C31.9635 38.2383 32.0134 38.2326 32.0625 38.2268C32.1216 38.2197 32.18 38.2125 32.2384 38.2053C32.2883 38.1989 32.3374 38.1931 32.3866 38.186C32.4457 38.1781 32.5041 38.1702 32.5625 38.1623C32.611 38.1551 32.6601 38.1487 32.7078 38.1415C32.7677 38.1329 32.8261 38.1236 32.8852 38.115C32.9329 38.1078 32.9806 38.1007 33.0284 38.0928C33.0875 38.0835 33.1466 38.0734 33.2057 38.0641C33.2527 38.0562 33.2997 38.0491 33.346 38.0405C33.4066 38.0304 33.4671 38.0197 33.527 38.0082C33.5718 38.0003 33.6167 37.9924 33.6616 37.9846C33.7243 37.9724 33.7877 37.9602 33.8503 37.948C33.8917 37.9401 33.9337 37.9322 33.975 37.9236C34.0441 37.91 34.1125 37.8957 34.1808 37.8813C34.2157 37.8735 34.2506 37.8663 34.2855 37.8598C34.3625 37.8434 34.4387 37.8262 34.5149 37.8097C34.3568 37.5101 34.2335 37.2391 34.1381 37.0062C33.6979 35.921 33.5619 34.9025 33.7129 34.1012C32.1622 35.3441 31.1721 36.8048 30.8573 38.3408C30.8808 38.3393 30.9036 38.3379 30.9278 38.3358C30.9777 38.3322 31.0283 38.3279 31.0781 38.3243C31.138 38.3193 31.1978 38.3143 31.2576 38.3092C31.3082 38.3042 31.3581 38.2999 31.4086 38.2956C31.4685 38.2906 31.5269 38.2849 31.5867 38.2784C31.6366 38.2734 31.6864 38.2684 31.7356 38.2627L31.7363 38.2634ZM52.9851 42.9617L57.5986 45.6423C58.1293 45.046 58.2824 43.72 57.5894 42.012C57.5039 41.802 57.3935 41.5597 57.2539 41.2923C57.2026 41.306 57.152 41.3189 57.1007 41.3325C57.0587 41.344 57.0174 41.3561 56.9761 41.3676C56.9191 41.3834 56.8607 41.3991 56.8037 41.4164C56.7603 41.4285 56.7175 41.4407 56.6741 41.4536C56.6192 41.4694 56.5644 41.4859 56.5095 41.5024C56.4661 41.516 56.4226 41.5289 56.3785 41.5425C56.3251 41.559 56.2723 41.5755 56.2189 41.592C56.1748 41.6056 56.1313 41.6206 56.0879 41.6342C56.0351 41.6507 55.9824 41.6686 55.9312 41.6858C55.887 41.7002 55.8435 41.7152 55.8001 41.7303C55.7488 41.7475 55.6975 41.7654 55.647 41.7833C55.6035 41.7984 55.5601 41.8141 55.5166 41.8292C55.466 41.8471 55.4155 41.8657 55.3656 41.8837C55.3229 41.8994 55.2801 41.9159 55.2367 41.9317C55.1868 41.951 55.1377 41.9697 55.0878 41.9883C55.0451 42.0048 55.0031 42.0213 54.961 42.0378C54.9119 42.0571 54.8627 42.0765 54.8143 42.0965C54.7723 42.1137 54.731 42.1309 54.6889 42.1474C54.6405 42.1675 54.5913 42.1876 54.5436 42.2084C54.5023 42.2256 54.461 42.2428 54.4204 42.26C54.372 42.2807 54.3242 42.3022 54.2772 42.323C54.2366 42.341 54.1967 42.3589 54.1569 42.3761C54.1091 42.3983 54.0614 42.4198 54.0137 42.4413C53.9745 42.4592 53.9353 42.4779 53.8962 42.4958C53.8484 42.5187 53.8007 42.5416 53.7537 42.5646C53.716 42.5825 53.6782 42.6004 53.6404 42.6191C53.592 42.6427 53.5436 42.6671 53.4966 42.6914C53.461 42.7094 53.4253 42.7273 53.3897 42.7452C53.3392 42.771 53.29 42.7968 53.2401 42.8233C53.2074 42.8405 53.1753 42.8577 53.1426 42.8749C53.0891 42.9029 53.0371 42.9316 52.9851 42.9609V42.9617ZM41.8692 32.8784C38.9368 32.4799 36.6624 32.5731 35.641 32.8849L40.2545 35.5655C40.3043 35.5354 40.3535 35.5046 40.4026 35.4731C40.4326 35.4544 40.4618 35.4351 40.4903 35.4165C40.5351 35.3871 40.5793 35.3584 40.6242 35.329C40.6548 35.3082 40.6854 35.2882 40.7153 35.2667C40.7574 35.2387 40.7987 35.2107 40.84 35.1821C40.8706 35.1606 40.902 35.1384 40.9326 35.1169C40.9718 35.0889 41.0116 35.0617 41.0501 35.0337C41.0807 35.0108 41.1121 34.9886 41.142 34.9649C41.1805 34.9369 41.2175 34.9097 41.2545 34.881C41.2845 34.8581 41.3158 34.8345 41.345 34.8115C41.3813 34.7836 41.4177 34.7556 41.4533 34.7269C41.4832 34.7033 41.5124 34.6796 41.5423 34.6553C41.5772 34.6266 41.6128 34.5986 41.6463 34.5707C41.6755 34.5463 41.7047 34.5219 41.7332 34.4976C41.7674 34.4689 41.8001 34.4402 41.8336 34.4116C41.8621 34.3872 41.8899 34.3628 41.9177 34.3377C41.9504 34.3084 41.9825 34.2797 42.0138 34.2503C42.0409 34.2259 42.0694 34.2008 42.0957 34.1758C42.1278 34.1464 42.1591 34.1163 42.1898 34.0862C42.2161 34.0618 42.2418 34.036 42.2681 34.0109C42.2987 33.9808 42.3294 33.9514 42.3593 33.9206C42.3842 33.8955 42.4099 33.8704 42.4348 33.8446C42.4647 33.8145 42.4932 33.7837 42.5224 33.7529C42.5466 33.7271 42.5715 33.702 42.5951 33.6762C42.6235 33.6454 42.652 33.6138 42.6805 33.583C42.7033 33.5579 42.7261 33.5321 42.7489 33.507C42.7774 33.4748 42.8045 33.4425 42.8315 33.4103C42.8536 33.3852 42.875 33.3601 42.8956 33.335C42.9234 33.302 42.9505 33.2684 42.9776 33.2347C42.9975 33.2103 43.0174 33.1859 43.0374 33.1616C43.0609 33.1322 43.083 33.1021 43.1058 33.072C42.6478 32.9924 42.2311 32.9286 41.8707 32.8792L41.8692 32.8784ZM56.964 46.0136L52.3505 43.3329C52.3006 43.363 52.2515 43.3939 52.2031 43.4254C52.1731 43.4447 52.1439 43.4634 52.1147 43.4827C52.0699 43.5121 52.025 43.5408 51.9808 43.5702C51.9502 43.591 51.9189 43.6117 51.8889 43.6325C51.8469 43.6605 51.8063 43.6884 51.7657 43.7171C51.7337 43.7393 51.7037 43.7608 51.6724 43.783C51.6332 43.811 51.5933 43.8382 51.5549 43.8662C51.5243 43.8891 51.4929 43.9113 51.4616 43.935C51.4245 43.963 51.3875 43.9902 51.3505 44.0181C51.3205 44.0418 51.2892 44.0654 51.2593 44.0891C51.2237 44.1171 51.1873 44.1443 51.1517 44.1722C51.1218 44.1966 51.0926 44.2203 51.0627 44.2446C51.0271 44.2726 50.9922 44.3013 50.9587 44.3292C50.9295 44.3536 50.9003 44.378 50.8718 44.4023C50.8376 44.431 50.8041 44.4597 50.7714 44.4883C50.7429 44.5127 50.7151 44.5371 50.6873 44.5622C50.6546 44.5915 50.6225 44.6202 50.5904 44.6489C50.5634 44.674 50.5356 44.6991 50.5092 44.7241C50.4779 44.7535 50.4466 44.7829 50.4159 44.8123C50.3896 44.8374 50.3632 44.8632 50.3376 44.8883C50.3077 44.9177 50.277 44.9478 50.2478 44.9779C50.2215 45.0037 50.1966 45.0288 50.1723 45.0546C50.1424 45.0847 50.1139 45.1148 50.0847 45.1463C50.0605 45.1714 50.0356 45.1972 50.0121 45.223C49.9836 45.2538 49.9551 45.2854 49.9273 45.3162C49.9045 45.3413 49.881 45.3671 49.8582 45.3929C49.8297 45.4251 49.8027 45.4574 49.7749 45.4889C49.7535 45.514 49.7314 45.5391 49.7108 45.5642C49.683 45.5971 49.6559 45.6308 49.6281 45.6645C49.6089 45.6889 49.589 45.7133 49.569 45.7376C49.5455 45.767 49.5234 45.7971 49.4999 45.8265C49.9587 45.9068 50.3746 45.9706 50.7365 46.0193C53.6689 46.4178 55.9426 46.3246 56.9647 46.0129L56.964 46.0136ZM39.6191 35.9368L35.0057 33.2562C34.475 33.8525 34.3219 35.1785 35.0156 36.8865C35.1004 37.0972 35.2108 37.3395 35.3497 37.6061C35.401 37.5925 35.4523 37.5796 35.5028 37.566C35.5449 37.5545 35.5862 37.5423 35.6282 37.5309C35.6852 37.5151 35.7436 37.4993 35.7999 37.4828C35.8426 37.4707 35.886 37.4577 35.9288 37.4448C35.9843 37.4291 36.0399 37.4126 36.094 37.3961C36.1375 37.3825 36.1809 37.3696 36.2244 37.356C36.2785 37.3395 36.3319 37.3223 36.3846 37.3058C36.4288 37.2922 36.4723 37.2771 36.5157 37.2635C36.5677 37.2463 36.6211 37.2291 36.6724 37.2119C36.7166 37.1976 36.7593 37.1825 36.8028 37.1682C36.8548 37.1503 36.906 37.1331 36.9573 37.1144C37.0001 37.0994 37.0435 37.0843 37.0862 37.0686C37.1375 37.0506 37.1888 37.032 37.2387 37.0134C37.2814 36.9976 37.3242 36.9818 37.3662 36.9653C37.4167 36.9467 37.4659 36.9281 37.5158 36.9087C37.5585 36.8922 37.6005 36.8757 37.6425 36.8593C37.6917 36.8399 37.7408 36.8206 37.79 36.8005C37.8313 36.784 37.8726 36.7668 37.9146 36.7496C37.9631 36.7295 38.0115 36.7095 38.0599 36.6887C38.1013 36.6715 38.1419 36.6543 38.1825 36.6364C38.2316 36.6156 38.2793 36.5948 38.327 36.5733C38.3669 36.5561 38.4068 36.5382 38.4467 36.5202C38.4951 36.4987 38.5429 36.4765 38.5899 36.4543C38.6291 36.4364 38.6682 36.4185 38.7074 36.4005C38.7551 36.3776 38.8029 36.3547 38.8506 36.3317C38.8883 36.3138 38.9261 36.2959 38.9624 36.2773C39.0116 36.2529 39.0593 36.2292 39.1077 36.2042C39.1433 36.1862 39.1789 36.1683 39.2138 36.1504C39.2644 36.1246 39.3143 36.0981 39.3634 36.0723C39.3962 36.0551 39.4282 36.0379 39.461 36.0207C39.5144 35.992 39.5664 35.9633 39.6184 35.9339L39.6191 35.9368Z" fill="#DCFF00" stroke="black" stroke-width="0.0358189" stroke-miterlimit="10"/>
<path d="M71.9327 50.835C72.0552 50.906 72.0559 51.0214 71.9341 51.0924L66.1625 54.4675C66.0414 54.5385 65.8426 54.5385 65.7208 54.4675L64.3069 53.6461L66.3939 52.4255C66.968 52.6764 67.7836 52.6506 68.3036 52.3467C68.8228 52.0428 68.8641 51.5676 68.4318 51.2336L70.5188 50.0129L71.9327 50.8343V50.835Z" fill="#DCFF00" stroke="black" stroke-width="0.0358189" stroke-miterlimit="10"/>
<path d="M67.9481 51.3464C68.327 51.5665 68.3292 51.9241 67.9524 52.1442C67.5749 52.3649 66.9623 52.3649 66.5827 52.1442C66.2037 51.9241 66.2016 51.5665 66.5784 51.3457C66.9552 51.1257 67.5685 51.1257 67.9474 51.3457L67.9481 51.3464Z" fill="#DCFF00" stroke="black" stroke-width="0.0358189" stroke-miterlimit="10"/>
<path d="M70.2246 49.8436L68.1376 51.0643C67.5635 50.8134 66.748 50.8392 66.2287 51.1424C65.7088 51.4463 65.6674 51.9222 66.0998 52.2555L64.0128 53.4761L62.5989 52.6547C62.4764 52.5838 62.4757 52.4684 62.5975 52.3974L68.3691 49.0222C68.4909 48.9506 68.689 48.9513 68.8108 49.0222L70.2246 49.8436Z" fill="#DCFF00" stroke="black" stroke-width="0.0358189" stroke-miterlimit="10"/>
<path d="M33.5605 25.3448L35.3654 25.6329L34.8191 25.9505L33.1602 25.6781L32.6524 25.9734L33.7763 26.5561L33.2891 26.8392L30.2263 25.2509L31.2427 24.6603C31.4507 24.5392 31.6673 24.4589 31.8916 24.4188C32.116 24.3786 32.339 24.3758 32.5598 24.4094C32.7799 24.4431 32.9878 24.5105 33.1823 24.6116C33.3768 24.7126 33.5092 24.8216 33.5798 24.9391C33.6496 25.0567 33.6531 25.1771 33.5869 25.3018C33.579 25.3161 33.5705 25.3312 33.5605 25.3455V25.3448ZM32.9009 25.0753C32.8632 25.0144 32.7905 24.9563 32.6844 24.9011C32.5783 24.8459 32.4622 24.8065 32.3475 24.7886C32.2314 24.77 32.1146 24.7728 31.9949 24.7979C31.8745 24.8223 31.7535 24.8703 31.6295 24.9427L31.1751 25.2072L32.1986 25.7383L32.6573 25.4717C32.7806 25.4 32.8618 25.3319 32.8995 25.2667C32.9387 25.2015 32.9394 25.1384 32.9017 25.0767" fill="#DCFF00"/>
<path d="M32.9009 25.0753C32.8632 25.0144 32.7905 24.9563 32.6844 24.9011C32.5783 24.8459 32.4622 24.8065 32.3475 24.7886C32.2314 24.77 32.1146 24.7728 31.9949 24.7979C31.8745 24.8223 31.7535 24.8703 31.6295 24.9427L31.1751 25.2072L32.1986 25.7383L32.6573 25.4717C32.7806 25.4 32.8618 25.3319 32.8995 25.2667C32.9387 25.2015 32.9394 25.1384 32.9017 25.0767M33.5605 25.3448L35.3654 25.6329L34.8191 25.9505L33.1602 25.6781L32.6524 25.9734L33.7763 26.5561L33.2891 26.8392L30.2263 25.2509L31.2427 24.6603C31.4507 24.5392 31.6673 24.4589 31.8916 24.4188C32.116 24.3786 32.339 24.3758 32.5598 24.4094C32.7799 24.4431 32.9878 24.5105 33.1823 24.6116C33.3768 24.7126 33.5092 24.8216 33.5798 24.9391C33.6496 25.0567 33.6531 25.1771 33.5869 25.3018C33.579 25.3161 33.5705 25.3312 33.5605 25.3455V25.3448Z" stroke="black" stroke-width="0.0358189" stroke-miterlimit="10"/>
<path d="M30.2877 25.9685C30.6324 26.0272 30.9686 26.1419 31.2991 26.3132C31.6296 26.4845 31.8568 26.6616 31.9822 26.8465C32.109 27.0314 32.1396 27.2113 32.0762 27.3848C32.0121 27.5582 31.8618 27.7138 31.6239 27.8521C31.386 27.9904 31.1096 28.0822 30.7955 28.1273C30.4828 28.1725 30.1538 28.166 29.8104 28.1072C29.4664 28.0492 29.1309 27.9345 28.8018 27.7639C28.4728 27.5933 28.2427 27.4149 28.1166 27.2292C27.9905 27.0443 27.9599 26.8644 28.024 26.6902C28.0874 26.5161 28.2384 26.3598 28.477 26.2208C28.7157 26.0817 28.9892 25.9914 29.3026 25.947C29.6153 25.9025 29.9436 25.9097 30.287 25.9678L30.2877 25.9685ZM31.3005 26.9605C31.2037 26.84 31.0398 26.7189 30.8076 26.5985C30.5754 26.4781 30.3432 26.3935 30.1181 26.3469C29.8923 26.301 29.6815 26.2896 29.4849 26.3125C29.2876 26.3362 29.116 26.3899 28.9685 26.4759C28.8211 26.5619 28.7306 26.6601 28.7 26.7705C28.6694 26.8802 28.7014 26.9963 28.7976 27.1174C28.893 27.2385 29.0583 27.3604 29.2905 27.4808C29.5227 27.6012 29.7506 27.6836 29.9771 27.7295C30.2022 27.7747 30.4137 27.7854 30.6118 27.7625C30.8098 27.7396 30.9836 27.6851 31.1317 27.5984C31.2799 27.5116 31.3675 27.4156 31.3988 27.3059C31.4295 27.197 31.396 27.0816 31.2998 26.9605" fill="#DCFF00"/>
<path d="M31.3005 26.9605C31.2037 26.84 31.0398 26.7189 30.8076 26.5985C30.5754 26.4781 30.3432 26.3935 30.1181 26.3469C29.8923 26.301 29.6815 26.2896 29.4849 26.3125C29.2876 26.3362 29.116 26.3899 28.9685 26.4759C28.8211 26.5619 28.7306 26.6601 28.7 26.7705C28.6694 26.8802 28.7014 26.9963 28.7976 27.1174C28.893 27.2385 29.0583 27.3604 29.2905 27.4808C29.5227 27.6012 29.7506 27.6836 29.9771 27.7295C30.2022 27.7747 30.4137 27.7854 30.6118 27.7625C30.8098 27.7396 30.9836 27.6851 31.1317 27.5984C31.2799 27.5116 31.3675 27.4156 31.3988 27.3059C31.4295 27.197 31.396 27.0816 31.2998 26.9605M30.2877 25.9685C30.6324 26.0272 30.9686 26.1419 31.2991 26.3132C31.6296 26.4845 31.8568 26.6616 31.9822 26.8465C32.109 27.0314 32.1396 27.2113 32.0762 27.3848C32.0121 27.5582 31.8618 27.7138 31.6239 27.8521C31.386 27.9904 31.1096 28.0822 30.7955 28.1273C30.4828 28.1725 30.1538 28.166 29.8104 28.1072C29.4664 28.0492 29.1309 27.9345 28.8018 27.7639C28.4728 27.5933 28.2427 27.4149 28.1166 27.2292C27.9905 27.0443 27.9599 26.8644 28.024 26.6902C28.0874 26.5161 28.2384 26.3598 28.477 26.2208C28.7157 26.0817 28.9892 25.9914 29.3026 25.947C29.6153 25.9025 29.9436 25.9097 30.287 25.9678L30.2877 25.9685Z" stroke="black" stroke-width="0.0358189" stroke-miterlimit="10"/>
<path d="M23.6081 29.0957L27.6425 30.1199L27.1076 30.4303L26.1182 30.1708L25.0996 30.7621L25.6353 31.2854L25.1025 31.595L22.9891 29.4548L23.6074 29.0957H23.6081ZM24.7877 30.4582L25.542 30.0203L25.0327 29.887C24.8204 29.8297 24.5854 29.7616 24.3268 29.6834C24.1416 29.6275 23.94 29.5659 23.7207 29.4985C23.8588 29.6153 23.9856 29.7236 24.0996 29.8218C24.2599 29.9587 24.3973 30.0812 24.512 30.1895L24.7877 30.4582Z" fill="#DCFF00" stroke="black" stroke-width="0.0358189" stroke-miterlimit="10"/>
<path d="M20.7554 30.7077C20.9492 30.5951 21.1564 30.5163 21.378 30.4704C21.5995 30.4246 21.8174 30.4124 22.0325 30.4339C22.2477 30.4554 22.4421 30.5091 22.6159 30.5951L22.1429 30.8697C21.9991 30.8087 21.8452 30.7858 21.6814 30.8023C21.5176 30.8181 21.3623 30.8689 21.2148 30.955C21.1123 31.0144 21.0425 31.0739 21.0033 31.1349C20.9641 31.1958 20.9563 31.2538 20.9769 31.3076C20.9969 31.3621 21.0467 31.4094 21.1244 31.4495C21.2091 31.4939 21.3032 31.5162 21.405 31.5176C21.5062 31.5183 21.6087 31.5068 21.7134 31.4832C21.8174 31.4588 21.9157 31.4309 22.0097 31.3993L22.3374 31.2897C22.4656 31.2452 22.5995 31.2072 22.7406 31.1757C22.8802 31.1442 23.0233 31.1241 23.1686 31.1155C23.3132 31.1069 23.4585 31.1155 23.6017 31.1406C23.7456 31.1657 23.8838 31.213 24.0163 31.2818C24.1957 31.375 24.3133 31.4803 24.3674 31.5979C24.4223 31.7161 24.4109 31.8401 24.3339 31.9677C24.2563 32.096 24.1096 32.2236 23.893 32.349C23.6765 32.4745 23.4628 32.559 23.2335 32.6099C23.0048 32.6615 22.7747 32.6766 22.5468 32.6544C22.3175 32.6321 22.0995 32.5705 21.8901 32.4702L22.3702 32.1913C22.4863 32.2415 22.6045 32.2702 22.727 32.2781C22.8502 32.2852 22.9699 32.2738 23.0889 32.2429C23.2078 32.2121 23.3182 32.167 23.4208 32.1075C23.5283 32.0451 23.6038 31.9806 23.6487 31.914C23.6943 31.8473 23.7064 31.7828 23.6858 31.7219C23.6658 31.6602 23.6124 31.6072 23.5248 31.5613C23.4457 31.5205 23.3595 31.4975 23.2655 31.4947C23.1729 31.4911 23.0711 31.5011 22.9614 31.5255C22.8517 31.5499 22.7341 31.5828 22.6081 31.6265L22.2085 31.7584C21.9157 31.8566 21.6386 31.9075 21.378 31.9132C21.118 31.9183 20.8801 31.8645 20.6635 31.752C20.4826 31.6581 20.3679 31.5513 20.3181 31.4302C20.2682 31.3097 20.2817 31.1865 20.3572 31.061C20.432 30.9349 20.5645 30.8173 20.754 30.707L20.7554 30.7077Z" fill="#DCFF00" stroke="black" stroke-width="0.0358189" stroke-miterlimit="10"/>
<path d="M17.3935 33.2473C17.6193 33.2846 17.8295 33.3534 18.0239 33.4544C18.2184 33.5555 18.3566 33.6673 18.4356 33.7892C18.514 33.911 18.5261 34.0364 18.4698 34.1647C18.4143 34.2937 18.2811 34.4192 18.0716 34.5403L17.5495 34.8435L18.5859 35.3811L18.0987 35.6642L15.0359 34.0759L16.0523 33.4853C16.2603 33.3641 16.4797 33.2853 16.7098 33.248C16.9391 33.2107 17.1678 33.2107 17.3935 33.2473ZM17.7604 33.9261C17.7127 33.8608 17.6343 33.7999 17.526 33.744C17.4178 33.6881 17.3031 33.6487 17.1834 33.6272C17.0623 33.6057 16.9391 33.6057 16.813 33.6272C16.6877 33.6487 16.563 33.696 16.4391 33.7684L15.9847 34.0329L17.0987 34.6106L17.5574 34.3439C17.6799 34.273 17.7568 34.2013 17.7874 34.131C17.8174 34.0608 17.8088 33.9927 17.7611 33.9268" fill="#DCFF00"/>
<path d="M17.7604 33.9261C17.7127 33.8608 17.6343 33.7999 17.526 33.744C17.4178 33.6881 17.3031 33.6487 17.1834 33.6272C17.0623 33.6057 16.9391 33.6057 16.813 33.6272C16.6877 33.6487 16.563 33.696 16.4391 33.7684L15.9847 34.0329L17.0987 34.6106L17.5574 34.3439C17.6799 34.273 17.7568 34.2013 17.7874 34.131C17.8174 34.0608 17.8088 33.9927 17.7611 33.9268M17.3935 33.2473C17.6193 33.2846 17.8295 33.3534 18.0239 33.4544C18.2184 33.5555 18.3566 33.6673 18.4356 33.7892C18.514 33.911 18.5261 34.0364 18.4698 34.1647C18.4143 34.2937 18.2811 34.4192 18.0716 34.5403L17.5495 34.8435L18.5859 35.3811L18.0987 35.6642L15.0359 34.0759L16.0523 33.4853C16.2603 33.3641 16.4797 33.2853 16.7098 33.248C16.9391 33.2107 17.1678 33.2107 17.3935 33.2473Z" stroke="black" stroke-width="0.0358189" stroke-miterlimit="10"/>
<path d="M18.5345 32.0437L22.5682 33.0679L22.0333 33.3783L21.0439 33.1188L20.0261 33.7101L20.5617 34.2334L20.0282 34.543L17.9149 32.4028L18.5338 32.043L18.5345 32.0437ZM19.7141 33.4062L20.4677 32.9683L19.9584 32.835C19.7469 32.7769 19.5118 32.7095 19.2525 32.6314C19.0673 32.5755 18.8658 32.5139 18.6457 32.4465C18.7846 32.564 18.9106 32.6716 19.0253 32.7698C19.1849 32.9067 19.323 33.0292 19.4377 33.1374L19.7134 33.4062" fill="#DCFF00"/>
<path d="M19.7141 33.4062L20.4677 32.9683L19.9584 32.835C19.7469 32.7769 19.5118 32.7095 19.2525 32.6314C19.0673 32.5755 18.8658 32.5139 18.6457 32.4465C18.7846 32.564 18.9106 32.6716 19.0253 32.7698C19.1849 32.9067 19.323 33.0292 19.4377 33.1374L19.7134 33.4062M18.5345 32.0437L22.5682 33.0679L22.0333 33.3783L21.0439 33.1188L20.0261 33.7101L20.5617 34.2334L20.0282 34.543L17.9149 32.4028L18.5338 32.043L18.5345 32.0437Z" stroke="black" stroke-width="0.0358189" stroke-miterlimit="10"/>
<path d="M27.3011 27.4915C27.5269 27.5287 27.7377 27.5968 27.9322 27.6979C28.1266 27.7989 28.2648 27.9108 28.3439 28.0326C28.4222 28.1544 28.4343 28.2799 28.3773 28.4089C28.3218 28.5379 28.1886 28.6633 27.9799 28.7845L27.4571 29.0884L28.4934 29.6259L28.0062 29.909L24.9434 28.3207L25.9598 27.7301C26.1678 27.609 26.3872 27.5302 26.6173 27.4929C26.8466 27.4556 27.0753 27.4556 27.3011 27.4922V27.4915ZM27.6672 28.1702C27.6202 28.105 27.5411 28.0433 27.4336 27.9874C27.326 27.9315 27.2106 27.8921 27.0902 27.8706C26.9699 27.8484 26.8459 27.8491 26.7199 27.8706C26.5945 27.8921 26.4698 27.9394 26.3459 28.0118L25.8915 28.2763L27.0055 28.854L27.4642 28.5874C27.5874 28.5157 27.6636 28.4447 27.6943 28.3745C27.7249 28.3042 27.7163 28.2362 27.6679 28.1702" fill="#DCFF00"/>
<path d="M27.6672 28.1702C27.6202 28.105 27.5411 28.0433 27.4336 27.9874C27.326 27.9315 27.2106 27.8921 27.0902 27.8706C26.9699 27.8484 26.8459 27.8491 26.7199 27.8706C26.5945 27.8921 26.4698 27.9394 26.3459 28.0118L25.8915 28.2763L27.0055 28.854L27.4642 28.5874C27.5874 28.5157 27.6636 28.4447 27.6943 28.3745C27.7249 28.3042 27.7163 28.2362 27.6679 28.1702M27.3011 27.4915C27.5269 27.5287 27.7377 27.5968 27.9322 27.6979C28.1266 27.7989 28.2648 27.9108 28.3439 28.0326C28.4222 28.1544 28.4343 28.2799 28.3773 28.4089C28.3218 28.5379 28.1886 28.6633 27.9799 28.7845L27.4571 29.0884L28.4934 29.6259L28.0062 29.909L24.9434 28.3207L25.9598 27.7301C26.1678 27.609 26.3872 27.5302 26.6173 27.4929C26.8466 27.4556 27.0753 27.4556 27.3011 27.4922V27.4915Z" stroke="black" stroke-width="0.0358189" stroke-miterlimit="10"/>
<path d="M34.7087 22.646L35.171 22.8861L34.3334 23.3728L36.9332 24.7217L36.4467 25.0048L33.8462 23.6559L33.0064 24.144L32.5434 23.9039L34.7087 22.646Z" fill="#DCFF00" stroke="black" stroke-width="0.0358189" stroke-miterlimit="10"/>
<path d="M36.9015 21.3726L37.3644 21.6127L36.0838 22.3559L36.91 22.7846L38.0952 22.0965L38.5511 22.333L37.3666 23.0211L38.2213 23.4647L39.5084 22.7172L39.9714 22.9573L38.1971 23.988L35.1343 22.3989L36.9015 21.3726Z" fill="#DCFF00" stroke="black" stroke-width="0.0358189" stroke-miterlimit="10"/>
<path opacity="0.25" d="M78.6423 62.5909C77.5618 61.963 75.8858 61.9888 74.7447 62.6518L69.9297 65.4493C69.8015 65.5238 69.7573 65.6887 69.8314 65.8184C69.9055 65.9474 70.0693 65.9918 70.1982 65.9173L75.0132 63.1198C75.9862 62.555 77.4614 62.5278 78.3752 63.0568C78.7549 63.2775 78.9636 63.5485 78.9636 63.8201C78.9636 64.1218 78.7107 64.443 78.2691 64.6988L71.8728 68.4159C71.0807 68.8753 69.9304 68.9011 69.1974 68.4768L69.1568 68.4496C68.8634 68.2682 68.7017 68.0475 68.7017 67.8253C68.7017 67.6031 68.8705 67.3587 69.1989 67.1723L73.4847 64.6838C74.1435 64.3526 74.9185 64.3526 75.5767 64.6838C75.8025 64.8142 75.9321 64.9791 75.9321 65.1353C75.9321 65.2916 75.8025 65.4557 75.5767 65.5869L72.8792 67.158C72.7446 67.2225 72.6884 67.3852 72.7525 67.52C72.8166 67.6554 72.9782 67.712 73.1122 67.6475C73.125 67.6411 73.1371 67.6346 73.1485 67.626L75.8459 66.0549C76.2469 65.8205 76.4677 65.4951 76.4677 65.1353C76.4677 64.7755 76.2469 64.4566 75.8459 64.2157C75.0211 63.7871 74.041 63.7871 73.2162 64.2157L68.9303 66.7064C68.4367 66.9931 68.1632 67.3852 68.1632 67.826C68.1796 68.2152 68.3797 68.5729 68.701 68.7893C68.7736 68.8459 68.8491 68.8975 68.9289 68.9434C69.3933 69.1993 69.9169 69.329 70.4461 69.3197C71.0401 69.3233 71.6249 69.1728 72.1435 68.8818L78.5398 65.1647C79.1616 64.8049 79.5021 64.3268 79.5021 63.8194C79.4985 63.3442 79.1951 62.9084 78.6423 62.5894V62.5909Z" fill="black"/>
<path d="M78.307 62.3045C77.2265 61.6766 75.5505 61.7024 74.4094 62.3654L69.5944 65.1629C69.4662 65.2381 69.4227 65.403 69.4975 65.532C69.5723 65.661 69.7361 65.7048 69.8643 65.6295L74.6794 62.8335C75.6502 62.2687 77.1275 62.2414 78.0392 62.7725C78.4189 62.9911 78.6276 63.2628 78.6276 63.5344C78.6276 63.8362 78.3747 64.1573 77.9345 64.4132L71.5368 68.1281C70.7447 68.5897 69.5944 68.6169 68.8614 68.1912L68.6919 68.0693C68.6257 68.022 68.563 67.9675 68.5117 67.9045C68.417 67.7876 68.3664 67.6636 68.3664 67.5396C68.3664 67.3052 68.5352 67.073 68.8636 66.8867L73.1494 64.396C73.809 64.0677 74.5832 64.0677 75.2435 64.396C75.4679 64.5286 75.5975 64.6927 75.5975 64.849C75.5975 65.0052 75.4679 65.1693 75.2435 65.3005L72.5375 66.8731C72.4093 66.9483 72.3659 67.1132 72.4407 67.2422C72.5154 67.3712 72.6793 67.4149 72.8075 67.3397L75.5049 65.7685C75.9059 65.5342 76.1267 65.2088 76.1267 64.849C76.1267 64.4891 75.9059 64.1702 75.5049 63.9294C74.6801 63.5008 73.7 63.5008 72.8752 63.9294L68.5879 66.4201C68.0957 66.7068 67.8222 67.0988 67.8222 67.5396C67.8372 67.8872 67.9981 68.2098 68.2617 68.4291L68.2631 68.4305L68.2652 68.432C68.2952 68.4571 68.3265 68.4807 68.3593 68.5029C68.3593 68.5029 68.4661 68.576 68.5181 68.6097L68.5345 68.6212H68.5352C68.5544 68.6327 68.5737 68.6456 68.5936 68.657C69.058 68.9129 69.5815 69.0426 70.1108 69.0333C70.7048 69.0369 71.2896 68.8864 71.8081 68.5954L78.2144 64.8783C78.8334 64.5185 79.1753 64.0405 79.1753 63.533C79.1632 63.0614 78.8598 62.6235 78.307 62.3031V62.3045Z" fill="#DCFF00" stroke="black" stroke-width="0.0358189" stroke-miterlimit="10"/>
<g opacity="0.25" style="mix-blend-mode:multiply">
<path d="M57.3872 3.71084C58.8737 2.84787 60.3089 2.2028 62.054 2.0272C59.3488 1.77849 57.4384 2.54899 55.4383 3.71084C53.9148 4.59602 51.7929 6.36137 51.3534 8.42202C51.6184 9.59605 52.5408 10.8152 54.4803 11.9878C51.2216 8.5668 55.0266 5.08198 57.3872 3.71084Z" fill="black"/>
</g>
<g opacity="0.25" style="mix-blend-mode:multiply">
<path d="M81.5435 27.6995C77.4985 23.708 80.067 18.7087 83.263 16.8509C84.0365 16.4222 84.892 16.1635 85.7717 16.0925C84.085 15.9449 82.5379 16.142 81.3177 16.8509C79.4843 17.9159 77.8603 20.0153 77.5697 22.3641C77.8083 24.1803 78.9316 26.0446 81.421 27.6279L81.5428 27.6995H81.5435Z" fill="black"/>
</g>
<path opacity="0.15" d="M78.4053 11.1992C78.5157 11.544 78.5514 11.9088 78.5093 12.2679C79.1247 12.3854 79.7202 12.5919 80.2772 12.8814C81.1419 11.0007 79.0307 8.60029 75.9828 6.48804C77.8305 8.11362 78.9103 9.78723 78.4053 11.1992Z" fill="black"/>
<path opacity="0.25" d="M76.4725 14.5338C74.3877 15.581 70.6353 16.5092 66.4806 16.6346C71.1924 16.788 75.6434 15.824 78.1207 14.675C77.5801 14.5518 77.026 14.5045 76.4725 14.5338Z" fill="black"/>
<path opacity="0.15" d="M103.062 22.76C102.324 22.0518 101.526 21.4089 100.679 20.8376C100.836 20.976 100.983 21.1136 101.116 21.2519C102.607 22.742 103.005 23.9232 102.635 24.9632C103.199 26.7035 101.846 27.9894 99.5387 29.329C97.6953 30.4005 94.3504 31.677 90.549 31.8662C95.1332 32.1049 99.3328 30.5804 101.485 29.329C104.666 27.4812 106.038 25.7366 103.062 22.7607L103.062 22.76Z" fill="black"/>
<g opacity="0.15" style="mix-blend-mode:multiply">
<path d="M46.1578 6.59383C47.7626 8.20866 50.7656 8.69461 50.9137 8.25955C51.0619 7.82448 52.6389 5.52802 51.2791 5.4671C49.9187 5.40617 45.6314 6.05985 46.1585 6.59383H46.1578Z" fill="black"/>
</g>
<g opacity="0.15" style="mix-blend-mode:multiply">
<path d="M95.9698 35.2847C97.128 35.8746 101.346 37.1117 102.808 36.1355C104.269 35.1592 102.011 31.5045 102.259 31.2092C102.506 30.9139 103.436 29.502 101.309 28.7608C99.1815 28.019 98.3895 28.6562 98.1345 29.1128C97.8795 29.57 95.9698 35.2847 95.9698 35.2847Z" fill="black"/>
</g>
<path d="M46.0393 4.82811C46.0116 5.2259 46.5173 5.57138 47.2004 5.61653C59.5094 6.44509 65.9178 8.6025 73.2963 12.9639C74.0948 13.4363 74.9061 13.9172 75.7423 14.4017L100.456 28.7653L101.313 28.2665L101.862 28.584L100.456 29.3989L75.7423 15.0353C74.9068 14.5508 74.0955 14.0684 73.2963 13.5975C65.9178 9.23467 59.2857 7.57755 47.169 6.94467C46.4831 6.90883 45.8926 6.54974 45.9254 6.14908L46.0393 4.82739V4.82811Z" fill="#082422" stroke="black" stroke-width="0.0358189" stroke-miterlimit="10"/>
<path d="M46.0391 4.81529C46.0049 5.21739 46.5142 5.56501 47.2001 5.61088C59.5091 6.43944 65.9175 8.59685 73.2961 12.9583C74.0946 13.4306 74.9058 13.9115 75.7421 14.3961L100.455 28.7597L101.859 27.9433L77.146 13.5797C76.314 13.098 75.507 12.6128 74.7128 12.1505C67.3969 7.82922 61.0533 3.7502 47.7087 2.44286C46.933 2.36688 46.2165 2.70375 46.178 3.1596L46.0391 4.81529Z" fill="#11564F" stroke="black" stroke-width="0.0358189" stroke-miterlimit="10"/>
<path d="M80.5803 16.7929C81.4166 17.2788 82.2428 17.7497 83.0505 18.2142C90.558 22.4953 94.2776 26.2246 95.6972 33.3748C95.7769 33.7741 96.3767 34.0651 97.0697 34.05L99.9203 33.9683C100.705 33.9461 101.286 33.5304 101.155 33.0803C101.286 33.544 101.305 34.2306 101.142 34.6743C101.136 34.6944 101.129 34.7137 101.121 34.7324V34.741C100.966 35.0406 100.502 35.2699 99.926 35.2936L96.6317 35.3738C95.9457 35.3946 95.3417 35.0979 95.2591 34.7001C93.7085 26.775 90.568 23.1454 83.0598 18.8585C82.2471 18.3948 81.4208 17.9232 80.5896 17.4372L55.8769 3.07289L56.4261 2.75537L80.5811 16.7929H80.5803Z" fill="#082422" stroke="black" stroke-width="0.0358189" stroke-miterlimit="10"/>
<path d="M97.0712 34.0497C96.3853 34.069 95.7812 33.7737 95.6986 33.3745C94.2819 26.2228 90.5623 22.5007 83.0548 18.2124C82.2421 17.7487 81.4159 17.2771 80.5846 16.7911L55.8712 2.42749L57.2751 1.61255L81.9886 15.9762C82.8205 16.4578 83.6411 16.9287 84.4509 17.3889C91.89 21.6399 98.9089 25.3247 101.16 33.0785C101.297 33.5286 100.711 33.9443 99.9246 33.9665L97.0712 34.0497Z" fill="#11564F" stroke="black" stroke-width="0.0358189" stroke-miterlimit="10"/>
<g opacity="0.25" style="mix-blend-mode:multiply">
<path d="M65.7871 2.8669C71.1471 4.67454 81.493 10.9841 76.3553 13.9686C74.1443 15.253 69.34 16.3633 64.3141 16.1482C68.3713 15.9812 72.0004 15.043 73.8366 13.9686C78.9736 10.9841 68.6277 4.67526 63.2685 2.8669C62.1559 2.47628 61.0063 2.20391 59.8374 2.0534C61.4543 1.84052 63.3361 2.03834 65.7871 2.8669Z" fill="black"/>
</g>
<g opacity="0.25" style="mix-blend-mode:multiply">
<path d="M96.4576 29.0014C99.2668 27.3686 100.766 25.8456 97.9099 22.9893C95.5765 20.6635 88.9323 16.7206 83.5752 16.1207C89.141 15.3775 97.7119 20.2793 100.429 22.9893C103.283 25.8456 101.785 27.3686 98.9762 29.0014C97.0986 30.0909 92.9232 31.7086 88.3325 31.3753C91.8861 31.1223 94.9333 29.888 96.4576 29.0014Z" fill="black"/>
</g>
<path opacity="0.5" d="M76.3551 12.4589C72.7616 14.5461 62.3238 16.1781 55.2074 12.398C47.7818 8.45375 52.6339 3.83503 55.4424 2.20012C58.2503 0.565223 60.8722 -0.302759 65.7869 1.35651C71.1469 3.16558 81.4928 9.4744 76.3551 12.4597V12.4589ZM81.3183 15.341C77.7234 17.4296 74.9156 23.4897 81.4223 27.6332C88.2068 31.9409 96.1673 29.1233 98.9751 27.492C101.783 25.8607 103.282 24.3362 100.427 21.4799C97.3134 18.3671 86.4553 12.3564 81.3176 15.341H81.3183Z" fill="white" stroke="black" stroke-width="0.0358189" stroke-miterlimit="10"/>
<path d="M56.8557 1.56776C56.8557 1.81504 56.7709 1.98204 56.6306 2.06876L54.7502 3.15965C54.9104 3.04712 54.9973 2.85504 54.9767 2.65936C54.9482 2.11965 54.6654 1.62653 54.2152 1.33195C54.0593 1.21798 53.8534 1.19792 53.6789 1.27962L55.5593 0.188734C55.7345 0.107025 55.939 0.127094 56.0957 0.239623C56.5451 0.534207 56.8279 1.02733 56.8564 1.56704L56.8557 1.56776Z" fill="#DCFF00" stroke="black" stroke-width="0.0358189" stroke-miterlimit="10"/>
<path d="M54.977 2.66002C54.977 3.14885 54.6351 3.35025 54.2155 3.10728C53.7654 2.81341 53.4819 2.31957 53.4541 1.77986C53.4541 1.2896 53.7946 1.08963 54.2155 1.33261C54.6657 1.62719 54.9492 2.12031 54.977 2.66002Z" fill="#BBD900" stroke="black" stroke-width="0.0358189" stroke-miterlimit="10"/>
<path d="M54.5612 2.42002C54.5612 2.64222 54.4059 2.73324 54.215 2.62286C54.0106 2.48955 53.8824 2.26521 53.8688 2.0208C53.8688 1.7986 54.0241 1.70758 54.215 1.81652C54.4194 1.95055 54.5476 2.1749 54.5612 2.42002Z" fill="#6B67E9" stroke="black" stroke-width="0.0358189" stroke-miterlimit="10"/>
<path d="M65.7867 2.86691C60.8719 1.20979 58.25 2.07849 55.4422 3.70909C53.92 4.59427 51.8024 6.35962 51.3615 8.41741C50.7575 5.73677 53.5575 3.29481 55.4422 2.20249C58.25 0.571168 60.8719 -0.300397 65.7867 1.36031C70.4657 2.93859 78.9426 7.94579 77.6028 11.179C76.55 8.06764 69.7833 4.21511 65.7867 2.86763V2.86691Z" fill="#BBD900" stroke="black" stroke-width="0.0358189" stroke-miterlimit="10"/>
<path d="M100.423 21.4803C101.859 22.9181 102.194 24.0176 101.813 24.9637C101.605 24.3781 101.161 23.7287 100.423 22.9897C97.3087 19.8769 86.4507 13.8663 81.313 16.8508C79.4874 17.9159 77.8655 20.0081 77.5685 22.3561C77.1867 19.4297 79.1013 16.6286 81.3179 15.3399C86.4549 12.3568 97.313 18.3674 100.422 21.4803H100.423Z" fill="#BBD900" stroke="black" stroke-width="0.0358189" stroke-miterlimit="10"/>
<path d="M78.5283 10.5061V11.9977C78.5255 12.0858 78.5162 12.174 78.502 12.2614C78.2634 12.2134 78.0176 12.1747 77.769 12.1467C78.284 11.6507 78.5198 11.096 78.5283 10.5061Z" fill="#CED3F8" stroke="black" stroke-width="0.0358189" stroke-miterlimit="10"/>
<path d="M50.475 7.71654C50.4971 9.25683 51.4772 10.8932 54.1311 12.437C54.3042 12.5367 54.4844 12.6356 54.6718 12.7352C62.0425 16.6522 72.4126 15.0596 76.4712 13.0212V14.5307C72.4126 16.5691 62.0418 18.1617 54.6718 14.2447C54.483 14.145 54.3028 14.0461 54.1311 13.9465C51.4715 12.3998 50.4914 10.7577 50.475 9.21454V7.71582V7.71654Z" fill="#BBD900" stroke="black" stroke-width="0.0358189" stroke-miterlimit="10"/>
<path d="M79.3163 13.6221C80.0741 14.0614 80.4417 14.6649 80.3455 15.2792C80.1988 15.3774 80.0542 15.4835 79.9117 15.5938C79.7358 15.4139 79.5349 15.2591 79.3163 15.1351C78.5584 14.6943 77.5213 14.4807 76.4721 14.5373V13.0236C77.5206 12.9641 78.5584 13.1813 79.3163 13.6213V13.6221Z" fill="#BBD900" stroke="black" stroke-width="0.0358189" stroke-miterlimit="10"/>
<path d="M80.8373 27.9402C81.009 28.0491 81.1806 28.153 81.3537 28.2534C88.2494 32.2586 96.2647 29.7198 99.5384 27.8169C101.49 26.6844 102.759 25.5892 102.762 24.226V25.7247C102.762 27.0937 101.499 28.191 99.5419 29.3263C96.2683 31.2293 88.2529 33.7695 81.3573 29.7628C81.1842 29.6618 81.0126 29.5586 80.8409 29.4496C77.8215 27.5323 76.7111 25.2688 76.7111 23.1394V21.6421C76.7096 23.768 77.8272 26.0272 80.8366 27.9402H80.8373Z" fill="#BBD900" stroke="black" stroke-width="0.0358189" stroke-miterlimit="10"/>
<path d="M54.1318 12.4399C54.3049 12.5395 54.4851 12.6384 54.6725 12.7381C62.0432 16.6551 72.4133 15.0625 76.4719 13.0241C77.5204 12.9674 78.5582 13.1817 79.3161 13.6218C80.074 14.0626 80.4415 14.6647 80.3453 15.2789C76.8359 17.6363 74.0965 23.6613 80.8368 27.9439C81.0085 28.0528 81.1801 28.1567 81.3532 28.2571C88.2488 32.2623 96.2642 29.7236 99.5378 27.8206C102.72 25.9743 104.092 24.2297 101.115 21.253C100.124 20.2611 98.4566 19.0541 96.5405 17.9381C91.9456 15.2682 85.8841 13.1179 81.8475 14.5199C81.6595 13.9429 81.183 13.4011 80.4394 12.9689C79.6131 12.5173 78.7042 12.2399 77.7683 12.1525C80.1851 9.80442 76.4833 6.28519 71.887 3.61602C69.9652 2.50291 67.8932 1.53315 66.1865 0.957601C61.0617 -0.771911 58.0615 0.0265457 54.8812 1.87432C51.6061 3.77442 47.2362 8.43185 54.1318 12.4385V12.4399ZM81.319 15.3399C86.456 12.3568 97.3141 18.3674 100.423 21.4802C103.278 24.3365 101.779 25.8596 98.9709 27.4923C96.163 29.1251 88.2075 31.9412 81.4166 27.6307C74.9163 23.4943 77.7248 17.4299 81.319 15.3413V15.3399ZM55.4432 2.19973C58.251 0.568407 60.8729 -0.303158 65.7877 1.35611C71.1476 3.16518 81.4935 9.474 76.3558 12.4593C72.7624 14.5464 62.3245 16.1785 55.2081 12.3983C47.7825 8.45407 52.6346 3.83248 55.4432 2.20044V2.19973Z" fill="#F6F6FB" stroke="black" stroke-width="0.0358189" stroke-miterlimit="10"/>
<path d="M76.3551 12.4589C72.7616 14.5461 62.3238 16.1781 55.2074 12.398C47.7818 8.45375 52.6339 3.83503 55.4424 2.20012C58.2503 0.565223 60.8722 -0.302759 65.7869 1.35651C71.1469 3.16558 81.4928 9.4744 76.3551 12.4597V12.4589Z" fill="url(#paint0_linear_664_11613)" style="mix-blend-mode:multiply"/>
<path d="M76.3551 12.4589C72.7616 14.5461 62.3238 16.1781 55.2074 12.398C47.7818 8.45375 52.6339 3.83503 55.4424 2.20012C58.2503 0.565223 60.8722 -0.302759 65.7869 1.35651C71.1469 3.16558 81.4928 9.4744 76.3551 12.4597V12.4589Z" stroke="black" stroke-width="0.0358189" stroke-miterlimit="10"/>
<path d="M60.7104 3.05318C61.3173 2.70126 61.3158 2.12929 60.7104 1.77737C60.105 1.42545 59.1213 1.42545 58.5144 1.77737C57.9076 2.12929 57.909 2.69839 58.5144 3.05103C59.1199 3.40295 60.105 3.40439 60.7104 3.0539V3.05318ZM100.437 23.8446C101.042 23.4927 101.042 22.9207 100.437 22.5688C99.7464 22.2154 98.9309 22.2154 98.2407 22.5688C97.6352 22.9207 97.6352 23.4912 98.2407 23.8439C98.8461 24.1958 99.8298 24.1958 100.437 23.8453V23.8446Z" fill="#A5ABCC"/>
<path d="M60.7104 3.05318C61.3173 2.70126 61.3158 2.12929 60.7104 1.77737C60.105 1.42545 59.1213 1.42545 58.5144 1.77737C57.9076 2.12929 57.909 2.69839 58.5144 3.05103C59.1199 3.40295 60.105 3.40439 60.7104 3.0539V3.05318ZM100.437 23.8446C101.042 23.4927 101.042 22.9207 100.437 22.5688C99.7464 22.2154 98.9309 22.2154 98.2407 22.5688C97.6352 22.9207 97.6352 23.4912 98.2407 23.8439C98.8461 24.1958 99.8298 24.1958 100.437 23.8453V23.8446Z" stroke="black" stroke-width="0.0358189" stroke-miterlimit="10"/>
<path d="M81.3194 15.3413C77.7245 17.4299 74.9167 23.49 81.4234 27.6335C88.2079 31.9412 96.1684 29.1236 98.9762 27.4923C101.784 25.861 103.283 24.3365 100.429 21.4802C97.3145 18.3674 86.4564 12.3568 81.3187 15.3413H81.3194Z" fill="url(#paint1_linear_664_11613)" style="mix-blend-mode:multiply"/>
<path d="M81.3194 15.3413C77.7245 17.4299 74.9167 23.49 81.4234 27.6335C88.2079 31.9412 96.1684 29.1236 98.9762 27.4923C101.784 25.861 103.283 24.3365 100.429 21.4802C97.3145 18.3674 86.4564 12.3568 81.3187 15.3413H81.3194Z" stroke="black" stroke-width="0.0358189" stroke-miterlimit="10"/>
<path d="M54.1318 12.4399C54.3049 12.5395 54.4851 12.6384 54.6725 12.7381C62.0432 16.6551 72.4133 15.0625 76.4719 13.0241C77.5204 12.9674 78.5582 13.1817 79.3161 13.6218C80.074 14.0626 80.4415 14.6647 80.3453 15.2789C76.8359 17.6363 74.0965 23.6613 80.8368 27.9439C81.0085 28.0528 81.1801 28.1567 81.3532 28.2571C88.2488 32.2623 96.2642 29.7236 99.5378 27.8206C102.72 25.9743 104.092 24.2297 101.115 21.253C100.124 20.2611 98.4566 19.0541 96.5405 17.9381C91.9456 15.2682 85.8841 13.1179 81.8475 14.5199C81.6595 13.9429 81.183 13.4011 80.4394 12.9689C79.6131 12.5173 78.7042 12.2399 77.7683 12.1525C80.1851 9.80442 76.4833 6.28519 71.887 3.61602C69.9652 2.50291 67.8932 1.53315 66.1865 0.957601C61.0617 -0.771911 58.0615 0.0265457 54.8812 1.87432C51.6061 3.77442 47.2362 8.43185 54.1318 12.4385V12.4399ZM81.319 15.3399C86.456 12.3568 97.3141 18.3674 100.423 21.4802C103.278 24.3365 101.779 25.8596 98.9709 27.4923C96.163 29.1251 88.2075 31.9412 81.4166 27.6307C74.9163 23.4943 77.7248 17.4299 81.319 15.3413V15.3399ZM55.4432 2.19973C58.251 0.568407 60.8729 -0.303158 65.7877 1.35611C71.1476 3.16518 81.4935 9.474 76.3558 12.4593C72.7624 14.5464 62.3245 16.1785 55.2081 12.3983C47.7825 8.45407 52.6346 3.83248 55.4432 2.20044V2.19973Z" fill="#DCFF00" stroke="black" stroke-width="0.0358189" stroke-miterlimit="10"/>
<path d="M103.188 28.4607C103.209 28.6564 103.122 28.8478 102.961 28.961L101.081 30.0519C101.241 29.9394 101.328 29.7473 101.307 29.5516C101.279 29.0119 100.996 28.5188 100.546 28.2242C100.389 28.1109 100.185 28.0909 100.01 28.1719L101.89 27.081C102.065 26.9993 102.27 27.0193 102.426 27.1333C102.877 27.4279 103.16 27.921 103.188 28.4607Z" fill="#DCFF00" stroke="black" stroke-width="0.0358189" stroke-miterlimit="10"/>
<path d="M101.307 29.5516C101.307 30.0419 100.965 30.2419 100.545 29.9989C100.094 29.705 99.8109 29.2112 99.7839 28.6715C99.7839 28.1812 100.124 27.9812 100.545 28.2242C100.995 28.5188 101.278 29.0119 101.307 29.5516Z" fill="#BBD900" stroke="black" stroke-width="0.0358189" stroke-miterlimit="10"/>
<path d="M100.891 29.3114C100.891 29.5335 100.736 29.6246 100.545 29.5142C100.34 29.3809 100.211 29.1572 100.199 28.9121C100.199 28.6899 100.354 28.5989 100.545 28.7093C100.749 28.8426 100.878 29.0662 100.891 29.3114Z" fill="#11564F" stroke="black" stroke-width="0.0358189" stroke-miterlimit="10"/>
<path opacity="0.15" d="M95.7225 64.1956C101.946 60.5803 112.037 60.5803 118.267 64.1956C121.37 66.0018 122.935 68.3706 122.935 70.7409C122.935 73.1112 121.38 75.4801 118.267 77.2884C112.045 80.9015 101.954 80.9037 95.7225 77.2884C89.4907 73.6731 89.4985 67.8101 95.7225 64.1949V64.1956Z" fill="black"/>
<path d="M84.2812 42.9638C84.2812 42.9638 89.4489 71.418 89.5208 71.7613C89.9147 73.6406 91.3571 75.4612 93.8515 76.9032C99.7713 80.3322 109.376 80.3322 115.299 76.9032C117.726 75.4991 119.159 73.7345 119.596 71.9061C119.69 71.514 124.869 42.9502 124.869 42.9502C124.909 42.7352 124.744 42.5359 124.526 42.5366L84.6246 42.5502C84.4066 42.5502 84.2413 42.7488 84.2812 42.9638Z" fill="#EFEBE7" stroke="black" stroke-width="0.0358189" stroke-miterlimit="10"/>
<path d="M84.2828 42.5499C84.2828 39.5324 86.263 36.522 90.2276 34.2134C98.1524 29.604 111.018 29.604 118.936 34.2134C122.901 36.5149 124.881 39.5324 124.881 42.5499C124.881 45.5674 122.901 48.5777 118.936 50.89C111.008 55.4994 98.1453 55.4994 90.2276 50.89C86.263 48.5885 84.2828 45.571 84.2828 42.5499Z" fill="#EFEBE7" stroke="black" stroke-width="0.0358189" stroke-miterlimit="10"/>
<path d="M93.3383 38.7837C99.5473 35.1778 109.615 35.1778 115.824 38.7837C118.319 40.2301 119.795 42.0456 120.285 43.9285C120.407 43.4763 120.471 43.0104 120.478 42.5423C120.478 40.1807 118.928 37.8154 115.824 36.0106C109.615 32.4047 99.5473 32.4047 93.3383 36.0106C90.2335 37.8154 88.68 40.1807 88.6835 42.5423C88.6885 43.0111 88.7548 43.4777 88.8808 43.9285C89.3673 42.0492 90.8403 40.2373 93.3383 38.7837Z" fill="#CFCABF" stroke="black" stroke-width="0.0358189" stroke-miterlimit="10"/>
<path d="M93.3394 49.0669C99.5484 52.6764 109.616 52.6764 115.825 49.0669C118.32 47.6205 119.796 45.8049 120.286 43.922C119.796 42.0391 118.319 40.2236 115.825 38.7772C109.616 35.1677 99.5484 35.1677 93.3394 38.7772C90.8407 40.2272 89.3677 42.0391 88.8819 43.9256C89.3684 45.8193 90.8414 47.6491 93.3394 49.0676V49.0669Z" fill="#C1BEB8" stroke="black" stroke-width="0.0358189" stroke-miterlimit="10"/>
<path opacity="0.15" d="M104.199 49.7767C106.37 49.7767 109.908 49.8727 113.893 50.0426C114.556 49.7702 115.201 49.4556 115.824 49.0994C118.319 47.653 119.796 45.8374 120.285 43.9546C119.795 42.0717 118.318 40.2561 115.824 38.8097C113.428 37.4164 110.454 36.5649 107.349 36.2495C107.349 36.2495 107.349 36.2495 107.348 36.2495C104.841 36.9118 103.172 37.4013 103.169 37.402L104.199 49.7774L104.199 49.7767Z" fill="black"/>
<path opacity="0.15" d="M118.937 34.2136C117.308 33.2868 115.575 32.5593 113.775 32.0469C111.604 32.5472 109.547 33.0682 107.834 33.5184C110.636 33.8108 113.353 34.6616 115.825 36.022C118.93 37.8267 120.48 40.192 120.48 42.5537C120.473 43.0224 120.408 43.4876 120.286 43.9399C119.858 45.3856 119.012 46.6692 117.855 47.6275C119.458 47.7092 121.079 47.801 122.679 47.9006C124.145 46.227 124.881 44.39 124.881 42.5537C124.881 39.5326 122.901 36.5151 118.937 34.2136Z" fill="black"/>
<path d="M124.336 20.7772C119.025 15.3801 111.48 26.7277 109.5 29.7696C109.5 29.7696 109.729 30.2906 110.205 31.1199C115.071 26.188 121.89 22.1491 124.335 20.7765L124.336 20.7772Z" fill="#60D06F" stroke="black" stroke-width="0.0358189" stroke-miterlimit="10"/>
<path d="M124.868 21.3835C124.702 21.1713 124.525 20.9685 124.336 20.7771C121.891 22.1497 115.072 26.1885 110.209 31.1205C110.801 32.1462 111.467 33.1274 112.199 34.0563C121.548 31.8294 128.909 26.5247 124.867 21.3835H124.868Z" fill="#3FA048" stroke="black" stroke-width="0.0358189" stroke-miterlimit="10"/>
<path d="M104.2 14.1782C98.2764 16.4833 92.5005 22.1212 97.5713 47.7686C97.765 47.9177 99.6853 48.2897 100.588 48.5448C97.9132 22.9928 100.507 17.4401 104.2 14.1775V14.1782Z" fill="#3FA048" stroke="black" stroke-width="0.0358189" stroke-miterlimit="10"/>
<path d="M100.589 48.5461C101.708 49.1718 102.933 49.5825 104.2 49.7588V14.1787C100.507 17.4406 97.9138 22.994 100.588 48.5453C100.588 48.5453 100.588 48.5453 100.588 48.5461H100.589Z" fill="#60D06F" stroke="black" stroke-width="0.0358189" stroke-miterlimit="10"/>
<path d="M104.2 14.1787C88.2157 14.1787 94.1291 39.1846 95.8557 45.4576C96.1798 46.3865 96.7788 47.1928 97.5716 47.7691C92.5009 22.1181 98.2768 16.4838 104.2 14.1787Z" fill="#60D06F" stroke="black" stroke-width="0.0358189" stroke-miterlimit="10"/>
<path d="M104.201 14.1787C110.304 16.306 115.9 22.1217 110.829 47.7691C111.59 47.2136 112.174 46.4453 112.506 45.5601C112.511 45.5422 112.516 45.5242 112.524 45.507C112.526 45.4891 112.526 45.4712 112.524 45.454C114.388 40.4683 120.083 14.1794 104.201 14.1787Z" fill="#3FA048" stroke="black" stroke-width="0.0358189" stroke-miterlimit="10"/>
<path d="M104.2 14.1787C107.893 17.4406 110.406 23.1639 107.724 48.7195C108.623 48.4643 110.628 47.9182 110.822 47.7691C115.9 22.1181 110.304 16.3024 104.2 14.1787Z" fill="#60D06F" stroke="black" stroke-width="0.0358189" stroke-miterlimit="10"/>
<path d="M104.2 14.1782V49.7755C105.522 49.4207 106.614 49.0666 107.724 48.7362C110.406 23.1806 107.893 17.4401 104.2 14.1775V14.1782Z" fill="#3FA048" stroke="black" stroke-width="0.0358189" stroke-miterlimit="10"/>
<path opacity="0.15" d="M27.7548 62.2304L24.1841 57.7271C23.5324 56.9028 22.053 56.5459 20.746 56.8963C19.9603 57.1056 19.4353 57.5063 19.2651 58.0245C19.1433 58.4302 19.2388 58.8703 19.518 59.1878L22.2076 62.5773C22.2952 62.687 22.4547 62.7042 22.5637 62.616C22.6727 62.5278 22.6898 62.3673 22.6022 62.2576L19.9161 58.8681C19.7466 58.6839 19.6832 58.4252 19.7473 58.1829C19.8606 57.8389 20.2709 57.5429 20.8749 57.383C21.9882 57.0856 23.2603 57.3751 23.7881 58.0388L27.3588 62.5422C27.4899 62.6819 27.5411 62.879 27.4941 63.0654C27.4101 63.3249 27.0931 63.5456 26.6244 63.6703L26.5354 63.6911C25.6386 63.8975 24.5823 63.6718 24.1913 63.1772L21.798 60.1604C21.7161 60.0758 21.6876 59.9526 21.7232 59.84C21.7759 59.6802 21.9917 59.4659 22.4376 59.3455C23.1264 59.1613 23.9626 59.3261 24.2632 59.7074L25.7725 61.6104C25.8602 61.7208 26.0204 61.738 26.1294 61.6498C26.2391 61.5617 26.2562 61.4004 26.1686 61.2907L24.6592 59.3863C24.2312 58.8488 23.1991 58.6137 22.3073 58.8516C21.7553 58.9986 21.3671 59.2996 21.2431 59.6773C21.1527 59.954 21.2132 60.2572 21.402 60.4772L23.7874 63.4954C24.1785 63.99 24.9833 64.2796 25.8295 64.2796C26.1394 64.2796 26.4478 64.2401 26.7469 64.1613L26.8474 64.1312C27.4357 63.952 27.8353 63.6338 27.9685 63.2252C28.0725 62.8783 27.992 62.5027 27.7555 62.2297L27.7548 62.2304Z" fill="black"/>
<path d="M27.438 61.9619L23.8695 57.4585C23.2156 56.6357 21.7369 56.2773 20.4299 56.6278C19.6456 56.8371 19.1193 57.2378 18.949 57.7481C18.8279 58.1538 18.9241 58.5939 19.2033 58.9114L21.8908 62.3009C21.9784 62.4105 22.1379 62.4277 22.2469 62.3396C22.3559 62.2514 22.373 62.0909 22.2854 61.9812L19.5993 58.5917C19.4298 58.4068 19.3664 58.148 19.4305 57.9051C19.5438 57.5625 19.9541 57.2729 20.5595 57.1052C21.6728 56.8077 22.9449 57.0959 23.4713 57.761L27.0434 62.2643C27.1731 62.4055 27.2243 62.6026 27.1788 62.789C27.1047 63.0112 26.8597 63.2069 26.4928 63.3359C26.4494 63.3509 26.2962 63.3989 26.2207 63.4226C26.1922 63.4312 26.1645 63.4391 26.1353 63.4448C25.257 63.6211 24.2534 63.3954 23.8738 62.9159L21.4883 59.8991C21.4064 59.8145 21.3779 59.6912 21.4135 59.5787C21.4662 59.4188 21.6821 59.2045 22.128 59.0841C22.8167 58.8999 23.653 59.0648 23.9535 59.4461L25.4629 61.3505C25.5505 61.4609 25.7107 61.4781 25.8197 61.3899C25.9294 61.3017 25.9465 61.1405 25.8589 61.0308L24.3417 59.1329C23.9137 58.5953 22.8801 58.3602 21.9912 58.5982C21.4378 58.7451 21.0496 59.0461 20.9256 59.4239C20.838 59.6977 20.8978 59.998 21.0845 60.2159L23.4777 63.2341C23.8702 63.7286 24.6751 64.0182 25.5199 64.0182C25.7991 64.0182 26.0761 63.9845 26.3475 63.9207C26.3568 63.9186 26.366 63.9157 26.3746 63.9136L26.5185 63.8698C26.5277 63.867 26.537 63.8641 26.5463 63.8605C27.0676 63.6634 27.5385 63.3144 27.6588 62.9481C27.7571 62.6033 27.6738 62.2314 27.438 61.9626V61.9619Z" fill="#21504F" stroke="black" stroke-width="0.0358189" stroke-miterlimit="10"/>
</g>
<defs>
<linearGradient id="paint0_linear_664_11613" x1="71.6943" y1="25.4096" x2="75.7804" y2="10.9015" gradientUnits="userSpaceOnUse">
<stop stop-color="#E8ECF7"/>
<stop offset="0.44" stop-color="#EFF1F9"/>
<stop offset="1" stop-color="white"/>
</linearGradient>
<linearGradient id="paint1_linear_664_11613" x1="96.0261" y1="39.4322" x2="100.282" y2="24.3185" gradientUnits="userSpaceOnUse">
<stop stop-color="#E8ECF7"/>
<stop offset="0.44" stop-color="#EFF1F9"/>
<stop offset="1" stop-color="white"/>
</linearGradient>
<clipPath id="clip0_664_11613">
<rect width="126" height="80" fill="white"/>
</clipPath>
</defs>
</svg>
