<svg width="87" height="80" viewBox="0 0 87 80" fill="none" xmlns="http://www.w3.org/2000/svg">
<path fill-rule="evenodd" clip-rule="evenodd" d="M75.155 21.6741L85.6881 24.739V24.7391L85.6882 24.7389L87.0058 26.2592L84.2991 28.3557L82.9823 26.8363L82.9822 26.8363L84.299 28.3557L84.2981 28.3564L84.2989 28.3572C86.6921 33.9169 86.9082 40.4587 84.9135 47.3639C82.394 56.0828 76.6277 64.2802 68.6766 70.445C60.7255 76.6098 51.5405 80.0061 42.815 80.0061C40.8614 80.0061 38.955 79.8313 37.1491 79.4892C36.6333 79.3919 36.221 79.1517 35.9289 78.8142L34.6129 77.2958C34.9049 77.6323 35.3167 77.8703 35.8315 77.9689C37.639 78.311 39.5438 78.4858 41.4974 78.4858C50.2229 78.4858 59.4079 75.0895 67.359 68.9247C75.3101 62.7599 81.0764 54.5625 83.596 45.8436C85.3602 39.736 85.395 33.9126 83.7234 28.8017L78.8065 32.611L77.4899 31.0918C77.49 31.092 77.49 31.0921 77.4901 31.0923L78.8064 32.6111L78.1324 33.1329C79.1214 37.0072 78.9708 41.3291 77.667 45.8422M75.155 21.6741L74.9086 33.0884L75.155 21.6741ZM74.9475 33.0583L77.489 31.0892C77.4891 31.0896 77.4892 31.09 77.4894 31.0904M74.9086 33.0884L74.9475 33.0583L74.9086 33.0884Z" fill="black" fill-opacity="0.1"/>
<path d="M57.0429 17.5593L60.1603 21.4741C61.376 23.0005 62.2143 24.8704 62.5794 27.0505C64.1937 36.7044 55.9094 48.7983 44.0755 54.0631C34.9133 58.139 26.311 56.9273 22.1438 51.6945L19.0263 47.7797C23.1936 53.0126 31.7959 54.2258 40.9581 50.1483C52.7919 44.8836 61.0762 32.7896 59.462 23.1358C59.0968 20.9557 58.2585 19.0857 57.0429 17.5593Z" fill="#A1BB00" stroke="#002522" stroke-width="0.00672096" stroke-linejoin="round"/>
<path d="M35.1111 15.1891C46.945 9.92429 57.8477 13.4833 59.4635 23.1372C61.0777 32.791 52.7934 44.885 40.9596 50.1497C29.1227 55.416 18.223 51.8555 16.6072 42.2016C14.993 32.5478 23.2742 20.4538 35.1111 15.1891Z" fill="#DCFF00" stroke="#002522" stroke-width="0.00672096" stroke-linejoin="round"/>
<path d="M42.5282 21.4452L46.8248 22.929C46.8248 22.929 46.8263 22.9305 46.8248 22.932L45.101 25.3934C46.7381 26.716 46.9313 28.5708 45.3916 31.0504L40.9262 29.5073C41.7356 28.3184 41.5043 27.7726 40.7451 27.5127C40.351 27.3774 39.9965 27.3986 39.706 27.5279C39.4899 27.6236 39.3089 27.7802 39.1734 27.9733C38.6638 28.7015 39.213 29.1363 40.2232 29.9497L40.7573 30.3799C43.2996 32.3837 43.6587 33.9982 42.084 36.2467C41.3111 37.352 40.3328 38.173 39.1947 38.6807C38.0765 39.1779 36.803 39.3725 35.4139 39.2311L33.4954 41.9722L29.1714 40.4777L31.0869 37.7382C29.0147 36.3152 28.9295 34.278 30.597 31.6463L35.3303 33.2791C34.5406 34.4984 34.5589 35.1917 35.5311 35.5276C35.9677 35.6782 36.3877 35.6934 36.7543 35.5307C36.9826 35.4288 37.1879 35.2586 37.3629 35.0092C37.7904 34.3996 37.407 34.0682 36.7969 33.5649L35.6148 32.6193C33.0572 30.6369 32.9157 28.8992 34.4904 26.6507C35.207 25.6275 36.1275 24.8537 37.2077 24.3733C38.2697 23.9004 39.4884 23.7104 40.8197 23.8412L42.4856 21.4604C42.4948 21.4467 42.513 21.4406 42.5282 21.4467V21.4452Z" fill="white" stroke="#002522" stroke-width="0.00672096" stroke-linejoin="round"/>
<path d="M51.1156 1.20166L52.4331 2.72195C53.0067 3.38328 53.1132 4.42012 52.6127 5.48737C51.9402 6.921 50.399 7.92592 48.9931 7.92592C48.8197 7.92592 48.6478 7.91071 48.4804 7.87879C47 7.59753 45.4375 7.45615 43.8354 7.45615C29.091 7.45615 13.6346 19.4421 9.37909 34.1738C7.8409 39.4978 7.90785 44.5559 9.5571 48.9267L8.23952 47.4064C6.59179 43.0356 6.52332 37.9776 8.06151 32.6535C12.317 17.9218 27.7734 5.93585 42.5178 5.93585C44.1199 5.93585 45.6825 6.07876 47.1628 6.35849C47.3302 6.39042 47.5021 6.40562 47.6756 6.40562C49.0814 6.40562 50.6226 5.40071 51.2951 3.96707C51.7957 2.89983 51.6891 1.86299 51.1156 1.20166Z" fill="#EFEBE7" stroke="#002522" stroke-width="0.00672096" stroke-linejoin="round"/>
<path d="M8.23976 47.4062L9.55733 48.9265L4.06489 53.1803L2.74731 51.66L8.23976 47.4062Z" fill="#F2F2F2" stroke="#002522" stroke-width="0.00672096" stroke-linejoin="round"/>
<path d="M10.82 45.4072L12.1376 46.9275L11.8911 58.3434L10.5735 56.8231L10.82 45.4072Z" fill="#BABABA" stroke="#002522" stroke-width="0.00672096" stroke-linejoin="round"/>
<path d="M10.5735 56.8233L11.8911 58.3436L1.35659 55.2771L0.0390091 53.7568L10.5735 56.8233Z" fill="#BABABA" stroke="#002522" stroke-width="0.00672096" stroke-linejoin="round"/>
<path d="M49.897 0.52813C48.0895 0.186064 46.1831 0.0112305 44.2296 0.0112305C35.5041 0.0112305 26.319 3.40605 18.3679 9.57083C10.4168 15.7371 4.65053 23.9346 2.13253 32.655C0.137904 39.5601 0.35395 46.102 2.74719 51.6602L0.0390091 53.7566L10.5735 56.8215L10.82 45.4072L8.23964 47.4064C6.5919 43.0355 6.52344 37.9775 8.06163 32.6534C12.3171 17.9218 27.7736 5.93581 42.518 5.93581C44.12 5.93581 45.6826 6.07872 47.1629 6.35845C47.3303 6.39038 47.5022 6.40558 47.6757 6.40558C49.0815 6.40558 50.6227 5.40067 51.2952 3.96703C52.0499 2.35704 51.4245 0.816986 49.8955 0.52661L49.897 0.52813Z" fill="white" stroke="#002522" stroke-width="0.00672096" stroke-linejoin="round"/>
<path d="M70.3753 22.1958L71.6929 23.7161L69.1125 25.7138L67.7949 24.1935L70.3753 22.1958Z" fill="#BABABA" stroke="#002522" stroke-width="0.00672096" stroke-linejoin="round"/>
<path d="M75.8678 17.9404L77.1854 19.4607L71.693 23.716L70.3754 22.1957L75.8678 17.9404Z" fill="#F2F2F2" stroke="#002522" stroke-width="0.00672096" stroke-linejoin="round"/>
<path d="M78.5747 15.844L79.8922 17.3643L77.1856 19.4608L75.868 17.9405L78.5747 15.844Z" fill="#BABABA" stroke="#002522" stroke-width="0.00672096" stroke-linejoin="round"/>
<path d="M28.8153 69.9192L27.4977 68.3989C27.7899 68.7364 28.2022 68.9751 28.7179 69.0739C30.5254 69.416 32.4303 69.5908 34.3838 69.5908C43.1094 69.5908 52.2944 66.1945 60.2455 60.0297C68.1966 53.8649 73.9629 45.6675 76.4824 36.9486C78.477 30.0434 78.261 23.5016 75.8677 17.9419L77.1853 19.4622C79.5786 25.0219 79.7946 31.5637 77.8 38.4689C75.2805 47.1878 69.5141 55.3852 61.563 61.55C53.6119 67.7148 44.4269 71.1111 35.7014 71.1111C33.7479 71.1111 31.8415 70.9363 30.0355 70.5942C29.5197 70.4969 29.1074 70.2567 28.8153 69.9192Z" fill="#EFEBE7" stroke="#002522" stroke-width="0.00672096" stroke-linejoin="round"/>
<path d="M78.5745 15.844L68.0415 12.7791L67.795 24.1934L70.3754 22.1942C72.0247 26.5651 72.0916 31.6231 70.5534 36.9472C66.2979 51.6803 50.84 63.6648 36.0956 63.6648C34.4935 63.6648 32.931 63.5219 31.4521 63.2421C31.2847 63.2102 31.1128 63.195 30.9379 63.195C29.5305 63.195 27.9893 64.1999 27.3183 65.6336C26.5622 67.2436 27.1905 68.7836 28.7181 69.074C30.5255 69.4161 32.4304 69.5909 34.3839 69.5909C43.1095 69.5909 52.2945 66.1946 60.2456 60.0298C68.1967 53.865 73.963 45.6676 76.4825 36.9487C78.4771 30.0435 78.2611 23.5017 75.8679 17.942L78.5745 15.8455V15.844Z" fill="white" stroke="#002522" stroke-width="0.00672096" stroke-linejoin="round"/>
</svg>
