<svg width="87" height="80" viewBox="0 0 87 80" fill="none" xmlns="http://www.w3.org/2000/svg">
<g clip-path="url(#clip0_664_11602)">
<path fill-rule="evenodd" clip-rule="evenodd" d="M56.9853 9.41387C55.1778 9.07181 53.2714 8.89697 51.3178 8.89697C42.5923 8.89697 33.4073 12.2918 25.4562 18.4566C17.5051 24.6229 11.7388 32.8203 9.22078 41.5407C7.22616 48.4459 7.44221 54.9877 9.83545 60.5459L7.1275 62.6422L7.12671 62.642L8.44429 64.1623L18.9765 67.228L18.9774 67.2291L18.9775 67.2283L18.9788 67.2287L18.9775 67.2271L19.2239 55.8132L17.9082 54.2951L17.9083 54.2929L17.9071 54.2938L17.9063 54.2929L17.9063 54.2945L16.0014 55.7703C15.0119 51.8956 15.1622 47.5731 16.4663 43.0592C20.7218 28.3276 36.1782 16.3416 50.9226 16.3416C52.5247 16.3416 54.0873 16.483 55.5676 16.7642C55.735 16.7962 55.9069 16.8114 56.0804 16.8114C57.4862 16.8114 59.0274 15.8065 59.6999 14.3728C60.2004 13.3056 60.0939 12.2687 59.5204 11.6074L58.2416 10.1319C57.9481 9.77155 57.5219 9.51455 56.9837 9.41235L56.9853 9.41387ZM17.6599 65.708L8.88324 63.1533L17.6599 65.7067L17.6599 65.708ZM42.216 24.0762C53.2103 19.185 63.4009 21.9099 66.0872 30.0627C65.6395 28.703 64.9832 27.4942 64.1495 26.4471L67.2662 30.3609C68.4818 31.8872 69.3201 33.7572 69.6853 35.9373C71.2995 45.5912 63.0152 57.6851 51.1814 62.9499C42.0192 67.0258 33.4169 65.8141 29.2496 60.5813L26.1792 56.7255C24.9374 55.1874 24.0818 53.2976 23.7121 51.0888C22.0978 41.4349 30.3791 29.341 42.216 24.0762ZM77.4873 31.0863L77.4867 31.0855L74.9063 33.0832L76.2239 34.6035L78.1299 33.1279C79.1185 37.0019 78.9679 41.3234 77.6641 45.836C73.4086 60.5692 57.9507 72.5536 43.2063 72.5536C41.6042 72.5536 40.0417 72.4107 38.5628 72.131C38.3955 72.0991 38.2235 72.0839 38.0486 72.0839C36.6412 72.0839 35.1 73.0888 34.429 74.5224C33.9088 75.63 34.0439 76.7045 34.6762 77.3618L35.93 78.8085C36.2221 79.146 36.6344 79.3862 37.1502 79.4835C38.9561 79.8255 40.8625 80.0004 42.8161 80.0004C51.5416 80.0004 60.7266 76.604 68.6777 70.4392C76.6288 64.2745 82.3951 56.077 84.9146 47.3581C86.9093 40.453 86.6932 33.9112 84.3 28.3514L82.9824 26.8311L82.9837 26.8342L82.9799 26.8298L85.6852 24.7343V24.7328L75.1522 21.6679L74.9057 33.0822L77.4861 31.0831C77.4865 31.0841 77.4869 31.0852 77.4873 31.0863ZM83.721 28.7967C85.3922 33.9074 85.3573 39.7303 83.5932 45.8375C81.0737 54.5564 75.3074 62.7538 67.3563 68.9186C59.4052 75.0834 50.2202 78.4797 41.4947 78.4797C40.53 78.4797 39.5772 78.4371 38.6421 78.3528C39.5784 78.4373 40.5325 78.4801 41.4985 78.4801C50.224 78.4801 59.409 75.0837 67.3601 68.9189C75.3112 62.7542 81.0775 54.5567 83.5971 45.8379C85.3615 39.7296 85.3961 33.9057 83.724 28.7944L83.721 28.7967ZM87.0068 26.2535L85.6893 24.7332L82.9826 26.8297L84.3002 28.35L87.0068 26.2535Z" fill="black" fill-opacity="0.1"/>
<path d="M57.0177 17.5496L60.1352 21.4643C61.3508 22.9907 62.1892 24.8607 62.5543 27.0408C64.1686 36.6946 55.8843 48.7885 44.0504 54.0533C34.8882 58.1292 26.2859 56.9176 22.1187 51.6847L19.0012 47.7699C23.1685 53.0028 31.7708 54.216 40.933 50.1386C52.7668 44.8738 61.0511 32.7799 59.4369 23.126C59.0717 20.9459 58.2334 19.0759 57.0177 17.5496Z" fill="#12C6C1" stroke="#002522" stroke-width="0.0913095" stroke-linejoin="round"/>
<path d="M35.0852 15.1786C46.919 9.91379 57.8217 13.4728 59.4375 23.1267C61.0518 32.7805 52.7675 44.8745 40.9336 50.1392C29.0967 55.4055 18.1971 51.845 16.5813 42.1911C14.967 32.5373 23.2483 20.4433 35.0852 15.1786Z" fill="#2BF2F1" stroke="#002522" stroke-width="0.0913095" stroke-linejoin="round"/>
<path d="M42.5054 21.4347L46.802 22.9185C46.802 22.9185 46.8035 22.92 46.802 22.9215L45.0782 25.3829C46.7152 26.7055 46.9085 28.5603 45.3688 31.0399L40.9033 29.4968C41.7127 28.3079 41.4814 27.7621 40.7222 27.5022C40.3282 27.3669 39.9737 27.3881 39.6831 27.5174C39.467 27.6131 39.286 27.7697 39.1506 27.9628C38.6409 28.691 39.1901 29.1258 40.2004 29.9392L40.7344 30.3694C43.2768 32.3732 43.6358 33.9877 42.0611 36.2362C41.2882 37.3415 40.3099 38.1625 39.1719 38.6702C38.0536 39.1674 36.7802 39.362 35.3911 39.2206L33.4725 41.9617L29.1486 40.4672L31.0641 37.7277C28.9918 36.3047 28.9066 34.2675 30.5742 31.6358L35.3074 33.2686C34.5178 34.4879 34.536 35.1812 35.5082 35.5171C35.9449 35.6677 36.3648 35.6829 36.7315 35.5202C36.9597 35.4183 37.1651 35.2481 37.3401 34.9987C37.7676 34.3891 37.3842 34.0577 36.7741 33.5545L35.5919 32.6088C33.0343 30.6264 32.8929 28.8887 34.4676 26.6402C35.1842 25.617 36.1046 24.8432 37.1849 24.3628C38.2468 23.8899 39.4655 23.6999 40.7968 23.8307L42.4628 21.4499C42.4719 21.4362 42.4902 21.4301 42.5054 21.4362V21.4347Z" fill="white" stroke="#002522" stroke-width="0.0913095" stroke-linejoin="round"/>
<path d="M51.076 1.19189L52.3936 2.71219C52.9672 3.37352 53.0737 4.41036 52.5732 5.4776C51.9007 6.91124 50.3594 7.91615 48.9536 7.91615C48.7802 7.91615 48.6082 7.90095 48.4409 7.86902C46.9605 7.58777 45.398 7.44638 43.7959 7.44638C29.0515 7.44638 13.5951 19.4324 9.33957 34.164C7.80138 39.4881 7.86833 44.5461 9.51758 48.9169L8.2 47.3966C6.55227 43.0258 6.4838 37.9678 8.02199 32.6437C12.2775 17.9121 27.7339 5.92609 42.4783 5.92609C44.0804 5.92609 45.6429 6.06899 47.1233 6.34873C47.2907 6.38065 47.4626 6.39586 47.636 6.39586C49.0419 6.39586 50.5831 5.39094 51.2556 3.95731C51.7561 2.89006 51.6496 1.85322 51.076 1.19189Z" fill="#97B000" stroke="#002522" stroke-width="0.0913095" stroke-linejoin="round"/>
<path d="M8.1999 47.3967L9.51748 48.917L4.02504 53.1708L2.70746 51.6505L8.1999 47.3967Z" fill="#97B000" stroke="#002522" stroke-width="0.0913095" stroke-linejoin="round"/>
<path d="M10.7838 45.3967L12.1014 46.917L11.8549 58.3329L10.5374 56.8126L10.7838 45.3967Z" fill="#97B000" stroke="#002522" stroke-width="0.0913095" stroke-linejoin="round"/>
<path d="M10.5345 56.8135L11.8521 58.3338L1.31752 55.2674L-6.10352e-05 53.7471L10.5345 56.8135Z" fill="#97B000" stroke="#002522" stroke-width="0.0913095" stroke-linejoin="round"/>
<path d="M49.8579 0.517876C48.0504 0.17581 46.1441 0.000976562 44.1905 0.000976562C35.465 0.000976562 26.28 3.39579 18.3289 9.56058C10.3778 15.7269 4.61146 23.9243 2.09346 32.6447C0.0988334 39.5499 0.31488 46.0917 2.70812 51.6499L-6.10352e-05 53.7464L10.5345 56.8113L10.7809 45.3969L8.20057 47.3961C6.55283 43.0253 6.48437 37.9673 8.02256 32.6432C12.2781 17.9116 27.7345 5.92556 42.4789 5.92556C44.081 5.92556 45.6435 6.06847 47.1239 6.3482C47.2912 6.38013 47.4632 6.39533 47.6366 6.39533C49.0424 6.39533 50.5837 5.39042 51.2561 3.95678C52.0108 2.34679 51.3855 0.806732 49.8564 0.516356L49.8579 0.517876Z" fill="#DCFF00" stroke="#002522" stroke-width="0.0913095" stroke-linejoin="round"/>
<path d="M70.36 22.188L71.6776 23.7083L69.0972 25.7059L67.7797 24.1857L70.36 22.188Z" fill="#97B000" stroke="#002522" stroke-width="0.0913095" stroke-linejoin="round"/>
<path d="M75.8491 17.9331L77.1666 19.4534L71.6742 23.7087L70.3566 22.1884L75.8491 17.9331Z" fill="#97B000" stroke="#002522" stroke-width="0.0913095" stroke-linejoin="round"/>
<path d="M78.5586 15.8362L79.8762 17.3565L77.1695 19.453L75.8519 17.9327L78.5586 15.8362Z" fill="#97B000" stroke="#002522" stroke-width="0.0913095" stroke-linejoin="round"/>
<path d="M28.8034 69.9116L27.4858 68.3913C27.778 68.7289 28.1903 68.9675 28.706 69.0664C30.5135 69.4084 32.4184 69.5833 34.3719 69.5833C43.0975 69.5833 52.2825 66.1869 60.2336 60.0221C68.1847 53.8573 73.951 45.6599 76.4705 36.941C78.4651 30.0359 78.2491 23.494 75.8558 17.9343L77.1734 19.4546C79.5667 25.0143 79.7827 31.5562 77.7881 38.4613C75.2686 47.1802 69.5023 55.3776 61.5511 61.5424C53.6 67.7072 44.415 71.1035 35.6895 71.1035C33.736 71.1035 31.8296 70.9287 30.0236 70.5866C29.5079 70.4893 29.0955 70.2491 28.8034 69.9116Z" fill="#97B000" stroke="#002522" stroke-width="0.0913095" stroke-linejoin="round"/>
<path d="M78.5585 15.8362L68.0255 12.7712L67.779 24.1856L70.3594 22.1864C72.0086 26.5573 72.0756 31.6153 70.5374 36.9393C66.2819 51.6725 50.8239 63.657 36.0795 63.657C34.4774 63.657 32.9149 63.5141 31.4361 63.2343C31.2687 63.2024 31.0968 63.1872 30.9218 63.1872C29.5145 63.1872 27.9732 64.1921 27.3023 65.6258C26.5461 67.2358 27.1745 68.7758 28.702 69.0662C30.5095 69.4082 32.4144 69.5831 34.3679 69.5831C43.0934 69.5831 52.2784 66.1867 60.2295 60.022C68.1806 53.8572 73.9469 45.6597 76.4665 36.9409C78.4611 30.0357 78.245 23.4939 75.8518 17.9342L78.5585 15.8377V15.8362Z" fill="#DCFF00" stroke="#002522" stroke-width="0.0913095" stroke-linejoin="round"/>
</g>
<defs>
<clipPath id="clip0_664_11602">
<rect width="87" height="80" fill="white"/>
</clipPath>
</defs>
</svg>
