<svg width="87" height="80" viewBox="0 0 87 80" fill="none" xmlns="http://www.w3.org/2000/svg">
<g clip-path="url(#clip0_664_11596)">
<path fill-rule="evenodd" clip-rule="evenodd" d="M56.9835 9.41363C55.176 9.07156 53.2697 8.89673 51.3161 8.89673C42.5906 8.89673 33.4056 12.2915 25.4545 18.4563C17.5034 24.6226 11.7371 32.8201 9.21905 41.5405C7.22455 48.4452 7.44045 54.9866 9.83328 60.5446L9.83294 60.5449L9.83365 60.5457L7.12586 62.6419L7.12524 62.6417L7.12559 62.6421L7.12553 62.6421L7.12565 62.6422L8.44282 64.162L18.9774 67.2284L17.6598 65.7081L9.55423 63.3487L17.6601 65.707L17.9065 54.2927L16.0017 55.7685C15.582 54.1243 15.3674 52.3994 15.3592 50.6136C22.584 54.8252 29.8084 59.0363 37.0333 63.2474C39.3533 60.6747 42.344 58.4938 45.7215 56.5374C50.3337 53.8661 55.6683 51.616 61.0024 49.3661L61.0024 49.3661L61.0093 49.3631L61.9376 48.9719C66.9803 46.8475 72.1197 44.6824 76.4668 42.1646C77.0146 41.0699 77.2718 40.1687 77.6496 38.8447L77.6496 38.8446L77.6496 38.8445L77.6498 38.8441C77.8059 38.2969 77.9826 37.6775 78.209 36.9423C78.3095 36.4741 78.4214 35.925 78.533 35.3441C78.9906 38.6196 78.6938 42.1599 77.6343 45.8274C75.5084 53.1876 70.5837 59.8628 64.3481 64.6975C58.1126 69.5323 50.5676 72.5256 43.2026 72.5257C41.6022 72.5257 40.041 72.3832 38.564 72.1038C38.395 72.0716 38.2208 72.056 38.0444 72.0559C36.6258 72.0562 35.0759 73.068 34.4009 74.51C34.0202 75.3206 33.9867 76.1164 34.2437 76.7473C34.3272 76.9525 34.4419 77.1394 34.5845 77.304V77.305L35.9019 78.8255C36.1981 79.1677 36.6163 79.4096 37.1372 79.5081V79.5091C38.9448 79.8514 40.8541 80.0266 42.8091 80.0266C51.5413 80.0265 60.7321 76.6278 68.687 70.4602C76.6421 64.2924 82.4118 56.0895 84.9331 47.3645C86.929 40.4547 86.7139 33.9065 84.3179 28.3401L84.2925 28.3499L84.3188 28.3391L84.3134 28.3328L86.9995 26.2523L85.7006 24.7535C85.7057 24.7483 85.7085 24.7411 85.7085 24.7337V24.7317C85.7083 24.7199 85.7003 24.7097 85.689 24.7063L75.1558 21.6409C75.1479 21.6388 75.139 21.6401 75.1323 21.6448L75.1216 21.6663L74.9492 29.629C69.9509 26.7153 64.9526 23.8019 59.954 20.8884C57.634 23.4612 54.6434 25.6428 51.2658 27.5992C46.6537 30.2698 41.3192 32.5198 35.9851 34.7697L35.978 34.7727L35.9613 34.7798C30.6305 37.0283 25.3004 39.2765 20.691 41.9462V41.9469C19.0063 42.9224 17.4178 43.9543 15.9609 45.0628C16.104 44.3996 16.2727 43.7312 16.467 43.0587C20.7225 28.327 36.1789 16.341 50.9233 16.341C52.5254 16.341 54.088 16.4824 55.5683 16.7637C55.7357 16.7956 55.9076 16.8108 56.0811 16.8108C57.4869 16.8108 59.0281 15.8059 59.7006 14.3723C60.2011 13.305 60.0946 12.2682 59.5211 11.6068L58.2044 10.0877C58.7772 10.749 58.8833 11.7853 58.383 12.852C57.9467 13.782 57.1448 14.5316 56.2515 14.9435C57.1443 14.5315 57.9457 13.7822 58.3817 12.8525C59.1364 11.2425 58.5111 9.70248 56.982 9.41211L56.9835 9.41363ZM14.1681 46.5272C14.3331 44.9002 14.6599 43.2328 15.1494 41.5384C17.9623 31.8006 25.6693 23.2625 34.8297 18.5929C25.6688 23.2624 17.9612 31.8008 15.1481 41.5389C14.6586 43.2336 14.3317 44.9012 14.1668 46.5284L14.1681 46.5272ZM14.0571 49.8545C14.1431 52.1187 14.567 54.2782 15.3262 56.2919L15.3273 56.291C14.5684 54.2778 14.1446 52.1188 14.0584 49.8553L14.0571 49.8545ZM17.9091 54.2923L19.2267 55.8126L18.9802 67.2285L17.6626 65.7082L17.9091 54.2923Z" fill="black" fill-opacity="0.1"/>
<path d="M70.36 22.1875L71.6776 23.7078L69.0972 25.7055L67.7797 24.1852L70.36 22.1875Z" fill="#97B000" stroke="#002522" stroke-width="0.0913095" stroke-linejoin="round"/>
<path d="M75.8511 17.9329L77.1687 19.4532L71.6762 23.7085L70.3586 22.1882L75.8511 17.9329Z" fill="#97B000" stroke="#002522" stroke-width="0.0913095" stroke-linejoin="round"/>
<path d="M78.5586 15.8359L79.8762 17.3562L77.1695 19.4527L75.8519 17.9324L78.5586 15.8359Z" fill="#97B000" stroke="#002522" stroke-width="0.0913095" stroke-linejoin="round"/>
<path d="M28.7991 69.9107L27.4816 68.3904C27.7737 68.7279 28.186 68.9665 28.7018 69.0654C30.5093 69.4074 32.4141 69.5823 34.3677 69.5823C43.0932 69.5823 52.2782 66.1859 60.2293 60.0211C68.1804 53.8564 73.9467 45.6589 76.4662 36.9401C78.4609 30.0349 78.2448 23.4931 75.8516 17.9333L77.1691 19.4536C79.5624 25.0134 79.7784 31.5552 77.7838 38.4603C75.2643 47.1792 69.498 55.3766 61.5469 61.5414C53.5958 67.7062 44.4108 71.1026 35.6852 71.1026C33.7317 71.1026 31.8253 70.9277 30.0194 70.5857C29.5036 70.4884 29.0913 70.2482 28.7991 69.9107Z" fill="#97B000" stroke="#002522" stroke-width="0.0913095" stroke-linejoin="round"/>
<path d="M78.5585 15.8354L68.0255 12.7705L67.779 24.1849L70.3594 22.1857C72.0086 26.5565 72.0756 31.6145 70.5374 36.9386C66.2819 51.6718 50.8239 63.6562 36.0795 63.6562C34.4774 63.6562 32.9149 63.5133 31.4361 63.2336C31.2687 63.2017 31.0968 63.1865 30.9218 63.1865C29.5145 63.1865 27.9732 64.1914 27.3023 65.625C26.5461 67.235 27.1745 68.7751 28.702 69.0654C30.5095 69.4075 32.4144 69.5823 34.3679 69.5823C43.0934 69.5823 52.2784 66.186 60.2295 60.0212C68.1806 53.8564 73.9469 45.659 76.4665 36.9401C78.4611 30.035 78.245 23.4931 75.8518 17.9334L78.5585 15.8369V15.8354Z" fill="#DCFF00" stroke="#002522" stroke-width="0.0913095" stroke-linejoin="round"/>
<path d="M79.948 26.8855L79.9503 27.7571C77.6276 30.3286 74.6335 32.5091 71.252 34.4645C66.6325 37.1356 61.2898 39.3846 55.9472 41.6344C50.6046 43.8841 45.2612 46.1339 40.6417 48.805C37.2602 50.7604 34.2661 52.9402 31.9434 55.5117L31.9411 54.6401C34.2638 52.0686 37.2571 49.8888 40.6394 47.9334C45.2589 45.2631 50.6023 43.0125 55.9449 40.7628C61.2883 38.513 66.6302 36.264 71.2497 33.5929C74.6312 31.6383 77.6253 29.457 79.948 26.8855Z" fill="#38A543" stroke="#082422" stroke-width="0.0913095" stroke-miterlimit="10"/>
<path d="M31.9375 54.6385L31.9397 55.5112C23.6161 50.6445 15.2932 45.7778 6.96949 40.9103L6.96722 40.0376C15.2909 44.9043 23.6138 49.771 31.9375 54.6385Z" fill="#38A543" stroke="#082422" stroke-width="0.0913095" stroke-miterlimit="10"/>
<path d="M15.6554 33.4369C20.2696 30.7644 25.606 28.5143 30.9424 26.2634C36.2789 24.0125 41.616 21.7617 46.2302 19.09C49.6078 17.1336 52.5984 14.9519 54.9184 12.3792C63.2622 17.2424 71.6052 22.1056 79.9489 26.9696C77.6289 29.5424 74.6383 31.724 71.2607 33.6804C66.6466 36.3529 61.3101 38.603 55.9737 40.8539C50.6373 43.1048 45.3001 45.3557 40.6859 48.0281C37.3084 49.9845 34.3177 52.1654 31.9977 54.7382C23.654 49.8749 15.311 45.0117 6.96722 40.1477C9.28721 37.5757 12.2779 35.3933 15.6554 33.4377V33.4369Z" fill="#60D06F" stroke="#082422" stroke-width="0.0913095" stroke-miterlimit="10"/>
<path d="M20.5798 34.6642C24.5908 32.3504 29.1402 30.349 33.6896 28.3476C38.2383 26.3463 42.7869 24.3456 46.7979 22.0318C48.2679 21.1836 49.6667 20.293 50.9664 19.3456C51.1761 19.2223 51.442 19.2276 51.6184 19.3297C53.2983 20.3051 55.771 20.3648 57.3607 19.4478C57.6091 19.3048 57.8356 19.1375 58.0347 18.9461C58.0681 18.9136 58.1067 18.8856 58.1491 18.8614C58.3589 18.7403 58.6588 18.7221 58.8837 18.853C62.179 20.7659 65.4735 22.6795 68.7687 24.5923C69.0391 24.7489 69.0671 25.0425 68.8657 25.2355C67.3941 26.6504 67.5494 28.5799 69.5026 29.7134C69.7169 29.8375 69.7601 30.0562 69.5662 30.1977C68.278 31.1344 66.8943 32.0144 65.4386 32.8543C61.4277 35.1682 56.879 37.1688 52.3304 39.1701C47.7809 41.1715 43.2323 43.1729 39.2213 45.486C37.7498 46.335 36.3502 47.2263 35.0498 48.1744C34.8112 48.3151 34.5075 48.3068 34.3076 48.1911C32.6301 47.2172 30.1626 47.1567 28.576 48.0723C28.326 48.2168 28.0973 48.3848 27.8981 48.5777C27.8678 48.6065 27.8337 48.6322 27.7959 48.6541C27.6065 48.7631 27.3354 48.7782 27.1317 48.6609C23.8069 46.7307 20.4829 44.8005 17.1581 42.8702C16.9142 42.7287 16.8862 42.4639 17.0672 42.2891C18.535 40.8719 18.3774 38.9416 16.4242 37.8074C16.2356 37.6977 16.2 37.5062 16.3697 37.3822C17.6814 36.4227 19.0939 35.5223 20.5806 34.6642H20.5798Z" fill="#80E58A" stroke="#082422" stroke-width="0.0913095" stroke-miterlimit="10"/>
<path d="M33.6367 32.1845C34.7013 31.5745 35.8886 30.9819 37.1833 30.4142C41.5842 28.4836 46.0453 27.0111 49.4495 26.0474C51.1694 25.5757 52.6653 25.2552 53.9327 25.1683C55.1992 25.0813 56.2463 25.234 57.0441 25.6951C57.8397 26.1532 58.3137 26.8766 58.4326 27.7625C58.5507 28.6477 58.3046 29.6885 57.634 30.7657C56.7126 32.2994 54.8662 33.858 52.3125 35.3199C51.2479 35.9299 50.0606 36.5226 48.7659 37.0902C44.365 39.0208 39.9047 40.4933 36.4998 41.457C34.7798 41.9287 33.2839 42.2492 32.0166 42.3362C30.75 42.4231 29.7037 42.2704 28.9043 41.8101C28.1095 41.352 27.6347 40.6278 27.5159 39.7419C27.3977 38.8568 27.6446 37.8159 28.3145 36.7395C29.2358 35.205 31.0823 33.6471 33.636 32.1845H33.6367Z" fill="#60D06F" stroke="#082422" stroke-width="0.0913095" stroke-miterlimit="10"/>
<path d="M51.074 1.19067L52.3916 2.71097C52.9652 3.37229 53.0717 4.40913 52.5711 5.47638C51.8987 6.91002 50.3574 7.91493 48.9516 7.91493C48.7782 7.91493 48.6062 7.89973 48.4389 7.8678C46.9585 7.58655 45.396 7.44516 43.7939 7.44516C29.0495 7.44516 13.5931 19.4312 9.33756 34.1628C7.79937 39.4869 7.86631 44.5449 9.51557 48.9157L8.19799 47.3954C6.55026 43.0246 6.48179 37.9666 8.01998 32.6425C12.2755 17.9109 27.7319 5.92487 42.4763 5.92487C44.0784 5.92487 45.6409 6.06777 47.1213 6.34751C47.2887 6.37943 47.4606 6.39464 47.634 6.39464C49.0398 6.39464 50.5811 5.38972 51.2536 3.95609C51.7541 2.88884 51.6476 1.852 51.074 1.19067Z" fill="#97B000" stroke="#002522" stroke-width="0.0913095" stroke-linejoin="round"/>
<path d="M8.19996 47.3953L9.51754 48.9156L4.0251 53.1693L2.70752 51.649L8.19996 47.3953Z" fill="#97B000" stroke="#002522" stroke-width="0.0913095" stroke-linejoin="round"/>
<path d="M10.7797 45.3953L12.0973 46.9156L11.8508 58.3314L10.5332 56.8111L10.7797 45.3953Z" fill="#97B000" stroke="#002522" stroke-width="0.0913095" stroke-linejoin="round"/>
<path d="M10.5345 56.812L11.8521 58.3323L1.31758 55.2659L0 53.7456L10.5345 56.812Z" fill="#97B000" stroke="#002522" stroke-width="0.0913095" stroke-linejoin="round"/>
<path d="M49.858 0.515923C48.0505 0.173857 46.1441 -0.000976562 44.1906 -0.000976562C35.465 -0.000976562 26.28 3.39384 18.3289 9.55863C10.3778 15.7249 4.61152 23.9224 2.09352 32.6428C0.0988945 39.5479 0.314941 46.0897 2.70818 51.6479L0 53.7444L10.5345 56.8093L10.781 45.395L8.20063 47.3942C6.55289 43.0233 6.48443 37.9653 8.02262 32.6412C12.2781 17.9096 27.7346 5.9236 42.4789 5.9236C44.081 5.9236 45.6436 6.06651 47.1239 6.34625C47.2913 6.37817 47.4632 6.39338 47.6367 6.39338C49.0425 6.39338 50.5837 5.38846 51.2562 3.95483C52.0108 2.34484 51.3855 0.804779 49.8565 0.514403L49.858 0.515923Z" fill="#DCFF00" stroke="#002522" stroke-width="0.0913095" stroke-linejoin="round"/>
</g>
<defs>
<clipPath id="clip0_664_11596">
<rect width="87" height="80" fill="white"/>
</clipPath>
</defs>
</svg>
