<svg width="82" height="80" viewBox="0 0 82 80" fill="none" xmlns="http://www.w3.org/2000/svg">
<g clip-path="url(#clip0_664_11605)">
<path d="M80.9784 78.2067L76.3022 77.0733C78.187 75.2512 79.3957 72.597 79.4101 69.6415C79.4388 64.0891 75.3093 59.5841 70.187 59.5554C69.2518 59.5554 68.3165 59.6988 67.4245 60.0001V59.5554C67.4532 56.3846 65.0791 53.8165 62.1583 53.8021C60.6043 53.8021 59.1223 54.5339 58.1151 55.8251C58.3741 54.2613 57.4101 52.7691 55.9712 52.4966C54.7194 52.2526 53.4964 53.0131 53.036 54.29C52.1295 53.9743 51.1942 53.8165 50.259 53.8165C50.1727 53.8165 50.1007 53.8308 50.0144 53.8308C46.964 49.828 46.4029 42.4105 46.4029 38.0489C46.4029 37.2598 45.8273 36.5999 45.0935 36.5999H36.9065C36.1727 36.6142 35.5971 37.2742 35.5971 38.0633C35.5971 42.4248 35.036 49.8423 32 53.8452C30.964 53.8165 29.9281 53.9456 28.9352 54.29C28.4029 52.8122 26.8633 52.0805 25.5108 52.6544C24.3309 53.1565 23.6403 54.4765 23.8561 55.8394C21.9568 53.4291 18.6187 53.1565 16.4029 55.2082C15.1223 56.399 14.446 58.178 14.5611 60.0001C9.66906 58.3932 4.48921 61.3775 3.00719 66.6859C1.92806 70.5453 3.10791 74.5625 5.69784 77.0877L1.02158 78.2211C0.661869 78.3072 0.359711 78.5367 0.359711 78.9384C0.359711 79.3402 0.661869 79.6558 1.02158 79.6558H80.9784C81.3381 79.6558 81.6403 79.3402 81.6403 78.9384C81.6403 78.5367 81.3381 78.3072 80.9784 78.2211V78.2067Z" fill="white"/>
<path d="M45.0929 36.5996C45.8267 36.5996 46.4166 37.2596 46.4022 38.0487C46.4022 42.4103 46.9634 49.8421 50.0137 53.8306C50.1001 53.8306 50.172 53.8163 50.2583 53.8163C51.208 53.8163 52.1432 53.9741 53.0353 54.2897C53.4382 53.1707 54.431 52.4533 55.5101 52.4533C55.6684 52.4533 55.8123 52.4677 55.9706 52.4963C57.4094 52.7689 58.3734 54.2611 58.1144 55.8249C59.1216 54.548 60.5893 53.8019 62.1432 53.8019C65.0641 53.8019 67.4238 56.3844 67.4238 59.5408V59.9856C68.2871 59.6843 69.208 59.5408 70.1288 59.5408C70.1432 59.5408 70.1576 59.5408 70.172 59.5408C75.2943 59.5695 79.4094 64.0889 79.395 69.6269C79.395 72.5824 78.1864 75.2367 76.2871 77.0588L80.9634 78.1922C81.3231 78.2783 81.6252 78.5078 81.6252 78.9095C81.6252 79.3113 81.3231 79.6269 80.9634 79.6269H1.02093C0.661214 79.6269 0.359056 79.3113 0.359056 78.9095C0.359056 78.5078 0.661214 78.2783 1.02093 78.1922L5.69719 77.0588C3.09287 74.5336 1.91301 70.5164 3.00654 66.657C4.21517 62.3242 7.89862 59.5265 11.8698 59.5265C12.7619 59.5265 13.6684 59.6699 14.5605 59.9569C14.431 58.1348 15.1216 56.3557 16.4022 55.1649C17.395 54.2467 18.618 53.7876 19.8411 53.7876C21.3375 53.7876 22.8195 54.4619 23.8698 55.7962C23.654 54.4476 24.3447 53.1133 25.5245 52.6111C25.8411 52.482 26.1576 52.4103 26.4886 52.4103C27.5533 52.4103 28.5461 53.1133 28.9634 54.2467C29.8555 53.9454 30.7907 53.8019 31.726 53.8019C31.8267 53.8019 31.9274 53.8019 32.0281 53.8019C35.0785 49.7991 35.6252 42.3959 35.6252 38.02C35.6252 37.2309 36.2008 36.571 36.9346 36.5566H45.1216M45.0929 36.241H36.9058C35.9706 36.2697 35.2368 37.0875 35.2368 38.0631C35.2368 41.3055 34.9058 49.2539 31.8123 53.472C31.7691 53.472 31.726 53.472 31.6828 53.472C30.7907 53.472 29.9274 53.5867 29.1216 53.8306C28.6037 52.7689 27.5677 52.0803 26.4454 52.0803C26.0713 52.0803 25.6972 52.152 25.3519 52.3098C24.3159 52.7402 23.6109 53.7589 23.467 54.8923C22.4598 53.9741 21.1648 53.4576 19.8123 53.4576C18.4598 53.4576 17.1504 53.9741 16.1288 54.9354C14.8914 56.0831 14.1864 57.7618 14.1576 59.4978C13.395 59.2969 12.618 59.1821 11.8411 59.1821C7.56769 59.1821 3.86985 62.152 2.63244 66.571C1.61085 70.2008 2.53172 74.175 4.97776 76.8722L0.920207 77.8478C0.359056 77.977 -0.0150452 78.393 -0.0150452 78.9095C-0.0150452 79.4978 0.445386 79.9856 1.00654 79.9856H80.9634C81.5245 79.9856 81.9849 79.4978 81.9849 78.9095C81.9849 78.393 81.6108 77.977 81.0497 77.8478L76.9921 76.8722C78.7475 74.9497 79.7403 72.3385 79.7547 69.6413C79.7835 63.9024 75.4814 59.2108 70.1864 59.1965C69.3519 59.1965 68.5605 59.2969 67.7979 59.5121C67.7691 56.1692 65.2511 53.4576 62.1576 53.4576C60.7907 53.4576 59.5101 53.9741 58.4885 54.9067C58.3159 53.558 57.3519 52.4103 56.0281 52.152C55.8554 52.1233 55.6684 52.0946 55.4957 52.0946C54.3734 52.0946 53.3375 52.7833 52.8195 53.845C51.9849 53.5867 51.1216 53.4576 50.2439 53.4576C50.2152 53.4576 50.1864 53.4576 50.172 53.4576C47.0929 49.2395 46.7475 41.2912 46.7475 38.0487C46.7475 37.0588 46.0137 36.2553 45.0785 36.241H45.0929Z" fill="#001F1D"/>
<path d="M50.5322 76.8575C49.6401 76.8575 48.7624 76.628 47.971 76.1689C46.6329 75.3941 45.6401 74.0455 45.2516 72.4673C44.9206 71.1473 45.0358 69.7557 45.5393 68.5218C43.9566 67.8188 43.1365 65.8819 43.712 64.1172C43.9134 63.4716 44.2875 62.9121 44.7911 62.496C44.8631 62.4386 44.9782 62.4386 45.0501 62.5247C45.1077 62.5964 45.1077 62.7112 45.0214 62.7829C44.5753 63.156 44.2444 63.6581 44.0573 64.2463C43.5537 65.8389 44.2732 67.5749 45.6976 68.2062C46.6185 66.4558 48.23 65.2793 49.9998 65.0785C50.0861 65.0498 50.1868 65.1359 50.2012 65.2363C50.2012 65.3367 50.1437 65.4228 50.0429 65.4372C48.3883 65.6237 46.8775 66.7284 46.0142 68.3783L45.9566 68.4931C45.4099 69.6983 45.2947 71.0756 45.6113 72.3669C45.971 73.859 46.9063 75.1215 48.1581 75.8389C49.2947 76.4989 50.6185 76.6567 51.8703 76.298L52.0429 76.2406C52.1437 76.1976 52.2444 76.2406 52.2732 76.3554C52.3019 76.4415 52.2588 76.5562 52.1581 76.5849L51.9854 76.6423C51.5106 76.7858 51.0214 76.8432 50.5465 76.8432L50.5322 76.8575ZM67.1796 74.4902C67.1796 74.4902 67.1077 74.4902 67.0789 74.4616C66.9926 74.4042 66.9782 74.2894 67.0358 74.2176C67.2372 73.9307 67.3523 73.5864 67.3811 73.2133C67.4386 72.2521 66.8199 71.3913 65.9566 71.2334C65.6257 72.4529 64.7911 73.4572 63.6976 73.9307C63.6113 73.9737 63.4962 73.9307 63.4674 73.8446C63.4386 73.7585 63.4674 73.6438 63.5537 73.6007C64.5465 73.1703 65.3235 72.2521 65.6113 71.133C65.6113 71.133 65.6113 71.133 65.6113 71.1187V71.0182C65.7696 70.2291 65.6401 69.4113 65.2804 68.7083C64.8631 67.9192 64.1724 67.3597 63.3523 67.1445C62.5897 66.9436 61.784 67.0584 61.1077 67.4888C61.0214 67.5462 60.9063 67.5175 60.8631 67.4314C60.8055 67.3453 60.8343 67.2306 60.9206 67.1875C61.6832 66.7141 62.5897 66.5706 63.453 66.8001C64.3595 67.044 65.1221 67.661 65.5969 68.5362C65.971 69.2535 66.1293 70.0857 66.0142 70.8891C67.0501 71.0756 67.8127 72.0943 67.7264 73.242C67.6976 73.6725 67.5537 74.0742 67.3091 74.4185C67.2804 74.4759 67.2228 74.4902 67.1652 74.4902H67.1796ZM18.1293 63.2707C18.1293 63.2707 18.0142 63.242 17.9854 63.1846C17.194 62.0082 15.9422 60.4874 14.4027 59.9278C14.3163 59.8991 14.2588 59.7844 14.3019 59.6983C14.3307 59.5978 14.4314 59.5548 14.5322 59.5978C16.1581 60.2004 17.4674 61.7786 18.2876 62.9981C18.3451 63.0842 18.3163 63.1847 18.2444 63.242C18.2156 63.2564 18.1724 63.2707 18.1437 63.2707H18.1293ZM27.2084 55.5376C27.2084 55.5376 27.1365 55.5376 27.0933 55.4945C27.0214 55.4372 26.9926 55.3224 27.0645 55.2506C27.453 54.7341 28.0573 54.2894 28.8343 53.9307C28.9206 53.8877 29.0358 53.9307 29.0789 54.0168C29.1221 54.1029 29.0789 54.2176 28.9926 54.2607C28.2732 54.5907 27.7264 54.9924 27.3667 55.4659C27.3379 55.5089 27.2804 55.5376 27.2228 55.5376H27.2084Z" fill="#001F1D"/>
<path d="M31.4813 76.858C31.0065 76.858 30.5317 76.7862 30.0569 76.6571L29.8698 76.5854C29.7835 76.5567 29.7259 76.4563 29.7547 76.3558C29.7835 76.2554 29.8986 76.2124 29.9849 76.241L30.1576 76.2984C31.395 76.6571 32.7044 76.4993 33.8554 75.8393C35.1072 75.122 36.0425 73.8594 36.4022 72.3673C36.7188 71.0761 36.6036 69.6987 36.0569 68.4936L35.9993 68.3644C35.136 66.7145 33.6252 65.6098 31.9706 65.4233C31.8698 65.4233 31.7979 65.3228 31.8123 65.2224C31.8123 65.122 31.8986 65.0359 32.0137 65.0646C33.7835 65.2654 35.395 66.4276 36.3159 68.1923C37.7259 67.561 38.4598 65.825 37.9562 64.2324C37.7691 63.6442 37.4382 63.1421 36.9921 62.769C36.9202 62.7116 36.9058 62.5969 36.9634 62.5108C37.0209 62.439 37.136 62.4247 37.2224 62.4821C37.7259 62.8982 38.1 63.472 38.3015 64.1033C38.8626 65.868 38.0425 67.8049 36.4741 68.5079C36.9777 69.7418 37.0929 71.1334 36.7619 72.4534C36.3734 74.0316 35.3806 75.3802 34.0425 76.155C33.2367 76.6141 32.359 76.8436 31.4813 76.8436V76.858ZM14.8482 74.4907C14.8482 74.4907 14.7331 74.462 14.7044 74.419C14.4598 74.0746 14.3159 73.6729 14.2871 73.2425C14.2152 72.0947 14.9634 71.0761 15.9993 70.8895C15.8986 70.0718 16.0425 69.254 16.4166 68.5366C16.8914 67.6614 17.654 67.0445 18.5605 66.8006C19.4238 66.571 20.3303 66.7145 21.0929 67.188C21.1792 67.2454 21.208 67.3458 21.1504 67.4319C21.0929 67.518 20.9921 67.5466 20.9058 67.4893C20.2152 67.0588 19.4238 66.9441 18.6612 67.1449C17.8411 67.3601 17.1648 67.9197 16.7331 68.7088C16.359 69.4118 16.2295 70.2296 16.3734 71.0187V71.1191C16.3734 71.1191 16.4022 71.1191 16.4022 71.1334C16.7044 72.2525 17.467 73.1851 18.4598 73.6012C18.5461 73.6442 18.5893 73.7446 18.5461 73.8451C18.5029 73.9312 18.4022 73.9742 18.3159 73.9311C17.2223 73.4577 16.3734 72.4534 16.0569 71.2339C15.1936 71.3917 14.5749 72.2382 14.6324 73.2138C14.6612 73.5725 14.7763 73.9168 14.9777 74.2181C15.0353 74.3042 15.0209 74.4046 14.9346 74.462C14.9058 74.4763 14.8626 74.4907 14.8339 74.4907H14.8482ZM63.8986 63.2712C63.8986 63.2712 63.8267 63.2712 63.7979 63.2425C63.7116 63.1851 63.6972 63.0703 63.7547 62.9986C64.5749 61.7791 65.8842 60.2009 67.5101 59.5983C67.5965 59.5696 67.7116 59.5983 67.7403 59.6987C67.7691 59.7848 67.7403 59.8996 67.6396 59.9283C66.1 60.4878 64.8483 62.0086 64.0569 63.1851C64.0281 63.2425 63.9706 63.2712 63.913 63.2712H63.8986ZM54.5605 55.538C54.5605 55.538 54.4454 55.5093 54.4166 55.452C54.1144 54.9785 53.654 54.5768 53.0353 54.2468C52.949 54.2038 52.9202 54.089 52.9634 54.0029C53.0065 53.9168 53.1216 53.8881 53.208 53.9312C53.8698 54.2898 54.3878 54.7346 54.7188 55.2511C54.7763 55.3372 54.7475 55.4376 54.6612 55.495C54.6324 55.5093 54.6036 55.5237 54.5605 55.5237V55.538Z" fill="#001F1D"/>
<path d="M5.04977 76.6431C5.75481 77.4035 7.13611 78.4221 7.13611 78.4221L5.04977 76.6431Z" fill="white"/>
<path d="M7.12139 78.594C7.12139 78.594 7.04945 78.594 7.02068 78.5653C6.96312 78.5223 5.62499 77.5323 4.91996 76.7719C4.84801 76.7002 4.8624 76.5854 4.91996 76.5137C4.97751 76.4419 5.10701 76.4563 5.17895 76.5137C5.8696 77.2597 7.22211 78.2497 7.2365 78.264C7.32283 78.3214 7.33722 78.4362 7.27967 78.5079C7.25089 78.551 7.19334 78.5797 7.13578 78.5797L7.12139 78.594Z" fill="#001F1D"/>
<path d="M76.6326 77.0159C76.1434 77.5467 75.1794 78.2641 75.1794 78.2641L76.6326 77.0159Z" fill="white"/>
<path d="M75.1792 78.4361C75.1792 78.4361 75.0641 78.4074 75.0353 78.3644C74.9778 78.2783 74.9922 78.1779 75.0785 78.1205C75.0785 78.1205 76.0281 77.4175 76.5029 76.901C76.5749 76.8292 76.69 76.8292 76.7619 76.901C76.8339 76.9727 76.8339 77.0875 76.7619 77.1592C76.2583 77.7044 75.3231 78.3931 75.2799 78.4218C75.2512 78.4505 75.208 78.4505 75.1792 78.4505V78.4361Z" fill="#001F1D"/>
<path d="M34.7191 53.9449C33.6975 53.701 31.9421 53.658 31.9421 53.658L34.7191 53.9449Z" fill="white"/>
<path d="M34.7188 54.1315C34.7188 54.1315 34.69 54.1315 34.6756 54.1315C33.6828 53.9019 31.9562 53.8445 31.9274 53.8445C31.8267 53.8445 31.7548 53.7584 31.7548 53.658C31.7548 53.5576 31.8411 53.4858 31.9274 53.4858C31.9994 53.4858 33.7116 53.5289 34.7476 53.7728C34.8483 53.8015 34.9058 53.8876 34.8771 53.988C34.8627 54.0741 34.7907 54.1315 34.7044 54.1315H34.7188Z" fill="#001F1D"/>
<path d="M43.7832 43.9309C44.0134 47.159 45.3372 52.3527 45.3372 52.3527L43.7832 43.9309Z" fill="white"/>
<path d="M45.3369 52.5247C45.2506 52.5247 45.1786 52.4673 45.1642 52.3956C45.1642 52.3382 43.8405 47.1588 43.5959 43.9451C43.5959 43.8446 43.6678 43.7585 43.7685 43.7585C43.8837 43.7585 43.9556 43.8303 43.9556 43.9307C44.1858 47.1014 45.4952 52.2664 45.5096 52.3238C45.5383 52.4243 45.4808 52.5103 45.3801 52.539C45.3657 52.539 45.3513 52.539 45.3369 52.539V52.5247Z" fill="#001F1D"/>
<path d="M38.8473 41.5066C38.8473 43.8739 38.171 47.7333 38.171 47.7333L38.8473 41.5066Z" fill="white"/>
<path d="M38.171 47.9052C38.171 47.9052 38.1566 47.9052 38.1422 47.9052C38.0415 47.8909 37.9839 47.7905 37.9983 47.7044C37.9983 47.6613 38.6746 43.8306 38.6746 41.5064C38.6746 41.406 38.7609 41.3342 38.8472 41.3342C38.948 41.3342 39.0199 41.4203 39.0199 41.5064C39.0199 43.8593 38.358 47.7187 38.3436 47.7618C38.3292 47.8479 38.2573 47.9052 38.171 47.9052Z" fill="#001F1D"/>
<path d="M31.5202 50.3159C31.5202 50.3159 31.4627 50.3159 31.4339 50.2872C31.3475 50.2441 31.3188 50.1294 31.3619 50.0433C31.3619 50.0289 32.3835 48.2212 32.6569 46.1408C32.6569 46.0404 32.7432 45.9687 32.8583 45.983C32.9591 45.983 33.031 46.0835 33.0166 46.1839C32.7288 48.336 31.7216 50.1437 31.6785 50.2155C31.6497 50.2728 31.5778 50.3015 31.5202 50.3015V50.3159Z" fill="white"/>
<path d="M49.4375 46.1406C49.4375 46.1406 49.2937 46.0976 49.2649 46.0258C49.2217 45.9254 48.2433 43.5725 48.2001 40.8608C48.2001 40.7604 48.2721 40.6743 48.3728 40.6743C48.4735 40.6743 48.5455 40.7461 48.5455 40.8465C48.5886 43.4864 49.567 45.8537 49.5814 45.8824C49.6246 45.9684 49.5814 46.0832 49.4807 46.1119C49.4519 46.1119 49.4375 46.1119 49.4088 46.1119L49.4375 46.1406Z" fill="white"/>
<path d="M49.9762 1.30524L53.6499 3.44154C55.0791 4.27384 56.3228 5.49359 57.288 7.10534C61.5469 14.2492 58.7177 26.3647 50.9854 34.1621C44.9968 40.1993 37.8164 41.8851 32.9054 39.0311L29.2317 36.8948C34.1462 39.7579 41.3267 38.0721 47.3117 32.0258C55.0532 24.2248 57.8732 12.1129 53.6143 4.96905C52.6491 3.35729 51.4146 2.134 49.9762 1.30524Z" fill="#A0B710" stroke="#082422" stroke-width="0.23053"/>
<path d="M31.8885 6.1785C39.6299 -1.62238 49.3512 -2.16142 53.6099 4.98238C57.8687 12.1262 55.0397 24.2416 47.3073 32.0389C39.575 39.8362 29.8446 40.3788 25.5858 33.235C21.3271 26.0912 24.147 13.9794 31.8885 6.1785Z" fill="#DCFF00" stroke="#082422" stroke-width="0.23053"/>
<path d="M39.9482 7.56L44.142 7.40477L43.4864 10.0934C45.3417 10.6867 46.1198 12.2127 45.6309 14.8594L41.2688 15.0228C41.5654 13.7306 41.1849 13.3414 40.4404 13.3678C40.0563 13.3799 39.7561 13.5194 39.5504 13.725C39.3927 13.8777 39.2979 14.0745 39.2445 14.2895C39.0513 15.0845 39.6651 15.2802 40.81 15.6353L41.4101 15.825C44.2684 16.7028 45.1181 17.9725 44.5181 20.4223C44.2242 21.6335 43.6547 22.666 42.8517 23.4808C42.0487 24.2955 41.028 24.8749 39.7898 25.2188L39.0622 28.2211L34.8446 28.3741L35.5761 25.3817C33.3223 24.8518 32.5579 23.1263 33.1157 20.3043L37.7334 20.1215C37.4682 21.4357 37.7103 22.0273 38.6568 21.991C39.0845 21.9733 39.4459 21.8444 39.7096 21.582C39.8734 21.4155 39.9941 21.1972 40.0618 20.9309C40.2242 20.2622 39.7842 20.1018 39.0914 19.8796L37.7611 19.4594C34.9005 18.6053 34.191 17.1669 34.797 14.7033C35.0683 13.5809 35.6036 12.6073 36.3685 11.8417C37.1335 11.076 38.1045 10.5159 39.2992 10.1775L39.9321 7.57765C39.9321 7.57765 39.9443 7.55009 39.968 7.55229L39.9482 7.56Z" fill="white" stroke="#082422" stroke-width="0.23053"/>
<path d="M20.3022 42.3594L19.732 42.9993C19.3411 43.4383 18.8301 43.7834 18.2014 44.0032C15.4178 44.9776 11.4013 43.1454 9.22989 39.9123C7.54867 37.4079 7.46542 34.7977 8.80654 33.2928L9.37669 32.6529C8.03754 34.1579 8.11882 36.7681 9.80004 39.2725C11.9713 42.5075 15.9878 44.3397 18.7716 43.3633C19.4003 43.1435 19.9113 42.7984 20.3022 42.3594Z" fill="#A0B710" stroke="#082422" stroke-width="0.153687"/>
<path d="M19.8791 35.7398C22.0503 38.9749 21.5554 42.3888 18.7718 43.3632C15.9882 44.3376 11.9717 42.5055 9.80036 39.2724C7.62898 36.0393 8.12401 32.6234 10.9076 31.649C13.6912 30.6746 17.7077 32.5068 19.879 35.7418L19.8791 35.7398Z" fill="#D5F412" stroke="#082422" stroke-width="0.153687"/>
<path d="M16.561 36.0872C16.6147 36.1663 16.6662 36.2493 16.7132 36.3379L15.0897 36.5231C15.0586 36.4594 15.025 36.4035 14.993 36.3537C14.8106 36.081 14.5999 36.0063 14.368 36.0331C14.118 36.0624 14.0624 36.199 14.1381 36.357C14.1485 36.3776 14.1591 36.3961 14.1716 36.4149C14.3074 36.6188 14.5861 36.6588 15.0687 36.7295L15.3453 36.7694C16.4778 36.9288 17.1083 37.228 17.5017 37.815C17.5626 37.9046 17.617 38.0016 17.6669 38.1062C18.0337 38.8675 17.8266 39.4506 17.0398 39.744L17.4996 40.6982L15.9281 40.8773L15.4683 39.9231C14.5921 39.8377 13.9319 39.4294 13.4562 38.7196C13.3918 38.6238 13.3317 38.5244 13.2759 38.4194L14.9954 38.2233C15.0303 38.2892 15.0657 38.3472 15.1014 38.4013C15.2944 38.6906 15.5118 38.8093 15.8097 38.7755C16.0656 38.7465 16.193 38.631 16.0847 38.4033C16.0743 38.3828 16.0656 38.3663 16.0531 38.3476C15.9422 38.1831 15.7462 38.151 15.4542 38.1041L14.8421 38.0141C13.727 37.8619 13.1089 37.528 12.7174 36.9431C12.6513 36.8432 12.5915 36.7379 12.5363 36.625C12.1954 35.917 12.3868 35.3586 13.1389 35.0785L12.736 34.2413L14.3075 34.0622L14.7208 34.92C15.4838 35.0347 16.1088 35.4088 16.563 36.0873L16.561 36.0872Z" fill="white" stroke="#082422" stroke-width="0.153687"/>
<path d="M55.0383 53.3269C55.0602 53.2907 55.1072 53.2789 55.1434 53.3006C56.0747 53.8607 57.4542 53.6501 58.7507 52.5668C59.6726 51.7965 60.3681 50.7374 60.7457 49.6479C61.1237 48.5575 61.1804 47.4453 60.8385 46.5663C60.6349 46.0432 60.3141 45.6623 59.918 45.4239C59.8816 45.4021 59.8699 45.3552 59.8918 45.3189C59.9137 45.2825 59.9606 45.2708 59.997 45.2927L60.6203 45.6675C61.0483 45.9251 61.3903 46.3336 61.6049 46.885C61.9641 47.8082 61.8998 48.9596 61.5142 50.0723C61.128 51.1861 60.4173 52.2699 59.4725 53.0594C58.1487 54.1657 56.6961 54.4134 55.6868 53.8064L55.0641 53.4328C55.0277 53.411 55.0163 53.3632 55.0383 53.3269Z" fill="#A0B710" stroke="#082422" stroke-width="0.153687" stroke-miterlimit="10" stroke-linejoin="round"/>
<path d="M54.1693 49.0279C54.5555 47.9143 55.266 46.8312 56.2107 46.0417C57.1551 45.2526 58.1629 44.9004 59.0302 44.9824C59.9012 45.0649 60.6211 45.5851 60.982 46.5125C61.341 47.4357 61.2769 48.5872 60.8912 49.6998C60.5051 50.8137 59.7944 51.8974 58.8495 52.6869C57.9049 53.476 56.8977 53.8273 56.0304 53.7453C55.1592 53.6629 54.4391 53.1435 54.0783 52.2161C53.719 51.2928 53.7836 50.1407 54.1693 49.0279Z" fill="#D5F412" stroke="#082422" stroke-width="0.153687" stroke-miterlimit="10" stroke-linejoin="round"/>
<path d="M56.2329 47.7138L57.1895 46.9143C57.2205 46.8883 57.2665 46.891 57.2944 46.9201L57.2953 46.9205C57.3022 46.9277 57.3074 46.9366 57.311 46.9459L57.4778 47.3783C57.7268 47.2525 57.956 47.1954 58.16 47.2291C58.3891 47.2672 58.5694 47.4136 58.6963 47.6544C58.7132 47.6864 58.7051 47.7261 58.6773 47.7493L57.6954 48.5698C57.6786 48.5838 57.6565 48.5904 57.6349 48.5874C57.6135 48.5843 57.5948 48.5718 57.5827 48.5539C57.5309 48.4771 57.4807 48.4504 57.4341 48.448C57.3834 48.4454 57.3125 48.4701 57.2187 48.5485C57.1315 48.6214 57.0761 48.6932 57.0471 48.7542C57.0178 48.816 57.019 48.8596 57.0287 48.8846C57.0373 48.9068 57.0445 48.9092 57.0474 48.9101C57.0558 48.9128 57.0766 48.9148 57.12 48.9022C57.2079 48.8766 57.3369 48.8091 57.5274 48.7083L57.7155 48.6114L58.0022 48.4724C58.2721 48.352 58.4924 48.288 58.6716 48.2926C58.7946 48.2959 58.9012 48.3315 58.9897 48.4039C59.0768 48.4753 59.1411 48.578 59.1906 48.7054C59.3835 49.201 59.1679 49.7985 58.6492 50.388L58.8542 50.9123C58.8662 50.943 58.8571 50.9785 58.8317 50.9997L57.8751 51.7992C57.8561 51.8151 57.83 51.8208 57.8061 51.8147C57.7822 51.8085 57.7625 51.7906 57.7536 51.7676L57.5636 51.279C57.2773 51.4349 57.0229 51.4994 56.8041 51.4635C56.5608 51.4234 56.3791 51.2633 56.2555 51.015L56.2478 50.9904C56.2446 50.9652 56.2544 50.9394 56.2747 50.9223L57.3168 50.0509C57.3344 50.0362 57.3584 50.0305 57.3809 50.0347C57.4032 50.0389 57.4226 50.0527 57.4336 50.0725C57.4821 50.1599 57.5338 50.1885 57.5853 50.1899C57.6444 50.1914 57.7286 50.1589 57.8406 50.0654C57.9404 49.9821 58.0127 49.8996 58.0527 49.8256C58.0926 49.7518 58.0969 49.6942 58.0801 49.6506C58.0764 49.6413 58.0728 49.6367 58.0713 49.635C58.0704 49.6341 58.0701 49.6336 58.0697 49.6334C58.0676 49.6325 58.0559 49.6296 58.027 49.6366C57.9673 49.651 57.8824 49.6934 57.7567 49.7566L57.3587 49.9643L57.0718 50.1042C56.8027 50.2232 56.584 50.2773 56.4054 50.2612C56.2831 50.2502 56.1795 50.207 56.0944 50.1307C56.0105 50.0555 55.9481 49.9523 55.8999 49.8284C55.7236 49.3751 55.8999 48.8248 56.3881 48.2605L56.2107 47.8003L56.208 47.7536C56.2119 47.7385 56.2202 47.7244 56.2329 47.7138Z" fill="white" stroke="#082422" stroke-width="0.153687" stroke-miterlimit="10" stroke-linejoin="round"/>
<path d="M15.4875 14.8358C15.4822 14.8321 15.4656 14.8208 15.4386 14.8046C15.4281 14.7988 15.4165 14.7916 15.4031 14.7838C15.3748 14.767 15.3399 14.7459 15.2989 14.7254C15.2276 14.6881 15.149 14.6514 15.0652 14.6159C15.0492 14.6092 15.0329 14.6023 15.016 14.5957C14.9453 14.567 14.8722 14.5399 14.7989 14.5156C14.695 14.4806 14.5826 14.4482 14.4653 14.4196C14.3463 14.3904 14.2209 14.365 14.0931 14.3442C14.0093 14.3306 13.9182 14.319 13.8079 14.3081C13.7974 14.1936 13.7863 14.0988 13.7732 14.0109C13.7628 13.9436 13.7517 13.8771 13.7395 13.8132C13.7305 13.765 13.7208 13.717 13.7107 13.6705C13.6801 13.5297 13.6455 13.3976 13.6079 13.2774C13.5875 13.2118 13.566 13.1476 13.5442 13.0872C13.5378 13.0693 13.5311 13.0516 13.5247 13.0346C13.4874 12.9363 13.4464 12.8406 13.4065 12.7583L13.254 12.4551C13.1827 12.6305 13.0005 13.0881 12.9438 13.2725C12.8757 13.4904 12.8183 13.745 12.7779 14.0086C12.7651 14.0936 12.7543 14.1864 12.7444 14.2913C12.6402 14.3017 12.5535 14.3127 12.4723 14.3257C12.2202 14.3667 11.9752 14.4263 11.7636 14.498C11.5369 14.5737 11.3654 14.6549 11.2615 14.7095C11.2202 14.7303 11.1853 14.7514 11.1539 14.7702L11.1201 14.7902C11.086 14.8107 11.068 14.8237 11.068 14.8237L11.0293 14.852L11.068 14.8803C11.068 14.8803 11.086 14.8934 11.1207 14.9145L11.1492 14.9312L11.1559 14.9353C11.1844 14.9523 11.2196 14.9734 11.261 14.9942C11.3652 15.0489 11.5366 15.1301 11.7633 15.2058C11.9752 15.2775 12.2202 15.337 12.472 15.3781C12.5526 15.3911 12.639 15.4021 12.7429 15.4122C12.7526 15.5165 12.7633 15.6093 12.7761 15.6951C12.8157 15.957 12.8728 16.2113 12.9417 16.4313C13.0151 16.6677 13.2028 17.138 13.2549 17.2455L13.3032 17.1429L13.3227 17.1042L13.3253 17.0998L13.3303 17.0909C13.3355 17.0805 13.3425 17.0683 13.3501 17.0547C13.3611 17.0345 13.3742 17.0114 13.3876 16.9848C13.3937 16.9724 13.4004 16.9591 13.4068 16.9455L13.4179 16.9221C13.4671 16.8183 13.5404 16.6484 13.6088 16.4261C13.6341 16.3452 13.658 16.259 13.6798 16.1703C13.7174 16.018 13.7488 15.8573 13.7738 15.6925C13.7828 15.6315 13.7913 15.5662 13.798 15.4992C13.8018 15.4648 13.8052 15.4301 13.8082 15.3954C13.841 15.3922 13.8739 15.3888 13.9068 15.385C13.9319 15.3821 13.9569 15.3789 13.9816 15.3757C14.0189 15.3708 14.0558 15.3653 14.0922 15.3596C14.2674 15.3307 14.4365 15.294 14.5946 15.25C14.6644 15.2307 14.7328 15.2098 14.798 15.1879C15.0233 15.1127 15.1941 15.0324 15.2977 14.9783L15.3198 14.9668C15.3358 14.9584 15.3507 14.95 15.3644 14.9419L15.3929 14.9251L15.4071 14.9168L15.4394 14.8977L15.4453 14.8942L15.475 14.8754L15.5049 14.8491L15.4866 14.8364L15.4875 14.8358Z" fill="white"/>
<path d="M18.6931 9.25362C18.6905 9.25162 18.6822 9.24561 18.6686 9.23698C18.6634 9.23389 18.6576 9.23004 18.6509 9.22588C18.6368 9.21694 18.6193 9.20568 18.5988 9.19474C18.5631 9.17485 18.5238 9.15528 18.4819 9.13632C18.4739 9.13277 18.4658 9.12907 18.4573 9.12553C18.422 9.11026 18.3854 9.09577 18.3488 9.08283C18.2968 9.06417 18.2407 9.04691 18.182 9.03165C18.1225 9.01608 18.0598 9.00251 17.9959 8.99141C17.954 8.98417 17.9084 8.978 17.8533 8.97215C17.848 8.9111 17.8425 8.86054 17.836 8.81368C17.8307 8.77776 17.8252 8.74231 17.8191 8.70824C17.8146 8.6825 17.8098 8.65691 17.8047 8.63209C17.7894 8.55702 17.7721 8.48657 17.7533 8.42244C17.7431 8.38745 17.7323 8.35323 17.7214 8.32101C17.7182 8.31146 17.7149 8.30205 17.7117 8.29296C17.6931 8.24055 17.6725 8.18952 17.6526 8.14559L17.5763 7.98389C17.5407 8.07746 17.4496 8.32148 17.4212 8.41982C17.3872 8.53605 17.3585 8.67186 17.3383 8.81245C17.3319 8.85777 17.3265 8.90725 17.3215 8.9632C17.2694 8.96875 17.2261 8.97461 17.1855 8.98155C17.0595 9.00344 16.9369 9.03519 16.8311 9.07342C16.7178 9.11381 16.6321 9.15713 16.5801 9.18626C16.5595 9.19736 16.542 9.20861 16.5263 9.21863L16.5094 9.22927C16.4924 9.24021 16.4833 9.24715 16.4833 9.24715L16.464 9.26226L16.4833 9.27736C16.4833 9.27736 16.4924 9.2843 16.5097 9.29555L16.5239 9.30449L16.5273 9.30665C16.5416 9.31575 16.5592 9.327 16.5798 9.3381C16.6319 9.36723 16.7176 9.41055 16.831 9.45094C16.9369 9.48917 17.0595 9.52092 17.1853 9.54281C17.2256 9.54975 17.2689 9.55561 17.3208 9.561C17.3256 9.61665 17.331 9.66613 17.3374 9.71191C17.3572 9.85157 17.3857 9.98723 17.4202 10.1045C17.4569 10.2306 17.5507 10.4814 17.5768 10.5388L17.6009 10.4841L17.6107 10.4634L17.612 10.4611L17.6145 10.4563C17.6171 10.4508 17.6206 10.4443 17.6244 10.437C17.6299 10.4262 17.6364 10.4139 17.6431 10.3997C17.6462 10.3931 17.6495 10.386 17.6527 10.3788L17.6583 10.3663C17.6829 10.3109 17.7195 10.2203 17.7537 10.1018C17.7664 10.0586 17.7783 10.0127 17.7892 9.96534C17.808 9.8841 17.8237 9.79839 17.8362 9.71053C17.8408 9.678 17.845 9.64316 17.8483 9.6074C17.8502 9.58906 17.852 9.57056 17.8534 9.55206C17.8699 9.55036 17.8863 9.54851 17.9028 9.54651C17.9153 9.54497 17.9278 9.54327 17.9402 9.54158C17.9588 9.53896 17.9773 9.53603 17.9954 9.53294C18.0831 9.51753 18.1676 9.49795 18.2466 9.47452C18.2815 9.46419 18.3157 9.45309 18.3483 9.44138C18.461 9.4013 18.5464 9.35845 18.5982 9.32962L18.6093 9.32345C18.6173 9.31898 18.6247 9.31451 18.6315 9.3102L18.6458 9.30126L18.6529 9.29679L18.6691 9.28661L18.672 9.28476L18.6868 9.27474L18.7018 9.26072L18.6926 9.25393L18.6931 9.25362Z" fill="white"/>
<path d="M67.7565 27.7699C67.7512 27.7662 67.7347 27.7549 67.7076 27.7387C67.6971 27.7329 67.6855 27.7257 67.6721 27.7179C67.6438 27.7011 67.6089 27.68 67.5679 27.6595C67.4966 27.6222 67.418 27.5855 67.3342 27.55C67.3182 27.5433 67.3019 27.5364 67.285 27.5297C67.2143 27.5011 67.1412 27.4739 67.0679 27.4497C66.964 27.4147 66.8516 27.3823 66.7343 27.3537C66.6153 27.3245 66.4899 27.2991 66.3621 27.2783C66.2783 27.2647 66.1872 27.2531 66.0769 27.2421C66.0664 27.1277 66.0553 27.0329 66.0422 26.945C66.0318 26.8777 66.0207 26.8112 66.0085 26.7473C65.9995 26.6991 65.9899 26.6511 65.9797 26.6045C65.9491 26.4638 65.9145 26.3317 65.8769 26.2115C65.8566 26.1458 65.835 26.0817 65.8132 26.0213C65.8068 26.0034 65.8001 25.9857 65.7937 25.9687C65.7564 25.8704 65.7154 25.7747 65.6755 25.6924L65.523 25.3892C65.4517 25.5646 65.2695 26.0221 65.2128 26.2065C65.1447 26.4245 65.0873 26.6791 65.0469 26.9427C65.0341 27.0277 65.0233 27.1205 65.0134 27.2254C64.9092 27.2358 64.8225 27.2468 64.7413 27.2598C64.4893 27.3008 64.2442 27.3604 64.0326 27.432C63.8059 27.5078 63.6345 27.589 63.5306 27.6436C63.4892 27.6644 63.4543 27.6855 63.4229 27.7043L63.3891 27.7243C63.3551 27.7448 63.337 27.7578 63.337 27.7578L63.2983 27.7861L63.337 27.8144C63.337 27.8144 63.3551 27.8274 63.3897 27.8485L63.4182 27.8653L63.4249 27.8693C63.4534 27.8864 63.4887 27.9075 63.53 27.9283C63.6342 27.9829 63.8056 28.0642 64.0323 28.1399C64.2442 28.2116 64.4893 28.2711 64.741 28.3121C64.8216 28.3251 64.9081 28.3361 65.012 28.3462C65.0216 28.4506 65.0323 28.5434 65.0451 28.6292C65.0847 28.8911 65.1418 29.1454 65.2107 29.3654C65.2841 29.6018 65.4718 30.0721 65.5239 30.1796L65.5722 30.077L65.5917 30.0382L65.5943 30.0339L65.5993 30.0249C65.6045 30.0145 65.6115 30.0024 65.6191 29.9888C65.6301 29.9686 65.6432 29.9455 65.6566 29.9189C65.6627 29.9064 65.6694 29.8931 65.6758 29.8796L65.6869 29.8562C65.7361 29.7524 65.8094 29.5824 65.8778 29.3602C65.9031 29.2792 65.927 29.1931 65.9488 29.1044C65.9864 28.9521 66.0178 28.7914 66.0428 28.6266C66.0519 28.5656 66.0603 28.5003 66.067 28.4332C66.0708 28.3989 66.0743 28.3642 66.0772 28.3295C66.1101 28.3263 66.1429 28.3228 66.1758 28.3191C66.2009 28.3162 66.2259 28.313 66.2506 28.3098C66.2879 28.3049 66.3248 28.2994 66.3612 28.2936C66.5364 28.2647 66.7055 28.228 66.8636 28.1841C66.9334 28.1647 67.0018 28.1439 67.067 28.122C67.2923 28.0468 67.4631 27.9665 67.5667 27.9124L67.5888 27.9008C67.6048 27.8925 67.6197 27.8841 67.6334 27.876L67.6619 27.8592L67.6762 27.8508L67.7085 27.8318L67.7143 27.8283L67.744 27.8095L67.7739 27.7832L67.7556 27.7705L67.7565 27.7699Z" fill="white"/>
<path d="M61.2116 36.559C61.209 36.557 61.2007 36.551 61.1872 36.5424C61.1819 36.5393 61.1761 36.5355 61.1694 36.5313C61.1553 36.5224 61.1378 36.5111 61.1173 36.5002C61.0816 36.4803 61.0424 36.4607 61.0004 36.4417C60.9924 36.4382 60.9843 36.4345 60.9759 36.4309C60.9405 36.4157 60.904 36.4012 60.8673 36.3882C60.8153 36.3696 60.7592 36.3523 60.7005 36.3371C60.641 36.3215 60.5783 36.3079 60.5144 36.2968C60.4725 36.2896 60.427 36.2834 60.3718 36.2776C60.3666 36.2165 60.361 36.166 60.3545 36.1191C60.3492 36.0832 60.3437 36.0477 60.3376 36.0137C60.3331 35.9879 60.3283 35.9623 60.3232 35.9375C60.3079 35.8624 60.2906 35.792 60.2718 35.7279C60.2616 35.6929 60.2509 35.6587 60.24 35.6264C60.2368 35.6169 60.2334 35.6075 60.2302 35.5984C60.2116 35.546 60.1911 35.4949 60.1711 35.451L60.0949 35.2893C60.0592 35.3829 59.9681 35.6269 59.9397 35.7252C59.9057 35.8415 59.877 35.9773 59.8568 36.1179C59.8504 36.1632 59.845 36.2127 59.8401 36.2686C59.788 36.2742 59.7446 36.28 59.704 36.287C59.578 36.3089 59.4555 36.3406 59.3497 36.3788C59.2363 36.4192 59.1506 36.4625 59.0986 36.4917C59.078 36.5028 59.0605 36.514 59.0448 36.5241L59.0279 36.5347C59.0109 36.5456 59.0019 36.5526 59.0019 36.5526L58.9825 36.5677L59.0019 36.5828C59.0019 36.5828 59.0109 36.5897 59.0282 36.601L59.0425 36.6099L59.0458 36.6121C59.0601 36.6212 59.0777 36.6324 59.0983 36.6435C59.1504 36.6727 59.2362 36.716 59.3495 36.7564C59.4555 36.7946 59.578 36.8263 59.7039 36.8482C59.7442 36.8552 59.7874 36.861 59.8393 36.8664C59.8441 36.9221 59.8495 36.9716 59.8559 37.0173C59.8757 37.157 59.9042 37.2926 59.9387 37.41C59.9754 37.5361 60.0693 37.7869 60.0953 37.8442L60.1195 37.7895L60.1292 37.7688L60.1305 37.7665L60.133 37.7617C60.1356 37.7562 60.1391 37.7497 60.1429 37.7425C60.1484 37.7317 60.155 37.7193 60.1617 37.7052C60.1647 37.6985 60.1681 37.6914 60.1713 37.6842L60.1768 37.6717C60.2014 37.6164 60.2381 37.5257 60.2723 37.4072C60.2849 37.364 60.2969 37.3181 60.3078 37.2708C60.3265 37.1895 60.3423 37.1038 60.3548 37.0159C60.3593 36.9834 60.3635 36.9486 60.3669 36.9128C60.3687 36.8945 60.3705 36.876 60.3719 36.8575C60.3884 36.8558 60.4048 36.8539 60.4213 36.8519C60.4338 36.8504 60.4463 36.8487 60.4587 36.847C60.4773 36.8444 60.4958 36.8414 60.514 36.8384C60.6016 36.8229 60.6861 36.8034 60.7651 36.7799C60.8001 36.7696 60.8343 36.7585 60.8669 36.7468C60.9795 36.7067 61.0649 36.6639 61.1167 36.635L61.1278 36.6289C61.1358 36.6244 61.1432 36.6199 61.15 36.6156L61.1643 36.6067L61.1714 36.6022L61.1876 36.592L61.1905 36.5902L61.2053 36.5802L61.2203 36.5661L61.2112 36.5594L61.2116 36.559Z" fill="white"/>
<path d="M8.62036 49.2515C8.61699 49.2489 8.60633 49.241 8.58893 49.2296C8.58219 49.2256 8.57471 49.2205 8.5661 49.2151C8.54795 49.2033 8.5255 49.1886 8.49912 49.1742C8.45328 49.1481 8.40277 49.1224 8.34888 49.0975C8.33859 49.0929 8.32811 49.088 8.31726 49.0834C8.2718 49.0633 8.22484 49.0443 8.17769 49.0273C8.11089 49.0028 8.03867 48.9802 7.96327 48.9601C7.88675 48.9397 7.80611 48.9219 7.72397 48.9073C7.67009 48.8978 7.61153 48.8897 7.54062 48.8821C7.53388 48.8019 7.52677 48.7356 7.51835 48.6741C7.51162 48.6269 7.50451 48.5804 7.49665 48.5357C7.49085 48.5019 7.48468 48.4683 7.47813 48.4357C7.45848 48.3372 7.43622 48.2447 7.41208 48.1606C7.39899 48.1146 7.38514 48.0697 7.37111 48.0274C7.36699 48.0149 7.36269 48.0026 7.35857 47.9906C7.33462 47.9218 7.30824 47.8549 7.28261 47.7972L7.18457 47.585C7.13873 47.7078 7.02161 48.028 6.98512 48.1571C6.94134 48.3097 6.90449 48.4879 6.87848 48.6724C6.87025 48.7319 6.86332 48.7969 6.85696 48.8703C6.78998 48.8776 6.73423 48.8853 6.68203 48.8944C6.52 48.9231 6.36246 48.9648 6.22644 49.015C6.08069 49.068 5.97049 49.1248 5.9037 49.1631C5.87713 49.1776 5.85468 49.1924 5.83447 49.2056L5.81277 49.2195C5.79088 49.2339 5.77928 49.243 5.77928 49.243L5.75439 49.2628L5.77928 49.2826C5.77928 49.2826 5.79088 49.2918 5.81314 49.3065L5.83148 49.3183L5.83578 49.3211C5.85412 49.333 5.87676 49.3478 5.90332 49.3624C5.97031 49.4006 6.08051 49.4575 6.22626 49.5105C6.36246 49.5606 6.52 49.6023 6.68184 49.631C6.73367 49.6402 6.78923 49.6478 6.85603 49.6549C6.8622 49.728 6.86912 49.7929 6.87736 49.853C6.9028 50.0363 6.93947 50.2143 6.98382 50.3683C7.03096 50.5338 7.15164 50.863 7.18513 50.9383L7.21619 50.8664L7.22873 50.8393L7.23041 50.8363L7.23359 50.83C7.23696 50.8227 7.24145 50.8142 7.24631 50.8047C7.25342 50.7906 7.26184 50.7744 7.27045 50.7558C7.27438 50.7471 7.27868 50.7378 7.2828 50.7282L7.28991 50.7119C7.32153 50.6392 7.36868 50.5203 7.41264 50.3647C7.42892 50.308 7.44426 50.2477 7.4583 50.1856C7.48243 50.079 7.50264 49.9665 7.51873 49.8512C7.52453 49.8085 7.52995 49.7628 7.53426 49.7158C7.53669 49.6917 7.53893 49.6675 7.54081 49.6432C7.56195 49.641 7.58309 49.6385 7.60423 49.6359C7.62032 49.6339 7.63641 49.6317 7.65232 49.6294C7.67626 49.626 7.70003 49.6221 7.72341 49.6181C7.83605 49.5979 7.94475 49.5722 8.04634 49.5414C8.09125 49.5279 8.13522 49.5133 8.17713 49.4979C8.32194 49.4453 8.43177 49.3891 8.49837 49.3512L8.51259 49.3431C8.52288 49.3373 8.53243 49.3314 8.54122 49.3257L8.55955 49.314L8.56872 49.3081L8.58949 49.2948L8.59323 49.2924L8.61232 49.2792L8.63159 49.2608L8.6198 49.2519L8.62036 49.2515Z" fill="white"/>
<path d="M71.1176 47.4134C71.1136 47.4104 71.1012 47.4014 71.0809 47.3884C71.073 47.3838 71.0643 47.378 71.0543 47.3718C71.0331 47.3584 71.0069 47.3415 70.9761 47.3251C70.9226 47.2952 70.8637 47.2659 70.8008 47.2374C70.7888 47.2321 70.7766 47.2266 70.7639 47.2212C70.7109 47.1984 70.6561 47.1766 70.6011 47.1572C70.5232 47.1292 70.4389 47.1033 70.351 47.0804C70.2617 47.0571 70.1676 47.0367 70.0718 47.0201C70.0089 47.0092 69.9406 47 69.8579 46.9912C69.85 46.8996 69.8417 46.8238 69.8319 46.7535C69.824 46.6996 69.8157 46.6464 69.8066 46.5953C69.7998 46.5567 69.7926 46.5183 69.7849 46.4811C69.762 46.3685 69.7361 46.2628 69.7079 46.1666C69.6926 46.1141 69.6765 46.0628 69.6601 46.0145C69.6553 46.0001 69.6503 45.986 69.6455 45.9724C69.6175 45.8938 69.5867 45.8172 69.5568 45.7513L69.4425 45.5088C69.389 45.6491 69.2523 46.0152 69.2098 46.1627C69.1587 46.337 69.1157 46.5407 69.0854 46.7516C69.0758 46.8196 69.0677 46.8938 69.0603 46.9778C68.9821 46.9861 68.9171 46.9949 68.8562 47.0053C68.6671 47.0381 68.4833 47.0857 68.3246 47.1431C68.1546 47.2037 68.026 47.2686 67.9481 47.3123C67.9171 47.329 67.8909 47.3459 67.8674 47.3609L67.842 47.3769C67.8165 47.3933 67.803 47.4037 67.803 47.4037L67.7739 47.4263L67.803 47.449C67.803 47.449 67.8165 47.4594 67.8425 47.4763L67.8639 47.4897L67.8689 47.4929C67.8903 47.5066 67.9167 47.5235 67.9477 47.5401C68.0258 47.5838 68.1544 47.6488 68.3244 47.7094C68.4833 47.7667 68.6671 47.8143 68.8559 47.8472C68.9164 47.8576 68.9812 47.8664 69.0592 47.8745C69.0664 47.9579 69.0744 48.0322 69.084 48.1008C69.1137 48.3103 69.1565 48.5138 69.2083 48.6898C69.2633 48.8789 69.404 49.2551 69.4431 49.3411L69.4794 49.259L69.494 49.2281L69.4959 49.2246L69.4997 49.2174C69.5036 49.2091 69.5088 49.1994 69.5145 49.1885C69.5228 49.1723 69.5326 49.1538 69.5427 49.1326C69.5472 49.1226 69.5523 49.112 69.5571 49.1011L69.5654 49.0824C69.6022 48.9994 69.6573 48.8634 69.7086 48.6856C69.7275 48.6209 69.7454 48.552 69.7618 48.481C69.79 48.3591 69.8135 48.2305 69.8323 48.0987C69.8391 48.05 69.8454 47.9977 69.8504 47.9441C69.8533 47.9165 69.8559 47.8888 69.8581 47.861C69.8827 47.8585 69.9074 47.8557 69.9321 47.8527C69.9508 47.8504 69.9696 47.8479 69.9882 47.8453C70.0161 47.8414 70.0438 47.837 70.0711 47.8324C70.2025 47.8093 70.3293 47.7799 70.4479 47.7447C70.5003 47.7292 70.5516 47.7126 70.6004 47.695C70.7694 47.6349 70.8975 47.5706 70.9752 47.5274L70.9918 47.5181C71.0038 47.5114 71.015 47.5047 71.0252 47.4983L71.0466 47.4848L71.0573 47.4781L71.0815 47.4629L71.0859 47.4601L71.1082 47.4451L71.1307 47.424L71.1169 47.4139L71.1176 47.4134Z" fill="white"/>
</g>
<defs>
<clipPath id="clip0_664_11605">
<rect width="82" height="80" fill="white"/>
</clipPath>
</defs>
</svg>
