<svg width="54" height="80" viewBox="0 0 54 80" fill="none" xmlns="http://www.w3.org/2000/svg">
<path opacity="0.2" d="M54.0087 73.4716C54.0087 73.8519 53.8546 74.2523 53.5105 74.6707C53.1684 75.0871 52.6522 75.5015 51.974 75.8998C50.6175 76.6986 48.6449 77.4232 46.1941 78.0318C41.2945 79.2509 34.5202 80.0076 27.0318 80.0076C19.5433 80.0076 12.769 79.2529 7.86942 78.0318C5.41861 77.4212 3.44596 76.6986 2.08951 75.8998C1.41129 75.4995 0.895118 75.0871 0.553005 74.6707C0.208891 74.2523 0.0548401 73.8519 0.0548401 73.4716C0.0548401 73.0912 0.208891 72.6909 0.553005 72.2725C0.895118 71.8561 1.41129 71.4417 2.08951 71.0433C3.44596 70.2446 5.41861 69.5199 7.86942 68.9114C12.769 67.6923 19.5433 66.9355 27.0318 66.9355C34.5202 66.9355 41.2945 67.6902 46.1941 68.9114C48.6449 69.5219 50.6175 70.2446 51.974 71.0433C52.6522 71.4437 53.1684 71.8561 53.5105 72.2725C53.8546 72.6909 54.0087 73.0912 54.0087 73.4716Z" fill="black"/>
<path d="M49.3227 69.4075C49.3227 69.1492 49.1827 68.875 48.8686 68.5907C48.5545 68.3065 48.0843 68.0242 47.4641 67.752C46.2237 67.2075 44.4211 66.715 42.1804 66.2986C37.7029 65.4678 31.5109 64.9534 24.6666 64.9534C17.8223 64.9534 11.6303 65.4678 7.15281 66.2986C4.91207 66.715 3.10948 67.2075 1.86907 67.752C1.24886 68.0242 0.776705 68.3065 0.464602 68.5907C0.150499 68.875 0.0104523 69.1492 0.0104523 69.4075L0.0104523 73.211C0.0104523 73.4692 0.150499 73.7435 0.464602 74.0278C0.778706 74.312 1.24886 74.5943 1.86907 74.8665C3.10948 75.411 4.91207 75.9035 7.15281 76.3199C11.6303 77.1506 17.8223 77.6651 24.6666 77.6651C31.5109 77.6651 37.7029 77.1506 42.1804 76.3199C44.4211 75.9035 46.2237 75.411 47.4641 74.8665C48.0843 74.5943 48.5565 74.312 48.8686 74.0278C49.1827 73.7435 49.3227 73.4692 49.3227 73.211V69.4075Z" fill="#877867" stroke="black" stroke-width="0.0151562"/>
<path d="M49.3227 69.4075C49.3227 69.6657 49.1827 69.94 48.8686 70.2242C48.5545 70.5085 48.0843 70.7908 47.4641 71.063C46.2237 71.6075 44.4211 72.1 42.1804 72.5164C37.7029 73.3471 31.5109 73.8616 24.6666 73.8616C17.8223 73.8616 11.6303 73.3471 7.15281 72.5164C4.91207 72.1 3.10948 71.6075 1.86907 71.063C1.24886 70.7908 0.776705 70.5085 0.464602 70.2242C0.150499 69.94 0.0104523 69.6657 0.0104523 69.4075C0.0104523 69.1492 0.150499 68.875 0.464602 68.5907C0.778706 68.3065 1.24886 68.0242 1.86907 67.752C3.10948 67.2075 4.91207 66.715 7.15281 66.2986C11.6303 65.4678 17.8223 64.9534 24.6666 64.9534C31.5109 64.9534 37.7029 65.4678 42.1804 66.2986C44.4211 66.715 46.2237 67.2075 47.4641 67.752C48.0843 68.0242 48.5565 68.3065 48.8686 68.5907C49.1827 68.875 49.3227 69.1492 49.3227 69.4075Z" fill="#C0A587" stroke="black" stroke-width="0.0151562"/>
<path d="M2.60704 18.4427L2.60704 8.90186H46.7216V18.3786C46.7216 22.056 44.895 25.4932 41.848 27.5491L27.8974 36.9618C27.5573 37.192 27.3532 37.5763 27.3532 37.9867C27.3532 38.3971 27.5473 38.7634 27.8734 38.9956L42.0661 49.077C44.987 51.1509 46.7216 54.512 46.7216 58.0953V67.0556H2.60704L2.60704 58.0292C2.60704 54.4819 4.3076 51.1509 7.17855 49.0709L21.0831 38.9996C21.4073 38.7654 21.5993 38.3891 21.5993 37.9887C21.5993 37.5883 21.3973 37.192 21.0571 36.9598L7.39662 27.5591C4.39763 25.4952 2.60704 22.088 2.60704 18.4467V18.4427Z" fill="#ADFFFF" stroke="black" stroke-width="0.0151562"/>
<path d="M46.7221 8.65165C46.7221 8.87586 46.6001 9.11608 46.32 9.36631C46.0419 9.61854 45.6217 9.86877 45.0656 10.111C43.9572 10.5954 42.3447 11.0338 40.34 11.4062C36.3327 12.1469 30.7908 12.6053 24.6648 12.6053C18.5388 12.6053 12.997 12.1469 8.98964 11.4062C6.98497 11.0359 5.37244 10.5954 4.26407 10.111C3.70989 9.86877 3.28975 9.61854 3.01166 9.36631C2.73157 9.11408 2.60953 8.87385 2.60953 8.65165C2.60953 8.42944 2.73157 8.18722 3.01166 7.93699C3.28975 7.68476 3.70989 7.43452 4.26407 7.1923C5.37244 6.70785 6.98497 6.26745 8.98964 5.89711C12.997 5.15642 18.5388 4.698 24.6648 4.698C30.7908 4.698 36.3327 5.15642 40.34 5.89711C42.3447 6.26745 43.9572 6.70785 45.0656 7.1923C45.6197 7.43452 46.0399 7.68476 46.32 7.93699C46.6001 8.18922 46.7221 8.42944 46.7221 8.65165ZM46.7221 67.3058C46.7221 67.53 46.6001 67.7702 46.32 68.0225C46.0419 68.2747 45.6217 68.5249 45.0656 68.7672C43.9572 69.2516 42.3447 69.692 40.34 70.0624C36.3327 70.803 30.7908 71.2615 24.6648 71.2615C18.5388 71.2615 12.997 70.803 8.98964 70.0624C6.98497 69.692 5.37244 69.2516 4.26407 68.7672C3.70989 68.5249 3.28975 68.2747 3.01166 68.0225C2.73157 67.7702 2.60953 67.53 2.60953 67.3058C2.60953 67.0816 2.73157 66.8414 3.01166 66.5892C3.28975 66.3369 3.70989 66.0867 4.26407 65.8445C5.37244 65.36 6.98497 64.9196 8.98964 64.5493C12.997 63.8086 18.5388 63.3502 24.6648 63.3502C30.7908 63.3502 36.3327 63.8086 40.34 64.5493C42.3447 64.9196 43.9572 65.36 45.0656 65.8445C45.6197 66.0867 46.0399 66.3369 46.32 66.5892C46.6001 66.8414 46.7221 67.0816 46.7221 67.3058Z" fill="#ADFFFF" stroke="black" stroke-width="0.0151562"/>
<path d="M40.2334 67.3057C40.2334 67.4098 40.1674 67.5399 39.9714 67.6921C39.7773 67.8422 39.4832 67.9923 39.0891 68.1405C38.3028 68.4348 37.1584 68.703 35.73 68.9272C32.879 69.3776 28.9377 69.6579 24.5783 69.6579C20.2188 69.6579 16.2755 69.3776 13.4266 68.9272C12.0001 68.701 10.8537 68.4348 10.0675 68.1405C9.67334 67.9923 9.37925 67.8422 9.18518 67.6921C8.98912 67.5399 8.9231 67.4098 8.9231 67.3057C8.9231 67.2016 8.98912 67.0715 9.18518 66.9194C9.37925 66.7692 9.67334 66.6191 10.0675 66.4709C10.8537 66.1767 12.0001 65.9084 13.4266 65.6842C16.2775 65.2338 19.9427 58.0452 24.3022 58.0452C28.6616 58.0452 32.881 65.2338 35.73 65.6842C37.1564 65.9104 38.3028 66.1767 39.0891 66.4709C39.4832 66.6191 39.7773 66.7692 39.9714 66.9194C40.1674 67.0715 40.2334 67.2016 40.2334 67.3057Z" fill="#EFEBE7" stroke="black" stroke-width="0.0151562"/>
<path d="M43.329 17.9361H5.82863C5.82863 21.7216 7.77527 25.2408 10.9803 27.2527L20.2074 33.044C21.1657 33.6466 21.946 34.4794 22.4841 35.4563C22.8783 36.1729 23.0583 36.9877 23.0583 37.8064V40.581C23.0583 41.3257 23.6325 41.9763 24.3768 41.9983C25.121 42.0203 25.7792 41.4038 25.7792 40.637V38.0346C25.7792 37.0417 26.0593 36.0628 26.6155 35.2381C27.2157 34.3472 28 33.5865 28.9223 33.01L38.1693 27.2387C41.3784 25.2348 43.327 21.7196 43.327 17.9341L43.329 17.9361Z" fill="#EFEBE7" stroke="black" stroke-width="0.0151562"/>
<path d="M43.3413 17.9601C43.3413 18.1183 43.2473 18.2985 43.0112 18.4946C42.7771 18.6908 42.421 18.885 41.9489 19.0772C41.0065 19.4575 39.6341 19.8018 37.9275 20.0941C34.5164 20.6766 29.7968 21.037 24.5791 21.037C19.3614 21.037 14.6418 20.6766 11.2307 20.0941C9.52414 19.8038 8.15169 19.4575 7.20938 19.0772C6.73722 18.887 6.3831 18.6908 6.14703 18.4946C5.91095 18.2985 5.81692 18.1183 5.81692 17.9601C5.81692 17.802 5.91095 17.6218 6.14703 17.4256C6.3811 17.2295 6.73722 17.0353 7.20938 16.8431C8.15169 16.4628 9.52414 16.1184 11.2307 15.8262C14.6418 15.2436 19.3614 14.8833 24.5791 14.8833C29.7968 14.8833 34.5164 15.2436 37.9275 15.8262C39.6341 16.1164 41.0065 16.4628 41.9489 16.8431C42.421 17.0333 42.7751 17.2295 43.0112 17.4256C43.2473 17.6218 43.3413 17.802 43.3413 17.9601Z" fill="#CFCABF" stroke="black" stroke-width="0.0151562"/>
<path d="M49.323 4.46168C49.323 4.20344 49.1829 3.92919 48.8688 3.64493C48.5547 3.36066 48.0846 3.0784 47.4644 2.80615C46.2239 2.26165 44.4213 1.76919 42.1806 1.35281C37.7011 0.522043 31.5091 0.00756836 24.6648 0.00756836C17.8206 0.00756836 11.6285 0.522043 7.15103 1.35281C4.91029 1.76919 3.1077 2.26165 1.86729 2.80615C1.24708 3.0784 0.774928 3.36066 0.462825 3.64493C0.148721 3.92919 0.00867462 4.20344 0.00867462 4.46168L0.00867462 8.26519C0.00867462 8.52343 0.148721 8.79769 0.462825 9.08195C0.776928 9.36621 1.24708 9.64847 1.86729 9.92072C3.1077 10.4652 4.91029 10.9577 7.15103 11.3741C11.6285 12.2048 17.8206 12.7193 24.6648 12.7193C31.5091 12.7193 37.7011 12.2048 42.1786 11.3741C44.4193 10.9577 46.2219 10.4652 47.4623 9.92072C48.0826 9.64847 48.5547 9.36621 48.8668 9.08195C49.1809 8.79769 49.321 8.52343 49.321 8.26519V4.46168H49.323Z" fill="#C0A587" stroke="black" stroke-width="0.0151562"/>
<path d="M49.3227 4.46193C49.3227 4.72016 49.1827 4.99442 48.8686 5.27868C48.5545 5.56294 48.0843 5.8452 47.4641 6.11745C46.2237 6.66196 44.4211 7.15441 42.1804 7.5708C37.7029 8.40156 31.5109 8.91604 24.6666 8.91604C17.8223 8.91604 11.6303 8.40156 7.15281 7.5708C4.91207 7.15441 3.10948 6.66196 1.86907 6.11745C1.24886 5.8452 0.776705 5.56294 0.464602 5.27868C0.150499 4.99442 0.0104523 4.72016 0.0104523 4.46193C0.0104523 4.20369 0.150499 3.92943 0.464602 3.64517C0.778706 3.36091 1.24886 3.07865 1.86907 2.8064C3.10948 2.26189 4.91207 1.76944 7.15281 1.35305C11.6283 0.522287 17.8203 0.0078125 24.6646 0.0078125C31.5089 0.0078125 37.7009 0.522287 42.1784 1.35305C44.4191 1.76944 46.2217 2.26189 47.4621 2.8064C48.0823 3.07865 48.5545 3.36091 48.8666 3.64517C49.1807 3.92943 49.3207 4.20369 49.3207 4.46193H49.3227Z" fill="#877867" stroke="black" stroke-width="0.0151562"/>
<path d="M25.2654 53.9034C25.2654 53.5242 24.9581 53.2168 24.5791 53.2168C24.2001 53.2168 23.8929 53.5242 23.8929 53.9034V54.7662C23.8929 55.1454 24.2001 55.4529 24.5791 55.4529C24.9581 55.4529 25.2654 55.1454 25.2654 54.7662V53.9034Z" fill="#EFEBE7" stroke="black" stroke-width="0.0151562"/>
<path d="M25.2654 45.5575C25.2654 45.1783 24.9581 44.8708 24.5791 44.8708C24.2001 44.8708 23.8929 45.1783 23.8929 45.5575V49.2749C23.8929 49.6541 24.2001 49.9615 24.5791 49.9615C24.9581 49.9615 25.2654 49.6541 25.2654 49.2749V45.5575Z" fill="#EFEBE7" stroke="black" stroke-width="0.0151562"/>
</svg>
