<svg width="101" height="80" viewBox="0 0 101 80" fill="none" xmlns="http://www.w3.org/2000/svg">
<g clip-path="url(#clip0_664_11620)">
<path d="M98.4368 45.3367C99.8526 30.5275 88.9439 17.4322 74.0705 16.0899C59.197 14.7477 45.9959 25.6673 44.5802 40.4765C43.1644 55.2857 54.0731 68.381 68.9431 69.7229C69.0383 69.7315 69.1342 69.7333 69.2329 69.7422L64.528 75.8857L67.3797 77.4621C91.9941 69.1547 96.9812 52.1629 97.3734 50.681C97.8971 48.9718 98.2568 47.1828 98.4334 45.3364L98.4368 45.3367Z" fill="#0CBAB5" stroke="#082422" stroke-width="0.164607" stroke-miterlimit="10" stroke-linejoin="round"/>
<path d="M95.464 43.7096C96.8797 28.9042 85.9675 15.8056 71.0898 14.4555C56.2121 13.1055 43.0077 24.0155 41.592 38.8209C40.1763 53.6263 51.0885 66.7249 65.9628 68.0747C66.0581 68.0833 66.154 68.0852 66.2527 68.0942L64.3992 75.8114C89.0203 67.5192 94.0083 50.5337 94.4005 49.0523C94.9243 47.3437 95.2841 45.5553 95.4606 43.7093L95.464 43.7096Z" fill="#2BF2F1" stroke="#082422" stroke-width="0.164607" stroke-miterlimit="10" stroke-linejoin="round"/>
<path d="M65.2829 31.4711C67.6902 32.1323 69.2885 35.2131 69.2885 35.2131C69.2885 35.2131 71.4398 32.4781 73.92 32.2678C80.0627 31.7541 82.0535 37.3303 80.6726 41.2166C78.6313 46.9566 70.9666 51.5631 68.418 52.9703C67.9138 53.2488 67.2931 53.1916 66.8406 52.8248C64.588 50.9747 57.9093 45.0452 56.9768 39.0309C56.3492 34.9593 59.3407 29.8427 65.2829 31.4711Z" fill="#F8312F"/>
<mask id="mask0_664_11620" style="mask-type:alpha" maskUnits="userSpaceOnUse" x="41" y="14" width="55" height="62">
<path d="M95.4718 43.7204C96.8826 28.9193 85.9618 15.8202 71.0784 14.4652C56.1951 13.1102 42.99 24.0128 41.5793 38.8139C40.1686 53.615 51.0894 66.7141 65.9693 68.0688C66.0646 68.0774 66.1606 68.0794 66.2593 68.0883L64.408 75.803C89.0346 67.5216 94.0181 50.5422 94.4099 49.0613C94.9333 47.3534 95.2925 45.5656 95.4684 43.7201L95.4718 43.7204Z" fill="#2BF2F1" stroke="#082422" stroke-width="0.164607" stroke-miterlimit="10" stroke-linejoin="round"/>
</mask>
<g mask="url(#mask0_664_11620)">
<path d="M14.4863 41.7038C11.9495 27.0524 21.8384 13.164 36.5752 10.6854C51.312 8.20684 65.3113 18.0775 67.8481 32.7289C70.385 47.3802 60.4685 61.2481 45.8619 64.3272C45.7675 64.3431 45.672 64.3522 45.5743 64.3687L47.9099 71.3402C46.7666 71.3385 45.1112 71.1714 44.1874 71.0295C21.9778 64.0599 16.432 48.3245 15.953 46.9488C15.3007 45.2854 14.806 43.53 14.4897 41.7032L14.4863 41.7038Z" fill="#082422" fill-opacity="0.2"/>
</g>
<path d="M8.27283 35.798C5.72806 21.1395 15.6032 7.25191 30.3309 4.78145C45.0586 2.31098 59.0569 12.194 61.6017 26.8524C64.1465 41.5108 54.2438 55.3779 39.6466 58.4491C39.5523 58.465 39.4568 58.4741 39.3591 58.4905L41.698 65.4661C40.5552 65.4637 38.9007 65.2955 37.9772 65.153C15.7746 58.1671 10.2216 42.4224 9.74203 41.0459C9.08908 39.3815 8.5935 37.6251 8.2762 35.7974L8.27283 35.798Z" fill="#B9CC00" stroke="#082422" stroke-width="0.164607" stroke-miterlimit="10" stroke-linejoin="round"/>
<path d="M4.60687 35.524C2.0621 20.8656 11.9373 6.97799 26.6649 4.50752C41.3926 2.03706 55.391 11.9201 57.9358 26.5785C60.4805 41.2369 50.6054 55.1245 35.8811 57.5944C35.7867 57.6103 35.6913 57.6194 35.5936 57.6358L38.0321 65.1921C12.8533 58.7825 6.58048 42.2197 6.07608 40.7719C5.42312 39.1075 4.92754 37.3512 4.61024 35.5235L4.60687 35.524Z" fill="#DCFF00" stroke="#082422" stroke-width="0.164607" stroke-miterlimit="10" stroke-linejoin="round"/>
<path d="M25.213 22.4842C27.7101 22.5052 30.0556 25.0718 30.0556 25.0718C30.0556 25.0718 31.4217 21.8769 33.7623 21.0371C39.5615 18.9641 42.9355 23.841 42.6131 27.9507C42.1354 34.0208 35.9313 40.4392 33.8359 42.4531C33.4214 42.8517 32.807 42.9557 32.2746 42.7174C29.6174 41.5079 21.6238 37.4927 19.1579 31.9208C17.4922 28.1477 19.05 22.436 25.213 22.4842Z" fill="#F8312F"/>
</g>
<defs>
<clipPath id="clip0_664_11620">
<rect width="101" height="80" fill="white"/>
</clipPath>
</defs>
</svg>
