<svg width="96" height="80" viewBox="0 0 96 80" fill="none" xmlns="http://www.w3.org/2000/svg">
<g clip-path="url(#clip0_664_11582)">
<path d="M43.2274 79.8999C43.3633 79.954 43.4539 79.9811 43.5083 79.9991L27.3749 74.0459C27.3296 74.0278 27.2299 73.9918 27.0941 73.9467L43.2274 79.8999Z" fill="#B9CC00" stroke="#002522" stroke-width="0.164607" stroke-miterlimit="10"/>
<path d="M79.9066 7.29677L63.7733 1.34351C74.6345 5.34843 81.3832 17.8864 79.5715 32.7244C77.3612 50.7917 63.2841 65.4403 48.12 65.4403H27.5207L27.3848 74.0455L43.5182 79.9987L43.6541 71.3936H64.2534C79.4175 71.3936 93.4946 56.7449 95.7048 38.6777C97.5256 23.8396 90.7679 11.3017 79.9066 7.29677Z" fill="#B9CC00" stroke="#002522" stroke-width="0.164607" stroke-miterlimit="10"/>
<path d="M56.1368 0.00012207C71.2919 0.00012207 81.7817 14.6578 79.5714 32.725C77.3611 50.7923 63.2841 65.4409 48.12 65.4409H27.5207L27.3848 74.0461C26.4427 73.7123 8.55195 67.3892 2.25622 49.8271C0.290504 44.848 -0.470419 38.994 0.290504 32.725C2.50986 14.6578 16.5869 0.00012207 31.742 0.00012207H56.1368Z" fill="#DCFF00" stroke="#002522" stroke-width="0.164607" stroke-miterlimit="10"/>
<path d="M30.2936 31.345C31.8245 31.345 32.8934 32.8243 32.6669 34.6644C32.4405 36.5045 31.0183 37.9838 29.4783 37.9838C27.9383 37.9838 26.8694 36.5045 27.0959 34.6644C27.3223 32.8243 28.7445 31.345 30.2936 31.345Z" fill="#002522"/>
<path d="M40.873 31.345C42.4039 31.345 43.4728 32.8243 43.2463 34.6644C43.0199 36.5045 41.5977 37.9838 40.0577 37.9838C38.5177 37.9838 37.4488 36.5045 37.6753 34.6644C37.9018 32.8243 39.324 31.345 40.873 31.345Z" fill="#587C14"/>
<path d="M51.4465 31.345C52.9864 31.345 54.0554 32.8243 53.8289 34.6644C53.6024 36.5045 52.1802 37.9838 50.6312 37.9838C49.0822 37.9838 48.0314 36.5045 48.2579 34.6644C48.4843 32.8243 49.9065 31.345 51.4465 31.345Z" fill="#9ABD0A"/>
</g>
<defs>
<clipPath id="clip0_664_11582">
<rect width="96" height="80" fill="white"/>
</clipPath>
</defs>
</svg>
