<svg width="101" height="80" viewBox="0 0 101 80" fill="none" xmlns="http://www.w3.org/2000/svg">
<g clip-path="url(#clip0_664_11583)">
<path d="M98.4378 45.3376C99.8536 30.5284 88.9449 17.433 74.0714 16.0907C59.198 14.7485 45.9969 25.6681 44.5811 40.4774C43.1653 55.2867 54.074 68.3821 68.9441 69.724C69.0393 69.7326 69.1352 69.7344 69.2339 69.7434L64.529 75.8868L67.3807 77.4633C91.9952 69.1558 96.9823 52.1639 97.3744 50.682C97.8981 48.9728 98.2579 47.1838 98.4344 45.3373L98.4378 45.3376Z" fill="#0CBAB5" stroke="#082422" stroke-width="0.164607" stroke-miterlimit="10" stroke-linejoin="round"/>
<path d="M95.4649 43.7099C96.8806 28.9044 85.9684 15.8057 71.0907 14.4556C56.213 13.1055 43.0085 24.0156 41.5929 38.8211C40.1772 53.6266 51.0894 66.7253 65.9637 68.0751C66.059 68.0837 66.1549 68.0856 66.2536 68.0945L64.4001 75.8119C89.0212 67.5196 94.0092 50.534 94.4014 49.0526C94.9252 47.344 95.285 45.5556 95.4615 43.7096L95.4649 43.7099Z" fill="#2BF2F1" stroke="#082422" stroke-width="0.164607" stroke-miterlimit="10" stroke-linejoin="round"/>
<mask id="mask0_664_11583" style="mask-type:alpha" maskUnits="userSpaceOnUse" x="41" y="14" width="55" height="62">
<path d="M95.4728 43.7199C96.8835 28.9187 85.9627 15.8195 71.0794 14.4645C56.1961 13.1094 42.991 24.0121 41.5803 38.8133C40.1695 53.6145 51.0903 66.7137 65.9703 68.0684C66.0656 68.0771 66.1616 68.079 66.2603 68.088L64.409 75.8027C89.0356 67.5213 94.0191 50.5417 94.4109 49.0609C94.9342 47.3529 95.2935 45.5651 95.4694 43.7196L95.4728 43.7199Z" fill="#2BF2F1" stroke="#082422" stroke-width="0.164607" stroke-miterlimit="10" stroke-linejoin="round"/>
</mask>
<g mask="url(#mask0_664_11583)">
<path d="M14.4873 41.7033C11.9505 27.0519 21.8394 13.1633 36.5762 10.6847C51.3129 8.20612 65.3122 18.0769 67.8491 32.7283C70.3859 47.3798 60.4695 61.2478 45.8629 64.3269C45.7685 64.3428 45.673 64.3519 45.5752 64.3684L47.9109 71.34C46.7675 71.3382 45.1122 71.1712 44.1884 71.0293C21.9788 64.0596 16.4329 48.3241 15.954 46.9484C15.3017 45.285 14.807 43.5296 14.4907 41.7028L14.4873 41.7033Z" fill="#082422" fill-opacity="0.2"/>
</g>
<path d="M8.27378 35.7974C5.72902 21.1389 15.6042 7.25115 30.3319 4.78065C45.0596 2.31016 59.058 12.1932 61.6027 26.8517C64.1475 41.5102 54.2448 55.3774 39.6476 58.4487C39.5533 58.4645 39.4578 58.4736 39.3601 58.49L41.699 65.4656C40.5562 65.4632 38.9016 65.2951 37.9781 65.1526C15.7755 58.1667 10.2226 42.4219 9.74298 41.0453C9.09003 39.3809 8.59445 37.6245 8.27715 35.7968L8.27378 35.7974Z" fill="#B9CC00" stroke="#082422" stroke-width="0.164607" stroke-miterlimit="10" stroke-linejoin="round"/>
<path d="M4.60837 35.5244C2.06362 20.8659 11.9388 6.9782 26.6665 4.5077C41.3942 2.03721 55.3926 11.9203 57.9373 26.5788C60.4821 41.2373 50.6069 55.125 35.8826 57.5949C35.7883 57.6108 35.6928 57.6199 35.5951 57.6363L38.0336 65.1927C12.8547 58.783 6.58198 42.2201 6.07757 40.7724C5.42462 39.108 4.92904 37.3516 4.61175 35.5239L4.60837 35.5244Z" fill="#DCFF00" stroke="#082422" stroke-width="0.164607" stroke-miterlimit="10" stroke-linejoin="round"/>
</g>
<defs>
<clipPath id="clip0_664_11583">
<rect width="101" height="80" fill="white"/>
</clipPath>
</defs>
</svg>
