<svg width="109" height="80" viewBox="0 0 109 80" fill="none" xmlns="http://www.w3.org/2000/svg">
<g clip-path="url(#clip0_664_11589)">
<path opacity="0.2" d="M76.5655 18.2548C100.966 21.0083 112.562 36.3766 102.467 52.586C92.3735 68.792 64.4097 79.6957 40.0093 76.9422C15.608 74.1864 4.0116 58.818 14.1051 42.6121C24.1986 26.4061 52.1615 15.5 76.5655 18.2548Z" fill="black"/>
<path d="M74.4726 55.0617L73.4388 60.3454C72.7537 63.8426 70.842 67.1524 67.6258 69.9702C56.8386 79.42 35.453 79.7556 19.86 70.7215C8.91488 64.3818 3.73361 55.109 5.34583 46.8777L6.37963 41.594C4.7674 49.8253 9.94868 59.096 20.8938 65.4378C36.4868 74.4718 57.8724 74.1342 68.6596 64.6865C71.8758 61.8686 73.7875 58.5588 74.4726 55.0617Z" fill="#9CAD00" stroke="#082422" stroke-width="0.102123" stroke-miterlimit="10"/>
<path d="M59.9508 31.2299C75.5439 40.264 79.439 55.2466 68.6499 64.6985C57.8627 74.1483 36.4771 74.4838 20.8841 65.4498C5.29099 56.4137 1.3958 41.4311 12.183 31.9812C22.9701 22.5314 44.3557 22.1938 59.9508 31.2299Z" fill="#9CAD00" stroke="#082422" stroke-width="0.102123" stroke-miterlimit="10"/>
<path d="M56.3428 40.2559L53.2947 42.9255C56.7612 45.9348 57.3951 48.9503 54.8618 51.7373L46.6571 46.9825C47.5904 45.7002 47.2704 44.5825 45.6008 43.6151C44.0378 42.7094 42.7291 42.6662 42.1138 43.2055C41.2051 44.002 42.2738 44.9777 44.5977 47.0772L45.7485 48.1372C50.7144 52.7314 51.7092 55.2735 48.8334 57.7929C46.0561 60.2258 41.4882 60.2979 35.993 58.079L32.6024 61.0492L24.609 56.4179L28.0263 53.4251C23.8829 50.0227 23.446 46.8384 26.1023 44.0473L34.8054 49.0902C33.667 50.3973 34.0793 51.6385 36.0341 52.7705C37.7735 53.7791 39.3283 54.0714 40.1898 53.3181C40.9507 52.6512 40.118 51.8813 38.6391 50.4878L36.1838 48.2422C31.1441 43.7118 30.6333 41.0565 33.4373 38.603C35.9684 36.3862 40.1077 36.1721 45.3526 38.2469L48.3514 35.6205L56.3448 40.2517L56.3428 40.2559Z" fill="white" stroke="#082422" stroke-width="0.102123" stroke-miterlimit="10"/>
<path d="M75.1869 45.1133L74.1531 50.3971C73.468 53.8942 71.5563 57.204 68.3401 60.0219C57.5529 69.4717 36.1673 69.8072 20.5743 60.7732C9.62918 54.4335 4.4479 45.1607 6.06013 36.9294L7.09392 31.6456C5.48169 39.8769 10.663 49.1477 21.6081 55.4894C37.2011 64.5234 58.5867 64.1859 69.3739 54.7381C72.5901 51.9202 74.5018 48.6104 75.1869 45.1133Z" fill="#9CAD00" stroke="#082422" stroke-width="0.102123" stroke-miterlimit="10"/>
<path d="M60.665 21.2818C76.2581 30.3159 80.1533 45.2985 69.3641 54.7504C58.5769 64.2002 37.1913 64.5357 21.5983 55.5017C6.00523 46.4656 2.11004 31.4829 12.8972 22.0331C23.6843 12.5833 45.0699 12.2457 60.665 21.2818Z" fill="#9CAD00" stroke="#082422" stroke-width="0.102123" stroke-miterlimit="10"/>
<path d="M57.057 30.3075L54.009 32.9772C57.4755 35.9864 58.1093 39.0019 55.5761 41.7889L47.3714 37.0341C48.3046 35.7518 47.9847 34.6341 46.315 33.6667C44.752 32.761 43.4433 32.7178 42.828 33.2571C41.9193 34.0537 42.988 35.0293 45.312 37.1288L46.4627 38.1889C51.4286 42.7831 52.4234 45.3251 49.5477 47.8445C46.7704 50.2775 42.2024 50.3495 36.7073 48.1306L33.3167 51.1008L25.3232 46.4695L28.7405 43.4767C24.5971 40.0743 24.1602 36.8901 26.8165 34.0989L35.5196 39.1419C34.3812 40.4489 34.7935 41.6901 36.7483 42.8222C38.4877 43.8308 40.0425 44.123 40.904 43.3697C41.665 42.7028 40.8322 41.933 39.3533 40.5395L36.898 38.2938C31.8583 33.7634 31.3475 31.1082 34.1515 28.6546C36.6827 26.4378 40.8219 26.2238 46.0668 28.2986L49.0656 25.6721L57.0591 30.3034L57.057 30.3075Z" fill="white" stroke="#082422" stroke-width="0.102123" stroke-miterlimit="10"/>
<path d="M72.3391 38.0077L71.3053 43.2915C70.6202 46.7886 68.7085 50.0984 65.4922 52.9163C54.7051 62.3661 33.3195 62.7016 17.7264 53.6676C6.78134 47.3279 1.60006 38.0551 3.21229 29.8238L4.24608 24.54C2.63385 32.7713 7.81513 42.0421 18.7602 48.3838C34.3533 57.4179 55.7389 57.0803 66.526 47.6325C69.7423 44.8147 71.654 41.5048 72.3391 38.0077Z" fill="#9CAD00" stroke="#082422" stroke-width="0.102123" stroke-miterlimit="10"/>
<path d="M57.8173 14.1761C73.4103 23.2101 77.3055 38.1928 66.5163 47.6447C55.7292 57.0945 34.3436 57.43 18.7505 48.396C3.15745 39.3599 -0.737742 24.3772 10.0494 14.9274C20.8366 5.47758 42.2221 5.14001 57.8173 14.1761Z" fill="#DCFF00" stroke="#082422" stroke-width="0.102123" stroke-miterlimit="10"/>
<path d="M54.2092 23.2018L51.1611 25.8714C54.6276 28.8807 55.2614 31.8962 52.7282 34.6832L44.5235 29.9284C45.4568 28.6461 45.1368 27.5284 43.4672 26.561C41.9042 25.6553 40.5955 25.6121 39.9802 26.1514C39.0715 26.948 40.1401 27.9236 42.4641 30.0231L43.6148 31.0831C48.5807 35.6774 49.5756 38.2194 46.6998 40.7388C43.9225 43.1718 39.3545 43.2438 33.8594 41.0249L30.4688 43.9951L22.4754 39.3638L25.8927 36.371C21.7493 32.9686 21.3124 29.7843 23.9687 26.9932L32.6718 32.0362C31.5334 33.3432 31.9457 34.5844 33.9005 35.7165C35.6399 36.725 37.1947 37.0173 38.0562 36.264C38.8171 35.5971 37.9844 34.8273 36.5055 33.4338L34.0502 31.1881C29.0105 26.6577 28.4997 24.0025 31.3037 21.5489C33.8348 19.3321 37.9741 19.118 43.219 21.1928L46.2178 18.5664L54.2112 23.1977L54.2092 23.2018Z" fill="white" stroke="#082422" stroke-width="0.102123" stroke-miterlimit="10"/>
<path d="M78.7407 32.3237L77.7069 37.6074C77.0218 41.1045 75.1101 44.4143 71.8938 47.2322C61.1067 56.682 39.7211 57.0175 24.128 47.9835C13.1829 41.6438 8.00167 32.371 9.6139 24.1397L10.6477 18.856C9.03547 27.0872 14.2167 36.358 25.1618 42.6997C40.7549 51.7338 62.1405 51.3962 72.9276 41.9484C76.1439 39.1306 78.0556 35.8208 78.7407 32.3237Z" fill="#9CAD00" stroke="#082422" stroke-width="0.102123" stroke-miterlimit="10"/>
<path d="M64.219 8.49203C79.812 17.5261 83.7072 32.5087 72.918 41.9606C62.1309 51.4104 40.7453 51.7459 25.1522 42.7119C9.55918 33.6758 5.66399 18.6931 16.4511 9.24332C27.2383 -0.206501 48.6239 -0.544068 64.219 8.49203Z" fill="#DCFF00" stroke="#082422" stroke-width="0.102123" stroke-miterlimit="10"/>
<path d="M60.6109 17.5179L57.5628 20.1876C61.0293 23.1969 61.6631 26.2124 59.1299 28.9993L50.9252 24.2446C51.8585 22.9622 51.5385 21.8446 49.8688 20.8771C48.3058 19.9715 46.9972 19.9283 46.3818 20.4675C45.4732 21.2641 46.5418 22.2398 48.8658 24.3393L50.0165 25.3993C54.9824 29.9935 55.9772 32.5356 53.1015 35.055C50.3242 37.4879 45.7562 37.56 40.2611 35.3411L36.8705 38.3113L28.8771 33.68L32.2943 30.6872C28.1509 27.2847 27.714 24.1005 30.3703 21.3094L39.0735 26.3523C37.9351 27.6594 38.3474 28.9005 40.3021 30.0326C42.0415 31.0412 43.5963 31.3335 44.4578 30.5801C45.2188 29.9132 44.386 29.1434 42.9071 27.7499L40.4519 25.5043C35.4121 20.9739 34.9014 18.3186 37.7053 15.8651C40.2365 13.6483 44.3758 13.4342 49.6206 15.509L52.6195 12.8826L60.6129 17.5138L60.6109 17.5179Z" fill="white" stroke="#082422" stroke-width="0.102123" stroke-miterlimit="10"/>
</g>
<defs>
<clipPath id="clip0_664_11589">
<rect width="109" height="80" fill="white"/>
</clipPath>
</defs>
</svg>
