<svg width="78" height="80" viewBox="0 0 78 80" fill="none" xmlns="http://www.w3.org/2000/svg">
<g clip-path="url(#clip0_664_11587)">
<path d="M60.1813 9.56667L56.3295 9.65867C56.3321 9.64244 56.3348 9.62891 56.3375 9.61267H40.1174C40.0851 9.69114 40.042 9.7615 40.0259 9.84809L38.933 15.6225C38.7985 16.3396 39.3233 17.0134 40.0474 17.0513L59.616 18.0795C60.2136 18.112 60.7438 17.6926 60.8569 17.1L61.9497 11.3228C62.0843 10.6057 61.3172 9.56396 60.184 9.56396L60.1813 9.56667Z" fill="#082422" stroke="#082422" stroke-width="0.347981" stroke-linecap="round" stroke-linejoin="round"/>
<mask id="path-2-outside-1_664_11587" maskUnits="userSpaceOnUse" x="11.5029" y="10.7212" width="63" height="70" fill="black">
<rect fill="white" x="11.5029" y="10.7212" width="63" height="70"/>
<path d="M33.5087 11.7251L70.663 13.0679C72.0922 14.2854 74.0891 15.8303 73.7558 17.0532L57.0126 78.2563C56.8591 78.8514 56.4473 79.3079 55.9306 79.5405H55.9316C55.9045 79.553 55.8771 79.5644 55.8495 79.5757C55.8215 79.5872 55.7931 79.5977 55.7646 79.6079C55.5622 79.6804 55.3493 79.7212 55.1279 79.7261C55.0335 79.7282 54.9377 79.7252 54.8408 79.7144L16.5595 74.7925C15.359 74.6382 13.5069 73.9481 12.5029 72.1812L13.3701 69.481L31.4687 13.1841C31.727 12.2777 32.5749 11.6658 33.5087 11.7251ZM55.9355 79.5435L55.9316 79.5405H55.9335L55.9355 79.5435Z"/>
</mask>
<path d="M33.5087 11.7251L70.663 13.0679C72.0922 14.2854 74.0891 15.8303 73.7558 17.0532L57.0126 78.2563C56.8591 78.8514 56.4473 79.3079 55.9306 79.5405H55.9316C55.9045 79.553 55.8771 79.5644 55.8495 79.5757C55.8215 79.5872 55.7931 79.5977 55.7646 79.6079C55.5622 79.6804 55.3493 79.7212 55.1279 79.7261C55.0335 79.7282 54.9377 79.7252 54.8408 79.7144L16.5595 74.7925C15.359 74.6382 13.5069 73.9481 12.5029 72.1812L13.3701 69.481L31.4687 13.1841C31.727 12.2777 32.5749 11.6658 33.5087 11.7251ZM55.9355 79.5435L55.9316 79.5405H55.9335L55.9355 79.5435Z" fill="#008C8C"/>
<path d="M33.5087 11.7251L33.4867 12.0725L33.4962 12.0729L33.5087 11.7251ZM70.663 13.0679L70.8887 12.803C70.829 12.7521 70.7539 12.7229 70.6756 12.7201L70.663 13.0679ZM73.7558 17.0532L74.0914 17.145L74.0915 17.1447L73.7558 17.0532ZM57.0126 78.2563L56.677 78.1645L56.6757 78.1694L57.0126 78.2563ZM55.9306 79.5405L55.7877 79.2232C55.6382 79.2906 55.5559 79.4532 55.5904 79.6136C55.6248 79.774 55.7666 79.8885 55.9306 79.8885V79.5405ZM55.8495 79.5757L55.7177 79.2537L55.7173 79.2538L55.8495 79.5757ZM55.7646 79.6079L55.8819 79.9355L55.8823 79.9354L55.7646 79.6079ZM55.1279 79.7261L55.1203 79.3782L55.1199 79.3782L55.1279 79.7261ZM54.8408 79.7144L54.7964 80.0595L54.8021 80.0602L54.8408 79.7144ZM16.5595 74.7925L16.6039 74.4473L16.6039 74.4473L16.5595 74.7925ZM12.5029 72.1812L12.1716 72.0747C12.1418 72.1675 12.1522 72.2684 12.2003 72.3531L12.5029 72.1812ZM13.3701 69.481L13.0388 69.3745L13.0387 69.3746L13.3701 69.481ZM31.4687 13.1841L31.8002 13.2906L31.8033 13.2795L31.4687 13.1841ZM55.9355 79.5435L55.7267 79.8218C55.8623 79.9236 56.0515 79.9127 56.1746 79.7962C56.2978 79.6798 56.3191 79.4915 56.225 79.3504L55.9355 79.5435ZM55.9335 79.5405L56.2231 79.3475C56.1585 79.2507 56.0499 79.1925 55.9335 79.1925V79.5405ZM33.5087 11.7251L33.4962 12.0729L70.6505 13.4156L70.663 13.0679L70.6756 12.7201L33.5213 11.3773L33.5087 11.7251ZM70.663 13.0679L70.4374 13.3328C71.1645 13.9522 71.9967 14.6231 72.6143 15.2942C72.9219 15.6284 73.1595 15.9454 73.301 16.2375C73.442 16.5286 73.4737 16.765 73.4201 16.9617L73.7558 17.0532L74.0915 17.1447C74.2046 16.7299 74.1117 16.3147 73.9273 15.9341C73.7435 15.5546 73.455 15.18 73.1264 14.8229C72.4716 14.1114 71.5907 13.401 70.8887 12.803L70.663 13.0679ZM73.7558 17.0532L73.4202 16.9614L56.677 78.1645L57.0126 78.2563L57.3483 78.3482L74.0914 17.145L73.7558 17.0532ZM57.0126 78.2563L56.6757 78.1694C56.5497 78.6577 56.2125 79.032 55.7877 79.2232L55.9306 79.5405L56.0735 79.8578C56.6821 79.5838 57.1685 79.0452 57.3496 78.3433L57.0126 78.2563ZM55.9306 79.5405V79.8885H55.9316V79.5405V79.1925H55.9306V79.5405ZM55.9316 79.5405L55.7858 79.2245C55.7662 79.2336 55.7448 79.2426 55.7177 79.2537L55.8495 79.5757L55.9814 79.8977C56.0093 79.8863 56.0428 79.8724 56.0773 79.8565L55.9316 79.5405ZM55.8495 79.5757L55.7173 79.2538C55.6967 79.2623 55.6742 79.2706 55.6469 79.2804L55.7646 79.6079L55.8823 79.9354C55.912 79.9247 55.9463 79.9121 55.9818 79.8976L55.8495 79.5757ZM55.7646 79.6079L55.6473 79.2803C55.4792 79.3405 55.3032 79.3742 55.1203 79.3782L55.1279 79.7261L55.1355 80.074C55.3953 80.0683 55.6452 80.0203 55.8819 79.9355L55.7646 79.6079ZM55.1279 79.7261L55.1199 79.3782C55.0384 79.3801 54.9584 79.3773 54.8794 79.3685L54.8408 79.7144L54.8021 80.0602C54.917 80.073 55.0286 80.0764 55.1359 80.074L55.1279 79.7261ZM54.8408 79.7144L54.8851 79.3692L16.6039 74.4473L16.5595 74.7925L16.5151 75.1376L54.7964 80.0595L54.8408 79.7144ZM16.5595 74.7925L16.6039 74.4473C15.4666 74.3012 13.7362 73.6474 12.8054 72.0092L12.5029 72.1812L12.2003 72.3531C13.2775 74.2488 15.2514 74.9752 16.5152 75.1376L16.5595 74.7925ZM12.5029 72.1812L12.8342 72.2876L13.7014 69.5874L13.3701 69.481L13.0387 69.3746L12.1716 72.0747L12.5029 72.1812ZM13.3701 69.481L13.7013 69.5875L31.8 13.2906L31.4687 13.1841L31.1374 13.0776L13.0388 69.3745L13.3701 69.481ZM31.4687 13.1841L31.8033 13.2795C32.018 12.5264 32.7205 12.0237 33.4867 12.0724L33.5087 11.7251L33.5308 11.3778C32.4293 11.3079 31.4361 12.0291 31.134 13.0887L31.4687 13.1841ZM55.9355 79.5435L56.1443 79.2651L56.1404 79.2621L55.9316 79.5405L55.7228 79.8189L55.7267 79.8218L55.9355 79.5435ZM55.9316 79.5405V79.8885H55.9335V79.5405V79.1925H55.9316V79.5405ZM55.9335 79.5405L55.644 79.7336L55.6459 79.7365L55.9355 79.5435L56.225 79.3504L56.2231 79.3475L55.9335 79.5405Z" fill="#082422" mask="url(#path-2-outside-1_664_11587)"/>
<path d="M12.3229 70.6608L28.893 11.5797C29.1487 10.6705 29.9993 10.0671 30.936 10.1266L69.481 12.5782C70.7407 12.6593 71.6102 13.8824 71.2737 15.1055L54.4372 76.6545C54.1734 77.6151 53.2474 78.2374 52.2623 78.1075L13.9837 73.1882C12.7778 73.0312 11.9918 71.8352 12.3229 70.6608Z" fill="#2BF2F1" stroke="#082422" stroke-width="0.347981" stroke-linecap="round" stroke-linejoin="round"/>
<path d="M66.3882 16.702L50.8302 73.5751L17.1706 69.2565L32.5159 14.5454L66.3882 16.702Z" fill="white" stroke="#082422" stroke-width="0.347981" stroke-linecap="round" stroke-linejoin="round"/>
<path d="M49.5921 60.2889L25.1946 57.5748C24.8097 57.5315 24.449 57.7724 24.3386 58.1431L22.196 65.33C22.0534 65.809 22.3737 66.3014 22.8663 66.361L47.4549 69.3916C47.8533 69.4403 48.2274 69.186 48.327 68.7963L50.2785 61.2901C50.4023 60.8138 50.0766 60.3403 49.5921 60.2862V60.2889Z" fill="white" stroke="#082422" stroke-width="0.347981" stroke-linecap="round" stroke-linejoin="round"/>
<path d="M60.9748 10.2105L56.4769 9.96968L41.4519 9.16602C40.8544 9.13626 40.3079 9.56109 40.1653 10.1618L38.1384 15.7008C38.1223 17.07 39.1371 17.438 39.8557 17.4786L59.3786 18.5204C59.9734 18.5583 60.5226 18.1335 60.6652 17.5327L62.0218 11.6609C62.1914 10.9357 61.6988 10.2538 60.9748 10.2078V10.2105Z" fill="#2D993B" stroke="#082422" stroke-width="0.347981" stroke-linecap="round" stroke-linejoin="round"/>
<path d="M60.3371 9.56915L55.8393 9.32832L40.8142 8.52466C40.2167 8.4949 39.6703 8.91973 39.5276 9.52045L38.171 15.3842C38.0014 16.1175 38.4994 16.7967 39.2181 16.8373L58.7409 17.879C59.3358 17.9169 59.8849 17.4921 60.0275 16.8914L61.3841 11.0195C61.5537 10.2943 61.0611 9.61245 60.3371 9.56645V9.56915Z" fill="#60D06F" stroke="#082422" stroke-width="0.347981" stroke-linecap="round" stroke-linejoin="round"/>
<path d="M44.806 12.8817C44.6848 13.6962 43.9123 14.305 43.0887 14.2509C42.8168 14.2347 42.5665 14.1454 42.3619 13.9912H42.3538C41.9608 13.7097 41.7401 13.2308 41.8236 12.6896C41.9528 11.8832 42.7172 11.2609 43.5409 11.3123C43.9796 11.3421 44.343 11.5477 44.5691 11.867C44.7736 12.1403 44.8652 12.4975 44.8033 12.879L44.806 12.8817ZM57.5457 13.5366C57.4246 14.351 56.6521 14.9653 55.8284 14.9139C55.5646 14.8976 55.3224 14.8138 55.1259 14.6703C54.7168 14.3971 54.4826 13.8937 54.566 13.3471C54.6952 12.5408 55.4651 11.9238 56.2833 11.978C56.7221 12.0077 57.0855 12.2134 57.3035 12.5245H57.3116C57.5161 12.7978 57.6076 13.155 57.5457 13.5366Z" fill="#082422" stroke="#082422" stroke-width="0.347981" stroke-linecap="round" stroke-linejoin="round"/>
<path d="M44.8065 12.8815C44.6853 13.696 43.9128 14.3048 43.0892 14.2507C42.8173 14.2345 42.567 14.1452 42.3624 13.9909H42.3543C42.1578 13.7176 42.0663 13.3604 42.1201 12.9789C42.2493 12.1807 43.0138 11.5556 43.8374 11.6097C44.1174 11.6259 44.3677 11.7152 44.5723 11.8695C44.7768 12.1428 44.8684 12.5 44.8065 12.8815ZM57.5462 13.5363C57.4251 14.3508 56.6526 14.9651 55.8289 14.9136C55.5651 14.8974 55.3229 14.8135 55.1264 14.6701C54.9003 14.3887 54.8007 14.0315 54.8626 13.6446C54.9918 12.8382 55.7563 12.2158 56.5799 12.2673C56.8598 12.2835 57.1021 12.3728 57.3067 12.527H57.3147C57.5193 12.8003 57.6108 13.1575 57.5489 13.539L57.5462 13.5363Z" fill="white" stroke="#082422" stroke-width="0.347981" stroke-linecap="round" stroke-linejoin="round"/>
<path d="M34.9171 20.7213L41.1699 21.3085C41.7782 21.3653 42.1335 21.8983 41.9666 22.4991L40.2386 28.6713C40.0717 29.272 39.4418 29.7103 38.8335 29.6535L32.5807 29.0663C31.9724 29.0095 31.6171 28.4764 31.784 27.8757L33.512 21.7035C33.6789 21.1028 34.3088 20.6644 34.9171 20.7213Z" fill="#60D06F" stroke="#082422" stroke-width="0.713361" stroke-linecap="round" stroke-linejoin="round"/>
<path d="M59.2068 25.1531L61.2041 25.3425" stroke="#082422" stroke-width="0.713361" stroke-linecap="round" stroke-linejoin="round"/>
<path d="M45.8533 23.8867L56.2298 24.8717" stroke="#082422" stroke-width="0.713361" stroke-linecap="round" stroke-linejoin="round"/>
<path d="M44.6524 28.062L51.597 28.7223" stroke="#082422" stroke-width="0.713361" stroke-linecap="round" stroke-linejoin="round"/>
<path d="M34.7608 25.0508L35.7433 26.5174L39.369 23.9819" stroke="#082422" stroke-width="0.713361" stroke-linecap="round" stroke-linejoin="round"/>
<path d="M27.4614 45.732L33.7142 46.3192C34.3225 46.376 34.6778 46.9091 34.511 47.5098L32.7829 53.682C32.616 54.2827 31.9861 54.7211 31.3778 54.6643L25.125 54.0771C24.5167 54.0203 24.1614 53.4872 24.3283 52.8865L26.0563 46.7143C26.2232 46.1135 26.8531 45.6752 27.4614 45.732Z" fill="#60D06F" stroke="#082422" stroke-width="0.713361" stroke-linecap="round" stroke-linejoin="round"/>
<path d="M51.7483 50.1641L53.7455 50.3535" stroke="#082422" stroke-width="0.713361" stroke-linecap="round" stroke-linejoin="round"/>
<path d="M38.3948 48.8975L48.7712 49.8824" stroke="#082422" stroke-width="0.713361" stroke-linecap="round" stroke-linejoin="round"/>
<path d="M37.1945 53.0728L44.139 53.733" stroke="#082422" stroke-width="0.713361" stroke-linecap="round" stroke-linejoin="round"/>
<path d="M27.3027 50.0615L28.2852 51.5281L31.9109 48.9927" stroke="#082422" stroke-width="0.713361" stroke-linecap="round" stroke-linejoin="round"/>
<path d="M31.1323 33.534L37.3851 34.1212C37.9934 34.178 38.3487 34.7111 38.1819 35.3118L36.4538 41.484C36.2869 42.0847 35.657 42.5231 35.0487 42.4663L28.7959 41.8791C28.1876 41.8223 27.8323 41.2892 27.9992 40.6885L29.7272 34.5163C29.8941 33.9155 30.524 33.4772 31.1323 33.534Z" fill="#60D06F" stroke="#082422" stroke-width="0.713361" stroke-linecap="round" stroke-linejoin="round"/>
<path d="M55.4207 37.969L57.418 38.1584" stroke="#082422" stroke-width="0.713361" stroke-linecap="round" stroke-linejoin="round"/>
<path d="M42.0666 36.6997L52.4458 37.6847" stroke="#082422" stroke-width="0.713361" stroke-linecap="round" stroke-linejoin="round"/>
<path d="M40.8663 40.8777L47.8109 41.5352" stroke="#082422" stroke-width="0.713361" stroke-linecap="round" stroke-linejoin="round"/>
<path d="M30.9738 37.8635L31.9562 39.3328L35.5819 36.7947" stroke="#082422" stroke-width="0.713361" stroke-linecap="round" stroke-linejoin="round"/>
<path d="M30.7281 62.4411L29.4442 63.3719L29.4576 64.9603C29.463 65.2282 29.1562 65.3906 28.9408 65.2282L27.6757 64.2893L26.1845 64.8061C25.9288 64.8981 25.6893 64.6546 25.7727 64.3975L26.276 62.8849L25.3286 61.6239C25.1725 61.4074 25.3313 61.0963 25.5977 61.0963L27.1751 61.1098L28.0849 59.8082C28.2383 59.5809 28.5828 59.6324 28.6555 59.8894L29.1239 61.402L30.6366 61.8593C30.8896 61.9351 30.9434 62.2842 30.7254 62.4357L30.7281 62.4411ZM38.8786 63.4883L37.5946 64.4191L37.6081 66.0075C37.6135 66.2754 37.3066 66.4378 37.0913 66.2754L35.8262 65.3364L34.335 65.8533C34.0793 65.9453 33.8397 65.7017 33.9231 65.4447L34.4265 63.9321L33.479 62.6711C33.3229 62.4546 33.4817 62.1435 33.7482 62.1435L35.3255 62.157L36.2353 60.8554C36.3887 60.6281 36.7333 60.6795 36.806 60.9366L37.2743 62.4492L38.787 62.9065C39.0401 62.9823 39.0939 63.3314 38.8759 63.4829L38.8786 63.4883ZM47.0317 64.5355L45.7478 65.4663L45.7612 67.0547C45.7666 67.3226 45.4597 67.4849 45.2444 67.3226L43.9793 66.3836L42.4881 66.9005C42.2324 66.9925 41.9928 66.7489 42.0763 66.4919L42.5796 64.9793L41.6322 63.7183C41.476 63.5018 41.6348 63.1907 41.9013 63.1907L43.4787 63.2042L44.3884 61.9026C44.5419 61.6753 44.8864 61.7267 44.9591 61.9838L45.4274 63.4964L46.9402 63.9537C47.1932 64.0295 47.247 64.3785 47.029 64.5301L47.0317 64.5355Z" fill="#DCFF00" stroke="#082422" stroke-width="0.347981" stroke-linecap="round" stroke-linejoin="round"/>
<mask id="mask0_664_11587" style="mask-type:alpha" maskUnits="userSpaceOnUse" x="12" y="8" width="62" height="72">
<path d="M55.8417 9.2478L60.3251 9.48804C60.33 9.48743 60.3357 9.48586 60.3407 9.48608C60.4314 9.49188 60.5184 9.50764 60.6014 9.53101C60.6061 9.53206 60.6105 9.53383 60.6151 9.53491C60.617 9.53547 60.6191 9.53533 60.621 9.53589C61.0203 9.63146 61.3566 9.85114 61.6014 10.1218C61.7756 10.3144 61.9043 10.5365 61.9774 10.7605C62.1242 11.0264 62.1778 11.3499 62.1005 11.6814L62.0214 12.0222L69.4843 12.4978C69.9021 12.5247 70.2779 12.6733 70.5858 12.9031L70.6669 12.906L70.7206 12.9167C70.7376 12.9234 70.7534 12.9331 70.7675 12.9451C71.476 13.5487 72.3442 14.2482 72.9891 14.949C73.3122 15.3 73.5879 15.6599 73.7606 16.0164C73.9333 16.3731 74.01 16.7414 73.913 17.0984L57.1708 78.3015L57.1698 78.3005C57.0051 78.9382 56.5661 79.4276 56.0155 79.6824C56.0105 79.6854 56.0062 79.6905 56.0009 79.6931L55.8846 79.741C55.8094 79.7708 55.7324 79.7961 55.6552 79.8171C55.6056 79.8306 55.5556 79.8415 55.5057 79.8513C55.447 79.8629 55.3861 79.8737 55.3241 79.8806H55.3231C55.3065 79.8824 55.2842 79.8847 55.2626 79.8865C55.1187 79.8984 54.971 79.8973 54.8212 79.8806L54.8192 79.8796L16.538 74.9578C15.3075 74.7997 13.3969 74.0923 12.3583 72.2644C12.3359 72.2246 12.3308 72.177 12.3446 72.1335L12.3593 72.0847C12.1573 71.6505 12.1001 71.1438 12.2421 70.6404L28.8114 11.5593C29.0776 10.6131 29.9638 9.98472 30.9393 10.0466L39.1981 10.571L39.4452 9.50366L39.4784 9.38647C39.6564 8.85011 40.1456 8.46845 40.6971 8.44409H40.8163L55.8417 9.2478Z" fill="#DCFF00"/>
</mask>
<g mask="url(#mask0_664_11587)">
<path opacity="0.3" d="M77.45 39.0676H77.4598L61.7508 49.8303L59.7401 57.262L58.3533 55.5247L49.2322 58.1311L50.4627 57.2981L49.2342 58.1155L51.1141 48.4172L51.119 48.4143L42.2361 39.9534L77.4393 39.0676L77.4608 39.0608L77.45 39.0676Z" fill="#082422"/>
<path opacity="0.3" d="M29.9428 7.06519C33.6343 6.1673 37.3385 6.99133 40.2241 9.02026C48.4265 7.80725 56.3487 13.0324 58.3344 21.2468C60.4401 29.9496 55.0917 38.711 46.3871 40.8171L41.5024 41.9988C41.4993 41.9995 41.4957 42 41.4926 42.0007L34.5551 43.6794L36.3295 47.8464L31.8071 48.9402C31.5967 48.9031 31.3808 48.859 31.1606 48.8074L31.1889 48.8806C31.1889 48.8806 19.1289 48.407 12.2309 41.1238C10.1765 39.0823 8.64232 36.4673 7.91156 33.447C7.61149 32.2068 7.46351 30.9653 7.45453 29.7419C6.77727 28.633 6.25885 27.4002 5.9389 26.0671C4.2946 19.2153 8.49927 12.3079 15.3305 10.6414L18.434 9.88354C18.6551 9.81691 18.8799 9.75615 19.1069 9.70093L29.9428 7.06519ZM10.8539 12.9314C10.3701 13.2914 9.91537 13.6846 9.49164 14.1062C9.91539 13.6846 10.3701 13.2914 10.8539 12.9314ZM11.3549 12.5769C11.3043 12.6108 11.2545 12.6458 11.2045 12.6804C11.3387 12.5876 11.4745 12.4967 11.6127 12.4089L11.3549 12.5769ZM12.4155 11.9402L12.4145 11.9412L12.4155 11.9402ZM14.3842 11.0955C14.2011 11.1562 14.0199 11.2203 13.8412 11.2888L14.1391 11.1794C14.2204 11.1506 14.3021 11.1227 14.3842 11.0955Z" fill="#002522"/>
</g>
<path d="M51.6607 43.2774L42.7653 34.8082L77.9988 33.9411L65.0103 57.6427L57.0865 48.1185L51.6607 43.2774Z" fill="white" stroke="#082422" stroke-width="0.164607" stroke-linecap="round" stroke-linejoin="round"/>
<path d="M77.9989 33.93L57.0771 48.114L49.7726 52.9654L51.6488 43.2707L77.9989 33.93Z" fill="#A6A6A6" stroke="#082422" stroke-width="0.164607" stroke-linecap="round" stroke-linejoin="round"/>
<path d="M49.771 52.9878L58.8007 50.2157L57.0731 48.138L49.771 52.9878Z" fill="#A6A6A6" stroke="#082422" stroke-width="0.164607" stroke-linecap="round" stroke-linejoin="round"/>
<path d="M27.0234 3.17583L16.1868 5.81163C9.45361 7.44935 5.31531 14.2636 6.9437 21.0294C7.50898 23.3781 8.69593 25.4115 10.2851 26.9989C13.7404 30.6665 18.4553 33.4336 21.6418 33.9979C23.4672 33.5539 25.1394 33.1472 25.1394 33.1472L23.767 29.907L32.9196 27.6808C39.6527 26.0431 43.7898 19.2307 42.1611 12.4634C40.5342 5.69726 33.7549 1.53849 27.0234 3.17583Z" fill="#8EA400"/>
<path fill-rule="evenodd" clip-rule="evenodd" d="M21.6428 33.999C18.4564 33.4347 13.7415 30.6676 10.2862 27.0001C8.69698 25.4126 7.51003 23.3792 6.94475 21.0305C5.31636 14.2647 9.45466 7.45046 16.1878 5.81275L27.0244 3.17694C33.756 1.53961 40.5353 5.69838 42.1621 12.4645C43.7909 19.2319 39.6538 26.0442 32.9206 27.6819L23.7681 29.9081L25.1405 33.1483L21.6428 33.999ZM25.1405 33.1483L25.1814 33.3182L25.3809 33.2697L24.0085 30.0295L32.9615 27.8518C39.788 26.1914 43.9825 19.2846 42.3311 12.4234C40.6817 5.56339 33.8084 1.347 26.9835 3.00703L16.1469 5.64283C9.32047 7.30324 5.12474 14.212 6.77573 21.0716C7.34858 23.4518 8.55139 25.5129 10.1617 27.1222C13.6334 30.8064 18.3789 33.5985 21.6126 34.1712L21.6484 34.1775L25.1814 33.3182C25.1814 33.3182 25.1814 33.3182 25.1793 33.3097C25.1758 33.2951 25.1663 33.2556 25.1405 33.1483Z" fill="black"/>
<path d="M23.2542 4.10807L12.4095 6.75336C5.67136 8.39696 1.52381 15.2099 3.1458 21.9682C3.70886 24.3142 4.89424 26.3446 6.48252 27.929C11.8148 33.5819 21.1473 33.9396 21.1473 33.9396L19.9679 30.82L29.1272 28.5858C35.8654 26.9422 40.0117 20.1312 38.3894 13.3714C36.7689 6.61274 29.9908 2.46485 23.2542 4.10807Z" fill="#DCFF00"/>
<path fill-rule="evenodd" clip-rule="evenodd" d="M20.9576 33.9284C19.6059 33.8413 11.3667 33.1058 6.48295 27.9284C4.89466 26.344 3.70928 24.3136 3.14622 21.9675C1.52422 15.2093 5.67178 8.39627 12.41 6.75266L23.2546 4.10736C29.9913 2.46413 36.7695 6.61205 38.3899 13.3707C40.0123 20.1306 35.8659 26.9416 29.1277 28.5852L19.9684 30.8194L21.1478 33.939C21.1478 33.939 21.0817 33.9364 20.9576 33.9284ZM21.1478 33.939L21.1408 34.1135L21.4038 34.1236L20.201 30.9423L29.1684 28.7549C36 27.0885 40.2039 20.1831 38.559 13.3294C36.9161 6.47701 30.0439 2.27163 23.2139 3.93764L12.3692 6.58294C5.53768 8.24932 1.33257 15.1567 2.97707 22.0088C3.54768 24.3863 4.7489 26.4444 6.35833 28.0506C9.05608 30.9095 12.757 32.4228 15.7702 33.2224C17.279 33.6228 18.6199 33.8455 19.584 33.9681C20.0662 34.0294 20.4543 34.0657 20.7225 34.0867C20.8565 34.0972 20.9606 34.1039 21.0314 34.108C21.0668 34.11 21.0939 34.1114 21.1122 34.1123C21.1214 34.1127 21.1284 34.113 21.1332 34.1132L21.1387 34.1134L21.1402 34.1135L21.1406 34.1135C21.1407 34.1135 21.1408 34.1135 21.1478 33.939Z" fill="black"/>
<path d="M16.8779 20.6939C17.5619 20.5268 17.9831 19.8355 17.8187 19.1498C17.6543 18.464 16.9666 18.0435 16.2826 18.2105C15.5986 18.3775 15.1773 19.0689 15.3418 19.7546C15.5062 20.4404 16.1939 20.8609 16.8779 20.6939Z" fill="#002522"/>
<path d="M26.2791 18.4072C26.9631 18.2402 27.3843 17.5489 27.2199 16.8631C27.0555 16.1774 26.3677 15.7569 25.6837 15.9239C24.9997 16.0909 24.5785 16.7822 24.7429 17.468C24.9073 18.1538 25.5951 18.5743 26.2791 18.4072Z" fill="#002522"/>
<path d="M21.5799 19.5501C22.2639 19.383 22.6851 18.6917 22.5207 18.006C22.3563 17.3202 21.6685 16.8997 20.9845 17.0667C20.3005 17.2337 19.8793 17.9251 20.0437 18.6108C20.2081 19.2966 20.8959 19.7171 21.5799 19.5501Z" fill="#002522"/>
</g>
<defs>
<clipPath id="clip0_664_11587">
<rect width="78" height="80" fill="white"/>
</clipPath>
</defs>
</svg>
