<svg width="70" height="80" viewBox="0 0 70 80" fill="none" xmlns="http://www.w3.org/2000/svg">
<g clip-path="url(#clip0_664_11570)">
<path d="M69.1054 58.387L63.3137 59.803C63.1889 59.8341 63.078 59.8825 62.9775 59.9481L57.4249 63.5986C57.5254 63.5329 57.6364 63.4846 57.7611 63.4535L63.5528 62.0375C63.6811 62.0064 63.792 61.9581 63.8925 61.889L69.4451 58.2385C69.3446 58.3041 69.2302 58.356 69.1054 58.387Z" fill="#0CBAB5" stroke="black" stroke-width="0.0531815" stroke-miterlimit="10"/>
<path d="M21.9986 7.03848L24.0366 0.821941C24.1302 0.531836 24.2931 0.317711 24.501 0.179565L18.9485 3.83005C18.7405 3.9682 18.5776 4.17887 18.484 4.47243L16.446 10.689C16.3524 10.9722 16.193 11.1863 15.9816 11.3244L21.5341 7.67394C21.7421 7.5358 21.905 7.32167 21.9986 7.03848Z" fill="#0CBAB5" stroke="black" stroke-width="0.0531815" stroke-miterlimit="10"/>
<path d="M62.2038 71.4143L55.3099 68.6411C55.0812 68.5478 54.8593 68.5029 54.6548 68.5029C54.4157 68.5029 54.1973 68.5651 54.0171 68.6825L48.4645 72.333C48.6448 72.2156 48.8631 72.1534 49.1023 72.1534C49.3068 72.1534 49.5286 72.1983 49.7574 72.2916L56.6513 75.0648C56.887 75.1581 57.1088 75.203 57.3133 75.203C57.5559 75.203 57.7743 75.1408 57.951 75.0199L63.5036 71.3694C63.3233 71.4869 63.1085 71.5525 62.8658 71.5525C62.6613 71.5525 62.4395 71.5076 62.2038 71.4143Z" fill="#0CBAB5" stroke="black" stroke-width="0.0531815" stroke-miterlimit="10"/>
<path d="M7.52398 18.3526C7.67302 19.1297 7.47545 19.7652 7.02141 20.0622L12.574 16.4117C13.0245 16.1147 13.2221 15.4792 13.0765 14.7022L11.5411 6.70355C11.3851 5.89885 11.6035 5.2772 12.0471 4.98364L6.49457 8.63413C6.05092 8.92424 5.83256 9.54589 5.98853 10.354L7.52398 18.3526Z" fill="#0CBAB5" stroke="black" stroke-width="0.0531815" stroke-miterlimit="10"/>
<path d="M48.7563 75.5348L42.6042 69.3183C42.0843 68.7933 41.4846 68.5067 40.9647 68.5067C40.7603 68.5067 40.5696 68.5516 40.3998 68.6448L35.3394 71.4181C35.1661 71.5113 34.972 71.5562 34.7675 71.5562C33.9218 71.5562 32.8959 70.7895 32.3621 69.6533L28.6049 61.6547C28.1613 60.7118 27.3364 59.9693 26.5427 59.8035L19.8117 58.3875C18.6263 58.1354 17.4825 56.678 17.4201 55.3345L17.0631 47.702C17.0215 46.8006 16.4739 45.7887 15.694 45.1739L9.0982 39.9486C7.93362 39.0265 7.37906 37.3445 7.93016 36.4224L11.0704 31.1971C11.4412 30.5789 11.3199 29.5704 10.7654 28.669L6.06891 21.033C5.34451 19.8588 5.38957 18.5948 6.09663 18.1285L0.55101 21.7721C-0.156057 22.2349 -0.201115 23.4989 0.523282 24.6766L5.21973 32.3126C5.77429 33.214 5.8956 34.2225 5.52474 34.8407L2.38453 40.066C1.82997 40.9881 2.388 42.67 3.55258 43.5922L10.1484 48.8175C10.9283 49.4357 11.4759 50.4442 11.5175 51.3456L11.8745 58.9781C11.9369 60.3216 13.0807 61.7824 14.266 62.0311L20.997 63.4471C21.7907 63.6129 22.6157 64.3554 23.0593 65.2982L26.8165 73.2968C27.3502 74.4331 28.3762 75.1998 29.2219 75.1998C29.4264 75.1998 29.6205 75.1549 29.7938 75.0617L34.8542 72.2884C35.024 72.1951 35.2146 72.1502 35.4191 72.1502C35.9356 72.1502 36.5352 72.4369 37.0585 72.9618L43.2107 79.1784C43.7514 79.7275 44.351 80.0004 44.8605 80.0004C45.0997 80.0004 45.3181 79.9382 45.5052 79.8173L51.0578 76.1668C50.8741 76.2877 50.6557 76.3499 50.4131 76.3499C49.9036 76.3499 49.304 76.077 48.7633 75.5279L48.7563 75.5348Z" fill="#0CBAB5" stroke="black" stroke-width="0.0531815" stroke-miterlimit="10"/>
<path d="M25.1415 0.000366211C25.651 0.000366211 26.2507 0.273203 26.7948 0.82233L32.9435 7.03887C33.4634 7.56727 34.0665 7.85392 34.583 7.85392C34.7875 7.85392 34.9781 7.80903 35.1479 7.71578L40.2083 4.94251C40.3816 4.84581 40.5757 4.80091 40.7802 4.80091C41.6259 4.80091 42.6518 5.57107 43.1821 6.70041L46.9393 14.699C47.383 15.6453 48.2079 16.3844 49.0016 16.5536L55.7326 17.9696C56.918 18.2183 58.0583 19.6757 58.1241 21.0192L58.4811 28.6551C58.5227 29.5565 59.0704 30.565 59.8467 31.1832L66.446 36.4085C67.6072 37.3307 68.1652 39.016 67.6141 39.9347L64.4739 45.16C64.103 45.7782 64.2278 46.7867 64.7824 47.6881L69.4788 55.3206C70.3037 56.6641 70.1269 58.125 69.1079 58.3736L63.3162 59.7896C62.6334 59.9554 62.2972 60.6979 62.4809 61.6408L64.0164 69.6394C64.2347 70.7756 63.7148 71.5423 62.8691 71.5423C62.6646 71.5423 62.4428 71.4974 62.2071 71.4042L55.3132 68.6309C55.0844 68.5377 54.8626 68.4928 54.6581 68.4928C54.1382 68.4928 53.7292 68.7794 53.5559 69.3044L51.5214 75.5209C51.3411 76.07 50.9218 76.3429 50.4123 76.3429C49.9028 76.3429 49.3031 76.07 48.7624 75.5209L42.6103 69.3044C42.0904 68.7794 41.4907 68.4928 40.9708 68.4928C40.7663 68.4928 40.5757 68.5377 40.4059 68.6309L35.3455 71.4042C35.1722 71.4974 34.9781 71.5423 34.7736 71.5423C33.9279 71.5423 32.9019 70.7756 32.3682 69.6394L28.611 61.6408C28.1674 60.6979 27.3425 59.9554 26.5487 59.7896L19.8177 58.3736C18.6324 58.1215 17.4886 56.6641 17.4262 55.3206L17.0692 47.6881C17.0276 46.7867 16.48 45.7748 15.7001 45.16L9.10429 39.9347C7.93971 39.0126 7.38515 37.3307 7.93624 36.4085L11.0765 31.1832C11.4473 30.565 11.326 29.5565 10.7714 28.6551L6.07499 21.0192C5.25008 19.6757 5.42685 18.2148 6.44586 17.9696L12.2376 16.5536C12.9204 16.3844 13.2531 15.6453 13.0729 14.699L11.5374 6.70041C11.3191 5.56762 11.8355 4.80091 12.6812 4.80091C12.8857 4.80091 13.1075 4.84581 13.3467 4.94251L20.2406 7.71578C20.4694 7.80903 20.6912 7.85392 20.8957 7.85392C21.4121 7.85392 21.8246 7.56727 21.9944 7.03887L24.0324 0.82233C24.2092 0.273203 24.6286 0.000366211 25.1381 0.000366211H25.1415Z" fill="#2BF2F1" stroke="black" stroke-width="0.0531815" stroke-miterlimit="10"/>
<path d="M40.6463 28.0333C40.5146 28.1196 40.4037 28.2474 40.3275 28.4132L33.1771 43.8164L30.3107 41.2434C29.517 40.532 29.1357 39.375 29.458 38.6635L30.4909 36.3772C30.5672 36.2046 30.6815 36.0733 30.8167 35.9835L25.2642 39.634C25.129 39.7238 25.0181 39.855 24.9384 40.0277L23.9055 42.314C23.5831 43.0255 23.9644 44.1824 24.7581 44.8939L34.3451 53.5038C34.7437 53.8595 35.1666 54.0391 35.534 54.0391C35.7246 54.0391 35.8979 53.9908 36.0435 53.8941L41.596 50.2436C41.4505 50.3403 41.2772 50.3886 41.0865 50.3886C40.7191 50.3886 40.2963 50.209 39.8977 49.8533L33.5549 44.1583L38.2513 41.0707C38.3068 41.0362 38.3518 40.9844 38.383 40.9153L45.88 24.7661C45.9563 24.6004 46.0672 24.4726 46.1989 24.3862L40.6463 28.0367V28.0333Z" fill="#0CBAB5"/>
<path d="M42.5527 26.8244C42.421 26.9107 42.3101 27.0385 42.2338 27.2043L35.0834 42.6075L32.2171 40.0345C31.4233 39.3231 31.0421 38.1661 31.3644 37.4547L32.3973 35.1684C32.4735 34.9957 32.5879 34.8645 32.7231 34.7747L27.1705 38.4251C27.0354 38.5149 26.9244 38.6462 26.8447 38.8189L25.8119 41.1052C25.4895 41.8166 25.8708 42.9736 26.6645 43.685L36.2515 52.2949C36.6501 52.6507 37.0729 52.8302 37.4403 52.8302C37.631 52.8302 37.8043 52.7819 37.9498 52.6852L43.5024 49.0347C43.3568 49.1314 43.1835 49.1798 42.9929 49.1798C42.6255 49.1798 42.2026 49.0002 41.8041 48.6444L35.4612 42.9494L40.1577 39.8619C40.2132 39.8273 40.2582 39.7755 40.2894 39.7064L47.7864 23.5573C47.8626 23.3915 47.9736 23.2637 48.1053 23.1774L42.5527 26.8279V26.8244Z" fill="#D6D6D6" stroke="black" stroke-width="0.0531815" stroke-miterlimit="10"/>
<path d="M48.6133 23.0327C48.9842 23.0327 49.4105 23.2158 49.8125 23.5784L52.3531 25.882C53.1468 26.6038 53.5212 27.7573 53.1919 28.4653L43.8198 48.6552C43.6569 49.0075 43.3519 49.1802 42.9914 49.1802C42.631 49.1802 42.2012 49.0006 41.8026 48.6448L32.2156 40.0349C31.4219 39.3235 31.0406 38.1665 31.3629 37.4551L32.3958 35.1688C32.5553 34.8096 32.8637 34.6335 33.2277 34.6335C33.5916 34.6335 34.0179 34.8131 34.4165 35.1688L39.47 39.7034C39.6294 39.8484 39.8027 39.921 39.9517 39.921C40.1008 39.921 40.2221 39.8484 40.2879 39.7068L47.7849 23.5577C47.9478 23.2089 48.2528 23.0327 48.6133 23.0327Z" fill="white" stroke="black" stroke-width="0.0531815" stroke-miterlimit="10"/>
</g>
<defs>
<clipPath id="clip0_664_11570">
<rect width="70" height="80" fill="white"/>
</clipPath>
</defs>
</svg>
