<svg width="80" height="80" viewBox="0 0 80 80" fill="none" xmlns="http://www.w3.org/2000/svg">
<g clip-path="url(#clip0_664_11564)">
<path d="M40 0.0820312C62.0459 0.0820312 79.918 17.9541 79.918 40C79.918 62.0459 62.0459 79.918 40 79.918C17.9541 79.918 0.0820312 62.0459 0.0820312 40C0.0820312 17.9541 17.9541 0.0820312 40 0.0820312Z" fill="#2BF2F1" stroke="#082422" stroke-width="0.164607"/>
<mask id="mask0_664_11564" style="mask-type:luminance" maskUnits="userSpaceOnUse" x="0" y="0" width="80" height="80">
<path d="M40 0.0820312C62.0459 0.0820312 79.918 17.9541 79.918 40C79.918 62.0459 62.0459 79.918 40 79.918C17.9541 79.918 0.0820312 62.0459 0.0820312 40C0.0820312 17.9541 17.9541 0.0820312 40 0.0820312Z" fill="white" stroke="white" stroke-width="0.164607"/>
</mask>
<g mask="url(#mask0_664_11564)">
<path d="M171.998 18.5889C171.504 18.6504 171.007 18.7119 170.393 18.7887C170.569 18.2841 170.669 17.9973 170.772 17.7104C170.751 17.6874 170.728 17.6643 170.708 17.6413C170.613 17.7437 170.495 17.8308 170.428 17.9512C170.139 18.4583 169.76 18.5633 169.271 18.3687C169.063 18.2867 168.825 18.3098 168.618 18.2278C168.423 18.151 168.185 18.0485 168.085 17.8692C167.739 17.2443 167.017 17.0215 166.515 17.526C165.967 18.0741 165.424 18.6632 165.004 19.3342C164.627 19.9361 164.246 19.9745 163.736 19.7158C163.48 19.5852 163.242 19.388 162.975 19.3163C162.742 19.2548 162.353 19.2164 162.258 19.3598C161.823 20.0181 161.247 19.8362 160.716 19.7619C159.433 19.5852 158.314 19.8004 157.359 20.9401C156.726 21.6982 155.917 22.2591 155.223 22.9532C154.928 23.2451 154.795 23.6293 155.241 23.993C155.74 24.4028 156.229 24.728 156.89 24.6512C157.059 24.6307 157.359 24.9355 157.42 25.1558C157.52 25.5143 157.553 25.9497 157.474 26.3108C157.269 27.2431 157.574 28.2701 157.033 29.1461C156.959 29.2639 157.161 29.6045 157.377 29.9656C156.531 31.0644 155.75 32.2451 154.81 33.2286C154.406 33.6537 153.896 34.2863 153.064 33.8791C152.69 33.6973 152.157 34.125 151.901 34.6859C151.768 34.9753 151.588 35.2724 151.36 35.4594C150.969 35.7846 150.917 36.1329 151.227 36.5017C151.745 37.1164 151.683 37.8617 151.627 38.5917C151.594 39.0245 151.401 39.3626 150.922 39.3805C150.712 39.3882 150.508 39.5726 150.3 39.6802C150.157 39.7544 149.977 39.9363 149.888 39.8902C149.77 39.8287 149.683 39.5931 149.66 39.4215C149.621 39.1321 149.629 38.8324 149.642 38.5379C149.662 38.041 149.598 37.6953 149.114 37.4289C148.825 37.2701 148.722 36.6733 148.482 36.1585C148.251 36.3225 147.936 36.5478 147.675 36.7297C147.928 36.9525 148.174 37.1702 148.42 37.3853C148.19 37.644 147.962 37.913 147.721 38.1614C147.626 38.2587 147.501 38.3151 147.391 38.3919C146.72 38.8529 146.735 38.8939 147.117 39.7109C147.462 40.4485 147.79 41.2066 148.036 41.9929C148.308 42.8509 147.967 43.5834 147.462 44.2083C147.165 44.5771 146.909 44.8127 147.521 45.1841C147.777 45.3403 147.954 45.973 147.926 46.3648C147.893 46.8207 147.613 47.2612 147.406 47.6864C147.155 48.2037 146.681 48.2268 146.361 47.7145C146.166 47.4046 146.061 47.0205 145.959 46.772C144.596 47.4559 143.257 48.1295 141.869 48.8261C141.853 49.5202 141.823 50.3372 141.001 50.5677C140.732 50.6445 140.255 50.5728 140.132 50.3654C139.825 49.8557 139.81 49.2513 140.406 48.8082C139.851 48.488 139.561 48.8671 139.374 49.1949C139.208 49.4843 139.105 49.8454 139.438 50.2475C139.943 50.8545 140.383 51.5512 140.752 52.276C141.431 53.6104 141.088 54.7245 139.881 55.4621C139.612 55.626 139.364 55.8693 139.162 56.1331C138.688 56.7452 138.27 56.7529 137.812 56.1126C137.446 55.6004 137.1 55.06 136.69 54.5964C136.513 54.3966 136.198 54.3557 135.945 54.243C135.835 54.64 135.566 55.083 135.645 55.4211C135.842 56.2791 136.316 56.9476 137.046 57.3906C137.776 57.8337 138.022 58.9914 137.743 60.0748C137.679 60.3257 137.732 60.6152 137.732 60.9404C136.339 60.2566 136.121 58.6866 135.561 57.4111C135.504 57.4521 135.45 57.4905 135.394 57.5315C135.45 57.7159 135.504 57.9003 135.573 58.1257C135.089 57.9515 134.393 56.8349 134.38 56.2458C134.359 55.3366 134.406 54.4197 134.329 53.5182C134.277 52.924 134.065 52.3503 133.898 51.669C133.583 51.8508 133.443 51.943 133.291 52.0173C132.748 52.2837 132.157 51.9558 132.164 51.2976C132.18 50.0068 131.219 49.3639 130.799 48.3728C130.781 48.3318 130.74 48.2985 130.702 48.2806C130.477 48.1602 128.889 48.821 128.771 49.0771C128.722 49.1847 128.689 49.3255 128.612 49.3921C128.018 49.889 127.398 50.35 126.817 50.8673C126.312 51.3181 125.831 51.8099 125.375 52.3272C125.267 52.4501 125.321 52.7472 125.283 52.9624C125.193 53.4439 125.08 53.9177 124.998 54.3992C124.97 54.5606 124.952 54.7603 125.009 54.9012C125.303 55.6311 125.587 56.3713 125.949 57.0577C126.189 57.5187 126.133 57.7799 125.733 57.99C125.464 58.1308 125.196 58.2666 124.857 58.4407C124.711 58.1949 124.527 57.9362 124.399 57.6468C124.266 57.3471 124.189 57.0167 124.087 56.6991C123.06 57.1294 122.929 57.0167 122.442 55.7566C121.976 54.5478 121.418 53.3875 120.931 52.1889C120.747 51.7305 120.578 51.2362 120.524 50.7418C120.401 49.6303 119.663 49.1539 118.982 48.593C118.8 48.4445 118.642 48.2396 118.519 48.0245C117.909 46.9462 117.261 45.9986 115.95 46.101C115.071 46.1702 114.188 46.1138 113.207 46.1138C113.337 46.3879 113.401 46.5518 113.488 46.7029C113.99 47.5891 113.967 48.3292 113.366 49.072C112.81 49.7609 112.236 50.4319 111.647 51.085C111.504 51.2438 111.276 51.3104 111.081 51.4052C110.226 51.8227 109.357 52.2094 108.515 52.6627C107.649 53.1289 106.811 53.659 105.959 54.1585C105.984 54.243 106.01 54.3249 106.035 54.4094C106.648 54.3121 107.262 54.2174 107.874 54.12C108.087 54.0867 108.3 54.0458 108.512 54.0099C109.301 53.8742 109.677 54.2583 109.416 55.124C109.15 56.0076 108.696 56.8221 108.302 57.6544C107.99 58.3127 107.646 58.9504 107.306 59.5907C107.219 59.7546 107.126 59.9467 106.993 60.0363C105.574 60.9788 104.46 62.3209 103.518 63.7987C103.146 64.3826 103.047 65.3431 103.103 66.1037C103.213 67.6379 103.541 69.1515 103.72 70.6831C103.81 71.4412 103.026 72.4017 102.414 72.6552C102.03 72.814 101.745 73.2648 101.397 73.5491C100.777 74.0562 100.552 74.6427 100.798 75.5391C101.062 76.4919 100.634 77.3473 100.227 78.1566C100.183 78.2463 100.045 78.3231 99.9501 78.3205C99.4609 78.3103 99.4712 78.697 99.3815 79.0966C99.2688 79.6011 99.1203 80.1671 98.8232 80.5308C98.0369 81.4912 97.6271 82.8205 96.5002 83.4531C95.6729 83.9167 94.8534 84.2778 93.9211 84.2932C93.4985 84.3009 93.0708 84.4212 92.6559 84.5365C91.4752 84.8643 90.7248 84.265 90.566 82.8922C90.5096 82.3877 90.4072 81.8703 90.233 81.4042C89.8207 80.3029 89.3494 79.2297 88.914 78.1412C88.8526 77.9876 88.8065 77.8057 88.8193 77.6418C88.9012 76.4893 88.4351 75.5391 87.9203 74.6427C87.0751 73.1726 87.3082 71.6333 87.572 70.0736C87.5848 70.0018 87.6078 69.9224 87.6488 69.8712C88.8397 68.4523 87.951 67.0719 87.4977 65.7734C87.175 64.8462 86.5834 64.019 86.0327 63.2224C85.5999 62.5975 85.5845 61.9777 85.8944 61.3758C86.3221 60.5409 85.774 59.98 85.5384 59.3397C85.5051 59.2475 85.0825 59.2398 84.9058 59.3397C84.4806 59.5881 84.1835 59.4703 84.0043 59.017C83.6816 58.2 83.1002 57.9848 82.4215 58.1641C81.8554 58.3152 81.3227 58.6277 80.7721 58.8531C80.4955 58.9658 80.2112 59.1066 79.9218 59.1297C79.0663 59.1963 78.2083 59.2142 77.3529 59.2449C76.7741 59.2654 76.2644 59.2782 75.806 58.6379C75.4525 58.1462 74.802 57.9413 74.3102 57.5674C74.1002 57.4086 73.8185 57.1499 73.8057 56.9194C73.7647 56.2202 73.4036 55.8232 72.9938 55.4006C72.5968 54.9934 72.1845 54.5657 71.913 54.0534C71.5211 53.3158 71.4392 52.5321 71.8157 51.669C72.2126 50.7598 72.205 49.7609 71.8285 48.8082C71.6389 48.3292 71.6159 47.9271 71.8951 47.4379C72.2844 46.7541 72.5405 45.973 72.8862 45.2533C73.0501 44.9126 73.2883 44.6207 73.5368 44.2416C72.876 44.2416 72.3714 44.28 71.8771 44.2237C71.6825 44.2006 71.5083 43.965 71.3239 43.8267C71.4853 43.5757 71.6287 43.3017 71.8182 43.0814C71.8822 43.0071 72.0999 43.0046 72.1896 43.0711C72.7505 43.4861 73.232 43.0814 73.547 42.961C73.9542 43.1429 74.2462 43.4067 74.446 43.3349C74.9838 43.1454 75.4602 42.7203 75.4704 42.0211C75.4858 40.8352 76.0595 40.1309 76.8484 39.5265C77.0558 39.3677 77.2479 39.1065 77.335 38.8427C77.4912 38.3586 77.3503 38.0052 76.8279 38.0461C76.2798 38.0897 76.0467 37.7798 75.998 37.1881C75.9827 37.0114 75.8444 36.8526 75.8136 36.6733C75.7573 36.3686 75.6139 35.9306 75.7342 35.7667C76.1056 35.2673 76.0954 34.7525 76.0237 34.1736C75.8521 32.7983 76.2388 32.2963 77.4579 32.3194C78.1264 32.3322 78.7923 32.3834 79.4582 32.4346C79.8782 32.4653 80.0268 32.2246 80.0626 31.7841C80.1318 30.9696 79.6503 30.2448 78.9921 29.981C78.7078 29.8658 78.5106 29.4636 78.2749 29.1896C78.5362 28.9386 78.7795 28.6492 79.0689 28.452C79.2277 28.3444 79.4659 28.3905 79.6708 28.3675C79.6759 28.2906 79.681 28.2138 79.6861 28.1344C79.3737 28.1037 79.0561 28.096 78.7487 28.0345C78.4901 27.9833 78.0777 27.9449 78.0214 27.7733C77.9394 27.5274 78.1213 27.1714 78.1853 26.8615C78.2007 26.7924 78.2058 26.7232 78.2416 26.4568C77.7012 26.5823 77.1967 26.6233 76.751 26.8256C76.2977 27.028 75.87 27.1945 75.4884 26.7847C75.1401 26.4082 75.0991 25.9472 75.4115 25.458C75.4781 25.3555 75.3552 25.0764 75.2912 24.8894C75.1477 24.4591 75.1631 24.1646 75.6164 23.9699C75.9161 23.8419 76.1594 23.5448 76.4258 23.3168C76.605 23.1632 76.7562 22.9301 76.9534 22.8558C77.3401 22.7073 77.3427 22.4717 77.189 22.1259C76.6281 20.8709 77.0763 19.9515 78.2903 19.8157C78.6207 19.7799 78.9434 19.6211 79.2738 19.5929C79.4838 19.575 79.7988 19.6185 79.8961 19.7722C80.0242 19.9796 79.9884 20.3228 80.0345 20.7096C80.5723 20.8095 80.5749 21.3678 80.6594 22.0106C80.7465 22.6689 81.0666 23.2989 81.3509 23.9034C81.5276 24.2824 81.7991 24.623 82.0757 24.9201C82.3318 25.1942 82.6571 25.3888 82.9798 25.6398C83.2513 25.3863 83.5894 24.9944 83.9863 24.7178C84.3731 24.4514 84.8187 24.3003 85.1491 24.1415C85.2183 23.4731 85.1337 22.6945 85.4027 22.1413C85.6434 21.647 86.276 21.4011 86.8881 20.9247C86.9368 21.4984 86.924 21.8109 86.9983 22.0977C87.0546 22.3103 87.1878 22.5613 87.3466 22.6458C87.4542 22.7022 87.7564 22.5485 87.8127 22.4051C87.8793 22.2411 87.8025 21.9722 87.7333 21.7725C87.6027 21.3857 87.4362 21.0118 87.2774 20.6379C87.0111 20.0053 86.7882 19.9771 86.2786 20.328C85.856 20.6174 85.377 20.7966 84.9186 21.0169C84.3193 21.3038 83.9326 20.8479 83.8352 20.3433C83.6431 19.3496 83.6098 18.3174 83.5279 17.2981C83.5202 17.1956 83.5945 17.0497 83.6713 16.9805C84.2706 16.4324 84.8213 15.723 85.5051 15.4182C85.9815 15.2056 86.3375 14.9111 86.7293 14.5961C87.4875 13.9891 88.0919 12.9544 87.928 12.1629C87.6847 10.9848 88.412 10.698 88.7808 10.0602C88.8526 9.93473 89.0062 9.81436 89.1317 9.79643C89.9641 9.66581 90.5993 9.17406 91.1422 8.4723C91.2242 8.3673 91.3446 8.26485 91.4598 8.2418C92.1565 8.11374 92.8557 8.00873 93.5549 7.89604C93.7034 7.87299 93.875 7.89604 93.9928 7.81152C95.1044 7.02268 96.2262 7.16354 97.3736 7.70651C97.8038 7.90884 98.3929 7.82433 98.4749 8.59012C98.48 8.62853 98.521 8.68232 98.5568 8.69512C99.1126 8.88721 99.6761 9.05881 100.229 9.26114C100.816 9.47372 101.397 9.70166 101.973 9.94241C102.204 10.0397 102.419 10.1857 102.639 10.3163C103.152 10.6186 103.766 10.7569 103.92 11.5841C103.976 11.8838 104.255 12.1297 104.435 12.3986C104.519 12.3448 104.604 12.2936 104.688 12.2398C104.565 11.7173 104.483 11.1795 104.307 10.6826C104.173 10.3061 104.112 10.0269 104.494 9.83997C104.86 9.65812 105.226 9.51214 105.533 9.97827C105.621 10.1115 105.733 10.3368 105.828 10.3343C106.417 10.3138 106.893 10.4239 106.873 11.3818C106.932 11.3383 106.993 11.2947 107.052 11.2537C107.075 11.0565 107.162 10.8363 107.114 10.6647C106.809 9.56592 107.037 9.2509 108.276 9.30724C108.737 9.32773 109.268 9.38408 108.84 10.3573C109.186 10.2216 109.391 10.1755 109.567 10.0653C110.005 9.79387 110.423 9.55312 110.812 10.1576C110.85 10.2165 110.976 10.2472 111.045 10.2241C111.68 10.0167 112.31 9.79643 112.917 9.58641C112.948 9.30468 112.933 8.90514 113.061 8.57987C113.104 8.46718 113.504 8.49279 113.734 8.52353C114.034 8.5645 114.329 8.74635 114.623 8.74379C115.332 8.7361 116.001 8.6439 116.582 9.35334C116.874 9.70935 117.428 9.78618 117.86 9.99108C117.896 9.89631 117.932 9.80411 117.968 9.70935C117.745 9.58897 117.525 9.47116 117.381 9.39432C117.338 8.85392 117.223 8.35449 117.287 7.88579C117.335 7.52723 117.602 7.1994 117.794 6.87669C118.001 6.53093 118.242 6.21335 118.452 5.86759C118.521 5.75234 118.501 5.54745 118.583 5.46037C118.949 5.07875 119.302 4.63823 119.735 4.39492C119.976 4.25918 120.821 5.59099 120.872 6.12115C120.893 6.33629 120.875 6.55655 120.875 6.86645C121.354 6.5796 121.961 6.56423 121.771 5.65758C121.822 5.6294 121.871 5.60379 121.922 5.57562C122.099 5.76002 122.266 5.95723 122.458 6.12115C122.611 6.25177 122.801 6.44898 122.957 6.43105C123.613 6.3619 124.261 6.22103 124.978 6.09554C124.978 6.12883 124.996 5.98541 124.957 5.86247C124.676 4.95582 124.686 4.92252 125.472 4.51273C125.534 4.482 125.577 4.41029 125.546 4.26174C126.054 4.14905 126.558 4.03636 127.178 3.89805C127.324 3.63169 126.947 2.90176 127.688 2.7865C128.118 2.71991 128.507 2.38696 128.935 2.25122C129.813 1.97718 130.697 1.72362 131.591 1.52897C132.177 1.40091 132.789 1.30615 133.378 1.35225C134.336 1.42396 135.097 0.87075 135.727 0.263753C136.257 -0.24592 136.844 -0.20238 137.389 -0.438007C137.674 -0.560944 138.03 -0.471304 138.352 -0.453376C138.496 -0.445692 138.736 -0.417519 138.765 -0.325317C139.08 0.658172 139.858 0.343149 140.465 0.504503C141.149 0.686346 141.856 0.791355 142.506 1.07308C143.324 1.42909 143.475 2.21024 142.983 3.01957C142.734 3.42936 143.055 4.31808 143.49 4.36419C143.918 4.41029 144.351 4.42053 144.781 4.41029C145.321 4.39748 145.813 4.34882 146.189 5.00448C146.335 5.25803 146.845 5.2606 147.196 5.33487C147.608 5.42195 147.811 5.23498 147.995 4.75092C148.092 4.49737 148.661 4.37699 149.017 4.37699C149.57 4.37699 150.123 4.54603 150.679 4.61518C151.279 4.68945 151.629 5.01985 151.668 5.73441C151.691 6.15188 151.696 6.58216 151.796 6.97658C151.847 7.18147 152.072 7.44527 152.239 7.46576C152.398 7.48369 152.685 7.25575 152.736 7.07134C152.889 6.51045 153.092 6.60521 153.537 6.68973C154.477 6.86389 155.451 6.80498 156.411 6.82291C156.49 6.82291 156.624 6.69997 156.647 6.60777C156.844 5.80612 157.456 5.85223 157.955 5.85479C159.052 5.85479 160.15 5.94955 161.247 6.04431C161.907 6.10322 162.509 6.25689 163.024 6.8895C163.605 7.60151 164.325 7.82945 165.296 7.63736C166.284 7.44271 167.358 7.8192 168.395 7.95495C168.495 7.96775 168.582 8.09069 168.684 8.11118C169.337 8.24692 169.996 8.36729 170.651 8.49279C170.646 8.5645 170.641 8.63366 170.638 8.70537C170.316 8.73866 169.993 8.77196 169.67 8.80269C169.67 8.85904 169.675 8.91282 169.675 8.96917C170.603 8.90002 171.535 8.7361 172.457 8.78989C173.399 8.84367 174.278 8.2085 175.284 8.70025C175.855 8.97941 176.624 8.70537 177.303 8.71817C177.546 8.7233 177.817 8.77708 178.025 8.9077C179.126 9.60434 180.258 10.26 181.288 11.0796C181.948 11.6046 182.55 12.0323 183.388 12.0195C183.677 12.0144 184.01 12.3371 184.254 12.5958C184.768 13.1413 184.645 13.5972 183.985 13.9225C183.785 14.0224 183.58 14.2247 183.48 14.4424C183.186 15.0801 182.591 15.2031 182.002 14.9239C181.334 14.6063 180.604 14.4168 179.884 14.3297C179.687 14.3066 179.349 14.8214 179.239 15.1595C179.108 15.5591 179.182 16.038 179.113 16.4734C178.998 17.1905 178.598 17.4133 177.979 17.2238C177.797 17.1675 177.51 17.1982 177.382 17.3288C176.588 18.1535 175.671 18.6837 174.639 18.9808C174.483 19.0269 174.36 19.2267 174.204 19.2625C173.901 19.3317 173.535 19.4674 173.289 19.3368C172.864 19.114 172.6 19.1806 172.178 19.4111C171.619 19.7158 171.25 20.1077 170.851 20.6327C170.492 21.1066 170.267 21.4754 170.362 22.0952C170.449 22.6586 170.395 23.1606 169.647 23.0915C169.791 23.8905 169.458 24.4105 169.112 25.0303C168.451 26.211 167.649 27.0587 166.533 27.6247C166.039 27.8757 165.662 28.4366 165.216 28.8695C164.837 28.1165 165.111 27.2201 165.652 26.8846C165.818 26.7821 165.957 26.3826 165.928 26.1444C165.828 25.248 165.572 24.3669 165.529 23.4705C165.457 22.0106 166.115 21.1578 167.091 20.4381C167.396 20.2127 167.655 19.9054 167.972 19.6006C168.018 19.721 168.064 19.8465 168.121 20.0001C168.418 19.703 168.687 19.4341 168.999 19.1216C169.12 19.2343 169.291 19.3931 169.535 19.6185C168.917 20.0206 168.943 20.5175 169.171 21.1706C169.317 21.5906 169.429 22.1669 168.887 22.5382C168.746 22.633 168.776 23.0556 168.753 23.1913C169.053 22.9301 169.458 22.715 169.665 22.3513C169.826 22.067 169.839 21.5727 169.752 21.2218C169.455 20.0104 170.08 19.009 171.179 19.0346C171.35 19.0397 171.522 19.0755 171.694 19.0781C172.027 19.0832 172.119 18.8988 171.983 18.5608C172.375 18.5736 172.8 18.4711 173.148 18.612C173.845 18.8988 174.206 18.8502 174.818 18.0562C174.506 18.2073 174.285 18.3302 174.055 18.4199C173.865 18.4916 173.594 18.6427 173.481 18.5531C172.961 18.1433 172.482 18.2355 171.988 18.5684L171.998 18.5889ZM86.9035 33.9431C86.8523 33.9841 86.8011 34.0277 86.7498 34.0686C86.7883 34.2787 86.8651 34.4861 86.8625 34.6961C86.8548 35.1725 86.8676 35.6668 86.7601 36.1201C86.6243 36.6887 86.1556 36.6938 85.7484 36.6349C85.3284 36.5735 85.1901 36.2175 85.2567 35.7641C85.377 34.9369 85.5051 34.1096 85.6306 33.2849C84.9314 33.3848 84.2655 33.4258 83.6329 33.6076C83.4408 33.664 83.3435 34.1173 83.1847 34.3734C83.1079 34.4989 82.9875 34.5911 82.9388 34.6449C83.259 34.9625 83.5509 35.2493 83.8429 35.5362C83.4357 35.864 83.0361 36.4428 82.6161 36.4685C81.712 36.5222 81.315 37.2547 80.7593 37.8438C80.9744 37.8848 81.1716 37.8617 81.3637 37.8156C82.0501 37.6492 82.7339 37.4545 83.4254 37.3136C83.7174 37.2547 84.0273 37.329 84.3244 37.2957C85.0646 37.2163 85.8022 37.0626 86.5449 37.0268C87.0853 37.0012 87.4772 37.2368 87.4926 38.0128C87.5054 38.6121 87.6795 39.2089 87.7717 39.7493C88.4018 40.0003 89.1292 40.0925 89.6209 40.533C90.2586 41.1042 90.9527 41.1938 91.7825 41.4807C91.5597 40.3461 92.2538 40.2026 92.807 40.1924C93.4499 40.1821 94.1029 40.4127 94.7381 40.5996C95.7549 40.9018 96.7205 41.5985 97.8346 40.9633C98.042 40.8455 98.3442 40.9146 98.5978 40.9428C99.4788 41.0427 99.9117 40.6022 99.9757 39.4497C99.717 39.5239 99.4763 39.6033 99.2304 39.6571C98.6618 39.7852 98.4339 39.57 98.3801 38.9297C98.3699 38.794 98.2085 38.5456 98.1778 38.5584C97.4069 38.858 96.4515 38.292 95.8138 39.2038C95.3579 39.8569 94.4205 39.7672 93.8827 39.2396C93.4678 38.8324 93.0862 38.374 92.7174 37.9104C92.4536 37.5774 92.1565 37.2317 92.0105 36.827C91.6289 35.7667 91.383 35.6924 90.6889 36.5632C90.5583 36.7271 90.4405 36.9013 90.3201 37.078C89.2162 38.7095 89.6926 38.5609 88.1662 37.7362C88.1277 37.7157 88.0688 37.7029 88.056 37.6671C87.9613 37.4135 87.805 37.1497 87.8178 36.9013C87.8255 36.7451 88.0816 36.5658 88.2558 36.4761C88.4197 36.3916 88.6246 36.4121 88.8372 36.3814C88.8244 35.7488 88.8935 35.1571 88.1431 35.0368C87.9203 35.0009 87.7282 34.7115 87.5259 34.5296C87.3159 34.3401 87.111 34.1403 86.9061 33.9457L86.9035 33.9431ZM92.8377 19.9335C93.1195 19.9617 93.3705 20.0821 93.4934 19.9873C94.1721 19.4623 94.8995 19.452 95.6653 19.5673C96.2006 19.6492 96.4618 19.3393 96.5105 18.653C96.2287 18.676 95.9777 18.6683 95.7344 18.7247C95.3554 18.8117 94.9866 18.9629 94.6075 19.0474C93.4755 19.2958 92.8633 18.7503 92.7942 17.4671C92.7839 17.3007 92.7276 17.1342 92.6917 16.9703C92.5995 16.5246 92.6917 16.2045 93.0196 15.8741C93.478 15.4105 93.8571 14.8419 94.2387 14.2887C94.3104 14.1837 94.2925 13.8533 94.2156 13.7919C94.1004 13.7022 93.8801 13.7073 93.7367 13.7688C93.6138 13.8226 93.4908 13.9942 93.4447 14.1453C93.1271 15.1851 92.3562 15.6641 91.6033 16.1968C90.8375 16.7372 90.7709 17.7898 91.3446 18.6504C91.6058 19.0448 91.6622 19.5007 91.3574 19.9387C91.1474 20.2383 90.9502 20.5508 90.6505 21.0067C90.9399 20.9324 91.068 20.853 91.173 20.8837C91.3907 20.9426 91.5981 21.0605 91.8081 21.1552C91.6801 21.46 91.5751 21.7878 91.406 22.0593C91.3497 22.149 91.1192 22.0926 90.9706 22.1131C90.461 22.1848 89.7643 23.1171 89.8207 23.5576C90.42 23.5115 91.0116 23.45 91.6033 23.4244C91.9849 23.4065 92.1846 23.2374 92.2615 22.7892C92.4279 21.8365 92.638 20.8965 92.8326 19.9361L92.8377 19.9335ZM98.0907 31.3C97.5964 31.592 96.8844 32.8239 96.8997 33.5308C96.9023 33.6588 97.097 33.8919 97.1917 33.8868C97.6297 33.8612 98.0753 33.8202 98.4979 33.6896C99.3073 33.4386 100.05 33.1953 100.882 33.7843C101.392 34.1429 102.089 34.166 102.708 34.2915C102.821 34.3145 103.026 34.1327 103.08 33.9918C103.113 33.9047 102.957 33.6998 102.86 33.5743C102.688 33.3592 102.481 33.1799 102.317 32.9596C101.722 32.1631 100.985 31.9685 100.124 32.3629C99.9194 32.4577 99.6146 32.5601 99.4609 32.4577C99.005 32.1503 98.6004 31.7431 98.0907 31.2974V31.3ZM100.36 44.6104C100.298 44.6591 100.237 44.7077 100.173 44.759C100.183 44.8742 100.158 45.0176 100.209 45.0996C100.749 45.9909 100.534 47.2254 101.246 48.0501C101.372 48.196 101.32 48.5239 101.397 48.7493C101.576 49.2794 101.771 49.807 101.986 50.3193C102.086 50.5574 102.311 50.7342 102.383 50.9775C102.673 51.9482 103.49 52.2581 104.097 52.8318C104.163 52.8932 104.314 52.8394 104.488 52.8394C104.448 52.4988 104.494 52.1659 104.368 51.9891C103.687 51.0108 103.648 49.5227 102.506 48.9106C102.424 48.8671 102.347 48.716 102.34 48.6084C102.263 47.4687 101.599 46.6696 101.092 45.7834C100.864 45.3813 100.603 45.0023 100.357 44.6104H100.36ZM109.301 30.8672C109.255 30.757 109.206 30.6444 109.16 30.5342C108.709 30.798 108.238 31.0311 107.813 31.341C107.59 31.5023 107.324 31.7892 107.293 32.0504C107.17 33.0954 107.759 33.8561 108.335 34.4912C108.737 34.9317 108.717 35.2724 108.525 35.7027C108.043 36.7835 108.13 37.0678 109.147 37.3521C109.368 37.4135 109.747 37.411 109.829 37.2675C109.954 37.0524 109.934 36.6759 109.885 36.3891C109.788 35.8025 109.644 35.2212 109.493 34.6475C109.398 34.2863 109.291 33.9175 109.122 33.5948C108.919 33.2055 108.65 32.8598 108.407 32.4986C108.082 32.0171 108.274 31.6944 108.65 31.4127C108.873 31.2437 109.083 31.049 109.298 30.8672H109.301Z" fill="#60D06F" stroke="#082422" stroke-width="0.164607" stroke-linecap="round" stroke-linejoin="round"/>
<path d="M26.9764 7.98666C26.6998 8.70635 26.4718 9.29542 26.2439 9.88449C26.2746 9.91778 26.3054 9.95364 26.3386 9.98694C26.6742 9.76411 27.0148 9.55154 27.3477 9.32103C27.6628 9.10333 27.9676 8.86771 28.3773 8.56549C28.3568 8.36572 28.321 8.01484 28.28 7.59481C27.3938 7.90983 26.7792 7.5359 26.2311 6.84438C26.0262 6.58314 25.6702 6.48326 25.4294 6.25019C25.14 5.97359 25.0427 5.74308 25.4064 5.30256C25.9622 4.62897 26.477 3.98612 27.3324 3.90416C27.7422 3.86574 28.1443 3.8222 28.4081 4.34724C28.4798 4.49067 28.7436 4.50603 28.9177 4.58287C28.9741 4.53933 29.0279 4.49579 29.0842 4.45481C28.9767 4.19101 28.9152 3.87343 28.7513 3.67365C28.5156 3.3868 28.2698 3.05385 27.8113 3.34583C27.2658 3.69158 26.8253 3.57121 26.3489 2.97446C25.9622 2.48783 25.2963 2.30343 24.784 1.9295C24.5714 1.77583 24.4408 1.47873 24.2718 1.24567C24.4844 1.14066 24.6867 0.989549 24.907 0.938326C25.2373 0.85893 25.5805 0.835878 25.9212 0.810267C26.2746 0.782094 26.6306 0.800022 26.9815 0.756483C27.4502 0.697576 27.9394 0.669403 28.3748 0.490121C28.8204 0.305717 30.0984 0.390236 30.5262 0.648914C30.8284 0.830757 31.2715 0.986989 31.5481 0.861491C31.7811 0.753922 31.8657 0.221198 32.0116 -0.114316C32.3087 0.0265493 32.7313 0.405602 32.9593 0.29035C33.2077 0.162292 33.2769 -0.421654 33.4818 -0.956938C33.2179 -0.956938 33.0003 -1.00304 32.803 -0.949255C31.922 -0.713627 31.0282 -0.846809 30.4519 -1.56394C29.9858 -2.14532 29.5888 -2.49364 28.9049 -2.5884C28.7385 -2.61145 28.5131 -3.40798 28.5541 -3.8152C28.6539 -4.80125 29.7015 -5.70791 30.5569 -5.5235C31.0025 -5.42618 31.3893 -4.9831 31.8093 -4.70905C32.1627 -4.47855 32.5264 -4.26853 32.885 -4.05083C32.926 -4.12254 32.967 -4.1917 33.0105 -4.26341C32.7954 -4.53233 32.5905 -4.8115 32.3625 -5.07018C32.1269 -5.33654 31.8708 -5.58241 31.4431 -6.02293C32.0526 -6.22783 32.5136 -6.39942 32.9823 -6.53773C33.4741 -6.68115 33.9735 -6.79384 34.4704 -6.91934C34.6983 -6.97825 34.9416 -7.12423 35.1516 -7.07557C36.0224 -6.8758 36.7037 -7.44182 37.4695 -7.70306C38.2583 -7.97198 39.1138 -8.09748 39.941 -8.09748C41.9797 -8.1026 44.0184 -7.99503 46.0571 -7.94381C46.8613 -7.92332 47.4094 -7.34962 48.1598 -6.87324C47.499 -6.50955 46.9842 -6.24832 46.4899 -5.94354C45.4783 -5.31861 44.3718 -4.81406 43.5062 -3.98168C42.8351 -3.33627 42.0694 -2.96746 41.3906 -2.41168C40.9348 -2.03775 40.6607 -1.38465 40.2842 -0.874981C40.1638 -0.713627 39.9948 -0.554836 39.8206 -0.498491C39.2854 -0.326892 38.8807 -0.142487 39.1752 0.669404C39.2418 0.856369 38.9755 1.21237 38.8448 1.47873C38.6451 1.8834 38.3505 2.2522 38.2353 2.68504C37.9869 3.62499 37.1673 4.18845 36.3375 3.90928C36.1146 3.83501 35.8764 3.8094 35.6434 3.79147C34.3807 3.69927 33.1155 3.62755 31.8528 3.52255C31.3944 3.48413 30.9821 3.374 30.8437 2.70297C30.8002 2.49296 30.3879 2.38539 30.1471 2.23172C30.2265 2.75676 30.2905 3.19472 30.3546 3.63011C30.2905 3.67878 30.2265 3.72744 30.165 3.77866C30.6004 3.92465 31.0486 4.03734 31.4687 4.22943C31.6684 4.32163 31.9271 4.54701 31.9553 4.75191C31.9988 5.06437 32.1038 5.50489 31.6454 5.66624C31.3816 5.75845 31.1229 5.90699 30.8898 6.07859C30.5569 6.32703 30.4416 6.60107 30.7644 7.03391C31.0563 7.42833 31.2612 7.91751 31.4636 8.38877C31.7171 8.97784 32.0705 9.33128 32.6673 9.45421C32.9849 9.5208 33.2615 9.85632 33.5483 10.0843C33.7174 10.2174 33.8736 10.3737 34.035 10.5197C34.14 10.2789 34.268 10.0458 34.3372 9.79229C34.3782 9.64118 34.3269 9.45934 34.3193 9.36457C33.8429 9.14687 33.3947 9.00089 32.9951 8.74733C32.2063 8.2479 31.8016 7.08001 32.1679 6.14262C32.6058 5.02083 33.1693 4.13979 34.4115 4.42152C35.5563 4.68276 36.6678 4.42152 37.7948 4.45225C38.6912 4.47786 39.3699 4.75959 40.0486 5.46135C40.6863 6.11957 41.365 6.84182 42.3664 6.85719C42.766 6.86487 43.163 7.16965 43.624 7.19782C44.2796 8.04557 44.9327 8.89076 45.614 9.7718C45.5321 9.87169 45.4219 10.0023 45.2093 10.2584C46.1237 10.8168 46.9868 11.3623 47.8653 11.8694C48.1854 12.0538 48.3698 12.6787 48.0779 12.9681C47.4555 13.5803 46.7845 14.1258 46.2005 14.6406C46.2005 15.4755 46.1903 16.3284 46.2031 17.1813C46.2133 17.7498 45.947 17.8728 45.5449 17.7294C44.4179 17.3298 43.2808 16.9533 42.1846 16.4667C41.8721 16.3284 41.7031 15.8136 41.4265 15.5191C41.26 15.3423 41.0218 15.1784 40.8016 15.1528C40.2048 15.0837 39.5927 15.1374 39.0011 15.0452C38.7808 15.0094 38.5938 14.6969 38.3915 14.51C38.558 14.2897 38.6937 14.0003 38.9037 13.8671C39.1573 13.7083 39.4979 13.5598 39.7617 13.6238C40.4481 13.7928 40.7299 13.2934 41.0449 12.794C41.132 12.6582 41.237 12.5327 41.3036 12.3842C41.4035 12.1665 41.4752 11.9309 41.5571 11.7029C41.301 11.6491 41.0321 11.5211 40.7888 11.5672C40.5762 11.6056 40.4046 11.9129 40.1869 11.9693C39.918 12.0384 39.544 12.0897 39.3571 11.9283C39.1778 11.7746 39.1547 11.3469 39.1138 11.0319C39.0753 10.7527 39.1061 10.4608 39.1061 10.2943C38.6809 10.3942 38.2711 10.4787 37.869 10.5888C37.4413 10.7066 37.3133 10.9807 37.3722 11.516C37.4106 11.8515 37.2262 12.2638 37.052 12.5737C36.8574 12.922 36.3016 13.383 36.3503 13.4676C36.6397 13.9849 36.9957 14.5253 37.4464 14.8352C37.9689 15.1964 38.0662 15.2629 37.6462 15.788C37.2441 16.2925 36.8523 16.815 36.4066 17.2632C35.9482 17.7242 35.4487 17.5117 35.2259 16.8714C35.1593 16.6818 34.9698 16.4744 34.8008 16.4155C34.2885 16.2362 33.7609 16.1081 33.2333 15.9954C32.8158 15.9084 32.4419 15.9468 32.1756 16.4488C32.0552 16.6793 31.7735 16.7971 31.5634 16.9661C30.8361 17.5501 30.1599 18.1776 30.1497 19.3198C30.1497 19.4786 30.206 19.768 30.2572 19.7732C30.9155 19.85 31.0205 20.4211 31.2049 20.9846C31.2612 21.1588 31.5865 21.3175 31.7888 21.3175C32.4931 21.3227 33.0412 21.671 33.6329 22.0757C34.2296 22.4829 34.9442 22.7185 35.6357 22.8747C36.2734 23.0182 36.737 23.1974 36.8138 24.0478C36.8343 24.2783 37.0879 24.4806 37.2364 24.6932C37.3261 24.6573 37.4157 24.6215 37.5053 24.5882C37.5053 24.0682 37.5873 23.5253 37.4874 23.031C37.3133 22.1679 37.513 21.8119 38.2839 21.8989C38.5375 21.9271 38.7834 22.0193 39.2598 22.1422C39.0164 21.671 38.8884 21.3047 38.6707 21.0307C38.1713 20.4007 38.1508 20.0907 38.6374 19.4709C38.7424 19.3378 38.8423 19.1457 38.8448 18.9766C38.8525 18.4055 38.8013 17.8344 38.8013 17.2632C38.7987 16.5615 38.9575 16.459 39.544 16.5845C39.9538 16.6716 40.3969 16.5717 40.799 16.6844C41.2344 16.8099 41.6365 17.0865 42.054 17.2965C42.4484 17.4963 42.8454 17.6935 43.2398 17.8958C43.4934 18.0239 43.7469 18.1571 44.0312 18.3056C44.1439 18.2851 44.4461 18.1519 44.4948 18.2313C44.6152 18.4209 44.7304 18.7897 44.6484 18.9382C44.523 19.1662 44.2259 19.2686 43.9569 19.453C44.0107 19.9191 44.2592 20.0088 44.8764 19.8065C45.2708 19.2046 45.5295 18.7564 45.8496 18.3748C45.9162 18.2954 46.2492 18.4029 46.39 18.5259C46.6846 18.782 46.9305 19.1098 47.1994 19.4044C47.2301 19.4376 47.2941 19.4658 47.2941 19.494C47.2941 20.3084 47.9831 20.8565 48.0779 21.4584C48.2827 22.7646 49.0998 22.9797 49.8784 23.41C50.0295 23.4945 50.1422 23.6841 50.26 23.8377C50.3829 23.9991 50.4623 24.2757 50.6083 24.3244C51.205 24.5216 51.2537 25.0338 51.2537 25.5998C51.2537 26.2811 51.2537 26.9624 51.2537 27.6846C51.9862 27.6257 52.3729 27.9587 52.6265 28.7475C53.2463 30.6761 53.2284 30.7427 51.4099 30.6479C50.9361 30.6248 50.4802 30.694 50.1063 30.2099C49.991 30.0614 49.635 30.1946 49.4378 30.0819C49.1843 29.9384 48.8616 29.7233 48.7822 29.4569C48.6797 29.1138 48.6131 28.6451 49.0895 28.4043C49.5608 28.1636 49.8041 27.723 49.6735 27.0418C49.1305 27.3645 48.5875 27.6257 48.106 27.9945C47.7116 28.2942 47.3966 28.6758 46.8434 28.5733C46.7102 28.5477 46.4361 28.9114 46.3721 29.147C46.2953 29.439 46.2082 29.9 46.6641 29.9589C47.0175 30.005 47.3863 29.9743 47.7449 29.9256C48.2136 29.8616 48.9077 30.2407 49.028 30.7196C49.069 30.8835 49.0409 31.1806 48.9461 31.2626C48.3032 31.7953 47.7372 32.4996 46.869 32.5816C46.7102 32.5969 46.5053 32.6533 46.408 32.7788C45.9649 33.3576 45.4731 33.2808 45.0531 32.8505C44.6587 32.4458 44.3155 32.5713 43.9313 32.7634C43.5036 32.976 43.2091 33.2808 43.291 33.8852C43.3474 34.3027 43.2091 34.5025 42.8198 34.674C41.5392 35.2324 40.2509 36.6615 40.3687 38.5081C40.3892 38.8308 40.0383 39.2662 39.7643 39.5121C39.101 40.114 38.3454 40.5878 37.7 41.2127C37.3927 41.5124 36.9342 41.9631 37.4669 42.5522C37.5489 42.6418 37.5489 42.8263 37.5873 42.9646C37.9151 44.1145 37.9177 44.0838 38.937 44.1478C39.1701 44.1632 39.4621 44.4065 39.6004 44.6396C39.9461 45.2184 40.2432 45.8408 40.5122 46.4734C40.6044 46.6911 40.5506 46.9882 40.5634 47.2468L40.3969 47.2827C40.1075 46.7909 39.8155 46.3018 39.457 45.6948C39.4032 46.0533 39.3622 46.3351 39.311 46.6936C38.056 46.481 36.9112 46.0559 36.0762 44.8777C36.0352 44.8214 35.9815 44.7523 35.9815 44.6882C35.9686 43.2975 35.0031 43.1029 34.1502 42.7392C33.7251 42.5573 33.4561 42.5625 33.2 43.0926C33.0694 43.3667 32.6673 43.633 32.3958 43.6202C31.881 43.5997 31.3765 43.3103 30.8565 43.2642C30.5082 43.2335 30.1241 43.3692 29.7962 43.5331C29.1739 43.843 28.6796 44.2451 28.7436 45.2107C28.782 45.787 28.5182 46.3812 28.4644 46.9779C28.4337 47.3032 28.5131 47.6643 28.6181 47.9768C29.1252 49.493 29.6221 49.8285 30.9769 49.388C31.3022 49.2804 31.5199 48.7272 31.7811 48.3737C31.8964 48.2175 32.0014 47.9204 32.1166 47.9153C32.6468 47.8948 33.1847 47.9204 33.7097 48.0101C33.8506 48.0331 34.058 48.343 34.0529 48.5172C34.0401 49.1088 34.1016 49.7081 33.6098 50.2075C33.3895 50.4304 33.4049 51.0297 33.4356 51.4446C33.4433 51.5573 33.8915 51.6469 34.1425 51.7135C34.4294 51.7878 34.7444 51.775 35.0133 51.8902C35.5 52.1028 35.8816 52.4358 35.7407 53.1529C35.6792 53.4628 35.6511 53.7855 35.628 54.1031C35.5307 55.4579 36.2222 56.2519 37.3952 56.1469C37.5796 56.1315 37.7691 56.1469 37.9766 56.1469C37.5489 57.0305 37.3773 57.0715 36.2273 56.5618C36.34 56.7436 36.4143 56.864 36.5424 57.0715C36.3451 57.0715 36.1479 57.1381 36.089 57.0612C35.4769 56.2801 34.5344 55.983 34.0145 55.0174C33.597 54.2388 32.9772 53.5985 32.0885 53.386C31.5916 53.2681 31.1485 52.8788 30.6645 52.6586C30.2419 52.4665 29.7834 52.1745 29.3608 52.2104C28.2723 52.3026 27.3606 51.8364 26.4385 51.3088C25.7701 50.9247 25.0939 50.5559 24.4101 50.2075C23.7672 49.8771 23.4753 49.3367 23.4573 48.53C23.4317 47.4107 22.689 46.837 22.0999 46.1532C22.0461 46.1839 21.9898 46.2147 21.936 46.2454C21.9719 46.417 22.0641 46.604 22.0282 46.7551C21.9667 47.0291 21.8797 47.4312 21.7081 47.5055C21.5262 47.5849 21.2163 47.3928 21.0012 47.2443C20.7451 47.065 20.5171 46.8217 20.302 46.5758C20.1483 46.3991 19.9408 46.1788 19.9255 45.9662C19.8922 45.4361 19.654 45.162 19.2519 45.0084C18.7371 44.8086 18.5194 44.4014 18.4861 43.7841C18.4707 43.505 18.2991 43.2309 18.1736 42.9671C18.0533 42.7136 17.8612 42.4959 17.7767 42.2321C17.4232 41.1308 16.8162 40.365 15.7918 40.0756C15.6714 40.0423 15.5612 39.8809 15.4819 39.7503C14.8313 38.6823 14.1859 37.6117 13.5533 36.5335C13.4636 36.3823 13.4227 36.1775 13.3971 35.993C13.2895 35.194 13.1256 34.3898 13.1205 33.5881C13.1153 32.7532 13.3612 31.9105 13.3202 31.0833C13.2869 30.4097 13.0948 29.6798 12.7798 29.1163C12.5186 28.6527 11.9269 28.4504 11.5709 28.0329C11.3251 27.7435 11.0638 27.262 11.1048 26.9111C11.1816 26.2683 10.8743 26.0557 10.4876 25.7228C10.4031 26.0352 10.3339 26.2837 10.2622 26.55C9.86008 26.5987 9.52713 26.6294 9.27102 26.1325C9.09173 25.7868 8.74341 25.5537 8.41815 25.2156C8.41815 25.2259 8.43607 25.1337 8.454 25.0415C8.68451 23.8659 8.37205 23.3486 7.49612 22.7211C6.66631 22.1243 5.96454 21.2971 5.21156 20.5671C5.13216 20.4903 5.09375 20.3008 5.01691 20.2854C3.92585 20.0523 2.97566 18.8998 1.88972 19.1995C0.926723 19.4684 -0.195069 19.4786 -0.989032 20.3443C-1.14526 20.5159 -1.20417 20.8489 -1.23746 21.1203C-1.36552 22.1986 -2.09546 22.6289 -2.95089 22.1038C-3.37604 21.8452 -3.97279 22.1269 -4.46454 22.7288C-4.80261 23.1411 -5.19703 23.5022 -5.59658 23.8352C-5.75025 23.9632 -5.991 23.9581 -6.19333 23.9991C-6.38029 24.035 -6.59287 23.9991 -6.75935 24.0836C-7.60453 24.5113 -8.42923 24.998 -9.28466 25.3975C-9.52541 25.5102 -9.87885 25.4743 -10.1222 25.354C-10.2323 25.3002 -10.3142 24.7623 -10.2195 24.6419C-9.97361 24.332 -9.63298 24.1092 -9.31027 23.8992C-9.04391 23.725 -8.73401 23.6405 -8.46252 23.4715C-7.94005 23.1462 -7.42525 22.803 -6.9207 22.4419C-6.79264 22.3523 -6.71581 22.1704 -6.60568 22.1653C-6.20101 22.0398 -5.79891 21.9143 -5.31741 21.7632C-5.5556 21.4712 -5.67341 21.2894 -5.82196 21.1511C-6.00124 20.9846 -6.19589 20.7592 -6.40334 20.7285C-7.19218 20.6107 -7.19475 20.6363 -7.3689 19.7706C-8.3319 19.9396 -8.69815 19.0612 -9.12843 18.3543C-9.58944 17.5987 -9.49468 17.1224 -8.88256 16.523C-8.36776 16.021 -8.39849 15.5498 -8.96451 15.1272C-9.32052 14.8608 -9.71237 14.6252 -10.0069 14.2871C-10.1836 14.0822 -10.2835 13.7032 -10.2758 13.4061C-10.2707 13.2396 -9.98898 13.0373 -9.79689 12.94C-9.26417 12.6685 -8.71352 12.4431 -8.09115 12.1639C-8.24739 12.0128 -8.38825 11.8463 -8.55216 11.7285C-8.92097 11.4647 -9.31027 11.2419 -9.66883 10.9602C-9.74567 10.8987 -9.78665 10.5863 -9.73286 10.5273C-9.21551 9.97669 -8.73145 9.34664 -8.12957 8.95222C-7.21011 8.34779 -6.21638 7.87141 -5.11251 7.84324C-4.98189 7.84068 -4.85896 7.67164 -4.72322 7.61786C-4.40819 7.4898 -4.08036 7.2721 -3.76534 7.28746C-2.22095 7.3643 -0.674007 7.46419 0.865255 7.64091C1.75398 7.74079 2.62734 7.99691 3.50838 8.18387C3.52887 8.189 3.56217 8.18387 3.56985 8.19924C4.03854 9.14944 4.87092 8.79599 5.56756 8.94454C5.71867 8.97783 5.84929 9.13151 5.99015 9.22883C6.6663 8.70635 7.50637 8.80368 7.6165 9.40555C8.07751 9.23652 8.53852 9.06491 9.04051 8.88051C8.9355 8.79343 8.84842 8.71916 8.70243 8.59622C8.85098 8.54756 8.97904 8.45536 9.03283 8.49377C9.47847 8.8216 9.87033 8.62183 10.316 8.46304C10.5157 8.39133 10.8205 8.69867 11.0792 8.83697C11.7425 8.01484 11.8988 8.00459 12.7926 8.76014C13.164 8.3734 13.5584 8.32474 13.9298 8.81136C13.9682 8.86002 14.0553 8.91124 14.1014 8.89588C14.8928 8.61927 15.5536 9.13919 16.2707 9.32872C16.4961 9.38762 16.7727 9.1981 17.0237 9.12126C16.9392 8.88051 16.8674 8.63208 16.765 8.39901C16.6395 8.11472 16.491 7.84324 16.2604 7.38223C15.8788 7.64603 15.5228 8.0302 15.1079 8.13777C14.7417 8.23254 14.2781 8.11216 13.9247 7.92264C13.5174 7.70494 13.1409 7.35406 12.8387 6.97244C12.6851 6.77779 12.6185 6.33727 12.703 6.0914C12.9463 5.37171 13.3843 4.7391 13.2972 3.88367C13.2818 3.73256 13.6199 3.38424 13.7992 3.38168C14.4804 3.37144 15.1617 3.44571 15.8404 3.52511C16.1964 3.56609 16.5524 3.6506 16.8956 3.76586C17.518 3.97843 18.2505 4.05783 18.7192 4.49835C19.654 5.38195 20.6887 5.40757 21.7644 5.3128C22.0359 5.28975 22.3227 4.98497 22.5379 4.73654C23.0373 4.16028 23.6315 4.24224 24.2308 4.34724C24.6944 4.4292 24.7635 4.83899 24.656 5.23597C24.2769 6.6523 24.656 7.68957 25.8213 8.22997C25.9698 8.29913 26.1824 8.19412 26.3617 8.1557C26.5487 8.11216 26.7356 8.05069 26.9969 7.97386L26.9764 7.98666ZM32.3753 29.6004C33.0822 29.8898 33.6457 30.1664 34.2322 30.3329C34.3833 30.3764 34.6548 30.1203 34.7751 29.9256C34.8238 29.8462 34.6471 29.5133 34.5113 29.375C33.7917 28.6502 33.6969 28.663 32.3728 29.6004H32.3753Z" fill="#60D06F" stroke="#082422" stroke-width="0.164607" stroke-linecap="round" stroke-linejoin="round"/>
<path d="M38.252 56.2404C38.567 56.0892 39.0485 56.1738 38.6464 55.5232C39.2585 55.7051 39.4992 55.3311 39.8578 54.9879C40.7926 54.0941 41.8786 53.3846 43.1771 53.6459C43.5741 53.7253 43.9096 54.1709 44.2912 54.4091C44.4858 54.5295 44.7215 54.6243 44.9366 54.6243C45.8817 54.6243 46.8293 54.6115 47.7718 54.5397C48.2251 54.5064 48.4275 54.6678 48.3942 55.1723C48.366 55.6103 48.5581 55.7921 48.8808 56.0022C49.3572 56.3121 49.7465 56.791 50.2024 57.1496C50.4175 57.3186 50.7018 57.4569 50.9554 57.4595C52.1207 57.4646 53.0197 58.069 53.7035 59.0704C54.0236 59.5391 54.2106 60.141 54.4155 60.7019C54.6614 61.3781 55.2069 61.857 55.8549 61.8903C56.006 61.898 56.1904 61.8288 56.3005 61.9057C57.3327 62.6458 58.4801 62.9122 59.6659 63.0736C59.8426 63.0966 60.0091 63.2656 60.1704 63.386C60.6494 63.7395 61.1027 64.1416 61.5996 64.4515C62.1528 64.7972 62.7137 66.1009 62.4627 66.7949C62.2501 67.3866 61.9453 67.9423 61.6303 68.4776C61.2666 69.0949 60.8415 69.666 60.4573 70.2704C60.3881 70.378 60.3523 70.5522 60.3651 70.6853C60.5111 72.1657 60.0424 73.4821 59.5455 74.7909C59.3944 75.1853 59.2894 75.6489 59.0333 75.9306C58.7157 76.2815 58.224 76.7553 57.8833 76.6862C57.1867 76.5453 56.6207 76.9218 56.2083 77.2599C55.714 77.6671 55.0276 78.1204 55.0942 79.1423C55.1224 79.5752 54.8022 80.0541 54.5973 80.4844C54.3771 80.9454 54.1312 81.3962 53.852 81.8162C53.6625 82.103 53.3987 82.3259 53.1708 82.5769C53.0965 82.6588 52.9684 82.728 52.9505 82.8253C52.6867 84.2083 51.8338 84.7206 50.7044 84.8128C50.8299 86.3623 50.251 87.146 48.9013 87.3765C48.5299 87.4405 48.1816 87.6864 47.7565 87.8785C47.6591 88.4112 47.5823 89.0771 46.8831 89.2333C46.8344 89.2436 46.7986 89.3896 46.773 89.4792C46.7525 89.5484 46.773 89.6406 46.7448 89.6969C46.2966 90.5165 45.8945 91.3822 45.3669 92.1326C45.0723 92.5501 44.9187 92.7396 45.3848 93.0828C45.8842 93.4516 45.8766 93.8178 45.4975 94.3634C45.08 94.9652 44.6651 95.5825 44.327 96.2433C43.8276 97.2216 44.6395 98.8685 45.6281 98.9888C46.0251 99.0375 46.417 99.1451 46.8114 99.2245C46.8319 99.3192 46.8524 99.4114 46.8754 99.5062C46.5655 99.6983 46.2607 99.9032 45.9457 100.082C44.135 101.117 42.6034 100.907 41.1384 99.3039C40.493 98.597 39.9731 97.7467 40.0166 96.6146C40.0499 95.7105 40.0653 94.8039 40.0499 93.8998C40.0448 93.5592 39.9295 93.2211 39.8322 92.7216C40.5596 92.089 40.4955 91.0031 40.5391 89.9325C40.5621 89.4101 40.744 88.8978 40.7978 88.3728C40.9489 86.895 40.8925 85.3813 41.6609 84.047C41.8683 83.6858 41.8606 83.1506 41.9144 82.6895C42.1859 80.3128 42.46 77.9386 42.7007 75.5567C42.7622 74.9523 42.7647 74.3171 42.6751 73.7203C42.6264 73.4027 42.3652 72.9597 42.1244 72.8803C41.1025 72.5473 40.3419 71.8097 39.6119 70.9978C39.4788 70.8493 39.3379 70.6853 39.2636 70.4958C38.8513 69.4432 38.4773 68.3726 38.0496 67.3302C37.8985 66.9588 37.6885 66.5619 37.4068 66.3288C36.8023 65.8217 36.7716 65.1532 36.8228 64.4182C36.8587 63.8829 36.9125 63.3502 36.915 62.8149C36.915 61.7136 37.6936 60.3971 38.5029 59.8849C38.7872 59.7056 39.0562 59.1217 39.0254 58.7554C38.9742 58.1023 38.695 57.4748 38.5004 56.8397C38.4466 56.6629 38.3595 56.499 38.2494 56.2429L38.252 56.2404Z" fill="#60D06F" stroke="#082422" stroke-width="0.164607" stroke-linecap="round" stroke-linejoin="round"/>
<path d="M71.103 -2.6677C71.1363 -2.66002 71.3002 -2.64209 71.459 -2.59087C71.6255 -2.53708 71.7868 -2.45512 72.1146 -2.31682C71.6716 -1.95826 71.3693 -1.71239 71.0364 -1.44346C71.1619 -1.3948 71.2823 -1.34614 71.4052 -1.30004C71.418 -1.23089 71.4283 -1.15917 71.4411 -1.09002C71.1465 -1.00294 70.852 -0.918424 70.414 -0.790365C70.8648 -0.675112 71.2208 -0.580348 71.6716 -0.465096C71.5538 0.349357 71.4283 1.20479 71.2976 2.12169C71.5205 2.23182 71.7356 2.3189 71.9379 2.44183C72.3016 2.65953 72.3067 3.23323 71.9917 3.53289C71.5717 3.93243 71.1849 4.37808 70.7828 4.80323C70.706 4.88519 70.6292 4.97227 70.5395 5.0363C70.3244 5.19253 69.9581 5.29241 69.912 5.49218C69.784 6.06332 69.6457 6.7113 69.7661 7.25683C69.9991 8.3274 69.8403 9.05221 69.0208 9.60798C67.4943 10.6427 65.8449 11.2881 64.1059 11.6672C63.6321 11.7696 63.3503 12.1307 63.0584 12.6097C62.6281 13.3166 62.2721 14.213 61.2911 14.2616C60.5868 14.2949 59.9875 14.6176 59.8646 15.5678C59.8466 15.701 59.757 15.8828 59.6597 15.9315C58.8145 16.3362 58.7633 17.3709 58.3228 18.0931C58.2587 18.1956 58.2741 18.3697 58.2715 18.5106C58.2485 19.448 57.8617 19.868 57.0934 19.6529C56.3455 19.4429 55.6233 19.1202 54.8959 18.8256C54.7653 18.7718 54.6449 18.6335 54.5604 18.5004C54.189 17.9164 53.8766 17.2761 53.4591 16.7434C53.0288 16.1953 52.6344 15.6728 52.6831 14.8789C52.6882 14.8148 52.6574 14.7047 52.6165 14.6868C51.7252 14.2616 51.8456 13.2397 51.6381 12.4406C51.5331 12.0334 51.615 11.5263 51.7124 11.0935C51.8071 10.6683 51.9378 10.3687 51.5126 10.028C51.259 9.82312 51.1387 9.34162 51.0388 8.95745C50.9158 8.48363 51.026 7.9381 50.6059 7.55905C50.4933 7.45916 50.46 7.12621 50.5061 6.93925C50.6469 6.36554 50.063 5.81233 50.4881 5.24887C49.9042 4.7392 49.8811 3.70449 49.4457 3.2947C48.4776 2.38292 47.3789 1.47883 45.9062 2.03205C45.4017 2.22157 44.7434 2.22925 44.2517 2.02436C43.5576 1.73495 42.9685 1.12539 42.2975 0.738654C41.7366 0.415946 41.688 0.123974 42.1669 -0.237151C41.8724 -0.549614 41.5983 -0.839026 41.1808 -1.28211C41.7366 -1.43322 42.0798 -1.52542 42.423 -1.61762C42.715 -1.69446 43.0607 -1.68165 43.2912 -1.86093C43.8675 -2.30914 44.4924 -2.29377 45.1353 -2.33731C45.394 -2.35524 45.7218 -2.54733 45.8703 -2.78039C46.1034 -3.1492 46.0778 -3.53082 45.5348 -3.56155C45.2659 -3.57692 44.9995 -3.65119 44.6051 -3.7229C44.7895 -4.0328 44.8664 -4.31197 45.02 -4.39137C45.7372 -4.75505 46.4773 -5.05983 47.2073 -5.39022C47.3405 -5.45169 47.489 -5.50548 47.5889 -5.61561C48.9309 -7.07804 50.6136 -7.12414 52.2912 -7.0012C52.7906 -6.96534 53.226 -6.59397 53.7203 -7.10621C53.8714 -7.26244 54.2582 -7.10109 54.5373 -7.11389C54.7909 -7.12414 55.0419 -7.17536 55.2929 -7.20866C55.2903 -7.28549 55.2878 -7.36489 55.2852 -7.44172H54.4067C56.0075 -8.44314 57.4622 -9.16283 59.1526 -8.67621C59.3088 -8.63011 59.5009 -8.66596 59.6571 -8.72743C61.6446 -9.49834 63.6884 -9.51371 65.7271 -9.20381C66.58 -9.07319 67.4021 -8.63779 68.2268 -8.30996C68.8364 -8.06665 69.428 -7.77467 70.0299 -7.50319C69.9607 -7.44428 69.8941 -7.38538 69.825 -7.32647C69.825 -6.98327 69.7968 -6.34298 69.8301 -6.33786C70.3449 -6.27127 70.9647 -6.07918 71.3719 -6.32505C72.7421 -7.14719 73.8434 -6.65288 74.9294 -5.74367C74.3813 -4.98556 73.5873 -4.74737 72.8779 -4.31709C72.2248 -3.92011 71.7049 -3.23628 71.1107 -2.66258L71.103 -2.6677Z" fill="#60D06F" stroke="#082422" stroke-width="0.164607" stroke-linecap="round" stroke-linejoin="round"/>
<path d="M19.2267 0.812548C19.219 0.914995 19.2036 1.09171 19.1857 1.31198C19.7158 1.376 20.2127 1.43491 20.7147 1.49638C20.9606 1.13782 21.2295 0.743397 21.4984 0.348977C21.5317 0.372028 21.5676 0.395077 21.6009 0.418128C21.5906 0.523136 21.5804 0.628145 21.5676 0.733153C21.6111 0.681929 21.6572 0.630706 21.7008 0.576921C21.9697 0.83816 22.2232 1.12757 22.5126 1.35552C22.7508 1.54504 23.0351 1.65517 23.2912 1.81909C23.5115 1.96251 23.719 2.13155 23.9315 2.28778C23.8035 2.47219 23.7061 2.71806 23.5397 2.82819C23.3092 2.97674 23.03 3.03052 22.7688 3.11248C22.0568 3.3353 21.3396 3.53507 20.6302 3.77582C20.0334 3.98071 19.4469 4.31623 18.9449 3.54788C18.8707 3.43262 18.6863 3.39677 18.5454 3.35067C17.8027 3.1048 16.9523 3.04589 16.3402 2.57976C15.746 2.12643 15.1826 2.04191 14.5397 1.96251C14.1248 1.91129 14.1914 1.54504 14.3963 1.24539C14.6703 0.848405 14.9444 0.448863 15.2492 0.0826153C15.3542 -0.0454431 15.5437 -0.132523 15.7025 -0.145329C16.3121 -0.19143 16.9242 -0.217041 17.5363 -0.217041C17.9307 -0.217041 18.2765 -0.150452 18.4301 0.418128C18.4814 0.610216 18.9142 0.664001 19.2215 0.804865L19.2267 0.812548Z" fill="#60D06F" stroke="#082422" stroke-width="0.164607" stroke-linecap="round" stroke-linejoin="round"/>
<path d="M68.3521 14.8353C68.1242 14.5792 67.8322 14.3615 67.6811 14.0567C67.448 13.5829 67.7964 13.3166 68.0781 13.0374C68.5775 12.5431 68.9591 12.2229 69.7429 12.6942C70.2986 13.0297 71.1976 13.0656 71.8763 12.4919C72.45 12.0052 73.1082 12.1948 73.5718 12.561C73.9637 12.8709 74.2454 13.5215 74.3555 14.0772C74.4093 14.3538 74.0354 14.8661 73.746 15.0838C73.0698 15.5909 72.3296 15.993 71.6099 16.4233C70.9543 16.8126 70.3166 16.6947 69.7685 16.1262C69.6788 16.0314 69.5482 15.952 69.4304 15.9366C68.8157 15.8547 68.4981 15.4859 68.5417 14.7329C68.4776 14.7662 68.4162 14.802 68.3521 14.8353Z" fill="#60D06F" stroke="#082422" stroke-width="0.164607" stroke-linecap="round" stroke-linejoin="round"/>
<path d="M39.732 49.5227C39.7858 49.8992 39.8344 50.0119 39.8063 50.0887C39.691 50.4191 39.5527 50.7392 39.4221 51.0619C39.0686 50.8161 38.7101 50.583 38.3771 50.3064C38.3413 50.2757 38.4283 49.9427 38.5257 49.8275C38.8202 49.4868 38.7587 49.2333 38.4412 48.9925C38.1389 48.7646 37.8495 48.5059 37.5294 48.3215C37.3731 48.2293 37.0607 48.1729 36.9813 48.2703C36.4204 48.9541 35.8288 48.4367 35.2525 48.3906C34.8581 48.3599 34.7531 48.0551 34.9016 47.7273C35.0527 47.3969 35.273 47.023 35.5496 46.8693C36.4383 46.3724 37.3066 46.2726 38.2158 47.0051C38.8996 47.5557 39.7166 47.9066 40.5055 48.2626C40.6412 48.3241 40.9229 47.9706 41.2738 47.7068C41.5094 47.9552 41.8398 48.301 42.2138 48.6954C42.749 48.5392 43.8964 49.1206 44.1398 49.789C44.3088 50.2552 44.1679 50.5267 43.6992 50.6009C43.356 50.6547 43.0256 50.811 42.6876 50.9108C42.5902 50.939 42.4801 50.9544 42.3854 50.9313C42.0191 50.8417 41.658 50.7111 41.2917 50.6342C40.9229 50.5574 40.5849 50.5241 40.485 49.9658C40.4568 49.8044 40.0905 49.725 39.7345 49.5252L39.732 49.5227Z" fill="#60D06F" stroke="#082422" stroke-width="0.164607" stroke-linecap="round" stroke-linejoin="round"/>
<path d="M25.3254 -0.304867C25.4125 -0.458537 25.4996 -0.612208 25.5969 -0.783807C25.5226 -0.829908 25.474 -0.886253 25.4202 -0.893937C25.0591 -0.934916 24.6877 -0.919549 24.3394 -1.01431C24.1883 -1.05529 24.0653 -1.30628 23.9629 -1.48557C23.9014 -1.5957 23.9373 -1.78522 23.8681 -1.88255C23.7196 -2.09256 23.1843 -2.20269 23.5454 -2.53052C23.8656 -2.81994 24.3957 -2.90958 24.8286 -2.89677C25.1769 -2.88653 25.5355 -2.62273 25.8633 -2.41271C26.373 -2.08488 26.8877 -1.74937 27.3462 -1.33702C27.6971 -1.02199 27.505 -0.584034 27.1874 -0.46622C26.6137 -0.256204 25.999 -0.189614 25.4023 -0.0641165C25.3767 -0.143513 25.351 -0.222909 25.3254 -0.302305V-0.304867Z" fill="#60D06F" stroke="#082422" stroke-width="0.164607" stroke-linecap="round" stroke-linejoin="round"/>
<path d="M18.3356 -0.766861C18.9426 -1.07932 19.4779 -1.34569 20.003 -1.63254C20.2283 -1.75547 20.4384 -1.91939 20.6535 -2.06537C21.0786 -2.35735 21.491 -2.27027 21.8444 -1.93219C22.2209 -1.57107 22.1723 -1.17665 21.8931 -0.715639C21.2528 0.337002 20.5613 0.590558 19.5471 0.0245392C19.1501 -0.198282 18.7762 -0.474889 18.3356 -0.764301V-0.766861Z" fill="#60D06F" stroke="#082422" stroke-width="0.164607" stroke-linecap="round" stroke-linejoin="round"/>
<path d="M30.8728 -0.139027C30.5731 -0.0852424 30.2607 0.050499 29.9713 0.00439787C29.249 -0.110855 28.4704 -0.180006 27.9889 -0.917623C27.8506 -1.1302 27.9198 -1.51694 27.8942 -1.82172C28.1656 -1.8294 28.4986 -1.95746 28.6907 -1.82172C29.0877 -1.53999 29.7152 -1.50925 29.7689 -0.738342C29.7741 -0.666629 30.0686 -0.612843 30.2325 -0.569304C30.4477 -0.512958 30.6654 -0.47454 30.8805 -0.431C30.8779 -0.333676 30.8728 -0.23379 30.8702 -0.136465L30.8728 -0.139027Z" fill="#60D06F" stroke="#082422" stroke-width="0.164607" stroke-linecap="round" stroke-linejoin="round"/>
<path d="M68.1297 50.4896C68.2295 50.9609 68.2782 51.1965 68.3013 51.3092C68.6521 51.3553 68.9339 51.3937 69.2156 51.4321C69.0133 51.8906 68.8109 52.3465 68.6086 52.8049C68.5241 52.8203 68.4396 52.8331 68.3525 52.8485C68.1783 52.5975 67.999 52.3542 67.8351 52.0955C67.7506 51.9623 67.6891 51.8112 67.6277 51.6626C67.5329 51.4244 67.3152 51.0659 67.3869 50.9609C67.5303 50.7457 67.8274 50.6638 68.1297 50.4871V50.4896Z" fill="#60D06F" stroke="#082422" stroke-width="0.164607" stroke-linecap="round" stroke-linejoin="round"/>
<path d="M76.8687 17.2562C76.8789 16.7901 76.8584 16.4085 77.3911 16.4264C77.8521 16.4418 78.1569 16.598 78.1288 17.164C78.1057 17.6096 78.0084 18.045 77.4885 18.0655C76.9378 18.0886 76.884 17.6609 76.8687 17.2588V17.2562Z" fill="#60D06F" stroke="#082422" stroke-width="0.164607" stroke-linecap="round" stroke-linejoin="round"/>
<path d="M81.4054 18.0795C81.1748 18.5841 81.0724 18.9452 80.8701 19.1988C80.719 19.3857 80.4398 19.4831 80.2067 19.5112C80.135 19.5189 79.9327 19.1373 79.9634 18.976C80.0326 18.5995 80.1273 18.0898 80.363 17.9361C80.5935 17.785 81.0109 18.0104 81.4028 18.0795H81.4054Z" fill="#60D06F" stroke="#082422" stroke-width="0.164607" stroke-linecap="round" stroke-linejoin="round"/>
<path d="M47.8748 53.8554C47.7493 53.1562 47.593 52.4365 47.5034 51.704C47.4778 51.494 47.6442 51.2558 47.7211 51.0278C47.8517 51.2122 47.99 51.3864 48.1053 51.5836C48.1462 51.6553 48.1027 51.7936 48.1437 51.8679C48.5842 52.6695 48.4459 53.3457 47.8722 53.8528L47.8748 53.8554Z" fill="#60D06F" stroke="#082422" stroke-width="0.164607" stroke-linecap="round" stroke-linejoin="round"/>
<path d="M45.0266 49.1782C45.3826 49.6674 45.5824 49.9414 45.7822 50.2155C45.5133 50.4383 45.2648 50.7405 44.9626 50.843C44.8294 50.8865 44.4119 50.4742 44.435 50.3512C44.5016 50.0106 44.7372 49.7161 45.0241 49.1782H45.0266Z" fill="#60D06F" stroke="#082422" stroke-width="0.164607" stroke-linecap="round" stroke-linejoin="round"/>
<path d="M31.6673 62.9282C31.4061 62.5312 31.1116 62.2597 31.0578 61.9345C31.027 61.7603 31.4087 61.4965 31.6033 61.2737C31.8978 61.6092 32.1898 61.9473 32.4844 62.2828C32.2615 62.4595 32.0387 62.6362 31.6673 62.9308V62.9282Z" fill="#60D06F" stroke="#082422" stroke-width="0.164607" stroke-linecap="round" stroke-linejoin="round"/>
<path d="M24.6862 0.178821C24.2251 0.562996 23.3543 0.235168 23.3262 -0.218159C23.3185 -0.348779 23.6796 -0.65868 23.7411 -0.620263C24.0689 -0.410247 24.3532 -0.115714 24.6862 0.178821Z" fill="#60D06F" stroke="#082422" stroke-width="0.164607" stroke-linecap="round" stroke-linejoin="round"/>
<path d="M38.4222 16.0139C38.6041 15.4044 39.3443 15.0817 39.626 15.3583C39.6926 15.4249 39.754 15.5965 39.7233 15.6707C39.6695 15.8039 39.5543 15.9832 39.4467 15.9986C39.1368 16.0421 38.8167 16.0139 38.4197 16.0139H38.4222Z" fill="#60D06F" stroke="#082422" stroke-width="0.164607" stroke-linecap="round" stroke-linejoin="round"/>
<path d="M37.891 16.4521C38.1062 16.7211 38.3367 16.9669 38.3187 16.99C38.1548 17.2256 37.9602 17.4408 37.745 17.6175C37.722 17.638 37.4172 17.346 37.4377 17.2871C37.5299 17.0258 37.6912 16.7979 37.8885 16.4521H37.891Z" fill="#60D06F" stroke="#082422" stroke-width="0.164607" stroke-linecap="round" stroke-linejoin="round"/>
<path d="M67.0778 36.4551C67.2776 36.6164 67.4774 36.7752 67.6797 36.9366C67.5516 37.0877 67.4236 37.2414 67.293 37.3925C67.129 37.1978 66.9677 37.0032 66.8038 36.8085C66.896 36.6907 66.9856 36.5755 67.0778 36.4576V36.4551Z" fill="#60D06F" stroke="#082422" stroke-width="0.164607" stroke-linecap="round" stroke-linejoin="round"/>
<path d="M66.0587 37.0303C65.923 36.7844 65.7565 36.6179 65.7796 36.4899C65.8052 36.3439 66.0331 36.1057 66.1048 36.1339C66.2636 36.1954 66.3814 36.4002 66.5146 36.5462C66.3917 36.6769 66.2687 36.8075 66.0587 37.0303Z" fill="#60D06F" stroke="#082422" stroke-width="0.164607" stroke-linecap="round" stroke-linejoin="round"/>
<path d="M24.3354 23.0669C24.3354 23.0669 40.3643 24.2285 40.6046 36.0331C40.6046 36.0331 27.355 34.623 20.138 39.8428" stroke="#082422" stroke-width="0.164607" stroke-linecap="round" stroke-linejoin="round" stroke-dasharray="0.82 0.82"/>
<path d="M43.523 53.9157C43.523 53.9157 49.4403 41.705 40.9103 36.5458C40.9103 36.5458 36.3479 46.8292 29.4844 49.9027" stroke="#082422" stroke-width="0.164607" stroke-linecap="round" stroke-linejoin="round" stroke-dasharray="0.82 0.82"/>
<path d="M25.5001 17.8988C25.3618 17.8783 25.2184 17.8655 25.0724 17.8655C25.0263 17.8655 24.9776 17.8655 24.9315 17.868C23.0439 17.9628 22.022 20.1372 23.0798 21.7021L25.1466 24.755L27.1367 21.6483C28.0843 20.1705 27.2314 18.1677 25.4975 17.8962L25.5001 17.8988Z" fill="#082422" stroke="#082422" stroke-width="0.164607" stroke-linecap="round" stroke-linejoin="round"/>
<path d="M26.5641 20.3108C26.5641 21.1227 25.9059 21.7784 25.0966 21.7784C24.2873 21.7784 23.629 21.1201 23.629 20.3108C23.629 19.5015 24.2873 18.8433 25.0966 18.8433C25.9059 18.8433 26.5641 19.5015 26.5641 20.3108Z" fill="#60D06F" stroke="#082422" stroke-width="0.164607" stroke-linecap="round" stroke-linejoin="round"/>
<path d="M41.4379 29.9769C41.2996 29.9564 41.1562 29.9436 41.0102 29.9436C40.9641 29.9436 40.9154 29.9436 40.8693 29.9462C38.9817 30.0409 37.9598 32.2154 39.0176 33.7802L41.0844 36.8332L43.0745 33.7265C44.0221 32.2487 43.1692 30.2458 41.4353 29.9743L41.4379 29.9769Z" fill="#082422" stroke="#082422" stroke-width="0.164607" stroke-linecap="round" stroke-linejoin="round"/>
<path d="M42.5013 32.3889C42.5013 33.2008 41.8431 33.8565 41.0338 33.8565C40.2244 33.8565 39.5662 33.1983 39.5662 32.3889C39.5662 31.5796 40.2244 30.9214 41.0338 30.9214C41.8431 30.9214 42.5013 31.5796 42.5013 32.3889Z" fill="#60D06F" stroke="#082422" stroke-width="0.164607" stroke-linecap="round" stroke-linejoin="round"/>
<path d="M44.221 47.8509C44.0827 47.8304 43.9392 47.8176 43.7933 47.8176C43.7472 47.8176 43.6985 47.8176 43.6524 47.8202C41.7648 47.915 40.7429 50.0894 41.8007 51.6543L43.8675 54.7072L45.8576 51.6005C46.8052 50.1227 45.9523 48.1198 44.2184 47.8484L44.221 47.8509Z" fill="#082422" stroke="#082422" stroke-width="0.164607" stroke-linecap="round" stroke-linejoin="round"/>
<path d="M45.2851 50.2627C45.2851 51.0746 44.6269 51.7303 43.8176 51.7303C43.0083 51.7303 42.35 51.072 42.35 50.2627C42.35 49.4534 43.0083 48.7952 43.8176 48.7952C44.6269 48.7952 45.2851 49.4534 45.2851 50.2627Z" fill="#60D06F" stroke="#082422" stroke-width="0.164607" stroke-linecap="round" stroke-linejoin="round"/>
<path d="M19.6287 33.8368C19.4904 33.8163 19.347 33.8035 19.201 33.8035C19.1549 33.8035 19.1063 33.8035 19.0602 33.806C17.1726 33.9008 16.1507 36.0752 17.2084 37.6401L19.2753 40.693L21.2653 37.5863C22.213 36.1085 21.3601 34.1057 19.6262 33.8342L19.6287 33.8368Z" fill="#082422" stroke="#082422" stroke-width="0.164607" stroke-linecap="round" stroke-linejoin="round"/>
<path d="M20.6929 36.2488C20.6929 37.0607 20.0346 37.7163 19.2253 37.7163C18.416 37.7163 17.7578 37.0581 17.7578 36.2488C17.7578 35.4395 18.416 34.7812 19.2253 34.7812C20.0346 34.7812 20.6929 35.4395 20.6929 36.2488Z" fill="#60D06F" stroke="#082422" stroke-width="0.164607" stroke-linecap="round" stroke-linejoin="round"/>
<path d="M29.708 43.4852C29.5697 43.4647 29.4262 43.4519 29.2803 43.4519C29.2342 43.4519 29.1855 43.4519 29.1394 43.4545C27.2518 43.5492 26.2299 45.7237 27.2877 47.2885L29.3545 50.3415L31.3446 47.2348C32.2922 45.757 31.4393 43.7541 29.7054 43.4826L29.708 43.4852Z" fill="#082422" stroke="#082422" stroke-width="0.164607" stroke-linecap="round" stroke-linejoin="round"/>
<path d="M30.772 45.8972C30.772 46.7091 30.1137 47.3648 29.3044 47.3648C28.4951 47.3648 27.8369 46.7066 27.8369 45.8972C27.8369 45.0879 28.4951 44.4297 29.3044 44.4297C30.1137 44.4297 30.772 45.0879 30.772 45.8972Z" fill="#60D06F" stroke="#082422" stroke-width="0.164607" stroke-linecap="round" stroke-linejoin="round"/>
<path d="M51.155 63.2625C51.0167 63.2421 50.8733 63.2292 50.7273 63.2292C50.6812 63.2292 50.6325 63.2292 50.5864 63.2318C48.6988 63.3266 47.6769 65.501 48.7347 67.0659L50.8015 70.1188L52.7916 67.0121C53.7392 65.5343 52.8863 63.5315 51.1524 63.26L51.155 63.2625Z" fill="#082422" stroke="#082422" stroke-width="0.164607" stroke-linecap="round" stroke-linejoin="round"/>
<path d="M52.2165 65.6746C52.2165 66.4865 51.5583 67.1421 50.7489 67.1421C49.9396 67.1421 49.2814 66.4839 49.2814 65.6746C49.2814 64.8653 49.9396 64.207 50.7489 64.207C51.5583 64.207 52.2165 64.8653 52.2165 65.6746Z" fill="#60D06F" stroke="#082422" stroke-width="0.164607" stroke-linecap="round" stroke-linejoin="round"/>
</g>
<path d="M40 80C62.0914 80 80 62.0914 80 40C80 17.9086 62.0914 0 40 0C17.9086 0 0 17.9086 0 40C0 62.0914 17.9086 80 40 80Z" stroke="#082422" stroke-width="0.164607" stroke-linecap="round" stroke-linejoin="round"/>
</g>
<defs>
<clipPath id="clip0_664_11564">
<rect width="80" height="80" fill="white"/>
</clipPath>
</defs>
</svg>
